<svg id="16282281824-posters-1672276073017" itemscope="" itemtype="/posters"
  itemid="/+16282281824/posters/1672276073017" viewBox="0 0 683 512" preserveAspectRatio="xMidYMid slice" tabindex="0"
  xmlns="http://www.w3.org/2000/svg">
  <defs class="gradients">
    <g class="radial">
      <radialGradient id="16282281824-posters-1672276073017-radial" gradientTransform="rotate(0)">
        <stop itemprop="radial" stop-color="#8a99ad" offset="0%"></stop>
        <stop itemprop="radial" stop-color="#919eb1" offset="15%"></stop>
        <stop itemprop="radial" stop-color="#8e9baf" offset="30%"></stop>
        <stop itemprop="radial" stop-color="#8593a8" offset="45%"></stop>
        <stop itemprop="radial" stop-color="#7f8fa4" offset="60%"></stop>
        <stop itemprop="radial" stop-color="#76879e" offset="75%"></stop>
        <stop itemprop="radial" stop-color="#60728a" offset="90%"></stop>
      </radialGradient>
      <radialGradient id="16282281824-posters-1672276073017-radial-background" gradientTransform="rotate(0)">
        <stop stop-color="#c3cad5" offset="0%"></stop>
        <stop stop-color="#c3cbd5" offset="15%"></stop>
        <stop stop-color="#c3cad5" offset="30%"></stop>
        <stop stop-color="#c3cbd5" offset="45%"></stop>
        <stop stop-color="#c3cbd5" offset="60%"></stop>
        <stop stop-color="#c3cbd5" offset="75%"></stop>
        <stop stop-color="#c3cad5" offset="90%"></stop>
      </radialGradient>
      <radialGradient id="16282281824-posters-1672276073017-radial-light" gradientTransform="rotate(0)">
        <stop stop-color="#99a6b8" offset="0%"></stop>
        <stop stop-color="#9aa6b7" offset="15%"></stop>
        <stop stop-color="#9aa5b7" offset="30%"></stop>
        <stop stop-color="#9aa6b7" offset="45%"></stop>
        <stop stop-color="#9aa6b7" offset="60%"></stop>
        <stop stop-color="#9aa6b7" offset="75%"></stop>
        <stop stop-color="#99a6b8" offset="90%"></stop>
      </radialGradient>
      <radialGradient id="16282281824-posters-1672276073017-radial-regular" gradientTransform="rotate(0)">
        <stop stop-color="#5c6d84" offset="0%"></stop>
        <stop stop-color="#5d6d83" offset="15%"></stop>
        <stop stop-color="#5d6c83" offset="30%"></stop>
        <stop stop-color="#5d6d83" offset="45%"></stop>
        <stop stop-color="#5d6e83" offset="60%"></stop>
        <stop stop-color="#5d6e83" offset="75%"></stop>
        <stop stop-color="#5c6d84" offset="90%"></stop>
      </radialGradient>
      <radialGradient id="16282281824-posters-1672276073017-radial-bold" gradientTransform="rotate(0)">
        <stop stop-color="#1b2027" offset="0%"></stop>
        <stop stop-color="#1c2027" offset="15%"></stop>
        <stop stop-color="#1c2027" offset="30%"></stop>
        <stop stop-color="#1c2027" offset="45%"></stop>
        <stop stop-color="#1c2027" offset="60%"></stop>
        <stop stop-color="#1c2027" offset="75%"></stop>
        <stop stop-color="#1b2027" offset="90%"></stop>
      </radialGradient>
    </g>
    <g class="vertical">
      <linearGradient id="16282281824-posters-1672276073017-vertical" x1="0" x2="0" y1="0" y2="100%"
        gradientTransform="rotate(0)">
        <stop itemprop="vertical" stop-color="#8a99ad" offset="0%"></stop>
        <stop itemprop="vertical" stop-color="#919eb1" offset="15%"></stop>
        <stop itemprop="vertical" stop-color="#8e9baf" offset="30%"></stop>
        <stop itemprop="vertical" stop-color="#8593a8" offset="45%"></stop>
        <stop itemprop="vertical" stop-color="#7f8ea4" offset="60%"></stop>
        <stop itemprop="vertical" stop-color="#76869e" offset="75%"></stop>
        <stop itemprop="vertical" stop-color="#60728a" offset="90%"></stop>
      </linearGradient>
      <linearGradient id="16282281824-posters-1672276073017-vertical-background" x1="0" x2="0" y1="0" y2="100%"
        gradientTransform="rotate(0)">
        <stop stop-color="#c3cad5" offset="0%"></stop>
        <stop stop-color="#c3cbd5" offset="15%"></stop>
        <stop stop-color="#c3cad5" offset="30%"></stop>
        <stop stop-color="#c3cbd5" offset="45%"></stop>
        <stop stop-color="#c3cad5" offset="60%"></stop>
        <stop stop-color="#c3cad5" offset="75%"></stop>
        <stop stop-color="#c3cbd5" offset="90%"></stop>
      </linearGradient>
      <linearGradient id="16282281824-posters-1672276073017-vertical-light" x1="0" x2="0" y1="0" y2="100%"
        gradientTransform="rotate(0)">
        <stop stop-color="#96a5bb" offset="0%"></stop>
        <stop stop-color="#96a5bb" offset="15%"></stop>
        <stop stop-color="#96a5bb" offset="30%"></stop>
        <stop stop-color="#96a5bb" offset="45%"></stop>
        <stop stop-color="#96a5bb" offset="60%"></stop>
        <stop stop-color="#96a5bb" offset="75%"></stop>
        <stop stop-color="#96a6bb" offset="90%"></stop>
      </linearGradient>
      <linearGradient id="16282281824-posters-1672276073017-vertical-regular" x1="0" x2="0" y1="0" y2="100%"
        gradientTransform="rotate(0) ">
        <stop stop-color="#5c6d84" offset="0%"></stop>
        <stop stop-color="#5d6d83" offset="15%"></stop>
        <stop stop-color="#5d6c83" offset="30%"></stop>
        <stop stop-color="#5d6d83" offset="45%"></stop>
        <stop stop-color="#5d6c83" offset="60%"></stop>
        <stop stop-color="#5d6c83" offset="75%"></stop>
        <stop stop-color="#5c6e84" offset="90%"></stop>
      </linearGradient>
      <linearGradient id="16282281824-posters-1672276073017-vertical-bold" x1="0" x2="0" y1="0" y2="100%"
        gradientTransform="rotate(0)">
        <stop stop-color="#1b2027" offset="0%"></stop>
        <stop stop-color="#1c2027" offset="15%"></stop>
        <stop stop-color="#1c2027" offset="30%"></stop>
        <stop stop-color="#1c2027" offset="45%"></stop>
        <stop stop-color="#1c2027" offset="60%"></stop>
        <stop stop-color="#1c2027" offset="75%"></stop>
        <stop stop-color="#1b2027" offset="90%"></stop>
      </linearGradient>
    </g>
    <g class="horizontal">
      <linearGradient id="16282281824-posters-1672276073017-horizontal" x1="0" x2="100%" y1="0" y2="0"
        gradientTransform="rotate(0)">
        <stop itemprop="horizontal" stop-color="#8d9bb0" offset="0%"></stop>
        <stop itemprop="horizontal" stop-color="#919fb1" offset="15%"></stop>
        <stop itemprop="horizontal" stop-color="#8896aa" offset="30%"></stop>
        <stop itemprop="horizontal" stop-color="#7f8ea4" offset="45%"></stop>
        <stop itemprop="horizontal" stop-color="#6a7c95" offset="60%"></stop>
        <stop itemprop="horizontal" stop-color="#5b6d86" offset="75%"></stop>
        <stop itemprop="horizontal" stop-color="#62748d" offset="90%"></stop>
      </linearGradient>
      <linearGradient id="16282281824-posters-1672276073017-horizontal-background" x1="0" x2="100%" y1="0" y2="0"
        gradientTransform="rotate(0)">
        <stop stop-color="#c3cad5" offset="0%"></stop>
        <stop stop-color="#c3cbd5" offset="15%"></stop>
        <stop stop-color="#c3cad5" offset="30%"></stop>
        <stop stop-color="#c3cad5" offset="45%"></stop>
        <stop stop-color="#c3cbd5" offset="60%"></stop>
        <stop stop-color="#c2cbd6" offset="75%"></stop>
        <stop stop-color="#c3cad5" offset="90%"></stop>
      </linearGradient>
      <linearGradient id="16282281824-posters-1672276073017-horizontal-light" x1="0" x2="100%" y1="0" y2="0"
        gradientTransform="rotate(0)">
        <stop stop-color="#99a6b8" offset="0%"></stop>
        <stop stop-color="#9aa6b7" offset="15%"></stop>
        <stop stop-color="#9aa5b7" offset="30%"></stop>
        <stop stop-color="#9aa5b7" offset="45%"></stop>
        <stop stop-color="#9aa6b7" offset="60%"></stop>
        <stop stop-color="#98a6b9" offset="75%"></stop>
        <stop stop-color="#99a6b8" offset="90%"></stop>
      </linearGradient>
      <linearGradient id="16282281824-posters-1672276073017-horizontal-regular" x1="0" x2="100%" y1="0" y2="0"
        gradientTransform="rotate(0)">
        <stop stop-color="#5c6d84" offset="0%"></stop>
        <stop stop-color="#5c6e84" offset="15%"></stop>
        <stop stop-color="#5c6c84" offset="30%"></stop>
        <stop stop-color="#5c6c84" offset="45%"></stop>
        <stop stop-color="#5c6d84" offset="60%"></stop>
        <stop stop-color="#5b6d86" offset="75%"></stop>
        <stop stop-color="#5c6d84" offset="90%"></stop>
      </linearGradient>
      <linearGradient id="16282281824-posters-1672276073017-horizontal-bold" x1="0" x2="100%" y1="0" y2="0"
        gradientTransform="rotate(0)">
        <stop stop-color="#1b2027" offset="0%"></stop>
        <stop stop-color="#1c2027" offset="15%"></stop>
        <stop stop-color="#1c2027" offset="30%"></stop>
        <stop stop-color="#1c2027" offset="45%"></stop>
        <stop stop-color="#1c2027" offset="60%"></stop>
        <stop stop-color="#1b2027" offset="75%"></stop>
        <stop stop-color="#1b2027" offset="90%"></stop>
      </linearGradient>
    </g>
  </defs>
  <rect itemprop="background" width="683" height="512" tabindex="-1" id="16282281824-posters-1672276073017-background"
    fill-opacity="1" fill="url(#16282281824-posters-1672276073017-radial-background)"></rect>
  <path id="16282281824-posters-1672276073017-light"
    d="m152 1 3 5 3 3h3l2 1v1l2 2h2l2-1c2 4 3 5 7 5 5 1 8 2 5 2-2 0-2 0-1 2l2 1c3 0 7 5 7 7 0 1 0 2 2 1l1-2c-1-1-1-1 0 0l3 2 4 2v2c-2 0-2 0-1 1s2 2 3 1v2c0 3 0 3 5 4 2 1 3 2 3 4 0 3 1 4 2 3l1 2c-1 2 0 2 4 2 3 0 4 0 4 2-1 1-1 1 1 1 1-1 2 0 2 1l8 1h11l-2 3a3 3 0 1 0 4 1v-2l1 1 1 1c3-1 2 2-1 5l-2 3 2-1 2-2-1 2-1 3 5-5c-1-2 3-4 4-3l-1 3-2 2-1 2-1 4c1 1 12 1 12-1s1-1 3 1v2c-2-1-2-1-1 2l3 3c2 0 2 0 1 2v1c1-1 2 0 2 2l2 3 2 1c0 2 6 2 9-1l5-3 3-2 3-2c1 1 2 0 3-1 2-2 4-1 5 1l2 4c2 1 2 1 2-2v-3l1-1v-1l1 1c0 2 3 3 12 3l8 2c0 2-3 3-6 3l-5 1-3-1-1-1c-2 0-2 1-1 4 2 2 1 3-4 2l-3 1 1 1c2 0 4 3 4 4-1 1 0 1 1 2l4 2c1 1 1 1 4-1 4-2 6-5 4-6-1-1 0-3 3-6 5-5 5-5 9-5l7 1c3 0 4 2 2 4s-10-1-9-3c2-2-3 0-6 3-2 2-2 4 2 4v1c-1 1 0 2 3 2l4-1 3-3 5-4c1-2 2-2 4-2 4 1 5 3 3 5s-1 3 4 3c3 0 4 1 2 3-2 1 0 3 4 4 2 0 3 1 3 2h1v-1l3-1c2 0 2 0 0-1l-1-3h-1c-2 2-3 1-3-1s1-3 2-3l1-4 1-3 1 3c0 1 0 2 1 1 1-4 17-4 17 0l-7-1-7-1 12 4c3 0 5 3 3 3-1 1-2 5 0 5l2-2 3-2c2 1 2 1 1-2-1-2 4-5 7-4 2 0 2 3 1 4s0 1 2 1c3-1 3-1 3 3 0 6 0 7 2 7l2 2c2 2 11 4 11 2a6 6 0 0 1 10 0l4 1 5 1h5l3-1 5 1c5 0 7 3 4 5h-6c-5-2-5-1-1 3 3 2 3 3 1 2l-2 1 5 2 10 1c-2-2-1-3 1-2 2 0 2 0 2-2l2-2c2 0 2 0 1-1-2-1-2-1 0-4 2-4 6-6 5-2l-1 6-1 5 4 1 5 1c3 0 2 2-2 4l-2 1c1 1 1 2-1 3-1 1-1 1 1 1 2-1 3 0 3 1l2 1 3 2c1 2 3 3 4 2 2 0 3 1 1 3v3c1 2 9 0 12-3h2l3-1 3-2-1 2c-2 2-2 3 2 4 3 1 1 4-2 4-1 1-2 0-3-1a2 2 0 1 0-1 2c1 1 1 1-2 1-2 1-3 1-5-2l-4-2c-1 2 1 4 5 6l3 2-2 1-4 2c-1-1-7 4-7 5l-2 6-1-2c0-2-3-4-5-2l-2 2v1l-1 4c-1 2-1 2 1 4l2 4c0 7 1 10 5 7 2-1 3 0 3 4l1 2 3-6c-1-2 1-4 3-2 0 2 3 0 3-2s0-2 1-1l2 2 2-1 1-1c-1-3 0-3 2-1h3c1-2 1-2 3 0 3 2 3 1 2-3-2-5 0-7 4-2 2 3 3 3 3 0 0-2 0-3-2-3-3-2-3-3 1-3l3-1c0-2 4-1 4 1l2 1 1-1v-2l1-2c0-2 3-2 9 0 2 0 2 0 2-3v-1c0 1 4 3 5 2a7 7 0 0 0-6-8l2-1c2 0 4-1 5-3l3-3-4 1c-4 2-7 1-7-2l2-2 2 1 3 1 3-1c0-2 2-1 5 3l5 3 3 3c1 2 1 2 2 1a1 1 0 1 1 2 2l-2 2c0 1 2 1 7-1l2 2 2 1 2 2c1 2 3 1 3-1-1-3 2-5 5-3l20 7c5 2 8 4 7 7l8 4a2 2 0 0 1 1 3l-1 1h1l3 1v-4l3 2 4 3c2 3 9 0 9-4l1-2c2-2 1-3-1-2l-3 1c-1-1 1-3 3-3l16-5 5-1v9c1 2 6 2 7 0s2 3 2 22v108l-1-11c0-13 1-12-13-8l-15 4-10 3-11 4-5 1-10 1-10 1-8 1c-7 0-9 1-6 3 2 1 8 0 11-1 1-1 2-1 3 2s6 5 7 3c2-2 4-2 4 0h2c2-2 10 0 12 2h1c0-2 4-1 5 1 2 3 1 4-6 4-5-1-7 0-9 1l-4 2-6 2c-4 2-6 3-10 2l-6 1-9 3-8 2-5 1-7 1c-2 2-11 4-16 4a4 4 0 0 0-5 3l-2-1c-1-1-3-2-8-2l-9-1-5-2-6-1c-4-3-22-2-33 0l-7 5-4 4-3-2c-7-7-15-6-20 0l-5 4h-28c-2-1-7 3-7 5s0 3 9 3h37l64 1 53 1c27 2 110 3 111 3 1-1 2 4 2 8 0 3-3 4-12 4l-6 2-8 1a20 20 0 0 0-20 6h-4v2c-3 3-33 1-33-2s-5-3-7 0c-2 2-16 3-20 0h-6c-4 2-9 2-27 2-21 0-22 0-25-2s-3-2-6-1h-16l-8 1h-9l-12-1-7-1c-4-2-13-2-15 0s-3 2-5 2l-10-1c-4-1-8-1-11-3-5-2-5-2-8-1-3 2-3 2-4-3-1-4-3-3-4 1-1 2-2 3-4 2l-29-2-6-2c-1-2-5-3-6 0s-28-1-28-4c-1-4-14-5-15-1-1 2-1 2-8 1l-12-1c-11 0-17-1-17-3-1-1-4-1-4 1-1 2-5 1-7-1-1-2-28-2-43-1-4 1-9 0-13-1l-11-1-4-1-2-2-3-1c-1-2-3-2-8-2-12 0-20-2-22-5-2-2-6-3-8 0h-3c-1-2-10-4-10-1l-1 1-1-2c1-3-3-5-9-5l-4-1h-3c-2 2-10 2-14 0l-5-2-3-1-5-1-8-2-8-2-9-3-8-3h-5c-5-3-11-3-14-1-4 2-7 1-5-1v-2h-5l-4 1-7-2-5-1c-1-2-6-1-7 1-2 2-3 94-1 94l2-1h2l-2 1c-3 1-4 4-2 5v1l-1 44v45h684l-1-94V0h-16v9l1 4 2 14c2 3 2 19 1 17l-2-4c0-3-5-12-8-17-3-4-8-15-8-17s0-2 2-1c3 0 4 2 4 4-1 1-1 1 0 0l1-2 1-4c3-3 0-3-38-3l-37 1h-2c0-2-4-1-3 1l-3 1c-3 0-3 0-2-2l-3 1c-3 1-3 1-3-1l-24-1c-19 0-24 1-24 2a1 1 0 0 1-3 0c1-2 0-2-1-2l-2 2a2 2 0 0 1-4 0c0-2-2-2-2 0h-4c0-3-29-3-29-1v2h-1l-4 1-3 2-1 1a3 3 0 0 1-6 0l2-1 1-1 2-3c2-2 1-2-70-2l-72 1h-1l-3-1c-3 0-3 0-3 5 0 1-1 2-5 2-5 0-5 0-4-3s1-4-1-4-2 1-2 4l-1 3c-2 0-6-4-6-5 1-1-1-2-4-2-5 0-6 0-6 2-1 2 0 2 1 2 1-1 7 3 6 3-2 2-24 2-26 0h-3c3 2 0 2-8 1-15-4-20-6-15-7 1-1-3-1-9-1-10 0-11 0-13 2s-1 4 1 2l3-2c2 1 3 3 1 3l-1 1c0 2-9 10-11 10l-2-1-9-7c-9-8-11-9-11-7l1 1 9 7a40 40 0 0 0 11 8c0 2 12-2 14-4 1-2 1-2-2 0-4 4-5 2-1-2 6-6 12-5 11 1v5c1 1 1 0 1-3l1-4 1 1h3c5 0 8 2 5 5l-5 3c-2 0-3 1-3 2l10-5c2-3 14-5 15-3a27 27 0 0 1-11 17h-4c-2 0-3 1 0 6 0 2 0 2-2 2s-3-1-3-5c-1-4-3-7-7-7-2 0-3-2 0-4 1-1 1-1-1-1l-3 2h-2c-2-1-2-1-5 1s-5 3-4 0l-1-1-2-1c-2-3-4-3-4 0-1 2-1 3-3 3h-3l2-3 2-4-4 1-3-1c0-3-4-6-6-6l-1 2c0 2 0 2-2 1l-2-3v-1c-1 1-2 0-2-1l-2 1c-2 2-3 3-3 1s-2-2-4-2l-2-5-1-5c-1 0-2 3-1 4l-1 1v2c0 2 0 2-1 1-2-2-2-2-2 0s0 2-1 1l-2-1c-1 1-1 0-1-1 0-6-3-7-12-7l-8 1m120 11h-5l-3 5-2 8h-1c-1-1-4 3-4 5h3c1-2 2-1 1 2-1 4-1 5 2 4h3l-3 2-2 4-1 4h1c2-1 2-1 3 1 2 2 3 1 2-1v-8l1-2v-2c-1-1 3-3 4-2 3 2 6 2 10-3 6-7 8-12 7-12v-1l4-2 2-3h-8l-14 1m22 1c-2 2-2 2-1 3s1 1-1 1l-3 4-6 7c-4 4-4 5-3 8 0 4 3 7 5 7l2 2 2 5 1 2 3-2 2-4c-1-1 3-8 5-9 4-2 5 2 2 6-1 4-1 5 1 3 3-3 6 0 4 4-1 3-1 3 1 3s3 1 1 3a4 4 0 0 0 0 5l1-1 1-2 1 1 1 1v-3c0-1 1-1 3 1s3-1 1-3c-2-1 1-4 4-4l2-2h1l1-2 3-5 3-3-8-6a39 39 0 0 0-11-8c2 0 1-2-1-2l-1-1c1-1-7-8-9-8-1 0-6 5-10 11l-4 5c0-1 10-16 12-17 2 0 2 0 1-1-2-1-3-1-6 1m20 1c-1 1-1 1 1 1 2-1 4 2 2 3v1l2 1c-2 2 2 3 4 1 2-3 2-4 1-4l-2-2c0-3-5-4-8-1m296 0-1 3v3l4 1c4 2 6 1 4-2l-2-3c-2-3-3-3-5-2m-250 3h-5c-3 0-3 0-2 2l1 2c-3 1-2 5 0 5 4 0 3 0-1 2s-5 2-6 1c-4-4-5-2-3 8 1 4 2 4 3 1 1-2 1-2 1 0 0 6 15 14 15 9l1-2-1-2-2-1 2-1 1-1v-3l2 2c0 1 1 2 2 1h3c1 1 1 1 0 0 0-2 0-2 2-2h6l3-1 1-1c2-1 1 0 0 2a2 2 0 1 0 4 2l2-2h1l1-1 3-1c1-3 0-3-3-2h-3c-1-1-1-1 1-1l6-3 5-3c2 0 2-1 0-3l-1-3c1-2-1-1-3 1s-2 3-1 3h-1l-4-1-6-1c-2 2 0 2 2 1v1c-2 3-3 2-4-2l-1-2c-1 1-7-2-7-4h-2c-2 1-3 1-4-1s-4-1-4 2l-1 2-1-2c1-2 0-3-2-1m36 17v1l-2 2-2 2h4l3-1c2 0 3 1 0 3v4c1 1 2 2 1 3-2 0-1 2 1 2a12 12 0 0 0 7-4l1-1h-2a4 4 0 0 1-1-7l1-3c1-2 0-2-1-1a10 10 0 0 1-10 0m29 4 1 3v1l2 1c3-2 3-2 4 1 0 3 1 3 4-1 3-3 3-5 0-4l-1-1h-10m-91 6v2l-1 2c-1 1-1 2 1 3 1 1 1 1-1 3-3 2-3 4 0 4l3 2 1 1c1-1 2 0 4 1 3 1 5 0 4-3l2-2c1-1 1-1-1-1s-4-3-4-6c1-2 0-3-2-5-3-2-4-2-6-1m102 0v2a4 4 0 0 0 5-2c2 0 1 2-1 3-3 1-5 3-3 3v1c0 1 0 2 2 1l2-2c1-1 5 1 5 3h2c2 0 2 0 1 1-2 3 0 4 5 1 5-2 5-2 5 0h11c2-2 1-5-2-5-2 0-2 0-1-3 1-2 1-2-1-2l-3-1c-1-3-3 0-2 4l-1 4-1-1-2-1-2-2c0-2-2-3-3-2-2 1-8 0-9-2h-7m-31 12v4l-1 2c-3 3-2 3 2 1 9-4 9-4 5-6-3-2-5-2-6-1m16 7c-1 2-1 2-2 0h-3v3c2 0-3 3-6 3-1 1-1 1 1 1 3 0 3 0 2 2-1 1-2 2-3 1-4-1-2 3 2 4 3 1 6-1 4-4l1-1c2 1 2 1 1-1l1-2 1-1 2-2 1-2c0-4-2-4-2-1m-160 2c-2 0-4 1-5 3-2 4 0 4 5 1 3-2 4-3 5-2h1c1-1 0-3-1-3l-5 1m330 41c0 1 9 5 12 5 3-1 2-3-1-3l-3-1c1-2-7-2-8-1m54 10c0 7 3 7 6 0 2-4 1-5-3-5h-3v5m-179-1-3 2v-2l-1 2-1 2c-1-1-2 0-2 1-3 7 4 6 9-2 4-6 2-8-2-3m88 42v4c-1 2-1 5 1 6v-2c0-4 3-3 4 1 1 2 1 3 3 2 3 0 3-3 0-3l-2-1c1-1-4-9-5-9l-1 2m56 2-1 1c3 3 17 7 14 4l-2-2h-3c-2 0-2 0-1-1 2-3-3-4-7-2M0 371c0 25 1 36 1 23a2330 2330 0 0 0-1-23m574 22 7 1a17 17 0 0 1 9 1v-1l3-1c1-1-2-1-8-1l-11 1M0 468c0 24 1 34 1 22a2123 2123 0 0 0-1-22m665-22-22 3-49 6-3 1 6 1 39 2 45 2c0-1-17-3-49-5l-14-1a965 965 0 0 1 58-7l5-1-3-1h-13"
    itemprop="light" fill-opacity="0.90" stroke-opacity="" stroke-width="0.33px" fill-rule="evenodd" tabindex="-1"
    fill="url(#16282281824-posters-1672276073017-vertical-light)"
    stroke="url(#16282281824-posters-1672276073017-horizontal-background)"></path>
  <path id="16282281824-posters-1672276073017-regular"
    d="m154 3 3 4 2 1 1 1c1 0 4 0 6 2l6 2c2 0 2 1 2 2-1 2-1 2 3 2 2 0 3 0 2-1l-1-5c0-2 0-3-1-2l-2 1h-2c-1 2-3-3-3-6 0-2-4-4-11-4h-6l1 3m26-1c-1 2 0 9 1 13 2 4 2 5 1 5l2 2 4 3 3 2 2 1h2l1 1v1l3 1 3 3v6l2 1c2 0 5 2 5 5l2 2 1 2 1 2h5l5 3c3 3 10 4 14 1h1c0 1 1 2 3 2 1 0 2 0 1 1l1 1c1-1 5 2 5 4l3 1c3-1 4 0 2 2l-1 1c0 2 4 6 5 6l-1-3c-2-1-2-2-1-3 3-4 11-5 13-2l3 1 5 2 4 2 1 1c0 1-4 3-5 2l-1 1c0 2-2 0-2-3 0-2-1-2-2-2l-2-1c0-2-4-2-8 0-3 2-4 4-2 6l1-1c0-2 3-1 4 1 2 2 2 3 1 3-2-1-2 0-1 1 1 3 8 4 9 2 1-1 1-1 1 1s-3 4-3 2c-1-1-1 0-1 1l1 2c1 0 5-4 5-6 1-1 1-1 1 1a31 31 0 0 0 1 5h3l1-1h2c0 2 2 1 1 0l1-2 1 1c0 1 1 1 3-1l4-2h2c0-2 5-1 5 1 1 1 4-1 4-2-1-2 4-1 5 0l5 2c5 0 11 2 12 3h10l9 1c6 0 7 1 7 4l-1 3 1 1c3 2 4 2 2 0l-1-4 1-3h16a91 91 0 0 1 21 2c4 0 4 0 3 1-3 2-2 2 2 1 3-1 7 0 10 3l8 6c2 0 3 2 1 4v1c1-1 2 2 1 3-2 1 1 2 5 1l-1-2c-1-2 2-4 4-2h-1l-1 1 2 1 6 2 6 2 5 1 4-1h10l4 1h3l7-1h1c3-2 5 0 5 6v7h5a4 4 0 0 1 5 4l1 2-1 2-2 3c-1 1-1 1 1 1l2 3 5 1c2 0 2 1 1 3s3 4 6 3l5-2 3-1 2-2c2-2 2-2 3-1 1 2 1 3-1 3-2 1 2 4 6 5h4c2 0 1 4-1 4l-3 2c-3 1-6 2-5 0l-1-1-5 1-2 1c1 1 0 2-1 3l-2 4c-1 1-1 2-2 1v-1c1-2-2-1-3 1l-3 1v1l-2 5c-3 3-4 3-4 0 1-3 1-3-1-3l-2 1-1 1c-2 0-2 1 0 3 1 3 1 3-1 3h-2l2 1 1 8c1 6 2 7 5 4 2-2 3-1 3 3 0 3 1 3 2 1v-3c0-2 2-4 4-3l3-1c0-2 3-3 3-1 1 1 1 1 2-1 0-2 1-2 4-2 3 1 3 1 4-1 0-2 0-2 2 0 1 1 1 1 1-1-1-4 2-7 6-7 2 0 3-1 3-2h4l4-1c1-1 0-1-2-1-4 0-4-1-3-5 0-2 1-3 2-3v1l-1 2 3-1c1-2 2-2 4 1 4 3 7 4 7 0-1-1-1-2 1-2v-1l-3 1c-2 2-7 1-6-1s-1-3-2-2h-3c-3-3-1-4 7-4 6 0 7 0 6-1-1-4-1-5 1-6l3 1h5c0-2 3-1 5 1l3 1 1 2 2 2 2 1 4 2 3 3 2 2 3 1a5 5 0 0 0 5 1c-2-2 3-3 7-1l17 5 12 6v3l3 1h1c-1 2-1 2 2 2l4 1h4l-2-1c-2 0 0-2 3-2 1-1 2-1 3 2l5 4 3 1-2-3c-2-4-1-6 5-6l5-1 4-2 5-2 4-1 3-1 4-2 2 1 1 31v73a851 851 0 0 0 2 69c2 63 2 61-1 61l-3 1h3c2 0 2 0 1 1l-2 4c0 1 0 2-2 2h-3l-2 1c-2 0-1-3 1-4 1-1 1-1-1-2-3-1-3-3 0-4 2 0 2-1 1-2 0-2 0-2 3-2l3-1-5-1-5-1c2-4-1-5-12-4-10 0-11 1-11 3v3l-1-4c0-2 0-2-4 0-2 2-5 2-7 2h-5c-2 1-8 0-8-1l2-2c2-1 2-1 0-1h-4c-1-2-3 0-2 2s2 2-15 4c-3 0-5 1-5 2l-3 1-3 1-6 1c-3 0-7 0-11 2-5 2-17 2-20 0l-5 1h-4l-5-1-5-1c0-2-5-1-8 2l-4 3-2 1-4 1-4 2h-5l-1-1-2-1-8-3-8-2c-1-2-2-2-7-1l-7-1c0-2-4-3-5-1-1 1 1 2 6 3 2 1 2 2 0 4h-4l-6-2c-3 0-4-1-5-2-2-3-16-3-15-1 0 3-5 3-8-1l-10-7-9 9h4c3 1 4 2 1 3-2 0-3 2 0 2l-1 1-2 2c0 3-2 4-4 3s-2-1-1-3l1-1v-2c1-1 1-2-3-4-2-1-2-2-2-4s-2-2-15-1c-2 1-3 0-5-1l-3-2h-1c-1-2-10-4-15-4s-10 6-8 8c1 2 1 3-4 3-2 1-5 2-6 4-3 2-7 2-9 0l-4-1-2-2 3-1h7c6 0 1-2-6-2s-8-1-4-3c3-1 3-2 2-4-2-2-7-2-10 0-3 1-7 0-4-1l1-3h-4c-1 3-6 3-8 1-3-2-3-3-1-4 1-1 1-1-2-1l-4-2c0-1-1-2-4-2-5-1-6 0-4 2h-1l-3-2c1-1-3-2-9-2l-6-1 1-1 1-1-1-1c-2 1-17-1-19-2l-1 1c0 2-6 2-7 0 0-1-1-2-3-1l-2-1 1-1h2c3-2-4-2-8-1-3 1-6 2-7 1a8 8 0 0 0-6 3h3l-6 2h-12c-2 1-4 1-4-2l-1-1-2-1-2 1 2 1c2 0 3 2 3 5l-2 1-3 1c-1 2-5 1-5 0l2-2v1l1 1v-3h3c2 1 2 1 2-1s-6-2-7 0l-3 1h-2l-2 2h-1c0-2-3-1-4 1-2 1-5 0-5-3l-2-1-2-2c0-2-7-2-8 0-1 1-5 2-12 1h-8c-1 1-5 0-8-2l-5-2c-1 0-2 0-1-1l2-1h2l-3-1-7 1c-5 1-8 2-4 2 2 0 2 0 1 1h-16c-1 2-9-2-8-3 0-2-7-2-10 0-2 2-3 2-8 0l-10-1h-5l-10-2-10 1c-1 0-4-1-5-3l-4-2-2-1h-5l-5-1h-2l-4-1h-7l-3 1h-3c-3-2-7-2-11 0l-2 2v25l1 25c8-3 8-3 21 1 7 2 12 5 11 5l-16 2H0v32h10c12 0 20-1 16-2-6-1-4-3 2-2h5l-2 3-3 4H0v53h32l42-1h193l1-1h1c0 2 238 3 238 1h1l3 1c3 0 3 0 1-1s-1-1 2-1l2-1h-1l-1-1 2-1c2 0 2 3 0 4-1 1-1 1 1 1s3 0 2-1h12c-1-2 0-2 2-3l4-1c3 0 9 1 10 3l-2 1v1l2-1h3v-1c-2-3 2-4 5-2l2 1 3 2 16 1h14v-26c0-23 1-26 2-26a2604 2604 0 0 0 35 1l23 2 27 1 5 1v10h-5l-9-2-3-1v8c0 6 0 8 2 8l1 1c0 2-1 1-6-1-6-2-6-2-6 0v1l1 1-1 1-2 4-2 8c-2 8 0 9 18 9h14l-1-74V0h-15v9l1 5 1 9c2 10 3 21 2 22s-4-6-4-8l-4-7c-5-8-12-24-12-25l4-1h3l-3-2c-2-2-4-2-35-2-42 1-40 1-39 3l-1 3c-2 1-2 1 0 1 2 1 0 3-2 3-1 0-4 1-5 3-3 2-6 2-6 0s7-7 9-6l1-1-2-2-1-2c1-2 1-2-2-1-3 2-4 2-4 0h-37l-6 1c-5 2-7 3-4 3 2 0 2 0 1 2v3c0 1-1 2-4 2a4 4 0 0 0-4 1v-2c0-2-1-3-2-1h-3l2-2c2-1 3-2 2-3-1-2-4-2-9 0l-2-1c3-4-6-6-10-2-3 2-5 3-5 1l1-1 1-1c0-1-11-1-12 1l2 1c2 1 3 4 0 5l-4 3c-3 4-5 3-3 0 1-1 1-1-1-1-5 2-1-1 3-3 5-2 5-2 2-2-3-1-8 1-10 3h-5a6 6 0 0 1 5-6c1-1-3-1-18-1l-19 1c0 2 0 2 2 2 2-1 4 1 3 4-1 1-2 1-4-2l-4-3c2-3-6-3-53-3-43 0-52 0-47 2 2 1 1 4-1 4l-1-2h-1l-1-2-2-2c-3 0-3 4-1 6 1 2-1 4-3 3l-2-1-3-1c-4 0-6-3-3-4 2-2 1-3-1-3s-2 0-2 2c2 5-1 6-6 2s-11-5-11-2l2 1c2 0 5 3 5 4l-15 1c-21 1-37-2-40-7h-11l-4-1h-3l3 1c4 2 4 4 0 8l-4 4 4-3c4-5 6-5 11-1l4 2h5c5 2 20 2 22 1 1-1 30-2 32-1l1 2 1 1c2 0 9 6 9 7l3 4 6 5 7 6c5 3 5 3 2 6-2 1-3 3-3 5s-2 4-6 5c-3 1-3 2-1 5 0 2 0 2-2 2h-3l-3 2c-4 0-5-2-2-6 1-2 1-2-2-2h-3l1-3c4-5 2-7-2-2l-3 4 1-4c2-8 2-11 1-11-2 0-5 4-6 7l-3 6-2 3-1 2c-1 0-2 0-1-1 1-3-3-11-5-11s-5-4-5-6c1-1-3-3-6-3l-2-2h-2l-1 5v2l-1 2c1 1 0 2-1 2v3c2 3 0 4-2 2l-3-2 1 1v2c-2 2-3 0-2-5v-8l1-5c1-1 1-1-1-1l-3 2c-1 2-2 1-1-2 0-2 0-2-2-1l-4 2c-2 0-3 3-1 5v2c-3 2-5 1-5-5-1-5-9-9-9-4l-1 2v-7l-1 2-1 1c-1 0-2-1-1-2 1-3-2-3-6 1s-7 5-5 1v-3l-2-3c0-2-3-1-3 2-1 3-6 4-6 1l1-1c2 0 1-3-1-4-2 0-3-1-3-2 0-2-4-5-6-4v2l-2 1-3-2c0-1-1-2-2-1v-2h-1c-2 1-2 2-1 3 1 0 1 1-1 1-2 1-2 1-2-2l-2-3c-4 0-4 0-4-2V3c0-3-1-4-2-1m350 2-1 2-2 2-3 3c-1 3 1 4 3 2l3-2c1 0 2 0 1-1l1-2c3-3 3-5 1-5l-3 1M236 5c0 1 11 6 17 7 7 0 8-1 1-3l-10-3c-7-2-8-2-8-1m120 2-3 3v3c-1 1-1 1 0 0h5c3 0 4 0 4-2 0-4-3-5-6-4m-46 5c0 1 4 4 5 3l1 2c0 4 5 7 7 6l4-1c1 1 1 1-1 1-3 0-2 4 1 6l3 2c2 2 5 2 6 0 0-2-3-4-5-3s-3 0-3-1l2-1c2 0 3-1 3-2 0-2 0-2-1-1-2 1-2 1-3-1l-2-2c-2 0-3-3-1-4 1-1 1-1-1-1-2 1-2 0-2-1 0-2 0-2-5-2a8 8 0 0 1-6-1l-2 1m60 1v3h-1c-3-2-10-2-10-1 0 2-3 3-3 2v-1l1-1c-1-1-5 1-6 3l1 1c2 0 2 2 1 2-3 1-2 5 1 5h3l-3 1-4 2h-2l-3-2c-3 0-3 0-2 6 0 6 1 8 3 8l4 2c5 6 12 7 14 2 2-4 4-6 7-4h1l1-2 3-1c2 0 2 0 1 2h1c3-3 6-2 4 1-1 0-1 1 1 2 1 1 2 1 5-3l4-2c-1 2 3 4 4 2 2-2 3-1 2 3l1 3 1 1h-3a1 1 0 1 0 0 2l2 1h4c2-1 4-2 5-1 2 0 2 0 2-3 0-2-1-2-3-2l-3-1 1-1v-2c-1-1-1-1 1-2 1 0 2-1 2-3 1-2 1-2-2-1h-6c-2 0-2 0-1-1s1-1-1-1h-3c-1-1 3-4 5-4l3-3v-3l-2-1-6-1-2 5c-2 0-2-1 0-3l1-2-3 1c-1 2-2 2-4 0-2-1-2-1-1-2l2-2c0-1-4-1-4 1l-3 1-2 1h-1c-4-1-3-2 0-3l4-1h-5c-4 0-6 0-5-1v-3l-2 1m238 1c-4 2-3 8 2 8l5 1c3 1 4-2 1-6-2-4-4-5-8-3M424 36v2c-2 1-1 3 1 3v3c-2 2 0 2 2 0 3-3 4-3 4 1l-2 4c-2 1-1 3 1 2l2-3 2-2c1-1 1 0 1 3l-1 4-2 1h1c3-1 13-3 13-1a2 2 0 0 1-1 1c2 0 3 0 2 2s3 2 6 0c5-2 5-2 5 0h3c0-2 1-2 2-1l1 2 1 1c2-1 2 0 0 2-1 2-1 2 1 3 2 2 4 2 4 1h2c2 1 2 2 0 2l-1 3c0 2 0 2 2 0l4-3 1-1 2-1 2-1-4-1h-5l-1-2c-2 0-3-4-1-5v-2l2-2c1-2 1-2-1-3h-3c-1 3-2 2-1-1 0-3 0-3-4-3h-4v5l1 2-2-1-1-1-3-2c0-2-1-3-5-3l-6-1-4-1-2-2c0-2 0-3-5-3a11 11 0 0 1-8-3l-1 2m141 3c-2 2 0 3 3 3h3c2 3 12 2 11-1l1-1h4c2 0 3 0 2 1l-2 1h-3c-2 1-1 1 7 1 5 1 7-2 3-3l-7-1h-22m-232 6-1 3 1 3c1 1 1 2-1 3-2 2-2 2 0 3 3 3 4 4 4 6l2 2 1-1c-1-2 0-2 4-2 3 0 4 1 4 2 0 2 1 2 2 2s2 1 1 2l1 1c2-2 1-8-2-9-2 0-3-1-3-2h1l2-1c1-2 3-2 6-1l2 1c1-1-1-3-3-3l-3-1c-1-2-14-10-15-10l-3 2m187-1c-6 3-6 6 0 5l3 1 2 2a2 2 0 0 0 1-3l-1-2c1-3-2-5-5-3M407 54c-5 2-7 5-6 8l2 3h3l1-1c2 2 7-5 6-6v-2c3-3-1-3-6-2m-11 2c-3 3-4 5-2 5l1 2 2 1h1l1 1v-8c1 1 2 0 1-2l-4 1m-114 1v3c1-1 2 0 3 2 2 2 2 2 0 2-5-2-2 3 4 7 4 2 7 0 4-3l-3-4c0-2-2-3-3-3l-1-2v-1h-1c-1-2-2-2-3-1m145 3-6 1c-5 0-5 0-7 3-1 2-2 4-4 4-3 1-3 3 1 3 2 0 2 1 0 1l-4 3a12 12 0 0 0 11 2l1-2v-1l1-4 2-3 1-2 2-2 1-1 2-1v-1h-1M284 74l1 1c1 1 0 1-2 1h-3v3c-1 5 0 6 3 4 4-2 7-5 6-6l1-1h2l-2-1-4-1h-2m106 6 3 6c2 1 8 2 7 0h-1l-1-1 2-1c3-2 1-5-3-6-7-3-7-3-7 2m-79 9 1 3c2 1 1 3-1 3l-3 1 2 1 2 1 3 6 1-1-1-2c-1 0-1-4 1-5l8-4 2-2-3-1c-3 0-3 0-2 2 0 2 0 2-2 2h-3v-1l-1-1-3-2h-1m19 3c-1 1-1 2 1 2v2l1 1h3l3-1 5-4h-1l-6-1c-3-1-5-1-6 1m278 3c-2 4-2 5 5 7 6 2 9 2 9 1 0-2-3-3-5-2l-2-1 1-1c1 0 1-1-1-1l-4-2c-1 0-2 0-1-1 0-3-1-2-2 0m29 9v8l1 1 1 2 2 1c2 0 1-5-1-5-1 0-1-1 1-2h4c2 2 4 1 7-1 3-4 3-5-2-5l-7-1h-4c-1-1-1 0-2 2m-42 1c-6 0-5 2 2 5l7 1h2l3 2v-5h-5c-3 0-4 0-4-2l-5-1m-79 2v1l-1 2v1l-1 2v1l4-1 6-5c0-2-3-1-3 0h-1c-1-2-4-3-4-1m131 4c-2 0-3 1-3 2l-2 4c-3 2-2 4 1 3v1c-3 2 1 5 5 4s4-2 1-3c-2-1-2-1 0-1l2-2 3-4c2-1 2-1 2 1-1 2-1 2 1 2s2 0 1 1c-3 1-2 2 0 4 4 1 6-1 3-3v-1c1-1 0-2-1-5-2-4-2-4-13-3m-76 3v2c1 4 6 5 11 3 4-2 4-3-2-3-3 1-4 0-6-1-2-2-2-2-3-1m-35 1v2l-2 1-2-1h-2c-3 2 0 4 6 4 5 0 5 0 4-2-2-1-2-1-1-2v-2h-3m58 40 4 3 5 2h3l5 2c5 2 11 3 15 2 3-1 4-1 3 1l9 1c9 0 9-1 9-2l-1-3c-2-1 2-4 5-3l2-1c-1-2-5-3-5-1l-3 2-5 2c-1 2-2 2-2 1l-5-1-5-2h-3v1l1 2a2 2 0 1 1-3-1l-1-2-1 2-3 2v-2c0-2 0-2-4-2l-5-2c-2-2-2-2-4-1h-7c-2-2-4-2-4 0M0 391c0 14 1 20 1 13a630 630 0 0 0-1-13m325-10-4 1-3 1-2 1-1 1 2 1v1c-1 2-1 2 3 2l10 1c7 1 13 0 11-2-3-1-1-2 2-1l4 3 4 2c2 0 4 3 2 3l-4 1-3 1c-3 1-2 4 1 4l7 1c4 0 4 0 4-3l-1-3c-2-2-1-3 1-2l2-1 1-2v-2c-1 0-1-1 1-2 1-1 1-1-1-1l-4-2c-1-2-2-3-4-3l-8 4h-4l-4 1c1 1 0 1-1 1h-4a2 2 0 0 1-1-3c2 0 1-2-2-3-2-2-3-2-4 0m85 2c-4 1-7 5-7 7 1 2 0 2-1 3-2 0-3 2-1 4h5c2-1 2-1 0-2-2 0-2-1-1-2h4l4 1 2 1 1 1h2l1-2c1-2 1-2 3-2h2c-1-1 0-2 2-3 5-2 4-5-3-4l-1-2-2-1c-1 0-2 0-1 1l1 2c0 2 0 2-1 1l-3-2c-1 0-2 0-1-1h-5m27 3-1 3c0 2 0 3-3 3l-3-1c0-2-1-2-3-1-3 4 0 7 4 4h5c2-1 9 0 11 2h8a2 2 0 0 0 3-3v-3c2-3 0-4-5-4l-6-1c-2-1-9 0-10 1m46 2c-3 3-3 3 3 3h4c2 0 2-1 0-4-3-4-4-4-7 1m112-3 2 1 1 1c-1 1-4 2-25 2-2 0-3 0-3 2h-2c-1-1-1-1-1 1 2 4 3 4 5 1l2-2h27c1 2 5 2 5 1l-1-1c-2-1-3-5-1-5l5 1h3c0-1-2-2-5-2h-12m-218 3c-3 3-1 4 6 4l4 1c1 2 5 3 5 1l-1-1c-2 1-5-1-5-3s0-2 1-1c1 2 1 2 1 0 1-1 0-2-3-2-5-1-5-1-8 1m133 3-3 1-6 1-6 1c-1 1 0 1 5 1 6-1 8 0 7 4h11c5-1 6-2 4-2l-3-4c-1-3-2-3-9-2m132 58-38 5c-12 1-19 3-13 3l70 4 20 1c1-1-1-12-2-12l-3 1h-4l-2-2 2-1h5c2 1 5-1 4-2-1-2-16-1-39 3m-506 5 1 3 1 2 1 2 1-1h3c4 0 4 0 4-3s-1-4-7-4l-4 1M0 486c0 14 1 21 1 13a713 713 0 0 0-1-13m63 6-13 1c-1 1 7 1 23 1 17 0 24-1 25-2H63m352 6-1 2h-2c1 3-1 2-2 0h-2c0 2-1 2-5 2s-5 0-4-1v-1l-2 1a2 2 0 0 1-4-2h-1c0-1-1-1-2 1h-5c-2 0-2 0 1 2l3 1c0-1 0-2 2-2l1 2v1l1-1h3l3 1h1l18-1c14 1 19 0 15-1-1-1-1-1 1-1l2 1c0 1 11 2 15 1 3 0-3-2-7-1l-5-1h-12c-2-2-2-2-3 1h-4c-2 0-2 0-1-2v-1h-3l1-1v-1c-2-2-3-1-2 1m4-1a2 2 0 0 0 3 1h44c1-1-2-1-6-1l-24-1-17 1m-156 3h-1l-3-1c-4 2-1 3 9 3s12-1 12-3l-8-1c-7 0-9 1-9 2m203 2c-2 2-2 2 0 2 3 1 6 0 6-1s1-1 1 1h12c7 1 16 0 16-1l-1-1h-6a4 4 0 0 1-5 0l1-1h-17c-4 2-5 2-5 1 1-3 0-2-2 0m42 0h-1l-1 1-2 1h-1l4 1c3 0 4 0 3-1s-1-1 1-1l2 1c-1 2 1 2 5 0h4c2-2 4-2 3 0l1 1 2-1h1l2 1v-1h1l19 1a12 12 0 0 0-12-3l-15-1-16 1m-427 1 9 1c6 0 9 1 10 2s1 1 1-1c1-1 0-2-1-2H81m311 3c0 2-4 3-5 1h-8l2 1h1l2 1h10l18-1 1-1a20 20 0 0 0-14 0h-2c-2 1-3 1-4-1h-1"
    itemprop="regular" fill-opacity="0.90" stroke-opacity="" stroke-width="0.33px" fill-rule="evenodd" tabindex="-1"
    fill="url(#16282281824-posters-1672276073017-horizontal-regular)"
    stroke="url(#16282281824-posters-1672276073017-vertical-light)"></path>
  <path id="16282281824-posters-1672276073017-bold"
    d="M155 1c0 2 1 5 3 5l16 8c1 4 4 2 4-2l-1-2h-4l-1 1-1-2-1-2-1-2-1-4c-2-1-2 1-1 4l2 3a7 7 0 0 1-3 0l-2-2-1-4c0-2-6-3-8-1m71 0 5 3c2 2 3 2 4 1h9l8 3 8 3 5 1 19-1 16-1 10 10 15 14c7 5 7 5 4 9v2c1-1 2 0 1 1l-2 2-2 1-5 3c-3 1-3 1-2 5 0 3 0 3-2 3h-2l-3 1c-2-1-2-1-2 3l-1 4-1-2c1-1 0-2-1-2v-4l-1-3h-1l2-2c1-1 1-1-1-1s-2 0-2-2c1-2-1-3-3-1v-7c2-4 2-6 1-6-1-1-5 3-5 7l-3 5c-2 2-2 2 0 4v1h-6v-2a1 1 0 0 0-1-3h-1c0-5 0-6-2-6s-2 0-1 2v8l-2 1 4 1c3 0 3 0 3 3v2l3 3 3 4c3 2 0 4-3 4-6-2-10-7-8-10 1-2 1-2-1-2-1 1-2 0-3-1-2-3-3-8-2-8l2-1c2-1 2-2 1-2h-1c0 2-2 3-2 1-1-2 1-6 4-6v-1h-3c-2 0-2-2 0-4l1-1c-3-2-5-3-6-2l-2-1c0-1 0-2-1-1l-1 4v3l-1 2-1 2-1 2h3c1-1 1-1 1 1v8c0 2 0 2-2 2l-2 2c-1 3-5 1-5-2 0-2 0-2-2-1-3 1-3 1-2-1 2-3 4-3 6-1l3 3v-3l-2-5h-1c1 2 0 2-1 2l-3-1a3 3 0 0 1-1-3c1 1 2-9 1-11l-2-2c-2-1-2-1-2-3h-5c-2 0-2 0 0 4 2 7 2 9-1 9-2-1-6-6-6-11 0-2-4-6-6-6l-2 1c0 4 0 5-1 4l-2-3c0-1 0-2-1-1l-1-2v-3l-1 2-1 1a3 3 0 0 0-3 2l2-1c1-1 1-1 1 1 0 1-1 2-3 2-5 1-6 0-6-3 1-2 1-2-1-1h-2c-1-1 0-3 1-2l1-1-1-1c-1-1-3 3-3 6 0 1 0 2-2 1l-1 1v1l-1-2-2-2v-7l-3-2c-1-2-3-5-4-4v2l-2 1c-1 0-2 0-1 1l3 7a2 2 0 0 1-3-1h-3l-3-1 2-2c2 0 2 0 1-5-1-3-3-2-3 0 1 3-3 2-4-2-1-2-2-3-4-3l-2-2-1-3v7a365 365 0 0 1 2 7l1 1 3 2 5 4 6 4 6 2 4 1c0 2 0 2-2 1h-2c-1 1 3 2 5 1a2 2 0 1 1-1 3h-1l1 1 2 3 1 4c4 0 5 0 4 2 0 2 0 2 2 2h4l1 1 5 5v-1h11l2 1 3 1c2 2 3 2 5 1 1-2 6-1 7 1h1a3 3 0 0 1 5 3c-1 1 0 1 2 1l6 1c9 4 12 6 12 8s1 3 3 1c1-2 7 0 10 3s3 3-1 2l-3 1-1 1c-2 1-2 1-1 2h2l4-1 3-1c0-1 3-1 4 1 2 1 2 1 3-1 0-2 1-3 5-1l8 3 8 2h5l8 1 25 2 23 1 7 1h2l4 1 7 2c1 2 4 3 5 3 4 2 7 6 6 7h1c2-1 2-1 3 1l1 1 1-1a1 1 0 1 1 1-1l4 1 3 1-3 1h-2l2 2 5 1 2 1 4 1h5c2 0 3 0 5-2 1-2 9-1 9 2-1 1 4 2 6 1l7-1 6 1v6c0 6 0 6 2 7 4 0 8 2 8 3l1 1c2 1 2 1 1 2a6 6 0 0 0 5 10v2l2 1h2v2l10-5c3-2 6-3 5-1l2 3c2 0 2 0 0 2l-1 2h4c3 1 5 2 5 5 0 1-8 5-13 6-5 0-6 2-4 3 4 2 2 5-2 5-2-1-4 0-4 1h-4c-1-1-2 0-3 2-2 4-6 5-6 2s-1-3-3 0l-1 2 1 9c0 8 1 10 3 8l4-2 3-1 2-1c2 0 4-1 5-3 2-2 2-2 6-2h5l3-4 2-4 4-1c2 0 3 0 2-1-2-1-2-1 0-2 3-1 4-5 1-5v1c1 1 1 1-1 2h-2v-2c-4 0 1-8 5-9 2 0 3-1 4-3l5-1c4 0 5 0 5-2l6-1 6-1c1-1 10 3 11 5l2 1c3 0 5 1 5 2 0 2 4 6 6 6l3 1h2c1-1 1-1 0 0l-2-1c2-2 5-1 12 2l9 3c13 4 23 8 21 10-1 1-1 1 1 1s2 0 1 2c-1 1-1 1 2 1h3l2 1v-1c-2-1 0-3 3-3 2 0 3 1 4 3 1 3 4 3 4-1 0-2 0-3 2-3 5 0 13-3 18-6l5-1 2-1c3-4 9-1 7 3v5c1 26 2 95 1 122l1 17 3 86v35l1 7h-11l6 1 7 1V0h-8c-6 0-7 0-7 2l2 10c0 11 1 13 2 16s2 17 1 18c-2 1-4-2-5-7l-6-13c-10-16-12-21-8-23l3-1h-3l-2-1-26-1c-23 0-27 0-27 2l-1 1-1-1c1-2 0-2-3-2-2 0-3 0-3 2l-4 1h-4v3l1 4c2 0 1 2-1 2l-1-1h-1l-2 2c1 1 0 2-1 1l-1-1v-2l-2 2a4 4 0 0 1-9-3l2-1c4 0 9-4 7-6-2-1-4 0-3 2 0 2 0 2-3 2-2 0-2 0-1-2 2-2 2-5 0-5s-4 1-3 3c0 2-2 6-5 6l1-5 1-4-23 2-2 1-1-2-1 3c1 2 0 3-1 4v1c2 1 0 3-2 3l-7 2c-4 2-4 2-5 1s-2-2-4-1c-3 0-3 0-3-2 1-1 0-2-1-1l-1 2-2 1-2 1-11 3 1-3c1-2 1-2 2 0h3c2-1 2-4 1-6l-1-5c0-4-2-6-4-3l-2 1-1 2c0 3-2 4-3 2l-3-2c-2 0-4-2-2-2l-2-1c-4-1-4-1-3 2 2 3 1 5-1 5l-4 4c-3 3-6 4-6 2 0-3-2-3-4-2-1 2-3 3-2 1h-1c-3 1-7 0-7-2l2-1 2 1h2V9c-2-1-1-7 1-6V2l-3-1h-10l1 1c2 0 1 2-2 3-3 2-4 2-3-2 0-2 0-3-8-3s-8 0-5 3c2 2 3 6 0 6-2 0-8-5-8-6 1-1-3-3-6-3l-2 1-1 1-2-1-40-1c-39 0-41 0-41 2s-4 7-5 7l-1-2c1-1-1-2-5-1l1 1 1 2h-12c-2-1-5-2-7-1l-7-4c-2-3-4-4-6-4-4 0-4 0 0 4l4 4c-1 2-34 1-42-1-8-1-16-4-17-6l-2-1c-2 0-2 0-1 1 1 2-5 2-6 0l-3-1c-2 0-2 0 0 1m192 1-2 1c-3-1-3 0 0 2h3c1-1 2 0 3 1 1 2 5 3 5 1 0-3-7-7-9-5m-65 5c-3 1-4 4-2 4l1 2c-1 1 0 1 1 1 2 0 2 0 1 1l-2 2-3 1c-2 0-3 1-1 3l2-1c2-2 3-1 2 1l-2 4c0 3 0 3-4 2-4-2-4-1-3 7 0 6 1 7 4 8l5 3c5 5 11 6 12 3l2-2 1-2v-2c2-1 3-1 2 1l2 1 2-1 2-1 1 1 1 1 1-2 2-2c2-1 2-1 1 1l1 2v3c-1 4 3 4 6 0 4-4 4-6 0-3l-2 1 2-2c2-2 2-2 4-1h4c1-1 2 0 1 1l-1 2-3 1-4 2c-2 1-3 5-1 6 1 1 7-1 8-2 2-3 3 0 1 3l-2 2-2 2c-1 3 0 6 3 6l1 1 3 1c4-1 9 2 8 4-1 1 0 1 1 1 2 0 2 0 0 1-3 1-3 3-1 4 4 3 13 2 12 0v-3h1c0 3 2 2 4 0s3-2 5-2h2l-1-1v-2l-1-2-3-1h-2c1 2-1 4-2 2l2-3c2-2 4-3 4 0l1 1v-5h-8l-8-2c-1-2-1-2 1-2h2a2 2 0 0 1 3 1c0 2 1 3 2 1a13 13 0 0 0-11-11l1-1h1c1-1-4-3-6-3h-2l5-4c2 0 3-2 2-2h-1c-2 2-3 1-3-2l1-4v-2c-1-1-1-1-2 1l-1 2-1 2-1-2c0-3-1-4-5-1l-3 1c-1-1 1-2 9-5 1-1 2-1 1-2l-1-2c0-1-5-4-10-5-3 0-7 1-5 3h-3v-2c3-2 1-7-2-7-2 0-1 3 1 3l-6 1c-7 0-8-1-7-2v-2l-1-2h-6v3c1 1 1 1-2 1h-3l2-2 2-2-3-2c-4-2-4-2-9-1m-42 4c-2 2 3 8 12 15l6 5 3 2 2 1 7 4c1 0 0-6-2-7v-3c1-2 1-6-1-6l-1 2c-1 1-1 1-1-1s-3-2-5-1l-2-1c-1-2-1-2 2-3l3-2h-3l-4-1h-2c-2 0-2 0-1-1 0-2 0-2-3-2h-5l-4-1h-1m226 1-1 2c-1 3 4 3 8 1 6-3 6-4-1-4l-6 1m71 2c-5 2-5 3-2 6 1 2 3 3 7 3 6 0 7-1 4-7-3-5-3-4-9-2m-12 4c-3 0-6 3-4 4s11 0 11-2c-1-2-4-3-7-2m-99 13c-1 2 2 4 3 2 2-2 3-1 2 1-2 2-1 3 2 3l5 1v1c2 0 5-3 5-5s-15-5-17-3m-73 4-1 4v7h4c3-3 4-3 4-2l-2 4c-4 3-2 5 3 3h2l-1 2-2 1 10-1 3-1v1c-3 0-2 3 0 3l3 1c1 2 2 2 4 1l5-1h6c3-2 3 2 0 6-3 2-2 4 1 2h9v2c-3 2-2 4 0 4l3-2c1-2 2-3 4-3 3-1 5-3 3-4h-7l-3-2v-5l1-3 2-3v-1l-2-1-2-2-5-2c-3-1-8 0-8 4l-3-2-3-3-3 1-3 1 3-2c4-2 4-3-1-3l-5-2c-2 0-2 0-2 2l-1 3-1-2c1-2 0-4-4-4l-8-2c-1-2-3-1-3 1m96 1c1 2-1 6-2 4-2-2-2-1-4 2-2 2-2 3 0 4l1 3 4 1c3-1 3-1 4 2s5 4 5 2l-1-1v-3l-1-4-1-2v-1c1-2-1-6-3-6v-1l-1-2-1 2m48 2c-6 1-7 4-1 4l5 1c5 3 25 2 28-1 3-2 2-2-3-2l-7-1c-5-2-9-2-11-1a6 6 0 0 1-7-1l-4 1m40 2c-5 1-6 3-3 5h4l3-2c2 1 5-1 5-3h-9m-275 3v2l-1 2c-2 2-2 13-1 12 2 0 6 4 5 5l2 1 2-1h2l3-1c1-1 1-1 1 1l1 3v4c0 4 2 6 3 3l2-2 2-1-2-1v-2h7c0 2 0 2 2 1s2-1 0-4c-1-3-4-4-4-2s-2 3-4 3a2 2 0 0 1 1-3 1 1 0 1 0 0-2 20 20 0 0 1-4-1c-1 0-1-1 1-1v-1c-3 0-1-1 2-1 5 0 5-2 0-4l-4-3c-13-9-14-9-16-7m143 13c-2 2-1 2 2 3h4l1-1c2 1 4-1 2-3-3-3-7-3-9 1m-205 3-1 2c-2 0-1 2 1 2l3 2 1-2c1-3 3-2 3 1l2 3c2 0 0-5-3-8-3-4-5-4-6 0m355-1-3 1c-2 0-3 1-2 3 1 1 10 2 10 0v-2l-2-3c0-2-3-1-3 1M390 77c-1 2 0 7 2 9h9l1-4c0-2-1-2-5-4-6-4-6-3-7-1m123-1h-3l-2 1 1 1 1 2v3l1 3 2 1 1-1v-5l1-3a1 1 0 1 0-2-2m125 1c-1 1-3 2-4 1l-3 1 3 2 3 1c1 2 7 0 7-1l-2-4c-2-2-2-2-4 0m-145 3c-2 0-3 1-3 2l-3 3c-1 0-2 0-1 1l6-1h5c1 2 2 1 2-2 0-2-2-5-3-4l-3 1m115 14-1 4h-3c-4 0 0 2 9 4 11 4 12 4 13 3h1c-1 3 6 2 7 0 2-2 3-1 2 1a7 7 0 0 0 3 9c-1 1 2 8 4 9 3 3 10 1 9-2 0-3 1-5 3-3 2 1 2 4 0 6l-1 2 2-1 3-1c2 0 5-3 4-5l-3-6-3-4c-2 0-3-2-2-5 0-2-16-5-19-3-3 1-3 1-4-3-2-3-5-3-5 1 0 2-2 3-5 1l-2-2h3c3-1 4-4 2-5s-3-1-3 1h-1a2 2 0 0 0-3 1l-1 1-2-1h-2c-3 0-3 0-2-2 0-3-2-3-3 0m-184 1c-1 2-1 2 1 2 1-1 2-1 2 1l3 1h2l3 1c2 0 2 0 2-2-1-3-6-5-7-3h-2c-2-3-3-2-4 0m158 8 4 3 9 3c8 4 17 5 16 3l-1-4c0-2 0-2-4-2-4 1-5 1-5-1l-5-1-7-1h-7m-68 5-3 2c-1-1-4 3-3 4 2 2 12-1 15-4s2-3-3-4c-4 0-5 0-6 2m56 7c0 4 8 7 13 4 3-2 2-3-2-3l-6-1c-2-3-5-2-5 0m-35 1c0 2 0 2-2 1h-10l-2 1-1 2c0 2 0 2 3 1l4-1-1 2c0 2 2 3 4 1l7-1 6-1 2-2c1-2 1-2-2-3-5-3-8-3-8 0m45 19c-2 0-3 2-1 2a3 3 0 0 1-4 5h-3v1l1 2c0 1 6 1 7-1h3c4 1 4 1 3-3 0-3-3-7-4-7l-2 1m24 8c-2 3 0 5 4 6 3 0 3 0 2 2l-2 2-1 1h-2c-4 2-8 0-7-4 0-2 0-3-2-3l-1 3v2l-1 2c-1 2 1 3 8 6l11 3c5 2 12 3 25 3 10 0 12 0 10-4-1-4 1-5 4-2 2 3 7 1 7-4 0-2 2-4 5-5 4 0 4-3 1-3s-6 4-9 8h-11l-4 2-2 1h-8l2-1 2-1h5c4 0 5-1 5-2 0-2-1-3-5-3l-5-1c-3-2-10-2-13-1-2 1-4 2-6 1-3-1-3-1-1-1l2-2c0-1-3-2-4-1s-2 0-4-2c-3-3-3-4-5-2m39 0v2l1 1h-2c-2 0-5 2-4 4l4 1 2 1c1 1 8 1 8-1l-1-2-2-2h2l1-1-2-1c-2 1-3 0-3-1 1-2-2-2-4-1m-20 10h-5l-2 2c-2 1-2 2 0 2 5 1 8 1 8-1 1-2 5-3 6-1 1 1 1 0 1-1s0-2-2-2h-3l-3 1M3 425c1 1 0 2-1 2-3 2 0 3 10 3h11v-2c0-2 1-3 2-3 1-1 0-1-2-1-3 0-4 0-3 1 1 2-2 3-7 2-6 0-7-1-4-2 2-1 2-1-2-1l-4 1m645 21-12 2 31-3c4-1-13-1-19 1m24 30 1 7v7h4l4 1-7 1h-7l-1 8-2 10c0 2 1 2 9 2h10v-8l1-14v-11l-1-4h-6l-5 1M1 485v5h26l-1-4c0-5 0-5-13-5l-12-1v5m164 1c1 1-3 2-21 2h-22a424 424 0 0 0 56 0l3 1c3 0 3 0 1-1l-2-2-5-1c-4 0-6 1-5 2l-1 1-2-1-2-2v1m18 0 2 1c0 1 4 2 15 2l14-1h-2c-1 0-3 0-4-2h-1c0 1 0 2-2 1l-2-1a1 1 0 0 0-2 0l1 1-9-1-1 1c0 1-2 1-5-1l-5-1 1 1m-98 1c-8 1-3 3 7 3 10-1 13-3 3-3H85m25 1c-2 0-4 3-2 3 5 0-2 2-10 3-10 1-10 1-4 1 8 0 23-2 23-3l-2-2-3-1-2-1m152 0-20 1c-31 0-28 0 6 1 31 1 33 0 33-1h-7l-10-1h-2m37 1-2 1h37-7l-6-1h-22m-254 5-22 1-22 1h23c18 0 24-1 25-2l-2-1-2 1"
    itemprop="bold" fill-opacity="0.90" stroke-opacity="" stroke-width="0.33px" fill-rule="evenodd" tabindex="-1"
    fill="url(#16282281824-posters-1672276073017-vertical-bold)"
    stroke="url(#16282281824-posters-1672276073017-radial-regular)"></path>
</svg>
