<svg id="16282281824-posters-1653326021455" itemscope="" itemtype="/posters"
  itemid="/+16282281824/posters/1653326021455" viewBox="0 0 913 512" preserveAspectRatio="xMidYMid slice" tabindex="0"
  xmlns="http://www.w3.org/2000/svg">
  <defs class="gradients">
    <g class="radial">
      <radialGradient id="16282281824-posters-1653326021455-radial">
        <stop itemprop="radial" stop-color="hsla(37, 25%, 33%, 1.00)" offset="0%"></stop>
        <stop itemprop="radial" stop-color="hsla(38, 24%, 36%, 1.00)" offset="15%"></stop>
        <stop itemprop="radial" stop-color="hsla(37, 24%, 37%, 1.00)" offset="30%"></stop>
        <stop itemprop="radial" stop-color="hsla(39, 24%, 37%, 1.00)" offset="45%"></stop>
        <stop itemprop="radial" stop-color="hsla(38, 26%, 37%, 1.00)" offset="60%"></stop>
        <stop itemprop="radial" stop-color="hsla(37, 27%, 35%, 1.00)" offset="75%"></stop>
        <stop itemprop="radial" stop-color="hsla(38, 25%, 34%, 1.00)" offset="90%"></stop>
      </radialGradient>
      <radialGradient id="16282281824-posters-1653326021455-radial-background">
        <stop stop-color="hsla(37, 25%, 80%, 1)" offset="0%"></stop>
        <stop stop-color="hsla(38, 24%, 80%, 1)" offset="15%"></stop>
        <stop stop-color="hsla(37, 24%, 80%, 1)" offset="30%"></stop>
        <stop stop-color="hsla(39, 24%, 80%, 1)" offset="45%"></stop>
        <stop stop-color="hsla(38, 26%, 80%, 1)" offset="60%"></stop>
        <stop stop-color="hsla(37, 27%, 80%, 1)" offset="75%"></stop>
        <stop stop-color="hsla(38, 25%, 80%, 1)" offset="90%"></stop>
      </radialGradient>
      <radialGradient id="16282281824-posters-1653326021455-radial-light">
        <stop stop-color="hsla(37, 25%, 66%, 1)" offset="0%"></stop>
        <stop stop-color="hsla(38, 24%, 66%, 1)" offset="15%"></stop>
        <stop stop-color="hsla(37, 24%, 66%, 1)" offset="30%"></stop>
        <stop stop-color="hsla(39, 24%, 66%, 1)" offset="45%"></stop>
        <stop stop-color="hsla(38, 26%, 66%, 1)" offset="60%"></stop>
        <stop stop-color="hsla(37, 27%, 66%, 1)" offset="75%"></stop>
        <stop stop-color="hsla(38, 25%, 66%, 1)" offset="90%"></stop>
      </radialGradient>
      <radialGradient id="16282281824-posters-1653326021455-radial-regular">
        <stop stop-color="hsla(37, 25%, 44%, 1)" offset="0%"></stop>
        <stop stop-color="hsla(38, 24%, 44%, 1)" offset="15%"></stop>
        <stop stop-color="hsla(37, 24%, 44%, 1)" offset="30%"></stop>
        <stop stop-color="hsla(39, 24%, 44%, 1)" offset="45%"></stop>
        <stop stop-color="hsla(38, 26%, 44%, 1)" offset="60%"></stop>
        <stop stop-color="hsla(37, 27%, 44%, 1)" offset="75%"></stop>
        <stop stop-color="hsla(38, 25%, 44%, 1)" offset="90%"></stop>
      </radialGradient>
      <radialGradient id="16282281824-posters-1653326021455-radial-bold">
        <stop stop-color="hsla(37, 25%, 13%, 1)" offset="0%"></stop>
        <stop stop-color="hsla(38, 24%, 13%, 1)" offset="15%"></stop>
        <stop stop-color="hsla(37, 24%, 13%, 1)" offset="30%"></stop>
        <stop stop-color="hsla(39, 24%, 13%, 1)" offset="45%"></stop>
        <stop stop-color="hsla(38, 26%, 13%, 1)" offset="60%"></stop>
        <stop stop-color="hsla(37, 27%, 13%, 1)" offset="75%"></stop>
        <stop stop-color="hsla(38, 25%, 13%, 1)" offset="90%"></stop>
      </radialGradient>
    </g>
    <g class="vertical">
      <linearGradient id="16282281824-posters-1653326021455-vertical" x1="0" x2="0" y1="0" y2="100%">
        <stop itemprop="vertical" stop-color="hsla(37, 25%, 33%, 0.56)" offset="0%"></stop>
        <stop itemprop="vertical" stop-color="hsla(38, 24%, 36%, 0.56)" offset="15%"></stop>
        <stop itemprop="vertical" stop-color="hsla(37, 24%, 37%, 0.56)" offset="30%"></stop>
        <stop itemprop="vertical" stop-color="hsla(39, 24%, 37%, 0.56)" offset="45%"></stop>
        <stop itemprop="vertical" stop-color="hsla(37, 26%, 37%, 0.56)" offset="60%"></stop>
        <stop itemprop="vertical" stop-color="hsla(37, 27%, 35%, 0.56)" offset="75%"></stop>
        <stop itemprop="vertical" stop-color="hsla(38, 25%, 34%, 0.56)" offset="90%"></stop>
      </linearGradient>
      <linearGradient id="16282281824-posters-1653326021455-vertical-background" x1="0" x2="0" y1="0" y2="100%">
        <stop stop-color="hsla(37, 25%, 80%, 1)" offset="0%"></stop>
        <stop stop-color="hsla(38, 24%, 80%, 1)" offset="15%"></stop>
        <stop stop-color="hsla(37, 24%, 80%, 1)" offset="30%"></stop>
        <stop stop-color="hsla(39, 24%, 80%, 1)" offset="45%"></stop>
        <stop stop-color="hsla(37, 26%, 80%, 1)" offset="60%"></stop>
        <stop stop-color="hsla(37, 27%, 80%, 1)" offset="75%"></stop>
        <stop stop-color="hsla(38, 25%, 80%, 1)" offset="90%"></stop>
      </linearGradient>
      <linearGradient id="16282281824-posters-1653326021455-vertical-light" x1="0" x2="0" y1="0" y2="100%">
        <stop stop-color="hsla(37, 25%, 66%, 1)" offset="0%"></stop>
        <stop stop-color="hsla(38, 24%, 66%, 1)" offset="15%"></stop>
        <stop stop-color="hsla(37, 24%, 66%, 1)" offset="30%"></stop>
        <stop stop-color="hsla(39, 24%, 66%, 1)" offset="45%"></stop>
        <stop stop-color="hsla(37, 26%, 66%, 1)" offset="60%"></stop>
        <stop stop-color="hsla(37, 27%, 66%, 1)" offset="75%"></stop>
        <stop stop-color="hsla(38, 25%, 66%, 1)" offset="90%"></stop>
      </linearGradient>
      <linearGradient id="16282281824-posters-1653326021455-vertical-regular" x1="0" x2="0" y1="0" y2="100%">
        <stop stop-color="hsla(37, 25%, 44%, 1)" offset="0%"></stop>
        <stop stop-color="hsla(38, 24%, 44%, 1)" offset="15%"></stop>
        <stop stop-color="hsla(37, 24%, 44%, 1)" offset="30%"></stop>
        <stop stop-color="hsla(39, 24%, 44%, 1)" offset="45%"></stop>
        <stop stop-color="hsla(37, 26%, 44%, 1)" offset="60%"></stop>
        <stop stop-color="hsla(37, 27%, 44%, 1)" offset="75%"></stop>
        <stop stop-color="hsla(38, 25%, 44%, 1)" offset="90%"></stop>
      </linearGradient>
      <linearGradient id="16282281824-posters-1653326021455-vertical-bold" x1="0" x2="0" y1="0" y2="100%">
        <stop stop-color="hsla(37, 25%, 13%, 1)" offset="0%"></stop>
        <stop stop-color="hsla(38, 24%, 13%, 1)" offset="15%"></stop>
        <stop stop-color="hsla(37, 24%, 13%, 1)" offset="30%"></stop>
        <stop stop-color="hsla(39, 24%, 13%, 1)" offset="45%"></stop>
        <stop stop-color="hsla(37, 26%, 13%, 1)" offset="60%"></stop>
        <stop stop-color="hsla(37, 27%, 13%, 1)" offset="75%"></stop>
        <stop stop-color="hsla(38, 25%, 13%, 1)" offset="90%"></stop>
      </linearGradient>
    </g>
    <g class="horizontal">
      <linearGradient id="16282281824-posters-1653326021455-horizontal" x1="0" x2="100%" y1="0" y2="0">
        <stop itemprop="horizontal" stop-color="hsla(39, 25%, 34%, 1.00)" offset="0%"></stop>
        <stop itemprop="horizontal" stop-color="hsla(38, 23%, 37%, 1.00)" offset="15%"></stop>
        <stop itemprop="horizontal" stop-color="hsla(37, 26%, 37%, 1.00)" offset="30%"></stop>
        <stop itemprop="horizontal" stop-color="hsla(37, 26%, 34%, 1.00)" offset="45%"></stop>
        <stop itemprop="horizontal" stop-color="hsla(37, 25%, 35%, 1.00)" offset="60%"></stop>
        <stop itemprop="horizontal" stop-color="hsla(39, 24%, 34%, 1.00)" offset="75%"></stop>
        <stop itemprop="horizontal" stop-color="hsla(39, 24%, 35%, 1.00)" offset="90%"></stop>
      </linearGradient>
      <linearGradient id="16282281824-posters-1653326021455-horizontal-background" x1="0" x2="100%" y1="0" y2="0">
        <stop stop-color="hsla(39, 25%, 80%, 1)" offset="0%"></stop>
        <stop stop-color="hsla(38, 23%, 80%, 1)" offset="15%"></stop>
        <stop stop-color="hsla(37, 26%, 80%, 1)" offset="30%"></stop>
        <stop stop-color="hsla(37, 26%, 80%, 1)" offset="45%"></stop>
        <stop stop-color="hsla(37, 25%, 80%, 1)" offset="60%"></stop>
        <stop stop-color="hsla(39, 24%, 80%, 1)" offset="75%"></stop>
        <stop stop-color="hsla(39, 24%, 80%, 1)" offset="90%"></stop>
      </linearGradient>
      <linearGradient id="16282281824-posters-1653326021455-horizontal-light" x1="0" x2="100%" y1="0" y2="0">
        <stop stop-color="hsla(39, 25%, 66%, 1)" offset="0%"></stop>
        <stop stop-color="hsla(38, 23%, 66%, 1)" offset="15%"></stop>
        <stop stop-color="hsla(37, 26%, 66%, 1)" offset="30%"></stop>
        <stop stop-color="hsla(37, 26%, 66%, 1)" offset="45%"></stop>
        <stop stop-color="hsla(37, 25%, 66%, 1)" offset="60%"></stop>
        <stop stop-color="hsla(39, 24%, 66%, 1)" offset="75%"></stop>
        <stop stop-color="hsla(39, 24%, 66%, 1)" offset="90%"></stop>
      </linearGradient>
      <linearGradient id="16282281824-posters-1653326021455-horizontal-regular" x1="0" x2="100%" y1="0" y2="0">
        <stop stop-color="hsla(39, 25%, 44%, 1)" offset="0%"></stop>
        <stop stop-color="hsla(38, 23%, 44%, 1)" offset="15%"></stop>
        <stop stop-color="hsla(37, 26%, 44%, 1)" offset="30%"></stop>
        <stop stop-color="hsla(37, 26%, 44%, 1)" offset="45%"></stop>
        <stop stop-color="hsla(37, 25%, 44%, 1)" offset="60%"></stop>
        <stop stop-color="hsla(39, 24%, 44%, 1)" offset="75%"></stop>
        <stop stop-color="hsla(39, 24%, 44%, 1)" offset="90%"></stop>
      </linearGradient>
      <linearGradient id="16282281824-posters-1653326021455-horizontal-bold" x1="0" x2="100%" y1="0" y2="0">
        <stop stop-color="hsla(39, 25%, 13%, 1)" offset="0%"></stop>
        <stop stop-color="hsla(38, 23%, 13%, 1)" offset="15%"></stop>
        <stop stop-color="hsla(37, 26%, 13%, 1)" offset="30%"></stop>
        <stop stop-color="hsla(37, 26%, 13%, 1)" offset="45%"></stop>
        <stop stop-color="hsla(37, 25%, 13%, 1)" offset="60%"></stop>
        <stop stop-color="hsla(39, 24%, 13%, 1)" offset="75%"></stop>
        <stop stop-color="hsla(39, 24%, 13%, 1)" offset="90%"></stop>
      </linearGradient>
    </g>
  </defs>
  <rect itemprop="background" width="100%" height="100%" tabindex="-1" id="16282281824-posters-1653326021455-background"
    fill="url(#16282281824-posters-1653326021455-radial-background)"></rect>
  <path id="16282281824-posters-1653326021455-light"
    d="M0 65v65l3-4 3-2-1 2-3 4-2 3v379h12c11 0 11 0 10-2-1-3-2-5-4-5s-4-6-4-16l-2-9c-2-2 0-11 3-13 2-2 2 5 0 7v2c4 0 7-6 3-6-2 0-1-6 2-9l1-3c1-2 4-3 5-2 2 3 1 6-1 8-2 3-3 3-1 4 1 1 2 0 3-1 2-2 3-1 4 4l1 1v2l-3 1c-2-1-2 0-2 3s1 5 4 3c1-1 1-1 1 6 1 2 2 3 4 2l2 1c1 1-5 2-6 1v2l1 3 1 3v6l1 4-3-1c-3-1-3 0-3-5l-1-6v-1l-1-3c-2-1-3-4-3-5 0-3-3-2-4 1l1 5 1 4c0 2 0 3 2 4 3 0 4 1 2 2-1 1 0 5 1 5l1 2 19 1h19l1-3c2-11 4-13 4-2v5h44l44-1-3-1c-2 0-1-5 1-6s4-3 5-6c3-5 6-6 6-1a7 7 0 01-2 8l-2 4c-2 3-1 4 2 2h2l5 1c5 0 6 0 8-4 3-5 7-5 6-1-1 5-3 5 46 5l45-1-1-2-1-2 3 2 1 3h634V322a8000 8000 0 00-1-194l1-64V0H0v65m0 0c0 35 1 50 1 32a4532 4532 0 00-1-32m739 9c-3 4-4 9-1 9l1-2 2-1 1 3c0 2 0 2-5 2l-4 1 1-5 1-7-1-2h-1c1 1-1 8-2 7l-2 2-4 1v-2l1-2-3 4c-3 5-4 5-4 1 2-6-4-5-8 1-2 3-3 4-5 4-3 0-4 2-4 5 0 1 1 2 6 2h7l6 1c5 0 6-1 6-4l-1-5c-1-2-1-2 1-3s3 1 4 9c0 2 3 2 8 0 3-2 3-2 6 0h6c4-1 6-4 2-4-2 0-4-4-2-5l1-2h-1l-1-1 3-1c2 1 2 1 1-1h-8c0 1-1 2-2 1-1 0-1-1 1-3 1-2 1-7-1-7l-5 4m80 14c-3 2 0 8 3 8l2 1c0 2 2 1 3-1 1-3-6-11-8-8m-62 5l2 2c2 1 1 2-2 1-4 0-4 1 1 3s15-2 10-4l-2-2h-6l-1-1-2 1m72 3v2c1 2 1 2-2 3l-3-1h-7v4c2 4 3 5 4 2 0-2 0-2 2 0 1 2 2 2 5 1h4c2-1 3-7 0-8l-1-3c1-2-1-2-2 0m-137 0c-1 2-2 3-2 9v7l5 1 6 3c0 2 1 2 2 2l6-1 4-1h-1l-6-1h-4l3-2c4-3 11-4 15-3a2 2 0 102-2v-3l-1-2-3-1-2-1c-2 2-1 3 2 3 3 1 3 3-1 3h-5l-2 1-5 1c-3 2-9 0-9-3-1-3 1-3 3-1h3l3-1 3-1 2-1 3-1c3-2-1-4-5-3h-3l-4 2h-3v-4c1-1 0-1-1-1l-5 1m46 2l2 5c2 2 2 8 0 9-1 1-2 2-1 3 0 2 1 2 12 2l19-1c6 0 8 0 7-1l-2-5c0-2-1-3-2-3-3 0-13 5-13 5-1 2-3-2-2-5 0-5-1-6-8-5-6 0-6 0-9-3l-3-3v2m-73 6c-3 3-4 7-2 7v2c-3 2-4 0-3-3 2-7 0-8-6-3-4 4-4 5 0 5 3 0 4 1 5 3 2 4 6 4 10-1 4-3 5-3 3 1-1 3-1 3 2 3l3-1-5-11v-2c0-4-4-4-7 0m128 1c0 3-1 4-3 4-3 2-6 14-3 16l-1 2c-1 2-2 4-1 17l-1 5-1 3c0 2-2 3-5 2-2 0-3 0-2-1 2 0 0-2-3-2l-2 2-2 1-21 1c-9 0-12 0-11 1l24 1c24-1 28-1 30-7l1-2 1 2 4 3 2 3 1-6v-8l1 1 2 1c2 0 1-3-2-5-5-4-5-5-1-5 3 1 4 1 4-1l2-1c3 1 5-1 2-3-4-3-12-4-10 0l-1 1-1-2c-1-3 0-8 1-8 2 0 7-6 7-9l1-2c2 0 1-2-1-4h-4c1 3-3 2-4-1-2-4-3-4-3 1m-149 4c-2 0-3 3-1 3l1-1 2-1 1 4 1 4h5l4-1-2-1c-3 0-4-1-6-5l-2-3-3 1m-511 14l-4 6-1 4-3 5-2 3-2 3c-1 1-1 1 2 4a3 3 0 005 1l7-6 8-7 2-4a7 7 0 012-6c1-1-2-5-3-4l-1-1h-3c-1 1-2 1-3-1-2-2-2-2-4 3m557 0l-1 8c1 0 6-3 6-5 3-7-2-10-5-3m-24-1c-4 0-6 1-6 2 0 2 0 2 3 2l7-1c3 0 4 0 4-2-1-2-2-2-8-1m51 8v7l1 3c0 3 2 5 4 3s1-8-2-12c-1-2-2-2-3-1m-68 2l-2 3h7l2 1c2 0 2 0 1-1-1-2 0-3 2-2l2-1-3-1-5-1-4 2m24 0l3 2 5 4c2 3-1 8-5 8l-2 1c-1 1 0 1 2 1l6 1c2 2 3 2 3 1a2 2 0 013-1c0 2 2 1 3-1l1-4 1 16c0 14 0 18 3 26l6-2-3-8c-2-6-2-9-2-13v-8c2-1 2-1 1-3l-1-2-1-4v-4c1-2 0-7-1-5h-2v-2c2 0 3-4 1-4-1 0-3 2-3 4l-2 3-3 3a2 2 0 11-3-1v-4l-1-3c0-2-1-3-5-3-5 0-5 0-4 2M0 322c0 105 1 148 1 95a42296 42296 0 00-1-95m328-179l-1 8c0 4 6-3 6-7s-4-4-5-1m316-1v5a4 4 0 100-5m-301 3c0 2-2 4-3 5a4 4 0 106 3l2-3c2-2 1-8-2-8l-3 3m33 1v7l-4 15c2 5-3 28-6 30-4 3 2 6 8 4 5-1 7-5 7-10l2-9a27 27 0 001-18 8 8 0 018 5l1-1 1-3c1-1 0-4-2-5l-2-1-8-8-2-4-3-4c-1-2-1-2-1 2m338 6l-3 1s2 2 2 6l3 5c3 0 3 1 2 6 0 4-2 5-2 1 0-3-1-2-2 2 0 5 1 7 2 5h2c1 1 0 3-1 3-1-1-2 2-1 3h-1c-2 0-2 1-1 3 1 1 13 3 15 2 1-1 0-2-1-5s-2-5-1-8l-1-7-1-8v-6c-3-1 0-2 11-2l11-1h-33m-40 1l3 3c0 2 1 3 2 3v1h3l3-3c2-2 3-1 3 1l-2 2c-2 0-2 7 0 9l2 4c1 1 1 0 1-2l-1-3v-2l2-8c0-6-1-7-3-5h-5l-7-1c-3 0-3 0-1 1m127 0c0 3 12 11 17 11 4 0 4-3-1-5l-4-3-5-1-5-2h-2m-226 2c-3 2-3 2-1 4s4 1 6-1c5-5 0-7-5-3m-248 2v6c2 1 1 2-2 3-2 1-3 1-5-1-1-1-1-1-1 1v6l-1 3v3l2-2v3l-2 6c-2 1-1 6 2 7 5 0 7-1 7-7 0-4 0-5 1-3l1 3 1-3c1-3 0-7-1-8h-1l-1 1c-2-2-1-4 1-4l2-1c1-6 1-10-1-10l-1-1c1-1 0-3-1-2m6 0l1 1v3l1 4v2l-3 9c0 8 0 8 1 7 2-1 2-1 2 2a2 2 0 104 1l1-13-1-1c-2-1-2-1-2 1l-1 3-1-1 1-5c0-2 1-2 4-2l3-1-2-1c-1 0-2-1-2-4-1-4-6-9-6-5m349 13l-1 8-2 11 1 3c3 0 5-3 4-5l1-3 1-7c-1-7-2-9-4-7m-356 29c-4 2-4 3 0 5 3 1 6 0 8-3s-1-4-8-2m-66 2c4 3 5 4 4 6 0 2 0 2 4 2s4 0 2-1-2-1-1-3c0-3 0-3-2-3l-3-1-4-1-3-1 3 2m158 7l-2 6c0 2 0 3 2 3l2 2-8 1c-3 0-4 0-4 2s4 3 10 2c2 0 2 0 2 3-1 3 0 5 2 5s2 0 1 1v7a12 12 0 000 16c5 3 13 2 10-2-3-2-2-4 0-1 3 2 4 1 2-4-1-4-1-4 1-3 2 0 3 6 3 14 1 5 5 9 10 9 4 0 5-2 3-7-2-6-4-16-2-16 5 0 9 2 9 7 1 7 4 7 6-1l2-4c2 0 0 7-2 9v3l1 3-2-1c-2-3-4 0-5 7-1 6-2 7-5 10-4 4-4 4-1 6 2 2 3 2 5 0h4l4-1c3-1 4-4 2-4-1 0-1-3 1-9 1-3-2-2-4 1-1 2-1 3-2 2l1-2v-1l2-4 3-5c0-10 6-18 8-12l3 1 2 1h1c1-1 0-2-1-3l-1-4-2-4-2-2 4-2c11-5 14-13 7-19l-2-4c-1-4-5-8-7-6-2 4 2 11 6 11a2 2 0 110 3v4c2 3 2 4-4 4-5 0-5 0-6 3-1 4-3 3-3-3 0-3 0-6 2-9 3-6 2-10-1-6l-2 5c0 2-3 6-5 6s-7 10-7 13h-1c-3-2-14-1-14 1s0 2-2 0c-3-3-3-4 1-4 3 0 5-2 5-6l1-5c1-2-1-6-3-6l-3-4-2-3 1 5c0 7-1 9-5 7-2-2-3-1-2 3 0 3 1 4 2 5 1 0 2 1 2 3s0 3-2 2l-2 1c-1 2-4 0-4-2 1-1 1-3-1-4v-3c2-1 2-3 0-3-2-1-2-1-2 3 0 6-2 3-2-5l-1-9v-5c0-3 0-3-2-4-4-1-5-1-5 2m-107-1l-1 3-1 2-2 1 13-1c1-2 0-4-2-4l-1-1h-6m329 13c-2 6-2 7 1 9l3 3v-1c-2-2-1-3 1-3 3 2 3 0 0-4s-5-6-5-4m250 0c-8 0-10 2-7 5 1 2 1 2 4-1 2-2 2-2 3-1 2 1 2 1 2-1h1l2 2v-4h-5m-240 8l-1 2-1 2-2 2-2 4-2 2h2c3 0 4 5 1 8-2 3-1 5 1 4l2 1v16h8c8 0 13-2 9-4l-3-1c-5 0-8-9-5-16l-1-2v-3a19 19 0 00-4-14l-2-1m221 10c-2 2 0 10 2 10l6 3 9 7 5 4 4 2 6 4 6 4c2 4 4 4 4-1 0-4-2-7-4-7l-1-3c0-2-1-3-4-3l-6-1-11-8-2-1-6-4c-7-7-8-7-8-6m-392 20l-1 1-1 2c0 3 0 4 2 4v-2l3 1v1l-1 7 1 2 3 2c2 0 2-4 0-7v-11c-2-2-6-2-6 0m84 8c-3 3-5 11-2 10l1-2 2-2c3-1 6-6 6-9-1-2-4-1-7 3m-355 4c0 2 0 3 2 3l1-1c0-3 3-2 4 1 1 5 2 4 2-2v-5h-4c-5 0-5 0-5 4m401-3c-2 1-1 5 2 8 2 2 2 2 1 3l-1 6c1 4 1 4-1 4s-2 0-1 4l-1 9-2 8c0 4-2 4-4-1l-3-6c-2-2 0-4 3-4s3-1 1-4c-1-1-1-1-3 1-3 3-6 1-5-4 0-5-3-13-6-13-4 0-3 7 1 9 2 1 3 7 1 9l-2 3c-1 3-2 3-4-1l-2-3v6l1 6h-3c-3 0-6 2-8 6-2 5-1 6 8 6 6 0 7 0 9 2 3 3 12 3 13 1 1-5 2-1 1 3 0 5 0 6 2 7l3 2c3 2 5 0 5-8 0-7 2-18 3-16v7c-2 14-1 19 4 18 2-1 2-1 2-5l1-10 1-10 1-5 1-5v-4l-2-18h-1c-1 4-7 0-7-4s-6-9-8-7m-44 7l-1 5c0 2-1 4-3 4v-1c2-2 1-3-1-3-3 0-4 2-4 6 0 3 4 8 6 8l-1 2-3 2c-1 2-8 2-8 1l-1-2c-4 0-5 9-2 13 2 2 5 3 6 1 0-2 3-1 3 1l-4 1c-3 0-4 0-4 2l-1 2-1-3-1-2-1 3c0 2 0 3-1 2v-13l1-7c1-1 0-1 0 0l-2-2-1-2-2 2-2 6-1 4c-1 1 0 7 2 8 2 0 2 1 2 5-1 4 2 10 6 9l4 1h4l2-1c3 0 4 0 4-3l3-11 1-5 2-4 2 1c-1 1 0 1 1 1 3 0 4-3 2-5l-1-3-3-5c-2-2-2-2-1-6 2-8 2-16-1-12m-17 4c-2 3-4 4-5 3-3-1-11 3-10 6l5 2 7 3c4 4 5 3 6 0s1-3-1-5c-2-1-3-3 0-3 3 1 5-2 5-6-1-5-3-5-7 0m-405 4a10 10 0 006 15c-2 4 5 3 9-1 3-2 0-7-7-12-5-3-6-3-8-2m755 1c-2 2-2 7 1 9v2c-1 2-4 1-6-2-3-3-3-3-3-1l2 4c3 3 2 9-2 9-2 0-8 7-7 8l3-1h2l-1 1c-5 0-2 3 11 14 10 8 11 8 11 2l1-10-1-12v-5c1-2 1-2-1-1l-3-2-4-2v-3c1-1 2-3 1-6-1-6-2-7-4-4m-638 3l-2 7c0 5-1 8-2 3 0-3-2-3-3 1v14c0 4 1 4 2 0 2-6 5-3 3 3s-3 7-4 5c-3-2-4 1-4 10-1 11 0 13 4 13 4-1 6 1 3 4s-2 6 3 6h6c4 1 6-2 4-6l-1-6c2-7 2-20 0-20-3 0-8-2-8-4s1-2 4 0h5l4 1c3 3 3-4 0-8l-2-2-2-4c-2-2-4-5-4-8l-2-2v-2c2-2 1-6-1-7l-3 2m81 5l-2 7c0 2 0 2-2 2-2-1-5 1-6 6l-2 6a87 87 0 00-5 24c-1 4-1 6-3 7-2 2-2 2 0 3 1 0 4-1 5-3 0-2 1-7 3-10l2-5c-1-2 1-7 2-7 5 0 6 1 5 7 0 6 1 9 3 6l2-2c1 0 2-2 1-4l1-5 1-3-1-5-1-15v-4l2-5c0-5-2-5-5 0m-43 4v7c-3 4-3 9-2 10 2 2 9 2 10 0h5c3 0 3 0 3-2s-1-3-5-3c-9-1-10-2-7-6 2-2 2-3 1-6-2-7-5-7-5 0m-187 7c-2 2-3 4-2 5l-1 2-1-2c0-3-2-2-7 4-2 2-2 2-1 3 2 1 2 1-1 3-5 2-6 5-5 13a6 6 0 004 7c2 3 4 1 9-5 2-3 2-3 5-2l3 1c1-1-2-5-4-5s-2 0-3-4c-1-3-1-3 2-3 2 1 3 0 5-1h7c1 2-3 6-5 5l-1 3 2 4 1 2h3c1-1 2 0 5 1 2 2 3 2 4 1v-1l-1-3-2-5-1-4-1-5c-1 1-2 0-3-1l-4-1c-2 1-3 0-4-1l-2-1c-2 0-1-2 1-4 3-3 5-6 5-8 0-3-3-2-7 2m52 3c0 2 1 3 3 5 3 2 3 3 2 7s-1 5 3 5c2 0 4-2 5-6 0-4 0-4-2-4-1 0-2 0-1-1 0-2-6-9-8-9s-2 1-2 3m-44 0c-2 1-2 2-1 4 2 2 8 0 7-4 0-2-4-3-6 0m369 6c0 4 0 5 3 6l2 2 2 1c2 0 1-2-2-8s-5-7-5-1m-350 4c-3 5 2 9 7 5 1-2 1-2-1-5-3-2-5-3-6 0m360 1l-1 5c0 2 0 3-2 3l-2-1v-1c0-4-3-3-4 0-3 6-3 10 0 11 2 1 2 2 2 7a13 13 0 001 7c-1-1-2 3-2 6 1 2 9 3 9 0 1-2 0-2-2-1-2 0-2 0-2-6 1-4 0-8-1-10-1-4-1-4 1-4h1l4-7 1 2c3 6 5 0 2-8-2-5-4-6-5-3m-202 2l-1 2-1 2-1 11-1 11c-2 5 6 7 13 4 3-1 4-5 2-5v-3c1-1 2-3 1-7-2-14-4-18-8-15h-4m-150 3c0 2 7 10 8 8 0-2 2-1 2 1h2c2-2 2-2-3-5l-6-4h-3m28 2l-5 3-1 1-1 3-1 3c0 3-2 6-3 6s-2 1-2 3l-2 4c0 2 0 2 2 2 2-1 2-1 2 1 0 1 0 2 2 2l3 2c1 1 1 1 4-1l1-4c-1-1 1-9 3-11v-4l1-7c3-7 2-8-3-3m724 11a11 11 0 005 12c0 1 4 2 4 0 2-3 1-5-2-8l-4-5c-2-3-3-2-3 1m-789 7l-4 4-1 2c0 2-2 1-3-1s-1-2-3-1l-1 7v3c-1 2 2 6 5 5l1-3v-4l2-3c0-2 0-2 1-1v5c3 2 2 5-2 7-3 1-4 5-4 15 0 4-2 6-3 2l-2-2v-16l-3-4c-3-4-4-4-4 1s2 11 4 11l1 2-2 17c0 16 0 19 4 16l3-2c6 0 10-1 10-3h3c0 4 7 4 8 0l2-3-3-1c-3 0-4 1-2 2s0 2-2 2c-2-1-2-6 1-6v-18c2 0 3 1 3 9 1 9 2 11 3 9a4 4 0 117 3l-1-1c-6 0 1 10 7 12 3 0 11 8 10 10 0 2 3 1 4-1 4-7-1-17-8-16l-3 1v-4c0-4 0-4-1-2-1 3-3 2-3-3 0-3 0-4-2-5l-3-1-4-2c-2-1-2-1-1-3v-3c-1-2-1-2 2-2 2 1 3 0 5-1l2-3-2-3c-2-3-2-3-5-1-2 1-2 1-4-1-1-1-1-1-4 1-3 4-4 4-4 1-1-2 0-3 2-5l3-3 1 2c2 2 4 2 4-1 0-2 3-5 3-3a19 19 0 001 4c0 1 3-3 3-6v-4l-2 2-1 1v-3c1-4-3-13-6-14-1 0-2 0-2 2 0 4-3 3-4-1s-3-3-6 2m221 0c-1 3-6 8-8 8l-1 2 1 2c2 0 1 3-1 3l13-1c2 0 2-1 2-3 0-6-2-7-6-3s-6 5-6 3l3-3c3-2 5-5 5-8l-1-2-1 2m-146 2c-1 2 2 7 5 8 2 1 2 1 1 2l-2 4c0 3-1 3-3 1a2 2 0 10-1 3c2 0 2 0 2 2-2 5 1 7 3 3 1-2 2-3 4-3l4-1c0-2 7 0 8 2h3c0-1 1-2 2-1l1-1-1-2c-2 0-10-9-10-10a2 2 0 00-3-1c0 2-2 1-6-3-5-4-7-5-7-3m-71 1l-1 7v5c0-2 4-1 4 1l1 1 1-1 3-1c4 0 3-6-2-10-4-3-4-3-6-2m48 14l-4 1c-3 0-4 0-6 3s-2 9 1 8c1-1 1 0 1 2v3l1 2c0 2 4 3 7 1h7l1-1 3-2c0-3 2-4 2-2l1 1v-3c-3-2-6 0-5 3l-2 2c-2 1-4-2-3-4l-1-4v-6l1-4h-4m14 6c-2 1 0 6 3 7l3 3c1 2 3 1 4-1 1-4-7-11-10-9m697 0c0 2 3 6 4 6l1 3 4 4c3 1 4 1 2-2l-3-5c-1-4-8-8-8-6m-733 4l-3 3c-1 0-2 1-2 3 0 3 2 4 4 1 1-1 1-1 2 1 0 3 1 3 4 3s6-2 3-2l-1-2c0-7-4-11-7-7m747 2c-1 1 0 3 2 3l3 1c2 3 6 3 9 2 2-2 1-3-4-4l-7-1c-1-2-3-2-3-1m-696 5l-5 3c-3 1-4 2-2 4l1 2c0 1 0 2 2 1l1-2 3-4c3-3 4-6 2-6l-2 2m10 0l-1 1-2 1-1 4 2 1c2-1 3 4 0 6-1 1-2 4-1 5 2 1 4 3 5 7l1 3 2-3c1-3 0-9-2-8-1 1-1 0-1-10l-1-8-1 1m-52 9c-1 2-1 2 2 5s3 4 14 4c12 0 13 0 7-6-6-5-8-6-15-6s-7 0-8 3m41 3l-3 5c-2 0-1 1 3 5 4 3 5 4 5 1 1-2 0-6-2-6l1-3c1-3 1-6-1-6l-3 4m46 0l-5 5-1 3-1 4c-1 3-1 3 2 6 4 5 4 4 10-8l-2-3-1-2c2 0 5-6 5-8-1-2-4-1-7 3m74-3l-2 5c-2 3-3 4-4 3-3 0-6 2-6 5 0 2 0 3-2 3v1h3c1-1 4 0 4 2l-2 1-4 1 1 1a3 3 0 110 4l-1-3-1 1v7c-1 4-1 6 1 7v1l1 1c1 0 2 1 2 4v7c0 4 11 3 11-2h-2c-4 4-4 2-4-12 1-20 2-23 7-21 2 0 2 0 1-1l-1-2v-1l-1-2v-2c3-2 4-9 2-9l-3 1m-48 11c-4 3-4 6 0 5l2 1c-2 4 1 2 2-2 3-7 2-9-4-4m-19 6l-2 3-2 5-3 4h3c4 1 8 0 9-2s1-2 1 0l1 3c2 0 3-1 2-3-1-3 2-6 4-4l3 1v-2c-2-1-6-1-9 1s-7-2-6-6c1-2 1-3-1 0m132 2l-1 2c-2 1 0 2 2 3l2 1 1 2 1 2c1 2 8 3 10 1 3-1 4-1 3 1 0 0-1 2-3 2l-2 1 2 1c2 1 2 1 1 3 0 1-1 2-2 1v1l3 10c1 9 4 14 5 8a3 3 0 00-1-4l3-1h3l-3-1c-2 0-2-1-2-5l1-5-1-3v-6c-2-1-1-3 2-2l2-1-3-2-3-4c-3-4-5-4-6 1 0 4-1 4-2 2-1-1-3-2-4-1-2 0-4-2-4-5-1-4-4-5-4-2m-199 3l-1 1v2l-3 2-1 2c0 1 7 1 8-1l-1-1-1-2 1-2v1l2 2 2-1 2-1 1-1c0-2-8-3-9-1m152 5l2 4a23 23 0 011 14l-1 4c-2 3 0 4 1 2 2-2 2-2 3 0s4 1 4-2l1-4c0-2 0-2-2-2s-3-1-1-2c2-2 2-6-1-9l-3-6c0-2-2-3-4-3v4m43-2v5c-2 2-2 2 2 3l4 3c0 4 2 2 2-2 0-3-2-6-4-6l-1-2c1-2-2-3-3-1m64 5c-4 3-5 3-3 5a5 5 0 009-4c3-3-1-4-6-1m-201 3c-4 0-4 5-1 6l1 1 2 1h4c4 2 8-4 5-7-2-1-8-2-11-1m26 3l-1 4c-2-1-2 3 0 6v4c1 4 7 6 9 3l3-1c3 0 5-2 3-2-4-1-7 0-8 1-2 2-2 2-3 0s0-3 3-3c2 0 3 0 2-2l3-1 6 1 4 1c1 1 1 0 1-1l-3-3c-2-1-3-2-2-4 0-4-1-5-7-6h-7c-3-1-3-1-3 3m165-3c-2 2-2 5 0 4l1 3 1 5c2 2 2 2 0 4-1 1-1 1 1 3 4 3 1 6-3 3-2-2-2-2-1-4 3-3 2-5 0-8-3-2-6-1-4 2 2 2 0 6-3 6-2-1-4 2-3 4 1 1 0 8-1 8l-5-5c-3-3-4-4-5-3l4 6c7 6 7 7 3 13-3 6-2 7 4 7l7 1 7 1a5 5 0 016 1v-4l-1-10a16 16 0 00-2-12c1-3 4-4 4-1 1 3 8 3 8 1l-1-2c-2 0-3-2-2-5 0-2 1-3 2-3 2 0 2 0-1-2s-3-3-3-5c1-2 1-2-1-2h-2l-2-1v1l-2 1c-1 0-2-1-2-3l-1-5-3 1m405 2l1 2v4c-2 3-2 3 0 3 4-2 5-2 5-1l-1 2-1 2-1 3v1c2 0 2 1 1 3h-4l1 2 3 1c2-1 3-1 4 1l3 3 2-3c2-3 2-4-1-2l-2 2c-2 0-1-3 0-3a2 2 0 002-3c0 1 2 1 4-1v-3h-1c-3 0-3 0-4-3 0-2-2-4-3-5l-5-3-3-2m67 0c-1 2 5 8 9 10l6 4 2 2v-4l-1-3c0 3-1 3-8-4-6-6-8-7-8-5m-672 7l-1 2-1 6 1 6h-3l-4-2-2 1 1 1c2 0 2 13 0 14-2 0-1 3 1 4l1 3c-1 4 2 6 5 3 2-1 2-1 2 1 0 3-2 4-6 1-3-1-3-1-3 2v6c-1 2 0 3 1 3 2 0 2 2 1 4l-1 1a623 623 0 019 7l3 1a2 2 0 100-3l-2 1v-1l1-10 2-9v-3l-2-4-1-3c-3 0-2-3 0-3 2-1 3 0 4 4a13 13 0 006 6c1 2 2 2 4 1s4-1 3 2l-3 1c-2-1-1 1 3 5 2 3 5 4 6 4l1 3 1 2c2-1 2 0 2 1l1 3 1-5-1-8c0-2 0-2-2-1h-2l-4-1c-2 0-2 0-1-3l2-2 3-1h2v2c-3 0-2 3 0 3 5 0 4-9 0-14l-8-7-5-4-1-1-1-3-2-2c0-1-2-6-4-7s-2-2-1-2c1-2 0-4-3-6-3-1-3-1-3 1m24 3l2 1c2 0 3 3 3 8l1 4c2 0 3-11 1-12-2-2-7-2-7-1m23 12c0 3 3 5 6 4l2 1c0 2-1 2-6 2-7 0-5 1 6 2l6 1 1-3c0-4-2-7-5-7-1 1-2 0-3-1-2-2-7-1-7 1m635 0c-2 2-3 6 0 4 2-2 2 0 0 2l-3 4h1c1-2 4 0 4 2l-2 5a12 12 0 01-7 9l-2 2-3 2c0 2 3 1 4-1l6-4 4-2c-4 3-4 5-1 4 2 0 2 0 1 1a1 1 0 102 1l2-1-1 2-5 4c-2 3-3 3-4 2h-1l2 2 1 3 1 1 1 1 6 6a1 1 0 000-2v-4l-1-1 1-1 1-3v-4l-3 2c-3 2-3 3-1 3h-3c-2 0-3-2-1-2l5-3 3-3v-13l-1-13v-2c2 0 1-3-1-4s-3-1-5 1m-578 6l-1 6-1 5-1 3c-2 2-1 5 2 6 4 2 13 0 13-2l-6-10-1-5c0-2 0-3-1-2l-3-2c-1-1-1-1-1 1m544 4l2 1 1 2c0 2 8 9 9 8l-3-5-1-1-3-3-5-2m19 8c-6 5-5 7 2 2l5-3c0 1-5 6-7 6l-1 2h4l6-6v-4c-2-2-3-1-9 3m-608 0l2 1v2h-3c-1-1-2 0-3 1v1c1-1 2 0 1 1l-2 1c-2 0-2 0 0 2 4 3 8 3 8-1 0-3 1-3 3-3v-3l-1-2h-5M61 470c0 4 3 7 6 6l2 1-2 5-3 4c-2 1-3 4-1 4l6-4c1-1 3 0 2 2v1h3c2 0 2 0 2-4 0-5-2-9-5-9-2 0-5-4-6-6-1-3-4-2-4 0m210 7v2c1 1 1 1-3 1-5-1-5-1-5 2 0 2 3 4 6 3 4 0 4-2 0-2l-4-1 7-1h9l-2-1v-1c0-2 0-2-2-2l-4-1-2 1m-121 23c-2 2-3 4-3 7v3l2-2 5-4c2-2 3-3 3-5 0-4-3-4-7 1"
    itemprop="light" fill-rule="evenodd" tabindex="-1" fill="url(#16282281824-posters-1653326021455-vertical-light)"
    fill-opacity="" stroke="url(#16282281824-posters-1653326021455-horizontal-background)" stroke-opacity=""></path>
  <path id="16282281824-posters-1653326021455-regular"
    d="M3 1l12 1c8 0 9 0 8 1l-1 2 3 2 1 2 2 2c2 0 2 1 0 3-1 2-1 2-5-2a24 24 0 00-8-6c-3-2-4-3-4 0l2 2 3 3c0 2 2 3 2 3l2 1c0 2 5 6 8 7 2 1 3 3 1 3l-3-2c-2-1-2-1-3 1l-4 2c-3 0-5 2-3 3 1 2 5 1 7-1s2-2 3-1l2 1 3 1h1l3-1c2 0 3 4 1 6s2 3 5 1 3-1 0 2c-2 3-2 3-5 2h-4c-1 2 2 3 6 3 2-1 2-1 2 1h1l5-3c4-2 5-5 5-11l2-3c2 0 1 5-1 7v3l-1 2-1 1-2 3-2 3 3-2c1-2 4-3 4-1l-3 3c-2 2-3 3-1 2 4-3 5-3 7-1 3 2 3 3 1 3-2 1-4 0-3-1 1-2-2-1-4 2l-2 1c-2-3-5-3-6-1s-2 3-3 2-1-2 1-3l2-3-7 4c-3 2-4 2-2-1v-2c-2-1-2-1-1-3 1-1 1-1 0 0-2 2-3 1-3-1s-2-3-4-2v2l-1 1-2 1 4 7c2 1 2 2 1 2l-7-7c-1-2-3-3-4 0a4 4 0 01-7-1v-6l-1-3-1 3c1 4 0 5-1 3-1-3-3-2-3 0 1 2 0 3-1 5-2 2-3 22-1 22 3 0 3 6 1 9l-2 8c0 6 1 7 3 4h5l-1-1a3 3 0 010-4l2 2 1 2c-1 3 2 7 4 7s2 0 1-1c-1 0-2-1-2-3l-1-6c-2 0-1-3 2-4 1-2 3-2 3-1v2c-2 0-3 2-1 2 3 0 7 3 7 5 0 1 0 2 2 1l1 1-1 2v4l-1 2c0 2 3 1 4-1 1-1 1-1 2 1h3c1-2 1-2 3 0 1 2 2 2 7 0 3-1 4-2 3-3V87c2-1 3 4 2 12 0 2 2 3 2 1l3 1c2 2 4 2 7 2 2 0 3 0 2 1-2 0-3 3-1 4v1l10 2h4l-6 1-6 1c0 1 4 2 11 1h15l9-1c2-1 0-2-9-1H78l5-2h7l6-2-2-1 1-1h17l-7 1-7 1 12 1c5 0 6 0 5 1s-3 2-6 1l-5 1 10 1h13v2l-24 3c-13-1-36 1-38 3h-4l-2-1c-3 0-4 2-1 2l4 3c3 3 3 3 3 1 1-4 5-2 7 3 4 8 10 12 7 5l-4-6c-2-4-2-4-1-6 2-1 6 0 6 3l3 1c2 0 2 0 2-2-1-2-1-2 5-1l7-1c1-2 3-2 8-2h7v5c0 4 0 5-2 5-3 0-7 5-6 7l1 5v3l-1-3c0-3-1-3-2-2l-1 4c1 1 0 1-1 2-2 0-3 2 0 6 2 4 1 6-1 3-3-2-4-1-2 3 2 3 3 5 1 4-2 0-4 2-4 4s2 3 2 1v1l-2 3c-2 1-1 6 1 6l1-2 1-2 1 2h1c1-2 1-2 3 0l3 1-3 3c-4 2-4 2-8 1-7-3-11-4-15-4-5 0-5 0-5-3a5 5 0 00-8-3l-1 1-1 4v2l-1-4-3-4-2-2 2 4 2 5 2 3c0 2 0 2-1 1-2-2-6-8-6-10s-2-2-2 0l1 4 5 10-3-3c-1-4-2-4-5-1-4 3-4 7-1 10 2 2 3 4 0 4-2 0-4-2-4-5 0-2-2-5-4-5v3c2 1 4 8 4 10l3 3c6 1 8 2 7 5v4l1 3c-1 0-7-2-9-4l-2-1-3-4c-2-6-4-6-13-6-6 0-8-1-11-2-6-3-6-4-1-7a17 17 0 005-4l3-2 5-4 4-2c3 0 3-1 2-5-1-2-2-3-4-3l-2-1h-1c-1 2 0 2 2 2l3 1-3 1h-6l-15 1H0v86l1 88c2 1 2 3 1 5l-1 5v70c-2 1-1 22 1 21 2 0 7-11 4-11l-3 2-2 2v-2l1-2 2-2v-2l2 2c3 4 2 12-3 14-4 2-4 6 0 5 2 0 2 0 2 2l-3 2c-3 0-3 3 1 3l3 1c0 1-3 5-5 5l-1 2c0 2 0 3 2 2a2 2 0 110 4c-2 0-2 0-2 2s1 2 5 2c5 0 5 0 6-3a12 12 0 016-10l-2-1c-3 0-3-4 0-5h3c1 3 2 2 3-1 2-4 6-4 6 0v5c-2 2-3 6-1 4s5-1 5 1c0 1 0 2 1 1v-2c0-2 0-3 2-4l3-8c0-5 2-10 2-5h2v-6l2-3 4-1c3 0 3 0 3-3-1-1-1-2 1-3l3-2h8l2 2-1 1c-2 0-4 2-2 3 2 2 5 2 6-1 2-4 4-5 3-2 0 3 1 4 5 3 4 0 4-2 0-4-3-1-3-1-1-3 2-1 0-4-2-2l-1-1 4-1c3 0 2-2-1-3l-2-2c-1-2-1-2-3-2-2 1-3 0-4-1s-1-1 6-1c8 0 10 2 8 6v5l1 9v7H68c-25 0-24 0-24 2l2 1c2-1 15 1 16 3h2c0-3 5-2 7 0 2 3 2 3 2 1 1-3 5-2 10 1l4 2 1 1c-1 1 6 10 12 15 2 2 2 2 1 4-2 1-2 2-1 4v3c-1 1 0 5 2 5l1-3c-1-3 2-4 3-1l2 3c2 0 5 4 5 5l-8 1-8 1h-7c-4 0-5 1-5 2l3 1c2 0 4 0 5 2h1c1-2 15-3 17 0 1 1 0 2-2 2s-3 1-3 3c0 3 0 3-5-1-5-3-6-3-4 1 3 5-3 3-6-2-2-3-3-4-4-2-1 1-2 0-4-1-3-1-3-1-2-2v-3l-1-3c0-2 0-2-4-1l-4 2c-3 0-5 1-6 5s0 6 2 3c2-4 3-3 4 1l1 4 1-4c-1-5 1-8 4-8a19 19 0 010 11c1-1 2-2 6-2 5 1 8 2 5 3l2 2 3 3v3h18c19 0 20 0 12-6-7-5-9-8-6-8l2 1 4 4c4 2 5 1 2-3s-2-5 2-3h5c2-2-1-4-3-2s-3-2-3-11c0-7 1-8 3-9s2-1 1-2c-2 0-3-1-3-13v-12h3c4 0 4-2 1-4l-3-3h20c2 2 1 3-2 4h-3l2 1c4 2 8 0 8-2s8-5 10-4h3v-1l-1-1c0-2 4-1 4 1l4 1h2a5 5 0 008-2c0-2 10-1 12 2l4 2 2 4c0 2 0 2 3 2s3 0 2-1l-2-3-1-2-2-1h7c3-1 4-2 2-4-3-2 3-2 8 1 2 1 2 1 2-4 0-8 0-10 2-11s6 1 10 6l3 3c1 0 2 7 1 8l1 1 2-2c1-1 4-1 4 1l4 4c2 2 4 4 4 6l2 2c2 0 2 1 2 3l-1 35c0 2 0 2 2 3l2 2 1 1c2 0 2-3 2-16l1-22v-5h5c6 1 14 0 10-1l-9-1c-6 0-10-3-8-5l-2-6-1 2-1 1-1 2 1 1 1 1c0 2-4 1-6-2l-4-3-1-1-9-10c-13-13-13-16 1-15h7c1-1-2-1-9-2-11 0-13-1-13-5 0-5 1-5 6 0 4 4 5 3 8-3l4-7 2-3 2-5v2c-1 3-1 8 1 9l1-1c-1-3 2-5 4-3 1 2 1 2 1 0l-1-2c-2 0-3-2-3-5 0-2 4-1 5 1l2 1 1 3-1 4 4-4c4-5 8-5 7-1 0 3 1 4 2 1 2-5-5-9-9-5-2 1-2 1-4-1l-4-2-3-4a196 196 0 010-37l1-28v-41l4-1c4 0 6 2 3 4v8l2-2c2-5 6-4 7 0h3c3-1 3-1 3-3v-2l2-2c1-4 3-1 3 7 1 7 1 7-2 7-3-1-6 0-6 4-1 4 1 5 4 2 3-4 4-4 4 0l-2 3c-3 2-4 2-1 5 4 5 4 6 3 13-1 8-2 15-1 20l1 5c-1 1-4-2-4-4l-1-2c-2 0 0 9 3 9 2 1 2 2 1 15v35l-1 5v5l-1 4-2-1-8-5c-2 0-1 2 3 4 5 3 5 4 1 4a4 4 0 01-5 0c-2 1 0 2 6 2s7 1 8 5l2 4v-4c0-4 2-3 3 2l3 3c3 1 3 25 0 26s-2 2 2 2l5 1 1 2 1-1v-3l1 1 2 1v-4c2-1 1-4-1-4-1 0-2-2-2-7l-1-10v-10c0-10-1-14-4-11-1 1-2 1-3-1v-3c2-1 2-1 4 1 1 2 3 0 3-3-1-2-4-3-5-1-2 4-4-14-3-31a517 517 0 001-49c-1-9 1-55 2-55h3c5 2 8-1 7-7 0-3 1-4 3-2l2 1 1 1c0 3 6 2 11 0 5-3 7-2 7 2 1 2 1 3 3 3l3 1-1 1c-2-1-5 1-5 3l-1 1-1 1 2 1c2-1 3 0 2 2h-5c-3 0-3 0-3 2v2l-1 2c0 2 4 6 7 6 2 0 2 1 2 4 0 4 1 5 7 4l2 1 1 1c1-1-3-10-5-10-3 0-1-4 3-4 4-1 4-1 4 2l1 2v4c-1 2 0 6 1 6l1-1c-1-2 3-9 4-10 2-1 4 0 4 3v3l1-3 2-5v-4l-1-1 3 1h1c2-2 4-1 10 4 6 6 6 10 0 12-3 0-4 4-1 4l2 2 3 1-1 1a3 3 0 000 6l4 1h-5c-5 0-6 0-7 2-1 3-1 3 1 3l1 2 2 2c3 0 5 2 3 3l-1 3c0 2-2 4-3 2l-2-1 3 3a9 9 0 013 9l3 4c3 3 3 3-8 3s-12-1-12-3l-1-5c-2-2-2-3 0-3l-1-2c-1-1-3-2-4-1-2 0-1 6 1 7v1l-2 2-1 1c-2 0-2-2-2-7l-1-1-1-1c-1-1-1-1-2 1v3l1 4c1 3 1 3 3 3h3v7c0 8-1 10-2 9-2-1-3-1-5 1l-5 1c-2 0-2 0 0 2 1 2 1 2-1 2a1 1 0 100 2l3-1c2 0 3 1 9 7l5 4 2 3 5 4 1-1v-2l1-4-1-4-1 1h-1v-1c2-1 10 0 12 2l6 3 4 1h15c4-1 5-3 3-5l-2-3c0-2 3-2 5 0l3 2c2 0 3 3 2 7v5l1 2c-1 3 1 2 2-1l2-2h13l11 2a7 7 0 01-5 5l-2 2-2 2c0 2 3 3 3 1l7-1c5 0 5 1 5 4a5 5 0 01-2 4h2a8 8 0 0113 2l1 1c3 0 3 2 1 4-3 3-4 3-3-1s-6-8-9-4l-2 1-6 6 4-2c6-3 8-2 8 3v4h5a26 26 0 0012-2c-2-2 2-5 6-5 3 0 6-2 6-4a5 5 0 00-7-1l-3 1c-2 3-8 2-8 0 1-1 0-2-2-4-3-1-5-4-3-3 3 1 9-2 9-5l-2-2-4-2c-1-3-8-4-11-2v1l1 1-4 1c-5-1-6-2-4-5h12l4-1h4l24 1h22c1 1 2 2 5 2 18 0 17 0 17 2 0 1 1 2 2 1v-1c-1-2 7-3 11-2h5c4-2 6-2 6-1s1 2 3 2c3 0 5 2 5 4l1 1 2-1c0-1 1-2 3-2l4-1h12c10 0 13-1 7-3-2-1-2-1 4-1l7 1-3 1c-1 0-2 0-1 1l22 2c3 0 4 0 4 2l-2 1-8 2 2 2c2 3 3 4 1 4l-3 2-4 1c-2 0-4 4-4 10 0 3-4 3-4 0 0-2 0-2-1-1 0 2-1 2-7 4-4 0-4 0-4-3l1-4c1-1 1-1-2-1l-3-1-2-1v1c5 4 1 9-4 7l-5-1-3-2v-2l-2-2c0-2-3-4-5-4l-3-2-4-2-4-1-4-1c-4 0-6-2-2-2 5 0-9-2-21-2l-14 1-3 1-1 1 3 1c9 0 15 1 16 2 2 1-3 3-9 2-4 0-8 2-6 3h1l3-1c3 0 3 1 0 5s-12 7-17 5h-2l-5 1c-5-1-5-1-5 2s0 3 2 2c9-2 11-2 10 2 0 3-2 5-2 3l-2-1h-2l2 1 2 2h1l2 1 3 1c2 0 3 3 2 5l-9 1h-7v-3c0-3 0-3-4-2l-4-1c1-1-7-3-15-3l-8 1 1 2c2 0 3 1 1 2-1 1-5-1-4-2 3-5-3-12-7-8-3 2-1 6 2 6 2 0 2 1 2 2v2l2 2-3 1v1c1 2 1 11-1 13-2 1-2 3-2 7 1 6-1 8-2 5-2-2-3-1-3 1l2 2c2 0 4 6 2 7-1 1-7-3-7-4l-1-1c-3 0-2 2 0 3l3 4 3 3 2 3c-2 1-1 4 1 6v1c-2 0-1 3 1 4 2 0 3 2 0 3v1c2 0 2 6 0 14v2h155l155-1h1l55 1h55v-5l1 2 1 3 1-4c2-4 4-5 4-3l2 3c1 1 1 1 1-1l1-11 1 8 1 8 1-4c0-6 1-8 3-8l1-1c0-1 1-1 1 1l4 2c2 0 3 0 3 5 0 6 2 7 2 1v-4l1 4c1 5 3 5 3 1l1-3v3c0 3 0 3 2 2l2-1 1 2 1-2h1c1 2 5 3 5 1h1c1 2 5 1 6-2 0-3-1-4-6-10l-2-3-2-4-5-7-3-4-4-2 2 3c4 4 4 6 1 5-7-1-7-2-8-4 0-1 0-2-2-2h-4c-2 0-1-4 1-4l1-1c0-2-6-4-7-3l-1 3c-2 2-4 1-2-2 1-2 1-2-1-2l-2 2c-2 5-6 2-6-4 0-3 0-4-1-3l-1 3v5h-4l1-1 1-1h-4c-2 2-3 1-3-1s0-2-4-1c-5 2-6 1-2-2 2-1 3-2 3-4l2-3 1-2 2-3c2-3 0-3-3 0-4 4-5 4-6 3-3-2-6 0-6 2 1 2 0 3-1 2-2 0-3 1-9 9l-15 15-2 2c0 2-4 6-5 5l-1 1c1 1 0 2-1 3h-2l-2-1 1 2v2c-2 3-3 2-2 0 0-2 0-2-1-1h-2c-2-1 0-5 4-9s6-2 2 2c-2 2-2 2 0 2l2 1-1-1c-1 0-1-1 1-2 1 0 3-2 3-4l4-5 2-3-4 3c-3 4-6 5-3 2 4-5-1-2-6 3l-7 7 2-5 1-1-4 3c-3 3-5 4-5 3v-2l5-4c2-5 2-4-4 2l-5 3v-1l10-12-4 3-6 6c-4 2 1-3 11-14l9-10-12 11-14 12c-1 0 1-3 8-9l17-19-4 3-22 22c-4 2-4 0 0-3l22-22-8 7-20 17c-2 0-1-2 7-8l30-30-13 11-5 4c-5 5-5 4 0-2 4-3 5-6 3-5l-22 19c-3 3-6 6-7 5l5-5 21-19 12-11 3-4-4 3-10 9-13 11-8 7-5 4-5 4c-2 0 6-8 14-14a123 123 0 0019-18l-3 3-3 2-4 3-24 20 13-12 9-8 7-6 3-4-2 1-3 1c-2-1-6 1-14 9a164 164 0 01-21 16h-1l1-2 3-2 22-18 9-9-4 2-5 4 4-5c9-8 8-9 0-2a32 32 0 01-8 6h-1c0-3-1-2-4 0l-3 2 1-2c3-1 3-3 0-2h-6l-3 1c-4 0-12 4-10 5l3-1 4-2v1l-5 4-3 3 4-2c6-3 7-3 2 0l-6 5-4 3-2 1a3 3 0 01-4 0l-1-1-2-1-5-3-6-3-2-1c-3-1-2-3 3-5 4-1 12-6 13-7l5-3a36 36 0 0010-6l25-17c10-7 19-19 11-15l-11 8-5 2 14-13 1 1v-1l7-9 1 3-1 2c-3-1-6 3-4 4 2 3 3 2 3 0v-1 4c0 2 0 2 3-1s4-3 5-2l4 2 3 2 14 9 4 3 5 4 14 9c0 2 4 1 4 0l1-2v3c-1 1 1 4 2 4l5 2 4 2c1-1-2-4-4-4l-1-1-2-1-2-1 2-1c1 0 1-1-1-3-7-6-10-8-11-7l-4-2-4-3-2-1c1-3-12-12-14-10-1 1-2 1-1-1 0-2-5-5-8-4l-2-1 1-1-3-3-4-3-2-1-1-1c0-2 3-2 4-1 0 1 2 3 4 3l6 4 6 5 6 3 10 7 9 5a63 63 0 0011 7l3 1 4-1c4 0 6-2 6-4-1-5 1-5 3 0 3 4 5 4 10-2 4-4 4-5 3-7-1-3-1-4 1-4l1-2c-1-3 2-3 4-1l7 6 10 7 7 5 1 3c1 1 1-10 1-24l-1-21c0 5 0 5-1 3l-2-2c-2 3 0 7 2 7 1-1 2 8 0 10v13l-2-1-9-6-5-4-7-6a145 145 0 01-13-10l-3-4c0-2 0-2-1-1h-1l-2-1c-2-1-3-6 0-6l1-6 2-5 2-3v-6c0-3-4-8-6-7-1 0 1 6 3 7 3 1 1 6-5 9-6 4-8 1-2-3 5-3 4-6-2-2h-4c-1-1 0-1 2-2 3-2 4-7 2-11v-5l2-5h-14c-1-1-1-1 1-1l2-1 6-2c8 0 12-1 11-3l1-1 2 7c-1 3 0 5 2 4l1-1 5 4 7 6 4 3a2 2 0 011 3c-2 0 5 7 11 11 5 3 8 6 9 9v-10c0-4 0-5-1-4-1 3-3 2-6-1l-6-5-4-3c0-1-2-3-5-4l-5-3-4-5-4-3v-9l1-17c0-6 0-7 2-7s2 0 2-4v-4h-1c-3 0-5-3-3-6v-2l-1-14 1-13-4-3-3-2v2a5 5 0 01-2 7c3 0 5 10 3 24v7h-4c-3 0-3 0-3 2l1 4c0 3 4 2 4-1 1-1 1 0 1 2 0 5 0 5-1 3-2-1-2-1-3 5l-1 6-3-2c-2-3-3-3-9-3l-7-1a1 1 0 10-3 0c-1 3-3 1-3-4-1-5 0-6 4-4h10c7-2 7-2 5-3l-2-2h5l1-1c0-1-6-2-17-2a23 23 0 01-12-2c0-2 4-4 9-4 13 0 18 0 14-1h-13c-11 0-11 0-8-4l2-4c0-4 3-8 7-8 2 0 3 0 4 5 1 9 7 9 8 0 0-7 0-6 2-9s3-6 3-20c1-7 1-9 4-15l4-9c0-2 2-4 6-5l5-2h4l2 1c1 0 1 3-1 3-2 1-1 5 2 6 3 0 3 0 3-3v-3c1 0 3 2 3 5 1 8 1 8-2 7-7 0-8 5-2 8l4 2c1 2 11 8 14 9l3 1v25c-1 32-1 29-3 31v5l1 7v25a6 6 0 010 6v3l1 4 1-5 1-90v-85l-2 1-4 1c-1 1-12 3-13 2l5-2c6-1 9-3 3-3a4 4 0 01-6-2l-1 1-1 1 1-6v-3l1-1v-6l1-6c1 0 2 2 1 5l1 3 1-2c0-1 1-2 3-2 3 0 4-2 2-4-3-2 0-3 3-1 6 3 5-2-1-6l-8-6-10-6c-5-3-6-4-4-6 1-1 1-1-1-1a11 11 0 01-8-10l-1-8 2 2 2 1v3c0 2 0 3 2 4 2 0 3 1 3 2 0 3 13 5 14 2 1-2-2-3-4-1s-2 2-6-1l-2-4 1 1c0 2 7 1 9-1l4-2 3-2c0-2 1-2 3-1 1 1 2 1 3-1 4-3 4 0 0 4s-4 7 0 7c2 0 3-1 3-3V99l-2 2-3 2 1-5 2-8c0-3 2-3 2 0l1-20-1-21h-1v-1l-1-2v-1c1 1 2 0 2-1V0H456L3 1m135 2l2 1c2 0 2 1 2 5s1 6 2 3l2 2 3 3v-1l3-2h3v12c2 1 3-2 2-7v-4l5-2a13 13 0 007-6c2 0 1 3-3 7-3 3-4 4-3 6 1 1 1 1-1 3l-2 2v3c2 2 4 3 4 1a2 2 0 113 2c-1 1-1 1 1 1 2 1 4 0 4-2l2-3c2-3 1-5-3-5-3 0-4-1-1-2v-3c-3-1-2-3 1-3l3-1 1-1 1-3-2-4-3-1a2 2 0 00-3-1c0 2-2 2-2 0-1-1-28-2-28 0m307 0l8 1c6 0 7 0 7 2l-1 2h2l4 1h2c2-2 3-1 2 3 0 4 0 4 3 4l4-1h1c0 2 3 4 5 4l1-1 1-2c1 0 2 3 1 5a3 3 0 104-1c-2-3 0-4 2-1l3 2 2-2 2-2-9-5-11-7-3-3h-16l-14 1m35 0l1 1 5 3 4 3 14 9 4 2 5 3 3 1c1-1 4 0 4 1l-2 1c-1 0-3 1-3 3l-2 2-1 2c0 2 0 2 6 2l4 2c1 2 2 2 3 0 1-3 2-3 6 1 2 2 3 3 4 2l-1-2c-2 0-3-4-1-4l4 4c3 3 3 3 1 3h-1l-2 3c-1 1-2 2-3 1 0-1-1-1-2 1l-4 1c-3-2-7 4-4 6s6 0 4-3l-1-2 2 1c2 2 4 3 6 1 1-2 6-2 6-1h5c2 0 2 0 2-2-1-2-5-3-5-1l-1 1c-3 0-2-1 0-3s3-2 8 0c9 5 21 9 31 12 26 6 34 7 38 4 2-1-2-2-8-2l-14-2-12-2-27-9c-7-2-15-7-18-9-2-2-5-3-7-3l-7-1-2-1 2-1 6-1 2-2c0-2 0-2-2-1-4 1-9 0-9-2 0-3 1-3 4-1h5l-15-9-9-6-5-3-3-2c-3-2-20-3-18-1m191 2c-2 4 0 11 3 13l3 3 1 3-1-3v-5c0-3-1-3-3-3-3 0-3-1 0-4s3-7 0-7l-3 3m38-2l1 2 2 3c1 0 2 1 1 2l2 1 3 1 1 1 2 1a5 5 0 009-1c1-1 2-5 0-5l-1-1-1-2-1-1-10-1h-8m26 0l-1 1c1 0 2 1 1 2l1 2s3 1 5 4c5 5 6 5 9 1 2-3 6-4 6-2l-1 1-2 1 7 1c1 0 2 1 2 3s0 2-2 2c-3-2-13-2-15-1s3 2 9 2h13l3-1c2 0 2 0 1-2-2-1-2-1 2-1 4 1 8 0 15-6 4-3 10-5 7-2l-11 8c-2 1-2 1 0 2 2 0 2 0 0 2-1 2-1 4 2 4l1 1 2 3 1 2 2 3h1v-2l1 3 1 2v2c0 3-3 5-3 2h-1l-2 20c0 21 0 24 4 22l9-2c8 0 8-1 9-9 0-7 0-7-3-10-2-2-2-2 0-2l3 2c1 3 3 2 2-1 0-2 0-3 2-3v-1l-2 1c-1 2-5 1-5 0l-1-2c-2 0-5-4-4-5s0-2-1-3c-3-2-3-2-5-1-1 1-5 0-5-1l2-1c2 0 3-1 3-4 0-5 3-6 3-2l1 3v-5c0-3 0-4 2-4l1 4c0 4 4 8 7 8a5 5 0 015 5h2l1 1 4 2c5 2 8 3 7 0-1-1 4-1 7 1l3 1h1c-1 1 0 2 1 2l2-2 2-1c1 1 2 0 3-2 2-3 3-4 6-5 4-1 5-2 5-3l2-3c4-1 2-5-3-5a4 4 0 01-3-7l1-1 1-1-1-2-1 2h-4l-3-2-5-2c-3-2-4-3-4-1l-1 1-1-4c0-3-3-3-6 1-2 2-8 3-7 0l1-3c0-2 2-2 6-1h2l-3-2c-2 0-4-2-6-4l-6-4-3-1c-1-3-12-2-15 0-2 2-4 3-4 1l-2-2h-60M195 6c-4 2-5 3-5 5 0 3 0 3 3 2l2 1c0 3 2 2 3-1 2-3 3-10 3-10l-6 3m611-2l1 2v4l1 3c-1 5 0 5 4 5h4v-6c0-7-1-8-5-7l-3-1h-2M95 6c-1 2 0 2 1 2l2 2-1 1c-3-1-5 2-4 7 0 2 3 1 3 0 0-3 3-2 4 2v5c-2 2-2 2 0 5 3 5 4 5 5 0 3-8 1-18-2-20l-4-3c-2-2-3-2-4-1m484 1l-1 4-1 4a5 5 0 00-1 4l5-1c4 0 5-1 3-2s-2-4-1-6V8l-1-1V6c-1-1-2 0-3 1M33 12l4 1 2 2 2 2c2-1 4 6 4 11l1 4a10 10 0 000-11l-1-4-2-3c0-1-1-2-7-3-4-1-4-1-3 1m87 8c-1 2-1 2 1 1s5 0 5 1l-2 2-1 1h2c1-1 1-1 2 1l2 2c2 0 3-3 0-4v-1c2 0 1-2-1-2l-2-1c-1-2-6-2-6 0m640 3h-14c-17 0-18 0-15 4l3 2 2 2 1 1c1 0 2-1 1-2 0-2 1-3 4-1l2 1c1-1 32-2 35-1l2-1c0-3-13-7-17-5h-4M2 25c-4 4 7 11 14 8L5 23l-3 2m189-1h-4c-2 0-2 0-2 3v3l-1 4c0 3 3 5 5 2l-2-1-2-1 1-1c2 0 6-6 6-8s-1-2-1-1m31 2c-3 2-3 2-3 0 0-3-2-2-3 1a2 2 0 003 2c2 1 10-4 9-5 0-2-2-1-6 2m250 4v2c1 1 0 5-2 5s-2 1-1 5c0 4 3 4 3-1 0-2 0-3 2-5l2-2 2-3c2-2 2-2-1-2-5-1-5-1-5 1m203-1c-1 1-3 2-4 1-1 0-4 2-4 4l1-1c2-2 4-1 4 1 0 1 0 2 1 1h3c2-1 3-5 1-6h-2m-395 5l-1 3-1 2v3c-2 2-3 6-1 6l1 3 1 4c3 2 3-1 2-6v-8c0-2 1-3 8-4 10-1 10-1 0-2l-8-2c-1-1-1-1-1 1m104-1c-5 0-8 1-9 2h18v-3l-9 1m111 1l-3 4-2 1c0 2 3 2 4 1 1-2 8-2 9-1 1 2 1 2-1 3-2 0-3 2-2 5h2l2 1 3-1 6-4c5-1-2-6-9-6l-3-3c-3-3-4-3-6 0m279 0h-16c-15 0-17 1-17 4a2 2 0 11-3 0c0-3-5-4-6-1h-6c-2-2-2-2-5 0-3 1-2 1 2 1l4 1 5 1 4 1h-9a49 49 0 00-15 1l-1 2-1 3c1 0-3 3-7 4l-2 3-2 4-3 5-1-2-1-3-4 24v6h3c3-1 3 0 4 2 1 3 1 3-4 5-4 2-4 2-4 14 0 4 0 5 2 5 4 0 8 1 8 3 1 2 1 2 9 1h11c33 0 61-1 63-3 2-1 0-7-2-8s-4 2-2 3c1 2 1 4-1 2s-1-7 2-8c3 0 4-2 3-9l-1-5h-8l-9 2c-3 1-8 0-9-2-1-4 7-8 8-4 2 3 2 0 2-7s0-7 5-4c3 1 3 1 4-1 0-2-1-2-5-2h-3V60h14l1-6c0-12 0-12-2-12l-26-1-1-1 8-1c19 0 21 0 21-3l-2-2-1 1-1 2-1-2c0-2-1-3-2-1m102 3l-3 1c-3 0-4 2-1 4l2 4c1 1 1 0 1-2 0-3 2-6 4-6s3-1 3-2-5-1-6 1m22 3l2 4 2 4c-1 3 1 5 2 2a6 6 0 000-8l-2-2h-4m-288 1l-1 1c-2 0-5 4-4 5a5 5 0 0010-6h-5M99 50l-2 1-3 1-6 2-8 2c-3 0-3 0-3-2s-2-4-3-2c-1 1 3 6 5 6l1 2 1 1 1 1c0 2 12 4 14 3v-5l3-8 1-4-1 2m99-1l-2 1 3 2 3 2c-2 0-4 3-2 4 1 2-1 11-4 13s-20 0-20-2l-2-3-5-6a21 21 0 00-8-6l-2-2v2l2 2 2 1 2 3c2 2 1 5-1 4l-2 1 2 4c1 3 4 4 4 2l2-1a1 1 0 100-3c-2 0-2-2-1-2 2 0 4 3 5 8l1 6v4l1 5-1 3c-3 3-4 5-2 5l5-4c4-5 4-5 3-8-3-8-2-9 4-9 9-2 14 3 6 6-5 2-7 4-4 4l4 1h2c0 2 3 2 6 0 2-2 2-2 5-1h4l1-1 3-1c1-2 1-2-1-2-3 0-4-1-2-3 1-1 1-1-1-1-2-1-2-4-1-5v-1c-4 0-5-9-1-12s-2-12-8-10m470 1v9c-1 1-6 1-7-1-3-2-4-2-3 1l-1 2-1 3 2 2 1-1 3-1 2 2 2 2c2 1 2 1 2-1l3-1c4 2 4 2 5 0l-1-2-2-1h7l-1-4c0-5-1-6-2-6l-2-2-2-2h-3c0-2-2-1-2 1M43 59v5c-1 1 2 1 9-1l2 2 3 2c2 0 2 0 1-1l-1-2v-1l-1-1c1-2-3-3-6-2-1 1-2 1-2-1h-5m590 0l-1 3c0 2-4 4-5 3-2-1-4-1-4 1-1 1 0 1 1 2 2 0 2 1 1 3 0 2 0 2 2 2s2 0 2-3c-1-2-1-2 1-1 3 0 3 0 4-4a7 7 0 012-5c1-2-1-3-3-1m-68 3v1l-2 1h9c14 0 15 0 12-3h-12l-7 1m170 4v19l1-4c0-6 6-13 9-10 2 1 4 1 3-1-2-4-11-6-13-4m-412 1c-12 1 0 2 14 2l21-1 8-1h-43m251 1l-5 1c-3 0-4 1-3 4 0 2 3 2 6-1s2-1-2 4a18 18 0 01-5 5c0 2 3 1 3-1l6-3c11-1 11-1 12-5v-3h-5l-5-1h-2m105 0l-1 3c0 2-4 6-6 6l-2 1h3c3 0 5 2 5 5s0 3-2 2c-3 0-3 0-4 2-2 7-2 8 1 9 4 2 4 2 3 6-2 4-4 4-4 1 0-4-4-4-7 0l-3 1c-2-2-4-1-8 2-4 4-5 4-5 2l1-1c3 0 4-2 3-6 0-3-1-4-2-4h-1c0-2-4-1-4 1-2 3 0 8 2 5 1-1 1-1 1 1s-2 3-3 1h-3c0 2-7 8-9 8-3-1-7 2-5 4l3 2 2 1c2 2-3 3-8 1-2-1-2-1-2 1 0 3 2 4 8 4 6 1 8 1 8 4 0 2-2 3-4 2l-2-1c-1 1-2 0-3-1-1-3-3-3-7 0-3 2-4 7-2 7l2 2c1 1 0 1-1 1h-3l-1-2c0-5-1-8-3-8 0 1-2 0-3-2-4-3-10-2-10 3 0 2 0 3 3 2 5 0 7 2 4 3-4 1-4 4-1 7 2 2 3 7 1 7h-2l-2 1-2 1c-2 0-2 1 0 4 2 2 4 3 4 0l2-2c1-1 2 0 2 1s0 2 2 2l2 3 1-1c0-1 1-2 3-2 3 1 6 3 3 3-2 0-6 6-5 7l2-1c1-3 6-5 7-3h6v-6c-2-8-2-10 3-8l3 1 1 1-2 1-2 1 4 7 1 2c-1 2 3 3 4 0 0-2 0-2 1-1 2 2 6 3 10 3 7 0 1 2-5 2-7 0-7 1-7 2 0 3 5 5 6 3l7-1 8-1c2-1 4 0 5 3l1 3v2c3 2 2 7-2 9s-4 2 0 4l4 2h-3l-3 1-2 1c-3 1-8-6-6-9s1-3-3-2c-3 2-5 3-3 1 1-1 1-1-1-1s-3 1-3 4l-2 4c-1 1 0 1 2 1l3-1 1-1 2 2c0 2 4 4 7 4l2 2c0 2 0 2 1 1s2-2 3-1c1 0 2 0 3-2 0-3 3-3 3 0 0 2 0 2 3 1l4-2c4-2 8-5 7-7h1c3 3 14-2 14-6 0-2 0-2 2-2l5 1c2 0 2 1 2 3 0 3 0 4 3 5 7 1 10 2 10 4l4 3 5-5c-1-1 2-5 4-5 1 1 2 0 4-1l2-2h-2l-7-1c-7-1-7-1-2-2h10l10-2c8 0 10-1 10-3l2-4c1-3 1-3-2-3a2925 2925 0 01-31-1c-5 0-7-2-6-4l25-1c22 0 29-1 29-3l2-1 4-1 3-2 2-2 2-1 2 3 3 2 3 1c2 0 4 3 5 6s5 4 9 2h8c4 0 6-1 3-3l-1-2c1-3-1-5-3-5v3c2 3 2 3-4-1l-3-3c3-2-1-3-6-3-7 1-9-1-4-7l2-4c0-2 4-5 7-4 2 0 2 0 2-2v-2c2-1 1-2-6-7l-3-2-4-3-3-2 2-2 3-1c0 2 4 5 4 4l-2-5c-2-4-1-8 1-6v1c-1 1-1 2 3 10 1 3 4 4 3 1v-2l1 3 3 4v-8l-2-2v-2c0-2 2-2 2-1 0 2 6 4 6 3 1-1 1 1 1 3l1 12c1 3 7 3 7 1l2-2c2 2 2-8 1-30V90l-2-5c0-3-1-3-3-3l-4-1c-2-2-1 9 1 12v2l-2-2c-1-3-5-7-6-6l-3-2c-1-3-2-3-5-2h-6a8 8 0 004 12l3 2 3 3c0 2 0 2-5-1l-6-2 3 3a3 3 0 010 5l-1-1-3-1c-1-2-4-1-4 1l-1 2v-3l-1-4c-2-2-5-2-3 0l-2 2-1 3c1 2 0 6-2 6s-4 3-4 5l-1 6v6l-1 11c1 9 1 10-1 11l-25 1-28 1-3-1c0-1 1-2 3-2 3-1 3-1 2-2-4-1-5-3-4-6v-4c-1-2-3-2-3 1 0 2 0 2-1 1s-2-3-1-4c0-3-4-5-10-6-6 0-8 1-4 3 3 1 7 7 5 6s-3 1-3 5c0 2-1 4-3 5l-2 2 5-1 6 1c1 1 0 2-10 2-9 1-9 1-9-1v-5a2 2 0 113-1c-2 1-1 2 2 2 2 0 3 0 3-2v-4c0-2 0-2-4-2-5 0-8-3-5-5h3c0 2 2 3 4 2 3 0 3-2 0-2l-3-3c-1-1-1-2-3-1l-2-1 8-1 9-1c0-3-3-5-10-5-5 1-6 0-7-1-1-5-5-2-7 6-2 5-2 5-3 3v-4l-1-2h-1l1-2 1-1-2 1h-15a40 40 0 00-17 1c-2 0-3 1 0 3 2 2 1 3-2 3l-4 1c-1 2-2 0-1-2l-1-3-2-1-2-2c-3 0-2-2 1-3l2-2 2 1c1 2 17 3 24 2h4l5-2h2c0 1 5 2 6 0v-5c-1-4-1-4-1-1 0 5-2 3-2-3l-2-6-1-3 1-4c1 0 2-3 2-14 0-14 0-16-4-13m-154 3c-5 1-4 3 0 4l6 2c2 3 8 1 8-3 1-4-6-5-14-3M86 76l-4 4c-3 0-4 3-1 5l3 3 4 3c2 0 3 1 4 3 1 4 4 4 4 0 0-2 1-3 2-3l1-2-1-1-2 2c0 1-4 2-5 0l1-3c2-1 2-2 1-4v-2c2-1 2-1-3-2h-2a1 1 0 01-2 0c0-1 5-3 8-3h2l-2-2c-4-3-4-3-8 2m54-2l1 2 3 2c2 2 3 3 3 1 0-3 2-3 4-1 3 1 4 4 2 4l-1 1c1 2 5-3 5-5s-1-3-6-3l-8-2c-2-1-2-1-3 1m243-1h-9c-8 1-12 2-9 4l3-1h2v1c-3 0-2 2 0 2 1 1 0 1-2 1-8 0-2 2 7 2 8 0 9 0 9-2l1-5c0-3-1-4-2-2m331 2c1 1 0 1-1 2-2 1-6 7-5 8l4-3c3-3 6-4 8-2 1 2 3 0 3-2s-4-5-7-5c-2 0-2 0-2 2m-381 0l2 1 1 1-2 1-4-2-2 1 2 1c2 0 2 1 2 3s0 2 3 2l5-1v-1c-1-2 1-5 3-5l1-1-6-1c-4 0-6 0-5 1m297 1c-5 2-4 5 1 4 4 0 4 0 3 2-3 4 3 6 13 4 3 0 4 0 3-2l1-3c1-2-4-3-12-3-4 0-5-1-6-3l-3 1M15 78l3 2 2 2c-1 1 0 2 1 4l3 3c1 2 4 2 5-1 0-1 0-2-2-2l-3-3c-1-4-9-8-9-5m152 0l-2 4c-2 0-3 2-3 3l-1 2 1 3c2 2 7 4 7 2l-1-1c-3 0-3-2-1-5l1-6c0-4-1-6-1-2m379 4l2 3c1 1 1 1-1 1s-3 0-3-2l-4-1c-3 0-4 1-4 2l-2 2-3 1 3 2 2 3h-1l-4-1-4-2c-1-2-4 0-4 4 0 3 0 3 2 2h6c3 0 5 0 7-3 2-1 3-2 4-1 3 0 2 2 0 2-1-1-2 0-3 1-2 4-1 5 5 6 4 0 5 2 3 3l-1 1c0 1 3 1 5-1l4-1c3 1 4 0 2-3l-1-5c1-2-1-3-3-2h-4l-2-1h9c4 0 4 0 4-2-1-1 0-3 1-4l1-2c-1-1-4 1-4 3l-2 1h-1c0-1-2-4-4-3l-1-1-1-2h-3m309 6l-3 4-2 2c-3 2-7 0-8-4s-1-4-3-3c-1 2-1 12 1 14v8l1 6 6-9-5-5 3-3c4-2 11-3 11-2s5 2 6 1c2 0 2 0 0-2-2-1-2-2-1-4 3-6-1-8-6-3m-742-1l-1 3-3 4c-2 3-2 3-1 5v3c-1 2 0 2 3 2l7 1c2 1 3-4 1-7-2-2-4-3-4-1 0 4-2-1-2-5 0-3 1-4 2-4v-1h-2m271-1l-30 2c-6 0-6 0-3 1l4 1-5 1-6 1h-5c-3-1-3-1-1-2 1-1 1-2-3-2-5-1-7 0-7 2l-1 3c-4 2 3 5 10 5 4 0 5 1 3 2l-1 14-1 13c-2 2-2 10-1 9v2h-3l1 3a2 2 0 003-1c0-2 5-3 8-2 2 1 3 3 0 3l-3 3c-2 3-3 3-2-1a1 1 0 10-3 0l-1 1v7c-2 5-4 4-3-3 0-5-1-8-4-8-1 0-4 6-4 10l-1 2-1-8 1-8h10l-1-4-1-4v-1l-2-3c-2-2-2-2-3 0s-7 3-9 2c-3-2-4 2-4 17 1 13 1 17 3 14l4-1c2 0 4 0 5-2 4-4 5-4 5 0s-1 6-3 3-4 0-3 4c0 4 0 4-2 4s-2-1-2-3c0-4-2-4-3 0l-2 2c-2-1-2 22-1 28v6c4 0 2 2-3 3-10 2-41 1-48-3l-9-2-10-1-6-2-4-3-6-3-9-2c-5-1-5-1-3-2 3-1 4-1 5 1h5a2 2 0 003-1l-1-2 1-2 1 2c0 3 3 4 4 2h2c3 4 10-1 10-6l1-1-2-7-5-8-3-5-4-8c-1-4-2-5-3-3-1 1-1 1 0 0a27 27 0 00-6-16l-2-3c-1-1-1-1-1 3v1l-2-2-1-1-2-5c-2-5-4-3-4 2 0 3 0 4-2 4s-4-2-4-4-1-2-4-2a5 5 0 00-5 2c-2-2-1-4 2-4 1 0 2 0 1-1h-1l-1-1-7-1c-7 0-7 0-6 2 2 2 1 5-1 5l-2 4c0 1 0 2-1 1l-2-1c-3 0-5-2-5-5 0-5-4-8-6-4l-2 1c-2 0-4 3-3 6 0 2 2 3 2 1l1 4-1 4c0-2-1-3-2-3l-1-3-1-1c-1 0-5 5-5 7l-2 1c-3 0-3 0 1-5a18 18 0 006-7c2-3-2-9-5-7-2 1-1 4 1 3l1 2c0 1-2 3-4 3l-1-2-4-5c-5-3-5-3 1-4l6-1a2 2 0 012-1l-18-1c-2 1-1 2 2 4l-1 1-4-2c-1-2-2-2-3-1h-2c-2-1-3 0-1 2 1 1 1 1-1 4l-2 5-1 2-1 1-2 6-5 9-6 9-6 12c1 1 0 1-1 1-3 0-3 2 0 5 2 2 2 2 11-7l9-9c2 0 1 3-1 4l-2 3c0 1-1 3-3 3-5 4-7 7-4 7 2 0 5 4 4 5l-2-1c-1-1-2 0-5 3l-4 4h3l6-3 4-4 3-2 5-4 4-3h-3c0-1 3-4 3-2l2-4c0-3-5 0-11 8-3 4-5 5-6 3v-3a11 11 0 007-8c0 1 2 0 3-2l4-2 1-1a15 15 0 018-8l7-8c3 0 0 4-5 10l-7 8c0 3 2 3 3 1l3-2c1 0 2-1 2-3 0-3 5-9 5-7l2-1c3-4 6-4 9-1 2 2 2 4-1 2-2-1-6 1-6 3l-3 3c-3 1-3 1-2 2h4c2-1 2 0 3 3s1 4-1 4v6l1 2c1-1 1 0 1 3v3l1-9a13 13 0 014-12l1-1v-1c-1-1-2-2-1-3 1-2 4 0 4 2l1 2 6 4 4 4 2 3 3 4 4 4 8 6 5 3 2 2 5 3c5 0 3 1-7 1-13 1-19 2-19 3a32 32 0 0013 14l6 5c2 3 6 6 9 7l4 4c0 1 6 2 13 2a4617 4617 0 0159 0c14 0 25-1 26-2l4-2 6-5 3-2 7-5 9-8 14-13c8-10 8-12-1-3l-3 3-4 2-3 1 4-3 2-3c0-2 1-3 2-3 1 1 8-5 8-6 0-2-5-1-6 1-2 2-3 1-3-2s1-3 3-3c5 0 9-1 9-3 0-1-3-2-9-1l-2-1a1 1 0 10-2 0c0 1-1 2-5 2s-5-1-5-3c0-4 3-5 9-4 8 2 15 1 16-1l2-2c2 0 1-2-1-2v-1c2 0 3-4 1-7l-1-6 1-2 2 2c2 2 2 2 3 1l1 6v9l-1 4c1 2 0 3-1 5-1 1-1 1-1-1 1-2 0-3-1-4s-1-1-1 2l-1 4c-2 1-1 6 1 8 3 2 2 21-1 21-1 0-4 8-3 9 1 2 12 1 14 0l4-4c2-2 2-2 1-4-2-4-1-7 2-8s4-3 2-3-2-1-1-3c1-1 1-1 2 1 0 3 2 3 4 0 2-2 2-3 1-4v-2l2-4v-5c1-2 0-4-1-5-2-2-2-3-1-3l1-3v-3c4-3 3-27-1-29l-1-1 1-1a2 2 0 100-4l-1-3c0-2 0-2 2-1 2 3 3 1 2-5-1-4-2-5-3-5l-2-2-1-4c0-2 0-2 3-2 2 0 2 0 1-1v-2c3-1 6 1 4 2-1 1 3 1 12 1l14-1h5l2-3 2-2-8 1h-35l2-2c1-2 1-2-1-2l-5-1h-2m274 6l1 6 3 1 2-1 2-2v-3l-2-5c0-1-1-2-3-2h-3v6m-94-4c-1 1-3 38-1 38s3-3 3-5v-2l3-2 2-1c1 0 2-1 3-5 2-6 2-8 0-3-2 7-5 4-5-6l-2-7c-2-1-2-7-1-7h-2m16 0v13l2 3v3c-3 1-3 6-1 9 2 2 2 3 1 6l-1 6a10 10 0 01-9 9l1 1 2 3c1 3 1 3-1 3s-3 2-2 4v1c-2 1-2 1-3-3-1-5-4-5-5 0 0 3-1 4-2 4l-1 3c1 2 0 3-1 5-2 1-2 2-1 2 2 0 3 19 2 20l2 4c2 0 6-5 5-6-2-2-2-13 0-15l1-2c-1-1 0-2 1-2l1-3c0-2 5-6 9-6 2 0 3 0 3 2h-2c-4 0-9 4-9 7 1 1 0 4-1 5-2 3-2 6 0 6l1-2c1-3 3-3 3 0 1 4 1 5-1 5l-2 2-1 4c-2 1 0 5 2 4l-1 1-3 3c-1 2 1 3 2 2l4-1c4 0 7-2 7-3l1-1c2 0 3-3 2-5 0-2 0-2-3-1-3 3-4 2-4 0l-1-2 2-1c2 0 3-1 3-3a19 19 0 010-4l1-1c5 0 6-21 1-22l-2-4c0-4 2-4 2 0 1 5 5 4 5-1 0-4-1-4-3-4-3 0-3 0-3-3 0-2 0-2 2-1 2 0 3-4 1-9v-3l1-13c0-13-1-14-3-14s-3-2-1-4v-1h-3m160 5l-2 2-12 1h-12c-1 1 2 4 5 5l5 3c0 2 2 2 7 1l8-1v-2l-2-4c0-2 3-2 3-1 1 3 7 5 8 4 2-1 9 0 10 1h4c6 0 7-1 7-2h-4c-5 2-12-1-12-4 1-2 1-2-2-2h-6c-2-2-2-2-5-1m-375 5c-2 1-2 2 0 8v16c0 10 0 14 3 14l3-2h1l1 2v-8c1-1 2-4 1-6v-9l1-8v-1l1-3c0-3 0-4-5-4l-6 1M1 102l1 2v1l-1 3c0 3 0 4 3 3 2 0 3-1 3-3l1-2c2 0 1-3-1-4-4-3-6-2-6 0m181 2l-1 1v1c-1 2 1 3 7 3 4 0 4 0-2 1h-9c-2 0-13 2-12 4h2l20-1c32 0 33 0 32-1 0-1-4-2-9-2l-9-1c-1-1 1-1 6-2h9c10 0 2-2-11-2l-10-1-5-1-8 1m368 4c0 4-1 4-4 2-2-3-3-3-2 1l1 2 1 2 1 2 1 2c-1 2 0 4 1 5l1 4c-1 2 3 5 5 4l1-2v-11c2-1 2-10 0-11-2-2-6-2-6 0m270 0c-2 4 0 7 3 5h1l2 1 2 3 1 3 3 2c1 2 1 2 2-1 1-5 0-8-2-8s-4-2-3-3l3 1c3 2 4 1 3-1 0-2-6-4-7-2h-4c-3-2-3-2-4 0m-494 2c-2 2-2 3 0 3l1 4 1 3c1 0 2-1 2-4 0-8-2-10-4-6m-99 1c-2 1 2 17 7 26l4 9 9 19c2 4 8 10 9 10l2 2 3 3c2 0 1-1-1-4l-2-4-1-3-2-2h2c2 1 1-1-3-8l-11-19c-2-6-2-6-3-3l-1 1-2-6-5-13c-3-8-3-9-5-8m313 7v2l-1 2-3 4a1 1 0 11-2-2c2 0-1-2-3-1s-1 14 1 15h3l1 2c-1 1 0 1 4 1a10 10 0 016 2v-1a2 2 0 113-2c0 2 6 5 7 3h3c2 0 2 0 1-1l-3-1a2 2 0 11-2-3c2 0 1-3-2-3l-3-2-3-4-2-5c1-5-3-9-5-6m219 2l-5 1 2 2 4 2 11-1c10 0 11 0 11-2v-2h-23m-23 1h-6c-4 0-9 3-8 5l2-1h17c5 0 4-2-3-5l-2 1m-249 4l3 2 1 1 3 2 3-1h3l-1 1v2c2 2 1 3-2 3-3 1-3 1-2 2h3c3-1 4 0 3 3l1 2c3 0 4-4 1-6-2-1-2-6 0-7s-3-3-7-4l-5-1c-3-1-4-1-4 1m168 1c0 2 4 4 7 3 2-1 3 0 4 1 0 3 2 3 3 0 0-2 1-2 7-1 6 0 7 0 7-2v-1h-25l-1-1c-2-1-2 0-2 1m-533 2l-2 2c-1-1-4 0-4 2l3 2c4 1 5 0 5-3l1-3c0-3-2-2-3 0m179-1l-2 2-2 1-2-1c0-2-7-2-8 0l-2 1-2 1 1 5 1-2c0-3 5-5 7-3h5c5 0 8 2 5 4-2 2 0 4 3 2 4-3 0-11-4-10m264 2l-1 3-1 2c-2 4-1 5 2 5 4-2 5-3 4-7-1-5-2-6-4-3m188-1a8 8 0 002 10c0 3 2 3 4 2 4-2 4-2 1-4-2-1-3-2-4-1-2 2-2 1 0-2l3-2 4-2 3-2h-6l-7 1m20 1l3 3 3 1c1 3 3 1 3-3v-3h-11l2 2m-600 2a6 6 0 013 6c1-1 1-1 1 3 0 3 0 4 2 4s2-8-1-10l-1-4c1-2 1-2-3-2h-4l3 3m234 0v1c-1-2-2-1-2 2-1 1 0 2 1 2l1 2c0 2 0 3 1 2l3 2c2 2 2 2-2 2s-4 0-3-3c0-3-1-5-2-3v7l-1 8c-2 3-1 5 2 4h2c2 2 4 1 4-1l3-2 7-1 1-2c1-2 1-2-2-3-5-1-6-2-6-7l-1-5-1-3-1-2-2-2c-2-1-2-1-2 2m333-2c0 1 2 3 4 3a2 2 0 013 2c0 2 0 2-2 2s-2 0-2 3 0 4-3 6l-2 3h5c6 0 7-1 7-6 0-3-3-4-4-1l-1 1c-1 0 2-5 4-6l1-5v-3h-5l-5 1m-316 1l-2 1a3 3 0 10-1 5l-2 3c-5 5-2 9 4 6l3-1-2-3c-2-2-2-2-1-3l1-1 2-3 1-3c-1-2-3-3-3-1m-365 4l2 4 3 4 1 4 2 4 1 2 1 2 2 2 1 2 1 2c1 0 0-7-2-10l-2-4-1-2c-2 0-2-1-2-4s-1-4-4-7c-2-1-2-1-3 1m612 0l-4 2-3 1h3c3 0 5 2 4 4 0 2-1 2-4 1-4 0-11 1-11 3l2 1 3 1 2 1 6 2c3 2 6 2 6 0l-1-1-2-2c-1-2 0-3 2-2h2l-2-2v-9c-2-2-2-2-3 0m-290 4c-2 1-3 5-2 6l1 4c0 2 2 4 3 4l1-4 1-5c2 0 1-5-1-5h-3m-213 0c0 2 3 6 5 8l3 4 7 10 15 15 2 1c1-1 5 2 5 4l3 1h5c4 1 4 0 1-3-2-2-2-2-3-1-2 1-4 1-4-1v-1c1 1 2 0 3-1 1-2 0-6-1-6l-1-3c0-3-1-4-3-5h-1c2 2 1 4-1 3l-2 1-2 2v3l-3-1c-3 0-8-8-7-10s0-3-2-3c-6 0-8-5-2-6 4 0 6-2 4-3-1-1-2-1-1-2 0 0 0-2-2-3-2-3-2-3-2-1l1 2c3 0 0 2-4 2h-6c0-2-4-6-6-6h-1m584 6v4h7l6-1-1-1-2-1-4-2c-2 0-3-1-3-2-1-4-3-2-3 3m27-3l-3 2c-1-1-8 3-7 4l6 1h7v-5c0-4-1-5-3-2m100-1c-1 4 0 18 1 18s2-7 1-15c-1-3-2-5-2-3m-573 5l-1 4c-2 1-1 7 0 7l3-5v-8l-2 2m309-1a3 3 0 010 4l-1 2 2-1c0-2 2-1 2 1s5 4 6 2h3c3 0 5-3 3-6-1-2-1-2-2 0s-4 2-4-1l-2-1-2 1h-2l-3-2v1m-159 3c-2 3-1 4 2 2h8c0-5-8-6-10-2m87-1v2l2 4v4c0 3 4 5 7 5 2-1 3-5 1-5l-2-3c0-1 1-1 3 1 3 3 4 4 4 2l-1-2-1-2c0-3-4-6-5-5h-3c-3-2-4-2-5-1m314 5c-2 2-4 7-2 7l1-2c1-1 1-1 2 1v3c-1 1 0 3 1 3l1-1 1-2c2 0 2-3 0-6l-2-4-2 1m-157 12c-1 0-2 1-2 4s0 3 2 2l10 1a4 4 0 10-2-7h-8m-396 1l1 2c2 3 0 5-3 6l-4 2c0 2 1 2 2 1h5c0-2 1-2 3-1v-10c-1-1-4-2-4 0m232 0c0 2-3 3-4 3-2-2-3 2-1 4l2 3-2 1c-2 0-2 3 1 3 4 0 7-1 7-2l-1-1-2-1c0-1 9-1 10 1l-1 1c-2-1-2-1 0 2a9 9 0 008 6v-1l1-5c0-3 0-3-2-3l-3-1 2-2c3 0 4-1 4-4 0-2-1-2-7-2l-7 1c-3 2-6 1-4-1v-2h-1m-34 4c1 1 0 1-1 1l-2 2 7 1 6 1h2c2-2 1-4-2-4-8-2-10-2-10-1m-367 1v5l1 6c0 2 2 3 5 1 2 0 3-2 1-2s-5-2-5-5v-2c3 1 3-1 0-3h-2m705 4l2 2v3l4 5c2 1 2 1 0 1-5 0-2 2 4 2 6 1 7 0 4-4-2-1-4-4-5-7s-2-4-5-4l-4 2M0 258c0 48 1 67 1 43a8369 8369 0 00-1-43m444-83c-2 1-1 3 2 3s4 0 5 3c0 3 1 3 4 4h3l-4-3-3-6c0-2-6-3-7-1m-339 8a67 67 0 01-22 13c0 1-1 2-3 2-2 1-2 1 2 3a11 11 0 018 5l9 9 2 1 1-1 1-1c3 0 28-24 27-26h-10c-10 0-13-1-12-4 0-3-2-3-3-1m757 0l1 1 4 3 4 3v1l1 1 2 1 3 2c3 1 3 1 3-1l-1-2-5-3-6-4a10 10 0 01-5-4l-1 2m-505 3l-2 4c0 1 4 2 5 1l3-1c3-1 3-3-1-5l-3-2-2 3m207-1c-4 2-5 3-2 7 2 3 3 2 4-2l2-5c3-2 2-2-4 0m-429 3l-4 5-2 4-1 1c-1-1-1 0 0 0l-1 2-3 2-4 3-5 4-3 4c-2 0-3 2-1 2v2a1 1 0 102 0l1-1v3c0 3 2 3 3-1 4-5 6-6 15-5h18c5 0 6-1 6-2l-1-2 1-1c3-1 4-1 6 1 2 3 2 7-1 7-2 0-1 1 2 5l3 3h-3c-4 0-5 2-3 6v-1c0-4 0-4 2-3 3 2 24 1 31-1 4-1-1-2-10-2l-7-2-1-2v-1c2-1-1-5-3-5h-3l-3-2 4-3c2 0 6-4 6-6 0-1-1-2-4-2-4-1-4 0-4 2l-1 2-1-3c0-2-4-4-6-3h-3c-2-1-2-1-3 1-1 3-2 4-3 2v-1l1-3-1-3-1-1c0-2-2-2-4-1-2 0-2 0 0 2 2 1 2 1 1 3-2 2-4 1-3-1l-2-3c-2-2-2-2-1-4v-3c-2-2-5-1-6 2m278 1v3c1 4 1 4-1 4s-3 1-2 3v2c-2 1-3 7-1 9v3l-2 1-3 2c-1 3-3 4-3 1h-6l-5 1h-7l-7-1h-3c-4-2-7 0-4 2s0 3-5 2l-4-2c0-1-3-2-7-2l-3-1h-6c0 2-5 2-7 1v-1c1 0 1-1-1-3-1-2-1-2-3-1-1 1-3 3-5 3l-4 4-2 1a5 5 0 00-5 2l7 1 9 1c1 1 1 1-1 1-4-1-5 1-2 3 3 3 4 3 7 3v1c-1 1 0 2 8 8l9 8c4 4 7 6 8 3l-2-1c-4 0-21-17-18-18l2 1h17c18 0 19-1 1-2l-14-1c-3 0-1-2 3-2 5 0 2-2-5-3-7 0-5-2 2-2 4 0 4 0 4-2-1-2 0-2 1-2 2 0 2 0 2 2-1 2-1 2 4 2l17 1c1 2-1 3-10 3l-8 1h10c10 1 15 1 11-1-2-1-1-3 2-3h13l18 1c7 0 7 0 7 3-1 1 0 3 1 4v2c-1 1-9 3-14 3-6 1-1 8 5 8l5 1 2 1 1 4c1 6 4 9 12 8l1 3-1 2v1l4-2c2-3 3-3 3 1 0 2 5 6 11 7l3 1c2 1 2 1 2-2l1-3h1v3l-3 8-3 6c1 3 0 2-5-2-4-3-7-5-5-2l-4 1h-4l5 2h6c2 1 2 3 0 3l-2 2 4 1c3-1 4 0 6 2 5 4 4 4-14 5l-11 1h6l27 3-1 1c-2 2 1 4 3 3h1l2 1c3-1 8 2 8 5h-3l-4-2c-2 0-3 1-2 2h3l2 1h4l2 1v1l1 2 2 2c3 1 4 3 2 4v2c2 1 1 3-1 3-3 0-2 2 1 3 4 0 5 2 2 2l-9 1 3 2 2 1c-3 0-2 0 1 4l2 4 1 1 1 2c-1 1-4 0-4-2l-2-2-3-4-2-2v5c1 6 4 9 10 9a3 3 0 004-6l-1-4c0-4 0-4 1-2 1 3 3 3 3 0l1-3c1 0 1 10-1 18 0 2 0 3 2 3 3 0-2 3-6 3s-3 0 2 1c7 1 10 1 8-1-1-1-1-2 1-2 2-1 2 0 1 2a2 2 0 103 1c1-2 3-2 4 0l2 2c1 0 3-2 1-2l1-1c2-1 2-1 1-3l-1-3 1-5c0-5 1-7 2-4l1 14h-1l2 2c2 1 2 1 1-1l3-4 4-3 2-2c2 0 1 2-2 5-2 2-2 4 0 2h4c4 1 5-4 1-7l-1-2c-1-2-1-2-3 0s-6 2-7 1l2-3 3-2h-3c-3 0-3-8 0-8 3-1 8 0 8 1 0 2 2 2 3 1 2-2 6-2 13-1h6c2-2 2-1 2 4l1 3c2 0 1 4-1 5s-3 4-2 7c1 2 13 2 14 0h1c1 2 7 3 7 1h3l4-1c1-1 3-1 3 1l3 1a2 2 0 003-3l-1-2-3-3v-4l6 11c0 1 4 2 7 1 3 0 3-3 0-3-3-1-3-3 1-3 2-1 3-3 1-4l-1-6-1-6 3 1 4-1c0-2 2-1 2 1 0 1 1 2 5 2h9c2 0 5 0 7-2l3-1-1-8a35 35 0 016-24l-1-4 1-4 1 1 3-2 2-5 1-2c2 0 3-2 6-7 4-7 20-10 27-6 2 1 3 0 2-3-1-1-2-2-3-1l-3 1c-1-1-1-1 1-2 5-2 6-6 2-8l-2-2c1-1 0-2-1-3s-1-2 1-3c2-3-4-9-8-7l-1-3-1-9c-1-3 1-6 4-4 4 2 7-12 3-15v-1c3 1 4-1 4-6l1-6c3-2 2-3 0-3l-2 1-3 4-3 2-3 1c-2 0-3 1-3 2-1 2-3 3-6 1-3-1-2-3 2-4 7-2 8-3 4-5l-4-3c1-3-2-4-2-1-1 2-11 2-12 0 0-2 2-5 5-5 1-1 0-1-3-1l-6-1h-29c-3 0-3 0-4 7v14c2 4 2 4 2 2 1-2 1-3 14-3a12 12 0 019 1l16-1c1 1-5 5-8 5l-4 1h-7c-2 2-3 2-5 0l-6-1c-4 0-4 0-4 4a6 6 0 01-1 5l1 1 2 2c3 1 4 4 1 4l-2 2c-1 2-3 1-5-1s-2-2 0-2l-1-6v-2c-2-2-3 0-3 8l-1 11c-8 8-8 8-11 8h-4c0 2 5 2 7 1h2l14 1c14 0 17 0 15 3h-17c-5 0-5 0-5 2s0 2-5 0l-2 1c-1 1-2 2-3 1h-1c-1 2 1 4 6 5s6 4 2 6c-3 1-4 3-2 3s4 5 3 6h-1l-1-1c-1 1 0 7 2 10 2 1 2 2 1 4-1 4-2 3-3-2-2-11-11-19-10-7 1 3 0 4-2 6l-3 4h-7l-4-2c-3-1-4-3-1-3 2 0 3-2 3-5l1-3 1-7c0-6-1-9-2-6-1 2-2 1-2-1 2-5-3-6-6-2-4 4-5 5-4 2 0-3 0-3-4 1-3 3-3 3-2 4 3 2 2 3 0 3-1-1-3 0-5 2-4 5-6 6-5 2l1-2-3 2-5 4c-7 4-8 7-6 10 1 2 3-1 3-3h2c5 0 8 2 8 4h-1c-1-4-7 1-7 6l-1 1c-1-1-3 0-3 2l-4 2-2 1c0 2-5 3-6 2h-2v2l2 2 4 1c2-1 5 0 7 1l3 1c2 0 4 3 3 5l-1-1c0-1-1-2-3-2s-4 2-2 3c2 2 1 9-1 9l-2 1-3 1c-6 0-9 1-9 3 0 1-1 2-3 2l-3 1c0 1-1 2-2 1-4 0-5 3-5 12l-1 7-1-5-1-5c-5 1-5-1-1-4l2-4c0-2 1-2 3-2 4 0 4 0 5-3 1-4 0-5-1-3h-2c1-2 0-5-2-11-2-5-5-7-7-3l-3-4c-2-6-6-7-7-2l-1 2v-4c0-4-1-5-3-3l-2 2c-1 0-2 0-1 3l2 2v1l-3-2a42 42 0 01-14-11l-11-10c-5-4 0-3 6 1h4a5 5 0 003 7l9 3c3-1 4-1 4 1 1 1 1 1 1-1s-3-5-6-5-3-1-3-13c0-5 0-6 1-3l3 3 2-3 1-3c2-1 5 1 4 2l1 1 3-1h4v-1l-1-1 1-2c1 0 4 4 3 5l1 1v-4c-1-1-1-2 1-3 3-3 6-8 3-8l-2-2c-2-2-3-1-4 3l-2-7c-3-9-3-10-6-12l-3-3-2-4c-1-2-1-2 3-4 6-3 10-7 10-12l3-5c2-1 2-1 0-1-1-1-2-1-3 1-1 1-1 1-4-2l-3-4-2-4c-3-4-6-3-6 0l-2 2c-2 0-3 1-3 2l-2 2-1 2c1 2-2 7-3 7l-2-6c0-4-1-4-2-3l-3 1-3-1c-2 0-2-1-1-2l2-4c-1-1 0-1 1-1l3-1c0-2-3-2-5-1h-1c0-2-6 5-6 7 0 6-5 7-7 1-1-4-3-5-3-1 0 2 0 3-3 2l-3 1c0 2 4 3 6 2l1 2c0 3-1 3-4 2-2-1-5 0-4 1l1 5 3 5c1 0 2 2 0 2l-3 1-2 3v-3l1-2c2 0 1-2-1-3-2 0-3-3 0-3 1-1 1-1-1-3l-3-2h-1a188 188 0 00-2-18c-2-4-2-6 0-6 1 0 2-1 2-5 1-5 0-7-3-5-2 2-3 2-3 0h-1v3c2 2 0 4-3 5-2 1-3-1 0-2a5 5 0 00-4-7m88 1c2 2 2 11 0 13v6c0 7 1 8 3 8l3 2c1 2 3 1 3-3s-1-5-3-3c-1 2-2 0-2-3 1-2 1-3-1-3s-1-2 1-3v-8c2-2 1-6-2-7s-3-1-2 1m73 1l-2 1 4 4c1 2 3 3 3 1s3-3 4-1 2-2 1-4c0-2-4-3-10-1m282 0l-4 2c-4 0-6 5-2 7 3 1 4 2 3 4s-1 2 1 3c1 0 2 1 1 2l3-2 3-4 2-3c2-3 3-8 0-9h-7m-288 4l2 5 2 2-2 2-2 3-1 1v1h1c4-4 7 0 6 8-1 4 5 5 7 1 3-4 4-18 2-18l-2 2-5 1c-3 0-3 0-1-1v-2l-1-1c0-2-4-7-5-7l-1 3m302 6l-2 9-3 3c-3 1-5 7-4 8 2 3 8-4 9-9l1-4v-8l-1 1m-393 15l-3 5c-2 4-2 4-1 7v4l1 1 1-3c0-2 1-2 2-2 9 2 10 1 5-5-3-3-4-5-3-6l-1-2-1 1m179 1h-2c-2 0-4 2-2 3v4l1 2c1 1 1 0 1-1l1-4c2-1 7 1 8 3s1 2 1-1 0-4-2-4l-4-2h-2m244 6l2 7c2 3 0 3-2 0l-4-2c-2 0-1 3 2 4l6 5 6 4 3 2v-6c0-4 0-5-2-5v-1c4-2 3-5-5-10-7-4-7-4-6 2m-616 4c-4 2-6 2-9 1-2-1-3-1-4 1 0 3 1 6 2 5v-2l8 4c2 2-9 0-12-2-2-2-7-1-7 3 0 1 3 2 4 1l-1-1-1-1c0-1 6 1 6 3h2c2-1 5 1 4 2h-2l-3 1c-2 2 1 2 12 2 7-1 14-2 11-3a47 47 0 00-15 0c-3-1 2-2 10-2 9 1 12 0 7-3-1-1 0-1 5-1s6 0 6 2c1 2 1 2 2 1 0-2 3-2 2 0 0 1 2 2 7 2 7 0 7 0 6-3 0-2-1-2-3-2h-2l-3-1-7-3c-4-2-4-2-5-1l-7 2a20 20 0 00-10 3l2-2 1-2 3-1 3-1h5c3-2-1-5-5-3h-5l-7 1m165 1l-1 5c0 3 0 4 4 3 4 0 6-3 3-4v-1l3-2h1c0 3 2 2 3 0 1-3 2-3-6-3-6-1-6-1-7 2m-207 0c-3 2-3 3-2 5 0 3 2 2 4 0l2-2c2 1 3-2 2-3h-6m-65 2c-3 2-3 2-1 2l2 2 2 1h2c3 1 8 1 11-2s1-4-4-2c-3 1-4 1-5-1h-7m43 6c0 2 12 7 14 6 1-2 1-4-1-4-1 1-3 0-5-1-4-2-8-3-8-1m34 0l-2 2 2 1 2 2h-2l-2 2h6c3-2 4-3 1-3-1-1-2-1-1-3 0-2 0-2-4-1m-94 3l-4 1c-3 1-3 3 0 3 1 0 2 1 1 2 0 2 0 2 14 1l15-1c1-1-3-2-8-1-5 0-6 0-5-1 2-1-1-4-4-4-2 1-1 4 1 4 1 1 0 1-1 1-2 0-3 0-3-2 0-1-3-4-5-4l-1 1m220 3c0 2 2 3 4 2 2 0 17 1 16 2l-12 1h-12l8 1 12 2c4 1-8 2-14 1-8-2-16-1-16 1 1 1 0 3-1 3-2 2 3 8 14 17l9 8c5 5 6 6 7 3 1-2 1-2 13-2h12l-14-1h-15c-2-2-1-3 2-3l2-1-6-1c-4 0-5-1-4-2s3-2 9-1l8-1-3-1-17-2-2-2h2c2 1 13 0 16-1 2-1-1-1-10-1-16 0-15 0-15-2h3l14-1c17 1 22 2 19 3h-4l-3 1c-1 2 0 2 8 2 10 1 10 1 7-2-2-2-2-2 0-3s4-1 4 1c0 1 1 3 3 3l4 4 3 2 1 3v1l2-1c3 2-1-3-5-8-7-6-10-8-13-7l-2-1 1-1c2 0-2-6-5-8l-6-6c-3-2-4-2-13-2h-11m70 8l2 8 2 6v-12c2-1 1-4-2-4-2 0-2 0-2 2m-69 4l3 3c0 1-3 1-10-1-2 0-2 0-1 1l1 1c0 1 4 2 14 2l14-1-5-1c-6 0-7-1-2-3 5-1 1-2-8-2-7 0-8 0-6 1m-222 4c1 2 0 4-1 2h-7c-2-1-5 0-3 1l1 3 1 2 8-1-2-1c-2 0-2 0-1-1l4 1c2 1 5 2 15 1l11-1c-1-1-2-2-1-3 0-2 0-2-2-2-3 0-5 1-4 2l1 2h-9c-1-1-1-1 1-1 5 0 6-2 2-3h-5c-1 1-4 0-3-1l4-1c5 0 0-2-6-2-5 0-5 0-4 3m57-1l-12 1a39 39 0 00-15 2c-3 0-3 2 0 3h4l-3 1c-2 1-1 1 3 1s6-1 7-2h1l3 2c2 0 3 0 3 6l1 6h5c5 1 5-1 4-11v-9h-1m398 2v1l-3 1a7 7 0 00-5 7c3-4 9-2 10 4 2 6 8 9 8 3l1-1c1-1 1-1-1-3l-2-3-1-1-1-3c0-4 0-4-3-5h-3m286 15c0 4 0 6 2 7l1 8v6l1-1 2-2c2 0 2-1 2-10v-10l-3-2c-5-3-5-3-5 4m-757 6a33 33 0 00-6 1l-1 4-1 4v-5c0-4 0-4-3-4a15 15 0 00-13 6c-3 2-3 2-1 3 2 0 3 2 1 2v11l-1-2c-1-4-3-3-6 0-3 4-5 3-3-1 1-2 1-3-1-4-1-2 1-4 5-5 2 0 3-1 1-2s-2-1-1-3c2-2 2-2 0-3a5 5 0 10-7 7l1 1-2 1c-2 0-2 0-1 3v4l1 1h1c0 1-6 4-9 4l-1 1-1 2c0 2 0 2 2 2s2 0 2-2c-1-2 0-2 1-2h3v-1l-1-1h2c1 1-6 9-7 8a2 2 0 00-1 2l1 1-2 2-8 1-7 1h6c8 0 8 0 6 5-1 2-2 4-1 5l1 5v5c2 1 1 2-1 1-2 0-2 0-2 2 1 2 0 3-1 5-2 1-2 3-2 15v16a10 10 0 002 7c0-2 2-1 2 1 0 3-4 8-6 8s-1 3 1 4c2 2 1 3-2 3s-3 0-1 2c1 2 2 2 2 1l1-2v1l1 3 2 3c0 2 2 5 4 5l1 1 3 1 2-1 2-1c3 0 5-2 3-3-1-1-1-2 2-2l3-2v-1c2 0 2 0 1 2-3 4-2 6 4 8l4 3h2c2-1 2-9 0-14l1-2 1-5c1-5 3-5 3 0 0 4 2 6 9 10 4 2 5 4 2 4l-2 1c-1 1 2 3 4 2 1 0 2 2 1 4l-7 1c-5 0-6 0-5 1l3 1c5-1 7 0 6 4 0 7 8 11 11 6l3-2c1 0 1-1-1-5-1-3-1-5 1-3l6 1c4 0 8 2 4 3-1 0-2 2 0 2l1 2c0 5 9 6 16 2 4-3 4-3 5-1l3 2 3 2c2 2 9 2 14-1 3-1 5-1 7 1s2 2-1-4l2 1c5 4 6 2 7-6a10 10 0 013-9h-1c-2 1-2 1-2-2l1-3 1-2 1-2 1-1c0-1-3-1-5 1-3 3-4 1-1-4 1-3 1-6-2-6l-1-2-2-3c-2-4 0-6 4-8 3-1 4-3 2-4l-2-2c0-2-9-10-10-9l1 4c1 4 0 6-2 3-2-4-4-4-4-1 0 2 0 2-2 1l-2-4v-2l-2 3c-3 2-4 2-3-2l-1-1-1 3-2-1c-3-6-7-8-9-8-6 1-6-4 0-5 3-1 3-3 0-3-2-1-3-3-1-3s7 4 5 5c-1 1 0 5 2 5l2 3c2 3 5 4 6 1 0-1 1-2 3-2l5-2c2-1 2-1 4 2l7 5 6 3c1 2 2 0 2-4 0-5-1-8-3-8s-14-10-14-12l-3-1c-2 1-4 1-7-2l-6-3-2 1 2 4 3 4c1 1 0 5-2 5l-5-4h2c2 1 2 1 2-1 0-1-1-2-3-2-3-1-4-3-1-3l1-3-1-4c-3 0-2-3 0-5 2-1 1-4-1-6-1-1 1-6 3-6l2-4-1-4-2 2c0 2-2 1-3-2l-3-4 1-7c1-1 0-3-3-5l-2-2v4l1 5v3l-2-3c-4-6-8-5-8 1 0 3 0 4 3 5 2 0 2 2 1 7l-1 6c-1 4-3 4-10 0-10-6-15-12-15-18v-9c-1-5-1-5 5 0l5 4 5-2c2 0 4-2 5-3 3-4-11-17-17-16m27 0h-4l3 3 4 3 4 2c3 3 7 0 7-5v-4h-5l-9 1m45 2l-6 7c-6 4-7 5-7 10 0 4 0 5 4 6l7 4c4 3 4 3 4-13l-1-16-1 2m84 5c-2 1-3 3-3 5v3l1-3 2-3c0-1 3 2 5 6s4 4 3 0v-4c-1-3-5-5-8-4m253 3c-3 6 0 10 6 6 3-2 3-3 0-6s-4-3-6 0m48 10c-1 1 3 10 4 10v-10h-4m-475 10l2 4 1 6c-1 4 2 13 4 10l2-2 2-2 3-2c5 1 6 0 6-2v-2l-2 2c-3 3-6 0-7-7 0-5-2-7-3-4h-7l-1-1m69 10c-1 8 0 11 2 10s1-18 0-18c-1-1-2 1-2 8m11-8c-1 1 0 2 1 3 5 4 6 4 3 5l-4-1c-3-3-3-2-3 7l-1 10c-2 0-1 4 0 4l3-1c0-2 2 0 2 2l-1 2c-2-1-2 3 0 4l1-1c-1-1 0-2 1-3l1-2h2l1-1c-1-1 0-2 2-1 4 0 5-2 4-13 0-10 0-11-3-11l-2-1-3-1c-2 0-2 0-1-1s1-1-1-1l-2 1m203 1v4c0 3 0 3-1 2-3-2-4 0-4 5-1 4 0 5 1 3h2l2 1c2 0 5 4 4 5l-5 1h-5l3 2 5 1c3-1 6 1 6 3l-4 1-4 1 1 2 2 2c1 4 7 6 11 4v-6c-1 0-3-5-2-6 0-2 0-2-2-2l-2-2-1-2v-1h1c1 1 1 1 4-1 2-1 2-1 1-2-2 0-2-1-2-4 1-4 0-5-2-3h-1l-3-1c-3 0-3 0-2-4l-1-4-2 1m-175 7c-2 0-2 1-2 4s0 4 1 3c0-2 5-1 5 1v4c0 3 0 3-3 3-2 0-3 0-2 2 0 2-1 2-4 2-1 0-3 5-3 8 0 2 3 4 5 4 3 0 2-3 0-4l-3-2h3l2 1 1 2c0 2 1 2 4 2h3v-30l-3-1-4 1m569 8c-3 1-3 1-1 1 1 1 2 2 1 4 0 5 1 6 4 3l7-4 3-3c1-2-10-2-14-1m-658 3l2 3 4 4 3 1 3 1 3 1-3-4-5-4-1-1-2-1-2-2-2 2m-37 1c-2 2-3 5-2 5l1 3 1 4 2-4c3-5 6-5 7-1l1 2 1-3c-1-2-1-2 1-2l3 1 3 4 4 9c3 0 4 0 5 4l1 3c3 0 4-3 4-5-1-3 0-6 2-5l1 3 2 2h3l1-1c2 0 3 5 1 8-2 4 0 5 2 2 2-2 3-3 5-3l5-1c4-2 5 0 4 3l1 2c2-1 2-8 1-9l-3-1-3-1-2-1-1-1-1-2-1 2 1 1 1 2-1 1-1-1h-2c-2 0-2 0 0-3v-5l-1 1h-8v-9c-2-2-2-2-2 0l-2 2c-2 0-2-2 0-4 2-3 0-6-2-3l-4 2c-1 0-2 1-2 4 0 4-5 6-5 2l1-2v-1l-2-1c0-2-5-3-7-2-2 2-2 2-2 0-1-2-2-2-3-1l-5-1c-1-1-2-1-3 1m613 4c-2 2-1 3 2 3 1 0 2 1 2 3s2 4 5 4l-3-8c-1-3-3-4-6-2m-626 5v7c1 5 3 7 2 3-1-5 4-9 6-5l1 1c1-1-5-8-7-8l-2 2m438 1c-1 1 0 2 1 3l2 5 2 2 1 2c0 2 1 2 3 2h3l-4-4c-3-3-4-5-4-7 0-3-2-5-4-3m-516 5c0 5 2 14 4 14v-10c0-6 0-7-2-7-2-1-2 0-2 3m512-2v4l1 4c0 3 3 5 6 3 1-1 1-2-2-5l-4-6h-1m-128 9h-6l-2 1c0 2 7 2 8 1h3c1 1 2 2 3 1h2c2 2 13 1 13 0 0-3-14-4-21-3m-174 2c-2 1-1 3 1 3l4 1 2 1v-1c-1-1-1-1 1-1l4 2c2 0 2 0 1-1v-1l1-1c0-1-1-2-3-2h-11m18 4a62 62 0 000 12l1 8v5l1 3v-28l-1-3c-1-1-1 0-1 3m-109 5c1 6 1 6 4 3 2-2 6-3 6-1 1 1 1 0 1-2 0-3-2-5-8-5h-3v5m-39 3v9c3 3 3 2 4-7 0-12-2-13-4-2m800-4l2 3c1 2 1 2-1 2-1 1-1 1 2 3 5 2 5 2 5 0s-1-3-3-5l-4-3c-2-2-2-2-1 0m-671 2v26c0 10 1 10 4 14 4 4 5 4 7 0l3-6 1-5v-4c5-7 1-11-4-5l-3 2 1-5c1-4 2-5 4-5s2-1 2-6c0-8 1-7-7-7-6-1-7 0-8 1m147 3l-3 1-11 1c-2 2-1 3 2 2 5-1 11-1 11 1 1 2 3 1 3-1 0-3-2-6-2-4M0 398c0 14 1 21 1 13a713 713 0 00-1-13m130-24c-3 4-3 6 1 7 3 1 3 1 1 1-3 1-3 2 0 4 1 0 2 2 1 3l1 4c1 1 1 1 2-2 1-6 3-5 2 1v6l3-1c4 0 9 4 9 9l1 5h2l3-2v-1c-2-1-2-1-1-2l5 1c2 1 2 1 3-1 2-2 2-3-1-4l-2-1-8-3c-5-1-8-3-9-4-2-3-3-6-1-6l1 2 2 2 5 2c4 4 29 4 29 0l1-1c2-1 2 1 1 3-2 3-2 3 1 3h4c2 1 2-2 0-2h-2l-1 1v-1c1-2-1-8-4-8-3-1-5 0-4 2 2 2-1 3-10 3-10 0-11-1-17-6-2-2-2-2-1-4 2-3 1-4-3-4-3 0-4 0-5-2 0-2-1-2-1-1-2 2-4 1-4-1 0-4-1-4-4-2m177 6c-2 3-3 10-2 10l2-3c0-3 3-5 6-4 3 0 3 0 2-2-2-4-6-4-8-1m32 3c1 1 0 2-1 3l2 1 4 3 1 1 2 2c1 3 3 3 3 0 1-1-1-3-5-7-5-5-6-6-6-3m-52 10c0 3 3 6 7 6 3 0 4-7 1-7l-3-1c-1-2-4-1-5 2m-92 1c1 4-1 7-3 7v1l-3 1h-3l3 1c3 1 5 5 2 5l-4 3-2 2h3c4 0 6-2 6-4l2-2 1 2c-1 4 1 5 5 2l2-3-1-6-5-7-3-4v2m156 5c0 6 1 8 3 5s7-2 8 2c0 2 2 2 3 0l-2-2-3-3-2-1c-2 0-3-1-3-2-1-3-4-2-4 1m206 0l-5 1c-2 0-2 0-1 1 4 4 22 4 20 0h-3l-4-1c-3-3-4-3-7-1m-158 4c-1 2-4 3-7 0-5-3-11 1-8 5 1 2 3 2 3 0 0-3 4-5 6-2l2 3a1 1 0 003-1 2 2 0 112 1c-2 0-1 1 2 4 2 1 4 3 4 5l2 2 3 2 4 2c1 0-1-3-5-6-6-6-8-9-6-9l3 2 2 1-5-7c-1-1-2-2-1-3 0-3-3-3-4 1m233 0c0 2 1 3 2 3v9c-3 2-2 5 0 5l2 1c0 2 0 2-2 2-3-1-4 2-2 6l2 5c1 4 3 6 5 6s1-5-1-7c-1-2-1-5 1-4 1 1 2-1 2-4h-1c-1 1-1 1-1-1l1-2 1-2 2-3v-6c-1-5-1-5 3-5 3-1 4 1 2 2v2c2 0 3 0 4-2l3-2 1-1c0-2-6-4-10-4h-9l-5-1v3m-303 2v2l3 4c2 4 4 5 4 3l2-3c3-3 2-6-2-5l-3-1h-4m297 0l-2 4-1 11c-1 0-3 6-2 7 2 2 4 1 5-3l2-6 1-7 1-3c3-3 0-5-4-3m-613 2c-3 5-2 18 1 18 2 0 5-3 4-4l-2 1c-1 3-2-1-2-6 0-8 1-9 3-6 2 2 2 2 2 0 0-3-4-6-6-3m643 4l4 1c5 0 5 3 0 4h-4l3 2c2 2 5 2 5 0l1-2c2 0 1-3 0-5-3-2-9-2-9 0m107 6l-2 1-7 3-6 3-1 2-3 1c-1-1-8 3-8 5h-1l-1 1-1 2-1 1h2l3-1a7 7 0 007-5l4-2a6 6 0 015-3l1-1 13-7c1-2 1-2-1-2s-3 1-3 2m-364 2l-1 2v9l1 1 6 4 4 2c0-1-4-5-6-5l-1-1-1-2-1-5c1-6 0-7-1-5m466 3c-2 2-2 2-3 1l-4-1c-3 1 0 4 3 3 3 0 4 2 2 3l-1 2c1 1 3-2 3-4-1-2 0-2 3-2 4 1 6 0 3-2-2-3-5-3-6 0m-777 9v21l7 7c4 5 8 7 10 8l6 3 4 2a2 2 0 010 4h-1l1 2 3 3c2 3 2 3 2-8 1-10 1-11-1-14-3-4-3-8 0-8l-1-2c-2-2-3-2-3-1-1 1-1 1-4-2l-5-3-2-1-2-3-2-3c0-2-8-9-10-9-1 0-2 1-2 4m259 8l-1 2a2 2 0 01-4 3c0-1-3 0-3 3-1 2 7 4 8 2s5 0 5 2h-3c-3-2-4 2-1 4 3 1 3 3 0 3l-2 2h4c1-1 3 0 5 1 3 2 3 3 2 3l-4-1h-1l1 1a1 1 0 110 2l-2 1h2c1 0 3 1 3 4l-2 1-1 3c1 2 1 3-1 4l-2 1h2c4 0 6 2 5 5 0 3-1 4-4 2l-2-2v2c3 2 1 3-3 3-5 0-9 2-8 4v2l-1 1v7c1 2 1 2 3 0 3-4 11-5 10-1 0 2 0 3 2 4 2 0 3 1 3 2l2 1 1 1 2 1c2 0 3 0 2-2 0-1 0-2 2-2l3 2c1 2 5 3 5 2l-5-5c-3-4-4-5-3-6s2 0 3 1l7 3-1-1c-2 0-1-3 2-4l7 1 4 1c1-1-4-6-6-6l-4-4c-3-4-4-4-2 2v2l-3 2c0 2-1 2-4 2-4-1-5-2-3-3h3c1-2 0-2-1-2-2 0-3-2-2-3l1-3c-1-1 0-1 1-1l4-1c2-2 2-4 0-4l-3-1c-1-2-1-2 1-2 4 0 6-1 6-3h1c2 1 5-1 5-4l-1-2-1 1-3 2c-1 2-2-3 0-6v-5c-1-2 1-7 3-7l1-1c0-1-1-2-4-1-3 0-4 0-5-2-2-3-4-4-4-1l-1 1c-2-2-1-4 3-4 3 0 3 0 1-1-5-2-3-8 2-6l2-1c-2-3-24-4-28-1m6 4v3l1 6c0 5 3 9 6 7 2-1 3-3 0-3-2 1-2 1-2-4 0-9-1-11-5-9m265 8c-2 2-2 2-1 3 5 4 0 13-8 13v-3c1-1 2-9 0-10l-1 2c0 1 0 2-1 1h-5l2 3 1 3 1 1 1 4c0 6 1 8 4 7l2-2h5c1 2 4 0 4-2s0-3-1-2c-2 0-2 0-2-2l1-3c2 0 2-6 1-9l-1-3c1-3-1-4-2-1m152 1l-5 4-5 5-7 4-5 5h2l5-4 7-6 7-5c3-2 4-4 2-4l-1 1m-406 2v2c2 1 3 8 1 8l-2 1 4 7-1 2h-4c-2 0-2 0-2 2s0 2 2 1l4 1h2l2-1c2 0 2-4 1-9v-4l-1-5c-1-4-1-5-2-4h-2c-1-2-2-2-2-1m247 6c0 4 0 4 3 4l2-2 1-4c0-2 0-2-3-2s-3 0-3 4m-504 2c0 3 3 6 7 6 2 1 3 1 3-1 0-3-4-7-5-4v-1c0-2 0-2-2-2s-3 1-3 2m493 0c0 2-1 2-4 2h-4l4 1c5 1 5 3 0 3-4 1-4 1-4 5s0 4 4 4 4 0 4-2 1-3 2-3c2 0 2-7 0-10h-2m-537 3v3l4 4c2 3 3 3 5 3 2-1 3-3 1-4l-1-4c0-3 0-3-4-3l-5 1m100 4h-4c-1-2-4-1-4 1s-1 2-3 2c-3 0-4 2-1 3l1 3v2l1-2c0-2 2-1 4 1 3 3 3 2 1-2-2-5-2-5 0-5l2 3 1 2 2 1c2 2 8 1 10-1s2-2 3-1l2 1c1-1-2-5-5-5l-2-2-1-2c-1 0-2 0-2 2a2 2 0 002 3c-1 1-4-1-3-3 0-3-1-3-4-1m132 2l5 4c5 2 9 7 9 10 0 4 2 4 3 1l1-3c2-1 2-4 0-6-2-1-2-1-2 1 0 3-2 3-3 0l-4-4-6-3c-3-2-3-2-3 0m-235 7l-6 5c-7 5-8 7-2 8l6 3c2 2 3 2 4 1 2-1 2-1 0-2-3 0-4-1-2-3l1-3c-1-1 0-2 1-2 2 0 3-1 3-2 0-2 1-3 2-3 2-2 1-3-3-3l-4 1m649 3s1 2 3 2c2 1 3 2 1 4s3 1 5-1c2-1 2-1 1-3v-3l-5-1c-3 0-5 1-5 2m-548 9l-1 2v5c-1 5-1 5 3 0l4-4c2 1 4-2 2-3-2-2-8-2-8 0m575 2c0 2 0 2-2 2-3 0-7 4-5 4 2 1 11-3 12-4s0-2-1-3c-3-1-4-1-4 1m-546 4h-8c-8 0-3 2 6 2 5 1 5 1 9 6l2 1-3-5c-5-5-5-5-6-4M2 499c0 2 1 3 3 4l3 3 3 3 2 2 5 1c4 0 4 0 3-2-1-4-2-5-4-4l-1-1-2-1c-2 1-7-2-7-5-1-4-5-4-5 0m218-2c-4 0-6 2-2 2l4 3 4 2 2 2 2 3 2 2h5l-4-4a12 12 0 01-5-5l-2-2c0-2-3-3-6-3m-10 2c0 1 1 2 3 2l2 2c-2 0 3 4 5 4l2 2 2 3c2 0 2 0 1-2l-2-3-1-1-1-2-2-1-1-1-2-2c-1-2-6-3-6-1m-26 3l-2 2-2 1 3-1c4-3 5-1 4 4l1 4 2-1 2-1c1 0 2 0 2-3a4 4 0 00-2-5l-4-1-4 1"
    itemprop="regular" fill-rule="evenodd" tabindex="-1"
    fill="url(#16282281824-posters-1653326021455-horizontal-regular)" fill-opacity=""
    stroke="url(#16282281824-posters-1653326021455-vertical-light)" stroke-opacity=""></path>
  <path id="16282281824-posters-1653326021455-bold"
    d="M26 1h6c5 0 6 1 3 4l-2 3c0 1 4 2 5 1l2-1 3-3 1-3 16-1a137 137 0 0120 1l18-1h19L71 0C42 0 25 0 26 1m95 0c4 0 4 2-1 3l-4 1c0 1 7 0 9-2l9-2 9-1h-13l-9 1m49 0h9l4 1c0 1 1 2 2 1l1 1c-1 1 0 1 2 1 1 0 2 0 1-1l2-3c1-1-1-1-13-1s-14 0-8 1m49 0l9 1c7 0 8 1 8 2v10c0 1 0 2-2 2l-2-1a2 2 0 10-1 3c1-1 2 1 2 4l1 2 3 2c4 4 6 4 6 2s1-2 2-2l2-1 2 1 2 2 1-2v-4c0-2 0-2 3-3l2-3-1-2h-1c-2 2-7 1-7-1l-2-1-2 1a2 2 0 002 3c2 0 3 0 3 3v4l-4-4c-4-5-5-7-3-7s1-3-2-3h-2l2-3 1-2-1-1c1-1 6 0 6 1-1 1 3 6 5 6s1-2-1-3c-3 0-3-4 1-4 4-2 22-1 21 0 0 1-2 2-5 2l-7 1-2 2-1 3c0 3 1 3 3 3l4 1c3 2 8 2 10 1l5-2 4-1c2-2 5-1 5 1l3 4c2 2 2 2 2 0l-1-2c-2 0 0-2 3-2 3-1 9 1 9 2l3 4c2 3 2 6-1 6-2 0-6 4-4 4l-2 1c-2 1 13 1 23 1h20l54-2 7-1c0-3 4-5 6-4 3 2 2 3-1 3-4 0-5 2-2 3 2 0 3 1 3 5l1 6 1-2c-1-2-1-2 2-2l4-1-4-1c-2 0-2-1-2-3s0-2 5-2l5 1a3 3 0 003 0l-1-2 8-1c7 0 10 0 7-2-2 0-2-3 0-3l1-2c0-3 3-2 4 0 1 1 1 1 5-2l4-3 1 3c1 1 1 2 2 1l1-1c1 0 1 6-1 9-1 1-1 1-1-1v-2c-6-1-13 0-13 1-1 2-1 2 1 2l1 2 1 1 1 3c0 4 2 4 3 0l2-3c2 0 2 0 2 2v5c-1 2-1 2 1 4s3 3 3 0a2 2 0 113 0c-1 2-1 7 1 8v2c-1 2-7-1-7-2 0-3-2-4-3-3-2 0-2 1-1 2l1 2c-1 1-10 0-11-1 0-2-2-1-5 2-2 2-2 2-4 1h-3c0 1-4-1-4-3l-1-1v7h11c4-2 6 0 3 3l-2 2 2 1 1-2a3 3 0 113 3c-1 3-2 3-5 3l-15-1h-2c-2 2-15 2-16 1s0-3 2-5h4l-1-3h-2l-2 1 1-2 1-3c-3 0-6 2-5 4v3l-2 2-5 3c-5 3-6 3-3 5 1 1 3 1 7-1h5l7 1c7-1 9 0 10 2 0 2 0 2 2-1 3-2 3-2 15-2 9 0 12-1 13-2 0-2-2-4-4-4l-1-4-1-4h-2c2-4 6 0 6 5 0 2 4 3 4 1l2-1-1 3c-1 1-2 9-1 10 2 1 1 3-1 4-2 0-3 1-3 2s-4 2-6 0h-23l-14 1c-11 0-14 1-13 3h26a166 166 0 0026-1c1 2 6 0 6-2l2 1c1 2 2 2 5 1 4 0 5 0 3 3l-12 1c-10 0-11 0-14 2-3 4-4 6-3 8l1 3c1 1 2 2 3 1 1 0 3 2 2 3l-2 1-2 2-1 1-1 1-2 1c-2 0-2-1-1-3l1-2c-1-1-6 5-5 7l5 7 2 2c1 1 3 2 3 0l1-4 3-1c1-1 2-2 3-1v3c-2 0-5 3-4 5 0 2 0 2-2 2-3-1-3-1-3 2v2l-5 5 2-1c3-2 4-1 4 2-1 6 0 10 3 10 2 0 3 1 1 3l-2-1h-3l-2 2-1 6c0 4-1 5-2 5-2 0-4 2-4 4l3 1c4-1 6 2 3 5-2 3-3 5-1 5l1-2c1-2 3-3 4 0 0 1 0 2-2 3l-2 4 1 3 1 1 1 2c0 2 0 2-2 2l-6-1-2 1h3c3 0 3 0 3 7l-2 6v9l1 9c0 2 1 3 3 4l2 1 1-2v-4l1-3c1 0 3-4 3-8 1-1 1 0 1 3 0 5 2 7 2 3s3-4 4 1c0 3 2 4 5 2 2-2 1-5-2-8l-3-2-2 1c-2 0-2 0-1-4 0-5 2-7 3-7 2 0 3-2 2-6l1-6v-2c-2 0-3 2-3 6 0 6 0 8-3 7v-4l1-10c0-11 2-16 5-16 4 1 4-3 1-5s-4-3-2-4l2-2c1-1 1 0 1 2l2 4c2 2 3 5 1 5l-2 2 1 2 1 4c0 4 4 9 5 7l-1-2c-3-2-2-6 1-9 3-2 2-7-2-9-3-1-5-8-3-9l2-5v-4h6a5 5 0 015 2l5 3c4 3 7 3 5-1l-1-3c1-1 6 3 5 4l1 1 1-4c-1-2-1-4 1-5v-1l-2 1c0 2-4 3-6 2l-2-2c-1 0-2 0-1-1h3c3 0 4 0 4-3l-2-3-1-2h-1c-2 2-4 0-4-4s4-5 4-1l2 2v-1l1-3 2-3c0-2-2-2-3-1h-2c-2-2-4-1-4 1s-6 5-8 4c-3-4-2-10 1-7 2 2 4 2 4 0l2-1c3 1 2-2-1-3l-4-3h-7c-1 1 0 1 1 1l6 2-3 1-4 1c-1 2-2 2-3-1-2-2-2-2-1-3 2-1 1-4-2-5-5-3-7-6-6-8s1-2-2-3-2-3 5-3 7 0 7 2v1l1-1h3l3-1 5-1c3 0 3 0 2 2v1l3 2c0 2 1 2 1 1v-1c-3-2-1-5 5-8l6-4c0-2 3-4 8-4s7-1 5-3-1-3 6-3c5-1 7-1 8-3a8 8 0 018-3h14l11-1c0-1-3-3-5-3-8 1-18 0-18-1v-2l-1 1c0 2-3 3-6 2-7-3 4-11 12-9h2c0-1-1-2-3-1-3 0-5-2-5-5 0-2 0-2-2-1s-2 2-1 3c3 2 2 3-1 3h-2v1c-1 1-1 0-2-1l-4-1c-4 1-5 0-2-2 2-2 2-2 5-2 1 0 2-3 0-3-2-1-9 4-10 6l-1 2-3 3-4 3c-2 0-2-3-1-5 1-1 1-1-1-1l-3 2-1 2-1 2c0 2-1 3-3 3l-4 1h-2c-2-1-1-2 1-2s3-1 2-2h-3c-2 1-6-1-6-4l1-1c0 1 3-1 3-3l-2-2c-2-1-2-1-2 1 1 4-3 4-5 1l-3-4c-2-3-2-3-1-5l2-5c0-2 1-3 3-3 1-1 2-2 1-3l1-1a2 2 0 10-2-3c-2 0-2 0-2-3 0-2 0-3-2-3-2-1-2-2-2-5 1-4 0-5-1-2l-3 1c-2 0-2 0-2-7 0-4 0-4-3-1-2 2-3 5-1 4l2 1c1 1 0 1-1 1l-2 2c-1 2-4 1-5-2l-2-2v1l-1 2c-2 2-2 2-6 0l-7-1-3-1c0-1-6-5-8-5h-7c-5 1-6 1-6-1l-3-1c-2 0-8-4-8-6l42-1 43-1H349L219 1m264 0l25 1c23 0 25 0 23 2l1 3c1 1 1 1 2-2 0-3 0-3 5-3 4 0 4 0 3 3v3l5 3 7 5c2 0 2-1 1-3l1-3 2-4 1-3 11-1c16-1 20 0 19 2v3c0 8 0 9 3 9 2-1 3 3 1 7l-1 4c1 0 6-3 6-5l1-2 1 2c-1 2 0 3 1 2 2-1 3-2 3-5l2-5 1-4 2-4c1-1 2-2 1-3l2-1c2 1 2 1 0 10-2 13-3 15-6 14-4 0-4 0-1 5 2 4 2 4 1 5-2 1-3 4-1 4v1l-1 2 10-7 2-1c2 0 3-1 5-6 4-8 4-9 7-10l2-4 1-2c0 1 4-2 4-4l-2-1c-2 1-2 0-2-2l2-4 2 1c-1 3 0 5 2 5l1-4c0-2 47-4 49-1v1l-1 2-1 2c-2 0-2 1-2 4s0 4 2 4l1 2 1 4c0 1 0 2-2 2v1c2 2 2 2-1 4l-4 4h1l3-1c2 0 1 4-1 4v2c2 2 2 2 1 3-5 4-1 7 8 7l5-1-1-2-2-1c-2 0-3-1-3-2l-1-3c-2-2-2-4 0-4v-2c-1-2-1-6 1-6s3 4 2 6c-1 1-1 1 1 2 2 0 2 2 2 7h3l-1-2c-3-1 1-8 5-7 6 1 8 0 11-3 2-2 3-8 1-8-1 0-3 2-2 4l-1 1-1 1c1 3-3 4-5 1-1-1-1-2 1-3 2-2 1-3-1-2-1 0-2 1-2 3s-2 3-4 0c-2-2-2-5 0-5l1-1a13 13 0 0110-9c0-2-2-2-6 1-2 2-5 3-5 2v-3c3 0 5-2 2-3-1-1-2-3-1-4l-1-1c-2 0-3 4-1 4 1 1 0 1-1 1-3 0-3-1-3-3l-2-2-1-1 6-1 9-1c1-1-27-1-113-1L483 1m291 0h31c1-1-13-1-30-1h-31l30 1m40 0l19 1 18 1c2 1 0 4-5 6s-5 2-4 4a4 4 0 007 3v2c-2 2 5 4 17 4l3 1-2 1-3 1-2 1c-1-1-2-1-2 1l-2 2c-2 0-2 0 1 1l2 2 2 1c2 0 3 0 3 3s1 4 4 1c2-1 2-1 1-3s-1-2 2-2l6-3c3-4 5-4 5-1 1 2 1 2 4 1 5-1 5-1 2-3-2-2-3-3-2-4 0-2 0-2 2 0l2 2v-4l2-5-2-2c-3-1-3-1-2-2 2-1 2-2 1-3 0-2 0-2 2-2s3 0 4-2c3-3 6-3 5 0 0 3 4 7 7 5 1-1 1-1 2 1l1 1V8l-6-6h4l3-1-50-1-49 1M327 4v2l1-1c1-2 2-1 2 3 0 2 0 3 1 2 0-3 5-3 11-1l5 1 1-2 2 2c0 1 1 1 4-1 2-1 2-1 0-2l-1-3c1-1 0-1-1-1-2 0-2 0-1 1 2 1 0 3-3 3-2 0-3-2-2-2 2-2 0-3-9-3-8 0-10 0-10 2m38-1l1 1-2 1-2 2c1 1 0 2-1 3v1c2 1 2 4 0 6-1 2-1 2 1 2 3 0 6-3 6-8 0-3 1-4 3-5l3-3h-9m251 2c-1 5 0 6 2 4l2-3 2-1h2c1-1 1 0 1 1l-1 2-2 2-4 4-4 4-1 5c-1 3-1 3 1 5 1 1 2 1 6-3l4-7 1-2c3 0 5-4 2-6V8c3-2 0-5-5-6h-6v3m40 1l1 3c2 2 1 6-3 7-3 0-3 0-3-4l-1-4-2-1h-4l-4 1 4 1c5 3 5 3 1 5-4 3-5 2-5 0 0-3-1-2-3 3-1 4 2 7 8 7 4 0 5 1 5 3s-1 3-4 0c-2-1-3 0-3 5 1 3 6 5 6 2l2-2 1 4c-1 5 0 5 2 0l4-4 7-4c0-1-1-2-3-2l-2-1 2-1c3-1 7-7 5-8l-2 1h-1l-1-1-2-1h3a8 8 0 000-10v2c0 4-2 4-4 0-2-3-4-4-4-1m-476 4l-2 4a9 9 0 006 7c0 4 3 0 4-5l1-5c2-3 0-4-3-1-2 1-2 1-1 2l1 2c-1 3-3 2-4-2l-1-4-1 2m-47 2c-2 1-2 1-1 3 2 2 0 4-2 2-3-2-3 0-1 2l3 4 2 4 2 3v-3l-1-2v-7l1 3 1 3c2 0 4 4 4 6-1 3 1 2 2 0s1-4-1-8l-2-6h-1l-2-2h-1c-1 1-1 1-1-1l1-2-3 1M30 15h-9l1 1 4 2 6 2 4 1 3 1 2 1c-1 1 0 2 1 1 3-1 1-5-4-8s-5-3-8-1m39 1l-2 3-3 4c-4 1-5 2-3 3l2-1c1-1 2-2 5-2 4 0 4 0 3-1l-1-2c2-2 3-5 2-6l-3 2m4 3l-2 5v3l1-1c1-2 3-1 3 2l3 4c1 1 1 3-1 3l-4 4c-3 4-4 7-2 7l1 2c0 1 1 2 3 1 3 0 3 0 1-1-2 0-2-1-1-1 1-1 4 0 7 3 4 2 5 3 7 2 1-1 1-1-2-3-6-2-4-5 4-9 3-1 5-4 3-5-1-1-1-1-2 2-2 3-2 3-3 1v-3c1-1 0-2-1-3-2-2-2-2-1-3v-3c-2-1-2-2-1-4v-3l-3 2c0 4-4 2-4-2-1-4-6-4-6 0m102 0v3c2 2-3 12-6 12l-1 1h5c5-2 8-2 7 2a2 2 0 103-1v-4c2-7 0-10-3-3l-1 4v-5c1-3 1-4-1-5l-2-3c0-2-1-2-1-1m721 4c-3 2-2 4 1 2h3a8 8 0 01-1 8h5c1-1 1 0 1 1 0 4 3 4 4 1 0-3-1-5-2-4-2 0-4-2-2-3l4-1 2-2c1-1 0-1-4-1-4 1-5 0-5-1 0-2-2-2-6 0M95 23c-1 1-1 4 1 7l1 7c-1 4-1 4 1 3 3-2 4-7 1-9a4 4 0 010-8h-4m-44 1c-2 1-1 2 1 2 3-1 3 4 2 8-2 3 0 2 3 0 3-3 3-3 2-6l-2-4-4-1-2 1m436 3c-3 0-2 2 0 2s2 0 2 2c-1 1 0 2 1 2s1 1-1 3c-2 3-2 4-1 4l1-1 2-2c1 0 2-2 2-6 0-5-1-6-6-4m296 2v21c1 8 0 10-1 11-2 0-1 2 1 2l1 2-1 2c0 1-2 2-7 1l-8 1 2 1 4 2 1 2 2-2c2-3 5-3 6 2v5l1 1 1 1-1 1c-2-2-3 0-1 2v3c-1 1 0 1 1 1l2 2c0 2-2 3-2 0v4l1 8v3l-1 6c0 3 0 5 1 4l1-2c0-2 2-4 4-4s3-3 2-7c-1-2-1-2-3-1-1 2-1 2-1-1a40 40 0 010-10c0-3 1-4 2-4 2 0 3-1 0-3l-1-27c0-23-1-25-2-26-2 0-2 0-1 3l-1 3-1-6c-1-4-1-4-1-1m-536 2v1l1 1h-13l-4 1-4 2c-2 1-2 1 0 4 3 2 5 3 5 1l-2-1c-2-1-3-4-1-4l5-1 5 1c2 2 4 2 4 1l-1 12c-1 3-2 1-1-4 0-6-1-8-5-6l-2 2 3-1a2 2 0 110 4l-3 2c-1 2-1 2-4 0-5-5-7-5-4 2l-1 1h-2c0 2-2 1-4-1l-4-2v3c3 2 2 4 0 6l-3 3-3 3c-2 0-2 2 0 3l3 1 5 1c4 0 5-3 2-5-2-2-2-3 2-3l3-1 1-2v3c0 3 2 6 6 6 2 0 5 5 2 5l-1-1a2 2 0 10-1 2l1 1a2 2 0 004-3c1-2 5-5 5-2l-1 2c-3 1-2 4 0 4l2 1-1 1v5h-6c-3-4-4-4-8-4l-7 2-3 2 3 2c3 1 4 2 4 4 0 3 0 3-1 1-1-3-5-2-4 0l-2 2c-2 0-1 6 1 6h4c3 1 6 2 3 2l-1 2-1 1v1c1 2 5-1 5-3 0-3 1-5 3-5l1-2-1-2-1 1-2 1c-3 0-2-1 1-4 4-4 4-7 0-5h-4c-2-2-1-3 3-3l4 1 2 1c2 0 3 9 1 11-1 2-1 3 1 3 3 0 4 3 2 5l-2 3-2 3c-1 1-1 3 1 9 1 2 1 2 2 0a3 3 0 116 0l-2-1-2-1 1 2c3 2 2 5 0 6-2 2-2 8 0 8l1 2 2 3 1-2c-1-2 0-3 1-4s1-1 1 3h1l1-2c3 0 10-4 10-6l2-2 3-3c0-3 0-3 1-2v4c-1 2 0 5 1 3s4 0 5 3l3 3v-1c-2-1-1-2 1-3l4 2 2 2c2-1 3-4 0-4l-1-2v-4h-1l-2 2v-2l-1-6c-1-4 0-6 3-6 1 1 2 0 2-1 0-2 3-1 5 1s2 2 3 1h2c2 2 1 4-2 6-3 1-4 2-2 4l2-2c2-1 4-1 4 2l2 1c2-1 3 1 1 3l-1 1a1 1 0 102 0l1-2v4c-2 2 2 3 5 1 2-1 3-1 4 1l2 2v-2c1-1 0-3-1-4-2-2-2-2 0-2 1 0 2 0 1-3 0-2 0-2 4-2h4c0-1-4-6-4-4a2 2 0 000 1h-3v-3c1-4 1-6-3-8l-2-3c0-2 0-2 2-1 1 2 2 2 2 1 1-1 1-2-1-3-3-2-4-7-2-7v-6c1-2 1-4-1-3l-2-1-3-2c-3 0-3 0-3 9 0 6 0 8-1 5v-5l-1-1v-3l1-5c-1-4-1-4 1-3h32c41-1 55-2 56-3s-63-1-78 1c-8 0-12-1-12-5l-1-2-3-2h-2l-1 2c-1 0-2-1-1-2h-2c-3 3-12 2-12-1l2-1 2-1-3-1c-3 1-4 4-2 5 1 1-1 1-4 1l-7 1h-2l3-1a3 3 0 003-5h-4l-4-2c-8-2-13-20-5-21 2 0 2-1 2-2l2-2 1-1-1-1-2 1c-1 2-3 1-3 0l-1-2-2 2m-113 3l-4 4-4 4 1 1 1-1c0-2 6-4 8-3 1 1 6-2 5-3h-5v-1l1-3v-1l-3 3m761 1l1 1c0 2-7 2-8 0l-3 2-6 2c-2 0-2 1-2 5 0 6-4 8-5 2-1-7-9-10-10-3 0 3-1 4-4 4-5 0-7 4-5 7 1 1 1 1-4 1-4 0-5 0-5 2s0 2-6 2h-10c-9-4-16 1-9 8l2 4c0 4 4 5 9 5h6c2 0 3 3 1 3-1 0 0 2 3 3 4 3 5 4 4 6l1 1 2 1c1 0 3-1 5-4l3-5 1-2 2-4a13 13 0 002-6c1-1 11 0 14 2l3-1c0-2 2-3 2-1l-2 3c-2 1-3 3 0 3v6c0 3-4 4-4 1h-2c-2 2-2 2-4 0h-4c-2 2 1 3 8 4l7 1 5-1c1-1 2 0 3 1l1 1-4 2c-2 2-3 2-3 1h-3l1 2v4l2 4 1 2 2 3 2 2c1 0 3-4 2-5l1-1h12c2 3 7 0 7-4h-1c-2 1-2 1-2-1l1-3c2-1 1-7 0-7-3 0-3-3-1-4s3-2 1-3c-1-1-1-1 1-1h4v-1l-2-1c-2-2-2-2 1-4 6-4 5-18-1-18l-3-1-3-2c-2 0-2-1-2-3 0-4-1-5-4-5l-3-1 2-2 1-2 1-3-2-3v1m-757 7l-2 1c0-1-2 0-3 2-4 3-6 2-7-1a2 2 0 10-4 2c2 0 4 3 3 4-1 2-5 1-4-1l-2-5-1 2-1 2c-2 0-3 3-2 5l3 1c3 0 8 5 7 8l-1 2v2c3 2 2 5-2 5-1 1 0 1 3 1h6c2 2 1-2-2-4s-3-3-2-5 1-2 1 0 1 3 2 3l1-1v-3c2 0 1-2 0-2-2 0-2-1 0-3 1-2 2-2 4-1s9 0 9-1a9 9 0 019 0l-6-2-6-1-3-1c-2 1-3 0-1-1 3-1 6-7 5-9 0-2-3-1-4 1m336 1l-1 3c-1 1 6 8 8 8l1-2 2-1v-1h-2c-2 1-2 1-2-1l-2-3-2-2-2-3v2m-369 0l-1 2-2 5c-3 4-2 5 1 3 2-2 2-2 4-1 3 2 3 1 2-4-2-5-3-7-4-5m69 11c-2 2-1 10 1 10l1 2h3c3-1 5 0 2 2-1 1-1 1 2 1 2 0 3 0 2-1l-1-2-1-2v-2c1-1 1-1 2 1 2 2 2 2 5 2 2-1 4-1 5 1h3c1-3 0-7-2-6h-12l-2-1-2-2c1-1 0-1-1-1l-3 2v-2c0-5 0-5-2-2m328 4l-3 2c-3 1-1 4 2 4l5 1h1l-1-1-1-1 1-1c2 1 3-1 3-4 0-2-1-3-3-1h-1c-1-2-3-1-3 1m358-1c-4 0-5 1-3 4l1 3c1 3 3 4 3 1l3-5c2-2 3-4 1-4l-5 1m30 0l-1 2-1 2c-3 1-2 3 0 2l3 1a7 7 0 01-3 7l2 1 2 1h3c3 0 4-8 2-9l-1-1c0-1-5-7-6-6m-432 1l2 1c2 0 2 1 2 3s-2 3-2 0l-2-1c-2 1-3 3-1 3s3 2 1 3c-2 0-2 7 0 7 1 1 1 1-1 3s-2 4 1 3h5c2 0 3 0 3-3 0-2 0-3 2-3 3 0 5-2 4-3h-2c-2 1-3 1-3-1l2-2c1 0 2-4 0-4l-1-1c0-4-8-7-10-5m133 4c2 0 1 3-1 3-2 1-3 7-1 7l-1 4-3 3 2-1c3 0 3 0 4 3s1 3 1-2v-5h6l3-3c2-2 3-4 1-4l-2 1c0 2-5 4-7 3v-5a3 3 0 00-2-4m-454 2c-2 0-2 0-1 4 2 2 6 5 7 4 0-1-1-4-3-4-1 0-2-1-1-3h5l3-1h-10m-42 4c-3 0-2 4 1 5 5 2 9-1 4-4l-3-2-2 1m162 2a5 5 0 00-1 4l-3 1c0 2 4 5 6 5l1-3c0-3 3-4 4-2 1 1 1 1 2-1v-2l-2-1-1-1h-6m641 6l-2 3-1 1-1 4-2 5c-5 5 1 7 5 3 2-2 3-3 2-4l1-10c1-2 0-3-2-2m-396 3v1l-1 1c-3 1-1 1 8 1 3 1 4-1 2-3h-9m150 3l1 2c2 2-3 4-9 4-5 0-6 1-1 2l7 1 3 1 2 7 1 5 3-1c5 0 6-2 1-4l-3-1-1-7a15 15 0 00-2-9h-2m-514 1c-3 1-2 3 1 3 3-1 6 2 3 3-3 2-6 1-6-1a2 2 0 10-5 0c0 2 1 3 3 2l3 1c2 2 8 2 11 1 4-1 5-4 2-4l-2-2-3-3h-7m450 10l1 19c0 10 1 16 2 16V88l-2-4-1 9m170-7c-3 2-3 5 1 5a5 5 0 006-1c3-1 2-3 0-2-1 0-2 0-2-2-1-2-2-2-5 0m-247 1l2 1v4l1 4 2 1c0 2-2 1-3-1-2-2-4-3-5-1 0 1 3 4 4 3l1 1h3c4-2 6-5 5-6l-1 1c-1 3-4 1-5-3 0-3-4-7-4-4m-307 5a4 4 0 010 5c0 1-3 3-4 1l-4 1-4 1h7c9 1 13 0 13-3l-2-1-3-4c-1-5-3-5-3 0m396-1v17c0 15 2 15 2 0V92l-1-4-1 3m272 0h-5c-3 0-4 0-4 2l2 2c2 0 4 1 4 3s0 2-1 1h-21c-3 4 7 10 11 7l2 2 3 2c1-1 1 0 1 2l-1 2-2 3-1 3v3c2 4 5 0 6-6v-7c0-2 4-1 4 1l1 1c2-1 3 0 2 2 0 2 0 2-2 0-2-1-3 0-3 4 0 1 1 2 3 2 3 0 4-4 3-13V96c1-4-1-7-2-5M77 92l1 1c2 0 11 10 10 11s0 1 3 1 3 0 2-2l-3-1-1-2-2-2-5-3c-3-4-6-5-5-3m212 1c-1 3-2 3-3 2l-3-2 1 2c2 2 2 3 0 2l-2 1c-1 1 0 1 1 1l4 1 1 1c1-1 4 0 4 2s5 1 7-1c2-4 0-6-3-6-2 0-3 0-2-1l-2-2c-2-2-2-2-3 0m270 2v21c-1 1-3 7-1 7l1-2 1-2 1-11 1-12-1-2-2 1m181-1c-2 0-2 0 1 4 2 2 11 4 13 2l-1-1-1-2c0-1-1-2-3-2l-5-1h-4m-587 3c-6 4-5 7 2 6 9-1 10-1 10-3 0-1-2-2-5-1-2 1-2-2-1-3 3-2-4-1-6 1m164-1c-4 0-4 1-3 2l4 1h2l1 1c2-1 4 1 4 3-1 1 0 1 2 1 3 0-2-8-4-8h-6m165 1c-1 2-1 2-2 1h-4c-2 2 3 8 6 7 1-1 2 2 1 3l-2 3c-1 2-2 2-4 2-3-1-3 1 1 2l2 3 2 2 2 3 1 3a1 1 0 11-2 1c0-3-2-3-4-2v2l1 1 1 1 2 3c0 1 3 2 4 0h3c3 0 3-1-1-4-3-2-4-4-1-5 2-1 15 2 17 4s3 3 1 3a2 2 0 00-1 3c2 0 5-2 5-4s1-1 3 1a5 5 0 01-5 7l-1 1 4 1c4 1 4 1 4-3 0-6 1-7 4-4 2 1 2 2 2 5-1 4 1 7 3 6v2c0 3 2 7 3 6 2-1 2-5 1-7v-1l-2-3c-1-1-2-2-1-3h2c3 4 7 6 7 5l-2-3c-3-1-3-2-3-7l-1-6v3c0 3 0 4-2 1-2-1-2-2-1-2 1-1 1-2-1-2l-1-3c1-1-2-4-3-3l-1 4c1 6-1 6-5 3a2 2 0 112-3h1v-1a2 2 0 110-3l2-1 2-2c2 0 2 0 0-1-2 0-4 0-5 2s-1-2 1-11c1-3 0-4-1-3l-2 3c-1 6-1 7-2 6v3l-1 5-1 2c0 2-3 1-6-1l-1-2a2 2 0 10-1-3h-2c0-3-2-1-1 1 0 2 0 2-3 2a102 102 0 00-11-3c-1 0-1-1 1-2s2-2 1-5l-1-7a7 7 0 000-7l-1-1-3 2m-84 0a439 439 0 001 46v3c2 3 3 1 3-6l2-9c2-3 2-4 1-4l-2-1v-15l-1-14-2-1-2 1m327 0c-9 0-10 0-7 3 1 2 4 2 5 0s11-2 11 0c1 1-1 2-2 2l-2 1h2c4 1 4 1 5-4 0-2-1-3-2-3l-10 1m-221 1l-3 3c-3 0-3 0-1 2l2 4 3 7c3 4 3 5 2 6h4c1-1-2-6-5-9a12 12 0 01-3-6c-1-2-1-3 1-4 2-2 3-4 1-4l-1 1m-251 6c-1 1-1 1 2 8 2 2 3 3 5 1 1-2 0-4-3-6l-2-3h-2m15 4l2 5v4c-1 1 0 6 1 6l1-1 1-2c0-4-1-11-2-10-1 0-2-1-2-3-1-3-1-3-1 1m340-2v2c-1 0-2 3-1 4 0 2 2 2 2 0v-1l2 1 2 1 2 1c2 0 1-5-2-6-2-1-3-2-2-3s1-1-1-1-2 0-2 2m212 2c0 2 1 4 3 3l1 1h1l2 1 2 2 2 2c0 3 2 3 2 1a5 5 0 00-2-5l-3-1c-4-4-7-5-8-4m31 2l-1 2c1 1-2 3-4 3h-3l-3 2c-2 0-3 2-3 5l3 1c3 0 5 4 3 7-1 3-3 3-3 0l-1-2-1 2c-2 2-2 3-1 6v7l-3 6-2 2v4l3 1 1 2c0 5 5 2 6-2 2-6 3-8 5-5 1 2 1 3-1 4l-2 4-1 1-2 4c0 3 0 3-1 2-1-2-1-2-2-1l1 4 1 1c0-2 1-2 4-2 4 0 4 0 6 6 1 4 4 7 9 12l7 7-1 6-3 6c-2 2-3 3 0 3l1-1 1-1c2 0 3-4 3-9 0-2 0-3 1-2l3 2c2 0 3 1 3 2l2 1 3 2 2 1 6 4 3 2 1 1 1 1c3 0 6 3 5 7l1 4v-3c0-3 0-3 2-3s2 0-1-3c-5-5-6-5-7-5l-1-1-1-1-2-1-6-4-6-4-2-1-3-2-3-2a54 54 0 01-15-16l-1-4a6 6 0 00-1-5l1-1c0-2 2-3 2-1 2 2 8 4 12 4l5 1-4-1-5-3-3-1c-3-1-8-8-8-11l-1-2-2-2c0-3-4-6-6-6-1 1-3-1-1-2h2c1 0 5-6 5-9s2-4 4-1h4l2-4 1-1c-3 1-4-6-2-7v-6c0-5 0-5-1-2l-1 1-1-1-2-2h-1m-406 1c-1 1-2 2-1 3v5c1 2 0 11-1 11-3 0-8 3-8 5s0 2 3 1c1-1 2-1 1 1l-2 2c-2 1-2 1-1 2h3c2-1 2-1 1 1v8c-1 1-2 2-1 3h3v-2l1-5c1-4 1-4 5-4s4 0 1-5c-3-4-4-4-6-1l-2 1c0-3 4-7 5-7l2 2 2 1 1 1 1 4c1 2 1 2 2 1 1-3 0-6-2-6l-3-3c-2-2-2-2 4-3 5 0 6-1 6-2 0-2-1-2-3-2-6 0-6 0-6-2 0-4-1-6-2-5v-2c3-4 0-5-3-3m303 7l-15 1-2 1 34-1 12-1h-29m54 0c-2 1-1 2 3 4l6 4 4 3 5 3 2 1c3-1-1-5-5-5l-2-2-1-2-3-2-2-1-3-2c-2-2-3-2-4-1m78 6l1 3c2 2 1 4 0 4v-1c0-1-1-2-6-2l-7-2c0-2-2-1-2 1l-1 1-1 2h-1c-2-1-7 3-7 6l-1 1c-2-1-4 1-2 2v3c-1 4-1 7 1 8 2 0 4-2 4-4v-5c0-3 2-7 4-5h3l3 2c0 3-1 5-2 5-5-1-7 5-3 10 2 2 2 2 3 0 1-1 0-2-1-3-1-2 1-5 3-5a11 11 0 011 12c-1 4 6 5 7 1s1-5-1-5v-1l2-1c0-2-4-7-6-7v-5l1-3c0-1 0-2 1-1l1-1h1l4 2c1 1 2 2 2 5l1 4c1 0 1 14-1 15-3 2-3 5-1 8 4 3 5 2 5-5l2-8c1-3 0-9-3-12-2-4-1-11 1-12s2-1 2 1l-2 6 1 2 2-3c0-4 2-5 4-2v12l1 5c3 3 3 2 2-3 0-4 0-5 1-4s1 1 2-1c2-2 2-2 5-2 3 1 3 1 2-1l-3-2-5-3-5-3-3-2-3-3-3-3c-2-2-3-2-3-1m-623 3c-4 1-5 2-5 4 0 1 0 2-2 2-3-1-4 5-2 7l2 3 1 1c2 0 4 8 2 8-2 1 0 4 2 5 2 0 2 1 2 2v2l2 4c2 3 2 4 3 3v-2c-1-2-1-4 1-4l1-1-1-1c-2 0-2-1-1-2 0-1 2 0 3 2 3 3 3 3 3 1s0-3 3-3 4-1 4-3 1-3 2-3v-1h-1c-3 2-4 1-4-3 1-4-1-5-2-2-1 2-1 2-4 0s-3-4 1-4c3-1 3-3 0-4-2 0-5 2-5 5v1l-1 2v2c-2 0-1-9 1-11v-3l1-2v-6l-6 1m-2 5l-3 4a3 3 0 105 1l1-3v-6l-3 4m211-3c0 2-2 3-2 2-2-2-6 3-6 7 0 3 8 1 9-2s0-8-1-8v1m133 11l-1 47v11l-1 12-1 11h-1l-2-3-2-6-1-8 1-14v-10l1-10c0-13-2-23-3-12l-1 11-1 22c1 7-2 24-3 26l-3 3c-3 4-7 1-8-5 0-7-1-7-4-5s-5 0-3-3c4-3 3-11-1-12h-3l-2-1-1-2c-2-1-2-5 1-7 2-1 2-1 0-1-3-1-9 4-7 7v1l-2-1-1-2v2l-1 3v2c1 2-2 4-7 4s-8-2-5-4v-3a2 2 0 10-2-1c-3 1-5 2-4 0h-3c-2 2-2 2 0 2l2 3c-1 2 1 4 2 2l3-1v2l-2 3-1 1c-2 0-2 3 0 5s1 4-4 7l-7 4c-3 2-7 3-8 2l-4-1-4-2-3-2c-2-1-3-5-2-12 0-3-1-4-3-1-2 2-3 2-3-1l2-2 1-1v-1l2-2c1 1 3-4 2-5-1-2-4-1-3 1l-1 2-1 2-2 1h-3l1 6 1 6v2c1 1 3 0 3-2 1-2 1-1 1 2l2 6c1 2 1 3-2 3-2 1-3 2-4 6 0 4-6 10-10 11-3 0-5 2-3 2l3 4c1 3 2 4 4 4l3 3 2 3c3 0 10-5 11-7s1-2 3-1l1 4c-1 1 1 3 3 6 5 5 5 5 2 7-2 2-2 2-1 4 1 3 1 6-1 6l-3-2c-1-4-4-4-7 1-3 3-4 4-3 5 2 3 0 5-4 5-3-1-5 0-5 4l-2 5c-2 3 0 5 5 5l4 1 13 4v4c0 5 2 6 6 2s11-6 13-4c1 1 1 1 2-1l-1-2-1-2c0-2 0-2 1-1l1-3c1-5 0-9-1-7-1 1-1 1-1-1l2-4 2-3h2c1 1 1 2-1 4l-2 2 9-6c4-3 7-5 8-3 0 0 2 0 3-2l2-2-2 1-3 1c-1-1 2-4 4-4l2-1c1-2 1-2-1-2l-2-1 3-1c3 1 5-1 5-4 0-6 12-9 13-4v1c-2-3-6-3-6 0l-2 3-3 4c0 2 0 2 3-1s6-4 8-2h1c0-3 2 0 3 4l1 4 1-2 1-6c0-8 4-10 5-3l1 5-2 5c-1 2-2 4-1 6 1 4 1 4 3 1 2-2 2-2 0-3-2 0-2 0-1-1 3 0 8 2 7 4l1 1h4c1-2-3-6-6-5l-2-1-1-3c-3 0-2-2 0-2 2-1 2-1 2-3l-1-5c0-3 0-4-2-5-5-2-2-6 3-5 3 1 3 1 3-1 0-4 1-7 3-7s5-4 5-6c-1-2-3-3-3-1s-2 1-3-2v-4l1 3 1 2 1-1c0-1 1-2 2-1l1-6 2-38 1-16v-8c-2-3-2-3 0-3v-2l-1-10-1-10c-1-1-1 0-1 3m221-1c-1 1-2 2-1 3l-1 2-2-2c0-2-2-3-2-1h-1c0-3-2-1-2 1l2 2 4 2 2 2 1-2 2-2v-4c-1-3-1-3-2-1m-440 1l-1 4 1 4c1 5 3 4 4-1l1-5v-2c-2-3-4-2-5 0m118 5c-3 3-2 3 1 1 2-1 3-2 4-1 0 1-1 3-5 4-2 0-3 1-2 2l-1 1-2 1 2 1 1-1 3-1h2c-1-2 1-3 5-2 8 1 3 5-6 5a4 4 0 00-5 2l-6-2h-6v9l2-2c2-2 2-2 2 0 0 5-10 9-11 3 0-2-2-3-3 0-2 3-5 3-5 0 0-2 0-2-3-1l-3 2 2 1c2 2 2 2 1 4l-2 3 1 2c0 1 1 2 2 1 2 0 2 0 2 2-1 1-1 2 1 2 3 1 3 0 2-1 0-2 0-2 1 0 3 3 2 4-4 4l-8-1h-1l2 1c1 0 3 1 4 4l4 7c4 4 4 5 1 6-2 1-5 4-3 4 4 0 10-10 7-13 0-1 1-1 5 1h4c1-1 7-1 8 2l2 2 1-2c2-3 3-8 1-6-5 3-19-2-18-7 1-3 3-2 3 0s1 3 2 3l4 1 2-1-2-1c-3 0-4-2-3-4v-3c-1-1-1-8 1-8 2-1 8-6 8-8 0-1 4-3 6-2l-2 4c-6 5-6 6-5 6l3-1 2-1v-1l1-1 2 2 3-2 2-4-1-1c-1-1 0-2 5-2 4-1 6-1 5 1l3 1c4 0 4-4 0-6l-4-2c0-2 0-3-2-3-4 0-6-2-5-4 0-3-5-3-7 0m29 8c0 2-1 2-3 2-5-1-5-1-4 5s1 10-2 10v3c2 1 2 7-1 9v2l1 2a30 30 0 01-12 11h2c3 0 3 0 4 2l1 1v-2c-2-2 0-3 2-1 2 1 3 5 1 9-1 3-1 4 2 4 2 0 3 0 2-3 0-3 0-3 1-2h3v-3c-3-2-2-3 1-3 2 0 2 0 2 2-1 2 1 4 2 2 0-3-2-6-5-7l-6-2 1-2 1-3c1-3 2-4 5-4 2 0 2 0 1-2-3-2-2-3 0-3 2-1 3-3 1-3-1-1-2-3-2-7-1-7 0-13 1-11s2 1 2-3l2-4v-1l-3 2m-128 1v1c2 0 1 3-2 4-1 1-2 2-1 3v4l2 3c1 1 1 2-1 2l-1 3v12c-1 2-1 4 2 4l1 1-2 1c-2 0-3 4-1 6l1 2-3-2-2-2 1 2 1 3v2c1 1 1 1-1 2v4c-3 3-2 5 2 6 5 2 5 1 5-5 0-3 1-5 3-8 2-2 2-3 1-3-1 1-2 0-3-1 0-2 1-4 2-3l2-2c1-2-1-4-1-2-1 2-3 0-3-2l-1-4v-1l1-4 2-4c2-1 2-1 0-1l-2-1 2-2c3-2 2-4-1-4s-5-2-4-4h5a3 3 0 005-3l-2-1-2-1c-1 1-3-3-3-5 1-2-2-3-2 0m-251 5c0 3-1 4-2 5l-3 2-2 2v6c-3 2-2 3 1 3h21c7 1 9 0 8-4 0-2 0-3 2-4v-2l-1-2c0-2-4-9-6-9s-3 2-1 5v2l-1-1h-2v3c2 1 2 1 1 4l-1 5-2 2c-3 0-5-2-4-3l-1-2-1-11c2 0 1-2-1-3-2-3-4-2-5 2m639 0l-3 1c0-2-2-1-3 1l-3 1-2 1 2 1c5 0 1 3-4 3-1 0-3 2-4 5l-3 4-1 2-4 1-4 1-6 1c-3 0-4 0-5 3l-3 3c-5 4-8 8-9 16-2 14-2 23-1 24 2 0 3 5 1 5l-1 2c2 4-1 4-3 1-2-4-2-5-1-8 2-8 3-12 2-17-2-8-4-5-3 5 0 8 0 9-1 7l-3-7c-2-3-2-4-1-5 2-2 2-6 0-6l-3-2-3-3-2-3a3 3 0 00-4-2h-2c-2-1-2-1 0-2h4l1-1-8-3v2l-1 2v1l1 1c-1 2-3 1-3 0 0-2 0-2-6-2-5-1-10 1-10 3s-6 7-10 10c-4 2-5 6-2 9v2c-3 2 0 25 4 24v1l3 5c1 1 3 3 3 5l1 4c2 4 4 30 2 32-1 1-1 1-3-1l-4-2h-2c0-1-10-4-14-4l-5-1c-1-2-1-2-4 0l-6 1c-2 0-3 1-3 2l-3 6c-2 2-3 5-2 6 0 1 0 2-2 2s-7 11-7 16l-2 4a6 6 0 00-2 5c-1-1-1-1-1 1-1 3 0 7 1 5h1c0 2 0 2-2 2h-2l2 2 2 3 2 2c3 0 2 2 0 3l-3 2-1 6a6 6 0 001 6c-2 0-1 6 1 7l1 4 1 4 1-2h14l1-3c1-3 2-3 5-3l4-1h2c2 0 3 0 3-2 2-7 4-2 4 9l1 12c2 3 1 5-1 4l-3-1c-2 1-1 3 2 4l3 3 2 2v4l-2 4c0 4 1 4 3 4 3 0 5 2 4 5l1 1 1-2c0-3 4-11 7-11l3-1c2 0 2 0 2 2 0 4 3 8 4 8a10 10 0 01-2 14l-2 3a2 2 0 00-1 4h-1l-7-1c0 1-2 2-5 2-2 0-3 0-2 2l-1 3v1c2 0 8 7 8 10a4 4 0 01-5 5c-1 1 2 2 3 2 1-1 3 6 3 7h-3v-2c2-2 1-3-1-3l-3 2-2 2 2 1 5 1 3 1h3c2-1 2-1 2 1s-2 4-4 5c-1 1-1 1 1 2 2 0 3 1 3 2v-1c0-2 0-3 1-2h6l-3-1-3-2c0-1 6-5 9-5l2-1 4-1 3-2c0-2-3-2-6-1-4 3-13 2-13-2 0-2 1-3 3-1 1 2 6 3 7 2l4-2c3 0 3 0 2-1-3-1-1-2 4-2 3 0 4-1 4-2 0-2-1-2-2-2h-1l4-2 1-2c-1-2 2-6 4-6l2-1 7-7c1 1 4-1 4-3-1-1 4-4 5-2 2 2 8 4 6 1-1-2 1-6 3-6 3 0 4 2 2 2a1 1 0 101 2l1 2 2 1 1-5c0-8 3-9 7-5l4 3c2 0 1-3-1-4-3-2-4-6-2-7 1-1 1-1 1 1 0 1 5 7 7 7s10-9 9-10c-2-1 0-3 2-3 2 1 10-5 10-8l2-2c2-1-1-4-4-4v-5l-3 1h-1c-1-1 1-6 4-9l2-4c0-2 4-7 5-7 2 0 4-3 4-6l1-2a33 33 0 00-1-18c0-3-3-5-6-6l-2-2c0-2-9-5-12-4-2 1-3 1-2-3 0-3 0-4-2-6l-3-4-2-3-1-3c0-4-3-9-6-9-2 0-5-4-5-6l-1-2c-3-1-2-4 1-7 3-4 4-3 2 2v6c2 2 2 2 2-2-1-5 2-12 3-10l1 3 2 2c2 0 2 1 2 4v1c0-3 3-2 4 1 2 2 3 3 3 1 0-1 1-2 3-2s3 1 3 2l1 1 1-2 2-2 1-1c-1-3 2-13 4-13l1 1 4 3c5 4 6 5 6 7-1 4 0 7 2 7l1 2c-1 2 0 5 1 3 1-1 2-1 5 1 4 3 5 3 5 0 0-2-1-3-4-4-3-2-3-2-2-7 0-4 2-8 2-5l1 1 1-4c0-4 1-5 3-2 2 1 2 1 3-1l2-4v-8l1-4v-3l-1-5-2-5-2-4c-2-2-2-2 0-4 3-3 1-8-3-9-3 0-7-5-7-7 0-1-2-2-5-2-2 0-9-7-9-9l2-4 1-4c-1-1 0-1 2-1l6 1h3l-3 2c-3 4-2 5 6 4 5 0 8 2 3 3v3h2c0-2 1-1 4 1 4 4 4 4 2 5-4 1 0 3 5 3h13v6c0 5 0 5-2 5s-2 0 0 1l2 2 4 2c4 0 5-1 2-4v-1l2-1 2-2v-3l-3-8v-1l-1-1c-1 0-2-1-1-4s-1-7-4-7c-2 0-1-3 1-3a2 2 0 000-5l-2-4-2-4-2-3-1-5-3-5c0-3-1-5-5-7l-5-2-2 2c-2 1-4 2-10 2-2 0-2 1-2 2 1 4 0 5-3 4-2-1-2-2-2-8l-1-6-5-1 2-2v-1c-1-2-6-2-12 0m-608 14v4c-3 5-3 6-2 7a28 28 0 0023 0l3 1c2 0 2 0-1-2-2 0-4-2-6-4l-6-3-6-2c-3-4-5-4-5-1m-57 6a21 21 0 01-12 7c1 1 23 1 23-1l1-2c2-1 2-2 0-4-1-3-1-3-5-2h-3l-4 2m189 9l-1 6-2 4c-1 4 3 3 6-1 1-3 1-4-1-8l-1-5c-1-1-1 0-1 4M7 188c-2 2-2 2-3 1l-3-2c-2 0-2 51 0 53l3 1c2-2 1-4-1-5l-2-3c0-1 3-2 3 0h6l4 1-1 1a1 1 0 101 2c1 0 1 1-1 3v1l5-5-1-1-1-1a2 2 0 013-1l2 2c5-1 10 0 10 1l-6 1c-7 0-7 2 0 2l6 1h1l1-2 3-10c1-2 1-2 2 0v7c1 2 1 2 2 1 1-2 4 0 4 2 0 3-5 5-7 3-1-1-1-1-1 2v13l1-2h1l1 2 1 3c2 2 2 3 1 6v7c3 0 5 4 5 6-1 2-3 3-3 0l-2-4-3-4-2-1c-1 0-2 0-1-1l3-1 2-1-1-1c-1 1-2-1-4-6-3-9-6-15-7-15l-1 4-1 3-3-2c-2-3-13-4-20-3l-3 1v55h3c2-1 3 0 1 3-3 3-4 4-4 6s3 4 6 4l2 1 3 1c2-1 4 0 6 1l5 4 1 1c-4 0-7-1-7-3h-1l-5-1-6-2H0v13c0 13 0 14 2 14 2 1 2 2 2 5s0 3 1 1v-4c-1-3 2-4 4-1 2 2 3 1 3-3 0-2 5-2 8 0l2-1 4-1 2-2 2-3c2-3 1-5-2-7l-4-3c0-2 5-1 7 1 3 4 7 2 9-4 1-3 9-9 10-8l-3 4-3 4-2 3-1 3c0 1-3 5-6 6-5 1-6 5-4 13 2 3-3 4-5 0a2 2 0 10-2 3c2 1 2 1 1 2v3c2 2 2 2-2 6s-4 4-6 2l-1-3v-7l-3 3-3 5-1 2-2 2c0 3-2 2-2-2 0-2-1-3-2-3-2-1-2-1-2 4 1 5 6 10 7 7 2-2 8-2 8 0 0 4-2 5-4 5-2-1-3 1-1 4 1 2 8-3 9-7l1-2-1 8-1 5c0 3 3 4 5 1v2c0 5-1 5-6 4-4 0-5-1-5-2 0-3-2-6-4-5l1 2c3 2 0 4-3 2l-3-1a35 35 0 004 13l-2 2-1 3-1-3c-1-6-4 1-4 12l1 8 1-2 3-4 3-3v3l1 4 1-2c0-5 2-13 4-14l4 2a18 18 0 01-2 20c0 2-3 1-5-2-1-2-1-2-1 3l-2 17c-1 4 0 5 1 6v1c-3 0-4 3-2 4 3 2 4 10 2 14v4l-2 2c-2 1-2 1-1 2 2 1 4-1 4-3l1-5c1-1 2-3 1-5 0-3 1-6 3-6l1-1-2-1c-1 1-2 0-2-1 0-3 1-3 5-1l7 1 4 1v3c1 2 1 3-1 5l-2 3 2-1 3-1c3 1 6-4 6-11 0-8 1-11 3-12l3-1 2-1 2-2c0-4 10-10 12-7h6c3 1 7-3 7-7 0-3 0-3-3-3-9 0-6-4 3-4 5 0 6-1 6-3l-2-2c-2-1-2-4 1-4s4 3 4 13c1 21 3 34 4 23 1-3 1-3 1 2l1 7 1-1v-2l-1-27c0-9 0-10-3-11l-2-3-1-3c-2 0-2-3-1-5v-9l2-3c3-3 5-7 3-9l-1-3v-10l1-6 1-5v-3c-2 0-2-1-1-1l1-3 2-4c2-1 3-3 1-3l-2 1-3 1h-4v-20c-1-13 0-21 2-20l2 1 2 1h5c4-1 4-1 3-5-2-4 1-8 4-8 2 0 3-1 3-5a22 22 0 014-8h15l21-1c5-1 5-1 10 3l7 4 2 3 2 4c2 2-3 7-6 7l-6 3a29 29 0 0013 12c5 4 6 2 1-2-2-3-2-4-2-7l-1-3h-1c0-4 7-3 10 1l3 2-1-10c2 0 7 4 7 6h2c2-1-2-4-11-10a79 79 0 01-13-8l-5-6h6c7-1 7-1 6-6-1-4-1-4-6-4s-5 1-5 4c0 2-2 3-7 4-4 0-6-3-2-4l1 1h3c2-3 0-5-3-5l-4-2c-1-3-2-4-4-2h-1l-2-2c-5-3-3-4 12-4l11-1 1-4c1-4 1-5-1-5l-2-2-3-4c-2-3-2-3 0-4 3-1 5-2 5-4v-6c2-9-2-14-10-13-2 1-7 0-12-1-11-1-12-1-17 8l-3 5-2 2c0 2-1 3-3 3s-3-2 0-3l1-3 1-1v-1l-3-2-3-1-3-2-3-1-3-3a24 24 0 00-36-12c-2 3-2 3-1 6l3 4c2-1 8 4 8 6s-2 2-5-1l-4-2-1-1-10-5c-4-1-5-2-6-5-3-6-6-7-14-7a11 11 0 01-9-1l-4-3-2-1 4 4c4 2 4 3 2 3l-2-1h-5l-2 3c0 4-4 3-5-2-1-2 0-3 2-5l2-3-2-1h4c1 1 1 1 1-1l-3-3c-3-1-2-1-4 1m282 2v3c0 1-1 2-3 1-2 0-2 0-1 1a5 5 0 008-2l1 2 1 1 1 2c0 2 0 2 1 1 1-2 4-3 4-1h1c1-1 0-3-1-2-2 1-2-3-1-4s0-1-3-1c-4 1-5 1-4-1h-4m192 7l1 2c2 2 1 5-2 5-3 1-3 0-3-2v-2l-2 2v3l1 4v3l1-3 2-3 7 6 3 4 2 1c0 2 2 2 2-1h-1c-2 0-5-4-5-8l-2-6v-4c-1-2-4-3-4-1m-449 6l-2 1c-2 0-3 2 0 2h2c0-3 2-2 2 0l2 12c0 6 1 6 2 0l1-4c1-1 5 3 7 7l3 4 1-1-2-3-1-2-1-1-1-2-1-1-4-4-2-4-2-3c-1-2-4-3-4-1m518 7c-1 4-1 5 1 7h1l3-1c2 0 2 0 1-2v-4c1-1 1-2-2-2-2-1-2 0-4 2m-86 4l1 2 1 4 1 4c2 0 3-3 3-6-1-1 0-2 1-3 3-1 1-3-3-3l-4 2m11 8c-2 2-2 6 0 5h1l5 1c4 1 4-1-1-5l-3-4-2 3m-160 2l4 4c2 2 3 3 2 4h1c3 0 3-8 0-8l-5-1-2 1m407 0l1 4c1 3-1 7-3 5l1-1v-3h-1c0 1-1 2-3 2-3 0-3 0-3 5 0 4 0 4 3 4 2 0 3 1 3 2l-1 6c-2 1 1 11 3 13a2 2 0 11-2 1l-4-5-4-4-4 3-4 4v3l-1 4-1 15c0 15 0 18 2 16l4 8c-1 1 5 6 7 6l1 4 3 6c4 5 8 11 5 11l-3-4c-1-2-2-3-4-3-4 0-4 2-1 7l2 6 2 3a6 6 0 010 11v-4c0-4 0-5-3-8-4-6-6-7-6-6v1a6 6 0 011 5c-1-2-2 0-2 6 0 8 0 9-3 11-2 0-3 1-3 2 1 1-1 8-2 8l-2 4-4 4-3 2-4 2c-1 0-1 3 1 5l1 3 2 2 1-2 2-4 2-5c0-3 0-3 3-2a15 15 0 0012-11c3-2 5-6 4-8-1-1-1-1 1-1 1 1 2 0 2-1l5-1c5 1 7-4 5-8-2-3-1-6 2-4 2 2 4 0 2-2l-1-6c0-4 0-5 1-4l1 4 1 3c1 0 2-1 1-3v-3l1-3 1-2 1 5c0 3 2 4 4 1h1l-3 4c-4 4-5 6-3 7v3c-1 1-1 1-1-1 0-4-3-2-4 3s0 10 2 6l5 2 6 4v-1l-1-1c2 0 3-2 2-3v-3c1-9 1-9-2-9-2 0-2 0 0-1 2 0 3-2 3-5l3-3 3-3 3-3c3-2 3-5 0-5l-2-2-2-2c-4-1-4-1-4 1l-2-2-2-4c-3 0-8-10-6-11v-8l-1-1-1 5-1 4-1 2c0 3-3 5-10 4l-6 1c-1 1-5-1-5-2a8 8 0 019 0v-3c-1-1-2-1-3-7 0-2-1-3-2-3l-1-4a5 5 0 012-5l3-3c2-2 2-2 3 1 0 4 7 5 7 1l2-1c2 0 2-9 1-11-2-1-6 5-5 7l-1 2-2-2-2-5c-2-2-2-10 0-11v-2c-2-4-2-8 1-9 1-1 2 0 2 1 1 2 4 3 4 2l-3-9-1-5-3-19h-4m-333 4c6 6 8 7 9 5l2-3 12-1 6-1c0-2-13-3-28-3h-5l4 3m-63 0l9 9c3 0 1 2-2 2l-3 1h3l6 2 4 3c2 1 1 2-3 3-4 0-4 0-2-1 2-3-1-5-6-4a4 4 0 01-5-1l2 4 4 5h6c1 0 2-1 1-2l1-1 3-1 3 2 5 8c1 1 1 2-1 2a7 7 0 00-3 2l3 1 4 2 3 1h2c1-2 4-1 8 4l5 3c4 0 4 2 1 2-4 0-4 2 0 4a7 7 0 006 2c-2 0-1 2 2 4 1 2 2 2 3 1 2-1 3 0 2 2-1 1-1 1 2 1s11 7 10 8l3 4c2 3 3 3 2 5-2 2-3 1-4-2v2c0 4 0 4-3 4-1 0-2 0-1-1l-2-3c-2-3-2-3-3-2h-4c-2-1-3-1-7 1l-5 2c-2-2-3-1-3 1l3 4 3 3 2 2c2 2 1 7-1 8h-3c-2-3-6-3-6-1l-2 5c-3 3-2 10 1 10l2 2c0 4 2 6 5 6l2 1 2 1c1-1 2 0 3 1h2l-1-3-2-2h-2c-1 3-7-6-7-11 0-2 4-5 7-5l3-1c2-1 3 0 4 4 0 2 0 2-2 1-2-2-2-2-2 0a7 7 0 001 9c0 2 3 5 4 4l-2-3c-3-3-3-3 0-6 2-2 6-1 6 2 0 2 3 2 9 1h5l-3-2-6-1c-2 0-3 0-3-3l-1-3c-3 0-5-2-3-6 1-2 1-2 2 0 0 2 1 3 5 2 3 0 4-4 7-16l2-4c2-1 1-7-2-8l-3-4-2-2-9-8a3143 3143 0 00-47-44l-9-7c-6-6-8-7-8-5m-228 9v9l3-2c3-2 3-3 2-5-1-3-3-4-5-2m203 0l2 1 1 1 4 2 4 4c0 1-2 1-5-1h-5c-4 3-4 4 0 4 4 1 5 0 3-1-3-2 0-2 3-1 4 3 5 2 5 0 0-3-1-4-4-6l-4-2c0-2-4-3-4-1m-61 22c1 25 2 90 1 92l-4 1c-5 1-6 3-1 2l5 1c2 7 3-12 3-49v-54c0-6 0-7-2-7h-2v14m8-13v10c0 10 1 11 2 1l2-10c0-2 0-2-2-2s-3 0-2 1m28 9c1 24 3 20 3-4v-4c0-1 0-2-2-2s-2 0-1 10m-47-8a7 7 0 004 2c0 1-1 3-4 4s-3 3 1 3c1 1 2 0 2-1l1-2c2 0 3-2 3-5-1-2-2-2-6-2h-4l3 1m-15 7c-2 2-2 2 0 2 3 0 4 0 4 3l2 11c1 1 1 5-1 5-1 1-2 27 0 27l1-3c0-2 0-2 1-1l1 12 1 12c1 1 1-8 1-44v-23l-1 2c-2 2-6 0-6-4 0-1-1-1-3 1m616 6c1 2 1 4-1 5l-1 4-1 3a4 4 0 102 7l-1-1c-3 0-2-3 1-6l3-2 1 1h1c2 2 3 1 3-1s-1-3-2-3v-9c1-2 1-2-2-2s-3 0-3 4m-75 0l-1 2-1 2-1 2-1 4c-1 2-1 3 1 5 3 3 5 3 6-1 2-4 3-10 1-10l-3-3-1-1m-14 3c-2 3-3 5 0 5l1 2-1 2-1 4c0 2 1 3 2 3v-2l1-3v-5l1-6c1-4 0-4-3 0m-132 1c-2 1-1 2 1 1 2 0 3 0 5 3l2 3 1 2c0 3 2 5 3 5l1-2c-1-1 0-2 1-2l1-1c0-1-5-5-7-5l-1-2c0-3-3-4-7-2m-353 1c0 3-3 3-6 2-2-2-2-2-2 2l-1 7 1 2 1-2c0-2 2-4 3-4v2l1 2 1-2 1-2 1-2c0-1 0-2 1-1 2 0 3-1 2-3 0-2-2-2-3-1m6 1c0 2 2 6 4 6l4 2c3 2 5 2 5 0a2 2 0 00-3-2h-4l2-2 2-3 1-1 1-1-6-1c-4 0-6 1-6 2m-175 3v3l-4 3c-3 3-7 5-13 5-6 1-9 3-7 6h1l1-1 4-2 6-2c3 0 5-1 5-2l3-1 3-1h13c2-1 0-2-3-3-3 0-6-1-5-2l5-2 4-2h-5c-3 1-4 1-5-1-2-2-3-1-3 2m80-1v6l1 2 2 2c1 0 2-3 1-6v-2c-1-2-2-3-4-2m7 0v2l2 2c0 4 1 6 3 6s2 0 1-2v-3c-1-2 3-4 4-3l-1 2c-2 0-1 3 1 3l1 3c0 2 0 2 2 1l3-2c3 1 5-2 5-6 1-4 2-4-11-3h-10m26 0l2 3v1c-1 0-2 1-1 3l-1 3h-1l-1 2-1 1h3l3-3 2-1c3 0 1-9-2-10l-3 1m78 17l1 10h-3c-4-1-6 0-7 3 0 3 3 4 3 1l4-3 4-1c1-2 0-17-1-18s-1 1-1 8m624-5l1 8v6l2-3c3-3 2-11-2-11h-1m-563 2c-3 2-3 4 0 4h2l-1 1-1 2c0 2 0 2 2 0 2-3 3-3 5-3 2 1 5-2 3-4h-10m408 5c-2 4 1 14 3 11v-2c-2-1 0-8 1-8 1 1 2 0 1-2 0-3-4-3-5 1m-701 0v2c-1 0-2 5 0 5l2-1c2-3 4-2 4 1-1 1 0 2 1 2l1 2 1 1 1 3v2l2-2 3-2c2 0 1-2-1-3a1 1 0 111-2c3 3 3-1 0-4-3-4-5-3-4 1 0 3-2 3-3-1l-3-3-2-1-3-2v2m827 1c-1 2 1 29 2 31l1-16c0-15-1-18-3-15m-320 2l-1 4c0 4 4 4 6 1 3-3-2-8-5-5m-443 3v2c1 1 1 3-1 5v2l3-1v-1c0-2 4-4 6-3h2c1-3-8-7-10-4m169 7l-1 3-1 2h-2l-2-1c-1 0 0 3 4 7 2 3 3 3 3 2l-1-9v-4m208 2c-1 2 1 5 3 5s3 1 5 5l2 5-1-4v-8c0-3-1-4-4-4l-5 1m13 9c-2 2-2 2 0 3 2 0 3 1 3 3l2 5c2 1 2 1 2-1l-1-4c-1-2-1-3 1-2 2 0 3-1 1-4-1-2-7-2-8 0m-431 1c-1 3-5 5-8 5-1 0-1 1 1 2l5 5 3 3c2-1 2-11 1-15l-1-2-1 2m660 3v4l1 2 1-1v-3h1l1 3v5c0 5 2 3 2-4l1-7c1-1 0-2-3-2-4 0-4 0-4 3m-594 4l-3 1c-3 0-4 3-3 5l1 4 4-2c4-3 4-4 3-6l-2-2m16 0c0 1 9 7 11 7 2-1 2-3 0-4l-2-1c1-1 0-2-1-1l-3-1h-5m71 14v12l1 10 3-1c5 0 7-2 3-2-5 0-5-1-5-12 0-9 0-11-2-7m590 3l-2 6c1 1 0 2-1 2l-1 5-1 6v3c1 1 2 2 3 1l2-1c2 1 0 4-3 5l-2 3v11l1 7c0 4 4 10 11 13l7 5 7 4 5 2 2 2v-2l2-2 2-2s1-2 3-2c3-1 3-1 2-2-2-1-2-1 0-3 3-3 2-8-1-10s-3-2-11-1c-5 2-8 2-10 1l-2-1 2-1 4-1c3 0 3 0 3-4l1-4 1-3c0-2 2-6 6-10l1-2h5l-1 3-1 5-1 5c-1 0-2 2-2 5 0 5 0 5 2 5s3-1 3-2v-2l3-5c2-2 2-2 4-1l2 2v-1l-1-3 1-3v-1l2-4 2-4c-2 0-2-3-1-5 1-1 1-1-1-1-4 1-6-2-3-4l3-1 2-1-5-1-5-1-1-3c-1 0-2 0-2 2h-3v4c-1 1-2 2-1 3l-1 1-2-2-3-3h-2l2 1c3 2 3 3 0 3l-3-1-1-2-2-1-2-1v-2c1-2 2-2 4-1 3 0 3 0 2-1l-2-4c-1-2-1-2-2-1h-1c0-5-15-6-19-2m-628-1l-2 1h-3l6 6 5 3c4 3 5 4 7 2l2-1c4 0 2-2-4-3-5-2-9-5-10-8h-1m33 3l-3 2c-2 0-5 5-5 7l4 1c3 0 3 0 3 4s-3 6-4 2l-2-2-1 2 1 2h1l4 3c3 4 4 4 4-4 0-7-1-11-2-9-1 1-4 0-4-2-1-1 0-1 2-1 3 1 3 1 4-1 2-6 1-8-2-4m-58 14l-3 1c-4 0-4 0-4 2l-2 4-2 3 3-2c2-2 4-3 5-2l5-1c2-2 3-2 4-1 1 2 2 1 2-2l-3-1h-2l-1-1h-2m15 7c-3 2-2 4 2 4l6 3 3 2-2-4-3-4c0-2-3-3-6-1m-76 3c-3 10-3 16 0 16 1 0 2-15 1-16h-1m100 2l-3 1c-3-1-5 0-5 3v5l2-3c0-3 2-2 3 1 0 3 1 4 3 1 1-1 1-1 3 1l2 2v-3l-1-6c-1-4-3-5-4-2m365 1l-9 1h6c9 2 11 2 17 1 12-1 0-3-14-2m95 2l-1 3-2-2c-3-3-3-2-2 2 2 4 3 6 5 6l3 2c1 1 1 1 1-1v-6c1-7-2-10-4-4m-608 2l1 2c2 3 1 13-1 15-4 2-7 6-7 7 0 2 2 1 3-1s1-3 3-2c2 0 3-1 5-9v-6l-1-4c0-3-1-4-3-2m172 6l-1 29 1-1 1-3v-27l-1 2m642 0c-1 3 0 8 2 9l2 5 2 3 2 2 3 6c2 3 2 4 1 6-1 3 0 7 1 7l1-3 1-5v-3l1-2c2 1 1-5 0-7h-2c1 2 1 6-1 6l-2-3-4-7-3-7-4-7m-116 3l-2 7-1 2c0-3 0-3-1-1s0 9 1 11c3 3 4 1 4-8l2-13v-1l-3 3m121 0l1 4 5 6c1 3 2 2 2-1v-5l-4-2-1-2-2-2c-2-1-2-1-1 2m-629 0c-3 0-4 1-5 6l-1 3 2-3c4-3 7-2 6 3 0 3 0 3 1 2 3-4 1-12-3-11m513 3v23c2 0 3-7 3-17-1-9-3-14-3-6m-616-1l-3 3-3 1 2 1c2 1 4 2 5 1l1 1h3l1 2 2 2 6 2c4 4 24 4 27 0 3-3 3-4 0-4-1 0-2 1-2 3v2h-22l-4-4c-4-3-5-5-3-8 1-1 0-2-4-1l-4-1c0-3-2-2-2 0m624 3c1 2 0 5-1 3-1-1-1 0-1 2v10l1-3c0-5 1-7 2-2 1 6 3 6 3 1 1-5-1-12-3-13-2 0-2 0-1 2m-104 6l1 2 1 4c0 3 1 4 3 4 2 1 2 1-1 2s-4 4-1 4c2 0 4 2 8 7 2 2 9 3 9 1l-3-1c-4 0-9-6-9-11 0-3 0-4-2-5s-3-2-3-5-1-4-3-2m-459 10c0 3 0 3-2 3s-2 0-3 2c0 4 1 5 2 2 2-5 5-2 4 3-1 4-1 5 2 3 2-2 2-3 0-2v-2c1-3 0-8-2-10s-2-2-1 1m661-2h-3c-2 0-3 1-3 2 0 2-1 3-3 4l-2 3-2 3-2 2 2 2 2 1c0-2 1-2 4-2 4 0 7-3 5-7-1-3-1-3 1-3l2 1 1 1c2 0 1-3-1-4v-2c1-2 0-3-1-1m-126 2c-2 2-2 2 0 1 2 0 2 0 1 2l1 4c2 4 4 5 4 2 1-2 4-3 4 0l1 2c2 1 1-4-2-7l-2-3c1-1-1-3-3-3l-4 2m-9 0l-9 2c-11 0-14 2-11 6h2l2-1 6-1h14c1 1 1 0 1-1l-1-4c0-2-4-3-4-1m-604 4l1 1v1l2 2 2 2 3 1 6-1c3 0 2-2-2-3h-4l-4-3c-3-2-4-3-4 0m210 4l1 1 1 2c1 3 4 4 4 2l2-2c2-2 1-4-2-4h-3c-1-2-3-1-3 1m200 0c2 4-9 6-12 3-1-1-2-2-3 0l-6 5c-5 5-8 13-8 23l-1 6-6-1-9 1-5 1a19 19 0 00-28-7c-2 2-2 2-4 1v3l-1 5v1c3 2 2 5 0 6-3 1-3 1-1 3l2 4 1 1c2 0 1 3-1 6l-1 4c1 0 2 4 1 7-2 5-3 12-2 14 2 3 4 4 4 2l2-1v2c-1 1-2 4 0 7a6 6 0 0010 1v-2l2-7c1-5 2-7 5-7 4 0 6 2 4 4v4l-1 2-4 5v3l-2 4c-1 2-1 2 30 2 22 0 31 0 30-1s-2-2-1-4l-1-3c-2 0-2-1-1-2 1-2 1-4-1-7l-2-5c0-1-1-2-3-2s-3-1-2-2h4c2-4 9-6 9-2 0 1 2 2 3 0 2-1-2-4-4-4s-2 0-1-1l3-4 3-3 1-1c0-2-2-2-4 0-3 2-5 1-4-1 2-2 6-4 9-4 2 1 2 0 2-1-1-2-1-2 4 0 4 1 4 1 4-1 0-3 2-3 3 0l5 3c3 1 5 3 6 5 2 4 3 4-3 4-3 0-3 0-3-2s-1-3-2-3c-2 0-4-2-3-3l-1-1c-1 0-2 1-2 3l2 2 2 1c0 3-1 5-3 5l-1 1 1 1 1 1-2 1-8 5-2 1c-3 0-7 3-7 6-1 2-1 2 1 2s3 2 1 4v2l2 3c-1 1 0 2 1 3v2c-2 2-2 2 8 2s11 0 11-2c1-3 25-3 25 0 1 2 1 2 2 0 0-2 2-4 4-4l1-2-1-4c0-4-4-12-6-12h-1c1-1-8-9-11-11-3-1-4-3-2-5v-3c-1-3 2-5 6-4 3 0 3 0 2-1l-2-1-4-4-3-3h2l4 1c1 1 1 1 1-1s-1-2-4-2c-4 0-5 0-5-2 0-1 1-2 5-1 8 1 9 2 8 5-2 3-1 3 6 3l6 1h1l-1-3-2-1c-3 0-3-2 0-3 4-2 3-9-3-10-2 0-3-1-3-2s1-2 2-1l2-1-2-3-2-4-3-5-4-5c-1-2-6-3-11-3l-5 2-5 2c-3 0-4 0-4 2 0 3-3 6-5 7l-3 3c0 2-1 2-1 1l-4-1c-6 0-5-8 1-14 5-5 5-9 3-11l-2-2-2-2-1 1m77 5l-1 2-1 2h-2l3 6 4 4c0 2 2 1 3 0l2-2 3-3c1-6 1-6-2-6-2 1-2 1-2-1 0-3-1-3-3-1-2 1-3 1-3-1h-1m-513 7l1 1 1 1 2 2 2 3 2 1 2 2 1 1 1 4 1 4 7 3 4 5a14 14 0 014 9l1-2 1-3c1 0 0 5-2 6v20l1-10 1-8 1 9c0 8 0 8 1 5l1-9v-11c1-6 0-13-2-10-1 2-5 1-9-3l-4-5-4-4c-4-4-5-6-3-6h-1l-6-3c-3-4-4-5-4-2m345 7c0 1 2 4 4 3l1 1c0 3 2 2 2-1 1-4-5-8-7-3m-425 5v4c0 2 0 3-2 4-2 2-2 2-1 3 1 2 2 2 4 0 3-3 4-5 2-7l-2-2h2c1-1-2-4-3-2m107 0c-1 1 0 2 2 3s3 3 1 3l-3-1h-1l2 2 1 1 2 1 1-1 4-4c3-1 1-3-1-3-1 1-2 0-3-1h-5m502 10c-2 10-1 13 1 14h3v-6c-1-3-2-6-1-8 1-6-2-6-3 0m2 17c-2 0-2 1-2 6a45 45 0 005 18l1 5c2 2 2 6 1 7l-1-1c0-5-8 0-10 5-1 2-1 2-4-1s-7-4-7-2l-2 1-2 1-2 1c-2 1-4 6-3 9l-1 3-1 2h42c40 0 40-1 38-2l-5-2c-2-1-4-4-4-7l-3-5-4-6-1-2-2-1-2-2h-1c2 1-2 2-5 1h-4c-1 1-4 0-4-3l-4-6-4-7a3 3 0 00-6-4l1-2c2-1 1-6-1-7l-3 1m-559 7c-3 0-3 1-2 2l2 3c0 2 4 5 6 4 3-3-2-10-6-9m515 1c-3 2-1 6 3 6 3 0 5-4 2-5-3-2-3-2-5-1m155 3c-1 4 0 5 4 5 3-1 5-1 6-3s1-2-1-2c-1 1-2 1-3-1l-2-1v4c-2 1-3-1-2-3l-1-2-1 3m-80 6l-4 3-4 1-2 1c-2 0-2 0-1 2h3l5-1c4-1 7-3 6-5s-3-2-3-1m-592 3l-5 3c-5 3-6 5-3 5 3 1 1 3-2 3-4-1-4 0 0 2 5 1 8-2 5-6-1-1-1-1 2-1 2 0 3 0 3-2l2-2 1-2h-3m788 0l-2 2-4 2-6 3-4 3-3 2-1 1h29c23-1 29-1 24-4l-6-5-4-4-3 2-4 4a5 5 0 01-9-3 4 4 0 00-7-3m-30 13a28 28 0 00-7 9c0-1-2 0-3 2l-1 2-2 3a7 7 0 01-3 4c0 3 13 1 17-2 5-4 11-10 11-12h5a3 3 0 10-4-3c-2 1-3 1-3-1l-3-2c-4 0-5-2-2-2l2-2c0-2-2-1-7 4m-72-2l-2 2-3 3-2 2-3 3-4 3c-1-1-7 2-9 4-2 1-1 2 1 1 3 0 1 2-2 4-2 1 0 1 8 1l10-1 1-8c0-7 0-7 4-7l5-2 2-2-2-2c-2-1-3-2-4-1m103 6l-2 1c2 0 3 2 2 4v4c0 1 0 2 2 2s2-1 2-5c0-5 1-7 2-4h1l6-1 6-1h-19m47 0c-1 1 4 6 6 7l2 3c0 2 1 3 2 3l1 2 1 2c3 0 1-6-5-12s-7-7-7-5m-193 14l-3 1-10 1h-11l11 1c11 0 18-1 18-3h-5"
    itemprop="bold" fill-rule="evenodd" tabindex="-1" fill="url(#16282281824-posters-1653326021455-vertical-bold"
    fill-opacity="" stroke="url(#16282281824-posters-1653326021455-radial-regular" stroke-opacity=""></path>
  <!---->
</svg>
