<svg id="16282281824-posters-1657396643332" itemscope="" itemtype="/posters"
  itemid="/+16282281824/posters/1657396643332" viewBox="0 0 512 683" preserveAspectRatio="xMidYMid slice" tabindex="0"
  xmlns="http://www.w3.org/2000/svg">
  <defs class="gradients">
    <g class="radial">
      <radialGradient id="16282281824-posters-1657396643332-radial">
        <stop itemprop="radial" stop-color="hsla(219, 16%, 68%, 1.00)" offset="0%"></stop>
        <stop itemprop="radial" stop-color="hsla(214, 5%, 55%, 1.00)" offset="15%"></stop>
        <stop itemprop="radial" stop-color="hsla(200, 3%, 40%, 1.00)" offset="30%"></stop>
        <stop itemprop="radial" stop-color="hsla(180, 1%, 51%, 1.00)" offset="45%"></stop>
        <stop itemprop="radial" stop-color="hsla(90, 1%, 54%, 1.00)" offset="60%"></stop>
        <stop itemprop="radial" stop-color="hsla(214, 5%, 51%, 1.00)" offset="75%"></stop>
        <stop itemprop="radial" stop-color="hsla(219, 11%, 45%, 1.00)" offset="90%"></stop>
      </radialGradient>
      <radialGradient id="16282281824-posters-1657396643332-radial-background">
        <stop stop-color="hsla(219, 16%, 80%, 1)" offset="0%"></stop>
        <stop stop-color="hsla(214, 13%, 80%, 1)" offset="15%"></stop>
        <stop stop-color="hsla(200, 13%, 80%, 1)" offset="30%"></stop>
        <stop stop-color="hsla(180, 13%, 80%, 1)" offset="45%"></stop>
        <stop stop-color="hsla(90, 13%, 80%, 1)" offset="60%"></stop>
        <stop stop-color="hsla(214, 13%, 80%, 1)" offset="75%"></stop>
        <stop stop-color="hsla(219, 13%, 80%, 1)" offset="90%"></stop>
      </radialGradient>
      <radialGradient id="16282281824-posters-1657396643332-radial-light">
        <stop stop-color="hsla(219, 16%, 66%, 1)" offset="0%"></stop>
        <stop stop-color="hsla(214, 5%, 66%, 1)" offset="15%"></stop>
        <stop stop-color="hsla(200, 3%, 66%, 1)" offset="30%"></stop>
        <stop stop-color="hsla(180, 1%, 66%, 1)" offset="45%"></stop>
        <stop stop-color="hsla(90, 1%, 66%, 1)" offset="60%"></stop>
        <stop stop-color="hsla(214, 5%, 66%, 1)" offset="75%"></stop>
        <stop stop-color="hsla(219, 11%, 66%, 1)" offset="90%"></stop>
      </radialGradient>
      <radialGradient id="16282281824-posters-1657396643332-radial-regular">
        <stop stop-color="hsla(219, 16%, 44%, 1)" offset="0%"></stop>
        <stop stop-color="hsla(214, 5%, 44%, 1)" offset="15%"></stop>
        <stop stop-color="hsla(200, 3%, 44%, 1)" offset="30%"></stop>
        <stop stop-color="hsla(180, 1%, 44%, 1)" offset="45%"></stop>
        <stop stop-color="hsla(90, 1%, 44%, 1)" offset="60%"></stop>
        <stop stop-color="hsla(214, 5%, 44%, 1)" offset="75%"></stop>
        <stop stop-color="hsla(219, 11%, 44%, 1)" offset="90%"></stop>
      </radialGradient>
      <radialGradient id="16282281824-posters-1657396643332-radial-bold">
        <stop stop-color="hsla(219, 16%, 13%, 1)" offset="0%"></stop>
        <stop stop-color="hsla(214, 5%, 13%, 1)" offset="15%"></stop>
        <stop stop-color="hsla(200, 3%, 13%, 1)" offset="30%"></stop>
        <stop stop-color="hsla(180, 1%, 13%, 1)" offset="45%"></stop>
        <stop stop-color="hsla(90, 1%, 13%, 1)" offset="60%"></stop>
        <stop stop-color="hsla(214, 5%, 13%, 1)" offset="75%"></stop>
        <stop stop-color="hsla(219, 11%, 13%, 1)" offset="90%"></stop>
      </radialGradient>
    </g>
    <g class="vertical">
      <linearGradient id="16282281824-posters-1657396643332-vertical" x1="0" x2="0" y1="0" y2="100%">
        <stop itemprop="vertical" stop-color="hsla(220, 14%, 66%, 1.00)" offset="0%"></stop>
        <stop itemprop="vertical" stop-color="hsla(214, 3%, 46%, 1.00)" offset="15%"></stop>
        <stop itemprop="vertical" stop-color="hsla(200, 1%, 48%, 1.00)" offset="30%"></stop>
        <stop itemprop="vertical" stop-color="hsla(180, 1%, 53%, 1.00)" offset="45%"></stop>
        <stop itemprop="vertical" stop-color="hsla(215, 6%, 42%, 1.00)" offset="60%"></stop>
        <stop itemprop="vertical" stop-color="hsla(220, 14%, 66%, 1.00)" offset="75%"></stop>
        <stop itemprop="vertical" stop-color="hsla(214, 3%, 46%, 1.00)" offset="90%"></stop>
      </linearGradient>
      <linearGradient id="16282281824-posters-1657396643332-vertical-background" x1="0" x2="0" y1="0" y2="100%">
        <stop stop-color="hsla(220, 14%, 80%, 1)" offset="0%"></stop>
        <stop stop-color="hsla(214, 3%, 80%, 1)" offset="15%"></stop>
        <stop stop-color="hsla(200, 1%, 80%, 1)" offset="30%"></stop>
        <stop stop-color="hsla(180, 1%, 80%, 1)" offset="45%"></stop>
        <stop stop-color="hsla(215, 6%, 80%, 1)" offset="60%"></stop>
        <stop stop-color="hsla(220, 14%, 80%, 1)" offset="75%"></stop>
        <stop stop-color="hsla(214, 3%, 80%, 1)" offset="90%"></stop>
      </linearGradient>
      <linearGradient id="16282281824-posters-1657396643332-vertical-light" x1="0" x2="0" y1="0" y2="100%">
        <stop stop-color="hsla(220, 21%, 66%, 1)" offset="0%"></stop>
        <stop stop-color="hsla(214, 21%, 66%, 1)" offset="15%"></stop>
        <stop stop-color="hsla(200, 21%, 66%, 1)" offset="30%"></stop>
        <stop stop-color="hsla(180, 21%, 66%, 1)" offset="45%"></stop>
        <stop stop-color="hsla(215, 21%, 66%, 1)" offset="60%"></stop>
        <stop stop-color="hsla(220, 21%, 66%, 1)" offset="75%"></stop>
        <stop stop-color="hsla(214, 21%, 66%, 1)" offset="90%"></stop>
      </linearGradient>
      <linearGradient id="16282281824-posters-1657396643332-vertical-regular" x1="0" x2="0" y1="0" y2="100%">
        <stop stop-color="hsla(220, 14%, 44%, 1)" offset="0%"></stop>
        <stop stop-color="hsla(214, 3%, 44%, 1)" offset="15%"></stop>
        <stop stop-color="hsla(200, 1%, 44%, 1)" offset="30%"></stop>
        <stop stop-color="hsla(180, 1%, 44%, 1)" offset="45%"></stop>
        <stop stop-color="hsla(215, 6%, 44%, 1)" offset="60%"></stop>
        <stop stop-color="hsla(220, 14%, 44%, 1)" offset="75%"></stop>
        <stop stop-color="hsla(214, 3%, 44%, 1)" offset="90%"></stop>
      </linearGradient>
      <linearGradient id="16282281824-posters-1657396643332-vertical-bold" x1="0" x2="0" y1="0" y2="100%">
        <stop stop-color="hsla(220, 14%, 13%, 1)" offset="0%"></stop>
        <stop stop-color="hsla(214, 3%, 13%, 1)" offset="15%"></stop>
        <stop stop-color="hsla(200, 1%, 13%, 1)" offset="30%"></stop>
        <stop stop-color="hsla(180, 1%, 13%, 1)" offset="45%"></stop>
        <stop stop-color="hsla(215, 6%, 13%, 1)" offset="60%"></stop>
        <stop stop-color="hsla(220, 14%, 13%, 1)" offset="75%"></stop>
        <stop stop-color="hsla(214, 3%, 13%, 1)" offset="90%"></stop>
      </linearGradient>
    </g>
    <g class="horizontal">
      <linearGradient id="16282281824-posters-1657396643332-horizontal" x1="0" x2="100%" y1="0" y2="0">
        <stop itemprop="horizontal" stop-color="hsla(219, 12%, 61%, 1.00)" offset="0%"></stop>
        <stop itemprop="horizontal" stop-color="hsla(214, 3%, 51%, 1.00)" offset="15%"></stop>
        <stop itemprop="horizontal" stop-color="hsla(120, 0%, 45%, 1.00)" offset="30%"></stop>
        <stop itemprop="horizontal" stop-color="hsla(60, 1%, 53%, 1.00)" offset="45%"></stop>
        <stop itemprop="horizontal" stop-color="hsla(60, 2%, 53%, 1.00)" offset="60%"></stop>
        <stop itemprop="horizontal" stop-color="hsla(207, 5%, 43%, 1.00)" offset="75%"></stop>
        <stop itemprop="horizontal" stop-color="hsla(213, 10%, 39%, 1.00)" offset="90%"></stop>
      </linearGradient>
      <linearGradient id="16282281824-posters-1657396643332-horizontal-background" x1="0" x2="100%" y1="0" y2="0">
        <stop stop-color="hsla(219, 12%, 80%, 1)" offset="0%"></stop>
        <stop stop-color="hsla(214, 3%, 80%, 1)" offset="15%"></stop>
        <stop stop-color="hsla(120, 0%, 80%, 1)" offset="30%"></stop>
        <stop stop-color="hsla(60, 1%, 80%, 1)" offset="45%"></stop>
        <stop stop-color="hsla(60, 2%, 80%, 1)" offset="60%"></stop>
        <stop stop-color="hsla(207, 5%, 80%, 1)" offset="75%"></stop>
        <stop stop-color="hsla(213, 10%, 80%, 1)" offset="90%"></stop>
      </linearGradient>
      <linearGradient id="16282281824-posters-1657396643332-horizontal-light" x1="0" x2="100%" y1="0" y2="0">
        <stop stop-color="hsla(219, 12%, 66%, 1)" offset="0%"></stop>
        <stop stop-color="hsla(214, 3%, 66%, 1)" offset="15%"></stop>
        <stop stop-color="hsla(120, 0%, 66%, 1)" offset="30%"></stop>
        <stop stop-color="hsla(60, 1%, 66%, 1)" offset="45%"></stop>
        <stop stop-color="hsla(60, 2%, 66%, 1)" offset="60%"></stop>
        <stop stop-color="hsla(207, 5%, 66%, 1)" offset="75%"></stop>
        <stop stop-color="hsla(213, 10%, 66%, 1)" offset="90%"></stop>
      </linearGradient>
      <linearGradient id="16282281824-posters-1657396643332-horizontal-regular" x1="0" x2="100%" y1="0" y2="0">
        <stop stop-color="hsla(219, 18%, 44%, 1)" offset="0%"></stop>
        <stop stop-color="hsla(214, 18%, 44%, 1)" offset="15%"></stop>
        <stop stop-color="hsla(120, 18%, 44%, 1)" offset="30%"></stop>
        <stop stop-color="hsla(60, 18%, 44%, 1)" offset="45%"></stop>
        <stop stop-color="hsla(60, 18%, 44%, 1)" offset="60%"></stop>
        <stop stop-color="hsla(207, 18%, 44%, 1)" offset="75%"></stop>
        <stop stop-color="hsla(213, 18%, 44%, 1)" offset="90%"></stop>
      </linearGradient>
      <linearGradient id="16282281824-posters-1657396643332-horizontal-bold" x1="0" x2="100%" y1="0" y2="0">
        <stop stop-color="hsla(219, 12%, 13%, 1)" offset="0%"></stop>
        <stop stop-color="hsla(214, 3%, 13%, 1)" offset="15%"></stop>
        <stop stop-color="hsla(120, 0%, 13%, 1)" offset="30%"></stop>
        <stop stop-color="hsla(60, 1%, 13%, 1)" offset="45%"></stop>
        <stop stop-color="hsla(60, 2%, 13%, 1)" offset="60%"></stop>
        <stop stop-color="hsla(207, 5%, 13%, 1)" offset="75%"></stop>
        <stop stop-color="hsla(213, 10%, 13%, 1)" offset="90%"></stop>
      </linearGradient>
    </g>
  </defs>
  <rect itemprop="background" width="100%" height="100%" tabindex="-1" id="16282281824-posters-1657396643332-background"
    fill="url(#16282281824-posters-1657396643332-radial-background)"></rect>
  <path id="16282281824-posters-1657396643332-light"
    d="M0 46v47l3 1h5c2-1 2-6 1-6-3-1-2-8 0-8l4 1 3 1c2 0 3 3 1 5l-1 3-2 3h-3c-1 1 2 3 3 2a22 22 0 0111 5l3 2h-1v4h-1c-1-1-1-1-1 1l1 1 2 1c2 3 5-1 5-6s1-7 3-7c1 1 1-4-1-5-2-2-1-3 1-3 1 0 2-1 2-3 0-1 0-2-1-1l-1-2c1-1 0-3-3-6-4-4-4-4-4-10l-1-4v-1h1l1-1 2-1 1-1 2-1 1-1v-1l2-1a13 13 0 010-4h-3l1-1c1 0 0-3-2-5v-2l1-2 1-3c2-3 1-8-1-7l-1-1c1-1 0-2-1-1l-1-1-1-2-3-1 1-1h1v-1c-2 0-2-5 0-6 1-1 1-1-1-1s-2 0-1-5l-1-5-4-3c-3-2-4-2-13-2H0v46M309 1a1578 1578 0 0037 29l-3 7c-5 7-5 6 0 9 4 3 5 5 14 26l7 17c-1 3 0 3 10 11 13 8 8 1 34 56l16 35-8 10-8 9c0 3 2 5 7 8 5 2 5 3 15 24a810 810 0 0116 35l4 8 2 4-4 4-4 7-3 7c-2 6 1 9 30 24 16 9 18 10 13 10-2-1-2 0-1 1v2c2 1 2 1 1 2l-2 1h-1l2 3v2h-1l-3-1-4 1c0 1-2 1-4-1s-3 0-1 2v1h-3c-1 1-2 0-4-1-2-2-2-2-3-1-2 2-2 4 0 5h-1c-3 0-3 0-2 1v1c-3-1-3 3 0 6l2 2-2 1h-3c-2-1-4 1-3 3 0 2 0 2-1 1-3-3-7-4-9-2-1 1-1 2 1 3l2 2-3-1c-2 0-2 0-1 1v2l3 4 2 2-3 3-3 3-7-3-8-3-1-7c1 0 3 4 2 6h2c0 2 1 2 3 2 1-1 2 0 2 1l1 1-1-7c-1-1-2 0-1 2 0 3-2 3-3 0v-4c-3 0-3-4 0-7s3-7-1-7-11-4-12-7c-1-4-1-5 1-5v2l2 4 2 3c1 0 1-6-1-6-2-1-1-5 2-7s3-3 0-5-4-4-3-6c1 0 1-1-1-1-2-1-2-1-2 2 1 3 1 3-2 2-5-2-8-7-4-7l1-1 3-4c3-3 3-3 2-4-4-2-5-4-4-6 1-1 1-1-1-2h-2l1 1v1c-1 2-8-1-10-5-1-2-1-2 2-1l3 1 2-4c4-2 4-3 0-5-1-2-2-3-1-4 0-2 0-2-1-1-2 2-2 2-5 0-3-1-4-2-3-3a2 2 0 013-1c-1 0 0-2 2-3l3-3-3-2-3-4a2 2 0 00-2-2l1 1v1c-1 1-3 0-4-1l-3-1 3-4c5-4 5-6 2-7-2 0-2-1-2-2 1-1 0-2-1-3-2-1-2-1-1 1l-1 2c-2 0-2-5 0-8s2-3-1-4c-2-2-2-2-1-4v-1h-2c0 3-2 2-3-1 0-1 0-3 2-4 2-3 2-3 0-4-1-1-2-3-1-4l-1-1h-1v1c0 2 0 2-1 1-2-1-2-5 0-7 1-2 1-2-1-4l-1-3-1-1c-1-1-2 0-1 1l-1 1c-1-1-1-4 1-7 1-2 1-2-1-3-1-1-2-2-1-3h-1c-3 2-3 0-1-3s3-5 0-5v-2l-1-1c-2 0-2 0-1-3 2-2 2-2 1-4l-1-2-1-1h-2l-2-1 2-2c2-2 1-4-2-6-1 0-2-1 0-1 1 1 1 1 0 0s-1-2 1-3c1-2 1-2-1-4-3-1-3-2-1-4 1-3 1-3-1-4-4-2-4-3-3-5 1-3-2-8-3-6l-1-1 1-1c2-2 1-4-2-6-3-1-3-2-1-3 2-3 1-4-5-8l-6-4 3-4c4-6 4-6-19-22l-22-16-2-5c-2-4-18-15-19-14l-1 2c0 7-8 5-10-3-1-9-1-9-11-16-8-6-12-7-15-5-1 1-7-3-23-14-17-12-22-15-23-14l-14 28-14 27c-2 1-34 68-34 73l-10 22c-9 20-10 21-9 23 1 1 0 5-3 10-2 4-4 8-3 9l-2 5-1 4-1 5-2 5-1 5c-2 3-2 4-1 5s1 2-1 5c-2 6-2 6 0 6s1 1-1 6l-2 6c1 0 0 3-2 5-2 5-3 6 0 6 2 1 2 1 1 4l-1 2-2-2c-2-2-2-3-1-6 2-3 2-4-1-4l-3-2c-4-4-11-5-16-3s-9-3-6-8c3-6 0-11-5-11l-4-1c0-2-6-2-8-1-2 3-3 1-3-3 0-5 2-8 4-7l1-1c1-2 1-4-1-4h-3c-2-2-3 0-2 3 0 2-1 3-3 1s-3-5-1-5c1 0 2-4 1-6-2-2 1-6 4-5 3 0 6 4 7 7 0 1 4 7 6 7l1-2 4-4c2-3 3-4 3-13v-24c1-1 0-2-1-4l-3-4h-2c-2 3-5 1-4-3 0-3 0-4-3-6l-4-4h-4l-6-1h-3l-1-1c1 0-5-3-8-3l-5-5-2-3-2-4-2-2c-1 1-3-2-3-4s1-3 5-8c3-3 1-10-5-10l-9-8-3-3-2-3-2-3-2-3-1-2c-1-1-1 61-1 185 0 177 0 187 2 187 3 0 4 1 4 2H4l-1 1 2 1 4 3 3 2c4 0 4 2 2 7s-2 5-6 5c-3 0-4 1-6 4l-2 4v178h513V444l-1-342V0H366l-7 11c-6 10-10 14-9 9 1 0 1-1 0 0l-1-1-1-6-1 1c2 4 0 2-3-3-2-5-3-6-1-8l1-2-18-1c-10 0-18 0-17 1M0 290c0 102 1 144 1 93a40756 40756 0 00-1-93m400-171l17 32 16 31 2-3 3-3-2-4c-21-40-26-47-29-50l-7-3m-190 77c0 2 3 4 8 7l14 7c7 4 10 3 4-2l-2-2-1 2-1 3-1-3-1-1-1-2-2-1-2-1-4-1c-1 1-1 0-1-1l-6-5-4-2v2m30 16c0 2 1 3 6 6 6 3 6 3 6 1s-6-6-7-4h-2l-1-4c-2-1-2-1-2 1m-31 1c0 3 1 4 9 8l6 3v-2c0-4-3-6-4-3-1 2-1 2-1 0s-1-3-5-5l-5-3v2m24 13c-1 3 1 3 13 10a1374 1374 0 0125 13c0-1-1-2-3-2l-3-4c0-2-1-3-4-5-4-2-4-2-4 0 0 3-2 2-2-1v-2l-1 2-1 3v-3c0-2-1-3-4-5l-4-2v2c-1 2-1 2-1 0s-1-3-5-5c-6-4-6-4-6-1m-25 7c0 2 0 2-1 0l-1-1c0 2 0 2-4 0h-2c1 2 72 37 72 36l-3-2a12 12 0 01-10-7v2l-4-2-4-3-1-1c-2 1-4 0-4-2s0-2-1 0c-1 1-1 1-2-1l-1-1c-1 2-4 0-4-2h-1c-1 2-1 1-2-3-1-2-1-2-1 0l-1 2a17 17 0 01-9-6l-2-2c-1-3-1-3-1-1 0 3-3 2-4-2-1-2-1-2-1 0 0 3-2 2-2-2 0-2 0-2-1-1h-1c0-2 0-2-1 1-1 2-1 2-1 0 0-4-2-6-2-2m-1 19c-1 5-1 6 3 8a7 7 0 005 1c-1 1 1 2 36 19l23 10-4-2c-3-2-4-3-4-5l-1-3-2-1c-3-3-4-2-4 1 0 2 0 2-2 2l-2-1v-2c0-3-3-6-4-5h-1c0-2-2-3-4-3v2c0 2 0 3-1 2-1 0-2-1-2-3 0-4-2-5-2-1l-1 4v-4c0-3-1-4-4-5-4-2-4-2-4 1l-1 2-1-4c0-3 0-3-1-2h-1c0-2-2-3-4-3v3c0 2 0 2-1-1l-1-2c0 1-1 1-1-1l-1-2-1 2c0 4-2 3-3-1 0-2-9-9-9-6m-19 16l-2 4v1h1c0-1 1-1 5 1l4 1 1 1h-4l-3-2 11 6 1-4c0-3 0-4-3-5h-3l-1-1h-2l-1-2v2l-1-1-1-2v2c0 2 0 2-1 0l-1-3v2m17 10l-1 4 10 5 58 26 4 1-5-3c-4-2-5-2-5-6l-1-3v7l-3-1-3-3 1 1 1-3a2 2 0 00-2-3l-1-1-1 3c1 3-2 4-4 1v-1c1 1 1 0 1-2 0-3 0-4-6-6l-6-3-1 3c0 5-4 3-4-2 0-3-1-4-6-6-7-3-8-3-8 1l-1 2-1-4c0-3 0-4-1-3h-1c0-1-2-3-6-4l-5-3-1 3c-1 2-1 2-1-1l-1-3v4m-19 21c-2 1 1 3 17 10l47 20 28 12-6-3c-4-2-5-3-5-5 0-3 0-3-1-1l-1 2-1-2v-4l-1 3c0 2 0 2-1-1l-1-3v6l-3-1-4-6c0-3-1-4-4-6l-4-2v8c-1 0-2-2-2-5 0-5-2-6-3-1l-1 5v-5c0-4 0-5-3-6s-3-1-3 1l-1-1c-1-2-1-2-1 1 0 6-2 5-3-1 0-3-1-4-3-5-3-1-3-1-4 4-1 3-1 3-1-1 1-5 0-5-2-5l-1-1c-1-1-1 0-1 2 0 7-3 6-3-1 0-3 0-3-1 1l-1 4v-9l-1 3-1 4v-4c0-4 0-4-1-2-1 1-1 1-1-1l-1 2-1 4v-5c0-6-3-7-3-1v5l-1-5-1-5v4c0 3 0 4-2 4l-2-1-1-2h-1l-1-1h-2c0-1 0-2-1-1l-1-1-1-1h-3m-10 29l73 31c32 13 31 12 31 11l-5-3-47-19c-54-22-52-21-52-20m21 25l7 4c8 3 9 4 9 2s-3-3-15-8l-1 2m174 1c-3 1-1 4 8 8l28 13c1-1-2-7-4-7l-1 1 2 1v1c-3 1-6-1-5-3 0-2 0-2-1-1l-1-1c1-1 0-2-1-2-1-1-1-1-1 1 1 5-1 4-2 0-2-4-2-4-1-1l-1 3-1-1-2-2c-2 0-2 0 0-2s0-3-3 0c-2 1-6 0-6-2 0-1-1-2-2-1-2 0-3-2 0-3v-1l-3 2h-3l1-1 1-1c1-2 0-2-2-1m-204 6c1 1 28 12 29 11 1 0-1-2-5-3l-14-5-10-3m47 2c0 2 1 3 7 5l7 3 1-2c0-3-1-3-5-5-9-4-10-5-10-1m17 6c0 3 1 4 5 5 9 4 9 4 9 0 0-3-1-3-6-6-8-3-8-3-8 1m-33 4a113 113 0 0023 9l31 12 30 12h1c0-2-9-6-14-7l-2-1a785 785 0 00-48-18l-20-8-1 1m49 1c0 1 2 3 7 4 7 3 7 3 7 1-1-2-14-7-14-5m165 0l1 1c2-1 2-1 1 1-2 2-3 2-3-1h-2c-1 2 2 3 10 7l3 1-2-2-2-3v-1l-3-3c-3-2-3-2-3 0m-149 7c0 3 0 4 6 6l5 2v-4l-1-4-5-1-5-2v3m113 4l28 13 2-2a4 4 0 00-3-6c-1-1-1 0-1 3 1 4 0 3-2-3l-2-3 1 4c1 3 1 4-2 2l-2-3h-1c-2 1-2 1-1-1a1 1 0 10-2 0v1l-10-5-2-1-3 1m-113 3l1 4v3l1-3c1-2 1-2 1 1 0 2 0 2 1 0s1-2 1 1c0 2 0 2 1 0l1-2v2c0 2 0 2 1 1l1-4c0-2 0-2-1-1l-2-1c-3-2-6-3-6-1m-101 13l6 2 116 41c2 1 2 1 2-1 0-1-4-3-23-10-10-3-14-5-14-6h-1c-1 2-5 0-5-2s0-2-1-1c0 2 0 2-3 1l-3-3-1 1c-1 1-1 1-1-1s0-2-1-1c0 1-1 2-3 1-5-1-6-2-5-3l-1-1h-3c0 2-18-5-18-7s0-2-1-1c0 2-2 2-22-5-17-6-18-6-18-4m87 11c-3 1-1 3 5 5s7 2 7 0c0-4-7-8-8-5h-4m16 5c-1 3 1 4 6 6l5 2-2-3a5 5 0 00-4-4h-2l-1-1h-2M0 594c0 49 1 69 1 44a9060 9060 0 00-1-44"
    itemprop="light" fill-rule="evenodd" tabindex="-1" opacity="0.95"
    fill="url(#16282281824-posters-1657396643332-vertical-light)" fill-opacity=""
    stroke="url(#16282281824-posters-1657396643332-horizontal-background)" stroke-opacity=""></path>
  <path id="16282281824-posters-1657396643332-regular"
    d="M311 2l18 13c17 14 18 14 16 11-13-26-14-35-2-13l7 10-5-9c-4-7-4-9-3-11l1-3h-17c-15 0-17 0-15 2m43 19l-14 21 2 2 2 2 5-6 10-11a11 11 0 015-6l1-3 2-4 9-12c3-2 2-4-3-4h-4l-15 21m59 1l-49 68c1 1 4-3 35-44 37-50 35-46 33-46l-19 22m-10 20l-36 50c1 2 18 14 19 14l-1-4-1-5c0-2 7 8 7 11l1 1v1h1c2-1 1-5-5-15-1-3 6-12 42-57l8-10 12 12 51 53 6 8 3-3c3-4 3-4-10-17l-35-37 2 4a69 69 0 01-16-18h-1l-2-1v-2l-6-8-5-8-1-3-2-2 2-2c2-3 3-4 0-4l-33 42m70-40l35 26c3 3 4 4 4 1l-4-4-7-6c-8-8-22-19-24-19-1 0-1 1 2 3l4 3-5-3-6-3 1 2m-10 6c-11 14-13 16-11 18 2 1 2 1 2-1-1-3 14-22 16-21 2 2 2 1 0-1s-2-2-7 5m15 22c-8 10-10 14-7 14v-1l8-12c10-12 10-12 12-10v-1c-3-3-2-4-13 10M188 51a247 247 0 01-20 38l-17 34-11 27-10 22c-7 15-9 20-8 21s0 4-3 10l-3 9-2 5c-1 2-2 4-1 5l-2 5-1 4-2 5c-2 4-2 4-1 6 2 1 2 1 0 5-2 5-2 5-1 6 2 1 2 1 0 6l-2 5c1 1 0 3-2 6-2 5-2 5-1 6 2 2 2 2 0 7-3 5-3 7 0 7 2 0 0 4-3 8l-1 4c1 1-1 6-3 10-1 2-2 4-1 5l-2 7-2 7-32 92-27 78c-1 1-2 1-18-2l-7-1 1 1 12 2 10 3h-7c-8 0-15 2-18 6l-3 3v41c0 45 0 42 6 42 4 0 15 2 14 3h-2v1c2 1 1 2-6 2-8 0-9 0-10-3 0-3-2-2-2 1s1 4 9 5c5 0 5 0 5 3a3 3 0 01-4 3l1 1c3 0 2 12 0 15l-2 4v1c-2 0-2-4-1-7 2-4 2-5 1-5s-2 1-2 4l-2 6-2 5-1 2v3h2a2 2 0 111 2l-1 1H3c-3-2-3-1-3 20v20h87c49 0 87 0 85-1l-2-2c-1-2-9-2-10 1l-1-1-1-1-2-1-5-1-5-1h-5l-1-2a1 1 0 010-3 2280 2280 0 0177 9l1 1-1 1h-3l26 1c24 0 28 0 25-2h-1l-1 1-1-2c1-1 1-2-1-2l-3 2c0 3-2 2-2-1 0-2 0-2-1-1l-1 1v-2l-1-1h-7l-4 1c-2 0-2 0-1 1h-4c-4 1-5 1-4-1l-1-1-1 3h-2c-2-3-3-2-3 0s0 2-1 1l-11-2-64-8c-7-1-11-4-10-7h1v-11l-1-15v-2c2-1 2-1 1-2s-1-1 1-4a22 22 0 00-1-19c0-3 0-3-3-3h-4l-1 6c0 2 0 3-2 3v-2l1-3v-6c2-4 2-5 6-5l36 5 72 13 13 2-6-2a165414 165414 0 00-104-19c-3 0-4-1-5-2 0-2-1-2-2-1-2 0-2 0-2-2 0-3 0-3 69 9l42 8-19-4-54-10-33-7-1-4 1-4 2-4h-1l-1 1v-1l1-12 1-11c3 0 4-3 1-5l-1-4c1-3-2-9-4-8h-1l-1 1v3c-2 1-2 0-2-1 0-3 0-4-1-3l-1 2c1 1-1 4-2 4l-1-3c1-1 0-3-1-4-4-4 16-5 32-1l9 2c1-1-21-6-24-6l-3-2h-5c-1-1-2-1-2 1a3 3 0 01-6-1h-1l-4 2c-2 2-3 2-3 1 0-3 9-6 22-5 10 0 13 0 33 5l22 5c2-1-53-13-57-13-2 0-3-1-3-2l-1-1-1 1-1 1-2 1v-2l4-2c3 0 3 0 0-1-3 0-3-2-1-6v-3l1-4 2-4c3-2 23 0 35 3l36 9c58 12 55 12 64-6 7-15 7-15 12-13l5 1-4-2c-6-1-7-5-2-4 7 2 7 2 2 0l-5-1 1-5v-22l1-18 4 1 3 1-4-2c-4-1-6-4-1-3h-1l-3-2-1-14c-1-19-1-20 1-19 3 2 4 1 0-1l-3-2h3l3 1-3-1c-3-1-3-2-3-12l-2-15v-4l3 1 3 1-3-2c-3-1-4-2-1-2l3 1-3-1c-1-1-2-2-2-5a872 872 0 01-4-53l-1-12-1-12-2-18a902 902 0 00-4-44l-1-18-1-10-11-6-63-37 12 6 4 2c1-1 10 3 11 5l6 4 5 3 1 1c1-1 8 2 10 4l5 4a16 16 0 016 4c2 0 8 2 8 4l3 3 3 2v-5l-2-15c-1-16-1-19-4-21l-31-19c-28-17-40-25-27-18a63 63 0 019 6l5 3 8 4 3 2c3 3 20 13 21 12l1 1 2 1 11 8-1-10-6-5-57-35 12 6a3399 3399 0 0044 28l8 5v-4l-2-10c0-7 2-5-33-27l-31-21 11 7 14 9 38 24c1 1 1-1 1-4l-1-5-23-14a7807 7807 0 00-39-26l19 12 43 27v-7a31595 31595 0 00-2-23c-1-10 2-7-32-30l-26-19 11 7 25 17 19 13 2 2-1-7-1-8-27-18-27-18-14 28m252-27c-2 2 29 35 33 35 1 0 0-3-9-12-17-18-24-24-24-23m61 26c-12 14-11 13-9 15h1c-1-1 2-4 7-10l12-16-11 11M225 60l33 22-59-40 26 18m-26-10l57 38c6 3-1-2-28-20s-32-21-29-18m-2 6l61 41-44-30-17-11m1 10c1 2 61 40 62 40l-42-28-17-11c-3-2-5-3-3-1m79 18l1 3 1 5 4 36 7 48c3 18 4 20 11 24 8 5 9 4 7-8l-2-13a6374 6374 0 00-12-65c-3-20-6-27-13-31-4-1-4-1-4 1m28 11l2 8a15 15 0 0012 11c0 1 23 17 25 17 1 0 5-5 5-7l-12-9-22-15c-9-6-10-7-10-5m-106 0l61 39c2 1 1 0-1-2l-6-5-6-3-5-3-3-2-5-3-7-5-4-2-5-3-19-11m277 47l-48 52c-18 19-19 20-17 21l5 3c4 2 5 4 16 27l16 34 5 10-5 4c-3 4-5 9-3 9l8-8 49-42c5-4-4 5-19 17a619 619 0 00-36 33c-6 6-7 8-4 12 3 3 20 13 39 22 9 5 11 7 8 7l-2-1a2 2 0 00-3 3v1l-1 2h-3l7 3 1 2h-1c-2-2-3-2-3-1l-1 2c-1 1-1 1 1 1v1c-1 1-1 1 1 1 3 0 3 0 2 3-1 2-1 2-4 0l-4-1 1 1v1c-1 1-2 2-3 1v-5l1-2-2 2h-1l1-3h5c0-2-2-3-6-2h-5c-1-1-1-1 0 0 0 2 0 2-1 1-3-1-5 4-3 6 2 1 1 2-2 1-1-1-2-2-1-4l-1-3-1 2h-1l-2-1 1 3c1 1 1 1-1 1h-1c1 2 1 2-1 1-2 0-2 0-1 1l3 2 1 2c0 2 0 2-1 1l-2-2c-2-1-2-1 0 1 3 3 3 6 0 5-2 0-3 1-3 2h-2l-1-1v3h-1l-2-2-2-1c-1-1-1 0-1 1 0 2 0 2-1 1l-2-2c-2 0-1 2 1 4h-1c-3 0-3 0-2 1l1 2c-1 0 0 2 2 3l5 10-2-2-3-3-1 2c-3 4-2 4-39-13l-34-15 2 10 3 9c0-2 1-2 6-1l-2-1c-7-3-7-7-1-4s7 4 7 8l2 3v-1l1-1c5 2 5 2 2 0l-4-3c0-3 11 2 11 5h-2v1l4 5 1 4v-4a9 9 0 00-2-7l-1-2 4 2c4 2 7 6 5 6v1c2 1 4 9 1 9l-15-7-16-6 2 7 2 6c1-1 8 2 9 3 3 4 1 5-4 3l-5-2 1 1 1 4c0 3 0 3-2 2-3 0 0 1 3 2 2 1 2 1 2-1s0-2-1 0v-4a4 4 0 015 6l-2 1-2 1c-3-2-5-2-4 0l1 3 1 1-1 1h-1l1 2a4 4 0 01-1 5l-2-3h-1c1 1 0 2-2 3l-2 2c1 1 0 4-1 3v3l1 3 3 1h2l1 1c3-1 3 2 1 4h-3l-1 1c1 2 1 2-1 1-1-1-1-1-1 1 1 3-2 8-4 5h-2a3 3 0 01-5 1v-1a3 3 0 000-4h-2a4 4 0 01-2 5l1 2v1c-2-3-3-2-2 0v2l-1 3 1 1c1-1 1 0 1 1l-1 1c-2-2-2 2 0 4v2c2 2 3 8 2 8l-5-4c-8-6-17-6-19 1-1 3 1 15 3 26 2 7 2 10 1 10v1l4 8c6 18 15 30 19 27h4l2-1a4 4 0 015 0 13 13 0 008 7l2 2 3 1c2-1 5 2 4 5 0 3-1 3-4-1-2-2-3-2-3-1 1 1 0 2-1 1l-1 1v3l-2 3c-2 2-2 2 0 3v1c-2 0-3 3-1 3v2a2 2 0 012 1c0-2 0-2 3 0 2 1 2 2 1 3s-2 3 0 5c1 1 0 4-2 3l1 1 2 2 4 3 4 2c2 0 1 3-2 4-2 0-2 1-2 4 0 4 1 4-17 0-11-3-18-4-18-3l1 15 2 15-18-3-19-3 32 7c4 1 5 2 6 4 2 3 2 3 0 3l-15-3 23 5c22 4 30 5 17 2l-7-2 2-1c0-1 17 0 26 2h4l-27-4-1-3-3-3c-5 0-4-11 0-16l5-3 1-1c0-1 2 0 3 2l5 2v1l2-1 3-2v5c0 3 2 4 7 4h3c-1 2 1 3 3 2 1-1 2 0 2 1l-1 2c-1-1-2 2-1 3 0 1 1 2 3 2 3 1 6 4 5 5l2 1c4-2 5-2 4 1l1 2c4 0 4 1 5 2s1 1-1 1l8 3 2 1 1 1c3 1 3 3 0 3l-11-2 36 7-1 2v9c1 2-2 1-4-1-2-3-2-3-2-1v2c2 0 1 2-1 4s-2 2-3-1-7-3-7-1l-2-1c-2-2-5-3-5 0l-2 1h-1l-1 1-1-1a7 7 0 00-2-6h-1c-2-2-3-1-3 1 1 1 0 3-2 5-3 3-3 3-2 5a2 2 0 01-1 2l-1 1h-1c0-2-2-1-2 1h-1l-1-1-1 2h-3c-1 2-2 1-1-2 0-2 0-2-1-1-2 0-2 0-2-2l-2-4c-2-2-2-2-2 0h-3l-4 1c-3-2 1-3 8-4 6 0 6-1-11-3-12-2-18-4-19-5h-8c-5-1-6-1-6 5l-1 5-1-1-2-2c-2 0-3 0-2 1l-1 2-1 2-1 2-2-1v-2l-1-2c-1-1-1-1-1 1 0 5-1 6-3 4-2-1-2-1-3 1 0 1-1 2-2 1l-2 1-2 2-1 2-2-1-2-1-2 3c-1 1 3 1 29 1h30v-3c-1-4 2-5 3-2 1 2 1 2-1 3-1 2 5 2 59 2h61v-99a9 9 0 00-2-8 2 2 0 10-5 0l-1 1v-3l-1-1v-1l-2-1h-2l2-1 4-1v1c-1 3-1 3 1 1l1-3h1l2 4 1 2 1-17-1-15h-2v-3l-1-1 2 1c2 2 2 23 2-240V104l-36 38m-167-30l1 4 1 1 19 13-8-5c-11-7-12-8-11-3 1 2 3 4 11 9l22 15c11 7 12 7 14 6l1-2-13-9-13-9 10 6 10 6 2-1c1-2-1-3-22-17-25-17-25-17-24-14m-123 11l-3 12a2000 2000 0 01-6 31 62 62 0 01-5 17l1 2a152 152 0 00-4 16l-1 1c-1-1-1-1 0 0l-3 15-1 3a60 60 0 01-5 19l1 2-2 8a42 42 0 01-3 11 74 74 0 01-5 23l-1 1h-2l1 1v6l-2 8a19 19 0 01-2 8l-7 26a139 139 0 01-5 8l3-3c2-4 2-3 1 5l-1 5 5-16a4474 4474 0 0020-86l3-12 11-50c5-22 11-48 12-59v-2m127 6l1 4 1 1 39 25c5 3 5 3 7 2 2-2 3-1-24-19-24-16-24-16-24-13m-86 19l35 20 4 2-3-2-7-5-5-3-3-1-2-2-3-2c-2 0-3-1-3-2l-1-1c-1 1-2 0-3-1l-3-2-5-2-5-3a21 21 0 01-9-6l-1-1-1-1-7-3-8-4 30 19m88-10l1 4 1 1 36 23c9 6 9 6 11 4 2-3 4-1-24-19s-25-17-25-13m85-3c0 2 23 54 25 55l3-2c2-3 2-3 1-6l-11-22-11-18 2 5 3 9-6-10-6-11m-202 6l-1 1c-3-1-3 0 0 2l19 10c37 23 50 30 50 29l-2-2-2-3-1-1-8-5c-6-4-9-5-9-4h-1c0-2-9-8-10-6l-1-1a63 63 0 00-23-13c-1-2-11-9-11-7m120 6l2 5 44 28 3-4-9-6-24-16c-18-11-17-11-16-7m1 7c0 6 1 7 38 30l9 6 2-3 1-2a22130 22130 0 00-50-31m3 13c3 15 4 18 6 17l4 2 5 3 4 2 2 2 6 4 2 1 4 2 4 3 3 1 4 4 4 3 3-2c3-3 3-3-2-6l-46-29 22 13c21 13 23 14 25 10 1-2 0-2-8-7l-25-16c-18-11-17-11-17-7m-131 3l28 17 39 22 10 4-2-2-2-2-4-4-4-3 3 2 4 1-4-3-4-1c1 3 0 4-1 2l-1-3-9-6 4 3 4 3-13-7-6-2c-1 1-1 1-1-1l-7-5c-3-1-5-3-5-4l-4-3c-5-3-7-4-6-2v2c-1 2-9-2-16-7l-3-1m2 15c0 2-1 2-3 2h-2c-1 1 0 2 1 1l80 43h1l-2-2c-2-1-4-5-3-7l-8-6-1 3c0 2 0 2-1 0l-10-7c-10-5-14-8-6-4 5 3 5 2 0-1-4-3-7-4-6-2v1h-1l-10-7-11-6 4 2 5 2-4-3c-5-3-8-4-7-2l-1 2c-1 2-1 2-1 0l-1-3-1-1c1-1-2-3-7-6l-4-2-1 3m134 4l2 5 1 3 11 6 21 12 11 7 2-2c2-4 3-4-23-19-27-17-25-16-25-12m3 10c0 3 2 11 3 10l3 2 2 1c0-1 6 2 11 6l5 3 3 1 4 3 17 10h1c-1-1 0-3 1-4l2-2a2549 2549 0 00-52-30m-143 4c-2 1-1 2 7 6l20 10a2305 2305 0 0048 26c8 4 10 5 9 3l-3-2-1-2c0-2-1-3-2-3v-2c1-1 0-1-3-3-4-3-6-4-6-2l1 1v1l-1 2c-1 1-1 1-1-1l-2-3-2-2 2 1c4 2 2-1-2-3-4-3-6-4-6-1v1c-1 0-3-2-2-4l-5-3c-4-3-5-3-5-1l-1 1c-6-3-13-7-13-9l-5-4c-5-3-6-4-6-1v1l-1 2c0 2-1 2-10-3-6-3-10-5-9-6h-1m109 3c-1 1-1 8 1 17l7 49c8 53 8 52 19 58 11 5 12 2 4-40l-8-37-8-39c-4-6-14-11-15-8m37 7l2 7 1 3c1-1 2-1 5 2a7 7 0 015 4c1-1 5 1 6 2l2 2c3 0 7 3 7 4l1 1c1-1 8 3 8 4h1l5 3 3 2h1c2 1 2 1 4-2l2-3-51-30c-2-1-2-1-2 1m-149 10l-1 1a6986 6986 0 0057 29l33 16-3-3c-3-2-4-3-4-5l-1-2v-2h-5c-3-2-3-2-3 0-1 2-1 2-1 0 0-3-10-9-11-7h-1a9 9 0 00-8-6l-4-2v6l-1-3c0-3-2-4-8-8l-8-5h-2l-1-1h-1l-1-1h-4c0 3-2 3-11-2-5-2-9-5-9-6l-2 1m152 4l2 7c1 5 2 6 3 4a13 13 0 0110 6c1-1 5 2 8 4l2 1a10 10 0 019 5 11 11 0 019 5l5 2 4 1 1-3c3-3 5-1-25-19-31-17-28-16-28-13m4 14c0 3 3 14 4 13 1-2 8 1 9 4h1a11 11 0 019 7 9 9 0 018 4v-1l4 1 4 3 3 2 5 3 2 2c2 0 9-7 8-7l-27-15-27-16h-3m-158 4l35 18 46 23c12 6 15 6 9 2l-3-4c0-2-2-3-5-5l-5-3-1 3-1 3v-4c0-2-1-3-8-6-7-4-11-6-6-5 4 2 0-2-6-5-4-2-7-2-4 0l4 3h-2l-3-2v3l-1 4v-4c0-4 0-4-8-7-7-4-11-6-6-5 2 1 1 0-1-2-7-4-12-6-11-3v1l-1 3c0 2 0 2-11-3l-11-5m163 15c0 6 3 13 3 11l1-2v-1l-2-2 4 1 4 3h-1l1 2c1 2 3 2 3 2v-1c-2-3-1-3 3-1 3 2 6 5 2 3l-3-1 3 2 3 3 1 1c1-1 5 1 8 4l2 2-1-2 1-3c1 0 6 4 4 4l-2-1-2-1 3 2 4 3 1 1h4l-2-1c-4-3-4-4 0-1l3 2 2 4 2 3 5-4 4-4-5-3-53-29v4m-158 1c-2 1-1 3 3 5l4 2-4-1c-4-2-4-2-4 1-1 3-1 3-4 1h-3c0 2 3 3 62 30l34 17c2 1 3 1 1-2l-4-3c-3-1-3-1-3-4s0-4-3-5l-3-2 3 1 3 1-6-4a21 21 0 01-8-5c-1 1-14-6-15-7s-1-1-1 1l1 2v1l-1 4c-1 2-1 2-1-1s-1-4-4-6l-3-2 4 2 3 1c0-1-15-9-16-8l1 1-1 4-1 4v-4c0-3 0-4-4-6l-3-2 4 2h3l-8-4-7-5c-1-1-1-1-1 1a3 3 0 001 3l-1 2-1 3v-2c0-3 0-4-3-5-3-2-2-3 1-1h1l-8-5a12 12 0 01-8-5m161 13l4 17 1-2 2-2c1-1 1-1 0 0l1 1h2l5 4c5 2 7 4 8 6l1 3v-3c0-3 0-3 1-2l3 2 2 1 2 2v-1l1-1c4 2 6 4 7 6l2 2c1-2 6 1 7 4s2 4 2 1c-1-2-1-2 2-1 1 1 2 0 5-2l3-4-19-10-31-16-11-5m-162 13c-2 2-1 3 11 8 2 0 1-1-1-4-2-2-2-3-3-2h-3l-4-2m-9 2c0 2 18 11 20 11l1-2a21 21 0 00-14-7l-6-3-1 1m25 4l-1 4c0 5-1 8-2 8l-1-2-21-10-2 2c-1 2 0 2 3 3a6864 6864 0 01101 44c1 0-2-3-5-4-2-1-3-2-3-5s-5-6-8-4l-1-1v-1l-1 3c-1 2-1 1-1-2 0-4-2-6-3-3-1 1-1 1-1-1l-1-2 4 1c2 1 0-3-3-4l-2-2-7-5-1 6v7l-1-4c0-3 0-4-3-5l-3-1h3c6 3 3-4-4-7-4-2-6-2-6-1-1 2-1 3 3 5l2 1c-6-1-6-1-6 3-1 2-1 1-1-4v-7l-5-2-6-3c-2-1-2-1-2 2 1 4 1 4-4 1-3-2-3-2 2 0 4 1 0-3-4-6l-7-4h-2m150 1a60 60 0 014 17l1-2 1-2a13 13 0 0110 7c0-3 7-1 9 3l1 1c0-3 7 2 9 5 1 2 1 2 1 0-1-2 0-2 2-1a4 4 0 003 1l1 1 2 2 1 1c1-1 7 2 7 3 0 4 3 3 7-1l5-5-31-16c-35-17-33-17-33-14m5 19l2 8 2 10v2l3-3h-1c-1 1-1 1-1-1a3 3 0 00-1-4l5 2a8 8 0 015 4l1 2h2l1 1-1-3 4 2 3 2-4-2 2 2c3 1 4 3 4 4l1 2v-1l1-2 1 2h1c1-2 5 1 6 4l1 3v-7l8 5 1 4 1 1v-3l3 2 4 2 2 4 2 2v-3a6 6 0 00-1-4l3 2 1 4 1 1-1-5c-1-1 0-2 2-5l3-3-33-16-33-15m-309 4l1 3c2 2 2 2 0 2-2 1 0 2 5 3l5 3c2 3 5 2 6-3 1-2 1-2-1-2l-5-2-5-2c-1 1-2 0-2-1-1-2-4-3-4-1m135 0c-1 1 1 2 8 5l5 1c0-4-12-9-13-6m-154 2c-3 1-3 2-1 8 0 3 6 3 8 1 1-2 2-2 3-2a3 3 0 100-5l-4-2c-2-2-3-2-6 0m152 5l1 4-7-2-4-1-19 27 18-24 16 5 25 11 68 28c1 2 2 1 1-1 0-1-2-3-5-4-4-2-4-2-4-6 0-3 0-4-4-6l-5-2v9l-10-4-9-5a6 6 0 000-9c2 1 2 0 2-1 0-2-1-3-7-5-7-4-7-3-7-1 0 1 1 3 5 4l5 2v10a47 47 0 01-8-4l4 2 3 1v-4c0-4 0-4-4-5-5-3-5-2-5 2 0 3 0 4-1 3-1 0-2-1-1-4 0-4 0-5-3-6l-4-1h-1c-3-4-6-3-6 1a4 4 0 002 5 5 5 0 01-5-3l1-4c0-3 0-4-4-5-8-4-8-4-8 0 0 5-1 5-6 3-3-1-4-2-2-2s3 0 3-3c0-4 0-4-6-6-9-4-9-4-9 1m20 0c-3 0-2 2 5 4 7 3 8 3 7 0l-10-5-2 1m14 7l12 6c4 2 2-3-2-5-5-2-10-3-10-1m148 4l2 9c2 9 3 12 1 12v-1l-1-1c-1 1-1 3 1 3a7 7 0 003-2l-1-2-1-5c-2-3-1-4 2-2l3 2c1-1 6 4 5 5l3 3v-1c-2-1-3-4-1-4s8 4 9 6l-1 1h-1l1 1 3 4 2 4-1-5c-3-7-3-7 2-5 4 2 5 4 5 6v1l2 4c2 5 2 2 1-3l-1-4h2a11 11 0 017 8l1 3 2 4-1-4c-2-6-2-7 1-6l7 6h-3l4 5 2 3v-3l-1-3-1-3c1-1 1-1 3 1l2 1 3-4 3-2-21-10-34-17-13-5m-47 6l-1 8c1 6 1 7-1 8-1 1-1 1 1 1l3 6 4 31a132 132 0 014 27l2 7c2 14 12 25 21 25 7 0 7-7 3-32a3730 3730 0 01-10-52l-5-20c-5-8-17-14-21-9m-69 2c0 3 12 9 13 8s0-5-1-5l-7-3-5-2v2m-133 7l-6 14-2 3 2-3c2-3 3-2 0 4l-1 5c1 1 8-22 8-25l-1 2m84-2l-1 6-1 4 8 3 8 3 1-5v-5l-8-4-7-2m49 3c0 4 0 4 7 6l7 3v-3c0-4-2-6-3-4h-1c0-1-2-3-5-4l-5-2v4m-114 2l-2 6-5 10-5 7c1 0 3-2 5-6 4-7 4-6 2 4-2 7-2 9-1 8l8-30c-1-1-1 0-2 1m81 7c0 5 0 5 4 6l3 2-3-1c-4-1-4-1-4 4-1 3-1 4 2 5s3 1 3-3l1-4v4l-1 5-10-4-40-14c-2-1-3 0-12 12l-11 15 10-13 10-13 17 7a9096 9096 0 0198 37h2c0-2-2-3-6-5-6-2-8-4-4-3 3 0 3 0 3-3a5 5 0 00-2-6c2 1 2 1 1-4-1-4-9-9-13-9v4c0 4 0 5 3 6l3 1-3-1h-3l1 5v5l-6-3c-8-3-9-4-2-2 4 2 4 2 4 0s0-2 1 0l1-7v-9l-5-3c-9-4-9-4-9 2v5l6 2 6 3-4-1c-8-4-8-4-8 1l1 5v1l-2-1-2-2-2-1h2c2 1 2 1 2-7 0-10-1-11-8-14l-6-3-1 3-1 10 1 6 4 2 5 1 1 1c0 2-2 1-10-2-11-4-14-6-4-2 2 0 2 0 2-4s0-5-4-6l-1-1c5 1 5 2 5-3v-5l-5-2c-10-5-10-5-10 1m-18 4l1 4 7 2c8 4 8 4 8-1 1-3 1-4-1-4l-8-3-7-3v5m-90 13l-2 6-2 5v1l-2 8-1 5 5-14c4-13 4-17 2-11m59 5c0 2 2 3 8 5l8 3v-3c-1-5-6-8-12-8-4 0-4 1-4 3m248 3l-3 1c-4-1-4 2 0 5 2 0 3 2 3 2l2-1v-3l-2-1v-3m-288 3l-2 5-4 6c-3 5-3 5 0 2l3-3-3 11-2 12 1 1 1-4 8-33c-1 0-2 1-2 3m39 0l-1 4c0 2 5 5 6 3 2-1 1-8-1-8-2-1-4-1-4 1m30 2c-1 5-2 4 9 8l8 3v-4c0-3-3-8-3-5l-1-1-9-4c-3-1-3-1-4 3m-22-1c-2 7-2 8 3 9s5 2 5-3c1-3 1-4-4-5-3-2-4-2-4-1m-87 7a83 83 0 01-4 11c0 1-4 17-17 56-6 19-5 18-4 16l6-18 10-31 11-38-2 4m98-2c-2 3-1 7 1 7l3 1c2 1 2 1 2-3s0-5-3-6c-2-1-3-1-3 1m29 1c-1 5 0 6 8 9l8 3v-4c0-4-2-6-5-6-1 1-2 0-2-1-3-2-8-3-9-1m-51 3l-21 27c-2 4 0 2 10-11l11-13 124 42c1 1 2 1 1-1l-5-4-4-1v-5c1-5 1-6-1-7s-2-1 0 0c2 0 2 0 0-8l-2-4-5-1-5-2v5c0 5 0 5 3 6l5 2 2 1-2-1-5-1h-3l1 6-1 5-1-6c0-8-2-9-2-1l-1 6v-13l-5-1-7-3-1 6v6l-1-7v-5l-7-3c-10-4-9-4-9 3l-1 5-1-6v-6l-4-1-4-2-1 5-1 6v-6c0-5 0-6-3-7s-3-1-3 2l-1 7v-10l-7-3c-6-2-7-2-8-1h-1l-1-2-1 4c0 6-3 10-5 6l-1-1-2-1h-3l-3-1-2-2h-2l-1-1-1-1h-4l-2-2h-3l-3 1m69 5v5l7 2c9 4 9 4 9 0s-2-6-8-9c-7-3-8-3-8 2m-133 5l-2 7-2 5-2 9c-2 6-2 10 0 4l8-28-2 3m150 1v5l5 2c10 4 10 4 10-1l-1-5-14-5v4m-132 17l-1 3-3 6c-4 5-5 8-2 4l3-3a248 248 0 01-12 34l-13 23c-3 3-14 11-17 11l1-5 2-6-3 6-4 7c-3 1-29 2-32 0H21c-3 0-3 1-3 4s1 4 2 3c2 0 4 1 4 3l-2 2c-2 0-2 0-1 2v1l-1-1 2 2 3 1-3 1-2 2c0 2 4 3 5 2h3c-1 1 0 1 13 4l20 2-3-2c-2 0-3 0-2-1v-1l1-1h3c1 0 3-4 2-5h1l4 1c9 0 12 2 9 7h2c4 0 4-1 4-2h-4c-1-2 1-4 3-4h11c2-2 2-2 3-1v1h-2c2 2 6 2 9 1l5-2 3-1 3-1 10-9 7-6v2l2-2c1-2 5-3 5 0 0 2 0 2 2 1 1-2 2-3 1-4s-1-2 1-2c2-1 3-5 3-12v-5l-5-1-6-2c-2 0-2 0-2 2a6 6 0 01-3 4c1-1-3-2-4-1h-1l-2-1a30 30 0 01-14 1c-3 0-4 2-2 2 3 1 0 5-3 5s-7-2-5-3c1-1-1-1-3-1s-4 0-3-1l2-2c0-2 2-3 4-3l3-1h2c2 0 2 0 0-2l-2-3v-3c-2-1-1-3 1-3s2 0 1-2v-3c2-2 16-43 15-43l-2 1m-27 14l-1 4-1 3-3 9-3 11-1 6c1-1 11-34 10-35l-1 2m-73 91c-2 1-1 2 2 2l3 1c-2 2 26 6 30 4 3-1 1-2-13-5-13-3-21-4-22-2m-1 7v5l-1 3a3 3 0 01-1 4h5c1-2 2-1 2 1l-1 2-2 3-2 3-2 3v2c-2 0-4 4-3 5v4l-2 8-2 8c-1 1-2 3-1 4 1 2 3 0 3-2l1-3 1 3c0 3 0 3 3 3l4 1 3 1c2 0 2 0 2-4l2-7c2-3 2-5-1-7-2-1-2-2-1-4l1-5v-3l1-4c1-3 3-7 5-7l1 1c0 2 3 1 4-2l3-4 1-1c-1-1 0-1 1-1l4-2 5-1h2l-2-1-3-1c-1-2-19-6-26-6-3 0-5 0-4 1m380 18c0 2 3 7 3 5h1c2 1 2 1 3-2 2-4 1-6-4-7-3 0-3 0-3 4m-121 67l46 8-22-5c-21-4-27-5-24-3m197 11l-1 1v2c0 3 0 3-2 3h-1v1c-1 0-2 1-2 3l-1 4c0 1 0 2 2 2 3 0 4 0 1-4v-2l3-1 1-2c2 0 2-8 1-8-1-1-1 0-1 1m-19 17h-6c-2 1-1 2 2 2l10 1c8 2 15 0 12-2-1-1-1-1 1-1l-3-1h-11c-4-1-5-1-5 1m-145 29c0 2 0 2-1 1l-4 1c-1 1 0 1 7 1s8 0 8-2v-3l-1 1a6 6 0 01-7 0c-1-2-3-1-2 1"
    itemprop="regular" fill-rule="evenodd" opacity="0.95" tabindex="-1"
    fill="url(#16282281824-posters-1657396643332-horizontal-regular)" fill-opacity=""
    stroke="url(#16282281824-posters-1657396643332-vertical-light)" stroke-opacity=""></path>
  <path id="16282281824-posters-1657396643332-bold"
    d="M323 3l3 3 4 4 4 3 3 3c4 4 4 4 2 0-1-3-16-16-18-16l2 3m37 11c-11 16-14 22-7 15l20-28-2-1-11 14m72 5c-1 3-13 17-25 33l-29 40 2-1 2-2 2 2 3 2 1-4 9-13 23-29c15-19 16-20 15-23-1-2-1-3 1-4l2-3c-1-3-2-2-6 2m72 93l-74 80c-20 22-20 22-14 25l3 2v-3c-1-2 0-3 3-6 6-7 15-15 16-15l5-4c1-2 3-3 3-2 0 2 2 0 5-6 3-5 9-11 17-19l17-18 18-20 9-9v-13l-8 8m-331 19l-10 22 11-22 11-21-12 21m47-16a1975 1975 0 0039 25c2 1 3 1 3-1l-1-1-6-2a1249 1249 0 00-33-21c-9-5-11-5-2 0m-20 1l1 1c1-1 4 1 15 7 25 15 27 17 26 18h1l10 5c10 6 10 6 10 4l-1-2-9-5-10-5a162 162 0 01-21-14l-8-4c-13-8-14-8-14-5m-8 14l-6 12 6-10c4-8 6-12 7-11l7 4c5 3 12 7 11 5l-19-11-6 11m-19 14l-11 19c-1 0-5 6-10 16l-31 63h1l39-77h3l3 1-2-1c-1-1 1-5 9-21l10-19-11 19m17-3c-6 12-7 13-5 14h1c-1-2 10-23 12-22 2 0 63 37 65 39l-35-20-31-17c-1 1-2 3 0 3l5 3 6 3 6 3 5 3 5 3 8 5c2 0 7 4 12 7a38 38 0 0010 6l10 6v-6l-66-40c-1-1-3 1-8 10m22-9l12 9 25 15c13 8 15 9 15 5 0-2-1-3-22-16l-23-13 23 15 21 14-1 1-18-12-32-18m-40 28l-8 17c1 1 1 1 1-1l1-4c3-3 15-28 15-28l-9 16m20-12l-7 12c-3 6-3 7-2 8h1c-1-1 9-20 11-22 1-1 4 0 8 3l34 20c16 9 28 17 28 18 0 2 0 2-11-5l-16-9-11-7c-9-5-20-10-16-7a374 374 0 0033 20l11 6 5 3c5 4 6 4 6 0 0-3 1-3-22-16a15883 15883 0 01-49-29l-3 5m-43 27l-12 23 13-23 11-24-12 24m20-3c-9 17-9 17-7 18l1-1 7-16 8-16-9 15m23-14l-6 11-6 12 6-9 7-12c1-1 2-1 9 3l9 5c1-1-16-11-18-11l-1 1m131 11l10 7 33 20c7 3-2-3-17-12l-22-13-4-2m-157 18c-6 11-8 15-7 16h1c0-1 3-9 8-17l7-15-9 16m18-3l-6 13 1 3c0 2 0 2 1 1v-3c-2-1 3-11 9-20 3-4 4-4 10-1l4 2-12-7-7 12m24-11l1 1c1-1 4 0 6 2a83 83 0 0118 11 21 21 0 0111 6l6 2 6 4c2 0 8 4 8 6h2c1-2 1-4-1-3l-18-10-3-2-10-5c-25-14-26-14-26-12m-16 6l1 2 15 8h1a20 20 0 0112 7c0-1 3 0 5 2l10 5 7 5h1l5 2 8 5 8 5 3 3v-3l-1-3c-1 1-6-1-15-7l-15-8-13-7-6-4-23-13c-2-1-3-1-3 1m-43 19c-8 15-10 19-9 20l2 2c2 0 1-3 0-3-1-1 2-7 8-19l9-18-10 18m179-11l21 13c22 14 22 14 21 12l-20-12-21-13h-1m-141 4l-7 12c-5 10-6 11-4 13l2 1v-2c-2-1 1-7 7-17 4-6 7-7 12-3 2 1 2 1 0 0-3 0-5 2-3 4 4 3 11 4 11 2 0-3 0-3 8 1 12 7 7 3-8-5-17-10-16-10-18-6m141 0l1 2v1l1 1 20 10 23 13-22-14-23-13m-122 12l-1 2c0 1 0 2 2 1l8 3 10 5 6 4 2 1 5 2 10 6a14 14 0 018 5c0-1 10 4 11 6 0 3 2 3 2 0l1-4h-1c-2 1-5 0-17-7l-16-9-13-7-6-3-7-4-4-1m125 1l7 5 7 4 15 8a168 168 0 0113 8l2 2h3c0-1-45-28-47-28v1m-172 14c-6 11-7 13-6 15h2v-2l6-12 6-13-8 12m137-11l-1 1 5 3c4 3 4 3 2 5h-5v1c0 2 2 5 4 6a40 40 0 018 21l1 5 1 3 2 8v7l3 17 1 7 1 8 1 4 1 4a114 114 0 001 15l3 8c3 2 4 1 4-3l1-5v-1c-2 1-5-14-5-20v-3c-1 1-6-25-6-28l-1-2v-1a17 17 0 00-2-9h-1v-3c1-2 1-2-1-4v-6a1 1 0 01-1-2l1-3-1-8-1-6v-5c0-6-2-11-9-14-5-2-4-2-6 0m-111 2l-8 13c-5 8-6 13-3 13v2c-1 2-1 2 1 1 3-5 3-6 1-5-2 0-2 0-2-2 2-4 12-21 14-22l26 14-8-3c-10-5-18-8-19-7-1 0 3 3 10 6 5 3 7 4 6 5l-1 2-1 3c0 2 0 2 1 0 0-2 0-2 1-1h1c-1-5 0-5 12 2l12 6 3 3h1c0-2 1-1 6 2l12 6 6 5h1c0-2 9 3 11 6l2 2c1 0 2-9 0-10l-83-44-2 3m-61 14l-5 11 1-2 2-2-6 14-7 14a160 160 0 0017-37l4-8-6 10m7 8c-3 7-6 11-6 10l-1 1-1 5c-2 5-2 13 0 9v-3c-1-1 1-5 7-17l8-16-7 11m212-9l2 2 4 2 7 4 4 3 1 1 4 2 5 2 4 3 4 2 2 2h2c0-1-2-3-6-5l-18-10c-16-10-17-10-15-8m-187 13c-6 10-7 12-6 15l1 3 1-4c2-3 2-3 0-2-1 0 0-4 7-16l4-7c0-1-4 4-7 11m26-7l-8 14c-6 10-6 10-4 12 2 1 2 2 1 3-1 2-1 2 1 1 3-4 3-6 1-5l-2-1 13-22 2-2 42 22c48 23 45 22 43 23-1 1-7-2-19-9l-11-5-15-8a93 93 0 00-17-8l-4-2c-2 0-6 8-6 10l1-1 1-1 2-2 1-3 13 7 14 9h1c0-2 10 3 12 5l2 1 7 3 6 3c0-1 10 4 10 6 0 3 3 3 3-1 1-7 2-7-23-19l-44-22-21-11-2 3m156 4l1 2a17 17 0 0111 6l8 4 3 1 5 3 3 2c2 0 8 4 8 5l1 1 5 1c4 3 8 4 4 1l-23-13-24-14c-2-1-2-1-2 1m-92 8c6 5 21 13 23 13 3 0-1-3-12-9l-11-4m-94 12c-5 9-6 12-6 16v4l6-12c-2 1-2-1 3-9 6-12 4-12-3 1m190-10l28 16c25 14 25 14 23 16-1 2-1 2 1 0l2-2-53-30h-1m0 5l4 4 3 3h4l8 5a19 19 0 017 5l15 8 2 1c4-1 3-2-3-5l-22-13c-18-10-18-10-18-8m-166 9l-8 13c-3 4-3 4-2 8 2 3 2 3 1 6l-2 3a33 33 0 008-13c-1 2-5 3-5 1s13-23 15-24l23 11 35 16c29 15 34 17 32 18-2 0-6-1-13-5a1167 1167 0 00-68-33c-1-3-6-2-7 1-2 3-2 5 0 4l1-3c0-2 0-1 10 3 7 3 8 5 8 7 1 2 1 2 1 0s0-3 1-2l8 4 7 5h1c1-2 15 6 16 10l1 3v-7l7 4a40 40 0 019 5c0-2 14 6 15 9v3l1-3c1-2 1-2 1 1 1 3 1 3 2-2s-1-9-3-9l-68-33-21-10-6 9m-42 7c-4 8-6 11-5 13 0 2 0 2 2 0l1-3 4-10c6-12 5-12-2 0m372-2l-6 5-4 4-8 6-5 4-1 1c1 1 0 1-1 2-2 0-4 2-5 3l-6 5-3 3c1 1-3 5-4 4s-12 9-12 11l-2 2-2 1v2c-1 2-1 2 1 2l2 1 37 22a23 23 0 019 6c1 0 10 3 11 5v2l-3-1h-1c-1 1-1 1-3-1l-2-1-3 1c-4-1-4-1-1-2v-1l-2-1-1-1-2 1h-1c-1 0-2 0-1 2 0 1 1 3 3 3l2 2h-4c-2-1-3 1-2 3l1 1h2v2l-1 3c0 4-3 4-4 1s-1-3-3-2c-2 2-3 1-4-2-1-1-2-2-3-1l1 2c1 1 0 4-2 4h-4l2-4h-1c-1 2-2 2-4 2h-1v3c-2 1-2 1-1 2v3l1 2c2-2 1 1-2 3a5 5 0 00-3 4v1l-1 1-3 2c-1 1-1 1-2-1h-1l-1 1c-2 0-5 2-5 5h3v2l-4 1c-4 0-4 0-3-2l1-3-3 3c-1 3-1 3-2 2h-1l3 3 1 1 1 1 1 1-2 1h-2c-1 2-1 2-3 0l-1-2v-1l-3-2c-1-1-1-1-1 1s0 2-1 1-7 2-7 4 0 2-2 3v2l-1 1-1-1h-1l-1-2h-2l3-3 2-3h-1c-2 1-2 1-2-1s0-2-1-1l-3 2c-2-2-4 0-4 3l1 3v2c1 1 1 1-1 1-2 1-2 2-1 8l1 1v-1c0-1 0-2 2-2h3v1l-1 2-1 1h-3c-1 1-2 0-3-1l-1-1c0 1-4 3-6 2-1-1-3 1-2 2l-1 2-1 2h-2c-2 0-2 0 0 1 1 2 1 2-1 2l-2 1-1 2v1l6-4c1-1 2-2 3-1h1v1c-1 2-1 2 2 1 2 0 3 0 3 3v3c2 1 1 1-2 1-2 0-2 0-1 1v1l-2 2-2 1c-3 0-3 1-3 3 0 1 0 2-1 1l-1-1-1-1h-1v4a4 4 0 00-5 4c0 2 0 2-1 0s-2-1-1 1l-1 1h-1l3 1 2 1 2 1c1 1 1 1-1 1l-4-1c0-2-2-1-4 1h-2l-1 2-1 2-1 2-2 1c-2 0-3 0-3 2l-1 2 1-7c0-2 0-2-1-1l-4 1-1-1-1 1-1 2a1 1 0 102 2l3-2c1 0-1 6-3 7l-2 3-1 1v1c2 0 3 4 1 4v-1l-1-1c-1 1 0 3 2 3l1 1-1 1c-4-1-5 0-5 3v3l-1-4c1-10-17-16-20-6-2 7 0 15 4 19l6 6c2 5 4 5 4 1l2-5c1-1 1-1-2-1-3 1-4 1-3-1 0-3 6-6 9-5l2-1c0-2 0-3 2-3 1-1 2-1 1 1l-1 2-1 1 1 1 1 1c1 2 1 2 3 1 2-2 7-4 8-3l2-1 2-1 1-1 1-1 1 3c0 2-1 2-3 2h-2l2 1h-2c-2 0-3 0-3 2s2 3 2 1l1 1c1 3-2 3-4 0h-4c-2-2-2-2-2 0s-1 3-2 3v-1c1-1 1-1-1-3l-2-1v1l1 2c-1 1 0 2 1 3s1 1-1 1c-1 1-3-1-2-2 0-1-1-2-2-1-3 0-3 1-1 6l-1 3h-1l-2 1v1c2 0 3 3 1 3v4l1 2 1 1h-2c-1-1-2-1-1 2l2 2c1-1 1-1 0 0v2c1 0 3 5 4 14l1 9c2 0 3-2 3-5l1-3 1 1v1l1 1 1 3c2 2 2 2 3 0 2-2 5-2 5 1h1l1 1 1 2 3 2 3 2 2 1 2 2c2-1 5 2 5 5 0 2-3 3-5 0h-2v1c-1-1-2 0-2 1v2l1 1c0 2 0 2-2 1v1c0 2 0 3-2 3-2 1-2 1-1 3 1 1 2 1 2-1l2-2 1-1c-2-2 3-3 5-1l1 3-1-1h-2l-2 2h-1v2l2 2v12l2 2 3 3a3 3 0 006 0c1 1-2 7-3 6h-3c-1 1-1 1 1 2v3c1 3-3 3-18-1-22-5-20-5-18 13l2 13 2 6v-4c-1-5-1-14 1-16 3-5 21-9 27-6l1 2v2h7l-2-1c-1 1-1 1 0 0 2-2 4 0 4 4s2 6 7 5c3-1 3-1 3 1s3 3 3 1l2 4-1 1h-2c-1 2 2 4 5 5l4 2c2 2 2 2 3 1h2c1-2 1-1 1 3 0 2 3 3 4 0 1-1 2 0 2 2 0 4 1 5 2 3h2c1 1 1 1 1-1l2-2v4l1 2c0 2 0 2 2 1 3-2 3-2 4 1 1 2 2 2 3 0 1-1 1-1 1 1l1-1 3-1a4 4 0 005-2l1 2c2 2 2 2 2 0h1l1-1 1-4c1-3 0-5-2-2l-1 1 2-3v-2l-1-2c0-1 1-1 2 1l4 3v-1c-1 0-2-1-1-2 0-2 1-3 2-2v-1a1 1 0 112-1l1 1v7l1 3-1 2-1-1-1-2-1 1-1 1a2 2 0 102 2l1 1 1 2c1 1 1 1-1 3l-2 3h-2l-1 2v3a11 11 0 00-1 10 5 5 0 00-4 2l1 1-1 4h-4l-1 1v2h-2l-1 1-1-1a1 1 0 10-1-1c1 2-1 3-3 2h-1l-2-5c-1-3-3-2-3 1 0 6-2 6 36 6 31 0 34 0 32-1v-2c1 0 2-5 2-39 0-44 0-42-4-41h-3c-1-1 0-2 1-2l2-3h-2l-1 1c0 3-5 0-6-4l-2-7c-1-4 0-5 2-5h3l1-1v-5c-2 1-4-1-4-3s1-2 2-2c1 1 3 0 4-1h1c-1 1 0 2 1 2l1-1c-1-1 0-4 1-4v1c-1 1-1 2 1 4 3 3 3-24 0-28-4-3-4-4 0-4h1v-1c2-1 1-64 0-64v-3l-4-3 2-1 1 2 1 1c2-1 1-111 0-111v-1a2 2 0 10-2-2h-1l1-2 3-1v-96l-6 5m-386 11c-5 8-6 12-3 10 2-1 1 1-2 8l-3 6h2l3-8 2-7c-2 2-2-2 1-7l6-12-6 10m27 1c-5 9-6 11-5 13s0 4-1 5c-2 6 1 2 5-5l2-5c-4 4-4 2-1-4l7-14-7 10m204-7l6 3a22 22 0 019 6c0-2 5 1 7 4l2 1c0-1 12 5 15 8h2l-7-5-34-17m-174 7l-9 14c-6 9-7 12-7 14v9c-1 6-1 6 3 0l4-5c5-7 9-17 4-11l-2 3v-3c1-5 6-14 7-13h1c1-1 2-1 4 1l4 1 3 2 3 1c1-1 5 2 5 4 0 4 1 5 3 2l3-2 6 3a16 16 0 018 5c1-1 13 4 13 6h1c3-1 14 5 14 7s0 2 1 1c0-2 0-2 7 1 5 2 8 5 3 4h-1c0 3 4 3 5 1 1-1 1-1 1 1s1 2 4 3c4 1 5 2 5 4l3 3 1 1-1 2c0 4 3-3 3-9l1-6-3 1c-3 0-13-4-26-11l-11-4-6-3-2-1-8-4-10-5-12-4-15-7c-3-1-5-3-5-4 0-2 2-1 16 6l12 5 53 25c15 7 15 6 15 5l-5-3-54-25-37-17-2 2m172 2l53 28-54-29 1 1m1 6c0 3 1 4 2 2 0-1 3 0 7 3 1 2 2 2 3 2 1-1 3 0 5 3 2 2 3 3 4 2 0-1 5 1 7 4h1c0-1 5 1 7 3l2 1 5 3 4 3c0-2 2-1 4 1s3 2 3 0l-10-7-28-14c-16-9-17-9-16-6m-207 13c-5 7-5 9-6 14v7l3-5c5-7 7-13 3-7 0 1-2 2-3 1l3-7 6-12-6 9m-18 6c-4 6-7 18-3 13l2-5c-2 0-2-1 2-7 4-9 4-10-1-1m229-6l30 16c33 17 30 15 28 17h1c2-3 3-2-30-19l-29-14m0 4c0 2 9 8 12 8l8 5 3 2 5 2a23 23 0 007 3l4 2c2 3 3 3 5 3l4 3c2 2 3 2 3 1l1-2v-1l-1-2-26-12-25-12m-188 13l-9 14 1 5-1 8-1 5-1 4 2-3 2-4 6-10 6-11-2 2-5 2-3 1 2-4 13-19 4 1 4 2h-3c-3 0-3 0-2 1s0 2-2 5l-2 5c1 1 0 1-1 1l-2 1 1 1v3l1 4h1v-8l1 5c1 6 2 5 3-4 1-5 2-5 11-2 6 3 7 4 7 6s0 2 1 0c0-2 1-2 10 2 4 2 6 4 6 5l1 3v-3c0-3 0-3 8 1a19 19 0 018 6c0-3 1-2 7 1l6 2 1 3c0 3 0 3 1 1 0-4 0-4 12 2l11 5c2 0 3 1 3 6l2 8 1 3v-5l2-4c1 0 2-13 0-15l-17-8-85-37-9 13m-29 7c-4 8-5 9-4 12 1 2 1 4-1 6-2 5-1 5 2 0 4-6 5-8 2-9-1-1-1-1 2-6l5-11-6 8m221-4l29 15 30 15c4 3-13-4-34-15-25-12-24-11-24-10s3 5 5 5l3 2a5 5 0 005 2 17 17 0 0011 5l1 1 5 3 3 1 9 5h1c0-2 6 2 8 4 1 2 2 2 2 1h2a3 3 0 006-3h1l-63-32v1m-190 17c-7 11-16 24-17 23v21l3-5 12-18-2 2c-1 2-1 2-3 1l-3-1c-3 1-3 1 4-9 10-14 10-14 13-13 2 0 4 4 3 6l1 2 3-1c1-1 2-2 5-1l4 1h1l-2 1-6 1c-2 0 6 3 10 3l-2 5-4 5 2 1 3 1 1-4 2-2 1-2 1-2c14 6 15 6 15 9 0 2 0 2 1 0v-2l5 2a265 265 0 0119 7l8 4c0 1 1 2 3 2l7 2 5 2v12l1-6c0-6 0-6 9-2 4 2 5 3 5 7l2 6 1 6v3l1-5v-3l1-8c0-10 1-9-20-18l-53-21c-40-17-37-16-40-12m195 4l6 4 37 17 17 8-59-29h-1m-232 9c-3 6-4 7-4 12l-1 8c-2 4 0 4 2 0l2-5c-2 1-2 1-1-2l3-4 4-15-5 6m185-3c-1 2-1 2 2 3 3 2 3 2 1 2-5-1-3 11 2 16 4 4 8 13 10 23l6 28 3 23 1 2 1 1v1c2 0 2 3 1 5s2 8 5 8c2 0 2 0 2-7l-2-8 2-2v-1h-2l2-2v-1c-3 2-2 2-5-14l-3-14 2-2 3-2-3 1c-2 3-3 2 0-1v-2l-1 1-1 1c-1-1-3-15-2-17v-5c-1-5-2-5-2 1l1 5-1-5c-1-4-1-4 1-6 1-2 2-3 1-4l-1-4c0-6-3-15-7-19-6-7-14-9-16-5m48 0l18 8 5 4c0 2 0 2 1 1s9 2 9 4h1c2-1 9 3 10 5 0 2 0 2 1 1 1-2 6 1 8 4 2 2 2 2 2 0 0-1 1-1 3 1 3 3 3 3 2 1 0-2-3-4-11-7l-29-14-20-8m-161 4l4 1 8 4 9 3 2 1 1 1 24 9c16 9 26 13 27 11 1-1 0-2-29-14-48-19-50-20-46-16m167 15l22 11 26 12 10 3-58-27v1m-214 16c-7 10-10 13-11 12l-3-1 1 2c4 2 4 11 1 22l-1 7c1 2 6-6 7-9a8 8 0 016-7c-1-1 2-7 3-7l4-16c0-6 3-6 11-3 7 3 8 4 8 7l1 4v-8l4 2c4 3 7 4 7 3h4c5 1 13 5 13 6h2l7 2 6 2s2 1 2 3c1 2 1 2 2 1 0-2 1-2 5 0l8 2c3 2 3 2 3 6v4l1-4 1-4 6 2c7 2 8 3 9 10l1 6v-6c-1-6 0-7 7-4s7 3 8 10c0 3 1 5 2 5 2 1 2 2 2-9 1-10 1-10-13-15a11355 11355 0 01-59-23l-44-16-11 14m214-11l6 4 7 5h1c1-1 8 2 10 4h1c1-2 8 3 10 7l2 4-1-4c0-3 0-3 2-2 14 5-17-11-37-19l-1 1m-202 1c-2 1 0 3 5 4l8 3a97 97 0 0015 6h5v1h1c3-2 4-1-16-8-20-8-17-7-18-6m-43 7c-4 4-4 6-4 11l-2 10-1 5c2 1 5-7 6-14l4-13c1-6 1-6-3 1m251 13l28 12-14-7-14-5m-124 11l19 9c3 0 5 2 5 2h3c2-1 2-1-18-8-10-4-11-5-9-3m146 3l-2 1h-1l-2 1c-4-1-4-1 0 3a4 4 0 012 6c0 2 1 2 2 1 2-2 2-8 0-9h1l4 2h4c2 0 2 0 1-1l-5-2-3-2h-1m-280 4a5 5 0 01-5 4c1 0 2 5 2 11l2-6 3-10c1-4 1-4-2 1m32 10c-10 14-10 14-13 13l-4-1 3 2 3 1-2 1c-2-1-3-1-2 2l-1 4v2l2 5 2 3v2l1 1c2 0 4 3 3 4l2 1c4-1 5 2 3 14l-1 14-1 11-1 9 4-1 15 2c6 1 11 2 12 1l3 1c3 2 37 10 38 9l-35-10a4 4 0 01-4-2l-10-1-11-3-3-3h8a55 55 0 0117 6l11 2a4953 4953 0 0162 17h1l4 1-1 1h-1 6c6 2 12 0 14-6 4-6 7-17 8-26l2-8 2-19c2-21 4-18-23-27l-36-13a3331 3331 0 00-65-22l-12 13m9-6c-16 21-16 20-9 20h6a5 5 0 014-2l2 1c3 1 3 3-1 6l-3 4c0 1-1 4-3 5-2 3-2 3 0 4l1 2h-2a4 4 0 00-1 2h2l1 1h5l3 1 2 1 3 1 2 2h1l1-1h5c1 2 7 3 6 1l3 1 5 1h5c4 2 10 3 19 3l5 1h4l6-1 7-1h10l9-1c2-1 4-2 5-1l3-1 3-1 5-2 4-2 7-6-121-42-4 4m269-3h-1l-3 2-1 1h-1l-3 1c-1-1-1 0 0 0l-1 2v3c0 2-1 3-2 3h-2l-1 1-1 1h-2c0 2 0 3-1 2v-1h-1c-2 0-1 2 2 4l-1 1-2-1c0-1-1-2-3-1h-2l2 1 2 3 1 2 2 1h-1l-1 1a2 2 0 103-3c-1-2-1-2 1-1 4 0 7-2 5-4l-1-2 1 1a1 1 0 102 0l2-3c3 0 3-2 1-5l1 1c3 2 6 2 6-1h1l1-2-1-1-1-1h2c1 1 2 1 2-1 1-1 2-2 3-1 2 1 3 2 2 3v1h2l-3 1c-3 0-3 0-2 1 2 1 3 1 5-1 3-1 3-2 2-2-2 0-2 0-1-2 1-1 1-1 0 0l-3-2c-1-2-2-2-5-2a4 4 0 01-4 0m36 13c0 4 4 6 9 5s6-3 3-5c-3-3-3-3-3 1v1a5 5 0 00-6-2l-1 1-1-2c-1-1-1-1-1 1M81 475l-3 9c-2 3-1 6 0 5a2 2 0 111 3c-2 0-2 0-2 2 1 1 0 2-1 2s-2 0-2 2c0 4 0 4 5 1 4-3 10-10 14-17l3-6-2-1-6-2-4-4-2-2-1 8m346-3c1 2 0 3-1 3v4l1 3h-1c0-2 0-2-2-1-2 3 0 4 3 3h5c2 2 3 2 3-1h-3v-2l2-1c0-1 0-2-1-1l-2-1c0-1 0-2 1-1 2 0 1-3 0-4l-2-3-2-1-1 3m-44 0l-2 2c1 1 1 1-1 2-2 0-2 1-1 1v2l1 1 1 1a1 1 0 001 1l1-2c3-3 4-5 2-5l-1 1c-1 1-1 0-1-1 0-2 0-2 3-1l2-1c0-3-1-3-5-1M31 500c-2 4-2 4 0 4h3l3 1 14 1c10 0 15 0 12-2l-2-1v1c4 2-14 0-20-3-4-1-9-2-10-1m343 23h-1c0-1-1-1-2 1l-2 1-1 1 3 3 2 1 1 1v-2l1-1c1 1 1-1 1-4h1c2 2 5 1 4-1l-3-1h-3c-1-1-1-1-1 1m128 0c-1 4-1 6 1 5v4h1l-2 2-2 1 10-5c2-2 1-3-2-1-1 1-1 1 0 0s1-2-1-3l-5-3m-84 26v4l1-2 1-2v2l2 1 2 1a3 3 0 005 0l-1-2v-2c0-2-8-2-10 0m71 2v14c0-2 0-3 2-3l1-2c0-3 1-3 2-1 2 1 2 1 2-1-1-2-1-2 1-2h3c0 2 0 3 2 3l1-2h1l2 2c-1 1 1 3 2 2s-2-5-6-7l-4-2h-1v1l1 1h-6c1 1 0 2-2 1v-1l1-2c0-2 0-2-2-1m-93 1c-3 0-3 7 0 9a5 5 0 008-2c2-1 2-1 1 1h2v1c-2 3-2 3 0 3l1-1 2-3v-3l1-1h-2l-5 1-5-6-3 1m-287 9l-3 6c0 5-3 20-6 27a79 79 0 00-4 14l-29-3-11-2 38 7c2 1 3 1 2 3-1 3-2 4-7 3l-36-5 8 2 33 6c2 0 2 0 1 3l-2 5c0 3-3 8-4 8v1l-1 1-3 1c-3 2-3 3-3 1-1-1-1 0-1 2l-1 3v2c2 3-2 8-5 7-2-1-1 1 1 1l1 3c-1 1-1 1 0 0 3-3 6 1 3 4-1 1-1 1 0 0 2-1 2-1 2 1l-1 2h-3l-1-1-2-1h-2v2c2 0 4 2 3 3l-3-2-3-1 1 2h-1l-2 1h-1v-1a3 3 0 00-5-2h-1l-4-1-3 1-2 1 1 1c2-2 2 1 0 3l-1 3-1 2-1 1 2-1h3l-1 1-3 2c-2 2-4 3-4 1 1-1 0-2-1-1-2 0-2 0-1-2l-1-1-1 4-2 3-2 1 13 1c12 0 13 0 13-2 1-2 1-2 2-1 0 3 3 3 22 3 14 0 17 0 18-2 1-1 1-1-1-1-4 0-5 0-5-2l1-2c1-1 1-1-1-1l-1 1v3c-1 2-4 2-5 0v-2l1-2c0-2 0-2-1-1-2 3-2 1-1-5 1-3 2-4 2-2 0 5 1 1 2-6v-9a406 406 0 006-38v-1l4-5 2-2c-6 5-6 5-6 2l5-7c2-3 3-4 1-3-5 5-5 4 0-20l2-17v-3l-3 3m327 23c1 1 1 1-1 1-1-1-1-1 0 0v2c0 1 3 1 6-1 2 0 2 0 3 2 0 2 0 2 3 1 3-2 3-4-1-4l-3-1c0-2-1-2-3-1h-2l-1-1-1 2m22 8l-2 1-1 1c-1-1-1 0-1 1l1 2 1-1v-1l1 1 2-1v-2c0-3 2-1 2 2l-1 3-1 2v1l-1 1 3-1a8 8 0 014-1c2 0 1-3-1-3l1-1v-1l-1-2c0-2-2-2-6-1m30 2c1 1 0 1-1 1-3 0-4 1-2 3l1 2 1 1 1 1 1 1c2-1 1-3-1-3-1-1 0-1 1-1 2 0 4 3 2 3l-1 2h5c2-1-1-6-5-6l-3-1h1c2 0 3-1 1-3h-1m-125 67a12 12 0 002 8l2 2v3c-2 1 2 2 4 1v-1l-2-1c0-2 1-2 3-1 2 2 3 2 6 0 7-2 18-5 23-5h5l-6-1-35-6-2 1m-280 2v7c-2 1-3 8-1 8h2l2-3v-2c-3 1-4 1-2-2l1-3c-1-2 2-3 4-2h1l-2-2-3-2c-2-1-2-1-2 1m348 7c0 1 0 2-2 2-3 0-4 1-1 2a156 156 0 013 1v-1l4 3h-3l1 2 1 2h-1l-2-3-2-1c-3 0-4 1-2 4 1 2 2 2 8 2 4 0 6 0 5-1v-1l1-3c-1-1-1-1-2 1h-1l-1-2v-2a1 1 0 10-1-1l-1 1v-3l-1-2h-1l-1-2-1 2m-30 8c0 3-2 3-2 1l-1-2-2 2c-3 4-3 4 6 4 8 0 8 0 6-2l-2-1-3-2-2-2v2m-276 2l-2 3h9a46 46 0 0013-1l6 1 5-1c0-1-2-2-5-1h-4l-6-1c-3 1-3 1-4-1l-1-1c0 2-1 2-3 0-2-1-2-1-2 1s-3 1-4 0c0-2-1-1-2 1"
    itemprop="bold" fill-rule="evenodd" tabindex="-1" opacity="0.95"
    fill="url(#16282281824-posters-1657396643332-vertical-bold" fill-opacity=""
    stroke="url(#16282281824-posters-1657396643332-radial-regular" stroke-opacity=""></path>
</svg>
