<svg id="16282281824-posters-1674682501881" itemscope="" itemtype="/posters"
  itemid="/+16282281824/posters/1674682501881" viewBox="0 0 512 683" preserveAspectRatio="xMidYMid slice" tabindex="0"
  xmlns="http://www.w3.org/2000/svg">
  <defs class="gradients">
    <g class="radial">
      <radialGradient id="16282281824-posters-1674682501881-radial" gradientTransform="rotate(0)">
        <stop itemprop="radial" stop-color="#7c9acb" offset="0%"></stop>
        <stop itemprop="radial" stop-color="#6d8bc0" offset="15%"></stop>
        <stop itemprop="radial" stop-color="#7282a1" offset="30%"></stop>
        <stop itemprop="radial" stop-color="#4f6896" offset="45%"></stop>
        <stop itemprop="radial" stop-color="#4268ae" offset="60%"></stop>
        <stop itemprop="radial" stop-color="#3c5d9a" offset="75%"></stop>
        <stop itemprop="radial" stop-color="#5075b9" offset="90%"></stop>
      </radialGradient>
      <radialGradient id="16282281824-posters-1674682501881-radial-background" gradientTransform="rotate(0)">
        <stop stop-color="#b6c7e2" offset="0%"></stop>
        <stop stop-color="#b8c7e0" offset="15%"></stop>
        <stop stop-color="#c2c9d6" offset="30%"></stop>
        <stop stop-color="#bcc7dc" offset="45%"></stop>
        <stop stop-color="#b5c5e3" offset="60%"></stop>
        <stop stop-color="#b6c5e2" offset="75%"></stop>
        <stop stop-color="#b6c5e2" offset="90%"></stop>
      </radialGradient>
      <radialGradient id="16282281824-posters-1674682501881-radial-light" gradientTransform="rotate(0)">
        <stop stop-color="#83a0ce" offset="0%"></stop>
        <stop stop-color="#869fcb" offset="15%"></stop>
        <stop stop-color="#97a3ba" offset="30%"></stop>
        <stop stop-color="#8da0c3" offset="45%"></stop>
        <stop stop-color="#819dcf" offset="60%"></stop>
        <stop stop-color="#829dce" offset="75%"></stop>
        <stop stop-color="#839dce" offset="90%"></stop>
      </radialGradient>
      <radialGradient id="16282281824-posters-1674682501881-radial-regular" gradientTransform="rotate(0)">
        <stop stop-color="#4065a0" offset="0%"></stop>
        <stop stop-color="#43649d" offset="15%"></stop>
        <stop stop-color="#5a6987" offset="30%"></stop>
        <stop stop-color="#4d6693" offset="45%"></stop>
        <stop stop-color="#3e61a3" offset="60%"></stop>
        <stop stop-color="#3f61a2" offset="75%"></stop>
        <stop stop-color="#4062a0" offset="90%"></stop>
      </radialGradient>
      <radialGradient id="16282281824-posters-1674682501881-radial-bold" gradientTransform="rotate(0)">
        <stop stop-color="#131e2f" offset="0%"></stop>
        <stop stop-color="#141e2e" offset="15%"></stop>
        <stop stop-color="#1b1f28" offset="30%"></stop>
        <stop stop-color="#171e2b" offset="45%"></stop>
        <stop stop-color="#121d30" offset="60%"></stop>
        <stop stop-color="#131d30" offset="75%"></stop>
        <stop stop-color="#131d2f" offset="90%"></stop>
      </radialGradient>
    </g>
    <g class="vertical">
      <linearGradient id="16282281824-posters-1674682501881-vertical" x1="0" x2="0" y1="0" y2="100%"
        gradientTransform="rotate(0)">
        <stop itemprop="vertical" stop-color="#7797ca" offset="0%"></stop>
        <stop itemprop="vertical" stop-color="#6d84b0" offset="15%"></stop>
        <stop itemprop="vertical" stop-color="#566c95" offset="30%"></stop>
        <stop itemprop="vertical" stop-color="#4268ae" offset="45%"></stop>
        <stop itemprop="vertical" stop-color="#3d5f9e" offset="60%"></stop>
        <stop itemprop="vertical" stop-color="#7797ca" offset="75%"></stop>
        <stop itemprop="vertical" stop-color="#6e85af" offset="90%"></stop>
      </linearGradient>
      <linearGradient id="16282281824-posters-1674682501881-vertical-background" x1="0" x2="0" y1="0" y2="100%"
        gradientTransform="rotate(0)">
        <stop stop-color="#b6c7e2" offset="0%"></stop>
        <stop stop-color="#bdc7db" offset="15%"></stop>
        <stop stop-color="#bec8da" offset="30%"></stop>
        <stop stop-color="#b5c5e3" offset="45%"></stop>
        <stop stop-color="#b6c5e2" offset="60%"></stop>
        <stop stop-color="#b6c7e2" offset="75%"></stop>
        <stop stop-color="#bdc8db" offset="90%"></stop>
      </linearGradient>
      <linearGradient id="16282281824-posters-1674682501881-vertical-light" x1="0" x2="0" y1="0" y2="100%"
        gradientTransform="rotate(0)">
        <stop stop-color="#829fce" offset="0%"></stop>
        <stop stop-color="#8ea0c2" offset="15%"></stop>
        <stop stop-color="#91a1c0" offset="30%"></stop>
        <stop stop-color="#819dcf" offset="45%"></stop>
        <stop stop-color="#829dce" offset="60%"></stop>
        <stop stop-color="#829fce" offset="75%"></stop>
        <stop stop-color="#8fa1c1" offset="90%"></stop>
      </linearGradient>
      <linearGradient id="16282281824-posters-1674682501881-vertical-regular" x1="0" x2="0" y1="0" y2="100%"
        gradientTransform="rotate(0) ">
        <stop stop-color="#3f65a2" offset="0%"></stop>
        <stop stop-color="#4f6592" offset="15%"></stop>
        <stop stop-color="#52678e" offset="30%"></stop>
        <stop stop-color="#3e61a3" offset="45%"></stop>
        <stop stop-color="#3f61a2" offset="60%"></stop>
        <stop stop-color="#3f65a2" offset="75%"></stop>
        <stop stop-color="#506691" offset="90%"></stop>
      </linearGradient>
      <linearGradient id="16282281824-posters-1674682501881-vertical-bold" x1="0" x2="0" y1="0" y2="100%"
        gradientTransform="rotate(0)">
        <stop stop-color="#131e30" offset="0%"></stop>
        <stop stop-color="#171e2b" offset="15%"></stop>
        <stop stop-color="#181e2a" offset="30%"></stop>
        <stop stop-color="#121d30" offset="45%"></stop>
        <stop stop-color="#131d30" offset="60%"></stop>
        <stop stop-color="#131e30" offset="75%"></stop>
        <stop stop-color="#181e2b" offset="90%"></stop>
      </linearGradient>
    </g>
    <g class="horizontal">
      <linearGradient id="16282281824-posters-1674682501881-horizontal" x1="0" x2="100%" y1="0" y2="0"
        gradientTransform="rotate(0)">
        <stop itemprop="horizontal" stop-color="#5e82ba" offset="0%"></stop>
        <stop itemprop="horizontal" stop-color="#5374ac" offset="15%"></stop>
        <stop itemprop="horizontal" stop-color="#62718d" offset="30%"></stop>
        <stop itemprop="horizontal" stop-color="#45587d" offset="45%"></stop>
        <stop itemprop="horizontal" stop-color="#3c5990" offset="60%"></stop>
        <stop itemprop="horizontal" stop-color="#3c5686" offset="75%"></stop>
        <stop itemprop="horizontal" stop-color="#4a6ca5" offset="90%"></stop>
      </linearGradient>
      <linearGradient id="16282281824-posters-1674682501881-horizontal-background" x1="0" x2="100%" y1="0" y2="0"
        gradientTransform="rotate(0)">
        <stop stop-color="#b8c7e0" offset="0%"></stop>
        <stop stop-color="#bac7de" offset="15%"></stop>
        <stop stop-color="#c3c9d5" offset="30%"></stop>
        <stop stop-color="#bdc8db" offset="45%"></stop>
        <stop stop-color="#b7c6e1" offset="60%"></stop>
        <stop stop-color="#b9c6df" offset="75%"></stop>
        <stop stop-color="#b9c7df" offset="90%"></stop>
      </linearGradient>
      <linearGradient id="16282281824-posters-1674682501881-horizontal-light" x1="0" x2="100%" y1="0" y2="0"
        gradientTransform="rotate(0)">
        <stop stop-color="#86a0cb" offset="0%"></stop>
        <stop stop-color="#8aa0c7" offset="15%"></stop>
        <stop stop-color="#99a4b8" offset="30%"></stop>
        <stop stop-color="#8fa1c1" offset="45%"></stop>
        <stop stop-color="#859ecc" offset="60%"></stop>
        <stop stop-color="#879ec9" offset="75%"></stop>
        <stop stop-color="#87a0c9" offset="90%"></stop>
      </linearGradient>
      <linearGradient id="16282281824-posters-1674682501881-horizontal-regular" x1="0" x2="100%" y1="0" y2="0"
        gradientTransform="rotate(0)">
        <stop stop-color="#43669d" offset="0%"></stop>
        <stop stop-color="#496697" offset="15%"></stop>
        <stop stop-color="#5c6a84" offset="30%"></stop>
        <stop stop-color="#506691" offset="45%"></stop>
        <stop stop-color="#42629e" offset="60%"></stop>
        <stop stop-color="#46639b" offset="75%"></stop>
        <stop stop-color="#46659b" offset="90%"></stop>
      </linearGradient>
      <linearGradient id="16282281824-posters-1674682501881-horizontal-bold" x1="0" x2="100%" y1="0" y2="0"
        gradientTransform="rotate(0)">
        <stop stop-color="#141e2e" offset="0%"></stop>
        <stop stop-color="#161e2d" offset="15%"></stop>
        <stop stop-color="#1b1f27" offset="30%"></stop>
        <stop stop-color="#181e2b" offset="45%"></stop>
        <stop stop-color="#141d2f" offset="60%"></stop>
        <stop stop-color="#151d2e" offset="75%"></stop>
        <stop stop-color="#151e2e" offset="90%"></stop>
      </linearGradient>
    </g>
  </defs>
  <rect itemprop="background" width="512" height="683" tabindex="-1" id="16282281824-posters-1674682501881-background"
    fill-opacity="1" fill="url(#16282281824-posters-1674682501881-radial-background)"></rect>
  <path id="16282281824-posters-1674682501881-light"
    d="m0 198 1 197c1-1 4 3 4 5s5 7 6 7c1-1 9 4 9 5l1 1 2 1 1 1a36 36 0 0 1 14 7l4 2c2 2 4 3 5 2l5 2 6 2 7 4c2 3 4 4 6 4 3-1 4-2-13 13l-9 7-6-2-6-2 4 2c4 2 6 3 5 4h1l6-1h1c-3-1-3-1 7-10 9-7 10-8 11-6 2 1 3 2 4 1l2 1c2 2 2 2 3 1l2-1-10 8c-8 7-10 8-13 7-2 0-3 0-2 1 3 0 2 2-4 8-5 6-5 6 2 0l7-7 14 1a298 298 0 0 0 21 3l-2 1 11 10c2 1 3 2 3 4 0 1 3 2 4 1l3-5c3-5 8-32 9-56a38 38 0 0 1 3-13l1-1 7-5 6-6v6l-4 31-3 33c1 1 9-3 10-5l3-1 5-3 4-3c1 1 7-5 7-7v-2l1 2 1 2 2-2 4-8 1-5v7c2 5 7-3 7-9l1-4c2 0 2 0 1-1v-1a2 2 0 0 0 0-3l-1-5a12 12 0 0 1 2-6v-2l-1-2v-1l2-15a5 5 0 0 1 2-5c0-2-3-1-6 1l-3 6-4 39-1-3 4-35v-2l-4 2c-2 2-3 3-3 8v7l-1-4-1-6v-2l1-3c0-3 0-3-1-2h-3v-1l3-3 2-1v2l4-4 1-1c2 0 9-7 9-8l2-1 2-2h-1v-1l1-7-6 5-5 5-6 6-7 5v-6l3-3 3-7 3-7 2-3 2-4 3-6c1-3 1-3 1-1l-1 3 3-3 3-2h4v1l2-2a6 6 0 0 1 3-4v1l1-2c0-1 1-2 2-1l1-1c-1-2 4-8 5-6 1 1 6-4 6-6-1-1 4-7 6-7l-2 3-1 2 1-1 2-2c2-1 2-1 1 8l-2 40-2 37-2 24-2-1-1 2v1h-5a7 7 0 0 1-5 6l-1 1h-1l-1 1h-1l-1 1h-1l-9 6c-7 4-10 7-6 6 2 0 2 1 1 2l-2 1-1 1-1 1-3 1-2 1-1 1-1 1-3 1-2 1-1 1-4 2-15 9-7 3c-1-2-9-2-8 0l-7 6c-6 3-7 4-6 5s3 1 8-2c8-4 7-4 6 1l-2 12c0 9-3 22-3 18l1-8c2-6 2-18 1-17l-1 3v1c-2-5-8-1-8 4v2l-1-3c-1-1-1-1-1 1a29 29 0 0 1-2 12c0-3-4-5-13-7l-6-1-12-9-1-2v-10l-1-5c1-4 0-3-2 2l-2 10-1 3c-1-1-1 0 0 0a1 1 0 1 1-2 1h-1l-8 5c-7 4-8 7-2 5l3 1c0 3-2 7-3 7v-1l1-4c0-7-4 3-6 13v6l-1-4v-6l1-4-3 6h-1l-6 3c-4 2-4 3-5 8 0 8 0 8-5 8-4 0-5 0-5-2h-1l-2 2c-3 0-5 3-6 8 0 3-1 5-2 5v2c1 2 3-1 4-5v-6h3c-2 5-2 8-1 8 2-1 1 1-2 5l-2 1v5l-11-1H0v120h513v-61l-1-47c0 13 0 13-2 13-10-3-13-3-21-3-12 0-19 1-29 6-11 5-24 8-25 5v-3l-1-2-2-2-4-7c-3-2-5-5-5-6 0-3-21-6-45-6l-14-1c-1-1-9 3-17 9s-11 6-15 3l-8-5-5-2v-5l-1-7c-2-1 1-1 148-9l42-3h4v-36c-1-33-1-36-3-48l-5-25a108 108 0 0 0-4-18l-1-7c-2-11-4-23-3-24 1-2 3 2 3 6l6 35 4 18c3 17 3 17 3 5a254 254 0 0 0 0-22c0-8 0-8-2-7l-2-1 2-2c2 0 2-1 2-15v-15l1-197V0H0v198m0 0c0 109 1 153 1 99a45462 45462 0 0 0-1-99m229-29c-1 1-2 2-1 4l-1 2c-1 0-2-3-1-5 0-2-3-1-3 1l-2 1c-1-1-1 0 0 0l-1 2-2 1c1 1 0 3-1 4l-1 3-2 6c-2 3-2 3 0 7 2 6 1 38-2 36l-1 3-1 3-1 2-1 1c-1 0-2 1-2 3l-3 5c-3 2-2 4 0 8l2 4v4c1 3-1 32-3 37l-2 5c-1 1-2 2-1 3s0 2-2 5l-2 4-2 2v5c1 4 0 7-6 12-5 5-6 9-4 9l9-7a68 68 0 0 0 9-11l4-3 1-1c0-1 0-2 1-1l1-1c0-1 0-2 1-1l1-1 1-2 2-3c3-4 1-4-5 2l-5 5 5-5c5-6 6-7 5-10 0-4 0-5 2-7s2-3 1-4 0-2 4-2c3 0 4 0 4 2h1v-1l2-1c2 0 7-5 5-5l2-1c1-1 2-2 2-11l1-20-1-12-2-1c0-2-5-2-12-1h-2l4-1c2 0 1-1-2-1l-6-1v-5c-1-1-1-1 1-1v-1c-2-1-2-1 2-1l4-2h9c-6 1-6 2-1 2 6-2 7-2 6-3v-1c2 0 2 0 1-2v-11l1-2v2l1 3c2 0 3-31 1-33v-3l-2 1-5 1h-4l-2-1c-3 1-5-1-4-3s1-2-1-2 2-2 5-2l-1 1c-2 0-2 1-1 1h7l2-1 2-1h1l-4-1 2-1c6-1 7-2 7-3 0-2-3-1-5 1l-2-1c-2-2-2-2 2-2h3-12m4 17-4 1c-4 0-4 1-4 4a507 507 0 0 1 0 17l1-6v6c0 7 1 8 8 6 4-1 4-3 4-14-1-7 0-10 1-11 2-2 1-3-2-3h-4m-13 61v4c-2 13-2 38-1 38l1-3c0-3 0-3 1 1 1 3 1 3-3 4l-5 1c0 1 1 1 13-1l6-1-1-12-1-12 1-2c3-1 2-3-2-3h-2l2-1 3-3 1-2v-2l1-4c2-3 0-4-7-4-4 0-7 1-7 2m-6 19c0 6-1 9-2 9s-2 1-1 2l1 2 1 2 3-14c0-5-2-6-2-1m-56 5-2 3-2 5-2 5c-2 3-2 7 0 4 1-1 1 0 1 3a107 107 0 0 1-7 34l-2 2-2 4c-4 5-3 6 2 4v1l-2 1h-1l1 2v6a121 121 0 0 1-6 37l-2 3c-2 2-2 3-1 6 0 4 0 4-5 10-4 4-6 6-5 7 2 1 18-17 17-18h6l7-1-2-1-1-3c1-3 1-4-1-4l-1 4-2 2c-2 1-2 0-2-5 0-7 1-7 3-7 3 0 3 0 2 1v1l2-2h3l4 1v-5l3 1 2 1c2 0 0-1-3-3l-2-1c2 0 2-1 2-5l1-12c2-13 2-16 1-17l-1 2a10 10 0 0 1-6 10l2 1a31 31 0 0 1-1 19 4 4 0 0 0-3 1c-2 0-2 0 1 1l3 1h-4l-6 2-3 1 1-1c2-1 2-3 3-8a316 316 0 0 1 3-29h3a18 18 0 0 0 7-2 18 18 0 0 1-12-6l5-1c8-1 12-3 5-3h-4c1-1 0-4-2-4-1-1-1-1 1-1l2 2 1-1 3-2v1c-3 2-2 4 2 4h3v-5a3 3 0 0 1 3-5l2-26c-1-1-3 4-3 10 0 9-1 12-4 12-2-1-3 2-1 2v1c-2 1-2 0-2-1 0-3-2-2-3 2 0 2 1 3 2 3v1h-3l1-13 1-8c0-9 0-8 6-9 7-1 9-2 4-2s-10-1-10-3h1l1-1-2-1c-1-1-1-1 1-1l2 1h6l-3-1-2-1h2l3 1h2c2 0 2 0 1-1v-1l2-2-2-2v2h-6v-1c4-2 4-2 1-2s-4 1-4 3l-1 1a6 6 0 0 0-2-4m66 32c-1 0-2 1-2 3l-2 4c-1 1-1 1 1 2 4 0 5-1 5-6 0-3-1-3-2-3m-22 44c-4 3-5 5-4 7 0 3-1 3-2 0l-1 5c0 6 0 7 1 3 0-3 1-4 2-4l2-3 4-7c3-3 4-4 3-5l-5 4m2 13a5 5 0 0 1-1 6c1 1-2 4-4 4-3 1-3 3-1 5 2 1 6-3 6-6l1-1v3l1 5 1 3v-3l1-10c0-6 0-7-2-8s-2-1-2 2m-25 0-1 4c1 0 0 1 0 0-1 0-2 1-2 3l-2 3a5 5 0 0 0-2 6c-2 0-5 4-5 6l7-5a26 26 0 0 0 10-18c1-1 1-1-1-1l-4 2m23 17h-3c-1 0-2 3 0 5l1 6v7l-1-6c-1-6-1-6-1-2v15l1-4v3c0 3 0 3 2 1 1-1 2-4 2-14 1-11 1-14-1-11m-2 29c-5 3-6 4-4 5l4-4c1-3 3-2 3 2 0 6 0 8 1 7l1-7v-7l-5 4m-19 31a23 23 0 0 1-7 9l-1 4-1 3 2-3c2-2 2-3 3-2s8-3 9-5l2-1 1-1v-2l1-1 1-1c2 1 2-2 0-4s-3-2-3-1l-1 2v-3c3-5 0-1-6 6m-50-2-1 20-1 3-2 2 2-2 2-1v3l-1 5-2 1c-1 1-2 1-1 2 1 5 4-3 5-11v-22h-1m61 15c-12 7-14 9-14 12-1 2-6 5-26 15-13 7-14 8-16 16l-1 3 2-2 5-3 2-1 4-2 4-2a10 10 0 0 1 8-3l4-3 4-1c0 1 1 1 2-1 2-3 8-5 8-4l1 2c2 0 1-4-1-4s-2-1 0-3l2-1v1c2-1 2 0 2 1 0 2 0 2 1 1v-2c-2-2-1-3 4-5l7-4 4-1 1-1 1-1h1c-1 3 0 2 2-1s4-13 2-13l-13 7m-119 5-8 6 16 2 16 1-2-1-2-1h-1l-1-1c0-2-5-6-6-6v-2l-1-1-3-3-8 6m82 12-20 12 3-1 11-6 16-9a30 30 0 0 1 12-6c-2-2-3-1-22 10m37 8v10l-1 6v7c0 8 0 8-1 3v6c0 8 0 11-1 9v8c0 14 0 14-8 16-5 0-5 1-4 6v4a2 2 0 1 0 2 2l3-1 2 1 4 1c4 1 4 1 5 7 3 13 5 1 6-29v-11c0 2 0 2-1 1s-1 1-1 5l-1 8-1-1-1-2v-1l1-2v-1l1-3c0-5-2-4-4 1l-2 2v-4c-1-1 0-2 1-3 1 0 2-1 2-3l1-3v-1l-1-6 1-11c0-9 1-16 2-15l3-1-1-1c-2 1-2 0-1-3l1-2-1-1h-3c-1-1-1 0-2 2m-14 3-1 3-1 13c-2 13-2 14-1 14l1-1v-2l1-5v-8c2-12 2-19 1-14m93 60-1 26h-5c-8 0-14 1-14 3h-1c0-2-1-2-4-2-5 0-7 1-6 3 0 2 4 3 9 2l13-1 9 1 1-4v-53l-1 25M67 518l-6 3c-2 0-4 4-5 9l1 5c1 0 2 0 1-1h1c2 2 8 3 8 1l2 1c2 3 4 0 4-7l1-7 1-4c0-5-1-5-8 0m107 9-1 2h-1l1 1v1l-1 3-1 5-2 6c0 3-2 6-4 6l-1-3c0-5-2-5-3-1l-1 4c-1 1-5 0-5-1l-1-1-2-1-1-1v2c0 1 0 2-2 2-1 1 0 1 2 1 5 0 5 0 4 3 0 4-2 8-4 8-3 0-6 5-4 6v6c-3 2-2 6 0 6v-1c-3-2 1-4 6-3 6 1 6 1 6-2v-4c2-2 3 0 3 3l1 3c2 0 3-3 3-8l1-4c2-3 5-14 3-14-1-1-1-1 1-1s2 0 1-4l1-4c1 1 2 0 1-4v-6a6 6 0 0 0 0-5M53 542l-3 3-6 3h1l2 1c1 1 1 1 2-1l1-1 1 2v2l1 4c2 1 2 0 3-7 1-9 0-12-2-6m93 1-2 4-1 3-1 2c-2 0-3 5-2 7 2 3 3 2 4-2l1-5 1-2v-3l1-4c-1-2-1-2-1 0m-40 9-3 2-3 3c-2 3-4 4-5 2h-1l-3 3a4 4 0 0 0-4 6v1l2-1v-1c-2-1-1-2 2-2 2 0 3 1 2 2a3 3 0 0 0 5-1c1-2 1-2 2 0 1 3 2 3 3-1l3-8c2-4 2-7 0-5m55 4c-2 5-1 6 2 6s5-3 5-8c0-3-5-1-7 2m-23 7c0 2-2 3-3 3-3 0-3 0-3 5v4l-2-7h-3v5c0 4 0 4 3 4h2c1 1 1 0 2-1 1-6 3-6 3 0 0 2 1 3 3 1s3-11 1-10h-1l1-1v-3l-2-2-1 2m162-1c-12 0-15 1-14 3 1 3 5 5 14 6l13 1 4 1v-3l-1-5-2-3-4-1-10 1M0 623c0 33 1 47 1 30a3961 3961 0 0 0-1-30m274-60c-2 6 2 9 6 6l2-1 1-2c0-3-1-3-5-3h-4m-244 4c-3 8 0 16 3 8l2-3c2 0 1-2-1-2l-2-4c-1-2-1-2-2 1m171 7 1 2v4c1 3 2 4 4 3 1-1 2-1 1-2v-3c0-2-2-3-2-1v-1c0-3 0-3-3-3-2 0-2 0-1 1m153 3-4 4-2 1h5c5 0 6 0 5 1v1c2-1 5-8 3-9s-2-1-7 2m121 13c-6 2-6 3 0 3h8c3 1 4-2 1-2l-3-2c0-1-2-1-6 1m31 1c-2 1 1 8 4 8 2 0 2 0 2-4-1-5-3-6-6-4"
    itemprop="light" fill-opacity="0.90" stroke-opacity="" stroke-width="0.33px" fill-rule="evenodd" tabindex="-1"
    fill="url(#16282281824-posters-1674682501881-vertical-light)"
    stroke="url(#16282281824-posters-1674682501881-horizontal-background)"></path>
  <path id="16282281824-posters-1674682501881-regular"
    d="m499 32-49 48a26966 26966 0 0 0-165 160 118 118 0 0 1-18 15l-7 8c-5 6-6 6-6 4v-6h2c0-2-2-4-5-4l-2-1h-2l-2 2v1l-1 2-2 2h-2l1 1 1 8c0 8 0 9-3 12l-3 3 3-1 3-3v3c0 3 0 4 3 4l6 2c2 0 2 0 1-1v-2l-1-1a1 1 0 0 1 0-2l1-1 1-2 1-6c0-6 1-6 2-7 2 0 3 0 3-2 0-3 7-9 9-8v3l2 1c4 0 4 0 1-3s-3-4 6-13A41198 41198 0 0 1 512 22c0-2-2 0-13 10m-20 93-73 60C247 316 260 306 257 305c-4-1-6-1-2 1l4 1-5-1c-6 0-17-4-19-6h-1l-1 1c-7-3-7-3-7 3v6l5 1 10 3 6 1-2 2c-3 3-6 3-9 2l-3-1h-1l-2-1h-3l-3-1-2-1h-2c-1 1-2 0-3-1-2-2-4 1-1 3l2 4 4 2 5 1h-5c-6-1-5 2 1 3l6 2c1 1-3 4-4 3l-1 1c1 1-3 4-5 3-1 0-2 3-3 30l-2 35v11l8 1c10 1 16 3 13 3l-2 1c2 1-9 3-15 2h-5v4c-1 5-3 4 21 7l42 7-27-3c-33-5-37-5-37-4l4 2 6 1-9-1c-4 0-6 1-2 2 2 1 3 3 1 3l-1-1h-4c0-2-1-2-1-1l-1 1-2 1-5 4-5 3-8 5-8 4c-2 2 0 2 3 1 3-2 5-2 4-1l1 1v-2c0-1 8-5 9-4v-1l5-5c6-3 7-3 7 3 1 3 3 3 3 1 1-2 1-2 2 0 1 4 0 4 24 7 15 1 16 2 13 3s-11 1-13-1c-2-1-20-3-23-2-1 0-2 1-2 8 0 18-3 68-4 70-1 5 0 6 5 6l8 1v1c-4-1-14 0-14 1 0 3 2 4 5 3h5l14 2 2 2 1 1c0-1 6 1 5 2l-3 1c-1-1-3 0-4 1h-1l-1-1h-3c-1-1-2-1-3 1h-5l-6 1c-2 1-3 1-2 3 0 2-1 3-2 3l-1 1 2 1h2l-1 1c-1-1-3 3-2 5l2 4a3 3 0 0 1-1 4v4c0 4 0 6-2 7-2 3-3 2-3-1 0-2 0-2-1 1-1 6-3 6-3 1 0-3 1-4 2-5v-3c-2 0-3 2-3 6 0 2-1 2-3 2s-2 0 0-1v-2l-2 1-3 1-3 2c-2 3-5-2-3-6 1-2 1-2 2-1h1c0-2-3-6-5-6l-2-2h-1c0 2-1 2-7 1-6 0-6 0-7 2l-2 2-1 2-1 4c-1 2-1 2 2 2a86 86 0 0 1 25 4l8 1a63 63 0 0 0 15 3c5 0 5 0 5-3l2-6 1-4 2-2c4-2 10-2 10 1l2 2c1 2 1 2-1 2l-3 1-4 1c-4 1-7 6-7 11v4h-7l-71-5-38-2-46-2-44-2-6-2H0v95h513v-95l-4-1-13-1c-18-2-29 1-46 13-1 0 3 3 5 3l2 1-2 1-3 1-13 4-7 4-4 3 1-4 1-2c0-1 2-4 5-6s5-5 4-5l-4 2c-5 5-6 6-8 6s-2-1-2-2l-2-2h-6c-8-2-6-3 4-3h6c-2 0-4-4-2-5l3 2 3 2v-2c-1-3-4-4-15-4l-6-2c-2-2 2-2 11-1 9 0 10-1 8-5-2-2-2-2 0 1l2 1c0-1-2-4-5-6l-4-5-4-2-5-1-24-2-7-1 5 2c6 1 6 1 8 7 1 4 0 8-3 8l-3 3c-2 2-2 3-10 3-7 0-9-1-9-2 1-1-1-1-5-1l-8-1c-1-1-4 0-4 1l-18-1h-9c-2 2-7 3-7 1h1l1-1a1 1 0 0 1 3 0v1c2 0 1-3-2-4l-3-2h4l4 1h2l2-1v-2c-3-6-26-12-31-9-1 1 10 8 12 8 4 0 2 1-3 3-4 0-4 0-7-5-4-5-8-8-15-8-2 0-2 0 0-1 3 0 3-2 0-3l-2-2-1-1v3c0 2 0 2-1 1-2-1-2-1-3 1l-4 1h-6a8 8 0 0 0-6 0l2 1 1 1h3c2 2 2 2 0 3-4 1-5 7-2 7 2 0 2 0 0 1l-4 3c0 3-2 5-3 4v-3c4-2-1-4-15-3l-5-1c-1-1 0-1 3-1h8c8-1 15-9 9-11h-14c-4 1-8-1-8-3 0-3 0-3 14-3l16-2a1258 1258 0 0 0 1-107l2-3c1 0 2 3 1 4l1 72-1 2c-1-1-1 0-1 3 0 4 1 5 4 5s6-2 4-4l-1 1c1 1 0 1-2 1-3 0-1-3 2-3 2 0 2 0 0-1l-2-1h2c3 0 3 0 3 4v5l-3-1c-5-1-5-1-5 12v11h9c28-2 30-2 31-1l3 2v-1l-2-1c0-1 23-3 89-6a3938 3938 0 0 0 75-4l27-2h6v-32c0-35-2-51-5-53-2-1-2-2-1-2 3-2 1-6-3-8s-4-2 1-2c1 0 2 0 1-2l-2-10a24 24 0 0 0-3-10c1 0 2-1 1-5-1-5-4-7-9-7l-2-1v-2c-2-2 0-3 3-3l3-1-5-1-2-1c-1-1 0-1 2-1l3-1 2-1-1-9-1-10c1 0 6 1 5 2l6 31-1 2c-1-1-1 0-1 1 0 2 2 4 3 2 2-1 2-7 1-7-1 1-3-4-3-8 0-2 0-2 4-1l4 1v-7c0-8-1-9-7-17-4-3-10-9-8-6v3c2 0 1 2-1 2-3 0-4-3-2-5 1-2-5-6-7-4l-1-1-4-2c-4-1-7-5-3-5l1 1v2c1 1 1 1 1-1s0-2 2-1l2-1 2-1c2 1 10-3 10-4l-3 1-13 1 2-1v-1h-7l2-2 4-1h-3c-5 0-6-1-6-8-1-8-1-8-2-7l-1-1-2-1c-2 1-2-2 0-2 2-1 3-4 1-5a1 1 0 1 1 1-2h1l1 1c1 1 1 2 2 1v-1l1-1 1-1-2-2v1l-1 1c-2-1-1-2 2-3l2-2h-1l-3 1h-4c2-1 0-4-4-4l-1-1h-3l-1-1-1-1-1 2-1 2c-1-1 1-6 2-5v-1a2 2 0 0 0-5 0h-2c-2 2-5 1-4 0h2l5-4c1-2 1-2-1-2-2 1-4-1-2-3 1-1-3-1-9 1-2 1-2 1-1-1 1-3 2-3 5-2l2 1-1-1v-1a2 2 0 0 0-1-2l-1-1c0-2 0-2-3-1h-2c1-1 0-1-1-1-3 0-4 2-2 2l-1 1c-2 1-2 1-1-2 0-2 0-2-1 0h-1c1-3-2-3-3 0-2 3-2 3-1 4 2 0 2 0 1 2l-2 5c1 2 0 3-1 3a1 1 0 1 0 1 2 1 1 0 1 1 0 3h-1c0 3-1 2-4 0l-3-1 1 1c2 1 1 3-2 4-2 1-3 2-2 3l-1 2-1 2c1 3 3 3 6 1 1-1 1-1 1 1 0 1-1 2-2 1l-1 2 2 4 1 2h-1l-3-1v1c1 1 0 1-2 2h-3l-1 1 2 1c2 0 2 0 2 2l1-1c2-2 4-3 3-1l1 1 1-1c-1 0 3-3 6-3 4-1 4 0-1 2l-1 1 2 1v1l-2 1c-1 1-2 2-5 2-4 0-4 0-4 2l-1 1-1 4-1 2h-4l-1-1-4-1-2-1-3-2h-1l1 2 2 4h1c0-2 3 0 3 2l1 1h7c1 2 3 3 2 1h2c2 0 2 0 1 1-2 1-2 1-1 2 1 0 1 1-1 1-2 1-2 1 0 1l2 1-1 1-2 1a20 20 0 0 1-12 6c6 1 6 1 5 2v2l-1 1v1l-1 2c-3-1-4 0-3 1a6 6 0 0 0 8 1v1c-1 2-1 2 1 3v1c-2 1-3 4-1 4l1 2h-1c-4-6-8-9-8-5 0 3 0 3-4 0-4-2-5-2-6-1h-2c-1-1-1-1-3 1l-2 1v-1l-1 3v4l-2-4-3-3h-2c-1-2-9 0-8 1 1 2-2 1-6-2a18 18 0 0 0-7-4l-4-1c-5-1-6 2-3 6 3 3 2 4-2 0s-7-4-7-1c0 4-1 4-3 1s-2-3 1-4c1 0 2-1 1-2v-4h3c-1 2 2 6 3 5l-1-3v-2h1l3-1h3l-2-1c-1 0-2 0-1-1 0-2 7-1 8 1 1 1 4 2 4 0l-2-2-2-1h-2l-2-1-2-3v-1l3 1c1 2 3 1 2-1h-8l-4 1-2 1 2-3 3-2-4 2c-4 2-7 6-7 7a1 1 0 0 1-2 1v-1l2-4 2-4h-2l-2 2a2 2 0 1 1-4 0c1 1 2-1 2-4 0-2 0-2-1 0l-1 1c0-2 0-2-3-1h-2l-1-2c-2 0-2 0-1 4v2l-3-2h-5l-4 1a6 6 0 0 0-5 2c-3 0 0 2 4 3 6 2 10 5 8 5s-2 1-2 3 0 2 1 0l2-2c1 0 2 1 1 3v3c3 1 4 1 2-2h1c3 1 1 5-2 3l-4-1c-4 0-5-1-3-2l1-4c-1-3-5-4-11-3h-6v-1l-4-2h-1 12l-21-5 2-1h2c-1 1 8 2 10 1l-7-2-8-2v-12l-1-12h-4l-1 2h-3l-2-1v1h-1c-3 0-3 0-3-3 0-2-1-3-3-3l-2-2c0-1-2-2-12-4l-12-3-2 2c-1 2-2 2-2 1v-1l-2 1a2 2 0 0 1-4 0l-2-1-4-1-2-1 2-2a4 4 0 0 1 4-2l1-2c3-2 4-2 15 1l21 5 9 3 4 1c6 0 8-2 3-3-4 0-10-2-10-3l13 3c0 1 2 0 5-3 3-2 3-3 1-3h-2l-2-1h-3l-2-1h-4l-2-1-2-1h-2l-2-1h-2l-2-1-8-2h-4l-2-1-3-1h-2l-2-1c-1-2-1-2 2-4 2-1 3-1 13 1l14 4 4 1 1-3 1-6c1-2 1-2-1 0v-1c0-2 0-3-2-3-4-1-5-1-1 1 2 1 2 1 0 1l-3-1-1-1-5-3-6-1 3-3 125-102 123-101-33 25m-235-5v7c0 4 0 5-2 5l-2 2 2 1c1-1 2 0 2 1l-3 1c-2 1-7 6-5 6l1-1c2-4 3-2 2 4 0 4 0 5 1 4 1 0 2-2 2-5 1-4 1-4 1 1 0 6 0 6-3 7l-3 1h2a3 3 0 0 0 4-1l1 2 1 4-1 2c-2 2-3 2-4 1-2-1-5 0-7 3l-1-2 1-2 2-2c0-2-2-1-4 2l-1 2-2-1c-2 0-2 0 0 1v1l-1 1a2 2 0 0 1 0 2l9-1 8-2 8 3c7 3 9 4 11 7l2 4v-1l-1-3-2-3-2-3v-1l1-1-3-2-3-1-3-5c-3-3-4-8-2-12 1-2 0-4-1-8l-3-11c0-6-2-10-2-7m3 74-1 8-1 9c0 1 3 4 6 4l2-16c0-5-3-7-6-5m-14 3c-3 3-3 10 0 10 1 1 2 1 1 3 0 2 0 3 1 2 2 0 2-3 0-5v-2c2 0 2-1 2-5-1-5-2-6-4-3m-56 36a192 192 0 0 1-1 9l-1 1c-1 0-2 2-2 5v5l1-2 1-4c1-1 1-1 1 1 0 5-2 7-4 8l-2 1h2c2 0 3 0 3 4-1 5-2 8-4 6-2-3-10-1-10 1 0 1 1 2 5 1 6-1 20 3 23 6 2 3 3 1 2-3l-1-1c0 3-2 2-2 0l-2-2v-1l-1-1-1-1-1-3c-2-3-2-5-2-10l-2-27-2 7m-3 61-1 8c0 6 0 6 2 5 4-1 4-1 4-8 1-8-3-12-5-5m16 34c3 1-15 17-18 17-2-1-4 0-5 5-3 10 1 16 7 11 2-2 4-10 2-13-1-2 0-3 8-11 10-9 10-10 7-10-2 0-2 0-1 1m58 22c-5 2-9 10-5 10l1 1c-1 1 0 1 2 1 3 0 3-2 0-2-2 0-1-4 2-6 4-2 9 1 11 4 2 4 0 5-2 2l-2-1c1 1 1 1 0 0-2-2-2-2-3 0l-1 3h3c0 1 2 2 3 1l1 1 3 1c5 0 3-7-4-13-4-3-4-3-9-2m-6 17c-1 3-1 3 5 3l10 2c5 2 6 2 4-3 0-3-2-3-2 1 0 2 0 2-1 1l-1-2-2-1h-7c-3 0-3 0-4-2 0-3-2-3-2 1m-1 12-1 13 1 6c2 0 3-23 2-26s-2 0-2 7m17-4c-1 1 0 26 2 26l1-13c0-12 0-15-3-13m-56 3a2 2 0 0 1-3 2l1 1a91 91 0 0 1 0 21l1-1c1 1 1-2 3-18 0-7 0-8-2-5m84 11c0 1 2 2 5 2 7 2 8 2 7 4a1 1 0 1 0 2-1l1-3c1-2 1-2-3-3h-8c-4-1-4-1-4 1m-102 1h-2l-2 1 1 2 1 3-1 2v10c2 1 5-15 4-18h-1m-19 5-1 1h-1l2 3-3 1c-5 1-5 2 0 3s5 4 1 4c-2 0-3 1-5 3l-3 2a4 4 0 0 0-4 6c1 0 1 1-1 1-1 2-1 2 1 3v2c-2 0-2 0-1 1v3c-1 0-2 1-2 3l-2 3c-1 0-2-1-1-2v-20l-1-1 1-1 2-1-2-1c-2 1-2 3-4 15l-1 7v8l-2 8-1 9v9h2l6-2 4-3 4-2 4-3c6 0 10-16 11-48 0-9 0-12-2-12l-1 1m157 7c0 14 3 19 4 8 0-4 0-5-1-4-2 2-2 1-1-4v-4l-1 1h-1v3m53-1c-2 1-2 3 0 2 1 0 2 0 2 2s0 2-4 0l-4-1c-2 1 0 3 3 3l2 1 1 1h2c1 2 5 4 5 3l-3-2c-2-2-2-3-1-4v-2h1l3 1-3-3c-3-2-3-2-4-1m-195 9-1 7v19c0 5 1 1 2-10l1-14c1-3-1-4-2-2m124 7c-1 2-3 3-3 1l-4 2-12 4c1-1-17-5-19-4-1 1-1 1 1 1 4 0 3 2-2 3-7 2-4 2 4 0 7-2 10-1 4 1h1l4-1c2-2 3-1 3 1-1 1 0 1 1 1l4 1h2l1-1h2l1-1h1c-1 1 0 1 0 0l2-1 1-1h4c2-1 2-1 3 1 1 3 2 0 1-4l1-4v-1l-1 2m202 11 3 15c3 12 3 12 3 6l-1-7-1-2v-3c-1-1 0-3 1-4 2-5 1-6-2-6l-3 1m-174 3v8l1 7 1 7v7c0 4 0 5 2 5l1-2v-4l-1-3v-13l-1-2v-3c-1-1-1-1 0 0v-2l-1-4-1-2c-1-1-1 0-1 1m-40 8c-6 2-7 3-8 5 0 1 0 2 1 1h2l1-1h1l1-1c-1-2-1-2 1-1h4l1-1 1-1c1 1 3-1 2-3 0-1-2-1-7 2m4 15-8 4c-6 3-2 3 6 0 8-2 9-3 7-6l-5 2m-91 1v4l-1 24-3 34a104 104 0 0 1-1 18c0 2 4 1 4-1l1-5 2-30 2-41c1-2-3-5-4-3m46 1-2 1 11 1 5 1c2 2 3 0 2-2-2-1-12-2-16-1m-58 5v4c1 1-1 6-2 6l-1 1-2 13c-1 1-2-7-1-11l1-6 2-2c2-2 0-3-3-2s-3 2-3 4v11c-1-1-1 0-1 5v8l-1 35v8h-3c-3-1-4 0-5 4 0 2 0 2 1 1h2c1-2 2-2 4-2 2 1 3-7 5-36l1-11 1 4-2 21-1 19v1c1 0 2-4 3-21 2-35 4-46 8-47v-2c-2-2-2-2-1-3 2-1 0-3-2-2m143 6c-1 1 1 30 2 29l1-3-2-24c0-3-1-4-1-2m-189 9c-10 5-11 6-13 5-1-1-1-1-1 1v2l-1-1c0-3-4-1-16 7l9-5 4-1c-1 5 1 8 2 4h1l1 2 1 3c0 2 0 2 1 0l2-5 1-4c0-1 2-3 9-7l11-7-11 6m24 1 1 3v1l-1 23-1 8-1 8c0 7-1 8-2 8l-2-1-2-2c-2 0-3 2-1 2 1 1 2 2 1 3v2h-1l-1-2v-1c-1 2-2 1-2-1v-1h-2l-1 1-1 2v-1l1-14 2-14 2-9v-7h-3c-3 0-6 2-4 3v8l-2 18-1 13a3 3 0 0 0 1 4l1 1c2-1 4 0 3 2h-1l-1 1v2l-1 1c-4 1-4 4-1 4a1 1 0 0 0 3-1l1 1-1 2-1 2 2 2 2 2a2 2 0 1 0 3-1l2-4 1-5 2-1 1-1c0-1-1-2-3-2l-2-1 2-1 3-1h-1l-1-1h6l-2 3v1c2-1 2 0 0 2v2c2 0 3-5 4-18a588 588 0 0 1 5-45l-3-1-3 1m-7 3c-3 1-3 2-2 3v4l-1 20-1 5v11c2 0 3-7 3-18 0-4 1-5 2-6 4 0 6-16 3-18l-4-1m-17 9c-2 0-3 2-2 3v8l-4 39c0 5-1 8-2 9v2c2 1 7-5 7-9l1-5-1-1c-2 1-2 1-2-5l2-15c0-6 1-8 2-9l2-6 2-8c0-3-2-4-5-3m-71 5v2l-1 5-3 4v-1a6 6 0 0 0 1-4h-1l-2 1 1 1h1l-2 1-4 2-5 1c-4 0-3 0 3 1 4 1 4 1 3 3l-1 3c1 3 4 0 4-3-1-2 0-2 3-2s4 0 4-2l2-2v-2c-1-2-1-2 1 0 2 3 3 4 1 4l-2 2-1 2-1 1 1 1c1-1 2 1 1 4l1 2c1 1 1 0 1-1 0-3 2-4 7-4 6 1 6 2 0 2l-5-1v4l-1 4v2c-2 0-2-1-2-2v-2c-1 0-2 2-4 14-1 12-2 12-3 8l-1-3v6l-1 5-2 6v-4c2-10 2-16-1-9l-2 8-2 7c-1 4-2 5-3 2-2-1-2-2 0-3l3-6v-4l-4 3c-4 4-4 5-2 6 1 1 1 1-2 1h-2l4 6c3 5 3 6 0 3l-2-4c0-1 0-2-1-1l-1-1c1-1-1-1-10-1l-10 1-1 3c-1 4-2 4 7 4l7 1-9 2-1 3c1 1 0 2-1 2-1-1-4 3-5 6-1 2-1 2-2 1s-1 0-1 2v3h61l5-1-9-1h28c37 0 41-1 13-3l-28-3-32-6c-6 0-6-3 0-2 6 0 10-1 10-3 0-3-2-3-2 0-1 2-1 2-7 2h-6l-1 1c-3 1-2-1 1-2l4-5c2-5 6-8 10-8h4a6 6 0 0 1 5 0c-2 1-4 5-3 7l-2 3c-3 1-3 4 0 4 5 2 6 1 7-2 0-3 7-11 9-11v-1h-1l-1-2 6-39 1-1 1 4-2 8-2 16c-1 14-1 13 3 13 5-1 6-3 8-9l2-5a6 6 0 0 1-2 7l1 1 1 2h2l2-2h-2c0-2 1-2 2-2l1-4v-3l1 4 1 4v-6l1-8 2-3c2-2 3 1 3 8v5l-1-5c-1-4-1-4-1 4v7l1 1 3-18c0-3 0-3-1-1-1 1-1 1-1-2 0-4-1-5-3-3-1 1-1 1-1-1 1-3 1-3-1-2h-1l1-3h1l1-3c0-2 0-2-1-1h-1c-1-1 0-2 1-2l2-3v-2l-1 2c-1 3-1 2-1-3a7 7 0 0 1 4-10h-1l-4 1-1 4-1 10v6c1 3 0 5-2 4l-2 1 3 2 1 1-1 1v1c0 2 1 2 2 1l-1 2h-2l-3-1c-1-1-2-7 0-9 1-3 1-4-1-2h-3c-1-1-1-1 1-2 2 0 5-4 3-5l-14-1c-14-1-18-2-18-3l4-1c3 0 3 0 2 1h4l4-2-7-5a27 27 0 0 1-10-9m63-1c-2 0-3 2-1 2v6l-1 11-3 23c-1 3-1 3-2 1l-1-1-1-7v-4c-1 5-2 9-3 8v4l-1 4-1 2h2c3-2 3-2 5 0 1 2 2 3 3 2l1 1c1 1 0 1-1 1s-2 0-1 1l-1 1-2-1c0-3-5-2-5 0-1 3 1 6 1 4 1-2 4-2 4-1 0 2 3 1 5-1l3-18 4-27c1-10 1-12-2-12l-2 1m-7 4-1 4h1c1-1 1-1 1 2l-1 11-1 8 1-9 2-10c0-2 0-2 1-1s1 1 1-2c-1-3-4-6-4-3M31 543l-2 7-1 5 3-1c4 0 5-1 5-7 0-4-4-7-5-4m12 5-2 1-2 2c0 2 1 3 2 3l6 1c4 0 5 0 3-5 0-2 0-2-2 0h-1c0-2-2-1-2 1l-1-1-1-2m135 5h-3c-2-1-4 3-4 7 0 2 0 3 2 3l10 1h8v-4c0-3-1-5-2-5l-4-2h-7m-72 5-3 8-1 3-2 2-2 2v-3l2-4c0-1-1-1-1 1-1 2-6 3-6 1l-1-2-1 3v4l8 1c11 2 11 2 12-3 1-3 6-6 6-3l-1 1-1 2c0 2 2 1 3-1 2-5-2-8-5-5-2 2-8 0-8-2s6-3 7-1 5 0 6-4c3-4 2-4-4-5h-6l-2 5m43-3-1 2-1 1c1 1 0 2-1 1v1l-2 2-3 1c0 3 5 3 7 1l3-2c2 0 2 0 1-1l-1-3v-3h-2m-21 1h-2l-2 5-2 2c-1 1-2 2-2 6l-2 7c0 2 0 2 2 2l18 3 18 3c2 1 3 0 3-3s0-3-4-3l-6 2c-3 2-7 0-5-2l1-4v-5c1-1 1-2-1-2-1 0-2 1-2 4l-1 6h-4l-1-1v-2c0-3 0-3-1-1l-1 4c0 2 0 2-3 1-7-2-6-12 0-12 3 0 1-2-1-2-2-1-2-1 0-1l5-2h4l1-2-4-2-4-1h-4m-104 4v3c1 1-3 1-11 1H0v20h11l13 1 2-1c0-3-3-4-4-2-2 3 0-8 3-15v-5l1-4v-1l-2 3m158 8c-2 2-1 4 2 4l6 1c2 1 4 0 4-1 0-2-4-2-5-1s-1 1-1-1-4-4-6-2m174 6-8 4-4 3-3 2c-2 2-2 2 1 3 6 2 13 0 8-2-4-2-2-3 4-8 8-4 10-3 7 5-2 3-2 4 2 4 3 0 3 0 3-4 0-3 0-3 1-1l1 3v1c-1 1-1 1 1 1 1 0 2 0 1-1h1c3 2 17-2 17-5h-4l2-2c2-1 1-3-1-3l-3-1c0-2-22-1-26 1m-76 14-3 1c-3 0-5 2-3 4 1 2 4 1 3-1h1c2 2 4 2 6 0 1-1 0-3-2-3v-1l-1-1c-1 0-2 0-1 1M0 636c0 26 1 37 1 23a2430 2430 0 0 0-1-23m470-44-7 3 11 1 11 1 1-3c1-3 1-4-2-4l-2-1c0-2-5-1-12 3m35-1v2l1 5c0 3 1 4 4 2 2 0 2-2 2-5 0-5 0-5-3-5l-4 1m-38 12c1 1 5 2 25 2 9 0 17 2 19 4 1 1 1 1 1-2v-4h-14l-23-1c-8 0-9 0-8 1"
    itemprop="regular" fill-opacity="0.90" stroke-opacity="" stroke-width="0.33px" fill-rule="evenodd" tabindex="-1"
    fill="url(#16282281824-posters-1674682501881-horizontal-regular)"
    stroke="url(#16282281824-posters-1674682501881-vertical-light)"></path>
  <path id="16282281824-posters-1674682501881-bold"
    d="m482 50-44 42 9-8 44-42 21-21-30 29m-41 276c0 5-4 6-6 1l-3-2c-2 0-2 0-1 1l2 1 1 1c1 1-1 1-4 1l-1 2 4 1h4l3 1 2-1c0-2 4-4 5-3v3c3-2 2-6-1-6l-4-1c-1-1-1-1-1 1m11 2v1l2 1h-3l-2 2c0 1 1 2 3 2l4 1c1 2 4 0 3-2l1-2v-1l-2-1-1-1h-5m11 4c-1 1-2 2-1 3l-2 3c-3 2-2 5 1 4h3l-3 1-2 2h2c0 3 2 1 4-2l3-3c1 1 1 0 1-1 0-2-4-1-8 1-1 1-1 1 0 0l3-2 2-1 1-2v-1l-1-2c0-2-1-3-3 0m-21 5v4c0 1-1 2-2 1l-1-2c0-1-2-2-4-1s-1 4 2 4l1 1h-1v5c1 4 2 4 2 3l3-2v1h-1l-1 1c0 1 4 3 4 1 1-2 3-1 4 1 0 2 1 2 3 1 2 0 2 0 1 1-2 1 0 3 4 4l3 1h2c2-1 2-1 4 1 3 2 4 2 3-2-2-4-1-7 1-5h1v-1 2c-1 1 0 10 2 12 1 2 2 2 4 1l4 1h1l2-1 2-1-8-2-2-1v-2c-1-2-2-4-3-3v-8c-1-4-1-4-4-3h-6l-1 2v-1c0-2 0-2-2-2s-3 1-2 2l-3 1c-3 0-3 0-2-1h2l1-2a5 5 0 0 0-8-3v-1l-1-2v-1c1-1 1-1-1-1-3 1-3 0 0-2l2-2h-4c-1-1-1-1-1 1m-5 27h-2l-1 1 1 3 2-1 1 1 1 2 1-1c0-2 2-2 3-1l-1 1c-1-1-1 0-1 1l-1 2c-1-1-4 2-3 4l-2-1-3-1v1c-2 0-3 2-1 2v2h1a4 4 0 0 1 5 1h-1c-1-1-2 0-3 1l-1 2 7-1 1 2a2 2 0 0 0 3 0h2l1-1h1v2l-2 2h1c1-1 1-1 1 1l-2 1-1 1v3c-3 3 0 2 4-1 5-3 7-4 7-2l2 1h1l-4 1-4 2-2 2h3l3-1 2-1 4-1a2 2 0 1 1 0 2l-5 1-2 2c-4 0-8 1-8 3 1 0 1 1 0 0l-1-2c0-2-2-3-3-1l-2 1 1-3 2-3h-1l-2 1-1 1-2 1v-1c1-1 0-2-1-4h-2v1l-1-1a2 2 0 0 0-4 1h-1a3 3 0 0 0-5 0l-1 2-1 4-1 1h1c2-2 2-2 3 0 1 1 1 1 1-1v-1l-2-1c0-1 1-2 3-1l2 1 2 2h3v9l-1 1c0 2 2 1 3-1l1-3v2c0 1 3 2 5 0 1-1 3-2 4-1l3-1 4 1 7 1c2 0 3 1 3 2h1l1 1-3 1c-2 0-3 3 0 3 1 1 1 1-1 1l-3 1h-1a2 2 0 0 0-3-2l-1 1h-1c0-1 0-2-2-1-3 0-3 1 0 3a6 6 0 0 0 10 0l1 1-1 1a1 1 0 0 0 0 2l1 2c-1 2-1 2 1 1l3-1-2 2c-2 0-3 2-3 2l-2 2v-5l-3-2-1-1-2 1-2 2c0 2-2 1-4-1l-3-2c-2-1 2-1 5-1v-1l-4-2c-2 0-3-1-2-2h-1c-2 1-2 1-1-1v-3h-4c1 1 0 1 0 0-2 0-8 1-6 2v3l-1-2-2-1c-2 0-2 0-1-1 2 0 2-1 1-1l-2-1v-1l-4-1-7 1c1-1 1-1-1-1s-3 1-1 3l1 2h4l5 1h1c-3 1 3 4 8 4l2 1c0 1-4 1-7-1-2 0-2 0-1 2 2 3 0 4-3 0-3-3-13-5-11-2l-2 1h-5c-1 0-1 1 1 2l3 2-4-2h-6l-9 2 10-4c9-2 11-3 11-4 0-2-1-2-2-1h-7v1c0 2-1 2-4 1l-5 1h-4l-5-1c-1-1-6-2-10 0-2 0-2 0-1-2 2-2 2-2 0-4-2-3-2-4-1-5l1-2-4-3a30 30 0 0 0-15-5l3 2c4 0 6 2 7 5l2 4 1 2-1-1-2-1-2-2a6 6 0 0 0-4-4h-1v5c0 2 0 2-2-1l-2-3-4-2-3-2v3l-1 3c-1 1-3-1-2-2h-2c-2 0-3 1-3 2 2 9 2 23 0 21l-1-2c1-1 0-3-1-4l-1-3c0-2 0-2 1 0s1 2 1-1l-1-4-2-1-1-4c-2-3-3-2-4 6-1 7-3 9-4 7-1-1-1-1-1 2l2 5 2 4 1 4 2 3 2 2v-3c-1-1 0-2 1-3 2-3 3-2 3 1 0 2 1 3 3 3l1 1c-2 0-2 1-1 4v10l1 7v11l1 13 1 23-2-3c-1-2-1-2 0 0 0 2 0 2-1 0s-2-2-3-1h-4l-1 1v1l-1 1h-1l-1 1c-2-1-2 0-2 2l-1 2v-1l-1-1a14 14 0 0 0 0 13v1h-1l-2-4-1-2-2-1h-1l1 2 1 2a6 6 0 0 0-1 6l1 3-1 3v1l-2 4c-1 1-1 1-1-1l-1-3a4 4 0 0 1-1-5c0-3-1-2-1 2v3c1-2 3 1 2 3 0 2 2 5 4 4v1h-3c-1-1-1-1 0 0 0 2 4 3 4 1s4-1 5 3c2 3 2 3 0 5-3 3-3 2-3 0l1-2 1-2-1-2v-1l-1-1v2l-1 1c-2-1-2-1-1 1v1h-3l1 1c1-1 1 0 1 1 0 4-2 4-3 0-1-5-1-6-2-3l1 4c1 1 0 2-1 2-2 0-2-1-2-5l1-4 1-2c0-5-4 0-4 6l1 5v2l1 3c1 2 1 2-1 1-2 0-2 0-2 2v2h-2c-1-2-2-3-1-17 1-9 1-10 3-13l1-8 1-6 1 2 1 1 1 1v2c2 1 1-4-1-6l-2-2h1l2 1a10 10 0 0 0-9-10h-1a2 2 0 0 1-3 1 1 1 0 1 0-1 1v4l-1-1-2-2v7h-3l-2 1v4c-1 1-1 1-1-1a2 2 0 1 0-2-1c1-1 1-1 1 1l-1 6-1 5-1 2-1 1v3l1 6-1 1 1 1v2c-1 2-2 2-2 0-1-2-1-2-1 1a2 2 0 0 1-3 3l1 2v2h-3l-1 3v2l1 3a2 2 0 0 0 4 0 1 1 0 1 1 3 0v1l1-1 3-2c4-1 4 0 0 1-4 2-1 2 19 1l33-2 13-1 16-1h21l3-1-1-7-1-11c-2-9-3-22-1-23 1-1 2-11 1-18-1-6 0-14 2-14l1-2-1-5c0-3 0-3-2-3l-3-1h2l3-1c1-1 1-1 1 1l1 3-1-7c-3-8-2-8 0-4l3 11a220 220 0 0 0 2 14l1 1 1-1v-3c1 0 1-5-1-12 0-3 0-3 2-2 2 0 2 0 0-1-3-2-4-7-1-7l1 2 2 1c2 0 2 0 1-1v-1l1-2c1-3 3-4 3-1l3 2c5 0 5 0 3 1-1 2-1 2 1 4l2 2-2 1-2 1c1 2 0 5-1 5l-1-1-5-1h-3l3 1 5 2h8c1 1 1 0 1-1 0-3 2-3 2 0v3l1 1v-2l1-3a1 1 0 1 1 1 1l-1 2v4l-2 2-1-2c-1-2-1-2-1 1v4c0 1 0 2-1 1-1 0-2-1-1-2 0-2 0-2-2 0-3 2-3 3-2 8 0 3 0 4-1 3l-1-4a2 2 0 1 0-4 0c0 4-2 5-3 1-1-2-1-2-1 0s1 3 4 4l1-2h1v4c1 0 1 1-1 1-2 1-2 1-2-1v-1c-1 0-2 3-1 4 1 2 1 5-1 5l-1-1-2-10v13h2c1 1 0 4-1 3l-1 1 2 5 1 5v4l-1-1-1-2c-2-2-2-2-2 0 1 3 1 4-1 1-2-1-2-1-2 1h-2c-1-2-2-1-1 2 0 2 0 2 2 0h3a6 6 0 0 0 4 2 2 2 0 0 1 3 0l-1 1-2 2-1 1v2c-2 1-3 0-3-4v-2l-2 5-1 6v2h-3l1 2v5l2 2a4 4 0 0 0 5 0h1c1 1 7 0 25-1l25-1 3-1v-1l3-2c1-3 3-4 3-2l2 2 2 2c0 1 15 1 36-1h10v-15l-1-14-2-5c-1-6-1-6 1-7v-2a2 2 0 0 1-1-2l2 1v-6c1-5 0-22-3-31l-2-2c-2 0-2 0-2-2v-2l-1 2-3 3-2 2c1 1 0 2-1 3v7h-1c-1-1-2-1-2-6l-1-3v3l-1 2v1l-2 4c-3 2-3 5 0 9 1 0 0 2-2 3l-1 3v5c-2 2-3 1-2-2l-1-1-2 4-1 2c0-1 0-2-1-1l-1-1-2-9-1-3a2 2 0 0 0-2-1l-1 3v1c0 2 0 2 1 1l1-1v7l1 2 1 1 1 3c2 2 0 4-2 2-1-1-1-1-1 1 0 1 1 2 3 2l2 1c-1 2 0 4 2 4s2 0 1 1c-2 1 0 3 3 3v2l-1 1c-1 0-2 1-1 2l-1 1v3c0 2 0 3-2 3v-1c0-2 0-2-1-1l-1 1-3 1v2c2 1 3 3 0 3v1c1 1 1 2-1 2v2l1 4-1-1-4-1c-4-1-6-3-3-3 2 0 3-6 1-7l-2-1 2-1 1 1 1 1 1-4 1-2 1 2v1c2 0 0-8-1-10l-1-1h1c1 2 5 1 4-1l-2-1-1-2v-1h-1v-4c-2-2-4-1-5 2l1 3 1-1v-2l1 3c0 3 0 3-1 2h-2l-2 1-1 1h2c4 0 6 3 4 7a5 5 0 0 0-1 4c-3-1-5 0-4 1l-1 1c-1 0-2 0-1 1l-1 1-1-2c1-2 1-2-1-1h-1l-1-1 2 6h3c-1-2 3-2 4-1 1 2 0 4-1 3l-1 1v2c-1 2-5 0-5-2l-1-1v3c0 4 0 4-2 4s-3 0-2-1l-1-3c-3-2-1-5 2-5 2 0 3-1 1-3l-2 1c-3 2-5-3-5-13l-1-8v-4c1-2 2-7 2-16v-4l-1-2c1-1 4 1 4 3l1 1v-4c0-4 0-5 1-4h2c1 1 1-1 1-6v-6l1 4c1 4 2 3 2-2l1-4v3l1 2 2 8 2 2v-5l1-9v-3l2 3 2 7 1 1 1-1-1-2v-2l1-3 1-3c0-4 0-4 1-2l1 2 1-4c0-1 3 2 3 4s0 2-1 1-1-1-1 2l-1 3v2c0 2 2 1 2-1l1-3 1-4 1-2c2 1 2 7 1 9-1 1-1 1 1 1s2-7 1-10a4 4 0 0 1 2-5c1 2 3-1 2-3-1-1-1-2 1-2 2-1 2-1 1 1l1 1 3-1-2-1c-2-2-6-2-7 0l-2 1h-2c-1-1 0-1 1-2l2-2c-1-1 1-1 5-1 8 1 9 0 7-3-1-2-2-2-4-1-5 1-5 1-4-1 0-3-1-7-3-7-1-1-1-1 1-1l3 1h1l1-1h3l2-1c1 1 2 0 2-3s-1-3-5-1h-1l1-2 1-2 2-1c2 1 1-1-1-4v-2c1-1-4-3-7-3l-4-1h-2c-1 1-4 0-6-2-1-2-2-2-2-1l1 1v1h-2c-2-2-4-1-2 1l-1 1-1-2c0-2 0-2-3-2h-1l1-2 2-1c1 1 2 0 1-1l3-1 5-1c-1-1 3-2 7-2h4l1-1-6-1-2-2h1l2-1h2c2 2 7-6 5-9-2-2-4-1-3 1 0 2 0 2-1 1-2-2-12 0-13 2 0 2-2 1-2 0l2-2 1-1v-1h1l1 1v-2l-2-2h-2c0-2-2-1-3 1 0 1-1 2-4 1-2-1-3-1-2-2l-1-2c-2-2-3-2-5-1l-4 1 1-1c5-2 6-2 4-3l-2-1h-1c-1 1-1 1-2-1-1-1-2-2-3-1-2 2-4 0-3-2 0-2 0-2-1-1h-3l-1-2h-5l1-2 3-2h-3c-2 1-2 1-1-1l3-1 2-1v-1l1-1c-1-1 0-2 1-2l1 1 3 1c2-1 3 0 3 1-1 2 3 6 6 7l2 2v7l3 1v1l2 1c2-1 4 0 6 1h4c-1-1 3-3 4-2l-1 1-2 1 4 2v1l1 2 1-1 1-1c5 0 6 0 6-2s-3-4-6-3c-2 0-2 0-1-1 2-1 2-2 1-3-2-1-4-1-3 1h-1c-2-2-2-3-1-3v-1l-2 1c0 2-3 1-3-1h-1c0 1-1 2-4 2-4-1-5-2-2-2h3l-3-1-4-1v-1c1-1 2-2 3-1l2-1c1-1 0-1-1-1-2 0-4-2-2-3v-1c-1-2-7 0-6 1 1 2-1 1-3-1l-1-2h3l2-1v-1l-2-1-6-1-2 1h-13l-3-1m-192 17c-2 19-2 18 8 20h3v-28l-3-1c-8-2-8-2-8 9m71-1-2 1-3 1 3 1 5 3c2 2 2 0 0-3l-1-2 3 2 3 3-1 1c-1 1 0 2 2 5l4 5c1 2 2 1 3-3 0-2 0-2-1-1s-3-2-3-5l-8-7c-3-2-4-3-4-1m19 1-2 1c-2-1-2 0-2 2s0 3-1 2v2l3 3 1 3 1 3c1 2 1 2 2 0v-3c-2-2 0-2 2-1s3 0 3-1l-1-2-1-1 3-1 7-2c3-2 2-3-2-1-8 3-9 2-4-1l4-3h-7l-2 6v2c-2 1-2 2-3 1-2-2-1-6 1-9 2-1 2-2 0-2l-2 2m168 19c2 0 2 1 1 1v6c0 2 3 3 5 1l-1-1-1-2c0-2 0-2 1-1h1l-1-2v-1l-4-3c-2 0-2 0-1 2m-186 1v2l-1 1-3 8-1 2-2 4c-2 5-3 7-4 4-1-1-1-1-1 1v3c0 3 1 6 2 4 1-1 1 0 1 2l1 3c2 0 4-5 3-8v-7l1-1c-1-1 0-2 1-2 1-1 1 0 1 3l2 10 1-2c2 1 1-2-1-7s-2-6-1-6v-3l1-1 1-2 1-2 1-3c0-1 0-2-1-1v-3l-2 1m73 3v6c0 2 0 2-1 1l-2-2c1-1 0-2-1-3-2-1-2-2-2-3l-2-2-1 1 2 5 1 5-3-3-2-2 2 3 1 3c0 2 2 3 3 2v-1l-1-1h2c1 2 3 2 4 1h2l3-2h2l1-1-4-2c-4-1-4-2-2-7l-1-2-1 4m-62 11v13l1 2 1-3v-3l-1-9h-1m28 10-1 1c-2-2-6 0-6 2h2c0 2-1 4-4 4-2 1-2 0-2-2l-2-2v1c1 1 1 4-2 5v1l2 1-1 1h-1c0 2 2 3 6 3l2 1h3v7c1 1 2 0 3-1l1-2v4l1-3 2-6v1l-1 3 2-3 4-7c1-4-1-4-3-1-2 2-4 1-2-1h-4l-1 3c-1 2-1 3-2 2l-2 1h-1l-2-1c-4-2-1-3 7-5l6-3c-2 0-3-3-2-4l-1-1-1 1m3 23a7 7 0 0 0 1 9l2 3v-7l1-4c0-2 0-2-1 0h-1c0-3-2-3-2-1m-45 1 2 1 10 1-1 1v1c2 2 8 1 8-1 0-1-1-2-5-2l-9-2-5 1m63 11a10 10 0 0 0 3 9l1 2v-2c0-2 0-2 1-1l2 1h4l2-1v-2h-3c0-1 0-2-1-1l-1-1h-1c-1 2-2 2-3 0v-2l1-3h-2c-1 1-1 0-2-2-1-3-1-3-1 3m-33-3c-1 0-2 1-2 3 0 3 0 3 3 3l5 1c0 2-1 2-2 1l-4-1c-2 0-2 4 1 26l1 11-2-1-1 2v4h-1l-2-1c-1 0-2 1-2 5v28l-1 1v9l2 4c0 3 3 6 3 5l1-2v-2c-2 0-3-2 0-2l1-2 1-3 1 1a2 2 0 0 0 2 0v-4c1-1 1 0 0 0l1 4v3l2-1 1-2v-1l-1-4v-3c2 0 0-2-2-1v-4l1-2c1-1 1 0 0 0 0 2 2 6 3 5l1 3 1 1v1l1 1c2-1 2 0 2 2 0 3 1 2 2-2 0-3 0-3-2-2l-2-1v-4h2v-4h-1l-1 2c-1-1-2 0-2 1h-2l1-4c1-4 1-5-2-2h-2l1-3 1-1 1-1c1-2-1-1-3 1h-2l-1-1c-2 0-2 1-1 3l2 1h1c0 2-4 3-4 1l-1-5v-4l1 1c1 2 1 2 5-2 3-2 4-4 3-4-1-1 0-1 2-2 4 0 5-1 3-3h-1c0 3-1 2-2-2 0-5 2-6 4-2 1 2 1 2 1 0l2-3 1-3 2-1 1-3c0-2 0-2 1 0 1 1 1 1 1-1s0-3 1-2h2v-2l6-2 5 1 2 5c2 10 3 10 2 2v-9l-4-5-3-4c1-2-4-4-7-4s-3 0-2 1h-1c-2 0-3 0-5 3s-2 3 0-4c0-2 0-2-1-1l-2 4c0 5-2 2-2-4 0-2 0-3-2-3-4 0-4-1-2-3v-1c-1 0-2-1-2-3s3-2 9 0c2 1 14 3 15 2l-5-3c-2 0-3-2-3-4l-1-3v3c0 3 0 3-3 3l-9-2-5-1h-2c-3 0-3 0-2-1 3-1 1-2-2-1m140 29c0 1 0 2-1 1l-1 4-1 7v3l1-1 1-2c2-1 2-11 1-13v1m-15 14v4c1 3 1 4-1 2h-3c-2 1-3 1-3-1-1-1-1-1-1 1a3 3 0 0 1-1 4l-2 1-2 1h2l2 1 1 1 1-1 1-1 1-2c0-2 3-3 4-2a3 3 0 0 0 5-5l-1-2c-1 1-2 0-2-1h-1m-195 12 1 9 1-1 1-2 4-7h-1l-3-3c-2-5-3-3-3 4m-6-2-2 1-1 1a3 3 0 0 1-4 3v-2h-1v3l1 2c1 1 1 1 0 0l-2 1-1 1v-1l-1-2h-1l-1 4 1 2h2l-1 1-2 1c-1 1-1 0-1-3l-1-5-1 2-3 1a1 1 0 0 0 0 2v4l-2 3v-3c0-2 0-3-1-2l-1 6-1 6c-1 1-1 1 1 1 1 0 2 0 1 2h-1c-1-1-1 1-1 4l-1 1c-2 0-2 1 0 3 1 2 1 2 1 0l1-2 1-1v-1c2 0 3 3 2 9l-1 4-2 2c-1 4-2 4-5 1-1-1-2-2-3-1-2 0-3 2-1 2l1 3v4l-2 3 1-1h2c1 1 1 1 1-1 0-3 0-3 4-3l7-1h9l10-2 1-53-2 1m140 4c-1 2 0 6 3 9l2 4 5 3-1-1c-2 0-4-5-3-7v-1l-1 1c0 1-1 1-2-1-2-1-2-1-1-3 2-2 3-4 1-4h-3m77 15v4l-3 4-3 4v2h1l2-1 1-2h1l-1 3h2c3-2 4-3 2-3a1 1 0 0 1-1-1h2v5c1 0 2-1 2-3l2-3v-3l-1-5c0-2 0-2-1-1h-5m-71 2v1c2 0 1 2-4 4-4 2-5 2-4 3h4c1-1 1-1 1 1-1 4 2 7 5 7 3-1 4-2 1-3v-4l-2 2v3h-1c-2-1-2-4-1-4l1-2 1-2v-6h-1M88 545l-2 6-1 4h4c4-1 5-1 5-8 1-4-3-6-6-2m20 10c-2 2 0 3 3 2 2 0 2 0 1 1l-4 1-2 1h8c1-1 1-1 1 1l2-1c4-4 4-6 1-6h-6c-2-1-3 0-4 1m64 3c-1 4-1 4 4 5 4 0 4 0 5-2 1-5 0-6-5-7-4 0-4 0-4 4m10 1c0 4 1 5 6 5 3 0 3 0 3-3 0-4-2-6-6-6-3 0-3 0-3 4m-99-2v2l-1 1c-1-1-1 0-1 2l-2 5-2 3 2-1h1c0 2 5 1 5-2l5-6 2-4h-9m42 3v4c1 1 1 1-1 1s-2 0-1 1v1l-1 3-1 3c-1 0-3 3-2 4l3-1c3-1 4-2 3-6l3-3c3-2 4-4 2-3h-2l2-1c3 0 6-2 5-3l1-1 2-1-6-1c-6 0-6 0-7 3m-82 1 1 1c1 1-1 1-3 1l-6 1-2 2c0-1-1-1 0 0l12 1c7 0 12 0 11-1-2 0-2 0-1-1v-2a6 6 0 0 0-8 0v-1c0-2 0-2-2-2l-2 1m176 10c0 3 0 3-2 3-4-2-5-2-5-1 0 2 2 3 6 2h6l-2-2c-2 0-2 0-1-1v-2l1-1c1 1 2 0 1-1-1-3-5-1-4 3m-115-1c-3 0-4 1-4 2-1 2 0 2 3 1l4 1a2 2 0 0 0 3 0l1-3-1-2-6 1m-56 2-6 1c-3 0-6 2-3 2l-2 1c-3 0-4 1-5 4l-2 4c-2 0-3 1-3 2l3 1 18 1c10 0 14 0 13-1-3-2 0-2 5-1 5 2 13 2 20 1l4-1h-6l-11-1-5-1c-1-1 2-1 7-1 11 0 7-2-5-2-9 0-11-1-9-4 0-2 0-2-2-2l-2-1c0-3-6-4-9-2m317 1v2l-1 1-1 1c1 1 0 2-1 3v4l3-4c2-5 2-5 7-5 8 0 8 0 6 5-1 4-1 5 3 3 2-1 2-2 2-4l2-3c3-1 1-2-7-2l-9-1h-4M0 578v5h10c8 0 10 0 10-2 1 0 1-1 0 0l-1-2c0-3 0-3-8-3l-8-2c-2-2-3-1-3 4m272-4-2 2a2 2 0 0 1 0 3c-6-1-2 2 4 3h29l-4-7c-2-2-24-2-27-1m30 0c0 4 13 8 27 8 3 0-4-5-9-7l-18-1m95 0-3 2 2 4 3 4v2l1 1 2 1h-3c-2 0-2 0-1 1s1 1-1 1c-1 1 0 1 2 1 4 0 4-1 4-3a2 2 0 0 1 3-1l1 3 1-1c-1-2 0-3 7-2h14c0-2-7-10-10-11-5-2-18-3-22-2m-231 3-2 1c-2 0-3 3-3 7l4 1 11 1 6 1v-7c1 1 2 0 2-2-1-3-3-4-10-4-4 0-5 0-5 2h-1c0-2-2-3-2 0m46 0c-4 0-6 3-2 3l1 1-1 1-2 3c0 2-2 3-3 3l-3 2c-1 3-1 4 1 2h3l5 1 5 1v-5c0-5-1-6-4-4v-2c0-2 4-2 5 0h1v-1l-1-1 2-2c2-1 1-3-1-3l-6 1m9 13-2 6-1 5h-14l-52-4c-7-1 1 2 25 8a238 238 0 0 1 26 7l13 4h2l2 1h2l2 1h2l2 1h2c2 0 2 0 1 1-2 1-6 0-20-4-59-16-71-19-88-19l-23-3c-18-3-14-1 16 10a15521 15521 0 0 1 137 49l69 26 13 4h125l-43-11c-77-19-187-50-185-51h3c-1 1-1 1 1 1h2l2 1h5c2 0 2 0 1 1s-1 1 2 1h2c-1 1-1 1 1 1h5c2 0 2 0 1 1s-1 1 1 1c4-1 8 0 6 1-1 1 0 1 2 1h2c-1 1-1 1 1 1 4-1 8 0 6 1-1 1 0 1 2 1h2c-2 1-2 1 1 1 4-1 8 0 6 1-1 1-1 1 1 1 3-1 12 1 10 2-1 1-1 1 1 1h7c4 2 4 2 1 1-3 0-3 0-1 1l4 1c2-1 18 3 18 4l-8-2-9-2 18 5c1-1 18 3 18 4l-9-2-9-2c-1 1 137 36 141 36 3 0 4 0-60-16l-47-12 37 9 58 14 22 5h34v-48l-1-47v14h-3c-3 0-3-1-3-3l-1-1c-3 0 0 5 3 5h4v33h-3c-3 0-3 0-1-1a2 2 0 0 0 2-3l-5 1-20-3-28-3c-2 0-2 0-1 1v1c-1 0-4-3-4-5s-4-9-7-11c-6-5-13 0-13 9 0 3 0 4-2 4-2-1-3-4-3-10v-5h-5l-9-1-6-1h-6l-4-2v-1c3-2 0-4-5-4-3 1-4 0-7-3-5-4-8-4-12 0l-4 3c-2 0-2 0-1 2 0 2 0 2-6 1l-13-1c-8-1-8-1-6-2l6-1c11 0 7-4-4-5-7 0-8-1-11-3-4-4-10-1-10 6l-1 4c-1 1-1 1-1-1s-1-2-7-2c-3 0-4 0-4-2h-2c-7 3-12 4-19 4h-7l8 1 9 1h-10c-6 0-9 0-10 2l-5 1h-3l3-1c5-1 6-2 3-3-2 0-2-1-2-2l-2-2-1-2c0-1-2-1-6 1l-2-2c-2-5-8-4-11 2-2 4-6 6-14 4l-5-1h8c9-1 10-1 10-4 0-4-1-4-8-4l-8-1h-3l-1 1v-4l-2 2c0 2-3 1-4-1s-5-3-6 0m242 2c-6 3-7 3-6 6 0 2-2 2-4 0h-2c-1 4 2 4 22 4 17 0 19 0 19-2h1c0 2 1 2 4 2l4-1v-2l1-1h-5l-3-2c-2-1-2-1-2-4 0-6-4-4-6 3-1 3-2 4-4 4h-10c-13-1-14-3-5-8l4-3-8 4M1 636v47h157c87 0 157 0 156-1a6345 6345 0 0 1-113-43l-24-8-93-36c-6-2-26-3-54-3a62 62 0 0 1-23-3H1v47m203 2 103 39 18 6c3 0 2-1-15-7l-93-34-13-4"
    itemprop="bold" fill-opacity="0.90" stroke-opacity="" stroke-width="0.33px" fill-rule="evenodd" tabindex="-1"
    fill="url(#16282281824-posters-1674682501881-vertical-bold)"
    stroke="url(#16282281824-posters-1674682501881-radial-regular)"></path>
</svg>
