<svg viewBox="0 0 683 512" xmlns="http://www.w3.org/2000/svg" preserveAspectRatio="xMidYMid slice">
  <rect fill="rgba(208, 208, 201)" width="100%" height="100%"></rect>
  <path fill-opacity="0.45" itemprop="path" d="M0 21v22l2-1 4-2c4-2 12 1 12 6l-3 5c-4 4-8 3-12-1l-3-3v170l1 172 4 1c3 1 4 6 1 7-2 1-2 1-1 3v20l1 6 1 2-1-1c0-2-3-2-5-1-1 2-2 12 0 15v2l-1 7c0 6 1 7 3 7l5 5c1 2 3 4 5 4h3a5 5 0 012 3h-2c-2 2-5 3-8 2l-4-1-2-1c-2-2-2-1-2 12 0 16 1 20 7 20 3 0 7 6 4 8-1 1-1 1-5-1-5-3-6-3-6 1v3h18l2-5 2-9 5-9c4-6 4-6 3-10a20 20 0 01-1-7l-4-1c-5-2-6-4-2-6 5-2 6-1 11 3l5 3c2-1 11 6 11 7h-5l3 2 13 10-1 1h-3l-2 4c-2 6-5 8-9 5l-3-1c-3-1-2-2 2-3 1 0 4 0 6-2 3-1 4-3 2-3l-8-5c-8-5-10-5-12 1-3 7-3 22 0 24l103 1c95 0 101 0 103-2l8-5 5-3 22-10 14-8 14-8a3281 3281 0 0041-21c14-6 21-7 21-2 0 3-2 5-7 6l-4 2a45 45 0 01-17 9l-12 7c0-2-13 3-24 9a66 66 0 01-16 8l-3 1-9 6-2 1-11 6-2 1-1 1c-1 2 0 2 125 2l125-1h1c0 1 145 2 152 0h5l10 1h10v-4l-1-3c-1 1-4-3-3-5v-9l1-1c0-3 2-1 2 2v-39l-1-44-1-4c3-8 3-37 3-213V0h-54l1 2 4 3 5 2 4 4v2c-2 3-4 2-5 0l-3-2-3-1c-1-1-1-1-1 1s3 5 7 6l3 3c0 1 1 2 3 2 4 1 9 6 9 10l2 6c5 8-4 17-9 9l-4-3-3-1c-1-3-2 0-2 4 2 16 2 16 9 12 4-1 8 1 8 5l1 3 1-2 2-2 2-2 2-1 1-1 5-1c6-1 6-2 4-7-3-5-3-6 6-4h4v8c0 7-1 10-3 8-1-3-3 1-3 6 1 5-1 7-4 5-2-1-6-2-8-1h-3c-2-3-3-2-6 0-2 3-1 4 2 3s3 0 6 4c5 6 5 6-2 11l-6 6-3 2c-4 0-16-9-16-12l-4-1a10 10 0 00-9 4 5 5 0 003 9l6 3c2 2 5 4 9 5 5 1 7 2 8 5l6 5c3 1 4 2 3 4a2 2 0 01-3 3l4 5c5 5 5 7 2 8l-2 2v4c-1 2-1 4 1 8 4 8 4 9 4 11a8 8 0 009 8c-2-2 3-2 6 0 3 1 3 2 3 6 0 6-1 6-8 1-5-3-7-4-10-4-3 1-12-4-13-7h-4c-4 1-8 1-9-1v-3c-2-2 4-6 8-6 7 1 8-1 8-6 0-9-10-14-15-7l-5 1-3 1-4 1c-5 0-5 0-1 4 3 2 4 8 2 8l-3 4c-2 4-2 4-5 0-6-6-6-9-1-11l3-4c-1-2 0-2 2-3l2-2c0-3-5-2-8 0s-12 3-12 1h-2c-2 2-2 2-7 0-6-3-13-4-15-3v2l-1 1-3-2c-3-4-3-4-7 1l-5 3c-3 0-10-5-14-9l-4-5c-2-2-3-4-1-4l1-2h1l4 1c6 0 13 2 15 4l2 2 1-2c1-2 1-2 2 1l2 3 3-2 3-2 4-3c6-2 10-11 7-14-1-3-1-4 1-4l-1-1c-2-1-2-1-1-3 0-3 0-3-3-3s-5 3-5 8c0 3-1 4-4 5l-5 3c-1 2-3 0-2-2 0-2 0-3-2-4l-3-5c-2-4-4-5-4-2 0 4-12 6-15 3-2-2-3-6-1-8s2-3 1-4c-1-2-1-2 1-4l4-4 2-5c1-1 2-3 1-6 0-3 0-3 3-4s3-1 2-6l1-6 1-3c0-3 2-5 5-5l4-1c2-3 9-4 8-1l1 2v7c0 7 0 8 4 6l2-2-1-3c0-2 4 0 6 2s2 2 3 1c2-1 3-1 3 1 1 1 2 2 4 1 3 0 4 0 6 3 1 2 2 8 0 9a24 24 0 01-12-8l-2-2-3-2c-1-1-1-1 0 0l-2 2-2 2-1 2c-2 3-1 4 2 4 5 2 9 15 5 17-3 1-1 2 5 2l7 1h4c-1-2-1-7 1-11 0-2 1-2 6-2l5 1v-4c-1-3-1-4 3-7 3-3 3-3 3-8l-1-6c-4-3-4-10 0-8 9 2 10-12 2-21l-3-5c0-2-7-3-9-1l3 3c2 2 3 3 1 4v3c5 5 1 12-5 9-4-1-9-1-8 1 1 4-8 6-12 2l-4-2c-1 0-2-4-1-5h3c4 2 5 1 3-2-2-2-7-1-7 1h-5l4-3c5-2 4-1 3-5-1-1-2-3-1-4 1-3-12-13-13-10-1 2-10 2-12 1-3-2-4-1-3 2 0 1 0 2-2 2s1 3 4 4c5 2 2 5-7 6h-6l-1-3-3-4c-1 0-1 1 1 6l-1 1c-2 0-6-3-5-4h-6c-3 1-4 0-4-6l-1-4-2-2c0-2-1-2-3 0-3 2-8 1-13-2l-8-3 1-1c1-1 5-6 5-8l-10-1h-10l2 3 6 6 3 2v10c-1 7 0 10 5 10 3 0 10-3 11-4 1-2 3 2 3 8 1 5 4 7 14 12 5 2 4 1 3 6v4c1 2 0 5-1 7l-1 3c1 2 0 3-1 4l-1 3c1 2-2 2-5-1-4-3-4-4-3-7 2-4-2-10-5-7l-2 4-1 3v1l-1 1-1 2-1 2-2 4-3 3c-2 0-1 3 1 4l8 1c7 0 10 1 11 5l3 2 3 1 3 3c4 2 4 3 0 5l-4 3-4 1c-9-2-19-3-20-2s-2 0-4-4c-1-3-4-4-7-2-5 3-13 2-17-1-3-3-5-3-11-3-7 0-13-9-9-13 5-5 5-6 3-8-6-4-2-15 3-11v1c-4 0-1 3 4 4h5l-1 4c0 2 0 3 2 3l4 3c2 2 7 3 9 1l4-2c8 0 10-3 7-7-1-2-1-2 1-2v-1c-3-4-2-12 2-12 3 0 2-3-6-11-2-1-2-3-2-4 1-2-8-13-11-13v4l1 3 2 2c2 0 5 7 4 9 0 2 0 2 3 2 4 0 4 2-1 5l-5 5-5 5-4 3c-1 1-1 1-1-1l1-3c1 0 1-1-1-2-1-2-1-2 4-8 6-5 7-9 3-8l-2-1h2l-3-2-3-3c0-3-3-7-6-7-4 0-7 4-5 7l2 7c0 5 0 5-4 9l-5 3-1 1-1 1h-1c1-2-6-1-8 2-5 5-7 5-9 1a19 19 0 01-2-19c-1-1 5-3 7-2a10 10 0 006-12l-1-2c-2 0-1-8 2-9h5l-1 1c-1 0-2 1-2 3s0 2 2 1h6l5-1 2-2c2 0 4-5 2-5l-1-3c-1-3 3-7 5-6l1-1-32-1h-32l-1 4c-2 4-4 5-4 3l-3-1c-1 1-2 0-2-1l-1-2c-2 0-2 0-1-2 1-1-8-1-64-1h-66l-1 2c-1 3 0 5 1 4v2c-1 4-8 4-8 1l-2-3a2 2 0 01-2-2l1-3c0-2-15-2-16 1 0 1-2 3-6 5l-5 3c0 2-5 3-12 3-5 0-6 0-9 4-4 4-5 4-5 0l-3-9-3-7-27-1h-27l-1 3c-1 5-2 5-6 3l-5-4-1-2H0v21M577 2l2 3c-1 2 2 8 3 8l4-1c3-2 4-2 6 0l3 1c1 0 2 1 2 3l2 2c2 0 5-3 5-5l3-5c4-4 8-4 10-1 0 2 2 2 8 1 5-2 5-3 0-6-7-3-50-3-48 0M287 18h-3a6 6 0 000 10c2 1 3 4 4 7 2 6 12 19 13 16h1c2 1 0-8-3-12l-1-3-3-4-2-2 2-2c2-2 2-2 0-3-1-1-2-2-1-4a5 5 0 00-7-3M68 21v3l-1 3v5h8l2-1 4-1c1-1 2-1 5 1 4 2 7 2 7-1s-7-7-11-8l-8-1h-6m23 20c-2 2-2 2 0 6s9 6 12 2l4-5c2-3 3-4 1-3s-10 0-11-1c-2-2-3-1-6 1m272 4l-1 3-2 3c-3 3-5 10-4 12 1 4 2 4 9-3 6-6 7-11 5-15h-7M0 184c0 76 1 107 1 69a21731 21731 0 00-1-69M40 50c-3 1-5 5-3 6l1 2 2 2 5 1c5 2 11-7 6-10-3-1-7-2-11-1m71 10l-8 3-4 1c-5 0-15 2-18 4-4 2-7 2-16 2h-8l-5 4-3 5c4 2-2 9-9 13a81 81 0 00-23 18l-1 3-1 3v1c2 2 1 5-1 7-2 0-3 2-3 2l-3 6c-6 8-1 16 9 13l4 1c2 1 10-2 10-4l2-1 3-1c3-4 11-3 8 1-3 5 1 5 7-1 3-3 7-4 13-6 9-3 12-4 15-7 5-5 6-5 9-3 2 2 3 3 2 4-1 3 4 7 8 7s10-4 10-6 0-3 3-5c2-2 2-3 1-3l-2-3c0-1-1-2-4-2-6 1-6-2-2-6 3-3 6-4 5-1l1 1 1 1v1c1 0 3-2 1-3v-2h18l4 2 3 2 2 1c2 1 7-1 7-3l3-1 2-1c1-2 13-4 17-3l5-2c3-4 6-4 13 0l9 3 9 2c3 2 6 2 8 2l5-1 2-1c0-1-1-2-2-1-2 0-2-1-4-6l2-4c4-5-1-9-15-10-9-1-13-3-15-6-1-3 0-4 5-4l3-1-9-1-7-2h-10c-4 0-4 0 0 4l1 2-8-2c-5 0-7 0-8-2h-4l-4 1 1-4c1-3 0-3-2-5l-5-4-3-2h-24m568 28c-5 5-7 10-6 16 0 4 1 5 3 5l4 2 3 1V84l-4 4m-306 2c-2 1-2 1-1 2 1 2 3 9 3 16l2 8 1 4 1 2v-3l1-3v-4c-1-6-1-6 5-6l6 2c4 8 8 11 12 10l5 1c3 4 5 2 5-4 0-2-1-4-4-7-4-4-7-5-7-3 0 3-15-9-18-14-1-2-6-3-11-1m126 17l-5 2c-2 0-2 1-2 3v9c0 6 0 7 3 11 3 5 4 6 9 3 3-2 4-2 4-9l1-9c7-10 0-17-10-10m106 1v2c-1 1 2 3 6 5s6 4 6 5l2 2c2 1 6-2 6-4l1-2c4-3 0-6-6-6l-7-2c-5-2-7-3-8 0m-405 22l-17 2-10 2h-4l-1 1-7 1c-12 1-16 2-17 4l-10 2-10 3-3 2-3 1c-3 3-15 8-18 8s-3 2-2 4h10c8 0 8 0 12 3l12 3c8 0 7 0 18-7 6-4 14-6 18-4 6 3 20-1 17-5 0-2 3-4 4-3h3c4-2 8-2 10 0l4 2 1 2 1 1c2 0 5-2 5-3 0-3 6-6 8-3l2 1 6 2a10 10 0 0010 1c22-2 23-6 6-15-6-4-8-4-16-5h-29m271 11c0 5-1 5-11 4-7 0-8 0-7 1l-1 2-2 3c-2 4-6 4-8 2l-4-3-4-2c-3-2-3-1-2 2 1 2 1 3-1 5-4 3-4 5 0 5l3 1c1 2 10 2 13 0 2-2 3-2 4 0l8 1 6 1v3c0 3 0 3 3 3l4 2c1 4 2 4 9 4l8 2c6 3 15 0 15-4 0-5 24-3 26 2 2 4-2 8-7 7-7 0-18 7-13 8l9 3c8 3 10 3 13 0 5-5 11-5 15 0 5 5 6 5 7-2v-6l-2-1c-3-1-5-4-2-6 4-3-5-15-11-15l-6-2c-1-2-3-3-5-3h-10c-6-1-7 0-8 1-4 5-8 5-12 1-5-4-7-4-12 1-3 5-4 5-9 4-6 0-8-6-3-10 2-1 3-10 1-10-1 0-3-4-2-6l-1-1-1 3m-189 4c-12 6-13 7-18 14l-8 9c-4 4-10 16-11 24-2 11-1 43 2 53 4 17 18 37 26 36 4-1 4 0 1 2-4 2-4 2 8 15a397 397 0 0146 52l1-1v-1c2 0 3 3 3 6l1 6c1 3 1 3-1 5l-2 3c1 2 0 2-7 0-4-1-4-4 0-6 3-1 3-3 0-3-8-2-9-2-14 1-4 3-8 4-14 5l-14 4-6 1-8 1h-3l2-1c2-1 2-1-2-4-11-5-20-4-21 4 0 2-1 3-4 3-3 1-4 3-1 5 1 2 1 3-1 5-6 6 19 10 34 6l14-2c5 0 7 0 8-2a65 65 0 0139-6l3-1c4-1 3-3-2-3-3 0-4 0-2-1 3 0 4-1 2-3v-1l1 1 3 1c2-1 6 1 6 3l-2 1-2 1h7l6 1 2 2c2 0 2 0 1-1l-1-4c1-3-2-6-4-5-1 1-6-4-6-7v-3l8 1c11 0 27 6 33 13l8 15 7 15c4 7 8 20 9 27 3 27 3 25 8 29 4 4 7 5 12 2l4-1 5-2 3-2-1 2c-3 1-3 3-1 2l19 5 14 3 14 2 13 1c5 0 7 3 7 10 0 3 5 1 7-3 1-3 6-5 8-2l16 1 19 1c2 1 5 2 7 1 7-1 28 0 32 1l12 12 1 1 6 3 7 2 3 1 3 1h3c1-2 0-3-1-2-1 0-1-1 1-2v-1h-3l-10-6-3-2h-2v-1l-1-1h-1l-1-3c-1-1 0-5 1-5v2h1l2-3-12-2-15-2-22-2-19-3-19-2a145 145 0 01-21-4l-18-2-25-3-10-1h-4c-3 1-3-3 0-4h3c0 2 3 1 4 0 4-5-11-36-31-66-6-8-20-24-28-31l-8-8c0-2 11-1 33 3 9 2 11 2 10 1h-1l-1-1c-1-1 8-1 13 1 4 1 4-2-1-5-8-5-14-7-26-9-18-3-19-4-12-6 11-4 19-16 23-33 0-2 1-4 3-5l4-1-4 1h-3v-6c0-4 0-6-2-6-3-2-12-1-18 1s-8 1-6-2c1-2 13-9 22-14l16-10 9-6 6-3 11-7c9-5 11-7 18-13l5-3 18-11c3-2 5-2 7-1l7 2 3 4c4 3 4 3 9 3 10-2 12-12 3-14-3 0-10 2-10 4 0 3-3 2-5-1-2-6-10-11-24-15l-15-7c-10-4-14-5-19-3l-11 3-20 6-13 6c-5 1-14 7-16 10l-4 5c-1 2-2 3-1 4l-2 1-3-2c-4-1-16 18-19 28-2 8-4 11-7 9-1-2-1-2-3 0a54 54 0 00-9 30v8a32 32 0 01-4 15l-2 4-4-26-1-3c-1 1-2-3-2-7l2-21 2-33c1-21 0-44-4-57-2-6-8-12-13-12-6 0-20 11-26 20l-3 4c-1 0-4-13-3-14v-9l2-11c5-5-4-4-15 2m307 10l-1 3c0 3-7 15-12 20l-2 5-1 5c-3 4-3 12 1 12l3 1h4c2-2 8-15 8-19 0-7 4-11 10-11 2 0 5-1 7-4l4-3-1-3c-2-4-3-5-4-3-2 2-13 0-13-2l-3-1m-437 16c-6 3-7 13-1 15l5 2 6 2c1-1 2 0 1 1l2 2 2 1-2 2c-2 2-3 4 0 5 3 2 8-1 5-3-5-3 3-11 9-10 5 0 6-2 3-8-2-4-6-6-6-2l-3 1c-2 0-2 1-2 5s0 5-2 5c-4 0-6-2-6-6 0-8-6-14-11-12m473 8c-3 4-2 6 1 10 5 4 8 6 10 4s2-2 5 1l5 4c1 0 6-6 6-8l1-2 1-1c0-3-4-5-9-5l-8-2c-5-3-10-4-12-1m-8 17l-1 3c-1-1-4 5-4 7s3 5 6 7l3 1h-3c-4-1-5 1-3 3l3 5 2 4c2 2-5 13-9 14l-4 5-2 4c-2 0-1 3 1 5l4 4c1 3 5 7 13 12 2 2 2 5 0 5-3 0-8 7-8 12-1 3-3 4-5 2s-3-2-5-1l-8 6c-4 2-9 6-11 9-6 4-16 11-18 11l-4 4-13 8-10 7-5 3c-7 3-12 5-14 9a9 9 0 01-7 5l-6 1c-7 0-13 6-9 9l2 2 3 6c4 4 5 4 9 4 8-1 6-7-2-7l-6-1c-2-2-1-4 1-4l2-2 2-2 7-2 9-2a25 25 0 0017-9 50 50 0 0120-8v1h1l2 1c0 5 10 7 15 2l6-4c2 0 3-1 3-2l7-3 2-2c-1-1 3-2 4-2l1-1 3-3 5-2c5-4 17-7 17-4l2 1h4c4 1 7-4 4-9l-2-2-3 2c-4 0-4-3-1-5l12-6c4 1 8-8 5-9-2-1 4-6 13-15a14 14 0 018-4c-1-1 0-2 1-2 2-2 0-7-4-9h-12a117 117 0 01-5 2c-5 3-26 5-29 3v-2c2 0 2-1 2-3-1-3 2-6 5-6l2-1c0-2 5-6 9-6 3 0 4 0 5-3v-3l-1-2c-1-1 0-2 1-3 2 0 1-2-5-5s-9-6-14-12l-5-3-1-1-1-5c0-3 0-3 1-2 4 1 6 0 6-3 0-4-1-5-6-8l-4-2v3m-491 13c-3 1-3 1-3 6 1 5 3 7 7 5l5-1c4 1 0-9-4-10h-5M7 221l-2 4c0 2 6 10 8 10l2 2c1 2 1 2 3-2 5-7 5-11-1-15s-10-4-10 1m145-1c-2 2-1 9 2 11 2 1 12 1 14-1 4-3 0-9-6-8-4 1-4 1-6-2-1-4-1-4-4 0m-104 4c-6 1-7 8-2 12 2 1 3 3 3 5 0 4 8 1 10-3l2-2c3 0 2-5-3-10-2-3-5-4-10-2m620 2l-4 1-4 2c-4 0-5 2-1 5l10 2h11c3 1 3 1 3-4v-4h-5l-7-1-3-1m-531 13c0 1-9 5-13 5-10 0-12 3-8 10 3 4 6 6 9 6s20 8 21 10l1 3c-1 1 2 3 5 3l8 4 7 3h3l3 1 2 2c0 2 1 3 3 0 1-1 0-3-2-3l-1-2c-1-2-12-8-17-9-5 0-7-1-5-2l5-9 2-7-3-3c-2-2-5-3-7-3-3 0-4 0-6-3-2-5-7-9-7-6m-33 19l-2 3-2 3c-2 1-2 9-1 11 3 5 11-6 9-11l-1-6c0-2-1-3-3 0m487 4c-1 1-3 2-12 1h-11v7c1 1 3 2 5 1 6-1 12 0 22 5 11 5 13 6 13 4l2-2c2 0 2-1 0-3l-2-4c0-2-5-5-7-5l-5-2c-4-3-5-3-5-2M49 272l-5 1c-8 2-17 12-17 20l-3 5c-3 4-5 10-4 14 1 1 0 2-2 4-3 2-3 2-2 6s5 4 8 1c3-2 9-2 11 1 2 1 2 2 1 9v8l3 2c3 2 5 3 9 3l7 2 4 2 3 4 3 6c2 4 1 5-3 6-5 2-7 3-8 8l-1 4v8l3 2c2 2 6 2 6-1l2-7 3-6c1-2 1-2 1 1s0 4 2 4l2 1c0 1 1 2 6 1h7c1 1 3 0 6-2 5-3 13-4 13-2 0 1 6 8 8 8l5-5 5-4-2-8c-1-11-2-11-13-12-9 0-12 1-17 5-1 2-2 2-3 1-2-1-8-1-10 1-2 3-4 2-4-2 0-3 0-3-1-2s-1 0-2-2l-2-5-3-3a62 62 0 01-9-7c-3-2-3-3-3-7 0-8 0-9-4-12-5-5-8-13-7-19 0-3 0-3 4-3s9-2 14-6c1-2 2-2 6 0a13 13 0 0020-3l3-3c2-2 6-8 6-11 0-2-6-8-8-8-4 0-18 10-18 13 0 2-4 3-9 4-4 0-5 0-6-2-1-3 1-11 3-11v-1c-2-2-5-3-8-1m492 10l-6 2-6 1-1 4v4l-2 3c-5 5 6 5 12 0l6-5c3-1 4-4 1-8-1-2-2-2-4-1m-413 6c-6 1-22 14-22 17a38 38 0 008 16c1 2 1 2 1 0-1-2 0-4 1-5l2-2 5 5c6 6 6 6 12 0 9-10 19-8 19 2l-1 3c-3 0 1 17 5 19l4 2c1 2 4 2 9 2 12 0 17-5 18-17v-5l-7-5c-5-4-7-5-11-5h-6v-4c0-9-4-11-11-6l-5 2-3-2-5-8c-4-9-7-11-13-9m253 5a36 36 0 00-14 24l-1 1-1 6c-3 6-3 6 5 5 7 0 7 0 8-3 5-10 5-12 5-19s0-9 2-14c3-6 3-6-4 0M92 314h-5c-2 0-6 4-6 8-1 3 4 10 7 10l10-6 5-5c6-5 5-7-1-7-3 1-4 1-5-1l-5 1m61 45c-4 2-6 5-3 5h1c0-4 1 1 2 7 0 8 1 10 4 10l2 3 4 4 5 3c2 2 5-2 5-6l-1-11v-9l-6-4c-7-5-7-5-13-2m381 12l-11 11h-6a13 13 0 00-9 2 7 7 0 00-5 4l-1 1c-2 1-2 2-1 4s3 3 4 0c0-2 0-2 3 0 5 2 13 1 17-2s4-3 4-1l1 2h1l1 2v1c-1 1-1 1 1 1l1 2a70 70 0 01-25 15l-3 2c-6 2-3 4 11 5l10 2c3 2 11 4 13 2 3-2 9-2 13 0l3 1 9 3c8 3 12 3 15-1l5-4 5-5c3-7 5-8 10-10 4-1 5-2 7-4 2-6 7-9 14-9h4l-1-3c-1-2-2-3-5-4s-7-3-12-9c-8-8-10-9-21-11-6 0-11 1-15 5-2 2-4 2-5 2l-2 1c-2 1-2 1-3-1-2-1-3-4-1-4 2-1-1-8-4-10-7-3-10-2-22 10m-316 23l-8 9c0 2-10 12-14 14l-9 5c-6 4-9 3-14-1-5-5-19-10-26-9l-8-1c-2-2-3-2-4-1-4 2-3 3 2 3s17 11 17 17c0 3 2 3 6 0 7-8 16-1 11 8-2 3-3 11-2 12l2 5c0 4 1 5 5 10l7 7c2 3 8 5 16 5 6 0 11-3 20-12 8-8 8-8 7-12-2-8-2-12 0-16 3-3 4-6 3-8-2-2-1-4 2-3 3 0 8-4 8-6l5-13c1-2 1-3-2-4-5 0-6-1-6-4 1-1 0-2-1-2l-1-2c0-2-12-2-16-1m420 2c-5 1-5 6 0 13 3 4 3 4-2 9-3 2-4 7-2 9l1 2c-1 1 0 1 3 1s4 1 5 2c2 4 2 4 0 4-1 0-2 0-2 2l-2 4c-2 2 1 6 3 6l6 2c10 5 13-1 6-11-4-5-4-5-1-9 3-6 2-16-1-20l-4-6c-1-6-5-9-10-8m-78 12h-8l-2 2-7 3c-6 2-6 2 2 4 5 1 16 0 17-1l-2-1v-2c1 0 2-2 1-4 0-3-1-3-1-1m-248 1c-3 3-16 9-19 9-4 0-5 2-4 7 1 7 3 7 14 3l12-2c11-2 13-4 8-9l-5-6c-1-2-4-3-6-2M35 420c-3 5-6 6-6 4l-2-1-4-2-4-2c-9-1-9-1-8 3 0 2 0 3-1 2l-1 1 2 1h2l2 1c4-2 11 2 16 7 7 7 14 9 18 5l5-1c1 0 3-1 4-4l2-4-2-7-4-7h-8l-7-1-4 5"
  fill-rule="evenodd" fill="red"></path>,
  <path fill-opacity="0.6" itemprop="path" d="M0 19c0 18 0 19 2 20s3 1 6-3l3-4 3 3 2 3a7 7 0 0011-4l1-5c2-2 2-3-1-5-2-1-2-1 0-2s4 0 3 1l1 1c3 0 4 0 3 1l1 2c3 1 1 10-4 15-3 2-5 5-5 6 0 3-2 4-7 4l-6 2c-3 3-6 2-10-1l-3-2v21c0 14 0 21 1 20l2-1-1 3c-3 4-3 224 0 226v5c-2 1-2 6-2 32v30h9c2 0 2 9-2 21-2 7-1 10 7 9 5 0 7 0 10 2h4l1-1h2l5-4a17 17 0 005-3l5 1c7 0 14 2 15 4 4 7 0 25-5 24h-4l-8 2-6 1-7-6-9-7c-3-2-13-2-14 0H3c-1-2-3 0-3 4 0 2 1 4 3 5 3 3 2 6-1 7-3 0-3 7 1 8l6 5 4 4 6-1 11-3a73 73 0 0027-9l3-1c1-2 9-4 12-4l1 2-3 1c-2-1-4 0-5 1l-3 3c-2 1-3 6-1 6 3 1 0 4-4 4-8 0-14 9-9 12l5 3 3 2c2 0 3 2 0 2-2 0 6 7 12 10 11 6 11 7 1 8-7 0-11 2-11 3 0 2-7 1-15-1-5-1-6-3-4-6 4-4 4-7 2-9-3-3-4-2-7 3-2 6-2 16 1 20l3 3h11l12-1c0-2 5-6 6-4l2 1 3 2 34 1c31 0 37 0 46-2 4-1 5-1 8 1 6 3 8 2 3-2-4-3-6-6-2-5l4 1 12 6c4 3 53 3 56 0l6-5 4-4c0-2 8-6 15-7a403 403 0 0015-5l17-8a529 529 0 0034-18l8-5c14-8 34-12 39-7 3 3 6 3 9 2s4 0 3 5c-1 6-5 11-9 12-8 3-10 3-13 0-4-3-8-3-10-1l-5 5-4 4v6c-1 5-4 11-6 10-4-2-4-5 0-9l2-4 1-2v-2a2 2 0 10-3 0l-4 2-8 7-4 3 1-2 1-1c-2-1-10 8-9 10l-1 3-2 2-1 2c-3 3-5 6-5 8l47 1h46l-2-4-1-4-1-5c-2-4-2-10 0-10 1-1 7 2 10 4s2 4-1 4c-3-1-2 4 2 9l5 6h43c33 0 44 0 43-1l3-1c6 2 5 3 6-12l-1-13h-1c0-2-1-2-3-2s-3 0-2 1l-1 1v1h-1c-2-1-2-1-2 1 0 4-2 5-5 1l-7-4-6-2-2-1c0 1-2 0-3-2-3-2-5-3-8-3l-7-1v-1l1-1h-3l-1-1-1-2-5-2c-3-1-5-1-9 2h-4l-4-2h-10l-1 1 2 1 1 1v4c1 4-1 5-2 1-1-3-5-5-6-3-2 2-1-4 1-7l2-1c2 1 1-2-2-5-2-3-3-5-3-8 0-6-1-11-2-9v11c1 2 1 3-2 4l-4 2-4-3c-7-6-9-10-5-13 7-6 7-15 0-10-3 2-11 3-13 1-4-4 2-19 7-19l4-2h7l5 2-4-11-4-8c-7-18-12-25-22-30s-11-4-12 0l-2 6-3 5c0 3-4 4-5 2-1-1-13 0-15 2-2 1-2 1-7-1-6-4-27-1-32 4-5 4-7 5-14 4-6-1-8-1-14 1-9 2-13 2-21 1l-10-3c-4 0-5-2-2-5 2-2 2-3 0-5-3-2-2-5 1-5 2 0 3-1 3-4s2-5 3-6c2-2 12-1 20 3 6 2 6 2 23 0l9-2c18-9 23-10 31-5 5 3 6 1 2-3l-5-9c-2-5-4-6-4-4 0 4-8 6-12 3-3-3-1-11 3-11l2-1c1-2 0-3-18-22-27-29-26-27-22-29l3-2h-3c-12 1-32-39-29-57v-26c0-8-1-12-6-13l-6-6c0-1-10-7-13-7l-4-2-3-2-3-2c-4-3-7-4-6-1 1 1 0 1-3 1h-5c-1 1-8 0-10-2l-4-2-2-1-4-1-7-2c-5-3-9-2-20 5l-10 7-8-2c-4 0-9-2-11-3-4-2-21-2-35-1-6 1-14 0-14-2 0-3 7-8 8-6v-1l1-2h1c0 2 4 2 7 0l4-1 1-1c-1-2 2-4 3-2h5c4-1 7-2 18-8l6-2c3 0 7-2 7-3-1-1 0-3 2-4l3-4c0-2 0-2 7-2 7 1 8 1 9-1v-2l2-1h8l8 1h4l1 1c1 1 9 2 10 1s3-3 3-5l4-3h6c9-1 5-10-6-12l-8-2c-4-2-4-2-8 0l-12 3c-9 1-13 2-14 5-1 4-10 6-22 5l-3 1c-1 3-6 7-8 6-3 0-5 1-7 5-2 3-5 6-9 8l-5 4c-2 3-6 4-8 3v-2c2-2 2-2-1-3-2-1-2-1-1-2v-2l1-4 2-4c0-1-16 5-18 7-1 2 1 4 2 4 2-1 6 3 6 5-1 6-8 7-9 1 0-5-5-9-8-5l-6 3-6 3-6 1c-3 0-3 0-3-2s-1-3-2-2l-2 1c0 1-12 7-13 6h-6c-13-1-18-6-14-13l8-13v-3c-1-1-1-1 1-4 4-8 9-14 15-17 17-11 21-16 14-16l-3-1-4-1c-6 0-9-1-10-3-1-1 0-6 1-5l2-1 3-1 2-1c0-1 10-1 12 2 3 2 5 2 6 0s8-3 17-3c8 0 13-2 14-5s5-4 10-3c4 1 4 1 5-1h3l14-1c15-1 21-1 24 2l8 5c3 1 5 3 5 4h18l2-1h6l17 1-5-1c-4 0-10-2-11-4l-2-2-4-3-4-2c-3 0-3 0-1-1v-1l-1-1-2-2-2-1 2-4c2-5 2-5 0-5-2 1-3-1-2-5l2-7 3-5c3 0 6-3 6-4 0-2-5 0-8 4-4 4-7 3-6-2l-2-4-1-5c0-3 0-3 3-2h3l-2-2c-4-3-10-3-11 0 0 2-2 3-5 0-2-1-7 0-8 3 0 3-3 6-3 4l-2 3c-2 3-5 3-5 1l-2-2c-3-1-3-1-1-8V5l-2-2c0-3-5-3-62-3H0v19M181 3c-3 2-3 2 1 4h4c4-3 11 2 11 6 0 3-1 3-4 3-4 0-4 0-3 1 1 2 0 3-4 3-2 0-2-1-2-3s-1-3-4-1v1l-1 1c-1 1-2 1-1 2l-1 1c-1-1-2 4-1 5l-1 5v11c-3 3-2 5 2 5 5 0 14 10 11 13l4 6c11 10 10 9 5 11-7 2-5 4 3 5l5 2 4 1 7 4c2 1 4 2 5 1l3-1c1 1 4 0 7-2l5-1 3-1c3-1 5 0 9 7 3 4 4 6 2 5l-5 2-7 3-3 3-2 2-3 2c-1 1-3 2-7 2-5 0-6 1-6 4s5 8 9 8l5 1c4 0 18 6 20 9l6 2c6 0 13 12 7 13l-4 1a52 52 0 01-22 5c-4 1-6 1-11-1-7-2-10-2-11 0l-1 2c-2 1 0 3 9 7 6 4 12 10 11 13l3 1c3-1 4-1 6 2s3 2 6-2c0-2 4-6 7-9l9-12 4-5 12-5 14-6c3 0 4 3 2 5s-3 17-2 25 2 8 4 5c5-9 21-22 26-22 9 0 16 11 17 29 2 17 2 36 1 47l-2 29-1 18 1 8 2 7 1 7 1 1v-1l1-2v-2l1-2 1-1c-1-3 6-24 10-31 3-6 5-7 7-5 2 3 3 2 6-7 5-16 15-31 20-29 2 1 3 0 3-1 6-9 16-17 22-17a8 8 0 005-4 24 24 0 01-18-2c-3 0-11-3-11-4s3-2 10-2c7-1 10-2 15-8 2-3 3-3 5-3 4 1 7 4 7 5 0 4 3 5 7 4h7c4 2 14 1 19-2 3-2 9-1 17 4l15 6c6 2 10 3 17 7h1l2 1 3 3c0 3 4 4 6 3 2-3 12-3 15 0s4 11 1 13c-5 2-15 2-18-1l-8-3c-5 0-5 0-2-1l3-1h-4c-2 0-3 0-3-2h-2l-6 4c-13 7-19 11-27 19l-6 5-4 1-4 2-3 2-7 4a50 50 0 00-14 10l-6 3c-3 1-9 4-22 13-9 5-10 8-1 6l8-2c7 0 11-1 10-3 0-2 3-5 6-5s7 4 7 8l1 3 2 2c0 3-4 3-7 0-4-3-6-3-6 3 0 5 0 5 2 5 15-7 16-7 17-2 1 4 4 4 8 0 4-3 6-3 11 0 2 1 2 2 1 6-2 5-3 5-10 4h-6c-2 1-3 1-6-1a8 8 0 00-5-3c0-1-2 0-3 2l-4 4-5 6-9 11c-5 6-12 12-15 12-2 0-1 2 1 2l14 3 15 4c8 4 18 11 18 12s-3 2-6 1h-6l-7 1-10-3c-10-2-32-5-33-4l5 5 23 23c5 6 6 7 7 5s1-3-1-4c-2-3 1-12 4-12 5 0 12 22 9 25a4 4 0 01-6-1c-3 0 0 7 4 8 4 0 5 2 5 8 1 5 1 8 5 14 8 13 14 32 11 34-2 1 1 2 8 2l13 1a179 179 0 0026 3c2 0 3 0 3-3 0-5 0-6 3-6l3 2c0 10 0 10 11 11l19 2 16 2 23 3 23 2h9a5 5 0 015 0l1-1v1c0 1 1 2 5 2l9 1a46 46 0 0010 2l2 1 13 2 8 1 7 1 5 1c5 0 6 1 6 5v-23c0-20-1-28-2-31s-1-4 1-5c2-2 2-18 0-18l-2-3-1-1v-1l1-2 1-1 1-2 1-34-1-34-2-1c0-1-11-6-16-6-3 0-3-1-2-2 2-2 3-7 1-5v-2c2-2 8 0 13 4 5 5 7 4 7-6 0-9 0-9-3-6-2 2-2 2-4 1h-5c-2 0-3 0-3-2 0-1-1-2-3-2-7-2-9-7-4-12l3-3c-2 0-1-3 2-4 2 0 3-1 3-2l3-1 2-2 1-1 2-4 2-4c3 0 3-3 1-3-3-1-4-1-6 1l-6 4-4 5c0 1 0 2-1 1-1 0-4 3-4 6l-2 3-3 4c-1 4-4 7-7 7-2 0-4 4-3 6 2 3 1 11 0 11l-2 1-8 1-18 3c-4 2-12 9-12 11l-3 4-2 3-2 1-3 1h-4l-4 2v1c1 1 1 1-2 1l-3 1-1 1h-3l-4 1-3 1-2 1-10 5 3 3 3 3 1 3c3 3 8 3 10 0 2-2 1-2 16 1 9 2 9 3 17 11l12 9c8 2 9 12 1 11-7-1-9 3-3 5 3 1 4 3 2 3l-2 2-1 1-2 11-1 4c-4-1-8-8-7-10 0-3-2-4-6-3-5 0-7 3-10 8a9 9 0 01-6 6l-5 5-5 3-7-2-9-1-3-1c-1-1-9-2-17-1s-15-1-20-4l-18-2h-19l-4-1 5-4c4-2 7-3 12-3 6-1 14-4 14-5l3-1a8 8 0 007-7c2-1-2-4-4-3l-4-1-5 1h-4l-3-2c-2 0-3-2-3-4l1-4c2-5 5-8 12-8l6-1c0-2-7-5-10-5-4 0-7-3-9-8-4-8-4-10-2-11l5-4c3-4 3-4 8-3 6 0 8-1 15-7l10-6 12-7 10-6 7-5c2-3 4-4 8-6l2-2 1-1 2-1 2-1c2 0 5-4 5-5l2-3 2-3 1-2 3-2c1-2 4-3 5-3 3 0 7-2 8-4l-9-6a20 20 0 00-21-2l-6 3c-3 0-5 2-6 3-1 2-4 2-10 0-2 0-2 0-1 1 2 2 3 5 1 7-12 10-21 14-25 12-3-2-4-4-2-9v-6l-1-5-3-3-3-8c-1-6-3-8-4-7l-2-1-3-1-4-2-4-2-3-1-5-3-5-4-5-4-3-3c1-2 12-2 18 0a48 48 0 009 3l13 2 21 3c20 6 47 10 47 7 1-2 3-2 6 0 4 4 9 6 15 8 8 1 8 1 4-3s-7-8-9-13c0-2-2-4-3-4-2-1-5-3-4-4h3c5 2 8 1 13-4 7-7 8-12 5-18-4-6-7-9-10-10s-3-3 2-2c3 0 3 0 3-2l3-7 2-7c0-1 2-1 6 1 6 3 7 4 7 8 0 2 0 2 1 1s1-1 2 2c1 4 0 5-3 4l-3 1-2 1 1 2 5 5a12 12 0 005 5l10 5a20 20 0 0014-1l4-1c4-2 7-2 9 0 2 1 3 2 7 1h4v-5c0-5-2-7-3-4h-3c-4 0-11-15-9-17l3-1 3-3 2-3c1 1 1 1 1-1l2-2c2-1 1-3-5-6l-4-4-6-4-7-4c-3-4-7-5-13-3l-7 1v-11c2-3 10-6 12-5 2 2 5-1 5-4 0-4-4-9-7-9s-13 6-13 7c1 2-1 5-2 4v7l-4 4c-4 6-7 5-12-5-2-5-2-8 0-8l1-1h-3l-3-1-5-2-7-2c-6-4-12-3-11 1 1 1 0 2-1 2-4 0-9-2-11-4-1-1-1-1-3 1-1 2-3 3-5 3s-2 0-1 1c2 0 2 0 0 4l-2 3c4 3 4 3 4 8l-2 7-1 4-2 4-3 2-1 1c-2 0-3 3-2 8 2 8 2 12 0 14-3 3-5 3-8-2-5-9-10-11-16-6l-5 2h-16l-6-4c-6-4-4-11 4-12l4-2 7-1c3 0 5-2 3-4-3-4-21 0-19 3 1 4-9 6-14 3-3-1-15 0-18 2-1 1-1 1-1-1l-1-3-3-2-6-4c-5-1-6-2-6-5 0-2-1-2-4-2l-5-1h-4c-3 1-11 0-11-1l-4-1c-4 0-5-2-3-5 4-6 0-13-7-13-6 0-8-3-5-10 2-3 2-4 6-4l4 2 5 6 4 5 2 1 3 1 2 1c0 2 5 5 6 5l1-4c0-6 2-7 9-5 8 2 12 2 12-2 0-3 1-5 4-9l6 1c6 1 7 2 5 5l-2 13-2 5c-2 3-3 7 0 7 2 1 2 1 2-1l2-2 6-3c3-3 5-2 8 0 2 1 3 2 4 1h2l3 2 7-8 2-1v-4c-1-1-3-2-7-2h-7l4-3 6-3c0-3 3-4 5-3s4 2 7 1c7 0 11 2 11 8 0 4 0 4-6 5-4 2-5 2-4 3l2 3 2 1 6 2c3 2 3 2 6 1l3-1h2c1-1 1 0 1 3s1 4 3 6l3 4a2 2 0 104 0l1-5c1-1 3-5 3-9l3-8c0-2-2-4-5-2h-3l-1 3c-1 4-3 5-8 4-5-2-5-4-1-7 3-2 4-3 5-2 4 2 6-3 3-6-6-5-9-13-6-14l1-2c0-2 2-2 6 0h16l-2-6-1-9v-3l-2 2c-4 5-14 6-19 2-3-2-13-4-16-2v1c2 0 3 5 2 9-3 7-7 7-12 3-2-2-3-11-1-12 2-2 1-5-2-4-3 0-3 0-2 3l-3 9c-2 4-2 5-1 8 2 6-4 14-11 14-4 0-9-5-10-11s-3-8-8-8c-3 0-4 0-4-2 1-1 1-1-2-1-3 1-6 5-6 7 1 2-6 7-8 5-1-2-5-3-7-1-2 1-7 0-9-2-3-2 1-5 5-5 5 1 9-2 7-5-3-6 4-10 9-7 4 2 6 2 8-3 0-2 2-4 4-5 4-2 4-4 1-4l-3-1h-3c-2 1-3 1-7-3l-7-5c-1-1-7 1-9 3-2 3-6 2-9-1-2-4-2-6 3-9l2-3c0-3 3-7 3-6v3c0 2 0 2 3 1l5-1 3-1c3 1 3 0 2-5-2-8-7-10-13-5-4 3-7 3-7 0l-2-2-2-2c0-9-1-16-3-15h-5l1-1v-2c-2-2-2-5 1-5l2-1c0-1 1-2 2-1 4 1 12 0 15-1 4-3 4-4 1-8-2-2-3-5-3-7 0-3 0-3-2-2l-2-1 3-1 2-1-1-1c-3 1-4-2-2-2 7-4 14-2 16 4 1 2 5 3 5 0 0-1-1-2-3-2l-3-4-2-4 3-2c3-2 3-2-8-2l-12 1a1 1 0 11-1 1c-1-2-5-2-7-1v4c0 3-1 4-2 1l-2-2-1-2c0-2-1-2-3-2-3 0-4 0-4 2l-1 1-1-1V1c-2-1-4 2-4 4s-5 6-7 6l-9-10-46-1-46 1h-1c0-1-16-2-19 0-3 1-2 3 1 5 6 3 8 6 7 7l-1 2-1 2 2 1c3 0 4 2 2 4-1 1-2 2-1 3l-1 3c-1 2 7 19 11 22s9 11 10 15v8c0 2-4-1-8-6l-14-16c-9-10-11-11-12-16l-2-5-1 2c1 4 0 4-2 1l-3-2v1c2 2 1 6 0 4h-2c-2 4-11-1-11-5l1-2c1 1 6-5 6-7l-1-2c0-2-11-12-13-12-3 1-2-4 1-7 1-1 1-1-2-1-4 0-5 0-6 3-1 2-3 3-6 4-5 2-6 2-5 9v6l-4-1c-3 0-6-2-6-5h1l1-1-5-1c-6 0-6 0-9 5-5 5-4 8 1 16 3 4 2 13-1 15-4 3-10 0-6-4l1-2-3 2c-3 3-5 3-4 0l-1-2h-1l-2-4c-3-2-4-6-2-7 1-1 2-2 1-5 0-4 1-5 2-5l2-3 2-4c1-2 1-3-1-9l-2-7h-10c-8 0-10 1-12 3m398-1l2 5c0 3 2 4 4 1 2-2 4-3 5-1h2c2 0 6 3 5 4l2 1c4-1 9-6 9-9l2-1h2c-1-1-6-2-17-2h-17l1 2m53-1l3 2c6 2 14 10 11 12-1 0 0 2 3 4s3 3 2 3c-2 0-2 0 0 1s3 2 5 7c1 3 1 3 4 3l5 2h3c2 0 10-11 10-13 0-3-3-10-4-10l-4-3-6-5-4-3c-1-2-28-1-28 0M506 14l-1 8c0 6 3 9 7 6l4-2 2-1c0-1 4-2 5-1l1 6c1 7 3 10 9 13 4 2 7 1 7-1s3-5 4-5l1-1-3-4c-2-1-3-2-2-3l-4-1-4 1-2-5c-2-4-3-5-5-6l-7-2-6-1-4-2c-2-2-2-2-2 1M60 15l1 2c4 4 6 9 3 9-2 0-2 0-1 4 2 4 6 5 13 5 3-1 3-1 2 1h1c3-3 3-2 2 2 0 4 2 8 5 8l3 5c2 5 5 7 6 5l3-2c4 0 8-3 9-5l2-3c3 0 4-6 1-8l-1-3c1-3-2-4-5-4-3 1-3 1-3-1 0-4-4-8-5-6-2 2-3 1-2-1 0-3-1-4-3-2-1 1-1 1-1-1 1-2 1-2-1-1s-22-2-24-4h-5m514 5c-4 2-5 3-5 6 0 5 0 5-2 5l-3 1c-1 1-2 2-4 1-4-1-7 1-7 4 1 2 0 3-1 5l-2 4-1 4c-1 1-2 2-1 3h-4c-1-2-4 1-4 4v9c1 1-1 6-2 6v2c0 2-3 4-7 4h-4v-3c1-1 1-1-1-2s-3-6-1-8v-5c-1 0-2 0-2 4l-3 7c-4 6-4 9 0 9 3 0 8 2 11 6l5 3 5 3c3 4 8 1 10-5l2-4c2-1 2-12 0-12l-2-1-1-2-1-1v-1c-1-1-1-1 1-2 1-1 2-3 1-5 0-3 1-4 6-4l7-3 4-3 3-1h4c2 0 3-1 3-2l1-1v-2c-2-1 0-3 3-3 1 1 1 0 1-1 0-2 1-4 3-5 3-3 3-6 0-11-4-5-6-6-12-3m50 11v4c3 6-1 12-7 11-5-2-7-1-9 1s-1 5 1 6c3 0 6 7 5 9l-3 1 1 1c3 2 3 3 3 9-1 7 0 8 2 8s2-1 2-4c0-2 0-3 2-5l2-3c-1-1 0-1 2-1s2-1 1-3c0-1-1-2-2-1v-1c1-1 0-2-1-5-2-8-1-13 4-10 6 4 9-7 3-14-3-4-4-5-6-3m-255 4l-5 6-4 6-2 4c-2 3-5 11-5 14 0 5 9 5 11 0 0-1 2-4 5-6 5-4 7-8 5-10v-7c3-6 3-7 2-8-3-2-6-1-7 1m107 2v5c2 4 1 5-2 7-6 3-6 5-1 9 4 4 6 5 6 3l-1-1c-3 0 0-7 5-11 3-4 4-5 2-8-3-6-8-7-9-4m182 3c4 7 3 9-4 12-4 1-4 1-7-2-2-2-3-3-4-2-4 2 0 8 4 7 2-1 3-1 5 2 4 4 8 5 8 2 0-2 4-4 7-4 1 1 2 1 2-2-1-4-1-4-2-3-2 0-2-1-1-3l-4-5a16 16 0 01-5-7l1 5m-68 6c0 2 0 3-3 3s-4 3-1 5l1 3 9 3 4 2c4 2 7 0 7-6l-1-3c0-2-3-4-5-4a10 10 0 01-9-4c-2-1-2 0-2 1M41 48c-2 0-5 1-7 3l-3 3 2 2 2 3c1 5 4 7 6 3h1c2 4 13 1 11-2l1-2c2-1 1-5-1-7-2-3-6-4-12-3m370 6l-2 4-3 4c0 3 6 13 8 13 1 0 3 3 3 7 0 5 6 10 10 8l2-5c0-4-3-8-9-12-1 0-2-2-2-6 0-6-1-9-3-12-2-2-4-3-4-1m81 4c-10 7-14 14-7 14l2 2c0 2 4 1 6-1 1-1 3-2 4-1 3 0 5-2 4-5l1-5c1-2 1-3-2-5l-2-3-6 4m187 7v6c0 4-3 6-6 3h-3l-2 1c-4-2-5 1-1 6 3 5 3 6-3 11-6 4-8 8-5 10 5 5 10 2 12-6 0-2 2-5 6-9l6-6v-7c0-7-2-12-4-9m-86 9c-1 1-1 2 1 4l2 8c1 7 0 7 6 7 5 1 7-2 7-8 0-3-6-8-8-8l-4-2c-2-2-3-2-4-1M371 88v5c2 5 2 22 0 24-1 2 0 7 2 7 3 1 6 4 6 7 1 3 5 7 6 6l2 3c3 14 13 12 12-2-1-6 0-7 1-8s2-2 2-5c1-4 4-5 6-2 3 2 9 3 9 1l-1-7-3-9c-2-3-2-4-1-5 1-2 0-3-1-3v1c1 2-11 0-13-2l-7-6-7-4c-1-2-12-3-13-1m254 3l-2 4 5 3c2 0 5 1 6 3 3 2 8 5 11 5l7 4 8 5c3 1 3 1 2 2-3 4-2 10 3 15l2 3-2 2-2 4-1 2c-2 2-1 4 3 11l3 9c0 2 3 3 7 3 1-1 4 0 5 1l3 1v-18c0-17 0-18-2-20l-2-4 2-4c3-2 3-9 0-9l-3-1-1-1h-4l-5 1c-3 2-6 1-9-2l-5-4v-4c1-1 1-1-1-1s-6-2-12-7c-5-4-12-5-16-3m-38 13l-1 4c0 4-2 8-5 8l-3 2-3 3c-3 1-4 4-2 4l4 1c7 4 19-8 14-14l-1-5c0-3-2-5-3-3m-234 17l-9 2c-8 0-8 0-11 4-2 4-2 4-1 6l3 3 10-8h4c6 3 9 2 9-2l-2-4c-1-2-1-2-3-1m236 33l-2 3c0 3-6 14-11 20l-3 5-2 4-2 6v4c-1 2 2 6 4 6l3 2 2 2 2-2c5-5 11-18 11-22 0-7 3-10 8-10 4 0 5 0 8-3s5-4 7-4h4l-3-3-1-2-1-1-2-2c-1-2-1-2-4-1-6 1-10 1-12-1s-4-2-6-1m-565 6h-1a11 11 0 00-4 12l3 1h4l8-1c6 0 9-1 9-2v-4l1-3a48 48 0 00-16-3h-4m126 10l-3 4c-1 1-1 2-2 1l-5-2c-8-3-14 0-15 7v4l4 3c6 1 7 1 5 5-1 3 1 9 4 10 2 0 6-5 6-8l1-5c0-3 12 0 12 4l3 6c7 7 19 6 14-1-3-5 0-8 5-7l2 1v2l1 3c0 2 5 7 9 8 1 0 4 1 5 3 5 4 9 4 11-1l2-5c1-2 1-3-5-3s-9-2-11-6l-2-2-2-2-2-6-3-6-1-4-2-2c0-2-1-3-3 0l-3 1c-2 0-7 4-7 6s-4-2-6-6c-1-3-9-4-12-2m474 9c-2 4-2 4 0 8a12 12 0 0012 8l6 3 3 4 5-5 4-6 2-3c4-2-2-6-10-8l-10-2c-7-4-10-4-12 1m-19 3c-5 2-7 4-6 7 1 7 8 9 13 4 3-2 3-2 1-5l-2-5c1-2-1-2-6-1M14 205c-2 1-4 4-7 10-3 5-3 15-1 16l2 2 1 2c2 1 3 3 2 3-1 3 4 3 6 0l4-3c1 0 3-8 2-11l-6-5c-5-3-5-4-1-6 7-3 6-11-2-8m15 2l-1 2c3-2 3 4 0 7-1 2-1 2 1 4l2 2 3-3 6-4c3-1 3-6-1-7l-3-2c-1-3-3-2-7 1m95 1c-2 1-2 1-2 6 0 6 2 9 6 7h6c4 0 6-2 5-5l-1-5c0-4-6-5-14-3m449 6l-5 7-6 6c-5 3-5 6 0 9s8 2 10-6l3-7 1-2 2 3 1 3 2-5v-5l-2-3c-1-4-2-4-6 0m-425 5c-6 3-6 6-2 8l5 3c5 5 16 5 21 0 3-3 2-7-2-7l-1-1c0-1-5-3-9-3l-3-1c-2-3-4-2-9 1m399 1l-3 1-2 4c-2 4-1 5 6 5s8 0 11-7c2-2-5-4-12-3m-501 3c-5 2-6 4-5 7 2 10 5 17 8 17l10-7 3-2 1-2-1-9-4-3c-2-2-9-3-12-1m87 16c-4 2-13 3-17 0-2-1-2-1-6 1s-3 2-1 4v2h-6c-1-1-4-1-7 1l-4 1-3 1-3 3c-2 2-1 2 6 2 6 0 6 0 7 3l-1 4-2 7c0 6 0 6-4 3l-4-3c-3 0-12 6-17 10-6 6-11 8-14 6s-3-3 1-7c3-4 3-7 0-7a13 13 0 00-12 1c-8 0-23 15-21 21 1 1 0 3-1 4-3 2-6 11-6 14l-2 5c-3 3-4 5-2 6l1 2c0 4 5 5 9 3l7-1h4v7c0 12 1 14 12 16l5 1c8 6 10 9 8 13l-1 1c0-3-3 0-5 5l-4 7c-2 2-1 12 2 15 5 5 14 2 13-4-1-4 0-7 2-6l1 3c0 3 2 4 7 4l5 1c0 2 0 1 9-4 9-7 13-7 14-3l1 2 1 2c0 6 4 5 12-2l6-5v-18c2 2 7-2 7-4l-3-5-2-3-3 2c-4 3-14 5-16 3-1-1-3-1-8 1-10 2-12 3-15 2-4 0-10-3-12-6l-3-2c-2 0-12-8-13-10l-1-5c1-4-1-9-4-11-3-3-5-9-4-14 0-5 0-5 4-5l4-2 4-3c4-2 4-2 8 0 8 4 17 2 20-5l4-3c2-1 7-9 7-11h2c6 1 11-5 12-16 0-9 1-10 5-6l7 4c9 2 19 8 21 13 1 3 3 4 4 4l2 1c0 3 3 4 4 3 2-1 6 0 7 3l5 1c4 0 5 0 7 3 1 1 2 2 4 1 4-1 4-1 4-8l2-12c2-6 2-10-2-10-3 0-8 8-6 10 1 2-4 3-7 2-7-3-10-9-6-16 2-3-6-11-11-11l-5-4c-5-5-8-5-13-2m520 2v3c1 1-5 5-6 4-3-1-8-1-10 1-1 2-4 3-6 4-13 5 7 8 22 4a36 36 0 0112-2c5-1 9 1 12 7 1 4 3 7 5 7l1-7c0-11-7-18-15-16h-7l-3-2c2 0-3-5-5-5v2m-197 14h-2l-3 5c1 4 10 11 12 8l3-1c3 0 2-4-2-9-2-3-5-4-8-3m-256 3l1 14c0 5 3 7 7 4l8-1c4 0 6 0 7-2 4-4 1-7-8-8-5 0-6-1-7-4l-6-6-2 3m-73 28c-4 1-11 5-14 8l-4 3-2 1-4 1c-1-1-2-1-5 1s-3 2-3 5c0 4-1 5-6 4-3 0-4 0-6 4-5 7-5 16-1 16l2 3c1 3 4 3 9 0l4-3 5-3a9 9 0 017-1l4 3c3 5 5 6 8 5h5c3 0 7-3 8-7 1-5 7-11 10-11 4 0 6 5 6 12a35 35 0 002 14l3 3c1 0 3 5 2 6h-8l-2-1-3 1v3c2 0 2 5 0 7-3 3-2 5 2 9 3 2 4 4 3 5l1 2 1 3 3 4c2 1 3 3 3 5l1 3 1 1c0 3 11 2 15-2a13 13 0 016-4c0-2-1-4-4-4-2 0-2 0-1-1a27 27 0 00-5-24c-3-6-2-8 3-8 7 0 16-6 16-10l3-8 3-6-4-4-6-4-5-5-5-3c-4 2-7 0-8-5-2-7-3-7-11-3s-10 3-13-5c-5-10-8-12-16-10m255 8l-6 7-9 17c-4 12-4 11 3 11 6 0 10-3 10-7l1-4 2-12c0-8 0-10 2-13 3-5 2-5-3 1m-173 6c-3 3-2 8 0 9l5 2c6 5 14 6 14 2 0-2 2-1 6 3 3 4 3 4 6 2l4-4 1-5-1-3c-2-2-2-2-8 1-8 4-11 3-11-1 0-2-3-6-5-6l-2-1c-2-3-8-2-9 1m218 17c-13 3-14 8-2 7 7 0 14 2 14 4s4 1 8-2c3-4 7-5 8-5l1-1c0-3-18-5-29-3m-147 20c-7 7-7 8-3 12l3 5 2 3c5 6 16 3 13-2v-6c0-4 0-5-3-9l-4-7c0-3-1-2-8 4m-42-2l-2 3c-2 0-3 4-1 6 1 2 3 2 10 3h8l1-3c0-5-3-8-7-9h-9m362 8l-5 3a7 7 0 01-5 2l-3 3c-5 4-3 6 6 5 8-1 12-4 13-8 1-5-1-7-6-5m-78 14l-2 3c0 2 6 9 8 9 3 0 6-4 6-6v-4c3-3-8-5-12-2M20 371l-3 5c-3 2-4 5-4 6l-1 4v2h2l4-2c3 0 5-2 5-5 0-1 0-2 2-2 2 1 2 0 2-3l-1-5h-6m454 1l-3 2c-5 0-10 6-8 11 2 3 3 3 12 2 9-2 10-2 10-9 0-6-7-10-11-6m-257 19l-5 3-3 3c-2 1-4 3-4 5-3 8-19 21-25 20l-7-4-5-3-3-1c-1-2-10-5-14-5s-7-2-6-3l-2-1-3-2c-1-2-4 0-10 7-5 4-5 9 0 7 5-1 13 0 16 4 3 2 8 13 8 16l1 2 1-1c0-2 7-9 10-9 1 0 5 4 4 5-4 7-6 14-3 18l2 5 6 9 6 7c4 5 15 7 25 4 4-1 7-3 14-10 11-10 10-9 7-19a14 14 0 010-7l5-6a50 50 0 0012-16l3-7 2-5c3-1-4-11-11-16-3-2-17-2-21 0m-192 4l-4 4c-5 3-6 14-1 15 4 1 11-7 10-10v-3l1-1h-1c-1 0-2-1-2-3 1-4-1-5-3-2m606 0c-2 0-3 1 0 4 1 2 2 3 1 5-1 3 0 3 3 6s4 4 2 4l-3 2c-5 5-4 15 2 17 4 2 4 4 0 7a6 6 0 01-5 3l2 2 2 1 1 1 3 1 4 2 6 2c9 5 14-3 8-12-3-4-3-5-2-8 2-9 1-17-3-26-6-12-9-13-21-11m-322 13c-3 4-14 9-17 9-5-2-6 0-6 7l2 8h11c2-2 4-2 19-4 12-1 14-6 6-13l-3-4c0-4-9-6-12-3m296 26l-3 3c-2 0-1 3 1 4l2 2c-1 1 5 3 7 2h6c7-1 8-3 3-6l-8-6c-6-4-6-4-8 1m-462 34l-7 2c-5 1-6 3-6 10 0 3 3 5 5 2 0-1 1-2 3-2 4 0 12-4 12-7 1-5-3-7-7-5m-132 7l-4 2-3 1c-6 1-3 21 3 21 2 0 6 4 6 6l1 2c2 1 5-1 5-6l5-12c8-14 1-22-13-14m342 12a10 10 0 01-6 4l-2 2-3 3-2 3c-4 2-2 3 3 3 6-1 11-5 11-9l1-3 1-1v-4c0-1-1-1-3 2m-247 3l-2 5c-2 2-4 8-2 8h17l3-4c3-3 3-4-1-4-2 0-3-1-3-3 0-3-1-4-4-2-2 2-2 2-5-1l-3-3v4m194 1c-3 0-3 1-7 6-2 3-2 4-2 7v3c-2 0-1 3 1 3 2 1 5-1 5-3l1-2 1-1 1-2 1-1 1-2c1-1 2-9 0-9l-2 1m213 4a35 35 0 000 16l27 1c27 0 29 0 19-4l-8-2-3-1c-3 0-5 0-4-1l-1-1-11-4h-1l-2-1-5-4-3-1c-5-4-7-3-8 2"
  fill-rule="evenodd" fill="#1effa5"></path>,
  <path fill-opacity="0.8" itemprop="path" d="M18 2c0 2 0 2-3 2C11 2 3 3 1 4L0 18l1 13 2-4 5-5c1-1 1-1-2-1-7 0-1-6 7-6l4-2c1-2 2-3 4-2 4 0 6-1 6-3l1-1c2 0 5 3 4 5l2 2h6c1-1 4-2 6-1 3 0 4-1 3-3h-2l-2-2c-1-2-2-3-4-3s-3-1-3-3c0-3-20-3-20 0m44 2l1 3 7 4c9 5 12 5 14 0 0-3 0-3-3-3-4 1-4 0-1-5l1-3H62v4m30 1c-1 7-1 9 1 9l4-3 2-3c2-3 9-5 9-3 0 1 5 3 6 2 2-1 1-6-1-6h-3l-10-1h-8v5m223-3s-1 2-3 2l-2 3h-4c-2 1-1 3 3 4 7 4 11 7 9 8v4c1 3-3 5-6 3h-11c-3 3 2 14 10 22l7 8 5 11c6 11 5 13-1 12-5 0-6-2-12-10a61 61 0 00-20-20c-10-9-16-10-13-2 2 4-2 6-7 5h-4l-3-2c-1-4-4-5-6-2s-8 5-13 5c-4 0-6 1-6 4a23 23 0 0016 16l-2 1c-2 0-2 1-2 3 0 10 3 13 10 11h6l3 1h1l-1 1a9 9 0 00-7 13c2 2 2 2 0 4l-1 4-2 3c-2 3-2 5 0 8 2 1 11 2 12 1l8-1c8 0 14 4 19 13l7 9c3 3 2 4-2 1-6-3-7-2-7 11 0 8 0 17 2 18l16-18-1-3c-1-1 0-2 8-2 10 0 9 0 8-4-5-17-2-24 13-31 11-6 12-6 15-2 3 3 7 4 7 1 0-2-13-21-16-23s-3-2-8-1c-6 1-7 1-9-3s-1-6 4-7l4-2 3-3c3-2 3-3 3-10l2-11c2-4 2-6 1-5l-1 2-4 1c-4 0-4 0-4-4-1-4 1-12 2-14l6 3c5 3 5 4 5 8v5c2 1 6-5 6-9 1-4 10-14 15-15 4-1 9 1 9 4 0 4 2 6 5 6 7 0 8 6 3 11-2 3-3 4-3 9-1 6 1 12 3 10 1-1 2 0 3 2 0 2 2 4 4 5 3 1 7 6 5 7h2c2 0 3 1 5 3 5 6 5 3 1-5-6-11-8-25-5-31l3-12 2-2c2-1 3-2 2-3h-3l-1 1h-2c-1-3 1-5 3-4 2 0 2-1 2-6l1-2h3v-3l-3-1c-4-2-8-2-11 2-1 2-2 2-2 1a3 3 0 00-5 0l1 1c-1 2 2 3 3 2h1l3 2c4 0 3 7-1 8-2 1-3 1-2 2l-2-1-2-4c0-2 0-3-4-11l-6-16h1l2-1c1-1-2-1-7-1s-8 0-7 1c2 0-1 4-3 4V1c1-1-11-1-27-1-25 0-28 0-29 2m324 0c4 2 11 9 11 10l2 3c3 0 9 6 9 8s5 8 7 8l6-8-1 1-1-1c-1-3 0-4 1-2h1l-3-4c-2-1-2-2-1-2l2-1-7-5-2-1c-4-5-10-8-19-8h-8l3 2M220 17c-3 4-2 9 0 12l2 5c1 3 7 9 9 9s2-9 0-12l-2-5c0-8-6-14-9-9m-79 0l-2 2c-4 1-6 5-4 8 1 2 1 2-1 4-1 2-1 2 1 2h3c0 2 4 1 7-1l3-3 1-3c2-2-1-7-4-8l-2-1a1 1 0 00-2 0m208 1h-7c-5 0-7 0-8 2-2 2 0 4 4 4 3 0 3 0 3 2s1 4 6 8l6 6v-5l2-5c4 0 7-9 4-10l-4-2h-6m-166 9c-2 1-2 3-2 6 0 7 0 8 4 12l6 7c6 8 9 4 5-6-2-4-2-5-1-6 2-2 0-5-3-7l-2-1c2 0-1-3-3-3v-2c0-2-1-3-4 0M43 27c-2 0-3 1-3 2 0 5-2 11-5 12-4 2-5 5-2 4h16l8 1 1 8c0 8 0 8-2 10-3 2-3 3 0 2 7 0 11-4 12-10 0-2 2-3 5-4 4-2 5-5 3-5l-8-8-1-1c-2 0-8-6-8-7 0-4-5-6-16-4m88 16l-2 4c0 2-1 3-10 4-10 1-12 1-10 3h15l15 1c-2 2 11 9 14 8s2-7-1-9-4-2-7-1-4 1-8-1l-6-2-1-1h7c3-5-1-9-6-6m290 1c-2 3-2 4 0 6l1 5 1 2v4l-1 4 1 4 3-2c5-5 6-6 6-11s-1-9-5-12c-3-3-4-3-6 0M210 60l-3 2c-1 0-2 3-1 5l5 1c12 0 14 1 14 6 0 3-1 4-4 5-7 4-7 4-6 5h16c4-2 5-5 3-9l-4-7c-2-5-4-7-6-4h-4c-2-2-2-2-3-1a3 3 0 01-5 0v-2c-1-2-1-2-2-1m160 3l-2 2-3 5c-4 3-4 3-9 3-7-1-8 1-4 11v2c1 2 3 3 5 2l6-2c3 0 5 0 7-2 2-3 12-3 16 0l3 1 6 4c4 4 5 5 7 2 1-1 1-3-1-5l-1-4c1-1 0-2-2-1-1 0-2 0-3-2l-2-2-3-3c-3-2-3-2-5-1-5 3-13-3-10-8 2-4-2-6-5-2m171 13l-3 2-3 1c-3 2 0 7 4 7l4 2c3 2 5 1 5-2l2-4c2-3 1-6-2-6-1 1-2 0-3-1 0-2-2-1-4 1m-105 2c-2 1-3 4-4 6-2 5-6 10-8 10s-2 1-1 5c2 3 0 4-4 4-3 0-4 2-3 5l3 6c0 4 3 8 5 8 3 0 6 2 6 5 0 5 9 12 13 9 4-2 4-6 0-9-5-5-2-12 6-12 5 0 6-2 6-7s3-7 7-5c2 1 9 0 10-2 0-1-9-10-12-11-2-1-5 0-8 4-7 7-17-5-12-15 1-4 0-4-4-1M4 97c-2 0-2 1-2 3v4c-2 1-2 4-2 17 0 14 1 18 2 10l3-8 3-9c0-3 4-8 7-8a3 3 0 000-6v-2c-1-2-5-2-11-1m665 18l-2 4-2 2 1 2 1 2v3a16 16 0 012 6c1 0 0 2-2 3l-1 4-1 3c-2 2-2 2-1 5 3 6 5 6 12 6l7-1v33c1 26 1 24 1-10l-1-43-3-3c-5-5-5-5 0-10l4-4h-9c0-2-5-4-6-2m-151 8c0 2 1 3 3 4l3 3 3 3 7 3 5 1c2 0 2 1 2 2-1 2-1 2 2 1l3-2-5-15c0-2-7-1-11 1-5 2-8 2-11-2-1-1-1-1-1 1m-113 7c-2 4-2 5-1 7s1 3-1 7c-2 5-2 6-1 10l2 5 5-1c16 0 21-10 6-12l-7-2c-1-1-1-9 1-13v-3c-2-3-2-2-4 2m-42 1c-16 6-18 7-22 6-4 0-9 5-8 11s3 6 3 2c0-3 1-4 4-4 7-2 11-2 11 0 1 2-3 10-6 11-5 2-6 4-4 6 1 1 2 2 1 3l1 2 1 3c1 3 4 7 7 7l3 2c4 3 8 3 10-2 1-3 0-6-3-6l-2-2c-1-1-2-2-3-1l-3-1c-2-1-4-2-6-1-4 0-4-3-1-5 4-3 13-3 13-1l3 7 2-2 3-5c1-2 2-4 1-5-3-3 3-10 7-8l1-2 2-5c1-1 1-3-2-7-3-7-5-7-13-3m-93 0l2 3 1 4c0 3 2 8 4 8l12-6-3-3-8-5c-6-3-8-4-8-1M60 145l-6 1-8 1-7 2c-2 0-3 0-5 2l-7 3c-5 0-5 0-4 2h5c1 1 5 2 15 2 4 0 5 1 5 3l3 4 2 3c0 1 9 7 11 7 0-1 2 0 3 2s3 3 5 3c2 1 3 4 3 8s-3 3-8 0c-3-2-3-2-5-1-3 1-3 1-4-1l-5-2c-3 0-10-3-11-4h-3c-4 1-7 6-5 7v2c-1 3-1 4 2 10 2 3 4 5 6 5l3 1c2 2 7 0 6-3l1-2c1-1 3 7 3 8a19 19 0 009 14c1 1 2 2 3 1l2 1-1 1-1 2c0 2 3 3 5 2v2l-1 6c-1 5-3 8-5 7v-3c0-2-4-1-8 2-4 2-1 7 5 8l20-4 14-7c4-2 6-4 7-8 1-5 9-4 16 2 4 5 10 5 14 2 5-4 7-6 6-7v-3c0-2-1-2-9-3-9 0-14-3-13-7v-5c-1-4-1-4 3-5 5-1 7-4 4-5l-3 1h-3l-1-3c-3-2-4-3-1-5 1-1 2-3 2-7a11 11 0 013-7v-5c1-3 1-3-3-4l-3-3c0-2-2-2-9-1h-9c-1-1-6 0-13 1-14 2-15 2-18-1s-3-5 1-10c2-4 3-6 1-6l-3-4c-2-3-2-3-6-2M1 183c0 36 0 38 4 29l2-6c2-1 1-11 0-13-2-2 0-4 3-3l6-1 3-1 3-3c2-5 0-8-3-4-3 3-6 1-6-3l1-7 2-6 1-3c-1-1 0-3 1-4 2-3 2-2 0-5-2-2-6-3-14-5l-3-1v36m383-26l-2 2-2 2c-3 0-3 4 0 5 3 2 6 3 6 1-1-2 0-2 1-2l3-1 2-1 2-1 1-1 1-1-10-5-2 2m226 12l-2 5-1 3c-2 2-1 3 2 2 3 0 4 0 6 2l2 2 3-2c6-6 5-11-1-12l-5-1c-1-1-2 0-4 1m-170-1l-1 3-1 5c0 3 0 3 2 3l3 1c0 2 5 4 8 5 5 0 5-2 3-8l-2-7c0-2-4-2-9 1-2 1-2 1-2-1l-1-2m-247 4c-4 1-5 3-2 7 2 3 3 4 2 6-1 6 8 12 13 7 2-2 2-13-1-13-3 1-3 0-2-3 0-5-5-7-10-4m191 4c-5 3-5 7-1 8l4 1h8l10-2c4 0 8-2 8-4l-5-1-12-1c-9-2-10-2-12-1m208 18l-2 4-2 6c-2 3-3 12-1 14 4 2-3 12-7 12-2-1-3 0-7 5-5 8-9 8-15 3-3-3-4-4-8-4s-9-2-12-4l-7-3-11-4c-3-2-4-2-7-1h-6l-12-1v1l-2 1-2 1-6 3-3 4h8l8 1 15 1c12 1 13 1 15 3l3 3c3 1 6 3 7 5l3 1 20 5c9 3 18 5 18 3l-2-3c-2-2-2-2-1-5s2-3 10-4l7-2 7 1c5 1 13-4 13-9l1-9c1-2-6-10-9-11l-5-2-3-3c-3-2-2-3 2-5 3-1 4-4 1-5l-2-3c-1-2-3-1-6 1m-500 2l-4 2c-2 0-3 1-2 6 0 4 5 9 8 9 3-1 3-1 1-14 0-7-1-7-3-3m446 1c-3 2-2 5 1 8 2 1 3 4 4 6 2 5 5 7 9 4 2 0 3-2 3-3 0-2-11-16-12-16l-2-1-3 2m-388 0l3 4 3 3-2 4c-2 3-3 3-6 3h-3l6 1c5 0 6 0 8 2 3 4 12 4 16 1 6-4 6-10-1-8h-5l-4-1c-5 1-6 0-8-3l-3-4-2-1a1 1 0 00-2-1m70 4c-3 1-4 3-6 6a12 12 0 01-7 7c-2 2-6 3-8 1s-6 7-4 11l1 4c-1 2 0 3 3 4 4 1 4 1 3 7v7c0 1 0 2 2 2h3l2-1c1-2 3 0 3 4 0 5 4 8 14 9 18 2 19 9 1 13l-6 4-5 2c-1 0-2 0-2 3l1 3 3 3 1 2 5 1c6 0 7 1 7 6-1 5 2 6 6 2s17-1 17 4c0 2-1 3-3 5-6 3-6 6 0 12l5 5 3-3 3-3-3-4c-3-5-2-7 5-13 5-6 10-9 11-7l2-1c1-1 1-2-3-6s-5-7-3-7v-1c-8-3-21-22-24-34-3-13-3-13-6-12l-10 8c-8 8-9 8-9 5 0-2 1-3 3-5 3-3 4-4 4-7 0-5 3-8 8-8s8-4 7-12c0-4-1-4-7-3-5 1-7 4-5 10 1 4 1 4-3 5-5 0-6-1-6-7l-1-8 1-8c2-5 2-6-3-5M92 223c0 2 0 2-3 1-6-1-8 1-8 6v4c-2 1 1 3 4 3l3-1 3-2c4-1 6-7 4-11-2-3-4-3-3 0m51 10c0 1 2 3 4 3 1 0 3 1 3 3l5 4c6 2 11 8 10 11-2 11-2 10 0 12 4 3 5 2 9-4 2-3 4-6 6-6 2-1 3-2 2-3v-9c2-9 2-10-4-7h-19c-5 0-6 0-9-2-4-3-7-4-7-2m221 1a1 1 0 11-2 0c0-2-3-1-3 1-1 2-1 2 1 2s3 0 2 2l-1 1c-2 0-3 3-3 4l-1 1-1-4c-1-4-3-5-5-3l-3 1c-4-1-5 0-5 19l-2 19 1 4c1-1 2 3 2 9 0 7 1 6 5-5 3-12 9-26 12-30 2-3 2-3 4-2 3 3 3 2 7-8 3-10 3-10 1-12h-4l-3-1c-2 0-3 0-2 2M24 246l-7 4c-5 1-5 4-2 7l2 4a10 10 0 01-7 8l-1 1-2-3c-2-2-3-3-5-3H0v25c0 25 0 25 2 25l5 2 3 2 2-4 3-6 6-12c1-1 1-2-1-6v-5c8-5 8-7 5-15l-2-5 3-3c6-6 13-3 12 5-1 4 1 6 4 3 1-1 9-4 13-4 5-1 8 3 8 9 0 5 2 6 7 1 6-6 12-10 17-11 7-1 8-8 1-8-4 0-12 3-15 5s-7 1-7-1c-1-2-9-5-12-4l-3-2-4-2-8-4-7-3-4-1-4 1m165 9l-2 22c-1 6 4 8 7 4 2-2 3-20 1-25-1-3-4-4-6-1m252 3h-2l-3 2-6 3c-8 3-15 8-15 11 0 5 4 7 5 2 1-3 6-9 8-9l5 3c5 3 7 3 12 0s6-4 3-8l-4-4h-3m-327 4l-1 9v7l-4 3c-3 1-5 3-5 4l-3 1c-4-1-11 5-10 7 1 3 6 1 8-2 1-4 5-4 5 0 1 3 4 4 6 1 5-5 9-8 12-8l5-2c3-3 7-4 7-2h2l3-3c3-2 1-5-2-5l-6-3c-1-2-13-8-15-8l-2 1m336 14c0 9 1 11 4 9l8-1 5 1-5-5-6-5-1-2-3-4-2-1v8m26 3c-3 1-5 5-3 9v4l-1 3-1 5c-1 4-1 5 2 7l2 5c1 2 1 4 6 7s5 3 5 7c-1 7-12 4-12-3l-1-4c-2 0-10 3-13 6l-3 3-4 3-9 6c-8 4-8 5 6 12 6 4 8 5 8 8 2 7-6 9-15 4-5-4-13-6-14-5l-2-1a174 174 0 00-35-7 145 145 0 0024 25s3-2 5-6c3-5 6-7 8-7s9 13 11 20c4 12 10 19 16 19 7-1 9-3 6-9-5-7-3-14 6-17 3-2 4-6 2-7-3-2-2-6 2-11l4-6h10c9 0 10 0 12-3 4-3 9-5 12-4a45 45 0 0020-19l1-1 5-6 9-8 1-2 1-1c3 0 5-4 5-7v-4l-4 2-8 6c-9 7-14 7-20 1h-5l-5 1-12-2-2 1c3 6 3 6 2 7v3l2 4c0 1 1 3 3 3 6 3 6 6 1 7-7 1-13-5-12-15l-2-9c-2-5-2-6 3-6h3c-1-2 0-2 1-3 7-2 4-8-2-6-7 2-11 0-12-6-1-4-2-4-7-3m-333 7c-1 2 2 11 4 13s7 0 9-4c1-3 1-3-2-6s-10-5-11-3m53 8c-3 3-3 5-5 16 0 6 3 9 5 4l3-4 1-3 1-3v-11c-1-1-3 0-5 1m185 2l-5 6-4 7-7 18c0 3 9 1 12-2s4-6 4-17l2-12c1-4 1-4-2 0m-324 7l-6 3c-2-1-2 0-3 4 0 5 1 8 5 12s4 4 3 10v6l6 3 7 4 3 2c3 2 4 1 6-3l3-4c2 0 2-1 0-7l-1-2-3-4c-2-4-2-4-5-3-5 0-9-2-9-5 0-4 10-8 12-4 1 1 1 1 4-2 5-5 3-9-6-11l-8-2c-4-1-3-2-8 3m376 1l-5 7-4 6 11-4 4-2c4-1 5-4 1-8-4-3-4-3-7 1m-149 1l-1 4-2 3-2 4c0 2-3 4-9 5-3 1-5 4-3 7 1 2 1 4-1 9 0 2 0 2 3 2s10-7 10-10c0-4 5-7 13-7 11 0 11 0 2-11-9-10-9-10-10-6m162 6c-4 3-1 4 10 5 10 0 11-1 9-4-2-4-15-4-19-1m-237 9l-4 3c-2 0-3 1-3 7 0 7 0 9-2 9l-1-1v-2c-1-1-6 0-6 2l-3 5-3 6c-1 2-1 2-3 2-6 0-9 4-6 10l1 8 3 7 3 5c0 3 3 6 9 7l8 4c3 1 3 1 5-1 6-5 10-6 23-5 5 0 8-3 5-7-2-3-1-6 2-7 2 0 3-1 3-4 0-5 1-6 5-7l9-2-4-5c-5-4-5-4-8-3-5 2-14-4-12-7v-2c-1-2 1-11 3-13 1-1 1-2-1-5-2-4-3-5-5-3h-2l-3-2-6-1c-4-1-5 0-7 2m-68 0l-2 3c0 4-5 11-9 13-4 3-4 3-4 6 1 7 5 9 12 4l6-3c3 1 4-4 3-10l-1-8c1-2 1-3-1-4-1-2-2-2-4-1M7 323c-6 2-7 5-7 16 0 9 0 9 2 7l3-4c1-2 2-2 6-2 6 1 7 2 6 5-4 7-6 9-7 9H8l-2-2c0-2-1-2-3-2s-3 0-3 8l1 11v2l-1 8v6l4-1c4 0 7-2 8-6 0-2 0-3-1-2l-2-2c-1-1 0-1 2-2l3-3c0-3 7-4 12-1s6 4 6 8 0 4 3 3c5-1 7-3 6-5-1-1-1-1 1-1 3 1 4 0 9-9 3-6 1-12-5-13-11-3-14-7-14-16l1-8-3 1-5 1c-6 3-14 0-14-5 0-2 0-2-4-1m624 2c-3 1-5 4-5 7 0 10-1 13-4 13l-2 1-4 1-5 2a24 24 0 01-19 11l-4 2c0 1 4 4 7 4s8 3 15 10c5 5 9 8 11 8l6 4 5 2c1-1 4 0 5 1a22 22 0 0012 2c1 0 2 2 2 5 2 6 4 9 7 9l1 1 1 1c2-1 4 0 4 2h-3c-2-2-3 0-2 8 0 14 1 19 2 21 3 4 2 13-2 16-3 2-3 2-8 0l-12-3-8-2c-1-1-3 0-4 4 0 3 0 3 1 2 0-2 1-2 1-1l2 1 2 1 1 1h1l1 2c3-1 18 5 19 7 0 1 1 2 3 2l5 2c2 2 6 3 18 6 2 0 2 0 2-5s0-5-4-6-7-4-6-6l-1-2v-3h-1v-6c1-2 3 0 3 4l2 3c3 0 5 1 5 3l1 1a44 44 0 00-3-29c0-2-4-9-7-12l-2-5-3-5c-4-4-3-8 2-7a25 25 0 017 1c1 2 1 1 3-2l3-4c2 0 1-10-1-11l-1-4c-1-6-2-7-8-7-5-1-5-1-6 2-2 4 0 10 4 10a3 3 0 011 2l-1 1c-2 6-11 5-14-1-1-2-4-3-4-1h-1v-2c2 0 5-5 5-8-1-3-7-9-9-9s-4-2-2-3-5-7-8-7c-2 0-3-1 0-3l1-3c0-2 2-4 6-7a103 103 0 0010-7c2 0 0-7-2-9-2-1-3-2-2-3l-1-2c-1-1-3-1-3 1s-5 1-7-1-4-2-8-1m-531 6c-2 2-3 13-1 15 1 1 1 1 4-2 3-4 4-4 5 1 1 4 3 6 3 3l4-4 4-3c0-2-2-4-4-4l-4-3-8-5-3 2m363 4c-6 3-2 12 4 12 5 0 7-7 3-11-2-3-4-3-7-1m-252 18c-2 0-1 3 2 6l7 6c3 3 4 4 6 3 8-1 7-11-1-13l-5-1c-2-1-7-2-9-1m58 1l-2 6c0 6 2 7 14 6 7 0 12-2 6-2l-6-2-4-3s-2-1-2-3c-2-3-4-4-6-2m-139 11v3c0 2 0 2-2 2-3 0-3 0-3 4s-1 5-7 11c-10 10-16 13-19 9-2-1-2-1-3 1-1 3-3 4-4 3-2-2-2 0-1 2 2 2 2 3 1 5-2 1-2 1-3-1l-3-3c-1-1-2-1-1-2h-1a8 8 0 01-8 0v2l2 1c0-1 2 0 3 2l6 2c4 0 7 4 7 9-1 8 1 11 6 8h6c0 2 6-2 8-5 1-2 4-2 3 1l1 1 2-2c2-9 10-18 18-22 10-5 12-8 8-11l-2-7c-1-5-2-6-4-7l-5-5c-1-2-5-3-5-1m235 8c-9 10-11 13-8 13s3 2 1 6l-10 17c-2 2-3 5-3 7 0 4-3 2-6-5-2-3-3-4-6-5-4-1-5-4 0-3h4c2 1 2 1 2-1s3-5 10-10c6-4 6-9-1-10l-6 1c-2 0-2 1-1 1h2l2 2-2 1-6-2c-3 0-6-1-8-3-6-3-14-2-14 3 0 6-5 6-7 0-1-5-7-5-7 1l-2 3c-4 3-4 3 1 5 6 2 9 4 9 6 0 3-11 0-20-6-4-2-15-3-15-1s-3 3-5 2c-3-1-12 4-13 6a69 69 0 01-10 26c-4 7-8 12-10 12-2-1-6 2-6 5 0 8 10 10 18 4 5-4 13-6 16-3 2 1 2 2 1 2v7a166 166 0 0043-1l1-2c0-2 0-4-2-6l-1-4c2 2 1-1-2-3-3-3-3-3-7-2-10 3-14 2-13-4 0-4 0-5-4-9s-4-6-1-7l1-2 2-4 2-2 4 3c5 4 6 5 10 2l5-3 4-4c4-6 10-3 20 9 7 8 7 9 5 15-3 6-2 7 4 14 8 7 8 7 12 4l18-2 17-1 1-2c-7-2-6-2-6-13v-10l4-4a18 18 0 017-5l2-3 4-5 2-4-4-9c-5-11-10-17-17-21l-5-3-6 7m-183 19l-3 1-4 2c-2 2-4 3-7 3-7 1-11 7-5 8l3 3c1 4 3 3 5-1s3-3 5 5c0 4 1 5 3 6 4 2 15-6 19-13v-7c-2 0-8-3-11-6-3-2-5-3-5-1m414 23l-3 7-1 5 2 3c3 2 7 3 9 1s3-13 2-16h-9m-464 6c-7 2-10 5-14 16-1 3-1 3-5 1-4-1-5-2-4-3l-1-1-1 2-2 1c-3 0-7 2-10 5-7 6-12 8-12 4h-2c-3 1-2 3 2 5 2 0 3 2 3 2l2 4c2 1 3 3 2 3-1 2 6 8 7 7v2c-1 2 0 3 1 3s2 1 2 5l2 6 1-1v-1l2-3 2-2 1-3c0-3 3-8 5-9h2l1 10c1 12 2 14 7 12 2-1 2-2 2-6-1-5 3-10 10-12s13-9 11-13c0-2-6-4-8-3h-2l-4-2-2-2h-3c-2 0-3-2 0-2l3-1 6-2c13-3 13-4 11-13-1-6-2-7-5-8-6-2-8-2-10-1m334 6l-7 2-4 2c-3 0-4 1-3 4 1 1 1 2 3 1h27a20 20 0 0016-3c3-1 4-2 3-3-2-2-28-4-35-3m-451 5l-2 1-2 2-2 2-1 5-1 7 3 2 9 3 5 2 7-2 8-3 5-1c5 0 9-3 9-7h-1c-3 4-14 4-19 0l-5-3-3-2c-2-4-13-9-10-6m52 24c-2 1-3 3-1 5 1 1-3 8-5 8s-4 2-4 4l5 5 5 3-2 2-2 2 3 2 7 3 11 7c5 5 15 5 13 1-1-4-1-4 2-5 3 0 2-8-2-12l-2-3-11-5c-4 2-10-6-10-13 0-3-3-5-7-4m91 4c-3 3-3 5-3 8 0 5-4 13-8 14-8 1-12 5-5 4 4 0 4 0 4 3l1 2 6 2c2 2 6 3 8 3l6 2c1 1 3 3 5 3 6 2 12 6 13 9 1 2 2 2 14 2h12l5-3 6-4 4-4 11-9 5-6c1-2 6-5 14-9v-2l1-2 1-1 2-3c1-4-1-6-5-7-6-1-8 0-11 2-4 4-12 3-11-2 0-2-1-3-3 0l-11 11-10 9-9-1c-17 0-23-3-23-8l-3-4-7-8c-5-6-5-6-9-1m224 11l-4 2-1 2c0 2 1 2 3 2s4 5 2 8c-1 1-2 1 10 1l10 1 4 4c4 4 5 8 3 9-2 2 0 5 5 11l39 1h39l-4-3-10-6-10-6c-3-2-9-5-21-8-7-2-15-7-15-8l-2 1-2 3a7 7 0 01-12 0l-7-6-4-6c-1-3-4-4-4-1l-3 4c-4 2-8 1-10-4-2-4-3-4-6-1m-369 6l-7 4c-5 1-6 3-4 6l2 4 2 1c2 0 3 1 3 3 1 2 1 3 3 2 3-1 3-1 3 1l1-1 5-6c5-8 6-12 3-14-3-3-7-2-11 0m354 5c-2 3-2 5 0 7v7l-2 3c-1 2-7 4-7 2s-3 0-7 4c-5 5-4 6 5 7 9 0 12-2 12-10 0-5 0-5 5-9 4-4 4-5 3-7-2-6-7-8-9-4m-225 19h-4l-4 1-4 1c-3 0-6 4-4 7 0 2 6 2 9 1l8-2c8-1 9-2 5-6-3-3-5-4-6-2"
  fill-rule="evenodd" fill="#006806"></path>
</svg>
