<svg version="1.1" xmlns="http://www.w3.org/2000/svg" xmlns:xlink="http://www.w3.org/1999/xlink" preserveAspectRatio="xMinYMin meet">
  <symbol viewBox="0 0 200 185" id="avatar">
    <path d="M 87.250 9.584 C 83.413 11.263, 82.854 12.386, 86.557 10.978 C 90.376 9.526, 88.616 11.645, 84.081 13.959 C 77.300 17.418, 71.634 23.924, 68.183 32.216 C 66.432 36.421, 65 40.556, 65 41.404 C 65 42.253, 63.714 46.222, 62.142 50.224 C 59.079 58.020, 57.298 64.461, 58.847 62.139 C 59.984 60.435, 61.109 66.349, 60.978 73.344 C 60.919 76.509, 61.254 77.961, 61.944 77.535 C 63.582 76.522, 63.188 79.599, 61.500 81 C 60.675 81.685, 60 82.726, 60 83.314 C 60 83.901, 60.661 83.509, 61.468 82.441 C 62.634 80.900, 62.943 80.819, 62.968 82.050 C 62.986 82.903, 62.442 84.158, 61.760 84.840 C 61.079 85.521, 59.931 88.424, 59.210 91.290 C 58.489 94.155, 57.636 97.552, 57.316 98.838 C 56.995 100.124, 55.668 102.241, 54.367 103.542 C 52.115 105.794, 50.974 109.752, 52.924 108.547 C 53.433 108.233, 54.055 108.769, 54.308 109.738 C 54.561 110.707, 54.865 109.925, 54.984 108 C 55.181 104.793, 55.261 104.709, 55.938 107 C 56.345 108.375, 57.087 109.425, 57.589 109.333 C 58.090 109.241, 58.453 110.816, 58.395 112.833 C 58.337 114.850, 57.887 116.539, 57.395 116.586 C 54.996 116.818, 53 118.401, 53 120.072 C 53 122.209, 49.522 124.414, 47.422 123.608 C 45.447 122.851, 45.642 124.016, 47.750 125.569 C 49.416 126.797, 49.415 127.019, 47.725 130.179 C 46.749 132.006, 44.658 134.240, 43.078 135.144 C 41.446 136.079, 39.643 138.346, 38.902 140.394 C 38.185 142.377, 37.278 144, 36.888 144 C 36.011 144, 36.274 141.952, 37.378 140.183 C 37.830 139.459, 37.930 138.597, 37.600 138.267 C 37.270 137.937, 37 138.218, 37 138.892 C 37 139.566, 36.635 139.893, 36.190 139.617 C 34.761 138.734, 25.603 146.401, 22.406 151.157 C 18.296 157.270, 14.154 175.673, 16.164 178.891 C 16.875 180.030, 18.130 181.220, 18.952 181.535 C 19.775 181.851, 35.309 182.367, 53.474 182.683 L 86.500 183.257 83.225 179.805 C 80.710 177.154, 79.375 174.204, 77.471 167.088 C 74.999 157.852, 74.985 156, 77.385 156 C 78.081 156, 79.694 154.890, 80.969 153.533 C 83.420 150.924, 83.412 151.272, 81.372 137 L 80.729 132.500 82.865 134.903 C 84.039 136.225, 85 138.137, 85 139.153 C 85 140.176, 85.711 141, 86.594 141 C 87.470 141, 88.423 141.900, 88.710 143 C 88.998 144.100, 89.775 145, 90.436 145 C 91.098 145, 92.618 146.125, 93.813 147.500 C 96.080 150.107, 98.436 150.721, 99.510 148.984 C 99.856 148.425, 100.526 148.207, 101 148.500 C 101.474 148.793, 102.092 148.660, 102.373 148.205 C 102.655 147.750, 104.681 147.469, 106.877 147.581 C 109.769 147.729, 111.056 147.333, 111.551 146.143 C 112.031 144.989, 112.573 145.840, 113.373 149 C 114.289 152.619, 114.892 153.434, 116.454 153.161 C 117.522 152.974, 118.993 153.638, 119.723 154.636 C 120.859 156.189, 121.347 156.264, 123.122 155.156 C 127.026 152.718, 126.130 154.792, 121.667 158.522 C 119.214 160.573, 116.651 163.432, 115.973 164.875 C 114.816 167.335, 112.004 179.992, 112.001 182.750 C 112 183.730, 120.851 184, 152.923 184 L 193.847 184 196.923 181.411 C 199.933 178.879, 200 178.628, 200 169.963 C 200 163.228, 199.396 159.233, 197.482 153.302 C 194.421 143.818, 193.479 142.152, 189 138.293 C 184.611 134.512, 182.093 133.231, 168.807 128.024 C 158.295 123.904, 153.216 120.773, 153.792 118.766 C 153.952 118.207, 153.283 116.865, 152.305 115.784 C 151.327 114.703, 149.994 112.622, 149.344 111.159 C 148.694 109.697, 148.126 109.089, 148.081 109.809 C 147.938 112.121, 146 109.971, 146 107.500 C 146 106.190, 145.543 104.835, 144.984 104.490 C 144.425 104.144, 144.194 103.495, 144.471 103.046 C 144.748 102.598, 144.338 100.492, 143.558 98.365 C 142.779 96.239, 142.109 95.063, 142.070 95.750 C 142.032 96.438, 141.491 97, 140.869 97 C 140.135 97, 139.938 95.771, 140.306 93.500 C 140.619 91.575, 140.453 90, 139.937 90 C 139.422 90, 139 88.875, 139 87.500 C 139 86.125, 139.486 85, 140.079 85 C 140.759 85, 140.915 83.887, 140.500 82 C 140.093 80.147, 140.244 79, 140.896 79 C 141.533 79, 141.729 77.715, 141.391 75.750 C 140.965 73.275, 141.086 72.858, 141.900 74 C 142.763 75.211, 143.009 74.921, 143.172 72.500 C 143.640 65.589, 143.531 62.172, 142.856 62.589 C 141.807 63.237, 141.105 61.732, 140.418 57.367 C 139.656 52.526, 139.026 51.778, 138.916 55.583 C 138.836 58.348, 138.725 58.268, 136.791 54.050 C 135.668 51.603, 134.700 48.379, 134.639 46.887 C 134.578 45.395, 134.252 44.344, 133.915 44.552 C 133.578 44.761, 133.266 43.650, 133.221 42.083 C 133.132 38.934, 131.174 31, 130.486 31 C 130.246 31, 130.289 32.462, 130.582 34.250 C 130.932 36.386, 130.451 35.668, 129.180 32.158 C 128.116 29.220, 126.483 26.070, 125.552 25.158 C 123.963 23.603, 123.937 23.687, 125.124 26.500 C 125.821 28.150, 126.763 30.008, 127.218 30.630 C 127.673 31.251, 127.739 34.372, 127.363 37.565 C 126.830 42.107, 126.505 42.895, 125.873 41.185 C 124.723 38.076, 124.003 38.476, 124.857 41.750 C 125.252 43.263, 125.553 46.240, 125.526 48.367 C 125.478 52.120, 125.363 52.244, 121.608 52.581 C 117.460 52.953, 115.323 54, 118.711 54 C 120.413 54, 124.056 56.733, 122.872 57.122 C 120.958 57.752, 113.165 57.542, 113.579 56.873 C 113.875 56.393, 113.218 56, 112.118 56 C 111.018 56, 109.840 56.450, 109.500 57 C 109.160 57.550, 108.403 58, 107.819 58 C 105.419 58, 109.400 55.016, 112.600 54.415 C 117.104 53.570, 117.160 51, 112.674 51 C 108.050 51, 104.964 54.486, 104.703 60.007 C 104.588 62.435, 104.984 64.457, 105.619 64.682 C 106.317 64.930, 106.565 64.177, 106.279 62.680 C 105.933 60.871, 106.335 60.146, 107.912 59.733 C 109.256 59.382, 109.765 59.571, 109.337 60.263 C 108.911 60.953, 109.296 61.100, 110.410 60.673 C 111.420 60.285, 112.777 60.634, 113.647 61.504 C 114.587 62.444, 116.048 62.775, 117.572 62.392 C 119.049 62.022, 120 62.217, 120 62.892 C 120 63.501, 118.537 64.007, 116.750 64.015 C 114.284 64.027, 113.862 64.264, 115 65 C 116.984 66.282, 122.641 66.263, 125.066 64.965 C 126.870 63.999, 127 64.302, 127 69.465 C 127 72.509, 126.550 75, 126 75 C 125.450 75, 125 74.550, 125 74 C 125 73.450, 124.325 73, 123.500 73 C 122.675 73, 122 73.450, 122 74 C 122 74.550, 122.398 75, 122.883 75 C 123.369 75, 123.982 76.125, 124.245 77.500 C 124.508 78.875, 124.448 80.001, 124.111 80.002 C 123.775 80.004, 123.452 81.363, 123.392 83.023 C 123.273 86.389, 120.146 94, 118.883 94 C 118.436 94, 117.581 93.086, 116.983 91.968 C 116.385 90.851, 115.357 90.042, 114.698 90.171 C 114.039 90.301, 112.060 89.640, 110.300 88.703 C 106.492 86.677, 103.685 86.402, 106 88.282 C 106.825 88.952, 108.171 90.352, 108.992 91.394 C 110.362 93.133, 110.320 93.239, 108.492 92.691 C 107.396 92.363, 103.683 92.441, 100.241 92.865 C 94.463 93.576, 94.025 93.495, 94.558 91.818 C 95.179 89.860, 94.728 89.698, 91.250 90.630 C 90.013 90.962, 89 91.748, 89 92.376 C 89 93.005, 88.069 94.100, 86.931 94.811 C 85.064 95.977, 84.489 95.694, 81.019 91.898 C 77.096 87.606, 76.919 86.704, 78.453 78.810 C 78.669 77.699, 77.813 76.782, 75.955 76.134 C 72.197 74.824, 69.916 70.290, 70.673 65.630 C 71.337 61.536, 71.993 61.158, 73.699 63.889 C 74.450 65.092, 76.344 65.918, 78.913 66.163 C 81.531 66.413, 82.606 66.206, 81.974 65.574 C 80.211 63.811, 80.954 63.041, 83.856 63.621 C 85.862 64.022, 86.883 63.747, 87.286 62.697 C 87.686 61.655, 89.097 61.264, 91.930 61.409 C 95.266 61.579, 96 61.291, 96 59.808 C 96 55.427, 88.925 51.844, 84.843 54.158 L 82.500 55.486 85.250 55.809 C 90.298 56.403, 87.750 59, 82.118 59 C 80.623 59, 78.860 59.540, 78.200 60.200 C 77.267 61.133, 77 60.911, 77 59.200 C 77 57.990, 77.450 57, 78 57 C 78.550 57, 79 56.550, 79 56 C 79 53.926, 75.392 55.109, 73.662 57.750 C 71.872 60.484, 71.864 60.451, 72.426 51.883 C 72.737 47.143, 73.668 41.645, 74.496 39.665 C 76.243 35.482, 76.354 34.663, 75.064 35.460 C 74.483 35.819, 74.483 34.802, 75.064 32.776 C 75.579 30.981, 76 29.412, 76 29.288 C 76 29.164, 76.675 29.322, 77.500 29.638 C 78.325 29.955, 79 29.709, 79 29.092 C 79 28.475, 80.463 27.056, 82.250 25.937 C 84.928 24.262, 86.557 24.003, 91.500 24.467 C 97.379 25.019, 101.435 24.005, 99.107 22.566 C 98.498 22.190, 98 21.164, 98 20.286 C 98 18.860, 98.199 18.870, 99.872 20.384 C 100.902 21.316, 103.714 22.229, 106.122 22.413 C 114.086 23.022, 117.432 25.155, 121.038 31.921 C 122.831 35.284, 124.458 37.876, 124.653 37.680 C 125.086 37.247, 123.310 31.604, 121.450 27.500 C 120.565 25.548, 120.452 24.374, 121.127 24.140 C 121.696 23.941, 120.921 22.484, 119.404 20.900 C 116.483 17.851, 116.723 15.762, 119.726 18.090 C 121.276 19.292, 121.264 19.189, 119.632 17.274 C 116.841 13.999, 108.732 11.543, 105.802 13.087 C 104.536 13.754, 103.169 14.795, 102.765 15.400 C 102.252 16.168, 102.026 16.133, 102.015 15.281 C 102.006 14.557, 101.325 14.322, 100.336 14.701 C 99.300 15.099, 98.918 14.942, 99.325 14.284 C 99.684 13.703, 99.082 12.993, 97.987 12.707 C 96.737 12.380, 96.241 12.582, 96.654 13.249 C 97.091 13.957, 96.291 14.108, 94.261 13.702 C 91.593 13.169, 91.275 13.337, 91.722 15.046 C 92.100 16.491, 91.726 17, 90.283 17 C 87.570 17, 86.901 16.054, 88.070 13.869 C 88.719 12.657, 90.167 12, 92.190 12 C 95.247 12, 95.273 11.959, 93.500 10 C 91.418 7.699, 91.542 7.707, 87.250 9.584 M 77.250 20.989 C 75.463 22.079, 74 23.458, 74 24.053 C 74 24.649, 75.237 24.274, 76.750 23.221 C 78.263 22.167, 80.400 20.800, 81.500 20.183 C 82.901 19.397, 83.051 19.053, 82 19.034 C 81.175 19.019, 79.037 19.899, 77.250 20.989 M 133.037 32.500 C 133.027 33.931, 135.500 40.834, 136.315 41.648 C 137.607 42.941, 136.999 40.216, 135.022 35.859 C 133.934 33.462, 133.041 31.950, 133.037 32.500 M 128.138 49.500 C 128.153 62.077, 129.059 67.249, 131.306 67.576 C 132.822 67.797, 132.908 67.594, 131.838 66.304 C 131.036 65.338, 130.489 61.195, 130.364 55.135 C 130.091 41.962, 128.123 36.980, 128.138 49.500 M 90.083 57.283 C 90.313 57.439, 91.400 58.226, 92.500 59.033 C 94.350 60.390, 94.397 60.369, 93.128 58.750 C 92.373 57.788, 91.285 57, 90.711 57 C 90.137 57, 89.854 57.127, 90.083 57.283 M 57.158 66 C 57.158 67.375, 57.385 67.938, 57.662 67.250 C 57.940 66.563, 57.940 65.438, 57.662 64.750 C 57.385 64.063, 57.158 64.625, 57.158 66 M 103.079 67.583 C 103.127 68.748, 103.364 68.985, 103.683 68.188 C 103.972 67.466, 103.936 66.603, 103.604 66.271 C 103.272 65.939, 103.036 66.529, 103.079 67.583 M 130.195 71.500 C 130.215 73.150, 130.439 73.704, 130.693 72.731 C 130.947 71.758, 130.930 70.408, 130.656 69.731 C 130.382 69.054, 130.175 69.850, 130.195 71.500 M 56.079 71.583 C 56.127 72.748, 56.364 72.985, 56.683 72.188 C 56.972 71.466, 56.936 70.603, 56.604 70.271 C 56.272 69.939, 56.036 70.529, 56.079 71.583 M 105.040 74.095 C 105.015 76.355, 104.273 78.348, 103.042 79.462 C 101.166 81.159, 100.947 81.153, 97.792 79.298 C 95.287 77.826, 94.570 76.781, 94.795 74.931 C 95.029 73, 94.878 72.808, 94.060 74 C 92.378 76.451, 92.781 83.119, 94.696 84.520 C 96.564 85.886, 104.273 85.459, 107.335 83.821 C 108.843 83.014, 109.062 82.146, 108.507 79.184 C 108.131 77.180, 107.206 74.407, 106.452 73.020 L 105.080 70.500 105.040 74.095 M 58.564 76.293 C 58.940 77.279, 59.499 77.834, 59.807 77.526 C 60.115 77.219, 59.808 76.412, 59.124 75.733 C 58.136 74.753, 58.022 74.868, 58.564 76.293 M 55 84 C 55 86.933, 55.278 89.055, 55.619 88.715 C 56.382 87.951, 56.334 80.001, 55.561 79.228 C 55.253 78.919, 55 81.067, 55 84 M 131.158 82 C 131.158 83.375, 131.385 83.938, 131.662 83.250 C 131.940 82.563, 131.940 81.438, 131.662 80.750 C 131.385 80.063, 131.158 80.625, 131.158 82 M 138.079 81.583 C 138.127 82.748, 138.364 82.985, 138.683 82.188 C 138.972 81.466, 138.936 80.603, 138.604 80.271 C 138.272 79.939, 138.036 80.529, 138.079 81.583 M 95 88 C 95 88.550, 95.450 89, 96 89 C 96.550 89, 97 88.550, 97 88 C 97 87.450, 96.550 87, 96 87 C 95.450 87, 95 87.450, 95 88 M 101.610 95.737 C 97.775 96.132, 94.145 98.479, 95.412 99.745 C 96.931 101.265, 110 99.608, 110 97.896 C 110 97.338, 109.597 97.131, 109.105 97.435 C 108.612 97.740, 107.952 97.316, 107.636 96.494 C 107.321 95.672, 106.711 95.076, 106.281 95.168 C 105.852 95.261, 103.749 95.516, 101.610 95.737 M 141.158 100 C 141.158 101.375, 141.385 101.938, 141.662 101.250 C 141.940 100.563, 141.940 99.438, 141.662 98.750 C 141.385 98.063, 141.158 98.625, 141.158 100 M 140.619 103.807 C 139.825 105.091, 140.155 113, 141.002 113 C 141.424 113, 141.735 110.750, 141.693 108 C 141.616 102.887, 141.491 102.397, 140.619 103.807 M 98.337 106.250 C 96.963 108.450, 97.129 109.999, 98.837 110.913 C 101.238 112.198, 101.641 112.177, 105.505 110.562 C 107.427 109.759, 109 109.359, 109 109.673 C 109 109.988, 109.716 109.651, 110.590 108.925 C 112.036 107.725, 112.019 107.487, 110.399 106.303 C 108.115 104.632, 99.372 104.594, 98.337 106.250 M 63.610 108.500 C 64.433 112.177, 65.005 112.975, 64.985 110.417 C 64.976 109.362, 64.513 107.825, 63.954 107 C 63.213 105.905, 63.120 106.309, 63.610 108.500 M 144.195 116.500 C 144.215 118.150, 144.439 118.704, 144.693 117.731 C 144.947 116.758, 144.930 115.408, 144.656 114.731 C 144.382 114.054, 144.175 114.850, 144.195 116.500 M 150 116.059 C 150 116.641, 149.576 116.856, 149.058 116.536 C 148.530 116.209, 148.260 117.171, 148.444 118.727 C 148.624 120.252, 148.823 122.089, 148.886 122.809 C 148.949 123.529, 149.412 123.864, 149.915 123.553 C 150.418 123.242, 151.098 123.553, 151.426 124.244 C 151.754 124.935, 151.753 124.375, 151.425 123 C 151.097 121.625, 150.874 119.263, 150.930 117.750 C 150.986 116.237, 150.800 115, 150.516 115 C 150.232 115, 150 115.477, 150 116.059 M 144.829 129 C 145.038 131.200, 145.388 133, 145.605 133 C 145.822 133, 146 131.200, 146 129 C 146 126.800, 145.651 125, 145.224 125 C 144.797 125, 144.619 126.800, 144.829 129 M 151.570 126.887 C 151.269 127.374, 151.657 128.300, 152.432 128.944 C 153.585 129.900, 153.744 129.738, 153.305 128.057 C 152.711 125.786, 152.386 125.567, 151.570 126.887 M 60.158 135 C 60.158 136.375, 60.385 136.938, 60.662 136.250 C 60.940 135.563, 60.940 134.438, 60.662 133.750 C 60.385 133.063, 60.158 133.625, 60.158 135 M 155.079 136.583 C 155.127 137.748, 155.364 137.985, 155.683 137.188 C 155.972 136.466, 155.936 135.603, 155.604 135.271 C 155.272 134.939, 155.036 135.529, 155.079 136.583 M 56.114 142.929 C 55.255 143.461, 55.152 143.976, 55.824 144.391 C 56.395 144.744, 57.163 144.545, 57.531 143.950 C 58.449 142.464, 57.719 141.938, 56.114 142.929 M 80.029 149.254 C 78.601 152.158, 79.289 154.111, 81.101 152.299 C 81.689 151.711, 81.992 150.166, 81.776 148.865 L 81.383 146.500 80.029 149.254 " fill-rule="evenodd">
    </path>
  </symbol>
  <g fill="hsla(136, 0%, 0%, 0.9)" stroke="hsla(136, 0%, 0%, 0.2)" >
    <use xlink:href="#avatar" height="100vh"/>
  </g>

</svg>
