<?xml version="1.0" standalone="no"?>
<!DOCTYPE svg PUBLIC "-//W3C//DTD SVG 20010904//EN"
 "http://www.w3.org/TR/2001/REC-SVG-20010904/DTD/svg10.dtd">
<svg version="1.0" xmlns="http://www.w3.org/2000/svg"
 width="1052.000000pt" height="1052.000000pt" viewBox="0 0 1052.000000 1052.000000"
 preserveAspectRatio="xMidYMid meet">
<metadata>
Created by potrace 1.11, written by Peter Selinger 2001-2013
</metadata>
<g transform="translate(0.000000,1052.000000) scale(0.100000,-0.100000)"
fill="#000000" stroke="none">
<path d="M4814 9991 c-91 -60 -153 -116 -141 -127 3 -4 36 8 73 25 67 31 94
38 94 23 0 -20 -62 -92 -126 -147 -224 -192 -335 -338 -464 -608 -116 -245
-259 -741 -295 -1022 -8 -66 -43 -223 -120 -545 -70 -292 -125 -555 -125 -598
1 -26 1 -26 16 -7 15 19 16 19 29 2 31 -42 54 -295 55 -592 1 -110 4 -218 8
-240 7 -37 10 -40 36 -37 l29 3 -5 -65 c-4 -46 -14 -79 -33 -113 -62 -107 -79
-153 -61 -163 5 -3 25 23 44 58 18 34 38 62 44 62 21 0 2 -132 -30 -200 -42
-91 -75 -233 -127 -545 -24 -148 -52 -295 -61 -325 -9 -30 -47 -114 -84 -186
-46 -88 -73 -156 -85 -207 -18 -82 -15 -101 16 -92 26 8 46 -9 54 -46 12 -55
23 -19 30 101 8 122 18 144 30 67 12 -71 36 -131 63 -160 27 -28 27 -30 27
-180 0 -211 -3 -221 -71 -253 -70 -33 -110 -90 -119 -173 -9 -73 -37 -131 -85
-175 -47 -42 -79 -52 -121 -37 -18 6 -36 11 -40 11 -23 0 -4 -49 41 -110 58
-78 61 -102 30 -203 -43 -138 -105 -251 -191 -345 -73 -80 -118 -170 -170
-340 -49 -161 -62 -188 -80 -162 -13 20 -4 100 21 178 21 68 27 142 10 142 -5
0 -10 -11 -10 -24 0 -41 -11 -56 -40 -56 -95 0 -421 -443 -530 -720 -116 -294
-256 -1202 -221 -1435 15 -101 65 -195 121 -225 37 -20 617 -48 1405 -70 204
-6 531 -15 729 -20 197 -6 361 -9 363 -6 3 2 -23 48 -57 102 -125 199 -168
311 -224 583 -38 183 -89 484 -107 631 -18 149 1 230 52 230 38 0 118 92 180
210 23 43 24 54 23 210 -1 137 -50 764 -69 873 -8 47 8 30 62 -66 52 -94 88
-195 98 -279 6 -49 36 -98 60 -98 26 0 55 -44 76 -113 20 -67 38 -92 92 -129
14 -10 56 -63 93 -118 64 -96 102 -135 134 -140 37 -6 51 3 76 41 23 38 28 40
58 35 25 -5 37 -2 51 14 26 28 77 40 178 40 107 0 138 13 161 70 9 22 18 40
21 40 11 0 28 -60 56 -203 15 -82 36 -165 46 -185 17 -34 22 -37 70 -42 61 -6
84 -24 125 -98 38 -66 55 -67 133 -2 64 54 75 59 75 35 0 -29 -48 -109 -148
-249 -114 -159 -173 -259 -202 -346 -40 -120 -155 -891 -148 -992 3 -40 6 -44
40 -55 95 -31 270 -35 1633 -39 l1370 -4 80 105 c44 58 90 127 102 153 32 68
43 192 43 482 0 457 -28 704 -136 1185 -80 356 -132 481 -282 677 -142 187
-255 277 -647 518 -328 202 -464 299 -561 402 -66 70 -90 118 -97 195 -4 48
-18 88 -65 185 -33 67 -74 167 -92 220 -32 98 -50 129 -50 86 0 -13 -4 -29 -9
-37 -8 -12 -12 -12 -25 -2 -23 19 -36 73 -46 190 -7 78 -15 115 -33 150 -20
37 -25 62 -25 121 0 109 -59 380 -82 380 -6 0 -10 -8 -10 -18 0 -27 -32 -53
-50 -42 -13 8 -14 39 -12 189 3 172 2 181 -19 210 -43 59 -34 257 13 282 20
11 20 17 13 164 -7 150 -7 153 16 173 22 21 22 25 16 167 -4 80 -3 145 1 145
4 0 15 -15 25 -32 36 -63 41 -19 42 327 0 264 -2 320 -14 317 -39 -8 -58 59
-91 323 -11 94 -24 181 -27 193 -11 47 -23 -2 -23 -98 -1 -166 -16 -150 -84
86 -40 141 -72 304 -81 424 -5 58 -12 91 -25 107 -14 18 -20 49 -25 131 -13
222 -75 614 -98 629 -6 4 -8 -35 -4 -118 l6 -124 -19 60 c-10 33 -34 119 -53
190 -20 72 -49 169 -67 216 -34 95 -83 180 -88 155 -4 -19 39 -171 81 -286 30
-83 31 -90 31 -255 0 -168 -18 -397 -34 -438 -8 -22 -8 -22 -19 3 -6 14 -18
51 -26 83 -9 31 -21 57 -26 57 -12 0 -11 -5 6 -130 21 -146 31 -493 16 -548
-15 -54 -37 -67 -141 -85 -148 -25 -206 -65 -113 -78 48 -6 103 -45 144 -102
44 -60 40 -73 -28 -87 -68 -14 -248 -9 -280 8 -12 7 -23 22 -25 34 -2 19 -10
24 -47 26 -42 3 -46 1 -95 -52 -48 -53 -78 -68 -90 -47 -11 18 14 62 60 107
29 27 82 62 139 89 98 47 125 72 125 117 0 80 -143 101 -241 35 -69 -46 -128
-164 -156 -312 -19 -98 -15 -367 6 -404 24 -44 36 -9 33 99 -2 59 1 107 8 119
13 25 60 51 91 51 19 0 21 -4 16 -36 -6 -34 -5 -36 16 -30 76 22 81 21 142
-37 63 -62 76 -66 151 -53 64 11 84 4 84 -28 0 -36 -38 -57 -121 -66 -38 -4
-73 -11 -77 -14 -11 -12 14 -40 56 -64 86 -48 242 -37 331 24 43 29 58 30 66
4 11 -33 7 -451 -5 -509 -5 -30 -13 -57 -16 -60 -11 -12 -39 18 -45 49 -12 57
-54 75 -89 40 -28 -28 -25 -64 6 -89 49 -38 82 -229 51 -294 -10 -21 -20 -84
-26 -163 -6 -71 -20 -174 -31 -229 -41 -203 -107 -395 -136 -395 -18 0 -48 42
-69 97 -25 67 -61 113 -89 113 -30 0 -93 34 -188 103 -82 59 -143 86 -159 70
-6 -6 15 -46 53 -105 65 -98 125 -214 116 -223 -3 -3 -24 2 -48 10 -57 20
-136 18 -320 -9 -85 -12 -166 -19 -180 -16 -24 7 -25 9 -22 87 4 94 0 99 -75
74 -90 -31 -120 -62 -137 -143 -7 -31 -60 -103 -97 -131 -26 -19 -28 -19 -57
-2 -38 23 -127 158 -197 300 -79 160 -86 251 -44 581 13 106 4 134 -58 181
-114 88 -148 133 -188 252 -36 106 -49 241 -35 373 14 130 30 193 50 193 8 0
28 -28 45 -62 52 -106 103 -144 216 -162 66 -11 109 -6 109 12 0 6 -9 30 -21
54 -35 73 -13 93 89 75 80 -13 105 -5 125 45 28 70 44 77 179 83 147 6 152 10
145 113 -13 199 -203 376 -351 327 -32 -10 -126 -81 -134 -100 -1 -4 29 -12
67 -19 104 -19 140 -56 111 -112 -18 -32 -83 -58 -185 -73 -99 -15 -107 -18
-162 -70 -18 -16 -36 -26 -40 -22 -10 10 -10 110 0 159 6 26 15 41 31 47 28
10 40 49 26 84 -7 20 -16 26 -40 26 -43 0 -100 -61 -151 -161 -29 -58 -44 -78
-51 -71 -8 8 -8 92 1 294 19 434 43 654 101 889 32 133 39 192 18 171 -21 -21
-28 -13 -28 35 0 41 34 264 45 300 3 9 14 8 44 -4 43 -17 71 -8 71 24 0 50
119 194 199 241 51 30 60 30 351 21 122 -4 139 -2 175 17 50 26 54 45 21 93
-37 54 -55 181 -26 181 5 0 26 -22 49 -48 54 -65 137 -105 271 -130 294 -56
373 -141 539 -577 105 -277 104 -275 114 -275 17 0 -39 282 -108 539 -36 136
-43 205 -24 217 19 11 0 75 -49 164 -69 125 -88 176 -83 228 2 22 21 13 73
-35 l51 -48 -29 55 c-38 73 -154 187 -229 226 -189 99 -286 85 -386 -55 -22
-31 -43 -56 -47 -56 -4 0 -9 14 -12 30 -6 32 -25 37 -79 20 -22 -8 -23 -6 -19
26 9 55 -23 98 -73 99 -24 0 -27 -4 -25 -32 1 -31 -1 -33 -34 -32 -19 0 -62 5
-94 9 l-59 8 7 -81 c6 -75 5 -83 -15 -103 -17 -17 -29 -20 -61 -16 -22 3 -48
13 -59 23 -29 26 -26 107 7 171 32 65 83 93 167 93 73 0 79 12 37 87 -50 89
-78 123 -104 123 -12 0 -63 -27 -112 -59z m-199 -561 c8 -13 -257 -271 -291
-284 -109 -43 82 205 206 267 58 29 75 33 85 17z m1739 -1390 c16 -113 27
-292 36 -625 12 -422 28 -598 60 -674 18 -40 20 -55 11 -64 -18 -18 -62 11
-83 53 -49 99 -71 423 -66 960 3 367 8 446 28 409 4 -8 10 -34 14 -59z m-1395
-795 c35 -40 75 -114 67 -123 -3 -3 -7 -3 -9 -1 -1 2 -31 35 -65 72 -34 37
-62 72 -62 77 0 22 40 8 69 -25z m1450 -771 c1 -28 -2 -66 -6 -85 -5 -28 -7
-30 -14 -14 -10 25 -11 148 -2 171 6 16 7 16 14 -2 4 -10 8 -42 8 -70z m296
-543 c7 -33 -3 -98 -16 -107 -5 -3 -9 27 -9 65 0 72 13 94 25 42z m-261 -36
c8 -49 -1 -115 -15 -115 -5 0 -9 36 -9 80 0 87 14 107 24 35z m-904 -851 c27
-60 32 -65 57 -62 23 2 29 -1 31 -20 4 -29 -11 -48 -61 -74 -119 -60 -401 -94
-460 -55 -63 41 -5 147 113 209 39 20 219 64 273 67 13 1 26 -18 47 -65z
m1279 -209 c1 -50 -8 -87 -20 -79 -11 6 -12 148 -2 158 10 10 21 -29 22 -79z
m-15 -216 c8 -42 7 -424 -2 -472 -9 -49 -24 -52 -34 -7 -14 59 -13 430 1 473
15 45 26 47 35 6z m-1244 -95 c39 -11 66 -28 93 -57 47 -51 48 -80 2 -140 -29
-39 -39 -45 -69 -44 -24 1 -60 -15 -130 -57 -123 -73 -146 -77 -209 -36 -58
39 -81 79 -81 145 0 60 27 146 54 170 49 45 223 55 340 19z m-1627 -130 c20
-68 33 -194 22 -221 -6 -17 -8 -16 -16 5 -8 20 -28 133 -43 240 -10 65 14 49
37 -24z m2996 -484 c-1 -36 -4 -76 -8 -90 -7 -24 -7 -24 -14 9 -9 41 -9 118 0
149 10 41 23 3 22 -68z m230 -150 c6 -113 13 -230 16 -260 5 -46 4 -51 -6 -32
-12 23 -16 24 -59 26 -30 1 -34 21 -45 227 -8 153 -5 176 27 175 15 -1 23 6
26 19 18 117 30 72 41 -155z m-191 -557 c2 -95 1 -190 -3 -210 -8 -38 -8 -38
-15 -11 -25 86 -34 388 -13 422 17 26 28 -47 31 -201z m255 134 c12 -32 30
-167 23 -174 -12 -12 -54 42 -65 83 -15 54 24 138 42 91z m-3420 -492 c0 -37
-6 -72 -12 -78 -8 -8 -11 12 -11 78 0 66 3 86 11 78 6 -6 12 -41 12 -78z
m3531 -31 c13 -34 2 -114 -15 -114 -5 0 -9 29 -9 65 0 62 11 84 24 49z m-3640
-409 c8 -21 -16 -86 -36 -99 -13 -8 -23 -8 -35 0 -30 18 -27 51 6 84 32 33 56
38 65 15z m887 -386 c1 -77 -3 -105 -19 -142 -22 -50 -48 -69 -64 -46 -16 25
-1 141 33 248 32 99 34 102 41 70 4 -19 8 -77 9 -130z"/>
<path d="M6490 8654 c0 -56 94 -443 119 -489 l16 -30 3 37 c4 46 -34 206 -88
372 -39 121 -50 144 -50 110z"/>
<path d="M3670 6772 c0 -53 4 -81 10 -77 13 8 13 125 0 145 -7 10 -10 -11 -10
-68z"/>
<path d="M5380 6683 c0 -48 3 -64 10 -53 13 20 13 120 0 120 -6 0 -10 -29 -10
-67z"/>
<path d="M3630 6459 c0 -37 4 -58 10 -54 6 3 10 31 10 61 0 30 -4 54 -10 54
-6 0 -10 -27 -10 -61z"/>
<path d="M5450 6387 c0 -194 -28 -320 -91 -405 -45 -62 -68 -64 -137 -10 -128
101 -168 181 -155 314 8 87 -9 79 -39 -19 -19 -61 -22 -95 -22 -222 0 -157 12
-243 45 -307 27 -53 91 -73 213 -65 178 11 299 75 316 167 16 90 -27 361 -87
540 -19 58 -37 107 -39 109 -2 2 -4 -43 -4 -102z"/>
<path d="M3713 6213 c3 -18 13 -49 22 -69 11 -28 18 -35 27 -26 13 13 -14 93
-39 114 -15 12 -16 10 -10 -19z"/>
<path d="M3597 5974 c-9 -51 -7 -430 2 -469 l7 -30 9 25 c12 33 10 458 -2 489
-9 23 -10 23 -16 -15z"/>
<path d="M5092 5558 c-17 -17 -15 -73 3 -88 31 -25 63 27 46 74 -11 28 -30 33
-49 14z"/>
</g>
</svg>
