<svg id="16282281824-posters-1653312626665" itemscope="" itemtype="/posters"
  itemid="/+16282281824/posters/1653312626665" viewBox="0 0 712 400" preserveAspectRatio="xMidYMid slice" tabindex="0"
  xmlns="http://www.w3.org/2000/svg">
  <defs class="gradients">
    <g class="radial">
      <radialGradient id="16282281824-posters-1653312626665-radial">
        <stop itemprop="radial" stop-color="hsla(20, 30%, 37%, 1.00)" offset="0%"></stop>
        <stop itemprop="radial" stop-color="hsla(20, 23%, 41%, 1.00)" offset="15%"></stop>
        <stop itemprop="radial" stop-color="hsla(18, 11%, 47%, 1.00)" offset="30%"></stop>
        <stop itemprop="radial" stop-color="hsla(22, 18%, 50%, 1.00)" offset="45%"></stop>
        <stop itemprop="radial" stop-color="hsla(23, 23%, 51%, 1.00)" offset="60%"></stop>
        <stop itemprop="radial" stop-color="hsla(33, 20%, 49%, 1.00)" offset="75%"></stop>
        <stop itemprop="radial" stop-color="hsla(29, 25%, 47%, 1.00)" offset="90%"></stop>
      </radialGradient>
      <radialGradient id="16282281824-posters-1653312626665-radial-background">
        <stop stop-color="hsla(20, 30%, 80%, 1)" offset="0%"></stop>
        <stop stop-color="hsla(20, 23%, 80%, 1)" offset="15%"></stop>
        <stop stop-color="hsla(18, 11%, 80%, 1)" offset="30%"></stop>
        <stop stop-color="hsla(22, 18%, 80%, 1)" offset="45%"></stop>
        <stop stop-color="hsla(23, 23%, 80%, 1)" offset="60%"></stop>
        <stop stop-color="hsla(33, 20%, 80%, 1)" offset="75%"></stop>
        <stop stop-color="hsla(29, 25%, 80%, 1)" offset="90%"></stop>
      </radialGradient>
      <radialGradient id="16282281824-posters-1653312626665-radial-light">
        <stop stop-color="hsla(20, 30%, 66%, 1)" offset="0%"></stop>
        <stop stop-color="hsla(20, 23%, 66%, 1)" offset="15%"></stop>
        <stop stop-color="hsla(18, 11%, 66%, 1)" offset="30%"></stop>
        <stop stop-color="hsla(22, 18%, 66%, 1)" offset="45%"></stop>
        <stop stop-color="hsla(23, 23%, 66%, 1)" offset="60%"></stop>
        <stop stop-color="hsla(33, 20%, 66%, 1)" offset="75%"></stop>
        <stop stop-color="hsla(29, 25%, 66%, 1)" offset="90%"></stop>
      </radialGradient>
      <radialGradient id="16282281824-posters-1653312626665-radial-regular">
        <stop stop-color="hsla(20, 30%, 44%, 1)" offset="0%"></stop>
        <stop stop-color="hsla(20, 23%, 44%, 1)" offset="15%"></stop>
        <stop stop-color="hsla(18, 11%, 44%, 1)" offset="30%"></stop>
        <stop stop-color="hsla(22, 18%, 44%, 1)" offset="45%"></stop>
        <stop stop-color="hsla(23, 23%, 44%, 1)" offset="60%"></stop>
        <stop stop-color="hsla(33, 20%, 44%, 1)" offset="75%"></stop>
        <stop stop-color="hsla(29, 25%, 44%, 1)" offset="90%"></stop>
      </radialGradient>
      <radialGradient id="16282281824-posters-1653312626665-radial-bold">
        <stop stop-color="hsla(20, 30%, 13%, 1)" offset="0%"></stop>
        <stop stop-color="hsla(20, 23%, 13%, 1)" offset="15%"></stop>
        <stop stop-color="hsla(18, 11%, 13%, 1)" offset="30%"></stop>
        <stop stop-color="hsla(22, 18%, 13%, 1)" offset="45%"></stop>
        <stop stop-color="hsla(23, 23%, 13%, 1)" offset="60%"></stop>
        <stop stop-color="hsla(33, 20%, 13%, 1)" offset="75%"></stop>
        <stop stop-color="hsla(29, 25%, 13%, 1)" offset="90%"></stop>
      </radialGradient>
    </g>
    <g class="vertical">
      <linearGradient id="16282281824-posters-1653312626665-vertical" x1="0" x2="0" y1="0" y2="100%">
        <stop itemprop="vertical" stop-color="hsla(20, 30%, 37%, 0.56)" offset="0%"></stop>
        <stop itemprop="vertical" stop-color="hsla(20, 23%, 41%, 0.56)" offset="15%"></stop>
        <stop itemprop="vertical" stop-color="hsla(18, 11%, 47%, 0.56)" offset="30%"></stop>
        <stop itemprop="vertical" stop-color="hsla(22, 18%, 50%, 0.56)" offset="45%"></stop>
        <stop itemprop="vertical" stop-color="hsla(23, 23%, 51%, 0.56)" offset="60%"></stop>
        <stop itemprop="vertical" stop-color="hsla(33, 20%, 49%, 0.56)" offset="75%"></stop>
        <stop itemprop="vertical" stop-color="hsla(29, 25%, 47%, 0.56)" offset="90%"></stop>
      </linearGradient>
      <linearGradient id="16282281824-posters-1653312626665-vertical-background" x1="0" x2="0" y1="0" y2="100%">
        <stop stop-color="hsla(20, 30%, 80%, 1)" offset="0%"></stop>
        <stop stop-color="hsla(20, 23%, 80%, 1)" offset="15%"></stop>
        <stop stop-color="hsla(18, 11%, 80%, 1)" offset="30%"></stop>
        <stop stop-color="hsla(22, 18%, 80%, 1)" offset="45%"></stop>
        <stop stop-color="hsla(23, 23%, 80%, 1)" offset="60%"></stop>
        <stop stop-color="hsla(33, 20%, 80%, 1)" offset="75%"></stop>
        <stop stop-color="hsla(29, 25%, 80%, 1)" offset="90%"></stop>
      </linearGradient>
      <linearGradient id="16282281824-posters-1653312626665-vertical-light" x1="0" x2="0" y1="0" y2="100%">
        <stop stop-color="hsla(20, 30%, 66%, 1)" offset="0%"></stop>
        <stop stop-color="hsla(20, 23%, 66%, 1)" offset="15%"></stop>
        <stop stop-color="hsla(18, 11%, 66%, 1)" offset="30%"></stop>
        <stop stop-color="hsla(22, 18%, 66%, 1)" offset="45%"></stop>
        <stop stop-color="hsla(23, 23%, 66%, 1)" offset="60%"></stop>
        <stop stop-color="hsla(33, 20%, 66%, 1)" offset="75%"></stop>
        <stop stop-color="hsla(29, 25%, 66%, 1)" offset="90%"></stop>
      </linearGradient>
      <linearGradient id="16282281824-posters-1653312626665-vertical-regular" x1="0" x2="0" y1="0" y2="100%">
        <stop stop-color="hsla(20, 30%, 44%, 1)" offset="0%"></stop>
        <stop stop-color="hsla(20, 23%, 44%, 1)" offset="15%"></stop>
        <stop stop-color="hsla(18, 11%, 44%, 1)" offset="30%"></stop>
        <stop stop-color="hsla(22, 18%, 44%, 1)" offset="45%"></stop>
        <stop stop-color="hsla(23, 23%, 44%, 1)" offset="60%"></stop>
        <stop stop-color="hsla(33, 20%, 44%, 1)" offset="75%"></stop>
        <stop stop-color="hsla(29, 25%, 44%, 1)" offset="90%"></stop>
      </linearGradient>
      <linearGradient id="16282281824-posters-1653312626665-vertical-bold" x1="0" x2="0" y1="0" y2="100%">
        <stop stop-color="hsla(20, 30%, 13%, 1)" offset="0%"></stop>
        <stop stop-color="hsla(20, 23%, 13%, 1)" offset="15%"></stop>
        <stop stop-color="hsla(18, 11%, 13%, 1)" offset="30%"></stop>
        <stop stop-color="hsla(22, 18%, 13%, 1)" offset="45%"></stop>
        <stop stop-color="hsla(23, 23%, 13%, 1)" offset="60%"></stop>
        <stop stop-color="hsla(33, 20%, 13%, 1)" offset="75%"></stop>
        <stop stop-color="hsla(29, 25%, 13%, 1)" offset="90%"></stop>
      </linearGradient>
    </g>
    <g class="horizontal">
      <linearGradient id="16282281824-posters-1653312626665-horizontal" x1="0" x2="100%" y1="0" y2="0">
        <stop itemprop="horizontal" stop-color="hsla(19, 27%, 39%, 1.00)" offset="0%"></stop>
        <stop itemprop="horizontal" stop-color="hsla(22, 14%, 48%, 1.00)" offset="15%"></stop>
        <stop itemprop="horizontal" stop-color="hsla(25, 21%, 50%, 1.00)" offset="30%"></stop>
        <stop itemprop="horizontal" stop-color="hsla(31, 23%, 48%, 1.00)" offset="45%"></stop>
        <stop itemprop="horizontal" stop-color="hsla(22, 21%, 46%, 1.00)" offset="60%"></stop>
        <stop itemprop="horizontal" stop-color="hsla(23, 10%, 47%, 1.00)" offset="75%"></stop>
        <stop itemprop="horizontal" stop-color="hsla(12, 11%, 44%, 1.00)" offset="90%"></stop>
      </linearGradient>
      <linearGradient id="16282281824-posters-1653312626665-horizontal-background" x1="0" x2="100%" y1="0" y2="0">
        <stop stop-color="hsla(19, 27%, 80%, 1)" offset="0%"></stop>
        <stop stop-color="hsla(22, 14%, 80%, 1)" offset="15%"></stop>
        <stop stop-color="hsla(25, 21%, 80%, 1)" offset="30%"></stop>
        <stop stop-color="hsla(31, 23%, 80%, 1)" offset="45%"></stop>
        <stop stop-color="hsla(22, 21%, 80%, 1)" offset="60%"></stop>
        <stop stop-color="hsla(23, 10%, 80%, 1)" offset="75%"></stop>
        <stop stop-color="hsla(12, 11%, 80%, 1)" offset="90%"></stop>
      </linearGradient>
      <linearGradient id="16282281824-posters-1653312626665-horizontal-light" x1="0" x2="100%" y1="0" y2="0">
        <stop stop-color="hsla(19, 27%, 66%, 1)" offset="0%"></stop>
        <stop stop-color="hsla(22, 14%, 66%, 1)" offset="15%"></stop>
        <stop stop-color="hsla(25, 21%, 66%, 1)" offset="30%"></stop>
        <stop stop-color="hsla(31, 23%, 66%, 1)" offset="45%"></stop>
        <stop stop-color="hsla(22, 21%, 66%, 1)" offset="60%"></stop>
        <stop stop-color="hsla(23, 10%, 66%, 1)" offset="75%"></stop>
        <stop stop-color="hsla(12, 11%, 66%, 1)" offset="90%"></stop>
      </linearGradient>
      <linearGradient id="16282281824-posters-1653312626665-horizontal-regular" x1="0" x2="100%" y1="0" y2="0">
        <stop stop-color="hsla(19, 27%, 44%, 1)" offset="0%"></stop>
        <stop stop-color="hsla(22, 14%, 44%, 1)" offset="15%"></stop>
        <stop stop-color="hsla(25, 21%, 44%, 1)" offset="30%"></stop>
        <stop stop-color="hsla(31, 23%, 44%, 1)" offset="45%"></stop>
        <stop stop-color="hsla(22, 21%, 44%, 1)" offset="60%"></stop>
        <stop stop-color="hsla(23, 10%, 44%, 1)" offset="75%"></stop>
        <stop stop-color="hsla(12, 11%, 44%, 1)" offset="90%"></stop>
      </linearGradient>
      <linearGradient id="16282281824-posters-1653312626665-horizontal-bold" x1="0" x2="100%" y1="0" y2="0">
        <stop stop-color="hsla(19, 27%, 13%, 1)" offset="0%"></stop>
        <stop stop-color="hsla(22, 14%, 13%, 1)" offset="15%"></stop>
        <stop stop-color="hsla(25, 21%, 13%, 1)" offset="30%"></stop>
        <stop stop-color="hsla(31, 23%, 13%, 1)" offset="45%"></stop>
        <stop stop-color="hsla(22, 21%, 13%, 1)" offset="60%"></stop>
        <stop stop-color="hsla(23, 10%, 13%, 1)" offset="75%"></stop>
        <stop stop-color="hsla(12, 11%, 13%, 1)" offset="90%"></stop>
      </linearGradient>
    </g>
  </defs>
  <rect itemprop="background" width="100%" height="100%" tabindex="-1" id="16282281824-posters-1653312626665-background"
    fill="url(#16282281824-posters-1653312626665-radial-background)"></rect>
  <path id="16282281824-posters-1653312626665-light"
    d="M0 200v200h129l3-8c3-8 6-20 6-25 1-4 20-13 22-10l1 20v19h2c3-1 6-5 6-7l-2-2 1-2 3 2c0 2 3 3 4 1 3-6 20 0 23 8l1 4h82l3-4 5-6 5-6c2-2 3-3 6-3 5 0 5 0 2 6-2 5-3 6-5 4h-1l1 2c1 1 0 1-3 2l-7 3-3 2h12c10 0 14-1 17-3h16l2-8v-7h22l21 1-6 8c-8 8-8 9-5 9 2 0 4-2 7-6l5-4 2 1 1 4v5h96l97-1a2 2 0 112 1l5-1h1a114 114 0 0034 0l1 1 1-5v-5h-4c-12-2-9-18 5-24 13-5 31-2 33 7l2 2a25 25 0 01-1 17c-1 3-5 7-7 7v-2c0-3-1-6-3-6l-2-1-13-4 3 2c5 3 9 7 9 10l-1 2h77V0h-80c-79 0-80 0-82 2l-2 1 1-2h1l-4-1h-4l3 4c4 2 5 3 6 2s1-1 0 0l-7 7c-1 0 0-2 2-3l1-3-3 2-3 2c-1 0 0-2 2-3 2-2 3-4 1-4l-3 3-3 1 3-3c2-2 2-2 1-3-5-3-10-2-15 3l-5 4 2-3c2-1 2-2 2-3-1-3-4-3-7-1l-3 3 2-2 3-3h-81c-74 0-81 0-81 2l1 2 6 4 6 5c0 2 2 4 4 6 4 4 5 6 3 8a4 4 0 106 2c0-4 3-6 7-6l5-1c2-2 6-2 14-2 6 0 10 6 11 14l1 7c2 5 1 7-1 7a4 4 0 103 5c2-3 3-3 5-3l9 2c3 0 8 2 11 4l6 3v7c-1 6-1 8-3 9l-2 4c1 2-3 7-6 8l-4 2c-3 4 4 7 7 4 2-3 4-2 9 2 2 3 5 5 6 5l6 7c4 5 5 5 10 5 6 0 10-2 12-5 1-3 1-3-2-3-2 0-2 0-2-6 1-8 1-8 5-5 3 3 4 9 1 14s-7 7-20 7h-11v46c0 29 0 46 1 45l1 1-1 1-1 1c0 3-23 3-23 0-1-3-2-2-4 1s-2 3-3 2 0-2 1-2c4-2 3-8-1-8l1 2v1l-3-3-1-3-2 3-1 4-1 1c-1-1-5 6-5 8 1 1 1 1-1 1-1-1-2 0-3 1s-1-1 2-3l5-9 2-3-4 1a3 3 0 00-3 2c-2 0-1-2 1-4s2-2 4-1a2 2 0 102-3c-3-1-4-3-2-3a36 36 0 00-17-17l-2-1h-3c0-2-6-4-11-5l-6-2-3-1-1-4-1 4-2 12-11 16c-2 0-12-15-11-16l8-4c11-5 15-10 15-16-1-7-1-7-5-2a8 8 0 01-6 4l-3-2c-2-4-7-8-6-6 1 1 0 2-2 2-3 1-3 0-2-5s1-8-3-9c-2-1-3-2-3-4 0-4 18-4 23 1 3 3 7 12 7 14s2 1 3-1v-6c1-1 0-1-1-1h-1l3-1a4 4 0 004-5c0 2 3 1 3 0 1-2 0-2-1-2s-2 0-1-1l2-1c2 1 3 0 5-2 3-3 3-4-1-3-3 0-4 0-5-2-2-3 25-3 27 0s11 8 13 7c3 0 7 6 5 8-2 1-2 1 0 3s3 6 0 10l-1 4c3 2 5-11 3-14-2-2-2-3-1-4 2-2-4-9-6-9-3 1-9-2-11-6-2-2-3-2-16-2s-18-1-11-2l3-1h-3l-5-1c-1-1 5-1 16-1 16 0 17 0 18 2 1 3 6 7 9 6 4 0 7 1 8 3l2 5c2 2 2 4 2 5v6c2 3 2 4-1 10-3 8-3 9-1 11a6 6 0 011 6c2-1 6 1 7 3l2 2c2 0 4 3 3 3v1h1l1-1c2 0 2 2 1 14 0 8 0 11 1 10s1-1 1 1 0 3 2 3 2-1 2-6l1-47v-41h-81l-3-3-3-2 2-1 2-1-3-1c-3-2-3-6-1-7l1-2v-6c0-2 0-2 1-1 3 2 5-1 3-3-3-2-2-8 1-9l1 1 1 4 1 4c-1 1 1 1 3 1a5 5 0 016 2c1-2 4 2 5 6 0 3 1 3 5 5l4 3a10 10 0 01-8 7c2 1 8-1 8-3 0-3 2-2 3 0 2 4 10 4 13 0l3-3 4-3c3-3 6-4 6-1l3 4v-2c-2-2 0-3 3-1l1 2v4h-9c-2 2 0 3 3 2l4 1c2 1 4 0 3-1 0-1 2-5 4-5l5 4c0 2 7 3 18 2l-11-10-3-2c-1-3-5-5-9-4a7 7 0 11-2-12c2 0 4-2 4-6l1-3c1 0 3-6 3-11 0-4 0-4-5-7l-8-2-7-1c-3-1-4-1-6 2-3 3-6 4-10 1-3-3-3-6 0-9s4-7 2-9l-1-4c1-3 1-4-2-8-3-5-3-5-9-5l-9 2-4 1c-4-1-7 1-7 5 0 6-6 9-10 4-2-3-3-7-1-9 1-1 1-2-2-4l-4-6-6-5-4-3c-2-3-13 6-14 10l-2 2c-3 0-4 4-3 8a6 6 0 11-13 1c0-3-3-5-7-4l-4-2c-4-4-12-3-17 2l-3 5h-1v-3l3-5c1-3 1-3 9-3 6 0 9 0 12 2l5 2c4 0 6 2 6 5-2 5 4 8 7 3v-4c-2-2-2-2-1-4l17-17 4-4-63-1h-63v62h-17V49c0-12 0-16 2-13l1-1c0-3-1-3-2-2v-6l1-3c1 1 1 1 1-1s0-3-1-2-1 1-2-1v-1c5 1 7 0 7-3l1-3 1-2c0-2 1-2 3-3s3-1 2-5c0-4-3-4-3 0l-1 3c-1 0-2-1-1-3V0h-21v7c0 9-1 9-6 5l-1-1 2-1h1v3l1-3 1-4 1-3V0H0v200m0 1c0 110 1 154 1 99a46620 46620 0 00-1-99M175 6v1l6 4a1168 1168 0 0133 15l1-1a21 21 0 00-13-7c1-1-3-3-6-2l-1-1c1-1-2-2-3-1l-2-1c0-2-1-2-2-2-1 1-1 1 0 0l-2-1h-2l-5-3-4-1m178 22l-3 4 2-1 2-1-1 3-1 2c0 2 0 2-1 1s-1-1-1 1l3 5c4 3 4 3 5-1v2c0 4 0 4 2 3l3-3c3-2 3-7 1-12l-1-4v-1c-1-1-3 2-3 5h-1l-2-1-1-2c1-3-1-3-3 0m-93 13c0 11 0 10-2 12l-1 3c-1 1-1 1-1-1s0-2-4-2l-5 2-2 1c-5-1-7 2-3 4 3 2 8 3 8 1 0-1 5-3 6-2 0 2 2 0 2-2l2-3 1-12-1-9v8m35-6v3l-1 2c-2 3-1 6 1 7 4 0 5 2 3 5s-9 2-9-2c1-3-15-1-24 3l-5 3v7c0 5 1 8 2 9l1 4c0 5 7 11 8 7h1l1 2v5c-1 2-1 2-4 1-4-3-9-1-13 3l-5 4-6 4c-6 5-7 5-7 1 0-3 1-3 3-3 4 1 10-3 14-7s12-7 14-4h3c1-2 0-4-3-3-2 0-7-5-8-10l-2-5-1-3c0-4 0-4-24-4h-19v11c-2 32-2 34 1 34 2 0 2-1 0-2v-4l1-5c-1-5 1-9 6-11 6-2 10 0 6 3l-2 5-1 6v2c2 3 4 2 6 0 1-3 3-3 3 0l2 2c3 2 1 3-4 3-4 0-5 0-4 1s6 2 17 2h3v30l-2 31v30c0 3 4 7 4 4l-2-1-1-10 1-30 2-37v-17h26l68 3c10 0 11 0 13-2s4-2 7-2c4 0 5-1 5-3s0-3-2-4l-2-2c-1-2-1-2 1-1l2 2a1 1 0 102 0v-2l1-8-1-7c-1 1-2 0-2-1l1-1c2 1 4-1 2-1v-4c0-3-1-4-2-1 0 2-1 2-3 1v-1l2-1c0-2 1-2 4-1 5 0 6-2 0-4-3 0-4-1-4-4l-4-5c-2 0-4-2-5-3-1-2-2-2-6 2-5 5-6 9-2 10 2 0 2 1-1 3-3 3-3 3-5 1-1-2-1-3 1-1 2 1 3 0 3-2 0-1-1-2-5-1s-9 4-6 4l5 5 6 7 1 2-3-2c-2-2-3-3-4-2h-2c-1-1 0-1 1-2 2-1 2-1 1-2-2-2-3-2-4-1h-3c-2-2-2 2-1 5l1 4c-2 4 7 13 11 11h1l1 4c1 1 1 1 0 0-3-2-9 1-9 4 1 2 0 2-2 1-2-2-2-2 3-4 4-3 4-3 2-4-5-2-5-3-6-5-1-3-4-7-7-8l-3-1 3 1 5-1-1-1c-1 1-2-2-1-6h-1v4c0 2 0 2-2 2h-4l-1 1-2 2c-3 2-4 3-5 7l-3 4v1h-1l-5 2-2 2 3 3c3 2 3 3 1 2l-4-3c-1-1-1-1-3 1-3 4-11 4-13 0 0-2-1-3-2-3l-4-3c-4-4-6-4-7-1l-2 2v-1c2-3-3-3-6-1l-3 2c-3 0-5 4-4 4h3l2 1c1 2 0 2-11 1h-17l3-3 7-5c2 0 5-3 6-4 3-3 3-3 9-3 8 0 10-2 10-6s-3-7-6-7c-2 0-4-2-4-5l-2-6c-5-8 0-16 10-17 10-2 13-2 15 1 3 3 7 4 10 1 3-4 2-12-2-11-2 1-1-5 1-7v-3c-1-1-2 0-3 1m19 1c-1 3-1 3 1 3l1 1h-3l-4-1 1 2-1 2-1 5c1 3 3 4 3 1 0-1 0-2 1-1l1 2v2l1 2h-1c-2-2-3-1-3 1l2 2h7c1 2 9 4 9 2 1-1 0-2-1-2l-1-1-1 1c-1 3-1 2-2-3l-3-3h-1l-1-1c-3 0-4-7-1-8h2l1 1c2 0 4 4 2 6 0 1 3 5 5 5l1 1c0 4 2 0 3-5 0-6-1-8-5-7l-2-1 2-1c3 0 3-2 0-3-7-3-9-3-9-1s-2 1-2-1h-1m84 2v1a2 2 0 11-3 1c1 1 1 1 0 0 0-2-4-1-7 3-2 3-2 4-2 8 2 11 2 10 6 10l8-1c5 0 8-1 8-4 0-2-2-3-4 0l-1 1v-2c1-1 2-3 1-4l1-2 1 2 1 2c1 0 2-3 1-8v-5l-3 2c-2 1-3 2-2 4 0 2-1 3-3 4l-2 2h-2l-2-2v-2l1-1 1-1 3-3a3 3 0 00-1-5m-212 3v1l1 15-3 69-1 26 1 3v2l1 2 1-4c0-4 1-7 3-7s2-3-1-4c-2-1-3-3-1-3v-20c-1 0-1-6 1-7l2-1c0-2 2-1 5 2 4 4 3 5-2 3l-4-2c0 1 3 3 10 5l2 2c0 1-3 1-8-2l-4-1 9 4 2 2c2 2 0 2-4 0l-5-2 1 1c2 1 2 1 1 3v3c2 1 0 3-2 2-2 0-2 0-1 1 0 1 1 2 2 1l3 2c1 3 0 3-4 2l-2-1c0 1 2 3 5 4l5 2c2 2 4 1 4 0l-2-2c-2 0-4-2-3-3l3 1c2 2 3 2 3-44l2-39c0-7 0-8-2-8l-2-1-3-1c-1 1-2 1-2-1l-1-1h-2l-2-1-3-2c-1-1-2-2-3-1m6 8l-2 2c-2 0-3 4 0 6 1 1 2 3 0 2l-1 2v16l-1 2v11c2 2 3 4 1 3-2 0-3 2-1 4v1h-1l1 2v5l1 2-2 2 1 2c3-2 10 2 10 4l2 5c2 2 3 1 0-3v-2c1 0 2-4 1-5l-6-2-5-3h6l-1-1c-1 0-1-2 1-2v-4l2 1c1 1 2 2 3 1v-7c2-1 2-1-5-4l-4-3 4 1c4 3 5 2 2-1l-2-3 3 1c2 2 2 2 3 0 1-3 0-5-3-5l-8-4h3c3 2 5 0 2-2-1-2-2-2-2-1a1 1 0 11-1-2c1 1 4-1 2-2v-6c-2-2 0-1 3 1 4 2 5 1 5-1v-3l-3-2-9-5 2 1 11 3c0-2-3-6-4-5l-4-2c-3-2-4-3-4 0M87 55c0 2 5 6 5 5h1c0 2 5 6 6 6 1-1 1-1 0 0l3 4c9 5 24 24 30 34l3 7v18l-1 19c-1 4 2 3 3-1 1-5 3-7 3-3l2-23c0-11 0-11-4-19a65 65 0 00-9-14 61 61 0 00-16-15c1 0-1-3-4-5l-8-7c-4-4-7-5-5-2v1l-2-3c0-2-2-3-3-3v1c1 1 2 2 0 3h-1v-1l-1-2h-2m76 1l-1 1-2 1c0 2 3 3 3 1h2l1 3h-2c-2-2-3-1-2 1l2 2c2 0 9-5 9-7l-2 1-2 2-2-3c-2-3-5-4-4-2m198 8l-2 3a1 1 0 11-2 0l-1-3c-1-1-2-1-2 1l2 3a4 4 0 01-1 7l-1 2-1 2-2 1 2 1c1 0 2 0 1 2h1l2-4 1 1 2 4 1 1 1-2 1-3v-1l-1-2-1-2c-1 1-2-1-2-5l3-3c2 0 3-2 1-2l-1-1c1-2 1-2-1 0m-76 0c-4 1-4 1-2 4 1 2 2 2 2 1-1-2 1-3 1-1 1 2-1 3-4 3l-1-3-2-2c-2 0-2 0-1 1l1 4 1 3c1 1 1 1 0 0l1-2 2 2 2 3c3 1 3 3 0 3h-1c2 2 9 3 12 1 2 0 2-2 1-2l-3-2c0-2-1-2-2-2-2 1-4-2-2-3v-2h1c1 1 2 2 1 3l6 2c3 1 3 1 3-1l-1-2c0-2-6-8-8-8v1c3 2 3 3 0 2l-4-1c-2 0-2 0 0-1 4-1 1-2-3-1m-87 2v5c-1 1-1 1 1 2 2 0 3 2 1 2v2c1 3 3 3 3 0V67c-1-2-4-3-5-1m223 1c-3 2-6 11-3 11 5-2 7-2 7-1 1 1 0 1 0 0-2 0-6 3-6 5s8 3 11 2h3l1 1c2-1-1-4-3-3-2 0-2 0 0-1 3-3 4-6 1-5-2 0-2 0-1-1l1-2 2-3c2-2 1-3-4-3h-1l4 2h-4a7 7 0 00-5-1l1-1h-4m148 6v6l1 3 5-3c5-3 6-4 3-4l-4 2c-1 2-4 3-3 1s-1-6-2-5m-400 2l-4 1-2 1h-5c0-2-1-2-1-1l1 2v2c-5 3-6 4-3 4l3-2c1-1 1-1 2 1 2 2 2 3 0 3s-3 1-3 2c0 2 0 2 2 1l4-2 5-2 4-3 1-1a1 1 0 10-3 0c0 1-2 1-4-1s-1-3 1-3l3-1h3c0-2-1-2-4-1m186 13v6c1 1 1 1 1-2l1-4c1-2 2 1 2 5-1 3-1 3 1 3 1-1 2 0 3 1 2 3 1 0-1-5l-3-8c0-3-2-1-4 4m200 0l-1 3-1 2-1 3c0 2 0 2 2 0l2-4 4-1h4l-2-2c-2-2-5-3-7-1m11 5l1 1c2 0 1 6-1 6l-3 4c-1 1-2 2-3 1l-7-1-7-3-2-1c-2 0-2 0 0 1l3 2 5 2c7 0 9 2 6 6-2 2-2 3-1 3l3 2c2 2 4 3 8 3l2 2 2 1h3c8 3 2 9-6 8-6 0-7-1-5-2s0-2-2-1c-3 2-2 4 2 5 3 0 5 2 4 3h-2c-1-1-2 0-4 1-3 2-2 3 2 2 4 0 4 0 0 6l-3 6-1 5-2 4c0 2-1 2-4 2a8 8 0 01-8-5h-1c0 2 0 2-6 0-3-2-4-3-4-5 0-1 0-2-1-1-3 2-5-7-3-12v-3c-3 0-3-4-2-6l1-1-2 1c0 2-2 1-3-2s-1-3-1-1l3 6 2 10 2 8c1 3 1 4-1 4l-4 2-4 2-1 1 6-2 5-2 8 3a101 101 0 0114 7l4 5c1 3 3 5 6 6s5 3 5 5l5 6c7 7 2 14-6 8-5-4-5-7-2-12 2-4 2-4-1-1-2 2-5 1-5-2l-1-1 1 4c4 7 1 12-4 7-2-3-3-2-1 1l5 2 5 2c3 3 3 4-1 4-2 0-5 4-5 10-1 5-3 6-5 4 0-2-3-4-5-6-3-3-3-4-2-6 1-3 1-4-1-1-1 1-1 1 0 0 0-2 0-2-2-1-3 2-3 2-6 0-3-3-4-3-9-3a5 5 0 01-7-3l-1 1c0 2 3 3 8 3 10 1 11 6 3 10-1 1-2 1-1 2l4-2 3-3 1 3 3 4 3 3c0 3 4 5 8 5 7 0 11 8 6 12-2 3-4 14-2 17h1l1-2 3-2c2-2 3-3 5-3 3 0 5-4 8-14l2-3 2-3 2-2c2-2 5-9 4-10v-2c1-1 2-2 2-5 0-5 1-6 8-8l4-1 1-11-1-2c1-2 5-5 9-5l4-1 3-5c2-3 2-3 1-6l-3-2 1 2c2 2 1 4-2 7-3 4-11 5-10 1l-2-2-1 1c2 2 1 6-1 9-1 4-6 6-11 6-2 0-1-5 2-8l1-1c-6 2-7 1-7-1l1-3-4 2-3 2-5-5-6-5-1-5c0-6 2-11 5-10l1-2 1-3v-2c-3-3 0-9 7-14 3-2 4-6 2-9v-2c2 0 4-2 3-4l-2 2c-3 2-3 2-5 1l-5-2c-10 0-13-6-6-13 8-9 8-8 6-8-2 1-3 0-4-1l-2-1m-157 1c-3 2-2 4 0 6l2 2 2-2c3-2 2-3 0-5-2-1-3-2-4-1m217 2a14 14 0 01-7 2l-1 1c-2 1-2 18-1 18 2-1 2 0 1 4v3c2 0 5-3 5-5h-1c0 2-3 4-3 2 0-1 2-4 4-4l1-1h-1c-3 1 0-2 3-4a7 7 0 004-5l1-7v-7l-5 3m-459 0l-4 2c-3 0-6 1-5 2 0 1-1 2-3 2-3 2-4 3-2 3 1 1 3 0 3-1h4c2 2 1 3-1 3-4 1-3 10 0 10v-2c-3-4-2-5 1-6 5-2 8-2 8-1 0 2 3 6 4 5l-2-4c-3-4-3-4 1-6l2-2c0-2-3-1-4 1 0 2-3 1-3-1-1-2-1-3 1-2l3-4-3 1m356 0l-2 2c-1 2-1 2 1 2 2-1 3 0 4 1s1 1-2 1l-4 2c-1 1-1 1 2 1s3 0 2 3v2c2 0 4-1 6-4 0-2 2-3 2-3 3 0 1-4-2-5l-2-2h-5m-304 1c-1 3 4 11 7 11 2 0 1-1-1-4-3-4-4-6-1-5 1 1 1 0 1-1 0-2-5-2-6-1m422 10l-5 3c-6 0-8 6-2 6 14-1 13-1 12-5 0-3 0-3-2-2l-1 1v-1l1-2h1l1-1c0-2-3-1-5 1m-44 3h-3l-1 1c2 2-3 3-5 2h-1l1 4 4 1c2 0 3 0 3 2 0 3 2 3 3 0l3-3v-2l-2-4c0-1-1-2-2-1m-431 3c2 3 1 6-3 6l-4 1h-2c0-2-4-7-4-5l2 4c2 3 2 4 0 5-3 0-5 4-2 3l3-2c0-1 3-2 3 0l1 2c0 2 0 2-2 2l-2 2c-1 1 2 2 3 0h4l1-1c1-2 3-2 4 0 0 2 1 4 3 4l-2-4c-2-3-2-3-1-4 4-3 5-3 3-4-1-1-2-1-3 1a3 3 0 01-4-2c5-2 6-6 3-9-2-3-3-2-1 1m347 0l2 4c2 2 2 2-2 1-4 0-6 1-6 4h9c2-1 2-8 0-10-3-3-3-3-3 1m-220 7c-1 3-7 6-11 5-3 0-6 2-6 5l-2 2c-2 1-3 4-2 7 1 1 0 2-1 3-2 4 0 16 3 15v2c0 3 0 3 1 1s1-2 1 1-1 6-3 5l-1 1-5 4-2 2-2 2c-8 2-8 2-8 17l1 13 1-1h21l20 1 12-12c12-12 20-17 31-20 9-2 8-2 8-5l-1-14-1-12v-8l-1-4-1-1c-2-1-3-4 0-4h1l-24-1-23-1-3 3c-9 7-10 7-11 6-2-1-4-1-4 2l-2 2v3c2 2 2 2 0 4-3 3-4 5-1 10 3 7 3 10 0 17-3 4-4 6-7 7-1 0-4 1-5 3l-5 3c-2 0-2 1-2 8l-1 8v-9c0-8 0-8 2-9 2 0 4-1 5-3l4-2c7 0 13-14 8-21-2-4-3-9 0-12 1-3 1-3-1-4v-2l1-4c0-5 0-5 4-4h3l1-1 1 1v1h1l4-3c4-2 6-5 3-4l-1-1h40l9 1-1-3c-2-2-3-3-3 0l-4 1c-3 0-3 0-1-1l3-1-21-1h-21l-1 2m252 0c-2 1-1 8 0 9l-1 1c-3 1-3 1 0 1 5 0 6-2 4-8-1-4-2-5-3-3m52 10c-2 3-5 4-5 2h-1c-2 1-1 1 2 3 5 3 4 8 0 8l-7 2-4-1c0-3-2-2-4 1-3 3-4 9-2 10 0 1 4-3 4-5 0-1 3-3 10-4 8-2 9-3 7-9-1-5 0-8 5-10 3-1 3-1 1-1s-4 1-6 4m-385 6c0 6 0 7 2 7l1-1 3-2c2 0 2 0 0-1l-2-2-1-4v-4c1-1 1-1-1-1s-2 0-2 8m433-4l-3 5-2 1 2-1 2 1c-1 3 2 4 5 2 3-1 4-6 1-5l-1 2c0 4-2 4-3-1-1-3 1-6 3-3h1c1-2-2-4-2-3h-2c-1-1-1-1-1 2m-34 1c-1 1 3 5 6 5l2 1c3 1 2-2 0-5-3-2-5-3-8-1m-118 3c1 1 2 2 1 3 0 2 0 2 2 2 3 0 3 1 0 3-4 4-2 5 3 2 4-2 6-7 5-9-1-3-3-2-2 0 0 3-3 2-5 0 0-2-2-3-3-3h-3l2 2m-132 4l-3 1c-2-1-1 3 1 6s4 4 6 1h3c3 1 2-2-2-4l-3-2h3c4 1 5 0 2-2h-7m156 3l-2 4h-1c-1-1-2-2-3-1s2 4 4 3v2c0 2 2 7 4 7v-1c-3-2-2-5 1-9 5-7 6-7 2-7l-5 2m33-1l3 4 4 4c1 2 3 0 3-4 0-3-9-7-10-4m-49 5l-4 3c-1 2-1 2 4 2 9 0 11-1 7-4l-4-2-3 1m3 10l-3 4-1 3 3-1 4-2c2 0 6-4 6-5 0-2-8-1-9 1m-304 0v5c0 2-1 2-2 2-3 0-5 2-4 5 0 3 2 3 3 0 1-2 4-3 4-1 1 1 1-2 1-5 0-7 0-8-2-6m423 2c0 2 5 6 7 6 3 0 3-3 0-6-3-2-7-3-7 0m-107 6a8 8 0 004 10c0 2 2 1 2-2 2-4-4-11-6-8m-132 9l-1 3c1-2 3-2 5-1 3 2-1 7-5 6-3 0-3 0-4 4-2 5-1 6 2 6s4 0 3 4c0 3-1 3-3 3a3 3 0 01-4-2l-1 2 3 1c2 0 2 0 1 2v1l2-2c1-2 2-1 1 3 0 3-1 4-4 4h-3v-5c-2 4-1 6 3 6 3 0 4 1 4 4l2-10 2-15-1 1-4 2c-3 0-3 0-2-3 0-5 1-6 5-4l2 1 4-12c-2 2-6 1-6-1l-1 2m123 1c-4 1 2 6 7 6 2 0 2 0 1-3-2-4-4-4-8-3m22 1c-2 2-2 3-2 6s5 0 6-3l2-4c1-2-5-1-6 1m158 5c-2 6 0 27 2 31 1 2 2-1 1-5l-2-15c0-12 0-15-1-11m-284 4c0 2 1 2 3 2l2 1c0 1 6 4 7 3v-4l-2-3c0-3-9-2-10 1m99 0c-3 2-2 4 0 4l5 1c3 0 4-1 3-4-2-2-5-3-8-1m88 2c-4 1-2 5 3 5 3 0 5-2 5-5h-8m-77 11l-2 1 3 2c3 1 9 0 9-2 0-3-7-4-10-1m60 3c-5 0-9 7-9 16-1 3 2 4 2 1l3-2c3 0 7-5 8-10 0-5 0-6-4-5m25 2c1 8 7 11 10 5 1-3-2-8-3-6l-1-1-3-1c-3 0-3 0-3 3m-342 3c-2 1 0 2 18 3h21c2-2 1-3-2-3l-19-1-18 1m262 6c-3 3-4 9-2 9l1 2c0 5 1 5 6 0l4-5 1-2c0-2 0-2-2-1-4 1-5 1-5-1 0-3-2-4-3-2m-144 6c0 2 0 3 1 2 0-3 7-3 7 0 0 5-7 8-8 3l-1 5c-2 15-8 36-16 52-4 8-3 8-2 7l1-1 4-7c3 0 5 3 4 5v2l11-25 8-37v-7h-4l-4-2c-1-1-1 0-1 3m228-1l-2 4-2 1-2-1-4-1-2 1v1c-2 0-2 0-1 1l-1 4v2c0 2 0 2 2-1 1-3 4-4 7-3 1 2 1 2-1 2l-3 2c0 3-2 4-5 3h-3l2 1 3 1-1 1v1h2c1-1 6 0 7 2 0 3 2 6 4 5l1 2c0 2-1 3-2 3-3 0-4 1-2 6 1 3 1 4 1 1-1-4 0-6 2-6v2l1 2 1-2a3 3 0 115 4h1c5-1 4-5-3-9-2-1-4-6-3-6l6 2c4 2 4 2 2 0-3-3-2-7 2-8 2-1 4-1 9 2l6 2-8-4-6-4 13 6 12 5-13-6-12-8c-1-2-2-2-6-2-3 0-4 0-3 1v1c-2-1-3-4-2-5v-6l-2 1m-285 13l-3 18v10l1-10 2-10 1-4 1-5 1-8-3 9m57-1c-1 4-1 5 3 5 2 0 3-1 3-3 1-4 1-4-3-5-2 0-3 0-3 3m98 2l-1 2c-1 0-2 0-1-1l-1-1-1 2 1 3 2 1 1 2c0 1-2 2-2 0-2-2-4 0-4 3 0 2 0 3 1 2v-3c1-1 4 0 4 2l1 1 1-1v-6c-2-1-2-3 0-3 1 0 1-3-1-4v1m-99 5c-2 6-2 7 0 7l3 1c2 0 5-6 3-8h-6m312 1c-14 7-14 22-1 29 14 7 30-9 23-22-4-7-16-11-22-7m-106 0c-3 2-2 4 1 4 3 1 3 2 0 4a4 4 0 00-2 5c0-2 1-2 1-1 2 2 4 1 3-1l1-1c1 1 2 0 2-5 0-6-2-8-6-5m105 2c-14 7-9 26 7 26 19 0 22-27 2-28-4 0-6 0-9 2m-54 1l4 2c3 1 5 5 3 7-1 3-5 3-11 1a301 301 0 0119 11c4 2 4 2 3 0-3-3-2-6 2-7 3-1 4-1 12 4l10 8c4 4-3 10-8 7l6 5 24 23c14 14 16 15 15 13l1-5c5-4-6-19-32-40-14-11-50-34-48-29m-550 4v1c1 1-1 2-5 3l-12 6c-6 3-7 3-7 0s-1-3-4 0c-3 4-3 13 1 18 3 4 3 4 5 0 1-2 2-4 4-4l5-1 8-2c-4 2-9 8-8 9l-1 1h-2l1 1 1 1a6 6 0 006 6v1c-2 1 0 3 2 3 1 0 2 1 2 3 0 3-3 3-8-1-3-2-5-1-3 1l-1 1v2c0 4 4 8 6 8h1a2 2 0 003 3c0-2 0-3 1-2l1-1-2-1-1-1-2-2c-2-1-2-1 0-1l8 2 6 2 4-4c4-4 4-4 3-6l-2-2-1 2c0 2 0 2-2 1-1-2-1-2-2-1l-3 2c-3 1-5-2-3-6l-1-2a1 1 0 110-2l4-3 3-2v1c-2 0-1 2 1 2s3-3 1-6c-1-2 0-5 4-6l4-4c2-5 2-8 1-10l-2-4c0-5-8-9-14-6m290 4c-1 5-1 5 1 5 2 1 2 1 0 1-3 0-6 5-4 7 3 3 6 2 7-1a8 8 0 001-6c1 0 3-7 2-8-3-3-6-2-7 2m99-3c-2 2 1 3 3 2 3-1 3-1 3 2 0 2 0 2-1 1l-3-1c-2 0-2 0-1 1 1 2 12 2 12 1h-1l-1-1-2-1-1-1c0-2-4-4-5-2-1 1-1 1-2-1h-1m26 1l-1 1-3 5v3c1 1 1 1 1-1 0-1 0-2 1-1l1-1a1 1 0 112 0l-1 2c0 2-2 3-5 2-2 0-6 2-6 4 0 1 1 2 5 2 3 0 4-1 4-2 0-2 2-4 4-4v2h1v-2c-2-2-2-2 0-4 2-3 2-5 0-3-2 1-2 1-2-1l1-2 1-1-3 1m145 2c-2 1-3 6-1 8 3 1 7-1 7-4 0-4-2-6-6-4m-419 4l-2 1c-3 0-5 1-5 3l-1 1h-2l3 1h8c1 2 2-2 0-4v-2l-1-2v2m41 4c-3 2-2 4 3 4 3 0 4-1 4-2 0-4-5-5-7-2m177 2c-3 3-3 4 3 4 4 0 5-1 5-2 0-4-6-5-8-2m200 2l11 7 9 7-41 1h-34v14h8c8 0 11 1 16 5 1 2 4 3 6 4 3 1 4 2 4 4 0 5 5 9 11 9 5 0 6-1 6-4-2-6 4-11 9-7 3 2 4 5 2 8-2 1 3 3 8 3 2-1 4 0 7 1l7 3 13-1h12l-24-2-9-3c-3-2-4-2-6-1-4 2-6 0-6-3a8 8 0 10-16 0c2 9-10 5-12-3-1-3-2-4-5-6l-7-4c-5-4-9-5-16-5h-5v-10h38l37-1 3 2c7 5 30 27 35 33a94 94 0 009 9c-15-18-32-34-40-40a223 223 0 00-30-20m-125 2c-2 3-1 6 1 6s4-2 4-5-3-4-5-1m194 0a16 16 0 003 27c2 0 1-2-2-3-8-5-8-18 0-23l3-2c0-2-1-1-4 1m-343 3l-2 3c0 2 6 5 6 4l3-8c-2-2-7-2-7 1m169-2l-1 5c1 2 1 3-1 3l-1 1a6 6 0 01-3 6h7c1-2 1-4-1-4l-1-1 2-1v-6l1-3h-2m-459 5c-3 1-2 3 2 2 3 0 3 0-1 1l-3 2 4 1h1l2 1c2 0 3-1 3-2l1-3c2-1-5-3-9-2m88 1c-6 3-9 12-5 16l2 3 3-2 3-3c1 0 2-3 1-5a7 7 0 012-10c0-1-3-1-6 1m127 4l-6 7-2 5 3-3c2-4 3-3 1 1-1 3-1 3 2 0l3-2-1 3c-5 5-1 5 3 0l4-2h2l4-2c2 0 3-7 1-9-4-3-10-2-14 2m112-2c-3 1-7 8-4 8l2-4c1-2 2-3 3-2l-1 4c-2 3-2 6-1 6l2-3 2-3-1 3 1 4 1-1 1-3c2-1 2-1 1 2 0 3 1 4 3 1l4-2 12-4-3-4c-3-3-17-4-22-2m-41 3l-1 4 3 1c3 1 3 1 4-2 2-4 1-4-3-5-1-1-2 0-3 2m314-2c-4 0-4 8 0 7l2 1v3l1-2 1-2 1-3c1-4-1-5-5-4m-428 3c-2 3-1 7 2 7s3 0 3-3c0-2-2-5-3-5l-2 1m77 1c0 3-5 5-6 3h-1l8 19 3-1 4-1c2 1 1-1-2-7l-4-10c-1-4-2-5-2-3m191-1c-1 1-1 1 1 1 2-1 4 3 3 5v4l1-2v-1c3 0 3 2 1 2l-1 3-1 2-1 2c0 2 1 2 4 1 2-1 3-4 0-5v-1l2-2 2-2h1l-2-1c-2 2-3 1-3-1l-2-2v-2c0-2-3-2-5-1m-60 2c-2 3 0 7 3 7a4 4 0 10-3-7m14 0l-1 2 1 3a4 4 0 100-5m-276 2l1 3c1 0 2 1 1 2l1 1 1 2h-2c-1-3-2-2-1 0 0 2 1 2 4 1s3 1 0 4c-2 3-3 3-3 2-1-1 0-2 1-2l1-1a3 3 0 102 2l1-1c0 2 4 1 5-1l4-4-1 1a2 2 0 000 5c2 0 2 2-1 2v-1l-1-2v6l2 1v4l-2 2c-2 2-2 2-1 3 2 2 2 2 0 4-1 1-1 1 1 3 3 3 3 3 5 0s2-7 1-7-3-4-2-6v-4l-1-2 2 2 1 3 1-3c1-3 0-4-1-4h-1v-3c-1-1-1-2 1-3s2-1-2-4c-4-2-4-2-4 0 1 2-1 4-2 3l-1 2-1 2-1-2c1-1 1-2-1-2l-2-4v-2l-3-2h-2m315 0l2 5 2 4-3-2c1-1-3-5-4-5l-2 1 1 1c2-1 2 0 2 1l1 2-1 2v4c3 2 5 1 6-1l1-1 1-2 1-3v3l1 2c1 0 2-1 1-4 0-2-4-4-4-2l-1-1-1-4-1-1-2 1m172 0c-2 4-1 5 7 14 8 7 9 8 12 8 3-1 3 0 3 2-1 4 0 5 4 5 3 1 5 0 5-5-1-2-1-3-4-3-4 0-4 0-4-3 1-4-14-19-19-19l-4 1m-359 2c-2 0-2 1-1 4a3 3 0 106-3c0-2-1-2-5-1m291 0v1l1 1 3 3c5 2 5 2 2 4l-2 1 2 2c2 2 3 3 3 1 0 0 0 0 0 0l2 1c0 3 3 5 5 5 3 0 3-2-1-2l-3-2 3-1h3c1-1 12-1 17 1 3 0 3 0 2-2l1-2 1 3-1 3v2l1 1 2-1 1-2 3-3c6-2 5-4-2-1l-1-1c-1-2 0-2 1-2l2-1a1 1 0 112 0l1 1v-2l2-3c2-1 1-1-5-1-7 0-8 1-9 2 0 3-4 3-4 0 0-2 1-3 6-3h5l-4-2c-4-2-37-2-39-1m-287 7l-3 2 4 6c4 0 5-2 4-6-2-3-3-3-5-2m-97 1c-4 3-2 6 2 4l2-3h1c2 1 7 0 7-1 0-2-10-1-12 0m13 1l-1 1-11 4c0 2 4 4 5 3v1c0 2 2 4 4 4h3c2 1 5-1 5-4l2 1c4 4 8 2 5-1-1-2-1-2-3 0l-2 2 1-3c2-2 2-2 1-4-1-1-1-1 0 0 3 2 5 0 3-3s-4-2-6 2l-3 4c-2 0-2 0-1-1 2-1 5-6 5-8h-4c-2 0-3 0-3 2m252-1c-2 1 3 4 6 4l4 1h-2l-1 1 5 1 1 2c0 2 1 2 4 2s4-1 4-2l-1-1-1-1-3-2v2l1 1c-1 1-5-3-5-4 1-2-6-4-7-2h-2c0-2-2-3-3-2m-324 2c0 3 0 3-3 3-4 0-10 2-12 4h3l6-3-2 1c-4 2-7 6-7 8s-1 3-2 3l-2 1 2 1c2 0 2 1 2 3v1c2 0 2 1 2 4l3 1 5 1c1 2 1 2 3 1 1-2 3-2 4-1 0 2 2 1 1 0l2-3c5-4 5-14-1-18l-2-2a14 14 0 019 8l1 1c-1 1 0 2 1 2v9l-1 3-2 4-2 2-2-2-2-2h-2c-4-1-6 0-4 3 3 2 4 3 4 1s1-2 3-1c3 4-10 5-17 2-4-2-6-4-4-4l1-2h-1c-2 1-2 1-3-2-3-6-3-8 1-7 2 0 2 0 0-1s-2-3 0-6c2-4 1-5-2 0-7 12 5 28 20 25 17-3 21-22 6-32l-6-6-1-2 1 2m115-1l-9 32c-2 8-1 9 2 11 2 1 3 3 3 5 1 4 3 4 3-1 0-10 1-14 4-15 3 0 3 0 2-3-2-5-3-12-3-20-1-9-1-12-2-9m169 2l-2 2 6 6c6 7 8 7 8 3l-2-4c-2 0-3-1-3-2h1c3 3 4 2 4-1 0-2-1-3-2-3v-1c4 0 2-2-3-2l-7 2m13-1l2 1 3 1h-3c-2 0-2 1-2 5v10l1-1 2-2a6 6 0 003-5h3c-2 2-1 3 2 3 2 0 2 0 1 2-3 2-2 4 1 4l3-2 1-1 1 2c2 0 1-9-1-11-3-3-5-1-2 3l2 4c-1 1-3-1-3-3l-2-2c-2-2-2-2-1-3 3 0 2-2 0-4s-11-3-11-1m-20 6l-1 8v4h4c5 0 5 1 0 1-4 0-4 0-4 4l1 6v1l-1 3 1 3 1 1 4 1c3 0 3 0 1-2l-2-2c-1 1-2 0-2-1l1-1c2 1 12-11 13-14 0-4-5-7-8-4a1 1 0 11-1-1c3 0 5-2 3-4s-2-2-4 0c-2 1-3 0-1-2 2-1-1-2-3-1-1 1-1 1 0 0 1-2 1-5-1-5l-1 5m72-2l-1 1-2 4c0 3 3 5 4 3h3l-1 1-2 1 3 1c5 0 5 0 2-3-2-2-5-2-6-1s-1 0-1-2l1-3 2-1h2l-1 2-1 2c2 1 4-3 3-4-1-2-6-3-5-1m144 1l-4 1c-2 0-3 1-2 4 0 2 7 6 7 4l3-1 6-1h3c1 1 1 0 1-1 0-2 0-2-2-2a16 16 0 01-12 1l-2-1h4c3 0 3 0 1-1l-2-3h-1m-436 2c-1 1 0 3 2 3l1 2c1 2 0 2-2-1l-2-2-1 2-1 3v-3c0-5-3-5-3 0v4h8c9 0 10 0 4-6-4-5-4-5-6-2m-65 1l-3 3-2 2-1 3 2 2v1c-1 2 2 5 5 4 2 0 2 0 1 1 0 2 0 2 2 2s3-1 3-2c1-2 4-4 4-2l-1 1-2 1h3l2-3 1-2 1-3c0-2-1-3-2-3l-1-1c1-2 0-3-2-4-4-2-6-2-10 0m-1 1v3l-2 2c-2 1-2 1 2 3v6l2-1 2-2c2 0 2-11-1-11h-3m8 0l-1 9c0 3 2 2 5 0 4-3 4-4 1-4-3-1-4-3-2-3v-1c-1-2-3-2-3-1m90 1l-1 4v4l-1-3c0-4-2-4-4-2l-2 2 2 1c2 1 2 1 0 1s-3 1 0 3c2 2 2 2 4 0 1-1 1-1 1 1-1 2 0 4 2 3l1-15-2 1m234 1l2 2v5l-2 3h7c1-1 0-2-1-4l-2-2h3l3-1-1-1-2-1-7-1m-138 5c-3 3-3 2 5 12l5 7-1-3-2-3a9 9 0 01-4-5s-2-1-2-3c-2-2-2-2 0-4l2-2 2 3c2 1 3 3 2 3l1 1c3 1 6 6 4 7v1h4c1 1 1 1 0 0l-2-3a245 245 0 01-11-14l-3 3m-134 1l-1 3c0 2 2 3 3 1l2-1h5c1 1 0 1-1 1-4 0-4 1-2 4 1 1 1 1 3-1l5-4c3-2 2-3-5-4a5 5 0 00-7 2c0-2-1-3-2-1m16 3l-2 3-1 1-3 2c-2 2-2 2 2 4l6 1c1 0 2 0 2 2h-8c-1 1 1 2 6 2 8 1 11 1 16-4s5-5 3-6-2-1-3 1l-4 3-2-4-3-3c-1-3-5-3-5 0l1 4-2 1c-3 0-3-1-1-2 2-3 1-7-2-5m232 1a6 6 0 00-1 8l-1 2a3 3 0 001 4c-3 0-1 3 2 3 9 0 12-4 6-9l-6-7 6 5c6 6 6 6 8 3v-11l-1 4c0 3-1 4-3 2l-3-1-1-1h4c2 0 2 0 2-2 0-3-10-3-13 0m-391 2c-7 4-16 13-16 16 1 2 7 3 10 2h3l1-1 5-2a10 10 0 006-4c2-1 2-1 0 0l-3-1 1-1 10-6-5 2-6 2 4-3c8-4 6-4-4-1-12 4-13 4-7 0 8-5 8-6 1-3m380 4l-6 6 2 3c2 1 3 2 4 1h1l4 1c4 0 4-3 1-3l-2-1h2c1 0 2-1 2-3s0-2-2-2l-2 1-1 3c-1 1-1 2-2 1v-1l1-4c0-2 0-2 1-1 1 2 5 0 5-3 0-5-2-4-8 2m211 3l-1 4v3l8-1 4-1h6c2-1 0-1-6-1-8 0-10-2-2-2h4l-4-1c-4-1-5-2-1-2l4 2c2 1 7 2 8 0l-3-1c-4 0-4-2 0-2h3l-3-1-10-1h-7v4m-118 28c-2 2-2 3-2 8v9c0 3 1 4 3 5h3l4-4 4-5h3c3 0 3 0 3-2-3-5-2-11 0-11 4-2 0-3-9-3-6 0-7 0-9 3m2 0c-1 2-1 2 3 1 3 0 3 0 1 1-3 2-3 3 0 3l2 1 2 1 2-2 1-4a12 12 0 00-11-1m-63 14a503 503 0 012 23c1 1 6-3 6-4l-8-20v1m-5 7l-5 9c-4 6-4 6-1 6l3 1c1 3 2 1 4-14 1-8 1-8-1-2m184-3c-1 9-1 18 1 18s2 0 2-12l-1-7-2 1m-122 9c-2 5-2 5 3 7 5 1 10 1 13-1 2-1 0-4-5-4l-6-3-4-3-1 4m70 14l2 2 1 4 1 2c2 1 5 0 4-1h2l2-1-2-2-3-1h2c4 0 5-1 2-3h-11"
    itemprop="light" fill-rule="evenodd" tabindex="-1" fill="url(#16282281824-posters-1653312626665-vertical-light)"
    fill-opacity="" stroke="url(#16282281824-posters-1653312626665-horizontal-background)" stroke-opacity=""></path>
  <path id="16282281824-posters-1653312626665-regular"
    d="M0 22v22l4-1c13-7 59-9 70-3a235 235 0 0126 18l-5-5a14 14 0 01-6-5l-1-1-1-1c-1 1-12-7-14-9l-3-1h-8c-3 0-3 0-2-1l-4-1-7 1a395 395 0 00-41 0l2-2c-1-1 0-1 1-1s2 0 1-1l1-2c2-1 3-4 1-4a1 1 0 010-2l1-2 1-5c0-3 0-3-3-4-5-1-3-2 5-2 6 0 7 0 7 2l-3 1c-3 0-3 0-3 5 0 3 0 5 1 4l2-1c3 0 4-2 4-6s3-8 4-5l3-2 3-1h1l2-4 2-3H0v22M73 2l17 7-2-1c-1-1 0-1 1-1 3 0 3 0 3-2h1v3l-1 2 20 10c0-1-1-2-3-2C98 14 91 7 99 8c3 0 3 0 1-1-11-6-12-7-13-6l-2 1V0c-2 0-4 2-3 3l-1 1-1-2c0-2-2-2-3-1h-2l-4-1c-2 0-2 0 2 2m42 0l1 2 2 3 2 2 3 2h2c1-1 2-1 3 1s2 3 3 2l4 2c3 2 5 2 5-1l1-3 1 4v4c1 0 2-11 1-13h-3V6l-1 5-1 6-1-3-1-4-1 1v3l-1-3c0-3-2-6-3-4v5c-2 1-2 0-2-5 0-7 0-8-1-5-1 2-1 2-1 0 0-4-2-2-2 3 0 7-2 6-3 0l-1-5v3l-1 3c-1 0-2-1-1-3a2 2 0 10-4-1m45 1l6 2 1 3v3l-3-1-4-4c-1-3-3-4-5-2l-2 1c-1-1-1-1 0 0l3 1 2 1 5 3 4 2 2-2 3-1 6 2c3 2 6 3 6 5 1 2 5 3 5 1l13 6 3 3v-1l1-1-8-5-43-19 5 3m7-3l15 7 24 11 10 4-6-3a1052 1052 0 01-25-12c-4-2-5-2-5-5 0-2 0-2-1 0v2l-5-2-7-2m86 1h8c1 0 2 1 2 5 0 5 1 6 2 4 1-4 3-5 6-4l6 2 2 1 2 1c2-1 3 0 1 2-2 1-3 3-1 2a5 5 0 018 4l1-1c0-2 2-1 2 1 1 1 1 1 0 0l-1 2c1 2 1 3-1 4v1c2 1 2 23 0 22h-6c-3 0-2 0 2 1 4 0 5 1 5 3 0 3 7 3 7-1 0-2-1-3-3-3s-2-1-2-5l5-19 3-5 8-1c6 0 8 0 10 2l6 2c6 1 8 3 7 7a4 4 0 106-2c-2-2-1-4 3-8l4-5 6-5c11-8 11-8-12-8-13 0-20 0-19 1l3 1 2 1h-3c-4 0-4 2 0 5 2 2 2 2-2 0s-6-4-2-2c1 0 2-1 0-2V2c0-1-4-2-10-2l-10 1v1l-1-1c-2-2-20-1-21 1h-1c-1-1-3-2-15-2-11 0-12 0-7 1m108 1c1 1 3 4 6 5l6 5 4 6c4 4 5 7 3 10s0 5 3 5c2 0 2-1 2-4s4-7 9-7l5-1 10-2h7l4 6 3 8 1 7c2 4 1 8-2 9-4 1-4 5 0 6 2 0 3 0 4-3 1-2 1-2 6-2l7 1 5 1c4 2 6 1 4-1-2-1-2-2 0-4 3-3 3-3-2-2-8 1-7-3 2-6 4-2 4-2 5 0 1 1 1 1 2-1 3-6 4-3 1 5 0 2 0 2 2 2l3-1-4 4c-4 5-4 5 0 8 3 2 3 3 5 0 2-2 2-4 0-6-1-1 2-6 5-6 2 0 5 5 4 6-3 2-2 3 0 6l2 2 3-2c3-3 4-4 2-6-2-1-2-2 1-4l2-3 3 2c3 3 3 3 1 6-1 2-1 2 2 5l2 2 3-3c3-2 3-2 1-4-1-2-1-3 2-7v-2c-2 2-3-3-1-5v-2l1-1 4-4 4-2 3-1-3 3a4 4 0 00-3 4c-2 2-1 3 2 3a11 11 0 019 3l-3 1h-3c-4-1-6 0-4 2l1 2-3-2-2-1c0 1 5 6 6 5l-2 2-2 3 2 2c3 4 4 4 7 1 2-3 2-3 0-5-1-2-1-2 2-4l2-3 3 3c2 2 2 2 1 4-2 3-2 3 0 5 5 4 11-2 7-6-1-1-1-2 1-4s3-2 4-1c2 2 7 1 6 0 0-2 0-2 2-2 3 0 6-2 4-3l-1-1-4-2-3-3c1-1 0-1-2-1h-2l3-2c2-2 2-3 1-3-2 0-3-2-1-3a2 2 0 10-2-2l-2 1h-5l-1-4c0-1-1-1-4 1h-2v-2l-1-1c0-3-2-3-4 0-3 5-4 5-3 1 0-4-3-8-6-8V8h4c5 1 10 1 9-1l-3-2c-1-1-2-1-1-2 1-4-20-4-22-1l-2 2 1-2c1-2 1-2-16-2h-17l-1 2c-1 5 3 7 4 3 1-1 4 0 4 2s-8 6-10 6l-7-4h2c1 1 1 1 1-1V7c2 1 2 1 2-1 0-6 0-6-15-6h-14v11l-2-3c-3-3-4-4-1-6 1-2 1-2-19-2-19 0-20 0-21 2l1 3-1 3c-1 2-1 2-1-2V1l-1 2c0 4-1 5-4 4s-5-5-3-5l2 1c0 2 3 1 3 0 1-2 0-3-4-3-3 0-4 0-3 1l-1 1c-1 0-2 0-1-1l-2-1c-2 0-2 0-1 2m221-1l-4 22-3-1c-1-1-1-1 0 0l1 3h1c2 0 3 2 1 4v3l-2 1c-1 1-2 2-3 1l-2 1h-2c-2-2-4 0-4 3 0 2 0 2-2 1-3 0-4 2-2 6 1 2 1 3-1 4-1 2-1 2 2 5l2 2 3-2c2-3 2-3 1-5-2-3-2-3 1-5l2-3 3 2c3 3 4 4 1 6-1 2-1 2 1 4l4 2c1 0 2 6 1 7l-1 3c0 2 0 2-1 1v-3l-1-2c-2 0-2 1-2 2 1 1 0 2-1 3l-1 3c1 1-3 0-5-2l-2-3c1-3-10-3-11 0-1 1-1 1 0 0 0-3-12-2-13 1-3 5-11 5-13 0-1-3-10-3-11 1 0 2 3 6 6 6 1 0 2 1 2 4 1 3 5 8 7 8l1-2 6-1a6 6 0 004 0h4c5 2 6 1 4-4l-2-4 7 4v5l-1 1 3 2c2 1 2 1 1-2l1-6c3-3 4-3 4 1l2 3c2 0 2 0 0-3-2-4 0-7 3-4 1 2 2 2 3 1 3-2 7-1 7 2l2 4 1 4-1 3 3-2c3-2 4-2 9-2 3 0 4 2 1 2l-5 2-5 4-3 1h2l5 1c2 1 3 1 7-2l28-14 23-12a257 257 0 0133-16c-1-1 28-16 29-16l1 5c1 6 1 5 1-4v-8h-3l-5-3-2-2-2 2c-2 2-3 3-4 2-2-1-2-1 1-3 5-3 6-8 0-7-2 0-4 2-2 2l3 1-1 1h-2v2c-2 0-4-6-3-8 2-2 0-3-2-2h-2l2-2c3-4 2-3-7 2s-12 6-12 5l2-2h-2c-3 1-7-1-7-4h-1l-3 1h-3l-3 1c-1 0 1-2 9-6l11-6-28-1c-28 0-28 0-29 2l-2 3 1-3c0-2 0-2-6-2-7 0-7 0-8 3l-1 4V3l1-3h-11c-8 0-10 0-9 1m123 1c-1 1 0 2 2 3 3 1 3 3 0 3-2 0-2 0-2 2v1l-2-1c0-2-5-2-5-1 0 2 4 5 6 4l2-1 3-2c3-2 4-6 1-6s-3-2 0-3c2-1 2-1-1-1l-4 2M104 9h-3l-4 1 8 5h4l-3-2c-3-3-2-4 2-2 2 1 2 2 2 4s0 2 1 1c2-2 2-2 6 0l5 3-4-2c-4-2-6 0-3 2l3 4a2 2 0 002 0v-1h2l1-1c-1-2-1-2 1-2l-12-7c-8-4-10-5-8-3m371 2h-4c-1-1-2 0-3 4l-4 5-3 5c-2 4-4 5-5 3l-1-2 1 4c2 5 2 5 6-2s5-8 6-3c2 5 4 6 6 1 1-3 3-2 2 0 0 2 0 2 3-1l3-4v-2c2-2 1-3-1-2-2 2-3 2-3 1-1-1-2 1-3 5-1 3-3 2-3-2l-1-3v3l-1 2-1-8 4-1 5-4-3 1m-57 2c-1 1 0 2 1 3l2 3 1 6 3-2 1-2 1 2 1 2c2 0 1-3-1-5l-3-4c-2-4-3-2-1 1 1 3 0 2-3-2l-2-2m232 6v20h3l3 1c0 2 0 2 3 2 4-1 4 0 2 3-1 4-1 4 1 4l2 2c1 2 12 0 12-2s4-5 6-5c1 1 2 0 3-1s-1-1-6-2l-8-3c-2 0-2 1-2 4-1 3-1 3-1-1-1-5-1-5 9-2 7 2 11 2 8 1-1-2-1-2 1-1l3-1h2l1-1h1l1-1 1-1c5 0 6-6 1-7l-24-7c-25-7-23-7-22-2m-285-2v1c2 1-1 5-3 4-2 0 0 2 2 4 2 1 2 1 2-1-1-2-1-2 1-1l3 2h1c2-2 3-1 2 3-1 5-1 6 2 7 2 0 3 2 1 2-1 0-3 5-2 7 1 1 1 1 1-1l1-3 3-2c2-2 2-2-1-3-2-1-4-7-2-10v-2h-3l-1-1-1 2-1-2v-2h-1l-1 1-1-3c0-3-1-4-2-2m172 6l-1 2v1l-1 3c-1 3 2 6 7 7 3 0 4 0 1-3-1-2-1-2 1-2l3-1 2-1c1-1 1-1-1-1l-2-1-2-1c-2 1-2 0-1-2 0-3-4-4-6-1m-210 6l1 5 1 3v3h9l-2-1-4-1c-1-1 0-1 3-1a7 7 0 015 1l-4-2c-5 0-8-3-8-8l-1-3v4m-24 6l1 1 1 2 2 1v4c-1 2-2 3-4 3-2-1-2 0-2 2l2 3 1 2h3l1-4v-5l1-5a7 7 0 012-5l-2 1c-2 2-5 2-4-1 1-1 0-1-1-1s-2 0-1 2m38 3v3l1 4c1 3 3 6 5 6s2 0 0-1l-2-2h4c2-1 1-2-2-3-3 0-3-1-4-3a8 8 0 00-2-4M19 44L6 49l-6 3v140h4l6-1h3c1 2 1 4-1 5-5 2-4 10 2 18 5 7 6 13 3 22l-2 6-1 5c-2 6-1 8 3 12s4 5-1 1c-3-2-5-2-5 2l-2 2c-1 1-2 3-1 4 0 2-4 7-7 7l-1 63v62h3l3-1c-1-2 2-4 3-3l-1 1-1 2c0 2 2 1 4-1 1-2 2-2 7 0l8 2-9-5c-2-1-2-1 2-1h4l-2-1-4-2v-1h3l8-1 6-1c-1-1 1-9 2-9l2 2 4 6 3 5-3-1-2-1 2 2 3 2 5 3 3 4-2-4-6-9-7-11c-2-6-4-4-6 4 0 4 0 5-2 5s-2 0 0-15v-4h7c7-1 9-3 12-13 1-4 3-5 10-10l8-6v9c-1 7-1 8-2 6-1-3-1-3-1 1v15c0 8 0 9-1 8-2 0-2 1-2 11l1 12v-6l1-7 1 2 2 7 2 4h61l3-12c2-6 5-14 5-18 1-5 2-6 4-7 4-3 4-3 0-5l-3-2c0-1 1-1 4 1l5 2c1-1 1-1-1-2h2c3 0 4 0 5-2l2-1 3 1c3 1 4 2 3 28v13l3-2c3-2 4-2 3-7-1-3 3-4 4-1 0 2 2 3 4 1 5-5 20 1 23 9l2 4h16v-5c0-6 1-7 2-1v4h50l12 1 5-6 7-9 2-3 5-1 6-1c1 0 9 5 8 6h-3l-1-1h-1c-2 1-1 2 1 3l2 1-4-1c-3-2-5-1-4 2 1 1 0 4-1 3v1c0 2-4 4-8 4l-4 2c-1 2 13 2 21-2 5-2 7-2 9-1l6 1h4v-8l1-8c1-4 0-5-4-5-4 1-4 1-4-2 1-3 3-5 3-3 0 1 1 1 2-1 4-3 3-4-2-4-3 0-3 0-3-2 0-3 0-3 3-3l4-1 1-1 5-2c3-2 5-2 4-1l2 1c2 0 2 0 0 1s-3 3-2 5c1 1 2 1 3-1l3-2h2l3-1c1 1-7 10-10 12s-4 5-1 7c2 3 5 3 3 0-3-3-1-3 3 0 3 2 4 3 8 3h5l-3-3-4-5-3-1c-2 0-3-2-1-4 2-1 2-1 5 1l6 1h2c0 1 1 2 3 2l6 2c3 0 5-1 3-2-2-2-1-4 4-6l4-2 4 3c3 2 3 5 0 5l-2 1 1 1 2 1c0 2-1 2-5 2-5-1-6 0-4 2s2 2 5 1c4-1 5 0 2 2-2 2-2 2-1 3 3 2 1 6-2 6-2 0-2 0-2 4v5h29a248 248 0 0032-1 198 198 0 0043-1l1 1 1-7-1-7-1 3c0 2 0 2-2 0l-4-2c-3 0-2-1 1-8a52 52 0 009-26v2l1 2 1 2 4 13c6 14 6 13 2 15-5 2-5 3-5-9l-2-13c-1-4-2 7-2 16l1 14c0 5 0 6 2 6 1 0 2-1 1-5l1-5c0-2 2 1 2 4 0 2 1 3 3 1l4-2 6-4c2-1 4-2 5-1 0 2 0 2-10 7l-9 5h4l6-1 1-2 3-2h1l-2 3c-1 2-1 2 3 2h4l-1-4c-2-4-2-4 0-4l1 1c-1 5 1 7 7 7l8-1h3l21 1h20l-1-3-1-3 2 1 2 1 1 3c0 1 1 1 3-1h3a18 18 0 0015 1l3 1c2 0 2 0 1-2-1-1-2-2-3-1-1 0-2-2 0-4 2-1-2-7-7-9-4-2-7-5-10-9a181 181 0 00-8-11h-1c0 2 0 2-2 1h-2l-3 1c-2-1-3 0-6 2l-1 3 3-2c1-2 8-3 10-1 1 2-1 3-3 1-1-1-1-1-3 1-2 3-8 4-12 2h-2c0 1 5 5 7 5l8 3c0 4-11 5-18 3-3-2-3-2-2-5l2-6 2-5-3 2c-4 2-12 2-14-1-1-2 0-3 1-2h1v-3c1-1 2-5 2-11v-10l4-3c10-5 30-5 31 0 0 3-1 4-4 4-2-1-3-2-2-3h-1c-1 2-1 2 1 4 2 1 5 1 5-1 1-2 3 0 2 2l-2 4-2 2c0 2 0 2 1 1l2-2v1c-1 2 1 9 2 9v-10c0-11-1-9 12-13l20-9-3-3-2-3-8 1-19 2h-12l-3-2c-2-3-2-3-1-4v-1c-4 0-4-19 0-25 3-3 3-4-4-4s-10 3-6 6 6 16 4 20l-1 4a3 3 0 11-6 1c0-4-2-8-2-4 0 1-1 3-4 4l-10 7-8 3-1 1-5 4-8 5-10 6-6 4-45 1h-45v-4c1-3 0-4-1-3l1-2c2-3 9-4 50-4a1245 1245 0 0039-1l16-9a9 9 0 018-3c-2-1-2-1 1-3l4-2 1-1 3-2 11-7 10-5 1-1c0-3 0-3-9 3a4788 4788 0 01-40 25c-6 4-6 4-33 4l-21 1v-34l1-34c1-1 3 1 3 3l2 4c2 2 2 7 1 8s1 1 5 1 5 0 4-1h-3c-2 1 0-6 2-8 3-3 3-2 6 0 2 3 2 8 0 7l-1 1a4 4 0 007-4c-1-1 3-6 5-6s6 5 6 7c1 3-1 4-1 1-1-1-1-1-1 1s0 2 2 2c3-1 5-3 4-5l2-4 3-4c0-2 2-4 3-2l4 3 4 2 2 1-1-2c-1-1 0-2 2-4 2-4 3-5 1-5l-2 3c-2 3-5 4-8 2-2-2-6-2-6-1s-4 0-13-5c-12-7-13-7-19-7s-7 1-7 3a5 5 0 11-10-1v-3l8-1 7-1 1-20v-20h-13v-4c-1-4-1-4-3-3-2 3-1 4 3 11 5 10 4 15-6 40l-5 14c-3 7-3 7-7 9l-3 1h3c5 0 5 2 1 4l-4 3h-4c-3-3-3-4 1-5 2-1 2-1 1-2l-4 2c-2 2-10 1-14-3l-4-3-1-1 1-2 4-3c2-2 4-2 11-3 8 0 9 0 9-3v-5l3-20 2-10c0-4-2-3-9 1-8 6-11 7-9 4l-1-6-1-5-1-3-3-13c0-1 1-2 3-2l5-1c3-2 4-2 4 2 0 2 4 8 4 6 1-1 1-2-1-6l-1-4c0-3 0-3-4-2l-7 2c-6 0-2-3 4-3 6-1 8-2 8-3l1-4c3 0 4-7 1-10-4-3-4-1-1 4 1 2 1 2-2 5l-3 4h-3c-2 0-4 0-6 2l-4 2v-4c-1-3-2-4-4-5l-2-2 3-3 3-6 1-3 1 1c0 2 10 3 12 1l-4-2-6-2c-1-2-4-3-6-4-3-1-3-1-5 4-3 7-5 15-6 29-4 41-8 55-19 77-3 7-9 15-10 15l-2-2c-1-1-1-2 1-1l3-2c1-2 1-2-1-1-2 0-2 0-2-2l-1 1c-3 4-3 2 1-6 10-20 16-41 19-70 2-19 4-29 8-39 3-6 4-7 2-7s-7 13-9 23c-1 5-3 8-11 16l-4 6 4-3 4-3 1-2 1-1c1 1 2 0 2-1l-2 21c-1 12-4 26-6 33-2 4-3 5-6 6-2 1-2 1-1 2h2l1 1-1 2-1-1h-2l-1-3c1-4-2-4-4 0-1 4-1 4 3 5h4l1 1c-8 20-9 21-12 17-1-3-2-3-8-3-7 0-8-1-8-11 0-7 1-8 8-9l5-1v-3c2-2 2-2 0-2-1-1-1 0-3 4 0 2-3 1-5-1s-2-3 0-5 2-2 1-6l-3-24h3a80 80 0 0021-11l1-1-4 1-19 10c-3 0-6-3-4-6v-2c-1-1-4-7-4-13l-2-6-1 2 1 6 1 4-2-3c-2-3-3-1-1 3 2 2 2 2-4 7-8 7-11 10-12 8l-1-3c-2-1-2-1-1 2v36c0 6-1 8-2 9v1c2 2 1 13-1 16v3c2 3 0 6-3 4h-2l-1 2c-2 0-1-3 1-7s1-5-3-3c-8 4-9 7-9 17l3 15c2 5 2 6-2 6-2 0-3 2-3 8l-1 12-1 6h-26c-43-1-41-1-46-5a16 16 0 01-6-4l-14-9 1-1h-1c-2 0-8-4-7-5 1-2-3 0-7 2l-7 3-3 1v4l-2 1c-3 0-4-1-4-4 1-4-4-6-9-3-4 1-7 1-7-1h3c5 0 6-2 3-6-6-8-3-20 7-26l4-4h1l2-3c0-3 2-4 2-1h1l1-2 1-1c0-2-5-1-6 1-4 6-9-2-7-9l2-5-4-3c-5-4-6-4-3-4 5 1 6 0 6-5 0-3 0-4-1-3-1 2-2-1-2-6l3-5c2-1 2-1 0-2l-2-3c0-2 0-2-2-2-2 1-5 0-4-1h1l5-2c4-2 7-2 3 1-3 2-2 6 2 7h3c1-1 1 0 1 1 0 3-1 4-3 2-1-2-4 0-5 5l1 3c3-1 4 9 1 11-4 3 0 4 4 2l3-1v-9c0-20 1-28 4-25h2c2-1 6 1 6 3-1 1 0 2 1 2 2 0 3-2 2-4-1-1 0-2 1-4 3-4 2-6-1-4l-4-1h-3l-4 1h-3l2 1h2c0 2-5 1-6-1-2-3-1-5 2-6 4-2 4-3-1-2-4 0-8 2-5 2 2 0 0 2-2 2v-1h-3l3 2c3 2 4 6 2 6l-1-2-2-2-3-2h-5l-3 1v1c-2 1-2 2-2 5l-1 5-1-5a5 5 0 012-6l-27 8-29 8c-4 1-5 2-2 2l5 3 5 3 3 1-1 1c-3-1-4 1-2 4l1 5c-1 4-1 4 2 6l6 5c-1 1-2 0-3-1-2-3-6-4-6-3l-4 2c-3 1-3 2-2 2 2-1 3 0 1 2v7c1 2 4 3 7 1l3-1c1 1-6 4-8 3s-2-1-2 1c0 5 1 7 5 8l12 6c9 6 19 10 21 9l-1 4c-2 6-3 17-2 22 1 6 1 6-5 4-11-5-18-10-17-14v-2c-1 0-6 16-7 25-1 7-5 13-8 13-1 0 0-31 2-33 2-3 0-2-3 2-5 4-22 9-25 6-2-1-2-2-2-5v-3l-4 2-10 3-6 2 1-3v-6l-1 2c-1 3-2 4-5 4l-1 1v1l-1 1-1 2-2 3 6-2c7-3 8-3 5 4-2 4-2 6-2 15v11h-4c-12 0-19-8-19-20 0-30 14-53 35-56 4 0 4 0 5 4 2 3 2 3 2 1l-1-4c-1-3 0-5 1-2 2 1 2 1 3-2v-4l-2-4-4-3c-3 0-7-6-7-10v-7l1-4 3-1c3-2 4-2 4 1s0 3 7-1l11-5c4-1 5-2 4-3l-3-2c-2 0-1-2 2-2l12-4 84-25c49-15 72-22 73-24s-1-3-7-1c-7 2-9 2-9 1l4-2c7-2 9-3 9-5l2-2 1-5c0-5 0-5-3-5-2 0-2 0-2-2 1-3 0-4-6-8l-8-6c-1-2 3 1 6 3l4 3 2 2h7c1-2 1-2-3-6l-4-5c0-1 1-1 2 1 2 1 2 1 2-1h1c3 2 3 1 3-10 0-6 0-10-1-9l-1-1c0-2-1-2-3-1l-4 2c-2 1-2 1-2-2l5-5c2 0 0-2-2-2l-2-1-1-2v-1l2 1 5 1h5v-9h-18l2 2c2 2 2 2 1 5-2 4-4 4-5 0l-3-3-2-1-2-2c-3 1-4 0-1-1s4 0 6 1h2l-3-3c-3-1-5-3-6-6l-2-4-1 3c-1 3 0 4 1 5v2h-3l-5 1c-4 0-8 3-4 3 1 0 3 1 3 3 2 2 2 2 4 1 4-2 5-1 4 6 0 1-1 2-3 2-4 1-5 4-1 3h6c2 0 3 1 3 4l-1 4-1-1-2-3c-3-2-4-2-2 2l1 3 2 1c2 1 2 3-1 3l-2 2a5 5 0 01-8-2l-1 2c0 2 0 2 2 2 2-1 3 0 1 2v2a1 1 0 11-2 1c1-1-4-4-6-4l-2-1-3-1h-1l-2 1c-1-1-2 0-3 1-2 3-2 3 2 4 3 1 3 1 2 3-2 0-2 1-1 1v2c-2 2-3 1-4-2 0-3-2-4-2-1v3l-2 3v3c1 4 0 10-1 8-2-2-3-1-3 1l2 2a1 1 0 11-1 3c-2 0-3-1-2-2l-1-2c-2 0-11-4-12-6-3-3-4-6-3-6a7 7 0 017 6h2l5 2c4 0 4 0 3-1l-2-6-1-3 2 2 2 2v-13h-2l-1 1c0 2-2 3-3 1h-2c-3 0-3 0-2-2 0-2 1-3 3-1 1 2 2 1 2-1l-2-2-2-1c-1-1-2-1-3 1-4 3-5 4-5 1 1-1 0-2-4-3-5-1-5-1-5 6 1 4 1 5-1 5l-1-1h-3c-3 2-4 3-1 3h2l-2 2-4 1v3c0 1-2 0-2-2l-2-2 1 4c0 3 0 3-1 2-1-2-4-3-4-1 0 3-6 0-6-2l-2-7v-1l2 1c1 1 2 2 3 1s1-1-1-3c-2-1-2-1-1-21 0-23 0-24-11-38-10-13-44-44-54-48-5-2-42-2-50-1m318 4c-2 1-1 3 2 2 2 0 2 0 2 2l-1 2h-2c-3 0-4 3-2 5l2 1h-2a2 2 0 101 3c1-1 2-2 3-1l1-1 2-2v-1c-2 0-2-1-1-4 0-5-2-7-5-6m40 1c-2 1-3 3-1 8 1 3 1 3-1 2-2 0-2 0 0 2l3 1c1 0 3 3 2 4l-2 1-2 1 3 1c3-1 3-1 3 2l1 2v-9c0-3-1-3-2-2l-2-1a4 4 0 018 1v-2c-1-2-2-3-3-2l-3-2-3-2-2-2 3-1a3 3 0 003-2h-5m80 19l-2 7-2 5c0 3-4 7-6 7-3 0-4 1-3 2l1 3c1 2 1 2 3 0s7-1 10 2c2 3 3 2 2 0l1-5c1-1 1 0 1 5v4l3 1 4 2c2 0 2 1 2 3 0 7 11 10 18 5 3-2 4-4 1-4-2 0-2 0-2-9-1-7 0-7 4-3s5 8 3 15c-3 5-9 7-27 7h-4v20l1 19 1 1-1 1h-1c-1 13-1 13 1 16 2 1 2 3 2 5-1 2-1 2 1 1v1l-2 1-1-1-1 2v6c-1 5 0 6 3 5l2-4c0-3 1-3 3-4 3-2 6-6 6-12v-3l1 4c1 5 3 8 7 10 3 1 3 2 3 5 0 2 0 3 2 3l5 3 3 3 3-3c3-3 4-4 2-4-3-2-5-1-5 1l-1 2v-3c0-2 0-2-2-3l-2-2h1l3 2v-4c-1-2-1-3-4-5-4-3-4-6 0-9 3-2 3-3 2-4s-1-2 1-3h2l3-3 2-4-3-1c-4-2-13 1-13 4-1 2-1 2-1 0l3-3 4-5 1-5c1-2 0-3-1-3l-1-2-3-3c-3-1-5-6-2-6l1 2 1 2 1-1 3-1a3 3 0 004-1v1l1 4c1 1 1 1 2-1 0-1 1-2 3-2s3 0 3-3 1-4 2-4v2c-1 1 0 3 1 5l2 5c0 2 0 2 2 1s3-4 1-4v-1c2-1 4 0 4 2 0 1 1 3 3 3l3 2c1 0-3 7-5 8-4 2-4 3-1 6 2 2 3 3 5 0l4-2c5-2-1-24-6-24l-3 1-9 1c0-3 2-6 5-6s4-1 2-3l-2 1c-1 1-7 0-9-1 0-1 4-6 6-6l1-2-1-3-2-2c-3-1-3-2-3-6 0-5 0-5 1 1 1 3 1 4 4 4l4 2c2 2 2 1 6-2 2-2 2-2 1-3-2-1-5 0-5 2-1 2-1-6-1-9 0-1-1-3-3-3-5-3-5-6-1-9l3-4a2 2 0 113 0c-1 1 2 5 3 3 1-1 2-1 3 1l4 1 1-1c-5-2-9-8-5-8 2 0 1-4-2-6l-5-6c-4-5-9-5-14 0l-4 3-1 7-1 7v-7c0-6 0-7-3-7-1-1-3-2-3-4-1-2-2-2-6-2s-7 2-5 3v1l-3 2-2 3 1-3c3-5 3-6-3-6-5 0-5 0-9 4-3 4-6 3-7-3-1-1-1 0-1 3m-21-3v3c-1 2-1 2 1 1l2-2c2 0 1 3-1 4v1l2 1h2c2 2 1 8-1 9s-1 2 1 1c1 0 2-1 2-3l1-3 1 2v1l1-2-1-3c-1 1-5-4-5-6s-5-5-5-4m80 3l-5 4c-3 2-4 3-4 6 0 2 0 3-2 4l-5 4-1 2-5-4c-3-3-4-4-4-6 0-3-1-4-4-6-4-2-4-2-3 0l4 3 2 4c0 3 0 4 2 4 3 0 7 6 7 10v3s2 0 2 2c2 1 2 1 0-3-2-6 1-10 6-12 3-1 3-2 3-5 0-2 1-3 3-4 3-2 5-5 5-6h-1m-143 9v12c-1 19-3 23-10 21l-2 1c0 2-5 3-13 3l-4 1c5 0 9 3 6 5l-1 5c0 3 0 3-1 1v-7h-1l-2-1-4-2-2 1 2 1v1l3 4c2 1 2 3 2 5l1 4 1 2h2c5-1 14 0 18 1 3 1 9 7 9 9h2l3-2h3c2-2 1-3-1-2-1 0 3-6 5-7l1-1 1-2v-1l-3-4c-1-4-3-6-2-1 0 2 0 2-1 1-2-2-2-2-3-1h-2l2-1c4-2 2-5-6-11a5 5 0 01-3-7l3-14c4-16 4-15 0-16-2 0-3 0-3 2m105 4v3l-3 4-3 4c0 2 4 5 6 5l1 1h2l3-3c3 0 2-6-1-8l-2-3c1-2-1-4-3-3m62 5c-3 4-3 8-1 5 2-2 3-1 3 2-1 2 1 7 3 7l3 2 5 1 5 1h4l3-4c5-5 0-10-6-6-3 2-3 2-1 2 5 0 6 2 3 4l-3 1h-3l-2-1-2-2-1-1a5 5 0 01-2-8c1-2 0-4-3-4l-1-2-4 3m25-3c-2 2-2 3-1 7 1 2 1 2 2 1 1-2 1-2 2 1s4 4 5 1l1-3c1-1 1-1 1 1v2c2 0 2-6 0-6-5 1-6 0-6-2 0-3-2-4-4-2m-273 4c-1 2-1 2-2 1h-7c-1 1 0 1 2 1 3 0 3 1 3 7l1 3c1 0 2-6 1-8-2-2-1-2 2 0s6 3 7 1l-3-1c-2 0-3 0-3-2 0-3-1-3-1-2m237 4c-8 3-11 5-11 9 0 3 0 4 2 3l4-2-2-1h-3l3-3c3-3 8-3 6-1l3 1c3 0 3 0 2-1v-2c2-1 3-4 1-4l-5 1m-264 4l-1 1c-1-1-2 2-1 4l-1 2v1h2l3-2 2-2 1-1c0 2 2 1 2 0a1 1 0 113 0c0 1 3 2 3 0s-2-3-6-3l-5-1c-2-2-3-1-2 1m270 2c-2 2-1 6 2 6v1c-1 2-1 3 1 3v5c3 0 5 3 5 7 0 2 0 2 2 1 1-2 1-2 2 1 2 5 4 5 4 1s1-5 2-3a4 4 0 000-6c-1-2-2-4 0-2h4l1-2v-1l-2-1h-1l-5-1c-4 0-5-1-5-2-1-2-2-2-3-2-3 1-4 0-2-1 1-1 1-2-1-3-3-3-3-3-4-1m35 3l-4 6-2 2c-2 1-1 5 3 7s6-1 3-6c-2-4-1-6 1-3 1 2 5 1 5-1l2 1c1 2 2 2 3 1 2-2 1-3-1-5h-1c2 2 1 4-1 2l-1-4c0-5-3-5-7 0m-40 7l-4 3c-2 1-2 1-1 3 2 3 0 7-2 7-3-1-4-4-2-7l1-2a10 10 0 00-1 13h2c-1-3 1-2 2 1l4 2 4 1c1 2 1 1 2-2l-1-3-1 2-3-1c-4-1-4-5 0-9l2-5 2-4c1-2 1-2-1-2s-3 1-3 3m-34 2v1c1 1 0 4-3 5-3 2-3 7 1 9 2 1 3 2 3 4l1 4v-4l2-4c6-2 6-8 1-10l-2-3c1-3-1-4-3-2m200 5h-15a1404 1404 0 00-42 3h-14l-1 3c-2 4-8 7-7 3l-1-2h-2c0-1-1-1-2 1-2 2-1 3 1 3l2 1-2 1c-4-1-8 0-8 2v1c-4-5-9 1-7 7 3 5 2 6-1 9l-3 2h3l6-1c1-1 1-1 0 0 0 2-8 3-9 2-2-2-4-1-4 2 0 4-1 5-3 2l-3-3c-3 0-4 7-2 10v4c-1 2-1 2 1 2 4 0 5 2 2 3-2 0-3 1-3 2-1 2 1 1 4 0l3-2-2 2-3 3c0 2 1 2 8 0 2 0 2 0-1 3-4 3-5 7-3 7 6 0 8-1 10-6 3-6 1-9-6-6-2 0-2 0-1-1l2-2c3 0 2-1-1-3l-2-2-1-2c-2-2-1-3 1-3 4 0 7 3 7 6 0 2 0 2 1 0s3-3 3-1l-1 3c-1 2-1 2 1 2 2-1 3-6 0-8-3-3-3-10 0-8 3 1 4 5 3 9v4l2-4c1-2 3-4 5-4l3-1v-6c-1-7 1-11 3-6 1 2 1 3-1 6l-1 4 4-3 2-3c2-2 2-2 2 0l-2 4-1 2-2 1c-3 0-5 4-2 8l2 2-3 4c-3 4-3 4-1 6s3 1 5-3c2-7 8-8 6-1l-4 4c-3 2-3 2-1 2 6 1 8 1 8-2l1-2v2l2 6c3 4-3 5-7 1-2-3-3-2-2 2l-1 5c-2 1-3-2-2-7 0-4 0-4-3-5l-4-2c-2-2-5-1-9 1-3 2-4 4-2 4v12l-5 3c-3 0-3 1-3 3 0 4-2 13-4 16-2 4 0 5 5 4l3 1c0 3 2 2 3-1 3-6 7-4 5 2-1 3-1 3 5 3 3 1 5 1 6 3l10 7c30 14 53 30 75 52 11 11 11 11 11 8 0-4-6-10-9-10l-4-3-2-2 2-1c2 0 2-1 2-4l-1-3h-7c-6-1-7-1-5-3 1-1 1-1-1-1-4 0-11-6-12-11-1-3-2-4-4-4l-2-1c0-1-1-2-3-2-4 0-13-5-14-8v-5l2 1v1l4 1-1-2c-2-2-4-3-5-2l-2-1 4-1 5-2c1-1 5 2 5 4 0 5 10 0 18-10 3-4 4-5 6-5 2 1 6-3 4-4-1 0-1-1 1-3l1-5 2-5c2-5 2-6 1-6l-4 9c0 5-6 13-9 13-2 0-2 0-1-1h-1l-3-1-6-1-16-6-5-1-5-3c-2-3-2-7 0-6v-3c-2-1-2-1-2 1h-1l1-2c1-2 0-6-2-5-2 0-10-1-11-3-1-1-1-1 0 0 2 1 4 1 6-1 3-2 11-2 11 0l-1 1c-3-1-3 1-1 3s3 3 3 1v-4c0-2 3 1 3 3s0 2 1 0c2-4 3-1 2 4-2 7 1 8 19 8 10 0 11-1 11-2v-13c0-11 0-14 2-10l1 1c1 0 2 1 2 3 1 2 3 3 3 1h2l3-1c1-2 6-1 6 1s4 3 5 2l1-1 1-35v-36h-8l-8 1m-140 1l1 2 1 3 1 5v1h-6c-1-1-2 0-3 2l-3 4-1 3c0 4-1 5-4 3s-3-8 0-8c1-1 2-2 2-5-1-4-1-4-3 0l-2 2-2 1c0 3-1 5-3 6-2 2-2 3-1 4h5l4 3 4 4 2-2 5-4v-2c-1-1-1-2 1-3h3v2l-1 2-2 3 1 1 2-1c0-2 2-1 4 1s2 2 4 0c2-3 1-4-2-3-4 0-5-1-1-4 2-2 2-2 0-2-3-1-3-6 0-7 2 0 2 0 0-2-1-1-1-1 1-1l3-1h2l1-1-4-2c-1 0-4-1-5-3-2-2-3-2-4-1m-301 2l-1 27-2 32v6l3-4 5-3 3-2 3-2c2 0 4-2 6-7 2-3 2-4-1-9-2-6-3-11-1-13l1-5c0-3 0-4 2-5l3-4c1-3 1-3 6-3l8-2c5-5 5-6 0-6-3 0-4 0-2 1 4 0 3 1-1 4l-3 1v-1a4 4 0 003-3c-2 0-11 6-12 7l-2 1-4 1-1 2 2-1h1c2 0 2 1 0 3l-2 5-1 7c-1 2-1 3 1 8s2 6 1 7h-6c0-2-4-3-4-1l2 1v5c-1 3 1 3 2-1 1-2 7-4 8-3s-4 9-6 10l-6 3-5 3v-13c2-1 4-5 2-5l-2-3c-2-4 0-9 3-9l3-2h-1c-3 0-5-2-5-8 0-5 1-7 3-7l1-1v-3c-2 0-3-4-3-7 1-2 0-3-1-1m223 2c0 3-4 9-7 9-2 0-2 1-2 3 0 3-1 4-2 5l-2 1c0 2 5-1 5-4 0-2 2-4 4-6 5-4 5-4 8 0l5 2-2-2c-4-2-5-4-5-9l-2-2v3m109 0l2 1c2 0 3 1 2 4-1 2-2 2-4 2-2-1-2 0-4 3-2 5-2 7 1 5l4-2c2 0 3-3 4-8l2-1 1-1-1-1v-1a4 4 0 00-7 0m12 0l-1 1-1 1 2 1c3-1 5 0 4 2-1 1-1 1 2 1l4-1 1-2c0-2-1-2-4-2s-3 0-2-1h3l1-1-4-1c-4 0-5 0-5 2m-179 0c0 3 7 8 11 7 4 0 4 0 6 4l4 4v9c3 3 2 8-1 14l-2 5 2 4c2 4 4 6 11 11 2 0 3 2 4 3 2 2 2 2 2-3 1-4-1-6-2-2 0 2 0 2-3 0l-3-2h5l1-1-5-1c-5 0-8-2-8-5l-1-2v-3l2-6c2-3 2-5 2-8l-1-8a11 11 0 00-3-8l3 1c2 0 2 0 0-2l-4-2-3-2c-2-2-3-3-6-2-4 0-10-3-8-5l-1-1-2 1m36 1v2c2 0 1 1-1 4l-1 2 1 1v2l2 4c1 3 1 1 1-7v-10l-2 2m-104 0l-1 4c0 4 1 4 4 4 4 0 4 0 3-3 0-5-5-8-6-5m14 0l-3 5c-1 3-1 3 4 4l4 1c1 1 2-7 0-9s-2-2-5-1m203 4l-4 3 4 2c4 1 5 1 3-1v-1c4 1 4 0 2-2l-2-2 2 1c3 1 4 0 2-2-3-1-3-1-7 2m-130-1c-1 1 0 1 1 1 2 0 5 3 8 7l4 3-1-1v-5l2-3h-8c-2-2-6-3-6-2m226 1c-3 1-3 1-2 4 0 5 0 5 4 4 5 0 5 0 5-3 1-5-2-7-7-5m-288 4l-2 4 5 4 3-4c4-6-2-10-6-4m269-1l-3 3-2 3v5c1 1 2 2 1 3l4 1 5-1c1 0 2 0 1-1l2-3v-2l-1-3-1-2-3-2c-2-4-3-4-3-1m-29 1c2 3 10 7 10 4 0-2-4-5-6-5l-4-1v2m-389 3l-3 1-1 1 5 2 2 1 2 1 2 1c2 2 3 1 3-1-1-3-2-4-5-3-2 0-2 0-1-1 3-4 0-5-4-2m377 3c-2 4-2 7 0 8l1 2 2 2 3 2-1-2c-3-2-2-3 0-3l3-2c2-2 3-3 5-3 4 0 4-2 1-5l-6-2c-5 0-5 0-1 4l2 2-2 1-3 3-1-4-2-6-1 3m-128 0v3c1 2 0 2-2 4-5 3-5 8 0 9 2 0 3 1 3 2h1l3-2c1 0 4-4 3-6l-3-3-2-4c1-3-1-5-3-3m108 0c-3 2-2 4 1 5l5 1c1 3 5 2 5-1 0-5-8-8-11-5m-140 2l1 1c1 1 2 2 1 4v6c0 3-2 10-4 11v2c2 0 3 0 4-3a3 3 0 014-4c1 1 1 0 1-2s-1-3-2-3l-2-4c0-2 0-2 3-2h1l-1-3-1-1-2-1a2 2 0 00-3-1m60 1v3l-1 2c-1 1-1 1 1 1l2 1c0 2 4 6 6 6l-1-2-3-4v-3l-2-4c0-3-2-3-2 0m187 1l-4 1c-4 0-4 0-3 1s1 1-2 1h-4 1v4h4l3 1h4c6 1 9 0 5-2-2-2-3-2-2-4l-1-3-1 1m-19 7l-3 1-5 1-2 2 2 2 3 2 2-3c3-2 5-3 5-1-1 2-7 6-10 6-2 0-2 3 1 5l1 2v2h1l1-2 3-2h4c5 2 6 1 3-2-2-2-3-3-2-4l1-2v-1c2 0 2-3 1-4l-2-3c0-1-2-1-4 1m-125 5c-3 5 0 9 6 9 3 0 4 0 4-2l1-3c1-2 0-4-4-5h-4c-1-1-2 0-3 1m135-1l1 2v1c-3 0-5 4-2 4l1 1-2 1c-1-1-1-1 0 0h3a3 3 0 015 1v-3c-2-2 1-4 4-2v3c-2 2-2 2-1 3s0 7-2 7c-1 1-2 4 0 4v1h-2c-2-2-3-2-5 0-5 2-4 3 3 2l6 1c0 1 7-2 7-4h-5c-3-1-3-3 0-3 1 0 2-1 1-3v-3h4c3 1 3 1 1-1-3-3-4-9 0-10s4-2 1-2h-2c1 1-3 2-5 1h-4l-3 2v-2c-1-2-4-2-4-1m-460 1v2l-1 2c-1 1-1 1 1 4l1 2h-3l-4-3h-2l-2 2-3 2c0 1 1 2 2 1l2 1 4 1c3 0 4 1 1 3-2 1-2 1-1 2 2 2 0 5-4 6-5 1-6 1-6-1l-1 1c-1 3-8 5-12 4l-2 1c1 1-3 2-6 2h-3c-1 2-17 7-18 7l-1-3-1-1-1 1c0 4-12 10-13 6-1-1 0-3 2-3l1-1-3 1c-3 1-3 1-5-1l-2-2-1 2c-1 1-1 2-2 1l-1-2c1-2 0-3-2-2h-3c-2-1-2-1-2 1v4l-1 6v4l-12 3-17 5a4226 4226 0 01-79 23l-4 2c0 1-1 2 22-4l161-47c13-4 15-5 16-3 1 1 1 1 1-1s1-2 3-3c5 0 19-5 19-6h-5l-8 2c-5 1-5 0-1-5l4-3-2-5-3-4c-1 2-2 1-2-2l-1-2m284 2l-4 1h3c5 0 9 2 9 3h-1l-3 2c-2 2-2 3 1 4l2 2h1c1-1 2-2 3-1 2 0 7-2 7-4 0-1-7-2-8-1h-1c1-5-3-8-9-6m64-1c-3 2-5 8-3 12s4 4 4-1c0-3 1-3 2-3 2 0 2-2 1-6-1-3-2-3-4-2m66 1c-1 3 0 5 3 5s5-2 4-5-7-3-7 0m-440 3l-2 3c1 1 1 1 0 0-4-1-8 7-5 10 1 2 7 3 9 2h2c1 1 1 1 3-1 1-2 3-3 2 0h3l3-1-2-2-4-2c-2 0-2-1-1-2l-1-3-1-2c0-4-2-4-4 0l-2 2 2-4c2-2 1-2-2 0m156 0l-2 3c-3 2-4 5-2 10 2 7 3 8 6 8 4 0 19-8 21-11s3-9 1-9l-1 1c0 2-5 6-6 5 0-1-1-1-2 1l-1 2-1-2c-1-2-3-4-7-6l-6-2m176 1l-2 3c0 2-1 3-3 4-3 1-3 1-2 3l1 8 1 7v1l-1 2c2 2 3-1 3-4l2-5 1-1-2 1-3 1c-1-1 1-4 4-6 6-3 8-5 6-6-1-2 1-4 4-2v1l-1 2c0 3 3 2 4-1 0-5 0-6-5-8h-7m93 2l1 3 4 2c6 4 8 0 3-5-4-4-8-4-8 0m-167 1l-1 5-1 3c-1 1-5-2-5-4s2-4 2-2h1c1-2-2-3-3-1l-3 1-2 1 2 1 2 2c1 4 9 7 8 3l1-2c2 0 3-3 1-3v-6l-2 2m198 1l-1 3c1 1-1 2-3 1h-1l1 1v2c-2 1-2 5-1 5l2-2c0-2 2-3 2 0h3l-2-3c-2-1-2-1 0-1l2-2v-4c1-2-2-2-2 0m-43 1l-5 5c-3 2-4 7-2 7 7 0 13-6 11-11l-2-3-2 2m-254 3c1 4 6 5 7 2 0-3-2-5-5-5s-3 0-2 3m144-1c-1 2-1 2 2 5l3 4c0 1 2 2 6 2l5-1c0-7-10-14-16-10m44 3c0 2 0 3-1 2v6l4 2 3 1-1-2v-1c1-1 0-2-2-4l-2-2h4c5 0 4-2-1-5-4-2-4-1-4 3m-397 1l3 3 2 1-4-2c-4-2-6-1-3 1l4 2 2 1c-1 3-4 2-7-1l-3-2 2 3c2 4 3 5 6 3s2 0-1 2l-4 2c-1-1-1 0-1 2v2l3-2 2-1c0 2 2 1 4-2s3-3 2 1c0 2 0 3 2 5l2 2v-2l1-3v-6c0-4 0-5-4-6l-8-3m510 9a4 4 0 107 1c-2-3-6-4-7-1m-21 0v6a4 4 0 100-6m-408 2l-6 2-2 1c-2 0-2 0-1 1h6c6-2 6-2 9 0 3 1 7 0 5-1l-3-3c-2-2-3-2-8 0m273-1c-2 1-2 2-2 5 0 4 0 4 2 3l5-3c5 0 6-1 1-4-3-1-4-2-6-1m35 1l-2 1-3 3c-5 2-5 7 0 8l3 3 4 4 4 3 2-2 4-2c1 1 3-2 2-2h-2c-2 0-2-1-1-4 1-2 3-3 3-1l2 3c2 1 2 1 2-1-1-4 0-5 3-3a4 4 0 012 2h1c2 0 2-5 0-7l-2-4c0-2-2 0-4 3l-2 3v-3l-2-1-1 2-1 4c-3 3-9 8-9 6l4-9c3-1 3-2 0-4-3-3-4-3-7-2m-59 3c-1 1-3 3-5 3-2 1-2 2-2 4 0 3 0 4-3 5s-5 7-3 7c3 0 5 4 4 7v3c1 2 4 0 4-2-1-1 0-2 1-2v-1c-2-2-2-4 1-7a8 8 0 003-7c2-3 5 0 4 2l2 4c3 2 4 6 2 8v1l-1 2-1-1h-5l-1-2v1c0 1 0 2-2 1-1 0-2 0-2 2l-3 3 3 3c4 2 4 2 4 0-1-1 0-2 1-1l1-1h1v3l1 1 1-2c-1-2 3-5 5-3l1-1 3-2c7-3 7-11 0-16-3-2-4-3-4-5 0-3-2-6-3-6l-4-2-2-2-1 3m135-1c-2 2-3 8-1 8 3 1 5-3 4-6 0-4-1-4-3-2m-99 2l-2 4c1 2 1 3-1 3v1h3l1-1c2 2 3 0 2-2-1-1-1-3 1-3l1 2c0 3 0 4 2 4 3 0 4-4 1-6-3-4-5-4-8-2m54 1c-2 3-1 4 2 5l5 4 2 2v-2c0-2-1-4-4-7-4-4-5-5-5-2m-358 1l-4 2-3 1c-2 0-2 0-1 1s2 1 6-1h9c5 2 7 0 3-2-3-2-5-2-10-1m17 1v2l-6 3c-5 1-10 4-7 4 4 0 15-5 16-7 2-4-1-6-3-2m451 2c-3 3 0 7 4 4 2-1 3-3 0-5-2-2-2-2-4 1m-257 1c1 3-1 7-3 9s-2 8 0 8l1 2c1 2 1 2 3 1 1-2 1-2-1-4-2-1-3-4 0-6l1-4 2-2c2 0 1-1-1-4h-2m-228 2l-7 1c-2 1-4 2-3 3l8-1c6-2 6-2 9 0h3c1-1-5-5-6-5l-4 2m17-1l-2 3c0 1-6 4-9 4-2 0-5 3-4 4s15-4 16-6c2-3 1-6-1-5m398 1c0 2 0 3-2 3v3h4l2 1 1 2c-1 1 0 2 1 4v-1c-1-3-1-4 2-2h5v-2c-1-2-6-5-7-3l-1 1-1-1c1 0 0-2-2-3l-2-2m-94 3c-4 4-9 5-9 3 0-3-2-2-3 0-3 6 0 13 7 14h2c-2-2-2-2-1-3 2-2 6-1 6 1s3 1 6-1c1-1 3-2 6-1 5 0 9-3 8-6 0-3 0-3-6-4h-5l1 3c0 2 0 3-2 3l-2 1-1 3-2 1h-1l-1-1c-6 0-8-8-2-10l2-3h-3m-274 2l-8 2-3 2-3 1c-2-1-2-1 0 0l1 1v1c2 1 2 3 2 4-1 2 0 3 1 5 1 1 1 1 1-1-2-6 8-10 10-5l4 2c3 0 4-1 3-2-4-4-6-5-6-2 1 2 0 1 0 0l-2-3a2 2 0 110-2c2 2 2 2 3 1l3-2 1-2c0-2-2-3-7 0m-69 1c-7 2-7 2-6 3h7c4-2 7-2 8-1 4 2 6 1 3-1-3-3-5-4-12-1m19 1c-1 2-3 3-10 5l-4 2c0 1 2 1 7-1 9-2 10-3 11-7 1-3-3-3-4 1m440-1c-4 3-3 7 1 6 5 0 5-1 4-4-2-3-3-4-5-2m-30 3a7 7 0 001 10 9 9 0 0011-2l-2-1c1-3 0-5-2-5l-1-1c-1-2-5-2-7-1m-447 2c-8 3-8 3-6 4h4c4-3 9-3 11-1h3l1-1-3-2c-3-2-3-2-10 0m19 1c-1 3-4 4-11 5l-3 3 7-1c8-2 8-2 10-6 1-4-1-4-3-1m376-1c0 2 9 12 10 10 2-1 2-8 0-7l-1 4v1l-1-3-1-2-4-2c-2-2-2-2-3-1m27 3l-4 4c-2 0-2 1-2 4s0 4 3 2c4-3 5-5 5-10l-1-3-1 3m-360-1l-1 2-1 5c-1 3 0 4 1 3 1-3 2-1 2 3 0 2 0 3 1 2 0-2 0-2 1-1s1 1 1-1c-1-3 3-8 6-7 2 0 2 0 2-2 0-3-2-4-6-3l-3-1-3-1v1m18 2c-2 3-2 8 0 8 3 0 7-3 6-4l-1-3-2-2c-2-1-2-1-3 1m470-1c1 1 0 3-1 4h-1c0-3-1-2-4 1-3 4-2 6 2 7 3 1 6 0 6-2l3-2c4-1 4-3 0-7-3-2-6-3-5-1m-565 1l-4 2-4 1c-2 0-3 1-1 2l6-1h8c4 2 5 1 2-3-2-2-2-2-7-1m58 3c-7 2-11 4-10 5l-1 1-1-1c-1-3-11 1-11 4a3 3 0 003 4l3 2v-1c-2-1-1-2 2-1 4 2 6 0 6-5s2-6 2-2c1 4 0 7-2 8-2 0-3 2 0 2l2 1 3 4c2 1 2 1 2-1-1-1 0-3 1-5 3-4 3-7 0-5-2 1-4 1-4-1l1-1c1 1 6-1 6-3s4-5 8-6l3 1c0 1 0 2-1 1-2-1-6 1-6 3l-1 3c-3 2-2 6 0 6l2 1h1l2 1c1 1 1 1 1-1-1-1 0-3 1-5 3-4 3-13 1-13l-13 4m442-2c1 3 0 4-1 2l-2-2c-2 0-3 2-2 4v4h1c1-1 1 0 1 2-1 6 2 9 4 4 1-2 1-2 2 0 1 3 4 3 3 0l1-2 1 1 1 1c2 0 4-3 2-4-2 0-1-2 1-2 3 0 4-3 1-5h-3c0 2-2 1-2-1s0-3-2-3h-5c-1-1-1-1-1 1m-485 2c-2 2-3 3-6 3-4 1-8 3-7 4s4 0 8-1c7-2 7-2 10-8 1-3-4-1-5 2m382 0l-3 4c0 1 4 3 5 2l1 1 2 1v1c-2 2-1 4 3 6a5 5 0 010 9v3h-3v-1c0-2-1-2-4-2-5-1-7-5-4-8 2-2 2-2 1-4-2 0-2-2-2-4v-3l-2 3-5 7c-5 4-5 7-1 8l5 6-1 3h1c2-3 4 0 2 2l1 1 1-3c0-2 1-3 3-3l2-3c0-2 0-2 1 1 0 2 1 2 3 2s2 0 2 4 0 4 2 3l2-5c0-2 1-3 3-4 4-2 7-6 5-7l-1-2c0-3-3-6-6-8-2 0-3-2-3-3l-2-4-4-4c-1-2-1-2-4 1m-39 1l-4 2-1 2c1 1 1 1 0 0-2-1-3 0-1 2l2 4a2 2 0 103 2c0-1 1-2 3-2 3-1 6 4 5 6v4c2 2 5 1 5-2-1-3 3-3 6 1 2 2 3 3 2 5 0 3 0 3 2 3l2-1-1-1c-1 0-2-2-2-5 0-6-3-10-6-10-2 0-5-5-5-6 1 0 0-2-2-3l-3-3c-1-2-2-1-5 2m-275 2c-2 3-2 8 0 8 3 0 8-4 6-6v-1a3 3 0 00-6-1m-104 1c-10 2-10 3-8 3 1 1 5 0 8-1 6-2 7-2 8 0 3 2 3 1 1-1l-3-3-6 2m140-1l-1 21-1 19 18 1c15 0 18 0 18 2l-10 1c-10 0-11 0-11 2 0 3-2 5-4 5s-5-4-5-6c1-2-3-3-12-2l-2-1h-1c-2 2-23 13-24 12 0-2-4-1-8 1l-3 1-3-3c-3-4-4-3-1 1 2 3 1 7-2 7l4 3c6 5 7 5 3 1s-4-4 0-7l4-2 1 2c0 2 0 2 1 0 0-4 2-4 2 0l1 3a6 6 0 014 7l-1 1c-1 1 1 1 4 1s5 0 4-1l-2-1v-5h2l1-2c3-2 9 2 7 4a4 4 0 006 5c-2-1-2-6 1-8l3-2 3 2c2 2 3 3 2 4l-1 2v2c-4 0 0 2 4 2l3-1v-2l-1-4c-1-1 1-4 3-4 1 0 2-6 1-7s-1-1 1-1c3 0 3 0 2 1l-1 15-1 34v20l-24-1h-23l-15-10-16-10h-1c-1 0 2 3 6 5a27 27 0 018 7l8 4c9 6 6 5 49 7 24 0 26 0 20-4-4-2-4-2 0-14a1036 1036 0 006-29c-3-7-2-12 7-17 3-2 4-4 4-5l1-4c1-1 1-1 0 0-2 0-2 0-2-3l-1-14c-2-3-1-25 1-29l2-5h-12l-19-1h-7m-122 2c-1 2-2 3-6 4l-7 3c-2 1-1 2 2 1l7-2c5-1 8-4 8-7 0-2-3-1-4 1m75 16c-42 20-38 18-37 15l3-3c2 0 3-2 1-2l-1-3c0-3-5-4-6 0-1 1 0 6 2 6v3l-2 1c-2-1-1 3 1 5 11 7 21 13 15 7-2-2-2-2-1-3 2-2 2-4 0-5-5-4-3-6 6-10l25-13a140 140 0 0118-8l5-3 4-2v14l-1 18c0 4 0 5-5 7l-9 5c-3 2-3 2-4 1h-1c1 2 0 2-3 2a6 6 0 01-5-3v2l4 2 3 1 11-5 11-6v-7l1-21v-13l-35 18m48-2l-1 18c-1 4 1 4 18 5h16l-1-7c-1-11-1-21 1-25 2-5 2-5-17-5l-16-1v15m227-14l-1 2-1 3v1l7 4v-7l-1-2c-1-2-2-2-4-1M4 216l-4 2v7c0 5 0 7 1 6s1-1 2 1l1 2-1 1a4 4 0 001 9c-1 1 0 2 1 4 1 3 1 3 3 1v-3c-1 0-2-1-2-3s-1-3-2-3c-1-1 0-1 3-3l4-2-3-3-3-4-2-1v-1l2-4 4-5c3-4 1-4-5-1m322 1l-1 2c-2-2-6 1-7 5-7 26-6 44 3 66 4 10 6 14 6 10 0-1 0-2 2-1 1 0 2 0 2-2h2l-3-9c-10-24-10-31-1-70 0-3-2-4-3-1m115 0l3 6c1 5 0 15-2 19l-2 7-2 4h13v-37l-5-1c-4 0-5 1-5 2m24 3l-1 21v16l10 5c11 5 11 6 11 4-1-2 0-2 2-1h1l-4-2c-1 1-2 1-6-1-10-6-13-8-13-10l1-17v-17l3 1 4 2a344 344 0 0028 15 727 727 0 0125 14l-3 4c-3 3-3 4-2 5 2 1 2 3 0 5-1 2-1 2 2 1 2-2 3-2 2-3l-1-1v-2a6 6 0 0111-3h-2l-1 1c0 3 4 1 5-2l2-2v-1l-1-1c-2 1-2-2-1-5 2-2 2-4 1-6-2-3-6-1-5 1l-2 3-2 2 2 1 4 4 1 2-3-2-64-34-4-2v5m-257-1c-2 2-2 3-1 4v2h5a3 3 0 001-6c0-3-3-2-5 0m-93 1c0 2-3 4-8 5l-5 2c-2 1 4 1 8-1l4-1c3-1 6-7 3-7l-2 2m506 0c-2 0-2 1-2 4 1 4 1 5 4 2 5-3 3-7-2-6m48 1l-1 2-1 3c-2 2-1 2 5 0s9-4 8-5c-1-2-9-2-11 0m-173 2l-2 2c-2 0-1 2 3 4l4 2-1-4c0-6 0-6-2-6l-2 2m-301 2l-1 5 1 3 4-2c4-2 5-4 3-4l-1-2c0-3-4-3-6 0m118 1c-4 3-4 4-5 13v12c2 0 3-4 5-11a946 946 0 014-17l-4 3m72 3a40 40 0 01-2 10v4h3l4-1 1-4 1-6v-2l-3-2c-3-4-4-4-4 1m123-1l-2 3c-2 1-2 2 3 4l5 3v-3l-2-6c-1-2-4-3-4-1m134 1c-2 0-3 3-1 3 1 1 1 1-1 2-2 0-4 3-2 3 3 0 8-3 9-5 1-3 1-3-2-1l-2 1 1-2c2-2 2-2-2-1m-460 2v8l4-2c3-1 4-2 2-4v-2c0-3-4-3-6 0m517-1c1 1 0 2-2 3-5 1-4 2 0 3s6 2 8 5c4 5 5 4 6-5 1-7 0-8-7-6h-5m-145 4l-4 3c-2 0-2 1-2 4 0 4 0 4-3 5s-3 2-3 5 0 3 4 3c6 0 8-3 10-14 1-10 1-9-2-6m-33 0l-1 1-2 3c-1 1-1 2 3 4l4 2v-9c-1-2-2-2-4-1m91 0c-1 1-2 2-1 4 1 4 1 4 4 3l2 1-1 1c-3-1-2 0 1 1 4 3 4 2 2 0-2-4-1-6 4-6 4 1 4 0-2-2-5-3-6-3-9-2m-36 2l-2 2-3 2c0 2-1 2-3 2-3-1-6 1-5 3v1l-3 1 2 1c2-1 3 1 2 3s-1 2-3 0c-1-2-2-2-3-1h-2c-3 0-3 2 0 3 4 3 8 3 8 2 0-2 1-3 7-4h5v3l-1 4c-1 1-1 1 4 1l1-1v-2c0-2 4-1 5 1l2 3 1-3 3-3c3-2 3-2 3 1l1 3c4 0 3-7 0-7l-2-1h2l2-3h-1a3 3 0 01-5-3c1-2 0-4-3-4v3l-2-1a5 5 0 00-1 4v3l-1 2c1 0 0 1 0 0h-5c-3-1-4-3-1-6 2-2 2-2 1-3l-2-5-1-1m-161 4h-4v6l1 7h8v-6c1-5 1-8-1-8l-4 1m213 1l4 2 3 1-3 1c-2 1-2 1 1 1l3 2h-2l-12-1 7 3v-1c-1-1 0-1 1-1l1 2c-1 1-1 1 1 1l4-1c3 0 1-6-3-8-5-3-7-4-5-1m-519 0l5 4 4 3v1c1 2 1 2-1 3l-3 2 4-1 6-2h2l-4-1c-2 0-3 0-3-2l-4-4-6-3m577 2c-7 5-7 14 2 17 6 2 12-1 13-7 1-3 0-6-1-5-2 1-6-2-6-4 1-3-4-4-8-1m-79 3l3 1c2 0 4 3 3 6 0 3 0 4 6 7 7 3 15 9 16 12 0 2 1 2 5 2 5 0 7-1 8-4 1-4-3-7-26-19-15-7-17-8-15-5m-214 1c-3 4-3 6-1 13 3 7 2 6 6 5 4-2 5-3 2-9l-1-4-2-4-3-3-1 2m-348 3l-14 4c-1 2 5 1 11-1l10-3c4 0 7-2 6-3l-13 3m130-2c-4 2-4 3-2 3l2 1c-2 0 1 3 4 4s6-2 3-4l-2-4c-1-2-1-2-5 0m465 2c-3 2-1 6 2 5 4 0 5-2 3-4-1-3-3-4-5-1m9 4l-2 2v3l2 3c2 1 2 1 1-1l1-1 1 2 2 3c2 1 2 1 1-1l-1-9 1 1 5 3c2 0 2 0-2-3-5-3-6-3-9-2m-481 2l-1 6c0 3 0 4 2 4l1-5v-4l13 8a254 254 0 0116 12l8 5 7 4-1 14v19l-1 5c-2 0-19-12-18-14h-1c-1 1-1 1-4-1s-5-3-5-1l2 3a18 18 0 0110 7c0-1 5 1 9 4l9 5 2-38v-4l-23-15c-26-18-25-17-25-14m25 1c2 2 3 7 1 5l-1 1c2 2-1 2-3 0h-2l7 5c4 3 6 3 5 2l-2-2-2-2c-2-1-2-1 0-3s2-2 1-4l-1-2-4-2 1 2m515-1l-4 6c-4 4-5 5-3 5l5-3c4-5 6-8 3-9l-1 1m-46 0l4 3a431 431 0 0131 26c-14-14-35-31-35-29m-61 3l-8 4c0 2-4 3-4 1h-12c-3-3-8-3-9-1s-4 0-4-2l-3-2c-3 0-1 4 3 7 10 7 41 5 41-3l1-2 3-2c1-2 1-2-8 0m-87 14l-23 15-1 21 1 21 24-15 23-14 1-21-1-21-24 14m150-11l3 3 2 1-2 1 1 1 2 3-3-1-2-2-4-1h-3l3 3c3 3 5 3 9 3 4-1 3-6-2-10-4-4-6-4-4-1m-131 2l-23 13-2 2-1 1-7 4-7 4-1 19 1 19 9-5a274 274 0 0123-15l10-5c2-1 3-39 1-39l-3 2m176 6c-1 4-1 9 2 11 1 1 1 0 1-6 0-9 0-9-3-5m-330 2c0 1-2 3-4 3-2 1-2 1-1 5 0 5 0 5 4 3l4-1c2 0 3-2 1-4v-1c2-1 2-1 0-3l-2-3-2 1m294 1c-1 5 0 6 3 6s4-1 4-4 0-3-3-3l-4 1m9 6c-3 0-3 5 1 9s5 5 4 2l-2-2-2-2 1-1h8c2 1 2 1 1 2l-4 4c0 2 3 1 5-2l1-2 1 2 3 4 1 2c-3-1-5 0-4 2a1 1 0 11-2 0l-2-2c-3-2-3-1 0 3 6 5 11 4 11-2-1-2-15-18-17-18l-4 1m-369 5l-3 1c-2 0-2 1-2 2v6c0 3 0 4 2 5l4 1c3 4 4 4 4 3l1-1c2 2 3-1 1-4l-2-6-1-2-1-4c0-2-1-3-3-1m-95 22l-1 22 22 1h22l1-20v-20c1-2-7-2-29-3l-15-1v21m3-18l-2 19v19h9l20 1h11v-13l2-17c0-9 2-8-26-10l-14 1m123 1c1 1 0 3-2 4l-2 2 14 19 17 22 2 2 3-2 4-2c1 0 1-1-2-4l-26-33c-6-8-9-11-8-8m100 8l-1 22v12h44v-43h-43v9m-44-7c0 2-2 3-7 5-2 0-3 1-3 2v5c0 5 1 7 4 7l3 3 2 1c0-2 3-4 7-5 2 0 2-1 2-3a7 7 0 012-6v-1c1-2 1-2-2-3-3 0-6-2-7-5h-1m33 2l-5 2c-3 1-3 1-3 4l-1 6c0 3 0 3 3 3 4 0 6 2 7 4l2-5 2-9c0-2 0-4-2-5l-2-3-1 3m13-1l-1 20v18h19c23 0 21 3 21-22v-17h-6c-20-1-31 0-33 1m-81 3c-5 4-5 4-1 7l2 5c0 3 0 3 3 2 2-1 4-2 5-1 2 0 2 0 0 1l-2 1h3c3-1 3-1 1-4v-4c2-3 1-4-2-5-2 0-4-2-5-3-1-2-1-2-4 1m-302 4c2 6 4 22 2 22-1-1-2 0-2 2s0 2 4-2c3-3 13-9 15-9 1 0 0 3-3 5l-2 2 3-1 4-1c2 0 1-16 0-16l-4-1c-2 0-2 0-1 1s-3 6-5 6c-1 0-9-6-11-9v1m639 3c-1 4 0 6 4 7h4v-4c0-3-1-4-4-4l-4 1m-403 5l-2 3c-2 2-2 3-2 9l1 6 4-1 5-1-1-5v-1c3 0 4-3 2-3h-3c0 2-2 1-2-1a8 8 0 00-2-6m31 5l-4 4a7 7 0 003 12l4 3 3-3 2-3-1-5-3-7-1-3-3 2m276 0c0 2-1 2-2 2h-2l-2 1c-2-1-3 1-2 3 2 2-3 1-5-1-3-3-4-3-4 0 1 4 9 4 12 1s6-4 6-2h2l2-2 1 1v1c3 0 2-2-1-3l-3-1h-2m-190 5l-3 2c-2 0-5 3-4 5l2 1h2c2 1 5 1 8-1l4-1c0 1 1 1 0 0l1-1v-1l-3-2-4-2-1-3-2 3m-70 0l-1 2c-1 1-1 2 1 3l1 2-1 1 1 1 2 2 3 2c2 0 2 0 1 1h-10l2-1c1-1 2-3 0-3a9 9 0 00-4 9l-1 5c0 4 0 4-2 3a2 2 0 100 4l6-1c9 0 26-5 26-8l-3-4-4-5-2-1c-6 3-10 0-12-8-1-5-3-8-3-4m270 1c-5 2-6 2-4 5 3 2 3 1 7-3 6-6 5-6-3-2m-235 2c-5 5-5 4-1 8l3 5c-1 1-1 1 0 0l8-1c4 0 4-7-1-10-2-1-4-2-4-4-1-2-2-1-5 2m317-3c2 0 4 4 3 5v2c3 3 0 8-3 8s-3 0-2 1c2 2 1 5-1 5l-2 1h3l1 2h2v-3c-2-2-1-5 1-5l1 7v9a1424 1424 0 012 37l-1-2h-1c-1 2-2 3-5 3-2 0-2 0-1 1 6 2 4 4-3 4-6 0-4 1 2 1 4 0 5 1 5 2v2h-2c-3 0-5 1-3 3 1 1 1 1 0 0l3-1 9 2h6v-75l-4-5a9 9 0 00-10-4m-150 9l-6 6c-2 1-2 1 3 1l7 1c1 1 2 0 3-1l6-1 4-1a4 4 0 00-6-2l-6-7-5 4m-20 8l-2 7v2l1 1c0 3 3 3 4 1 2-3 1-6-1-6-1 1-1 0-1-4l-1-5v4m-377-2l2 3c2 1 2 1 0 3l-2 3c-1 2-1 2-3 1s-5 0-11 4v1l5-2c5-3 8-2 8 2l1 2 1-4c0-4 2-7 4-7s1-2-2-4c-2-3-3-4-3-2m162 1l-4 4c-4 1-6 6-3 7l1 1c0 2-16-4-21-8-1-1-1-1-1 1l1 3 1 2-2 3c-2 0-1 2 1 1l3 3 2 4-3-2h-4c-1 1 10 7 19 9 4 1 5 2 5 4 0 3 2 3 3 0 0-2 1-2 6-1l5-1-5-1v-2h3c2 1 2 1 2-2l-1-2-3-2c-1-1-1-2 2-2 2-1 2-1-4-3-5-1-6-2-4-3 2 0 3-4 1-4l-1-1 1-2a4 4 0 000-6m32 5l-1 1 1 1h-3v1c1 2 6 2 6 0l1-1c1-1 1 0 0 0 0 2 1 2 3 0s-2-4-7-2m-163 1c-1 1-1 2-2 1l-1 2v3c-2 1 0 3 3 3 3-1 4-1 4-4l-1-3-2-1-1-1m331 1l-1 2-1 1c-3 1-5 6-4 8l1-1c0-1 1-2 3-1 2 0 3 0 3-2 2-6 0-12-1-7m-340 7c0 4-1 5-3 4s-6-1-6 1a4 4 0 005 4l3-3c2-1 4-9 2-9l-1 3m118 1l2 3 1 2c0 1 1 1 3-1h1c-1 2 0 3 2 2 3-1 2-3 0-6-4-3-9-3-9 0m76 0l-4 1c-6-1-10 6-5 10l2 3v-1c0-3 0-3 1-2h4l5-2c2 0 2-1 2-4v-5c1-2-1-3-5 0m-95 5c-2 0-3 1-3 5 0 5 0 5 5 1l3-2v4l-1 10-1 6c1 1 1 0 2-2 0-4 2-4 2 0v3l-1 2c-3 0-4 4-2 7l1 2v1l2-1 2-2 2-1 2-1v-2c-2-3-2-11 0-14 1-3 1-11-1-13-2-3-3-1-2 6v15l-2-5-1-12c0-7-1-9-7-7m-33 1v3l-1 3c-1 4 2 9 4 6l2-1 1-1 3-3c2 0 3-6 1-7-1-1-2 0-1 2v2l-1 2h-2l-3-2c-2-1-2-1-1-2a1 1 0 10-2-2m231 1c-2 0-3 0-2 1l1 6c0 7 1 11 2 10l1-4c0-3 1-4 2-5 5-4 2-9-4-8m-269 4l-1 7c0 2 0 2 1 0s1-2 1 0l2 2c3 0 4-4 2-6-1-2-1-2-3 0-1 1-1 1-1-3 1-5 0-5-1 0m206-2c-3 3-3 5-1 6 3 3 6 1 6-5 0-2-3-3-5-1m11 0l-1 7c0 6-1 10-4 10v1l-3 1c-3 0-3 0-3 2 1 4 6 4 6 1 0-4 2-5 4-2h2l1-1c1 0 1 3-1 6 0 2 0 2 3 2 4-1 5 0 3 2l-1 2h1c0-1 1-1 1 1l2 1-1-2-1-3c1-1-2-4-3-3v-4c0-3 2-2 3 1v-1a477 477 0 01-2-19c0 7-1 13-2 13-2 0-3-4-2-9 1-7-1-11-2-6m19-1a10 10 0 00-5 1v2l1 1 2 1 6 2v-7h-4m17 4c0 9-1 10-2 11-3 2-2 6 1 8h3v-1c2 0 2-5 0-7l-1-8v-8l-1 5m66-4l1 1 1 4c0 4 0 4 4 3l2-1h1c2 1 4-2 3-4l-1 1c0 2 0 2-2 0l-1-2c2-2 1-3-1-2l-2 2-3-2h-2m-255 4c0 3-2 7-5 7-1 0-1 4 1 7 1 2 1 2 2 1 1-2 2-2 3-1s3 0 3-1h-1c-1 2-2 1-2-2v-9c-1-5-1-6-1-2m361-3l-6 4-3 4h26l-2-3c-3-5-11-8-15-5m-227 4c0 3 0 4-2 4h-4c-2 0-4 5-2 6l-1 3c-2 2-5 16-4 17s6-2 7-3c0-2 0-2 2 0 2 3 5 3 7-1 1-2 2-2 2-1l-1-17-1-4v5c-1 4-1 5-2 4v-12c-1-5-1-5-1-1m-214-2l-1 2-1 1c-1 0-1 1 1 2a4 4 0 101-5m-22 5c0 5 0 5 5 8l23 15c20 13 20 13 20 6v-5l-1-2-1 4v5a530 530 0 01-39-24c-5-3-5-4-5-8-1-5-2-4-2 1m343-2l-3 2c-2 1-2 1-1 2v1c0 1 1 2 3 2l3 3c1 2 1-3 1-6 0-4-1-5-3-4m-292 3l-1 3-3 6c-3 6-3 6-2 8 3 3 4 1 5-6 1-9 2-7 2 2v8h3c4-1 4-1 1-7-1-2-3-7-3-11-1-5-2-6-2-3m87-1l1 3 2 3 1 2c1-1 1 0 0 0l1 2h1l1-1v3l1 1c2-1 2-4 0-5-1 0-2-1-2-3-1-5-4-7-6-5m-8 1v1h-2l-2 1a9 9 0 000 9c0-2 1-3 3-1h1c-1-2 2-3 4-1l1 2c-1 1 1 3 2 2l1 1 2 1c2 0 2 0 2-4-1-4-6-9-7-7 0 2-2 1-2-1l-2-3h-1m102 2c-3 0-3 3 0 2 1 0 2 1 2 4s0 3-2 2c-1-2-1-2-3 0-3 3-2 3 2 3h5v-2a9 9 0 011-9h-5m-171 2a4 4 0 107 2c-1-3-5-4-7-2m215 2l-1 5c0 4-3 7-4 5l1-3c2 0 1-3-1-3s-2 0-2 3v2c-1 0-3 4-2 7 0 2 0 3 3 2 3 0 5-2 5-4-1-1 2-13 3-15v-1c-1-1-1 0-2 2m-197 7a6 6 0 005 9v-1l1-1 1-2v-1l-2-2c0-2-3-3-5-2m226 4c-2 3-2 6 0 8a4 4 0 103-8c-1-2-2-2-3 0"
    itemprop="regular" fill-rule="evenodd" tabindex="-1"
    fill="url(#16282281824-posters-1653312626665-horizontal-regular)" fill-opacity=""
    stroke="url(#16282281824-posters-1653312626665-vertical-light)" stroke-opacity=""></path>
  <path id="16282281824-posters-1653312626665-bold"
    d="M421 1c-2 1-1 6 2 11l3 5v-2l-1-4-2-5V3a2 2 0 10-2-2m167 2l-1 7a5 5 0 01-1 6h1c2-1 0 5-2 7-1 1-1 1 1 1s2 1 2 2l1 2 3-6c-1-1 2-9 5-9v-3l-1-6c-1-5-6-6-8-1m45-2l2 4c0 2-2 4-2 2-1-1-1 0-1 1v2c-1 1-2-2-1-3l-1-2c-1-1-1 0-1 2l1 4v2c0 2 0 2 1 1 6-4 7-14 2-14-2 0-2 0 0 1m5 2c-1 7-1 10 1 11v-1c-2-1 1-3 4-2v2c-1 1-2 2-2 5s0 3 1 1c2-3 5-4 5-2 0 3-2 6-4 5v1c2 2 3 2 3 0l1 1 1 6v4l1-9 1-12c0-2 0-2-1 0-2 1-2 1-2-3l1-5c3-2 1-5-3-5-3 0-3 0-1 6l-1 1-2-4c0-4-2-4-3 0m14-1c3 5 2 11-1 6l-1-2v2l2 3c2 0 9-4 8-5h-1c-1 1-3-1-3-3s-1-3-2-3c-2 0-2 0-2 2M286 9c0 2 1 3 2 3l2 1h2c1-3 3-2 2 0l1 3h1c0-1 1-2 2-1 2 0 2 0 2-2-1-2-1-2 1-1v-1h-3c-2 1-4 0-4-4 0-2-1-2-5 0l-2-1V5l-1 4m102-3v1l-1 1c-2 0-3 2-1 2l-1 3-2 4-1 2-1-1v-1c-3 1-1 3 2 3 5 0 6-1 6-5l3-6c2-2 2-2 2 0l1 3v4c-1 3-1 3 3 1l4-1 4 1 3 1h10l-2-3-3-6c0-4 0-4-4-2-3 2-4 3-4 5l-1 3v-3c0-2-1-4-5-4l-5-1c-3-2-5-2-7-1m75 1v1l-2 2c-2 0-2 0-1 3l3 2 1 2 1 1c2-1 2-9 0-11h-2m-140 6v2c1 1 1 1-1 2-3 2-2 3 3 4l5 2 3 1-2-3-3-3v-3l1 1h1c0-2-6-5-7-3m148 3l-1 1 3 3v3l2-3 4-3 2-2c0-2-7-2-10 1m10 8l-3 4h3c3 0 5 0 6-2h2l4 1h3l-1 1-2 1h-3l-3 1v1a1 1 0 11-1 2l-3 1c-1 2-1 2 3 1l4-1-2 2-2 1-2 1c-4 0-9 1-9 3-1 2-1 2 4 0 5-1 5-1 7 1a4 4 0 013 4v1c-2 0-2 2-1 4 2 2 1 3-1 3v1l2 2 3-2c2-2 2-2 0-5v-4c2-1 2-2 0-4-1-3 1-9 3-9l2-3c2-3 3-4 4-3 2 0 2 0 0-1h-3l-4-1-4-1-3-1c-2-3-3-2-6 1m-52 0c-1 3-1 5 1 5l1-2 1-3 3 3c0 2 6 3 7 1l2-1c1 1 3-1 3-3a1 1 0 00-2 0h-4c-7-2-10-2-12 0m32 7v4l2-1 1 2 4 4 1-5v-5h-4l-4 1m56 10c-3 1-4 3-2 5 2 1 2 1 5-1 2-1 2-1-1 3-4 4-4 4-3 6 3 3 3 3 6 0 2-2 2-2 0-4-1-2-1-2 1-5l1-2 1-1c2-2-3-2-8-1m-16 1l2 2c3 3 2 9-1 8-2 0-2 0 0 2l2 3 3-2c2-2 2-3 1-5v-4c3-2 2-3-1-3l-4-2-2 1M27 44c-9 1-17 3-23 7l-4 2v33h5l16 2 11 1c0 3-5 8-8 10l-5 5c-2 5-6 7-13 8H0v40h3l3-1c0-4 49-5 69-1 4 0 4 0 4-3l-1-3v-3l2-2 1 3v8h4l6-1 3-1-5-1c-4 1-4 1-5-2v-7l1-2c1-3 2-3 3 1 0 2 1 3 4 3 5 0 9 7 4 10-2 2-1 4 2 4l2-2c0-2 0-2 1 1 1 2 1 1 1-3 0-5 0-6-1-4-1 1-1 0-1-3l1-5c2-1 3-21 2-26-2-8-15-24-31-37L51 58 38 46h2c3 3 4 3 4 2-1-2-1-2 1-2l15 2c6 0 28 13 40 24 3 3 6 4 4 2 0-2-25-22-31-26l-5-3-18-1H27m431 5c-4 3-4 5 0 7 3 2 7-3 4-5v-4c2-3 0-2-4 2m85 16l-3 4-2 2 4-2 3-2-3 3c-4 3-5 6-2 4v1l-2 2c-2 1-1 3 1 3l3-1 1-4c0-3 1-4 3-4 3-1 7-5 6-7-2-2-8-1-9 1m15-1c0 2 3 6 6 7l2-1c-1-1 0-2 1-1l1 2 1 1 2 1 2 2v-3h1c0-1-1-2-3-2l-4-4c-2-3-9-5-9-2m-87 1c-4 1-5 4-2 3 2 0 2 0-1 1l-4 4c-2 4-2 5 0 3h1l-2 2c-2 1-2 2-1 3 1 2 5 0 5-3a22 22 0 011-5l1-1c3 0 7-5 7-6-1-2-2-2-5-1m15 0l-3 1c0 1 4 5 7 5 2 1 2 2 2 5s0 4 3 5c3 2 4 0 1-2l-2-4 3 1c1 2 1 2 1-2l-2-4-2 1h-2l-3-3 2 1 3 1-5-6-3 1m19 2c-1 2-1 2 1 1l3-1-1 1-8 7 2 1c2-1 2-1 0 1-4 4-4 6 0 4 3-1 3-2 3-6 0-2 0-3 3-3 2-1 7-5 7-7s-9-1-10 2m16-2c0 2 4 5 7 6l2 4c0 3 3 6 6 6l-2-4-2-3 3 1h1l-5-4-5-4h2c2 3 3 2 2 0-2-3-9-4-9-2m-43 9l-2 2c-2 1-3 2-3 4 0 3 0 4-4 5-7 3-7 13 2 15 2 0 2 1 2 3 0 3 3 6 6 6l-2-4-2-3 2 1 1 1c2-1 0-4-4-6-4-1-8-5-6-5l2 2c2 2 9 5 9 4s-1-2-3-2c-5-2-5-9 1-11v-2c-2-3 2-5 4-3 1 1 2 2 1 3-1 0 4 6 6 6l4 2 3 2v-2c0-2-4-7-6-7s-2-1-2-4 0-4-4-6c-3-2-5-3-5-1m37 1c-3 1-3 2-3 5s-1 3-4 5c-5 1-6 2-6 7 0 3 4 7 7 7 2 0 2 1 2 3 0 3 1 4 3 5 2 2 3-1 1-3l-2-2 2 1h1v-4l-2-3c-5-3-5-7-1-10l2-3a3 3 0 115-1l-1 2c1 2 2 2 3 2h3c1 2 4 3 4 1l-1-1c-3 0-5-3-5-7l-2-4c-3-2-3-2-6 0m-141 1l-1 12v13l2-10 3-13c1-2-1-3-4-2m167 11v3c1 0 2 1 2 4s0 4 3 4l3 3c0 1 1 1 1-1 1-1 0-2-1-2l-3-3c-2-2-2-3 0-4a3 3 0 10-5-4m-93 0h-2c-2 0-2 0-1 3 2 3 2 3 3 1s1-2 5 0c5 2 6 1 3-2-2-3-6-4-8-2m38 7l-3 6c-3 3-3 5-1 3h1l-1 2-1 2c0 2 0 2 2 0 2-1 3-2 3-4v-3l2-8-2 2m11 7l-1 3c0 4-4 9-10 10-5 1-5 1-4 5s2 6 6 7c3 0 3 1 3 4l1 3c1 0 2-1 1-2v-2l2 2 2 2v-4c0-4-1-5-5-4l-5-4 3 1 2 3-1-3c-2-3-1-6 3-8l2-3v-3c2-3 5 0 4 3l2 3c2 2 3 3 3 5v3l3-3 4-3v-1l-4-3c-3-1-3-2-3-5 0-4-6-9-8-6m41 3v5c-1 2-1 2 2 3 1 1 3 2 3 4l3 3 2 2c0 3 1 2 3-2 1-5 0-8-5-8-2 0-3-1-3-2v-3c-1-3-3-3-5-2m-7 1l-1 2c0 1-1 3-3 3l-2 3 1 4v4l2-3c0-2 2-4 3-5l1-4 2-4c1-1 1-1-1-1l-2 1m-320 5c-5 2-5 2 1 3v2l3 1 4-1-1 3c0 3 0 4 2 4 2 1 2 1 2-2v-2a1 1 0 100-2l-2-1-2-3-1-1c0-2-1-2-6-1m24 4l-3 9c-2 1-1 2 3 2h4c1-1 0-2-1-2l-1-1v-3c-1-1-1-2 1-3l2-3 2-1c1-1 0-1-3-1-5 0-5 0-4 3m123-1l-3 2 4 3 4 2 1-1 4-2c2-2 2-2 3-1l2 3 3 4 1 1 2-1 3-2c3-2-3-8-9-8l-8-1c-2-1-5 0-7 1m107 4v3c-1 2-1 14 1 13l1-4 3-3c4-2 6-5 6-8s0-3-6-3-6 0-5 2m234 2l-28 2-51 3c-4 2-5 3-2 3 5 0 12 6 10 8-1 1-9-2-11-5-3-4-13-4-10 0 1 2 2 2 6 2 5 0 8 2 8 6l-2 1c-3 0-10 5-8 7 1 2 2 1 2-1 1-4 3-4 4 0 2 2 2 3 0 6s-2 4-1 4l2-4c2-3 4-5 6-4 1 2-1 6-3 7-3 0-1 1 6 2 5 1 5 1 8-2s8-4 9-2l6 2 7 3 1 1c-7-3-12-3-14-1-1 1-1 1 2 1 5-1 11 1 10 4 0 1 1 3 4 5 3 1 6 3 7 5s2 2 2 1v-3l5-3 6-2 4-1-4 3c-3 2-6 3-7 2-2 0-2 1-1 3h1l2-1 5-2a7 7 0 015-2c1-1 2-2 1-3 0-3-2-3-3-2a9 9 0 01-9 1l-1 1c1 2-1 3-3 1h-1c0 3-2 2-3 0l-3-4-2-3-7-5-3-1c-2-1-12-3-14-2l-2 2c-1 2-5 3-8 2-4 0-2-6 2-6l2-1-2-2c-3-4-3-6-1-7 1 0 2-1 2-3 0-3 0-3 3-4 2 0 3-1 3-3 0-3 3-5 6-4s2 2-1 2c-4 0-5 2-2 5 2 1 4 0 6-3l2-3 2 2c1 3 2 3 5 3h2c-3 2-3 4-1 6 1 2 1 2-1 3-1 1-2 2-1 3l-1 1h-6c-4 1-4 1-4-2l-1-2c-2 0-2 0-1-3 2-4-5-6-8-3a3 3 0 003 6c1 0 1 4-1 5-2 3-2 3 10 5l5-1v-2h1l3-1-1 2-2 3 3 1 3 1 1-3a11 11 0 0119-7l-2 1h-8c-7 1-8 1-8 5s4 10 4 7a24 24 0 011-5c0-2 18-10 25-11 7-2 9-1 14 1l7 3 3 1v-6c0-6-2-8-3-3-1 2-1 2-1-1 1-4-3-6-8-4-3 2-6 2-10 2-2 0-2 0 0-3 0-2 2-3 2-3l2-1 6 1 7 2 3 1c2 2 3 2 1-2v-5l1-2-13-1m-25 4c-2 2-4 2-4 1h-3l-3 1c-2 0-3 3-2 4l1 4c0 2 8 1 9-1 4-7 5-12 2-9m-120 4c-2 2-4 8-3 8l2-2c2-1 2-1 4 1l1 2c-2 0-1 3 2 5s3 2 5 0c1-1 1-2-3-2-3 0-4-1-1-3v-4l-2-3c-2-3-3-3-5-2m30 3c-3 4-2 5 1 3l3-1 2-2 2-3-3-1c-3 0-4 1-5 4m-109 0l-3 3c1 4 0 5-3 6-8 2-7 14 1 14 2 0 2 1 2 4s1 4 3 5l3 1-3-3c-1-1-2-1-1-2l3 1h1a20 20 0 00-9-9c2 2 5 1 3 0-2-2-1-6 2-8s3-3 2-4c-1-2 1-5 3-5 1 0 3 3 2 5-1 1-1 2 2 4s4 6 2 8l3-2h2c0 2-8 6-9 5l-1 3c0 2 0 3 2 2h1l-1 3-2 2h2l2-2 1-4c0-3 0-4 3-4 8-3 8-12-1-14l-2-4c0-3-1-4-3-6l-4-2-3 3m125 0c-2 1-2 3-1 9 2 3 2 4-1 6l-3 3h3c3 0 10-5 7-5s-3-4-2-7c4-4 1-9-3-6m-81 1v6c0 2 1 2 3 3 5 1 4 7-1 13l-2 3c1-1 2 0 2 1 0 2 2 1 2-2 0-2 1-3 3-3 4-1 4-13 0-14-3-1-3-2-3-4 1-2 0-3-1-3h-3m65 5c-1 2 1 4 3 3l4 2c3 3 6 1 4-3s-10-5-11-2m21 11c-2 1-1 2 1 3 3 0 6 3 6 4 0 2-5 1-6-1-2-4-3-4-7-4h-6c-2-1-2-1-2 2 0 4-2 5-5 2l-2-3c-3 1-1 13 2 13l2 1c2 0 2 0 1-2-2-4-1-4 3-3l5 3c0 2 1 2 1 1l2-1v7c3 0 4-4 1-7-2-3-3-10-2-10 4 0 6 4 6 8v2c1-2 6-6 8-6l1-1c0-3-1-5-2-5l-4-2-3-1m-425 6l-2 3-1 2-2 1-6-2c-2 0-2-1-1-3 0-3 0-3-2-2l-3 1-1 1-2 1c-1 2 1 4 3 1v7c2 1 0 9-2 9l-1 4 1 3 2 3 1 4v-4l-2-6c-1-2-1-3 2-1l3 5 1 3c1-1 0-6-2-8s-3-4-1-4 1-7-1-9c-2-1 1-4 4-4l3 2c1 3 4 6 7 6l3 1-2-2v-5c-2-2-1-4 1-2s3 1 3-3c-1-6-1-6-3-2m391 1c-2 3-3 9-2 11 2 2 3 1 3-2l1-4c3 0 3-2 2-4l-1-3-3 2m-77 2c-3 1-3 2-3 5s0 4-2 4a8 8 0 00-2 16c3 1 4 2 4 4s1 3 3 5c4 3 4 0 1-3l-2-3 3 1c1 1 1 1 1-1l-4-4c-3-1-5-3-5-4h1l2 1c-2-3 0-6 2-8 3-1 4-3 2-5v-1l2-1 1-2 1 1c0 2 2 1 2-1 1-4-2-6-7-4m36 1l-1 4c0 2-1 4-5 5l-1 4 1 3 5-3c5-2 6-4 4-6l2-3c2 0 4 3 3 5l1 2a7 7 0 00-9-11m103 0c-2 1-2 1-1 4 2 4 2 5-2 5-1 0-2 0-1 2l-1 3c-1 1-1 0-1-1l-1 2-4 4-3 2h4c3 0 4 0 6-5 2-4 3-6 6-7l3-3h2c2 0 2 0 1-1v-2l-2-1c-1 0-2 1-2 3l-1 2-1-4 1-4-3 1m-169 7c0 5 0 7 2 7l1 4c0 2 0 2 2 1 2-2 1 1-2 4-2 3-4 12-2 10l1-4c0-2 0-3 3-4 8-2 8-15-1-17-3 0-3 0-2-3l-1-4c-1-1-1 1-1 6m-339-1l2 3 1 1c2 1 1 1-1 4l-2 3h3l2-1 1-1c1-2 4-1 4 2 0 2 1 3 3 3v-1c-2-2-2-6 0-5 4 1 2-4-3-7-6-3-12-4-10-1m224 1c0 4 2 11 4 12 1 1 1 0 1-4s0-5-2-4c-1 1-2 0-2-3 0-2 1-3 3-3 2-1 2-1-1-1s-3 0-3 3m262-2l-2 3c-2 0-7 5-7 7s5 1 8-1c4-3 5-5 3-8-1-2-1-2-2-1m-109 2c-3 1-2 3 1 5l2 4 4 1c4 0 4-1 3-4-1-4-8-7-10-6m81 1l2 1c4 0 5 3 2 5l-1 2v2l4-1c6-2 6-1 1 3-6 5-5 8 1 6 5-1 9-8 7-11-1-1-2-2-3-1-5 2-9 0-4-2 2-1 2-1-3-3s-7-2-6-1m-373 1l3 1h1v5l-1-1-2 1c-4 5-3 6 5 3 2-1 3-4 1-4-1-1-1-2 1-3 2-2 2-2 0-2l-5-1-3 1m423 4c-4 4-5 8-2 12l1 3c-1 3 4 5 5 2 2-2 10-3 13-1 2 2 3 2 4 0s3 3 3 8c-1 5 0 5 2 2 2-4 2-6 0-8-1-2-1-2 1-2 3 1 3-1-1-3l-3-4c1-2 0-2-2-2s-2 0-2 3c1 4 0 6-1 3-1-2-1-5 1-6 1-2 1-2-2-2-2 0-3-1-3-2h-3c-3 0-5-1-3-4v-1h-3c-1-2-3-1-5 2m23-1l1 1 1 2c1 2 2 3 4 3 3 0 5 4 3 7l-2 5-1 6c-1 3-1 4 1 4 2 2 1 3-2 2-4 0-5 1-2 2 5 2 11-3 8-7s-3-10 0-9l2 2h1c2-1 0-8-3-10l-1-3c0-1-7-7-9-7l-1 2m-276 7c-4 9-6 24-9 44a147 147 0 01-12 50l-9 20-3-3-2-2c-2 1 35 47 36 46l-3-4-3-4 3-2 4-5c2-3 3-3 4 0 0 2 2 3 4 4 6 3 6 13 0 14-3 2-6 4-5 5l2-1 4-2 5-2 4-3-1-2v-4c2-2-1-7-4-7l-4-2-3-1v-1l-1-2-2-1-1-2c-1-1-1 0 0 0l-1 2-2 2c0 2-5 6-8 6-2 0-1-3 3-5s7-7 5-9v-5l1-1c0-2-4-6-4-5l-4-2-3-3-1-3-1-4c1-3 3-2 2 1 0 3 1 5 4 4v-1c-1 0-2-1-2-3l-1-5c0-2 0-3 2-3l5-4 1-2 3 3c3 3 4 2 2-3-3-4-7-5-7 0 0 2-4 5-5 4l4-7 1-5 2-7 3-6c0-2 4-4 7-4 2 0 5-4 4-6v-5c2-3 2-3 0-6l-2-6c0-4-1-4-4-1-2 3-1 6 3 8 2 1 2 9 0 13l-9 3 4-23 1-3a6 6 0 004-7l2 4 3 7c1 1 2 3 1 4l1 2c2-1 2-1 1 2s-2 4-1 5v3c-2 2-1 4 4 6l4 3c0 3-4 2-6-1l-4-3c-2 0-6 3-5 4l2-1c1-2 2-1 5 2l6 4c2 0 2 0 1 1-2 2-2 3-2 7s0 4-3 5c-4 1-4 2-2 4 1 2 1 2 3 1l8-1a8 8 0 006-1c2 0 4-6 4-9l-4-1h-4v-15c0-2-1-3-3-4-3-1-4-4-7-23l-2-7v-2c2-1 1-2-1-1-1 0-2 1-2 4 0 5-2 5-3 1v-3c2 0 1-6-1-8-4-2-4-16 0-20l1-3 2-3c2-1 2-1 0-1-3-2-7 11-9 32l-6 41c-4 17-14 41-21 49l-3 3-2-3c-4-3-4-2 2-14 10-22 14-38 18-70 2-18 5-31 9-39l1-3-4 7m-148-2c-7 2-14 6-13 7l9-3 10-3 2-1v-2l-8 2m403 3c0 2-1 3-2 3v-2l-1-1c-3 0-2 3 1 4 2 0 2 1 2 3l-1 3 11-7-1-1c-1-2-1-3 1-3 1-1 0-1-1-1h-6c-1-1-2 0-3 2m-28-1c-3 2-1 3 2 2h3l-3 2c-2 2-1 12 2 13 7 3 9 4 9 6l2 3c0 1-5 1-8-1-2-1-2-1-1 1 3 5 12 11 17 11 2 0 3-1 1-2-2-2 0-4 3-4l3-1h2l6-2a18 18 0 00-15 2c0 3-2 5-5 5-1-1-1-1 1-4l3-2-3-1c-2-1-3-2-2-4s1-3-2-5l-3-5c0-1-1-1-3 1s-4 3-4 1v-2c-3 0-3-5-1-8s2-3 0-5c-1-2-2-2-4-1m66 7c0 4-2 9-3 11l-1 5 5-2c5 0 5-1 2-3-2-2-2-6 0-6s1-2-1-4v-2l2 2c1 1 1 1 2-1h1c0 2 1 2 3 1h1l-1 2v2c1 2 0 6-2 7s-2 1 1 1h3v-6l1-9-1-4c-2-1-2-1-1 1 0 4-1 4-3 1v-1l-1 2-1-2c0-2-1-2-3-2-3 0-3 1-3 7m-461-2a6823 6823 0 01-124 36l-69 19c-2 0-4 4-3 5l9-3 17-4a1640 1640 0 0061-19l14-3 15-5 26-7c40-12 59-18 59-20l-5 1m342 2c-1 2 2 6 4 6l1 1v1c3 0 2-5 0-7-3-3-4-3-5-1m69 1l-1 5c-1 1-1 2 1 2 2 1 3 0 3-2v-1c2 0 1 3-1 4-1 1-2 2-1 3 1 2 1 2 3 1 3-2 7 0 7 2l2 2 1-1c-1-1 1-5 2-5v6c-2 1-1 2 2 2s4-1 2-6c-1-3-1-4-5-5-2 0-5-1-7-3l-3-2-3-2-3-2 1 2m-147 1c-3 2-3 3-3 6s0 4-2 4l-5 2-2 3 3 3c3 3 3 3 2 4-2 2-2 2-1 3 1 2 3 2 3-1l1-2v-1c-2-2-1-5 2-8 2-2 3-3 2-4-1 0-1-2 1-2l1-2h1l3 2v1c-2 2-1 3 2 5s3 2 3 5c-1 2-1 3 1 2l1 1c-8 7-8 7-7 4 0-2 0-2-1-1-2 1-2 5 0 5l4-3 4-3a7 7 0 00-1-13c-3-1-3-2-3-4 0-3-1-4-3-6l-3-2-3 2m-86 4c0 2 1 4 4 5l2 6v5l4-2c2-2 4-3 7-3 5 0 8-1 7-3v-2l1-2-3 3c0 2-2 3-3 3-4 0-7 0-8 2-3 2-3 1-4-3l-3-6c-2 0-2-1-2-3 1-3-1-3-2 0m-157 2l-2 1a1 1 0 10-2 1l-3 1h-5l-2 1-40 12c-6 1-6 2-4 2 2 1 16-3 49-13 22-7 22-7 16-7-4 0-6 1-7 2m280 4c-2 2-8 4-9 3-3 0-3 6 0 8 3 4 6 1 3-2h1l3 2-1-3c0-3 0-4 3-6l2-3-2 1m86 1l-4 1c-2 0-2 1-2 4 0 5-2 14-4 16-1 1 0 2 2 2 3 1 5 0 4-4l1-5c2-2 2-8 0-10-3-2-2-2 3-1 4 0 5 0 5-2h-2c0-3-1-3-3-1m8 2c-1 1 0 4 2 4l1 3 2 2 1 2-1 1c-3 0-2 2 1 5l4 3v-3c2-3 3-3 3 2l-1 3 3-1 5 1 2 2 1 2c-1 2 3 3 10 2 6 0 5-3-1-2-4 0-5 0-6-2-1-5-2-7-6-7-6-2-14-8-19-17h-1m76-1l-4 1-12 4 9-1h6l-2 1c-1 1-1 1 2 1 4 0 5-1 3-4 0-2-1-2-2-2m-295 3l-1 17c2 0 3-3 3-6l2-5c1-2 1-2-1-5-2-4-3-4-3-1m137 0c1 2 0 4-2 4v1l3-1c2-2 2-2 1 0-1 3-1 3 1 3s5-3 5-6 0-3-4-3c-3 0-4 0-4 2m9 11c-2 2-1 6 1 4l3 1c3 2 3 2 1 3s-1 3 3 4l3 4 1 4 2-2c1-2 2-2 2-1l-3 4-2 3 5-3c5-4 2-12-5-12-2 0-2-1-2-3 0-3-1-4-4-6-4-2-3-2-5 0m-366 0l-7 1c-2 0-2 0-1 1v1h-4c-5 1-7 2-7 3h-2l-3 1h-3l-5 1-16 5-49 14a34 34 0 01-10 3 59 59 0 01-18 5c-4 3-15 5-17 3-2-1 0-3 3-3 2 0 2 0 0-2a3 3 0 00-5 0c2 0 2 0 1 2s-1 3 1 5c3 4 1 4 18-1 16-5 16-5 14-2l-1 5v3l3-2c4-3 11-6 15-6 4-1 5-3 0-5-3-1-4-1 16-7 85-26 87-26 80-26l-3 1m326 3c-2 1-3 2-2 3l-1 3-1 2c1 3 4 2 4 0a5 5 0 018 4c0 3 3 6 4 4v-3c-1-2 5-1 7 1s2 2 1 0c-1-3-3-5-7-6l-2-4c0-6-7-9-11-4m159 0l-4 2v1c2 1 0 4-2 5-3 1 2 2 10 2h5l-4-3-2-2 1-2 2-3c2-3-3-3-6 0m-416 2l-6 4 5-2c7-4 7-5 6 15 0 17-1 19-4 21-4 1-17 9-17 10l11-6 11-5v-13l1-20c0-8 0-8-7-4m201-1h14v18l-1 19-7 1-7 1h15v-5l1-20v-15h-8l-7 1m45 0v3c-2 1-1 2 2 3l3 2v-7c-1-2-5-3-5-1m182 2c1 3 1 4-2 5-2 1 0 3 2 3l2-2 2-3c3-2 2-4-1-5-5-2-5-1-3 2m-337 5c-7 25-6 46 2 65l4 10 2 2c2 0 1-1-5-16-8-18-8-24-4-48 2-12 3-13 5-6 1 3 1 3 1 0a24 24 0 00-3-10l-2 3m285-3l-2 3v2l5 3c4 4 16 9 15 7l-2-2-3-1h2l4-1c2-2 2-2-1-3l-4 1h-5c-2 0-3-1-3-3-1-5-6-9-6-6m-89 5l-3 4a16 16 0 0010 9h3l-4-2-4-3c-1-1 1-1 4 1l6 2-2-2c-5-1-7-6-3-8l1-3c-2-2-5-1-8 2m-17 6c-2 3-2 3 1 4 5 2 5 2 5 0 1-2-2-6-3-6l-3 2m142 0l-3 4-5 3-4 1 13 7 2 1 10 8 16 11c5 4 6 5 8 4s2-2 0-2l-7-4-6-4-7-6 2-1 1-1-4-1c-4 0-17-9-15-10v-4c-1-3-1-3 2-3l3-3c0-3-3-3-6 0m52 2l-7 2 4 2 5 2c1 1 4 1 5-1l-2-1-2-2h4c1 2 4 1 4-1 0-3-4-4-11-1m-446 9v11h32l-16-1h-15v-11l-1-10v11m146-10v11l4 1c3 2 4 2 4 0l-1-1c-1 1-4-3-5-7l-2-4m-231 5c-1 0-1 3 1 5 1 2 1 2 4 1 2-1 2-1 1-3-1 0-2-2-1-3h-5m-71 2l-4 1-2 2-2 1v1l2 3 2 1 3 1c2 0 2 0 2-2l1-2v-1l-1-4c0-2-1-2-1-1m454 0c-1 1-2 2-2 5s0 4-4 5c-3 2-6 4-5 5s10 0 10-1l1-3c2-1 4-12 3-12l-3 1m-432 3l-2 2v1l2 2 2 2h2c1 2 2 1 2-1l1-2v-2c-2-3-7-5-7-2m413-1l-1 2-2 3c-1 1-1 1 1 1l2 3 1 1v-1l1-2c2 0 3-4 2-6s-2-2-4-1m-221 3l-2 5-3 4c-2 0-2 0-1 1l2 2-1 2h-1l-1 9c0 8 1 10 2 9l1-1h4c1 1-2 4-5 5l-2 3-2 4v8c-2 2-2 2 0 5s1 4-2 1c-2-2-2-2-4 2-3 3-6 5-9 5-2-1 1-3 7-7 4-3 5-6 2-5-2 1-2 1-2-2 0-4-2-3-2 1 0 2-2 3-4 5-4 1-4 2-4 5l1 4c0 3 2 10 3 9v-3l1-2 5-4 4-4 1 3 4 4c3 1 4 3 3 3l-1 6c0 3-1 4-3 4a6 6 0 00-8 4l-1-2c0-4-8-5-9-1-3 8-2 9 2 11 5 3 6 3 6 1l2-3 1-3 5-3c8-2 14-6 10-6l-1-2 1-3c2-2 1-5-2-8-4-3-4-5 0-4 1 1 3 3 3 5l2 4 2-3 2-4 6-3a4 4 0 01-3 7c-3 0-5 4-4 6s0 6-1 6l-3 3-4 2-4 3-6 3-4 2v2c-2 1-1 2 4 4l4 2v-3c0-3 1-6 4-6l3-2c3-3 4-4 4-1l2 3 1 6c0 5 1 8 4 8v-8c0-8-1-9-4-12s-4-4-1-4l1 1 2 3c2 2 2 2 2-1 0-2 0-2 1 0l3 2 4 1 2-1-4-2c-3-1-4-1-5-7l-1-5 5-3 4-4c0-2 1-1 3 1l4 4c3 1 4 1 3 3-1 4 3 10 4 7v-7c1-1 0-5-2-5s-8-5-8-7c-1-1-1-1 0 0l4 1 5 4a3 3 0 005 1v6l1 4c0 4 4 8 8 8l-2-2c-2-1-3-2-4-6-2-9-1-9 6 0l9 13c4 4 4 5 2 6-3 2-3 3 1 4 3 0 3 1 3 3v6c0 4-1 4-3 4a8 8 0 00-9 6l-1-1c0-2-6-5-7-4-2 1-1 3 1 3l3 4c1 3 1 4 5 3l3-3 3-3 2-2 2-1 4-2c2-3 4-4 4-2s-11 12-13 12c-1-1-1 0-2 2-2 3-1 3 4 4 3 0 3 0 3-2-1-2 0-3 4-5l5-3 4 3c4 3 5 3 5 0l-1-2c-2 1-4 0-5-3l-2-4-1-1-2-4c-2-3-2-4-1-5 1 0 0-3-3-4-1-1-3-2-3-4l-14-19-16-22-4-3 1 3 2 3 2 3 2 2-9-4c-2-2-6-2-8 0s-3 0-7-10c-7-17-7-20-7-36l-1-14v1m256 0v3l-2 1a1 1 0 100 2c2-1 3 1 1 1l3 1c4 0 5-1 5-2 0-3 1-5 3-5l1-1-2-1c-2 0-3 1-3 2 0 2 0 3-1 2a1 1 0 10-1 2h1c-2 2-5 0-4-3 0-3 0-4-1-2m16 5l1 3v2h-3c0-2-6-2-6-1l1 6c1 1 1 1 1-1 0-3 2-3 5-1 2 2 3 2 3 1l2-3 1-2c-1-1 0-2 1-2 1-1 1-1-1-3-2-4-5-4-5 1m98-1c-2 1-1 2 2 2h1v4c2 2 1 2-1 1-2-2-3-2-3-1 0 2 2 3 11 3 6 1 9-1 8-5a2 2 0 10-2 1l1 1c0 3-4 0-4-3s-1-4-3-2l-1 4v3c-1 0-3-3-3-5 1-2-5-5-6-3m-298 3c-2 0-5 6-3 6v6c-2 1-1 2 5 4l5 4c0 3 4 5 5 3v-2l-2-4c-2-4-3-4-5-3-6 2-6 1-6-5 0-7 2-9 5-8l1-1h-5m238 5l1 1c2-1 7 2 7 3 1 4 0 7-1 4l-2-1 2 3 4 5c3 4 10 4 12 0v-3h-1c0-2-5-5-16-11-4-2-5-2-6-1m-455 6c0 5 0 5 1 1l1-5 21 14 21 13-42-29c-2 0-2 1-2 6m65 1c-14 7-14 8-11 11 2 2 3 3 2 5 0 1 0 2 2 2 2 1 3 0 3-2-1-3 3-7 6-7 2 0 5 4 5 7a2 2 0 103 0c0-2 1-3 3-5l3-2 3 2c2 2 3 3 3 6a2 2 0 104-1c0-1 0-4 2-5 2-3 2-9 0-12-1-1-2-2-1-3 0-1-1-2-5-2-8-1-9-1-22 6m-202-5l5 5c4 5 5 10 2 13a2 2 0 103 2v-1l1-9-4-4c-3-5-7-8-7-6m239 1l-2 4-1 3v2l-1 25-2 34v10h8c7 0 7 0 5-2-4-2-7-9-4-9l1-3 2-5c0-3 0-3-2-2l1-2a15 15 0 004-12c1 0 3-9 2-11-3-6-1-12 6-16l5-4v-5l-1-7c0-2 0-2-10-2-11 0-11 0-11 2m162 8c-5 12-5 13-2 14l3 2 2 2 4 2c1 1 1 1 1-1l-1-3v-1a23 23 0 001-15l-1-3c-1 0-2-1-2-3 0-4-2-2-5 6m16-6l-2 3c-3 2-3 11 0 13 2 2 3 3 2 4-2 1 0 3 2 3s2 0 2-2c-1-3 3-7 6-7 2 0 6 4 5 7 0 2 0 2 2 2 1 0 2-1 2-3s3-6 5-6c3 0 7 4 7 6a2 2 0 103 0l2-4c3-3 2-4-10-11s-13-7-20-7c-6 0-7 0-6 2m-342 3l-2 2v1l2 2c0 1 1 2 3 2 2 1 3 0 3-1l1-2v-1l-1-3-3-1-3 1m431 18c0 21 1 18-12 26l-8 5 3-1 11-6 7-4v-39l-1 19m-404-16l-1 2 1 2c0 1 1 2 3 2 2 1 3 0 3-1l2-2c1-1 1-1-1-2l-1-2-1-1-2 1h-1l-2 1m553 6l13 13c14 14 14 14 13 7l-3-1-2-2-3-3-7-5-2-3-3-4-3-2h-3m-533 7l-2 5-4 3h-1v2l-1 2c0 3-6 9-10 12-3 1-6 7-7 14l-2 5 1 2 3 1-2 1h-2c0 2 9 2 12 1 7-4 8-6 8-13l2-9 1-3c-2 0 0-2 5-4 3-1 5-3 7-6l2-3h-2c-4 0-5-2-6-7 0-3-1-4-2-3m237 2c1 3 0 4-6 4l-6 1 4 1c3-1 3-1 2 1l-5 1h-3l3 4c4 3 6 3 6-2 0-2 4-4 11-5 6 0 6-1-2-5l-6-3 2 3m-353 8v6l3-1 3-3 2-2v-3l-2-3-3-1h-3v7m276-5l-2 1c-4 0-5 1-4 8 0 4 1 6 2 6a10 10 0 015 5h-1l4 1a4 4 0 004-2l1 1h1v-1l-1-2-3-9-3-8c0-2-2-3-3 0m-221 4c0 2 1 3 3 3 4 0 6-2 4-3l-1-2c0-1-1-2-3-2-3 0-3 1-3 4m27-2l-2 3v1l1 1 4 3c2 1 3 0 3-1l1-2v-2l-1-2-3-1h-3m312 3l-5 4c-6 2-8 5-6 11 0 4 3 7 6 7 3 1 6 3 6 6 1 2-2 2-5 0l-5-4-4-4c0-2-5 1-7 6l-4 4c-5 2-7 7-4 7 1 0 2 1 2 3 0 3-1 4-2 4l-3 2-3 2-4 4-6 3c-2 0-4 2-4 7 0 4 0 5 3 6 3 2 4 3 4 5l2 2c3 0 1-5-2-6-2-1-2-1-2-3l2-5c0-4 5-8 7-8l2-1c1-2 3-2 21-2h20v-17c0-9 0-16-1-15l-5 7-2-2c0-2-2-3-4-3-4 0-4-1-4-3v-6c0-4 0-4 4-5l5-4c1-2 3-3 3-1l2 4 2 3v-3c0-2-2-5-6-7-2-1-2 0-3 2m14 1l-1 16v16l1-16c0-18-2-16 18-16l13-1h-15l-16 1m-48 1l-2 1h-2l-1 2c-4 0-5 0-6 3l-1 3c2 0 3 3 1 5-1 1 0 4 1 4s3-7 2-10c-1-2-1-3 5-5 4-1 6-4 4-4l-1 1m150 1c-3 1-3 1-1 2l3 3c2 3 3 2 5-1v-3l-1-1c0-2-3-2-6 0m-180 0l-4 4c-6 3-6 5 0 12 4 5 7 6 13 2 3-1 3-1 1-4v-4c2-3 1-5-3-5l-4-3c-1-3-3-4-3-2m36 1l5 3c3 1 3 1 2 4v6c0 2-1 3-3 4-3 0-9 5-9 7l1 3c2 2 3 1 4-4l5-4c5-2 7-5 6-6v-3c2-3 1-7-2-8l-5-2c-5-2-6-2-4 0M4 295l3 1H4c-3 0-4 3-1 3l-1 2-1 2 3 2c1 1 1 1 1-1s1-3 2-3c3 0 3 4 1 5-2 0-2 1-1 2 2 2 3 1 3-2 1-1 1-2 2-1v9c1 3 1 3 1-5l2-11c3-3 0-5-7-5s-7 0-4 2m61 7l1 9 1 8 5-3 6-5h1l2-2 1-1v3c2 0 1 2-1 4l-1 2 3-1 1-8c0-6 0-7-1-6l-3 2-3 2c-2 2-8-1-11-4-1-2-1-2-1 0m351 11l-4 5-3 3v6c0 2 0 3 2 3v-1c-2-1 0-2 5-2 7 0 9-1 10-4l2-3-4-2-5-5-2-2-1 2m-282 4c0 3 1 4 2 3l6-1v-3c-1-3-1-4-4-4-4 0-4 0-4 5m83 6l1 5h34l-17-1h-16l-1-4-1-4v4m371 1l-17 1h-12l3 2c5 3 5 4 0 4l-6 2h-5c-3-1-12-1-14 1-2 1-4 7-4 7l7-3c9-4 31-4 31 0l1 1a160 160 0 0029-9 2 2 0 00-1-4l-1-1c0-2-3-2-11-1m-532 4c-3 1-4 1-1 3 1 2 1 2-1 3-3 1-4 0-3-2s1-2-1-2c-4 0-10 13-10 23 0 7 1 13 2 13l7-14 9-9c9-6 10-7 7-7-3-1-6-6-5-8s1-2-4 0m280 0c-4 3-3 3-1 8l2 6c2 3 3-1 3-9 1-8 0-9-4-5m-192 3a15 15 0 010 4h2v2l2 2h2l2-3v-1l-2-3h-2l-3-1h-1m-64 1l-7 2-4 1-1 8a1099 1099 0 01-4 38l5-2 5-2c2 0-3 5-7 6-3 2-4 5 0 13l1 4h60l3-9a196 196 0 006-19l-1-2-1 2-1-1c-1-2-2-3-1-4v-1l-1 2-3 1c-2 0-2 0 1-3l3-3 2 3 2 2 1-3c4-25-22-31-45-9-4 3-8 6-7 3v-8l-2-13-1-7-3 1m244 1l4 5c4 3 4 3 3 5l-2 6c0 2-1 3-3 5-4 2-5 3-2 2l1 2v3l4-2 3-4 3-4 2-1 3-1h-2c-3 1-5-2-3-6 1-2 0-6-4-6l-5-4c-2-2-2-2-2 0m52 3c-1 2-1 2 1 4l3 4c1 1 1 1 3-1l1-3-3-3c-2-2-3-3-5-1m-302 2l-2 3c-2 0-3 2-1 2l3 2c1 2 2 2 4-1l3-2-3-3c-3-3-3-3-4-1m-65 9v20l1-4v-5c1-1 2-11 0-12l-1 1m95 10c1 5 1 5 3 5l4 1h1l-1-2v-4c2-3 2-3-1-2h-5c-2-1-2-1-1 2m63 5c0 3 1 3 20 16l19 11c2-1 1-4-3-7l-5-5c0-2-1-2-3-2s-3-1-5-3l-3-3-5-2-6-3-4-1-3-4-2-1v4m-144 3l-2 5-1 4c1 2 4 4 5 2l2-1c2 0 1-5-1-5-2-1-2-1-2-4v-3c-1-1-1 0-1 2m546 4c0 3-1 5-3 2 0-2-2-3-2-1 0 3-6 5-12 3h-2c1 2 15 6 16 6 3-2 6-9 4-12s-2-3-1 2M9 370v2l-1 1c-1-1-2 0-3 2l-1 3c-1 0-2 4-1 5l1 4 2 3c1 0 1 1-2 2H1l-1 4c0 4 0 4 3 4 2 0 2 0 2-2v-2l4-3c4-3 10-5 16-5 2 0 3-1 2-2v-3c0-1-1-2-3-2-6-1-7-1-8 3 0 2-1 3-3 4-3 1-4 1-5-2-2-4-2-6 0-6l1-3 1-5v-3c0-1-1-1-1 1m511 5c-8 6-8 7-10 5-1-1-2 0-6 3l-7 5-2 3 5-1 17-9c13-7 15-9 14-11-1-3-3-2-11 5m-420 0l-1 4h3a3 3 0 014 2v-4c-1-2-1-3 1-4l-3-1c-4 0-5 1-4 3m442 7v3l-1 2-1-1c1-2-1-2-2-1l-2 2c-2 1-2 1-1 2l3 2 1 1c0-3 2 2 2 4l1 4 1-3 1-4 1 2c-2 4 0 5 8 5 7 0 7 0 7-3l1-2v2c0 4 2 4 2 0 2-6 2-7 4-7l1-1v-3l-1-2-1 1c1 3-2 4-3 2v-2h2v-1l1-1-5 1c-4 1-11 1-16-1l-3-1m-213 4l-1 2a20 20 0 00-10 5l-2 1h4c3 0 5 0 4 1-2 1-1 2 1 2l3-1 2-10h-1m-105 2c-4 1-6 7-2 7l30 1 28 1 3-3c4-5 3-5-13-5h-21c-6 2-15 1-16-1s-3-2-9 0m191 3c0 2-6 2-14 1h-12l-6 1c-3 0-5 2-4 4h103v-3c0-3 0-3-2-2-4 1-12 1-19-1s-8-2-13-1h-8l-7 1h-8c-8-2-10-2-10 0m-108 2l-3 2h-1l-10 3-3 1c-1 2 13 1 18-1 3-1 4-2 3-3v-2c1-3-2-2-4 0"
    itemprop="bold" fill-rule="evenodd" tabindex="-1" fill="url(#16282281824-posters-1653312626665-vertical-bold"
    fill-opacity="" stroke="url(#16282281824-posters-1653312626665-radial-regular" stroke-opacity=""></path>
  <!---->
</svg>
