<svg id="16282281824-posters-1703551981459" itemscope="" itemtype="/posters"
  itemid="/+16282281824/posters/1703551981459" viewBox="0 0 683 512" preserveAspectRatio="xMidYMid meet" tabindex="0"
  xmlns="http://www.w3.org/2000/svg">
  <g class="radial">
    <radialGradient id="16282281824-posters-1703551981459-radial" gradientUnits="userSpaceOnUse">
      <stop itemprop="radial" stop-color="hsla(18, 11%, 30%, 1.00)" offset="0%"></stop>
      <stop itemprop="radial" stop-color="hsla(28, 15%, 35%, 1.00)" offset="15%"></stop>
      <stop itemprop="radial" stop-color="hsla(28, 14%, 39%, 1.00)" offset="30%"></stop>
      <stop itemprop="radial" stop-color="hsla(22, 11%, 40%, 1.00)" offset="45%"></stop>
      <stop itemprop="radial" stop-color="hsla(0, 5%, 43%, 1.00)" offset="60%"></stop>
      <stop itemprop="radial" stop-color="hsla(326, 3%, 44%, 1.00)" offset="75%"></stop>
      <stop itemprop="radial" stop-color="hsla(264, 4%, 46%, 1.00)" offset="90%"></stop>
    </radialGradient>
    <radialGradient id="16282281824-posters-1703551981459-radial-background" gradientUnits="userSpaceOnUse">
      <stop stop-color="hsla(18, 13%, 80%, 1)" offset="0%"></stop>
      <stop stop-color="hsla(28, 15%, 80%, 1)" offset="15%"></stop>
      <stop stop-color="hsla(28, 14%, 80%, 1)" offset="30%"></stop>
      <stop stop-color="hsla(22, 13%, 80%, 1)" offset="45%"></stop>
      <stop stop-color="hsla(0, 13%, 80%, 1)" offset="60%"></stop>
      <stop stop-color="hsla(326, 13%, 80%, 1)" offset="75%"></stop>
      <stop stop-color="hsla(264, 13%, 80%, 1)" offset="90%"></stop>
    </radialGradient>
    <radialGradient id="16282281824-posters-1703551981459-radial-light" gradientUnits="userSpaceOnUse">
      <stop stop-color="hsla(18, 11%, 66%, 1)" offset="0%"></stop>
      <stop stop-color="hsla(28, 15%, 66%, 1)" offset="15%"></stop>
      <stop stop-color="hsla(28, 14%, 66%, 1)" offset="30%"></stop>
      <stop stop-color="hsla(22, 11%, 66%, 1)" offset="45%"></stop>
      <stop stop-color="hsla(0, 5%, 66%, 1)" offset="60%"></stop>
      <stop stop-color="hsla(326, 3%, 66%, 1)" offset="75%"></stop>
      <stop stop-color="hsla(264, 4%, 66%, 1)" offset="90%"></stop>
    </radialGradient>
    <radialGradient id="16282281824-posters-1703551981459-radial-regular" gradientUnits="userSpaceOnUse">
      <stop stop-color="hsla(18, 11%, 44%, 1)" offset="0%"></stop>
      <stop stop-color="hsla(28, 15%, 44%, 1)" offset="15%"></stop>
      <stop stop-color="hsla(28, 14%, 44%, 1)" offset="30%"></stop>
      <stop stop-color="hsla(22, 11%, 44%, 1)" offset="45%"></stop>
      <stop stop-color="hsla(0, 5%, 44%, 1)" offset="60%"></stop>
      <stop stop-color="hsla(326, 3%, 44%, 1)" offset="75%"></stop>
      <stop stop-color="hsla(264, 4%, 44%, 1)" offset="90%"></stop>
    </radialGradient>
    <radialGradient id="16282281824-posters-1703551981459-radial-bold" gradientUnits="userSpaceOnUse">
      <stop stop-color="hsla(18, 11%, 13%, 1)" offset="0%"></stop>
      <stop stop-color="hsla(28, 15%, 13%, 1)" offset="15%"></stop>
      <stop stop-color="hsla(28, 14%, 13%, 1)" offset="30%"></stop>
      <stop stop-color="hsla(22, 11%, 13%, 1)" offset="45%"></stop>
      <stop stop-color="hsla(0, 5%, 13%, 1)" offset="60%"></stop>
      <stop stop-color="hsla(326, 3%, 13%, 1)" offset="75%"></stop>
      <stop stop-color="hsla(264, 4%, 13%, 1)" offset="90%"></stop>
    </radialGradient>
  </g>
  <g class="vertical">
    <linearGradient id="16282281824-posters-1703551981459-vertical" gradientUnits="userSpaceOnUse" x1="0" x2="0" y1="0"
      y2="100%">
      <stop itemprop="vertical" stop-color="hsla(20, 12%, 30%, 0.75)" offset="0%"></stop>
      <stop itemprop="vertical" stop-color="hsla(30, 15%, 35%, 0.75)" offset="15%"></stop>
      <stop itemprop="vertical" stop-color="hsla(29, 14%, 39%, 0.75)" offset="30%"></stop>
      <stop itemprop="vertical" stop-color="hsla(19, 11%, 40%, 0.75)" offset="45%"></stop>
      <stop itemprop="vertical" stop-color="hsla(5, 5%, 43%, 0.75)" offset="60%"></stop>
      <stop itemprop="vertical" stop-color="hsla(326, 3%, 44%, 0.75)" offset="75%"></stop>
      <stop itemprop="vertical" stop-color="hsla(264, 4%, 46%, 0.75)" offset="90%"></stop>
    </linearGradient>
    <linearGradient id="16282281824-posters-1703551981459-vertical-background" gradientUnits="userSpaceOnUse" x1="0"
      x2="0" y1="0" y2="100%">
      <stop stop-color="hsla(20, 12%, 80%, 1)" offset="0%"></stop>
      <stop stop-color="hsla(30, 15%, 80%, 1)" offset="15%"></stop>
      <stop stop-color="hsla(29, 14%, 80%, 1)" offset="30%"></stop>
      <stop stop-color="hsla(19, 11%, 80%, 1)" offset="45%"></stop>
      <stop stop-color="hsla(5, 5%, 80%, 1)" offset="60%"></stop>
      <stop stop-color="hsla(326, 3%, 80%, 1)" offset="75%"></stop>
      <stop stop-color="hsla(264, 4%, 80%, 1)" offset="90%"></stop>
    </linearGradient>
    <linearGradient id="16282281824-posters-1703551981459-vertical-light" gradientUnits="userSpaceOnUse" x1="0" x2="0"
      y1="0" y2="100%">
      <stop stop-color="hsla(20, 21%, 66%, 1)" offset="0%"></stop>
      <stop stop-color="hsla(30, 21%, 66%, 1)" offset="15%"></stop>
      <stop stop-color="hsla(29, 21%, 66%, 1)" offset="30%"></stop>
      <stop stop-color="hsla(19, 21%, 66%, 1)" offset="45%"></stop>
      <stop stop-color="hsla(5, 21%, 66%, 1)" offset="60%"></stop>
      <stop stop-color="hsla(326, 21%, 66%, 1)" offset="75%"></stop>
      <stop stop-color="hsla(264, 21%, 66%, 1)" offset="90%"></stop>
    </linearGradient>
    <linearGradient id="16282281824-posters-1703551981459-vertical-regular" gradientUnits="userSpaceOnUse" x1="0" x2="0"
      y1="0" y2="100%">
      <stop stop-color="hsla(20, 12%, 44%, 1)" offset="0%"></stop>
      <stop stop-color="hsla(30, 15%, 44%, 1)" offset="15%"></stop>
      <stop stop-color="hsla(29, 14%, 44%, 1)" offset="30%"></stop>
      <stop stop-color="hsla(19, 11%, 44%, 1)" offset="45%"></stop>
      <stop stop-color="hsla(5, 5%, 44%, 1)" offset="60%"></stop>
      <stop stop-color="hsla(326, 3%, 44%, 1)" offset="75%"></stop>
      <stop stop-color="hsla(264, 4%, 44%, 1)" offset="90%"></stop>
    </linearGradient>
    <linearGradient id="16282281824-posters-1703551981459-vertical-bold" x1="0" x2="0" y1="0" y2="100%">
      <stop stop-color="hsla(20, 12%, 13%, 1)" offset="0%"></stop>
      <stop stop-color="hsla(30, 15%, 13%, 1)" offset="15%"></stop>
      <stop stop-color="hsla(29, 14%, 13%, 1)" offset="30%"></stop>
      <stop stop-color="hsla(19, 11%, 13%, 1)" offset="45%"></stop>
      <stop stop-color="hsla(5, 5%, 13%, 1)" offset="60%"></stop>
      <stop stop-color="hsla(326, 3%, 13%, 1)" offset="75%"></stop>
      <stop stop-color="hsla(264, 4%, 13%, 1)" offset="90%"></stop>
    </linearGradient>
  </g>
  <g class="horizontal">
    <linearGradient id="16282281824-posters-1703551981459-horizontal" x1="0" x2="100%" y1="0" y2="0"
      gradientUnits="userSpaceOnUse">
      <stop itemprop="horizontal" stop-color="hsla(22, 12%, 31%, 1.00)" offset="0%"></stop>
      <stop itemprop="horizontal" stop-color="hsla(27, 14%, 37%, 1.00)" offset="15%"></stop>
      <stop itemprop="horizontal" stop-color="hsla(23, 11%, 40%, 1.00)" offset="30%"></stop>
      <stop itemprop="horizontal" stop-color="hsla(354, 5%, 43%, 1.00)" offset="45%"></stop>
      <stop itemprop="horizontal" stop-color="hsla(285, 4%, 45%, 1.00)" offset="60%"></stop>
      <stop itemprop="horizontal" stop-color="hsla(244, 6%, 48%, 1.00)" offset="75%"></stop>
      <stop itemprop="horizontal" stop-color="hsla(264, 5%, 40%, 1.00)" offset="90%"></stop>
    </linearGradient>
    <linearGradient id="16282281824-posters-1703551981459-horizontal-background" gradientUnits="userSpaceOnUse" x1="0"
      x2="100%" y1="0" y2="0">
      <stop stop-color="hsla(22, 12%, 80%, 1)" offset="0%"></stop>
      <stop stop-color="hsla(27, 14%, 80%, 1)" offset="15%"></stop>
      <stop stop-color="hsla(23, 11%, 80%, 1)" offset="30%"></stop>
      <stop stop-color="hsla(354, 5%, 80%, 1)" offset="45%"></stop>
      <stop stop-color="hsla(285, 4%, 80%, 1)" offset="60%"></stop>
      <stop stop-color="hsla(244, 6%, 80%, 1)" offset="75%"></stop>
      <stop stop-color="hsla(264, 5%, 80%, 1)" offset="90%"></stop>
    </linearGradient>
    <linearGradient id="16282281824-posters-1703551981459-horizontal-light" gradientUnits="userSpaceOnUse" x1="0"
      x2="100%" y1="0" y2="0">
      <stop stop-color="hsla(22, 12%, 66%, 1)" offset="0%"></stop>
      <stop stop-color="hsla(27, 14%, 66%, 1)" offset="15%"></stop>
      <stop stop-color="hsla(23, 11%, 66%, 1)" offset="30%"></stop>
      <stop stop-color="hsla(354, 5%, 66%, 1)" offset="45%"></stop>
      <stop stop-color="hsla(285, 4%, 66%, 1)" offset="60%"></stop>
      <stop stop-color="hsla(244, 6%, 66%, 1)" offset="75%"></stop>
      <stop stop-color="hsla(264, 5%, 66%, 1)" offset="90%"></stop>
    </linearGradient>
    <linearGradient id="16282281824-posters-1703551981459-horizontal-regular" gradientUnits="userSpaceOnUse" x1="0"
      x2="100%" y1="0" y2="0">
      <stop stop-color="hsla(22, 18%, 44%, 1)" offset="0%"></stop>
      <stop stop-color="hsla(27, 18%, 44%, 1)" offset="15%"></stop>
      <stop stop-color="hsla(23, 18%, 44%, 1)" offset="30%"></stop>
      <stop stop-color="hsla(354, 18%, 44%, 1)" offset="45%"></stop>
      <stop stop-color="hsla(285, 18%, 44%, 1)" offset="60%"></stop>
      <stop stop-color="hsla(244, 18%, 44%, 1)" offset="75%"></stop>
      <stop stop-color="hsla(264, 18%, 44%, 1)" offset="90%"></stop>
    </linearGradient>
    <linearGradient id="16282281824-posters-1703551981459-horizontal-bold" gradientUnits="userSpaceOnUse" x1="0"
      x2="100%" y1="0" y2="0">
      <stop stop-color="hsla(22, 12%, 13%, 1)" offset="0%"></stop>
      <stop stop-color="hsla(27, 14%, 13%, 1)" offset="15%"></stop>
      <stop stop-color="hsla(23, 11%, 13%, 1)" offset="30%"></stop>
      <stop stop-color="hsla(354, 5%, 13%, 1)" offset="45%"></stop>
      <stop stop-color="hsla(285, 4%, 13%, 1)" offset="60%"></stop>
      <stop stop-color="hsla(244, 6%, 13%, 1)" offset="75%"></stop>
      <stop stop-color="hsla(264, 5%, 13%, 1)" offset="90%"></stop>
    </linearGradient>
  </g>
  <rect itemprop="background" width="683" height="512" tabindex="-1" id="16282281824-posters-1703551981459-background"
    fill-opacity="1" fill="url(#16282281824-posters-1703551981459-radial-background)"></rect>
  <path id="16282281824-posters-1703551981459-light"
    d="M0 82c0 88 0 82 5 81l15 2 19 1a1107 1107 0 0 1 63 6 462 462 0 0 1 40 5c9 0 14 1 14 2l5 1 18 2h3l8 1a210 210 0 0 1 26 4l12 2 8 1 10 2 9 1 8 1 7 1a77 77 0 0 1 13 2l6 1 9 2a272 272 0 0 1 16 2c2 0 3 1 3 2 0 2-8 3-29 3l-14 2a9 9 0 0 1-6 1c3 1 4 3 3 3l-2-1h-1l-7 2c-11 1-12 3-3 4a13955 13955 0 0 0 35 3 86 86 0 0 0 24 0h38l14 1a954 954 0 0 1 47 4 3008 3008 0 0 1 86 7l41 4 16 2c8 1 13 2 27 1l25 2a54 54 0 0 0 22 0l8 1h24l18 1v19h-35c20 2 11 2-21 2-61-2-126-2-147-1l-63-1h-53l-31 1h-22l8 1h-79l18 1c19 1 10 2-22 2h-55l-5 1-22-1c-14 0-16 0-17-2-2-2-10-3-10-1h-10l-6-1-3-1-10-2c-12-4-29-7-38-6l-9-1v-3h1l1-2c3-2 1-4-2-2s-6 1-6-1l-2-3-4-3c-1-2-4-2-7-2l-6-2-2-2c-3 0-10-4-12-6-1-2-2-3-3-2-1 2-4-2-3-3l-3-4-3-2v295h684V0H0v82m0 0c0 45 1 63 1 41a7380 7380 0 0 0-1-41m200 26-8 1-22 1a104 104 0 0 0-26 2l-1 1-1-1v-2l-1 1-2 2c-7 0-9 2-3 5l5 3 5 2 5 2 4 1c2 0 2 0 2 2-1 1-1 1 0 0h3l4 1 4 2 4 2 4 1 3 1 2 1 8 1 5 1 2 1c2-1 3 0 3 1l3 1h4c-1-1-1-1 0 0l2 1h3l6 1 6 1 4 1 9 1 25 1h7l16 1 5 1h5c-1-1-1-1 2-1l6 1 4 1h23l38 1c1-1 9 0 8 1h4l1-1 2-1h16a613 613 0 0 0 23 1c6 0 8 0 7-1l1-1h6c1 2 5 2 26 2h31l3 1h5l14 1c3 2 6 2 20 3h21l7 1c5 1 12 2 14 1a61 61 0 0 1 28 0l13 1 10-2c-1-1 14-3 17-2a189 189 0 0 0 36 1c-1 1-1 1 1 1s2 0 2-19v-19h-3l-3 1h-3l-4-1-6-1c-2-1-3 0-4 1l-1 1-6-1-6-1-18-1-1 1v-1l-4-1-1-1-1-1h-6c-4-1-4-1-4 2-1 3 0 4 6 5l3 2h3l1 2c3 0 5-1 5-2v-1l2 1 2 2 2 4c-1 1 0 2 1 1v-1h4c-1-2-1-2 1-2 3 0 3 2 3 5h2l1 1v1c1 0 2-1 1-2 0-2 0-2 3-1 3 2 4 2 5 0h2l-6 4c-2-1-2 1 0 2h1l2-1 3-1c1-2 5-2 5 0s2 2 4 0h1c-1 2-1 2 1 3l2 2-2 2-2 3 1-3v-2c-1-1-2 0-2 2s-4 2-7-1c-2-2-4-1-3 1h-1c-1-2-3-2-2 0h-7l-5-1-7-1-5-1-7-1-7-1-3-1h-3l-9-1h-3l-4-1c-2-2-5-2-3 0l-1 1c-2 0-2-1-1-3h-1c-2 2-2 2-5 1l-6-2h-4c0-2 0-2-2-1-1 1-1 1-2-1 0-2-1-2-2-1h-1l-3-1h-2l-2-1-3-1h-4l-5-2h-2l-1-1-4-1-8-1-6-2h-3a8 8 0 0 0-9-1h-5l-5-1-7-1-8-1-8-1-6-1h-19l-23-2-19-1-1 1h-29c-31 0-36 0-35 1l-2 1c-1 1-2 0-3-1h-3l-4 1h-2a199 199 0 0 1-52 0l-19-2-34-1-20-1h-10M0 365c0 81 1 114 1 73a25177 25177 0 0 0-1-73m159-101v1l-2 1h18l32-1 3-1-25-1-26 1"
    itemprop="light" fill-opacity="0.90" stroke-opacity=".90" stroke-width="0.25px" fill-rule="evenodd" tabindex="-1"
    fill="url(#16282281824-posters-1703551981459-vertical-light)"
    stroke="url(#16282281824-posters-1703551981459-horizontal-regular)"></path>
  <path id="16282281824-posters-1703551981459-regular"
    d="M0 67c0 61 0 66 2 65l3-2a21 21 0 0 0 12-4l1 1c-1 1 0 1 0 0l2-2 1-1 1 1c-1 1 0 1 0 0l2-1 2-1 6-2 5-1h1l1-2 1-2 1 1c-1 1 1 2 2 1 1-2 6-3 8-3l2-2 3-4 3-4 3-2 4-2c3-2 5-2 11-2l8-1 19-1a134 134 0 0 0 26-3l14-1 24-1a55 55 0 0 0 14 0h60l13-2a3 3 0 0 1 5 0v-1h3l4 1h3l2-1h2l2-1 7-1c12 0 16 0 15-1h2c3 2 19 1 21-1h7l7 1h4c2-1 4-2 8-1l7-1h2c0 3 2 1 2-1-1-1 0-2 1-2h2l9-1c8 1 9 1 8-1l1-1a11 11 0 0 0 6 2c2 0 3 0 2-1h13c1-1 2-2 5-1a2 2 0 0 0 4-2l1 1h2a6 6 0 0 1 8 1v-1h3l3-1h1l13 1h20c2-1 17-1 18 1l4-1h17l2 1 2-1 1-1 3-1c2 0 2 1 2 2-1 2-1 2 1 1l1-2 1-1h2l9-1a273 273 0 0 0 35-2l22 2 2-1h1l1-1h27a244 244 0 0 1 58 1l11 1 3 1v29l1-38V0H0v67m0 0c0 37 1 52 1 33a4849 4849 0 0 0-1-33m535 140c-2 1-2 2 0 3 1 1 1 1-1 3v1h2c1 2 4 2 4 0h4l1-1 1-1c-1-1 0-2 1-1 2 0 2 1 1 1v1h2l1 1c-2 2 1 3 3 2 4-2 7-1 7 1-1 1 0 1 1 1 2 0 2 0 1-1s0-2 2-2l3 1 3 1 3 1h15l1 1v-1h5a3 3 0 0 1 3-1l2 1 2-2c0-2 0-2-2-2h-2s-1-2-3-2l-3-1h-1c-2-1-7-1-8 1h-1c0-2-1-2-4-1-3 0-3 0-2-1h-1l-2 1h-3c1-1 1-1-4-1l-3 1h-1l-8-2h-6c-1-1-9-2-11 0l-1-1c1-2 1-2-1-1m96 4-1 1-1-1c1-1-5 0-7 2l-1-1c2-2-5-1-7 1l-1 1c1-1 0-2-1-2-1-1-1 0-1 1 1 2-3 3-4 1h-1l-1 1-1 1c-1 2-1 2 1 0h3l2 2c1 0 2 0 1-1l1-1v3h2c3-2 5-2 9 0l4 1 2 1 3 1h8c0-1 1-1 6 2l11 2 13 1h11c1 0 2 4 2 32 0 30 0 32-2 32h-4c1-1 0-2-1-1l-1 1-2 1h-1l-1 1-1-2v-1l-5 1h-3c1 1 0 1-3 1l-4 1v-1c0-2-3-1-5 1h-3c-1 2-1 2-3 0-1-1-5 1-5 4 1 1 2 3 2 1h1c2 1 6 1 7-1h2l1 2h3c1 0 2 1 1 2h1l2-3c0-1 1-1 1 1h1l2 1h1c-1-1 2-3 3-2l-1 1h-1l11 1h7v47l-4-1-30-1-49-2a45643 45643 0 0 0-240-10l-75-3c-36-2-45-1-44 1l-1-1-3-2-3-2-3-2-6-4a14 14 0 0 0-9-3c-2-1-2-1-2 1 1 2 1 2-1 1-3-1-8 1-8 3 0 3-10-1-12-4l-4-1c-2 0-3-1-3-2 0-2-1-4-4-5l-2-2-1-2-2-2-2-2-2-2-2-2c-3 0-4-1-1-2 2-1-1-4-4-4-5 0-7-2-4-5l3-2h-3l-4-1v-3l-2-1-5-2-5-1c-3 0-6-2-5-4l-1-1-3-3c-2-4-8-6-9-4s-17 2-19 0l-2-1-7-2-10-3-7-2-24-1c-7 0-8 0-9-3v-2l3-2c1-2 0-3-3-1-2 2-5 1-6-2-1-2-3-5-5-5l-2-2-5-1-5-1-7-4-8-5c-1-1-2-2-3-1s-5-3-4-4l-4-5-1 147v147h267l266-1-2-1-2-1 1-1c2 0 0-3-4-5l-5-3-3-2c-1 0-3-5-2-7l-2-3h3l9-1c4-1 5-1 5 1-1 1 0 1 2 1l11 3 22 5 13 3-2 2-5 2c-2 0-2 1-2 2 0 2-1 2-2 2l-3 1h17l-1-1c-1-1-1-1 1-1l6 1h4l-4 1-4 2h4l50 1h46V362l-1-150-37-1-6-1c-2-1-2-1-2 1h-1c-3-2-6-2-6 0M0 365c0 81 1 114 1 74a25007 25007 0 0 0-1-74m368 53c0 2 0 3 15 3l17-1c1-2 1-2-2-2l-25-1c-5-1-6-1-5 1m32 3c0 1 17 4 30 5l16 1 8 1h1c0 2 1 2 4 2s4 0 4-2l3-1 6-1c1-1 0-1-4-1h-18l-13-1-1-1-4-1-5-1h-27m75 7-5 1-5 1c0 2 26 2 31 0 1-1 1-1-1-1h-4c-9-2-16-2-16-1m-50 6v3l4 1 11-1c6 0 3-2-4-2-3 0-4 0-3-1l-4-1-4 1m65 5c2 3 3 3 9 3l5 1 2 1c0-1 1-1 0 0l3 1c2 0 3 0 2-1v-2l-2-1-8-1h-7l-3-2c-2-1-2-1-1 1m-26 9c2 1 2 1 1 2-2 1-2 1 0 1l3-1h19c3 0 4 0 3-1l-4-1h-22m-18 2c-4 0-3 2 0 3l2 3c0 2 7 9 9 9l3-2c4-4 16-2 17 3 1 2 1 2 4 1s4-1 4 2c0 1 1 2 2 1 2 0 2 0 1 4a14 14 0 0 0 1 9l4 2c3 1 4 1 6-2 2-2 5-2 8 1h9l2-1-5-1c-5 1-5 1-4-1s3-3 4-1l3 1c2-1 3 0 4 1 2 3 12 5 14 2v-2h6v1l-2 2c0 2 2 1 4-1 3-3 13-3 12 0a2 2 0 1 0 3 1l1 1 15 1 5-1c0-1 4-1 12 1l8 2c4 0 4 0-2-2-10-3-18-4-25-4l-6-1 13-3h4v-1h-6c-6-1-9 0-8 1l-3 1-4 1h-2l-7-1c-6 0-9-1-7-2h1l10 1 9-1-2-1-14-1c-19-2-27-2-26-1l-1 1c-1 1 1 1 5 1l9 1h2c0-2 1-2 2 0v1h-2l-3 1-3-1-2-1c-2 1-19 0-17-1l4-1 4-1-5-1-8-1-20-5-2-1c-1-1 1-2 9-1 8 0 9 0 11-2h5l8-1 11 1 5 1h3l4 1h4l3 1h5l9 2c7 0 11 2 6 2l-3 1h4l4-1h2c0-2-6-4-15-5-6 0-7-1-5-2 1-1 0-1-2-1h-12l-34-2-28-2-6-2c-6 0-6-2 0-2h-9l-14-1h2l1-1-4-1c-2 0-2 0-1-1l2-1h-5m91 0-13 1h-9c7 2 30 2 29 0h-4l-2-1v-1c-1 0-2 0-1 1m-17 6c-3 0-1 1 8 1l31 4 16 1 4 1 4 1c5 1 6 1 6-1s-4-3-25-4l-22-2c-11-1-18-2-22-1m127 9 3 2c1 2 13 2 14 0h8l-2 1c-3 0-4 0-1 1h14l-2-1v-1l2-1-2-1h-31l-2-1c-2 0-2 0-1 1m-45 15 6 1 6 1 9 1c10 1 8-1-3-2l-13-2-5 1"
    itemprop="regular" fill-opacity="0.90" stroke-opacity=".90" stroke-width="0.25px" fill-rule="evenodd" tabindex="-1"
    fill="url(#16282281824-posters-1703551981459-horizontal-regular)"
    stroke="url(#16282281824-posters-1703551981459-radial-background)"></path>
  <path id="16282281824-posters-1703551981459-bold"
    d="M0 365v147h266l266-1-2-1c-2 0-3-2-1-2 1-1 0-2-6-6s-10-8-8-10l-1-3-2-3h-1l-4-2c-4-3-6-3-9 0-1 2-2 2-5 1-4 0-5-1-5-8 0-5 0-6-2-6l-2-2-3-1c-2 1-3 0-4-2-4-5-12-7-17-2-3 3-4 2-10-4l-5-5-3-5c-1-2-4-4-9-6l-10-5-4-2c-2 1-4-2-2-3 1-1 0-2-1-3l-1-1 1-1-4-1a2 2 0 0 1-3-1h-3c-2 0-2-1-2-2 0-2-1-2-2-2l-2 1 1 1a1 1 0 1 1-2 1c0-2-2-3-6-2h-4l-1 1h-5c-3 1-5 1-5-2h-1a9 9 0 0 1-11-7h-2c0 3-2 3-4 2l-2-2h-2l-3-2-6-5c-12-6-22-13-20-14l2-1h-3c-3 0-4-1-1-4 2-2 2-3-4-3l-7-2c-3-2-3-3 1-3l2 1h1v-1l1-1v-3l-1-1v-2c2-2 1-4-2-4l-1-3c0-2 0-2-2-2-2 1-3 0 0-2v-2l-3-2c-2-2-7-3-7-2h-1l-5-3-4-1-2-2-10-1-4-2-3-3-5-4-2-2-3-2c-3-3-10-5-18-5-7 1-7 1-7-2-1-2-1-2-3 0h-1l-3-6-7-4a17 17 0 0 0-8-3h-2c1 2 1 2-3 2-3-1-3-1-2 1 0 2 0 2-2 2h-2l-3 1c-3 0-12-5-11-6l-4-1c-3 0-4 0-4-3 0-2 0-3-2-4l-2-2-1-1-2-2-3-3c-2 0-3-2-2-2 1-1 0-1-2-1-4 1-6-2-2-3 3-1 2-3-1-3l-6-2-3-1 3-3 1-2-3 1v1l-1 1-2-1v-1l1-1c0-2-3-3-3-1h-3l-6-2c-3 0-3 0-2-1 2-2 1-3-1-2-1 0-2 1-1 2 0 2 0 2-1 1l-4-1-3-1h1c2 0 2 0 1-1l-2-1-3-1-2-2v2l-2-1-3-1c-3 1-5 0-5-1l-4-1a68 68 0 0 1-13-1l-5-3-1-2c-2-2-2-3-1-3 1-1 1-1-1-1l-2-1h-4l-4-1 2-1c2 1 2 1 0 0-3-2-5-2-4-1l-1 1v-2l-4-1H59a7 7 0 0 1-7-1 4 4 0 0 1-2-6l-2-1c-2 0-7-4-7-6 0-1-6-4-9-4l-5-2-4-2-11-6c-1-1-3-2-4-1-1 0-4-3-4-5l-1-2-2-1c-1-1-1 65-1 145"
    itemprop="bold" fill-opacity="0.9" stroke-opacity=".90" stroke-width="0.25px" fill-rule="evenodd" tabindex="-1"
    fill="url(#16282281824-posters-1703551981459-vertical-bold)"
    stroke="url(#16282281824-posters-1703551981459-radial-light)"></path>
</svg>
