<svg xmlns="http://www.w3.org/2000/svg" xmlns:xlink="http://www.w3.org/1999/xlink" preserveAspectRatio="xMinYMin meet">
  <symbol viewBox="0 0 200 200" id="avatar"><path d="M78 10.577c-2.309 1.391-2.328 1.46-.25.897 3.626-.981 2.619.165-3 3.418-10.458 6.053-16.752 14.581-20.185 27.351-.777 2.891-3.185 10.207-5.35 16.257-3.976 11.112-6.088 21.158-4.203 19.993.543-.336 1.02-2.497 1.058-4.802.086-5.092 1.415-8.98 2.287-6.691.315.825.787 4.875 1.05 9s.504 7.639.536 7.809c.031.17.507.031 1.057-.309 1.866-1.153 1.012 1.858-1.25 4.405-1.237 1.394-1.462 1.93-.5 1.192 1.476-1.131 1.75-1.119 1.75.081 0 .782-.476 1.898-1.057 2.479-.916.916-2.608 6.522-4.632 15.343-.315 1.375-1.839 3.766-3.386 5.314-1.559 1.559-2.568 3.452-2.264 4.244.302.787.917 1.203 1.368.924.451-.279 1.05.287 1.33 1.256.427 1.47.503 1.431.461-.238-.094-3.749.179-4.618 1.247-3.959.586.363.829.896.539 1.186-.29.29.13 2.1.934 4.022 2.074 4.964 1.85 5.923-1.54 6.601-2.105.421-3 1.183-3 2.554 0 2.855-2.921 5.344-5.658 4.821-1.288-.246-2.342-.06-2.342.414 0 .473.337.868.75.876.413.009 1.37.408 2.127.888 1.98 1.254-2.124 8.276-5.784 9.896-1.895.838-3.208 2.518-4.115 5.266-.732 2.22-1.778 4.312-2.325 4.649-.586.363-.731-.067-.354-1.05.369-.963.149-1.664-.522-1.664-.637 0-.286-.638.78-1.418 1.067-.78 1.603-1.755 1.191-2.167-.411-.412-.748-.223-.748.418 0 .642-.523 1.167-1.162 1.167-2.614 0-10.994 6.478-14.257 11.02-3.556 4.949-5.561 10.631-7.645 21.658-1.558 8.242-.117 11.878 5.037 12.702 1.963.314 18.86.879 37.548 1.256l33.979.685-3.896-3.954c-3.355-3.404-4.217-5.267-6.209-13.41-1.272-5.201-2.332-9.917-2.354-10.48-.023-.562 1.545-1.876 3.483-2.92 4.419-2.38 5.134-5.091 3.641-13.801-1.689-9.848-1.625-10.482.835-8.256 1.1.995 2 2.418 2 3.162 0 .743 1.125 2.329 2.5 3.525 1.375 1.195 2.5 2.768 2.5 3.493 0 .726.649 1.32 1.443 1.32s2.032.822 2.75 1.827c2.402 3.358 4.776 4.035 8.183 2.334 1.718-.858 4.772-1.607 6.785-1.664 2.014-.058 4.323-.654 5.133-1.326 1.247-1.035 1.575-.532 2.15 3.304.623 4.152.914 4.525 3.534 4.525 1.57 0 3.047.562 3.282 1.25.338.99 1.109.999 3.701.042 3.075-1.134 2.905-.823-2.788 5.106-3.334 3.473-6.291 7.391-6.571 8.708-1.888 8.884-3.172 16.991-2.757 17.405.268.269 20.011.489 43.871.489 47.636 0 47.684-.006 50.786-6.004 2.925-5.655-.923-29.068-6.273-38.171-2.83-4.816-10.774-9.776-24.869-15.527-13.375-5.457-19.36-8.717-19.36-10.545 0-.479.563-.547 1.25-.151.688.396.247-.384-.98-1.734-1.226-1.35-2.714-3.843-3.306-5.541-.669-1.92-1.716-3.037-2.77-2.957-.968.074-1.566-.469-1.394-1.269.165-.77-.022-2.12-.414-3-.392-.881-.763-1.826-.824-2.101-.06-.275-.722-2.642-1.469-5.26-1.242-4.353-1.481-4.609-2.794-3-1.284 1.574-1.374 1.311-.855-2.49.372-2.731.194-4.25-.499-4.25-.593 0-.935-1.237-.761-2.75.195-1.7.84-2.639 1.689-2.459.786.167 1.147-.26.846-1-.29-.71-.843-2.079-1.23-3.041-.442-1.1-.245-1.75.529-1.75.831 0 1.04-.961.641-2.956-.419-2.092-.236-2.819.625-2.489.767.295 1.288-.645 1.41-2.544.496-7.678.183-12.431-.722-10.966-.858 1.389-1.968-1.177-2.593-5.996-.555-4.276-1.379-5.301-1.379-1.716 0 4.327-1.609 3.061-3.283-2.583-1.816-6.122-3.06-10.836-3.232-12.25-.748-6.116-1.842-9.779-2.43-8.129-.532 1.494-.907 1.092-1.863-2-.659-2.129-2.077-4.996-3.153-6.371l-1.954-2.5L119.3 29c.669 1.925 1.526 3.981 1.905 4.568.378.587.419 3.678.09 6.867-.57 5.521-.666 5.686-1.989 3.432-1.128-1.921-1.297-1.99-.899-.367.269 1.1.604 4.475.742 7.5.25 5.443.222 5.5-2.607 5.5-3.375 0-4.521 2.011-1.583 2.779 3.211.84 2.383 2.718-1.209 2.745-1.787.013-4.993.428-7.122.922-2.13.494-3.48.527-3 .073.479-.454 1.772-1.041 2.872-1.306 1.318-.317.911-.521-1.191-.597-1.755-.064-3.469.334-3.809.884-.787 1.274-2.5 1.302-2.5.041 0-.527 2.25-1.758 5-2.735 5.728-2.034 6.666-4.324 1.75-4.27-4.867.054-8.447 3.545-9.251 9.021-.526 3.587-.317 4.849.979 5.925 1.475 1.224 1.58 1.096.997-1.225-.511-2.038-.178-2.846 1.558-3.775 1.593-.852 2.012-.864 1.504-.042-.487.789.05.951 1.744.526 1.76-.442 2.629-.142 3.094 1.069.518 1.349 1.39 1.547 4.386.996 2.974-.546 3.49-.432 2.522.558-.669.684-2.616 1.244-4.328 1.244-2.511 0-2.78.185-1.396.96.944.528 4.354.721 7.578.428L121 70.19v5.405c0 2.973-.45 5.405-1 5.405s-1-.45-1-1-.675-1-1.5-1-1.5.45-1.5 1 .482 1 1.072 1c.917 0 .695 5.391-.514 12.5-.093.55-1.082 2.741-2.197 4.87l-2.027 3.87-1.917-2.399c-1.058-1.323-2.702-2.241-3.667-2.047-.963.194-1.75-.13-1.75-.721 0-.59-.873-1.073-1.941-1.073s-2.219-.45-2.559-1c-.972-1.573-3.51-1.188-2.886.437.323.84 1.244 1.189 2.219.841.917-.328 1.329-.224.915.232-.414.455-.021 1.636.874 2.625 1.541 1.703 1.467 1.751-1.423.922-1.677-.481-3.311-.612-3.632-.291-.321.321-3.017.669-5.992.773-4.002.14-5.282-.139-4.923-1.074.266-.694.082-1.512-.41-1.816C83.867 96.8 80 98.087 80 99.394c0 .639-.97 1.992-2.156 3.008-2.136 1.828-2.198 1.8-6.527-3.028-4.329-4.828-4.364-4.928-3.789-10.657.571-5.693.534-5.799-2.336-6.8C61.644 80.68 60 77.367 60 71.453c0-5.076.737-5.503 3.393-1.967 1.465 1.952 2.43 2.35 4.487 1.85 1.441-.351 2.946-1.185 3.345-1.853.398-.668 1.821-1.006 3.161-.749 1.76.336 2.753-.125 3.576-1.662.689-1.289 1.612-1.833 2.338-1.379.66.412 2.683.803 4.496.868 2.646.097 3.166-.193 2.636-1.47a38.005 38.005 0 0 1-1.145-3.274c-.777-2.695-6.632-5.017-9.703-3.849-3.581 1.362-3.233 3.009.666 3.148 1.787.064 2.463.322 1.5.573-.963.252-1.75.857-1.75 1.344 0 .488-1.237.813-2.75.723-1.513-.09-3.763.183-5 .608-1.68.575-2.25.388-2.25-.738 0-.829.45-1.786 1-2.126 1.482-.916 1.212-2.5-.428-2.5-.785 0-2.579 1.462-3.988 3.25l-2.561 3.25.36-9.075c.198-4.992.867-10.024 1.487-11.183.621-1.159 1.559-3.241 2.086-4.627.784-2.06.687-2.415-.532-1.947-1.21.464-1.311.126-.538-1.798a80.533 80.533 0 0 0 1.586-4.342c.522-1.62.795-1.714 1.528-.528.754 1.22.994 1.18 1.545-.258.36-.936 2.205-2.661 4.102-3.833 2.931-1.811 4.381-2.038 9.651-1.505 6.058.612 10.377-.523 8.202-2.154-1.311-.983-1.745-3.25-.622-3.25.482 0 1.446.685 2.141 1.523.729.879 2.049 1.273 3.122.932 1.023-.324 1.859-.168 1.859.346 0 .515 1.237.801 2.75.636 1.513-.165 4.775.681 7.25 1.881 3.618 1.754 5.077 3.304 7.444 7.905 1.619 3.147 3.144 5.523 3.388 5.278.723-.723-2.013-9.501-2.962-9.501-1.383 0-1.008-3.996.38-4.041.688-.022-.213-1.292-2-2.822-3.724-3.189-4.167-4.61-1.193-3.832 4.044 1.057.038-2.034-5.603-4.324-4.726-1.918-5.872-2.05-8.46-.978-1.647.682-2.994 1.523-2.994 1.868 0 .346-1.068.629-2.373.629-1.338 0-2.185-.487-1.943-1.119.236-.615-.497-1.36-1.629-1.656-1.279-.335-1.814-.145-1.414.503.411.665-.439.882-2.354.601-2.503-.368-2.92-.142-2.526 1.365.366 1.401-.114 1.806-2.144 1.806-2.918 0-3.067-.29-1.582-3.066C79.719 13.656 81.129 13 83.19 13c3.057 0 3.083-.041 1.31-2-2.142-2.367-3.163-2.433-6.5-.423m-9.5 11.265c-1.65 1.008-3.675 2.675-4.5 3.702-1.239 1.544-.805 1.458 2.5-.492 4.605-2.717 7.365-5.054 5.964-5.048-.53.002-2.314.829-3.964 1.838m58.558 12.78c-.032.617 1.041 3.542 2.384 6.5 1.344 2.958 2.469 4.873 2.5 4.256.032-.617-1.041-3.542-2.384-6.5-1.344-2.958-2.469-4.873-2.5-4.256m-4.905 15.973c.086 3.902-.139 7.574-.501 8.16-.362.585-.375 1.802-.029 2.704.346.902 1.198 5.555 1.893 10.34.991 6.817 1.292 7.726 1.39 4.201.091-3.3.383-4.1 1.094-3 .835 1.293.971 1.266.985-.191.008-.93-.4-1.947-.907-2.261-1.255-.775-2.494-13.078-1.539-15.279.98-2.256.679-4.573-1.113-8.577-1.394-3.113-1.425-3.017-1.273 3.903M82.557 63.418c2.095 1.532 3.044 1.364 1.984-.351C84.179 62.48 83.148 62 82.25 62c-1.365 0-1.315.232.307 1.418M74.5 71l-3 .763 2.691.119c1.48.065 2.969-.332 3.309-.882.34-.55.479-.947.309-.882-.17.065-1.659.462-3.309.882m20.043.931c-.317.512-.118 1.213.441 1.559.559.345 1.016-.074 1.016-.931 0-1.757-.6-2.015-1.457-.628m2.457 8.7c0 3.309-.462 4.278-2.579 5.411-3.516 1.882-7.688-.376-8.456-4.578l-.542-2.964-.698 2.5c-1.323 4.74-.838 9.736 1.025 10.555 2.696 1.184 11.495.502 13.918-1.079 2.078-1.356 2.111-1.628.801-6.594C98.628 76.902 97 75.376 97 80.631M46.731 83.08c.354 1.352.807 1.806 1.057 1.057.24-.722-.038-1.787-.62-2.369-.742-.742-.872-.351-.437 1.312M43 87.708c0 2.223-.255 5.561-.567 7.417-.485 2.893-.396 3.105.628 1.486.657-1.039 1.143-4.145 1.081-6.902-.135-6.01-1.142-7.773-1.142-2.001m81.975 1.496c-.265 2.586-.112 4.333.34 3.881.452-.452.669-2.568.482-4.703l-.339-3.882-.483 4.704M133.158 88c0 1.375.227 1.938.504 1.25.278-.687.278-1.812 0-2.5-.277-.687-.504-.125-.504 1.25M93 103.678c-3.048.494-7 2.399-7 3.374 0 1.5 4.742 1.864 10.75.824 3.438-.595 6.25-1.533 6.25-2.086 0-.552-.675-.745-1.5-.428-.914.35-1.5.001-1.5-.893 0-1.457-1.704-1.65-7-.791M136.158 108c0 1.375.227 1.938.504 1.25.278-.687.278-1.812 0-2.5-.277-.687-.504-.125-.504 1.25m-.438 4.332c-.396 1.007-.706 2.582-.69 3.5.028 1.488.143 1.476 1.068-.113.57-.98.88-2.555.69-3.5-.317-1.57-.41-1.56-1.068.113M93 113.882c-2.742.484-3.525 1.11-3.615 2.893-.063 1.251.328 2.548.869 2.882 2.108 1.303 6.728 1.011 8.444-.534.991-.893 2.44-1.623 3.219-1.623 2.498 0 2.219-2.117-.438-3.328-2.731-1.244-3.024-1.254-8.479-.29m-40.985 3.368c-.008 1.513.435 2.75.985 2.75 1.264 0 1.264-2.043 0-4-.755-1.169-.973-.893-.985 1.25m-5.936 1.333c.048 1.165.285 1.402.604.605.289-.722.253-1.585-.079-1.917-.332-.332-.568.258-.525 1.312m89.257.984c-.331.862-.092 2.077.531 2.7.844.844 1.133.444 1.133-1.567 0-3.009-.749-3.518-1.664-1.133m8.03 3.99c.282.582.778 3.256 1.1 5.943.561 4.672 1.517 7.398 1.549 4.417.013-1.172.201-1.158 1.087.083.827 1.157.91.929.367-1-.388-1.375-.665-3.799-.617-5.387.049-1.588-.191-2.608-.533-2.266-.342.342-1.262-.159-2.044-1.113-.783-.953-1.192-1.258-.909-.677M140.1 138.75c-.055 2.338.35 4.25.9 4.25 1.153 0 1.153-2.401 0-6-.68-2.124-.816-1.86-.9 1.75m7.986-1.75c-.031.825.381 2.175.914 3 1.181 1.828 1.181.249 0-2.5-.567-1.319-.878-1.489-.914-.5m-29.627 6.067c-.363.586-.445 1.281-.183 1.543s.743-.218 1.069-1.067c.676-1.762.1-2.072-.886-.476M48.158 146c0 1.375.227 1.938.504 1.25.278-.687.278-1.812 0-2.5-.277-.687-.504-.125-.504 1.25m102.921.583c.048 1.165.285 1.402.604.605.289-.722.253-1.585-.079-1.917-.332-.332-.568.258-.525 1.312m-106.868 7.955c-1.066 1.208-1.022 1.462.25 1.462.846 0 1.539-.675 1.539-1.5 0-1.824-.15-1.82-1.789.038m105.868.045c.048 1.165.285 1.402.604.605.289-.722.253-1.585-.079-1.917-.332-.332-.568.258-.525 1.312m-80.05 6.671c-1.428 2.904-.74 4.857 1.072 3.045.588-.588.891-2.133.675-3.434l-.393-2.365-1.354 2.754M.232 189c0 1.925.206 2.713.457 1.75.252-.963.252-2.537 0-3.5-.251-.963-.457-.175-.457 1.75" fill-rule="evenodd"/>
  </symbol>
  <use xlink:href="#avatar" width="100vw" height="100vh" fill="hsla(136, 0%, 0%, 0.9)" stroke="hsla(136, 0%, 0%, 0.2)"/>
</svg>
