<svg id="16282281824-posters-1671750834187" itemscope="" itemtype="/posters"
  itemid="/+16282281824/posters/1671750834187" viewBox="0 0 512 683" preserveAspectRatio="xMidYMid slice" tabindex="0"
  xmlns="http://www.w3.org/2000/svg">
  <defs class="gradients">
    <g class="radial">
      <radialGradient id="16282281824-posters-1671750834187-radial" gradientTransform="rotate(0)">
        <stop itemprop="radial" stop-color="#9b9ea6" offset="0%"></stop>
        <stop itemprop="radial" stop-color="#808085" offset="15%"></stop>
        <stop itemprop="radial" stop-color="#87858a" offset="30%"></stop>
        <stop itemprop="radial" stop-color="#6c656c" offset="45%"></stop>
        <stop itemprop="radial" stop-color="#a0a4ab" offset="60%"></stop>
        <stop itemprop="radial" stop-color="#a7adb4" offset="75%"></stop>
        <stop itemprop="radial" stop-color="#a2a7ae" offset="90%"></stop>
      </radialGradient>
      <radialGradient id="16282281824-posters-1671750834187-radial-background" gradientTransform="rotate(0)">
        <stop stop-color="#c5c9d3" offset="0%"></stop>
        <stop stop-color="#c5c5d3" offset="15%"></stop>
        <stop stop-color="#cbc5d3" offset="30%"></stop>
        <stop stop-color="#d3c5d3" offset="45%"></stop>
        <stop stop-color="#c5cad3" offset="60%"></stop>
        <stop stop-color="#c5cbd3" offset="75%"></stop>
        <stop stop-color="#c5cad3" offset="90%"></stop>
      </radialGradient>
      <radialGradient id="16282281824-posters-1671750834187-radial-light" gradientTransform="rotate(0)">
        <stop stop-color="#a3a6ae" offset="0%"></stop>
        <stop stop-color="#a7a7aa" offset="15%"></stop>
        <stop stop-color="#a8a7aa" offset="30%"></stop>
        <stop stop-color="#aba6ab" offset="45%"></stop>
        <stop stop-color="#a3a7ae" offset="60%"></stop>
        <stop stop-color="#a1a8af" offset="75%"></stop>
        <stop stop-color="#a2a7ae" offset="90%"></stop>
      </radialGradient>
      <radialGradient id="16282281824-posters-1671750834187-radial-regular" gradientTransform="rotate(0)">
        <stop stop-color="#696d77" offset="0%"></stop>
        <stop stop-color="#6e6e72" offset="15%"></stop>
        <stop stop-color="#706e72" offset="30%"></stop>
        <stop stop-color="#746d74" offset="45%"></stop>
        <stop stop-color="#696e77" offset="60%"></stop>
        <stop stop-color="#676f79" offset="75%"></stop>
        <stop stop-color="#686e78" offset="90%"></stop>
      </radialGradient>
      <radialGradient id="16282281824-posters-1671750834187-radial-bold" gradientTransform="rotate(0)">
        <stop stop-color="#1f2023" offset="0%"></stop>
        <stop stop-color="#202022" offset="15%"></stop>
        <stop stop-color="#212022" offset="30%"></stop>
        <stop stop-color="#222022" offset="45%"></stop>
        <stop stop-color="#1f2023" offset="60%"></stop>
        <stop stop-color="#1e2124" offset="75%"></stop>
        <stop stop-color="#1f2123" offset="90%"></stop>
      </radialGradient>
    </g>
    <g class="vertical">
      <linearGradient id="16282281824-posters-1671750834187-vertical" x1="0" x2="0" y1="0" y2="100%"
        gradientTransform="rotate(0)">
        <stop itemprop="vertical" stop-color="#91949c" offset="0%"></stop>
        <stop itemprop="vertical" stop-color="#8c8a8f" offset="15%"></stop>
        <stop itemprop="vertical" stop-color="#706a71" offset="30%"></stop>
        <stop itemprop="vertical" stop-color="#a2a7ae" offset="45%"></stop>
        <stop itemprop="vertical" stop-color="#a1a8af" offset="60%"></stop>
        <stop itemprop="vertical" stop-color="#91949c" offset="75%"></stop>
        <stop itemprop="vertical" stop-color="#8c8a8f" offset="90%"></stop>
      </linearGradient>
      <linearGradient id="16282281824-posters-1671750834187-vertical-background" x1="0" x2="0" y1="0" y2="100%"
        gradientTransform="rotate(0)">
        <stop stop-color="#c9cbcf" offset="0%"></stop>
        <stop stop-color="#cccbcd" offset="15%"></stop>
        <stop stop-color="#cdcace" offset="30%"></stop>
        <stop stop-color="#c8cbd0" offset="45%"></stop>
        <stop stop-color="#c8ccd0" offset="60%"></stop>
        <stop stop-color="#c9cbcf" offset="75%"></stop>
        <stop stop-color="#cccbcd" offset="90%"></stop>
      </linearGradient>
      <linearGradient id="16282281824-posters-1671750834187-vertical-light" x1="0" x2="0" y1="0" y2="100%"
        gradientTransform="rotate(0)">
        <stop stop-color="#969fbb" offset="0%"></stop>
        <stop stop-color="#a596bb" offset="15%"></stop>
        <stop stop-color="#b496bb" offset="30%"></stop>
        <stop stop-color="#96a3bb" offset="45%"></stop>
        <stop stop-color="#96a6bb" offset="60%"></stop>
        <stop stop-color="#96a0bb" offset="75%"></stop>
        <stop stop-color="#a596bb" offset="90%"></stop>
      </linearGradient>
      <linearGradient id="16282281824-posters-1671750834187-vertical-regular" x1="0" x2="0" y1="0" y2="100%"
        gradientTransform="rotate(0) ">
        <stop stop-color="#6b6d76" offset="0%"></stop>
        <stop stop-color="#706e72" offset="15%"></stop>
        <stop stop-color="#726d74" offset="30%"></stop>
        <stop stop-color="#686e78" offset="45%"></stop>
        <stop stop-color="#676f79" offset="60%"></stop>
        <stop stop-color="#6b6e76" offset="75%"></stop>
        <stop stop-color="#706e72" offset="90%"></stop>
      </linearGradient>
      <linearGradient id="16282281824-posters-1671750834187-vertical-bold" x1="0" x2="0" y1="0" y2="100%"
        gradientTransform="rotate(0)">
        <stop stop-color="#1f2023" offset="0%"></stop>
        <stop stop-color="#212022" offset="15%"></stop>
        <stop stop-color="#222022" offset="30%"></stop>
        <stop stop-color="#1f2123" offset="45%"></stop>
        <stop stop-color="#1e2124" offset="60%"></stop>
        <stop stop-color="#1f2023" offset="75%"></stop>
        <stop stop-color="#212022" offset="90%"></stop>
      </linearGradient>
    </g>
    <g class="horizontal">
      <linearGradient id="16282281824-posters-1671750834187-horizontal" x1="0" x2="100%" y1="0" y2="0"
        gradientTransform="rotate(0)">
        <stop itemprop="horizontal" stop-color="#92959b" offset="0%"></stop>
        <stop itemprop="horizontal" stop-color="#7d7d82" offset="15%"></stop>
        <stop itemprop="horizontal" stop-color="#848386" offset="30%"></stop>
        <stop itemprop="horizontal" stop-color="#706b6f" offset="45%"></stop>
        <stop itemprop="horizontal" stop-color="#999da3" offset="60%"></stop>
        <stop itemprop="horizontal" stop-color="#979ea5" offset="75%"></stop>
        <stop itemprop="horizontal" stop-color="#93989f" offset="90%"></stop>
      </linearGradient>
      <linearGradient id="16282281824-posters-1671750834187-horizontal-background" x1="0" x2="100%" y1="0" y2="0"
        gradientTransform="rotate(0)">
        <stop stop-color="#cacbce" offset="0%"></stop>
        <stop stop-color="#cbcbcd" offset="15%"></stop>
        <stop stop-color="#cccbcd" offset="30%"></stop>
        <stop stop-color="#cdcbcd" offset="45%"></stop>
        <stop stop-color="#c9cbcf" offset="60%"></stop>
        <stop stop-color="#c8ccd0" offset="75%"></stop>
        <stop stop-color="#c9cbcf" offset="90%"></stop>
      </linearGradient>
      <linearGradient id="16282281824-posters-1671750834187-horizontal-light" x1="0" x2="100%" y1="0" y2="0"
        gradientTransform="rotate(0)">
        <stop stop-color="#a5a7ac" offset="0%"></stop>
        <stop stop-color="#a7a7aa" offset="15%"></stop>
        <stop stop-color="#a8a7a9" offset="30%"></stop>
        <stop stop-color="#aaa7a9" offset="45%"></stop>
        <stop stop-color="#a4a7ad" offset="60%"></stop>
        <stop stop-color="#a2a8ae" offset="75%"></stop>
        <stop stop-color="#a3a7ae" offset="90%"></stop>
      </linearGradient>
      <linearGradient id="16282281824-posters-1671750834187-horizontal-regular" x1="0" x2="100%" y1="0" y2="0"
        gradientTransform="rotate(0)">
        <stop stop-color="#5c6884" offset="0%"></stop>
        <stop stop-color="#5c5c84" offset="15%"></stop>
        <stop stop-color="#695c84" offset="30%"></stop>
        <stop stop-color="#845c7a" offset="45%"></stop>
        <stop stop-color="#5c6b84" offset="60%"></stop>
        <stop stop-color="#5c7084" offset="75%"></stop>
        <stop stop-color="#5c6d84" offset="90%"></stop>
      </linearGradient>
      <linearGradient id="16282281824-posters-1671750834187-horizontal-bold" x1="0" x2="100%" y1="0" y2="0"
        gradientTransform="rotate(0)">
        <stop stop-color="#202122" offset="0%"></stop>
        <stop stop-color="#202022" offset="15%"></stop>
        <stop stop-color="#212121" offset="30%"></stop>
        <stop stop-color="#222021" offset="45%"></stop>
        <stop stop-color="#1f2123" offset="60%"></stop>
        <stop stop-color="#1f2123" offset="75%"></stop>
        <stop stop-color="#1f2123" offset="90%"></stop>
      </linearGradient>
    </g>
  </defs>
  <rect itemprop="background" width="512" height="683" tabindex="-1" id="16282281824-posters-1671750834187-background"
    fill-opacity="1" fill="url(#16282281824-posters-1671750834187-radial-background)"></rect>
  <path id="16282281824-posters-1671750834187-light"
    d="M377 5c-3 6-5 7-13 7-4 0-5 0-7 2l-3 3-6 2-2 2-3 2-3 1c-4 1-7 3-7 5-1 2-2 4-3 3l-3 3a3 3 0 0 1-3 2c-2 1 2 12 5 16 3 2 4 3 7 2 4 0 8 3 9 8l1 2c1-1 1-1 1 1l1 3c1-1 1 0 1 1 0 5 2 9 8 17v3l2 2 1-1v-1l1 3-2 2-2 1c0 3-3 5-5 4l-3 1-4 2c-5 2-7 5-10 11l-2 6c-2 0-1 8 1 10a14 14 0 0 1-1 13c1 2 6 4 8 2 1-1 2-2 5-1 4 0 4 0 7-5l5-6c3 0 14-6 17-9 5-5 11-6 14-3 0 2 2 3 3 3l2 1h3c5 0 9 2 11 4l3 2 3 2 5 1 3 1 1 1 2 2h-1l1 3 2 5c0 3 10 7 14 7l3-2 2-3v-2c1-2 0-5-2-6-1 0-2-1-2-3l-4-4c-3-3-6-8-4-11v-4c-2-7 5-8 8-1a11 11 0 0 0 7 9l6 2 1 3v6l2 3 1 2v-1c-1-3 4-12 7-12 1 0 4 3 4 5s5 8 5 7l2-3 1-2 5 3 7 4c4 3 6 2 7-2 2-5 6-6 10-2s4 3 5-28c0-33 0-33-6-33-2 0-4-2-5-7-1-4-2-5-4-5h-3v-2l1-2 1-1 2-2 2-1v-1l-2-2-2-2v-3l1-2 5-2 6-1c4 1 4 1 4-22V0H379l-2 5m-3 44h-7c-2 1-1 3 1 3l3 2c2 2 4 1 5-2 2-5 1-7-2-3m-187 8-1 5c0 2-1 3-4 3s-4 1-5 2c-1 3-2 3-20 3a2305 2305 0 0 0-70 4H73v5l-1 5-1 2c1 2-1 24-3 26l-1 7-1 6v4c1 5-1 34-3 30l-1 6c0 7 0 9-2 10v16c-2 20-3 27-5 28v3c2 5-1 41-4 42-2 0-2 0 0 4v5l-2 17c-2 19-3 22-4 22l-1 2c2 3-2 35-4 35l-1 2c0 2 0 2-1-1-3-6-9-8-15-6-3 1-3 1-2 8 0 12 0 15-5 15-3 0-3-1-9-9l-6-9-1 143a4701 4701 0 0 0 1 148l-1 11 1 10h1l-1 1v1h1l1 1H1l-1 2c0 2 2 3 4 2v1l-2 2c-1 0-2 1-2 3a2 2 0 0 0 2 3l-1 1a1 1 0 0 0 0 3c1-1 1 0 0 0a4 4 0 0 0 6 0H3l1-1h1l-1-3-1-1-1-1c-1-1-1-1 1-1l2 1 2 1c1-1 2 0 3 1s1 1-1 1c-3-1-4 0-2 2 2 3 5 3 5 1v-1l1 2h1c2-1 0-4-1-3l-1-3c0-2 0-3 4-3a4 4 0 0 1 4 2c2 1 2 4 1 5v1c1 1 2 0 2-1l2 1c1 2 2 2 3 2 2-1 1-2-2-4-4-3-5-6-3-5l1-1-1-1-1-1v-3c1-1 2-2 4-1h5l1 1h1c2-3 1-8-2-7-1 0-2 0-2-3-1-2-1-2-2-1-1 3-3 2-6 0s-3-2-1-2 2 0 2-2 0-3 2-2l2 1 4 2 2 2h-2c-1 1 3 3 4 3l1-12 1-3c1 0 1 2-1 21l-2 17 8 1c6 0 7 0 7-2l2-2 1-1c-4-2 1-7 4-4 2 0 1 2-1 2-1 1-2 1-1 2l-1 4c-1 1-1 1 1 1l2-1 1-1 1 1 5 1 5-1h123l22 1 22-1h1c2 1 4 1 2-1-1-2-4-2-5-1h-3c-3-1-2-1 3-1l5-1h1c0 2 0 2 1 1l2 2c1 2 16 3 18 1h5l19 1 18-1h11c-1 1 0 1 1 1l2-1v-2l1-3c-1-1 0-2 1-2l2-1h-2c-2 0-2 0-1-1 2-2 4-2 6-1h3c2 0 2 0 1-2h-3c-1 1-2 1-5-1h-8l1-1 1-2c-1-1 0-1 2-1s2 0 1-1-1-1 1-1c3 0 7 3 4 5v1l2-1 5-2 3-1h4c1 2 7 2 9 0h8v2c-1 1-1 1 1 1l-1 1c-3 2-3 2 3 2l6-1h2c2 0 2 0 1-1-1-2-6-2-6-1l-2 1v-2c1-1 3-2 4-1l1-1-1-1-2-1h4l1 1h2l1 1-1 1 3 2c6 2 6 4 0 3v2l-1 2-2 1h1c2-1 3-1 4 1h1l-1-1c-2-2-1-3 2-2 4 0 5 1 3 1-1 0-2 0-1 1l5 1a3 3 0 0 0 4-2l1 3 2 4c3 2 127 1 127 0a15 15 0 0 0 0-11l1-3v-5l-5 1-4-1c0-2 2-3 6-2l3 1V495l-1-179v-13l-3-1-5-3-4-3c-3-3-1-6 3-5 3 0 4-1 3-3-2-4-19-1-21 4l-14 3h-4c-2 2-7 1-9-2-1-2-2-3-3-2h-2c-3 1-4 2-3 3l-1 1h-4l-5 2-5 3c-3 3-10 6-12 6l-6 3c-3 2-6 3-7 2h-8c-4 0-5 0-11 8a29 29 0 0 1-9 9l-1 1c-2 0-7 6-7 8-2 6 6 9 18 7 7-2 18-4 26-4l5-2 3-1 8-1c7-2 8-2 8 0 3 5 8 8 14 8l17-1c1-1 7-2 23-3l8-2 2 1-8 1c-10 1-11 2-13 8-1 4-5 6-11 5h-11l-8 1-8-4a60 60 0 0 0-65 2c-6 5-11 7-13 5h-17c-1-2-2-2-5-1l-11 1h-13l-4 1v-13l1-14 1-7c-1-5-1-6 2-7 2-1 2-1 2-6l-2-12c0-11-1-15-2-15-2 1-3-7-3-21l-1-14-7-63c0-5-1-7-2-3-1 1-1 0-1-1 0-2 0-3 2-3 3 0 3-4 1-24-1-15-2-19-3-18s-1 1-1-2c0-2 0-2-1 0s-1 3-1-16c-1-30-2-36-6-36-2 0-2-1-2-4l-1-6-1-5c-1-5-1-5-25-3a2742 2742 0 0 1-65 4c-5 0-5 0-6-2 0-2-1-2-4-2s-3 0-3-3c0-4-2-7-4-5m261 3-5 1-5 2-3 2-1 3c0 3 0 3 6 2 6 0 6 1 3 4l-6 1h-2l-1 2c-7 9-7 9-3 12l3 4a9 9 0 0 0 15 2h2v1l1-7c0-2 0-2 1-1l3 1c1-1 1 0 2 1l1 2h2c3 2 5 0 6-5 1-3 2-5 5-6 3-2 3-6 0-9v-2c-2-1-3-2-4-1l-2-1-1-1c-1 1-5-1-5-3l-5-3-5-2-2 1m-73 41-2 1 1 1c0 1 2 2 5 2s4 0 4-2-3-4-4-4l-4 2m128 75c-8 7-9 7-17 10-10 5-25 5-32 2l-11-2h-12l-9-1-7 1-6 2-6 2c-1 1-3 2-4 1l-3 2-3 2h-2c-2 3-24 10-27 9l-8 4-7 4-1 2-3 2-19 6-1 3-2 4-6 8h2l-1 2c-2 1 1 11 4 16l2 4a19 19 0 0 0 7 11l4 1 3 1 4 3c4 1 7 4 7 5l-1 1v6c0 3 4 3 6 0l3-2 4-2 5-2c5 0 7-1 7-3 0-3 5-4 7-2l3 2c2 0 10-5 13-8 1-2 2-2 3-2s6-5 5-7l-3-1c-5 0-9-4-7-7v-3h2c2 1 5-2 3-3-4-3 0-9 6-9 3 0 5-1 7-3 3-3 3-3 5-2l4 2c2 0 4 1 7 4 2 3 5 4 8 5l5 1 9 1c4-1 5-2 4-5v-12c-2-3 4-6 7-3l5 1 7 2c1 2 6 2 6 1 0-2 0-3 1-2l4-2 7-1c4 0 4 0 4-2v-7c-3-2-4-8-1-11 2-2 3-8 1-8s-1-4 2-5 4 0 4 5c-1 4-1 5 1 7l4 6h1l3-1c2 1 2-2 2-19v-20l-9 6M139 331c-20 3-38 15-52 33-9 10-18 17-29 20-7 3-10 5-3 4 10-2 22-9 29-18 19-21 29-29 46-34a10 10 0 0 0 6-3h10c26-3 49 7 62 29 10 14 24 22 39 22 6 0 3-3-5-4-13-2-22-8-30-19a69 69 0 0 0-73-30m0 6c-13 3-26 9-34 17l-5 5 5-4c34-27 79-22 101 10 8 13 18 20 32 23 12 2 12 1 1-1-14-3-24-10-32-23a65 65 0 0 0-68-27m8 3a54 54 0 0 0-20 5c-4-1-29 17-27 19l-1 1-4 3-2 2 3 2c4 3 4 4 1 5h-5l1-1c1 1 3-1 2-2-1-3-2-2-7 2-5 6-8 8-13 11-4 2-6 6-3 6v4l-2 2c-1 1-1 2-2 1l-1 1v1c-1 1-1 1 1 1 1-1 2 0 1 1l7 2c7 0 6 1-1 1h-7l8 1 14-1c3 0 4 0 3-1v-1l2 1 6 1h45l3 2-4-1c-3 0-3 0-4 2l-1 3-1 10-2 15v4h-16v-8l-1 4c0 4-1 5-4 5h-4v-8c2-18 2-23 1-19l-2 13c0 8 0 9-1 6v-26l-4 1-1-2c-1-2-3 3-3 9 0 4 0 6-1 5l-1-2-1 2-2 17a2860 2860 0 0 0-4 46l-4 1c-4 1-4 1-4-2l-1-2v5H67l2-13a3206 3206 0 0 1 5-52c0-5-3 8-4 17a812 812 0 0 1-4 50c0 2 27 1 29-1h1l2 1c2-1 3-1 3 1 1 1 0 1-2 1-3 0-3 0-2 2 1 1 0 1-6 1H67l14-1 14-1-14-1H66v9h8c1 2 2 2 4 0 3-2 7-2 7 1l2-1c3-2 5-3 8-1 2 2 2 2 3 0 2-2 6-1 7 1l2 2 2-2c2-2 4-3 6 0h4c2-3 7-2 8 0 0 2 0 2 2 0 2-3 6-3 8-1l2 2 1-2c3-3 4-3 7 0l2 2 2-2c2-2 6-3 7 0 1 2 1 2 4-1 2-3 3-3 6 0l2 2 2-2c3-3 6-3 7 0 1 2 1 2 3 0 3-3 7-3 8 0 1 2 2 2 3 0 2-2 6-1 7 1s1 2 3-1c2-2 6-3 8-1 1 2 1 2 3 0s5-2 7 1c2 2 2 2 2 0 1-3 5-3 8-1 2 2 3 2 3 0 1-2 6-2 8-1 2 2 2 2 3 1 2-3 7-2 8 0 2 2 2 2 3-5 0-8 0-8-2-11l-4-8-1-6v-10l-1-6h-1l-1 1c1 1-4 4-5 4h-2c-2 2-5 2-5 1h-4l-2-1-1-1-1-2c-2-1-2-4 0-4s5-4 4-5l2-4c2-2 2-2 2 0l3 1c3 0 4 0 4 2l3 2c3 0 3 1 3 3l1 1v-6c0-7-1-8-3-8h-2l1-1h1v-1l-3-3v-3l1 2a3 3 0 0 0 4 0l-2-1-2-2-1-2 2-1v-1a2 2 0 1 1 0-4c2 2 3 1 2-1l1-2c1 1 1 0 1-1 0-2 0-2-1-1h-2c-1-1-1-1-1 1l-1 2c-1 0-2-3-1-4v-2h3c2 1 3 1 0-1-1-2-1-6 1-5v-5c0-1-1-2-2-1v-6c1-1 0-1-2-1l-14-4-3-1h-1l-5-4c-8-5-9-6-15-16a52 52 0 0 0-43-26h-14M0 493c0 79 1 112 1 72a24000 24000 0 0 0-1-72m145-122 1 2c1 1 0 2-1 2-2 1-2 2-2 5l-1 3a2 2 0 0 0-1 4c0 2-1 2-4 2h-4l4 1 5 1 4 1 6-2c5 0 9-2 7-2l-1-1c1-1 0-1 0 0-2 0-2 0-1-2l2-2a1 1 0 0 0 1-2c-2 1-4 0-4-2h-1l-1-1c1-1-1-7-2-7l-1 1v4c0 2 0 2-2 1l-1-4c1-1-2-3-3-2m27 17c0 2 0 2-3 1-3 0-6 3-5 5l-1 1c-3 1-3 1-2 4a6 6 0 0 1 1 4h7c-1 1 0 1 1 1l2-1 1-2v1l1 1h5c3-1 2-2 0-1-2 0-2 0-2-2v-1l-4-7c1-1 1-1 1 1 0 1 1 3 3 3 3 2 7 3 7 1h-3l-1-1-1-1c-2 0-5-4-6-7l-1-2v2m-45 2c0 2 0 2-1 1-3-3-7 0-6 4h-1c-1-2-3 0-3 3l-1 1v1l2 1c2-1 3 2 1 3h16c-2-1-2-1-1-2v-2l1-2c0-2-1-3-2-3v-1l-1-1-2-3c-2-4-3-4-2 0m-71 5c-2 1-2 1 0 1h3l-3 1-1 1v2l1 2v5l1-3c1-2 2-3 4 0 1 1 1 1-1 1s-2 0 0 1v1l-1 1 1 1h1v1c-1 0-1 1 1 1 2 2 6 3 5 1l-1-1-2-2-1-2 2 1 1 1-1-2c-4-5-5-7-2-6h1l-2-1v-2l-3-2c0-2-1-2-3-1m100 10-3 1c-3 0-3 0-2 3l1 7v4l1-4v25h8c7 0 8 0 8-2h1c0 3 8 3 8 0l2-22a12 12 0 0 1 2-8l1-2c5-2-13-3-22-1a4 4 0 0 1-5-2v1m54 0a190 190 0 0 1-21 1c3 1 3 2 2 9l1 7 1-3 1-4v29l-1 28-1 12h8v-5l1-4v9h8v-7l1-6v13h8v-9l1-11v-23c1-23 2-26 3-24 1 1 1-2 1-6l1-4c1-3 3-3-14-2m-160 3v9l1-1c1 2 0 4-2 4l-1 2-1 1c-2 0-1 2 1 3v1c-2-1-4 1-1 1l1 3-2 1c-1-1-1-1 0 0l-1 2a8 8 0 0 0-1 6h1l-1 2c-3 2-3 7-1 7l2-2c0-2 1-2 3-2h2-1v-1c1-1 7 1 8 4 1 2 2 1 2-3 0-5-9-42-9-37m8 4 2 8 2 8c0 1 2 2 2 0 1-2 3-1 3 3 0 2 0 3 1 2v-7c-1-4-1-4-3-2l-2 1v-2c1 1 2 0 1-1 0-1 2-2 4-1l1-1c0-2-4-2-5 0 0 2-3 1-3-1-1-2 0-2 1-1 1 0 2 0 2-2l2-1h3l-3-1-3 1h-1l-1-1-1-1-2-1m305 16-1 13 1-1c1-2 2-2 15-2l14 1v-4c0-4 0-4-1-1v3h-27v-10l-1-10v11m75 6 1 4 2 1h1v2a3 3 0 0 1-2 1v-1l-1 7c0 4 1 6 2 6l1 1c1 1 0 1 0 0a1 1 0 1 0-1 2v17l-1 6-1-3c0-3 0-3-1-1-1 5 3 10 7 10 5 0 5-1 3-28l-1-7h-6l3-1c3 0 3 0 2-3l-2-4-1-2c0-1 1-1 1 1 2 1 2 1 2-1l-1-2v-3c0-2-1-3-3-4-4-1-4-1-4 2m-329 12c0 6 0 8-1 7v6c0 6 0 9-1 7v3l-1 7-1 4-2 10c-2 5-2 6 1 4l15-1 17-1 6 1h2c-1-1 0-1 1-1s2 0 1-1l1-2 2-1v-10l2-18 1-9-2 33 12 1a32 32 0 0 1 15 0c-1-1 1-34 2-36 2-6 0-7-13-7-16 0-15 0-16 16-2 24-3 29-6 30l-3 1h2l2 1c0 1-3 2-6 1-2 0-3-2 0-4 1-1 1-1-1-1s-3 1-3 3v3h-15l-16-1 2-1c1 0 2-3 2-12l4-28-2 18-1 18 13-1h13v-9c2-23 2-27 3-23l1 4v-5l-1-7-1-2-13 1c-10 0-13 1-13 2-1 1-2 0-2-4v4m249-2-5 1h-9v2l2 3c0 2 1 3 2 3v3l-2 1-2 1h-2c-1-1-1 0-1 2s0 3 1 2c0-1 1-1 3 1l3 1-3 2-3 2h5l8-2h1c0 2 0 3 2 4l3 1h-3c-6-2-10-2-10-1 1 1 0 2-1 1a3 3 0 0 0-3 6v3l3 2c2-1 2 0 2 1v1c4-2 8-2 7-1l1 1 1 1c-1 1 0 2 1 2a2 2 0 0 0 2-3l1-2v-2 1c1 2-1 1-3-1l-4-2c-3 0-4-2-1-3a7 7 0 0 1 9 1l-1-15c0-9 0-13-1-12v2l-1 1-1-1v-1l1-2c-1-2 0-3 1-3a1 1 0 0 0 1-2l-4 1m40 4c-2 2-2 7-1 9v1c-2 2 0 3 2 3 2-1 2-1 0 1l-3 1 4 2 5 2v-7l-2-6c0-5-1-6-2-5l-1-1h-2m90 4c0 1 0 2-2 2l-2 1a54 54 0 0 1 4 1l1 3-1 3c-1-1-4 0-4 2l1 1v4c0 4 0 4 3 3 2 0 2 0 1 1v1h3l-1 1-1 2-1 1-1-1c1-1 0-1 0 0-2 0-2 2-2 5 0 4 1 5 4 3l7-1c5 0 6-1 4-3l1-2 3-1h-3c-1 0-2 0-1-1a4 4 0 0 1 5 0v1a1 1 0 1 1 0 2l-1 1-2 3c-2 2-2 2-1 3 2 0 3 0 4-2 2-1 2-2 1-2-2 1-1-1 0-3l3-1c2 2 1-1-1-3l-3-4-1-1-1 2c1 1 1 1 0 0v-12l-1-3v7l-1 2-1-2-1-3v-1l-1-1a5 5 0 0 1-4-2v-1h2c2 1 3 0 1-3h-2a2 2 0 1 1-3-1c1-2 1-2-1-1h-2a1 1 0 1 0-2 0m-115 12c0 10 1 15 2 11 1-2 1-2 3-1 2 2 2 1 1-4 0-3-1-5-2-5l-3-6-1-4v9m-330-4-1 1v6l-1 1-1 1c0 3-2 2-2 0s0-1-1 1c-3 11-4 14-7 16-2 3-4 9-4 15l3-1 4 1h10c0 1 1 1 2-1l5-1c4 1 3 2 5-18s2-22 0-22l-2 2-3 3v-2h-2c-1 1-4 1-4-1v-1l-1-1v1m322 16c1 7 0 9-1 10-2 1-1 1 13 1l19-1-2-1-2-2c0-2-1-2-13-2h-13v-7c-1-6-1-5-1 2m32-6v3l1 1c-1 1 0 1 0 0l2 1-1 1c-1 0-2 2-1 7 0 2 7 1 8-2l-1-3v-5c-3 1-6 0-3-1l3-2-6-3c-1 0-2 1-2 3m11 5 1 7c1 1 1 2-1 2-4 2 0 3 14 3 19 0 19 1 1 2l-14 1h-4c0-1-1-2-4-1h-8l-3 1-5 1-5-1-5-1c-5 0-6 1-4 1h-8c-2 0-2 0-1-1v-1l-3 2a4 4 0 0 1-6 0c0-2-2-2-2-1h-2c-1-1-1-1-2 1h-4l-1-5v-2l-2 4h-1l-1-1c-1 0-1 2 1 3l-1 1-2-1c-1-1-1 0-1 2 0 3 0 3 3 2 3 0 7 1 7 4l2-1c3-3 6-3 8 0 2 2 2 2 4 0 3-3 6-3 8 0 1 2 1 2 3 0 3-3 5-3 8 0l1 2 2-2c1-3 3-3 6 0 2 2 3 2 3 1 0-3 6-4 9-1 2 2 2 2 2 0 1-3 8-3 9 0 1 2 1 2 4-1s4-3 7 1l2 2 2-2c1-3 6-3 8 0 1 1 1 1 3-1 3-3 4-3 7 0l3 2 2-2c2-3 5-3 8 0l2 3 1-3c2-2 8-3 9-1a4 4 0 0 0 3 2c-1-1 2-3 4-3l5 2c2 2 3 1 2-1 0-2 8-2 10 0 0 2 1 1 3 0 3-3 6-2 8 1 2 2 3 2 3 1l4-3c2 0 2-1 2-3-1-3-3-4-3-2s-3 2-8 0l-1 1c-1 1-11 0-12-1l-1-1v1c0 2-3 2-5 1v-1l1-1v-1a1 1 0 1 0-1-2l-2-2c-1-2 0-2-17-2-10 0-11 0-10 1v3l-2 1 13 1 13 1-13 1c-8 0-13 1-14 2h-10l-1-4c1-2 1-2-1-2s-2-1-2-5v-2 3h-27v-5l-1-5v5m-188 6-1 5 1 2c3 1-1 2-17 3l-17-1 5-1 9-1c3-1 3-1-3-1-7 0-7 0-8-2s-1-2-1 0l-1 2c-4 2-2 5 1 5a242 242 0 0 0 32 0h3c4 0 6-2 2-2-3 1-4-4-1-6v-1c-1 0-2-1-2-3v-3l-2 4M81 619l-1 18-1 3c-1-1-2 2-1 4h1v1h-2c-1-1-2-2-3-1l2 2c2 1 2 1 1 2v4c1 3 1 6-1 7-1 1-1 1 1 1s4-5 3-10v-3l1-5v-7a34 34 0 0 0 1-16h-1m233 8c-6 1-6 1-2 1s4 0 2 1 0 1 5 1l8-1c-1-1 0-2 2-2l4-1-19 1m-181 4-2 2h-1c-1-2-1-2-1 1-1 2 0 3 1 2v5c2-1 3 2 3 9 0 9 1 5 1-7 1-13 1-13-1-12m308 1v1c2 0 1 4-1 6-3 3-5 3-5 0-1-1-1 0-1 3 0 4 0 5 1 4v-2l3-2c3-1 3-1 3 1l1 1-1 3v2c2 0 2 1 2 4v2-24l-2 1m45 16c-1 1-1 4 1 4l2 1-2 1h-1v1l-3-1c-1-2-1-2-1 1l1 5 1 3 1 2c2 0 2 0 1-1v-3l-1-2c-3 0-2-2 0-3h5l1 1h-3c-2 0-2 0-1 1a3 3 0 0 1 0 4c-1 1 0 1 1 1 3 0 5-1 3-2h-2c-1 0-1-1 1-2 4-3 1-14-4-11M50 659l-1 9 1 4h2l1-2 1-1v-1l1 1 3 1 3 1h1l3-1c2 1 2 0 2-2l-1-2-4-1c-2 0-2 0-1 1s1 2-1 2h-3v-3c1-1 1-1-1-1l-3 2h-2l1-1 1-1-1-1-1-1v-4l-1-3v4m135-2c1 2-3 5-5 6l-2 3-2 2-1 2c1 1 0 1-1 1l-2-1-1-1-2 2c-1 2 0 2 9 0 2 0 2 0 1 1v1l2-1 2 1h2c-1-1-1-1 0 0 3 3 4-1 2-7-1-1-2-3-1-4v-6l-1 1m-94 12-5 1-3 1h-4l3 1c2 0 3 0 2 1h4l1-1c0-2 0-2 2 0s16 3 14 1h8l3 1c2 0 1-1-1-2l-3-2h3l-3-1c-7 2-8 2-8 1h-2c-1 1-1 1 0 0h-3c0-1-2-2-8-1m34 2c0 2 0 2-2 2h-2 9l1 1 8-1 8-1h7l-3 1c-3 1-2 1 2 1h5l-3-2-2-2-4-1h-25l1 2m29-1 10 4 3-3c1-1 0-2-6-2l-7 1m245 0 1 2-4 1-4 2h6c14 1 17 1 17-1h-12c-2 0-2 0-1-1v-3l-4-1 1 1m30 4h-4c-3 0-4 0-3 1h19c1-1 1-1-1-1h-11m-91 2v4c0 2 0 3 6 3 5 0 6-1 4-3l-2-1h-4c-1 1-1 1-1-1 1-2-1-3-3-2"
    itemprop="light" fill-opacity="0.90" stroke-opacity="" stroke-width="0.33px" fill-rule="evenodd" tabindex="-1"
    fill="url(#16282281824-posters-1671750834187-vertical-light)"
    stroke="url(#16282281824-posters-1671750834187-horizontal-background)"></path>
  <path id="16282281824-posters-1671750834187-regular"
    d="m187 59-1 5c0 1-1 2-4 2s-4 1-4 2c-1 2-5 3-42 4l-61 3c-1 1-3 11-4 24l-2 14-2 7-1 6 1 4v8l-2 13-1 9c-2 1-2 13-1 14s1 1-1 1-3 2-2 6c2 3 1 12-1 22l-1 10-2 6v11c-2 26-3 33-5 34v10a241 241 0 0 0-4 37c-2 0-3 2-2 4v7l-2 16c-1 9-2 12-3 12v2c1 4 1 6-1 3-4-8-6-10-11-11-6 0-8 1-7 6 1 14 0 17-4 18-3 0-4 0-5-2l-7-10-5-7v186h7l1 2-4 1H0v45c0 44 1 48 3 32l1-7-1 7-1 10v3h10v-4l1-4v8h4c6 0 5 1 7-16l2-12v-4l1-3 1-5c3-15 3-17 8-17 3 0 3 0 3 7 0 5 0 6 1 3l5-9S35 675 33 681c0 2 0 2 7 2h8v-8l7-68c0-7 1-7 4-8s3-1 3-8c1-7 6-14 11-14l3-2h2v2c0 1 3-3 3-6l1-1v1h2c3-3 5-3 4 1v13c1-2 1-2 1 1l1-4c2-14 2-6 1 11l-2 18h12v-11l1-11h3c3 0 3 0 1 1-3 0-4 6-4 18 0 3 3 4 5 2h1l2 1c2 0 3-1 3-6l1-6v12h11l1-16 1-18c0-2 0-2-12-2l-11-1h26l1-3 2-3h3c3-2 4 1 3 10 0 6 0 8 1 7l1-1 1-3v30h2c8 0 9-1 9-7l1-13v20l5-1h6v-6l1-6v12h11v-12c2-22 3-29 4-22 1 1 1 0 1-2 0-4 0-5-2-5-1-1 0-1 2-1l3 1h3c1 0 2 2 2 9l1 8v-6l2-6c3-2 11 2 11 5l1 1h1c0 1 1 2 4 1s4 0 4 1l-4 1c-4 0-5 1-3 4h6c1-1 1 0 1 2 0 4 0 4-1 3-2-2-4-1-6 1-2 3-1 5 3 4 5 0 5 0 6-8 0-8 3-13 6-13l2-2c2-1 2-1 2 1h2l3-2c1 1 1 0 1-2s0-3 2-2l1-1c-1-1-1-1 0 0l3 1c2 0 2 1 2 6l1 6 1 19v16l1-20c2-25 3-26 3-2l-1 19h10v-10l1-10v20h10v-17c0-12 1-14 1-6v10h3l4 1h-7v12h10v-6c0-11 0-32 1-29 1 6 3 3 2-3l1-2c1 1 1 0 1-2l1-2h1l7-1h3c3-2 11-2 11-1 1 1-1 1-4 1h-5v7c0 5 0 7 1 5s1 1 1 9v11l1-12c1-19 2-14 2 13v25h10v-25l1-25v50h10v-5c0-4 0-5-2-5v1l-1 1a2 2 0 1 1 2-3l1-19v-19l1 24 1 25h9v-52l1 5c0 3 0 4 1 3l1-5 1-4 1-3c0-2 0-2 1-1h1l3-1 1 1v1l1-1 1 4c1 4 1 4 2 2s1-3 3-2c3 0 8 4 8 6h5l6 1-4 1c-5 0-5 0-4 2 1 3 9 4 9 1l4-8 1-2c0-1 1-2 3-2l2-2 2-1 1 4 1 5 1-6v-6l4 1 4 1v12l1 1v-2l1-1 1-3c0-8 1 0 2 15l1 17 4 1 4 1v-17c-1-20 0-19 1 2l1 14 4 1h4v-11l1 6v5h9l-1-12-1-19v-6h-10l-10-1h10c12 0 12 0 12 7l1 2 1-5c0-7 3-11 7-9 2 1 3 4 3 14 1 4 1 3 1-2 0-8 3 24 6 74v12h32l-17 1-16 1h18c10 0 18 0 17-1l-2-4-6-87v-4h-16l-16-1h33v6c2 10 2 10 2 0v-9l5 4c1 1 2 1 3-1s1-2 1 0l3 14v-6l4 30 4 1h5l-1-8c0-9 1-8 1 1l1 7h8v-12l1 8 1 6h-10c-10 0-10 0-11 3v3l4 29c1 16 0 15 9 15h8v-6l-2-13v-18l2 2c1 1 1-65 1-148 0-123 0-149-1-142-3 16-3 17-7 15h-1c0 1 0 2-2 2h-3c-2 0-3-1-5-4-3-6-6-8-6-4 0 7-4 9-15 9l-17 2 17 14c4 3 10 4 17 5 5 1 6 4 1 4-11 0-22-6-32-15a54 54 0 0 0-43-18c-17 0-27 4-41 19a50 50 0 0 1-27 17c-7 1-7 1-7-1l2-2c9 0 20-6 28-15l5-6-4 1-4-1h-40l-7 1h-2l-1-13c0-11 0-13 2-13l1-8c-1-6-1-6 1-7 2 0 2-12 0-27l-1-5v5c0 7-3 7-3 1l1-5v-5l-1-13-1-15-7-59-1-10v4l-1 4-1-6c-1-6-1-6 4-9 1 0 1-2-1-20l-2-15c0 4-1 5-3 3l-2-20-1-29V86c0-1-1-2-3-2-3-1-4-5-6-16v-4l-6 1-86 4c-2 0-3-1-3-2l-4-2c-3 0-4-1-4-4-1-4-3-5-3-2m-10 100c-40 2-46 2-46 4 0 1 5 1 54-1 22-1 23-1 22-3h-30m48 5-13 1c-1 2 31 1 36-1h-23m-32 0-22 1-30 2h-8v3l-3 26a3518 3518 0 0 1-5 70l-3 42-3 28-6 4-14 10a25 25 0 0 1-9 6c1 1-2 6-10 14-7 7-18 13-25 15-4 0-5 1-4 2 1 4 20-4 30-12l2-2-1 2c-2 5-17 13-29 17v1l1 3 5 22c5 20 5 20 8 21 2 0 3 1 3 2 0 2 0 2-1 1-2-2-3-1-2 2l-1 5c-1 1 0 2 1 3 2 1 2 2 0 23-3 27-3 28 0 26 2-2 4-2 6 0 2 1 2 1 4-1 4-2 7-1 8 2l1 2 1-2c2-3 6-4 8-2 1 2 1 2 3 0 2-3 7-2 7 2 1 2 1 2 2 0a4 4 0 0 1 5-2c2-1 3 0 4 1s1 1 3-1c3-3 6-3 7 0 1 2 2 2 3 1 2-3 7-3 8-2 1 2 2 2 4 0 3-2 6-1 7 2 0 3 1 3 3 0 0-2 1-2 3-2s2 0 1-1v-1c1 0 4 2 4 4h1c0-4 8-5 9-1v2l2-2c1-2 3-3 4-2l1-1c0-2 3 0 4 2 0 2 0 2 3 0l3-3c2 0 4 1 4 3 0 3 1 2 3 0 3-3 6-3 7 1l2 1c0-4 6-6 9-3 1 2 1 2 3 0 2-3 6-2 8 1l1 2 1-3c1-3 5-3 8 0 1 2 1 2 3 0 1-2 7-3 8 0 0 1 1 1 2-1 3-3 9-2 9 2l2-10c0-4 0-6-2-8s-2-3-3-28c0-17-1-28-2-33-1-9-1-9 2-8h4l-2-2c-2 0-3-2-1-2s8-6 8-7l-6-1-5-3-1-4c-1-2-2-3-4-3l-3-1h3c3 0 4 0 4-2l-4-1h-5l-2-1-3-1h-1l-1-1h-2l-4-3-5-3 3 1c10 5 26 8 26 4 0-1-1-2-7-2-12-1-21-7-30-19l-10-12-5-6 1-23a27558 27558 0 0 0 6-155c0-1-11-2-12-1m-97 5-11 1h6c9 1 33 1 37-1H96m92 2c0 2 0 2 1 1v21h9v-11l1-11 1-1c0-2-1-2-6-2-6 0-6 0-6 3m-32-1c-2 0-3 1-3 2l1 12 1 10h27v-11l2-13h-28m-18 3 1 12c-1 8-1 9 4 10 3 0 3-1 4-12l2-11c1-2 1-2-5-2h-7l1 3m31 23-25 1-10 1c0 2 64 0 66-2h-31m-81 17-12 1h10l24-1 14-1h-12l-24 1m99 0-1 4 1 1c0-2 4-3 6-1l2 1 1-1v-1l1 1h1l1-3c0-2-9-3-12-1m-27 1h-10v14l1 13h8l14-1h7v-7l2-10v-2h-23l16-1c6 0 7 0 7-2l1-3c0-2-1-2-6-2l-17 1m-26 4c0 3 0 3 1 2h1c0 2 8 1 10-2 2-4 1-4-5-4h-7v4m52 12c0 11 0 11 7 9 3 0 3 0 3-8l1-9c1-2 1-2-5-2h-5l-1 10m-51 2v10h9v-7l1-10c1-3 1-3-5-3h-5v10m23 10c-29 1-36 3-15 3l53-2c4 0 2-2-4-2l-34 1m57 12h12l21-1-33 1m-119 4-14 1h14l21-1 8-1h-8l-21 1m87 16 1 14 1-7 1-5v12l4-1h3v-7l1-9 1-6 1-6h-12l-1 15m-25-13h-11l-1 12c0 16 0 20 1 7 1-6 1-10 2-9h1v17h25v-4l1-9 1-5 2-5v-5h-5l-16 1m-28 9v14l-1 5h10l1-8 2-13c1-7 1-7-6-7h-5l-1 9m18 20c-24 1-22 1-21 2l8 1h33l6-1 10-1 12-1h-48m81 11-22 1c0 1 15 1 52-1l17-1h-13l-34 1m-48 6v25c-1 2 4 5 8 5 2 0 2 0 3-16l1-5h-6c-5 0-5 0-5-3 0-1 0-2 1-1l6 1 5 1v-7h-13m-27 2h-11v7l1 11v3h13l15 2c3 0 3 0 3-4l1-7 1-7 1-6h-6l-18 1m-27 0-1 16c-1 9-1 9 1 9l6-2c4-1 4-1 5-11l1-4h-6c-5 0-6 0-4-3 1-3 10-3 10 0 1 1 1 0 1-2v-3h-13m18 6v2h12c15 0 19-1 19-3s-1-2-15-2h-16v3m159 20 1 7h-3l-16 2c-10 0-13 0-13 2 0 1 11 1 26-1 5 0 5 0 7 8 1 7 2 6 2-1a1105 1105 0 0 1-3-19l-1-5v7m-167 0c-6 1-21 7-21 8l4-1c21-9 41-9 61-2 9 3 11 3 3 0-14-7-33-9-47-5m265 15c-9 2-15 5-21 11l-6 5v1c2 3-14 14-25 17-6 1-9 4-3 2 13-2 21-7 32-19 22-24 52-24 75-1 10 10 21 15 33 17h5l-3-2c-4 0-15-4-20-7-5-2-12-8-10-8 3 0-15-12-23-15-9-3-26-4-34-1M0 442c0 93 0 93 1 25v-94l-1 69m222-91-12 1 55-1h-43m64 1-10 1c-1 2 5 6 8 6 6 0 13-2 13-4s3-3 4 0h1l-1-3h-15m117 1c-8 2-15 6-21 12a61 61 0 0 1-20 18l-12 4a6 6 0 0 0-5 6l-1 3-1 2c-3 0-9 3-8 5l2 1 1 1 1 1c3-1 3 1 1 2l-1 2h2c3-2 3-3 1 25-1 38-2 41-5 44-3 4-3 17 0 15s7 0 8 3l1 2c0-5 8-6 10-2l1 2 2-2c2-3 7-3 8 0 1 2 1 2 3-1 3-3 4-3 7 0 2 2 2 2 3 1 1-3 7-2 8 0l2 2v-2c1-3 9-3 10 0 0 2 0 2 2 0 2-4 6-4 8 0l2 2 1-2c1-4 7-4 8 0 2 2 3 3 3 0 2-3 6-4 9-1l2 3 1-2c2-4 9-3 9 1 0 2 2 1 3-1 2-4 9-3 9 1 0 2 2 1 3-2 1-4 5-4 8 0 2 3 3 4 3 2 0-6 7-6 9-1l2 2 1-3c2-3 6-4 8-1 2 2 2 2 3 0 3-3 8-3 10 1 1 2 1 2 3 0l3-2c4 0 3-13-1-18-3-3-3-6-8-33l-6-33c0-2 0-3 2-3l3-1h-3c-3-2-3-3 2-5 5-3 5-4 0-5-6-2-7-2-7-7l-1-4c-10 0-26-8-37-18a51 51 0 0 0-51-14m8 18-1 6c0 7 1 8 12 6 3-1 4-4 2-10 0-3-3-4-5-1h-3c-2-2-5-2-5-1m-268 7c-1 2 1 8 3 8 7 1 9-3 4-8-2-3-7-3-7 0m29 12c0 2 0 2-2 1-4-3-7 4-3 7 3 3 6 0 6-6v-5l-1 3m-45 0c0 1-1 2-3 2-3 0-3 0-3 2 0 8 8 8 7 0 0-5-1-9-1-4m331 10-14 1 2 2c2 2 3 10 3 19 0 2 1 2 4 2h4l-1-10c0-8 0-9 1-4l1 9c0 5 0 5 3 5 4 0 6-2 3-2h-3l-2-2c0-3 2-5 5-4l1-1-2-1v-1c1 0 2-1 2-4l1-4v8h8v-5l2-6c2-2 1-3-2-3l-16 1m-87 1-10 1a2 2 0 0 0 3 4v9h4c4 0 4 0 4-4l1-3v3c0 4 0 4 4 4 3 0 4 0 4-3l1-2v2c0 3 0 3 4 3h4v-4l-1-5-4-1h-6l6-1c6 0 6 0 7-2s-2-2-21-1m31 0 2 3 2 11 1 10h7v-4c0-4 0-4-4-4l-3-1h8l-4-1-4-1h3c3-1 3-2 3-6l1-4v5c1 4 2 5 3 5l3-1c2 0 2-1 2-5v-4l1 5c1 4 2 5 5 5h4l-1-5 1-5 2-2c0-1-3-2-16-2l-16 1m-353 2-4 3-3 2 2 3c3 3 4 5 2 5v2c0 4-10 59-13 64l-3 5c-2 2-3 4-3 8l-1 6 3-1 4 1c1 2 1 2 4 0h5c2 1 2 1 4-1h8l2-21 2-24 2-3c2-1 2-1 1-2l-1-4-11-44v1m159 3-16 1v6c0 4 1 4 1 2l1-4c1-1 2 4 1 7 0 2 0 2 4 2h4v-5l1-5v10h3c4 0 4 0 5-7 1-1 1 0 1 2 0 4 0 5 3 5 2 1 2 1-1 1s-3 0-3 5v4h8v-8c0-7 1-15 2-11l1-2 1-3h-16m-42 1c-13 0-16 1-12 3l1 5-1 5h8v-5c0-5 0-5-3-5l10-1c9 0 12-1 13-2l-1-1-15 1m-64 1H70v2l1 6c0 2 0 2 1 1 2-3 3-2 3 2l-1 4h4c4 0 4 0 4-4l1-3v3c0 4 0 4 3 4 2 0 2 0 0 1-3 0-4 2-4 6 0 3 0 3 3 3 4 0 4 0 4-5 2-12 3-15 2-6l-1 9c0 2 1 2 4 2h4v-4a47 47 0 0 1 1-10l1-5 2-4v-2m16 0c-5 0-7 1-6 2s29 0 30-2h-24m45 7v5h3c4 0 5-2 5-7 0-3 0-3-4-3h-4v5m9-2-1 10v7h8v-10l1-10h-4c-4 0-4 0-4 3m-46-1c-3 0-3 0-3 5 0 4 0 4 3 4 4 0 4 0 4-4l1-4v8h4c3 0 4-1 4-5v-5h-5l-8 1m-12 6-1 10c0 4 0 4 3 4l4 1h-4l-3 1-1 5c0 3 0 3 4 3s4 0 4-3l1-10v-7h-3l-3-1h3c2 0 3 0 3-3 1-6 1-6-3-6h-4v6m353-2 2 2 1 2c-1 2 2 4 5 4v-10h-4c-3 0-4 0-4 2m-39 0 4 1h-8v4l1 9v5h8v-5l-1-10v-5h-8l4 1m-64 4c0 6 0 6 5 5 3-1 3-1 3-5s0-4-4-4h-4v4m9-1c0 2 1 3 3 4a4 4 0 0 1 4 2l1-4v-5h-4c-4 0-4 0-4 3m9 6 1 10 3 1h4v-20h-8v9m33-6c0 4 2 5 5 6 3 0 3-1 3-4 0-4 0-4-4-4-3 0-4 0-4 2m-261 7c0 4 0 4 4 4 2 0 3 0 3-2l1-5c0-2 0-2-4-2h-4v5m9-2-1 4c0 2 1 2 4 2h4v-4c0-5 0-5-3-5-4 0-4 0-4 3m32 7v10h7v-5c0-5 0-5-3-5h-3l2-1c4 0 5-1 5-6 0-3 0-3-4-3h-4v10m9-5c0 4 0 4 4 4 3 0 3 0 3-4 0-5 0-5-3-5-4 0-4 0-4 5m-82-1-1 10v7h3c3 0 4 0 4-3 1-5 1-7-1-7v-1l2-2 1-5c0-2 0-2-4-2s-4 0-4 3m9-1-1 5c0 2 0 2 4 2h4v-4c0-5 0-5-3-5s-4 0-4 2m-57 3-1 13-1 4h4c3 0 4-1 4-5l-1-5v-1c1 0 2-1 2-4l1-5h-4c-4 0-4 0-4 3m375 0 1 5c0 2 0 3 3 3 4 0 4 0 4-5v-5h-4c-4 0-4 0-4 2m20-1 2 4 2 4c3 0 3 0 2-5 0-4 0-4-4-4s-4 0-2 1m-62 5v5h4c4 0 4 0 4-3l-1-5c0-2-1-2-3-2h-4v5m-253 3c-2 6-1 7 3 7h4v-10h-3c-3 0-4 0-4 3m8 2v5h4c3 0 3 0 3-3l1-5c0-2 0-2-4-2h-4v5m9-3-1 5c0 3 0 3 4 3 3 0 4-1 4-5v-5h-3c-3 0-4 0-4 2m32 3v5h4c3 0 4-1 4-5v-5h-8v5m9 0-1 10v5h8v-8l1-10c0-2 0-2-4-2h-4v5m-82 1v5h3c4 0 4 0 4-3l1-5c0-2-1-2-4-2h-4v5m-48-1-2 10v8h3c4 0 4 1 5-14l1-6h-3c-3 0-4 0-4 2m8 3-1 4h4c4 0 4 0 4-4l1-5h-4c-4 0-4 0-4 5m369-2c-11 1-10-1-8 15l2 14v1l1 6-1 6h10l-1-6-1-5c-1 2-2 0-2-8v-7l2-4c0-4 0-4 2-2 1 2 1 2 1 0l2-3h4c1-1 1 0 1 1l2 3 3 4c1 3 1 3 1-4l1-7-1-3c-1-1-2-2-5-2l-13 1m-53 3v3c1-1 2 3 2 11v7l1-6c1-7 2-4 2 6l1 14c1 4 1 1 1-10v-11c1 6 3 4 3-3 0-5 0-5 1-2l1 3v-6l1 3c1 3 1 3 1 1 0-4 2-4 2 1v4l1-5 1-2 1 2c1 1 2 5 2 15 0 14 2 21 2 9 0-3 0-4 1-3l1 3 1 4v2l2-19 1-19-1-3c-2-3-26-3-28 1m-42 0-1 4h1c1-2 1-2 1 1s2 7 2 4a2 2 0 0 1 3-1h1v-6c-1-1 1-1 4-1l6 1-1 1-1 1 2 2c1 0 3 16 3 26l1 8v-13c0-8 0-13 1-12l1 1 1 5c0 11 1 19 3 19v-19l1-19v-1c-2-4-26-5-28-1m-133 1 2 8c2 2 8 3 7 0l1-2c2-3-2-8-5-5h-2c-1-1-2-2-3-1m-72 2-6 1v10l-2 21v10h3l13-1h9v-12l2-19v-10h-19m35 7-1 10c0 2 1 2 4 2h4v-5l1-10v-5h-8v8m9-3c0 4 0 4 4 4 3 0 3 0 3-4 0-5 0-5-3-5-4 0-4 0-4 5m-78-3c-12 0-13 0-14 2-2 3-3 5 0 3v18l-1 14v4h11l13-1 2-17 1-19c1-4 0-5-12-4m-36 3-1 5c0 2 1 2 4 2 4 0 4 0 4-3l1-5c0-2-1-2-4-2-4 0-4 0-4 3m-43-1v1l1 4a5 5 0 1 0 3-5h-4m26 1-1 5c0 2 0 2 4 2h4v-4c0-5 0-5-3-5s-4 0-4 2m130 10v5h8v-10h-8v5m9 0v5h3c3 0 4 0 4-3 2-6 1-7-3-7h-4v5m-140-1-1 5v4h4c3 0 4-1 4-5v-5h-3l-4 1m8 4v5h4c2 0 3 0 3-2s0-2 1 0v4c-1 9-1 8 3 8s4 0 4-3l1-5c0-1-1-2-3-2l-3-1h3c3 0 3 0 3-3l1-4c0-2-1-2-4-2s-4 0-4 3l-1 3v-3c0-3 0-3-4-3h-4v5m114 8v5h3c3 0 4 0 4-3 2-6 1-7-3-7h-4v5m9 0v5h4c3 0 3 0 3-3l1-5c0-2-1-2-4-2h-4v5m9-2-1 5c0 2 0 2 4 2l4 1h-8v10h8v-21h-3c-4 0-4 0-4 3m-141 2c-2 6-1 8 3 8 3 0 4-1 4-5v-5h-3c-3 0-4 0-4 2m8 3c0 4 0 4 3 4s4 0 4-3c1-6 1-6-3-6h-4v5m115 6-1 5c0 2 0 2 4 2h4v-10h-3c-4 0-4 0-4 3m8 2v5h8v-10h-8v5m-123-2-1 5c0 4 0 4 4 4 3 0 3 0 3-3l1-5c0-2 0-2-3-2l-4 1m8 2-1 5c0 2 0 2 4 2s4 0 4-3l1-5c0-2-1-2-4-2-4 0-4 0-4 3m-17 0-1 5c0 3 0 3 3 3 4 0 5-1 5-7 0-3 0-3-3-3s-4 1-4 2M0 583c0 25 1 35 1 23a2170 2170 0 0 0-1-23m363 8-1 3c0 3 8 3 9 0s-5-5-8-3m36 21v4c1-1 1 6 3 30v14h28v-10l-1-14c0-2 0-3-1-2s-1 0-1-3l1-11c0-4 0-5 1-4v-3l-1-3h-15c-13 0-14 0-14 2m-259 3-1 4c0 2 0 2 1 0 2-4 2-4 1 20l-2 21 18 1h18v-9h-17l-16-1h16l17-1c0-2-3-2-17-2h-16l16-1 17-1c1-1 0-2-2-2l-3-1h3c4 0 4-2 1-2l-3-1 3-1c1 1 2 0 2-1l-17-1-17-1h17l17-1c0-2-3-2-17-2l-17-1h17c15 0 17 0 17-2l-1-1h-2l1-1 2-1 1-7c1-8 2-8-18-8h-18l-1 3m-52 1-2 8v5l1-5c1-6 3-9 2-4a5428 5428 0 0 0-3 37v5h36v-6l1-10v-5h-17l-16-1h16l17-1c0-2-3-2-15-2l-15-1h15c14 0 16 0 16-2l-8-1h-8l8-1h8v-3l1-9v-7H89l-1 3m157 4v6h10v-12h-10v6m11 0v6h10l10-1 1-6v-5h-10v5l-1 6v-11h-10v6m150 6v16l1 15c0 1 1 2 3 2s2-4 0-11l-2-20c0-5-1-5-2-2m98 2c-1 4-3 6-3 1 0-3-2-5-3-2l3 27c1 5 1 5 1 0l1-4c1-3 4-3 4 0l2 9v-6l-3-27c-1-3-2-2-2 2m-101 12 1 18-1-29v11m-162-10c0 2 36 3 37 1h-17l-19-1h-1m170 5 2 15c0 7 1 9 2 9v-5l-1-14c0-8-1-10-2-11l-1 6m-151 4-32 1 1 1c2 1 121 0 121-1 4-2-4-2-90-1M0 643c0 1 27 2 33 0 6-1 0-2-15-2s-18 0-18 2m135 23 20 1 21-1h-41m-17 9c-41 0-50 1-48 2 5 2 115 2 118 0s0-3-9-3l-61 1m269 3c0 2 13 2 61 2l56-1 8-1-62-1-63 1"
    itemprop="regular" fill-opacity="0.90" stroke-opacity="" stroke-width="0.33px" fill-rule="evenodd" tabindex="-1"
    fill="url(#16282281824-posters-1671750834187-horizontal-regular)"
    stroke="url(#16282281824-posters-1671750834187-vertical-light)"></path>
  <path id="16282281824-posters-1671750834187-bold"
    d="m275 77-137 7-41 2 28-1 31-1a7868 7868 0 0 0 136-6l2 3v3h-13l6 1h6l1 5c0 7 1 11 2 9 0-1 1-1 3 1h2l-1-1c-2-2-4-8-5-15v-8l-20 1m3 24c-1 2-2 2-7 2-7 0-10-2-4-2l-6-1c-13 0-19 1-18 3l-2 1h-2l2 1 2 4v4h8a182 182 0 0 1 13 0 3 3 0 0 1-2-5c-1-2 3-4 6-4s3 0 3 4 0 5 2 4c2 0 6 1 5 2l-2 1h-3a49 49 0 0 1-6 2l12 1 4 2 2 1c0 2-4 1-6-1h-39a14274 14274 0 0 1-164 8c-3 0-4 0-4-2h-1l-1 2v1c3-1 2 1 0 2-2 2-2 2-1 6 2 7 6 11 12 11l5 1 43-4c2-1 5 2 5 6v4h-6c-5 0-5 0-5-3l1-2h-11l-16 1c-4 0-4 0-3 2l1 3-1-1h-1l-12 2c-13 0-14 1-13 9l1 4v-5c0-7 1-7 9-7 5 0 7 1 7 2h1c0-2 9-3 9 0s-1 7-3 7h22l7-1-1-4c0-3 0-4-1-2l-1 4c0 4-2 2-2-2 1-5 0-5 10-6 8 0 8 0 8 2-1 2-1 2 1 2s4-4 2-7-2-3 7-3a7 7 0 0 1 8 1c0-1 1-2 6-2 6 0 8 1 7 8-1 1 0 2 1 2l2-2v-3l1-10c0-8 0-8 2-8s2 0 1 1v3c0 2 1 2 8 2 13 0 17-1 17-4 0-2 2-4 2-1v10l1 6-1 5h4c3 0 4-1 4-3s1-2 3-2l6-1 7 1c4 0 4 0 4 4 0 3-1 4-2 5s-1 1 2 1h3v-13l1-8c0-7 2-9 2-5 1 3-1 3 18 2 7 0 8 0 8-2l2-2 1 7v7h-6l-11 1c-11 0-11 0-8 1h2l1 5-1 5c-1 1 2 1 5 1l7-1h-10v-4l1-5 7-1h8v5c0 3 0 4-2 4l-2 1h4c1 0 2-2 2-5l1-6c2 0 2 1 2 5v6h7c3 0 5 0 4-1-7-1-7-1-7-5v-4h5c6 0 6 0 5 5l1 4h2l2 2 4 2c2 0 2 0 2-5l-1-6c0-1-1-2-2-1a5 5 0 0 1-7-5l-6 1c-5 0-6-1-4-4 0-2 1-2 1-1h2a41 41 0 0 1 7-1l2-1 3-1 2-2c2-1 2-1 2 2 0 2 0 2 1 1h4c2-1 1-2-1-2s-3-1-3-2l1-1c1 1 3 0 3-1 2-1 2-2 2 14 0 11 1 15 3 12h1l1 1v-2l-2-4h2c0-2 2-1 3 3l2 5-1-1-2-2 1 5a26 26 0 0 1 1 17v3l1-3c1-2 1 10 1 22 0 7-1 8-1 1 0-4 0-5-2-5-4-2-5-5-6-14-1-8-2-8-4-8s-3-1-3-7c0-3-1-4-3-4l-4-2h-22l-20 1h24l-14 1-37 1 4-1h-4c-3 0-3-1-4-3-1-3-2-3-8-3h-6l6 1h6l1 5v22l-1 17h11l33-1c27-2 28-2 30 0l3 2 3 2c0 1-4 0-6-2h-17l-15 1h15l17 1 4 2c2 0 4 5 3 8-1 1-1 0-1-2s0-3-3-4l-4-2h-17l-36 2h-21v9l-1 20v11l36-2c33-1 40-1 39 1l-16 1-16 1h33l5 4 1 1c0 1-3 1-6-1h-40l-37 1v13l-1 21v8l25-1 38-2h13v-3c0-2 0-3 1-2a5 5 0 0 1-1 6c-1 1-5 2-17 2l-15 1h15c12 0 16 1 19 2l5 2h1c0 2-4 2-7 1-1-2-6-2-30-1l-38 1h-10v15c0 10 0 15 1 14 1-2 1-2 1 0l-1 3a3 3 0 0 0-1 4c0-2 2-1 2 1-1 1 0 3 1 4 3 2 2 2 44 1l18-1c7 0 7 0 7-2 0-3 3-4 9-4 2 0 3 0 2-2 0-2 0-2-1-1-2 3-6 0-8-4l-1-3v-2l2-2c10 0 17-23 7-24-3-1-5-3-4-4l4 1c3 1 3 1 2-7l-1-4c-1 2-6 0-7-2l-2-2-1-2c0-3 1-4 4-5 7-2 11-10 9-20 0-3-1-4-3-4l-3-1c-1-1-1-1 2-1l4 1-1-8c-1-7-2-11-2-6l-1 3-2-1-1-1-2-1h5l-2-1c-5 0-5-4 0-7 6-4 8-10 7-17l-2-11c0-5-1-6-2-6-3 0-6-2-6-3 0-3-3-5-4-3-2 2-8 3-8 0 0-1 1-2 7-2 5-1 9-3 9-5h1c1 1 1 1 4-2 4-5 6-4 6 4 1 9 2 12 3 12 0-1 2 0 3 2 4 4 5 17 5 52 0 24 0 27 2 27l1 6v13l-2-10v-2c-1 0 0 36 2 38l-1 1-1-4c0-2 0-2-1 0l1 4c2 2 3 6 3 17v4c1 10 2 9 2-3v-12l1 5c0 3 0 5 1 4 0-2 5 1 5 4 1 1 1 0 1-3 0-4 0-6-1-4 0 3-1 3-2 2a9 9 0 0 1 0-13l2-4 2-2v9l1-7c0-6 0-6 2-7 2 0 2-2 1-15 0-5-1-6-2-7l-1 1-1 2c-1 1-2 0-2-2v-7c2 3 2-6 0-31l-1-10-3-28a759 759 0 0 1-4-29c-1 5-3 0-3-8 0-3 0-4 3-5l2-1v-11l-3-21-1 3-1-1-1-1h-2v1-22l-1 9c0 13-1 9-1-6-1-17-1-16-8-15l-6-1 5-1 4-1h-9v-4c0-3-1-3-4-3l-4-2c-1-2-1-2-1 0m-97 3c-4 0-5 1-5 2l-2 1v7c0 2 1 2 8 2h8v-8l1 4c1 3 1 3 1 1l2-4c6-5 2-6-13-5m92 3c-1 4 2 6 5 3l1 1 3 3v1c-1 2 1 4 4 3h3v2l4 1a3 3 0 0 1 4 1l1-4c0-4 0-5-3-3h-6l-1 1a6 6 0 0 1-5 0 4 4 0 0 0-1-8h-3l-2-2c0-3-4-3-4 1m-145-1-5 1c-3 0-4 0-4 2l-3 1c-2 0-3 0-2 1 2 0 2 1 2 4v4h5l11-1c4 0 6 0 5-1-2 0-2-4 1-6 3-3 3-5 1-5h-11m-35 2c-8 0-10 0-10 2a2 2 0 0 1-4 0c1-1 0-2-2-2-4 0-4 0-4 3-1 4-3 6-4 4-1-1-1 0-1 3a8 8 0 0 1-1 6c0 2 2 1 3-1l2-2 1-2c0-4 2-6 2-3l2 2 1 1c-1 1 3 1 11 1h13v-4c0-3 0-4 2-4 2-1 2 0 2 3 0 5 1 5 1-1 1-4 1-4-1-4l-2-1c-1-1-1-2-11-1m114 37c-2 4 0 6 9 6l9-1c2 0 2-4 1-6h-15c-2-1-3-1-4 1m-60 0c-7 0-11 1-11 2a97 97 0 0 0 27-2h-16m-22 27 7 1h-11a889 889 0 0 1-43 1l11-1H77c-11 0-12 0-13 2l-1 2c-7 0 3 19 10 19 4 0 7 2 7 5s-6 3-8 0c-1-1-1-1-2 1s-3 2-4 2c-1-1-2 0-2 1l-3 3c-3 2-5 9-2 9v-2l1-1c1 1 1 1 1-2v-2l2 1a2 2 0 0 0 2 1c-1-1-1-5 1-6h8c4 0 6 3 2 5-1 1 4 1 20 1l23-1c3 0 3 0 3-2-1-3 0-3 2-3 4 0 6-3 6-15l2-15v-5h-14l7 1m99 21a15 15 0 0 0-8 3h-1l13 1c15-1 15-1 15-3s-6-2-19-1m-54 21-10 1-9 1 9 1 16-1 6-1-12-1m-88 5c-19 1-20 1-23 3l-2 3 2 5c3 8 9 12 21 12h5l-4 1-13 1-8 1-1 2v3c-1 2-3 3-3 0l-1 1c-2 4 0 11 2 8l13-1a546 546 0 0 0 41-2c13 0 14 0 14-2l1-15 2-17v-4h-13l-33 1m134 22c-5 0-3 2 2 1h13l8-1h-23m-151 5-4 1 11 1 11-1 1-1H65m94 16-11 1 8 1 15-1 8-1-5-1-15 1m-59 2-32 1c-9 0-12 1-12 2l-2 2c-3 0-3 1 1 8a17 17 0 0 0 10 10c3 1 3 1 4 5l1 3h-8c-8 0-9 0-9 2l-2 2c-2 0-3 1-3 2l-1 6v4l1-3 2-2s47 0 64-2h7l-1-4c0-3 0-4 1-2 1 1 1 1 1-1l2-30 1-4h-3l-22 1m129 20c-3 0-4 1-4 3v3h6l22-1c17-1 18-1 15-4-2-2-3-2-3 0-1 2-25 3-26 1h-1c0 2-6 1-6-1l-3-1m-117 6-7 1-24 2h33c4 0 6-3 3-3l-3-1-2 1m109 6v3h5c5 0 5 0 5-3s0-3 1-1c0 4 2 4 2 0 0-5-6-4-6 0l-1 4v-4c0-5-6-5-6 1M49 311v5c-3 0-3 2 0 7 3 8 9 13 13 12l1 1 4 1 6 1h1c-1-1-1-1 0 0 3 2 1 5-3 6H49c-1-1-1-1-1 1s-3 4-4 3-2 3-2 7 1 4 2 3c2-2 5-2 26-3l24-1 6-5a35 35 0 0 1 7-6H76l1-2c1-4 2-4 18-4s19 1 15 3c-3 2 0 1 4-1l5-2v-8l2-13v-5h-7c-19 2-64 2-64 1 0-2 2-2 9-2l9-1h-9c-8 0-9 0-10 2m100-1-5 1 3 1 17-1 13-1h-28m121 21-1 3c0 3-2 3-2 0-1-2-1-2-16-2l-15 2h-8l-1-1-1-1c-2 0-2 0-1 1s-4 2-9 2l-3 2h-2l-1 1a72 72 0 0 0 28 0h32v-7m240 16v8c2 0 1 3-1 3s-2-1-2-4l-1-3c-2 0-3 2-1 2h-8c-4 0-4 0-2 1 1 1 1 1-1 1s-2 0-2-2c1-2 0-2-1-3-2 0-2 0-1-1l1-2c-1-1-4 1-5 3v2l-16 2-12 1v2h2l1-1 1 1c-2 5 18 17 29 17 3 0 6 4 3 5l-1 3-1 2v3c0 2 0 2 1 1s1 0 1 2c0 3 0 4 4 5l5 2c2 0-4 6-7 6-1 0-1 1 1 2 3 1 3 3 0 3-1 0-2-2 4 34 5 28 6 31 8 34 2 2 3 4 3 7V339l-2 8m-488-1c-2 5 7 19 11 18 3-1 7 7 7 9v1l1 1-2 1-3 1 2 1h2c1 1-5 1-7-1l-1 1c0 2-1 2-3 1l-4 1c-2 1-2 1-3-2l-1-1a2 2 0 0 1-3 0c2-3-1-3-3 0-1 3-1 3-2 1s-3-4-2-1c0 2-7 4-8 1s-2 0-2 7c0 6 0 7 1 5l4-2c3 0 1 9-3 10l-1 1c2 0 2 0 1 7-3 7-3 13 0 12v1c-3 2-2 3 0 2 2 0 2 0 2 3 0 5-1 7-3 7v6c-2 6-1 17 1 19 2 1 2 4-1 9l-1 12-1 13 1 3 3 1-1 1c-3-1-3 0-3 7v7l3-3c3-3 4-3 6-2v2l-2 3-4 1c-2 0-3 0-2 1l3 1v2l-3 1-1 1h2v2c-3 3-3 6 0 5l2-3c0-1 5-2 5 0 2 2-4 7-6 6-3 0-3 0-3 3v3l10-1h25c14-1 20 0 12 1l-3 2v1l-1-1-1-1-6 2h-8l-5-1H1h3c4 0 4 0 4 2 0 1-1 2-4 2-5 1-6 5 0 5l4-1c0-2 2-1 3 2l1 4c0 3-6 3-10 0l-2-1v12h17l19-1h1l1 1c0-1 2-2 5-2 5 0 5 0 3 20l-4 32a5608 5608 0 0 1-8 73l5 1 5-1 1-2v-2h-1l1-1a2 2 0 0 0 0-3l-1-1 2-3c2 0 2 0 1-1-1 0-2-1-1-2h1l1 1 1-3c0-1 0-2-1-1 0 2-2 1-2-1l1-3 1 1v1c1 0 2-12 1-13l-1-15 1 1h2l1-3-1-4v2c0 3 0 3-1 2-2 0-2-1 0-4v-4h1c2 1 2 1 2-1l-1-2-1-1c-1-1 0-2 1-3v-1c-1-1 0-8 1-7v-3a4 4 0 0 1 2-7c-1-1 0-1 1-1l4-1c1-1 0-1-3-1h-4c0-3 0-4 2-4l1-2h-2l-1-1c-1 1-1-2 1-3l1-6v-3c1 1 1 0 1-4s0-5-1-3-1 2-1 0l1-3c2-1 3-6 2-7v-1l1-5 1-13v-3c2-3 2-8 1-10v-1l1-2v-4l1-1c-2-2 1-11 3-11 2 1 1 4-1 6l-2 9v7l8-1c48-1 107 0 77 1l-5 1c1 1 0 1-2 1l-3-1h-6c0 2-2 2-4 0h-2l-1 1-2-1h-13l-14 1H72c-9-4-11-1-11 13 2 21 2 25 3 20l2-4 3-2 3-2h5c2-1 7-2 13-1l34-1a105 105 0 0 1 26 0h17l19-1h14l2 1c2 3 3 1 3-5v-7h4c4 0 5 2 5 12 0 4 2 6 5 3l4-2 3-1h2l2-1h1l2 1a49 49 0 0 1 19 0h19l17-1 5-1h6a334 334 0 0 0 50-1l2 1h3l2 1v1h2l1 3 1 1c1 1 1 0 1-3 0-6 0-6 2-5 3 1 5 0 5-1l-4-1h-4v-8h9v9c0 8 0 8 2 7l5-3 5-1 5-1h38a34 34 0 0 1 11 1 140 140 0 0 1 35 0h18c4 1 18 0 22-2a3 3 0 1 1-2 5l-3 1h8v-32l-1-29c0 2-1 2-1 1-1-2-1-2-2-1h-1c0-2 0-2-1 0s-3 3-3 0v2c0 4 0 4-2 3h-3c-1 0-2 0-2-3-1-4-3-5-3-2 0 2 0 2-1 1-2-2-2-2-5 1-3 2-4 3-3 1l-1-2c-1-1-1 0-1 1l-2-1c-3-4-9-4-9 0l-1 3-2-3-3-3v1c2 2 0 3-4 2h-3l-2 1-1 2c1 2 1 2-2 2-2 0-3-1-2-2s1-3-2-3c-1-1-2 0-3 1l-2 1c-1-1-1 0-1 1l-2 2c-2 0-2 0-1-1s1-1-1-3c-3-3-3-3-4-1l-2 1-1 1-1 1h-1c2 1 1 2-1 2s-3-1-2-2l-1-1-1-2h-1c-2 3-3 2-4-1-1-1-1-2-2-1v1l1 1c-1 1-4 0-4-1 0-2-3-1-4 1 0 2 0 2-2 0-1-3-1-3-4-2h-3l-1 2-1 3-1-3-2-2v1l1 4c1 4-5 4-7 0-1-2-1-3-2-2 0 1-1 1-2-1v2c1 4 1 4-3 4-3 0-3-1-4-3l-1-2-3-2-2-1 1 2a3 3 0 0 1 1 4h-4c-3 0-3-2 0-5v-1l-3 2c-2 2-2 2-3 0 0-2-2-3-3-3l1 3v1h-8c-2-2-8-3-10 0-2 1-2 1-2-1a5 5 0 0 0-3-3c2 2-6 2-7 0-2-3-1-13 1-14 3-3 4-7 5-27l2-29c0-8 0-8-1-7h-3c-1-1-1-1 1-2h2l1-3c0-2 0-3-1-2l-4-1 2-3v-1h-2l-2-2c-3-1-3-3 1-4l2-3 2-1c2 0 3 0 3-4v-5l-1-2c1-2 0-3-1-3-2 0-2 1-2 2l-1 3v-2l-1-3c0-3 1-4 6-4 6-1 6-2 5-4-1-3-1-3 2-3l2 2c0 4 8 0 16-9 6-6 6-6 3-6-2 0-2 0-1 1v2h-3c-3-1-4-1-6 1l-3 1-2 1-1-1v-5l-2 1h-3v1l1 4c-1 2-2 4-2 2l-3-3c-4-2-4-5 0-5l3-1h-5l-6 1h-2l2 1h2l1 1-1 1v1c1 2 0 2-3 2-4 1-5 1-5 4l-1 2c-2 0-4-4-2-5a2 2 0 0 0 0-2c-1 2-2 1-1-1l-1-2-1 6-1 5-2-2-2-4-2-1h-3l-2-3a3 3 0 0 0-4-2c1 0 2 1 2 3 0 3-1 4-3 1-2-1-2-1-3 2s-2 3-3 2l-3-2v-1l-1-1-3 2c-1 2-1 2-3 1v-2l-1-1v3l-1 2v1c0 1-1 2-3 2s-3-1-2-2l-1-1h-4c-3-1-3-1-2 2 1 2 1 2-2 2l-2-1h-2l-2-1-1-2-1 2c1 1 0 2-2 2-2 1-3 0-2-3 0-4 0-4-2-2v-6h-4l-7 1h2c6 0 6 0 6 3 1 3 0 4-1 2h-2l1 2c3 2 2 3 0 2-2 0-3-1-2-2l-1-1-1 3-1 1-1-1-1-3-1 2c1 1 0 2-2 2-3 0-4 0-1-2v-2l-3 2c0 2-1 2-1 1-2-2-3-1-3 1 1 1 0 2-2 2s-3-1-3-2l-1-1-2-1c-1-1-1 0-1 1s-1 2-3 2-2 0-2-2c1-2-2-2-4 0-1 0 4 4 6 4l3 1c1 2 9 4 13 4 1 0 2-1 1-3 0-3 2-5 4-3v1l-1 1c2 2 2 8 0 8l-1 7 1 6 5 2c6 2 7 3 3 6l-2 3c0 3 0 5-2 5v2l-2-2c-1-2-2-1-2 2 1 2 2 3 4 3s5 2 4 3l-4-1c-3-1-3-1-3 2l2 30c0 25 0 27 2 29 2 1 2 3 2 9 0 9-1 13-2 10s-9-3-9-1l-1 2-1-1c0-3-9-3-9 0v2a3 3 0 1 1 2 3c-3 0-4 0-4 2v-9l-4 1-4 1c-1 1-1 1-2-1-2-1-2-1-2 1l-1 3-2 2-2 1c-2 0-3-1-3-2l-3-7 1 1-3 1-4 1h2c2 0 5 2 5 3h-1c-1-1-1-1-1 1 0 3 0 3-2 2h-4c-2 0-2 0-1-1 1-2 1-4-1-4l-2 3c-1 3-1 3-3 2l-3-1-2-3c0-3 0-3-2-1l-1 3c0 2 0 2-4 1l-2-3v-1h-1c-1-2-8-2-9 0h2c3-2 4 0 3 3 0 3-1 3-2 2l-3-1h-2c0-5 0-5-3-5l-6 1h3c2 0 3 1 1 4 0 2-5 1-5 0 1-4-1-5-3-2l-2 2c-1-1-1-1 0 0s0 2-2 1l-2-1-2-1h-1a2 2 0 0 0-1-2l-1-1c0-1-5-1-6 1h3c2 0 2 0 2 2s-1 3-3 3l-3-1a5 5 0 0 0-6-5c1 5 0 7-3 6h-3l2-3 1-2h-2c-1-3-8-2-9 1h5l-1 1v1c0 2-1 3-4 3l-2-1v-5l-3-1c-2 0-2 0-1 1l2 3-1-1c-2-1-2-1-2 1s0 2-3 2l-3-1c2-3 0-6-2-5-1 1-2 2-1 3 2 1-2 4-5 3l-2-1 2-2c3-3 3-4 0-1h-2c0-2-8-2-8 0h2c2 0 2 0 1 2l-1 2h-2l-2-1c1-3 0-5-4-5l-5 1 1 1c2-2 5 0 4 2l-2 3h-3c-2 0-3-1-2-2 2-2 1-3-2-3-2-1-3 0-3 1 0 2 0 3-3 3-2 0-3-1-3-2l3-25c2-23 2-23 0-25-1-1-1-1 1-1h2c0-1-7-2-9-1-2 0-2 1-1 1v5l-3 22-3 20-9 1a25 25 0 0 0-11 1l-4-1-4 1 1-8c1-5 2-8 4-9 3-4 5-8 8-25l5-26c2-12 3-15 0-13 0 2-1 2-1 1l2-2c2-2 3-3 1-3-3 0-2-3 0-3 1 0 2 0 1-1l-1-1c0-2-5-6-7-6-2 1-2 1 0-4 2-4 3-5 4-4 2 0 3 3 1 6v2c2 0 5-4 5-5 0-6 2 1 7 20 6 24 7 26 8 26 4-2-11-61-20-77-4-8-4-8-1-8l2-1c0-2 2-2 7-2l22-1h-7l-23 1c-1 2-2 1-3-3l-5-8c-2-2-3-3-2-1v2l-3-4c1-1-1-1-3-1l-5 1m272 1h-10c-8 0-10 0-9 1v1l-2 2-8 1-24 1h8c24 0 25 0 25 2s-11 2-54 3c-8 0-10 1-5 3h34l9-1c6-1 9-1 9 2h9l4-1-2-1c-2 1-2 0-2-5v-5h8l14-1h5l-4 1-4 1h3c4 0 6 3 5 7-1 2 1 4 3 2l-1-1v-7l-1-6a18 18 0 0 0-10 1m-245 1c0 3 2 6 4 6s2-1 2-3l1-3v3l1 3 2-4c0-4-6-5-6-1l-1 3v-3c0-2-2-3-3-1m13 15c-15 0-17 0-18 2s-1 2 4 1l4 1h1l1-1h1c1-2 2-2 4-1h16l4 1c3 0 3 0 2 1v1l5-5-3-1-21 1m-12 11-1 3v2l1 4c0 3 2 3 4 0s5-4 7-2c1 1 7-1 7-2l-2-1c-1 1-1 1-1-1 1-2 0-3-2-4s-2-1-2 1-6 1-8-1c-2-1-2-1-3 1m258 5-2 5v4l3-1c3 0 3 0 3-4-1-4-2-6-4-4m20 0v5c-1 4 0 4 2 4 3 0 3 0 3-3 0-6-3-9-5-6m-31 1-1 4c-1 4-1 4 2 4s3 0 3-4-3-7-4-4m-11 2c-2 3-1 6 2 6 3 1 3 1 3-4s-2-6-5-2m-31 0c-2 3-1 8 2 8s3 0 3-4c0-3-1-4-2-4h-3m11 0-1 4c0 4 0 4 3 4s3 0 3-4-3-7-5-4m-253 6-2 6-2 4h3c3-1 5-4 5-9 0-2-2-3-4-1m9 3c-3 5-3 5 1 6 2 0 5-4 5-9 0-3-4-1-6 3m21-2c-3 5-3 7 0 7h3v-2c3-5-1-9-3-5m255 2-1 1c-1 0-2 1-2 3 0 3 0 4 3 4 3 1 3 0 3-4l-1-5c-2-1-3-1-2 1m9-1v9l1-1h1l2 1 1-5c0-5-3-7-5-4m21 0v5c-2 1-1 4 2 4 2 0 3 0 2-4v-5h-4m-63 2-1 5c-1 3-1 4 3 4h3v-5c-1-5-3-7-5-4m10 1c-2 7-2 8 2 8 3 0 4-4 2-8-1-3-4-2-4 0m-257 8c-1 5-1 6 1 6 2 1 6-7 4-8-1-2-3-1-5 2m12-1c-4 5-4 8 0 8 3 0 4-2 4-8 0-3-3-2-4 0m-22 4-3 5h3c3 0 4 0 4-5 1-6-2-6-4 0m319-1 1 2v2c0 2 0 3 2 3 3 1 3 1 3-4-1-5-4-7-6-3m85-1-8 1c2 1 29 0 29-1h-21m-148 1c-1 2-1 8 1 8l2 1c2 0 2 0 2-5 0-4-4-7-5-4m103 0c-1 1 3 1 12 1s11 0 9-1h-21m81 4 1 3h5l1-3c0-3 0-3-3-3-4 0-4 0-4 3m-242 0-8 1h-6l15 1 16-1c0-2-15-2-17-1m176 4c0 3 0 4 1 3 0-2 4-4 4-2l1 3 1-5c0-4 0-4-3-4h-4v5m-347 2-2 5 2 1c3 0 6-4 4-6l1-3c1-1 1-1-1-1s-3 1-4 4m45-3-9 1c1 1 28 2 30 0 4-2-2-2-21-1m-55 2c-2 4-2 7 1 7 2 1 5-3 5-7h-6m50 7a3 3 0 0 0 4 3l2-1 1-3c0-4 0-4-3-4-4 0-4 0-4 5m-65 6c-3 6-3 6 1 6 2 0 5-5 5-9 0-3-4-1-6 3m11 0c-3 6-3 6 1 6 3 0 4-1 4-7 1-4-3-4-5 1m54 1c-2 5-1 7 2 7s4-1 4-6c0-4-5-4-6-1m8 3c-1 4-1 4 3 4 3 0 3 0 3-3l1-4c0-2-1-2-3-2-4 0-4 0-4 5m8-1c0 4 0 4 3 4 6-1 6-8 1-8-4 0-4 0-4 4m76 4c1 1 1 1-1 1-3 0-4 2-4 5 0 2 0 3 4 2 3 0 3 0 3-5 0-4 0-4-2-4s-2 0 0 1m4 4c0 4 0 4 4 4 3 0 3 0 3-4 0-5 0-5-3-5-4 0-4 0-4 5m33 0c0 4 0 4 3 4 2 0 3 0 3-2l1-5c0-1 0-2-3-2-4 0-4 1-4 5m8 0c0 4 0 4 4 4 3 0 3 0 3-4 0-5 0-5-3-5-4 0-4 0-4 5m-17 0c0 3 0 4 1 3a3 3 0 0 1 4-1l1 1c1 1 1 0 1-3 0-4 0-4-3-4-4 0-4 0-4 4M7 434v1l-1 2v3a2 2 0 1 0 3 1l2-3a3 3 0 1 0-4-4m106 4c0 4 0 4 3 4s4-2 4-7c0-2-1-2-3-2-4 0-4 0-4 5m23-4c0 2-3 3-5 2-1-1-1 0-1 2 0 4 0 4 2 4l4-1 1-4-1-4v1m-46 5c0 4 0 4 4 4 3 0 3 0 3-4 0-5 0-5-3-5-4 0-4 0-4 5m-17 0c0 4 0 4 3 4s4-1 4-6c0-2 0-2-3-2-4 0-4 0-4 4m92 4-12 1v16l-2 21c0 3 0 3 2 2l4-4c1-3 4-4 6-3s1 2-1 1l-1 1v1l-1 1c1 1 2 0 3-1l3-1c1 2 4 2 5 1 1-2 4-1 4 2l-1 2-1-1c1-3-1-4-2-2l-4 2c-7 0-7 2 1 2h8l1-21 1-20h-13m30 0-1 5c0 3 0 3 3 3 4 0 4 0 4-4 1-5 1-5-3-5l-3 1m8 4c0 4 0 4 4 4 3 0 3 0 3-4 0-5 0-5-3-5-4 0-4 0-4 5m9 0c0 4 0 4 4 4 3 0 3 0 3-4 0-5 0-5-3-5-4 0-4 0-4 5m-100-1v18h2l3 1c-1 9 2 14 3 8 1-2 1-2 3 0 1 4 3 3 5-2l1-3v3l1 3 1 3c0 1 0 2 1 1l1-1c1 0 2-3 2-11l2-17v-5h-12c-10 0-13 0-13 2m-40 4c0 4 0 4 3 4s4-2 4-7c0-2-1-2-3-2-4 0-4 0-4 5m9-3-1 5c0 2 0 2 3 2 4 0 4 0 4-3l1-4c0-2-1-2-3-2-3 0-4 0-4 2m8 3c0 4 0 4 3 4s4-1 4-5v-4h-3c-4 0-4 0-4 5m28 0c-2 1-3 2 0 1v1c-1 1 0 2 2 2l3-1h2c3 1 6 0 6-2s-8-3-13-1m199 0-1 5c0 4 0 4 3 4 2 0 3 0 2-4 0-4-2-6-4-5m-110 3c-5 0-5 9 0 9 3 0 3 0 3-5 1-5 1-5-3-4m8 0c-3 0-3 0-3 5 0 4 0 4 4 4h3v-10l-4 1m-20 5c0 4 0 4 4 4 3 0 3 0 3-4 0-5 0-5-3-5-4 0-4 0-4 5m-31-3c-3 0-3 1-3 4 0 4 5 10 7 8h3c1-1 2-3 2-7-1-6-1-7-9-5m-89 1c-5 0-5 9 0 9 3 0 3 0 4-5 0-5 0-5-4-4m6 0-1 5c0 3 0 3 3 3 4 0 4 0 4-3l1-4c0-2-1-2-3-2l-4 1m9 1c-2 4-1 7 2 7s4-1 4-6c0-3-5-5-6-1m194 4-1 3v5c-1 1 0 2 2 2 2 1 3 0 3-2v-5c0-2-4-4-4-3m-89 5c-2 6-1 7 2 7 4 0 4 0 4-5l1-5h-4c-2 0-3 0-3 3m8 2v5h3c4 0 4-1 4-5v-5h-7v5m9 0v5l4-1c3 0 3 0 3-5 0-4 0-4-3-4h-4v5m-141 3c-1 4 0 4 3 4 2 0 3 0 3-3 1-6 1-6-2-6-4 0-4 0-4 5m9-2c-1 6-1 6 3 6 3 0 3 0 3-3l1-4c0-2-1-2-3-2-3 0-4 0-4 3m8 2c0 4 0 4 3 4s4-1 4-5v-4h-3c-4 0-4 0-4 5m106 8v5h3c3 0 4-1 4-5v-5h-7v5m9 0c0 5 0 5 3 5s4-2 4-7c0-3 0-3-3-3h-4v5m8 0v5l3-1c3 0 4-1 4-2l1-5c0-2 0-2-4-2h-3l-1 5m-141 0-1 5c0 2 0 2 3 2l4-1 1-5c0-3 0-3-3-3s-4 0-4 2m9 0c-2 6-1 7 2 7 4 0 4 0 4-4 1-5 0-5-3-5-2 0-3 1-3 2m8 3-1 4h4c3 0 4-1 4-5s0-4-3-4c-4 0-4 0-4 5m195 4 2 3v2l-2 2-1 3c-1 1 0 1 2 1l4-1-1-2v-1c3-2 2-7-1-8l-3 1m46 0-1 6-1 4h4l4-1a9 9 0 0 0-5-7l2-2c1-1 1-1-1-1l-2 1m-23 1-1 5c0 4 1 4 3 4 3 0 3 0 3-4 0-5-2-7-5-5m-44 2c-1 4-1 7 2 8 2 1 2 1 2-5 0-5-2-7-4-3m32 9-1 2-2 2v1l5 1c3 0 3 0 3-3s-2-4-5-3m11 0c-2 5-2 6 2 6 3 0 3 0 3-3 0-4-5-6-5-3m-35 2v4l4 1c2 1 2 1 2-2 0-1 0-2 1-1v-2c-2-3-7-3-7 0m-22 0v7c3 0 4 0 1 3a5 5 0 0 1-4 2l2 1 3 1c2 0 5-11 4-13s-4-2-6-1m68 6c-3 3-3 6 0 5l4 1c2 1 2 1 2-2s-1-4-2-5c-2-1-2-1-4 1m-59 0c-2 3-1 5 3 7l3 1v-4c0-5-3-7-6-4m35 1c-1 4-1 5 3 5 4 1 4 0 4-2 0-5-5-7-7-3m-109 0v2l-1 1h-1l1 1v1c-4 0-4 3 0 3s5-1 5-5c-1-4-2-4-4-3m51 2c-1 4-1 4 3 4 3 1 3 1 4-2 1-5-4-7-7-2m35-2c-3 4-2 6 1 6 4 1 6-3 5-6h-6m-120 3c-2 3-3 5-1 5h3c2 1 5-6 4-7-1-2-4-1-6 2m21 0c-2 3-3 4-1 4l4 1 3-3c2-6-2-7-6-2m-130 2-3 4h4c4 1 7-2 6-5s-3-2-7 1m56-2-2 4-2 2h3c2 1 3 0 5-1a3 3 0 1 0-4-5m301 3-1 4c0 2 0 3 3 2a3 3 0 1 0-1-6m57 0c-2 6-2 7 2 7 4 1 5 0 3-2l-2-2h2c0-3-5-5-5-3m35 1c-1 3 1 6 4 5 4 0 4-1 3-4s-6-4-7-1m-210 1a5 5 0 0 0-3 4c0 2 0 2 2 1l5 1c1 1 2 0 2-3a4 4 0 0 0-6-3m13-1-1 4c-1 3-1 3 3 3 4 1 4 1 3-3 0-4-2-6-5-4m21 1c-2 5-1 5 3 6 4 0 4 0 4-4-1-5-5-6-7-2m13 0-1 3-2 3c-4 1-4 3-1 3l2-1c-1-2 2-3 5-3 4 1 4 0 4-3-1-4-5-6-7-2m-126 1-2 3c1 0 1 1 0 0l-1 1c0 2 1 2 3 2h4v-7c-2-1-2-1-4 1m21-1c-3 4-2 6 2 7h4v-4c-1-4-4-5-6-3m11 0c-2 3-2 6 0 6l4 1c2 0 2 0 2-3 0-4-3-7-6-4m12 0c-2 3-2 7 0 7l4 1c2 0 2-1 2-4 0-5-3-7-6-4m11 0c-2 3-2 7 0 6l4 1c2 1 2 1 2-3-1-5-5-7-6-4m12 0-1 1-1 3c-1 2-1 3 2 3a4 4 0 1 0 0-7m35 1c-2 4-1 6 2 6s4-1 4-3c1-5-4-7-6-3m-123 0-3 4c-2 3-2 3 0 3h4c2 1 4-2 4-6 0-1-4-2-5-1m31 1v2l-1 1c-1 2 0 2 2 2 4 1 4 1 4-3 1-4-3-6-5-2m-87 0-4 6c0 2 7 0 8-2 2-3 0-6-4-4m11 1c-4 4-4 6-1 5l3 1c2 1 2 1 3-3l-1-4c-2-1-2-1-4 1m20 1c-3 4-3 4 2 4 3 1 3 0 4-2 2-5-2-7-6-2m-129 1c-4 5-4 5 0 6 4 0 8-5 6-8-2-2-3-1-6 2m10 0-3 3 3 1h5c1-3 1-6-1-6-2-1-2-1-4 2m10 1-1 3 4 1c1 1 2 0 3-3 2-3 2-4 0-4-3-2-4-1-6 3m34-2-5 6 5-1c4 1 8-4 5-6-2-1-3-1-5 1m21 0c-3 3-2 4 0 4l4 1c0 1 3-5 2-6-1-2-5-1-6 1m11-1-2 4v1l4 1c2 1 6-4 4-6h-6m33 0-2 4c-1 1-1 2 3 2l4-1c1-4 1-6-2-6l-3 1m-130 4-4 4h4c4 1 7-3 6-6s-3-2-6 2m489 3h-66l-66 1 14 1a34 34 0 0 1 10 1l58-1h60v2c1 2 1 2 1-1 0-2 0-3-2-3h-9m-188 2h-53l-54 1c-1 2 45 3 48 2h40l33-2 32-1c8-1 4-1-18-1l-28 1m-144 2c-16 0-4 3 16 3 8 0 11 0 13-2l4-2h-13l-20 1m251 1c0 2 1 2 5 2 6 0 7 0 6-3-1-2-11-2-11 1m64 0c0 2 1 2 6 2 4 0 5 0 5-2-1-3-11-3-11 0m-126 7c0 3 0 3 6 3 4 0 5 0 5-2l-1-2-3-1h-5c-2-1-2-1-2 2m71-1-5 1c-6 0-6 3 1 4l5 1h1c1-3 0-7-2-7v1m64 0-5 1c-4 0-5 0-5 2s1 2 6 2l6-1c0-3-1-5-2-5v1m-179 1c1 1 0 1-4 1-5 0-5 0-5 3 1 3 3 4 5 3l4 1c3 1 3 1 3-1l-1-5c0-2 0-3-2-3v1m-52 1-4 1c-4 0-5 0-5 2s4 5 7 5l3-1c2 0 1-8-1-8v1m-102 1c1 1 0 1-4 1-9 0-6 6 3 7 4 0 4 0 3-2l-1-4-1-3v1m-51 1-5 1c-6 0-6 1-3 5 4 3 12 3 10 0l-1-4-1-3v1m330 28 17 1 18-1-17-1-18 1m46 0c1 2 26 3 26 1s-2-2-13-2l-13 1m-91 1c1 2 4 2 17 1 22 0 21-2 0-2-16 0-18 0-17 1m47 3 2 31 3 45v16h4l5-1-1-1-2-1 10-1c10 0 11 0 9 2l-3 1h8l2 1v-10a8065 8065 0 0 0-6-74v-10h-16c-15 0-15 0-15 2m-139 0-5 1 18 1c15 0 19-1 19-2h-32m-60 1 18 1 18-1-18-1-18 1m158 0c-2 0-2 1-2 5 0 5 1 5 3 5s3 0 2-2c0-1 0-2 2-2l1-2-1-4h-5m89 4 1 3c0-1 1-2 3-1 3 0 3 0 3-3 0-4 0-4-4-4h-4l1 5m9-3c0 3 2 5 5 5s3 0 3-4c0-3 0-3-4-3-3 0-4 0-4 2m-81 2c0 3 0 4 3 3l3-1h1c1 1 1 1 1-2s0-3-4-3-4 0-4 3M1 577l6 1 15-1 8-1-14-1c-13 0-15 0-15 2m143 1c0 3 0 3 5 3a4 4 0 0 0 6-4c0-2-1-2-5-2-6 0-6 0-6 3m12 0c0 3 0 3 5 3s5 0 5-3 0-3-5-3-5 0-5 3m12 0c0 3 0 3 5 3s5-1 5-3c0-3 0-3-5-3s-5 0-5 3m145-2c-3 2-1 4 4 4 4 1 4 0 4-2 0-3 0-3-4-3l-4 1m10 1c0 3 0 3 4 3l4 1c1 1 1 0 1-2v-4h-4c-5 0-5 0-5 2m-230 2c0 3 0 3 5 3s5 0 5-3 0-3-5-3-5 0-5 3m12 0c0 3 0 3 2 3l5-1c3 0 3 0 3-2 0-3 0-3-5-3s-5 0-5 3m12 0c-1 2-1 2 4 2s6-1 6-3c0-3-10-3-10 1m129 3v5h9v-6l1-5h-10v6m11 0v5h9v-11h-9v6m10 0v5h10v-11h-9l-1 6m35-4c0 4 1 4 5 3 6-1 6-5 0-5-5 0-5 0-5 2M1 585c0 5 0 6 2 6s3-1 3-7l1-5H1v6m7-1v6h8l1-6v-5H8v5m10 1v5h4c4 0 4 0 5-8l1-3H18v6m228 10v5h9v-11h-9v6m11-3-1 6c0 2 0 2 5 2h5v-11h-4c-5 0-5 0-5 3m10 3v5h5c3 0 4 0 4-2l1-5v-4h-10v6M0 598c0 6 3 8 4 1 1-6 1-7-1-7-3 0-3 0-3 6m7-4-1 5c0 4 0 4 4 4s5-1 5-7c0-4 0-4-4-4-3 0-4 1-4 2m10 0-1 5v4h4c5 0 5 0 5-2l1-6v-3h-4c-4 0-5 0-5 2m229 13v6h9v-12h-9v6m11-5-1 6v5h4c5 0 6-1 6-8v-4h-4l-5 1m10 5v6h9v-12h-9v6M5 606l-1 6v3h4c5 0 5 0 5-2l1-6v-3h-4c-5 0-5 0-5 2m11-1-1 6-1 4h10v-6l1-5h-5l-4 1m73 10 1 4c0 3 0 3 1 2v-2l12-1 22-2-16-1H93l16-1 16-1h-18c-16 0-18 0-18 2m53 2c0 4 0 4 4 3l3-1h-3l-3-1 12-1c10 0 11 0 11 2s1 2 4 2c2 0 3 0 3-2l2-2 2-2c0-2-1-2-18-2h-18l1 4m103 3v6h4c5 0 6-1 6-9 0-3 0-3-5-3h-5v6m11 0v6h9v-12h-9v6m11 0v6h9v-12h-9v6m-249-3c-3 0-4 1-4 2l-1 5v4h9v-6l1-5h-5m-14 1-1 5v5h4c4 0 5-1 5-8 0-3 0-3-4-3l-4 1m238 22h46l61-1-107 1M87 652v3l12-1c16 0 16-1 1-1l-12-1 8-1 9-1-9-1h-9v3m0 6 3 1 14-1 11-1c-2-2-28-1-28 1m30 18h62c6-1-2-1-26-1l-36 1m291 3"
    itemprop="bold" fill-opacity="0.90" stroke-opacity="" stroke-width="0.33px" fill-rule="evenodd" tabindex="-1"
    fill="url(#16282281824-posters-1671750834187-vertical-bold)"
    stroke="url(#16282281824-posters-1671750834187-radial-regular)"></path>
</svg>
