<svg id="16282281824-posters-1717107730223" itemscope="" itemtype="/posters" itemid="/+16282281824/posters/1717107730223" viewBox="0 0 683 512" preserveAspectRatio="xMidYMid meet" tabindex="0" class="landscape" xmlns="http://www.w3.org/2000/svg"><!----><defs class="graphic"><pattern id="16282281824-posters-1717107730223-pattern" width="683" height="512" viewBox="0 0 683 512" patternUnits="userSpaceOnUse" preserveAspectRatio="xMidYMid meet"><rect itemprop="background" width="683" height="512" tabindex="-1" id="16282281824-posters-1717107730223-background" fill-opacity="1" fill="url(#16282281824-posters-1717107730223-radial-background)"></rect><!----><path id="16282281824-posters-1717107730223-light" d="M0 117v116h3q3 1 2-2l1-2 1-14q0-15 1-13v13c0 12 0 13 2 17q4 8-2 4H7l1 1v2H0v5c0 6 0 6 15 7l7 1q-2 3-5 2c-1-2-9-2-10-1q-1 3-2 0l-2-1-1 2-1 1-1 9 1 8q3-1 3-6l15-1c17-1 20-2 20-3h-8l-7-1h25q3 3-2 6l-5 1-6 2q-6 1 0 4c3 1 16 0 15-1 0-2-7-2-9-1q-1 1 0 0 1-2 7-2 8 0 5 3l2 1 3 1v9c0 11 0 11 8 12h6v5l-1 10-2 4h8q9 0 7 3l2 2 11 1q13 0 10 2l2 1c6-2 14-2 14-1l10 1q10 0 8 1l-1 9-1 8h-2l-4 1q-6 1-5-3 0-6-1 0c-1 2-1 3-8 3q-12 0-6-2 1-1-2-1l-6 2h-3q0-3-5-1-5 3-5-3 0-2-1 1 0 4-7 3h-6v-25h-8v8c1 15 0 17-4 17h-3l-2-1c-5 1-5 1-5-12l1-14v-1q-4 0-6 16l-2 9v2q1 3-3 2-8 2-6-13 0-15 8-12l3 1v-7q0-9-2-7-4 0-5-5 0-3-1-1-3 3-2-2l-1-2h-1l2-1v-2h-4l-3-1q-4 1-2 3v3q-3 6-10 0l-3-4q4 0 0-2l-2-1-1-2q-2-3-1-4 2-1-1-1l-3 2-3 2-2 2q-1 4-5 6-2-1-2 6 0 6 2 5l2 1q0 5-3 5l-1 2q-1 3 6 1c10-1 21 0 23 2v4l1 3c-1 1-4-3-4-4l-5-1-6-1 3-1v-1c-1-1-6 0-6 1l-6 1H0v18h6l-3 2-3 3v171h72l68-1c-8-2 2-2 12-1l17 2q10 0 2-1l-6-2 12 1 43 2h32v-4q-2-4 1-3l12 2 10 1h3c2-3 15-2 17 2l1 2h57l57-1h2l136 1h136v-99l-1-102q0-2-4-2l-3-1 4-1 4 1V0H0zm0 0c0 64 1 90 1 58zm38-9q-3 1-3 7v11q0 4 1 2v-4l7-1 7 1 1 4v4l1 1 1-5v-4l1-1q-1-2 1-2l-1-1-2-2h5l-3-1q-3-1-1-2 3-1 0-1v-3l-1-1c0-2-10-4-14-2m1 2v1l-1 5-1 5 7 1q12-1 2-2h-4l4-1q4 0 1-1-8-1-1-2 6 0 1-1-8-1-1-2 5-1-2-2-5 0 1-1l4-1h-5zm263 76-1 2q-2 0-2 3-1 3 5 2l16 1h11v-6h-6q-14 1-13-2-1-2-8-3-2 0-2 3m45 12-1 6v29l-7 3-8 4-1-2q0-3 2-3l3-1h-1q-4 7-3-19v-17h-32v24l1 23h1l1-6q0-35 3-38v-1l11-1h11v21c0 19 0 21-2 23-2 3-2 3 10-4l24-12-5 1-2 1h-1q-3 6-3-14 0-19 3-14 2 2 1-4h-1q-1 2-2 0-1-5-2 1m19-2v28l-3 1q-3 2 0 0l6-1 2-1c-3-1-2-24 1-24q5-3-2-4zM33 217l1 15 1-15-1-15zm400 15v34l1 1-14 1-5 1 3 1 3 1 7 1h7l-1-13 1-16q2-8 2 0 0 4 1 3h6l5-1 2-5 1-9 2-11c3-8 3-8-10-8h-11zm31-7c0 15 0 15-7 13q-6 0-3 5l1 1 3 2q2 1 1 2l-1 34q4 1 4 3l3 6c1 0 2-4 2-25 0-20 0-20 2-19l2-1 3-2v1l-3 5-1 4v1l1 3-1 4q3 1-1 3v1q3-2 2 10c0 12 1 13 5 12q5 0 2-2v-11q-4-2 7-2 8 1 8-2v-3q-2 1-2-5v-4h23l-5-1q-5 0-5-2t-1-1l-1-1-5-1h-6v-14l-3 1q-7 0-5-3v-1l-1-1 4-1 4 1-2 1-3 1 3 1q4 1 3-2 1-4-4-3l-4-1q-1-1 4-1l5-1-5-1h-4v-16l-10-1h-9zm-98 27q2 48 3 0l-1-25c-2 0-2 2-2 25m-249-21q0 3 1 1 1-3 13-2l1 3v3h-22a75 75 0 0 1-26-3l-1 3q-2 1-2 8v7h8q8 0 7-1-3 0-1-3v-1q-2-1 1-2v-1q-4-1 0-3h3l-3-1q-8-2 10-2 19 0 12 3h-2l2 1 3 1-3 1h-2l2 2 3 1-3 1h-2l2 1 3 1-3 1h-6q-3 0-2 1c2 1 2 2 2 13l1 12q2-1 2-12c0-13 0-13 9-12h8v8l1-11 2-18 2-1 1-1-11-1h-10zm117 3c-3 0-3 13 0 13v1q-3 4-1 3h1l-1 1v3a1 1 0 0 0 0 3v7q3 1-1 2-2 1 1 1 3-1 2 5l-3 6 2 1q2 2 3-13v-13h3l4 2 4 1 3-1q0-2-3-2h-4v-21h-4zm112 21 1 18v-37zM22 238l2 3q3 1 1 4-2 4 1 4l4 1h3q3-1 0-3l-3-1q-4-1 0-3h3l-3-1q-3-2 1-3l2-1-5-1zm563 5-1 13v13l1-9 2-14-1-1 2-1 4 1q2 3 2-1c0-3-8-4-9-1m-400 1-1 5-1 4h7l6 1q1 3 4-1h1q0 2 1 1l2 1 1-3q1-4-4-3l-3-1h-4c0 2-7 2-8 1l2-3 2-2zm-132 1c-1 1 4 4 6 3h7q6 0 5-2 2-3-9-2zm218 0-3 1h-1l-4 1-2 2c-1 2-6 2-6 0h-1v2c1 1 40 2 41 1l-5-1q-5 1-5-2l-2-2-3-1q0-2-4-2zm-170 6h-1c-2 0-2 1-2 11 0 12-1 14-4 14-2 0-10 4-10 6a1 1 0 0 0 2 0l3-2 3-2h2c1 2 6 3 6 2l1-14c0-12 1-14 2-14q2-1 2 10t2 12c2 1 1-22-1-23zm208 1c-3 2-3 10 0 11l2-1h1q4 4 4-5 0-11-7-5m-280 1-3 1 9 1q13 3 12 0l-9-2h-3q2-3-6 0m234 5q0 2-4 2l-3 1h3q7 1 1 2l-3 1q-1 1 2 1l4 1-3 1-4 1 4 1 3 1-3 1-4 1 3 1q5-2 4 3 1 4-3 3l-4 1 4 1c5-1 4 5-1 6l-2 1h3q4-2 3 1l-4 2-3 1h3q7 0 0 3l-3 1h3q8 0-1 3l-3 1h4q4 0 4 2l-3 1q-4-1-4 1c1 2 35 1 35 0q-1-2 12-1l12-1-12-1a34 34 0 0 1-19-3c0-2 5-3 6-1l13 1 12-1-13-1-14-1q-4 1-4-2c0-1 5-1 7 1l13 1q12 0 9-1l-9-1-13-1 12-1 13-1-6-1q-7 1-7-2 1-2-6-2l-6-1-3-1h-4v-10h6q7 1 6 3-3 2-5 0h-5q-1 1 1 1 6 0 0 3l-2 1h3l4-1 3-1q3 1 2-3 1-4-3-3l-3-1h-3q-5 1-4-3-1-5 4-4l5-1h-5q-9-1 1-3h6l-5-1-6-1-2-2-3 1q1 3-5 2-5 0-5-2l-3-1zm-14 1-3 1q-3 1 1 1 6 1-1 3-3 1 1 1 5 2 0 3l-3 1 1 1q8-1 1 3l-3 1h3q7 2 0 3l-3 1 4 1h4v-11q1-13-2-9m233 0 1 1v1q-1 5 3 6 5-1 2-2h-3l3-2 3-1h-3q-3 0-2-1l2-1 2-1-4-1zm-214 5v4h6q5 0 5-2l-5-1-5-1 5-1h5q1-2-5-2h-6zm-258 6-3 1q-3 1 2 1 7 0 4 5-1 3-4 3-8-3-8 5 0 6 2 7 3 3 2-5v-6h23c16 0 17 0 15-3q-1-3-3-1c-2 3-21 3-23 1q-6-7 5-4a8 8 0 0 0 8-2l-9-1zm364 4q1 5-3 4-4 0-2 2c2 4 3 4 19 4l23 1 8-1h-4q-4 0-4-3 1-4-3-2h-9q-3-1-3 2-1 3-1-1 1-4-4-4l-4 1-4 1-4-1 2-1 1-4 1-2q1-1-4-1h-5zm205-3 3 7h7q3-2 2 2l1 1 1-3 1-2q3-4-2-5zm-441 1-1 4q2 2-10 2-19 1 3 2c11 0 13 0 14 2q1 2 1-1 1-3-5-2l-2-1 3-1 2-2 1-2 1-1zm130 4q-1 4 5 3l5 1-5 1-5 1 6 1h5v-10h-5q-7-1-6 3m275 0v7q-1 3 3 2a2 2 0 1 1 1 4h-4l3 1q4 0 4 2l-4 1-3 1 3 1q7 2 0 3-3 1 1 1 6 1-1 4l-3 1h3q7 2 1 4l-3 1h2q5-1 3 7 0 3 2 2 3 0 3 2l3 1q3 1 2-3 0-2-4-2h-4v-10l1-11 1-1q-1-8 2-9 2 0 2 5l1 5v-5l2-7c1-2 2-7 0-7-2-2-8 0-9 3q-3 5-3-1 0-5-5-2m53 0c-3 3 2 11 5 8h13l2 1a1 1 0 1 0 2 0q0-2-3-2l-3-1h2l6-1q7-1-3-1-9 1-8-2 0-2-4-2l-7-1zm39 3 2 2q4 1 1-1-2-1 1-1l3 1q1 2 7 2 9 0 6-2c-2-3-20-4-20-1m-72 0-1 1 2 1h1l-1 1-1 20 1 19v-6q0-7 2-6 3-1 0-1c-2 0-3-4-1-4l1-1-2-4q-1-5 3-4h4l-3-1q-7-3 0-4 4 0 0-1c-4 0-4-4 0-4l4-1-2-2v-2q0-3-7-1m-386 5 2 3q4 2-6 3-6 0-4 2l-5 1h-6v6q1 8 3 2-1-4 9-4h10c10-1 9-1 8-3q-1-2 3-2h2l1-2q5-6 0-6l-5-1q-2 0-2 3c-1 5-6 6-6 1a2 2 0 1 0-4-3m90 2 6 1 5 1-5 1q-10 1 0 2l6 1h-6q-7-1-5 5-1 3 6 2h5v-14h-6zm131 1-2 2q0 2-3 2-3 1 1 1l5-1c2-3 20-3 20-1l-9 1-10 1 2 1 2 1 3 1h3l-2 1v1q6 1 6 4 0 2 5 2c3 0 3-4 0-4l-2-3h3q2 1 3-1 3-4 1-4l-4-2c-2-2-17-3-22-2m-197 3q-5 0-5 3t-2 2h-2q-1 1 4 1 7 0 7 2 0 3-2 1h-6q-7-1-4 2v2c1 2 6 1 5-1 0-2 10-1 13 1l6 1q7-1 7 3 1 3 2 2h7q7 1 6-3-1-6-4-3c-1 3-10 3-9 1q0-2-2-2l-4-2-4-1-2-1q3-11-11-8m466 1v1l-3 1h-19q-3 0-1 2l1 11v8h-3l-7-1h-5l-1 8v9h20l20 1v-7l1-7h-4q-3 0-3 2v4q-1 2 1 2l2 1q-3 1-6-1l-1-6q-1-6 4-5l3-1-3-1-4-1q0-2 4-2l3-1-3-1q-5 1-4-2l-1-2q-1-1 5-1c6 0 6 0 9-3q4-6 4 0-1 3 3 2 3 1 1-4-1-7-8-7zm-551 2-8 1h7l8 1q4 3 6-1c1-2 1-2-13-1m324 4v7l-1 7q0 2 2 1l1-5 2-7v-3zm209 1q0 3-2 3v1q3 0 1 2v9q-2 0 1 4 5 7 4-5 0-7 1-6c0 2 4 1 4 0l-2-2-3-1c1-1-1-7-2-7zm-532 1c-3 2 3 6 7 4h3q4-1 1-3zm-2 12q-3 1 1 1l11 1 9-1c2-3-18-4-21-1m351 1q1 4-2 3c-3 0-3 0-3 8q0 13-3 9v-4q3-12 0-14-2-1-2 6l-2 9q-2 5 5 6l2 1-20 1-20 1h5l4 1q-2 1 13 1c13 0 14 0 14 2l-2 1q-3-1-1 4c1 3 1 3 10 3 19 2 20 1 16-4q-1-4-7-3h-6v-4c1-4 0-4 9-2h12l-5-1q-5 0-5-2l-1-1q-2 1-2-2-1-4 5-3 4 0 4 2 1 3 3-1v-12l-5-1q-7 0-4-4 3-3-2-2-5 0-1 3 2 1-1 1l-2 1a2 2 0 1 1-3-2l1-2-2-2q-3-1-2 3m-258 0 1 4v1l-1 2q0 2 3 2 2 1 2-5-2-8-5-4m58 2 5 3 14 1h13q1 1 0 0 0-3 3-2 7 0 4-2zm348 3h-5v4q2 7 3 2-1-6 7-5h6q0-2-11-1m63 4 1 5c3 0 1 4-2 4q-4 1 2 1t5 2q1 1 1-7l-1-5q1 6-2 5l-2-1v-4q-2-8-2 0m-489 0q0 4 5 1l3-1v2q-2 1 2 1c4 0 4-4 0-4q-10-2-10 1m-20 0q-6 0-7 2l-7 1-7 1h13l16-1q-1-1 1-1v-2l-3-1zm141 2q2 4-6 5-5 1-4-2l-1-2-2 2h-5q-4-1-4 1t-7 3c-8 0 1 2 14 3q22 2 16-3-2-3 2-1 4 1 3-4c-1-4-6-6-6-2m14 0q-3 6 4 6 8 1 2-5-4-5-6-1m118-1q-3 0-1 4 1 5-3 4-2 0-1-1 4-2-2-2-4 0-5-2-1-3-4 0l-4 1-2 2-3 1-4 2h1q5-1 3 1-3 2 4 3 4 0 8-4l4-3-1 2v2l2 1c1-2 6-2 7 0q1 2 1-1t7-3l2-2 2-3c4-2-5-4-11-2m88 4 1 3v-3a2 2 0 1 1 4 1q-1 4 12 4l7 1 10 1 8 1-3-2-5-3q-4 0-3-3c0-4-6-4-7 0q0 5-1 2l-1-2v2q-1 3-4-1h-1l-1 2c-3-1-2-5 1-4l2-1-3-1q-4 0-3 3c0 4-5 4-6 0 0-5-7-4-7 0m67 1-1 2 11 1q11 1 10-2c0-2-1-2-11-2q-9-2-9 1m-400 7v7q-2 3 9 2h8v-3q0-4-2-4l-2-2h2l2-1q-1-3-4-1h-9l-2-1q-3-4-2 3m19 0q-1 1 3 3 8 3 6 0a2 2 0 1 1 4 0q1 4 3 1l4-2q5 0-5-2zm24 3-5 4q1 4 4 0h3a1 1 0 0 1 3 1l8 1q9 1 7-2-1-6 12-1l1-1q0-4-11-3h-8c0-2-10-1-14 1m55 1-1 2-3 2-1 1-1-1-2-2q-3 0-3-2h-1q0 3-3 2-9-1 5 3l10 4 1 1q2 4 3 0c1-2 9-2 12 0q3 4 4 0-3-3-13-5-5 0-4-2-2-4 7-3 14-2-2-2-11 0-8 2m235 0v1q1 1-9 1h-10v7a10 10 0 0 1-2 9l2-1h3l2 2 3 2q0 3 3 2a2 2 0 1 0 1-3q-2-1 1-3 3-1 2-4-1-4 3-4l4 1 3 1q3 1 2-5 2-6-6-7zM0 426c0 48 1 67 1 43zm436-81-3 3q-8 2 5 2c9 0 10 0 13-4q3-2-7-2zm142 14q0 13 1 12l1-2 1-3q0-4-1-2h-1l1-2v-1l-1-1h2c1 0 2-8 0-12q-3-10-3 11m36-11-11 1q-16 1-3 3l5 1v16h-4l-4 1h14q2-1-1-1h-3v-9q0-12 2-9c2 1 11-1 9-2q-2-1 2-1 3 0 3 2c-1 1 4 2 6 1a1 1 0 1 1 1 1l-1 6q2 7-1 4l-4-1-2 1q0 3 4 2l4 1h-9q-2 0 1-5 2-8-1-8h-6c-3 1-3 1-3 9l1 9v7q1 6-3 5-4 1-3-2 0-8-2-2v4h-6q-6 0-5-2l-1-1-1 12v11h13l-6-1h-5v-17l5-1h5v8q0 9 2 8 1 3 1-8c0-8 0-8 3-8q4 0 1 14v3l12 1 13 1c2 1 2-3 2-35 0-18 0-17-1-16l-1-1-6-1h-6l6-1h7q1 2 0 0c0-3-21-3-23 0m56 1-11 1-10-1v45l-3 1-4 1q-2-1-2 1-1 1 2 1 4-2 3 2l-1 4-1 10v11l1-10 1-10v7q0 9 2 8l1-7q0-10-1-2-1 6-1-5 0-12 2-10 2 0 2 3v4h5l5-1-4-1q-6 1-5-3v-3h24l-1 6q1 9-3 7-7 0 1 2h7l-1-2-1-1-1-6 1-6h3q4 0 2-1l-17-1h-14l1-1 1-1 2-2 1-1-2-1-3-1q-2-2 4-2l6-1-4-1q-8 2-7-6v-5h12l-6-1h-5v-18h5q6-1 5 3l1 15c0 13 1 18 1 7v-7l4 1c4 1 4 2 2 11l1 5v3q-1 3 2 0 4-3 4 1l1 1 1-9q0-14 2-16l1-8 2-9q1-4-6-3-6 0-7 2m-182 3-4 1-5-1v8q0 13 4 12l1-2q-1-5 2-1v4q3-1 1-6v-8q2-12 4-1 0 7 2 4h2q4 3-2 4-4-1-3 3 0 4 4 4h4v-6q0-12 3-12l1-2-1-2-2 2a3 3 0 0 1-6 0q-1 2-2 0zm178 0c-2 0-2 1-2 11q-1 9 3 7 2 0 2-10v-9zm-209 1c-3 2 1 8 4 6q3-3-1-3l-3-1c0-5 9-1 10 3q1 4 2 2 2-2 1-4l2-1 2-1c0-2-16-2-17-1m-388 7 2 5 3 4 3 2q3 2 3-6l-1-6-4-1q-5-1-6 2m16 6q0 9 2 6 3-3 4-1l2 1 4 1-3 1q-8 0 0 2 7 2 6-6c0-7 0-7 15-7q17 0 12-3H85zm83-4v3h11l13-1c1-1 27 0 27 2l1 2q3 3 3-2l-1-4v3q0 5-3 0c0-2-1-3-13-3l-14 1c-2 2-23 1-23 0 0-3 2-3 29-2l25-1-27-1h-28zm61 3q0 8 2 8 5 2 1 0-4-3 4-1h2l-3-2q-2 0-1-2l-1-1a1 1 0 1 1 0-2l6-1-1-1h-3l2-1q7-2-3-3h-5zm133 2 14 18c9 14 11 16 11 14 0-3-24-34-27-36q-2-1 2 4m-194 1-1 23v22l3 1q7 3 7 1l-3-1-3-1 3-1 4-1-4-1-5-1 4-1 5 1v-25l-4 1q-6 1-5-3l1-3 4-1h3l-1 1q-1 1 1 1l2 1 3 1q3 0 0-1-5-2 3-2 6 0 5 2v2h2q3 3-1 2l-4-2h-2c-3 2-2 7 1 7l3 2v1l-2-1-3-1c-2 0-2 18 1 18v1q-4 1 0 6 3 3 14 5l3 1v-11h-6c-6 0-6 0-5-10v-8h6q7 0 5-1 0-3-3-1l-5-1q-3-2 4-2 5 1 4-2 0-3 2-3v1q-2 1 1 1 3-1 2 4v3h8q12 0 6-4l-3-4-1-3h-26v-11c0-2-1-2-12-2zm5 2q-4 0-4 5 1 4 6 1 2-3 6-1l-1 2v1l3-3c1-2-6-3-7-2h-3q-3-2 4-2 8 0 7 2v5q2 0 1-2l1-1h1q-2-2 1-2 1 1 1-1 1-3-6-2zm452 0q0 2-2 2-2-2-2 1l1 2 1 1-2-1h-5q-3 2 0 3l2 1h-1q-3 0-1 2l-1 2h-2l2 1 1 3a2 2 0 1 0 4-1l-1 1h-1v-3l2-3a1 1 0 1 1 1 0h4l3-1v-4q1-4-1-6zm-47 11v9l1 5 1 3v-19l-1-1v-2zm-350-1 1 6 2 2 1 2q0 3 5 2h5v-4c0-5 0-5-5-8l-7-3-1-1zm402 1-5 2h-3v11h4q4 1 3-3-1-8 2-8 3 1 5-1h-2l-2-1 2-1 1-1q-2-3-5 2m-512 1q-4 1 1 2 3 0 1-1t1-1l2 2q-1 3 3 3 6 3 3-2l-1-3zm514 6-1 2c0 5-6 8-10 5h-1q0 2 5 2l5 1 2 1v-2q-1-3 1-5l1 1 1 2v-3q0-6-3-4m-365 15q0 8 2 6 5-1 3-2v-9q-5-3-5 5m312 0q0 5-4 4-3 0-2 1l3 1q4 0 3 5c0 26 0 26 2 26q3 0 1-1l-1-21-1-19zm60 6c0 8-2 17-2 10 0-3-9-4-9-1l2 2 3 1-2 1-2 1h6l5-1v-10l2-11q-3-4-3 8m-402-6q-8 2-4 10 3 5 1 5l-2 4q-1 5 4 4h5v-11c1-13 1-13-4-12m368 0-7 1h-6l7 1 5 1v4q0 4 1 3 2 0 2-4-1-5 3-4 3-1 2 5v5l12-1h13v-10l-4-1zm-387 4v4h-6l-5 1-1 4q0 7 6 4 2-2 2 1l-1 1h-2q-1 1 2 1l5 1 2 1q3 2 3-15 0-9-2-7-4 0-3 4m292 6v4h4q5 0 3-1l-1-4q1-4-3-3-4-1-3 4m94 4v13q3 4 3-8-1-10-3-5m7 6v7h9q15 0 4-1l-4-2 13 1 2-1-11-1-12-1 3-1q7 0 7-6 1-3-5-2h-6zm-429-4q0 2 5 2 4 2-1 2h-3l2 1 3 2 1 1 1-2q0-2 4-2 7 0 0-1l-3-1c0-2-8-3-9-2m17 11q-2 9 1 8 3 1 2-5-1-11-3-3m19 3-1 7h-5q-5 0-5 3v3h15v-9q1-12-2-10-2-1-2 6m393-1h-9q-8-1-4 2l5 1h2q4-3 7 1h1v-2c-3-2 3-1 7 1q4 3 5 1 2-4-4-4zm-310 1 4 1 5 1q2 1-4 1l-6 1-2 1q-2-2-3 6v5h17v-17h-5zm-69 2v5q-1 5 4 4h4l-4 1-4 1h9v-12h-4zm324 3q-20 1 1 2l10-1c0-1-1-2-11-1m-157 16-3 1a2 2 0 0 0-2 4l1-1a3 3 0 0 1 5 0l5 1q7 1 6-2 0-2-3-2l-4-1-2-2q-3 0-3 2m193 15h-9l-10 1q-3 3 5 2 17 0 18 3 1 2 4 1 3-2-4-6zm-33 1 3 1h-10l-3 2h5l-4 3c-6 5-7 5-17 6-20 0-27 6-9 6q16 1 19 6l2 3 23 1 1-9v-8l-7 1c-10 0-11 1-11 3q1 4-2 0-4-4 1-4l2-1c0-2 9-7 12-7l3-1q-1-3-6-3t-2 1m-110 6 5 4q6 3 8 1l-1-2-2-2q0-2-7-2-8 0-3 1m-181 2-14 1-7 1-4 1 1 1q5-1 5 2t2 1c3-3 51-6 56-4q2 2 2-1c-1-3-18-4-41-2m319 2-11 1h-6v16h7q7 1 7-2 4-10 15-5 7 4 6 2l3-2q4-1-2-5-6-3 0-3l3-1c-1-1-12-2-22-1" mask="url(#16282281824-posters-1717107730223-horizontal-mask)" itemprop="light" fill-opacity="0.90" fill-rule="evenodd" stroke="none" fill="url(#16282281824-posters-1717107730223-vertical-light)"></path><!----><path id="16282281824-posters-1717107730223-regular" d="M37 128q-1 3 1 3l-1 1h-4l-2 1 18 1 9 1v-4q1-5-2-4-6 1-1 2 3 0 1 1-3 1-1 2 1 1-2 1-4 0-3-4 3-2-4-2l-7-1q-2 0-2 2m-5 8q-3 1 2 1l4 1h-4l-4 1 2 1h5q4 1-2 1-10 1 0 2 5 0 3 1-3 0-2 2l-1 1-2-1q0-3-3-1c-1 1-3 21-3 32 0 12-1 12-6 12l-6-2-8-2-7-1v24c0 23 0 24 2 24l2-1 1-2 1-14 1-14 5-1 8-2 5 1 6 1 5 1-1 32-8 1q-8 0-9 2l-3 1-6 2-6 1q-4-2-3 3 0 6 2 5l4 1 11 2 7 1v-5q1-5-2-7-4-6 5-4l6-1v7q0 3-2 2-5-1 1 2 2 2 2-1l5-1q5 0 5 4l-1 2-3 1q-3 1 1 1l6 2 3 2v1h-7l-11-1q-6-2-4 1 1 2-2 2l11 1 13 1q3 4-2 6-8 0 1 2 7 0 6 3l2 2q3-1 2 9 0 9 2 8l4 3 5 2h4l-1 7-1 8c-2 3-1 3 11 3q3 0 3 3 0 4 4 3 7 0 3-2l-2-2c1-2 7-1 7 1l3 1 8 2q7 4 8 2h8l10 1 10 1 8-1 8-2h16v3q-3 3 5 2h9q5 1-5 1h-13c-5-2-31-2-31 0l-1 9v7h-14l-14 1q-2 1 4 2 4 0 1 2h-12q-21-1-22 4h-2l-7-4q-11-4 2-2 8 0 8 2-1 1 1 1l2-2q-2-2 9-2l12-2 1-1h-5c-4 2-13 1-12 0q0-3-1-1-1 3-8 2h-5l-1-4q1-6-3-5t-3 5v4h-5l-7 1c-3 3-3 4-4-9l-1-8v-2a10 10 0 0 0 1-9v2l-1 1c-1 0-3 9-3 18q-2 6 1 5 2 0 2 2v3q2 1-6 1-7 1-6-2 1-1-2-2H22q-1 1 2 1l4 1H12q-13-1-4-2 5-1 2-2l-5-1H0v171h70c39 0 69 0 68-1l-2-1h19l13 2q9 1-5-3-15-3-3-2l18 2 12 2 31 1h31l-1-4q-1-5 2-4 9 5 31 2 12 0 12 4c0 2 1 2 12 2h11v-9l1-8v17h45c50 0 46 1 39-8l-4-5c1-1 6 5 10 9l2 4h272v-90l-1-90-44-1-45-1q0-4 6-5l3-1q-1-1 1-1 3 0 2 2l2 1q4 1 2-2-3-2-1-6c0-2 17-3 17-1-1 2-7 3-8 2q-4-3-5 2-2 6 1 5l2 2 4 1q5 1 4-2l1-3v3q-1 3 2 2c2-1 3-15 1-16h13l3 1v-21h2l14-1h6q-2-2 9-2l9-1v-9h-5l-6-1 5-1 5-1v-46l1-24v-24l-1 22c0 21-1 23-2 25h-4l-11-1h-10v6h-19v42h6q12 0 12 3 6 4-6 2h-7l3 2h9l2 1 1 1q1 2-6 2l-9 2-4 1-6-2-8-1-6-1-3-1q0-2-9-1-14 1-11-5l-1-3q-1-1-1 2 1 3-2 3v-2q0-4-3 0h-1q1-3-2-1-3 1-5-5l-1-1-1-1c0-4 16-3 17 1l2 2q11-1 12 2-1 3 8 2l7 1q0 3-3 2-4 0-3 2l1 1h2l4 1h1q0-3 5-1l-2 1-2 1 10-1q7-2 1-4l-3-2q-1-3-3 0c-2 3-3-1-3-25l-1-25-8-1c-10 0-10 0-9 6l-1 1h-1q1-2-9-1h-29l-15-1-11-1h-8l-17-1-20-1h-1q-4 2-6 0v-2q0-2-4-2h-4v-13l-1 6q-3 10 5 9 7 1-1 2l-4 1h8v21h11l1 2q-1 1 6 3 16 2-6 2l-13 1h13l12 1q1 1-6 1-9 0-7 1l5 1q9-1 9 1h-1l-1 1h9l10 1c1 1-10 3-12 2h-7q-4 1-1 1l3 1-3 1q-3 0 0 1l3 1-1 1-6-2q-6-1-3-3t-5-1l-2-2q1-2-5-2-4 0-3 1l2 1v3q0 3-8 2-10-1-6 6v5q-2 0-1 2 0 3-2 2h-3c-2 1-6-4-5-5v-2q-2-1 1-2v-1q-3-2-1-2v-2q-2-2 1-3v-1q-4-1 0-2l1-1-2-1v-1q3-1 0-3v-1l2-1-2-1v-1l2-2-2-1v-1q4-1 0-2c-2-1-2-2-2 19l-1 20v3q1 6-3 7l-3 1h-1q-2-3 1-3 5-2 0-4-2 0-2-4 1-5 4-1 1 2 1-1l-1-4-2-2-3-1v-17l-1-19q-4-7-6-1 1 3-7 2h-8v13q0 16-2 12h-3c-2 1-8 1-10-1l-4-1q-2 1-2-1c-1-2-10-2-14-1h-2l1-1v-1l-2-1q-1-3 11-1 10 0 9-1v-1q2 0 2 3 0 5 10 2l3-1v-54l-1 9v9l-12-1-36-2q-3-1-7 2-2 1-2-1 0-4 5-3l34-1h3l-4-1-5-1c-2-1-31 1-38 2l-21 9-25 13 1-3q3 0 2-14l1-11-12-1-11 1 10 1 11 1h-11c-10 0-11 0-11 2l10 2c13 0 14 0 11 1q-4 1-1 1t1 1-1 2v1a1 1 0 1 0 0 1l1 1-2 1 1 1q3 1-8 1h-11l10 1q15 0 8 2-2 1 1 1v2l1 1c0 2-6 1-7 0l-2-2q-2-1 1-1 7-1-2-2-5 0-5 2l2 2 1 1-1 1-2 1 1 1a3 3 0 0 0 4-4c1 0 3 6 2 7l-3 1h-6l-3-4-1 9 2 11q0 3-1 0 0-3-4 0l-9 1h-6l6 1 8 1 1 1q1 5-1 2h-4q-6 1 0 2c4 0 4 6-1 7q-9 3 5 5l5 2a12 12 0 0 0 11 0l1 2c0 2-1 2-12 2q-23 0-1 2l12 1v5h-11l-13 1 12 1c12 0 13 0 13 2q-1 5-3 3-4-1 0-2l-10-1q-13 0-12 2l3 1 3 1c0 2-5 1-6-1l-8-1q-26 1-28-1l4-2q6-1 0-2-7-1 0-2h4l-4-1q-6-1 0-3 5-1-2-1-3-2 2-3 4-1 1-1l-4-1q-3-2 4-2 3-1-1-1-6-1-1-2l4-1-4-1q-3 0-2-1l3-1 3-1-3-1-3-1 3-1 3-1-3-1-3-1 3-1 3-1-3-1-3-1 3-1 3-1-3-1-3-1 3-1 3-1-3-1-3-1 3-1 3-1 4-1 3 1 5 1 5-1q-1-1 4-1 4 0 3 1l5 1q12 2 0 3l-6 1 6 1 7 1v-4q1-5-3-3l-4-1q0-2 6-2 2 1 2-9v-49h16l16-1c1-2 0-2-16-2h-16v-3l1-4 1-1-2-2q-4-1-3 3 1 3-2 3c-2 0-2 1-2 12 0 12 0 12 2 12q3-1 3 3h-8l1-2c3-2-3-6-9-6h-6v-21l1-21h-4c-18-1-19-1-19 4l-2 11-1-2q1-4-2-3c-3 0-3 0-4 18l-1 17-3 2q-1 3-20 0h-10l-4 2-7 1-5 1v-23l-3-1h-13l-9 1-1 8q0 10-2 10h-6l-6-1q-7 2-6-1 1-2-3-2l-6-1h-11l-4 1-19-1H89v-15H67v-3l-1-12-1-9h-4q-5 0-2 1h-7l-4-1h3l-3-1-7-1h19v-11q1-12-2-12v-1q2-1-4-1l-5-1h5l5-1-8-1-7-1h7l7-1c0-1-23-2-26-1m9 36 7 1 6 1h-5q-5 0-3 1l8 1q7-1 3-2-3-1 0-1h2l-9-1zM0 208l1 12zm30-20q-1 2 2 1v6l11 1 3-1h2l10 1 1-2q2-1-4-1l-6-1 5-1q7 2 6-1c0-2-1-2-13-2zm315 10-1 1h-9v7q0 21-1 16c-2-4-4 4-2 10q2 5 2-2v-5c1 0 2 8 1 11l-1 2 5-3 6-3 1-35zm11 3v14l1 12 3-1 4-2c2-1 2-2 2-13v-12h-4q-5 0-6 2m15 4-1 10 1 7c3 1 3 0 3-11 1-10 1-11-1-11q-3 0-2 5m-361-1c0 3-1 3 10 3l12-1-11-1q-19 0 1-2l10-1H21c-9 0-10 0-11 2m305 2 11 1zh-11l9 1h13q3-4-11-3h-10zM10 216l-1 10 2 4 3 3 2-2q0-4 9-3h7v-14l-7-1H12l10-1q21-2-1-3H10zm305-5q19 1-1 1l-10 1h2l1 1-2 1 10 1q16 0 4-1l-8-1h7q9 1 8-2c0-2-1-2-11-2h-11zm-40 10v16q1 7-2 7l-3 2h-7q-2 0-2 2-2 3-5 1t-3 1c0 2 1 3 22 3 19 0 21 0 21-2l-5-1-5-1q0-2-2-2-4-2-6-5v-1q-3-1-1-6v-3a4 4 0 0 0 2-8q0-4-1-2v1l-1 1v-10q3 1 1-2-4-5-3 9m181-8 1 10q3 21 3 1v-13h-2q-4 0-2 2m6 2v23l1-13q0-18-1-10m-407 1q0 6 4 5 6 1-1 2-5 0 1 1 8 2 7-4 0-4-4-4l-4-1q-1-3-3 1m40-1q-4 1-3 6l1 5q1 1-4 1-5-1-5 2l2 1 2 1q0 2 3 1l3 1-2 1q-4 1-4-1-4-3-6 2l-2 4v-3l1-3 1-1q1-3-3-1c-4 1-4 10-1 10a5 5 0 0 1-2 10l-1 4q-5 6 1 5 4 1 3-4t1-5l1 15q0 16 1 13l1-14c0-14 0-14 3-14l1 12q-1 17 2 12l2-1-3 3q-4 3-4 6t2 0l7-4 4 1h4v-14q0-13 2-14l1 11c0 10 1 11 3 11s2 0 2-11l1-11c2 0 2 12 1 19l-1 5h6v-24h8l7 1-1 9-1 10v3l-2 2-1-12v-12h-7v13l-1 12-2 1 9 1c14 0 17 1 18 2q2 3 3-1l-2-2c-2 0-1-5 1-6q2-1 1 2t3 2q3 1 3-2l2-2 1-1-5-1c-9 1-9 0-9-4q0-5-1-3h-2l2-2 2-3q1-4-2-2h-2l2-2 3-4q0-4 3-3 3 0 2-2l-1-2-2-2h-2l1-12 1 3 1 3 1-2q1-5 2 2 0 5 4 4l3 1-4 1q-7 1 2 3l5-1v-3q3-2-1-2-2 0-1-2 1-3-2-3-2 0-2-7 2-10-5-7h-20q-7 1-7-1l16-1c15 0 17 0 15-2-1-2-36-2-37-1a27 27 0 0 0 1 17q2 4-3 3-3 1-2-3v-2h-6l-6 1v-6q1-7-3-6h-3l16-2h2l-6-1-6-1zm123 2 1 2q-1 4-3 2h-2q-3 3 2 3 4-1 4 2a2 2 0 0 0 4 1q0-2 3-2l3 1 2 3q4 3 1 4c-2 1-2 14 0 14v1c-3 0-3 21 0 21v2l-1 1 2 1-1 1-2 1 2 1v1q-4 4 2 4h2v-27l3 1 3 1 4 1 3 1-3 1-3 1q-1 1 2 1t3 2l-3 1-3 1 1 1v1q-1 3 3 3l2 1-3 1-3 1 3 1q6 1 0 2-7 2 1 3h5v-12c0-13-1-14-5-14h-3v-30h-6q-12 2-11-4 1-4-4-3zm-80 8q-2 3-3 0c-1-4-17-3-17 2l12 1c11 0 11 0 11-3l2-2 3-1h-3zm166 4q0 5 2 4 3 0 1-1l-2-1h2v-1l-2-1 2-1h1l-2-1q-2-1 1-1l4 2h3q0-2 3-2l-5-1h-8zm62-2-1 24-1 23 1 2 3 3 2 4c3 2 3 2 16 2l32 1-20 1-21 1 10 1h9l-6 1-7 1 8 1 12 2h1c0 2 6 5 9 5l1 2 3 2q3 1 1 2h-3l-2-2q-4-1-2 2v3h-27l19 1q9 1 9-2h3c0 2 8 3 9 1q1-3-2-4l-1-3-1-3q-4-2 0-1c2 0 6-5 5-6l-3-2-3-3q1-4-3-3-5 1-4-3c0-2 0-2-8-2l-8-1a18 18 0 0 0-14 1l-2-1v-1q3-1 2-4l1-1 1-1-5-1h-6v5q1 4-2 4l-1-8q2-44-1-44zm281 1a2 2 0 1 0 2 4h2l2 1 1-2v-2l1-1zm-577 3q-1 3-9 2-8 0-8 2 0 3-1 0-3-6-5 0c-1 4 1 5 14 5q12 0 10-1l1-4q1-6-2-4m285 1-1 23v23l2-47zm-5 3-2 1c-3-2-3 1-3 19v18l3 1 2 3q1 2 2-1c1-32 1-43-1-43zm321 13c0 20-1 23-2 26q-1 4 1 2l3-1q5-1 1-3c-2 0-2 0-2-19v-18zm7 7c0 17 0 20 2 20v-21l-1-19zM95 238l2 1q4 1 0 2v1l2 1-2 2v1l2 1-2 1-2 1c0 1 12 2 14 0v-1l-1-1 3-1q5 0 2 2t3 2q5-1 1-2t0-2l3-1h-3q-4-1 0-2l2-1-2-1q-4-1 0-2 1-1-5-1-8 0-6 2l-2 1q-5 0-1-3 2-1-3-1zm475 1-5 1-3 1v17l1 16 1-15c0-16 1-18 6-16 2 1 2 1 2 15 0 13 0 15 2 15l2-2 1-2 1-8v-7l1 7q1 16 2-5 0-12 2-13l1 11c0 15 0 16 1 14l1-9q0-14 4-14v1l2 1q2 0 2-3-2-5-8-3-4 3-4-1c0-2-8-3-12-1m-400 1h-4c-5 0-5 0-5 17 0 13 0 14-2 14q-3 1-1 2v3h4c-1-5 5-8 8-5 1 1 6 0 6-1l-1-2c-2 0-2-9 0-9l1 1-1 1v3q-2 3 16 3 18-1 13-4v-2l1-6 1-6h-4l-4-1-2-2-4-4 1-1h-5l-3 2c-2 2-2 2-2 12l-1 10q-6 1-4-5 0-4-2-5l-2-2h1l1-1-1-1v-2q4-3 0-3-3 0 0-1v-1q-2-1 1-2l1-1c-1-2-7-2-7-1m160 5q-4 0-4 8 0 11 4 11l1-1q-1-3 1-2 1 2 2-1l1-2v-7q1-5-1-5v-3zm237-1v32l1-16c0-16 0-18-1-16m-516 0c0 2 5 6 7 5q7-1 7 4l-1 2q-4 1 0 3l2 2a2 2 0 0 0 4 0q-1-1 1-3v-8c2-5 2-5-9-5zm83 9-2 17q0 9 2 7 3 0 1-1v-3c2-1 2-2 2-12v-11h2l3-1-3-1q-2 1-2-2 2-2-1-2-2-1-2 9m16-6 2 1 4 1-3 1q-6 1 0 2h3l-3 2-3 1h2l3 1-3 1q-3 0 1 1 7 2 0 3-4 0 0 1t-2 2l5 1a3 3 0 0 1 0 5 19 19 0 0 0 1-15l1-3v-5zm158 4-1 6v6h3c5 0 5 5-1 6l-4 2q-1 3 3 1 1-3 2 0l3 2q2 1 2-5v-5l1-8v-5l-3-1zm-217 2h3l-1 11c0 10 0 11 2 11 2 1 2 0 2-11v-12h-4q-5 0-2 1m-83 1-3 2c-4 0-6 4-3 4v6q-1-2 8-2 15 0 3-2l-5-1 6-1h7l-2-1-2-2q0-2-4-2a3 3 0 0 1-4-2zm541 20-3 1-4 1-4 1q-4-2-3 2 1 3-3 2-3 1-3-2l-2-1c-1 0-2 2-2 20 0 19 0 20 2 20l2-1 1-1-2-1-1-1 2-1q4-1 0-2-3-3-1-4 3 0 0-1-2-2 1-3l2-1-2-1q-3-1-1-2h3v-1l-2-2c-2 0-2-5 0-6v-5h3c2 0 2 1 2 14l1 14 2 1c1 1 1-1 1-19q0-9 2-10 3-3-1-3-3 0 0-1t3 2l1 2v3q-2 3 2 2 4 0 4 2l-3 1-4 1 4 1q3 0 3 2l-4 1q-8 1 0 1 4 0 4 2 1 3-2 2h-4q-5 1 1 1 9 2 2 3l-4 1 4 1q3 0 3 2h-5q-1-2-1 1t5 2l1 2-2 1q-3-3-4 0l2 1 3 1-4 1q-5 0-6-2-3-4-4 0l-4 1q-22 2 6 2c14 0 16 0 15-1l1-2 1 2 4 1q5 0 1-7l-1-5q1-1-1-1-3-1-1 3l1 4h-3q-3 1-1-2v-5l1-4v-1l-1-2 2-2 2-2 2-2q3-2 2 10 0 12 2 9 2-2 0 2v4q-2 1 1 1l2-1q0-2 4-2t4 2q1 3-2 2h-4q-2 1 4 1 3 0 2 2 0 3-4 2l-2 1q0 2 14 2 11 0 9 2l1-1 2-3h-14l1-2 1-24c0-20 0-24-1-23-3 4-10 4-10 0q-1-3-7-1-2 2-2-1 1-3-5-2a4 4 0 0 0-6 4l-1-3 1-3zM91 284l6 1 8 1 5-1h1l1-1q0-2-13-2-8 0-8 2m86 2 1 3h-5q-5 0-5 2l-5 1h-5v7l1 6q2-1 3-5l1-2 1 4q0 6 4 3 2-1 1-4-1-4 3-3h5q-2 1 1 3l2 2-1 7q1 7-2 5l-2 1v1l2 2 1 1 1-1c0-2 6-2 8-1v4q-2 1 4 1h4c0 1 5 2 6 1q4-4-6-5l-7-1 5-3 2-2q2-7 3 0t2 1q0-4 4-3l3 1h-3q-2 0-2 2-1 3 3 2c3-1 5 3 1 4v1q4 1 1 3-2 1 1 1 6 3 6-8l1-6 1 5q1 8 4 6l1-3 2-6 1-3 1 2-1 4c-2 1 7 2 12 1q8-3 6 5l1 6h4l4 1h-3l-5 3a78 78 0 0 1-40-3l-2-2h2l2-1q0-2-6 1l-4 2v7l1 8h8q12 1 9-6 0-4 2-2l6 3 5 3q1 2 3-1l6-4 9-4 12-4c3 0-5 5-9 5q-12 4-13 7 1 5 4 1h3a1 1 0 0 1 3 0q0 2 7 2h8v-3q0-4 10-1l4-1-2-2-2-1-8-1q-11 1-4-2 3-2 2-3-1-3 2-1h5l-3-1h-1v-2h-4l-7 1q-6-1-5-3h2c3 1 3-12 0-14-2-1-10 0-8 1q2 1-1 1-2 0-1-2v-2h4l4-1-1-2v-2l-1-2-1 2c0 2-5 3-5 1-1-2-6-3-6-1a5 5 0 0 1-8-1l-2-1-2-1-5-1q-4 1-2-2h4l-2-2q-4-1-3-3c1-3-5-5-10-3q-5 3-5-2 0-4-2-4h-4q-5-2-5 3a2 2 0 1 1-4 0q1-5-3-4-3-1-2 4m-102-1v2l4 1q2 3-1 1l-3 1q-1 1 3 1 2 0 2 3 2 6 3-1-3-10-8-8m-64 2H9v1c0 2-5 8-7 7-4 0-3 10 1 10q3 0 2 4-2 4 2 3l3 1-1 1H6l4 1 5-1 17 3 2 1-1 1-2 1c0 3 9 4 10 1q2-4 8-3 2 2 2-6 1-7-2-6l-3-2-4-3q-3-1-1-3l-1-2-2-2q-3-3-5-1l1 1v2l-1 3c-1 2-7 3-8 1l-4-4q-3-2-3-5-2-6-7-4m104 0-1 2-6 1q-10 1-1 2 5 1-1 1l-5-1-1-2-1 1v3l-1 1v3l2-2 6-1 10-1 7 1q5 4 7 0 1-5-8-5-6 0-4-1 1-3-3-2m207 12q0 11 2 8h1q2 3 3-1v-2l-2-4q0-7-3-7zm118-2v12l-3-1q-4 0-3-5-2-6-6-6l1 2q4 3 0 4-5 0-2 3v2q-2 1 5 1 6 0 7 2l1 2q2-1 2-4h4l-1-2-1-1 2-1 2-2 2-2q3-1-1-1-4 1-4-2-2-3-5-1m209 3-1 4v11l1 2 2 2c2 1 2 1 2-8q0-23-4-11m24-1-3 3v14c0 13 1 14 3 14l6-2q-1-3-4-1-1 3-2-1l1-2 2-2q1-4-1-3a1 1 0 0 1-1-2c2 0 1-11-1-11v-1l2-1h-1l-2-1 5-1q4 0 2-1-3 0-3-3v-2zm-558-1v3q-4 2 9 3 9 0 8-1l-2-2q2-3-9-4zm82 5-5 1h-3l10 1v-1h2c2 2 8 1 8 0q0-2-3-2l-6-1q-2 0-3 2m265 0q-4 4-1 4h4l1 1h1q1 1-1 1-3-1-1 3v3l-5-1-5 1v1c2 0 1 11-1 13q-4 5 4 6l2 1h-9q-5-4-7-3-2 2-2-1 0-2 5-2 5 1 4-2 0-3 2-3l1-2q0-2-8-2h-7v3q1 4-4 3-8 1-7-9l1-5h-5l-6 1q0 2 4 1l5 1q1 1-2 1h-5q-2 0-2 5l-1 6-5 2-3 2h6v4h3q2-2 3 2-1 1 3 1l4 1q-1 4 1 1h6c0-1 21-2 22 0q3 3-10 2a14 14 0 0 0-15 4l-2 2q-3 1 8 1 14 0 13-4 1-3 4 2 0 4 7 3h7l-7 1h-7a2 2 0 1 0-1 4h2v2l1 2h2a2 2 0 1 0 0-6c2-1 8 1 8 4q1 9 3 2t3-1l1 3q2 0 2-6v-3q2 0-1-1-4-1 2-1 9 1 5-4l-1-4q-1-3-7-1l-4 1q-4 1-2-3l1-4 9 1 10 2q2-2-3-3-7 0-7-2l3-1h3l-4-1-5-1q1-4 3-2h4l2 1q1 2 4 2h22l4 1q3 1 3-2-1-5-3-1l-2-1h-2l-1 1-11-1h-11v-7q1-7-3-6-9-1-3-6l-2-1q-3-1-2-4 2-4-3-4v1q3 6 0 7-6 1-4-5-1-6-8-1m35 0q1 3-1 2l-3 1 2 1 2 1h5v1h-1q1 3 3 1l1-1v3h6v4q1 4 2 1l2-2q3 1 4-2l-8-4-1-1 1-1a1 1 0 1 0 0-2l-2 1-8-1zm170 0-3 1q-4 0-4 2l4 1q6 1-1 2-6 1 0 3 8 1 0 2h-4v5q0 6 2 6 1 2 1-4-1-5 4-4 3 0 2-4l1-8-1-3zm-449 3h-12q-5-1-5 2h2l5 1 8 1q7 1 6-2l-1-3-3-1q-3 0 0 2m-65 1-3 2-1 1 3 1 5 1 2 2q3-3-1-5l-2-2q-1-5-3 0m455 0-2 1-1 2c0 2 6 6 7 5l-2-9zm-484 2q-26 3 1 4l12-1v-2zm361 1 3 1q1-1 3 2l2 2h2l1-2q1-5-7-5t-4 2m-102 1v1q3 1 1 3v1h-2v1q3 4 4 0 2-4 3-1l1 3 2-3q5-5-2-4l-6-1zm13 2a12 12 0 0 0 0 10q1 1 5-2l3-1 1-4v-4h-4zm11 2q0 3 2 3l3 1-3 1q-2 2-2 5h3l3 1q2 3 3-7l1-6-5-1q-6-1-5 3m-142 0 1 1 3 1c2 2 30 2 31 1 1-2 9-2 10-1q6 3 5-3c-1-2-50-1-50 1m412 0q-2 2 1 2 2 0 1 6 0 2 3 2 4 0 1-8-3-5-6-2m-542 3c1 1 2 2 12 2 11 0 12 0 12-2l-1-2h-11c-11 0-12 0-12 2m-63 8v7h3q4 0 3-2v-7q1-7-3-6l-3 1zm-71-3v3h7q8 0 6-1l-5-1H6q9-4 0-5H1zm276-3 11 2h3l3 2 2 2-4-1q-6-2-6 2 0 2-3 2-12 2-1 3l4 1 13 1c11 0 12 0 12-2l3-3c4-2 2-8-3-8q-3 0-3 2 0 3-4 4-6 2-5-1c0-2-4-5-4-4l-1-1q1-2-9-2zm-51 6v6h5l7-1v-2l-2-1h-2l-3-1q-3 1-3-2-1-8-2 1m96-3q-4 9 9 9l5 2q3 1 2-2l-2-1-2-2-9-9zm207 0c-1 1 0 10 1 10v-2q-1-3 3-2l10 2 25 4 3-1c0-1-7-6-9-5q-2 1-2-3 1-3-3-3l-4 1-1 1-3 1q-1 3-1-1 1-2-3-2-5-1-4 3-2 6-5 0c0-3-5-4-7-3m-502 2-3 1h3l6 1q6-3 5 8-1 8 1 7 3 0 1-1v-2c2 0 1-13-1-13q-7-2-12-1m240 1a8 8 0 0 0 11 7l-3-2q-3-2 1-3h4l-4-1zm75 1q2 4 9 7 4 2 4-1t-7-4l-5-2zm150 10v6c1 1 7 0 6-1v-5l-1-3v-1q2-1-2-1-4-1-3 5m27-2 2 3q2 1-3 1-7 0-3-1v-3q-6-3-6 9l-1 9q-2 2 2 3l4 1q2 1-6 1t-8-2h1q3 0 1-5h-3c0 2-5 3-5 1q0-2-4-2l-4 1-3 1q-5-1-4 4l-1 10q-1 6 3 6 9 5 7-7l1-10q1-2 1 3l-1 5q-1 1 1 1 5 1 2 2-2 0-2 4v3h9v-7q0-10 3-6l8 1q8 0 8 2h5v-1q4-3 0-5v-1q2-1 2-5l1-3 1 13v13l-6-1-5 1 9 1q9 0 7-1c-3-1-5-11-2-11q3 1 2-6 0-9 2-7l1 16q0 15 1 14c1-2 2-39 1-41l-4-1-4-3c-2-2-9-2-10 0m-238 2q1 2-3 2-6 2 0 3l17 6c-1 2 3 2 3 0 1-2 8-2 12 1a3 3 0 1 0 2-4l-8-2q-4-3-5-1-2 3-2-2 0-3 8-2 7 1 6-2l-9-1c-9 0-9 1-9 3q0 3-1 1h-7q-1 2-1-1l-1-2q-2-1-2 1m276-1v7-1l3-3 1 3q-2 5-4 3l-1 10q0 12 1 9 2-2 1-9 0-8 2-7 3 1 2-6 1-9-2-7zm-367 1-1 1q1 6-3 5h-3l3 1q7 1-8 1l-8 1c-1 1 32 2 33 1q0-2-6-2-4 1-4-7 1-3-2-3t-1 1M0 427c0 47 1 66 1 42zm577-51c1 28 0 34-2 31h-2q-3 0-2-2l-2-2q-3 0-2 1 0 2-5 3-9 1 0 2 5 1 6-2c1-4 2 1 1 6q0 4 1 3l1-2v-3q-1-4 3-2c4 1 4 2 4 16 0 15 0 16 4 16h3l-2-2q-4-5 2-5l3-1-2-1-2-2v-4q0-4 2-3h1q2-4-1-3l-2-1-1-2q0-2 2-2l3-1-3-1q-3 1-3-4-1-5 3-4 3 0 0-1-4-3 0-2l3-1-2-1-5-1 1-1q3 1 2-7c-1-8-1-8 2-8q3 0 0-1-4 0-3-4c2-27 1-33-4-33-2 0-2 1-2 31m37-30q-1 3-11 2-12 0-10 2l1 2h10v16h-4c-6 1-6 6 0 6q5-1 4 4v3h-5q-5 1-5-2-1-4-2 0c-2 3-1 26 0 27h11v4q0 4-3 3-4 1 1 3 3 0 2 4 0 4-1 1l-3-2-2 1 2 2q1 3 3 2l1 4v4h-4q-10 1-3 4h9a6 6 0 0 1 9 2q4 1 2-1c-3-2 1-3 4-2 4 2 13 3 13 2l-3-2-2-1 3-1q7 1 1-2l-2-2h3q3 2 2-1 2-4-6-3h-7v-5q0-6 3-5 4-1 3 5-1 5 3 4l5-1h2c2 0 2 0 2-9v-11l1-1 1 11 1 11q1 2 1-1t2-2v2q-2 4 1 4 3 1 1-4l1-4 2 7 1 3v-6l1-7q3-2 2 7l1 8 1-8 1-7q3-1 2 9l1 9 1-7 1-8q3 1 1-5 0-6 2-5 2-1 2 5-2 6 2 5 3 0 3-2h1l2 2q3 1 2-4t2-4h3l-2-1q-2 0-2-4 0-6 3-3l-1 1a1 1 0 1 0 1 2l1-2q0-3-2-3c-1 0-1-5 1-6q1-1-1-2l-3-1v-10l2-10q1-2 1 1l1 2 1-3-1-3q-3 1-1-2l2-10q1-12-2-10-9-2-11 1c0 2-30 2-32 0-1-2-22-4-24-2m-6 7 1 2v2c-2 0-1 11 0 11q3 1 2-8l-1-8zm15 3q0 5 3 4l1 1 1-4q1-6-2-5-3-1-3 4m18-1v14h3l3 1v-18h-3q-5-1-3 3m24-1 1 3v4l-1 4 1 4q2 0 2-8l-1-9zm-596 6q-2 5 1 7l5 3q6 5 6-6l1-6h-7q-6-1-6 2m15 5q-1 12 7 11 4 0 2 1-5 1 1 2l5 1q3 2 2-7 0-11 5-9h22v16h-4l-5-1-1-1-1 1-1 2-1 2q0 3 3 2l4 2 5 1q5 0 3-2v-11l-1-14-2-3H84zm84-6-1 4v3h13l12-1 13-1h13v2q0 4 5 4l1-5v-6zm60 7v7l7 3c7 4 7 4 8-4q1-15-9-13h-6zm61-6-1 8v8l4 1a4 4 0 0 0 6-1l1-2-1-2-2-2-2-3-3-2-2-2h2q5 0 3 1l1 1q3-4-1-5zm69 3c3 3 7 7 16 20q10 15 13 16l1 17 1 16c2 0 2-3 1-17 0-22 0-20-1-18s0 3-13-14a61 61 0 0 0-19-22q-8-3 1 2m294 2v4h8v-8h-8zm-549 2q0 7 5 7 5 1 4-3 1-4-2-3l-3-1zm69 1h-5v7l-1 38 3 2 2 2q1 3 7 3l1-20 1-17 1 16 1 17q3 1 1 2-5 2 3 8 5 4 5 0-1-4 6-3h6v-6q3-9-6-7h-5v-16h12v7l1 6 1-8 1-5 19-1 18-1q-2 0-2-5v-5l-6-3-7-4-1 6q0 8 2 8 3 1 1 2h-3q-4 3-4-4t-1-5h-4l-14-1h-13v-6c0-9 1-9-20-7m95 6q0 8 2 6 4 1 4-8 1-5-3-4-3-1-3 6m372 2v6h8v-4q1-5-3-4l-4-1h3l4-1-4-1-4-1zm-421 0q-1 5 3 4 5 1 1-6t-4 2m350-4-1 15c0 14 0 14 2 14q4-1 2-2c-3-1-3-17-1-17q3 0 2-2l-1-5q1-6-3-3m83 3v7h5q5 0 4-3 1-4-4-4zm-546 3q-2 2 1 4 5 3 6-3 0-6-7-1m183 2q-2 6 4 4 7-2 0-5l-4-2zm321 4-1 9q0 9 1 7l2-17zm14 4q0 7 2 6 4 1 3-5 1-8-3-6-2-1-2 5m18-4q-1 2 3 3l1 1q0 2-2 1t-2 3 3 3q2 0 3-6t-3-5zm-47 8v8h9v-8l1-8h-9zm-84 8-1 12v5h10v-11q0-12-2-11c-8-1-7-1-7 5m-29-2q0 3 1 2c1-5 7-5 6 0q1 8-3 5-6-1-4 5l1 4v-4q-1-4 3-3 4-1 3 5 1 5-3 4l-4 1 5 1h5l-1-11v-12h-5q-5-1-4 3m14-2q3 3-1 4-2 0-2 4t2 3h2l-2 2c-4 1-3 8 1 8h3l-1-11c0-10 0-11-2-11zm157-1q-2 7 4 6c5 0 6-5 0-6zm-347 8c-9 8-9 8 0 17l7 7v-31zm-45-5q-1 8 3 11 3 1 2-6-2-9-5-5m6 5v6h7v-5q1-8-5-7-2-1-2 6m56-2-1 14 1 10 7-7 7-6-7-8-7-7zm-105 5v4h-6q-5 0-4-1l-1-1c-1 0-2 13-1 14l6 1 6 1v7c0 9 0 9-8 9q-4 0-1-1a10 10 0 0 0-2-15h-1l-4 2q-3-1-3 7-1 8 2 6 3 0 3-4 1-4 2-1v5l1 3v1l-1 7 1-1q0-2 8-2h9v-42q2-4-3-3-4-1-3 4m13-2 1 5 2 4q2 3-1 6-4 6 0 8l1 1h-4v1c2 0 2 13 1 17-1 2 10 2 11 0l1-23v-21h-7q-8 0-5 2m424 2c-3 1-3 8 0 8l1-2 1-4q1-2 1 2 1 8 3 0 0-6-6-4m-46 11v5c-2 4-1 10 1 10l1-3v-8q0-9-2-4m-355 0q-1 3 2 5l7 1q6 0 8-2l1-3zm282 0v25-4l1-3v-3q0-4 2-4v-1q-2-1-2-5 0-3 2-3l3-1h-1l-4-1zm-25 5-12 1-11 1 14-1c16 0 28-2 17-2zm-215 19v8h17v-7c1-10 1-10-8-10h-9zm270-6-1 2q-17-1-18 2-2 2 10 2h11v-4l-1-3zm-312 8q-1 5 5 4h7l1-1-1-2q1-4-3-3l-6-1q-4-1-3 3m-23 7-1 6v5h4q4 0 1-1c-4-1-4-8 0-8q5-2 5 4v5l1-5 1-6zm168 4-3 1q-3 0-3 2c1 2 19 3 19 1q1-4-3-3l-3-1c-1-2-6-2-7 0m151-1q-3 1-2 5 4 4-5 3-7 0-6 3a2 2 0 1 0 3 1h1l4 1 3 1a2 2 0 1 0 1-3h-1c1-2 6-2 6-1q1 2 2-3 3-10-6-7m32 1-1 1q-1-1-1 1h5q3 1 1 3-4 3 2 4v-5q1-7-3-6-3 0-3 2m12 0c-2 4-1 9 2 7h3l-1-1-1-2 1-1q1 1 1-2-2-5-5-1m-35 5q0 6 2 5 4 0 1-2-3-3 3-4 4 1 3-2 1-4-4-3h-5zm-36 3q-10 0-8 2-1 3 5 3a4 4 0 0 0 5-2l1 1q0 2 3 2 4 0 3-4v-3zm-129 2c-1 2 0 9 2 9q4 1 2-5-1-6-4-4m-176 7v5l2-4q5-9 12-2l3 3v-7h-17zm6-2q-2 2 2 3 3 0 3 3 2 5 4 0-2-7-9-6m352 0q-9 2 8 4 13 0 13 2l3 2q4-1-1-6l-3-2zm-23 1q-5 3-1 3 3 0-4 5c-4 3-5 3-14 3-9 1-19 3-21 5-1 2 6 4 8 3h7l4 1q9 0 13 5 0 5 15 4c10-1 10-1 10-7v-5l1 5 1 6h6q9 0 7-2c2-6 11-10 14-6l2 1 3 1q1 3 3 0l4-2q3-1-2-5-6-3-2-3 5 0 3-1-4-3-36-1l-20 1c-1-2 8-8 12-8q3 1 2-2l-1-2zm-333 4-1 2q-3 3-1 5l2-2h2q5 4 8 1l-1-1-2-2-3-3-2-1q-1-2-2 1m217 1 6 1c7 1 8 1 11 4l7 3q3 0 1 1-1 3 1 4c2 0 1-8-1-9l-1-2c0-2-20-3-24-2m-166 2-14 2q-20 2-11 3l4 1v10q3 19 2 2c-1-13-2-12 32-14h24q6 4 1-2c-2-2-37-3-38-2m146 2-8 5-7 4c-3 0-9 3-9 5s5 1 7-2q0-2 3-2 6 1 6-2-1-2 10-6 4-2 6 1t3-1q3-4-4-3zm22 1q3 4 3 1t3-1v3q-3 4 8 1 2-2-4-5-10-2-10 1m44 11c-10 0-11 1-11 3v2h8l9-2 7-1 6-1c1-2 1-2-19-1" mask="url(#16282281824-posters-1717107730223-radial-mask)" itemprop="regular" fill-opacity="0.90" fill-rule="evenodd" stroke="none" fill="url(#16282281824-posters-1717107730223-horizontal-regular)"></path><!----><path id="16282281824-posters-1717107730223-medium" d="m254 172-2 10q-1 3-2-1 1-3-2-3h-3v75h3c4 0 5 2 4 15 0 12 0 12-6 12q-6-1-3-4v-8q-2-5 4-5 2-1-1-1l-3-1q0-2 3-2t0-1l-3-2-3-1h-3v26h-3q-4 0-3-2l-1-3v-16l1-13v-13h-3q-9 3-7 0v-2q-2 3 0 6 3 2-1 2l-2-1 2 2q4 4-4 5c-4-1-4-14 0-14q3 1 1-2v-1q2 1 2-4-1-2-3 1 0 3-2 3l-1 2-2 2-3-1q-3-2-2 6 0 6 1 3v-4h1v11l7-1h7v4l-1 5v10q0 5-6 6l-2 1h-3q-4-4 0-4l-1-1q-5-4 4-5 4 1 4-2l-6-1q-6 0-6 4 0 6-2 3h-3l-9 3q-5 3-2 5l2 1 3 2q5 2 0 4l-2 1h2q4-1 3 3 0 3 2 3 2 1 1-2h2l8 1q10 1 5 3a2 2 0 1 0 2 3l2-1q2 1 0 2c-2 1 2 6 4 6l3 2 1-2 1-3v3q0 3 2 3l1-4c1-2 7-3 9-2v1q-3-1-2 3c0 2 4 3 4 1q2-3 3-1h3l1 1q-1 3 4 1l6-2q3-1-1-1-7-1 1-3h4l-4-1q-6-2-1-3l4-1h-4l-3-1q0-2 3-2l4-1h-4q-6-2 1-3l4-1h-4q-5 1-4-3t3-4l3-1h-3q-3 0-3-2l2-1h2l-1-1q-6-1 0-2 7-2 1-2-7-1-1-2h4l-3-1q-7-2-1-3h4l-3-1q-7-2 0-3h4l-4-1q-12-2 14-2l18-1c1-2-2-2-18-2h-19v-3l1-34c0-27 0-31 2-32v-2q-3-1-1-8l-1-7zM67 195v29l-3 1-2 1h2c3 0 5 4 2 4v2q3 3 3-7a8 8 0 0 0 0-8c1-1 1-17-1-18v-1l1-1q-1-4-2-2m233 0 1 1h30l-6-1-16-1zm-3 23v29l1-21v-29zm44-18v17l-1 17 3-1c3-2 3-31 0-32zm16 13c-1 13 0 14 1 12l2-1q9-1 1-6l-2-1 2-1q-1-2 1-2l2 1v1q1 1 1-1 1-4-3-3-7-1 0-2h4l-4-1q-9-5 2-5 3-1-3-3h-4zm-53 8q-1 2 11 2 19 0 4-2zm74 2q-12 1-8 3h3c1-2 15-3 28-3h8zm-19 5q-15 7-8 5l3-1q3-6 2 18v17h4q7-1 3-2-7-1-2-2 3 0 2-1-4-1-1-5l3-2h-3q-3 0-2-1l3-1h2l-3-1q-2 0-1-1l2-1 2-1-4-1q-4 0-1-1 4-1 0-2l1-1 4-2h-2l-2-1 2-1 2-1h-2l-2-1q-1-1 1-1l3-1-3-1-4-1 2-1q6 2 5-3l2-4q4-3-8 2m298 5v3h-18l-1 20c0 21 0 21 2 20l9 1q9-1 9 10-1 3 3 1 4 0 2 1a2 2 0 1 0 2 3q0-2 5-3l2-1q-1-2 6-2l5-1-6-1h-5v-4q0-7-1-4-3 3-2-1l1-21c0-16 1-20 2-20h3l1-2q2-2-9-2h-10zm-318 5-16 10 5-2 4-3 4-2c4-2 4-2 4 14 0 15 0 14-4 14q-4-1-1-1c2-1 2-2 2-13l-1-11v21h-4q-7-1-6-6l-1-1-3-2q0-3-1 0v14l1 6 1 7v2l-1 1h1l14 1-1 2q-4 3 0 3 2 2 3-3 3-6 2 1-1 8 1 5 3-3 3 2 0 4-3 2l-4-1-4-4-3-3-1-2-2 1-4 2q-4 0-1 1 3 0 3 2l3 4v-2q1-3 4-2l1 5v2l2 1q-1 2-6 1-3-2-1 1 6 8-3 8l-5-1-1-2v-2h1l3 2v-1c-3-3-7-10-4-8l1-4q0-4-1-1-1 2-1-12v-28l-1-8-1 1q-3 1-1 1v13l-1 6q1 8-3 6-3-1-2-3-1-2-3 1-2 2-3-3l-2-3-1 2q2 3-1 4l-2 4q1 4-3 3-3 0-3 2-1 3 6 2l6 1q2 4 8 2 4-2 4 3c0 2 0 2-12 2l-12 1h24v6h-12l-12 1h7q18 0 17 4l-2 4v2q3 2-7 1h-15l-10-1 9-1h11l-10-1-19-2q-5-1-4 3l1 2h-5q-5-2-6 1a8 8 0 0 0 1 8l-6 2-2 1 2 1 1 1 2 1c2-1 18 0 25 2q4 1 4-2 1-5-9-5-4-1 0-2 1-1-1-1-3 0-2 1l-2 1-3-2-3-2q-2 1-1-2l26-1h25v3q-1 6-7 2-2-3-4 0h-2q0-2-4 1-3 4-1 4l2 3 2 1 4-1 1-2q-1-2 4-2 6-1 5 3 0 4-2 5l-2 2q0 3-9 2l-8 1h8c8 0 8 0 8 3q1 3-5 0l-1 1 2 1 1 3 1 2q5-2 6 4 1 7-6 0c-2-2-10-3-10-1q-1 3-4 2l-1-1-10-5q-12-2-10-5 0-3 2-3a1 1 0 1 0 0-2h-4q-4-2-3 1l2 2 2 2q0 3-6 0-8-2-7 1l-1 4q-1 1 2 2h1l6 1q12 2-2 3-9 0-8-2-2-5-3-1-1 5-5 0-3-2-3 1h-5q-1 3-7 2h-7v9h6c8 0 9 1 9 13 0 9 0 8 6 9l3 1v-9c0-14-1-13 19-13h18l2-1q3 0 3-3t2-3q4 2 1 5v4q1 4-3 3-5-1 1 2l2 2c-1 1 4 6 6 6l2 1 2 2q3 5-2 1-1-2-9-2h-6l3 2 3 3c-1 2-6 4-7 3q-3 1-1 5 3 2-1 2l-2 1-2 1q-3 1-3 7 0 3 3 2 5 1-1 4c-3 2-3 19 0 19l1 1 1 1q4 1 1 4-2 3-3 1-2-1-3 3l-2 4-1-1 1-7 1-4h2q2-1-1-1c-2 0-2 0-2-11 0-10 0-11-2-11q-2-1-1 2 1 4-8 2h-7v-6c0-7 0-6 8-6l7 2q3 3 3 1l-16-9-23-13-9-4 6 4 8 4v5l1 4v-2c0-4 1-4 11 0q13 6 6 6h-2l-1 8v8h8l9 1v3q-1 8-12 9-5-1-5 2l1 2 1-1 5-1q4 0 4 2l2 3v2l-2 3q1 3-7 3-7 0 0 1c4 0 9 5 7 7q-4 2-13 1h-24q-2 1 4 1 8-2 5 7-1 11-3 0 1-5-3-4c-4 1-5 7 0 7q5 1-3 3-10 1-1 3 6 0 4 12-3 7-4 2h-1q-1 3-6 2h-5q-3 5-3-6-1-11 6-10l1-3-6 1h-5v-4l1-5q1-2 1 2-1 4 3 3l5 1q2 1 2-4l1-20 1-23 1-9-1-1q-2-1-2 11l-1 14v19h-7q-11 0-10 5l1 2h2v3l-2 2q0 2-3-1h-4l-4 1-3 2q-4-3-1-5l1 2q1 3 3-1l1-2h3q1 3 2-1l-1-2q-4-2 0-3l2-1-2-1c-3 0-7-5-5-7q1-2-1-2l-3-4q-1-6-17-13-5-2-5-4l-1-1-4-2q-2-3-3-2-6 0-7-4 0-3-3-4c-5-2-4-8 1-7l2-1q0-3-4-2-5 0-4 2 1 11-3 2 0-5-1-2-1 4-4-1 0-3-3-2c-3 1-7-3-5-4h-4l-6-1q0-2-3-2-4-1-3-6 3-5 5-2 0 2 3 2h4v-8c1-9 1-8-13-8-11 0-12 1-12 3q0 3 1 1t4-2l3 1c2 1 3 7 1 8q-6 1-8-3-1-3-1 3t-3 5h-6q-9-2-10-11l-1-4v5q0 7-2 4l-3-1-4-3-4-3-2-2q-1-3-6-2-4 2-5-1l-6-2q-3-1 7-1l12-1h7q7 0 6-5-2-6-32-5c-6 1-6 0-8-2q-2-3-2 0a2 2 0 1 1-4 0l-1-2h-4q-2-2-2 1 2 3-10 3l-10-1-5-1H0v166h52l53-1c4 2 15 1 17-1l3-3-2 3-2 2h4q4 0 4-3 2-6 5-7v1q-4 5 3 1l3-2h47q3 0 3 3c0 8-2 7 31 7h30v-4l-2-14c-1-11-2-12-6-11l-2-1c0-3 21-5 47-5 20 0 22 0 22 5v3l-2-2-1-2h-22c-23 1-31 2-33 4v10c0 10 0 10 12 11l10 1 5-1 3-1h-10l-2-1 3-1c6-2 15-2 14 0l1 2 1-1q-1-1 12-3l6 1q0 2-9 2l-7 1q-2 1 1 1 4 0 4 3v3h17v-3l1-5 1-2-2 2q1 2-10 2l-7 1 5-1 10-4 2-3 1-4 1-25v-28l1-6v-11l2-2c2 0 4-26 1-26l-2-1 1-1c3 0 3-22 1-24q-3-3-1-4v-5q0-8 3-5l1 7q-1 1 1 2l2 2-2 1c-1-1-1 0-1 13v13l7 8 7 9-8 8-7 7v65h36q-1-5 3-5 6 0 6 4-2 2 10 2l13 1 2-1q2-4 8-5 4 0 9-5 8-6 18-6l5-1c1-3 29-2 29 1l1 2c2 1 3 8 2 9q-1 1-3-2l-2-3-5-3-6-3h-3l3 1c3 1 9 5 8 7h-12l1-2q3-3-1-3-2 0-1 2 0 3-3-1c-4-3-11-3-12 1q-1 5-3 0c-2-2-9-1-10 2q-1 4-2 1l1-1 1-1-4 2-2 2q2 2-3 3l-5 2-5 2q-4 0-1 1l-9 1h-48c1-1-5-1-7 1l-3 1q-3 0-1-1l2-2q1-2-2-2l-3 1q-2-1-2 9v9h34l38-1h5l-1-4v-4l1 3 2 4 4 2q7 2 0-6-6-8-3-8l2 1 2-1q1-2 1 1l3 8 4 5h48l53-1c9-4 53-7 60-4q1 1-12 1l-47 3 51 1 52-1h1l33 1h32v-85l-1-90v-5h-12l-41-1c-38 0-39 0-34-5l2-4q-1-5 1-2 1 2 1-2 0-9 3-9c3 1 3-3 1-3q-4-3 0-6 2-1-2-2-3 0-3-2h5l4 1q6 0 1 4-4 5 0 3l2 1 1 3 1 5q-2 3 6 2l7-1q-1-2 7-2h8v-4l-1-5 2-2 1 6v6c1 0 1-14-1-18q0-2 2-2h2l3-1q3-1-1-1h-8q-2-1-2 2v2l-1-1q-1-3-3-2-3 2-1-1 1-3-9 0l-2-1-3-1h-1v-1l-1-1-2-1-5-1q-5 0-4 1 3 1 0 2-4 3-6 0 1-1-5-4l-5-3-4-1h-4v7l-1 24q0 22 2 16h5q5 0 3-2 0-3 2-1t-1 6l-3 2q1-2-11-2-11 0-11-2-5-3-6-1l1 1c2 0 9 5 9 6l-17-1q-6-2-6 3v6l-1 10c0 11 0 12-3 12q-4 0-4-21l1-10h3q5 0-1-1l-8-2q-6-2-2 3v4l2 1q2-2 2 10l1 11v2q-3 2 2 4 6 2 0 3-4-1-3 6 0 6-2 7l-1-1c1-5 3-5-33-5-34 1-36 0-34-3v-1q-11 5-12 3-1-1 2-2 7-1 3-2t1-3l3-3h2l5 1 6 4c1-1 2-14 1-15q-2-3-2 5-2 7-3 1t-2 0l-2 3-3-6a2 2 0 1 0-3 0l-3 3q-6 3-4-1l-1-1-4-2q-3 0-1 4l-1 5-12 1q0-3 6-2 4 1 3-2 0-6-3-4l-2-1 4-2 3-3c0-2 5-2 7-1l-1-2-1-4-3 3c-3 3-3 3-12 3q-13 0-6-3l2-3q-1-2 10-2 8 0 5-1h-16q-2-2-4 1-2 2-2-1 1-4-3-3l-3-1a1 1 0 0 0-3-1l-1 1q-2-1-2 1-3 2-4 0l1-2q6-6-5-3l-1-1 11-5 1-8v-8h5l6 1v6l1 7h9l-1-4q-1-1 7-1h8v-3q-1-4 6-4 7 1 4-3-2-8-4-2-1 1-1-2v-6q-2-2 1-3 4-2 0-3c-1 0-2-1-2-23 0-27 0-25-3-24q-2-1-3 7l-1 12-1 2-1-11c1-9 0-10-1-11q-4-1-5 8-2 15-2 1 1-9-2-8-3 0-3 19l1 5-7 1-8-1-8-1-6-2q-4-3-8 2l-5 3q-3 1-1 2l4 1 8 1 7-1v3q-1 4 4 3 4 0 4 3-1 4 8 4h6q1 3-5 3-8 0-5 5h7q6 2 8-1l3-2 3 2q-1 3 7 2 4 0 2 1l-4 2-2 1v2q-2 3 1 4t-3 1l-3 1 2 2 2 1h-12l-2 1q-1-2 3-2 6-2-1-3c-8-1-50 0-49 1l5 1q4-1 2 3-3 6-4 2-1-3-2-1l-1 5q0 3-4-2-4-3-1-3v-2q-1-1-3 1-4 4-5 0 1-4 4-3 2 2 2-10t2-10v-1q-2-1 4-1 8-1-2-1l-7-1q-1-2 10-2 16-1-2-1c-13 1-13 1-17-6l-4-4q-3 0 0-1 3-2 0-2-3-1-1-2 1-1-2-1c-4-1-4-2-4 6q0 11-2 5l-4-2-4-1c-2-1-1-40 0-42q4-3-7 3m-149-2q-1 2 2 3l2 2q0 3 3 1h2l1 1 1-4v-3l-6-1zm-180 2q-4 2 4 3 10 3 1 2H8l-4-2q-3-2-4 4 1 5 6 2 3-3 5-1 0 3-3 2l-1 1 8 1h7l1-4c3-6-6-11-13-8m167 9q0 9 2 8l1 5 1 5 1-6q1-7-2-6l-1-7-1-7zm424-4-1 13v9h10v-9l1-13v-4h-10zm-36 8-1 16q1 9-1 8l-1-15-1-12-1 2-1 12q1 16-2 9-2-4-5-5l-1 4v5h6l7 1c2 1 2 0 2-15q0-27-1-10m-430-4-1 16v13l1-3 1-15zm9 6v18l1-11q0-19-1-7m4-5v23c1 0 2-20 1-22zm439 2v18q2-1 2-9v-9q1-4-2 0M0 257l2 2q5 2 0 3l-2 2h10q7 0 4-1-8 0-9-3-2-3 1-1h2v-2l1 1a4 4 0 0 0 6 1l-1-1-2-1c-2-2-12-2-12 0m52 3q-3 9 2 9 3 1 2 3 0 3 2 2 3 0 2 3 0 4 2 2 3-1 0-3-2-1 1-2c3-3 9-1 9 3l-2 1h-2l5 2a24 24 0 0 1 13 18l1-7-1-6q-2 1-3-1l-1-2q-2-1-2-11v-10h-4q-3 1-3-2l-1-2-1 2q0 3-3 2l-4-2q-4-4-4 2 0 8-3 6-4-1-1-2t-1-4q-3-1-1-2v-3zm328 2 3 6q3 2 1 3v2h3c1-1-2-6-3-6l-2-1v-3q-3-2 7-2l8-1-8-1h-9zm155 5-1 2-3 2v5l-5-1-11-1 3 1c1 2-6 1-9-1q-7-2-3-3 2-1-1-1l-6-1q1-2-2-2-3-1-2 3 1 5-6 4v3q-3 1-5-2l-2-1q-4 1-1 7v3l-1 3c0 2-8 2-9 0q-3-4-4-1v15h3l3-1h1q4 2 3 0l-1-3v-1l-1-2h4a12 12 0 0 1-1 12q-1 3 2 2l3-1h3c3 2 8 2 7-1l-2-1q-2 0-1-1l2-1h10c0-2 4-1 4 1q1 2 3 1 9 0 10 7-1 6-4 4h-2q1 3 10 3c1 0 2-1 2-16 0-14 0-15-2-15q-3 1-1 2v2q-2 2-3-1c-1-3-6-4-6 0l-1 1c-2 0-1-5 2-6l2-2 1-3q1-3 1 1v4l1-4q1-6 3-7l1 3q0 4 2 1 2-4 5 0c0 3 4 3 4 0q0-3 2-3h5l1-1q0-3 2-1 5 2 6-5v-3h-7zm-391 9q-1 2 1 3l1 2q0 3 3 2 3 0 3 2c0 4-22 3-23-1q-2-3 6-1l6-1-17-2-3 4-2 3 2 1h4c7-3 14 0 8 4l-3 3-1 2v2l2 2c0 1 7 3 12 3q9 0 5 3l-2 1-2 1q-1 2-3 2-3-1-4 1c-2 2-23 2-27-1q-2-1 1-1 5 0 5-3h16l2 1h5q7-2-9-3c-11 0-21-4-20-6 0-3-8-4-9-2q-2 4-5 1l1-3q2-3 1-4-6-3 7-2l8-1 2-2q4 0 1-1-2-2 1-3h3l-2-1-3-3-3-1-3-1q-1-2-6-1l-1 3 1 3-7-1-7 1 11 1q17 0 12 3l-9 1c-8 0-8 0-8 2l1 3q2 5-5 9-8 4-3 10v2q-4 4 1 4 9-3 9-1c2 2 9 3 11 2h1c-1 2 5 5 8 5q8-3 7-1 0 3 4 2 5 0 3-1l-4-6c0-2 30 0 31 2q0 3 10 2 13 0 4-3-5-2-3-4h3l2 1h2c1 0 2-11 0-12 0-1-4 2-3 3q0 2-3 2l-3 4q0 3-3 2l-5 1h-4l-5-2q-4-1-2-3l3-2 3-2q3 1 2-5 0-7-1-3l-1 4v2h-3l-1-2-1 1q-1 4-2 1v-2l-1-3q-2-3 2-1 5 3 5-1l-2-2q-3 0-5-3l-3-2h5l16 3 2-2q0-2 5-2l5 1-1-4q1-8-9-2h-5l-2 2-1-4q2-7-6-3-6 2-7-3t-2 1m426-2q-3 2-1 3h5q1-1 1 1 1 6 4 0 1-5-4-4zm-270 7q0 2 3 2l4 1h3q5 2 5-1 0-4-6-2c-1 1-6 0-7-1q-2-2-2 1m333-1q0 3-4 2l-5 1q-1 1 3 1l4 1q0 2 2 1 7-3 4-4l-3-2zm-573 4q0 4 2 5l4 3c1 4 6 4 6 0q-1-5-8-4-2 1-3-3-1-6-1-1m-52 7q-4 5-6 5c-4 0-3 8 1 9q4 1 3 4-2 4 2 3l10 2h5c5 0 12 3 12 6q0 2 3 2 2 1 2-1 0-3 7-4l3-1v-5q1-5-2-5l-4-3q-2-3-8-3v-7l-2-1v1c2 3-1 10-4 9q-2-1-2 1-2 3-3-1l-11-11v-1q4 0 0-3-1-2-6 4m380 2q-3-1-2 7v7h10l10-1h3v-1q-1-4 2-3l2-1q0-2-2-1l-2-1-1-1-2-1-1-1-2-1c0-2-10-3-15-2m262 8v6q0 2-2 2v1q2 1 2 4-1 2 1 4 1 3 1-9c0-10-2-17-2-8m-576 3-1 6q-1 5 1 3h9l-2-2q-3-1-3-4 1-4-2-4v-1l-1-1zm593 0-4 1h-3l3 1 4 2-4 2-3 1h3q4 0 4 2l-3 1q-6 0-3 7l1 4v-5q-2-5 3-4h3v-14zm-171 8q0 8-6 1-3-3-2 0l-2-1q-1-3-4-1-6 3 1 5h4v12h6l7 1v-6q2-8 2-1 0 3 2 3 3 1 1-2a3 3 0 0 1 3-4l2 1 1 2v4q-4 1 0 2l2 1 2-1 2-2v3q-1 4 6 4 6 0 6 3l1 1q3-1-1-3v-5q1-5-2-4h-4q-2-1 2-1l4-1h13q7-3 6 3 0 3 1 0l2-2a2 2 0 1 0 1-4c0 1-3 2-18 1-19 0-24-1-25-6q0-5-1-1l-1 3-1-2-1-3q-2-2-2 1l-1 3-1-3q-1-6-2-1v4l-1-4q-2-7-2 0m-300 0q1 5-3 5l-3 1 8 1q10 0 9-2h-6q-4 3-3-4l-1-3zm141 5q-2 7 7 7 7 1 1-1l-3-3-2-1v-1l4 1q6 4-1-4t-6 2m12-3 2 6q3 2 1-1l-1-2-1-1 4 2q9 6 4-1v-2q4-1 1-2l-5-1-5-1zm46 4q0 9 5 5l3-2 3-1c0-2 4-3 4-1l-7 5q-6 3-6 5 1 3 6-1l6-2q4 0 2 1h3c3-1 3-1 3-8v-7h-22zm-74-1q0 5-1 3v1c1 2 1 10-1 9q-2 0-2 14c0 7 1 8 4 11 4 4 10 6 9 4q-2-3 1-1 5 3 2-2l-6-3q-5 1-5-6 0-6 2-5v-2q-4-5 1-3 5 0 0-3-3-2-1-2c2 0 8 4 8 6s5 4 6 3q3-1-2-3l-3-1h3q6-1 0-2l-5-1 3-1q7 0 2-3l-2-1q0-4-8-9l-5-4zm-99 2-1 2-2 2q-2 2 1 2 2 0 2 3 3 7 3-4c0-6-3-11-3-5m391 3q-1 2 1 3l2 3 4 1q5 1 4-3l1-5q2-2-5-2-8-1-7 3m-471 9-1 11q1 3-5 2h-5l4 1 6 2q2 2-30 1c-23 0-28 2-26 8 0 2 1 2 21 2h22l1 4q3 4 2 13v10l1-3 1-7q1-2 3 9 1 7 1 1l1-4q2 0 2-11l1-10 3-1 5-1h2l4 1q3-2 3 1l-1 1q-5 0-4 2h-1q-2-1-1 7l-1 7-1-8q0-7-1-6l-2 1q-2-2-2 9v8h2q3 0 3-2l1 1q2 6 6 3h2l1-1v-1l1-4q0-4-1-2h-2l1-1 1-2q1-5 2 1l1 5 1 1v1q3 0 1-5l1-6q4-4-2-5-5 0-2 2v1l-2 1-2 1 1-3 1-3q0-3 6-3l3-1 29-1 28 1v-4c0-6-2-6-15-6h-64v-14h25l24 1v-4q-1-5-7-5l-8 1q-4 0-3 1v3l-2-2c0-3-2-3-19-3h-14zm199-4 2 3c4 4 15 6 13 2-3-4-15-8-15-5m148 6-1 8q1 4-3 2a3 3 0 0 0-3 4h3l1-2 1 2 1 1 4-1 1-1 1 2q0 4 2 4l1-3v-3l1 1h1q3-4-3-3h-5v-7q-1-12-2-4m67 2v16c-1 14 0 16 1 15 2-2 3-9 2-13q-1-4 1-4 3 0 3-10 1-5-3-4zm35 5v7l2 3q1 3 6 2l4 1q0 3-3 2-6-1-4 2l1 2q-1 2 2 2l2-1 1-2 1 5v5h-3q-4-1-5 4 0 5-3 5-4 2-2 3v12l2 16q1-2 2 0 0 3 3 1 4-1 2 2 0 2-3 2l-2 2h1l7 3-4 2-4 1q0 2 3 1l2 1 2 2 1 3c0 4-8 5-8 1q0-3-2-2v3l1 5q-1 2 7 2h10q2 1-1 1l-3 1 5 1q9-2 6-3-3-3 3-1 4 2 6 1l4 1q0 2 2 1 2 2 3-13 0-3 3-3t3-4 1 1 4 6l4 3 3 1 2 1 2 1 3 1 15 5c9 1 8-3 8 32v32h-12q-20 2-17 3h11c17-2 18-2 18 3l1-79v-83h-18l-18 1h11q12 0 10 1c-4 2-30 1-31-1s-4-2-24-2l-22-1 10-1q18-1-1-3c-9 0-9 0-9-3zm50 2q-6 2 13 2 16 0 13-1c-1-2-23-2-26-1m-64 25v23a17 17 0 0 1-1 12l1 2q1 4-1 3l-3-1-1-2c-1-3-6-3-6 0q0 2-1 1l-2 1-4 1-3 1 5 1q6 0 5 2l-3 1-8 2c-11 3-10 4-10-14l-1-17-1 2-1 27v5l-1-2-1 1q-3 5-4 0-1-4-3 0 1 4-3 3l-3 1v-33h-13q-13 0-12 2l2 2h2l-2-1v-1h6c5 2 10 2 7 1q-3-1 2-1l4 1h1q1-3 1 1 1 4-2 5-4 1 0 2 2-2 2 10v11l-4 1h-17q-15 0-9 1 8 1-3 1l-13 1v1l2 1h10l11 1q5 0 2 5-4 3-1 4l1 5q0 5 2 3v-1c-3 0-1-5 2-5 6-1 15 0 15 2h1q2-4 5-3 3 3 2-5-1-6-1-1-1 6-2 0-1-4 3-4l2-1v9l2 32q3 1 2 4l1-2c1-2 7-3 9-1h9l-4 3q-5 2-3 4 4 1-2 3l-5 3q-3 0 0-1l3-4 2-2-3 2-7 4-8 2c-5 0-17 4-17 5q1 5 16 5 14-1 15 5l3 2a71 71 0 0 0 24 0c1 2 14 0 15-3q2-9 15-3 5 3 6 1c2-3 13-4 16-1q5 3 6 0l-2-1q-3 0-5-5a3 3 0 0 0-6 0l-3-3-5-4q-7 0-6-2c3-2-4-9-9-9v-2q2-6 5-4l3 1-2-4v-6q2-1-2-1l-4-1q0-2 4-2l1-1-3-1q-3 1 1-2l4-3 1-1q1-2 2 1c0 2 6 4 6 2s-5-5-6-5l-6 2q-3 0-3 2h-1c-2-1-2-2-3 20v5h-6q-11 1-5-5l2-5 1-1c2 0 3 4 1 4q-3 2 3 2 4 3 2-10l-3-1h-4l4-2q5-4 1-6-1-2-1 1 2 4-2 3l-2-1q1-2-1-5-1-1 2-1 6 0 3-2-4-2 1-3 5-3 1-4-2-1-2-5 0-5 2-3 3 1 2-2c0-3-2-7-2-4l-1 1-1-2 2-2 2-1q1-2-2-1-4 1-3-3-1-5 3-4c3 0 3-6 0-6-2-1-3-16 0-16l2-1q0-2-3-2-3 1-1-5c1-11 1-26-1-29-5-5-6-4-6 20m-52-15v6l-3 9q-5 9 1 6c3 0 3 0 3-19q0-10-1-2m8 5q1 7-2 6-2 0-2 5-1 6 3 5h3v-12l-1-11zm-229-3q6 6 10 5 3-2-5-5-9-4-5 0m42-1v5q1 5-2 4l-3 1 2 1q2-2 3 2 0 4-4 4h-1l2 1q2-1 3 2 1 4 4 0l-1-4v-6q-3-3 4-2c7 3 9 5 24 28 11 15 11 15 11 37l1 18 2-4q0-3 1-2a3 3 0 1 0 1-5l-3 1v-1c2 0 1-38-1-38l-1 1-12-15c-12-16-16-20-23-21q-4 0-4-4-2-5-3-3m295 1 1 2h2l1 2q0 3-1 2-2 0-2 4 0 5 2 5 3 1 2-8 1-11-3-9-2 0-2 2m-131 8q-6 14 4 12c3-1 3-10-1-12zm142 0v4q-1 4 4 3 5 1 4-3 1-5-4-4zm-459 3q-4 3 3 3 6 0 2-1-3-1 6-1c8 0 17 2 9 2l-3 1h2q4 0 4 6v4h-22v-5q-1-9-1 1l-1 5h25v-16h-11zm66 8v8h7c8 0 8 0 8-3l1-3-2 2q1 4-7 3h-6v-6l1-6h6q7 0 7-2l-7-1h-8zm67-5 2 2q3 1 2 2l2 3 3 3 1 1 3 1q3 1 2-2l-2-2q-5-1-6-5-1-3-5-4zm241 4-1 15v14h3q5 0 2-2l-2-8-1-8 2-1q3 1 2-5 1-7-3-6zm73 6q-1 4 3 4c5 0 5-7 0-8q-4-1-3 4m39 5q0 12 3 10v-1l-2-3 2-3v-2q-3-2-1-4 3-1 1-2v-1q3-1-1-2-2-3-2 8m-28-5 1 3h5q4 1 3-3 1-4-5-3-5-1-4 3m-546-1q-3 4 2 6 5 1 5-4 2-4-2-3zm490 15v8h8v-16h-8zm-115 2q1 11 3 5 3-6 5 2v4h-4q-4-1-4 3 0 7 2 5l1-4q2-6 5 3v4h-4l-4 1q2 2 14 1 5 1 5-2l-1-12v-10h-2l-3-1h3q3 1 2-2l-3-2-3-1-7-1h-5zm35-1h-6v11l-1 12q-1 2 7 2 8 1 5-2l-1-12c0-10 0-10 2-10l2-1-1-1zm-294 1h-14v4l1 4h16c20 0 22 0 22-4q1-5-8-5zm27 1 1 3 1 6q0 5-3 5-3 1-3-3-1-3-1 1v4h9v-9q1-10-2-9zm-56 7v8h6q7 0 1-1-8-1-3-2 9 2 7-7v-6h-11zm259-7v4q2 2-2 3-4 2 0 3t3-1 2-5a3 3 0 1 0-3-4m-218 1h-7q-7 0-7 2-2 3 10 2c10 0 11 0 11-2s-6-4-7-2m72 6-8 8c0 2 13 17 14 17l2-16v-16zm165-4q0 3-2 3-6 2 0 2 8-1 6-4-4-3 1-3h3l-4-1q-5-1-4 3m32 1v8q-2 7 2 6l3-1h-2q-4-1 0-3 3-2 1-2l-1-5q0-8-3-3m-394 1 2 1q4 0 1 4h-3q-4-2-6 1-2 2 1 2 4 0 8 8l4 4 2 3q1 7 5 5v-6l-1-3q-2-1 1-3 4-4 4 0-1 4 6 3l3 1-1 2q-3 1 7 3 9 2 5-1l-1-4-1-2-1 2-1 1-1-2q2-1-1-1-3 2-5-3-6-8-10-9v-1q-1-4-10-4l-3-1-3-1q-2 0-1 1m103 4q-8 2 1 3 2 0 1 1l-1 1h-3q-1 1 3 1h5l-1-3v-3zm-97 2-2 2 1 1 2 1q3 5 0 7l-1 2q5 0 6-6-2-10-6-7m458 5 1 2a1 1 0 1 1 0 2q-2 0-2 4l-1 4c-2 0-4 5-3 7l1-2 1-2q1-1 1 1l1 4 1 2 2 2q4 1 3-2l-1-2v-15c2-1 0-7-2-7zm106 4v4h-13l-3 1q-1 2 9 2l10 1q2 2 2-3a4 4 0 0 0-3-6l2-1v-1q-4-3-4 3m-117 0c-5 1-5 9-1 10q3 1 2-4v-5l1 4 1 5 1-5-1-6zm-8 2-5 1c-3 0-3 5 0 5a6 6 0 0 0 8-5q1-3-3-1m-16 3v6q4 2 6-4 0-5-6-2m-294 5v14-5q0-10 6-6 2 2 2-2 1-4-3-3l-4-1zm-93-2 1 3q0 3-2 2h-4c-1-1-6 0-6 1s7 2 9 1h2l-2 1-2 2q1 3 5-1 2-3 3-2 4 3 1-3-3-7-5-4m365 0q-10 1-9 4 0 2 5 1c9 0 8 0 7-1q-2-3 4-3l3-1-2-1zm-20 4h-4q-4 0-2 1 3 1 0 3-3 4 3 3 4 0 3 2 0 3 2 2l1-3-1-3h-2l2-1q5-1 6-3l-2-1zm66 1-3 1-7 1q-6-1-5 3v3h16l1-4q3-5 1-5zm-437 2v3h12q2 2 1-1c-1-3-11-4-13-2m171 2v10l1 8h7c10 0 10 0 10-11v-7l-9-1zm272 4v5h-22v5q0 7 1 2 0-8 3-4h2q0-3 5-1h3c0-2 8 0 8 2l1-4v-8q-1-2-1 3m-31 12v13h3l4-1q2-1-2-1-5 1-3-3l1-5v-1l-1-4-1-9zm-415-4-2 7-2 6c-1 0-5 12-5 16q1 7-5 7-2 0-4 4l-3 4-1 2q3 0 11-7l5-3v-1c-2-1 1-17 4-21l2-5 2-4q2-1 0-2-3 1 0-2 2-3-2-1m60 3 2 6q2 2-1 2-2-1-2 3-1 4 1 3l2-1q-1-2 1-3c3-3 2-11-2-13q-3-2-1 3m329 2c-3 4-2 12 1 12q2 0 2 3 1 3 5 4l4 2q0 3 2 0l4-1q5 1 4-4 1-5-2-4a49 49 0 0 1-20-2l3-1h3l2 1c3 0 0-5-5-7v-1q3-1-1-3zm54 0h-9q-16 2 3 3c10 0 11 0 11-2q1-3-5-1m-166 4-3 1q-2 0-2 3-1 2 5 2c15 0 14 0 14-2q1-4-3-3l-4-1-3-1zm178 0-2 3q-3 0 1 2 4 1-5 1h-9l1 3q4 6 1 5h-3q-2 1 2 1t5 3q2 9 9-7 4-8 1-11zm-11 9c0 2 4 8 5 8l4-8-4-1zm-173 1v2l1 5q2 7 5-1-1-8-6-6m172 11c-4 0-11 5-11 6h15c3-1-1-7-4-6m7 1q-5 6 7 5l15-1h6l-2-3c-4-4-24-5-26-1m84 6-2 1-4-2-4 1q-5 1 4 2l9 1q3 1 3-2l-2-1q-3 0-1-1t-1-1-2 2m-216 4-5 1q-4 0-4 2-3 3 5 1h6v-2a1 1 0 1 0-2-2m50 4-6 1q-15 0-13 4l-2 4q-3 0-3 3 1 2-5 2l-6-1c1-2-7-4-8-2v3l-1 2q-1 1 9 1l25-1q13 0 10-1-8-2 1-2l8-1q4-1 1-2l-2-1-8-1h-6l9-1q6 1 7-2 0-2 8-3 16-2-2-2zm-392 3-4 13q1 8 4-2 0-4 2-2 3 0 1-1l-2-6zm433 3q2 3-9 2l-11 1q-3 1 5 1l7 1h2l10-1q14 0 3-2-7 0-5-2l-1-2zm77 0-1 1q3 1 1 3c-2 2-13 2-13 0h-3l-1 1-3 1h-20q-19 0-18 1-1 2 55-1c13 0 26-2 21-2q-3 0-1-2l-1-3q-3 1-3 4h-1l-1-1-1-1-2 1q1 2-4 1l-2-1 2-1 3-1z" mask="url(#16282281824-posters-1717107730223-vertical-mask)" itemprop="medium" fill-opacity="0.90" fill-rule="evenodd" stroke="none" fill="url(#16282281824-posters-1717107730223-vertical-medium)"></path><!----><path id="16282281824-posters-1717107730223-bold" d="M349 324q-4 2 4 5 8 7-4 6h-1l1 2q0 3 4 1 9-1 7 2h-3q-4-2-4 1a3 3 0 0 0 2 5h-7q-3 0 0-2t0-2l-2 1h-3q-1-2-4 1h-2l-4-2-3-1 3 3 4 2v1c0 2 6 3 9 2h3c1 2 9 6 9 5l-3-3-2-2 4 1q7 0 1-3-3-2 0-4l6 4 7 3h2q-2 3-5 0-2-2-2 2 0 3 2 3t2 3q0 6-5 4-7-4-1 4l9 11 6 6 1 1v1l3 5q3 8 6 4 5-2 3-3l-1-1q1-3 4 2 1 4 4 2l5-2q4 1 1 4-4 1-1 2l2 2 5 1 6 1h4q3-2 4 2-1 3 3 1 5-2 0-4l-2-1 2-1 3-2h-3l-5 2q-7 1 3-3 10-3 13-1 0 3-3 2h-2l1 2 1 2v5l-1-2q-1-2-2 1l-4 2c-5 0 2 2 8 2l8 1-1-3q-1-2 3-4 7-5 0-2l-4 1q-2-1 1-2l2-2 2-1 2-1 5-3 5-1h-5q-12 1-11-2h5q6 0 2-1a15 15 0 0 0-13 1q-2 0-1 2h-5q-4 3-4 1 1-3 7-4l1-2h-2q-5 3-2-1a3 3 0 0 1 4-2l6-1q7 0 9-3 5-5 6 1 1 2-1 2l-3 1h1l3 1 2 1q3-1 4 1 2 2 5 1 5-1 0 2l-3 2 2 4 2 3v-2l3-3 5-4c3-4 3-4 8-4l7 1c1 2 8 2 9 0l13-1h13l-1-4 1-4h1q0 4 3 0l3-2h-26l-26 1-18-3h-2c-2 2-8 1-8 0q0-2-4 0-7 3-5 0 0-2-4 3c-2 4-12 4-10 0q0-3-1-1l-2 1q2 3-4 2-5-2 0-2v-1c-2-3-12 1-10 4l2 1 3 1-1 1-2 1-1 1-2-1-1-3-2-2-2 2q-3 3-3 1l-3-1-2-1q-1-3 3-1 3 1 5-1l5-1 3-2q4-3 9-2c2 1 8-1 10-3l3-1v-2l-2-1 2-2v-1l-1-2h-1q-3 3-9 2h-2l4-2q8-3 1-2l-4-1-1-1q-3-1-1-2l3-2h1l2-1q3-1 0-1l-3-1h-1c-1 2-9 6-12 6q-3 0-1 1 5 3-6 4-9 1-8 4l5-1 4-2h4q1 3 4 1h4q2 2-3 3l-7 1c-2 2 18 2 22 1h2q1 2-8 2-11 1-14 4-6 3-5 1t3-1l1-1-1-1q-6 0-8-3l-2-1q-2 0-2-3l-3-4-1-1-1-1v1l-1 1v2q0 4-3 5l-1-1v-2l1-2v-2l-4-1q-5-3 4-3c5 0 20-8 20-11l-2 1h-1v-2l-1 1q-2 6-8 3-2-4 8-5 4-2-1-2-4 0-7 3l-4 3v2q3 4 0 4-3 4-4 1l-3-1q-4 0 5-7l5-5q0-2 3-2 2 1 2-1 1-3-2-1-5 0-4 4l-3 2-6 5-3 4-4-2-4-3h3q2 2 3-1l5-3q3 0 3-2 2-3-1-2l1-2q4-6-1-3l-5 2c-4 0-10 4-9 6l3-2q6-3 8 0l-1 1q-1-1-3 2-3 4-3 0 2-3-1-1l-2 2q0 4-4 2l-1-4q1-2-1-3-5-2-2 1 2 2-2 2l-4-1 1-1c3 0 1-5-2-6l-2-3c0-2-5-9-7-9zm-206 12c-2 9-2 10-1 12q3 4 3-10v-8zm448-4-2 2c-2-2-16-1-18 1q-2 1 1 1l3 1c1 2 7 2 7 1l4-1q4-1 3 1v3q1 1 1-2 0-6 4-7v1q-4 4 7 4l9 1 4 1h14q1-2 4 1l1-1h3l3-1 15-1c13 0 15 0 15 2h9q5 2 5-4v-3h-18q-21 1-10 1 16 1-10 1t-23-2q1-1-2-1t-2 1c0 1-7 1-11-1l-2 1v1q-10 1-2-1 1-1-3-1l-6-1zm-330 8v5h4l4 2q4 2 4-1l1-2 1 3v2h9l10-1-8-3c-24-7-24-7-25-5m65 5q5 7 0 4-4-2-3 1-2 2 3 3c4 0 11 6 9 7h-7l-4-1c-2 1-2 6 0 6q2 1 0 0 0-2 5-3c2 0 6 3 4 4-3 2 2 9 6 9q3 1 2 6 1 3-5 3-11-1-12-9l1 1 2 2 3 1 4 2h1l-1-3-3-3q-5-3-2-4 1-1-5-2c-2 0-2 0-2 13q0 18 4 14l4-1 2-1-3-1q-6 0-1-2h4l2 1v-3c-2 1-7-2-6-3q-1-3 4 0 4 2 5 1l2-1-1 2q-2 2 4 3h4q2-1 3 1l-4 1q-10-1-10 2l-5 2q-8-1 1 8l5 7 2 1q2 1-1 1l-8 6-7 7v32l-1 33 17-1c16 0 17 0 19-3q1-3 6-1 5 1 5 4-1 3 11-1c7-2 7-2 9 0q1 2 3-1l4-2 4-2c1-2 8-5 10-5l5-2h-2l7-2c8 0 7 1 7-10l1-10h9l-4 1q-3 2-3 5v8l-1 4h10q10 0 9-1c-2 0 0-6 3-5q2 1 1-3l1-4 1 3c0 3 3 8 4 6 2-1 1-13 0-13l-2-1 6-1 8-2q9 0 9-2 0-4-3-1h-2l-5-1q-7-1-3-2l3-4q2-7 7-6l3-1q4-2-5-3-8 0-6-2 1-3-3-1l-5 2 1-2q1-3 4-2 2 0 2-2-3-6-4-1-1 3-2 1v-3h-1l-3 4-1 3-3 4c-1 2-5 3-4 1q-1-4-4-4l1 2q2 2-1 2l-2 2-2 1v1q4 3 0 3h-13l3-3q3-3 5-2l2-2q1-1-3-1-4 1-4-1l1-1 1-1-2-1q-3 0-1-2v-3c-2-2 3-9 6-8 4 1-1-2-6-3l-8-3q-5-4-6 0h-1l-1-4q1-1-1-1-3 1-3-1l-3-1-2 1h-1q1 2-2 2-4 0 0-3v-1l-3 1v1l-2 3v2q4 3 0 2l-2-1a4 4 0 0 1 1-6l6-4-3-1q-6 1-3-3 2-1-1-1h-3v18l1 17c5 0 8 17 4 20h-1q0-4-3-4l-1-1h2q3 0 2-4l-1-2q1-1-1-1l-2 1q1 2-1 3l-1 10v13c1 1 0 17-1 17s-2-18-1-19v-56l-3 1q-6 0-1-2c4-1 3-5-7-20l-11-15q-3-7-10-9-6-4-5 6 1 8-2 7l-2-2h-2l-3-1q-1-3-2-1-3 1-4-4 1-5 5-1l4 2q3-1-1-3-6-3 0-5 4 1 3-2l-1-2-1 1-4-2-3-2q3 5-2 2-3-2-1-3 2 0-2-4l-3-2-1-1-3-3q-2 0 1 2M0 350q-1 4 3 3l24 2 8 1h7l7 2h19l5-1q5 0 3-1-3-1 0-1l3 1h1c2-4 0-5-25-4-24 0-25 0-26-2q0-2-8-2-6 0-5 1 6 1-1 2-5 1-5-2-1-2-5-2l-5-1zm416-2-11 5-2 1h3c4 0 11-2 12-4l4-2 2-1q-1-2-8 1m-288 3-22 1H86l-1 2q-1 4 2 3l33-1h5q3-2 4 2 0 3 3 5c3 3 6 10 4 11q-1 4 1 4l1-7q1-7-2-7-3-1-1-1h1l3-2c3-4 19-6 21-3q2 3 8-1l29-1q26 0 25 1v1q3 0 2-4 1-5-2-4-3 0 0 1a834 834 0 0 1-86 0q9-1-2-2-6 0-6 2m114 0-7 1q-7 0-6 3-2 3 7 1h6v2c0 7 6 10 9 4l2-3h13l14 1c1 1 7 0 8-1l3-1q3 0 3-4l-21-1-21-1c0-2-10-3-10-1m327 8q0 9 2 8c3 0 3-15 0-16q-2-1-2 8m19 6v16q2 2-1 3l-2 2h2v3l-2 1 1 1 2 1-1 1q-3 0-2 3 0 3 2 3c2 0 4-16 2-19l1-4q3-2 2-5v-2q2 1 1-3 0-3-1 0l-1-5q-3-19-3 4m-285-5q-2 3-3 1 0-2-2 1-2 1 1 3 2 3 4 0 3-4 8 1l3 2c2 0 1-5-1-5l-3-1q-3-3 1-1l4-1-2-1-5-1q-4-1-5 2m207 5q-3 9 2 8 4 1 3-4-2-12-5-4m36 3a6 6 0 0 1-3 6l2 1h2l2 1q3 0 1-1l-1-2v-3l1-1h2l-1-2q-2 0-2-3-1-6-3 4m106-3c1 5 7 6 7 1q1-5-4-4-4-1-3 3m-282-1q-6 3 0 2 5 0 4 2l2 4 9 1 1-3q2-3-2 0-6 3-7-3l-4-4zm-264 1 4 2q3-1 2 5l1 4v4q-2 5 1 4l1-9v-9h6q8-1-2-1l-12-1q-3 0-1 1m191 3 3 4q-1 3 5 2h7q3-1 2 4-2 6-3 2-2-5-5-5 0 2 2 3 2 2 1 3h-2l-5-1q-3 0-2 1 0 5-4 5h-3l-3 2v1l-1 3q0 4 3 3h3v2q-3 1 0 1 6 2 1 3l-3-1h-3q-3 0-3-2l-2 1-2 2v-2q-2-4-2 1 0 3 1 2l7 3q6 1 4 3h-2l-2-1v1q4 2 1 3l-2 1 1 1a1 1 0 1 1 0 2l-2 1 3 1 2 1 2 1h1-7q-6-3-7 3-2 4 2 2 2-1 2 2-1 3 2 1 2-2 3-1 3 1-1 2-2 0-1 1l-2 3-2 2 2 1q4 2 1 4h-2q-1-2-3-1l-1-1v-3l-1 2q0 5-4 5-3 0-1 1 4 3 1 6v1l1 5v4l2-1 2-2h2l3 2 1 1c1 2 0 8-1 8l-1-3q-3-7-6 0l-1 4v1c2 2 1 7-1 7l-1-5q1-6-1-5-3 2-25 2l-14 1v6l-1 7q-16 0-19 3h-20c-6 0-6 0-8-5q-2-1-3 5c1 2-6 3-7 0l1-2 1-1c0-2-6 2-7 5q-3 5-4 2l1-2q3-1 1-3h-4q-5 0 1-4 4-2 1-2-4-1-2-3c2-1-2-6-4-6l-4-1h-5l-3 1 1-1c-1-2-7-1-8 0l-2 1-3 1-2 1h-2l-2 1q-4 1-3 4l4-2 5-2 2 2q2 3-1 2-1-1-3 2l-1 2 2-1 2-1 4-1v1l1 2q1 3-2 2-6 0-1 1 3 1 1 2l-3-1q-12-6-13-2-4 5 0 5 2 1 0 3l-1 2q0 3 2 1 8-4 6 2-2 3 3 0c4-2 9 0 7 2h-2a1 1 0 1 0-2 1l-3 5q-6 5 0 2l4-3 48 1q3-2 2 6v4h39v-2q1-6 2-1 0 4 4 3h4l-1-12 2-21 19-1q3-5-4-5-20 1-20-1c1-2 23-2 28 0h3l-3 1-2 2 23 1c25 1 24 0 26 9q2 12 2 3l-1-6v-1l1-17q0-17-1-15l-9 1h-8l-1-3v-10l1-6h8l10 1c1 1 2-22 2-47v-15l-8 1q-8 0-6-1l-2-3q-5-2-2 1m85 10q1 4 3 4l4 1h1l4-2 5-2h-6q-6 1-6-2t-1-1v2l-1 1-1-1-1-2zm160 0v7q1 4-2 5-5 1 1 2 3 1 2-6 0-9 2-4l1 14q0 11 1 10v-4q0-4 2-3h3v-20h-2l-3-1-1-1h-3q-1-2-1 1m-192 0 2 2 2 1q0 3 3 2l6-1 2-1-3-1-3-1c-1-2-9-2-9-1m209 3-1 8q0 10 2 7 3 1 2-8 0-12-3-7M5 386q-6 1-4 2l2 2 2 2q4-1 5 4l1 2v2l-1 2-1 1-1-1H6l1-1q4-4-3-8l-4-1v12l2 16 1-3 1-3v-2q-1-3 9-1a11 11 0 0 0 12-5v2l1 2v2q0 3 1 1l4-1q3 1 3-1l-2-1-2-1h2l2-1 2-1h1l2-1q3 2 1-1v-2l-3-3-4-3q-1-3-2-1 0 2 5 6 4 2 1 3l-2-1q0-2-2-1c-3 1-13-2-13-4q0-3 5-2 5 3 5 1v-2c2-3-8-5-12-3l-1-1q-1-2-3 1-3 3-2 0v-2q1-1-2-4-3-1 0-1l4 1h1q0-3-10-1m412 3q1 1-1 1t-1 1l3 1 3 1-3 1-2 1h2c3 1 9 0 9-2l-7-4-1-1-1-1zm111 11v19l1-6 1-6 3-1 2-2 1-3q0-4-1-1-2 5-3-1 1-7-2-7-2-3-2 8m70-6c-5 0-5 5 1 6q4 1 3-3v-4zm-141 2-2 5q-3 1-2 2-2 4-5 3h-1v1q2 2 1 3l1 1q3-2 0 3v4q3 2 3-1l2-2 1-2h2q3 1 2-2v-4l1 2h1l3-1q4-1-2-3-4-1-1-2l1-1q-3 0-1-2 2-1 0 0-3 3-2-2l-1-4zm-153 7q-9 7-7 8c1 3 14 17 15 17l1-17v-16q-2 0-9 8m-259 7c-4 2-1 7 4 7q6 1-2 8-4 3-4 5l1 1 1 1 2 1q3 0 1-1c-4-4 2-11 10-12l6 1c-1 1 0 7 1 7l1-2q0-2 4-2l4-2-3-1q-7 1-7-5 1-3-3-1c-4 0-13-2-13-4q0-2-3-1m547 2q-1 8-2 1 0-4-1 0l-1 7-1 5q-2 0-2 3-1 3 1 3c3 0 3 6 0 6v2q3 2 1 3v2q3 3-1 6-6 2 0 1 3-1 3-5 0-5 5-6 11-3 2-3l-6-1h1l1-4v-5l1-7 1-6-1-3q-1-3-1 1m-154 0v1l2 2 1 1h1q0 3-2 1-3-2-3 1c0 1 5 2 6 0l2-1q6-3-1-4l-4-2zm-81 5-9 1-15 3-6 3-2 2 2-1 12-1 1-1q-1-1 0 0 4 0 0 3l-2 2q1 3 4-1l1-1q4 0 5-4l1-1 1 2v1l2-2q0-3 3 0 4 6 6-1 3-7-4-4m284 3q0 4-3 4l-2 2c0 13-3 23-5 19q-1-1 1-3 3-4-4 1-3 4-4 2-2-4-3 0l-3 3h-9l2-1 1-1h-5v2l1 1-4 3-4 2q-3 2 0 6v4l1 3q3 3-1 2h-2l2 3 2 4q0 2 3 2 6 2 8 6h2c1-2 6 0 6 2q1 4 7 4l3-1-3-1q-3 0-3-2h5q3 3 2-1-2-2 2-2 3 0 1-1c-1-2 0-2 12-2l6-1c0-2 6-1 8 1q1 2 4-2l5-4q3 2 0 4v4l1 1 3-1 2 1q-1 2 3-1t4 1q1 3-2 2-2-1-4 1-2 1 2 1h1q-2 1 1 2a3 3 0 1 1-4 5q0-2-6-2l-9-4-11-2h3q3 0-1-1c-4-2-10-1-10 1l-2 5q-3 3-3 1-1-4-5 1-6 7 7 6 18-2 12-3-3-1-1-2h3l1-1v-1l1-1 2-1 2 2q-1 1 3 1 12-1 6 2l-2 2h4q11-1 12 1h-6l-6 1 6 2q7-1 6 3 1 2-3 2-27-1-37 2-16 4 4 4 13 0 10-1v-2l2 2 13 1h12v-37c0-21 0-37-1-36h-4l-10-2-8-3-10-4-10-5 1-4v-4zm-563 3-3 2h-2q-6 0-1 3 3 2 5 1 4-1 4 3 1 8 6 7h5q2-1-1-1l-3-1-3-5q-6-5 0-3l2 2q2 3 6 3l2-1-1-1c-4 2-6-4-3-6v-1l-2 1h-7l1-2q1-2-5-1m-77 2a18 18 0 0 0 2 14v2q0 2-1-1l-1 10q-1 17 5 9 2-2 1-3 1-5 4-3v3c-3 3 1 4 4 1l3-2v4q0 5-7 7-7 3-7 0l-1-2c-2-1-2-1-2 23v25h5l6-1h9l14 1q16 0 13-1l-5-1q-3 0-2-1c2-1 10 0 12 1l6 1q4-1 1-1-5-3 9-4 12-1 8-3l-1-2h1l4-2 3-1-1 1-1 2 2-1 4-1q4 1 4-1l-1-1q-3 0-2-6c0-3-5-6-6-2q0 2-2 1-2 0 1-2 6-3 7-1l2 1q3 1 1 2v3q-4 3 1 3 2 0 2-2-1-3 4-8l3-5 1-3 3-7 1-5q2 0 2-4 4-8 4-3l-1 4-1 2-2 5q-2 5 1 7l1-4 4-15q1-2-2-1-6 0-4 1l-1 1q-2-1-2 1l-3 1-4 1q-1 3-6 0l-5-1q-1 1-1-3-1-2-6-1-3 1-1 2v6l1 6c2 0 0 5-3 6q-8 4-3-1l3-2h-4l-4-1-1-1-1-3 1-1q-3-1-6 1h-6q-8-1-1-2l2-2 1-1 1-1-4 1h-3l-2-1q-2-1-2-3 1-5-3-1-5 4-3-2v-3l1-1 1-1 3-4q5-3 0-6l-4-4q-1-3-3-3l-2-2-3-1q-3 0-3 2h-6l-1 3-1-1q1-3-1-4v1l-3 1-4-1 3-1 2-1H8v-1q2-1-1-3-4-3-6-2m593 0 1 4c0 3 6 3 6-1q2-4-3-4zM81 444q-5 5-2 3 3 0 2 1l2 2q2 1 2 3-2 2 1 2h1q2 4 8 1l2-2h-6l-2-3q-1-4 5-8l-2-1-6-1zm409 2v5q-1 1 2 1l7-1q6-1-1-1-4 0-3-4a2 2 0 1 0-5 0m-247 3-1 3-1 2h20l1 3q-1 1 1 1c3 0 7-2 4-2l-1-2c0-2-8-4-13-3l-1-2-2-1q-3 0 0 1 2 1-2 1l-4-1-1-2zm-106 0v2q2 0 1 2c0 2-4 1-4-1 0-1-6-2-8-1q-2 2 3 3l3 2q2 1-2 1t-4 2l2 1h2q0 3 3 0l6-1q6-1 2-3-4 0-1-2 0-6-3-5m261 4-3 1q-3 0-3 2-3 5 10 4h10v-3q1-4-3-3l-4-1q0-2-3-2zm79 3-7 1q-9-1-7 3 0 3-1 1-2-9-2 5 0 9 1 7 2-2 3 1 3 2 2-1 0-2-1-1l-3-1q0-4 4-6 5 1 2-4l-1-2h6l3-1 3 1-1 1q-4 1 1 3l4 2h3v-1l-4-3c0-1 5 0 6 2q1 2 1-3v-4l-2 2-2 3-2-3q-3-3-6-2m-358 4-2 6-1 3v2h1l4-1a2 2 0 1 0 0-3 2 2 0 1 1 0-3h2l-2-2a1 1 0 1 1 1-2h1q-1-5-4 0m272 3v1l1 5q-1 6 4 4 3 0 2-4 0-9-7-6m-188 8q-3 2 2 3 5 2-2 3c-4 0-11 2-11 3l12 1h11l1-6v-5h-6zm359 4-4 2-3 3h14l-1-3-2-3zm-444 5-3 2q3-1 0 4l-2 3h2l3-1 1-2 1-2h2v-1q-1-4 2-3l2-1q-1-2-8 1m310 3q-4 5-5 1-3-3-5 0l-2 1-1 1q-1 1 3 1 21-1-2 3-20 1-15 7l2 1q3-3 3 2c0 2 5 9 8 11h14q1-2-1-2l-1-2q1-2 5-1 1 2 4-1l4-3 1-1q-2-4 5-5 9-3 13 5c1 3 7 3 6-1l2-3q6-2 1-3-3 2-4-2-4-8-6-6-2 1 1 1 4 2-11 2l-16 1q-3 2-2-1-1-3 5-3 8-2 5-4c-2-3-9-3-11 1m-134-1-7 1 1 1h2q0 2-5 1-2-1-2 2 1 4-6 3-5 0-5 2l-3 1q-3 0-3 2a1 1 0 1 1-2 0q-1-4-2 0l-2 1-1-1v-2l-4 6-1-3-1-5q-1-2-1 6 2 10 3 6l9-1a136 136 0 0 0 35-4h4l-1-7q0-7 2-8h1q0 5 2 5a4 4 0 0 0-4-7zm-65 2c-2 4-1 15 1 15 1-1 3-8 1-8-1 0-2-6-1-8v-1zm13 3a22 22 0 0 0 5 20l1 3v1l1 1 1-6-2-13q0-11-4-10-2 0-2 4m268-4-8 1q-12 1-9 4c1 3 22-2 22-5zm-11 12q-4 6 6 3l8-1 3-1h9q2 2 4-2-1-3-4-1h-1l-12-1h-11zm40-2 3 4 4 4-10-1-11 1h-4c-2-1-14-1-25 1q-8 2-1 1l1 1q-1 2 3 4 9 8 16 0l2-1q-1 3 7 0c6-1 37-2 54-1q8-1 6 3l-1 3h34v-4l2 2q3 4 2 1h1q4 3 4-1l1-4q2-2 4 1l3 2q2-1-1-3h9l5-2c7 0 20-2 18-3h-37q-2 2-18 2h-39l-23-1-3-4-2-3zm-217 1v18h19l1-4q1-3 2-2v3q-1 2 2 2 8 3 7-1l-2-6v-4l4-1 5-1h-20l-15 1q-4 1 0-2 3-3-1-3zm52 3q-3 0-1 2h2q3-2 2 1 0 4-4 1l-4-2v-1q2-1-1-1-4 0-2 1 3 2-6 3-8 0-4 5l1 5c-1 1 1 1 14 1l14-1q0-2-3-2-3 1-4-2c0-5 7-3 9 2q2 5 3 2 0-3 4-1 5 0 2-4l-2-3q1-3-6-3h-4q-1 5-5 2t5-4q13-2 1-2zm-64 10-7 1q-7 0-6 2-1 3 7 2c8 0 8-1 8-3q1-4-2-2m142 0-8 1 3 2c1 2 3 2 26 2 21 0 24 0 23-1l-4-2q-3 0 1-1l3-1zm95 3-15 1c-1 2 35 1 37 0 3-2 3-2-22-1" mask="url(#16282281824-posters-1717107730223-horizontal-mask)" itemprop="bold" fill-opacity="0.90" fill-rule="evenodd" stroke="none" fill="url(#16282281824-posters-1717107730223-vertical-bold)"></path></pattern><rect id="16282281824-posters-1717107730223-pattern-render" fill="url(#16282281824-posters-1717107730223-pattern)" width="100%" height="100%"></rect></defs><radialGradient id="lightbar" cx="50%" cy="200%" fy="0" r="201%"><stop offset="0%" style="stop-color: rgb(255, 255, 255); stop-opacity: 0.1;"></stop><stop offset="10%" style="stop-color: rgb(0, 0, 0); stop-opacity: 0.1;"></stop><stop offset="30%" style="stop-color: rgb(0, 0, 0); stop-opacity: 0.3;"></stop><stop offset="90%" style="stop-color: rgb(0, 0, 0); stop-opacity: 0.55;"></stop><stop offset="100%" style="stop-color: rgb(0, 0, 0); stop-opacity: 0.6;"></stop></radialGradient><g class="radial"><radialGradient id="16282281824-posters-1717107730223-radial" gradientUnits="userSpaceOnUse"><stop itemprop="radial" stop-color="#707e8f" offset="0%"></stop><stop itemprop="radial" stop-color="#7c8998" offset="15%"></stop><stop itemprop="radial" stop-color="#808e9d" offset="30%"></stop><stop itemprop="radial" stop-color="#7c8c9c" offset="45%"></stop><stop itemprop="radial" stop-color="#65778b" offset="60%"></stop><stop itemprop="radial" stop-color="#6a7f95" offset="75%"></stop><stop itemprop="radial" stop-color="#7d8da1" offset="90%"></stop></radialGradient><radialGradient id="16282281824-posters-1717107730223-radial-background" gradientUnits="userSpaceOnUse"><stop stop-color="#c8ced5" offset="0%"></stop><stop stop-color="#c8ced5" offset="15%"></stop><stop stop-color="#c8ced5" offset="30%"></stop><stop stop-color="#c8ced5" offset="45%"></stop><stop stop-color="#c7ced6" offset="60%"></stop><stop stop-color="#c6ced7" offset="75%"></stop><stop stop-color="#c7ced6" offset="90%"></stop></radialGradient><radialGradient id="16282281824-posters-1717107730223-radial-light" gradientUnits="userSpaceOnUse"><stop stop-color="#8d98a5" offset="0%"></stop><stop stop-color="#8d98a5" offset="15%"></stop><stop stop-color="#8c98a6" offset="30%"></stop><stop stop-color="#8b99a7" offset="45%"></stop><stop stop-color="#8998a9" offset="60%"></stop><stop stop-color="#8898aa" offset="75%"></stop><stop stop-color="#8997a9" offset="90%"></stop></radialGradient><radialGradient id="16282281824-posters-1717107730223-radial-regular" gradientUnits="userSpaceOnUse"><stop stop-color="#707e8f" offset="0%"></stop><stop stop-color="#707e8f" offset="15%"></stop><stop stop-color="#6f7e90" offset="30%"></stop><stop stop-color="#6e7f91" offset="45%"></stop><stop stop-color="#6b7e94" offset="60%"></stop><stop stop-color="#6a7f95" offset="75%"></stop><stop stop-color="#6b7d94" offset="90%"></stop></radialGradient><radialGradient id="16282281824-posters-1717107730223-radial-medium" gradientUnits="userSpaceOnUse"><stop stop-color="#464e59" offset="0%"></stop><stop stop-color="#464e59" offset="15%"></stop><stop stop-color="#454e59" offset="30%"></stop><stop stop-color="#444f5a" offset="45%"></stop><stop stop-color="#424e5c" offset="60%"></stop><stop stop-color="#424f5c" offset="75%"></stop><stop stop-color="#424e5c" offset="90%"></stop></radialGradient><radialGradient id="16282281824-posters-1717107730223-radial-bold" gradientUnits="userSpaceOnUse"><stop stop-color="#282d33" offset="0%"></stop><stop stop-color="#282e33" offset="15%"></stop><stop stop-color="#282e34" offset="30%"></stop><stop stop-color="#272e34" offset="45%"></stop><stop stop-color="#272d35" offset="60%"></stop><stop stop-color="#262e36" offset="75%"></stop><stop stop-color="#272d35" offset="90%"></stop></radialGradient></g><g class="vertical"><linearGradient id="16282281824-posters-1717107730223-vertical" gradientUnits="userSpaceOnUse" x1="0" x2="0" y1="0" y2="100%"><stop itemprop="vertical" stop-color="#6d7c8d" offset="0%"></stop><stop itemprop="vertical" stop-color="#7c8998" offset="15%"></stop><stop itemprop="vertical" stop-color="#7c8c9c" offset="30%"></stop><stop itemprop="vertical" stop-color="#7c8c9c" offset="45%"></stop><stop itemprop="vertical" stop-color="#65778b" offset="60%"></stop><stop itemprop="vertical" stop-color="#6a7f95" offset="75%"></stop><stop itemprop="vertical" stop-color="#7a8b9f" offset="90%"></stop></linearGradient><linearGradient id="16282281824-posters-1717107730223-vertical-background" gradientUnits="userSpaceOnUse" x1="0" x2="0" y1="0" y2="100%"><stop stop-color="#c8ced5" offset="0%"></stop><stop stop-color="#c9ced4" offset="15%"></stop><stop stop-color="#c8ced5" offset="30%"></stop><stop stop-color="#c8ced5" offset="45%"></stop><stop stop-color="#c7ced6" offset="60%"></stop><stop stop-color="#c6ced7" offset="75%"></stop><stop stop-color="#c7ced6" offset="90%"></stop></linearGradient><linearGradient id="16282281824-posters-1717107730223-vertical-light" gradientUnits="userSpaceOnUse" x1="0" x2="0" y1="0" y2="100%"><stop stop-color="#8498ae" offset="0%"></stop><stop stop-color="#8498ae" offset="15%"></stop><stop stop-color="#8498ae" offset="30%"></stop><stop stop-color="#8498ae" offset="45%"></stop><stop stop-color="#8498ae" offset="60%"></stop><stop stop-color="#8498ae" offset="75%"></stop><stop stop-color="#8498ae" offset="90%"></stop></linearGradient><linearGradient id="16282281824-posters-1717107730223-vertical-regular" gradientUnits="userSpaceOnUse" x1="0" x2="0" y1="0" y2="100%"><stop stop-color="#6f7e90" offset="0%"></stop><stop stop-color="#707e8f" offset="15%"></stop><stop stop-color="#6e7f91" offset="30%"></stop><stop stop-color="#6e7f91" offset="45%"></stop><stop stop-color="#6b7e94" offset="60%"></stop><stop stop-color="#6a7f95" offset="75%"></stop><stop stop-color="#6b7e94" offset="90%"></stop></linearGradient><linearGradient id="16282281824-posters-1717107730223-vertical-medium" gradientUnits="userSpaceOnUse" x1="0" x2="0" y1="0" y2="100%"><stop stop-color="#454e59" offset="0%"></stop><stop stop-color="#464e59" offset="15%"></stop><stop stop-color="#444f5a" offset="30%"></stop><stop stop-color="#444f5a" offset="45%"></stop><stop stop-color="#424e5c" offset="60%"></stop><stop stop-color="#424f5c" offset="75%"></stop><stop stop-color="#424e5c" offset="90%"></stop></linearGradient><linearGradient id="16282281824-posters-1717107730223-vertical-bold" x1="0" x2="0" y1="0" y2="100%"><stop stop-color="#282e34" offset="0%"></stop><stop stop-color="#282e33" offset="15%"></stop><stop stop-color="#272e34" offset="30%"></stop><stop stop-color="#272e34" offset="45%"></stop><stop stop-color="#272d35" offset="60%"></stop><stop stop-color="#262e36" offset="75%"></stop><stop stop-color="#272d35" offset="90%"></stop></linearGradient></g><g class="horizontal"><linearGradient id="16282281824-posters-1717107730223-horizontal" x1="0" x2="100%" y1="0" y2="0" gradientUnits="userSpaceOnUse"><stop itemprop="horizontal" stop-color="#738091" offset="0%"></stop><stop itemprop="horizontal" stop-color="#7d8b9b" offset="15%"></stop><stop itemprop="horizontal" stop-color="#7c8b9c" offset="30%"></stop><stop itemprop="horizontal" stop-color="#63768c" offset="45%"></stop><stop itemprop="horizontal" stop-color="#74879a" offset="60%"></stop><stop itemprop="horizontal" stop-color="#7d8da1" offset="75%"></stop><stop itemprop="horizontal" stop-color="#758699" offset="90%"></stop></linearGradient><linearGradient id="16282281824-posters-1717107730223-horizontal-background" gradientUnits="userSpaceOnUse" x1="0" x2="100%" y1="0" y2="0"><stop stop-color="#c9ced4" offset="0%"></stop><stop stop-color="#c8ced5" offset="15%"></stop><stop stop-color="#c8ced5" offset="30%"></stop><stop stop-color="#c6ced7" offset="45%"></stop><stop stop-color="#c7ced6" offset="60%"></stop><stop stop-color="#c7ced6" offset="75%"></stop><stop stop-color="#c7ced6" offset="90%"></stop></linearGradient><linearGradient id="16282281824-posters-1717107730223-horizontal-light" gradientUnits="userSpaceOnUse" x1="0" x2="100%" y1="0" y2="0"><stop stop-color="#8d97a5" offset="0%"></stop><stop stop-color="#8c98a6" offset="15%"></stop><stop stop-color="#8b98a7" offset="30%"></stop><stop stop-color="#8898aa" offset="45%"></stop><stop stop-color="#8998a9" offset="60%"></stop><stop stop-color="#8997a9" offset="75%"></stop><stop stop-color="#8a98a8" offset="90%"></stop></linearGradient><linearGradient id="16282281824-posters-1717107730223-horizontal-regular" gradientUnits="userSpaceOnUse" x1="0" x2="100%" y1="0" y2="0"><stop stop-color="#697c96" offset="0%"></stop><stop stop-color="#697d96" offset="15%"></stop><stop stop-color="#697e96" offset="30%"></stop><stop stop-color="#697e96" offset="45%"></stop><stop stop-color="#697f96" offset="60%"></stop><stop stop-color="#697d96" offset="75%"></stop><stop stop-color="#697e96" offset="90%"></stop></linearGradient><linearGradient id="16282281824-posters-1717107730223-horizontal-medium" gradientUnits="userSpaceOnUse" x1="0" x2="100%" y1="0" y2="0"><stop stop-color="#414d5d" offset="0%"></stop><stop stop-color="#414e5d" offset="15%"></stop><stop stop-color="#414e5d" offset="30%"></stop><stop stop-color="#414e5d" offset="45%"></stop><stop stop-color="#414f5d" offset="60%"></stop><stop stop-color="#414e5d" offset="75%"></stop><stop stop-color="#414e5d" offset="90%"></stop></linearGradient><linearGradient id="16282281824-posters-1717107730223-horizontal-bold" gradientUnits="userSpaceOnUse" x1="0" x2="100%" y1="0" y2="0"><stop stop-color="#282d33" offset="0%"></stop><stop stop-color="#282d34" offset="15%"></stop><stop stop-color="#272d34" offset="30%"></stop><stop stop-color="#262d36" offset="45%"></stop><stop stop-color="#272e35" offset="60%"></stop><stop stop-color="#272d35" offset="75%"></stop><stop stop-color="#272d35" offset="90%"></stop></linearGradient></g><g class="masks"><mask id="16282281824-posters-1717107730223-pattern-mask" maskUnits="userSpaceOnUse" maskContentUnits="userSpaceOnUse"><pattern id="pattern" x="0" y="0" width=".0133" height=".0144" viewBox="0 0 23.07 40"><path d="M17.62 0l-6.07 10.5m2.74 4.76L8.22 4.75m-5.48 0h12.13M.01 0h23.07M6.07 20L0 9.5m2.74-4.75l-6.07 10.5m-5.48 0H3.33m8.2 4.75L0 .02-11.54 20m40.68 0L23.07 9.5m2.74-4.75l-6.06 10.5m-5.49 0H26.4M34.6 20L23.08.02 11.53 20m-5.46 0L0 30.51m2.74 4.75l-6.07-10.5m-5.48 0H3.33m8.2-4.75L0 40l-11.54-19.98zM17.6 40l-6.06-10.5m2.74-4.76L8.2 35.25m-5.48 0h12.13M0 40h23.07L11.54 20.01m17.6 0l-6.07 10.5m2.74 4.75l-6.06-10.5m-5.49 0H26.4M11.53 20h23.08L23.07 40" stroke-linecap="round" stroke-width="3.5" stroke="white" fill="url(#16282281824-posters-1717107730223-horizontal-background)"></path></pattern><rect width="100%" height="100%" fill="url(#pattern)"></rect></mask><mask id="16282281824-posters-1717107730223-horizontal-mask" maskUnits="userSpaceOnUse" maskContentUnits="userSpaceOnUse"><rect width="100%" height="100%" fill="url(#16282281824-posters-1717107730223-horizontal-background)"></rect></mask><mask id="16282281824-posters-1717107730223-radial-mask" maskUnits="userSpaceOnUse" maskContentUnits="userSpaceOnUse"><rect width="100%" height="100%" fill="url(#16282281824-posters-1717107730223-radial-background)"></rect></mask><mask id="16282281824-posters-1717107730223-vertical-mask" maskUnits="userSpaceOnUse" maskContentUnits="userSpaceOnUse"><rect width="100%" height="100%" fill="url(#16282281824-posters-1717107730223-vertical-background)"></rect></mask></g><use href="#16282281824-posters-1717107730223-pattern-render"></use><g><use href="#16282281824-posters-1717107730223-background"></use><use href="#16282281824-posters-1717107730223-light"></use><use href="#16282281824-posters-1717107730223-regular"></use><use href="#16282281824-posters-1717107730223-medium"></use><use href="#16282281824-posters-1717107730223-bold"></use></g><!----></svg>