<svg xmlns="http://www.w3.org/2000/svg" xmlns:xlink="http://www.w3.org/1999/xlink">
  <symbol id="main">
    <path d="M5.595 1.548c-1.198 1.197-2.006 1.303-3.571.465C.406 1.147 0 1.234 0 2.446c0 2.068 4.308 2.991 7.982 1.71C10.39 3.317 11 3.383 11 4.485c0 .759 1.012 1.697 2.25 2.085 1.238.388 3.209 1.453 4.381 2.368l2.131 1.662-2.881 1.654C14.504 13.618 14 13.659 14 12.489 14 11.255 11.15 9 9.59 9c-.297 0-.113 1.125.41 2.5.882 2.319.736 2.5-2.025 2.5-3.733 0-3.857 1.713-.225 3.1 3.888 1.485 8.25 1.922 8.25.827 0-.86-1.759-1.305-4.739-1.197-.682.024-.981-.373-.666-.884.716-1.158 4.334-.111 6.655 1.927.962.845 1.75 1.07 1.75.499 0-.571.788-1.245 1.75-1.496 2.379-.623 3.801-.43 3.5.474-.137.412.248.75.857.75s.85-.67.535-1.49c-.383-.998.239-1.693 1.886-2.106 2.783-.699 2.366-2.404-.587-2.404-2.25 0-2.447-1.511-.691-5.293C27.473 4.073 30 2.962 30 5.059c0 .582.45.781 1 .441 2.38-1.471 3.048.82.905 3.102-2.888 3.073-1.947 3.988 2.002 1.946C36.468 9.224 37 9.19 37 10.352c0 .772.675 1.963 1.5 2.648 2.164 1.796 1.852 3.259-.434 2.035-2.315-1.239-4.385-1.36-3.677-.214.279.451-.379 2.278-1.463 4.06-2.314 3.805-1.892 4.817 2.828 6.789 2.489 1.041 3.82 1.156 4.578.398.757-.757.429-1.068-1.132-1.068-1.21 0-2.2-.436-2.2-.969 0-.532-.629-.727-1.398-.432-.994.382-1.356-.207-1.25-2.03.165-2.867 1.612-3.559 1.711-.819.049 1.341.275 1.224.968-.5.498-1.238 1.621-2.25 2.496-2.25s1.342.403 1.038.895c-.305.493.123 1.155.95 1.472.827.318 1.446.927 1.376 1.355-.716 4.359 1.679 5.839 2.722 1.683.481-1.917.874-2.244 1.504-1.25 1.294 2.042 1.053 4.254-.699 6.404-1.151 1.413-1.447 1.506-1.088.341.367-1.194-.222-1.621-2.32-1.681-2.022-.057-2.962.489-3.342 1.943-.507 1.938-.448 1.949 1.402.275 1.496-1.354 1.931-1.431 1.935-.342.002.773 1.352 2.843 3 4.601 3.542 3.78 3.996 7.304.939 7.304-1.476 0-2.619-1.271-4.047-4.5-2.094-4.733-3.283-5.542-4.29-2.918-.913 2.378-.73 4.612.325 3.96 1.25-.772 4.05 3.341 3.41 5.01-.279.727-1.258 1.094-2.175.816-1.011-.307-.842.013.429.813 1.547.974 2.025 2.17 1.828 4.569-.148 1.788.147 3.25.654 3.25s.922.752.922 1.671.603 2.382 1.34 3.25c1.115 1.314 1.118 1.999.015 4.079-.729 1.375-1.339 2.05-1.356 1.5-.016-.55-.385-.44-.82.245-.435.685-1.982 1.344-3.438 1.464-1.455.121-2.446.419-2.202.663.243.244-1.106 1.947-2.998 3.786C32.648 70.496 31.617 72 32.25 72c.766 0 .816.334.151.999-1.216 1.216-.549 8.21.709 7.433.968-.598 2.582 2.982 3.375 7.485.273 1.547-.207 4.224-1.067 5.948-1.546 3.099-3.077 3.849-8.918 4.368-2.735.243-2.972.024-2.679-2.479.241-2.057-.041-2.607-1.121-2.192-.793.304-1.711-.148-2.04-1.005-.328-.856-1.047-1.557-1.597-1.557s-.72.731-.377 1.624c.534 1.392.213 1.357-2.246-.25L13.57 90.5l3.188-.5c2.434-.382 2.98-.833 2.308-1.909-.485-.775-.619-2.091-.3-2.924.406-1.056.122-1.338-.936-.932-1.186.455-1.408.007-1.015-2.048.456-2.386.575-2.447 1.274-.659.537 1.374.792.523.841-2.809.049-3.33.525-4.924 1.57-5.25 2.237-.699 3.882-1.184 5-1.473.55-.143 2.312-1.795 3.915-3.671 1.603-1.877 3.515-3.182 4.25-2.9.762.292 1.335-.158 1.335-1.05 0-.859-.9-1.798-2-2.085-1.1-.288-2-.947-2-1.466 0-.518-.45-.664-1-.324-.961.594-1.451-1.473-1.042-4.394.108-.766-.401-1.772-1.131-2.234-1.011-.641-.91-.845.423-.857 1.025-.009 1.75-.775 1.75-1.848 0-2.104-2.963-2.273-5.336-.303-1.211 1.005-1.664.973-2.333-.167-.897-1.527-5.453-3.138-11.831-4.185-3.747-.615-3.874-.56-2 .884 1.1.847 3.125 1.567 4.5 1.6C15.474 49.055 24.503 55 22.119 55c-.68 0-.957.453-.615 1.007.343.554-.06 1.269-.895 1.59-1.909.732-10.044-3.71-8.52-4.652.628-.388-.058-.971-1.596-1.357-1.483-.373-4.114-2.005-5.845-3.628-1.731-1.623-3.485-2.953-3.898-2.955-1.301-.008-.812 3.698.647 4.909.798.662 1.159 2.069.842 3.281-.463 1.769-.204 2.029 1.557 1.569 1.874-.49 2.047-.227 1.533 2.342-.689 3.443 1.318 4.024 2.535.734.629-1.702.923-1.838 1.381-.643.321.835 1.975 1.797 3.677 2.137 1.701.341 3.037.967 2.967 1.393-.316 1.94.342 2.074 3.563.729 3.249-1.358 3.613-1.305 6.191.913l2.739 2.356-2.313 1.238c-1.28.685-3.647.971-5.297.641-2.499-.499-2.879-.326-2.343 1.072.423 1.102-.331 2.555-2.222 4.282-3.152 2.879-4.611 6.674-2.959 7.696.669.413.762.171.252-.654-.535-.866-.418-1.068.345-.595.635.392 1.155 1.377 1.155 2.189 0 1.166-.42 1.252-2 .406-2.68-1.434-2.539-.27.25 2.056 1.897 1.583 1.979 1.883.526 1.911-.949.018-2.442 1.419-3.318 3.114-1.008 1.95-2.119 2.879-3.026 2.531C6.645 90.31 6 90.554 6 91.154c0 .734-.476.696-1.456-.118-.801-.664-1.926-.918-2.5-.563-1.488.92-1.298 2.774.206 2.012.687-.348.462.012-.5.801-2.279 1.868-2.219 4.245.167 6.631 2.091 2.091 1.6 3.757-.575 1.952-1.836-1.524-1.69.189.253 2.963.962 1.373 1.357 3.223.996 4.661-.329 1.311-.147 2.664.405 3.005.552.341 1.004 1.482 1.004 2.535 0 1.117 1.251 2.562 3 3.467 1.65.853 3 1.791 3 2.085 0 .293-.45.255-1-.085s-1-.19-1 .334c0 1.704 3.229 2.245 6.653 1.116 1.841-.608 3.347-1.69 3.347-2.405 0-.715.708-1.888 1.573-2.606 2.306-1.913 5.427-8.47 5.427-11.399 0-2.128.487-2.56 3-2.665 4.544-.189 4.612-.212 7.916-2.655C37.612 98.966 39 97.357 39 96.644c0-2.397 4.664-5.885 6.914-5.171 1.716.544 1.899 1.008 1.035 2.622-.577 1.079-1.487 1.69-2.023 1.359-.606-.375-.735.886-.342 3.347.394 2.466.216 4.205-.476 4.632-.61.377-1.108 1.585-1.108 2.685s-.45 1.722-1 1.382c-.593-.367-1 .795-1 2.858 0 1.911-.461 3.704-1.025 3.984-.564.279-.451.394.25.254 1.099-.219 2.494-2.252 4.183-6.096.587-1.336 2.557 1.532 2.577 3.75.009 1.044-.734 1.75-1.841 1.75-1.42 0-1.832.706-1.75 2.998.096 2.714.424 2.998 3.465 3 3.25.002 3.346.116 2.952 3.498-.313 2.68 0 3.627 1.339 4.052.961.305 1.515 1.161 1.231 1.902-.285.741-.037 1.645.551 2.008 1.773 1.096 1.2 2.453-.868 2.054-1.064-.205-2.487.293-3.161 1.105-.989 1.191-1.397 1.226-2.106.18-.685-1.01-.836-.965-.681.203.11.825-.159 2.325-.597 3.334-.633 1.456-.984 1.559-1.703.5-.634-.934-.817-.584-.611 1.166.168 1.419-.184 2.413-.812 2.298-.608-.111-1.674.859-2.368 2.156-1.284 2.399-5.634 3.987-6.608 2.412-1.714-2.773-8.462 2.283-8.394 6.288.013.74 1.001-.341 2.197-2.404 1.195-2.062 2.647-3.736 3.227-3.718 1.691.051 4.042 2.233 5.99 5.563 1.743 2.978 1.743 3.2.02 5.83-1.58 2.412-2.213 2.656-5.367 2.064-4.473-.839-5.026-1.187-6.097-3.841l-.866-2.148-.064 2.25c-.034 1.238.361 2.25.88 2.25.985 0 .774 2.103-.551 5.5-.743 1.906-.697 1.918.985.25 2.1-2.081 2.786-2.156 4.57-.5 1.093 1.015 1.208.968.611-.25-.405-.825.911.216 2.924 2.312 2.731 2.845 3.39 4.138 2.597 5.092-.584.704-.827 1.514-.541 1.801.287.287-1.615.47-4.227.408-4.002-.095-4.947-.506-6.015-2.613-.696-1.375-1.273-1.907-1.281-1.183-.01.859-.708 1.098-2.006.686-1.095-.348-2.501-.317-3.124.068-.659.407 1.008 1.684 3.991 3.055 2.818 1.295 5.124 2.57 5.124 2.833 0 .264-.945 2.293-2.101 4.51-1.661 3.187-2.655 4.024-4.75 3.998-3.782-.048-6.718-2.921-7.422-7.264-.335-2.061-.275-3.542.132-3.29.407.252 1.285-.413 1.949-1.478 1.577-2.525.01-2.496-2.288.042-1.307 1.446-1.635 2.926-1.217 5.5.494 3.045.3 3.523-1.425 3.523-1.205 0-1.725.439-1.312 1.107.458.74 0 .89-1.38.452-2.366-.751-4.104 1.618-4.057 5.532.067 5.563 1.064 10.908 1.935 10.369.515-.318.936-.101.936.481s.338 1.006.75.941c.412-.066 1.425-.059 2.25.015 1.333.119 1.333.243 0 1.118-1.307.858-1.313 1.106-.046 1.92.813.523 2.117.565 2.956.096 1.06-.594 1.814-.208 2.569 1.314.794 1.603 2.149 2.234 5.29 2.462 3.139.229 4.518.87 5.376 2.5 1.478 2.808 2.792 3.659 5.682 3.678 2.882.019 8.173-5.101 8.173-7.908 0-2.299.499-2.379 7-1.116 3.561.692 4.86.551 6.226-.677.95-.853 1.487-1.94 1.193-2.415-.472-.763 3.676.454 5.602 1.644.403.249.436 1.908.072 3.686-.538 2.633-1.26 3.355-3.889 3.893-2.824.578-3.303.363-3.823-1.709-.54-2.155-2.381-2.464-2.381-.401 0 2.018 5.309 7.011 7.339 6.902 2.022-.109 2.033-.147.161-.597-3.407-.82-3.773-2.002-.848-2.736 1.756-.441 2.936-.286 3.17.415.265.794.807.757 1.872-.127 1.23-1.021 1.701-.893 2.617.708.614 1.074 1.275 3.07 1.468 4.434.564 3.984 2.441 4.328 5.471 1.004 2.538-2.784 3.541-6.71 2.808-10.985-.653-3.803-.64-10.598.022-11.5 1.031-1.405 1.51-8.244.638-9.115-.397-.398.007-1.529.899-2.514 1.254-1.386 1.436-2.648.803-5.581-1.209-5.598-.538-9.361 2.26-12.686 1.742-2.071 2.369-3.814 2.08-5.784-.227-1.551-.02-2.82.461-2.82.481 0 1.958-1.169 3.283-2.599 2.072-2.236 3.333-2.629 9.028-2.813 3.64-.118 6.922-.636 7.293-1.151 1.256-1.745 6.969-2.361 11.183-1.207 1.38.378 3.18.256 4-.272 1.322-.849 1.321-1.076-.008-1.988-1.141-.784-.879-.887 1.09-.432 2.047.473 2.944.059 4.273-1.97.926-1.412 2.357-2.568 3.181-2.568.825 0 3.24-1.152 5.368-2.56 2.855-1.89 3.736-3.069 3.362-4.5-.396-1.514.013-1.943 1.859-1.955 1.709-.011 1.99-.255 1.01-.875-.877-.556-1.119-1.701-.685-3.235.503-1.774.417-2.002-.338-.904-1.211 1.762-1.497 1.496-2.92-2.721-.62-1.839-.698-3.25-.179-3.25.504 0 .629-.749.278-1.664-.444-1.156-.263-1.432.59-.905.676.418 1.09 1.955.92 3.415-.261 2.244.077 2.656 2.191 2.667 3.238.017 8.572 2.929 9.422 5.144.625 1.629.554 1.631-1.208.037-2.002-1.812-3.701-2.29-2.767-.779.311.503 0 1.142-.691 1.421-.998.402-.999.522-.006.585.688.043 1.25.515 1.25 1.048 0 .532-.787.685-1.75.339-1.31-.47-1.131.051.714 2.074 1.356 1.487 2.524 3.815 2.597 5.173.072 1.359.313 2.578.535 2.708 5.013 2.943 7.088 3.658 6.55 2.256-.321-.835-.147-1.519.385-1.519.533 0 .969.45.969 1s.734 1 1.632 1c.898 0 3.26.979 5.25 2.175l3.618 2.175-2.25-2.49c-1.238-1.369-2.25-2.849-2.25-3.289 0-.441 1.012-.153 2.25.639s3.15 1.744 4.25 2.117c1.886.638 1.879.577-.131-1.075-1.173-.964-2.973-2.308-4-2.988-1.639-1.083-1.499-1.159 1.131-.62 1.65.338 3.428 1.006 3.95 1.485 1.489 1.365 2.362 1.038 3.055-1.144.351-1.108 1.068-1.749 1.592-1.425.524.324.888.218.809-.236-.403-2.323.233-3.485 1.617-2.953 1.266.485 1.333.229.4-1.514-.862-1.612-.843-1.926.084-1.352.864.533 1.015.14.533-1.38-.371-1.169-.257-2.125.254-2.125s.696-1.238.411-2.75c-.509-2.698-3.875-6.003-5.559-5.458-2.024.657-4.709-1.019-4.2-2.623.435-1.375-.233-1.685-3.792-1.757-2.914-.059-4.321.333-4.321 1.206 0 .712.263 1.142.584.955.321-.186 1.595.044 2.833.512 2.295.868 3.09 4.278 1.261 5.408-.552.341-.742-.03-.431-.84.306-.798.108-1.728-.44-2.066-.548-.339-1.269.244-1.603 1.296-.419 1.319-1.293 1.785-2.822 1.503-1.218-.224-1.653-.141-.967.186.765.363 1.013 1.53.642 3.011-.392 1.563-.177 2.417.609 2.417.668 0 .965.652.659 1.449-.372.969-.076 1.265.893.893.797-.306 1.449-.026 1.449.623 0 .648-1.013 1.078-2.25.955-1.238-.122-3.55.308-5.139.957-1.588.648-3.126.941-3.416.651-.291-.29.052-.528.761-.528 1.015 0 1.032-.309.08-1.456-.664-.801-.918-1.926-.563-2.5.355-.574.183-1.044-.383-1.044-.565 0-.763-.689-.44-1.531.357-.929-.442-2.417-2.031-3.782-1.44-1.238-2.619-2.629-2.619-3.091 0-.463.675-.281 1.5.404 2.287 1.898 4.842-.492 3.402-3.183-.581-1.085-.81-2.613-.51-3.395.361-.941-.14-1.422-1.482-1.422-1.154 0-1.75-.45-1.383-1.044.355-.574.196-1.586-.353-2.25-.738-.89-.208-1.263 2.023-1.424 1.662-.12 3.69-.773 4.507-1.451 1.217-1.01 1.839-.791 3.45 1.218l1.966 2.451-1.439-3c-.966-2.012-1.155-3.757-.574-5.301.62-1.646.541-2.099-.278-1.593-.777.48-.963.015-.58-1.449.31-1.185.155-2.407-.343-2.715-.498-.308-.906-.083-.906.499s-.675 1.059-1.5 1.059-1.5-.45-1.5-1 .675-1 1.5-1 1.5-.477 1.5-1.059.45-.781 1-.441 1 .141 1-.441.836-.272 1.857.691c1.022.962 1.809 2.2 1.75 2.75-.059.55.456.887 1.143.75 1.498-.3 1.671 1.372.234 2.26-.559.346-.758 1.047-.441 1.559.316.512-.153.931-1.043.931-.89 0-1.332.463-.983 1.028.35.566.801 2.331 1.002 3.923.333 2.63.131 2.853-2.199 2.431-2.053-.373-2.441-.141-1.943 1.158.343.893.623 1.812.623 2.042 0 .23.477.418 1.059.418s.77-.468.416-1.04c-.795-1.286 4.413-.168 6.351 1.364.957.755 1.58.647 2.235-.388 1.162-1.836 1.179-2.936.047-2.936-1.495 0-2.226-4.912-1.056-7.098.652-1.218 1.703-1.826 2.577-1.491.863.331 1.21.138.837-.466-.351-.568-.142-1.631.465-2.362.607-.731.833-2.174.503-3.206-.506-1.578-.284-1.518 1.393.373 1.529 1.726 3.079 2.25 6.651 2.25 4.35 0 4.615-.148 4.024-2.25-.496-1.761-.405-1.924.417-.75.578.825 1.057 2.565 1.066 3.867.012 1.911-.387 2.261-2.076 1.819-1.795-.469-2.005-.206-1.488 1.857.47 1.872.269 2.275-.909 1.823-.977-.374-1.512.01-1.512 1.086 0 .916-.419 1.407-.931 1.091-2.193-1.355-2.159 1.883.037 3.572 2.181 1.677 2.221 1.843.444 1.863-1.569.018-1.703.266-.683 1.272 1.016 1.002 1.56.853 2.743-.75.812-1.1 1.907-2.056 2.433-2.125.526-.069 1.434-.181 2.016-.25.582-.069.781-.575.441-1.125-1.044-1.689 1.169-1.106 2.628.692.932 1.15.971 1.451.122.941-.787-.473-1.25-.173-1.25.808 0 .857.45 1.559 1 1.559s.947.338.882.75c-.315 1.993.219 3.306 1.118 2.75 1.295-.8 1.299.801.006 2.094-.547.547-1.094 2.201-1.216 3.676-.122 1.475-.829 2.915-1.569 3.199-.741.284-1.066.973-.721 1.531.345.558-.074 1.283-.931 1.612-.857.329-1.307 1.004-1 1.5.307.496-.143 1.171-1 1.5-.857.329-1.295 1.022-.974 1.541.321.519 1.105.579 1.744.133 1.053-.736 2.778-.852 6.47-.434.72.081 1.031.598.691 1.148-.34.55.136 1 1.058 1 1.167 0 1.521.59 1.167 1.945-.374 1.427.061 2.025 1.633 2.25 1.779.253 2.123.94 2.028 4.055-.138 4.53 1.192 4.946 2.132.666.714-3.249.408-3.196 7.388-1.266 1.612.445 2.185.307 1.736-.42-.824-1.334 2.877-2.645 4.549-1.612.664.411 2.27.793 3.567.85 1.297.057 2.672.609 3.054 1.228.383.619 2.981 1.994 5.775 3.055 3.954 1.502 5.08 1.633 5.08.59 0-.738-.525-1.341-1.167-1.341s-1.167-.613-1.167-1.363c0-.829.718-1.175 1.834-.883 1.008.264 1.833-.032 1.833-.656 0-.7.922-.905 2.403-.533 1.714.43 2.71.077 3.47-1.231.586-1.009 1.08-1.455 1.097-.992.068 1.89-3.597 5.198-5.47 4.938-1.642-.228-1.586-.101.315.713 2.698 1.154 6.947-.63 11.565-4.857 2.656-2.432 2.789-2.462 1.714-.386-.64 1.238-1.599 2.25-2.129 2.25-.531 0-.853.541-.715 1.203.137.662-.65 1.225-1.75 1.25-1.1.026-1.893.593-1.762 1.261.131.668-.365.983-1.102.7-.737-.283-2.092.633-3.011 2.036-.919 1.402-2.508 2.55-3.531 2.55-1.024 0-2.096.901-2.384 2.002-.515 1.97-.477 1.968 2.417-.093 2.623-1.867 3.181-1.941 5.157-.677 2.601 1.664 5.716 2.896 5.716 2.261 0-.245-1.6-1.266-3.557-2.27l-3.556-1.824 2.806-1.438c1.544-.79 4.714-3.436 7.044-5.879 2.331-2.442 4.581-4.074 5-3.625.42.449.182 1.024-.529 1.277-.905.323-.985.83-.266 1.696.775.934 2.261.043 6.108-3.665 3.955-3.812 5.381-4.652 6.427-3.784.927.77 1.546.791 1.993.068.356-.577.171-1.049-.411-1.049-2.355 0-.836-2.066 2.563-3.487 4.735-1.978 5.931-1.911 4.268.237-1.259 1.625-1.206 1.623.734-.025 1.799-1.529 2.254-1.576 3.28-.34.956 1.151.742 1.749-1.079 3.025-1.248.874-2.845 1.59-3.548 1.59-.702 0-1.277.81-1.277 1.8s-.54 2.34-1.2 3c-.66.66-.788 1.2-.284 1.2.503 0 3.068-2.121 5.7-4.712 5.532-5.449 6.725-3.724 1.679 2.427-2.684 3.271-2.564 3.208.881-.46 3.089-3.289 4.225-3.958 5.044-2.971 1.294 1.559-1.502 8.295-4.578 11.029-1.978 1.759-2.085 1.749-3.536-.323-1.046-1.492-1.718-1.779-2.23-.952-.403.652-.112 1.578.646 2.058 1.023.648.798.877-.872.889-1.834.012-2.25.574-2.25 3.036 0 2.255-.636 3.312-2.506 4.164-1.394.635-2.393 1.846-2.25 2.728.199 1.232-.702 1.605-4.025 1.668-2.355.045-4.83.642-5.5 1.328-.971.993-.406 1.097 2.781.512 3.69-.678 3.891-.603 2.59.968-.776.936-2.013 1.471-2.75 1.188-.745-.286-1.34.138-1.34.954 0 .808.415 1.469.923 1.469 1.021 0 5.698-3.625 11.077-8.585 1.925-1.775 4.368-3.382 5.429-3.571 1.857-.331 1.861-.411.129-2.143-1.733-1.733-1.702-1.779.821-1.25 1.442.302 3.746.783 5.121 1.068 3.234.672 3.226-.292-.013-1.524l-2.512-.955 3.512-4.889c1.932-2.69 3.513-5.468 3.513-6.175 0-.913.53-.806 1.829.369 3.962 3.586 3.331 1.394-.815-2.831l-4.403-4.486 3.317.951c1.825.524 4.346 1.625 5.602 2.449 1.983 1.299 2.358 1.305 2.84.05.565-1.473-2.766-3.969-4.153-3.112-.408.252-1.861-.161-3.23-.918-2.921-1.617-1.855-1.931 1.329-.392l2.184 1.057-2.207-1.932c-1.215-1.063-1.927-2.214-1.584-2.557.97-.969 2.026-.746 3.516.744.753.753 2.388 1.692 3.635 2.087 2.081.661 2.162.552.988-1.326-.702-1.125-2.158-2.177-3.234-2.338-2.571-.382-3.249-2.61-1.053-3.453 1.102-.422 2.216.004 3.073 1.177.74 1.011 1.67 1.514 2.067 1.118.396-.397-.404-1.714-1.78-2.927-1.375-1.213-2.314-2.113-2.087-1.999.228.115 1.287-.785 2.354-2 1.35-1.535 2.099-1.826 2.46-.957.285.687 1.087 1.25 1.782 1.25 1.981 0 5.828 3.722 4.62 4.469-.578.357-1.05 1.099-1.05 1.649s.37.772.822.492c.934-.577 3.744 2.373 3.704 3.89-.014.55 1.273 1.148 2.861 1.33 2.536.289 2.819.064 2.318-1.849-.484-1.852-.242-2.091 1.613-1.594 1.2.322 2.996.592 3.991.599.995.008 1.573.396 1.285.863-.55.888 3.309 5.582 4.011 4.879.949-.949-2.823-6.552-4.75-7.056-1.65-.431-2.003-1.119-1.615-3.148.332-1.738-.07-2.997-1.217-3.81-1.198-.849-1.733-2.683-1.779-6.1-.065-4.714-2.111-8.074-3.244-5.327-.87 2.112-2.945 1.789-3.483-.543-.767-3.316.167-8.224 2.329-12.244.296-.55-.165-.431-1.025.265-1.363 1.103-1.516.866-1.199-1.857.47-4.038-.374-5.357-2.372-3.707-1.396 1.154-1.427 1.068-.28-.774 1.278-2.054 3.499-2.491 5.712-1.123.631.389 1.375.143 1.654-.548.405-1.006.522-1.005.585.004.043.693-.774 1.99-1.817 2.883-1.675 1.434-1.747 1.976-.619 4.658.919 2.187 1.987 3.067 3.818 3.147 1.399.061 2.329-.234 2.068-.657-.261-.422.223-.5 1.077-.173.854.328 1.552 1.464 1.552 2.524 0 1.664.295 1.77 2.152.777 1.79-.958 2.055-.901 1.578.343-.737 1.921 1.078 3.749 2.993 3.014.813-.312 1.877.061 2.363.828.631.998.888 1.039.899.146.008-.687 1.102-1.25 2.432-1.25 1.329 0 2.586-.51 2.794-1.134.249-.747.926-.586 1.984.472 1.281 1.281 1.82 1.349 2.659.338.579-.697 1.066-2.147 1.082-3.222.016-1.075.117-4.204.224-6.954.378-9.686-.134-16.634-1.176-15.99-.559.346-.758 1.047-.441 1.559.316.512.098.931-.484.931S330 85.482 330 86.071c0 .59-.675 1.747-1.5 2.572-1.317 1.317-1.679 1.321-2.964.036-.806-.806-1.593-2.058-1.75-2.783-.157-.725-.981-2.109-1.831-3.075-1.215-1.383-2.175-1.57-4.5-.875l-2.955.882 2.857.086c2.211.067 2.716.454 2.233 1.713-.344.894-.112 2.244.515 3 .858 1.033.832 1.744-.105 2.873-.685.825-.91 1.5-.5 1.5.41 0 .185.675-.5 1.5s-1.752 1.464-2.372 1.421c-.813-.057-.808-.21.021-.549 1.376-.564-.971-5.899-2.924-6.645-.841-.321-1.122-2.487-.898-6.905.264-5.212.72-6.683 2.395-7.728 1.95-1.218 2.033-1.121 1.469 1.701-.527 2.634-.357 2.93 1.412 2.468 1.148-.3 1.792-1.094 1.501-1.851-.392-1.024.05-1.114 1.944-.394 1.672.636 2.452.586 2.452-.156 0-.654 1.265-.903 3.163-.625 4.1.602 7.161-1.763 5.733-4.431-.544-1.016-.735-2.257-.426-2.758.309-.5.105-1.192-.454-1.538-.57-.352-1.016.334-1.016 1.566 0 2.142-.047 2.134-2-.349-2.17-2.758-2.586-4.727-1-4.727.55 0 1.866-.866 2.924-1.924 1.43-1.43 2.05-3.808 2.41-9.25.266-4.03.264-6.767-.006-6.084-.368.935-.996.971-2.537.146-1.908-1.021-2.015-.867-1.557 2.253.422 2.874-.328 5.13-2.911 8.755-.155.218-2.091-.801-4.303-2.264-3.928-2.6-4.02-2.793-4.02-8.48 0-3.2-.324-6.143-.721-6.54-.397-.396-1.488 1.535-2.425 4.293-1.834 5.395-.989 9.564 2.146 10.588 2.28.745 6.919 7.026 8.501 11.511.776 2.198 1.15 3.996.832 3.996-.318 0-.018.675.667 1.5 1.017 1.225.956 1.5-.331 1.5-.906 0-2.422-1.913-3.566-4.5-2.255-5.099-3.292-5.81-2.551-1.75.574 3.142-.791 5.838-2.44 4.819-.612-.378-1.127-2.123-1.145-3.878-.019-1.755-.878-4.203-1.911-5.441-1.882-2.256-3.728-3.147-2.541-1.226 1.035 1.674-.557 6.976-2.094 6.976-.782 0-1.421-.62-1.421-1.378 0-.757-.689-1.949-1.532-2.648-1.342-1.114-1.408-.947-.538 1.342 1.077 2.832.174 4.045-2.302 3.095-1.845-.708-2.502-2.822-2.146-6.911.368-4.239.427-4.283 2.018-1.5 1.411 2.468 1.43 2.472 1.465.25.019-1.237.443-2.25.941-2.25.499 0 .665-.923.37-2.052-.47-1.796-.204-1.968 2.134-1.381l2.671.67-1.721-3.608c-.946-1.985-2.539-3.868-3.538-4.186-3.827-1.214-3.313-6.141 1.456-13.943.672-1.1 1.296-2.149 1.386-2.331.091-.182 1.116.178 2.278.8 1.252.67 1.82 1.621 1.394 2.331-.433.721-.045.652.972-.172 1.766-1.433 2.343-2.648.805-1.698-.487.301-1.409-.082-2.048-.852-.848-1.021-.861-1.586-.049-2.088.613-.379.998-1.881.855-3.339-.274-2.814 1.752-7.501 2.929-6.775.385.238.771-.744.857-2.182.113-1.881-.077-2.195-.68-1.118-.487.871-2.016 1.411-3.657 1.291a231.349 231.349 0 0 0-4.564-.286c-1.938-.09-1.87-1.956.23-6.31.939-1.947 1.047-3.666.379-6L308.428.5 295.214.221 282-.058v3.151c0 2.701-.217 2.972-1.513 1.896-.832-.691-1.395-1.983-1.25-2.872.222-1.364-.949-1.636-7.487-1.74-4.511-.071-7.75.29-7.75.864 0 .542 1.35.788 3 .546 3.462-.508 3.94.64.936 2.247C265.634 5.266 263 3.848 263 1.378 263 .62 262.195 0 261.211 0c-1.295 0-1.779.76-1.75 2.75.028 1.988-.377 2.625-1.461 2.3-.825-.247-3.3-.531-5.5-.63-3.38-.152-3.988-.508-3.921-2.3.116-3.076-4.278-2.959-4.873.13-.43 2.23-.435 2.229-.57-.113-.122-2.113-.481-2.297-3.386-1.734-4.546.882-4.828.883-8.75.033l-3.5-.759 3.25 3.352c1.787 1.843 3.25 3.689 3.25 4.103 0 .414.931.574 2.069.355 1.294-.25 1.92.053 1.672.807-.218.663-2.274 1.344-4.569 1.513-3.242.239-4.172-.039-4.172-1.25 0-2.032-.948-1.937-3.988.399l-2.489 1.912 2.764 1.051c1.52.578 3.025 1.73 3.343 2.56.319.83.982 1.261 1.475.956.492-.304.902.261.91 1.256.012 1.435.198 1.521.899.413 1.335-2.107 4.086-.515 4.086 2.365 0 1.392.45 2.531 1 2.531s1 .648 1 1.441c0 1.905 1.282 2.621 2.901 1.62 1.01-.624 1.048-1.288.167-2.934-.775-1.449-.8-2.127-.078-2.127 1.093 0 3.01 4.112 3.01 6.457 0 .729-1.762 2.031-3.915 2.892-2.153.862-4.221 2.062-4.595 2.667-1.162 1.88-1.205 11.983-.051 11.999 1.059.016-1.412 1.941-2.528 1.97-.579.015-.77-2.78-.84-12.235-.022-3.134-.466-4.761-1.303-4.782-.796-.02-.617-.526.482-1.36.963-.731 1.734-1.729 1.714-2.218C232.831 22.101 221.49 14 217.019 14c-1.032 0-2.551-.675-3.376-1.5-.825-.825-1.913-1.5-2.417-1.5-1.553 0-4.46-3.812-3.765-4.937.865-1.399 5.232-1.368 6.105.044.476.771.937.695 1.518-.25.459-.746 3.178-1.81 6.044-2.363 2.865-.553 5.401-1.58 5.634-2.28.579-1.736-20.695-1.353-22.494.404-1.395 1.363-5.268.7-5.268-.901 0-.578-.289-.761-.643-.408-.353.354-.085 1.313.595 2.133.68.82 1.028 2.068.773 2.774s.142 1.983.882 2.837c1.986 2.291.722 12.161-1.502 11.718-1.145-.227-1.613-1.459-1.632-4.295-.031-4.441-2.498-10.501-5.496-13.499C190.487.487 188.645 0 184.5 0c-3.204 0-5.5.442-5.5 1.059 0 .582-.421.799-.935.481-.515-.318-2.653.39-4.75 1.573-2.098 1.183-5.39 2.734-7.315 3.448l-3.5 1.298 3 .177a381.8 381.8 0 0 1 4.912.32c1.052.079 2.098.693 2.324 1.364.466 1.385-5.365 5.271-7.919 5.276-.925.002-1.976.93-2.335 2.061-.777 2.447-4.047 2.18-3.848-.315.073-.924-.714-1.95-1.75-2.279-1.036-.329-1.884-1.017-1.884-1.53 0-2.064-.202-2.467-1.644-3.274-1.006-.563-1.927-.261-2.785.913-.769 1.052-1.937 1.502-2.919 1.125-1.552-.596-5.652 2.637-5.652 4.456 0 .427-.881 1.248-1.958 1.825-1.578.844-2.165.661-3.022-.941-.914-1.707-.564-2.312 2.463-4.263 3.335-2.149 3.495-2.502 2.921-6.441-.555-3.818-.409-4.197 1.745-4.522 1.293-.194 4.385-.005 6.87.421 3.002.515 6.024.324 9-.566C164.263.396 163.707.318 149.5.194c-12.665-.11-14.728.076-13.25 1.198 1.898 1.441 2.355 3.608.762 3.608-.544 0-.881 1.013-.75 2.25.198 1.87-.314 2.303-3.031 2.565-1.798.173-3.038.688-2.756 1.145.283.457-.182 1.097-1.033 1.424-1.049.402-1.307.195-.802-.645.493-.821.172-.775-.948.133-1.299 1.054-2.017 1.103-3.095.209-1.077-.894-1.535-.864-1.974.127-.314.711-.47-.212-.348-2.051.204-3.056-.109-3.458-3.645-4.673-2.127-.732-4.489-1.092-5.249-.8-.822.315-1.381-.121-1.381-1.077 0-.884-.702-1.607-1.559-1.607s-1.281-.45-.941-1c.393-.635-2.343-1-7.5-1-5.043 0-7.889.371-7.513.979.72 1.164-1.278 5.252-2.287 4.682-1.243-.701-6.69 2.947-7.031 4.709-.182.939.627 3.544 1.797 5.789 1.17 2.245 1.915 4.293 1.656 4.552C86.891 22.443 78 15.914 78 12.911c0-1.051-.338-1.84-.75-1.752-.412.087-1.557-.194-2.543-.624-.986-.43-2.056-.519-2.377-.198-.817.817-6.33-2.163-6.33-3.422 0-.568-.452-.754-1.004-.413s-.736 1.686-.409 2.987c.326 1.302.298 3.299-.064 4.439-.68 2.142-3.934 2.835-5.025 1.069-.412-.667-1.269-.655-2.559.035-2.338 1.252-2.609 3.162-.324 2.285 1.318-.505 1.479-.176.876 1.782-1.066 3.461-1.304 3.545-4.637 1.632-3.548-2.036-5.274-2.233-4.221-.481.516.86.226.824-.93-.113-2.104-1.706-1.689-2.362 3.938-6.234 3.326-2.288 4.836-2.826 5.649-2.013 2.061 2.061 3.978 1.293 3.465-1.39-.277-1.452-.012-2.503.634-2.506.611-.004 1.819-1.252 2.685-2.774.892-1.57 2.528-2.84 3.778-2.934 2.989-.225 8.717 2.244 7.274 3.136C74.507 5.805 74 6.553 74 7.084c0 1.325 4.911 3.089 6.268 2.251.69-.427.38-.962-.834-1.437-1.822-.714-1.811-.761.199-.828a2.837 2.837 0 0 0 2.677-2.149c.405-1.546.165-1.933-.935-1.511-.813.312-1.26.213-.993-.219.267-.433.073-1.44-.433-2.239-.741-1.171-.921-1.187-.934-.08-.01.937-.412 1.072-1.265.424C77.063.774 71.945.243 66.378.116l-10.123-.23.507 2.807c.278 1.544.987 3.413 1.574 4.153.846 1.066.558 1.269-1.384.976-1.349-.203-2.353-.879-2.233-1.503.317-1.64-1.745-1.1-6.26 1.638-5.39 3.268-6.259 3.29-8.217.209C39.31 6.7 37.975 5.14 37.274 4.7 36.573 4.26 36 3.015 36 1.934 36 .141 35.385-.01 29.044.233 22.184.496 22.096.535 22.672 3c.952 4.074.902 4.365-.815 4.743-1.113.246-2.24-.935-3.5-3.665C16.579.222 16.302.051 11.821.026 8.902.01 6.561.582 5.595 1.548m321.125.415c-.283 1.08.125 2.494.906 3.141.78.648 1.18 1.932.887 2.854-.316.995.449 2.597 1.883 3.944 2.412 2.266 2.416 2.267 3.074.192.363-1.142.322-2.621-.089-3.287-.412-.665-.647-2.919-.524-5.009.211-3.583.058-3.798-2.7-3.798-2.064 0-3.075.577-3.437 1.963M101.75 4.077c-2.064 1.206-2.225 2.592-.5 4.314 1.5 1.497 5.991 2.808 5.192 1.516-.308-.499-.131-.907.393-.907s.889-1.125.809-2.499c-.079-1.375-.445-2.5-.812-2.5-.368-.001-1.268-.214-2-.474-.733-.26-2.119-.013-3.082.55M184 4.5c0 .825-.46 1.5-1.021 1.5-.562 0-1.528 1.111-2.147 2.469-.618 1.357-1.509 2.231-1.978 1.941-.47-.291-.854-.16-.854.29 0 .451.819 1.331 1.82 1.956 1.369.854 1.769 2.209 1.612 5.453-.116 2.374-.71 4.484-1.321 4.687C179.5 23 179 23.831 179 24.642c0 .812.45 1.198 1 .858.55-.34 1 .187 1 1.17 0 1.521.351 1.418 2.353-.691 1.568-1.652 1.985-2.724 1.25-3.214-.682-.454-.435-.74.647-.75.963-.008 1.75-.638 1.75-1.398 0-.761.9-1.619 2-1.907 2.721-.711 2.538-2.388-.25-2.289-1.641.057-2.342-.569-2.588-2.312-.26-1.842.026-2.251 1.25-1.781 1.129.433 1.588.023 1.588-1.418 0-1.294.453-1.799 1.25-1.395.688.348.376-.075-.691-.941C188.491 7.708 187.945 7 188.344 7c.4 0 .245-.9-.344-2-1.251-2.338-4-2.681-4-.5m119.955 2.691c-.025 1.27-.707 3.659-1.515 5.309-.809 1.65-1.244 2.189-.967 1.198.29-1.036.084-1.542-.484-1.191-1.103.682-1.336 3.813-.356 4.792.348.348 1.5-.47 2.56-1.817 2.326-2.958 3.484-8.945 1.917-9.914-.688-.425-1.127.193-1.155 1.623M253.643 8.5c-.825.825-1.982 1.5-2.572 1.5-.589 0-1.071.47-1.071 1.044 0 .574-.627.911-1.393.75-1.337-.282-6.641 4.564-6.575 6.008.059 1.292 2.453 3.816 4.266 4.497 1.478.555 1.675 1.344 1.106 4.438-.38 2.07-1.121 3.928-1.646 4.129-1.291.495 6.924 4.113 10.158 4.473 1.421.158 3.838.902 5.371 1.652 2.441 1.194 2.995 1.155 4.464-.314 1.57-1.569 1.566-1.677-.057-1.677-.953 0-3.516-1.125-5.694-2.5s-4.236-2.5-4.572-2.5c-.337 0-1.596-.788-2.799-1.75-2.276-1.822-2.417-5.25-.216-5.25.696 0 1.804-1.18 2.461-2.623 1.123-2.464 1.053-2.596-1.159-2.173-1.815.347-2.324.027-2.22-1.393.075-1.013.634-2.34 1.242-2.948.609-.609.891-1.668.628-2.353-.263-.686.447-1.489 1.578-1.785 1.132-.296 2.057-1.03 2.057-1.631 0-1.549-1.595-1.356-3.357.406M93.222 11.232c-.663.799-.885 1.772-.494 2.163.391.391-.063.414-1.008.051-2.669-1.024-2.189 3.176.691 6.056 1.326 1.326 2.712 3.78 3.079 5.454C95.858 26.63 96.573 28 97.079 28c.507 0 .921.679.921 1.51 0 .83.9 2.28 2 3.222 1.1.942 2 2.412 2 3.268 0 .856.936 2.357 2.079 3.336 2.231 1.91 5.583 1.816 5.171-.145-.137-.655.2-1.191.75-1.191 2.133 0 .864-2.817-1.541-3.421-1.523-.382-2.265-1.085-1.851-1.753.46-.745-.126-.96-1.762-.647-1.349.257-3.008-.127-3.688-.855-.68-.728-.939-1.324-.575-1.324s.135-.635-.509-1.411c-.758-.913-.818-1.629-.17-2.03.554-.342.91-3.946.798-8.077-.207-7.629-1.429-9.783-4.232-7.458-.906.753-1.387.726-1.659-.092-.263-.789-.763-.695-1.589.3m20.428-.523c-1.412.363-1.747 1.175-1.417 3.428.239 1.623.059 3.183-.4 3.466-.458.283-.833 1.869-.833 3.523 0 2.668.255 2.927 2.25 2.284 1.237-.398 2.783-.729 3.433-.734.651-.005 1.47-1.148 1.819-2.541.503-2.002.827-2.228 1.551-1.083.68 1.075.92 1.112.932.146.017-1.498-4.234-9.237-4.985-9.074-.275.059-1.332.322-2.35.585m147.959 1.712c-.334 1.331-.334 3.131-.001 4 .333.868.143 1.579-.423 1.579-.567 0-1.55 1.575-2.185 3.5-.703 2.131-1.809 3.506-2.828 3.515-1.445.014-1.468.147-.172.985 1.959 1.266 5.292 1.282 4.513.021-.332-.538.328-2.24 1.468-3.781 2.681-3.626 3.9-12.24 1.732-12.24-.823 0-1.77 1.089-2.104 2.421M66 12.914c0 .503 1.575 2.536 3.5 4.518 1.925 1.983 3.5 4.195 3.5 4.917 0 .722 1.141 1.924 2.535 2.67 1.495.8 2.315 1.928 2 2.75-.294.767-.535 1.834-.535 2.372 0 .537-.562.653-1.25.257-.687-.396-.159.477 1.174 1.941C79.652 35.333 81 35.717 81 33.5c0-.825.45-1.5 1-1.5s1-.723 1-1.607c0-1.018.55-1.396 1.5-1.031.888.341 1.5.01 1.5-.81 0-.762.563-1.62 1.25-1.906.822-.342.307-1.256-1.505-2.67-1.515-1.183-2.505-2.556-2.198-3.052.306-.495-.054-.667-.8-.381-.746.287-2.907-.611-4.802-1.995C69.153 12.127 66 10.641 66 12.914m82.695 6.753c2.666 3.495 2.688 3.608.465 2.419-3.203-1.715-3.767-.729-1.038 1.813 2.086 1.944 6.804 2.842 8.103 1.543.886-.886-.356-4.479-1.339-3.872-.487.302-.886.071-.886-.511 0-1.804-3.893-5.059-6.051-5.059-1.932 0-1.889.212.746 3.667m22.199-3.228c-.241.242-1.627.655-3.079.918-3.747.68-6.974 2.576-6.284 3.693.323.523 1.071.95 1.662.95 1.924 0 5.805 5.433 5.806 8.128.001 3.157 1.995 5.112 3.97 3.891.994-.614 1.105-1.253.379-2.193-.562-.729-.899-4.588-.747-8.576.243-6.403-.229-8.288-1.707-6.811m42.429 1.895c-4.103 2.24-3.737 4.485 1.476 9.063 4.421 3.881 6.771 4.403 4.547 1.009-.867-1.323-1.23-2.406-.806-2.406.423 0-.045-.9-1.04-2-2.296-2.537-1.446-2.523 3.616.059 3.1 1.582 4.357 1.794 5.416.914.759-.63 1.85-.855 2.424-.5.574.355 1.044.178 1.044-.394 0-1.37-7.652-5.4-11.677-6.149-1.747-.325-3.997-.144-5 .404m60.913-.217c-.405.379-1.604.845-2.665 1.036-1.884.339-1.885.39-.057 2.218 1.828 1.828 1.916 1.817 3.811-.5 1.067-1.304 2.33-2.258 2.807-2.121.478.137.868-.172.868-.688 0-1.052-3.626-1.011-4.764.055m-171.342.633c-.7 4.953 1.773 10.692 4.011 9.309 1.67-1.032.498-5.059-1.472-5.059-.788 0-1.433-.45-1.433-1s.436-1 .969-1c.532 0 .709-.675.393-1.5-.597-1.554-2.282-2.067-2.468-.75m26.51.002c-1.476 1.007-2.709 6.248-1.47 6.248 1.263 0 4.529 6.87 3.673 7.726-.36.36-2.887.601-5.615.534-5.472-.134-7.073 1.087-4.63 3.531 1.465 1.464 1.892 1.458 5.101-.072 1.926-.918 4.186-1.407 5.022-1.087 2.553.98 6.516-.466 5.873-2.142-.333-.866-.004-1.496.785-1.505 1.125-.013 1.128-.16.023-.861-1.076-.682-1.031-.962.233-1.447.912-.35 1.321-1.244.977-2.139-.324-.846-.092-1.538.517-1.538 3.522 0-2.087-6.464-6.393-7.367-1.65-.346-3.493-.293-4.096.119m-67.221 1.527c-.631.76-1.267 2.421-1.415 3.692-.472 4.068 12.163 9.258 13.575 5.576.331-.862-.53-2.245-2.118-3.402-1.566-1.14-2.686-2.923-2.701-4.297-.019-1.885-.632-2.407-3.109-2.649-1.742-.17-3.584.3-4.232 1.08M0 21.55c0 .706 3.617 1.649 9.25 2.411 5.987.81 11.433 2.272 15.437 4.145C28.09 29.698 31.39 31 32.02 31c2.013 0 .421-2.448-2.6-4-1.606-.825-3.07-1.837-3.253-2.25-.184-.413-.949-.75-1.701-.75-.751 0-1.789-.755-2.305-1.677-1.05-1.876-5.313-2.59-6.301-1.055-.419.65-3.268.67-8.25.057-5.645-.694-7.61-.636-7.61.225m49.365 5.091c.17 2.964 1.635 3.129 1.635.185v-2.175l2.496 2.345c1.373 1.29 2.294 2.547 2.048 2.794C54.059 31.274 67.476 38 71.921 38c1.473 0 3.189.51 3.812 1.133 1.582 1.582 4.163.362 3.843-1.816-.292-1.989-3.245-2.434-5.518-.833-1.068.752-1.247.691-.69-.236.91-1.515-2.087-2.801-8.158-3.5-4.508-.52-5.695-1.158-5.732-3.081-.013-.642-.835-1.027-1.828-.855-1.14.196-2.004-.448-2.344-1.75-.297-1.134-.824-2.119-1.173-2.19-4.007-.807-4.897-.477-4.768 1.769m94.099-.699c.313.506.108 1.205-.455 1.553-.64.395-.408 1.249.617 2.274 1.075 1.075 1.25 1.772.508 2.02-1.835.611-1.298 2.211.744 2.211 3.173 0 4.28-3.092 3.203-8.941-.044-.243-.789.432-1.655 1.5-.866 1.067-1.319 1.426-1.006.796.313-.63-.127-1.412-.978-1.739-.85-.326-1.29-.179-.978.326m47.604 1.962c-2.44 3.427-2.585 4.232-.629 3.481 1.033-.396 1.652.529 2.196 3.281.416 2.109.641 4.622.498 5.584-.142.962.252 1.75.876 1.75.779 0 .953-1.707.556-5.437-.329-3.083-.162-5.694.384-6.032.53-.327.682-1.329.337-2.227-.418-1.091-.238-1.392.544-.909.644.398 1.17.295 1.17-.229 0-.791-2.231-2.166-3.514-2.166-.192 0-1.28 1.307-2.418 2.904m-30.642.77c-1.694 1.828-2.153 2.999-1.452 3.7.564.564 1.026 1.836 1.026 2.826s.675 1.8 1.5 1.8 1.503-.562 1.506-1.25c.004-.687.659-2.501 1.457-4.031 1.456-2.791 1.14-5.719-.618-5.719-.517 0-2.056 1.203-3.419 2.674m-74.391 2.26c-1.55 2.897-1.272 4.04 1.215 4.991 1.701.65 2.799.356 4.5-1.207 2.639-2.424 2.879-4.262.668-5.111-2.925-1.123-5.341-.62-6.383 1.327m116.632-1.267c-1.49 1.489-.515 2.512 1.833 1.922 1.442-.361 2.5-.196 2.5.392 0 .56-.661 1.019-1.469 1.019-.894 0-1.243.586-.893 1.5.365.95-.013 1.5-1.031 1.5-2.833 0-1.72 1.926 2.015 3.487 4.786 1.999 6.378 1.908 6.378-.365 0-1.032.675-2.437 1.5-3.122 1.838-1.525 1.863-2.122.182-4.42-1.253-1.714-1.402-1.717-3.062-.057-1.659 1.659-1.817 1.64-3.239-.389-1.489-2.126-3.447-2.735-4.714-1.467M2 31.5c0 .825-.464 1.5-1.031 1.5-.568 0-.934 1.462-.814 3.25l.218 3.25 7.564-.232c8.021-.246 12.433.324 11.699 1.511-.452.732.033.797 11.128 1.491 5.958.372 6.233.29 5.637-1.689-.344-1.145-1.025-2.508-1.513-3.031-.489-.522-.888-1.985-.888-3.25 0-3.213-1.714-2.878-2.451.479-.627 2.85-3.944 5.713-5.504 4.749-.481-.297-1.102.025-1.381.716-.402.998-.522.999-.585.006-.043-.687-.732-1.25-1.529-1.25-.798 0-1.915-.788-2.482-1.75-.9-1.526-1.16-1.558-2.034-.25-.819 1.224-1.006 1.086-1.019-.75C17.007 35.013 16.55 34 16 34c-.55 0-1 .922-1 2.05 0 1.788-.506 1.999-3.962 1.654-2.179-.218-4.583-.912-5.342-1.542-.759-.629-1.729-.811-2.155-.403-.426.407-.461-.721-.078-2.509.447-2.089.31-3.25-.384-3.25C2.486 30 2 30.675 2 31.5m147.75.892c-.963.731-1.75 1.841-1.75 2.468s-.675 1.14-1.5 1.14-1.5.702-1.5 1.559-.45 1.281-1 .941c-.55-.34-.999-.029-.998.691.003 2.111 5.706 1.914 9.508-.329 3.976-2.346 4.063-2.599 1.933-5.639-1.792-2.56-2.298-2.649-4.693-.831m34.262 1.6c-.678.42-2.053.549-3.055.287-1.476-.386-1.709-.046-1.229 1.791.455 1.739.244 2.133-.907 1.692-1.175-.451-1.529.326-1.63 3.581-.108 3.437.081 3.889 1.089 2.61.671-.85 2.683-2.142 4.47-2.871 1.787-.729 3.25-1.912 3.25-2.63s.695-1.451 1.544-1.629c1.294-.271 1.233-.587-.377-1.958-1.08-.919-2.461-1.301-3.155-.873m58.324-.323c.367.368-.027 1.437-.877 2.376-1.841 2.035-3.175 8.955-1.725 8.955 1.986 0 6.266-4.193 6.266-6.138 0-2.616-1.773-5.862-3.202-5.862-.622 0-.83.301-.462.669m-23.086 2.43c-1.787 1.154-3.25 2.924-3.25 3.934 0 5.179 4.725 11.113 8.137 10.221 2.673-.699 5.129-5.058 4.427-7.856-.333-1.327-1.834-3.759-3.335-5.405l-2.729-2.991-3.25 2.097m105.636 1.818c1.862 1.695 3.737 3.083 4.168 3.083.43 0 1.494.273 2.364.607 1.193.458 1.582-.034 1.582-2 0-1.434-.477-2.607-1.059-2.607s-.77.468-.416 1.04c.85 1.375-4.198.207-7.525-1.742-1.816-1.064-1.573-.621.886 1.619M98 37.059c0 .582-.483.76-1.074.395C94.993 36.26 91 41.085 91 44.615c0 3.92 1.499 5.189 2.943 2.491.574-1.073 1.83-2.736 2.791-3.697C98.218 41.925 99.536 36 98.383 36c-.211 0-.383.477-.383 1.059m66.25 1.904c-2.746 3.482-2.783 4.244-.317 6.476 3.518 3.184 10.067.154 10.067-4.658 0-1.314-4.96-4.836-6.654-4.726-.465.031-1.858 1.339-3.096 2.908m-81.273 1.06c-2.466 2.466-2.546 5.602-.173 6.872 2.555 1.368 4.176.001 4.838-4.078.711-4.382-1.658-5.801-4.665-2.794M54 41.645c0 2.745 1.792 4.06 2.614 1.918.815-2.124 2.546-1.988 2.18.172-.218 1.286.417 1.751 2.452 1.797 1.825.04 2.412-.274 1.75-.936C62.448 44.048 62 42.79 62 41.8c0-1.814-.252-1.921-5.25-2.225-2.231-.136-2.75.255-2.75 2.07m75.667-1.978c-.367.366-.667 1.951-.667 3.521 0 3.711 3.744 5.705 7.5 3.994 2.385-1.087 2.501-.99 2.515 2.089.026 5.47.982 6.128 6.603 4.545 5.933-1.671 6.952-4.436 2.83-7.679-2.048-1.61-3.099-1.859-4.555-1.08-1.041.557-1.9.66-1.908.228-.009-.432-.396-.185-.861.549-.684 1.078-.96 1.036-1.441-.218-.328-.854-.165-1.818.361-2.143 1.682-1.04 1.023-2.724-.873-2.228-1.006.263-2.667-.134-3.691-.883-1.993-1.458-4.725-1.784-5.813-.695m-14.423.997c-.691.279-1.002.918-.691 1.421.311.503.128.915-.406.915-1.037 0-.895 3.981.205 5.76.363.588.095 1.297-.596 1.576-.691.278-.356.527.744.553 1.1.026 2.783-.547 3.739-1.273 1.894-1.438 5.53-9.209 3.812-8.148-.578.358-1.051.173-1.051-.409 0-1.077-3.473-1.315-5.756-.395m37.105.726c-.71.811-.812 1.848-.265 2.712.487.769.892 2.411.901 3.648.017 2.539.834 2.745 4.417 1.113 1.881-.857 2.447-1.819 2.297-3.903-.109-1.521-.489-2.587-.844-2.368-.355.218-.903-.276-1.219-1.098-.702-1.83-3.723-1.89-5.287-.104m-82.547 2.097c-.918 1.217-1.508 3.068-1.312 4.113.196 1.045.391 2.237.433 2.65.112 1.095 4.855.919 5.55-.206.325-.526 1.194-.725 1.931-.442.863.331 1.537-.486 1.891-2.294.647-3.298.084-4.052-3.877-5.188-2.447-.702-3.23-.47-4.616 1.367m113.639.981c-1.977 1.977-2.377 3.201-2.01 6.156.445 3.59 2.158 5.748 3.771 4.751.439-.271.798-.016.798.566 0 1.489 1.648 1.32 5.646-.577 2.226-1.057 3.322-2.208 3.092-3.25-.196-.888-.912-1.495-1.59-1.35-.939.201-.971-.225-.135-1.787 1.178-2.202.407-6.355-1.016-5.475-.472.292-1.141.073-1.487-.486-1.107-1.792-4.528-1.089-7.069 1.452m18.917-1.776c-1.552.303-2.002.954-1.633 2.363.279 1.07.906 1.945 1.392 1.945.485 0 .883.408.883.906 0 .499-.9.671-2 .384-1.361-.356-2.048-.007-2.15 1.093-.083.89-.195 2.137-.25 2.772-.099 1.143 2.311 1.995 5.606 1.983.938-.004 3.032-1.492 4.653-3.306l2.948-3.3-2.894-2.766c-1.592-1.521-3.236-2.705-3.654-2.63-.417.075-1.723.325-2.901.556m-103.573 5.88c-1.376 3.02-.011 4.388 4.406 4.413 3.368.019 4.094-1.106 2.841-4.401-1.356-3.567-5.624-3.574-7.247-.012m-49.432.288c-1.824 1.524-2.068 2.533-1.626 6.717.316 2.98 1.33 5.811 2.571 7.173 2.336 2.563 4.702 2.956 4.702.781 0-.894-.586-1.243-1.5-.893-2.225.854-1.953-5.431.388-8.982 3.479-5.276.196-8.748-4.535-4.796m35.852.509c-2.34 1.274-5.661 6.509-4.723 7.446.285.285.518.132.518-.339 0-.472.631.005 1.403 1.06 1.164 1.592 1.884 1.749 4.232.923 3.969-1.395 5.451-5.829 2.816-8.42-1.667-1.639-2.286-1.737-4.246-.67m86.794-.368c-.725.448-1.849.61-2.498.361-1.673-.642-3.845 2.276-2.862 3.844.446.712.671 2.143.5 3.182-.354 2.147 1.4 3.574 4.42 3.597 3.348.025 5.466-2.236 5.776-6.163.232-2.949-.136-3.866-1.865-4.654-1.185-.54-2.747-.615-3.471-.167m58.978 2.022c-2.091 2.091-1.907 3.068 1.366 7.227 1.929 2.451 6.32 2.248 7.714-.357.763-1.425.8-2.436.114-3.122-.558-.558-.807-1.555-.554-2.215.425-1.109-3.472-3.556-5.664-3.556-.524 0-1.863.91-2.976 2.023M60.75 53.896c-2.672 2.603-3.635 6.439-1.888 7.519.474.293 2.734-.203 5.021-1.101 4.915-1.931 6.623-5.74 3.573-7.97-2.485-1.817-3.487-1.585-6.706 1.552m93.905-1.298c-2.187 1.203-2.711 2.067-2.264 3.734.32 1.192.588 2.454.595 2.803.008.349 1.169 1.392 2.581 2.317 1.85 1.212 2.923 1.386 3.842.624.701-.582 1.549-.784 1.884-.449.895.894 1.915-3.93 1.535-7.256-.396-3.468-3.763-4.198-8.173-1.773m-32.905-.023c-1.314 1.328-.878 5.608.5 4.91.688-.348.472.005-.479.786-1.623 1.331-1.588 1.552.564 3.574 2.846 2.674 5.233 2.716 9.415.166 5.85-3.567 3.632-8.554-4.25-9.557-2.75-.351-5.338-.296-5.75.121m-47.715 2.359c-2.182 4.077.101 8.258 3.166 5.799 1.189-.954 1.334-1.968.639-4.483-1.019-3.692-2.297-4.134-3.805-1.316m35.256.062c-.288 1.102-1.12 2.004-1.849 2.004-2.352 0-2.737 2.149-.742 4.144 1.553 1.554 2.452 1.749 4.488.975 2.476-.942 2.558-1.227 1.94-6.762-.244-2.186-3.285-2.472-3.837-.361m-15.856 1.109c-1.285 2.079-1.579 7.688-.44 8.392 1.307.808 5.005-2.199 5.005-4.069 0-.694.531-1.438 1.18-1.655.659-.219.893-1.139.531-2.083-.727-1.894-5.209-2.312-6.276-.585m126.898.163c0 .697-.293 2.436-.651 3.864-.445 1.772-.099 3.235 1.09 4.605 1.738 2.004 1.746 2.004 3.485-.302 3.06-4.057 1.755-9.435-2.29-9.435-.899 0-1.634.571-1.634 1.268M143.5 57.719c-3.064.747-5.5 3.343-5.5 5.863 0 2.658 1.921 3.279 7.25 2.344 3.187-.559 3.75-.387 3.75 1.141 0 .989-.9 2.084-2.001 2.433-3.104.986-4.17 3.81-2.395 6.345.83 1.185 2.214 2.155 3.075 2.155 1.344 0 1.371-.236.193-1.664-1.243-1.507-1.162-1.552.855-.477 1.876 1 2.546.868 4.25-.836 2.596-2.596 2.561-4.822-.122-7.678-1.18-1.256-2.257-3.703-2.394-5.439-.34-4.319-2.092-5.373-6.961-4.187m106.138.781c-.316.825-1.457 1.5-2.535 1.5-2.723 0-5.555 2.948-4.167 4.336.585.585 1.064 1.858 1.064 2.829 0 1.461 2.663 3.835 4.301 3.835.238 0 1.634-1.815 3.102-4.033 2.738-4.137 2.989-6.521.918-8.717-1.525-1.618-1.982-1.575-2.683.25m-45.065 2.171c-.311.811-.133 2.282.395 3.269 1.063 1.987 6.92 3.572 8.257 2.235 1.321-1.321-.965-6.166-2.95-6.252a28.447 28.447 0 0 1-3.456-.401c-.924-.179-1.935.338-2.246 1.149M79 64c-1.1 1.1-2 2.75-2 3.667 0 .916.292 1.375.648 1.018.357-.357 1.422.243 2.367 1.332 1.677 1.934 1.775 1.937 4.101.131 1.311-1.017 2.947-1.654 3.634-1.415.688.238 1.25-.08 1.25-.709 0-.628-.45-.864-1-.524-.55.34-1-.32-1-1.466 0-1.316-.944-2.443-2.565-3.059-3.317-1.261-3.11-1.3-5.435 1.025m96-.5c-.86 1.036-.898 1.5-.122 1.5.617 0 1.137.563 1.155 1.25.017.688 1.582 1.975 3.476 2.862 3.25 1.521 3.477 1.508 4.028-.23.322-1.013.121-2.638-.446-3.612-.78-1.34-1.038-1.412-1.061-.297-.02.991-.539.745-1.587-.75-1.812-2.588-3.689-2.837-5.443-.723m-75.375 2.625c-1.028 5.14-.732 6.747 1.458 7.92 1.662.889 2.471.764 4-.62 2.432-2.201 2.414-3.546-.083-6.425-1.1-1.268-2-2.687-2-3.153 0-.466-.619-.847-1.375-.847s-1.656 1.406-2 3.125m63.625-2.094c-2.598 1.045-2.703 1.595-1 5.262 1.069 2.301 1.866 2.693 5.5 2.699 2.338.004 4.25-.442 4.25-.992s-.9-1-2-1c-2.249 0-2.565-1.035-.842-2.758.876-.876.847-1.531-.123-2.7-1.434-1.728-2.518-1.824-5.785-.511m67.75.994c0 1.239-.969 2.393-2.5 2.975-2.801 1.065-3.269 2.768-1 3.638.825.317 1.5 1.203 1.5 1.969 0 2.234 7.685 1.85 8.913-.445 1.327-2.479.286-6.283-2.296-8.39-2.834-2.312-4.617-2.215-4.617.253m-166.245.73c-2.809 1.742-2.938 4.03-.383 6.825.889.972 1.499.902 2.878-.328 1.272-1.135 1.75-1.213 1.75-.285 0 1.032.3 1.029 1.555-.012 6.398-5.311 1.394-10.66-5.8-6.2m50.983-1.063c-.969.253-1.505.875-1.191 1.384.314.508.094.924-.488.924-2.543 0 .945 8.835 3.873 9.811.741.247 1.064-.009.718-.568-.345-.558.199-1.232 1.21-1.496 1.121-.293 2.103-1.799 2.521-3.864.556-2.751.283-3.71-1.459-5.133-1.179-.963-2.431-1.698-2.783-1.634-.351.064-1.432.323-2.401.576M42 66.024c0 .602-.45.816-1 .476-.55-.34-1-.249-1 .201 0 .451-1.071 1.975-2.38 3.387-2.24 2.415-2.301 2.799-1.037 6.476.739 2.15 2.036 4.415 2.881 5.033 1.668 1.22 2.176 4.917.536 3.903-2.253-1.393-.802.4 1.596 1.971 2.509 1.644 2.651 1.622 4.242-.635.906-1.285 1.505-2.786 1.333-3.336-.173-.55.258-.437.958.25 1.409 1.385 3.01 1.679 2.621.481-.137-.423.763-1.858 2-3.189 2.378-2.556 3.043-4.65 1.095-3.447-.732.453-.882.274-.41-.49.881-1.426-5.454-11.211-6.935-10.712-.55.185-1.788-.068-2.75-.563-1.149-.591-1.75-.524-1.75.194m12.441.55c-1.067.866-1.308 1.246-.533.844 1.064-.553 1.27-.206.843 1.426-.31 1.186-.208 2.156.226 2.156s1.087.787 1.45 1.75c1.24 3.287 3.046 6.25 3.81 6.25 1.196 0 .895-1.725-.554-3.179-1.701-1.705-3.463-6.824-3.124-9.071.322-2.132.297-2.134-2.118-.176m205.261 3.046c-2.106 2.792-2.161 4.755-.178 6.4 2.331 1.935 2.956.362 1.027-2.583-1.678-2.561-1.669-2.609.364-1.964 1.271.403 2.085.222 2.085-.465 0-.619.45-.848 1-.508 1.612.996 1.15.073-.798-1.595-1.641-1.405-1.948-1.343-3.5.715M90 69.5c0 .825-.438 1.5-.974 1.5s-1.652 1.309-2.479 2.91c-1.468 2.837-1.435 2.933 1.33 3.897 1.56.544 3.298.697 3.864.341 1.723-1.086 1.98-4.497.557-7.398C90.792 67.681 90 67.25 90 69.5m107.945.602c-.975 1.822-.68 2.475 2.215 4.903 2.479 2.079 3.674 2.526 4.637 1.736.895-.734.962-1.272.216-1.733-.595-.368-.765-1.492-.377-2.502.427-1.112.315-1.594-.284-1.224-.543.336-1.619-.265-2.391-1.336-1.79-2.484-2.62-2.452-4.016.156m-68.374.469c-1.788 1.789-1.994 3.05-.632 3.891.516.319.775 1.426.576 2.459-.402 2.089.795 2.136 4.37.173 1.708-.937 2.031-1.528 1.137-2.08-.716-.443-.826-.93-.257-1.143 1.483-.555-.432-4.871-2.161-4.871-.804 0-2.168.707-3.033 1.571m85.615-.528c-1.273.517-2.034 1.394-1.691 1.949.343.554.034 1.015-.686 1.023-1.032.012-1.019.2.063.885.754.478 1.174 1.462.933 2.186-.518 1.554 2.112 4.914 3.846 4.914 2.695 0 4.017-2.751 3.429-7.139-.62-4.636-1.877-5.45-5.894-3.818m-45.918 4.66c-2.029.392-2.189.877-1.762 5.364.276 2.899.063 4.933-.518 4.933-.543 0-.988-1.152-.988-2.559 0-1.479-.429-2.294-1.016-1.931-.559.346-.783 1.006-.497 1.469.795 1.286-.568 4.089-1.66 3.414-.53-.327-.722-1.225-.427-1.994.32-.834-.099-1.399-1.038-1.399-.99 0-1.362-.558-1-1.5.316-.825.132-1.5-.409-1.5-.542 0-.918 1.237-.836 2.75.083 1.513-.178 3.65-.578 4.75-.536 1.472-.466 1.632.266.604.546-.767 1.714-1.119 2.594-.781 2.013.772 2.099 2.677.12 2.677-.814 0-1.752 1.237-2.083 2.75-.332 1.513-.76 3.27-.952 3.906-.192.636.548 1.968 1.644 2.96 1.699 1.537 2.126 1.59 2.888.359.594-.962.42-1.711-.52-2.237-.813-.455-1.144-1.492-.78-2.441.56-1.458.722-1.426 1.389.276.691 1.765.76 1.738.825-.323.038-1.237-.38-2.25-.93-2.25-1.869 0-1.009-1.948 1.622-3.672 1.442-.944 4.142-1.674 6-1.622 1.858.053 3.378-.017 3.378-.156s-1.125-2.368-2.5-4.954c-2.915-5.481-3.015-6.008-1-5.234.914.35 1.5.001 1.5-.893 0-.808-.113-1.408-.25-1.333-.137.075-1.254.33-2.482.567m6.621 1.959c-.886.237-2.056 1.423-2.6 2.634-.769 1.713-.577 2.633.861 4.129 1.017 1.059 1.907 1.509 1.978 1 .07-.509.246-1.825.39-2.925.145-1.1.586-2.787.98-3.75.394-.963.555-1.698.359-1.634-.196.064-1.082.31-1.968.546m66.888 3.271c.509 3.471 2.971 4.747 5.084 2.635 1.341-1.341 1.304-1.728-.333-3.537-2.836-3.134-5.276-2.671-4.751.902m82.544-1.475c-1.238 1.371-1.219 2.489.111 6.461.773 2.308.871 2.24 2.156-1.497 1.057-3.075 1.085-4.169.129-5.093-.934-.903-1.491-.873-2.396.129m-99.938 5.511c.083 1.648 1.013 3.6 2.09 4.388 1.681 1.229 2.244 1.219 4.212-.07 2.795-1.831 2.513-5.3-.522-6.422-1.622-.601-2.163-.419-2.163.726 0 .84-.457 1.244-1.016.899-.559-.346-.758-1.047-.441-1.559.316-.512-.074-.931-.867-.931-.966 0-1.393.981-1.293 2.969M74.552 84.9c.557 2.815.407 3.298-.872 2.807-1.225-.47-1.124.121.486 2.85 1.117 1.894 2.437 3.51 2.933 3.593 2.367.394 2.906.276 2.972-.65.039-.55.784-1.787 1.655-2.75 1.448-1.6 1.442-1.75-.071-1.75C80.49 89 80 88.129 80 86.059c0-1.618-.45-3.219-1-3.559-.55-.34-1-.141-1 .441 0 1.262-2.164.974-3.311-.441-.446-.55-.507.53-.137 2.4m13.562-.316c-1.074 1.235-1.688 2.508-1.366 2.83.322.322.137.586-.411.586s-.96.787-.916 1.75c.043.963-.333 1.818-.836 1.901-1.547.254-5.574 7.702-5.595 10.349-.016 1.982-.221 2.189-.99 1-.678-1.049-.974-1.115-.985-.219-.008.705.613 1.523 1.381 1.817.972.373 1.183 1.331.695 3.154-.782 2.925-3.091 4.293-3.091 1.831 0-.87-.45-1.583-1-1.583s-.947.338-.882.75c.066.412.066 2.239 0 4.059-.083 2.344-.483 3.099-1.368 2.59-.687-.396-.901-.336-.474.133.426.469 1.714.996 2.861 1.171 1.516.231 1.927-.094 1.505-1.192-.799-2.083.044-1.891 2.65.603 2.206 2.111 2.206 2.112.076 1.47-1.414-.427-2.322-.146-2.699.835-.383.999-.096 1.298.882.923.895-.343 1.449.059 1.449 1.051 0 .884-.338 1.554-.75 1.489-2.467-.39-2.376.379.25 2.118 3.582 2.372 5.5 2.547 5.5.5 0-.825.661-1.5 1.469-1.5.894 0 1.243-.586.893-1.5-.317-.825-.092-1.5.499-1.5 1.951 0-.263-3.753-3.933-6.665-3.151-2.501-3.481-3.178-2.793-5.749.429-1.603.505-3.36.168-3.905-.343-.555-.104-.676.542-.276.635.392 1.155 1.403 1.155 2.246 0 1.55 3.834 7.061 4.591 6.599 1.422-.869 2.565.045 2.131 1.704-.281 1.074.14 2.761.936 3.75 1.343 1.668 1.399 1.627.787-.579-.448-1.613-.304-2.156.448-1.691.609.376 1.107 1.613 1.107 2.747 0 3.339 2.31.64 4.381-5.119 1-2.782 2.192-4.826 2.649-4.543.458.282 1.095.087 1.417-.434.322-.521.11-1.241-.471-1.6-.582-.359-.784-1.515-.449-2.569.635-2-.445-2.543-2.077-1.043-.569.524-2.246-.878-4.186-3.5-3.181-4.298-2.841-6.238.424-2.424.918 1.072 2.038 1.72 2.49 1.441.452-.28.822-.046.822.52 0 .565.675.768 1.5.452.825-.317 1.5-1.148 1.5-1.847 0-.698.675-1.83 1.5-2.515 1.118-.928 1.5-.944 1.5-.063 0 .679.532.862 1.25.43.992-.596.997-.438.024.765-.968 1.197-.968 1.794 0 2.838.674.728.759 1.065.188.749-.572-.317-1.128.515-1.239 1.853-.11 1.335.244 2.428.788 2.428s.989-.675.989-1.5c0-1.808 1.167-1.933 2.8-.3.933.933 1.2.809 1.2-.559 0-1.024.459-1.475 1.1-1.079.799.494.799.119 0-1.376-.605-1.13-1.1-2.876-1.1-3.88s-.942-2.413-2.094-3.133c-1.977-1.234-1.999-1.412-.402-3.177 1.663-1.838 1.229-4.567-.552-3.466-.501.309-1.796.089-2.878-.49-2.617-1.401-4.596 1.58-2.465 3.712 2 2 1.712 3.819-.603 3.819-1.626 0-2.111-.884-2.63-4.798-.562-4.232-.79-4.59-1.933-3.036-1.223 1.665-1.285 1.657-1.119-.132.257-2.763-3.814-2.777-6.21-.021m169.383-1.49c2.751 4.791 5.789 6.21 6.929 3.239.834-2.174-.233-3.144-4.363-3.97-2.732-.547-3.22-.408-2.566.731m20.003 2.215c-1.1.655-2.296 1.6-2.657 2.1-1.182 1.635.363 3.704 2.534 3.394 1.716-.245 2.06-.879 1.793-3.303-.317-2.887-.271-2.924 1.218-1 1.627 2.102 2.025 1.739 1.005-.918-.708-1.846-1.195-1.88-3.893-.273M179.2 87.2c-.66.66-1.2 2.085-1.2 3.167 0 1.081.293 1.673.651 1.315.358-.358 1.146.009 1.75.815.762 1.016 1.559 1.174 2.599.515 1.269-.804 1.296-1.28.176-3.086-.728-1.174-.84-1.837-.25-1.472.591.365 1.074-.038 1.074-.895 0-1.842-3.086-2.073-4.8-.359m-50.445 2.3c.358 1.874.052 2.5-1.222 2.5-.935 0-1.538.484-1.341 1.075.197.591.615.929.929.75.871-.495 3.881 2.268 3.864 3.547-.011.8-.232.787-.76-.043-.41-.644-2.045-1.497-3.634-1.896-1.908-.478-2.671-.372-2.247.314.353.572-.479 1.321-1.851 1.665-1.539.387-2.493 1.338-2.493 2.485 0 2.236 2.5 4.53 3.956 3.63.605-.374 1.044.286 1.044 1.569 0 2.189.024 2.193 2.146.309 1.377-1.222 2.289-1.498 2.545-.77.451 1.282 5.287-.492 5.301-1.944.004-.445.501-.504 1.104-.132.673.417.963-.011.75-1.108-.502-2.589-2.568-2.903-3.329-.506-.358 1.13-1.082 2.055-1.607 2.055-.526 0-.218-1.127.685-2.505 1.353-2.064 1.415-2.778.354-4.056-1.063-1.281-1.04-1.498.132-1.245.78.168 1.301-.272 1.157-.979a84.689 84.689 0 0 1-.529-3c-.428-2.746-1.692-4.215-3.629-4.215-1.384 0-1.692.581-1.325 2.5m38.607.724c-.305.493-.007 2.22.663 3.836 1.465 3.537 5.319 4.034 6.995.902 1.87-3.493.349-5.915-3.619-5.766-1.917.072-3.735.535-4.039 1.028m87.653 1.56c.024 2.709 1.637 4.564 3.384 3.893.881-.338 1.601-.152 1.601.413 0 .566.45.75 1 .41 1.756-1.085 1.09-2.249-2.5-4.367-3.17-1.871-3.499-1.904-3.485-.349M50.07 92.869c-.55 1.027-.715 2.152-.368 2.5.347.347.106.631-.535.631C48.513 96 48 97.452 48 99.3c0 1.815-.435 3.735-.967 4.267-1.221 1.221-.183 5.438 1.334 5.418 2.434-.033 3.324-1.681 3.504-6.485.273-7.289.327-7.5 1.903-7.5.902 0 1.213-.591.833-1.582-.334-.87-.607-1.77-.607-2 0-1.272-3.081-.135-3.93 1.451M12 92.765c-2.849.942-4.785 3.339-4.275 5.292.292 1.116.004 1.943-.676 1.943-.73 0-.94.769-.547 2.005.422 1.331.11 2.207-.927 2.605-.86.33-1.285 1.05-.944 1.602.383.619.989.483 1.588-.355.741-1.037.838-.948.413.378-.351 1.09.155 2.116 1.362 2.762 1.421.76 1.849 1.919 1.649 4.459-.148 1.887.096 3.205.544 2.929.447-.277.813-.069.813.462s.918.726 2.039.432c2.927-.765 7.961-8.523 7.961-12.268 0-1.831.415-2.873 1-2.511 1.903 1.176.985-.209-2.555-3.853-2.132-2.196-3.268-4.158-2.839-4.904.393-.684.346-.909-.104-.502-.45.408-1.309.356-1.91-.115-.601-.472-1.767-.634-2.592-.361m187.477 1.629c-1.922 2.935-1.061 7.286 1.61 8.134 1.039.329 3.244-.201 4.901-1.18 3.934-2.324 4.171-6.499.465-8.187-3.738-1.703-5.224-1.441-6.976 1.233m37.773.272c-3.601 1.755-4.176 3.768-1.486 5.208 2.575 1.378 5.469-1.051 5.061-4.247-.321-2.516-.361-2.527-3.575-.961m30.378-.14c-.333.868-.183 1.317.333.998.82-.507 3.039 2.349 3.039 3.91 0 1.321-2.84.425-3.417-1.077-.346-.904-.846-1.427-1.111-1.162-.695.695 2.507 6.805 3.566 6.805 1.669 0 2.947-3.827 2.321-6.953-.342-1.714-.86-2.88-1.149-2.59-.289.289-1.077.068-1.751-.491-.867-.72-1.402-.556-1.831.56m-20.572 3.129c-1.625 2.066-1.944 3.454-1.439 6.25.797 4.418.795 4.416 3.145 3.671 2.482-.788 4.423-6.96 3.2-10.176-1.174-3.088-2.322-3.028-4.906.255m-26.385 2.495c-.322 1.232.274 2.795 1.555 4.076 2.006 2.006 2.125 2.014 3.426.235 1.559-2.131 1.604-2.509.509-4.234-1.421-2.24-4.912-2.288-5.49-.077m-29.455.855c-.706 1.142-.974 2.578-.595 3.19.417.676.234.833-.466.4-.635-.392-1.155-.221-1.155.38 0 .636 1.151.904 2.75.641 1.512-.248 3.088-.489 3.5-.534 1.248-.137.848-1.74-1-4.007l-1.75-2.147-1.284 2.077m19.427 1.888c-3.687 4.211-3.006 9.156 1.185 8.599 1.469-.195 2.937-.385 3.261-.423 1.191-.139 2.761-4.927 2.253-6.869-.68-2.6-4.853-3.414-6.699-1.307m45.68.708c-.956 2.49 2.153 6.899 4.864 6.899 2.024 0 2.278-.43 2.032-3.447-.326-4.017.003-3.598-3.491-4.437-2.072-.497-2.932-.248-3.405.985m-128.057 3.743c-.404.636-.799 1.494-.876 1.906l-.28 1.5c-.077.412-.577.075-1.11-.75-.609-.942-.975-1.048-.985-.285-.019 1.532 3.455 3.456 4.514 2.5.435-.393.468-.152.072.535-.395.688-1.367 1.25-2.16 1.25-.793 0-1.441.375-1.441.833 0 .459.675.834 1.5.834s1.5-.375 1.5-.834c0-.458.949-.833 2.108-.833 1.75 0 2.002-.425 1.481-2.5-.378-1.509-.2-2.5.451-2.5 1.708 0 .199-1.704-2.023-2.285-1.108-.29-2.346-.007-2.751.629m102.245-.09c-1.656.926-1.557 1.144 1.084 2.398 1.598.758 2.086 1.149 1.086.868-1.425-.4-1.75-.024-1.5 1.735.699 4.923 11.819 2.563 11.819-2.509 0-.995-.562-1.983-1.25-2.195-3.364-1.04-9.617-1.205-11.239-.297M199.6 109.75c-.294.963-.359 2.65-.144 3.75s.425 2.338.467 2.75c.149 1.46 3.02.725 3.949-1.011 1.436-2.683.227-7.239-1.921-7.239-.999 0-2.057.787-2.351 1.75m20.4 2.168c0 4.34.965 6.084 3.357 6.067 1.583-.012 1.789-.24.786-.875-.961-.609-1.029-1.062-.233-1.554.617-.382.864-1.113.547-1.625-.316-.512.211-.931 1.173-.931 1.53 0 1.48-.249-.4-2-3.156-2.94-5.23-2.576-5.23.918m-122.427 3.847c1.508 1.033 2.564 4.235 1.396 4.235-.533 0-.969-.675-.969-1.5 0-2.172-1.748-1.84-3.042.578-.611 1.142-1.711 1.847-2.443 1.566-1.351-.518-3.063 3.55-2.611 6.206.126.743-.254 1.052-.845.687-1.811-1.12-3.989 1.838-2.851 3.871.875 1.562.746 1.638-1.109.645-1.154-.618-2.099-.71-2.099-.205 0 1.867-4.469 2.16-5.885.386-1.124-1.409-1.282-1.436-.842-.143.298.875.14 2.225-.35 3-.624.984-.902.355-.923-2.091-.02-2.261-.326-3.035-.864-2.185-.459.723-.626 2.401-.372 3.729.418 2.187.931 2.404 5.431 2.303 3.076-.069 5.16-.609 5.47-1.416.275-.718 1.136-1.061 1.912-.763.776.298 1.192.897.924 1.331-.268.434.591.724 1.91.645 1.318-.079 2.238-.401 2.044-.716-.622-1.009 3.232-3.7 6.249-4.363 3.035-.667 5.296-4.699 5.296-9.445 0-1.44.413-1.983 1.158-1.523.791.49.98.04.598-1.423-.464-1.774-.269-1.983 1.146-1.226.938.502 2.292.55 3.009.107 2.217-1.37-.605-2.283-4.845-1.566-2.362.399-4.118.236-4.522-.418-.364-.589-1.198-1.064-1.853-1.056-.815.011-.852.248-.118.75m113.025 2.076c-.324.524-.025 2.292.663 3.929 1.059 2.517 1.454 2.76 2.561 1.575 1.732-1.854 1.112-5.742-.979-6.14-.911-.174-1.921.113-2.245.636m67.96 4.065c-.308.498-1.409.684-2.446.413-1.038-.271-2.207.026-2.6.661-.429.695.123 1.373 1.387 1.704 3.132.819 2.541 2.445-.649 1.786-2.421-.501-2.347-.383.615.981 4.18 1.925 6.791 2.069 5.394.299-1.311-1.662-1.23-5.067.142-5.985.773-.517.746-.739-.092-.75-.655-.008-1.443.393-1.751.891m-76.388 3.072c-2.214 5.001 1.005 10.704 4.224 7.485 1.819-1.819 2.091-4.045.606-4.963-.55-.34-1-1.716-1-3.059 0-3.375-2.237-3.061-3.83.537m54.08 4.518c-1.839 2.089-1.524 2.721.75 1.504 2.643-1.415 2.536-.429-.25 2.298-3.277 3.207-3.397 4.954-.242 3.516 2.648-1.206 3.321-2.769 1.242-2.882-.687-.037-.238-.556 1-1.152 2.616-1.262 2.942-3.3.668-4.173-1.933-.742-1.666-.817-3.168.889m-153.61 3.612c-2.166 2.529-1.034 4.892 2.345 4.892 3.332 0 5.407-2.191 4.57-4.827-.79-2.487-4.809-2.525-6.915-.065m-6.14 1.652c-4.629 2.389-5.739 5.004-3.15 7.422 1.132 1.057 1.117 1.494-.091 2.702-1.022 1.022-1.642 1.114-2.136.316-.86-1.392-4.807-.467-5.478 1.284-.65 1.692 2.206 5.726 3.492 4.932.549-.34.767-1.225.482-1.966-.333-.868 0-1.15.932-.792.816.313 1.477-.037 1.512-.801.035-.746.469-.348.965.885 1.148 2.854 5.953 2.903 5.208.052-.519-1.983.779-2.379 2.419-.739.581.581 2.232.761 3.669.4l2.614-.656-1.989-3.9c-1.094-2.144-2.318-3.885-2.719-3.867-1.538.067-4.013 2.603-4.387 4.493-.256 1.296-.642 1.574-1.123.81-.412-.655.39-2.5 1.829-4.211 2.03-2.412 2.351-3.443 1.542-4.954-.561-1.049-.736-2.191-.389-2.539.876-.875.266-.66-3.202 1.129m23.627.426c-.923 2.495.531 5.814 2.546 5.814 2.35 0 2.621-4.077.409-6.138-2.101-1.957-2.112-1.956-2.955.324m177.873 1.4c.825 1.053 1.95 2.245 2.5 2.649.565.415.238.741-.75.75-.962.008-1.75-.435-1.75-.985s-.9-1-2-1c-2.467 0-2.6 1.551-.25 2.92 1.493.869 1.341 1.024-1.031 1.05-3.132.034-4.546 2.328-2.761 4.479.875 1.054.895 1.958.076 3.487-1.315 2.457-3.249 2.789-2.333.4.43-1.119.256-1.427-.531-.941-.644.398-1.17 1.338-1.17 2.091 0 .752-.788 1.573-1.75 1.825-1.077.281-.692.502 1 .573 1.512.064 2.75.494 2.75.955 0 .462 1.142 1.36 2.538 1.996 2.099.957 2.36 1.486 1.513 3.07-.685 1.28-1.775 1.77-3.288 1.479l-2.263-.436 2.287 1.195c1.974 1.032 2.495.899 3.807-.974.836-1.193 1.978-2.169 2.538-2.169.56 0 4.232 1.909 8.16 4.243 7.203 4.279 12.708 5.675 12.708 3.223 0-.714-.562-1.528-1.25-1.807-.941-.381-.879-.769.25-1.568 1.249-.883 1.138-1.063-.667-1.076-1.191-.008-2.316-.379-2.5-.823-.183-.445-2.47-2.266-5.083-4.048-5.381-3.671-6.437-5.323-1.5-2.349 1.788 1.077 5.5 3.183 8.25 4.681 2.75 1.498 5.676 3.322 6.502 4.054 2.462 2.182 7.208 3.66 8.287 2.581.617-.617-3.041-3.925-10.186-9.213-6.83-5.055-10.7-8.529-9.991-8.967.78-.482.483-1.077-.911-1.824-2.654-1.42-3.503-1.404-2.606.048.446.721.274.882-.457.43-.644-.398-.91-1.145-.591-1.661.319-.516-.121-1.207-.978-1.536-.857-.329-1.354-.927-1.105-1.33.668-1.08-2.236-4.866-4.765-6.214-2.07-1.103-2.111-1.059-.699.742m-249.934 1.791c-1.071 2.002-1.007 2.783.406 4.94 1.531 2.337 4.528 2.763 4.528.643 0-.454.9-1.111 2-1.46 1.401-.445 2-1.513 2-3.567 0-2.734-.261-2.933-3.831-2.933-3.01 0-4.104.509-5.103 2.377m196.298-.883c-.316.822-.976 1.246-1.469.941-.492-.304-.895-.091-.895.475 0 .565-.753.738-1.674.385-1.237-.475-1.516-.232-1.069.933.396 1.031-.062 1.749-1.326 2.08-2.202.576-2.655 3.692-.537 3.692.767 0 2.905-1.444 4.75-3.21 1.846-1.765 3.694-3.228 4.106-3.25a.804.804 0 0 0 .75-.79V137c0-1.552-1.995-1.178-2.636.494m60.636.864c0 .649 11.484 8.082 12.18 7.883.373-.107.468.97.21 2.394-.432 2.379-.34 2.458 1.142.976 1.999-1.999 3.553-2.02 8.122-.111 5.491 2.294 6.539 2 6.223-1.75-.316-3.768-1.388-5.474-4.295-6.833-1.835-.859-1.815-.779.168.676 1.238.908 2.25 2.043 2.25 2.523 0 1.672-6.333-.524-10.75-3.728-1.238-.898-2.247-1.24-2.243-.76.004.48 1.598 1.956 3.542 3.28 2.296 1.564 3.194 2.749 2.56 3.383-1.117 1.117-4.492.138-3.737-1.084.274-.444-.485-1.419-1.687-2.168-1.993-1.241-2.064-1.214-.813.3 1.174 1.42 1.155 1.661-.127 1.661-.825 0-2.06-.675-2.745-1.5s-1.869-1.5-2.632-1.5c-.763 0-2.158-.9-3.1-2-1.456-1.7-4.268-2.782-4.268-1.642m-221.25 1.358c-2.28.346-2.75.918-2.75 3.35 0 3.439 1.229 3.686 4.71.948 1.389-1.093 2.967-1.714 3.507-1.38.541.334.472-.347-.152-1.513-.625-1.167-1.457-2.054-1.85-1.971-.393.082-1.952.337-3.465.566m22.282.968c.039 1.011 4.645 6.316 5.483 6.316.337 0 .471-1.463.298-3.25-.261-2.708-.772-3.303-3.063-3.566-1.513-.174-2.736.051-2.718.5m-65.97 5.742c-2.792 3.364.191 7.574 5.367 7.574 3.231 0 3.57-.262 3.565-2.75-.005-2.021-.822-3.214-3.081-4.5-3.724-2.12-4.333-2.153-5.851-.324m22.117.801c.307 2.156 2.613 3.742 7.637 5.253 2.171.653 2.296.458 2-3.142-.316-3.834-.321-3.838-5.137-4.101-4.494-.246-4.8-.11-4.5 1.99M255 149.139c-1.925 2.157-4.746 4.685-6.27 5.619-1.523.933-2.554 2.257-2.292 2.942.514 1.338-3.281 4.515-4.496 3.764-.403-.249-1.002.249-1.331 1.107-.471 1.228-.122 1.418 1.645.893 1.234-.366 2.777-1.341 3.427-2.165.651-.825 1.664-1.203 2.25-.84.587.362 1.067-.047 1.067-.909 0-1.809 5.811-8.173 7.122-7.8.483.137.878-.283.878-.936 0-.652.978-2.227 2.174-3.5 1.499-1.595 1.732-2.28.75-2.205-.783.06-2.999 1.873-4.924 4.03m46.208-3.082c.94.548 1.466 1.63 1.168 2.405-.508 1.325 5.216 5.727 9.45 7.268.921.336 4.037 2.103 6.924 3.927 6.417 4.055 6.968 2.916.75-1.55-2.475-1.777-4.5-2.878-4.5-2.447 0 .432-.691-.202-1.536-1.408-1.6-2.285-11.505-9.275-13.068-9.222-.493.017-.127.479.812 1.027M53.714 147.1c-2.76 1.606-2.056 8.379 1.043 10.037 3.487 1.867 5.773.039 5.631-4.503-.178-5.689-2.748-7.819-6.674-5.534m23.122 1.102c-3.754 1.278-4.448 3.82-1.635 5.985 3.057 2.352 5.092 2.26 7.394-.333 1.37-1.544 1.554-2.269.655-2.583-.687-.241-1.25-1.027-1.25-1.747 0-1.854-2.056-2.38-5.164-1.322M293.5 150c-.34.55-.254 1.014.191 1.03.445.017-.003.503-.996 1.081-1.387.807-1.544 1.366-.677 2.41 1.82 2.194 5.417.27 5.671-3.033.162-2.106-.068-2.509-.937-1.64-1.414 1.414-3.102 1.528-2.252.152.34-.55.393-1 .118-1s-.778.45-1.118 1m5.771 3.604c.384.384-.083 1.273-1.037 1.976-1.537 1.132-.968 1.636 5.015 4.442 3.712 1.741 7.001 3.573 7.309 4.072.719 1.163 3.442 1.184 3.442.026 0-1.052-10.623-9.282-13.445-10.417-1.09-.438-1.668-.482-1.284-.099m-236.08 2.146c-.484.963-.837 3.1-.785 4.75.084 2.687.459 3.029 3.594 3.282 2.245.181 3.033-.031 2.199-.591-1.035-.694-1.056-1.411-.103-3.502.944-2.072.929-2.954-.071-4.159-1.686-2.031-3.75-1.937-4.834.22m8.41.086c-.679 1.098-1.135 8.011-.553 8.379 3.979 2.512 4.786 2.626 6.348.9 2.301-2.542 1.986-4.857-1.042-7.663-2.803-2.597-3.913-2.975-4.753-1.616m-30.756 1.461c-1.784 1.385-2.738 7.448-1.491 9.467.42.68 2.69 1.236 5.045 1.236 3.688 0 4.451-.376 5.521-2.723.868-1.905.914-2.832.154-3.086-.598-.199-.873-.707-.612-1.129.795-1.287-1.814-3.92-4.462-4.501-1.375-.302-3.245.029-4.155.736m147.405.853c-1.744 1.744-1.618 6.85.168 6.85 4.585 0 5.718-2.376 2.832-5.939-1.4-1.729-2-1.911-3-.911m-46.859.829c-1.474.595-2.307 2.095-2.769 4.981-.531 3.323-1.34 4.531-4.141 6.184-4.26 2.513-4.468 3.835-.524 3.336l2.958-.374-.588 6.29c-.506 5.426-.343 6.384 1.186 6.971.975.374 1.88.557 2.009.407.13-.151.544-3.626.921-7.722.784-8.543.914-8.857 4.154-10.089 3.247-1.234 3.165-3.371-.097-2.552-2.184.548-2.5.3-2.5-1.958 0-1.421.466-3.455 1.035-4.519.57-1.064.907-1.905.75-1.871-.157.035-1.234.447-2.394.916M275.299 160c4.099 6.084 4.177 6.475.817 4.082-4.542-3.233-3.777-1.105.826 2.299 2.304 1.703 3.68 3.439 3.37 4.25-.327.852.176 1.379 1.331 1.396 1.021.015 4.107 2.087 6.857 4.604 4.12 3.772 4.56 4.473 2.5 3.987-1.375-.325-2.864-.597-3.309-.604-.445-.008-.488-.534-.096-1.169.405-.655.278-.885-.293-.532-.554.343-1.861-.023-2.905-.813-1.043-.79-2.321-1.451-2.838-1.468-.518-.018-.068.629 1 1.436 1.859 1.406 1.825 1.47-.809 1.5-1.512.018-2.75.22-2.75.45s-.301 1.204-.67 2.164c-.422 1.101-.281 1.506.383 1.096.578-.358 2.117.149 3.419 1.125 1.303.977 3.718 2.329 5.368 3.003 3.52 1.439 1.924.026-3.675-3.254-3.158-1.85-3.209-1.966-1.002-2.329 1.277-.21 3.077-.048 4 .359.922.406 2.934.84 4.471.964 3.053.245 6.751 3.025 6.416 4.823-.115.622.353 1.019 1.04.881 2.082-.416 1.401.754-1 1.719-2.163.869-2.143.907.5.968 3.121.072 3.502-1.418 1.204-4.699-1.512-2.16-1.476-2.196 1.75-1.701 2.663.408 2.455.226-1.083-.948-4.781-1.588-12.765-9.031-12.4-11.56.16-1.107.059-1.157-.366-.183-.421.969-1.396.46-3.47-1.811-1.587-1.737-2.885-3.717-2.885-4.401 0-.683-1.662-2.792-3.692-4.688-2.802-2.614-3.286-2.843-2.009-.946m-220.82 3.25c-.251.688-.35 3.05-.218 5.25.229 3.831.376 3.994 3.489 3.853 2.887-.131 3.25.148 3.25 2.506 0 1.46.439 4.185.975 6.055.792 2.759.669 3.626-.651 4.591-1.29.943-1.357 1.356-.324 1.995 1.859 1.149 4.188-2.28 3.025-4.453-.508-.949-.535-3.287-.062-5.381.714-3.169.547-3.858-1.158-4.771-1.302-.696-1.818-1.738-1.487-3.003.741-2.832-2.095-7.892-4.423-7.892-1.077 0-2.164.563-2.416 1.25m147.694 3.572c-4.034 4.385-4.268 4.953-3.737 9.074.337 2.622.112 4.943-.558 5.75-.834 1.006-.826 1.354.031 1.354.635 0 1.402-.648 1.706-1.44.441-1.149 1.048-1.215 2.997-.327 1.781.811 2.098 1.334 1.166 1.925-.935.594-.809.815.472.827.963.008 1.75.465 1.75 1.015 0 .55.648 1 1.441 1s1.68.387 1.972.86c.859 1.389-1.757 5.997-3.691 6.503-.979.255-1.654 1.039-1.501 1.741.366 1.674-3.264 2.444-4.221.897-.776-1.256-1.614-.614-4.312 3.305-1.092 1.586-2.89 2.354-6.129 2.617-.518.043-.156.651.804 1.353 1.116.816 1.501 1.914 1.069 3.042-.926 2.411-5.761 1.78-8.446-1.102-1.135-1.219-2.774-2.216-3.642-2.216-1.138 0-1.446-.688-1.105-2.47.26-1.358.087-2.232-.383-1.941-.471.291-.869 1.515-.884 2.72-.015 1.205-1.365 3.959-3 6.119-3.104 4.102-3.768 8.216-1.892 11.721.846 1.582.705 2.431-.655 3.934-1.571 1.736-.708 2.867.934 1.225.689-.689 9.641-1.17 9.641-.519 0 1.595-2.431 4.211-3.913 4.211-1.013 0-2.402.675-3.087 1.5-1.053 1.269-.837 1.5 1.402 1.5 1.89 0 2.914.702 3.58 2.452 1.059 2.785 6.311 5.891 8.835 5.224 1.52-.401 1.514-.455-.067-.56-.963-.064-1.75-.566-1.75-1.116 0-.55.338-.904.75-.788.412.117 1.822-.381 3.133-1.106 1.532-.848 3.82-1.089 6.403-.676 3.399.543 3.837.424 2.841-.777-.927-1.117-.834-1.551.438-2.039.888-.341 1.986-.391 2.44-.111.453.28 1.65-1.284 2.66-3.477 1.101-2.392 2.356-3.799 3.137-3.518.716.258 1.027.024.691-.519-.336-.544-.165-.989.381-.989.545 0 1.279-.907 1.631-2.015.351-1.108 1.057-1.756 1.567-1.441.51.316.928-.15.928-1.035 0-2.219-2.836-7.509-4.026-7.509-1.995 0-.874-2.09 2.087-3.891l3.061-1.862-2.548-.639c-1.402-.352-3.289-1.769-4.193-3.15-1.537-2.345-1.527-2.639.142-4.484 2.238-2.473 3.029-2.469 5.707.026 2.797 2.606 3.836 2.53 3.423-.25-.228-1.532-1.422-2.614-3.744-3.39-2.782-.93-3.424-1.665-3.491-4-.173-5.997-.398-6.94-1.308-5.503-.553.871-1.089.986-1.5.322-.351-.569.208-1.304 1.244-1.633 1.035-.328 2.729-1.563 3.764-2.743 1.035-1.181 1.243-1.771.462-1.311-1.062.625-1.258.414-.778-.837.533-1.389.17-1.324-2.134.379-3.278 2.423-5.926 1.779-6.787-1.652-.761-3.031 1.822-7.127 4.766-7.559 1.208-.178 2.4-.941 2.649-1.697.344-1.043-.419-1.272-3.171-.951-4.168.487-4.155.498-2.006-1.651.891-.891 1.448-1.791 1.238-2-.209-.209-2.317 1.725-4.684 4.298m-93.861-1.972c-1.203.357-4.323 2.161-6.932 4.008-4.005 2.834-4.485 3.504-3.076 4.292 1.078.603 2.413.536 3.768-.189 1.155-.618 2.313-.909 2.575-.647s.159 3.276-.228 6.699c-.643 5.687-.993 6.393-4.061 8.204-4.096 2.416-4.434 4.265-.608 3.323 3.989-.982 11.394-5.499 10.742-6.553-.306-.495-1.217-.646-2.024-.336-1.751.671-1.867-1.957-.383-8.651.548-2.475 1.054-5.09 1.123-5.811.069-.72 1.4-1.969 2.959-2.775 1.558-.806 2.833-1.679 2.833-1.94 0-.646-4.008-.421-6.688.376m-40.468 1.639c-.716.717.165 5.398 1.128 5.994.403.249 1.587-.181 2.631-.956 1.514-1.125 1.673-1.775.79-3.218-1.134-1.852-3.55-2.819-4.549-1.82m97.535 1.645c-1.74 1.922-1.863 1.929-3.209.182-1.233-1.6-1.322-1.19-.749 3.446.358 2.894.907 5.929 1.22 6.744.813 2.119 2.359.808 2.359-2 0-1.307.457-3.579 1.017-5.05.843-2.218 1.269-2.464 2.5-1.442.815.677 1.483 2.301 1.483 3.608 0 1.308.563 2.371 1.25 2.363 1.561-.019 4.655-1.949 3.157-1.97-.6-.008-1.934-1.579-2.964-3.49-2.349-4.363-3.772-4.924-6.064-2.391m14.444-1.425c-5.192.795-6.113 4.594-1.323 5.458 1.367.246 2 1.147 2 2.847 0 2.175-.411 2.467-3.291 2.334-2.718-.125-3.088.092-2.128 1.25 1.738 2.094 6.656 1.761 7.884-.533 1.424-2.661-.227-6.612-3.138-7.507-2.217-.683-2.174-.761.923-1.666 1.787-.522 3.25-1.386 3.25-1.921 0-.534-.338-.904-.75-.821-.412.082-1.955.334-3.427.559m6.973 2.483c-.196 1.27.248 3.826.988 5.68 1.289 3.231 1.216 3.499-1.719 6.369-2.758 2.696-4.387 6.694-2.17 5.324.493-.305 1.164.147 1.493 1.004.329.857 1.041 1.284 1.583.949.542-.335 1.558.668 2.257 2.229 1.226 2.736 1.398 2.794 4.772 1.602 1.925-.68 2.889-1.262 2.143-1.293-.781-.032-1.115-.687-.787-1.541.463-1.208.232-1.274-1.239-.356-1.456.909-2.423.675-4.963-1.203-3.488-2.579-3.907-4.086-1.654-5.956 1.209-1.004 1.503-.979 1.515.128.013 1.152.156 1.15.894-.015.544-.858 1.885-1.194 3.52-.882 2.445.468 2.526.377 1.086-1.215-.856-.946-2.335-4.115-3.286-7.043-1.873-5.766-3.862-7.462-4.433-3.781m127.689-.217c.617.998.175 1.193-1.836.809-2.917-.558-3.699.797-.899 1.556 5.559 1.507 7.571 1.639 8.846.581.772-.641 1.405-.773 1.407-.293.002.479 2.477.872 5.5.872 3.024 0 5.497-.338 5.497-.75s-.562-.773-1.25-.801c-4.008-.165-14.538-1.774-16.164-2.47-1.451-.621-1.718-.501-1.101.496m-168.377 2.616c-1.867 2.147-2.143 3.303-1.607 6.75.986 6.357 1.509 7.659 3.075 7.659 1.158 0 1.315-1.077.797-5.484-.444-3.778-.253-5.955.614-7 1.573-1.895 4.013-1.976 4.013-.133 0 .761.841 1.604 1.868 1.872 1.318.345 2.129 1.902 2.75 5.285 1.293 7.029 3.688 7.295 2.787.309-.798-6.193-2.423-10.944-3.109-9.093-.339.912-1.164.706-3.016-.75-3.401-2.676-5.465-2.528-8.172.585m-104.858.071c-1.361.55-1.662 4.206-.485 5.886.852 1.215 6.635 1.777 9.366.91 2.119-.672 2.519-4.408.669-6.258-1.184-1.184-7.12-1.518-9.55-.538m75.558 2.152c-2.908 1.762-3.773 3.819-3.794 9.019-.019 4.479 2.096 3.692 3.785-1.41.714-2.157 1.907-4.537 2.651-5.289 1.141-1.152 1.585-.996 2.839 1 .818 1.302 1.782 4.054 2.144 6.116 1.007 5.74 2.912 4.695 2.338-1.283-.328-3.409-1.231-5.828-2.802-7.5-2.658-2.829-3.451-2.901-7.161-.653m-61.546 4.156c-1.697 1.581-2.008 2.568-1.353 4.292.468 1.231.872 2.677.896 3.213.079 1.712 2.195 1.759 2.195.049 0-.903.375-1.41.833-1.127.459.283.855-.028.881-.691.026-.663.336-1.894.689-2.735.353-.84.061-2.322-.648-3.291-1.221-1.67-1.405-1.655-3.493.29M71 176.91c0 .565-.675.768-1.5.452-.963-.37-1.5.02-1.5 1.09 0 .916-.45 1.388-1 1.048-1.53-.945-1.189.453.528 2.171 1.128 1.128 1.872 1.242 2.842.437.723-.6 1.61-.795 1.972-.433.362.362.658-.515.658-1.949 0-1.435-.45-2.886-1-3.226-.55-.34-1-.156-1 .41m-41.46 3.788c-.531 2.115-.875 2.385-1.593 1.25-.674-1.065-.92-1.106-.932-.153-.016 1.408 4.398 6.213 5.69 6.193.437-.007 1.838-1.623 3.113-3.59 2.222-3.429 2.243-3.635.5-4.956-3.067-2.325-6.017-1.778-6.778 1.256m12.804 1.069c-2.568.414-3.682 3.915-2.778 8.733.574 3.06.916 3.344 3.614 3.003 3.387-.429 7.673-2.956 8.451-4.983 1.347-3.511-4.23-7.566-9.287-6.753M12.5 184.693c-1.65.216-3.675.67-4.5 1.009-.825.338-1.838.544-2.25.457-1.068-.226-.927.749.843 5.833C8.251 196.754 9.696 199 11.102 199c1.679 0 4.901-7.943 4.65-11.462a262.956 262.956 0 0 0-.252-3.386c0 .081-1.35.325-3 .541m23.911 2.807c-.397 1.579-1.334 2.5-2.544 2.5-1.103 0-2.304 1.019-2.83 2.403-.503 1.321-1.393 2.699-1.978 3.061-.724.447-.745 1.254-.066 2.522.924 1.728 1.222 1.754 4.041.347 1.673-.835 3.754-1.245 4.624-.911 1.302.5 1.45.12.837-2.158-.409-1.52-.778-4.451-.821-6.514-.09-4.388-.399-4.694-1.263-1.25m-13.533.162c-4.01 2.025-5.596 4.271-3.814 5.399 2.723 1.723 8.364 1.084 9.729-1.102 2.268-3.631-1.628-6.461-5.915-4.297m44.622.124c-.55.393-1.523 2.177-2.163 3.964-1.052 2.939-.98 3.25.75 3.25 1.052 0 1.913.45 1.913 1 0 1.464 2.98 1.224 3.111-.25.448-5.06-1.539-9.443-3.611-7.964m-11.419 1.744c-1.331.728-2.806 2.014-3.279 2.859-1.106 1.976.078 6.803 1.459 5.95.659-.408.744-.157.229.676-.602.975-.356 1.148.928.655.96-.369 2.271-.702 2.914-.74.642-.039.268-.457-.832-.93-1.489-.64-1.593-.877-.405-.93 2.568-.113 4.667-3.282 3.972-5.996-.755-2.945-1.82-3.275-4.986-1.544m-12.848 6.698c-1.679.809-2.103 1.634-1.637 3.182.916 3.046 1.495 3.424 5.768 3.774 5.058.414 6.767-1.809 4.294-5.583-1.821-2.78-4.575-3.229-8.425-1.373M20.5 197.945c-1.1.443-2.407.567-2.905.275-.497-.291-.607-.048-.243.54.363.588.14 1.243-.496 1.455-.829.276-.877 1.219-.168 3.335 1.204 3.597 4.72 4.078 8.062 1.104 2.49-2.216 2.881-4.623 1.05-6.454-1.358-1.358-2.431-1.409-5.3-.255m176.263 2.897c-1.309 2.232-1.341 2.858-.203 3.908 1.865 1.72 4.105 1.566 4.833-.332 1.005-2.62.701-3.878-1.232-5.085-1.551-.969-2.083-.732-3.398 1.509M35 199.834c0 .551-1.687 1.826-3.75 2.834-4.513 2.205-5.222 4.705-2.078 7.325 3.131 2.609 4.302 2.491 6.804-.69 2.323-2.953 2.497-9.329.274-10.059-.687-.226-1.25.04-1.25.59m31.099 2.561c-1.393 1.482-1.851 2.64-1.202 3.041 1.381.854 6.103-2.281 6.103-4.051 0-2.138-2.41-1.642-4.901 1.01m48.348.52c.311.503 0 1.104-.691 1.337-.917.309-.966.804-.181 1.835 1.347 1.77 3.08 7.956 3.973 14.175.678 4.732 4.173 10.667 5.341 9.072.336-.459 1.961-1.524 3.611-2.367 3.091-1.58 4.122-4.352 3.114-8.369-.695-2.769-6.59-5.75-8.86-4.48-2.005 1.122-2.221.76-3.799-6.368-.7-3.162-1.678-5.75-2.173-5.75-.495 0-.646.412-.335.915m89.01 1.835c-1.725 3.986-1.502 5.25.927 5.25 3.354 0 5.058-2.305 3.65-4.936-1.35-2.523-3.556-2.675-4.577-.314m-135.896 3.581c-1.74 1.273-1.79 1.702-.545 4.707.753 1.818 1.537 2.804 1.741 2.19.205-.615-.132-2.155-.749-3.423l-1.121-2.305 1.932 2.207c2.872 3.281 4.572.578 1.919-3.05-1.101-1.507-1.505-1.548-3.177-.326m131.439.915c0 1.02-.543 1.483-1.369 1.166-.783-.301-1.574.263-1.85 1.319-.742 2.836.935 6.269 3.062 6.269 2.619 0 3.691-5.4 1.65-8.313-1.228-1.754-1.493-1.832-1.493-.441m-25.329.416c-1.064 1.064-.779 3.523.329 2.838 1.341-.829 1.279.821-.082 2.182-.776.776-.717 1.667.209 3.149 1.606 2.572 3.873 1.111 3.873-2.495 0-2.586-3.21-6.793-4.329-5.674m8.854 1.146c-.94.94-.491 4.653.757 6.268.67.868 2.236 1.839 3.481 2.16 2.568.662 3.828-.986 4.385-5.736.34-2.902.214-3.004-3.873-3.108-2.324-.06-4.461.128-4.75.416m23.425 4.824c-1.047 2.752-.444 6.368 1.062 6.368.482 0 2.042-1.012 3.467-2.25 2.445-2.124 2.502-2.376.999-4.5-2.118-2.995-4.302-2.844-5.528.382m-117.452.372c-.341.552-.951 4.092-1.354 7.866-1.035 9.688 2.108 13.927 7.027 9.475 1.094-.99 1.829-1.191 1.829-.5 0 1.416 3.467 1.51 5.986.163 1.019-.546 2.337-2.459 2.928-4.25.987-2.995 1.415-3.258 5.308-3.258 3.359 0 4.311-.392 4.608-1.896.252-1.281-.065-1.718-.979-1.346-4.237 1.724-5.132 1.761-2.625.106 3.089-2.038 3.971-3.687 3.136-5.864-.595-1.549-5.097-2.031-6.862-.735-1.411 1.037-4.5 7.954-4.5 10.078 0 .976-.645 2.648-1.433 3.716-2.366 3.206-3.915.431-3.781-6.774.115-6.122.081-6.207-1.289-3.285-1.389 2.962-1.409 2.969-1.554.5-.124-2.098-.277-1.952-.952.911-.442 1.877-.578 4.003-.301 4.725.433 1.127-1.758 4.364-2.953 4.364-.223 0-.022-2.805.446-6.232.469-3.428.634-6.803.366-7.5-.583-1.519-2.19-1.658-3.051-.264M122.2 219.2c-1.271 1.271-1.603 4.064-.602 5.064.991.992 3.402-.376 3.402-1.93 0-.799.354-1.234.786-.966.432.267.785-.382.785-1.441 0-2.162-2.518-2.58-4.371-.727m72.373 3.682c-.333.539-.141 1.267.427 1.618.568.351.777 1.051.465 1.556-.861 1.393 1.752 3.7 3.634 3.208 1.832-.479 4.233-4.918 3.394-6.275-.696-1.126-4.493-.833-4.493.346 0 .501-.635.383-1.411-.261-.888-.737-1.635-.808-2.016-.192m-8.248 2.776c.362.362.245 1.155-.258 1.762-.504.607-1.063 2.448-1.242 4.092-.273 2.511-.005 2.937 1.675 2.669 1.1-.176 2.515-.984 3.144-1.797 1.261-1.628.649-5.467-1.056-6.619-1.356-.915-3.157-1.001-2.263-.107M307.5 239.016c-2.2 1.569-5.863 3.789-8.14 4.933-3.951 1.986-7.482 5.051-5.82 5.051.756 0 8.865-4.546 10.944-6.136 2.635-2.014 7.961-6.8 7.516-6.753-.275.029-2.3 1.336-4.5 2.905M73.544 255.79c-.261.26.004 1.366.589 2.458.584 1.092 1.131 4.404 1.215 7.361.083 2.956.49 5.378.902 5.383.412.004.764.796.782 1.758.03 1.667.095 1.667 1.36 0 .731-.962 1.966-1.75 2.746-1.75 2.414 0 5.817-2.955 5.213-4.527-.311-.81-.067-1.473.542-1.473s1.107.666 1.107 1.481c0 1.674 4.193 3.043 6.55 2.138.891-.342 1.293-.175.943.392-.705 1.141 2.515 1.32 4.007.224.55-.404 1.625-1.531 2.388-2.504 1.198-1.526 1.156-2.025-.302-3.636-1.6-1.767-1.553-1.976.862-3.875 1.404-1.104 2.552-2.281 2.552-2.614 0-1.354-2.807-.477-4.514 1.41l-1.824 2.015-2.294-2.155c-2.176-2.045-2.422-2.07-4.815-.503-1.387.909-2.813 2.814-3.169 4.235-.48 1.909-.871 2.231-1.501 1.237-1.163-1.835-1.1-3.097.117-2.345 1.792 1.107 1.053-1.447-1.018-3.518-1.547-1.547-3.178-1.976-6.991-1.841-2.736.096-5.187.389-5.447.649m47.817 1.435c-.275.444-.918.549-1.43.232-1.027-.635-1.067 6.322-.063 10.961.348 1.604 1.242 3.12 1.987 3.368 1.069.356 1.28-.894 1-5.918l-.355-6.368 3.194-.309c2.995-.29 3.233-.073 3.831 3.5.352 2.095.714 4.132.807 4.527.092.395.763.348 1.491-.104 1.652-1.027.619-7.529-1.54-9.688-1.524-1.524-8.014-1.67-8.922-.201m-42.126 2.606c-.716 1.618-.979 4.199-.614 6.026.539 2.693.972 3.091 2.759 2.534 1.166-.363 2.451-1.162 2.855-1.776 1.813-2.753.011-9.615-2.526-9.615-.671 0-1.785 1.274-2.474 2.831m29.015-1.169c-.687.278-1.25 1.142-1.25 1.921 0 .78-.45 1.417-1 1.417-1.096 0-1.31 4.241-.388 7.681.579 2.159 3.388 2.219 3.388.072 0-1.079 2.954-3.666 4.25-3.721 1.841-.078.466 3.674-2.5 6.821-1.787 1.896-2.626 3.09-1.864 2.654.762-.436 2.292-.841 3.4-.9 2.241-.119 4.308-4.859 5.091-11.679.406-3.537.244-3.943-1.374-3.429-1.009.32-2.124.114-2.478-.458-.667-1.079-3.105-1.254-5.275-.379m-15 5.268c-1.787.787-3.25 1.687-3.249 2 .001.314 2.251.638 5 .721 2.749.083 4.999-.029 4.999-.25s-.787-1.189-1.75-2.151c-1.576-1.576-2.074-1.607-5-.32"
    fill-rule="evenodd" />
  </symbol>
  <use xlink:href="#main" width="100vw" height="100vh"/>
</svg>
