<svg id="16282281824-posters-1636661234586" itemscope="" itemtype="/posters" itemid="/+16282281824/posters/1636661234586" viewBox="0 0 512 683" preserveAspectRatio="xMidYMid slice" tabindex="0" xmlns="http://www.w3.org/2000/svg"><rect itemprop="background" width="100%" height="100%" fill="white" tabindex="-1" style="fill: rgb(228, 228, 220); color: rgb(4, 4, 58);"></rect><path d="M0 342v341h513V0H0v342m0 0c0 188 1 265 1 171a137851 137851 0 00-1-171m260-160v7a59 59 0 01-5 21l-5 26v6l-1 2c-2 3 0 5 2 4l4-1 3-1h-8l7-1c6-1 6-1 3-3h-3v-2c3-5 4-31 1-31-1-1 0-1 3-1s3 0 2-1c-2-1-2-2-2-13v-13l-1 1m-17 26l-2 19-4 17-3 12-1 5v4c-2 3 0 4 5 2l5-1h-8l3-1c4 0 7-2 4-2l-1-2c2-3 3-27 1-28-1-1-1-1 2-1 2 0 2 0 1-1l-1-12v-12l-1 1m8 44c0 19-1 24-2 25l-1 7c1 3 1 4 2 3v2c0 4 1 7 5 7 3 0 3 0 3-6v-6h-3c-3 0-3 0-1-1l3-1 2-1v-1c-2 0-1-3 1-3v-1l-1-14v-13h-4c-4 0-4 0-4 3m-16 19l-1 13-1 11v5l1 4 1 3 1 4 1 2c-1 1-2 2-2 6v11c1 0 2 7 2 16v8l-2-6-1-3-2 10-2 8v-24h-2l-3 1-1 1v-1l-1-1c-2 0-2 0-1 3l1 12c0 9-2 11-2 2l-1-4-1 3c1 1 0 6-1 11-2 6-2 12-2 19l-3 24v37l-2 1 1 1c2 0 2 2 2 13v14l-4 1-6 2-1-1c0-2-5-3-8-1-4 1-4 3 0 3l2 1v1l2-1a1 1 0 012 0l1 5v6l2 1c2-1 3 0 5 2l2 1v-2c1-1 3 2 3 4 0 3 4 5 4 1 0-2 1-1 1 2l1-10v-16l1 16 1 17 2 11 1 11c1 2 2 1 2-2-1-2 0-2 1-3 2 0 2 0 1-2-2-1-3-1-3 1h-1l2-3 1-3 1-2v-4c0-3 1-5 3-3 2 3 6 1 6-3l1-4v4c0 9 2 4 2-6l1-23v-14h-3c-6 0-10-4-4-4 2 0 1-1-3-1-7 0-6 0-7-9-1-4-1-4 1-4h3v-19l-1-20v-2l2-6c1-4 1-2 1 6-1 27 0 41 2 41 1 0 2-39 0-42-1-1 0-1 2-1s3 0 2-1c-3 0-3-6-1-9l1-12 1-11v-10l1-9c0-6 2-5 3 2 2 12 3 11 3-8v-18h-4l2-1c2-1 2-1 2-12 0-5 0-7 1-6v-17c0-8 0-12-1-11l-1 6v4c-1-1-2-5-2-12v-7h-3c-3 0-4 0-4 2m-6 28c0 4 0 4-1 2-1-4-4 11-5 23-1 11 1 14 5 13 3-1 3-1 2-22l1-12c0-10 0-12-2-4m23-1l1 23 3-2c2-2 2-3 2-12v-10h-3l-3 1m256 18c-2 2-3 2-3 11v10l-11-6-11-6-6 2-6 2v7c0 8 0 8-7 8-3 0-4 0-4-3l-1-2v2c0 5-6 5-6 0l-1-3v3c0 3 0 4-5 5l-7 3-6 2c-8 1-12 3-10 4 1 1 2 2 1 3l8-1v1l-3 1-2 2 2 1 6-2 1-1c-4 0-2-2 1-2s4 1 4 2h1c0-2 5-3 5-1 0 6-3 10-6 7-1-2-2-2-4-1a3 3 0 01-4 1l1 5v6l1 4h-11a103 103 0 00-25 4c-4 1-5 2-3 4s21 2 19 0c0-1 3-2 11-2h8v10l-4-2c-5-3-9-2-10 2v3l-4-2c-3-1-6-2-7-1h-3v15l1 9c0-4 0-6 2-6l1 10c0 14 1 17 7 19l4 1v19l1 20v19l1 20c1 1 4 2 13 2h11v4l-1 5c0 2-1 2-3 2-4-1-5 0-3 2v1l4 2c5 0 6 3 1 3l-4-1 1 6c0 5 0 5-1 4-2-2-2-2-1 1v9c0 7-1 6 8 6l3 1 2 1c2 0 2-1 2-12 0-13 0-13 7-11 5 2 6 4 2 4h-3v10c0 9 0 10 2 10a22 22 0 018 15l1-3-2-27c0-20 0-24-2-24l-3-2c-2-2-4-3-4 0 1 2-3 1-4-1h-2l-1-1-1-3-2-2v3c0 2 0 2-1 0-1-5-3-9-5-9l1-3 3-3 1-1-2-3c0-2-3-3-6-2l-1-2c0-2-1-2-5-2l-5 1v-21h3l2 2-1 1c-2 0-2 1-1 4l2 3c0 2 2 3 3 1l-1-1h-1c0-2 3-3 8-2 3 0 3 0 1-1-4 0-6-2-3-2s5-1 3-2h-1c-1 2-5-5-5-7v-2l-2-4c0-4-1-7-2-4h-3l-2-2c-2-1-3-5-1-5l1-2c0-3 6-8 6-5l1 1-1-3c0-2 0-3-1-2-1 2-4-1-4-4l-3-1c-2 0-1-4 1-5 1-1 1-1-1-2-3-2-3-4 0-5a5 5 0 004-3h3c0-3 2-4 5-3 2 1 4 0 2-1v-1l2 2-2 3v1l2 1h2c1 1 1 1 3-1 1-1 2-2 1-3 0-1 0-2 2-3v-1l-3-2-4-2c-1 1-2 0-2-2l1-2 1-2 2-2 1-1v-2c1-2 0-2-1-1-2 0-2 0-2-5a4 4 0 013-6h-1c-2 0-2-1-2-7v-8h3c2 0 3 0 3 2l1 2 1-3c0-3 1-4 2-4 2-1 2-1 2 1-1 3 3 7 4 5 0-1 1-2 2-1l1-3c0-3 0-4 3-4s3 0 3 2l2 2 1-16v-15l2-1c4 0 5 1 3 3v17c1-1 1 0 1 1l-1 2c-1-1-1 1-1 5 0 6 0 6 3 6l3-1 2-1v-1l2-3 1-16v-14h2l6-1h4v15l1 16h6l-3-3-3-3 2-2c1-1 3-2 4-1l1-13v-15c2 0 3-24 1-24l-3 1m-208 17c-2 9-1 22 1 22a4 4 0 004-2v4c1 2 1-1 1-8l-1-11c-1 0-2-1-1-4 0-7-2-8-4-1m-222 0c-2 2-2 3 0 3v5l-1 3-1 1c-2 0-2 1-2 5v5h9c10 1 11 1 9 4v8l-1 2v2c-2 0-3 4-2 7 1 4 3 5 2 1l1-5 1-1 1 2v1c-2 0-1 6 2 8l2 2-2 2-3 2 3 2c2 2 5 3 5 1l2-1 3-2c-1-1 1-5 2-4l1-4 1-4 1-3c0-4 1-4 1 0s2 6 3 3l2-2c2 0 2-1 2-6s0-6-1-4v-1l1-4 1-2-3 1h-2a2 2 0 00-3-1h-2l-2-1h-3l-2-1c1-1 0-1-2-1l-3 2c-1 2-2 1-4-2s-2-3-6-3l-5-1-1-1-2-1-1-2c-2 0-2-1-1-3l2-7 1-5c2-3-1-2-3 0m105 19c-14 8-19 11-14 10 2-1 2 0 1 3 0 4 0 5 2 5l2 2 1 2 1-4c0-3 0-3 2-4 1-1 2-1 2 1s4 3 7 2h4c1 1 1 1 1-5l-1-6h6c5 0 6 0 5-1l-1-3c1-1 1-1 0 0-2 2-6 3-6 2 0-2-4-1-5 1-2 2-2 2-4 1s-3 0-6 3-4 3-6 2c-2-2-1-5 4-5l3-3 9-5 9-6-16 8m280-1l-1 2h-1c0-2-6-3-13-1l-5 1c-1-1-9 0-11 1h16c5-2 9-2 7 0l-3 1a2 2 0 00-1 3l1 2-1 3c-2 0-2 4 0 5 1 1 2 0 2-3v-6h4c0-1 2-1 5 1l5 2h3c2 1 2 1 2-4l-1-5-2-1c0-2-4-3-6-1m-46 77c0 13 0 14 2 14l2-1 1-12-1-14-2-2c-2 0-2 1-2 15m-286 17v1l1 6 1 7v6c-1 1 1 4 3 4l1 4c0 2 0 3 2 3h1l-1 1a2 2 0 00-1 3l1-1 1-1-1 3c-2 1-2 1 0 1 3 0 3 0 2-4 0-5 0-4 1 0l3 3c2 0 4 3 4 6l2 2 1 2 1 4 1 2c0 2 0 2-1 0s-1-2-1 1 0 4-2 4-2 0-1 1c2 0 2 0 1 1s-1 1 1 1 2 0 1 2a2 2 0 103 3c0 4-1 6-2 7-1 2-2 3-1 5 0 3 2 2 1-1 0-2 0-2 1-1 3 5 4 3 4-17a498 498 0 011-24c0-2 1-3 2-3l1-1-1-1c-5 1-5 0-5-7l-1-7v-2c2-3 0-4-3-1-1 1-2 3-1 5 1 4 0 6-3 5-2-1-2-1 0-1s2-8-1-8l-2 1h-1c-2 0-2 0-2 2l-1 3-1-3c0-3 0-4 1-3l2-1c0-1-1-2-2-1-2 0-7-4-5-5 1-1 1-1-1-1l-2-1h5l-3-1-2-3h-2m44 29c0 1-1 2-4 2h-3l-1 5c0 4 0 5 1 3l1-1a6 6 0 0010-2l1 2 2 1 2 2 1 1 2-5 1-2c2-3 3-4 1-4l-2 2c0 2 0 2-1 1s-1-1-1 1l-1 2v-2c0-4 0-4-4-4-3 0-4 0-4-2-1-2-1-2-1 0m-1 19l2 1c1 2 1 4-2 4l-1 2 1 1h1l-1 1-1 11c0 9 0 11-2 12l-1 1h15c2-3 0-5-2-3s-2-1-2-14l-1-13c-1 0-2-1-1-2l-1-1-2-1-2 1m322 24a5 5 0 01-3 3l-5-2 2 4c2 4 2 8 0 8-5-2-6 6-4 35 1 12 1 14 3 11 1-2 2-5 1-15 0-11 0-12 2-12 3 0 4 1 4 6 0 11 0 12 2 11h2c-1 6-4 14-6 14l-4 1c-3 1 4 2 9 1l4-1 1-5 3-8 3-3c2 0 2-1 2-19 0-13 0-19-1-17s-1 2-1-2v-5l-1 1-2 1h-3l-1 1h-1c-2 1-2 1-2-1a14 14 0 00-4-7m-116 2c0 2 0 2-1 1-2-1-2-1-2 1l2 3v2c-2 1-2 4-1 4v2l1 1a1 1 0 010 3c-1-1-2 4-1 5 1 2 6 1 6-1 0-3 0-3 3-3h3v-6c0-4 0-6-1-5l-1 3c0 5 0 6-3 5h-3v-8l-1-8-1 1m-121 5l-4 13 2 2c2 0 2 1 2 4s0 3 1 2 1-1 1 2 2 3 2 0c0-2 0-2 1-1 1 2 1 2 2 1s1 0 1 2l-1 3c-1-1-1 0-1 1 1 4 0 7-1 5h-1c-1 2 1 3 4 3 3-1 3-15 1-17h-2l-1-1c-3-2-2-5 2-4l3-1c0-2 3-3 3-1l1 1-1-3c-1-1-2-2-1-3 2-1 1-3-1-2h-1c1-1 0-2-2-3-2-2-9-4-9-3m51 15c0 3-2 4-3 0 0-3-3-3-3 0 0 2 0 2-2 1s-5 0-11 3c-8 3-9 3-9 1-2-3-2-3-4 1-2 5 0 9 3 4l2-1 5 3 1-2c0-2 2-4 3-2l-1 1a3 3 0 104 1c0-4 7-8 10-5l4 1h9v12l1 11c3 0 1 4-2 5-7 2-7 2-6-13v-13h-3l-2 1v15c0 14 0 14 2 14s2 1 2 3c0 6 1 7 6 7s6-2 6-9l2-3c2-2 2-2 1-3-3-3-2-4 1-5l4-2 3-4c2-1 3-1 2-5l1-8c2-4 2-4 0-4l-2-1c1-3-1-2-2 0l-1 3v-3c0-4-2-1-2 3 0 2 0 3-1 2a1 1 0 10-1 2l1 8c0 8 0 8-2 8s-2-1-2-14c0-8 0-13-1-12-1 3-7 4-8 2h-2c-1 1-1 1-1-1l2-4c2 0 1-2-1-2l-3 4M81 560c-3 0-2 3 1 2v1c-1 2 0 2 11 2 12 0 12 0 11-2l-3-3H81m-1 10l-1 1 1 1 3 1 1 3c-1 1 3 1 8 1 9 0 13-2 12-5-1-2-23-4-24-2" tabindex="-1" itemprop="light" style="fill: rgb(104, 130, 146); fill-opacity: 0.45; fill-rule: evenodd; color: rgb(234, 106, 26);"></path><path d="M1 55v55l1 2 1 6-1 4-1 12c0 9 0 12 1 11l1-5v-3l1 3 1 4 1 1c2 1 0 8-3 9-4 0-3 5 2 5 4 0 4 0 3 1l-4 1c-2 0-3 0-3 5v5h4l5 2c0 2-2 2-5 0l-4-1v83c0 2 1 3 2 3l11 1 13 2c3 0 4 1 4 3s-2 3-13 1l-12-2H1l-1 52 1 53c2 0 2 0 1 2-2 1-2 5-2 28v27h9l21 2c10 0 11 0 11 2s-1 2-11 2l-20-1H1l-1 11 1 15v35l1 5c-2 3-2 25-1 26v11l-1 80v69h513v-72l-1-58c0 13 0 14-2 15-2 0-3 3-5 7l-2 6h3c2 0 2 0 1 1s-15 2-22 1c-5-1-3-2 3-2 7 0 8-1 8-6 0-3 0-5 2-5 2-1 1-3-1-2-2 0-2 0-2-4a7 7 0 00-1-6c1 0 2-7 0-7l-2-1c-1 0-2 2-1 11 0 14-2 23-4 16-2-5-2-46-1-46l1-1c-1-2 0-2 2 0s2 0 0-6c-1-5-1-7 1-5 3 1 5 1 5-1 1-2 1-2 3 1l2 5c0 2 0 2 1 1l4-1c2 1 3 0 4-1 1-2 1-2-1-2l-3-1c0-2 0-2 1-1s2 1 4-2c1-2 1-2 2 0v-27a35 35 0 00-1-14v-5c2 0 2 0 1-1v-21c1-14 0-28-1-27l-1-1c0-1 1-2 2-1l1-24c0-25 0-25-2-26-3-2-5-2-3 0v1l-2-1-2-1 1 2 1 2 2 2h4a4 4 0 01-5 3h-1v-1h-4c-1-1-1-1-1 1v1l-1 2-1 2c-1 0-2-1-1-2v-13l1 4c0 9 3 5 3-4 0-6 0-7-1-4s-1-5 1-13v-4h-12v15l-1 18c0 2 0 2-2 2-1-1-2 1-1 4l-1 1-1-3h-1c0 2-4-1-4-4v-2l-1 2c-1 2-1 1-1-3a8 8 0 012-6l-1-2c-2 0-1-12 1-15 2-4 1-5-1-4s-2 1-2 16 0 15-2 15l-3-1c-1-3-5-2-5 0s0 2 1 1c2-2 3-1 1 2l-4 2c-1-1-1 0-1 1 0 2 0 3-2 3l-1-1v-3c1-1 1-1-1-1s-3 0-3 2c1 2 1 2-2 1l-4-1 1 2v2l1 2v1a2 2 0 102 3h1l-2 2c-2 0-3 1-3 2l-1 6-1-2v-4c-1-2-1-1-1 2 0 5 0 5 3 5l3 1c-2 1-2 3 0 5a2 2 0 11-4 2c0-4-1-3-1 1a9 9 0 008 8v1c1 1 0 1-1 1-2 0-3 4-1 4l1 1c-2 2 2 1 4-1v1l1 3 2 2 1 2h-1l-9-1v-3c-2-2-6-1-7 1l-1 1-1-2-1 1v1h-2l-4-1-3-1h1l1-1-1-1c-1-1-2 0-2 1h-1l-2 1c-3 1-1 4 2 4v2c-3 2-2 4 1 5l2 3c-1 1 0 2 1 1l3 3c2 4 2 5 0 5h-2v-2h-1l-1 1c-2 0-3 3-1 3 1 1 1 1-1 3l-2 2 2 2c1 1 3 2 4 1 2 0 3 2 3 5l1 4 1 2 2 5c1 2 1 2 2 0 2-2 4-3 3-1l1 2c2 2 1 3-4 3-3 0-4 0-2 1h8l5-2c2 1-1 4-4 4s-3 0-1 2c2 3-2 3-6 0-2-1-4-2-5-1-1 0-2 0-1 1s0 2-2 3l1 3 4 5c1 3 2 4 4 2 0-1 3 1 3 4v3l-1 2-1 1-1 1v1c1-1 2 0 2 1 0 5 2 7 5 6 4-1 4-1 4 1v1h2c1 2-1 2-3 1h-2l2 1 1 1 2 2h2c-1-3 1-2 5 0 5 3 5 5 5 31l1 22a3 3 0 01-2 4v-1l-1-3-2-7-3-4-10-2h-11c-3 1-9-1-7-2l1-10 1-9-1-1v-2c3-2 3-2 3 0-1 1-1 1 0 0l1-2c-1-2-1-2 2-2 5 1 6-1 2-2-4 0-5-2-6-4 0-2 0-2 3-2 3 1 4 1 4-6l1-4h-11l-13-1-2-28v-26l-3-1c-4 0-4 0-5-13l-1-12-2-8c0-8-1-8-2-6-2 2-2 0-2-12v-17c-1-2 0-3 1-4s1-1-1-1c-3 1-5-2-3-2l5-3-2-1c-7 2-9 2-11-1-1-2 0-3 9-5l9-2 12-1c8 0 9 0 9-2s-1-2-4-1a5 5 0 01-6-3v-2c-1-3-4-3-5 0-2 3-2 4 1 2v1l-17 1c-11 0-15 0-14 1 2 1-1 3-4 3h-4c0 2-2 1-2 0 0-2-5-2-5 0l-4 1c-5 0-3 1 2 1l6 1-5 1c-7 1-11 3-8 4v1l-2-1h-1c0 3 2 4 4 3 5-4 8-3 8 0s1 4 2 5c3 0 5 4 3 4l-3-1 1-1h1c0-2-4-2-5-1h-2c-1-1-1-1-1 1-1 2-1 2-2-1s-5-6-5-3c0 2-2 1-3-2-2-4-3-4-3 0v3l-1-4c0-3 0-3-3-2-3 0-4 0-4-2l-2 1-2 4c0 1 0 2-1 1l-1 1 3 1 1 1a3 3 0 01-5 0 3 3 0 00-2-2c2 2-4 4-6 2-1-2-1-2-1 0 1 4 2 6 3 4 1-1 1-1 1 1-1 1 0 2 2 3l2 2-2 2c-2 2-2 2 0 2 3-1 4 1 1 1l-3 1-1 1v2l-1-1c-1-1 2-7 3-7l-1-1-2-3-3-4-2-2v-4c-2-1-2 0-2 4 1 5-1 7-1 2 0-2-1-3-2-3l-1-1-1-1-1 6c0 5 0 5 2 4 1-3 1-3 3 1 1 3 1 3-1 2-2 0-3 0-3 4s-2 7-2 3c0-2 0-2-1-1v5l-1-1-2 2c0 2-1 3-2 3l1-4 2-5 2-4c3-2 3-2 1-5s-5-6-5-4l-1 1h-1l2 2c3-1 4 2 3 5-1 1-1 1-2-1l-1-2h-2l-3-1h1l1-1-4-1-1-1-2-3c-1-1-1-1-1 1 1 1 0 2-2 1h-2l5 2 1 2 1 2 1 2-2 1c-2 0-2 0-1-1s0-3-2-2l-2 1h-2c-1-1-2-2-4-1h-4c-1-1-1-1-1 1v3l-1-2c0-2-1-2-2-2l-1 3c0 1 0 2-2 1l-1 1v2l-3 3c-3 2-3 2-4 1s-1 0-1 2l-1 3a2 2 0 00-1 3c0-2 2-1 2 1v2c-1-1-5 1-5 2l-2 1-3 2h2c1 0 2 0 1 2 0 2-2 3-2 1l-2-1h-2l-1-1-1 2c1 1-2 3-3 3-1-1-1 0 0 0 0 2 1 2 2 1l1-1c1 3 1 4-1 4a1 1 0 000 3c1-1 1 0 0 0 0 1-1 2-2 1l-3 1 1 1 2 1c2 2 3 2 4 1l2-3 2-3h-2l1-2 1-1h1c2 0 2 1 1 1-1 2 3 7 5 7a1 1 0 110 2v1c0 2 2 0 3-3l-1-2c-2 1-2 0-1-3 0-2 1-2 1-1l2 1 1-1a4 4 0 010-6v-1c2 0 2-1 2-3l1-4 1 2v6l2-1 3 6-1 1-2 2c0 2 0 3-2 2l-1 1c1 2-2 6-4 5h-1v1l1 1-1 1c-3-1-3 1-2 3 2 2 3 3 1 3v1c0 2 0 2-1 1l-2-1v-2c0-3-1-4-4-5v3c1 1 1 3-1 5l-2 2v-6h-2l-3-2-2-3v-3h1l-5-3c-4-2-4-2-3 0 2 2 2 2-1 1l-4-1 1 2c2 3 3 3 6 3l3 1v3c-3 0-5 2-3 4a4 4 0 01-5 6v4l2-1c1-1 1-1 1 2-1 3 1 4 2 2l1-1 1-1 2-1c2 1 4-1 2-3l2-1v-2c0-2 0-2 1-1l1 5c0 4 0 5-2 4-1 0-2 0-3 2-1 1-2 2-3 1l-1 1v3h-1c0-2 0-2-1-1l-2 1 1 1v3h-1l-1-1-1 2-1 2-2 2 2 1c2-1 1 0-1 2v2c1 1 0 4-2 3l-1 3 1 3a1 1 0 010 3c-2-1-2 0-2 1l-1 2-2 1a2 2 0 01-3 1l-1-1h-2l-1-1-1-1c-1-2-1-2-1 0l-2 4c-1 3-1 8 1 8l1 3c0 3 0 3 1 1l1-2v-1h2c1-2 1-2 1 0l-1 2-1 4c0 2 0 3-1 2l-1-2c-1 0-2 3-1 4v2l-2-3-2-3 1 3 2 5v5c0 1 0 2 2 2l9 1c1 1-2 6-3 6-2 0-3 4-2 7 1 2 1 2 1-1 1-3 1-3 2-1l3 2v4c2 2 2 2 0 2l-2 4-1 3c-2 0-2-2-1-4 2-1 1-5-1-5s-2 0-1 1c2 0 2 1 0 3 0 1-2 2-3 1a1 1 0 100 2l2 3 1 2h3v2c1 1 0 1-2 1l-6 1-2-1 3-1c1 0 2 0 1-2l-1-1-3-1c-2-2-13-3-22-1-2 0-1 0 1-1l3-2h1l3 1c2-1-3-3-7-3-2 0-3 0-2-1l8-1c9 0 14-1 12-2l-1-3c1-4 0-7-1-6-2 0-2 0-2-2l-1-5c0-3 0-3 4-3l-7-1c-10 0-12 0-8-1h7c4 0 11-7 8-9l-1-3-1-2-1-10v-10l-8-8c-5-6-8-8-9-7h-12l-12 1c-1 1 2 1 10 1 6 0 10 0 9 1h-12c-6 0-9 0-8 1l9 1c7 0 8 0 7 2l-8 1-6 1 1 1 1 10 1 10v-5l1-6 1 9c0 8 0 10-2 8-1-1-4-2-6-1h-2l-4 1-5 2c-2 0-1-4 0-4l1-2 1-2 1 1v1c2 0 2-1 2-3 0-3 0-3-3-3l-3 1-1-15v-14h5l5-1c0-2 0-2 2-2a25 25 0 0016 1l4 1c4 0 4 0 4-3 0-2-1-2-3-2l-3-1c-1-3-3-2-3 1-1 2-1 3-2 2h-1l-1-2c1-2 0-3-1-3l-1 2c1 2 0 3-3 4-1 1-2 0-1-1h-11l-4 1h4c4 0 3 2-2 2-3 0-3 0-3-9v-32c-1-3 3-3 5-1h4l5 1 1 2c0 2 1 3 4 5l4 2v-1c0-4 1-7 3-7v4l1 1-1 1c-2-2-1 0 1 3 3 3 4 3 4 0l1-2 2 2a3 3 0 005 0v-2l1-1 2-2c2 0 3 1 3 2 0 2 1 1 1-2 1-2 0-3-1-4-1-2-1-6 1-5v-27c0-6-1-7-3-7l-3-2c-2-2-3-1-3 1-1 2-2 2-4 1-1-1-1-1 1-3 3-2 3-2-1-3-3 0-3 1-3 3s0 2-3 2l-4-1v5c0 2 0 4-1 3l-2-1-1-1 1-1 3-5c0-5 0-5 4-5l3-1c0-2-1-2-5-2s-5 1-5 2l1 2a2 2 0 01-1 4l-3-1-1-2c0-1-1-1-3 2s-3 3-5 3c-2-1-2-1-2 9 0 9 0 10-2 9l-1-9c0-5 0-7-1-6-2 2-2 0-1-5v-5h9c6 0 8 0 7-1-2-1-2-3-2-8v-8h13l4 1h3c0 2 0 2-1 1h-2c-2 0-2 0-2 2l-1 2v-2c0-2-5-2-6-1l1 1 1 1-3 1c-4 0-5 1-5 4a32 32 0 0019 1l4 1c6 1 8 0 8-5 0-4-2-5-3-2l1 1h1c0 2-5 1-5-1-2-4-1-5 5-5l1-5 2-14c3-9 3-14 1-14l-1 1h-1l-1-1-2-1h3l3-1 2-3v-3c2 0 2-1 1-3l-2-3h16v7l1 7v-9c0-7-1-13-3-13l-1-3c-1-2-1-2-1 1l1 3 1 3c1 2 1 2-7 2a15 15 0 00-10 2v-1c1-1 1-1-1-1-6 0-12 2-30 11-20 10-20 10-20 7l-1-2c-2 0-2 1-2 4v5h-12c-11 0-12 0-13-2l-2-1c0 2 0 2-8 2l-9 1 1 7-1 7-4 2-3 2-2 3-3 4v3c0 2-2 3-5 2l-1 1h-6c-3-2-2-4 0-4 3-1 3-4 0-5l-2-4c0-2 0-3-1-1-1 4-1 5-3 2s-3-4-1-3v-6l1-1 2-2 1-3v-2l-1-2v-2c3-4 2-4-2-4l-10-1h-5v-5l1-5 3-7-1-2-2-1c0-1 5-5 7-5l2-2 2-4c2-2 1-6-1-6a2 2 0 01-1-3l1-2 2-2 1-5-1-4c-2 2-2-1-1-3l2-5c0-4 0-4-4-5l-4-1h2l1-1 1-2 1-2 2-3c2-1 2-3 2-7v-5h-4l-8-2h-4v-6l-1-14c-3-14-4-24-1-29a40 40 0 002-17l-2 2c-1 0-2-1-1-7 0-5 0-6-1-5s-1 1-1-3 0-4 3-4c1 0 2 0 1-1l-2-1 2-1 1 1v14l4-2c2-1 4-2 5-1l-1 1c-5 1-5 3-6 14a55 55 0 001 14c-2 2 0 5 4 6 6 2 5 1 4 4-1 2-1 2 2 3l3 3 2 2h3l3 1h3a2 2 0 003 1l2-1 1 1 1 1 3 1 2 1c3 0 7 5 6 6v2l1-1c0-2 4-2 5 1l4 2c2-1 3 0 4 1l2 2 1 1 3 1a3 3 0 015 3l5 2h2l1 1c0 1 1 2 3 2l4 1h2l2 1 4 2 7 3 8 2c2 1 3 0 3-1v-1h-2l-3-1v-1c1-1 3 0 6 2l5 2h2c0-2 2-1 2 1l3 2 6 1 6 1h4c2 1 5 1 6-1h2l1-3c0-3 0-4 2-4l1 2 3 1 2-1 1-1 2-11c0-12 0-15 2-12l1-3v-6l1-1c1 1 1 0 1-2l2-13 3-21c0-13 1-15 2-15 2 1 3 4 1 5-1 1-2 7-1 16 1 5 1 2 1-4v-6l1 5 2 6a6 6 0 01-2 7l-1-1c-1-3-1-2-1 3-1 7-1 10 1 9l1 1c1 1 0 1-2 1s-2 0-1 3v4c-1-1-1 1-1 7a32 32 0 01-2 15 8 8 0 017 10h-4v2c2 1 2 1 2-1 1-1 1 0 1 3 0 4 0 4 2 3 1-1 2-19 0-19s-2-4 0-5v-11l-1-6c-1-3 0-8 2-5l1-1v-2c-1 0-2-9-1-10 1-2 2 0 2 4v3l1-5 1-6 1-5 2-9c2-5 3-19 3-36 0-2 0-3 2-3v1c-1 0-1 3 1 3l1 3c0 2 0 2-1 0s-1-2-1 1a23 23 0 003 18h-1c-1-1-2 2-3 11 0 7 0 7 2 7l2 1-2 1c-2 0-3 0-3 12 0 14 0 16-2 18l1 2h1s1 2 3 2l3 2h-4c-3 0-4 0-3 1l-2 2v1c2 0 2 1 2 13a32 32 0 002 14l4 1a7 7 0 006-1c1 2-2 3-8 3h-5l3 2 4 2-4-1h-3v5l2 6v-6c-2-2-1-3 3-3 6 0 7 0 5-1s-2-1 1-1l5 1 1 2c0 2-1 2-3 2-3 0-3 0-3 2s0 2-1 1l-1-3h-2c-1 2-1 2-1 0 0-3-2 0-2 4l-1 4h4c6 0 7 0 4 2h-4a2 2 0 00-3 2l3 2h2a13 13 0 013 13v2l-3-3c-3-4-4-4-6 1l-2 3-1 1c0 3-4 5-6 3v-2l-1-1c-2 0-2-1-2-4l1-5c2 0 1-16-1-22l-2-4v21l1 9 1 7c2 1 2 5-1 4l-3 1c-1 1 4 2 5 2h1c1 1 3-1 6-4 6-6 6-6 12 0 4 3 5 5 3 5l-1-1-1-2-3-2c-1-2-2-2-2-1h-1c-2-2-2-2-3 0l-1 3-4 3-4 3s-2 11-1 12l4-3c7-5 19-3 21 4 1 4 0 5-2 2-3-5-10-6-16-3-5 2-6 5-6 24 0 15 0 17-2 17l5 1c6 1 5 3-3 3l-3 1-1 1-2 1h-2l-5-1c-2 1-2 1-1 2h10c3-2 3-2 2 1-1 1-2 2-3 1l-2 1c0 2 0 2-1 1h-2c-1 1-1 1 1 2 4 1 4 3 0 2l-3 1c1 1 0 1-3 1-4 0-5 1-3 2l1 14 1 14v11c2 0 1 2-1 2h16l8-1-2-1c-2 1-3 0-1-1l1-3h-4c-3-2-2-4 1-4l2-2 2-1 2-2c1-1 0-2-1-1l-1-2c0-3 0-3 4-2 3 0 3 0 2-2-2-3 0-6 3-4l1-3a6 6 0 013-5v-1l1-3v-3c1 0 5 2 5 4h1v-1l1-1 1-3c1-3 3-4 3-1 1 1 1 0 1-2 0-6 1-7 6-7 4 0 6 2 4 4l1 1c3-2-1-8-5-8l-3-1h3c2 0 2 0 2-8s-1-10-4-8c-1 2-2 2-1-2 0-3 1-4 2-4 2 1 4-2 3-6l-1-6-2-9-1 4c-2 9-3 6-2-6 0-10-1-13-2-3 0 2-1 1-1-3-1-7 0-9 2-7 1 1 1 1 1-1l1-4v-1c-1-1-2-4-2-13 0-11-3-31-4-31-2 0-1 18 0 20l2 2v9h-1c1-3 0-8-1-8l-1 1c1 1 0 4-2 7l-2 5-1-7-1-9c-1-1-1-3 1-4 3-3 3-19 0-19-3 1-4-24-1-29v-12l1 4v21l1 3c0 2 1 2 3 2l1 1-1 1 1 1c2 1 3 3 1 3-1-1-1 0-1 4v3l1-3 1-2c0 2 4 4 5 4l2 2 3 2s2 1 2 3c1 2 2 3 7 3 6 0 7 1 6 2l2 1 13-2 18 1h4l5 1c2 1 6 1 7-1h21v-2l1-1 2 1 3 2 9 1h7l1 1 2 1 2 1 1 1v-1c-2-2-1-3 2-3 1-1 2 0 2 1 0 2 3 3 4 2 0-3 3-3 5-2l5 2h5l1-1h2c1-1 8 0 10 1h1c-1-2 2-2 4 0 1 1 2 2 5 1l4 1h1c1-2 3-2 5-1 2 2 9 0 17-4 2-2 3-2 3-1l5 2 5 1c0 1 3 1 6-1l6-1 3-1 3-1c2 0 2-3 2-58l1-74V71l1-71H1v55m48 27l-1 4-1-2c0-3 0-3-10-3l-11-1a2 2 0 101 5l5 1h-3c-5 0-7 2-5 4v2c-2 2-2 14 1 14l1 3c0 1 0 2 1 1l1-2 1 2v2c1 0 2-5 1-9s0-6 2-5c1 1 1 1 3-1l3-2c1 1 2 0 3-2l1-2 1 2c1 2 2 3 6 3 6 1 7 2 6 5 0 2 0 2 3 2s3 0 3-2v-2l11 2 10 3v11l1 9 3-4 2-4v-2l-1 2c-1 7-2 2-2-10l1-13-4-1a570 570 0 01-24-6l-5-1c-2 0-2 0-1-1v-1l-2-2c-1-2-1-2-1 1m-18 20c0 2 1 3 8 4l5 2h-2c-2-1-6 0-4 1 1 1 1 1-1 1-1 0-2 0-1-2h-1l-1 4-1-1c-1-2-2-3-2 0 0 2 3 4 4 2h1c0 2 2 1 2-1l1 1 1 3 1-3 1-2v2c-1 3 1 4 1 1h1l1 2 1-3c-1-3 0-5 2-5a1 1 0 110 1l-1 1 1 1v1l-1 3c0 2 0 2 1 1h2c0 1 1 1 1-1 1-1 1-1 1 1l2 2c2 1 2 1 2-1h1c0 3 6 4 7 2l1 7c1 7 2 9 3 9a1 1 0 100-3l1 5c0 3 0 4 1 3l1-5c0-2 1-5 3-6 3-4 1-4-2 0l-3 2v-12c1-9 0-12-1-12-2-1-3-1-3 1 0 1-3 1-3-1-1-2-8-4-9-3s0 2 1 2c3 1 2 2-1 2l-5-4c-2-2-7-4-8-3l2 2c1 2 1 2-1 2l-5-2c-2-3-4-4-5-1m36 52l-1 3-1 2-1 5v9c-1 4-1 5 1 5l1-1c-1-2 1-2 5-1 1 0 2 1 1 2 0 1 0 2 2 2l2-2c-1-1 0-1 1-1 5 0 6 1 6 8 0 4 0 7 1 6l2-4c2-2 4-13 2-11l-1 5-1 5c-1-1 0-14 1-15 3-1 0-2-5-2l-8-2c-1-1-1-1 4-1l5 1-6-1c-9-3-10-4-7-11 0-2-1-3-3-1m-39 4l-1 13v13l9 1 19 1h-3l-1-12c0-14 1-13-10-14l-11-3-2 1m1 12c0 10 0 12 2 12l2-1h1c0 1 1 2 5 2l8 2h3v-23l-9-1-10-2c-2 0-2 1-2 11m-1 104l-1 53 1 46c3 0 3-10 3-61l-1-45c-2 0-2 1-2 7m12-1l-1 71 1 31h1V271h-1v2m7 32v80l1-86-1 6m461 1l-5 2-2 1 2 1c2 1 3 3 1 4-1 1-6 2-13 2-16 1-25 4-22 7l2 4c0 2 0 2 6-1 3-1 7-2 8-1l1-1 1-1v1h1l3-1c3 1 5 0 5-2l2 1 3 2c2 0 2 1 3 7 1 1 1-1 1-6 0-8 0-8 3-9s4-3 4-7-1-4-4-3m-320 43c-21 11-24 13-20 13 2 0 2 1 2 4s0 4-2 4-3 2-1 2h3l4 2c0 2 2 0 2-3s3-6 4-3l2 1 2 1h2c1-2 5 0 5 3l1 2v-7l1-6 10-1c1-2 2-1 3 1v3l1-3 1-1v-3l-2-3c0-3 2-4 7-5 2 0 1-2 0-2a2 2 0 111-2h5c0-2-1-2-2-2-6 1-8 0-8-2 0-4 1-4-21 7m137 1l-2 2-3-1-3-1-3 1-5 1c-4 0-4 2 0 3s5 1 1 1l-4 1c0 1 1 2 4 2l4 1h-5c-3 0-4 0-4-2l-1 1v-1c0-3-1-4-8-3-4 0-4 0-3 4l1 15c0 15 0 15 6 14a3 3 0 015 2l2-2c2-1 3-3 1-3-1 0-2-1-2-3 0-3 0-3 3-2 5 1 5 1 1 1s-4 2 0 3c2 0 3 1 3 2 0 3 4 7 4 4l2-4c1-1 1-1 1 1-1 1 0 2 1 2l2-2 1-2v2c0 3 2 3 3-1a3 3 0 013-3l2-1c2 1 3 0 2-1l1-1c1 0 2 0 1 1a3 3 0 003 3c0-1 1-1 2 1l3 1-1-1-2-2c-1-2-1-2 1-2h2l1-2 1 1c-1 1 2 2 3 2l-1-1-1-8c0-9 0-9-2-9a4 4 0 01-5-3c-1-1-2-2-3-1-2 0-3-2-3-6l-1-4h-8m-183 31c-1 2-2 3-4 2l-3 1 2 1h1l2 1h2l-2 2c-1 1 1 1 3 1 4 0 5 0 6 2 1 5 4 6 5 2 0-3 0-3 2-2 1 3 6 2 7-1l-1-3c-1-1-2 0-2 1 0 3-7 1-7-2l-3-3v-2l-1-2-2 2c0 3-2 3-4 0-1-2-1-2-1 0m246 17l-1 3c-1 1-1 1-1-1l-2-2c-2 0-3 2 0 3l1 2h-1c-1-2-2-2-3 0-2 0-2 1-1 1l1 2-1 2-1 2c0 3 2 2 4-1 1-3 4-4 3-2 0 2 3 3 4 2h4c4 2 7 2 4-1v-7c-2-1-4 2-4 4a1 1 0 11-2 0h-2l1-1c2-1 1-4 0-3l-2-2-1-1m-269 2c-1 0-2 1-1 5l-1 4h-1l1 1c3 1 6 26 3 26-1 0-2 1-1 4 0 3 2 3 2 0 0-2 0-2 1-1 2 3 1 5-2 5-3-1-6 1-4 2h1l2-1 1 2-1 4c-3 2-2 3 0 2 3-1 2 2-2 4l-2 6 3-3 3-3c3 1 5-2 2-3l-1-3-1-3 2 2 2 1c0-2 1-2 3-1 3 2 4 11 2 11l-1 2 2 1v3l-2-2-3-4c-2-1-2 0 1 2 2 3 2 3 1 5-3 4-2 5 0 5 8 0 6 4-2 4-4 0-5 0-4-1h3l2-1-2-1v-1l-1-1-1 1-2 1-2 1c0 2-1 2-6 1l-7 1 10 1c10 0 10 0 10 2s-1 3-3 4l-2 2 5-2c4-2 7-3 4-1v11h2v-7c1-1 2 0 1 1l1 2h1c-1-1 2-6 4-6l1 1v3c1 1 2 0 1-2v-3l2 3 4 3c2-1 2 0 2 2l-1 2-4 4 1 1c2 0 3 3 3 6v3l1-1 2-1c1 0 2 3 0 4v1c3 2 2 5-1 5-2-1-3 1 0 3 2 1 0 2-2 1-3-2-4-1-4 2 1 2 6 3 6 1h1c2 0 1 2-1 2v1l3-1c3-2 3-2 3 0 2 2 1 4-1 4l-2 1c1 1 5 0 5-2l1-14v-12l1 12 1 14 1-29-1-29c-1 0-2-1-2-3s0-3 2-2l1-8c0-5 0-8-1-7l-1-1-3-1h-3c-2-1-9-2-9 0a1 1 0 11-3-1l1-4c0-1 1-2 2-1l1-1h4l2-2h2l-2 1-1 1-1 2c0 1 5 5 7 5v-4l1-4v-3c0-2 0-2 2-1s2 1 2-3l-1-3-1 2-1 2-1-1-3-2c-2 0-2-1-2-2v-1c-2 2-5 2-9 1-2 0-2-1-2-4 0-4-1-7-3-6l1 3c1 1 0 4-2 2l-1 1c0 2 3 4 3 3v4c0 2-5 3-5 1l-2-1c-1-1-2 0-2 1h-3l-4-1v-7l-1-8c-1-3 7-2 10 0l2 1 2-1 1-2c-1-2 2-3 5 0 2 1 2 1 1 2-3 0-2 1 1 3 2 1 2 1 2-1v-4c0-2 4-3 4 0h5c2-1 2-1 2 1h2c0-2 1-2 1-1l1 1v-8h-8c-5 0-6 0-6-2-1-2-1-2-1 0l-1 2c-3 0-3-1-1-3v-1l-3 1v2c0 2 1 3 3 2l2 2-6 1c-7 0-7-1-7-3l1-2 1-2c0-2 0-2 1-1h1l5-1 5-1c-1-1-25-2-29-1m184 10c-1 2 2 6 3 4 2-3 5-1 4 3 0 3 0 3-3 3-1 0-3 1-3 3-1 2-1 2-3 1h-1a2 2 0 01-3 1c0-2-2-1-3 2v2l-2 2-2 2c-1 2-1 3 0 0l3-1-1 3c-2 2-1 3 1 1l6-1c1 0 2-1 1-2 0-2 0-2 1-1l4 1c4-1 5-3 0-2-3 0-5-2-2-3v-3a3 3 0 015 1h-3l1 1v1l-1 2c1 1 5-3 5-5v-4h2l1 2c1 0 1-1-1-3v-5l1-2h-2c0-2-1-2-3-2h-2v-3l-1-1-2 3m-107 54c-2 1-3 5-1 5l-1 3-2 3 3-1c6 0 6 0 7-2s1-2 2 0c0 3 3 3 3 0 1-3 3-2 2 1l2 2c2 0 2 0 1-1v-4c2-4 1-5-8-4l-7-1c1-2 1-2-1-1m185 54l-2 2-2-1v3a1 1 0 101 3v7l1 3c-1-1-3 4-2 6s2 2 3 2c2-1 2 0 3 2 1 1 2 2 3 1 2 0 2 1 2 12v13h-5l1 1c0 2 2 3 4 2h2c3 4 3-1 3-27v-28c2 0 1-2 0-2-2 0-2 2-2 10 0 10-1 14-3 13l1-2c1 0 2-18 0-18-1-1-1 2-1 6l-1 8c-2 0-2-1-2-6 0-6-2-8-2-2l-1-3c0-6-1-7-1-5m-123 6l-2 5c-2 5-2 8-1 9v5c-2 0-2 0-1 2a2 2 0 003-1v-2c1-4 2-3 2 1l1 4 1 3 1 7c0 2 0 3-1 2l-1 2c0 1 0 2-3 2s-3 0-2-1v-6l-1 3-3 3c-3 1-3 2-2 2 3 1 2 3-3 5-2 1-3 2-3 4l-1 2c-1 1 0 1 2 1s3-1 3-2h1c1 2 4 0 5-3 0-6 0-6 3-6l5 1h10l1 1c1 1 2 0 1-3 0-3 3-5 6-4l1-1h1l1 2c1-1 1-2-1-5s-3-3-3 0c0 2-2 3-2 1-1-2-4 2-4 4s0 2-2 1c-1-1-2-1-1-2s2-11 1-14c-1-1-2-3-4-3-3-1-3-4 1-4 2 0 3-1 3-2 1-1 1-1 3 1s3 0 1-2c-1-1-2-3-1-4 0-4-13-12-15-8m47 8c2 2 1 5-1 5-1-1-2 0-2 1l-1 1-10 3c-9 3-11 3-8 0 3-2 2-2-1-1l-4 4v6l2 2c1 2 1 2 2-1 0-2 0-3 2-2 4 1 5 1 5-1l1-1-1 7-1 9-1 3v4c0 3 0 4-1 3 0-2 0-2-1-1s-1 1-1-1l-1-2v-7c1-1 0-1-3-1-4 0-5 3-1 4 2 1 2 1 0 1-6 0-1 15 5 15v1c-2 1 0 3 4 4 4 0 4 0 4-2l2-4c3-2 5-9 5-13v-5c2-1 1-6-1-6v2c2 3 1 3-1 3h-3c-2 2-3 1-3-2v-1c-1 1-1 1-1-2s0-3 3-3c2 0 2 0 2-4s0-4 4-5c5-3 5-3 5 2 1 6 0 9-2 9l-1 6 1 6v4l1 3c2-1 2 0 2 1l2 2c2 0 2 1 3 6 1 2 7 4 10 3 1 0 3-7 2-8l2-3c2-2 3-6 1-4l-1-2c0-1 1-2 3-2l2-1c0-3 5-6 8-6h4v-7a11 11 0 00-3-10c-1-3-4-4-6-2l-1 1c0-4-2-2-2 2 0 5-3 4-4-2 0-5-2-7-2-3 0 1-1 2-3 2h-3l-1-1c-3 0-3-2-2-4 2-2 2-2-1-2s-3 1-3 4c0 2 0 3-2 2l-1-4c1-3-1-7-3-7l1 2m-145 6c0 6 0 6-2 0 0-2-2-3-2 0l-1 1a2 2 0 10-2 4c2 0 2 3 0 5-1 2-2 3-3 2l-3-1-1-1 2-3c1-1 1-1-1-2h-2l-3 1c-2 0-2 0-1 2v3l-1 2 4 1h9c5 1 10-2 9-4l-2 1c-1 2-1 2-2 0-2-1-1-2 1-3 3-1 3-1 3-8 0-4-1-7-2-7v7M0 611c0 39 1 55 1 35a5722 5722 0 00-1-35m381-65l-1 2c0 2-1 2-2 2-4 0-6 0-4 1l1 2c-1 3 1 4 3 4v-4c2 0 3 2 2 4 0 2-1 3-2 2l-2-1h-2l-2-2h-3c-1 0-2 1-2 3l1 4 3 2 6 1 7 2c2 1 2-10 0-12l-1-4c1-4 0-7-2-6M86 557c-6 0-7 0-7 2h-1c-1-1-1-1-1 1l-2 1-1 1 2 1 1-1 1-1 1 2c0 2 1 2 3 2h13c10 1 14 0 10-1v-1l1-2c0-3 0-3-6-3-5 0-6 0-3-1l3-1h-4l-10 1m-15 14c0 3 0 3 4 3l5-1c1-1 4 2 3 4-1 1 0 1 5 1 12 0 16-2 16-7v-2H72c-1-1-1 0-1 2m263 28c0 2 2 2 31 3 28 1 35 0 40-1 3-1-11-2-46-3l-25 1m-209 5H64l-12 1c0 3 94 2 97-1h-24" tabindex="-1" itemprop="regular" style="fill: rgb(63, 133, 157); fill-opacity: 0.632; fill-rule: evenodd; color: rgb(208, 114, 82);"></path><path d="M1 6c0 7 1 10 2 9l1 2c-1 1-1 1 0 0 2-2 3-3 3-1-1 3 0 5 2 4 1-1 2-1 3 2l1 1c0-2 0-2 3 0a5 5 0 004 2l1 1 2 2v1l7 3v3l4-2h2l3 2c2 1 3 1 2 2l1 1h2l2 1 8 3 5 2 4 1 2 1 1 1c-1 1 0 1 2 1l2 1h1c0-1 1-1 2 1 2 0 3 2 2 2h2l5 4 3 4c2 0 5 4 4 4l2 2c2 1 4 2 4 4l1 2 6 6 2 1 5 5 1 3v3c-1 1 0 1 2 1l5 1 2 1h2v3-1l-1-1c-1 2-1 4 1 3l1 1c0 2 0 2 1 1s1-1 1 1 1 2 5 2v4l3 3 4 1 1 1 1 3c2 2 3 1 2-1l1-1 1 3c0 2 4 5 5 4l2 2 1 2 1-1a1 1 0 011-1 2 2 0 002 2h2l2 1 1 1 3 3c0 2 4 4 6 3v1c0 2 2 3 4 2 1-1 1-1 2 1s2 3 3 2l2 1c0 2 2 4 4 3h3c1 1 4 2 4 0 0-1 2-2 2 0l1-1c1-2 1-2 2 1 0 2 1 3 3 4l5 1h2l2-2v-4c1 0 2-1 2-3l3-2c1 1 1 1 1-1l1 1 2 4c0 2 1 2 3 1l2 1 2 1 2-1 3-1 2 1 1 1c1-1 1 0 2 1 0 2 1 2 4 2s5 0 7 2 3 3 4 2l2-1h4a21 21 0 0013 0l5 1c3 0 4 1 3 2 0 2 0 2 1 1 1-2 2-2 2-1l5 1h14l2-1 2 2h21l2 1 2 1h2a7 7 0 019 1l-1 2c0 3 3 3 3 0l1-3v-1h5l7-1 5 1c-4 1 0 2 12 1 12 0 13 0 15 2s4 3 8 0l4-1 2-1h4l-1-1-1-1 1-1 2-1 4 2h2c2-1 1 1-1 3v1h2l2-2 2-1h1l3 1 1 1 1 3a9 9 0 009-6h2c2-1 2-1 1 1h2l1-3 1-1 3 4c2 6 5 6 10 1l3-1h4l1-1v2l-1 2h1l2-1 3-1 2-1c0 2 10 2 11 1h8l2 1c1 2 1 2 1-1v-1l2 1 5-1h5l2 1c2 1 3 3 2 3h4l2-1 1-2a7 7 0 001-9l1-73V0H1v6m5 72l-2 3H3c2-1 2-2 1-2s-3 2-3 5l2 2c3 0 3 2 2 4s-1 2-3 0c-1-2-1 1 1 13l1 8c-1 1-1-1-2-5l-1-5 7 46 5 30c0 3 0 3-6 3H1v50l5 1 4 2v2H9l-3 2-1 2 1-3v-4l-2 3-2 2-1 9c0 9 0 9 3 10a63 63 0 0020 3h4c5 0 5 0 5 3v3l1-3c1-3 1-3 1 1v111c1 0 2-8 2-41l2-56-1-16-1-13c0-10 0-12-1-11a1 1 0 110-2l1-1v-3l1 3c0 8 1 10 5 11 6 1 8 2 2 1h-5v3c0 3 1 5 3 6 2 3 2 3 0 2-3-1-3 6 1 7 2 1 2 2 2 7v6h5l11 2h6l1 5-1 8c-2 3-3 3-3-1 0-3 0-3-5-3l-10-2-4 1-1 2v9c1 7 1 7 1 2 0-9 2-8 3 2v48c-1-1-1 6-1 20v21h-4l-4 1 3 1c3-1 4 2 2 8v4l1 5c0 4 1 4 4 4l4 1v-11h-4c-3 0-4 0-4-2h1l5 1h4v6l-1 6-6 1h-5l-2 1c-2-1-3 0-2 1l3 1 3 1-2 1h-3l-3-3-1-2-1-1c0-1 0-2 1-1l1-8v-8l-1 6c-1 4-1 2-1-8 0-14 1-18 3-18l1 1-2 5 6-3c0-3-5-6-11-6l-6-1V266l-11-1-13-2c-2 0-2 1-2 13l1 13 10 1 11 2H10v47l1-22 1-21 1 10c0 5 0 6 2 6l1 1-1 1c-2 0-2 2-2 25-1 10-2 16-2 6 0-11-2-2-2 11v12h6l4 2 3 1 3 1c0 1-12 2-16 1-6-1-7-1-8 1 0 2 1 2 6 1l9 1h10c9 0 9 0 8 1-1 2-3 2-17 1H1v44h3c2 0 2 0 0 1-5 1-1 2 17 3 19 0 21 1 22 4 0 2 0 2-1 1 0-2-1-2-1-1l-20 1H1c0 2 3 2 21 2h22v-2l3-3c2 0 2 0 1-1-6-1-3-1 6-1l8 1c-3 1-3 1 1 1 4-1 5 1 2 4v2h3c4 1 1 7-4 7-3 0-5-2-1-4 3-1 1-2-6-2l-7 1-12 1c-35-2-38-2-36-1 2 2 2 2 0 2v15l1 4 1 2v-2c0-2 0-2 3-1h3c0 37-1 50-3 51l-2 1-2 1c-2-1-2-1-2 4s1 6 4 3c2-2 2-2 0-2-1-1-1-1 1-1l3-2c3-2 5-1 2 1l-2 4-2 3c-2 1-3 11-3 33l-1 2v-8l-1-7-1 72v71h510v-55l-1-55v-1l1-3c0-4-2-2-5 5l-2 7 3-1h4l-3 2c-4 3-27 3-26 0 0-2 1-2 5-1 8 1 9 0 9-6v-4l-2 2c-2 1-2 1-2-1l1-11 1-8 1-1-2-1c-2 0-2 1-2 12 0 10 0 12-2 15l-1 2-1-2-2-15c0-13-1-14-3-14-3 0-3-2 0-2 2 0 2 0 2-9l1-7 1-1c0-2 1-2 3-1 2 2 2 0 1-3-1-5-3-6-4-4s-4 3-4 1h-1l-1-1h3c1 0 2-2 0-3a1 1 0 111 0l2 1 7-1 2-1c0-5 5 0 5 5 0 2 3 2 9 0l-2-1h-3c-1 1-1 1-2-1s-1-3 1-4l2-2v-3a9 9 0 002-9c1-2 2 1 1 3l1 2v4l-1 4-3 1c-1 2-1 2 1 1 5-1 5-1 5-18 0-16-1-26-2-25l-1-1h-7l-2-1 1 2v3c0 2-1 3-3 1l-2-1a1 1 0 111-2h1l1-1c-1-1 2-3 3-2l2-2c2-1 2-1 4 1l3 1-2-3-3-3c0-1 1-1 3 1s3 1 3-7 0-8-2-6c-1 1-2 2-1 3l-1 1v-2c0-2 0-3-2-2-2 0-2 0-1-2v-1h-2v-1c1-1 2-2 1-3 0-4 3-8 4-5l2 2c2 0 1 2-1 4-3 2-3 3 0 3 3-1 5-25 2-25l-2-1h-2l2-3 2-3v-3l-3 2c-2 3-2 0 0-3v-1l-1-2 2 1c2 4 3 1 3-14 0-14 0-16-1-15-2 0-2 0-1-1l1-2 1-2c0-4-6 0-6 4l-3 3-1 2c3 0 0 6-4 6-1 0-2 0-1 1l-1 2c-1 1-1-1-1-6 0-6 0-7-2-9l-3-1-2 1c-1-1-1 0-1 1 0 2 0 2 1 1h1a4 4 0 006 4c0 2-2 3-4 1l-2-2-2-1c-2 0-3-2-2-2h-1l-2-1-2-1c-2 0-2-1-2-10v-9l-1 8c0 6-1 10-2 11s-3 1-2-1l-2-1-1 2-2 2c-3 1-4 3-1 2v6l-1 2c-1 0-2-3-1-4h-2c-4 3-5 2-3-1l2-3h-5c-3 0-4 0-3 2v5c-2 0-3 0-2 1h2l2 1-1 1-2 4c-2 3 0 7 2 5l1 1-1 1c-2 0-3 3-1 4l1 2c0 4-4 5-5 2-1-2-1-2-1 0-1 3 1 5 3 3l1 1c-1 1 2 3 3 3h1c0 3 0 4-2 3v3c2 4 4 4 4 1l1-3a4 4 0 00-2-8c-2 0-1-1 1-3 2-1 3-1 4 1 0 3 2 1 2-1-1-2 0-2 1-2l3 1c2 0 1 2-1 2l-2 3c0 3 0 3 2 3h2c0 2-1 2-2 1l-3 1-2 4c-2 2-2 2-1 3l1 2 2 1c2-1 2 4-1 5l-1 2-1 2-1-2v-3l-1 1-1 1-1 2c-1 4-3 3-3 0a5 5 0 011-4l-2-2c-2 0-2 0-1-1v-2c-3-1-5 0-5 2s0 2-2 0l-2-3-1-1-1-1c1-1 0-2-1-2h-1l1 4 2 1c2 1 2 1 1 2-2 2-2 2-4 0h-4l-1-2h-1l-2 1-1 1 1 1 1 1v2c-2 0-1 3 1 5l2 3 1 1c1-1 2 1 4 3 0 2 2 4 2 3v2l-2 1c-1-1-2 1 0 2 2 0 1 1-1 3h-2c1-1 0-7-1-7l-1 2c1 2 0 4-1 4-3 3-1 5 3 5l3 1 2 3 1 1h-1l-2 1 2 2 1 3c-1 2 2 6 3 5l1-2c0-2 0-2 1-1l2 1v1a7 7 0 002 5l4-1c6 1 6 1 3 4l-2 1 1-2v-1l-1 2-3 1-1 2 1 2 2-1-1 2c-2 2-3 2-3 1l-1-2-3-1-2-1-2-1c-3-3-6 4-3 7l2 4c0 1 3 2 4 1l3 3c1 2 2 3 4 3 3 0 3 1 3 3l2 2c1 1 1 1-1 1l-2-1c0-2-1-2-3-2-4 0-4 0-4 3 1 7 2 8 6 8 4-1 5-1 5 2l-1 2v2c1 2 2 1 2-2l1-5c2-1 0-3-2-2l-2-1c0-1 4-4 6-4s2-1 2-3v-7c1-2 0-3-1-2-2 1-1-1 1-3 3-1 3 0 3 3l-1 6v2c1 1 2 0 2-2 1-2 1-2 3-1v3l-1-1h-1l-2 8-2 2c-1-1-2 0-2 1v1c1-1 1 0 0 0l-1 2a3 3 0 000 4l2 1 4 2c2 1 2-2 2 45 0 2 1 3 2 1h6l-5 2c-2 0-2 0-2 4v5c-2 1-3-1-3-6 0-3-4-10-7-11l-15-1-14-1c-2 0-1-2 1-2 1 0 2-14 1-26l1-4 1 3c-1 1 1 2 6 2 5 1 5-1 0-2-4-1-7-6-4-6 1 0 2-1 2-4v-4l-9-1-10-2c0-1-2-2-5-2l-3-1-1-37c-1-36-1-41-4-46v-1c1 1 1 0 1-3 0-2 0-4-1-3l-1 2-1 2-1-5c0-9-1-12-3-12-2-1-2-1 0-1s2 0 2-8c0-5 0-7-1-4l-1 3v-6l-1 3-1 6-1 1-3 1a2 2 0 01-3-1l1 1-2-2c-2-1-2-1-1 2l1 3-2-3-4-2c-1 1-2 1-2-1-1-1-1 0-1 2l-1 3-1-2v-2l-1 8c0 4-2 9-4 8-1-1 1-4 2-4 1 1 1 0 1-1 0-3-2-3-2-1-1 2-1 2-2 1 0-2-2-1-2 1 1 2 0 4-3 3-3-2-3-4 1-4l3-3c0-2-2-4-4-3v-7l2-1c1 1 2 0 2-1l-1-1h-2c0-2 2-3 4-2v-2l-1-3-1-1v2l-1 2-1-2h-2l-2 1-1-2-1-2c1-2-2-3-3 0 0 3-2 3-2 0 0-2-2-3-4-1-1 1-2 1-2-1l-1-2-1 2c-1 2-3 3-3 2v-2l2-4-1 1-2 2 1-1c1-2-1-3-3-2-1 1-1 2 1 5v4c-1-1-2 0-2 1l1 1c0-1 3 1 3 3l-1 1v6l1 5 1 3-2-1c-1-4-3-3-5 1l-2 4h-2l-2 1 1-2c2 0 1-2-1-1l-1 1-1 1-1 2 1 3h-2l1 3 2 3c1 2 1 2-1 1v2h2v1c-1 2-2 2-4 1h-2v1l1 1h-3l-1 1h1l1 1 1 4c0 2 0 2-2 1s-4 0-4 3l-4 1v-2c1-2 1-2-1-2-2 1-2 0-1-1l-1-2-1-2h1l1-1 1-1 1 2c-1 3 1 5 3 4v-2c1-2 1-2-1-3s-3-4 0-4v1l1 1v-4l1-5c1-1 1-2-2-4-2-2-3-3-2-5 0-3-1-4-3-4-1 0-2 0-1 1 2 0 3 3 2 6-1 2-2 1-1-1l-1-2-1 3a2 2 0 001 3h-1l-1 2c1 2 0 3-1 3v2c1 2 1 2-1 2l-2-1c0-2-2 1-2 3h2l2-1h2l1 1-2 1-2 1-4 1h-3l-3 1-2 2v2l-1-1h-4l-2-2v1l-1 1-1 1-1 1-1-2c1-2-3-4-4-2h-1l-1 1 2 1 2 1v7l-2 1-1 1-3 1c-5-1-8 0-5 2 2 0 2 1 1 1v2l-2 1-1 2c1 1-1 2-1 0-2-2-3-1-3 1l-2 3v-1l-3-1c-4 1-4 2-2 4 2 0 2 1 1 1l-1 2c0 2 0 2 2 1 2-2 2-1 0 1-1 2-1 2-3 1l-3-2 1 1v1c0 2 3 2 5 1s2-1 2 1 0 2 2 0l1-2c-2-2-1-4 2-5a14 14 0 005-3v1l1-1h1v2l-2 2c0 2 1 3 2 2l3-1h4l2-1c1 1 1 1 1-1l-1-2-2 1-1-2v-4c1-3 4 0 3 2a7 7 0 006 6l3 1h2l-1 1a7 7 0 00-6 3v-2l-1-2-1 1-2 1v2c2 1 3 3 1 3h-4c0-2-3-3-4-2h-4l-1-2-1 1v2l-3 4c0 2-2 3-3 3l-2 1a10 10 0 001 9l2 3c1-1 2 0 1 1l-3 1c-2 0-2 0-1-1v-1l-1-1c1-1 0-2-1-1-2 0-2 0-1-1v-4h-1l-1 2v1l-2 2c0 2-2 7-4 7-1 0-2 3 0 3l1 5v2c1 1 0 2-1 3-3 3-6 2-5-2l-1-4c-1 1-2 0-2-1l2-1c1 1 1 1 1-1-1-1 0-2 1-1l1 3c1 1 1 2 2 1l-1-2v-3h-1l-2-1c-1-1-2-1-3 1l-3 1c-1-1-3 0-3 3-1 2-1 2 1 2a2 2 0 111 2h-4l-1-2c0-3-1-2-1 2v3c-1-1-3 2-2 4v5c1 3 1 4-1 3l-1-2v-2l-1 1c-1 3 0 7 1 8l1 3c0 2 0 2-1 1l-2-4-1-2v1c0 3 0 5-1 3-1-1-1-1-1 1l1 3 1 1c1 2 4 3 9 3 3 0 4 0 4 2s-2 5-2 3-4 0-4 3c-1 2-1 3 1 4l2 4c0 2 4 3 6 1l-1-1h-3c-1 1-1 1-1-1l-1-2-1-2 2 1 3 2h1l2 1 1 1v1c2 0 4-6 3-8-1-1-1-1 1-1l4-1v2l-2 4v3l-1 1 2 1 2-2c0-1 0-2 1-1l1-2-1-6c-1-5-5-8-7-5-1 1-1 1 2 1 2 0 3 0 3 2l-4 1-1 1c-1 2-3 1-3 0 1-2-2-3-3-2l-1-1c0-1 1-2 2-1 1 0 2 0 1-1l2-3c2-1 3-2 2-7l1-6 1-5c0-3 0-4 1-2h1c0-2 5-2 8 0h1l1-4-1-1h-2l-2 1-2 1 1-2 1-2 1-1a4 4 0 004-2l-2 1c-1 1-2 1-4-1-2-3-3-5-1-5l1 1 2 1 4 1c2 1 2 1 2-1s0-3 1-2v1l1 1 1 2-1 1a3 3 0 00-1 3c1-1 4 3 4 5h-1l-1-1a1 1 0 11-2 0h-1c-3 1-1 8 3 8v4l1 3a1 1 0 11-1 1c-1-1-1-1-2 1-1 1-1 2-4 1-3 0-3 0-3 2l2 1c1 0 5 5 5 7l3 3 2 4 1 2c2 0 2-4 0-7s1-8 5-11c4-2 5-1 2 2-4 3-2 3 3 1l9-3 5-3 2-1a2 2 0 10-1-4c-1 0-2 0-2-2v-2l1 1h2l1 1c1-1 4 4 4 6-1 2 0 5 1 5l1-3c0-2 0-3 2-3l2-2a2 2 0 013 0l-1 1-1 1v4c0 2 6 4 8 3l-2-1c-2 0-2 0-1-1h2l1-1c0-2 0-2 2-1l2 4 1 4 1-2 1-3c1-1 1 0 1 1 0 2 0 2 1 1v-2h4l2 3c0 2 4 5 5 3 0-2 2-1 4 1s2 3 1 3c-1-1-2 0-2 1l1 1 3 1a2 2 0 004 0v1c-2 2-1 4 1 4 1-1 2 0 3 1l2 1 2 1 2 1 2 1h-4l-2-1h-2l-12-2c-6 0-11 0-10 1 3 1 4 5 2 4h-3v4c-2 2-3 0-2-3 2-5 0-7-3-2-1 2-2 3-4 3l-2 2 1 1 1 4c0 3 0 3 2 4 2 0 3 2 1 2l-2 2-2 2v-1l-1-5c-1-3-1-3-1 2-1 6-3 7-9 6-4 0-4-1-4-5-1-6-6-7-6-1 0 3-1 4-3 4-3 0-3-5 0-8v-9l-1-7v5c0 5-3 13-6 16l-2 4-3 1c-4 0-12-8-12-12l-2-4c-2-1-2-1 0-1 2 1 3-3 2-5v-5l-1 1-2 1-1 3 1 4-3-1c-4-2-12-1-12 0l1 1c3-1 3 1 1 2-3 2-1 3 5 3h2c-4 1-10 1-10-1l-3-1c-3 1-4 2 0 2h3l-3 2h-5l-6 1a196 196 0 00-13 1l-2 1h-3c-1-2-1-2 3-2 5-1 5-1 1-4-2-3-3-3-14-3h-11l3-1 3-1-3-1-3-3 10-1 10 1v-4c0-4 0-4-2-4s-2 0-1-1c2 0 3-2 1-2l-1-2c0-2-1-3-2-3l-2 2-1 1c-2 0-2-1-2-4s0-3 4-3c9-2 9-2-2-2l-11-1 6-1c9 0 14-3 11-7v-1c1 1 2-3 0-3l-1-11v-11l-8-7c-7-8-9-9-11-7l-4 2-2 2c2 1-2 3-8 3-4 0-6 0-5 1l3 1c1 0 2 0 1 1v26h-3l-3-1c0-2-3-1-4 0 0 2-2 2-4 1h-2l-3 1h-2l-1-66c0-73 0-68 6-67 2 1 3 0 2-1 0-2 0-2 2-2l2-1c0-1-10-1-11 1l-1-6c0-6 0-7 1-6 2 2 6 2 6-1l1-1v1c0 2 3 3 6 3v-3c3-3 4-2 2 1l-1 14 1-5c0-5 0-5 3-5l6-1h23l1-5 2-10 1-7c-1-2-4-1-5 2 0 3-3 3-4 0v-3l-3 2c-2 2-3 2-5 1h-1l-1 1-1-1-1-2-1 1h-1c-1-1-1-1-1 1 0 1 0 2 1 1 2 0 4 2 2 3h-3l-2 1 6 1h6v5c0 4 0 4-3 4h-8a13 13 0 01-7 0l-1-1 2-1c1 0 2 0 1-1l-1-2-1-1 1-1c2-1 2-2 1-2h-2l-2 1c-4 0-8 2-7 3h-3c-1-2-5-2-5 0l-1 2c-2 1-2 0-2-8v-9l14-7 13-8-12 6c-13 7-14 7-15 4s-3-2-2 3c0 4-1 5-24 4h-20v3c0 2 0 2 1 1 1-4 4-2 4 3 0 4-1 5-4 4l-1 2-2 2c-3 1-8 5-8 7l1 1h3c1 1 0 1-3 1-4 0-5 2-4 4l-2 2-3 2c0 2-4 1-7-1-3-3-4-4-2-4 3 0 4-3 2-5l-2-3-1-2v2c0 3-1 3-3 0l-2-5v-5h3l1-2v-9c2-3 0-4-9-4h-8v-5l1-6c2-1 3-8 1-9s2-6 5-6l2-1 2-4 1-2c-3 0-2-2 0-3 1-1 1-1-1-2-2 0-3-1 0-5l1-6v-2l1 2c1 2 1 2 1-1l-1-3c-2 0-3-2-2-3l1-5v-3l1 3 1 4v-5c0-4 0-4-3-4-5 0-7-1-6-2l2-1 2-1 1-2 1-2 2-3c2-1 2-2 2-6v-5l-8-1h-7l-2-11c-2-22-2-23-3-20a21 21 0 001 15c0 2-1 3-2 0l-1-7c0-6 0-5-10-7l-12-2-5-1-1-8c-2-8 0-8-13-10l-15-3v-1c-3-1 5-1 15 1 15 2 15 2 16 8l1 7c1 2 3 0 3-2s0-2 1-1h1a1 1 0 112 1c0 1 0 2 2 3 5 2 7 1 7-2v-4l1 4c0 3 0 4 2 4 2 1 2 0 2-5 0-7 2-6 2 2 0 7 3 5 3-2l1-9 1-8a3 3 0 012-5l-2-2-1-5c0-5 0-6-1-5l-1 8v7l-1-8v-8l-14-3-20-3c-5 0-6 0-6-3 0-2 0-2-2-1-2 0-2 0-2-16 0-8 0-15 1-14l8 3c2-1 1-1-4-2-6-2-2-2 5-1l16 4c10 1 10 1 10 4 0 2 0 2 1 1 1-2 1 2 1 12v15l1-16c0-8 0-10 1-7l1 5v-5l2-7c1-3 2-4 1-5l-1-8 1-5-5-2h-5l5 1c4 1 6 4 2 4l-34-7c-5-2 0-2 12 0l13 2-24-6c-2 0-3-1-3-2v-5l1 3 1 2 18 3 4 1 4 1 8 1c4 2 5 2 2-1-1-1-2-3-1-8 0-5 0-6-1-4l-1 6c0 3 0 3-3 3s-5-1-5-3v-2l1-2 4-3-21-5c-15-3-16-4-14-5v-3l-1-1-1 1c-1-1-2 18-2 42l-1 19v13l-1-7-2-13v-3l2 5v-2l-2-31V88l-1-1c-1 0-2 1-1 2l-1 1-1-2-1-2v-2c1 0 0-2-2-2s-1 5 1 6v1c-1 1 1 35 3 44v12l-5-45c-1-20-1-20 1-22v-1l-2-1c-2 0-2 0-2 2m177 45h-5l4 3 4 2 1-1-2-1-2-1c-1-2 2-1 4 1 2 1 2 1 1 2v3c2 3 4 4 3 1l1-2 2 3 2 2 1 1a4 4 0 004 3 1 1 0 112 1h2l2-4 1-1c2 0-2-2-5-3l-2 1 4 1c2 0 2 2-1 2l-4-1-1-2v-1l-2-1c-2 0-2 0-1-1 2 0 3-2 1-2l-4-2c-1-1-2-2-5-2l-2-1c1-2 0-2-1-2l-2 2M25 140l1 1 2 1c2 2 4 3 11 4l22 4 1 1 1-2c0-3-1-3-6-4l-10-2-11-1-8-2h-3m4 31v11l1-8 1-10c-1-2 0-3 1-3v8c0 4 0 5 1 2l1-6 1-1v-2l1 7v7l2-5 1-5v15c2-4 1-15-1-17-2-1-1-2 2-2 2 1 2 2 2 9v11c1 1 1-2 1-9v-10l1 10c0 7 1 9 1 6 0-4 0-5 1-2 0 5 1 7 3 7l1-10v-11l-4-1-8-1c-9-2-9-2-9 10M1 329v39h7v-27l1-39v-11H7l-4-1c-2 0-2 4-2 39m324 22c0 2-5 2-5 0h-6l-1 6c1 3 0 4-1 4-2 0-2 1 1 1l4 1 2 1h4c2 2-3 3-7 1h-3l-4 1h-2l4 1 3 1v17l2 2 1-3c-1-3 2-4 2 0l2 3 1-1c-1-2 1-2 3 0h1l-1-3c-1-1-1-1 1-2s3 0 3 1c0 2 0 2 2 1l1-3c-1-1 0-4 1-4l1 1c0 2 6 5 6 4h3l-1-2-1-2h3l2-2 1-1h-3c-2 0-3 0-3-2h3l2-1 1-3c0-4 0-4-3-4s-4-1-4-2c-1-1-2-2-8-1l-7-1 5-1h4v-4l-1-5h-4c-3-1-3-1-4 1m-42 4v15c0 13 0 14-5 14l-2-2-1 1c-1 1-1-4-1-14v-15l-1 15-1 14v-2l-1 2c-1 1-1 1-1-2v-3l-1 3a3 3 0 01-2 3h-4a5 5 0 00-5 0l-2-2h-2c-1 2 2 3 6 3 1 0 2 0 1 3 0 2 0 2-1 0-2-2-4-1-4 2a21 21 0 01-10 10l-5 2c-6 0-5 2 2 2l5 1 9-8 8-8 6 6c7 6 8 8 6 9-1 1 0 1 1 1s2-1 1-2l1-2-4-6-3-4v-3h-5c-3-2-1-3 8-3h9v-16c0-16 0-18-2-14m10 1l2 1 1 1-1 1v30c2 1 2-1 2-5a2 2 0 114-3l-2 1v3c0 4 0 4 2 3 3-1 3-31 0-32h-8m-131 9l-1 3c0 2 0 2-1 1h-3c-1 2-1 2 1 2l2 1h-5a3 3 0 102 4h1l2 1c2 0 2 0 1 1-2 2-3 2-4 1h-5c-2 1-2 1-2-1 0-3-2-2-3 2l-1 3v-3c-1-3 0-3 2-4s2-1 0-2c-1-1-3 0-5 1-3 1-3 1-3-1l2-2c4 0 5-1 5-5s-4-5-4 0c0 3-1 4-3 3h-2c-1 1-1 1 1 1s2 0 1 2c-2 2-6 3-6 2 0-2-2 0-2 2s0 2-1 1c0-2-2-1-2 1v2a21 21 0 015 1l1 4c0 2 0 3 2 3v1c-1 1-1 1 1 1l2-1h1l4 1 4-1-1 4c0 5 1 5-7 5-13 1-14 1-14-5v-4l-1 4c-1 5-1 5-5 5-3 0-3 1-3 5 0 2 0 2-1 1l-2-2-1-2h-1l-3 1v5c0 1 1 2 3 2 2 1 3 1 2 2l-2 2c0 1 1 1 3-1 2-1 4 4 4 11 0 3 0 4-4 4-6 0-10 5-6 9v-4c1 1 3 0 5-1 5-2 6-1 6 2 0 2 0 3-2 3l-1-2c1-1 0-2-1-2-2 0-3 2-1 2v3l-1 3-2 2c-2 3-2 3 0 3l2 1 2 1c2 0 1 5-1 6s-3 3 0 3h1l-1 1-1 3-1 2c-4 0 1 1 5 2h7c2 1 3 4 1 4s-2 2 0 4v2l-3-2h-1c0 2-6 4-12 4l-6 1 10 1c5 0 9 0 8 1-2 1-1 3 1 3s2 0-1 2c-2 1-3 1-2 2l4-1c2-1 3-2 4-1l-1 1-2 2v2l1-1c0-2 2-2 2 0 1 2 1 2-1 2-3 0-4 2-2 4 2 1 2 1 2-1h2c1 2 3 2 3 1l2-1c2 0 2 0 1 2v4l1-1 1-2c1-1 1-2-1-3-2-3-2-3 0-6 1-2 3-3 2 0v3c-1 2 1 5 4 5 2 0 2 0 1 1s-1 1 1 2c2 0 3 2 1 2s-3 4-2 5v1h3c-1 1-1 1 2 1l2 6c1 1 0 2-1 2-1-1-2 0-3 1l-2 1-1 3c0 3 0 3 3 3l3-1h1l-1 2v2l2 1v-1c-1-1-1-1 1-2l2-1 2 1-1 3c-4 1-4 4 1 3 2-1 2-2 2-4v-24l1 14a35 35 0 01-1 17l1 11-1-5-1-4v-1l-1-1-3 1-1 2 2 1 1 1-1 1c-1-1-4 0-3 1l-1 2c-1 1-1 1 1 1s3 2 0 5c-1 2-4 3-3 1 1-1 0-1 0 0-2 0-3-3-1-4v-2l-1-2c-1-2-1-2-2 1l-2 2c-1-1-4 0-4 1h1v3l-1 1c-1 0-3 1-3 3h12c6 2 14 1 14-2 0-2 0-2-2-2h-3l2-1 3-1v-61c1-11 0-17-2-17l-1-1 2-1 1-5 1-8c0-6-1-12-2-10-2 4-5 2-4-2 0-2 4-3 4-1h1l-1-2-2-2h2l1 1 1-20v-19h-3c-2 0-3 2-1 3l1 3c1 3-2 3-3 1h-2c-2 4-7 3-7-1l1-5 1-2 1-1 2-1 4-1 5-1 1-30-1 2m-78 14c-3 0-3 3-3 20v16l3-3 4-3 1-2c0-1-1-2-3-1l-4-1c0-1 1-2 3-1 2 2 3 0 3-5 0-3 1-5 2-5 2-2 1-4-2-4l2-2c3-3 1-5-4-5-1 0-2 0-1-1l1-4-2 1m303 2c8 0 4 2-6 3l-10 1 4 1h6c1 1 1 1-1 1-3 0-2 3 1 7 2 2 2 2 0 3a1 1 0 101 1l3-1c3 0 8-2 7-3l2-8 3-1 7-2 6-1h-7l-7 1-1-1c-1-2-2-2-7-2s-5 0-1 1m-123 11v2l1 3-1 3-1-2c0-2-2-4-3-2v1l1 3c0 2 0 2-2 0l-3-1 1 2v4l-2-1h-3c-1 2-5 3-6 2h-7l1 1c2 0 1 3-1 5-1 1-1 1 3 1l4 1h1l3-1h4l4-2 1-2c0-2 0-2 1-1s2 1 3-1l1-2c-1 0-2-1-1-2s2 0 4 2l4 3 1-4 1-2h1c0-2-1-3-3-2-1 1-1 1-1-1 0-3-1-4-3-3-1 1-1 1-1-2s-1-4-2-2m-73 29c0 12 0 13 1 12 2 0 1 2-1 2-2 1-3 0-3-2h-2c-4 1-4 2-3 4h1c0-2 2-3 2 0l22 1c2 0 2 0 1 1l-2 1a4 4 0 01-6 0l-2 1-2-1h-6l-3-1c-1 0-2 0-1 1h-16l-2 1-2 1 8 1c12 0 13 0 14 2l-9 1h-9l3 1h5c3 0 3 0 3 3 1 4 3 5 7 1l4-2c3 0 3 3 0 3v1l1 2 1 2c1 0 2 1 1 2l1 1v-4l-2-2h4c1 2 8 2 8 0h5a3 3 0 000-4v-2a3 3 0 010-4l1-9c0-6 0-9-1-8l-2 1-2 1c-1 1-1 2 2 2 2 1 2 1-2 1-3 0-4 0-3-1l1-1v-2c1-1 1-2-2-2-3-1-3-5 0-8v-1c-2 1-2 0-2-2 0-3 0-4-4-5-7-2-7-2-7 11m99-10c1 2 0 4-1 2-2-2-3-1-3 1l1 2 1 1-2-1c-2-1-2-1-2 3 0 2 0 2-1 0l-2-3-1 1v2c-2 1-2 6-1 8 1 1 1 1-1 1-1-1-2 0-2 1-1 2 1 2 3 1 2-3 3-2 4 1l1 4 3 4 2 2 1 1 1-1 1-3-1 1h-2c-2-3 0-9 2-9s2 0 2-2c0-3 6-8 6-5l2-2v-5l1-2v-1h-5l-1-2v-1h-1c-1-1-3 0-2 1h-2l-2-2 1 2m-207 5c-2 3-2 4-3 25v22h10l-4-1-2-1 3-1 2-2 1-1-1-1-1-6c1-7 1-7-1-7s-2 0-1-1l2-2-2-3v-1c1 1 2 0 2-6v-9c1-8-1-10-5-5m85 3v15l1 1a6 6 0 0010 0h2c2-2 2-6-1-6v-1c0-3-1-2-2 1-1 2-1 2-3 1-1-2-1-6 1-6l1-2c0-2 0-2-2 0l-2 4c0 3-1 4-2 1l-1-5-1-5c-2 0-2 1-1 2m185 29l-1 2-1 3c0 2 0 2-2 0-2-3-5-3-3-1l-5 3-2-2c1-3-2-4-2-1v2l1 1c0 1-1 1-2-1-2-1-2-1-4 2v3h4l1 1a3 3 0 015 2h2l1-2-2-2-1-1c2-1 6 1 6 3s0 2 1 0c1-1 2-2 1-3h4l2-2v4l1-2 1-1 1-3-1-3-3 1v-1c2 0 1-3-1-3l-1 1m-19 14l-6 1c-5 1-7 3-3 7 3 2 4 3 2 3l-2 1h2l1 1 1 1 1-1h1c1 2 3 2 4 2h1c0 1 2 5 4 4a6 6 0 000-5h-1l-1-1-2-1-2-1c-3 0-3 0-3-3s0-3 1-2v2l1 1 2-1 2-2 1-1v-3c1-2 0-3-2 0v-1c0-2-1-3-2-1m-254 7c0 4 1 5 2 6l2 1 2 2c3 2 1 5-3 6-4 0-4 0-4 4l1 5c0 1 1 2 4 2a2 2 0 004-3v-4l1-5v1l1 1v-4l-1-4 1-8c0-2-1-2-5-2l-4-1v-2l-1 5m0 33l-9 1h-8v4l1 4v4l1 3 2-1c-1-5 0-6 5-6 3 0 4 0 5-2a7 7 0 012 6l-1 9c0 7-2 6-2-1a2 2 0 10-4 1c2 0 1 4 0 4-2 1-3 15-1 15l1-1c-1-1 0-1 2-1l4-1h1c1 1 1 0 1-3s0-5 1-4h2l-1-2c-2 0-2-4-1-23 1-6 0-9-1-6m312 12l-1 12-1 12v-10c0-11-2-13-2-1l-1 7c-2 0-2-1-2-6l-1-7-2-2c0-4-2-5-2-1 0 2 0 3-1 2l-2-1a18 18 0 001 15h-1l-1 3c-1 3 1 5 4 6l3 1h-3l-4 1a2 2 0 004 2c0 2-3 3-5 1-1-1-1-1 0 0l-1 2v4l1 3 1 1h-1l-5-2c-3-1-3-1-3 3l1 4 3 2c1 2 11 3 11 2h1c3 3 3 2 3-4l-1-7c-1-1-2-2-1-4v-4l2-1c1 0 2 2 2 12 0 11 0 11-5 11-3 0-3 1-1 4v-3l2 2 3 2c1 1 2 2 1 3l1 1 2-2 1-2c1-1 2-36 1-48v-13h-1m-198 26l-1 3-1 4v-1l-1-2-2 4 1 3h1l-1 2-1 5c0 5 1 6 6 5l2 1v-2c0-4-2-6-3-5v3h-2c-2 1-1-1 0-3l5-3c3-1 3-1 2 1-2 2 0 9 3 9l1-9c0-7 0-9-1-8s-1 1-1-1v-2l-1 1-1 1c-1-1 1-4 3-4h1l-2-1-2 1-1 1c-1-1-2 0-2 1v-1c0-4 0-5-2-3m106 4c-3 2-4 3-4 6s-1 4-3 4-3 1-3 3l1 2c1-1 1 0 1 2v2l3-3c4-4 4-4 5-2h1l1-2 1-7v-6l-3 1m-234 6l-1 2c-2 2-4 18-2 18l1 2-1 1v15l1 3 1-4 1-15a165 165 0 011-23l-1 1m30 2v2c-1 2-6 3-13 3-5 0-9 2-9 5l-2 2-1-2v-4c-1-1-1 0-1 3v5h36v-3c0-1 0-2 1-1h1c2 0 1-2 0-2l-2-2-1-3-1 2-2 1v-1c1-1 0-1-2-1a5 5 0 01-4-4m-26 18l2 4v1l-1 2 2-1 2-1 1-1 2-1 4 1 1 2c-1 2-1 2 8 2s11-1 13-5 1-4-14-4l-17-1c-3-1-3-1-3 2m-50 8l-5 11c0 2 2 1 3-2 1-2 1-2 1 1a4 4 0 01-2 5l-1 1c-2 0-2 1-2 6s0 6 1 5l2-4c0-3 2-7 5-7l1-9 1-10v9l1 11c1 1 1-2 1-13v-14l-6 10m314 21c1 2 6 2 31 3 33 1 32 1 26 2s-7 5-1 5c2 0 3 0 1-1-3 0-3-1 1-2 3 0 3 1 2 2 0 1 0 2 2 2v-1c-1-1-1-1 1-1l2-1h1l2-1c-1-2 0-2 2-1l7-1c3-1 3-1-4-1s-8 0-4-1c11-2 0-3-41-4-27 0-29 0-28 1m-213 5l-41 1c-29-1-39 0-16 1 29 2 86 0 86-2h-29" tabindex="-1" itemprop="bold" style="fill: rgb(0, 0, 4); fill-opacity: 0.83; fill-rule: evenodd; color: rgb(253, 253, 253);"></path></svg>