<svg id="16282281824-posters-1644597942947" itemscope="" itemtype="/posters" itemid="/+16282281824/posters/1644597942947" viewBox="0 0 683 512" preserveAspectRatio="xMidYMid slice" tabindex="0" xmlns="http://www.w3.org/2000/svg"><rect itemprop="background" width="100%" height="100%" fill="white" tabindex="-1" style="fill: rgb(221, 136, 136); color: rgb(163, 221, 54);"></rect><path d="M0 45l1 45h2c2 0 3 1 5 6l6 14 4 9h5l10 2h4l-1 4v4c-2 1-18 3-24 2l-9-1H0v382h123l123-1h1c0 2 4 1 4-2 1-4 5-4 4 0v3h8a18 18 0 0011-2l4-1-3-1c-5 2-6-6-1-10l4-6c1-2 2-3 3-2 2 0 3-3 1-4v-1c2 0 4-6 2-7-1-1-2-2-1-5h1c1 1 1 1 1-1l-1-4c0-2 0-2-2-2-1 1-1 1-1-1v-2c-1 0-2-1-2-4 1-2 0-3-1-4-5-1-5-2-5-29l1-30v-4h30l1-6v-17h6l7-1c2-2 4-2 4-1 1 2 17 3 20 1 4-2 7 3 5 7-1 2-1 2 1 2l2 2 1 4c1 1 0 3-3 4v2c1 2 1 6-1 6-2 1 0 3 2 3l3 4c1 5 1 5-2 6-2 1-3 1-2 2a7 7 0 01-1 8l3 1 2 1-11 1h-11v4c-1 4-1 4-2 2s-1-2-1 0v3c2 3 0 9-5 14-4 6-4 6-3 9a11 11 0 010 11c2 5 2 12 1 12-2 0-2-1-2-4l-1-4c-2 0-2 1-2 4l-1 4-1-4-1-4-1-4c0-2 0-3 1-2l1-4-1-5-1-3 1-3 1-4-1-4-1-3c-1-2 0-3 1-3l1-4-1-4c-2 0-2-1-2-5l-1-5v8c1 14-2 23-5 18h-1c-1 2-4-2-4-5 0-2 0-3-1-2 0 2-4 2-4 0l-3 1c-6 3-9 10-5 15 2 2 3 3 2 4-2 1 0 3 2 3s2 0 2 6l-1 14c0 7 0 8-2 8v1l1 13v11h-3a4 4 0 01-5-2l-1 1-1 2c-1 1 90 1 201 1h203V309l-1-207c0-3 0-3-8-4l-19-4-93-20-71-14v-7l24 5c22 5 34 6 24 3l-4-3c0-1 3-1 11 1 7 1 7 1 7-1s0-2 2-2l18 4c18 4 18 4 19 6s3 3 13 5c14 3 17 4 13 4-3 0-3 0-2 1h3l2 1c0 1 1 2 3 1 2 0 3 0 3 2l21 6 20 5-2 2c-1 2-1 2 1 1l2-2h7c4 1 5 2 3 2-3 0-4 2-1 3 4 1 4 0 5-50V0H232v8c0 9 2 8-25 3l-22-5v15l18 3c13 3 19 4 22 3h5v9a19 19 0 01-2 11l1 5c0 5 1 5 3 6s2 1 2 5c0 7-1 39-3 54v7h-3c-3 0-3-1-3-6v-5l-25-4-25-4-1-3v-4l-41-6-42-7 3-18a7842 7842 0 0013-64V0h-5c-6 0-6 0-6 3 0 4-1 5-5 5-2 0-2-1-2-4V0H69l7 2c10 1 9 1 8 5s0 4-15 5l-6 1 2-5 1-7-33-1H0v45m112-24v4l41 8v-4l1-4-19-4c-24-5-23-5-23 0m69 17v8l-1 13c-1 5-1 5 5 6 3 1 3 4 1 4a4 4 0 01-7-3c-1 2-4 26-2 27l40 7c1 0 5-41 5-52l2-2-20-5-23-3M74 52l-4 21a4653 4653 0 01-18 87l-8 34c-11 50-11 50-9 51 2 2 8 0 11-2l4-2v-3c-2-1 0-4 3-4 2 0 2 1 0 4-3 5 2 8 22 9l20 2h5l1-5c1-7 0-7 19-6l18 2v12h9c11 1 10 2 12-12l2-14v-2l19 1 19 2 8 4c7 3 8 4 8 7l1 2 3 1c4 2 5 1 5-4s0-5-3-7l-4-2h2l3 1-2-2-3-3-9-7c-9-4-9-4-27-6l-18-2 1-11 1-14c0-3 1-3 3-3l17 3 16 1 9 5 8 5 1-6 1-6-9-5-8-5-17-2-18-3c-1-1 2-25 2-26l17 2 17 2 8 6 9 7c1 1 1-2 1-5 0-8 0-8 4-5s4 3 4-3c0-4 0-5-3-7-4-2-5-1-5 4v3l-8-6-8-5-17-3-17-3 1-11c1-14 1-13-5-12-5 1-87-11-89-12l5-21c5-25 5-23 0-24l-6-1c-2 0-3 0-4 4m32 1c-2 4-4 21-4 21l65 11 3-23-63-11-1 2m389 23l10 2 10 3-1 1h-1 3l2-1-2 4-3 3-6-1c-6-1-7-2-7-3 0-2 0-2-1 0l-1 2-2 1 19 4 20 5-7-1c-7-1-9-1-8 1l6 2 8 2 7 1 8 1 10 1 5 1h4l-11-4-9-2 17 3 16 3 3 12 3 12c-1 1-11-1-12-2l-3-7c-1-7-1-7-4-7l-4-1 1 7v6l-3-6c-2-7-2-8-8-8l-5-2v8l2 7c-1 1-4-4-4-8-1-6-2-7-7-8l-7-2 1 6v8l-3-7-1-7-5-1-6-1c-2-1-2-1-2 2 0 2 0 2-2 2l-6-1-8-2c-2 0-2 0-1 1l10 2a31 31 0 019 3h-1l2 1 1-1 2-1c1 0 1 1-1 3l-3 4h-8a16 16 0 01-7-2h-1l-2 1c0 1 1 2 3 2l64 11 21 5 2 12 3 13a22 22 0 01-13-3c-1 1-3-4-4-12l-2-2c-2 0-2 1-1 6 2 8 2 12-1 6-1-2-1-2-1 0v2l-1-1a31 31 0 00-18-2c-4 0-4 0-2-1s2-1 0-1-2-1-3-7c-2-6-2-7-6-7a4 4 0 01-4-3l1 9 2 8-2-6-2-7c-1-2-1-2-1 0 2 7 2 11 1 10l-1-6c-1-6-2-7-8-8-3 0-5-1-5-2-1-1-1 0-1 2l1 3h-7l-9-2c-3 0-3 0-1 1l11 2c4 1 8 1 7 2v1c0 2 2 1 2 0l1-1c2 0 1 1-1 3-1 1-2 2-1 4 0 2 0 2-3 2l-7-2-5-1h-2c-5 1-2 3 6 4l20 3a1357 1357 0 0054 8c7 1 8 0 7-5v-4h4l5 1-5-1-5-1-2-8c-2-8-2-8 4-7h5c0-2-6-4-9-4l-3-3-1-4 1-2c4 2 7 2 7 1l-4-1-4-1-4-14h10l-5-3c-5-1-5-2-7-5l-1-4h4l5 1-4-1c-5-2-5-2-7-9l-2-6c-1 0-1 1 2 11 2 8 1 10-1 10l-6-2c-4 0-7-3-7-8l-1 1c-1 1-1 1-2-1l-1-2c-1 0-2-1-2-3-2-5-2-3 0 4v7c-2 0-4-4-6-10-1-1-1 0-1 1 1 2 0 3-1 3l-1-2-1-2-1 1-3-3-2-3v4l2 6c1 5-3 2-5-5-2-4-3-5-3-3s0 2-1 1c-1-2-1-2-2 0l-1 2v-2l-2-3-2-3-2-2v2c3 10 3 12 1 12-1 0-2-1-2-4a7 7 0 00-5-6l-4-2-3-2c-2-2-2-2-2 0s0 2-8 0l-9-1m95 7l7 25a492 492 0 007 26c0 5 2 13 3 14l7-5 6-6-3-1c-2-1-2-1 1-1 3 1 4 0 6-2l4-3-3-10a17 17 0 00-4-9c1-1 0-6-2-12l-2-11-6-1-12-3c-7-2-9-2-9-1m28 6l1 5 3 10c2 5 3 6 4 6 2 1 2 1 0 1l-2 1 3 8c2 9 2 9 8 3 6-5 7-7 5-7l-2-1c-1-1 0-2 1-2l1 1 7 2a596 596 0 0120 4 53 53 0 0013 2l2 1c2 0 1-2-2-3-2 0-3 0-2-1 3-1-4-11-9-11-2 0-2 0 0 5l1 5c-2 1-4-1-5-6-2-5-2-6-5-7-4 0-6 1-4 5l1 4v2l2-2c4-3 6-3 2 0-3 3-3 3-6 1l-2-3c0-3-1-3-5 0l-3 2 4-4c4-3 3-6-3-8h-5l2 4v7c-1 0-3-2-4-6l-3-6c-1 0-3-3-4-7 0-4 0-4-9-6l-5 1m-498 27v6l33 4v-9l-29-5c-3 0-3 0-4 4m515 9c-5 4-5 5-5 8 1 6 2 5 8 0l7-5-5 5-5 5h5l7 3 5 1a1502 1502 0 0131 6v21l-2-5-2-6-9-1 1 4c3 7 3 10 2 10v-1l-2-2-3-5c-2-7-2-8-7-8a5 5 0 01-4-3l1 8 2 8-1-1-1-1c-1 0-3-2-4-6-2-7-5-10-4-4v1l-5-1c-7-1-9 2-6 8 1 2 1 2 2 1h5l2-1 1 2c0 2 3 1 3-1l1-2v2c0 1 1 2 3 2s2 0 1 1c-4 1 0 2 13 5l13 2v5c0 5-2 6-4 3-1-2-1 1 2 10l2 7h-2c-2 0-2 0-1-1v-2l-3-7-2-7h-5c-6-1-6-1-3 7s3 8-2 7c-3 0-3 0-2 2 2 1 5 2 11 2l9 2v4c0 5 0 5-4 7s-5 3-3 7c1 3 1 3 4 2l3-1-3 2c-2 1-3 2-2 4 0 2 0 2-3 1h-4v1h2l3 2c7 0 7 0 7 13l-1 9v-6c0-2 0-2-1-1l-1-2c-1-3-1-4-4-3-2 0-2-1-3-5-1-3-4-7-4-4l-1 1h-2l-2 1-1 1-1 1c-3-2-3 1-1 9l3 11c1 3 8 5 14 4 3-1 5 2 5 6v5l-2-5a5 5 0 00-4-4c0-1-1-1-1 1h-1c0-1-1-2-3-2h-5l-2-1 2 7 3 9 1 2 1 2c0 5 0 5 5 3l6-2-2 2c-8 3-9 3-7 9 1 2 2 2 3 2l5 1h-3l-4 1 4 2h4v106c0 85 1 68 1-85 0-105 0-190-1-189 0 3 0 3-4 2-5-1-5-1-2 6 3 10 0 8-4-2-2-7-3-7-7-4-1 2-2 3-1 6 0 2 0 3-1 2 0-2 0-2-1-1s-1 1-1-1c1-2 1-2-2 0l-2 1 1-2c3-3 0-9-5-10s-5-1-4 5c3 10 0 9-3-1l-4-6-3-3v-3l-5 5m-16 14c-10 9-12 11-11 15 1 5 1 5 11-4l10-8-5 5c-15 13-15 13-13 14v1l3 12 4-2 6-5c2-2 2-2-2-3l-4-1h6c-1 2 4 1 7-2l4-2-3 4-4 3h5l4-1-8-25v-1l-6-2-4 2m14 1l4 16 3-4 1-1h3l2-1-1 3 1 1h2c2 2 1-2-2-11-2-3-12-6-13-3m-519 15v5c-1 2 33 6 34 5l1-6v-4l-14-1-17-3c-3 0-3 0-4 4m482 5c-1 0 0 6 4 19l1 8c1 2 0 2-2 2-5 0-10-2-10-3l-1-2-1-2c0-2-1-3-3-1v-1c2-2 2-9-1-9-1 1-1 1 0 0 1-2 0-2-3-2-4-1-4 0-4 2a658 658 0 014 13c0 2 0 2-2 2s-2 0-1-1v-2l-2-3h-1v-7c-1-4-2-5-7-5l-6-2c-1-2-1 1 1 8 2 10 2 10-4 9l-10-2 1-1 7 1c5 1 5 1 4-1l-2-8c-1-6-1-6-5-7l-6-1c-3 0-3-1-1 9l1 9-11-2-3-1 1-1c4 2 11 2 10 1l-2-8c-1-7-1-8-8-8l-6-2v3c0 4 0 4-2 4l-7-1-8-2-2 1 2 1 2 2c1 2 1 2 1 0s0-2 9 0l11 1v2h-2c-1-1-1 0-2 2l1 5-3 1-7-2c-4 0-5-1-6-2l-1-2v2c0 1 0 2-1 1l-2 1 1 2 19 3 62 7c6 1 11 2 10 3l3 14 3 13a20 20 0 01-15-2v-1c1 0 2 0 1-1l-2-8-2-7-4-1h-4l2 10 2 9-13-2c-6-1-3-2 4-2 9 1 8 0-1-1-7-1-7-1-7 1s-1 2-7 1c-7 0-9-1-9-4v-2l-1 2c1 3 0 3-9 2l-9-1c-3 0-3 0-4-4-1-6-1-7-3-7l-1 2c3 8 2 8-2 8-3 0-4 0-4-2h-1l-2 1c-5 1 0 3 10 4l13 2 50 5c18 2 20 3 20 4l4 16v-7c-3-9-3-9 4-8 7 0 7-2 0-3l-2-1c2-1 2-1 0-1h-5l-2-4-1-5h10l-5-1-5-1-2-7c-3-11-3-10 4-9l5-1-4-2-3-1-2-1c-3 1-5-3-5-7 0-2 0-2 4-2h3l-5-1c-3 0-3 0-4-7-2-8-2-10 0-9h8c0-2-11-6-12-4m24 12c-5 4-7 8-4 9l2 7 1 6v1l1 5c1 2 3 6 3 10 2 9 5 13 8 14l7 1c5 1 8 1 12-2 3-2 3-6-1-5l-2-1 2-1c2 0 2 0 2-2l-1-3h-1l-1-1v-5c-1-4-1-5-5-5l-6-2-1-1c-1 3-4 2-5 0 0-2-2-3-7-4s-5-1-2-1a5 5 0 005-2l1 1c0 2 3 3 3 2h4a3 3 0 005 1v1a2 2 0 000-4c-2 0-6-3-5-3 1-2 6-1 7 0l3 8-3-14-4-14h-6c-6 0-7 0-12 4m21-4v1a18 18 0 005 14c0-2 2-3 8-2l1 1c-1 1 0 2 1 2 1-1 2 0 4 6 1 5 2 6 4 6h2l-2-7c-2-6-3-8-5-8s-5-6-5-9l-4-2-3-1h3c2-1 2-1-2-1h-4l-3-1v1m-532 25l-2 6v5l18 1 18 2 1-6v-5h-6l-29-3m540 9l2 5 1 3 1 1a5 5 0 004 6h3c3-2 1-3-3-2a2 2 0 111-2c1 1 1 1 3-2l3-2c0 2 3 4 5 3l-1-1c-2-1-3-2-4-5a5 5 0 00-3-4c-1-2-7-2-7-1h-2c-3-1-3-1-3 1m-110 24l1 5c1 5 2 4-12 3h-7l11 2 11 2v10h-5l-8-1c-4-1-7 0-7 2l2 1 16 1a1226 1226 0 0055 5h5l2-1c-2 2-2 2 3 2l6 1c1-1 8 1 8 2l3 15c4 19 4 17-3 17-7-1-7-1-7-4l-3-12-2-10h-11l2 5a319 319 0 014 17c0 2-5 3-6 1h-5l-5-1c-2-3-1-4 6-3 7 0 7 0 7-2l-2-6c-2-9-2-9-3-8v-3h-1l-6-1-7-1 3 15v9c-2-1-2-2-1-4l-1-3c-1 1-2-4-3-12-1-4-2-5-10-6-5-1-6 0-6 1a242 242 0 015 21c0 3-2 3-4-1v-2l1-1c-2-1-2-1-3-9-2-10-2-10-9-10h-7l1 5v5l-7-1-10-1-3 1 2 1 2 2c0 2 0 2 1 1 0-2 1-2 9-2l11 1v2c-3 1-4 5-1 5v1l-1 3c1 2-15 1-16-1h-1l-2 1-2 2 2 1h7l20 2 14 2 2 1h1l3 1c2 0 2 0 1-1s1-1 9-1c21 2 41 3 40 4l8 32c1 4-12 3-15-1l-6-3c-3-1-2-1 2-1 2 0 4 0 3-1-2 0-3-2-5-13-1-6-1-6-4-5-2 0-3 0-4-2-2-3-1 0 2 14 3 12 3 15 0 11l-2-3c-1-1-1-1 1-1 1 0 1-3-1-10v8l-3-9-2-9h-5l-7-1c-2-2-2-2 0 4a112 112 0 013 20l-1-2c-1-1-1 0-1 1 0 2 0 2-1 1-2-2-1-5 1-4l1-2-3-9-2-8 1 8c2 8 2 10 0 9l-2-9c-1-10-2-10-9-10a6 6 0 01-6-2l3 14 2 14-3-11-3-11c1 12 1 14-1 8-3-14-2-12-9-13l-6-1v7c1 5 2 5-10 4h-11l12 2c8 0 16 1 15 2l-2 1c-2 0-2 4 0 10l-11 1c-11-1-11-1-11 1 0 1 2 2 6 2l24 1c63 3 80 4 74 1l-1-1c2 0 2 0 1-1l-2-4-1-4c-1-2-1-2 3-2l4-1-5-16-1-1 3 14c1 1 1 1-1 1-1 0-2-1-2-4l-2-5-1-2v-1h-1l-1 1-1-3-1-4c-1-1 0-1 4-1 10 0 7-4-2-4h-4l4-1c3-1 1-2-3-1l-1-2-1-3-1-1v-3c-1-1 0-1 3-1l5-1-5-1h-4l-3-9-1-9h5c7 0 7-3 0-3l-6-2h-6l-4-1c-6 0-6 0-8-10-3-12-3-13-9-13-5-1-5-1-3 7l2 14-2-10c-3-10-4-12-10-12l-6-1c-2-1-2-2 0 9 2 8 3 14 1 13l-3-11-2-11-5-1a55 55 0 01-10-2l2 10c2 12 3 14 1 11l-1-2-2-7-1-7c-1-3-2-4-5-4h-2l-4-1-4-1h-1m104 9c-11 6-13 7-11 11 1 2 24-10 23-14 0-4-1-4-12 3m1 10c-11 5-11 5-10 8l1 3 18 3h10c0-1 0-2-1-1l-1-1c1-1-3-18-4-18l-13 6m-8 16a167 167 0 004 15l2 9 2 7 4 1c5 1 21-5 22-7l-3-13-4-11-13-2-14-2v3m-424 2c-3 0-4 8-2 12 2 3 3 2 3-2s0-4 3-4c2 0 2 0 2 3-1 2 0 3 1 3 3 2 3 1 3-4 0-6 0-6-4-7l-4-2-2 1m451 28c-6 2-7 3-5 3h-6l-8 1c1 2 1 2 5 1l-1 1-3 1 6 25 10-6 5-3c2 0 10-7 10-8l-2-6c-1-4-1-4-5-4h-3l3-1c4 0 4-1 3-4-1-4-1-4-9 0m-81 64l1 8 2 6h-16v-3l1-2-1 2c-1 3-1 3-2 2v-2l1-1-1-2-1-1c-1-1 0-2 1-1l3-1-4-1-1-1 1 10-1 1c-2 0-6-7-6-10l-1-3c-2 0-2 3-1 6v5c0 1-3 2-3 0l-2-10-1 2c2 7 2 9 0 9s-3-1-3-2l-1-2-1 1-1 3c-1 0-2 1-1 2 0 2 1 2 13 2l33 1c18 0 21 0 23-2l-7 1c-3 0-3 0-2-1 3-1 1-2-9-2-9 0-9 0-10-5l-1-3h6l6-1h-6c-6 0-6 0-7-3l-1-2m-301 24c-1 9-1 9 6 4 11-6 11-11 1-11h-7v7m241 18c2 6 4 19 3 20-1 2 0 9 2 15 1 4 13 2 13-1l-2-8-1-6h-10l-2-11-2-11-1 2m-309 13l-1 5c-1 3-1 4-5 3h-5v5l-1 8c0 2 0 2 4 2h5l-1 13v12l8-3 11-4 3-1 1-1 4-2c3-3 3-3 4-1l2 2 4-1c1 0 2 0 1-1l1-2h8l1-1 1-18v-16l-2 2-6 1-35-2h-2m88 36l-3 5c-1 1-2 2-1 3 0 2 0 2-2 3-2 0-2 1-2 4 0 4 0 4 2 3l1-1h10c1 0 3-2 3-4s0-2-2-1c-3 1-3 1-3-4a6 6 0 012-6l1 1c1 1 1 1 1-2 0-6-5-6-7-1m2 19c-3 0-4 0-4 2s0 2-1 1c-1-4-5-2-5 2l-1 9 1 6 1-4v-4h5c10 0 9 0 10-5 0-6-1-8-6-7" tabindex="-1" itemprop="light" style="fill-opacity: 0.235; fill-rule: evenodd; fill: rgb(214, 234, 184); color: rgb(9, 13, 3);"></path><path d="M0 44v45h3c3 1 3 1 10 18 6 12 5 11 18 13 6 1 7 2 5 7-1 4-14 6-26 4l-9-1-1 191v191h245l1-2 1-2v2c0 3 3 2 3-1 1-2 1-3 4-3 2 0 2 0 2 3l-1 3h8a26 26 0 0012-2c1-1 1-1-1-1-5 0-4-9 0-13l2-2-1-1 3-1 1-2c-1-1 0-2 1-1 1 0 2 0 1-5-1-4 0-5 1-4a1 1 0 101-2l-1-1v-1l1-1v-3c1-1 0-2-1-4l-1-3-1-1-1-4c-1-3-3-6-5-6s-4-20-2-21v-39l-7 5-4 3c-1 0-2 1-2 3l-1 31v10h-5a10 10 0 00-8 1l-3 1c-1 1-2 1-3-1h-1l-1 1-2 1-5 2-9 3-5 2 4-1c6 0 7 2 2 6l-2 2c1-2 1-2-1-2-2 1-2 0-2-1v-2l-2 2-2 3-2 2c0 1-1 1 0 0l-1-1c-2 0-2-9 0-25v-6h-4c-6 0-6 0-4-10v-5h9v-9l2-14c0-5 0-5-2-5-5 0-6-1-6-7 0-7 0-8 5-7 4 0 4 1 5-9 1-2 1-1 1 3v11c1 2 8 2 11 0h1c1 1 12 2 13 0 3-2 8-2 9 0 0 1 7 2 9 0h8a4 4 0 007-2l1-4 3-4h8l10 1c3 3 4 3 6 0 0-3 1-4 8-4s8 0 9-2c0-2 3-3 4-1s14 4 20 2h4a4 4 0 002 3c0-2 2-1 2 1 1 1 0 2-2 3l-3 1 3 1c4 1 5 9 0 11-2 1-2 1 0 2 4 1 4 5 0 6l-2 1 3 1c4 1 5 9 0 11l-2 2h2c2 0 3 0 3 3s-2 4-2 1c0-2 0-2-1 0l-2 3c-1 2-1 2 1 2l3 1-10 1h-11l-1 5-2 3-1 4c1 7 0 7-4 12-5 4-5 5-4 6 3 2 3 25 0 25l-1-4v-3l-1 3c-1 6-4 7-4 1l-1-4-1-24 1 1c1 1 1 0 1-2 0-4 0-4-1-2-1 4-2 1-2-8 0-8 1-10 2-4 0 4 1 4 1 0l-1-4c-2-1-2-3-2-6l-1 10v18c0 3 0 3-1 2-2-2-3-1-3 5-1 4 3 4 3 0 1-2 1-1 1 2a5 5 0 01-2 7c2 0 2 1 2 6v7h-7l-7 1v3c0 5-3 5-3 0l-1-3v3l-1 4v25h-8c-1 2 17 2 200 2h202V129l-4-1c-6-1-6-2-3-4l3-2-4 2c-3 2-5 2-16 0l-8-1 2-3 3-2-3 2c-3 2-4 2-8 2-6-1-7 1-3 3l2 2c0 2 1 1 2-1h3c2 1 10 3 11 2h2c4 3 11 4 11 2h1l5 2 3 1v19h-6l-24-4h-5c0 2 2 5 4 5l2 2c1 2 1 2 1-1 1-3 1-3 2-2a15 15 0 0014 3l4 2c5 0 8 5 8 15v7l-6-1-10-1c-7-2-11-1-10 1l3 3c2 0 3 2 4 3v-1c0-4 0-4 1-3l6 3c5 1 8 5 8 10l1 3c2 1 2 2-1-9l-1-5 3 2c2 0 2 1 2 11v11h-3l-6-1c-6-2-9-1-9 2 0 2 1 3 2 3 3 0 5 2 4 3l4 13c2 1 2-1 0-9l-2-8 1 1 3 1 2 1h3l1 12v13l-5-1c-5 0-5 0-4 2 0 2 2 3 3 3l4 2c1 1 1 1 1-1v-2l1 13c0 7 0 12-1 11h-2l2 3c2 2 2 36-1 36l-2 2c0 4-2 2-3-3l-2-5 1 7 1 6-19 12-6 3a1927 1927 0 01-22-90l-6-20-11-44-22-89a121 121 0 00-31-7v1h-16l-5-1-24-5 1-2c3-2 2-2-10-5a169 169 0 01-16-3v-2l2-3c-1-3 0-3 23 2 20 4 22 4 22 0l2-1c13 3 14 3 16 2 2-3 38 4 39 8l3 2 14 3a46 46 0 0115 5l3 2c2 4-3 2 48 14h7l1-46V0H233v2l-1 8v6a2144 2144 0 01-46-9l-1 7 1 6 18 4a74 74 0 0026 2v19l-1 12 3 1h3v12c-4 59-3 55-8 54h-4l1-6v-5l-25-4-24-4-1-3c0-2-1-3-3-3l-69-12c-9-1-11-2-11-3l4-21a5212 5212 0 0012-61c0-2-1-2-5-2h-5l-1 5c0 4 0 4-2 4l-4-1c-2 0-2-1-2-4l1-4H73l6 1 6 2-1 3v5l-21 2a56 56 0 013-13H0v44m112-25l-1 4c0 2 26 8 40 9 1 0 2-1 2-3l1-4-5-1a2194 2194 0 00-35-7c-2 0-2 0-2 2m70 27l-2 13v5l6 1 8 1-1-1c-2 0-2-1-2-4 0-5 0-5 4-4 3 0 3 0 3 4l-2 5v1l3 2 1 1c0-3 3-2 3 0s1 2 3 2l3 1-2 1-13-3-14-3c-1 0-5 23-4 25l42 7 4-53c0-2-8-4-36-9h-4v8M75 49l-7 29-6 30a4482 4482 0 00-12 57l-6 25-8 37c-4 21-4 20 1 20l9-2h7l18 3 31 1-2-1 2-6v-5l6 1 18 1 12 2v4c0 7 0 7-10 6h-18l45 3c3 0 5 0 4-1l-2-1 3-14 1-14 19 1c18 2 18 2 27 6l8 4v7c-2 23-2 21-4 20-3 0-3 13 0 15 2 1 2 1 2-3s1-5 3-5 3 1 1 4c-1 1 0 2 2 3 3 1 3 2 3-5l1-6-5-2c-4-1-4-2-4-5l2-11c0-8 0-8 4-5 4 2 4 1 5-4l-1-7-2-2c1 0 0-2-2-2l-3-3c0-1 2-1 3 1 2 2 3 1 3-6v-7c-3-2-3-1-3 4 0 7-1 5-1-3l-1-6 4 2 4 2 1-5v-5l-4-3-4-2 1-9c0-11 0-11 4-9 4 3 4 3 4-2 1-3 0-5-1-6v-2l-2-3c-3-3-3-3-3-10 1-7 1-8 4-6 4 3 4 2 4-3 0-4 0-5-3-7-5-4-5-4-5 2 0 4 0 4-2 3-1-1-2-2-1-3 0-1-9-9-11-9s0 3 3 5l6 4-6-3c-5-3-6-4-22-6l-16-2v-16l1-9-5 1c-7 1-7 1-39-4-49-8-50-8-50-10l3-17 4-25c-2-2-12-2-12-1m29 13l-1 12 15 3 16 3 33 5 3-23a2558 2558 0 00-62-11c-2 0-2 1-4 11m378 4l-3 4-3 5c-8 8-9 9-8 10l-2 2h-1l-1 1-1 4-1 2c-2 0-4 1-4 3l-1 1a3 3 0 00-1 2h1l-7 7-2 4-1 1a13 13 0 00-7 7c2-1 2-1 1 2l-10 11-2 1c-1 1-1 1 0 0 3-2 2 0-1 5-3 3-6 6-4 3l-1-1v2l-2 4-2 4-2 2-1 1-3 5-6 7c-2 3-4 4-5 4 0-1-1 0 0 0 0 2-4 8-6 8l-2 1c-1 1-1 1 0 0 3-2 2 1-1 5l-9 11-6 7a25 25 0 00-9 10l-16 21-5 6-6 7c1 1 3-1 13-14l13-16c5-5 51-62 52-65a315 315 0 0130-37 4 4 0 014-5c-1-1 1-3 2-4l1-1c0-2 2-4 3-4l1-2 2-1 1-1c0-3 2-5 3-5l1-1c0-2 2-4 5-4l-1-1v-2l4-5 6-8 4-7-4 4m30 10c0 2 0 2-9 1l-8-1 1 1c1 0 2 1 2 3v4c0-2-1-2-2 1l-1 4c4-2 18 3 20 5 2 4 3 5 16 7l35 6h8l5-2 3-1-1 5v14l1 5-3-1c-4-1-4-1-6-9-2-6-2-7-5-7l-4-1c-1-1-1-1-1 1l-1 3-1-2c0-2-2-3-5-3l-5-2-4-1 2 8-1 2-2-5c0-3-2-5-6-5l-5-1c-3-2-3-2-3 0h-2l-6-2-6-2c-2 0-2 0-1 3v2h-4l-10-2-4 1 2 1 2 4v3l-1-3c0-2 0-2-2 1-2 5-1 6 10 8 10 2 10 2 12 7 1 1 25 5 28 4l6-2c2-1 4-1 17 1l15 3 1 1 2 11c2 12 2 13-3 13s-8-3-10-11c-1-5-2-6-3-6-2 0-2 0 0 10l-1 3-2-7c-1-6-3-11-3-8l1 8c2 8 3 7-5 6s-7-1-9-10l-2-7c-1 0-1 3 1 8 2 6 1 8-2 7-4 0-4 0-5-7s-2-7-5-8a6 6 0 01-5-3l-1 1c1 2 0 2-3 1a46 46 0 00-11-3c-1-1-2-1-1 2 0 3 0 3-3 3-7-2-15-2-15-1l1 1c2 0 3 2 3 6v3l-1-3-1-1c-3 7-2 7 13 9 6 1 8 1 7 3 0 3 2 4 23 7l29 4c7 1 7 1 10-1l5-2c2 1 4 6 2 8v1h2l-2 2-1 3 2 6 1 6h-5c-2 0-6-11-6-15 0-2-2-3-5-4-13-1-20-2-19-4h-1l-2 1h-2l-13-2-15-2c-2-1-2-1-2 3l1 3h-6l-10-2c-3 0-4 1-1 2l2 3a20 20 0 000 5l-2 1c-2 4 0 4 20 7 19 2 19 2 19 5 0 2 4 3 11 3h5c0 1 5 2 11 2 17 2 18 2 16-1-1-1-1-1 2-1l6 1 2 1 1 8 1 7v13l-3-1c-5 0-5 0-7-11l-3-9-3-1-5-1c-2-2-2-2 0 9 3 12 3 12-5 11l-7-2h6l7 1c1-2-2-3-7-3-7-1-8-1-8-7-1-4-1-4 1-4 5 2 11 1 10-1 0-3-2-4-7-4l-7-2 1 7c2 10 2 10-3 9l-11-2-1-5-1-4 7 1 6-1c0-3-3-5-8-5l-6-2c-2-3-2 0 0 6l1 9c0 2-2 3-3 1 0-2-5-2-6-1h-1l-1-1c-1 1-1 0 0 0 0-3-1-5-2-3h-1l2-2c2 0 1-2-2-2l-3-3c0-4-1-7-2-6v4c1 4 2 4-9 3-10-1-13 0-7 2l2 9-1-3c0-3-2 0-2 4 0 3 1 4 12 5 5 0 9 1 9 2l3 2 5 2 24 2c21 3 27 3 28 1h10c3 0 5 5 4 12-1 6 0 8 2 8v1l-2 1 2 2v1c-1-1-2 0-1 2 0 3 0 3-2 3l-4-1-1-4a71 71 0 00-4-15c-1-4-1-4-4-4h-6c-2-1-2-1-2 2 1 2 1 2 0 0-1-1-2-2-5-2l-7-2c-4-1-4-1-4 1s0 2-1 1c-3-3-15-5-16-3 0 2 0 2-1 0l-4-2h-7l-6-1 1 4c1 6 1 6-1 6-5-3-21-2-17 1l1 1h-1l-2 2c-1 3-1 3-3 2-1-2-1-2-3 0-3 1-6 9-5 10l2-2c0-2 1-3 2-3v2c-2 3 0 6 2 3h1c0 2 3 0 3-3l1-4c1-2 1-2 0 0 0 4 2 3 3-1v7h3l54 6 40 3c1 4 6 30 5 31-4 3-14-1-11-4v-1l-2-7c-3-13-2-13-9-13-4 0-5 1-5 2h-1c-1-1-3-2-7-2l-7-2c-2 0-2 0-1 4 0 5-1 5-1 1-1-4-1-4-10-6l-7-1v5l1 5-1-4c-2-5-3-6-12-6l-6-1v4l2 5c0 2 0 2-11 2h-10l3 2c2 0 4 8 3 10l-1-1c0-2-2 1-2 4 0 2 2 3 9 3 8 0 15 1 15 3 0 1 2 2 8 2l14 1c14 2 35 2 40 1 12-3 14 0 14 20l1 13c1 1 1 1-2 1l-4-1c-1 0-3-4-2-5l-2-4c-2-2-3-5-2-6l-1-3-2-4c0-5-2-6-7-6-3 0-3 0-3 2l1 3-1-3-5-2-8-2-4 1h-1l-14-2-16-1c-5 0-5 0-5 2l2 6v5l-10-1c-11 0-11 0-11 2s-1 3-3 3l-5 2-2 1c0-2-2 2-2 6v1l2-2 1-1 1-1a3 3 0 01-1 4v4h1l1-2 4-1h2l-2 1c-3 2-2 3 1 1l1-2 1-1 2-4v-6h-1l1-2c2 0 2 1 3 7v4c-1 0-2-1-1-3 0-3 0-3-1 0-2 6-1 9 3 9l29 1c71 4 71 4 73 3l5-2 2-1v-1l1-1-1-1a44 44 0 01-4-16c-3-7-4-12-3-13s0-5-1-5-3-5-4-12l-3-12-1-7c2-1-1-6-4-6l-1-1h-2l-2-1c-2 0-3 0-4-4l-1-4 5 1 4-1-1-1-2-1h-4c-3 0-3-1-4-7l-3-8c0-2 0-2 5-2 5 1 6 1 6-1l-1-2-2-1-4-1c-4-1-7-4-7-9h9l-6-2c-4 0-4 0-5-6-3-10-3-10 3-10l5-1-1-2-3-1c-1-1-2-2-3-1l-2-1h-1c-1 1-1 0-2-2-2-5-1-5 3-5l4-1-4-1-5-1-4-15h11c-1-2-7-5-10-5l-3-4-1-4 4 1h4l-3-2c-6-1-6-1-7-7l-2-7 5-1h5c0-2-4-4-7-4l-2-2c-1-2-1-2-1 0l-1-1c-2-5-1-5 3-4 5 1 4-2-1-3-4 0-4-1-6-5-2-9-2-9 4-8l5-1c0-1-7-5-8-4l-1-3 1-3-1 3c-1 3-1 3-2 2-2-5-1-6 3-6h3l-4-2-5-2-2-11-2-1-1 4v16l-4-1c-3 0-4-1-5-6-2-5-3-6-5-7l-4-3 1 9c1 5-1 3-3-2-2-6-2-6-7-6l-6-3c-1-2-1-2-1 1 2 9 2 12 1 12l-1-5c-2-6-3-8-8-9l-6-2 1 9c1 5-2 3-4-3l-1-6-5-1-6-2c-1-2-2-1-1 1m-18 6c-1 4-1 4-2 2-3-3-5 2-3 6 2 3 2 3-34 44l-29 34a33034 33034 0 01-65 75c1 0 26-28 65-74l30-35 35-41 3-7c3-6 4-8 2-8l-2 4m161 14h-8l-8-1-6 1 1 3 2 1c2 0 2 1 4 6 1 5 3 8 4 7l-2-7c-2-7-2-8 1-6l3 2c4 0 5 1 7 7l3 6v-2l-2-11 1 1 4 2c4 0 7 3 5 5l1 1 1 2c0 2 3 6 3 5l-1-6c-2-6-3-10-1-7l5 2c4 1 4 2 6 6a13 13 0 011 7h2a1 1 0 101-2l-2-4-2-6 1-1 2 5 2 6v-18l-9-2-13-2c1 2 1 2-1 2-3 0-5-2-3-3v-1l-2 2m-480 16c-2 9-1 12 3 12 4 1 4 2 5-7v-8h-3c-5-1-5-1-5 3m11 0c-3 12-2 14 4 14h3v-7c0-6 0-8-2-8-3-2-5-1-5 1m10 2l-1 8v5l3 1c5 0 6-1 6-9 0-7 0-7-2-7l-4-1c-2 0-2 0-2 3m-75 0l-1 5v3l16 2 16 2 1-5 1-4-15-2-18-1m87 5c-2 8-1 11 2 12 2 2 2 2 3 1s1-1 1 1 4 5 5 4l1-8c0-7 0-7-2-8s-3 0-3 3l-1 4v-5l-3-6c-3-4-3-4-3 2m267 23a30176 30176 0 01-114 120l-6 7 40-41 55-58 41-44-16 16M0 321c0 105 1 148 1 96a42742 42742 0 00-1-96m170-177l-1 13-2 11h4l18 3c14 1 14 1 22 6l8 5v-6l1-12v-6l-8-6-8-5-14-2-17-2c-3-1-3-1-3 1m1 7l-2 8c0 3 0 3 4 3 5 1 5 2 6-8 0-7 0-8-2-8l-4-1c-2 0-2 0-2 6m10 2c0 9 0 10 4 11h4v-8c1-8 1-8-3-9h-4l-1 6m12-1c-2 7-1 13 1 13l4 1c2 0 2 0 2-8 1-9 2-9-3-9-4-1-4-1-4 3m-78 4c-1 5-2 5 14 7 20 3 19 3 19-2 1-5 2-5-13-7-20-3-20-3-20 2m364 15a26630 26630 0 01-81 76 110 110 0 01-17 15l-1 2h-2l1-1 1-1-1-2c-2 0-4 4-4 6s0 3-2 2l-1 1-14 16-14 14 47-44 70-65 35-34-17 15m-313 13a342 342 0 01-3 25l18 2c17 1 18 1 26 6l9 4v-4l1-13 1-9-9-5c-8-4-9-4-23-6-20-2-20-2-20 0m325 11l-34 27-63 53a40 40 0 01-12 8c1 1-2 4-3 3l-1 1-2 1c-3 0-3 0-2 1 1 2 0 3-7 8l-10 10-2 2 2-2 25-20 80-66c28-23 42-35 39-35l-10 9m-382-1c-3 9-4 9 18 11 17 2 16 2 16-4l1-4-11-2-24-1m398 12c-2 3-3 8-1 7v-3c0-2 0-2 1 0v3l-1 4-1-3c-1-5-1-5-2-3l-3 10 2-4c0-3 0-3 1-1 2 4 3 4-47 39l-39 29-35 24v-4l-1 3-4 5h-1l-1-2-1 2c1 2 0 3-5 6-6 4-11 9-5 6l5-4 12-9 6-4 41-30c71-50 75-53 77-56l3-2 1-1h-1l-1-1c0-2 2-3 2-2h2c1-1 2-2 3-1l-1-1-1-5v-2h-2c-1-2-1-2-3 0m-345 25l-1 9v4h8v-8c1-8 1-9-4-9-3 0-3 0-3 4m310 47a263 263 0 00-20 12l-1 1-1 1c-2 0-28 16-32 20l-2 2a687 687 0 0035-22l13-7 17-10c4-3 8-6 6-6l-15 9m61-1c0 6 2 8 1 2 0-3 0-3 1 0 1 5 2 5 2-1l-1-4 1 5c1 5 2 6 4 5 1-1 2 0 3 1l4 1c2 0 2 0 0-1-3-1-3-1-1-1s2 0 2-5c-1-5 0-5-9-5l-8-1 1 4m-11-2l-3 3-2 1c-2-2-5 3-5 8v2l2-2 2-3 1-1 1-1 2-2c1 1-1 6-2 6l-1 1v1l1 1 1-1c1-2 1-2 3-1a3 3 0 004-1l1-2 2-5 1-3-1 3-2 4v-8h-5m17 42c1 5 2 6 3 6 2 0 2 0 1-6v-3l1 2c0 6 4 10 5 5 1-1 1-1 1 1s-1 2-4 2l-4 1h4c6-1 7-1 8-3h1l1 2v-9l1-1-2-1-2 1h-1c-1-1-1-1-1 1-1 2-1 2-1 0v-2l-6-1h-6l1 5m-65 5c-4 2 0 4 4 3 8-2 32 7 33 12l5 30 6 27v-7a33960 33960 0 00-9-51l-3-4-10-4a69 69 0 00-20-6h-6m86 17l1 7c2 6 2 6-1 6-1 0-2 0-1-1l-1-2-1-2c0-2-1-3-3-3s-2 0-2 4v3l-1-4-1-2-1 3 1 3h-5c-5 0-7 2-2 3 1 0 2 1 2 3v6h-1v-7l-1 3c-1 4-2 4-2-1l1-3-1 3v5c1 1 1 1-1 1l-1-1v-4l1-3-1 3-2 3-1-4c-1-5-3-3-2 4l-1 4c0-2 0-2-1-1h-2c-2-2-3-1-2 3 0 4 0 4 3 3l2-2 1-1 1 1h5v-1c-2 0-2 0-1-1 2-2 4-2 4-1v4c0 1 1 2 11 2h61c2-2-5-3-19-3-9 0-9 0-10-3-2-5-2-5 5-4l7-1c1-1-1-1-6-1h-8l-2-11-2-11c-2-1-2 1-1 5l1 8 1 3v5c0 1-11 0-11-2l-1-1h-2c-1-1-1-1 1-1l2-1c0-1-1-2-3-2l-2-1-1-3-2-6c0-4-2-7-2-3m-258 34c0 2-1 5-3 5l-2 6c0 3 0 4-1 3-1 0-2-1-1-5 0-4 0-4-1-3l-13 8-1-7c0-5 0-7-2-7l-1 8-1 8-2 1c0 2 1 2 15 2h15v-11c0-11 0-13-2-8m266 8l3 12h1l6-4c5-3 7-5 6-7 0-1-7-2-11-1a2 2 0 01-4-1l-1 1m-46 17a45 45 0 012 23l2 9c0 3 1 5 2 5l1 2 4 15v-11h6l7-1c2-1 0-4-3-4-2 0-2-1-4-10l-1-10h-10l-2-11-3-10-1 3m-319 40l-1 20c0 6 4 4 4-2 2-19 2-21 0-21s-3 1-3 3m84-1c-3 3-3 9 0 13 1 1 2 3 1 4 0 2 0 2 2 2s2 1 2 5 0 5 2 5l2-1h-1c-2 0-2-1-2-4 0-4 0-5 2-5s3-3 1-3l1-2c4-4 5-11 0-15-3-2-7-1-10 1" tabindex="-1" itemprop="regular" style="fill-opacity: 0.777; fill-rule: evenodd; fill: rgb(108, 168, 198);"></path><path d="M23 1c0 1 4 4 5 3 0-1 3 1 3 3s3 3 4 1c0-1 3 1 3 3l4 3 3 1-1 1h-1 3l3 1c0 1 6 1 7-1l2 2c2 1 3 1 2-3l2-6 2-5V2c1-2 0-2-20-2L23 1m63 0v2l-1 3c0 5-1 5-12 7l-11 1-2 12-6 26-17 73c-1 4-2 5-4 5s-3 1 0 3v1l-5-1-2-1H12v4c-1 4-4 4-4 0 0-3 1-4 2-4 1-1 0-1-2-1l-6-1H0v382h122l122-1 1-3 2-4 2-4c2-2 2-2 1 2-2 6-2 10-1 10l1-3c0-3 1-3 3-4 3 0 3 0 3 3l-1 4h16v-7c0-6 0-7 2-8l1-2c-1-2 1-4 2-3l1-2c0-2 0-2 2-2h1v-4l-1-2v-1a13 13 0 002-11l-1-2-1-1v-3c0-2-1-3-2-3-2 0-2 0-1-1l2-2c0-2-2-3-2-1h-1l-1-3-3-3-3-1c-1 0-2-1-1-4l2-4 1 6 1 1 1-4-1-5c0-2 0-3-1-2l-1-2-1 2c-1 3-1 3-1 1 0-4-2-4-2 1a4 4 0 001 4c0 1-8 3-11 2l-2 1h-2c-2 0-3 0-3 2-1 2-3 3-5 1h2l2-1c-1-1-9-1-13 1-3 2-3 3 1 3l2 1h-8l2 2c2 3 2 3 0 2-3-2-7 0-7 2l-2 4c-1 2-2 3-1 4s1 3-1 3v-1c1-2 1-2-2-2l-3-1-3-1c-3 1-3 1-3-1v-1l-1-3c0-2 0-2-1-1-2 4-8 1-6-3l-1-1c-1 1-1 1 0 0l1-10 1-10c1-2 6-1 6 1h1c1-2 0-3-3-3h-4v-7c0-14 0-14 3-14s4 3 1 3c-1 1 0 1 2 1h3v-5l-1-6c-1-1-1 0-1 2 0 3 0 3-2 3-3 0-3-4-1-16 1-6 4-4 4 2l1 6 1-6v-7h-7v-7l1-8v-3l1-2 4 1 1 2v2l1-3-1-2c-4 1-5-2-4-10 0-9 1-10 5-8 3 2 3 2 3 0 0-1-1-2-4-2l-4-1v-7l1-9a3 3 0 012-4c-1-1 1-5 2-5l1 3-1 3c-1 0 0 5 2 5 2 1 2 0 2-8 1-15 2-15-3-15l-3-1v-7l1-9 1-2v-5l1-5 1-4c0-1 0-2 2-2 2 1 2 14-1 16v2l1 2v1l1-2 1 1v-6a34 34 0 011-14c-2 0-4-3-3-4 2-2 0-5-2-4-1 1-2 2-2 5 0 4-1 5-3 2-3-3-2-14 1-14 2 0 2-1 2-11 1-15 1-16-2-17l-12-5h-1l-14-3-18-2c-5 0-5 0-5 2 0 1 0 2 1 1h4c5 1 5 0 3 11v6h-4c-4 0-5 0-5-2v4c0 4 0 5-1 4s-1-1-1 1l2 2 4 1c2 1-19 1-40-1l-25-2-46-4-7 1H32l1-3a9589 9589 0 0114-71l1-3 4-16 1-6 1-6a1208 1208 0 016-28 2044 2044 0 0110-45c5-24 4-23 9-22 6 0 10 2 10 3l-1 5a514 514 0 01-8 35l4 2c10 3 76 14 83 13 6-1 6-1 5-3-3-3-18-6-45-9l-10-1-14-1c-14-1-14-1-9-26l12-62V0h-4c-4 0-4 0-5 3l-1 5c-1 2 0 2 2 4 4 1 4 3 0 3-3 0-3 0-3 3s0 3-8 2c-7-1-7-3-3-6l2-4 1-3c2-1 2-7 0-7l-1 1m147 7l-2 8-20-4c-10-2-20-4-22-3h-3l-1 5c0 5 0 6 2 6 13 4 36 8 38 7l4-1h2l-1 13v15c0 2 0 3 3 3 3 1 3 1 2 7l-3 49v12h-4l-4-1v4c0 4 2 7 5 7l1 6c1 5 0 11-1 11l-1 6a12 12 0 01-1 8c2 0 3 5 2 10 0 5-1 5-3 4s-2-1 0 2a15 15 0 012 11c-1 2-1 2-2-3v-5l-1 4c0 4 0 5-2 5l-2-1-1-1 4 5c4 4 5 5 4 8 0 5 1 7 4 7s5 1 2 3l-1 3v1l-1 2-1 1-1 4c0 4 2 5 11 6l3 2h4c1-1 1-1 1 1a16 16 0 008-1l-1 4c0 2 0 2-2 1-3-2-3-2-3 0l4 2 3 1 1 1 4 2c2 2 13 4 13 2s4-1 4 0l5 2 6 1 14 4c4 0 5 1 6 2h6l5-1h7c4 1 12-4 10-6l1-1 1-3 5-8 5-7 3-3 3-3 3-4 9-11 32-41a28113 28113 0 0089-115l22 3 21 4 2-2 2-2 8 1c7 2 7 2 8 0 2-2 4-2 21 2l12 3c6 1 7 2 8 3 1 2 2 3 9 4a90 90 0 0124 7l2 3 2 2 26 6 26 6V0H233v8M114 19c0 1 1 2 3 2l2 2c0 3 3 3 3 1 1-3 6-1 7 2 1 2 6 4 5 1 0-2 1-3 4-1 2 0 3 3 1 3-1 1 0 1 1 1 2 0 3 0 3-2s0-2 2-2l3 1c2 0 3 4 1 4-1 1-1 1 1 1s3-2 3-5c0-1-3-2-18-5-22-5-21-4-21-3m68 25l-1 7c0 3 0 3 2 2 5 0 7 1 7 4 0 2 0 2 1 0 1-3 7-1 8 3 0 2 0 2 1 0 1-1 1-1 1 1l-1 3v1c1 2 2-1 2-4s2-4 2-1c1 5 0 7-1 7-1 1-1 1 1 1l7 3c9 5 9 5 9-8l2-14v-4l-14-2c-13-3-14-3-15-1-2 3-8 2-10-1-1-1-1-1-1 3m-76 9c0 1 1 2 2 1 3-1 7 2 7 4l-1 3-1 7c-1 2-4 3-8 1-2-1-2-1-2 1 0 1 0 2 1 1h1l5 1 5 1 8 2 9 3c3 1 3 1 5-1 1-1 1-1 1 1s0 2 15 4l11 2h3l1-6V68l1-5-29-6c-31-5-34-6-34-4m72 17c1 2 2 2 7 4 3 1 3 1 1 11v4h-9l3 1 14 4 4 1c3-1 13 1 12 2l1 1h4c3 2 3 2 4-11V76h-2c-5-2-35-7-37-7l-2 1m309 7l-5 2c-4-1-4 0-9 5l-28 36c-91 115-97 122-97 125 0 2-1 3-2 3v1c3 0 2 2 0 6-3 3-3 4-2 4 1 1 7-5 19-19l24-28a32 32 0 008-11c1 1 8-8 29-31l22-26c38-44 35-41 35-45v-5l1-1 4-4c2-4 4-6 5-6 2-1 3-1 2-3l1-1c1 1 1 1 1-1-1-2-6-3-8-1m147 20l2 2 4 3 1 3-1-4v-3l5 2 6 3c2 1 2 1 2-1h2l4 2c3 0 5 1 7 4l1 4-1-4c0-4 1-6 2-2l4 1c3 0 4 1 6 4v-2c0-5 0-5-4-5l-12-3a1257 1257 0 00-25-5l-3 1m-142 8c2 4 2 5-2 10-5 4-5 4-5 2s1-5 3-7l3-5-1 1-28 32c-14 15-14 15-16 13s-2-2-22 21a468724 468724 0 01-67 78 87 87 0 00-10 13l1 2 2 1-2 4c-4 4-6 11-2 8 1-1 2-3 1-4l1-3 1 2v1l1-3 1-3 1 1v1c1 1 1 0 1-1l1-3v2l9-9c23-23 23-23 23-27l1-3 1 3c-1 2-1 2 1 0l1-2c-1 0-1-4 1-5 1-1 1-1 1 2 0 2 0 2 1-1 0-4 3-6 2-2l13-12a79 79 0 0014-16l3-2 12-13a22 22 0 0010-13c0 3 2 1 1-2 0-4 4-10 5-7 2 4 2 4 2 0 0-3 0-5 2-6 3-4 4-4 4 0 0 3 0 3 2 2v-3c-2 0-1-4 2-8l3-3v3l1 3 1-4c0-3 0-4 3-7s3-3 3-1c0 4 0 5 1 4s2-2 1-5c0-3 0-4 3-7l3-4c0-1 11-13 13-13l2-5-4-1c-3-1-3-1-3 1m-315 2l4 1c3 1 4 2 2 12v5h-4c-6-1-3 1 3 1l20 4 2 2 2 1v-22c-4-2-9-2-9-1l4 2c3 0 4 1 4 6 0 9-1 10-4 10-6 0-6-1-6-10l1-9h-3l-7-1-7-2-2 1m408 3l2 6c1 4 2 5 3 5 3 0 8 2 6 3s0 7 3 7c2 1 2 0 1-3 0-5-1-6-2-6-2 0-3-3-3-9v-5h-5c-4 0-5 0-5 2m-400 0v9l-1 7h4c5 1 6 0 6-7v-7c1-2-8-4-9-2m309 25c-2 2-7 3-6 1v-2c-1-1-5 2-15 13l-29 30c-66 69-96 101-95 103 0 2 1 3 2 3 2 0 1 1-2 4l-2 3 2-2 3-2v2l1 2 1-3 2-4v-3a2 2 0 013-2l2-2c2-1 3-3 2-3l1-1 1-3 1-2 1 5 1-1c1-1 1-1 1 1 0 7 2-1 2-8l1-9 3 2c3 1 3 1 1 3-1 2-1 2 2 0s3-2 4-1c1 2 6-1 6-5 0-3 0-3 1-1 1 3 3 1 2-3l1-4v3c0 3 0 3 1 2 2-1 2-2 1-4l1-3c1-1 1 0 1 2 0 3-2 4 33-28l20-19v-7l1 3c0 2 0 2 1 1 2-1 1-5 0-6-1 0 0-2 2-3l3-3 1 3 1 4v-5c0-7 6-12 6-6l1 3 1-2 1-1 4-2 9-9c5-4 7-10 4-10v-1l1-1 1-1h1l1 4-1 1c-1-1-1 0-1 1h2l1-6c-1-4-1-4 1-6l6-6 4-4c2 0 4-3 3-5 0-4-6-4-9 0m61-1l5 2c8 2 8 2 9 9l2 8-1-6c-2-10-2-10 4-9 7 2 8 3 10 12 3 12 5 6 2-7l-1-6-12-1-16-3c-3 0-3 0-2 1m37 3c0 7 4 13 8 13 3 0 5 2 3 3a5 5 0 006 8l-5-19-1-6h-6l-5 1m-422 8c0 2 0 2 1 1l5-1 4 1v6c0 10-1 11-5 11l-5-2c-2-1-2-1-2 2 0 1 0 2 1 1l1-1 6 1c22 3 25 3 25 6l1 1h1v-24l-14-2c-18-3-19-3-19 0m12 4l-1 9v6h9v-4l1-8c0-4 0-4-7-5-1-1-2 0-2 2m11 0c-3 14-2 17 5 17 3 0 3 0 4-8 0-8 0-8-5-10-4-1-4-1-4 1m307 13a233 233 0 01-27 24l-6 7c-8 6-11 6-6-1l2-3-5 4-21 20-62 59 2-1-1 3c-3 4 1 3 6-2s5-5 5-2c0 1-1 4-4 6l-3 4 3-2c3-3 4-3 4 0 0 4 8-4 9-9 1-4 2-5 4-2 0 2 1 1 13-8a72 72 0 0013-13h2c2-2 3-3 2-5 0-3 0-3 1-1 0 3 1 3 12-7 11-9 11-9 11-13l2-6c4-3 4-2 4 2-1 4-1 4 1 3l1-5c-1-3-1-4 2-6 3-4 4-4 4 1 0 3 2 4 3 0l-1 1c-1 1-1 1-1-3 0-3 1-4 3-6 3-3 4-3 4 3 0 2 0 2 1 1v-4c-1-3-1-3 3-7s4-4 5 0c0 4 0 4 5 0l4-5-4 2c-3 4-4 4-4 0 0-2 2-4 8-10 9-8 12-12 5-7-6 5-6 5-6 0 0-3 7-12 8-10l7 1c8 0 9-1 3-2l-8-2-3 1m104 3c-6 0-6 0-4 8 2 6 3 7 8 7 3 0 4 2 2 3a6 6 0 004 8l2 1h1l-7-27h-6m-125 19c-3 3-4 4-4 6v3l-1-2c0-3-1-3-4 0-2 2-2 4-2 7l1 3 7-6c8-7 9-9 7-13 0-2-1-2-4 2m-313 0c0 2 0 2 1 1 1-2 1-2 1 0l-1 7c0 3 0 3-1 1v3c0 4 0 6-1 5-1-2-1-2-1 0s0 3 2 3c4 0 4 1 5 2h-3l-3 1c-1 1 7 2 12 2h3l11 1c12 1 14 2 16 4l2 1 1-2v-1c-2-1 0-14 2-15 2 0 1 18-1 19-1 1 1 2 4 3l2-20c0-4-13-13-15-10-1 1-1 1-1-1 0-1-1-2-4-2l-31-4v2m337 10l-3 3-4 2v-3c-2-1-16 10-97 78l-29 23c-20 17-20 16-20 20v3l4-1c4-2 4-1 0 3l-2 2c2 0 2 0 2 2l-1 3 3-2c2-2 3-3 2-4l1-3c1-1 1 0 1 2 0 1 0 2 1 1l1-3c-1-1 0-2 1-4v-1c-2 1-2 0-1-3l2-3 1 3c0 2 0 3 1 2 0-2 2-1 2 2v2l3-2 3-2-3-3-2-3 1 1c0 2 3 1 6-2l4-3a2 2 0 001-3l-2-1-2 1-1 3c-2 2-3 0-3-5l1-3 4 2 6 2 2 2c2 2 2 1 9-3a11 11 0 006-7c0 2 0 2 6-3l14-9a13 13 0 008-9c1 4 4 1 4-3 0-3 0-3 1-1 1 4 40-24 39-28 0-2 0-3 1-2 1 2 3-2 3-5 0-2 1-3 2-3l1-1 2-1 1-1 3-2 2-2 1 3c1 6 3 5 2-1 0-4 0-4 1-1 1 5 2 5 2-1v-4c1 1 1 1 1-1 1-1 1-1 1 1 0 5 2 3 2-1 0-3 1-4 3-6l3-3 1-2c2-1 1-9-1-8v-3c2-1 5 1 5 4 0 2 1 2 2 2h2l-1 1-1 1c0 2 2 1 3-2 0-2 1-3 3-3 5-1 4-4-2-4l-7-2-5 2m-394 0l5 3c3 0 3 1 3 2l1 2v1c-2 1-2 1 0 1l3-4c0-2 0-3 1-2l3 1c3 0 3 0 3 3 0 2 0 2-3 2-4 0-1 2 4 2l5 1 1-1-1-1c-2 0-2-1-2-4 0-2 0-3 1-2l4 1c3 0 3 0 3 3-1 4 2 4 3 1 1-6 0-6-12-8l-17-1h-5m499 2c-2 0-2 2 0 11 1 3 2 4 6 4s6 2 4 3a7 7 0 004 9l2 1-2-13c-4-17-3-16-8-16l-6 1m-103 34l-4 3-1-2-2-3-77 55c-72 51-72 51-71 53s2 2 4 1h3l2-1c1-2 2-2 2-1l-2 4-2 4-1 3v-3l-1-1c-2 2-3 1-3-1-1-2-1-1-1 2 0 2 0 3 1 2h2c1 1 0 2-1 3-3 2 0 2 3 0a5 5 0 004-5c0 3 2 2 2-2l1-3 4-3h-1l-1-2a19 19 0 019-10l2-2v2l3 3-5 3-6 4 4-1 3-2 2-1c2-2 4-3 4-1l-2 1c-1 1-2 2-1 3 1 3 6 0 6-4v-3l2 2 1 1c0-2 0-2 1-1h2l1 1-30 19c-11 7-14 11-6 10 4-1 5 3 1 5-1 1-2 2-1 3l-1 3-1-2c1-3 0-3-2-1v1l1 1c0 2 0 4 1 3l2-1a15 15 0 0010-5l2-1 1-2-2 1c-2 2-3 1-3-1 1-3 0-4-1-2-2 2-3 1-3-1l2-4c4-2 4-2 4 0 1 2 1 2 1-1l2-4c2-1 2-1 2 9 1 4 2 5 2 0 0-2 0-3 1-1 1 4 3 3 2-2l1-1a1 1 0 001-2l-6-2h2c3 1 3 1 3-2 0-2 0-2 2-1l1 3 1 1c2-1 5 0 5 2h4l3-3 2-1h5c7-2 3 1-22 13l-26 12 1 3 1 2 1-2 3-1c2 0 2 1 2 5 0 6-1 8-2 5-1-2-1-2-1 0s0 2-3 2h-5l4 1c3 0 4 0 4 2h1c0-2 2-3 2-1h1a2 2 0 002-2c0 2 2 1 2 0l1-2 1 1v1l1-2c0-2 0-2 1-1 0 3 2 2 2 0s0-2 1-1c0 2 0 2 4 1l3-3 1-5-1-2c-1 1-1 0-1-5l1-3c0 2 1 3 2 2l1 5h3c1-1 1-1 1 1l-1 2-2 2h4v1l1-2c0-2 0-2 1-1 2 2 4 2 3 0l1-1 1 1h1c1 0 2-1 1-2h1c1 1 4 1 20-6 10-4 9-3 9-2 0 2-9 5-52 21-19 7-24 9-21 9l9-1 2 2c1 2 1 2 1 0s1-3 3-4c4-2 5-1 5 4 0 3 0 3 3 3l4-1-3 1-5 3-4 2a3 3 0 104 2c0-2 0-2 1 0 0 2 1 2 2 2l4-1 1-4 1-3v-2l-2-4v-3l3 3a5 5 0 005 2l1 2c3 2 3 5-1 4h-1c3 3 6 2 6 0l1-2c1 1 2 0 3-1s1-1 1 1c-1 2 0 2 2 2 2-1 2-1 2-3l1-3c2 0 3 2 1 3s0 2 2 1h4l6-2h6c1 1 0 1-3 2l-43 11c-17 3-21 5-22 6 0 2-2 2-11 2l-10 1c0 4-5 19-7 22-5 5-5 6-4 7l1 12v14h-9l-1-10-1-27-1-16 1 49v4h-4c-3 0-3 0-3 4s-3 5-6 2h-2l-2 2c-2 0-2 0-2 12l-1 13-7 1 200 1h200V409l-1-103-2 2-2 1-1 1-3 4c-8 4-14 8-14 10v4c3 2 1 3-3 2l-4 1 3 1a1 1 0 111 2l-1 1 1 1 1 2c-1 1-4-2-3-4h-2l-8 1c-5 0-6 0-6 2l3 9a23 23 0 003 9l-1 2c1 1-2 3-5 3-1 0-3-5-4-12l-3-12h-16l-37-2h-29c-9 2-20 1-22-1-1-1-12 2-15 4l3 13c4 24 4 24 7 23 1-1 2-2 1-3 0-2 0-2-1 0-1 1-1 0-2-4-1-5 0-8 2-6h1l1 1 1 3v-3c0-2 0-3 2-3h1l1-1 2-1c2-1 5-2 5 0v3h1c-1-2 2-3 2-2v-2c0-4 0-4 2-4s2-1 2-3c0-3 0-3 1-1 1 4 2 2 2-3-1-5 0-8 1-8l1 1 1 5c2 5 3 4 3-2 0-3 0-4 2-4s3 3 2 9c0 3 0 3 1 1s1-2 1 1 2 6 2 5v-8l-1-8h18c1-1 34 1 35 3h1l6-1c9 0 10 0 12 10s3 12 1 10l-1-2-1-1-1-1-1-2-1-2-1 2v5c0 2 0 3-1 2l-3-8-3-7 1 4c1 3 1 4-1 4-2 1-3 0-4-4l-1-4-2 2-2 1-1 1h-7c-3 1-3 1-1 9v4h17l-8 1-8 1h6c7 0 11 2 8 4l1 1 1 1 8 1h12c2 1 2 0 0-5-1-3 0-3 2-4 4-1 4-1 5 5l2 5h6c5 0 6 0 6 2s0 2-8 1h-41l-51-1c-16-1-17-1-28 2l-11 3 7 36c0 2 0 2 11 1 17-1 27-1 28 1l-1 1h-10c1 1 0 1 0 0-2-2-2-2-2 0l-8 2h-8l2 8c1 8 2 9 4 9s3 1 3 3 0 2-7 2h-7v5l2 6c0 3-2 2-3-1l-2-9-3-7c-1 0-2-2-3-8l-1-5-77 8h-10c-2-1-1-2 3-2l67-9c20-2 20-1 18-12l-3-12-5-31-5-28-9-5-13-5c1 1 1 1-1 2s-2 1-3-1c0-3-2-3-1 0 0 2 0 3-4 4-4 2-4 2-4-1l-2-4c-2-1-3-4-1-4l6-1 4 1 3 1h3l1 1 10 4a47 47 0 0012 4c1 1 4 0 7-1 5-2 5-3 3-3l-5 2c-1 1-2 1-2-3v-6h1l1-2 3-1 6-3 7-4-2-1c-7 4-8 4-9 2-1-1-1-1-1 1-1 2-1 2-2 1-2-3-1-7 1-5 1 1 1 1 1-1s0-2 1-1 1 0 1-3c-1-4 0-4 1-2 1 1 2 2 5 2 2-1 3 0 4 2l1 1c0-2 0-2 2 0 2 3 3 1 3-6l1-4c1 0 4 6 4 9 0 2 2 3 3 2v-4l1-3 1-3c0-2 1-1 1 3l2 5v-6c0-6 0-7-4-5a39 39 0 01-18 1h-7l-4-1 5-3c13-7 2-2-21 9a13631 13631 0 01-78 37c-4 0 2-4 27-16 59-29 62-30 61-32h-1c0 2-2 3-4 1h-2c-1 2-2 2-3 1h-3l-1-2c-1 0-1 2 1 7l-1 1c-1-2-3-2-4-1h-3c-2-1-3-1-3 1l-2 2c-5 2-5-3 0-6a482 482 0 0016-9l6-2h1l3-3 3-3-3 1c-4 2-4 2-5-3 0-4 0-4 4-7 4-2 5-3 4-4 0-2 1-1 4 2s5 4 8 4h4v-4c-1-5-2-6-17-6h-8l-22 13-80 48c-1 2-6 3-6 2l17-12a101 101 0 0018-12l3-1v-1l9-4a2479 2479 0 0140-24c2-2 3-4 1-3l-2 2-1 1-3 1c-3 2-4 1-4-3-1-2 0-3 5-6a13 13 0 018-4l3-3 8-6c3-2 4-3 3-4-2-2 0-10 4-14 4-5 4-5-3 0m-331-1l-1 8-1 7h3c5 0 6-2 6-9l1-6-4-1c-3-1-4 0-4 1m440 0l2 8 2 7h4c5 0 7 2 4 3-2 1 1 8 3 8 2 1 3-4 2-7l-2-5-1-10-2-5h-6l-6 1m-512 11h2l3 1c2 0 3 1 3 3 0 4-8 5-8 1-1-2-1-2-1 1l-1 3 18 1 19 1v-6l1-4-14-2c-20-1-22-1-22 1m395 1l-5 2c-1-1-1-1-2 1l-3 2s-2 1-2 3l-3 2a8 8 0 00-5 11 11 11 0 007-7c0 2 4 1 8-3l6-4c4-3 5-3 4-6 0-4 0-4-5-1m5 33l-4 2c-4 1-11 6-11 8v1c0-3-1-2-4 1-2 1-3 3-3 5s0 2 1 0l1-3v6l6-3 3-1 5-3 7-4c5-2 5-3 5-5l-1-5c0-2-2-1-5 1m-141 11c-13 12-16 17-8 15l3-1-3 4c-2 2-4 4-3 5l-1 2v1c2 0 2-1 2-3 0-4 2-5 2-1 1 2 1 2 1-1 0-4 2-6 2-2 0 2 0 2 1-1l1-4v-1h-1l2-3 2-2 1-2c0-2 0-2 1-1v3c-1 1 0 2 1 2 2 0 2-1 2-5 0-3 0-4 1-2 0 3 4 6 5 5v-19l-11 11m139 53a565 565 0 00-17 6l-4 2-26 10-24 9c-3 2 1 2 9-1l72-27c0-2-2-2-10 1m84 12c-2 7 1 10 11 10h5l-1-5c-1-4-2-5-3-4l-2-2c-1-3-10-2-10 1m-91 24l-1 3c0 2 0 2 1 1h1c0 2-1 2-3 2l-2 1c-2 1-3 0-3-3s-2-4-3-1l1 2v2c-2 3-3 2-3-1 0-4-2-5-4-3l-2 1-1 3c0 4 0 4-22 10l-20 6c0 2 0 2 25-4l41-10 19-6c0-2-2-2-12 0-9 2-9 2-9-1 0-2-2-4-3-2m75 6l3 14 7-4c6-4 7-5 7-7s-1-2-7-2a12 12 0 01-7-2c-1-1-2 0-3 1m-162 28c-1 2-2 2-2 1h-2l-3 1c-2 0-3 2-2 7 0 4 1 4 4 4l4-1h1c2 3 4 0 3-6 0-6-1-8-3-6m-30 6l-3 1c-2 1-3 2-4 6l-1 6v-5c0-6-3-7-3-2l-1 4v-4c0-2 0-3-1-2l-7 1c-2 0-2 1-2 5 0 5 0 6-2 6l-3 1h4l18-2 3-1 1-1h1l4-1c2 0 3 0 3 4v4c-1 1-2 0-2-2s-1-3-2-3c-5 0-5 0-4 4 0 3 0 3-3 3-4 0-4 0-4-3-1-3-1-3-1 0l-1 4-18 2c-1 2 1 2 7 1l13-2 36-4 6-2c1-1-2-1-16 1h-8l1-1v-1c-3-3-3-5-1-6s2-1-1-1l-5-1v-5c0-4-2-5-4-4m96 15l-2 2 1 2h2l1 1-1 1-2 1h-1c-1-1-6-2-7 0h-2l-1 1 1 5c0 3 2 4 2 1h1a4 4 0 008-1c0 3 2 2 2 0 0-3 1-5 2-5l1 4 1 5c1 2 1-4-1-12-1-6-2-6-5-5m-184 9c-5 5-3 12 3 14 1 1 1 1-1 1l-2 1a5 5 0 008 0l-2-1v-1c6-2 8-9 4-14-3-4-7-4-10 0m119-1h-1l-4-1h-3v6l2 8 1-1 1-2 1 2c0 2 3 1 3-2 0-2 0-2 1 0 1 5 3 3 3-4l-1-8-3 2m-49 4c-3 0-3 0-3 5l-1 7h1l4-1c2 0 2 0 2-2l1-2 1 2 2 2h3c1 1 1 0 1-5 0-9-3-10-3-2l-1 6v-6c0-4 0-5-2-5l-1 3v3l-1-3c0-2-1-2-3-2m-160 26l-1 8v4h5a4 4 0 004-8v-1l1-3c0-4 0-4-5-4h-4v4" tabindex="-1" itemprop="bold" style="fill-opacity: 0.905; fill-rule: evenodd; fill: rgb(21, 21, 24); color: rgb(55, 163, 15);"></path></svg>