<svg id="16282281824-posters-1631237086400" itemscope="" itemtype="/posters" itemid="/+16282281824/posters/1631237086400" viewBox="0 0 512 683" preserveAspectRatio="xMidYMid slice" tabindex="0" xmlns="http://www.w3.org/2000/svg"><rect itemprop="background" width="100%" height="100%" fill="white" tabindex="-1" style="fill: rgb(186, 186, 186); color: rgb(0, 138, 138);"></rect><path d="M0 28l1 27 17-25L33 6l34 23a5854 5854 0 01138 96l-30 25-23 18c-2 0-99-55-99-57-2-4-2-8-1-7h1v-2l-3-6c-2-8-7-17-8-16l1 3c3 4 1 4-4 0l-5-3-1-3c1-3-3-4-4-1 0 2-1 1-4-3l-5-4c-1 0 0 2 3 4l4 5-3-1-6 1-2 2 2 1 6 1c1 0 2 0 1 1h2l2-2v4l1 7c2 4-2 6-8 4-5-3-5-3-1-5l4-2h-3c-4 3-5 2-1-1l2-3-3 3-5 3-14-8c-1-1-1-1-1 1l2 3 3 2-3-1c-2 0-2 0-1 2v7c-2 0-1 115 1 116h3l3 1h2l3 1 4 1 4 1 8 16c1 3 2 4 5 6l9 1a2 2 0 013-2c-1-1 1-3 2-4l3-2c0 2 2 1 2-1v-4c2-3 3 4 1 8a3 3 0 000 5c-2-2 5-12 8-12l3 1 2 1 4 1 9 3 1 1 1 1h1l13 4 2 1a124 124 0 0025 9h2c2 1 5 6 3 6l-1-1c0-1-1-2-4-2l-5-1c-1-1-2-2-3-1s-3 0-7-2a30 30 0 00-11-4 29 29 0 00-10-2l-4-1-3-2c-2-6-18-10-22-7-2 2-5 12-4 13l10 5 10 3-1 7-2 12-2 5-3 27c-1 14-2 15-4 12l-4-1-2 1v-11l2-24v-13l-2 5a30 30 0 01-7 14v3l-1 2-2 2v2l-4 2c-1 0-2 1-2 3h1l2-1c1 1-2 3-4 2h-2l-1-1c1-1 0-1 0 0l-1 1-1 1v-5h3v-5l1-1 3-6 3-6 1-1c1 1 1 0 0 0l1-2c2-1 2-1 1-3-1-1 2-9 4-10v-4c1-1 3-4 3-7 2-7 0-9-6-7l-4 2-1 2-3 2c-2 0-4 2-4 6a2 2 0 01-3 3c1 1-1 6-3 5v2l-1 4-2 4-4 2c-2 0-2 0-1 2 1 1 1 1 0 0l-1-2-2-3c-2 0-2-1-1-1 1 1 1 1 0 0l-2-2c-2 0-2 0-1 1s1 3-1 3l-1-1v-4l-1-1-1-1 1-2 1-2 1-3 1-3-1-2-1 2-1 1v2l-1 1h-1l-1 1 1-2 1-2v-4l3-2 3-2 1-1c-1-1-4-1-5 1l-1-1c0-2 1-2 2-2h3c1-1 1-1-1-1S4 231 5 229c1-1-3-3-5-3v134l7 1c14 2 32 10 44 18 8 5 9 5 13 4 10-3 16-1 35 10l19 10c8 3 9 4 5 5-3 1-5 0-10-2a7 7 0 00-5-2v-1l-4-2c-1-1-3-2-4-1-1 0-2 0-2-2-1-2-1-2-4-2-3 1-4 0-2-1 1-1 0-1-1-1h-4v-3h1l2 1 1 1 7 2 6 3c0-1-17-10-23-12s-11-2-6 0l1 1-2 1h-1c-1-1-3-1-6 1-6 1-7 1-12-3l-4-3c-1 0-9-5-8-6 2-1-27-12-39-14H0v38l1 38 8 2c13 3 23 7 32 12s9 5 12 4c9-5 18-4 37 6l21 9c10 3 10 3 2 2-7 0-19-5-22-8-6-6-21-11-26-9l-5 2-4 1c-3 3-5 3-10-1l-5-2-5-4c-4-4-21-9-29-10H0v42c0 39 0 42 2 42 6 0 21 5 28 9 6 4 7 4 13 0 10-7 17-7 34 1 12 6 23 9 32 11 8 1 8 3 0 2-6 0-23-4-24-5l-9-5c-15-7-30-5-35 4-1 3-4 4-5 2l-2-2-1-1-1-1-6-3c-5-4-14-7-21-8H0v42l1 42h6l7 2 13 6 7-4c12-8 19-8 37-2 14 5 24 7 31 7 5 0 6 0 6 2 0 4-15 5-22 2l-7-4c-20-8-26-10-31-6l-4 3-3 1-3 1c-3 0-5 4-5 8 0 3-1 4-2 2l-2-2-5-3c-6-5-10-7-21-9l-3-1v65h82l86-1 9-2c6 0 16-1 22-3h4l9-2 9-2 8-2 21-3c8 0 33-5 36-6l9-1 13-2c18-4 32-6 43-7 14-1 18-2 21-5 3-2 22-3 22-1 0 1 3 1 12-1l11-1 14-2 22-1 20-1 22-2h17v22l1-319V0h-85l3 4 14 20 60 82-4 4-89 46c-2 0-71-67-70-68l-1-1a100 100 0 01-22-21l-3-2-2-3v1l-2-1-2-3 2-2 15-11c2 0 12 9 12 11l-2 3-2 3 3-2c4-2 9 0 7 3-1 3 2 3 4 0l4-2 2-3c0-2-1-3-8-11l-9-9c0-1 32-23 52-35l5-3h-34l-27 22-28 21-3 1c-1 1-1 1-1-1 0-3-2-6-4-5v2c1 2 1 2-1 1h-1c2 5-5-1-25-20L249 0h-21l12 12c14 13 13 11 3 19a1027 1027 0 00-36 29l-19 15-6 5 3 3 3 2 43-33 24-19 4-3 4 4c16 14 27 26 23 25l-1 1c1 0-4 5-11 10a18641 18641 0 00-54 43l-6 5-11-8C155 75 87 27 61 10L47 0H0v28M99 5l-5 6c-3 3-2 4 1 5l4 3 9-9 9-10h-14l-4 5m79 7l-24 24-13 11c-2 0-1 3 3 5l3 2 10-9 49-45h-15l-13 12m98-8c-6 4-6 5-2 8l3 3 6-4c7-5 6-6 17 6l11 10 4-4 4-3-10-10-9-10h-10c-9 0-10 0-14 4m14 69c-53 41-65 51-63 53l15 11 52 36 38 27 26-14 35-19c5-2 9-5 9-6l-35-32a5113 5113 0 01-66-60l-3-3-8 7M65 78c-3 2-1 4 4 4l3-1v11c1 11 1 11 4 2l1-3 1 5c1 5 6 16 7 16l-2-6c-3-7-3-9 1-6l3 1-8-15a15 15 0 00-8-8c-2-2-4-3-6 0m216 29c-24 14-32 18-34 17-3-2-5 0-2 2l12 10 11 8 10-7 13-10 4-2-1-11c-1-15 0-15-13-7m227 11a1357 1357 0 00-70 34 279 279 0 00-30 16l-68 35-55 28c-7 3-1-1 19-12l21-11c1-2-6 2-34 17-20 10-24 13-25 11-1-1-1-1 1-1l7-3 27-15 23-13-35-24c-41-27-37-25-41-22s-4 3-4-3v-4l-13-10-15-9-27 20-27 21c-1 1-5-1 54 32l42 26c2 2-12-5-44-24l-37-20 39 22 38 23-52-27c-36-20-47-25-48-25l32 20 20 11 21 12c34 20 18 12-29-14l-42-22 44 24 43 25-38-20-57-30 96 52v-1l7 3c3 5-10 2-14-4l-124-67-40-20c-19-10-22-12-21-14l42 22c44 24 51 28 50 26l-64-35-28-14-3-7c-3-6-4-7-5-7-2 0-2 0 0 1 3 1 3 6 0 5-1-1-1-1 0 0 4 3 2 5-2 2l-3-1 4 3 4 3c0 1-1 1-4-1-3-1-5-2-6-1l-3-1c-3-2-3-2-3 3 0 4 0 4 1 1l1-3v3c0 4 0 4 8 8s10 5 9 1c-1-2-2-2-3-1-3 1-3 1-2-2l1-4 2 2c1 1 2 1 2-1v-3l2 3 1 7v5l40 20 69 36c24 13 28 15 30 14h2l1 1 6 4 1 1c4 1 2 2-4 2-5 1-7 1-7 3 0 1 2 1 6-1h5c3 1 5 0 6-1 1-2 7 0 7 2-1 2 1 5 4 5l1 1 2 6c1 0 2-4 1-5v-2c3 2 5 2 5 0h1c2 1 2 1 1 4v3c2-3 9-3 9 0 0 1 5 7 8 8l2 1-2-3-2-3c0-2 3-1 4 1l3 1c4 0 8 4 7 6 0 1-1 1-3-1s-3-2-4-1 0 2 4 4c6 3 6 4 1 4-3 0-3 0-1 1l6-1h3c2 2 3 3 1 3l-1 1c-1 1-1 1 0 0v1c-2 2-1 3 4 5 2 1 3 2 3 4s0 2-5 0c-7-3-7-2-2 4s6 8 2 10l-3 2c-2 2-2 1-4-3-3-6-4-4-4 5-1 7-3 10-4 5-1-3-5-3-6 0l-2 3-3 4c-4 5-5 5-5 0l-1-4h-1c0 4-4 10-8 10s-4-1-5-12l-1-7h-4a2 2 0 01-4-1h-2l-2-1-1-1h-2l-2-1-3-2-2-1h-2l-4-1-4-2-2-1-3-2c-3-1-3-1-2 1 0 3-2 2-6-3-3-4-6-6-5-3 1 1 0 1 0 0-1 0-2-1-1-2 0-2 0-2-1-1l-2 1v1l1 3v4c-1 3 1 6 5 7l4 4h-2l-4-2h-2c0 3-1 2-4 0l-3-2 3 3c3 3 2 3-7-1l-8-5-2-4-1 1c1 1-5 2-8 1-2-2-2-2-1-3l1-1 1-1-1-2c-4-3-6-3-5 1l-1 3c-2 0-2-1-2-2 1-1 0-2-1-3l-2-2h-1c-1 0-1 1 1 2l2 2h-3l-1-1-1-1c-1 1-1 0 0 0l-1-2v-2c0-1-2-5-4-5l1 2 2 5v4l-1-4c-2-5-4-6-4-2 0 3 0 3-2 3-2-1-2-1 0 0l1 2c-2 0-2 0-1 1 1 3-3 17-7 21l-2 6-4 7v4l-2 4v11h3c-1 2-1 2 2 2a5 5 0 014 2l1-1c2 0 2-1 2-3l1-2 2-1 4-6 5-10 3-5 2-3 1-2 1-1 6-8c1 0 2 5 1 8l-1 5-2 4c-2 1 0 2 9 7a85 85 0 0113 6l-3-3c-4-1-4-1-2-4v-2l1-1v-2l1-1 2-1 3-4 3-4c0-1 1-2 3-2l3-3c-1-2 4-4 5-2l3 1c2 0 2 0 2 2-1 3 0 3 2 4h3v10l-1 9 7 2a215 215 0 0032 11h3c0 1 6 5 11 5l5 2 6 2c2 0 2 1 2 5-1 4-1 4 2 4l2 1 5-9c7-16 20-36 32-52l54-61 12-12 38-19 112-54c7-3 7-3 7-7l-1-4-105 52-105 52 130-66 81-41-52 25a19065 19065 0 00-159 80l33-18 42-22 75-38 61-31-163 82-49 25a745 745 0 0155-30l17-9a598 598 0 0042-23 1356 1356 0 0076-39c20-11 25-14 18-11m-459 4a4 4 0 001 3c0-1 3 0 8 3l50 28c19 11 44 24 43 22l-68-38-28-15-6-3m-4 63v3c-1 1 0 1 1 1l3 3 3 2 1 1c-1 1 7 8 8 7l1 2h1c0-2 3 1 3 3s0 2 1 0c5-8-6-21-18-23-4-1-4-1-4 1M0 297c0 35 1 49 1 31a4447 4447 0 00-1-31m79-38l-1 3v4l-1 8-1 11-1 5 2-6 2-7h2v1l-2 22v22h3l4 1c1 3 2-3 3-23l1-21 1-2c0-2 4-9 6-9s2-4-1-5l-9-3c-6-2-7-3-8-1m135 46l-1 6c-2 2-1 9 1 10l9 4 12 4c3 2 3 2 1 0-2-1-2-2-1-6 4-12 3-12-14-14l-4 1c-2 0-2 0-2-4l-1-5v4m-86 5l1 4c1 3 1 5-1 30v9l12 4 13 5 1-10v-9l-5-2-6-3c-1-2 1-2 5-1 4 2 4 2 4 0 0-1 0-2 1-1l1 2v3l1-4v-5l-6-3c-5-2-6-4 0-2 3 1 3 1 3-2l-1-2-1-1c0-2 3-2 4 0l2 1c2-1-3-4-6-4h-2c2 0 1 3-1 3l-2-1 1-2a2 2 0 10-3 0v2c-1 1-2 0-3-1-1-2-2-2-2-1h-2l-2-1c-1 1-3-4-3-7 0-2-1-3-3-1m52 36c0 5 0 5 5 4 4-2 9 0 9 3h4c6 0 10 1 10 3l4 4 3 2v-10l-16-5c-19-6-18-6-19-1m53 2l-9 4-1 20 1 2 1 2c2 0 1 3-1 4s-3 0-1-1v-3c-1 1-2-1-3-2v-1l-1 3c-2 0-4-1-4-3l-1 1c-1 2-2 2-4 2v2l1 2v-1l1-1 3 1-1 1v1a1 1 0 11-1 3l-1 2 1 2 4 3c4 1 4 1 4-1 0-3 2-2 2 0l2 2 8 3 11 2h3l3 2c2 0 2 1 2 8 0 8 0 9-3 7v-3a2 2 0 011-4l-1-1v-1l-1-1-1 10c0 9 0 10 1 9l1-2v-4c-2-1-1-2 1-1a126 126 0 011 38c1 0 1 7-1 8v1l1 35c0 27 0 34 1 31 2-6 6-6 7 1 0 4 2 7 2 3 0-3 4-3 6 0 1 1 1 1 1-3v-5h4c3 0 3 0 3 4l2 6c2 3 2 2 2-5l1-5 1-5c0-2 0-4 1-3l1 4 1 4 1 9 2 10c2 2 4-1 4-6 0-3 0-5 1-4 0 2 3 1 3-1l2 1 1 6v2l3-2c2-2 2-3 2-8v-6l1-5c0-5 2-5 2-1 1 4 3 5 3 2 0-7 2-2 2 7 1 8 2 10 3 11 4 2 5 0 5-10l-1-8h3c3 0 3 0 2-2-1-3-1-3 1-2v-1l-2-2-1-4a4 4 0 00-4-6l1-1h1v-4h-1l-1 1v-3h1c2 0 2 0 2-3l1-3v-2c-1-2-2-3-3-2-2 0-2 0-1-2 1-1 2-2 3-1h3l-3-1c-2-1-3-4 0-3h1c0-1-3-2-4-1v-2c1-2 1-6-1-6v-1l-2-1-2-1v-2l1-4 2-2c-4 1-5 0-5-2 1-1 1-1 0 0h-2l2-2v-1l-2-1-1-2c-1-1-1-2-2-1v-2c1-1 1-2-1-2l-1-3h-1v-6l-2-2-1-3a2 2 0 00-2-3h-4l1-1c1 1 1 0 0 0-2-1-2-2-1-2v-2a14 14 0 01-2-5h-2l-2-3-1-3c1 0 1-1 0 0l-1-1-4-4-1-3a3 3 0 00-3-4l-2-1c-1 0-2 0-1-1 1 0-3-4-4-3l-2-1c0-1-1-1-2 1-1 1-2-14-1-31l-1-5h-1l-5-3a10 10 0 01-6-4v6c0 5 0 6-3 4-1-1-2-1-2 1-1 3 0 4 3 3v-1l-2-1 2-1 1 1c2 0 1 27 0 27v1l1 2-2 1-2-1c-1 0 0-5 2-6v-1l-2-1 2-1h1l-2-1-1-4c0-2 1-3 2-3v-4h-1l-1-1h2c2 0 1-2 0-3-3-2-4-1-3 7 0 6-2 11-3 8l-1-21v-21l-10 3m-54 28c0 3 9 9 9 6h1c2 2 9 4 10 3l1 1c1 2 8 2 10 0 1-3 0-3-1-3l-28-8-2 1m302 9l-2 4c-2 2-2 2-1 3l2 1-1 1h-2v1l2 2h4l11-3 3-1 3-1c3-1 3-5-1-5l-4-1-5-1-6-2c-2 0-2 0-3 2m5 17l-2 2h-3l-1 1h-1c-1 1-8 0-9-1-2-2-9-1-11 1l-5 3c-4 0-6 2-4 5 2 2 2 2 12 3 4 0 9 2 13 4 5 3 8 3 11 3 7 0 13-3 12-7v-1l1-2c0-3 7-6 11-5 2 1 2 1 2-3 0-5-1-6-11-3h-3c-3-2-9-2-12 0m-254 4l-9 3-1 5c-2 11-1 28 1 23s4-2 4 5l1 9c0 3-1 4-8 3-10-1-10-1-10 1 0 3 3 5 10 5l13 2h9l1-1 1 1a2 2 0 004-1v-3c0-2-1-2-3-2h-12l1-9 1-11a3 3 0 016 0v-3l1-30-10 3m-58 45c0 3 0 3 10 4l14 3c2 0 3 0 3-2h1c0 1 1 2 3 2 3 1 3 1 3-3l1-3-9-1-17-2-9-2v4m50 19c-3 0-4 1-2 4v4l1 2v7c1 2 2 6 1 8l2 5v4l1 1 1 2c0 6 1 8 2 9 1 2-1 2-10 3-11 0-13 1-6 2l4 1h-4c-6 0-5 2 1 2l6 1h-13l-1-9c0-9 0-9-1-5v10l2 23 2 19-2-31c0-2 1-2 7-2s9 0 6-1 1-2 10-3l11-1-1-1c-1 0-2 0-1-1l-6-1-7-1c-2-1 0-1 5-1h8c1-1 1-1-1-1-6 0-6 0-6-26l1-24h-4l-6 1m-38 37l-4 1c0 6 0 7-2 8-2 0-2 1-1 1 2 1 0 3-5 3l-5 1 7 1h7l4 4c3 3 3 3 4 2l5-6c4-4 5-6 4-12v-4h-5l-9 1m139 15v2c-2-2 0 14 3 16l2 4 2 1c3 0 2-6-1-13l-1-6-2-1h-1c1-1 0-3-1-4s-1-1-1 1m24 44c0 4 2 8 4 8l4 3c4 4 5 4 1 0-2-3-3-4 0-4 1-1 2-2 2-5 1-5 0-5-3-5l-6-1h-3l1 4" tabindex="-1" itemprop="light" style="fill: rgb(0, 248, 208); fill-opacity: 0.581; fill-rule: evenodd; color: rgb(131, 131, 131);"></path><path d="M0 19l1 18 4-6 12-18 8-13H0v19M27 1L16 19C-1 45 0 44 0 50l1 5 15-24L33 6c2-1 173 116 173 119l-49 40-5 4-25-14-74-41c-1 1 0 2 48 29 46 25 52 29 51 30l-20-11-50-28c-27-15-31-17-31-20-1-4-3-3-2 1v4l15 8a4183 4183 0 0182 45c7 5 22 12 23 12l-5-3c-5-3-9-7-6-6l28 16 29 16c7 3-3-3-27-17l-27-17 55-42 15 10c24 17 78 52 79 52h8c5 2-5-5-45-34-55-38-50-34-46-37l23-18c30-25 48-38 49-38l14 13 74 67 16 15c0 1-2 3-5 4l-21 12 37-18c1-2 58-31 78-41 17-9 19-10 19-12l-1-3-39-52C437 4 434 0 431 0c-2 0-2 0-1 2l4 5 37 51 36 49-8 4-47 25c-25 13-40 21-41 20l-51-49-51-48 4-4c9-8 17-13 17-10l1 1c2 0 10 8 10 10l2 1c2 0 3 1 3 3s0 2 2 1a4 4 0 014-1l1-2c1-1 1-2-1-2s-2-1-2-3a35 35 0 00-15-14l1-1c1 1 2-1 2-2l2-2c2 0 17-10 17-11h1l2-1 1-1 2-1 1-2c3 0 29-18 27-18-4 0-8 2-20 11l-3 2c0-1 3-4 8-7l7-5-10-1h-11l-30 24-31 25-27-24-25-25h-21l8 7c18 17 17 16 15 18l-12 10-56 46 2-1 2 2 1 2c2 0 22-16 66-51l5-3 30 28-60 49c-14 11-14 11-17 10l-45-32L60 9 46 0h-9L27 1m159 5a312 312 0 00-37 36l-4 3-3 3 3 2c3 2 4 3 4 0a34 34 0 0114-13l4-2 6-6 30-27 3-2h-14l-6 6m90-2l-5 4 3 3c3 4 3 4 9-1 7-5 5-5 17 6l11 10 3-3 4-3-10-10-9-10h-17l-6 4m163-3l15 21 54 74 3 3 1-57V0h-37c-28 0-37 0-36 1M30 86c0 2 1 7 3 10l3 7-18-9c-9-6-17-9-17-9 0 1 5 6 9 7 3 2 4 3 1 3l-1-1-1-1-2-1c-2 0-2 0-2 2l-1 1c-1-2-3-2-3-1l2 2v4a1 1 0 100 2v1l-1 1c-2-1-2 1-2 14s0 14 2 14l3 1H0v25l1 32v7l4-1 3 1 9 3 3 1 2 1 3 4a7 7 0 005 6v3c-1 1-1 2 1 3v3c-1 1-2 0-3-1-3-4-3-2-1 6 3 10 4 11 9 13 4 1 4 1 7-1 4-3 12-17 8-15v-1c0-2 0-2 3 1l3 2a19 19 0 01-2 9c2 0 4-6 5-9 0-6 7-9 12-5l3 1 6 2a232 232 0 0027 11l6 1c2-1 2 0 1 1-2 3 0 7 3 8 5 1 7-6 1-8-2-2-2-2 0-2l4 3 3 2 3 1c2 2 3 2 13 4 4 1 5 1 5 5l-1 2c-3-2-6-2-8 1-1 1-2 2-3 1-2-3-7-2-6 1l-1 2-2-1-2-1-6-1c-4-2-5-1-2 2 4 5 2 4-3-1-6-6-14-10-26-11-6 0-7-1-7-2 0-3-1-3-4-1l-3 3-2-2c-3-4-3-5-1-3 3 2 6 1 5-2-3-3-13-5-16-3s-6 12-5 13c2 2 5 2 5 1-1-1 0-2 1-1l1 1 6 5c5 1 7 3 7 4l-4 27-5 37-2 9c0-2-1-3-2-3h-2l-2-1c-2 1-2 0-1-20l1-24 1-10-5 13a543 543 0 01-16 41 29 29 0 01-3 9l-3 6-1 4-1 2h-1l-1 5v1l-1 3-1 1-2 1h-1l-1 1-1 2-2 1 13 6 24 14 5 3 5-2c5-1 10-1 16 1 2 0 2 2 4-30a144 144 0 014-23l1-2a119 119 0 017-22l1-5 1-3 1-3 2-3 2-3c2-2 3-5 2-5v-6c-2 0-1-2 1-2v-2l-2-4-1-3-2 2c-10 11-12 19-13 44-1 20-2 21-4 19s-4-2-4 1h-2l-1-26c1-28 1-28-4-11l-2 7 6-47 19 7c20 8 20 8 20 4 0-2 0-2 2 0l3 1-3-2c-2-3-3-6 0-5 1 0 6-2 5-3l2-1c3 0 3 2 0 3-5 2-5 6 0 8 7 4 11 3 9-1l-3-3-1-1-2-1c-3 0-3-2 1-3l4 1c2 1 5 2 8 1 7 0 7 1 1 3-3 1-4 1-3 3s0 5-1 5v2l1 3 3 2h3l-3-2-2-3 3 1a9 9 0 005 1l-1-2-3-1c-4 0-4 0-3-4 0-3 0-3 1-1 1 3 6 4 6 2l2-1 1-1c-3-2-4-4-2-4l2 2c1 2 1 2 3 1v-4c-2-2-4-3-4-1s-3 1-3-1 2-3 6 0l5 1c1-1-1-4-3-4-3 0-3-2 0-3l2-2h5l2 1 4 2 4 1h2l2 2 2 1 3 1 3 1c1 0 2 0 1 1l3 1 2 1 3 1h2l3 1c2 0 3 0 2 1l2 1h5c0-1 1-1 2 1 2 2 7 3 7 2 1-2 4 16 5 25 0 9 2 13 3 11l-1-11c-3-18 1-25 7-13l2 2 2 2c2 2 2 3-2 9-4 8-6 12-4 12l2-3c5-12 9-18 10-15l4-6c4-8 6-9 3-3-2 4-1 12 2 12 2 0 2 1 2 3l2 1 1-5 1-8 1-4 4 4c2 2 3 3 4 2l1-1 2-1c2-1 2-2-2-6s-4-4-2-1c2 6 1 7-3 2-2-4-3-6-2-8 0-2 1-2 8 1s7-1 0-5c-6-2-7-4-5-4l1-2c0-3 0-3-6-2h-8c-3-1-3-1-3 1l-1 1c-1 0-5-2-5-4-1-1-4 0-4 3h-4c-2-1-2-3-2-4v-3c-2-1-2-2 0-4a21 21 0 003-6l1 1h2l2 2 3 3c1-2-4-10-6-10l-4 4c-2 4-6 2-5-3 1-2 0-3-1-4-2-2-2-2-1 2 1 5-3 5-5 0l-3-4-2-2-1-1-1-1c1-1 0-4-2-4l-1 1c0 2-3 3-4 2-2-1-5 1-5 3h-1c-2-1-5-1-6 1-1 1-2 1-3-2-3-5-2-6 3-6 5 1 10 0 7-1l-2-2c0-1-5-4-7-3-1 0-11-4-32-16l-63-33c-46-24-43-22-43-24l-1-5c-2-2-2-2-2 1v4l-8-4c-8-5-8-5-7-2a11 11 0 01-2-3c0-1 0-2-1-1l-1-2h-2c-1 1-1 1-1-2 1-2 1-3-1-2l-3-3-2-2h-1l-1 1c0 2-2 3-4 2-3-1-4-4-1-3l1-1c0-1-2-3-4-3s-3-3-2-3v-3c-2-2-2-2 0-1v-2c-3-4-1-4 2 0 2 2 2 3 1 3v1l1 2v2l3-4c0-3 0-3 2-1 1 2 1 2-1 1-3-1 0 2 4 4a24 24 0 018 5l2 2h1c0-2 0-2 2-2 3 1 3 0 2-1l-3-1-3-1c0-2 3-1 9 3 5 3 7 3 3 0v-1l2-1-1-1c-1 1-4-2-4-5l1-3c2 0 3 1 6 5v-16l-1-2-1-3-1-3c-2 0-3-2-6-5-1-3-4-6-6-7l-3-2 1 4m247 24a440 440 0 01-30 17l11 9 10 7 9-6 13-9 4-2v-8l-1-12v-5l-16 9M51 128l25 14a12071 12071 0 0179 43l-21-13a7312 7312 0 01-77-42c-5-3-8-4-6-2m457 12l-113 55-40 20-13 13c-12 12-42 47-54 61-10 13-25 37-29 46-1 3 0 5 4 7 2 0 3 2 1 2-3 0-4 2-2 5l2 1 1-2 1 1v1l1 1v1l-1 5c-1 6-2 18 0 17h10c0-2 2-1 2 1l6 4c3 1 5 2 5 4 1 1 2 2 5 2l3 2 1 3 1 2h-1v3l2 3c2 1 2 2 2 3h1c2-3 5 0 5 4l1 3 1 5c3 23 4 30 7 38a77 77 0 0035 49l3 1c3 1 3 1 2 2-1 2 0 4 2 4a1 1 0 110 2l1 4 2 6 1 1v-2c-1-1-1-1 0 0a3 3 0 013 4l-1 2-1 1 3 1c3 1 3 1 1 1a248 248 0 01-30 3l2-2c0-2 0-2-3-2l-6 2 2 8c3 12 1 13-5 5-3-4-3-6-4-11 0-7 0-7-3-7h-3l1 6 1 7-4 6c-3 0-5-5-5-13 0-4 0-7-1-6 0 3-3 6-3 4l-2-1c-2 0-2 1-2 5 0 3 0 4 2 4 1-1 1 0 1 2l-2 3-4 1c-2 1-2 1-2-2s0-3-3-3h-4l1 6c0 8-1 11-2 9v-3l-1-2c-1-1-2 2-1 4l-1 2-1-1-1-2-1-3c-1-2 0-3 1-3v-9c-1-3-1-3-1-1l-1 2-2-2c0-2 0-2-1 1 0 3-2 5-2 3l-2-4c-2-1-2-2-2-4 1-3 0-3-3-3s-3 0-3 3 1 4 3 4c5 1 7 4 5 10l-2 6-1 4-1-13c0-5-2-7-5-6l-1-1-2-2c-3 0-3 0-3 6 0 5 0 6-1 2l-1-4-1-4c0-5 0-5-2-5-3 0-3 0-3 5l-1 7-1 3v-3c0-2 0-2-4-2-4 1-7-1-7-4l3-2c2 0 2 0 1-1v-2l2-1h-4l-10 1c-7 0-8 0-4 1l5 1h-10l2 3v3h-1c-1 1-7 0-8-1l-2 1h-2c0-2-2-2-2 0-1 2 3 58 4 59v1l-1 3v3h14l-8 1-5 1h10c7-1 8-1 10 1 3 2 1 3-10 3h-10v3c0 3 4 4 15 2a48 48 0 0122-1l-2 1-2 1c-1 1 0 1 1 1l-1 2c-4 2-8 1-8-1-1-2-4-3-4-1h-1l-3 1a4 4 0 01-6 2l-1-1-2 1c-2 2-4 3-6 2l-1 4c0 4 1 4 4 6h1c-3 0-4 0-4 4a6 6 0 001 6l1 7v10c0 4 4 6 7 4l2-1v1c-2 0-2 0-2 2 1 1 1 1-1 1l-4-2h-2l1 6c0 7-1 6 8 4l12-2 6-1h1l25-3 22-4 23-4 39-6c7 0 13-2 8-2-2 0-5-5-4-6l7 1a9 9 0 009 0l9 1h14l12-1c8 0 8 0 6-9l-1-4h4l22 2 19 2v3c1 4 1 4 15 2l23-2h14v-5a950 950 0 00-1-83 33 33 0 00-1-12c1 1 1-2 1-12s0-11 1-6v-16a1491 1491 0 010-81v3h-5l-9-2-6 1c-5 2-18 0-20-4-3-2-8-4-14-4-10-1-18-7-16-13l-3-5c-5-5-5-6 1-11 6-6 6-6 10-2 4 5 7 4 4 0l-2-3h2c2 1 2 1 1-1l-2-2-1-1c-1-2-1-2 1-1 1 2 5-2 4-5l7 1 12 3 8 3c11 4 13 5 17 5 3 0 5 1 7 3s3 3 3 1l1-251-4 2M38 165v7l-1 4 2-2 2-4-1 7c0 8 0 7-4 7a2 2 0 00-3 2 2 2 0 01-1 0l-2 1c-1-2-3-1-3 1h3c0 1 1 2 2 1 3-1 8 1 8 4 0 2 2 3 4 1 1-2 5 2 5 5 0 2 0 2 1 1 0-2 0-2 2 0 9 8 10 8 9 9v1l4 3 1 3 2-2v-3h-3c-2-3-3-5-1-4l1 2c0 1 1 1 3-1 6-6-7-23-18-25-6 0-6-1-5-2v-11c2 0 1-4-1-6-3-3-5-3-6 1m125 105c0 2-4 3-5 2l1-2c1-1 1-1-1-1l-5 1c-2 1-3 1-3 8 1 6 2 8 4 3l2-3c2 0 1 5 0 6-2 2-2 2 0 2l6 2 4 2-3-3c-3-2-3-3-1-4 3-1 4-1 4 1l-1 2v1c2 2 3 0 2-4v-4l-1-2c-2-1-2-2-1-5 0-4-1-6-2-2M22 301a4016 4016 0 00-8 15l-1 2-1 2c-1 0-3 3-3 8l-2 4c-6 5-9 26-4 27h4l1-1v-1l1-3a48 48 0 015-14v-7c-2 0-1-2 1-2l2-1 1-3 1-1v-4l2-4 1-2v-2l2-4 2-9c3-9 1-9-4 0m143 6c0 3 0 4 2 5l2 1a2 2 0 002 2h1c2 0 1 2-1 2l-1 2c1 2 0 2-3 1-2-2-2-2 0-2l2-1h-3c-2 0-3 0-2-1l-1-1-3 1-1 2c1 1 0 2-1 3v1c2-1 6 4 5 5l-1-1-4-2c-3-1-6 0-6 3l-2 1c-3-1-2 0 2 2 3 2 4 3 2 22 0 10 0 11-2 10-2 0-3 2-1 2v1c-2 1-8-2-8-3l3-1-2-2c-5-2-9-2-5 1l1 1c-1 1-11-3-12-4l1-1c3 1 2-1 0-2-2-2-2-2 0-18v-20l-2-3v3l-1 6-2 6-3 5h-1l-1-3v2c-1 0-6 8-6 10l-1 2-2 3-2 4-1 4-1 3c-1 0-2 2-1 3l-1 2a66 66 0 00-9 20l-2 2c-2 3-2 4 25 17 11 5 11 5 11 20 0 12 0 13-2 14-5 2-18-2-39-12-19-9-17-9-17 0 0 4-1 5-4 5a34 34 0 01-20-4l-13-6c-10-4-22-8-29-9l-4-1v30l11 2c13 4 24 8 31 12 6 4 7 5 10 3 8-4 20-2 37 6l21 9c10 3 13 5 13 8l1 3v2l2 1v3l-1 4v5c1 2 0 3-1 3v2c1 1 1 1 3-1 3-2 4-16 2-14v-2c3-4 2-15 0-15-1 0-1-1 1-2 2-2 2-6-1-8-2-1-4-5-2-5v-1a1 1 0 112-1l1 1c1 0 1-2-1-4v-1c2 1 2 0 2-2l1-1v-5h-1v3l-1 1-2-1a3 3 0 011-3v-2c-1-2-1-2 1-2s2 0 1-1v-12c2 2 5-7 3-10l1-2 1-4-1-2c-2 1-1-8 1-11 1-2 2-2 4-1s2 2 2 11c0 11 1 15 2 8v-4c-1-1 0-11 1-10l1-2h1l-2 53a33769 33769 0 00-9 159v11h8l-4 1-4 2c-1 0-3 58-2 59 1 2 30 1 34-1 2-2 4-2 7-1l20-3c2-1 2-2 1-22l1-21v-6l-1-21a65 65 0 000-18v-3c-2-3-4-4-4-2s-1 2-5 1c-10-1-11-2-3-2 9 0 12-1 12-5l-2-23c0-21 0-21 2-21s3 1 4 13l1 14c2 7 2 17 1 17-3 1-2 23 1 23v1c-3 0-2 2 0 2l2 2-2 1c-2 0-2 1-2 4l1 3c3-1 4 0 4 3s-1 4-2 4c-3 0-4 3-2 6h4c1 1 1 1-1 2-2 0-3 2-1 2v3l1 6 2 6c0 2 0 1-1-1a13 13 0 00-3-4c1 1 0 1-1 1v1l2 6 1 2 1 2v1l1-2c1-1 1 0 1 2l-1 3v1l-1 1-3-5c-2-10-2-10-1 6 0 18 0 16 4 15 5 0 7-2 6-7a2307 2307 0 01-3-52l-2-14a667 667 0 00-2-33l-1-26a265 265 0 00-1-34c-1-5-1-7-4-11-5-7-7-12-5-14 3-3 11 16 13 29v6h4l6-1c3 0 3 0 2-4v-43l21-4 1 18 1 13 1-5v-1c-1-2 0-8 1-9l1-8c0-7 0-9 2-10 1-1 1-1-3-1l-6-1a1311 1311 0 00-26-3l-22-3c-18-3-18-3-18-7 1-3 1-3 13-1h3v-5l1-5v10h4l6 1 17 3c2 0 3-8 4-29l1-15 9-3c13-4 12-4 12 4 0 6 2 10 2 4l1-5c2-9 1-10-4-12a845 845 0 01-30-7v-2h-1c-1 1-5 1-22-4l-11-3v-3c0-2 1-3 2-3l4 1c2 0 2 0 1-1-2-2-2-2-1-3 1 0 2-3 0-3l-2 2-2 1v-6l1-1 1-2v-3a5 5 0 000-7c0-2 0-2-1 0-1 1-1-1-1-5l1-7 17 5 17 6v7l-1 10h-1l-2-4c-2-2-2-2-3 0-1 1-1 1-2-1s-1-2-1 0l2 3c1 1 1 1-2 4s-5 7-3 6l2 1v1l-2 1c2 2 7-2 6-6 0-3 2-4 4-1l1-1h4l1 2c-1 0-1 1 0 0l1-2 1-1c2 1 2-1 3-10l1-9 10-4 10-4v10l2-7 2-7-7-3-46-16-12-5-1-5c-1-5-1-5-1-2 0 4 0 4-2 4-1-1-1-1 0 0 3 2 2 5 0 5l-2-1h-1l-1-1c1-1 0-2-1-1v-10l-3-1c-6-3-6-2-6 3m252-3l-2 7c-5 12-6 22-3 29 1 4 1 4-1 9-2 4-2 8-2 12 0 3 3 2 4 0l2-3c1 0 2 6 1 8l-1 2 1-1 1-1-1 2c-1 2 2 11 6 15 3 3 8 4 9 2s0-4-1-4l-3-2h-2c-2 1-3-7-2-10l-1-6-3-9-3-6c-2-3-2-3 0-9l2-10 4-10 4-7-3-2c-1-1-2-2-2-5a2 2 0 10-4-1m-202 7c-6 3-3 10 5 13 10 3 14 4 15 0l1-4c3-6 2-7-8-7-6 0-9 0-9-2h-4m-97 28c-2 2-3 8-2 8l-1 2-2 5a64 64 0 01-5 15l-1 7-2 6a13 13 0 005-9l1-1v-1l2-5 3-9c3-11 4-22 2-18m78 16l-2 4c0 3-1 4-1 1 0-2 0-3-2-2-4 1-4 5 0 5 3 0 2 2 0 5a2 2 0 100 3h2l1 1-1 1c-1-1-1 0 0 0l-2 3c-2 1-2 1 1 2 2 1 3 1 3-1h2l1 2h1v-7l-3-2c-3-2-2-4 3-4l3-1h-2c-2 0-2-1-2-4l-1-4c-2 0 0-2 3-2l3-1h-3l-4 1m236 132l-4 5-2 7c-5 9-3 16 2 10l2-3c-1-1 3-12 6-14 2-3 3-7 1-8l-5 3m-368 2v3l-3 17c-5 24-5 22 0 22 3 0 10 3 16 6 17 7 19 8 29 10 5 0 10 2 11 3 2 1 3 1 3-1l1-4 1-2-2 2-3 2 1-2 1-4 1-2c2 0 2-1 1-6 0-5 0-6 2-7l1-2 2-2c2-1 3-6 2-8h-2c0 2-4 3-4 2l1-1c2 0 3-3 2-4-2 0-2-3 0-2l1-1c-1-3-5-5-12-7-5 0-12-2-16-4l-14-5c2 2 21 9 29 11 11 2 11 2 1 2-11-1-39-11-45-16h-5M1 508l1 18 7 2 8 1 13 7 6 3c2 0 9-5 10-7l5-28-2-1-8-2-6-2-3 14-4 15h-5l-1-1-1 1c-4 5-3-4 1-21l3-12-7-2-16-4-1 19m193-8c-1 2 0 5 2 5 1 1-1 1-4 1-12 0-13 1-14 5l-1 5v2l-4 2c-7 0-4 2 3 2 8 0 9 1 12 7 2 3 4 3 4 0l4-7c4-4 4-5 4-11 0-7-5-16-6-11M1 534c-2 6-1 7 2 6l5 1c2 2 4 2 4 0 0-1 4-3 8-3 7 0-5-5-14-5-4-1-5 0-5 1m134 1l-1 5v16c-1 2-2 29-1 31s2-7 3-25l1-22c0-7-1-10-2-5m-85 4c-3 3-3 4 2 4 5-1 10-1 21 1l11 2c1 0-2-3-7-5l-24-5-3 3m176 0c-4 1-5 6-1 7v4l2 5 1 5 1 13c1 10 2 7 2-5l2-21v-9h-2l-5 1m122 27c1 5 5 10 8 10l1 1c0 3 5 5 7 4v-2h1l2-4 3-8c3-4 1-5-11-5h-12l1 4m-294 4l-4 6c-2 6-4 7-14 6l-10-2-24-5-1 19v20l4 1c5 1 35 0 40-2 7-2 13-1 27 4 13 4 14 4 25 4s11 1 12 3l3 6c2 3 2 5 2 16 0 13 0 14-4 12l-5-2-35-7-13-2 2 2c1 0 2 0 1 1l-5-1c-4-1-5-1-7 2-3 3-6 10-6 13s-4 3-16 1l-25-2-1 10v9h53c49 1 63 1 63-2l1-2c2 0 2 0 0-2v-3c1 1 2 0 1-1l1-3c2-2 2-3 0-7v-3l1-7 2-9-1-4-2-1 2-1h1l-1-3-1-2v-2c2-2 2-2 1-3-2-2-2-4 0-6v-1c-1 1-1 0-1-3a5 5 0 000-5l-2-1v-1c2-1 3-5 1-7v-4c1-5 2-23 1-24l-1 2v6l-3-2c-4-2-5-2-5 0l-2 1-3-1v-1c0-2-1-2-4-2l-8-1-15-5c-10-2 0 2 21 8h-1c-7 0-17-3-30-8s-12-5-15-2m272 9c0 9 0 10 2 11 3 1 5-2 4-8 0-4 0-4 1-2l2 1 2-1c2 1 2 0 2-1l-2-5v-4h-11v9m102 14l-37 2c-1 2 67-1 72-3l2-1-37 2m-59 32l1 1c2 0 3 4 1 8l-1 3h3c2 1 2 2 1 2l-2 2c0 1 1 2 2 1v-1c-1-1 0-1 3-1 4 0 6 0 6-3 0-2-1-3-2-1l-3 1-1-1c1-1 0-1-1-2-2-1-3-2-3-4 1-2 2-3 2-1s5 4 8 5l2-1c-1-2 1-2 4 0 2 0 2 0 2-3v-3l-8-2h-14" tabindex="-1" itemprop="regular" style="fill: rgb(75, 199, 216); fill-opacity: 0.99; fill-rule: evenodd; color: rgb(167, 66, 53);"></path><path d="M1 15v15l4-6L18 3l2-3H1v15M233 3l11 10 9 9c0 3 6 7 8 7a141 141 0 0126 26l3 4-13 10-37 30-25 19-15-9C120 51 61 10 71 18l2 3v1c2-1 6 2 4 3-1 1-1 1 1 2l1 2-2-1h-3c-1 1-2 2-3 1l-1 1 2 1 2 2 2 1h1c1 1 2 2 3 1l1 1c-1 1 3 4 4 3l1 1a433 433 0 0041 28l1 1 4 3 4 2a2 2 0 013 0c-2 1 3 3 5 2 1-1 1-1 0 0-2 2 0 4 3 3l2 2 3 2 3 1h2l1 1c-1 2 0 2 1 2h6l1-1v2l1 1c2-1 2-1 2 1l-1 2h-2l2 1v1c-1 1-1 1 3 2l3 2c-1 2 4 1 5 0h2v1c2 2 5 3 4 1v-1l2 2 2 1v1c-1 1 0 1 2 1l4 4a5 5 0 006 3l1 2 2 2a3 3 0 011 4l-1-1c-2 0-2 4 1 5 2 1 2 1 3-1h4l1 2-1-1c-1-2-3-1-3 0 1 1 0 2-2 3-3 1-3 1-2 2h3c1-2 7-3 6-2l1 1 1 2 1 2 5 3 5 3 1 1 2 1 4 1c1 1 2 2 4 1l3 1 1 1h3c1-1 2-1 3 1l3 1-13-10-14-10c1-1 7-7 16-13a703 703 0 0039-32l4-4 14-10c4-2 13 5 20 14 4 6 9 11 27 25 3 3 4 4 4 2 0-1 7 0 9 2 1 1 1 1 0 0 0-3 1-2 6 2l7 8 6 5-33-33c-19-17-33-32-33-33s10-10 19-16a671 671 0 0043-35l5-3c5-3 4-4-7-4h-8l-31 25-31 25-13-12-26-25-13-13h-18l3 3m208-1a793 793 0 0010 13 5298 5298 0 0060 82V0h-36c-33 0-35 0-34 2M13 94l-4 6-3 2-2 1-2 1a34 34 0 002 22l-1-1-1-1-1 4c0 3 0 4 4 5 3 1 3 1 2-2-1-2 1 0 3 2a16 16 0 015 9l2 3c3 3 5 2 5 0l1-4-1-6c-2-5-3-7-3-5l-1 1v5c0 5 0 5-1 4-2-2-2-4-1-4 2 0 1-2-1-2-2-1-2-2-2-4 0-4-2-7-5-7l-1-1v-3h1c3 1 2-2-1-3s-4-3-2-3v-2c-1-1-1-1 0 0l2 1 2 2c2 1 2 1 0-2l-2-3 1-2c-1-2 2-9 6-12l2-2c0-2-2-1-3 1m275 11l-3 3-3 3c-3 2-4 5-2 4h1l-3 3-6 2-3 2 2-2 3-3c0-1-7 1-9 3l-3 1-4 5 3 2c4 1 3 3-2 4-2 1-3 2 0 4h3l6-1c3-1 3-1 2 1l-3 2-3 1h3l2 1v2l12-9 6-4c7-4 7-4 7-16-1-8-2-9-6-8M2 136c-2 0-1 8 1 7v1c-2 2-2 4-2 23v21l4-5c4-4 5-5 6-4a2 2 0 003 1v1c1 1 1 2-1 7l-1 6c1 0 7-8 7-10h1c1 1 3-1 6-6a46 46 0 018-11v-1l-1-1-1 1h-2l-1-4c1-1 0-1-1-1-2 0-2 0-1 1v1c-2 0-2 0-2-2l1-2 1 1c1 0 2 0 1-2 0-2-3-4-4-3l-1-1-11-11-1 1 1 1c2 0 3 4 2 6h-3l2-1v-1a25 25 0 01-4-4H8c-3-2-2-3 2-3h4l-3-3-5-2-2-1H2m502 6l-22 11a111 111 0 00-17 9c-3 0-11 4-10 5s1 1 2-1h2l1 1v-1l1-2c1-1 2 0 1 2l-2 2a1 1 0 102 2h1l-2 3c-1 1-1 3 1 3v-2c0-1 1-1 2 1l2 3c-1 1-1 1 1 1l2-1v-2c1-1 1-1 2 1l3 2c3 0 3 0 1-2h5l-1 1v2h2v3c-2 2-2 2-3 0l-1-1v2l2 2a1 1 0 102 0l1-1 1-1 2-1c2 0 3 2 1 2v1l2 1 1 1-4 1c-2-1-3 1 0 2v4-1h-4c-2 0-2 0-2 2 0 4 1 4 2 1 1-2 1-2 1 2 0 3 0 3 1 1v-4h2l1 3v1l1 2-2 1-2 1v1l-1-1-1-1-1 1v2c-1 1-1 1 1 1h2c1 1 0 1-3 1v3l2 2 1 1a7 7 0 01-8-1v3a2 2 0 003 1h1c2 0 1 2 0 2l-2 2h1v1c-1 2 0 5 2 5v-1l2 1 1 3c-1 3-1 5 1 3l1-1h5l-1 1-2 2-2 2c-1 1-1 1 0 0 1-2 0-3-3-3l-3 1v1c3 2 4 5 3 6v-1l-1-1v5l1-1h1c0 2-5 4-7 2l-1 1 1 1c2 0 4 3 2 3l-1-1h-1a2 2 0 01-2-1l1-4v-3l-2 2c-1 2-2 3-1 4s-2 3-4 2l-1 2-1 3c-1 1-1 1 0 0l2-2c0-2 0-2 2-1h1c-1-1-1-1 1-1 1 0 4 5 2 5l-1-2-1-1-1 2-1 1c-1 1 0 1 1 1 2 0 2 0 0 3-2 1-3 3-2 3v3l2-1h1v2l2 1c1-1 1-1 0 0l-3 2c-2 0-2 0 0-2v-1l-4 1c-3 1-3 1-1-1v-6l1-3v-1l-2 1c-2-1-3 2-1 4a1 1 0 11-1 1l-1-1 1 3c2 1 0 3-2 2l-1 1 2 1c2-2 2 1 1 3h-2l-1-1-3-1h-1c1 1 0 2-1 3-1 0-1 2 1 2v-1c-1-2 3-2 4 0 2 1 2 1 3-1a9 9 0 015-3v3l-1-1-1-1-1 2-2 2 1 2v2l-2 1 1 1h3l-1 1h-1c-2 3-4 1-3-3l-1-5h-2l-1 2-1 2 1 4 1-1c1-1 1-1 1 1 0 1-1 2-2 1l-1 2c1 2 0 3-1 2l-1 2-2 2c-1-1-1 0-1 1h-1l-2-2h-1c2 2 2 2-3 2l-6-2h-6v2l1 1c-1-1-2 0-3 1l-2 1v1c0 2 0 2-2 2a2 2 0 101 3h6l-1-2-1-1h3c0-1 1-1 2 1l3 2v1c-2 1-2 0-3-1 0-2 0-2-2 0s1 5 4 4l3-1-1 1-1 2-2 1c-1 0-2 0-1 2l-1 1c-2 0-4 4-4 7 1 2 0 3-4 4-7 1-8 6-8 21 1 11 0 10 12 33 3 5 7 7 7 3l2-4 2-2c0-9 0-10 3-11l4 1c0 1 2 2 5 2l9 5c8 5 8 5 8 0l-1-7c0-3 4-11 4-9 1 1 6-7 11-16a46 46 0 016-11l2-4c3-3 4-2 5 5 1 9 4 15 10 20l3 2v-45l-1-46h-3c0-1-2 0-3 2l-3 3c-1 0 1-5 4-8 6-6 6-2 6-62l-1-55-6 3M30 191l-3 4c2-1 3 7 2 13l2 3c3 2 3 2 1 3-3 1-3 3 0 5 2 1 2 3 3 9v7l2-2a12 12 0 003-8l1-4 2-2c4-3 3 2-3 14l-2 7c2 1 6-3 7-6l2-6 3-6 3-4c0-1 1-1 0 0l4 6a1 1 0 000-3l-1-1c-1 0-1-1 0 0v-5h-1c-1 1-1 1-1-1 1-2-2-4-6-4h-4l-2-1v1c2 0 0 2-3 2l-2-1c0-2 3-4 6-4 2 1 3 0 3-1h-2l1-2c2-1 3-5 0-5l-2-1-2-2-1-1c0-4-5-6-10-4m37 6a8 8 0 006 6l4 2 5 2 5 3 5 1 9 3 1 1 1 1 2 1 3 1h2l1 1a2 2 0 013 2h3l5 2h7l-2-1-3-2-1-2-4-2a7 7 0 00-5-2c1 0-1-2-5-3l-5-3c0-1-4-3-5-2l-1-1h-1l-3-1c-2-2-2-2-5-2l-1-1c1-2 0-3-2-2h-3c0-1-1-2-2-1l-1-1h-1l-1-1-2-1-1-1c1-1 0-1 0 0l-3-1c0-2 0-2-1-1h-2c-4-2-5-1-2 5m-9 38c-2 1-4 9-4 10l3 2c2 1 2 1 1-1h3c2 1 2 1 0 2v1l3 1 3-2 1-3v6c0 1 1 1 1-1l1-2v2c0 2 1 3 3 3 2 1 2 1 2 4l-4 22-4 21-2 18c-1 15-3 34-5 40 0 3 0 3-2 1-1-1-3-2-5-1-2 0-2 0-2-5 2-10 5-49 5-63l1-15-4 11a5233 5233 0 00-25 79l6 3 10 5 4 1 2-2c2 0 2 1 1 2-1 3-1 3 1 3h1v1h1l2-1c2 0 3 2 1 2v2c2 3 3 2 4-4l1-6-1 6v6c5 0 8-3 9-8 2-8 2-7 2 0-1 9 1 6 2-3l5-89c-2 2-7 27-11 52l-5 27 5-40 8-51 1-14c-1-2 2-1 20 6 19 8 20 8 20 2 0-4-1-6-2-5l-1-1-4-4-5-5-4-2c-4 0-5-1-5-2 1-1-4-2-14-2l-10-1-3 1c-3 1-3 1-6-3l-3-5 3 2c0 1 4 4 6 4s1-2-2-6c-3-3-7-4-9-1m80 17c-2 2-3 11-1 9 2-1 3-2 7-1l4-1 4 1h6l-2-2c-2 0-3-2-3-3l-3-2 1 2v2c-1 0-2-1-2-3l-2-2-2-1c-2-1-5-1-7 1m107 13c-3 5-3 13 0 11l-1 2-2 4-2 4c-2 4-2 4 0 4s3-2 5-6c3-5 6-9 4-4s-1 11 2 14c4 4 4 4 4 0 0-7 3-17 4-15l2 3c3 4 5 5 7 3 1-1 1-1-1-1-3 1-10-8-9-11l-2-1-2-2h-3c0 3-1 2-3-1v-2l1 1 1 1 1-3c-1-4-3-5-6-1m58 32c-3 3-3 4 1 3l1 1 1 1h4c1-1 2 2 2 4l2 1c1-1 3 0 4 1a2 2 0 004 1v1l-1 2-1 1-1-1-1-1-2-1 1-1c1-1 0-1-1-1s-2 0-1 1l-1 1-1-1-1-1-2-1c0-2 0-3-1-2 0 2-1 2-5-1l-5-2-2 2a3 3 0 00-2 4c0-1-3 2-5 6l-4 7-2 2v1l1 2c0 1 0 2 2 1h3v-1h1l2 2h3l2 2c2 3 2 3 3 1l2-2h-3c-1-1-2-2-1-3l1-2v-1h3v3h1l1 2c0 3 5 5 7 2 1-1 1-1 1 1v1l1 1 2 2c2 0 3 0 2-2l2-1 2 1-1 1 1 2c1 1 1 1 2-2 0-2 0-2 2-1h2l3-2-2 2-3 2c-2-1-2 0 1 2h5v1l1-1h1c1 2-5 2-8 0l-1 1 3 1 1 1 1 1c1 0 2 1 1 2h2c1-1 2-1 2 1l2 4c2 2 4 7 3 9h3c3 0 3 0 2 2v3l1-2v2c0 4 2 6 6 6 2 0 2 0 1 1l-2 1-1 1c0 2 2 3 2 0l1 1c2 2 2 2 2 0h1l-2 3-2 2c1 1 0 1 0 0v-2c1-1 1-1-1-1-3-1-4 0-2 1v2l-2-1h-1l-1-1h-1c-1 1-2 2-7 2a9 9 0 00-7 2c-2 0-10 9-12 13-14 30 1 87 27 102 20 12 38-6 39-40 0-1 1-2 2-1v-1l-2-3v-11l1 1v3c1 2 3 3 3 1l-1-1c-1 1-1 0 0 0a2 2 0 012 0l1 1v1c-2 1-2 4 0 6s3 3 2 5l1 3 5-5 2-4c2-3 6-1 4 3-2 3-1 5 2 5a3 3 0 004-2h2l2 1c3 0 4-7 1-8l-2-1h-1l-1-1v-3c1-2-1-6-4-7l-1-3 1-1v-7c0-10 0-14 3-11l1 5c0 5 3 10 7 12l3 2-1-5-1-7c0-2 1-1 2 2s3 3 4-1c2-3 2-3-2-5a15 15 0 00-10-2c0-1 2-4 4-4l1-2c0-2 3-2 5-1 1 1 1 1 1-1-1-2 2-6 4-6l3-2c3-3 2-6-1-5h-3l-1-1a19 19 0 01-12-15c0-4-3-8-6-7l-1-1v-5c-1-3 0-6 1-11 3-7 3-9 2-16s1-23 4-28c2-3 1-6-1-6-1 1-1 1 0 0h-1a2 2 0 00-1 3c-1-1-3 0-5 1h-3l2-1 1-1 1-2c2 0 0-1-2-2-1 0-2 0-1 2l-9 1v1l-1 1-1 2h-1v-1l-1-1-1-2c1-1 1-1 0 0-2 2-2 5-1 5h-2l-4 1h-1c-1 0-1-1 1-2 1-1 1-1-1-1s-3 1-3 2l-1 1c-1 1-1 1 0 0l-2-1-1 2h-5l-3 1-1 1c-1 1-2 0-3-1-2-2-2-2-3-1s-1 1-1-1a4 4 0 00-3-6 2 2 0 10-1 3h1l1 1h1l-1 3-1-1c1-1-3-2-5 0h-2c1-2-3 1-5 3h-1l2-2v-4h-1c-2 1-2 1-1-1l1-2a9 9 0 00-3 6h1l-1 1h-2l-1-6v2l-1 1-1-3c0-2 0-2-2-3s-2-1-1 1c2 1 2 1 1 2h-1v-1l-1 2-1 2v-3c0-1 0-2-1-1 0 2-1 1-3-1-1-2-1-2 1-1h3l-3-1-1-3-1-1-1 1h-1l-1-1v1l-1 1-2-1a1 1 0 10-1 2l-1-1c-2-1-3-3-2-3l1 1h1l-2-2-2-1-1-1-2 2h-1l-1-2c1-2-4 0-6 3m-122 23c0 4 0 5 1 4v-3l2 2c2 2 2 2 3 1s1-1 1 1 0 2-2 2h-1l1 2 1 1h3l2 1h1c0-3 4-4 5-3h2l1 1 1 1 3 1-3 1-4 1c1 2 6 4 7 3l1 1 2 1c1-1 4 0 6 1 5 2 8 2 7 1l1-1h1v2l1 2c1-2 5-4 6-4l1-1 2-1a5 5 0 01-1 5l-7 1-4 1-1-1-1 2-1-1a5 5 0 00-5-3v1c0 2 0 2-1 0s-6-4-6-2h-3c-1-1 0-1 0 0l2-1v-1l-4-1-2-1-2-1h-2l-3-1-2-1h-1l-1-1-1-1c-2 0-2 2-1 2l-2 1c-2 0-3-1-3-2l2-1c1 1 1 1 1-1l-1-1-1-1h-1l-1 7v6l18 5 17 5v9c0 8 0 8 3 8l3 1h-3c-2 0-3 1-3 2h5c1 0 2-2 2-10 1-10 2-12 7-12l4-2 5-1 1-4 1 1 2 1 2 1c1 1 1 1 2-1v-5l-3-1-1 1v1l-1-1c0-2-6-4-8-3-3 1-9-1-8-2 1-2-10-6-14-6l-3-1-2-2h-4c1 1 0 1 0 0l-2-1-2-1h-2c0-1-7-4-9-3l-1-1v-1l-1 1-1 1v-1l-1-2-1-2c-1-1-1 1-1 5m-54 1l-8 33-4 13-2 7 6 1c14 2 26 1 28-3 2-5 2-5-9-10l-11-3v-6l1-15 1-15-1-5-1 3m366 18v2c-1 0-2 2-1 3l-1 2h-1v3c-1 3 1 5 3 3l2 1c1 2 7 0 7-2 1-3-1-8-2-8l-1-1-2-3h-4m-315 11v11l-2 4-1 3c0 7-2 12-4 12v4l-1 4-1 2-3 4-2 3h1v2l1 1-2-1h-2c1 1-2 3-3 3l-1 2-2 6c-2 1-3 3-2 3s1 2-1 2c-1 1-1 1 0 0h-1l-2 2v2c-2 2-3 10-7 90-5 102-6 107-5 109 1 1 3 2 8 2 10-1 9 0-1 1l-7 2-1 11-1 29-1 19h15l17-1c1-2 1-2-1-2l-2-1-3-1c-4-1-4-5-1-5l2 1 2 1h4l7 2 6 2c1 1 7 1 13-1h2v-43a6688 6688 0 00-1-46c0-1-2-2-10-3-19-2-22-3-5-3a27 27 0 0114 2v-3l1-7-1-28-1-21-1 5c0 11 0 11-2 4-4-11-6-12-14-12l-8-1 3-1c3 0 5-3 5-9 0-4 1-4 5-4 4-1 4-1 3-3-1-4 1-5 7-5s6 0 3-6c-4-6-4-7 0-8 3-2 3-2 5 1 4 6 8 19 9 26v7l5-1h5v-17l1-24c0-6 0-7 2-7l20-3 1 8c0 5 0 7 1 6l2-9c1-7 1-8-4-7l-29-4-12-2a36 36 0 01-11-2l-12-2c-2 0-1 1 4 6a18 18 0 009 7c-2 0-2 0 0 4v2l-1-1-8-7-8-7v-6a9 9 0 012-8l1-4h1c-1 1 0 2 1 3l1 2 1 1 1-3-1-3v-1c1-2 2-1 2 3 1 4 1 4 1-2 0-5 0-7-1-6h-1c-1-2 0-2 1-2 2 0 2 1 2 3l1 4 2 2 1 2 1-6v-6h-3l-4-1h4l4 1v8c0 9 1 12 2 4 0-6 1-6 7-6l6-1c1-2 1 0 1 3l-1 8c-1 3-1 3 1 3 1 0 2-1 2-3 1-2 1-2 1 1 0 2 0 3 2 3l3 1 3-1c2-2 4-25 4-37 0-7 0-7 7-9l3-1h1l3-1 3-1h3c2-1 2-1 2 3v4l2-4 2-6c0-1-5-3-6-1h-4c-6-1-10-3-9-4l-2-1-5-1h-2l-2-1h-2l-2-1-3-2-22-5-10-2v-8c2-15 2-32 2-32l-2 8m-1 53c1 3 2 4 7 4l2 1 1 1h4l18 3c2 0 2 3 2 13l1 7v-24l-33-8c-2 0-2 0-2 3M10 423c-5 18-5 16 9 20l14 5c2 1 2 1 2-1 1-2 1-2 1 0l2 3c4 2 6 3 7 5 3 3 7 2 8-1l1-9 2-10v-6c-2-2-2 0-4 14l-3 12 4-26-1-2-3 3-1 2v6c-1 3-1 4-3 3v-3l-1-2v-2l-2-2c-2 0-2 0 0-4a3 3 0 00-1-4v1l-1 1v4l-1 5c-1 3-2 5-2 3l1-9 2-7-11-4c-17-7-15-8-19 5m440-5a1 1 0 01-2 1h-1c-2 0-2 2 0 3 1 1 1 1-1 1-3 0-3 2 2 6 3 3 3 3 1 3-2-1-2-1-1 1v2l-1 2 4 1h3l1 2v5l2 7 1 5h-4c-5 0-6 1-1 5 3 2 4 4 3 4v3c0 3 1 4 2 3 1 0 3 4 5 12 2 12 2 12-3 12-6 1-6 3 0 7 3 1 3 1 2 4 0 2 0 3 2 5 2 1 3 4 4 10l3 8c2 0 2-1 1-8v-8h4l29-2h6v-13c0-7 0-12-1-11 0 2-1 2-2 2-1-1-2 0-2 1l-1 1c-1-1-2 0-3 1-2 1-9-1-13-4-1-2-3-2-11-1h-10l-1-5c-1-9 0-10 4-11l19-2 3-1 8-1h8c2 0 2-2 2-20v-21h-4l-7-1c-5-1-8 1-6 4v2l-2 2c0 3-2 2-2-2-1-2-1-3-2-2l-1 1v2a3 3 0 004 5l2 2c1 3 1 3-1 2l-2-2-1-1c-2 0-1 3 1 4l1 1 3 3 4 1-5-1c-4 0-4 0-3 1 2 1 2 2 2 3a5 5 0 01-7-4v2c0 2 0 2-1 1h-2c-1 1-8-5-8-6h1l4 2c5 1 5-1 0-4-5-4-5-5 0-2l4 2 1-4v-5a4 4 0 01-2-4c0 1-5-1-9-4-3-3-9-4-9-1a2 2 0 11-3-2h1l1 1c2 0-2-4-4-5h-9m-379 1l1 2c2 2-1 9-4 9l-2 1h-1c-1-2-1-1-4 13l-1 10 1-2h1c0 1 9 2 10 1a161 161 0 004-33v-1c-2 0-3 2-1 4v1l-2-3c-1-3-2-4-2-2m37 16l-1 4-1 4c-1 2-1 3-2 2l-1 5c0 5 0 5-2 5s-3 1 0 3c1 2 1 2-2 1-2 0-2 0-1 1l2 1 1 1c1 1 0 2-2 1-1 0-2 0-1 1v1l2 1h2c-1 2 15 7 16 6l2-14c1-22 1-20-3-21-7-3-9-3-9-2m298 36c-2 3 1 19 4 22s3 3 2 5c-1 3-1 6 1 7l3 15a6 6 0 01-1 7l-1 1c-2-1-3 0-2 1l-1 2c-1 2-1 2 1 1 1 0 2-1 1-2l1-1 1 4 1 1 2 1c0 1-1 2-2 1l-1 2 2 1c0-1 1-1 0 0l1 1c1 0 2 1 2 3s-1 3-3 2l-2 1 4 1 13 10c4 4 4 4 4 2s0-3-2-3a10 10 0 01-4-11v-2l-1-1c-2 0-1-7 1-8h2l1 1-1-3v-4l-1-3v-2l1-1c0-2 0-2 2-1l-1-2-5-4c-6-1-7-2-7-6l-1-4-1-4c0-1 0-2-1-1v-5c-2-3-2-3-3-2l-2 1c-2-8 0-11 5-8 2 1 2 1 1 2l-1 2 2 1 5 2v-2h-1c-1 1-1 1-1-1 0-1 1-2 2-1l1-1-1-1-1-1c1-1-5-10-9-13s-7-3-9-2M1 508v18l8 1 7 2 8-33-18-6H1v18m83-9v1c-1 1 0 2 2 4l2 3c-1 1-2 0-3-1l-1-1-1 1c1 1 0 1 0 0-2 0-2 1-1 3l2 2 1 1 1 1 2 2 1-2c-1-2 1-3 2 0 1 1 3 2 3 0-1-3 0-6 2-6 1 0 2 5 0 8l-2 9a39 39 0 01-1 12l-1 4c-1 2 1 3 11 6 11 2 10 3 12-17 1-22 1-23-1-23l-11-2a45 45 0 00-11-3l-3-2h-5m-52 17c-5 18-5 18 1 21l3 2 1-4c0-5 1-6 1-1-1 5 0 5 4 1 3-2 3-4 6-15l3-15c0-2 0-2-1-1l-1 3c-1 2-1 2-1-1 0-2-1-3-3-3-3-1-3-1-4 10l-2 9 1-10c1-11 2-11-2-11-2-1-3-1-6 15m169-3l-3 8-2 4 1 2c-1 3 1 7 4 7v3c-1 1 0 22 2 23v-13l1-13c2 0 1-13 0-16l-2-6c-1-3-1-3-1 1m-117 1l2 3v3h-7c-1-1-2 0-2 2a4 4 0 01-1 5v6h1l-1 1v1c2 2 3 0 2-2v-4l1 1 1 1h1l1-1 2 2v5c0 4 2 4 4 0v-3a1 1 0 110-2l2-1v-4l2-7c1-2 0-3-1-3v-1h-1c-3 0-4 0-5-2h-1m235 16c1 10-1 15-6 10-2-2-2-3-2-8 0-4 0-6-1-5 0 2-4 3-4 1-1-2-3 0-3 3l2 2c2 0 1 6-1 8l-1 5c0 2-1 3-2 3l-1 2a1 1 0 11-2 0v-3h-3c-1-2-2-2-3-1l1 1 2 2 1 1 1-1v1l2 3 2 1c1 1 1 0 2-1 1-2 1-2 1 2 1 3 0 6-1 3l-1-1-1 1v1c-2 2-1 3 2 4 3 0 4 2 2 4l-1 2c0 2 0 2-1 1-1-2-2-1-1 2s3 3 3 0c0-2 1-3 2-3h1l1 1 1 1 1 6c1 6 1 8-2 6h-1v1l-1-3-1-1v3l-1-1-3-3a1 1 0 111-2l-1-2c-2-4-5-2-5 2l-1 3c-1 0-2 0-1-1l-1-2-2-2c-1-1-2-2-4-1-4 0-5-2-2-4l2-4 1-3 1 2a2 2 0 003 2l1-2c1-2 1-2 1 0 0 4 2 4 2 0l1-3v-3h-3c0 1-3 0-6-3-1-1 0-2 1-1 3 1 3-3 0-4-2-2-2-2-2 0l-2-1c-3-3-4-10-1-10l1-2c0-2-1-3-2-3-2 0-3 0-2-1a1 1 0 10-2-1l-4 8-1 4c0 10-2 11-9 9-2 0-3-2-1-2s4-3 3-6l1-3c3 0 2-9-1-10l-2-2-2-1c-3 0-3 0-3 7 0 5 0 6-1 2 0-5 0-5-3-5-5 0-6 5-6 19 0 13 0 12 4 12 3 0 4 1 4 2 1 1 0 1-3 1l-5-1v54c0 9 0 10-2 12v1c3-1 3 4 0 6-2 1-2 1 0 1 2-1 2 0 2 4v12a8 8 0 01-1 7l1 1c-2 2 7 1 20-2l37-6 20-4 11-1 24-3-1-1-3-3c0-4 0-5 2-3l4 1h3v-10l1-11 21 3 2 9c2 12 2 12 10 10l11-1c4 0 4 0 4-2l-1-9c-1-8 0-9 6-8 3 0 3 2 0 2-4 0-2 2 3 2 16 2 16 2 16 0 1-2 1-2 5-2h6c2 0 2 0 1-1l-6-1c-4 0-5-2-1-2 14-1 14-1 14 5l1 8v4h8c9-1 8 0 7-9l-2-7 4-1c4-1 26 1 31 3h2v-31l-1-32-9 2c-7 1-28 2-34 1-2 0-3 0-3 2s-1 2-3 2c-6-2-8-2-8-1l-2 1c-7-3-9-1-5 3 5 5 4 6-2 3-4-2-5-2-7 0h-4c-1-1-2 0-3 1l-4 2h-6l2-1 1-2-3 1c-5 3-6 3-5 1l-1-2v-1l2-5-1-3v1c0 2-5 7-7 7-1 0-1-1 1-3l1-2-3 3c-1 2-9 6-12 6-2-1-2-5 0-5l2-3v-1c-3 2-3 1-2-2v-5l-2 2c0 5-3 0-4-7l-8-34c-2-2-10 0-10 2l-2 2-14 2h-18c3-1 4-2 2-3-1-1-7 1-7 2l1 6a84 84 0 011 18l-1-5-2-2-1-1-3-4c-3-4-3-5-3-11 0-7 0-7-3-7h-2v7m-92 2l4 3 1 1-12 1h-11l2 18c2 39 2 39 4 39 2 1 2 1 0 1s-3 2-1 5h16l1 1c2 0 5 4 4 5l-10 1-10 1-1 3v2h8l12-3 5-1c2 1 3-1 2-4 0-2 0-4 2-5v-1c-1 0-2-4 0-6v-2l1-2v-11a1 1 0 010-3v-9a2 2 0 000-3v-2c2-2 2-2 0-2v-5l1-10 1-6-5-1c-6 0-6 0-3-3 4-4 3-5-6-5h-8l3 3m-10 7a360 360 0 001 43c-1-2-1-2-1 0l2 2c2 0 4 2 3 4 0 2 0 2 2 3 2 0 2 0 0 2v1l2 1v1c1 1 2-4 2-13 0-3 1-4 3-4 3 0 5-3 5-5v-1l1-13 3-16 1-5h-24m89 10l-1 6 1 1v2l1 4 1-5v-6l6 1 1 8 2 8 1 8v8h1c2 0 2-1 2-3l-2-30 3-2c2 0 2 0 1 1v1c3 0 3-2 2-3-1-2-2-2-5-1h-7c-6-3-7-3-7 2m41 14l2 5c0 2 1 5 3 5l5 6 5 3c3 0 5-1 5-2l2-2v-3h4l4-2c2-1 3-4 1-9 0-2-1-2-16-2l-15 1m-79 5c-3 2-3 2-3 7 0 4 0 5 2 4h3l3-1h1l4 2c4 0 4 0 4-3 0-4 0-4-4-3a27 27 0 00-6 1c-2 0-2 0 0-1 2-2 3-3 0-3l-1-3 1-2-4 2m58 12l1 10h7c5 0 7-1 8-2 2-2 2-4-1-3-1 0-2-2-1-6 0-2 0-2-1-1s-1 1-1-2c0-5-1-6-7-6h-5v10m-243 1l-2 5c-3 8-3 16 0 16l1 1-12 1-21 2c-16 2-23 1-23-1 2-6 3-18 2-19-4-2-7-1-7 2l-2 11c-1 9 0 8-10 9-8 0-8 0-8 3 0 2 1 3 5 3 4 1 32 0 37-1l20-1 26-1 10-1-9 1c-7 1-9 2-9 3 0 2 3 2 4 1h3c4 2 9 2 9 1h1c0 1 0 2 1 1h5c4 0 5-2 6-18 1-17 2-17-7-17l-13-2-6-2-1 3m330 10c0 2-9 4-14 3h-3l-3 1h44c31-1 41-2 38-3-1-1-8-1-49 1-10 0-11 0-13-2-1-1-1-1 0 0M54 652l-2 2c0 2-1 2-3 2h-2l1 1c2 0 1 2-1 2-2 1-2 1-2 3v1c-2-2-2-2-2 1l-1 3c-1 1 0 1 2 1h5l7-1 7-1a22 22 0 000-12l-2-2h-7m19 4l-1 11-2 13v2h35v-7c2-16 2-16-5-16l-15-2c-9-2-12-2-12-1m-14 14l-4 1-5 1h-3l-2 1-2 2-2 2-1 2c-3 2 1 3 10 3 11 0 13 0 13-3v-5c1-3-1-5-4-4" tabindex="-1" itemprop="bold" style="fill: rgb(0, 0, 0); fill-opacity: 0.625; fill-rule: evenodd; color: rgb(255, 255, 255);"></path></svg>