<svg id="16282281824-posters-1652916426252" viewBox="0 0 819 512" preserveAspectRatio="xMidYMid slice" tabindex="0" xmlns="http://www.w3.org/2000/svg">
  <defs class="gradients">
    <linearGradient id="16282281824-posters-1652916426252-vertical" x1="0" x2="0" y1="0" y2="100%">
      <stop stop-color="hsla(40, 3%, 53%, 0.63)" offset="0%"/>
      <stop stop-color="hsla(36, 4%, 49%, 0.63)" offset="15%"/>
      <stop stop-color="hsla(36, 5%, 57%, 0.63)" offset="30%"/>
      <stop stop-color="hsla(32, 6%, 58%, 0.63)" offset="45%"/>
      <stop stop-color="hsla(32, 5%, 50%, 0.63)" offset="60%"/>
      <stop stop-color="hsla(33, 7%, 47%, 0.63)" offset="75%"/>
      <stop stop-color="hsla(37, 6%, 57%, 0.63)" offset="90%"/>
    </linearGradient>
    <linearGradient id="16282281824-posters-1652916426252-vertical-background" x1="0" x2="0" y1="0" y2="100%">
      <stop stop-color="hsla(40, 3%, 80%, 1)" offset="0%"/>
      <stop stop-color="hsla(36, 4%, 80%, 1)" offset="15%"/>
      <stop stop-color="hsla(36, 5%, 80%, 1)" offset="30%"/>
      <stop stop-color="hsla(32, 6%, 80%, 1)" offset="45%"/>
      <stop stop-color="hsla(32, 5%, 80%, 1)" offset="60%"/>
      <stop stop-color="hsla(33, 7%, 80%, 1)" offset="75%"/>
      <stop stop-color="hsla(37, 6%, 80%, 1)" offset="90%"/>
    </linearGradient>
    <linearGradient id="16282281824-posters-1652916426252-vertical-light" x1="0" x2="0" y1="0" y2="100%">
      <stop stop-color="hsla(40, 3%, 66%, 1)" offset="0%"/>
      <stop stop-color="hsla(36, 4%, 66%, 1)" offset="15%"/>
      <stop stop-color="hsla(36, 5%, 66%, 1)" offset="30%"/>
      <stop stop-color="hsla(32, 6%, 66%, 1)" offset="45%"/>
      <stop stop-color="hsla(32, 5%, 66%, 1)" offset="60%"/>
      <stop stop-color="hsla(33, 7%, 66%, 1)" offset="75%"/>
      <stop stop-color="hsla(37, 6%, 66%, 1)" offset="90%"/>
    </linearGradient>
    <linearGradient id="16282281824-posters-1652916426252-vertical-regular" x1="0" x2="0" y1="0" y2="100%">
      <stop stop-color="hsla(40, 3%, 44%, 1)" offset="0%"/>
      <stop stop-color="hsla(36, 4%, 44%, 1)" offset="15%"/>
      <stop stop-color="hsla(36, 5%, 44%, 1)" offset="30%"/>
      <stop stop-color="hsla(32, 6%, 44%, 1)" offset="45%"/>
      <stop stop-color="hsla(32, 5%, 44%, 1)" offset="60%"/>
      <stop stop-color="hsla(33, 7%, 44%, 1)" offset="75%"/>
      <stop stop-color="hsla(37, 6%, 44%, 1)" offset="90%"/>
    </linearGradient>
    <linearGradient id="16282281824-posters-1652916426252-vertical-bold" x1="0" x2="0" y1="0" y2="100%">
      <stop stop-color="hsla(40, 3%, 13%, 1)" offset="0%"/>
      <stop stop-color="hsla(36, 4%, 13%, 1)" offset="15%"/>
      <stop stop-color="hsla(36, 5%, 13%, 1)" offset="30%"/>
      <stop stop-color="hsla(32, 6%, 13%, 1)" offset="45%"/>
      <stop stop-color="hsla(32, 5%, 13%, 1)" offset="60%"/>
      <stop stop-color="hsla(33, 7%, 13%, 1)" offset="75%"/>
      <stop stop-color="hsla(37, 6%, 13%, 1)" offset="90%"/>
    </linearGradient>
    <linearGradient id="16282281824-posters-1652916426252-horizontal" x1="0" x2="100%" y1="0" y2="0">
      <stop stop-color="hsla(40, 3%, 51%, 1.00)" offset="0%"/>
      <stop stop-color="hsla(36, 5%, 55%, 1.00)" offset="15%"/>
      <stop stop-color="hsla(36, 5%, 55%, 1.00)" offset="30%"/>
      <stop stop-color="hsla(35, 7%, 49%, 1.00)" offset="45%"/>
      <stop stop-color="hsla(40, 4%, 61%, 1.00)" offset="60%"/>
      <stop stop-color="hsla(53, 2%, 67%, 1.00)" offset="75%"/>
      <stop stop-color="hsla(45, 2%, 63%, 1.00)" offset="90%"/>
    </linearGradient>
    <linearGradient id="16282281824-posters-1652916426252-horizontal-background" x1="0" x2="100%" y1="0" y2="0">
      <stop stop-color="hsla(40, 3%, 80%, 1)" offset="0%"/>
      <stop stop-color="hsla(36, 5%, 80%, 1)" offset="15%"/>
      <stop stop-color="hsla(36, 5%, 80%, 1)" offset="30%"/>
      <stop stop-color="hsla(35, 7%, 80%, 1)" offset="45%"/>
      <stop stop-color="hsla(40, 4%, 80%, 1)" offset="60%"/>
      <stop stop-color="hsla(53, 2%, 80%, 1)" offset="75%"/>
      <stop stop-color="hsla(45, 2%, 80%, 1)" offset="90%"/>
    </linearGradient>
    <linearGradient id="16282281824-posters-1652916426252-horizontal-light" x1="0" x2="100%" y1="0" y2="0">
      <stop stop-color="hsla(40, 3%, 66%, 1)" offset="0%"/>
      <stop stop-color="hsla(36, 5%, 66%, 1)" offset="15%"/>
      <stop stop-color="hsla(36, 5%, 66%, 1)" offset="30%"/>
      <stop stop-color="hsla(35, 7%, 66%, 1)" offset="45%"/>
      <stop stop-color="hsla(40, 4%, 66%, 1)" offset="60%"/>
      <stop stop-color="hsla(53, 2%, 66%, 1)" offset="75%"/>
      <stop stop-color="hsla(45, 2%, 66%, 1)" offset="90%"/>
    </linearGradient>
    <linearGradient id="16282281824-posters-1652916426252-horizontal-regular" x1="0" x2="100%" y1="0" y2="0">
      <stop stop-color="hsla(40, 3%, 44%, 1)" offset="0%"/>
      <stop stop-color="hsla(36, 5%, 44%, 1)" offset="15%"/>
      <stop stop-color="hsla(36, 5%, 44%, 1)" offset="30%"/>
      <stop stop-color="hsla(35, 7%, 44%, 1)" offset="45%"/>
      <stop stop-color="hsla(40, 4%, 44%, 1)" offset="60%"/>
      <stop stop-color="hsla(53, 2%, 44%, 1)" offset="75%"/>
      <stop stop-color="hsla(45, 2%, 44%, 1)" offset="90%"/>
    </linearGradient>
    <linearGradient id="16282281824-posters-1652916426252-horizontal-bold" x1="0" x2="100%" y1="0" y2="0">
      <stop stop-color="hsla(40, 3%, 13%, 1)" offset="0%"/>
      <stop stop-color="hsla(36, 5%, 13%, 1)" offset="15%"/>
      <stop stop-color="hsla(36, 5%, 13%, 1)" offset="30%"/>
      <stop stop-color="hsla(35, 7%, 13%, 1)" offset="45%"/>
      <stop stop-color="hsla(40, 4%, 13%, 1)" offset="60%"/>
      <stop stop-color="hsla(53, 2%, 13%, 1)" offset="75%"/>
      <stop stop-color="hsla(45, 2%, 13%, 1)" offset="90%"/>
    </linearGradient>
    <radialGradient id="16282281824-posters-1652916426252-radial">
      <stop stop-color="hsla(40, 3%, 54%, 1.00)" offset="0%"/>
      <stop stop-color="hsla(36, 4%, 49%, 1.00)" offset="15%"/>
      <stop stop-color="hsla(34, 6%, 57%, 1.00)" offset="30%"/>
      <stop stop-color="hsla(35, 6%, 58%, 1.00)" offset="45%"/>
      <stop stop-color="hsla(37, 5%, 50%, 1.00)" offset="60%"/>
      <stop stop-color="hsla(35, 7%, 48%, 1.00)" offset="75%"/>
      <stop stop-color="hsla(37, 6%, 57%, 1.00)" offset="90%"/>
    </radialGradient>
    <radialGradient id="16282281824-posters-1652916426252-radial-background">
      <stop stop-color="hsla(40, 3%, 80%, 1)" offset="0%"/>
      <stop stop-color="hsla(36, 4%, 80%, 1)" offset="15%"/>
      <stop stop-color="hsla(34, 6%, 80%, 1)" offset="30%"/>
      <stop stop-color="hsla(35, 6%, 80%, 1)" offset="45%"/>
      <stop stop-color="hsla(37, 5%, 80%, 1)" offset="60%"/>
      <stop stop-color="hsla(35, 7%, 80%, 1)" offset="75%"/>
      <stop stop-color="hsla(37, 6%, 80%, 1)" offset="90%"/>
    </radialGradient>
    <radialGradient id="16282281824-posters-1652916426252-radial-light">
      <stop stop-color="hsla(40, 3%, 66%, 1)" offset="0%"/>
      <stop stop-color="hsla(36, 4%, 66%, 1)" offset="15%"/>
      <stop stop-color="hsla(34, 6%, 66%, 1)" offset="30%"/>
      <stop stop-color="hsla(35, 6%, 66%, 1)" offset="45%"/>
      <stop stop-color="hsla(37, 5%, 66%, 1)" offset="60%"/>
      <stop stop-color="hsla(35, 7%, 66%, 1)" offset="75%"/>
      <stop stop-color="hsla(37, 6%, 66%, 1)" offset="90%"/>
    </radialGradient>
    <radialGradient id="16282281824-posters-1652916426252-radial-regular">
      <stop stop-color="hsla(40, 3%, 44%, 1)" offset="0%"/>
      <stop stop-color="hsla(36, 4%, 44%, 1)" offset="15%"/>
      <stop stop-color="hsla(34, 6%, 44%, 1)" offset="30%"/>
      <stop stop-color="hsla(35, 6%, 44%, 1)" offset="45%"/>
      <stop stop-color="hsla(37, 5%, 44%, 1)" offset="60%"/>
      <stop stop-color="hsla(35, 7%, 44%, 1)" offset="75%"/>
      <stop stop-color="hsla(37, 6%, 44%, 1)" offset="90%"/>
    </radialGradient>
    <radialGradient id="16282281824-posters-1652916426252-radial-bold">
      <stop stop-color="hsla(40, 3%, 13%, 1)" offset="0%"/>
      <stop stop-color="hsla(36, 4%, 13%, 1)" offset="15%"/>
      <stop stop-color="hsla(34, 6%, 13%, 1)" offset="30%"/>
      <stop stop-color="hsla(35, 6%, 13%, 1)" offset="45%"/>
      <stop stop-color="hsla(37, 5%, 13%, 1)" offset="60%"/>
      <stop stop-color="hsla(35, 7%, 13%, 1)" offset="75%"/>
      <stop stop-color="hsla(37, 6%, 13%, 1)" offset="90%"/>
    </radialGradient>
  </defs>
  <rect fill="url(#16282281824-posters-1652916426252-radial-background)" width="100%" height="100%" tabindex="-1" id="16282281824-posters-1652916426252-background"/>
  <path id="16282281824-posters-1652916426252-light" d="M0 13v13h820V0H0v13m428 44-17 14c-9 6-11 9-10 11l2 1c6 0 6 8 1 10-2 0-3 2-3 2l-2 2a2 2 0 0 0-1 3c3 0 5 16 3 36 0 2-2 2-21 5-8 1-15 3-23 6-9 4-10 5-10 9l-1 5c-3 1-2 3 1 6l3 3v16c-1 21-2 25-5 28l-3 2c-3 0-6 3-3 4 2 1 1 2-1 2s-3 1-3 2l1 1 2 2 2 2c4 0 7 6 5 8l-2 3 2 2 1 3c0 4-1 6-5 8l-3 4-1 1v2l5 3 3 2-1 17c0 19 0 19-3 17-6-6-20-1-18 7l-3 1-13-2a315 315 0 0 1-29-5l-5-1h-1c0 3-34-2-53-9l-17-4c-4 0-4-1-2-2 2-2 2-5-1-6l-1-3c0-1-2-1-3 1l-4 6c0-3 0-5 2-7 1-1 1-4-2-7-1-3-4-3-3-1l-1 2-1 6v5h-5a59 59 0 0 1-17-5c2 1 2-1 0-3a5 5 0 0 1 1-7l2-2-2-1v-1l-1-2-1-1 2-3 2-3 1-2 1-1-3 1c-5 4-8 0-3-4 2-2 3-6 1-6l-1-2c0-3-7-6-11-5l-1-1-1-2 1-4v-2l-1-4c0-3-1-4-2-4l-2-4c0-5-4-12-11-19s-8-8-4-11c1-2 1-2-1-1l-3 2h-3l-3-2v-3l-1-3v2l-1 1h-4c-1 0-2 0-1-1l-1-1-2-1-7-3 1-2c1-1 1-1 0 0l-2-1c0-3 0-4-3-4s-6 2-4 3c1 0-2 4-4 4l-1 1-3 2c-4 1-8 4-12 7l-4 2-1 2h-2l-1-1-1 1c1 1-2 4-6 8l-9 12-3 6v1l1 2h-2l-1 3c-2 1-1 4 0 3v3c0 3-1 4-3 5h-1c2-3 0-3-4-1l-2 1-1-1-2 1h-4c-3 0-3 0-3 3l-2 4c-1 2-1 2 2 4l2 3-2 1c-2 1-4 4-2 4s1 3-1 4c-2 2-2 2-1 3l1 3 1 2c1 0 2 8 1 19 0 5-1 5-4 5-2 0-3-1-3-2l-3-3h-1l-2 1c-1-1-2-1-2 1l-2 1 1-3 1-2-2 2-2 1H0v232h820V395l-1-76v40h-6l-7-2h-1l-3 1-3 1c-1 1-1 0-1-1 0-2-1-3-3-3l-3-2a2 2 0 1 0-3 0l-2 2-3 1h-3c-1 0-2 0-3 2h-1c0-2-5-3-20-2l-13-1c-1-2-4 0-4 3l-1 3h-11l-9-1h-9c-2 1-2 1-2-4 0-6-2-8-4-5-1 2-25 1-26-1 0-3-4-2-4 0-1 2-4 3-4 1l-1-1-3-1h-2l-3 1-6 2-12 1-10 1-1 5c0 4 0 4-4 4-10 1-14 0-14-2l-1 1c-1 1-1 1-1-1s-1-3-2-3-3-5-3-8 1-3 3-3 2 0 1-1c-6-5-7-6-8-16a315 315 0 0 0-4-27l3-1c4 0 4-1 0-3-3-1-3-1-3-8 1-7 0-8-4-8l-2-1-2-1h-2c-1-1-1-1-3 1-1 1-1 1-1-1a6 6 0 0 0-11 0v-1c2-3-6-4-23-4a197 197 0 0 0-25 2h-4v-7l-1-7 3-4c4-4 5-4 3-7-2-4-5-6-7-5-1 0-2-3-2-7 0-1 0-2-2-3l-3-1 5 1 2 1c1-1-2-6-3-6v1l-1 1c-2-1 0-6 4-10 4-5 5-9 2-8-1 1-1 1 0 0 1-2 1-2-4-3l-4-2 9 1 3 1c1-1-2-3-9-7l-5-2 1-16v-16l2-3c3-2 3-4-1-4l-2-1v-2l-1-6c-1-4-1-5-4-8-2-2-3-3-1-2 1 1 1 1 0 0-2-2-7-3-7-2l1 2v1h-3v-1c2-3 1-4-11-6-11-1-15-3-16-7a8 8 0 0 0-4-7l-1-4-2-4c-2-4-1-13 1-16l2-4 1-2v-2l-1-1c0-2-2-4-6-6-2-1-3-5-1-5l3-2c4-3 3-6-4-11l-7-5c-8-7-20-11-23-8m17 43c-3 4-4 8-4 18v11h3l3 3c1 3 1 2 2-2l3-2c2 0 2-1 2-15 0-13-4-18-9-13m-33 4c-2 5-2 28-1 30 2 2 9-1 10-5v-27c-2-4-7-3-9 2m19 12c0 15 2 19 2 5l-1-14c-1-1-1 2-1 9m42 58c1 3 3 4 5 4s4 2 3 4v6l-1 4h-2l3 1 3-1v-20l-6-1h-5v3m-33 58 11 1 15 2 9 1 9 2c4 1 8 1 9-1l-1-1v1l-1 1-1-1-3-1-2-1h-4c-2 1-3 1-3-1l-1-1h-9c-18-2-28-2-28-1M37 257l-1 3c-2 2-2 12 1 12l2 1 1 1 1 1h-3c-1-3-3-2-3 0s0 2 1 1l1-1a3 3 0 0 1 0 4h1l-1 1c-2 1-2 1 0 1l4-2v1h1v-21c-1-3-5-5-5-2m23 4v2l-1 3c0 2 0 2-1 1s-1-1-1 1l1 3h1l1 1c1 0 2 1 2 3v-4a14 14 0 0 0-2-10m13 0 1 2v1h-3c-2 4-1 7 1 7l2 2h-3c-1 1-1 1 0 0l1 2c-1 2 2 2 4 1 1-2 1-9-1-13-1-3-2-4-2-2m376 2v2l-8-1h-1l2 3c1 0 2 1 1 2l2 1h5c2 2 3 2 3-1l1-3 1-2h-1c-2 3-4 2-4-1-1-2-1-2-1 0m-12 6h-1v1c0 1 1 2 2 1l2 1v1l1-1v8a2 2 0 0 0 2 4h-2l-1 2 1 3c2 1 1 2-1 2h-4c0 1 1 2 3 2l3 2 1 2c1 1 0 1-2 1h-3l3 1 1 1-2 1h2c2 0 5-5 4-6l-1 1-1-2c-1-1-2-3-1-6 1-5 1-6 3-3 2 1 2 1 2-1s-1-2-2-2c-2 0-2-1 0-3a9 9 0 0 0 2-8h-5c-2-2-5-3-6-2m16 8-1 2 2-1h1v2c-2-1-3 0-2 1l1 2-2-1h-1l-1 3v1c3 0 3 2 1 3v-1h-1c-1 1 0 8 1 9s7 2 7 0c1-1-3-3-5-3l-2-1c0-2 0-2 1-1l3 1-1-1c-2-1-2-1-1-3v-2l1-2 3-3c1-2 3 0 4 4l2 5v1a23 23 0 0 0-4 1c-4 0 5 5 10 5v-5c-3 2-4-1-4-7v-5l-1 2-1 2c-2 1 0-5 2-7 1 0 1-1-2-1l-2 2-1 1v-2l-1-1h-6M0 396c0 64 1 90 1 58a15493 15493 0 0 0-1-58m491-97v2l-3 1h-2l-3 1h-1v1l5 1 2 1-1 1c-5-1-31 0-31 1l5 1h40l-1-1-2-1 1-1c2 1 2-3 0-6-1-2-8-3-9-1m-52 18c-3 4-2 8 1 10s4 1 2-1l-2-3 2 1c1 1 1 1 1-3-1-5-2-6-4-4m12 5-1 2v2c0 2 0 2-2 1-1-1-1-1-1 1 1 1 0 2-1 2h-2l-2-1c-3 0-3 1-3 3l1 2v2l-1 2c-1 0-5 1-4 2h1l1 1 3 2 2 2c-1 1 1 3 3 3s2 0 1-2l-2-1-1-1c1-1 0-5-1-5l-1-1c0-2 1-2 5-2l2-1h-1l-1-1h-3c0-1 1-2 3-2a2 2 0 0 0 3-1l1-1c-1-1 0-1 3-1v-7c0-3-2-3-2 0m212 62c-4 1-2 4 3 4l2 1 1 1c1-1 2 0 3 1h2v-2c1 1 2 0 3-1 1-2 1-2-2-2l-4-2h-8m29 4-1 2c-2-2-12-2-12-1l3 1 2 1 1 1 2 1-3 1-4 1 1 1h2l3-1h1l2-1h3l1 1c1 1 0 2-1 1a1 1 0 1 0 0 2l3 1c1 0 2 0 1-2h6l-1-1v-2l-1-1h-1v-2h-3l-1-1-1-1-1-1h-1m29 12 6 5-2-1c-2-2-3-2-5-1-1 1 1 5 3 5 2-1 4 2 2 4h1l3-2h1c1 1 1 1 1-1-1-2-1-2 1 0l5 1 5-1c4-1 7-3 4-3l-2 1c0 1-5 1-5-1h1v-1a47 47 0 0 0-19-5m-158 36c0 4 3 8 5 8l2-1 1-4c2-3 2-3 0-1s-4 1-4-2l-2-2c-2-1-2-1-2 2" fill="url(#16282281824-posters-1652916426252-vertical-light)" stroke="url(#16282281824-posters-1652916426252-horizontal-background)" fill-rule="evenodd" tabindex="-1"/>
  <path id="16282281824-posters-1652916426252-regular" d="M0 13v13h820V0H0v13m425 46-12 11c-13 11-12 10-11 11l5 3 3 1-2 4-3 4-4 3-3 2 1 3a8 8 0 0 1 2 3 78 78 0 0 1 0 32c0 3 0 3-6 3-6 1-9 3-10 7 0 2 0 2 2 1l3 1-1 1h-3c-2 2-5 0-4-3h-1v2c1 1 1 2-1 2-3 1-3 0-3-4 0-3 0-4-2-4-3 0-20 6-19 7l-1 1c-2-1-6 1-5 3v1c-2-1-3 0-3 5 1 3 0 4-1 3v2c0 2 1 4 3 4l1 16c1 21-1 30-5 30v2l-3 1c-2 0-3 0-2 2l3 1c3-1 5 1 4 4l1 1h2l-1 1c-2 1-2 0-2-2a5 5 0 0 0-4-2c2 2-1 5-3 4-2 0-2 0-1 1s2 2 3 1l1 1 2 1c3 0 4 0 3 1l-2 1 1 1v3c-3 2-2 4 1 4a1 1 0 1 1 1 3l-1 2 1 2h3l1 1h-2l-1 1v1h-2l-5 3-4 3c0 2 1 2 3 0 1-1 1-1 0 0l2 1h3l1 1c2-2 1 2-1 4l-1 2v2l1 1c1-1 2 3 1 6v9a36 36 0 0 1-1 10h1l-1 3v1l-1 1-1 1v2c-1 0-2 2-1 3 0 2 0 2-1 1h-1l1 3 1 3v2h1l4 5c3 2 3 3 2 5-3 3-8 0-8-6l-2-4-1-1c2 0 1-10-1-11v-2l-5-1c-7 1-9 2-9 5v1l-2 5-3 5-3 5c-1 4-1 4-4 3h-15c-2-1-8 0-7 1h-1c-2-1-7-1-10 1v1h7l1 1h9c0 2-6 4-8 3s-2-1-2 1l-1 1h-3c-3 1-4 0-4-3v-1c-1 0-2-1-2-3 0-4 0-4 2-3 1 1 1 1 0 0l-2-1-1-1-2-1v2c2 1 2 2 1 3-1 3-1 3 1 2v2c-2 2-2 3-1 6 1 2 1 2 2 1h1l-1 2v4l-1-1-2-2-1 2v1l-1 1-2 2-1 3v2l-1 2v6l-1 9v6l-1-5v-18l-2-3c-4-8-7-2-7 11l-1 10v1c2 0 3 4 1 4l-2 1 2 1 1 1-2 1c-2 0-2-1-2-4l-1-2v-2l-1-1v5c-2 1-2 0-2-4 0-3 0-4 1-3s1 1 1-1l2-5v-3l1-1v-4c2-1 1-3 0-2l-2 2v3c-1 1-1-1-1-6v-8l-1 11c0 11-1 13-2 3 0-6-3-12-6-12-2 1-6 10-6 15l-1 5v4c1 6 0 8-3 8h-2v-1l1-3v-1l-2-2c0-3 2-5 2-3 1 1 1 0 1-1l-1-3c-1 1-2-1-2-5s0-7-2-10c-3-6-4-6-8 0-2 3-3 6-3 17 0 5-1 5-3 6-2 0-2 1-1 1h2c2 0 2 0 2 2l-1 2v2l-1 2-2 1c-3 0-3-4 0-5v-1c-2 0-2-1-2-9-1-29 0-27-4-27l-2 1 2 1c2 0 3 10 2 32 0 8 0 9 2 9v1h-3l-2-1c-3 0-5-2-5-3 0-2 5-1 6 1 1 1 1-3 1-14v-15l-4-5-3-5-5 5c-3 2-4 5-4 5 1 0 0 5-2 5l-1 1 2 1c2 0 4 5 4 8l1 5v9c1 3 1 4-2 4v1c2 2 2 15 0 13l-1 1h3c2-1 15 3 18 5 2 3 6 4 8 4l7 3 8 4c5 1 14 0 13-1l2-3c1-1 1-1 0 0v2l10 2 5 1 1 1c-1 1 2 2 14 2 9 1 25 6 24 9l3 1 8 2 11 3a105 105 0 0 1 15 1l5 2 2 1c2 0 3-1 1-3-2 0 0-2 2-1v1l2 1c3-2 8-2 8-1 0 2-6 6-10 7h-4l-2 1-6 4-4 2-5-4c-6-4-6-4-9 1l-4 3-2-2-4-2-10-5c-11-5-11-5-15 2l-5 7c-2 1 8 7 12 7l4 1c2 3-3 4-8 2h-9l2 1 1 1h-4c2 1 2 2 1 2a3 3 0 0 1-4 0c1 2-3 3-5 2l-5-1c-5 1-6 0-3-2l1-1h-2l3-2 1-1c0-1-1-2-3-2-2 1-2 0-1-1s1-1-1-2c-4-1-4-3-1-4 4-1-3-2-8 0l-2-1c0-1 6-3 7-2v-1l-2-1c-3 0-1-2 3-3 5-2 6-2 8-1v1h-3l2 1 3-1c0-1 1-2 2-1h1l-2-2-1-1c4 0 0-4-4-4-3 0-4 0-4-2s-1-2-3-1l-1 2c1 1 0 2-1 2l-1-1c1-3-3-3-7 0l-3 3v-3l1-3a2 2 0 0 1 2-1l1 1c2 0 2-3 0-3l1-1 2-2h-5a7 7 0 0 1-8 7l-6 2h-6l-2-1c-2-2-2-2 0-2 6 2 6 2 8-1 2-2 2-3 1-3-2 0-4 2-3 4l-1-1h-3l-1-2v-2l-2-1h2c3 0 6-3 3-3-2-1-2-4 1-4 1-1-3-1-8-1l-14-1h-1c0 2-1 2-2 1l-12-1h-10c-1-1-2 0-2 1l-3 2a28 28 0 0 0-8 1l-2 2h-1l-1-2c-3 0-3 0-3-2s0-2-2-1c-2 2-4 2-4 1 0-3 11-4 17-1l2-1 1-2h4l2 1v-2c-1-1 1-1 4 1h7c-2 0-2 0-1-1 1-2 1-2-1-1h-13c-3 2-8 3-10 2-1 0-2-2 0-2 3 1 7 0 7-2h23l-9-1-10-2h-6l-6-1c-1-1-2 0-5 1h-4c-1-1-3-2-6-1l-4-1-3-1h-4c-1-1-3-2-10-2-2 0-2 0-1-1h10c9 0 12 0 6-1l-3-1h3l4-1 2-1c2 1 1 3-1 3v1c2 1 2 0 3-2s1-2 3 0l3 2c0 2 2 1 2 0l-1-2v-1l-1-1v-2c1-1 2-1 4 2 3 2 3 3 1 4-1 1 0 2 3 1h10l2-1c1-1 2 0 2 1a2 2 0 0 0 2 0v-2c1-1 1-1-1-1s-2 0-2-3v-4l-1 1-1 2c-1 1-1 1-2-1l-1-2-1-1h3v-1c-1-1-3-2-4-1-2 0-2 0 0-1l1-1v-3c1-2 1-2-1-2l-2 1 2-2 2-3 1-2 1 2c0 2 0 2 5 0a4 4 0 0 0 4-5h-1l-1 2c1 1 1 2-1 2-3 1-3-2 0-9l1-3-4 8h-2l-2 1c1 1 0 1 0 0l-3-3c-1-2 0-6 1-8l1-2v-5c-2-2-1-3 1-3l2-1c0-2-4-1-6 2-2 2-2 2-1 0a4 4 0 0 0 1-4c2 0 2 0 1-1v-2c2-2 3-4 1-4l-1-3c1-4 2-5 2-2 0 2 1 2 2 2l2 1h1l1-2c-1-1 0-3 1-4v-7l-1-1h-1l-2-1v-1l-2-1c-2 0-3 1-1 2 1 1 1 1-1 1v2l-2-1c-3-3-3-3-2-1 1 5 1 8-1 8l-2 2-2 4 1-2a5 5 0 0 0 1-5c1 2 3-1 2-4 0-1-1-2-3-2s-3 2-1 2v5l-2 1-2-1h1l2-2c-1-2-1-3-3-3-3 0-3 0-2 2h-1c-2-1 1-5 3-4 2 0 2 0 2-2 0-1 0-2-1-1 0 2-3 1-4-1v-3h-2l-2 2-2 1 3 1 3 1a14 14 0 0 1-11-2h2c1-1 0-2-2-1l-3-1h-1l-2-1c0-2 1-2 3-1l10-1 6-1h-1l-3-1h-3l-4 1c-2 0-2 0 0-1l2-1h-1c-3 1-5-1-4-3 2-2 5-2 4 0h2c2-2 3-2 6-1a3 3 0 0 0 5-2l-2-1h-6a4 4 0 0 0-6 0c-1 0-2-1-2-3v-3c-1-1-4 2-3 3l-1 1-2-1h-2l-2 2 1-1 1-2-2 1c-2 2-2 2-3 1l-2-1a2 2 0 0 1-2-3l1 1c0 1 4 2 5 1v-2l1-1a3 3 0 0 0 2 0l2 1h2l-1-1-1-1 3-1c3 0 3-2-1-2-2 0-2 0 0-1 1-1 1-1-1-1l-3 1h-4l2-2 1-1h-5l-3-1 3-3a6 6 0 0 1 5-3c-1-1-1-3 1-5l1-4a3 3 0 0 1 3-3l-1 1 1 1h1l-2 1 1 1 2 2h-2c0 2 2 2 2 0v-17c0-5 0-5-5-6h-8v3c2-1 2 0 2 11l1 13c0 2 0 2-4 2-4-1-4-1-4 1 1 1 1 1 0 0l-1-2v-30l-10-1-2 3v-5l-1-6 5 2 8 1 5 1 8 1 5 1c3 1 9 2 10 1a7 7 0 0 0-9-1v-1c2-1 0-1-8-3a176 176 0 0 1-19-4l-6-3 3-1a599 599 0 0 0 21 5l23 4c2 0 1-1-2-1l-17-4a151 151 0 0 0-33-7h5v-5l-1-5-1 1h-1v-1h-3v-1c-2 0-2 2 0 3l1 3c0 2 0 2-2-1l-2-3-3-2c-1-1 0-1 9-1s9 0 7 2l-1 4v4l1 2c1 0 2-5 1-8 0-2 3 0 4 2h1c0-2 0-2 1-1s1 1 2-1c0-3 4-3 4-1l2 1h1c-1 1 0 1 3 1h8c7 2 4 0-7-3-9-3-13-3-29-4l-17-1 18-1 16 1v-4l-1-4-1-3-5-14-3-2s-2-1-2-3l-3-4v-6l-1 2c0 1-2 0-6-5a22 22 0 0 1-6-8l-2 3-3 4-3 2-2 1-12 6c-1 2-4 4-7 5-8 6-11 10-10 14l-1 5v2l1 2h-1l-2-1v3l-1 1-3 1a7 7 0 0 0-5 9c-1 1 0 2 1 4l2 4-1-1c-2-2-6-1-6 1l-1 1-1-1c0-3-3-2-4 0h-2c-1-2-1-2-4 0l-3 1v1c1 1 3 2 4 1l2 1h5c4 0 5 0 4 1l-7 1-8 1-4 1 3 1c2 1 3 1 2 4l-3 2c-2 0 0 3 2 4 3 1 4 5 2 7l-1-5-2-1-1 1-2 1c-1 1 0 1 1 1l3 1-2 1c-4-1-4-1-1 3l2 4c-1 1 0 2 1 3s2 2 0 3h-1l-2 16v5h-3c-2 0-4-1-3-2l-1-1c-2-1-2 2 0 3l13 2c16 0 19 1 26 2l8 1h1l2 1 1-1v-7c1 0 3 3 2 4l1 1c1 0 2 0 1 1l1 1 1-3c-1-2 1-4 2-2l-1 1v2c0 3 0 3-2 3-1 0-2 0-1 1l7 1c9 0 13 1 8 2l-4 2-2 1-5 1c-1 2-5 3-9 4l-7-1c-7-1-20 1-25 4l-7 1-5 1h-4c-1-1-2 0-4 1l-1 1v-2l-2 1-2 1H5l2-1 1-1H7l-5 1-2-1v199h820v-72c0-40 0-71-1-70 0 5-1 5-2 4h-3l-7 3 4-3 4-3-3 1c-3 2-3 2-4 0-1-1-1 0-1 2a6 6 0 0 1-6 3v-1a5 5 0 0 0-4 2c1-1-1-2-1 0h-5l-11 1c-2 2-10 3-11 2h-10c-6 1-7 0-5-3v-2c-1-1-1-1 0 0l-1 2v-6c-3 0-5 5-3 7l1 1v1c1 1-11 2-18 1l-3 1a2 2 0 0 1-4-1l2-1 1-1-1-1-1-2h3v-2l1 2c0 1 1 1 2-1s1-2-1-2l-2-1h-1l-3 1c-1-1-1 0-1 1l-1 3a1 1 0 0 0 1 2v1l-2 2c-2 0-2 0 0 1l4 1c3 2 8 3 10 3l5 2 5 2c2 0 5 0 11 3l7 2c6 1 8 3 4 4l-18 6-7 2-6 1-2 1 2 1h2l1 1 1-1h10l-4 1-4 1h-2v1h-5c-2 2-3 2-3 1-1-1 0-1 1-1 2 0 2 0 1-1s-2-1-3 1l-5 3a29 29 0 0 0-15 3 198 198 0 0 0-14 3l-17 3-14 3c-6 0-22 4-24 5l-6 2-5 1a24 24 0 0 1-12 3l-8 3a79 79 0 0 0-11 4l-2 2 5 1c4 0 4 0 2 1h-8c-4 0-5 0-5 2h3l-2 2h-10l-8 1c-7 0-11 0-18 2h-11l-1-4-1-6v-5l1-5 3-7 5-5 2-1-1 2v7l1 7c1 10 7 21 6 12 0-3 3-4 6-2 2 2 7 4 5 2l-6-6-1 1-1-2-1-4-2-4c0-2 0-2-1 1s-1 3-1-2l1-5c1-1 5 1 6 4 1 1 1 2 2 1v-2c2-1 1-12 0-13v-2l1-1-2-2-1-2-2-2c-2 0-4-3-4-4h2l2 2-1-6c-1-2-3-1-2 1l-1 1-1-2h-2c-2 2-3 8-1 8l-1 2-2 4-2 5-4 7-2 3v-4c0-4-2-8-3-8-2 0-4-4-3-5l-4-2-4-3-4-3-3-3-4-1c-5 0-5 0-8 8l-4 3-3 5c-2 7-3 8-11 8-7 0-8 0-11 3-6 4-13 6-10 3v-1c-2 0-3 4-1 4l4-1 6-2 3-1-2 3c-3 3-2 4 5 3 5 0 6 0 9 3l3 4 1 1 1 1 1 2c1-1 5 6 5 9s-4 6-10 7-10 2-13 4l-15 7-10 5c-3 2-14 3-14 1 1-2-6-1-10 0l-3 1 1-1c3 0 2-2 0-2-2-1-4 0-4 2l-4 1c-3 0-4 0-3-1v-1l-2 1-5 1h-4l3-3c3-3 3-3 6-2 2 1 3 1 2-1 0-1 0-2 2-2l3-2v-2l1-2-2 1h-2l1-1 1-2h2c0-1 1-2 3-2l2-1-2-1v-1l2-1 1-1 1-1a1 1 0 1 0 0-2l-2 1-2 1-2 1-1 1v-2l1-2 3-2 1-3a2 2 0 0 1 0-2l1 1 1 2c-1 1 0 2 1 2 0-1 1-1 0 0h3a5 5 0 0 1 6 0 55 55 0 0 0-5 1v1h4c1 1 2 2 3 1l1 1-1 1-2 3c0 1 0 2 2 1a1 1 0 1 1 0 2h-1c1 1 5 0 4-1l2-1h2v-2c1-2 0-3-3-1l-3 1c0-1 1-4 3-4l1-1c0-2 1-2 3-1 2 0 3 0 2-1 0-2 3-3 4-1h3l1-2 1-2v2c0 3 0 3 2 3h2l2 1c1-1 2 0 1 1 0 1-3 2-4 1l-1 1-2 1-3 2-1-1h-3c-2 1-2 1 0 2l4 1 2 1h3l2-1-1-1v-2h2l2 1h4c1 0 2-1 2-3a2 2 0 1 1 3 1v1l5-1c1 0 1-1-1-2-3-3-2-4 2-6 3-1 4-1 5 1h1c0-1-1-2-3-2l-2-2c-1-1-2-1-3 1-1 1-1 1-1-1v-4h-7c-2-2-5-1-4 1 1 4-2 3-3 0-2-4-4-5-5-3h-2l-2-1c-3 1-7-1-5-3 3-1 1-4-3-4h-6l-4-2-4-3c-2 0-4-1-5-3-4-4-8-5-22-7l-19-2-11-1c-5 1-7 0-4-3 1-1 1-1-1-1-3 0-1-1 7-3 5-1 5-3 1-3-3-1-3-1 1-1 3 0 3 0 1-1-3-1-2-1 4-1 4 0 6 0 5-1v-1l2 1h2c1-2 3-2 4-1l2-1c-1-1 0-1 1-1l2 2 2 1v-3l1-2h-4c-2-1-3-3-2-4h-1l-2-1c-1-1 1-1 3-1l1-1-4-2-1-1-1-2h6v-3c-1 0-2-1-1-2l-1-2v-2l-1-2-1-4-1-3v3l-1 4c-1 0-1 1 1 2v1c-2 0-2-1-2-3 1-6 1-7-1-7v-1c2-2 2-10 0-11l-1-3c0-2 2-2 5-2l-1-1c-2-2-1-4 1-3h3l-3-2-2-5-2-5v-4c2 1 2 0 2-5 0-3-1-5-2-5v-2c1-3 0-10-2-12-1-1-2-2-1-3v-9c-1-2-1-2 0 0l2 2 1 2c0 2 0 2 1 0l1-3v2l2 3 1 2c1 3 2 4 11 3 6-1 6-1 2-1l-5-1c1-1-1-3-4-2-2 0-2-1-4-4l-4-6a8 8 0 0 0-9 1v-1l-1-1-1 1-2 1a1 1 0 1 1 1-2l1-5 1-2 1 1v1l1-1h1v-1l-1-2 1-1 1-2c0-2 3-2 3 0h1c0-2 2-3 3-3 2-1 2-1 0-1l-2-1c-1-2 1-3 2-1h1l5-2 3-1h-3c-3 0-3 0-1-1l1-1c-2 0 5-5 7-5a8 8 0 0 0 6-6l1 1 1 1 1-1 2-1c2-1 2-1 1-2v-1l8-2c7-3 10-4 10-1h1l1-2h1c3-3 8 1 6 5v4c2 1 2 1 2-1v-3l1 3c0 2 0 2 1 1a5 5 0 0 0 0-5l-2-3-2-2h3l3 1c0 3 3 5 4 3 4-3 5 0 2 4l-2 6-1 3 1-3c2-6 7-9 7-5l2 1 1 1 4 1c4-1 6 2 6 11l1 6 1 7 1 6a32 32 0 0 0-1-21l-3-10c-2-5 1-7 4-2 2 3 2 5 2 11l1 8c2 0 1-15-1-20s-2-5 1-5h2v38l1 1 1-20v-21c2 0 3 2 3 3-1 1 0 2 1 2v1c-2 1-2 1 1 1l4-1v1l-2 2-1 1c1 1 9 0 12-2l1-2 1-1 2-1c0-3-2-2-4 0l-2 1 2-3c2-2 2-2 1-3s-1-1 1-2h2l-2-1h-4l-4 2c-1 2-2 2-2 1l-1 2c-1 2-1 2-1-2s1-5 3-4l1-1c0-1-4-2-5-1h-2l-4-2c-5 0-7-1-4-2 2-1 2-1-1-1l-4 1h-4l-2-1-1-1v1l-1 1-1-2-1-1c-2 2-5 2-4 1l-3-1c-4 0-4 0-3 1l2 1 1 1c0 2-5 3-5 1h-5c-4 1-5 0-4-3l4-1h4l-4-1a8 8 0 0 1-6 0l-3 1c-1 0-2 0-1-1l-2-1-2 2-4 1c-3 0-3 0-2-1l2-1c0-3-2-3-23-3l-23-1c-1-1 23-2 43-2h21l-19-2c-25-1-20-2 7-1 20 0 20 0 8-1l-38-1h-21l11-1 7-1c-1 0 0-2 2-3 3-3 16-4 16-2h1l-1 2c-4 4-1 4 4 0 5-3 5-3 14-3 8 0 13 1 9 3l-1 2-1 1-1 1 6-3c7-4 20-3 16 1-2 3 3 2 6 0a11 11 0 0 1 13 1c-1 1-1 1 1 1 1-1 1-1 0 0v2l2-1c1-2 7-2 9-1v2l-2 1-1 1c0 1 1 1 3-1a9 9 0 0 0-1-12l-2 3c-3 4-4 4-4-1s0-5 3-6c4 0 2-1-8-3l-3 3-3 2c0-2 0-2-2 0l-1 2-1-3c0-3 0-3 3-3 1 0 2 0 1-1l-2-1h-8c-5-1-6 0-7 1-1 3-3 2-4 0 0-1-1-2-3-2a3723 3723 0 0 1-14-1c-4 0-5-1-2-1l3-2h1c-1 2 0 2 5 2 3 0 4 0 2-1l-2-1-1-1h-2l-4-2c-1-1 0-1 2-1h7l6 1c6 1 7-1 1-1s-6 0-5-9l-1-7-1 7c0 4 0 6-1 5v-19c1-1 1-1 1 1l1 3c1 1 1 0 1-1 0-3 0-6 1-5l1-2c0-2 2-4 5-4l2-1h-4l-5-1c0-3 14-4 17-1l1 2-1 13c1 17 0 18-3 20l-2 1 2 1a5 5 0 0 0 5 1l1-1 3 1h6c3 0 5-3 2-5l1-31c1-2 3 2 3 6l1 4 1 2h1c1-1 1-1 1 1l1 5h2c1 0 1-1-1-1v-1c2 0 2 0 1-2v-1l2-2v-6l-2-1-1-1-2-1 2-1 1-1 2-2c1-1 0-1-2-1l-4-1h-1l2 2c3 0 3 2 0 2-4-1-7-4-6-7s0-3-1-4c-3-2-23-6-44-10-2 0-3-1-3-2l-1-3v1c1 2 1 3-1 3l2 1 3 3 1 1-2 4-3 3 1 3v34l-1 5c-1 0-2 0-1 1l-5 1c-3 0-4 0-2-1v-1c-1 0-2-6 0-6v-16a38 38 0 0 1 1-18v-6a24 24 0 0 0 5-1c2 0 1-1-1-1-6-1-8-5-3-5 3 0 3 0 3-4 0-5-1-5-13-6-9 0-10 0-10-2v-18c1-13 1-14 3-14 3 0 5 2 5 7l1 21 1 2 1-11c0-10 1-13 2-13 3 0 3 0 1-1s-2-1 0-1 4-3 1-3c-1 0-2 0-1-1l2-1 3-1a11 11 0 0 1 7-4l-1 1c2 2 4 0 3-2 0-2 0-2 1-1 1 2 1 3-1 4v5c3 4 3 25 1 26l-3 1h-1c0 1 2 4 4 4 2 1 3-3 3-17 0-11 0-11 2-11s2 0 0-1-2-1 2-2l4-1h-9l4-1c3 0 4-1 2-1-4 0-4-2 0-2l4-1-2-1c-2 0-3-1-3-2-1-1-2-2-10-2-11 0-13 0-16-2-2-1-3 0-3 1l-2 1v1l3-1 1-1v2c-3 3-7 1-7-4 0-4 2-5 2-2 1 2 1 2 1-1a3 3 0 0 1 5-2l5 1 9 1h1l1-1v-2l2 1c0 2 5 1 5 0l2-2a4 4 0 0 0 3-4l-1-2c0-1-1-2-9-3l-9-2c0-1 2-1 7 1l2-1 3 1c4 2 5 1 2-1l-4-3-2-1-3-2a4 4 0 0 0-4-3c0-2-8-6-12-6s-5 1-8 3m4 2-2 1-3 4-2 4h5l8 1 2-1c1-2 0-2-1-2l-2-1c-1-1 0-1 1-1v-3l-1-1-2-1h-3m-18 42a905 905 0 0 0-1 6l-2 2c-1 0-2 1-2 3v2l2-2 2-1-1 2c-1-1-1 0-1 1l-1 3-1 6-1 8c-1 3-1 3 2 3 14-3 14-3 14-6l1-2c1-1 1-25-1-26-2-3-9-2-10 1m15 49-19 2h-8l4 2 5 2 2 4 3 4v-1c-1-2-1-3 1-4v-2l-2 2c-1 1-1-1-1-3v-4l2 2 2 2 11-1c10 0 11-1 9-4-1-2-8-3-9-1m10 21 1 8c1 2 2 1 2-6 0-6-1-8-2-9l-1 7m-43-4c-2 3-3 7-3 17l-1 8-1-10a13 13 0 0 0-3-13l-1-1v7c-1-1-1 4-1 12 0 12 0 13 2 13l2-1-1-1 6-1 5 1v-4l-1-16c0-12-1-15-3-11m20 0h5l-3 1c-2 1-2 2-2 10 0 7 0 9 1 8s1-1 1 1l-1 2-1 2c0 4 2 1 3-3a4 4 0 0 1 3-5h-1a3 3 0 0 1-3-3l1-1 3-11c0-1 0-2-3-2l-3 1m77-1v30c2 0 2-2 2-15l-1-15h-1m-58 4h-3l-3 1 2 1h4l-2 1-3 1c-1 1 0 1 3 1h2l-1 1c0 1-1 2-3 1h-2l3 1c4 1 5 1 5-4 0-4-1-6-2-4m-314 12c-2 2 6 10 9 8a2 2 0 0 1 2 3h-4l8 1c0-3-6-9-10-10-4 0-5-1-3-2v-1l-2 1m254 8 1 8c1 1 0 1-1 1-3 0-8 3-6 3h1l9-1 6-2h-4c-2 1-2 1-2-2s-2-4-2-1v-6l-1-7c-1-1-1 2-1 7m-275 6c-6 2-7 3-7 6s1 4 4 3l1-1c-2 0-2-1-2-3v-2h-1l6 1c0 1 5-1 7-3 2-1 2-1 1 1s-1 4 1 4l2 2v2l-2 2 4 1 4-1v-2l2 2 1 1 1-2 3 1c2 1 2 1 2-1l-1-5c0-5-7-9-12-6h-2c0-1-8-2-12 0m19 59a884 884 0 0 0-1 19c0 1-6 3-12 3l-6 2 1 1 2 1a3 3 0 0 0 4 1c-1 1 3 4 5 4l2-1h2v-1c-2-2-2-2 2-2h7l2-1h-2c-2 0-2 0-1-1h4l2-1-2-2c-2-1-2-1-1-3v-21c-1-1-2-2-3-1v2l-2 2c-1 1-1 0-1-2 0-5-2-4-2 1m-82 3c-1 4-2 7-1 11v8l2 2c4 0 6 1 5 2l2-1 3-1 1-1-1-1c-2 1-2-1-2-10 0-11-1-14-5-14l-4 5m122-4c2 1 3 2 1 4v2c2 1 1 4 0 3l-1 1 1 1 1 2-1 2a1 1 0 0 0 0 3c1-1 1 0 1 1l1 3 1-10 1-11-5-2c-2 0-2 0 0 1m-107 4c-2 6-2 21-1 21 4 0 6-18 3-22-2-1-2-1-2 1m9 1-1 2 1 22c1 1 7-2 6-3v-8l-1-5c0-4 0-7-2-8-2-2-3-3-3 0m13 1c0 2-1 3-2 3v18l1-2v-1l1 2h5c2-2 2-17 0-20s-4-3-5 0m444 0c-1 5 0 20 2 21s2-5 1-16c0-7-1-9-3-5m-327 8-2 9 1 6h-6l-5-1 5 1c7 3 9 2 9-1l-1-4-1-3c0-2 0-2 1-1 2 2 2 2 2 0v-3a2 2 0 0 1-1-3v-3l-2 3m8 6-2 4c-2 2-2 3 0 4v2c-1 1 0 1 1 2l4-1v-1c-2 0-3-2-2-4h1l2 1c2 0-1-3-3-3s-2 0-1-1c2 0 3-4 1-4l-1 1m338 2-3 1c-4-1-9 1-9 2l1 8c1 8 2 10 3 10l1 4a4 4 0 0 0 2 5l-1 1v1c1 0 2 0 1 1l1 2c1 2-6 2-8 1h-1v1l2 3c1 3 1 4-2 1-2-2-4 1-2 3v1l-3-1-2-1h-1l-3-2c-4 0-10-3-7-3 4 0 5 0 2-1h-11l-3-1 1 2v1l-2-1c-1-2-4-2-6-1-1 1-2 2-3 1h-2l2-1c1-2 1-2-6-2-4 0-6 0-5 1 5 0 3 2-2 2l-5 1-2 3-1 5-2 6c-1 2 2 4 9 6 3 0 3 0 1 1s-2 1 0 1c1 0 2 1 2 9l-1 8-1 1 1 1 1 2v3l1 2c4 4 0 7-6 5l-2 1c0 3-5-1-7-5l-3-3v1l1 2c0 2-4 3-6 1 0-1-1-1-1 1-2 2-5 1-6-2l-1-2h-1v6l1 3 3 3c0 2-3 1-4-1s-6-2-6 0h2c2 0 5 3 4 4-2 1-6 0-7-1 0-2-1-2-2-2-2 0-3-1-3-6 0-13-1-21-3-25-2-3-2-4-1-5v-1l-2-1 2-1c1 1 1 0 1-3a5 5 0 0 1 0-5v-1l-1-1c-4 1-6 0-4-1 1-1 1-1-1-2v-2l2 1h2c2 0 1-2-1-2-1-1-2-1-1-2 1-3-2-1-4 1 0 2-1 2-2 2l-2 1 2 1c2 0 2 0 0 1s-3 1-3 7a191 191 0 0 1-1 28v7c-1 5 0 7 1 8 1 2 1 5-1 5v1l2 1a1 1 0 1 1 0 1l1 2 3 1v-3l1-1c3-1 8 0 8 1l2 1 2 1c1 1 1 1 3-1s9-2 11 0 6 1 5-1h2l1 2h2c2-1 3-2 5-1h4l2 1 3 1c2 0 0-2-3-3l-3-2h3c2 0 2 0 1-1h-7l1 1v1l-2-1-3-1c-2 0-2 0-1-2 0-2 0-2-1-1h-2l-1-2h-4l-3-2c-3-3 1-3 4-1l3 2-1-2c-4-2-4-2 2-2h5l1-1 1 3 2 1 5 1 10 1 2 2c0 2 3 4 4 4 2 0 1-2-1-2-3-1-2-4 1-5l3 1 3 2c3 1 3 1 1 2h-3l-2-3h-2l1 2 3 3c1 1 0 2-3 1-3 0-2 0 2 1 3 1 6 2 7 1l3 2 3 1v-2l-1-1h-1l2-1 1-3-1-4v2c0 3-1 4-3 3-2 0-3-3-1-3l1-1-3-1c-1 1-2 0-3-1v-1c2 1 2 1 2-2v-3l1 2c0 2 1 2 3 2 3 0 3 0 1-1-2 0-2-1-2-2 1-1 0-2-1-2l-1-1c0-2 0-2 2-2a2 2 0 0 0 4-3c1-2 1-8-1-18 0-4 0-4 2-4s2 1 2 7l1 9v11c2 2 10 3 10 1l-5-1c-4 0-4 0-3-2v-32c1-1 9 1 9 2h2v2c-1 1-1 1 1 1 3-2 7-2 5-1-3 2 0 2 3 1l3-1h2l2-2c-1 0 0-2 2-3 3-4 3-6 0-6-2 0-3 0-2 1 1 0 1 1-1 3v-1c0-2-2-3-4 0l-3 1c-2-2-1-3 1-3s7-2 4-2v-6c-2 0-3-4-1-4l1 1v2l1-1v-1c1-1 1 0 2 6v2h1l5 2c4 2 4 2 2 2l-2 2-2 2c-3 0-3 5-2 25 1 16 2 22 4 20 1-1 8 2 9 4 0 2 8 6 11 6l2 1 2 1 1-1 2-1 2 1 3 1a113 113 0 0 1 26 4h3l6 1 5 1-4-2c-2-1-3-1-2-2s1-1-1-2h-2l-1-1a2 2 0 0 0-2 1h-1c-6-1-6-1-4-2v-2h-4 2l1 1h-7l-1-2-2-2c-2-1-3-1-3 1h-1c-1 0-1 1 1 2l2 1h-2l-5-2c-2 0-3-1-3-2l-1-2-1 1-1 1h-4l2-2 4-1c3 0 3 0 2 2h1c1-3 1-3-3-3-2 0-7-6-4-6 1 0 4 2 2 2l1 1c2 2 5 2 6 1 1-2 0-5-1-5l-1 1c1 1 0 2-1 2h-1c0-3 0-4-2-4-1 1-2 0-1-1l1-2 1-1-2-1v-1c1-2 2-2 7-1 4 1 5 3 1 4-2 1-2 1 0 1 3 0 3 0 3 4l-1 3v1c3 2 3 1 4-3 0-2 0-3-1-2-1 2-1 2-1-1-1-4 0-6 2-6 2-1 2 0 1 6v7l4-1h4c1 1 1-1 1-4a7 7 0 0 0-2-6v-2l-2-3c1-2 1-2-4 1a7 7 0 0 1-8 0c-2 0-2 0-2-4 1-5 0-6-2-4h-1c-1 0-4 2-3 3h-2c-1 0-1-1 1-2 3-2 3-3-1-3-4-1-4-3 0-3s6 1 5 2l2 1c3-2 9-2 9-1l-2 5-1 4 2-4c4-7 7-8 12-5l3 1 1-1 1 5v7l1 6 1 7h-3l-2-3c0-3-2-3-2 0 0 2 3 4 7 4l5 1 3 1c3 1 4-1 1-2-1-1 0-1 2-1h4l-2-1c-2 0-4-2-4-4s-2-3-3-1c-2 1-1 2 0 3v1c-1-1-2 0-1 1h-4c-1-2-1-2 1-2v-2a4 4 0 0 1-1-2l-2-12v-7h5c4 0 5 0 4-1l1-2c1-1 0-1-3-1-4 0-5 0-4-1h-2l-4-1-3-1c-2 1-3 1-2-1l-2-1c-2 0-3 2-1 2v1c-2 0-2-1-2-2 0-2-1-2-4-2a382 382 0 0 1-12-1c-2 0 0-2 2-2 6 0-1-1-9-2v-4c2-2 1-4-1-4s-2 0-1 1c3 0 2 2-1 3-4 1-4 1-3-1l2-4 1-3a2 2 0 0 0 0-3l-1-2 1-2c2 1 2 0 2-5-1-5 0-10 2-10l1 2c0 1 2 1 4-1h1l1 1c3-1 6 0 6 2v1l1 2 1 2 1-3c0-1 0-2-1-1l-1-2 3-4 3-2 1-1h1v-1l-3 1h-3c-2 0-2 0-1 1l-5-1-2 1v1l-3-1a3 3 0 0 0-4-1c1 2-1 2-2 0-1-1-7-2-7 0l-6 1h-5l5-1 3-1 5-1h7l-5-2-5-2h8c6 0 8 0 7-1l-7-1h-8c-2 0-2 0-1-1 0-2 2-2 5-2l6-1c1-1-1-1-6-1l-6 1h-2c-2-1-2-1 1-2 3 0 3 0 3-3-1-3-1-3-4-2h-5l-1-1c-1 0-2 1-1 2h-1l-1-1-2-1-3 1m-524 4c-1 2-2 2-3 2l-5-2c-2 0-2 0-2 11v11h4c2 0 3-1 3-2h4l3 1c1-1 1-1-1-2l-1-1-1-1c-2 0-2-1-1-4l1 1 3 2v-1c-2-1-2-2-1-3l2 1h1l1 4 1 1 7 1 2 1 2 1c1 2 1 2 2 1h3c2 1 2 1 2-1-1-2-1-3 1-3h1l3 1a1 1 0 1 0 1-2l-1-1h-3l-3-1v1c1 1-2 4-4 3l-6-7-3-1c-4 0-10-2-8-3v-1l-1-1h2v-2l-1-4c1-2-2-2-4 0m171 11 1 1v2h3l1 1c-1 2 0 2 2 3l3 1 3 1c3 0 3 0 2-1l-3-1-3-1 1-1h2l-1-1c-1 1-3-1-3-3s-3-2-5-1h-1c1-1 0-1-1-1-2 0-2 0-1 1m73 10c0 1 9 5 12 5l4 1c2 2 16 2 16 0l1-2c4-1-2-3-13-5-2 0-3 0-3 2v1l-1-2h-4c1-1 0-1-1-1s-2 0-1 1h-10m173 2 1 1h1l-2 1a3 3 0 0 0 2 5c-1-1 0-1 2-1l4-1-2-2c-4 0-2-2 2-2 4-1 4-1-1-1h-7m-201 8-7 1c-9 0-10 0-8 1l1 2c-1 1-1 1 0 0l2-2h3l6 2 4 2c2 1 5 1 5-1l2-1v-1l-3-2-5-1m-105 4-1 1h3l1 1h1l-1 1h16l1-1h3l2-1a32 32 0 0 0-17-1h-8m72 3 3 2c3 1 3 2-2 2l-3 1-1 3-1 3v2a7 7 0 0 0 6 0 3 3 0 0 1 3-3c-1-1 3-5 4-4 2 0 2 1 1 2l-1 4 1 2 2-2 4-2 1-1a2 2 0 1 1 4 1v7l1 1 1-1c0-1 1-2 2-1l2-3 1-3a2 2 0 0 0 0-3l-3-1-2-2v1c2 1 1 2-1 1l-10-1-2-1 2-1v-1l-4-1h-2l-6-1m106 7c-2 2-1 4 1 2h5c2 2 2 2 3 1l2-1 1-1c1-2-3-4-5-2h-1l-2-1c-3-1-3 0-4 2m-66 1-1 1c-4-2-7 4-5 10l5-6 2-1 1-2v-3l-2 1m8 0c1 1 1 1-1 1a3 3 0 0 0-4 3v2l-1 2 1 2h2l2-1 3-3c1-3 2-4 4-5 4-1 4-1-2-2l-4 1m11 1c1 1 1 1-1 1-4 0-6 3-5 6 0 3 2 4 2 2l2-1 1-1 2-3 1-1v-2c2-1 2-2-1-2-2 0-2 0-1 1m5 3c-2 2-2 3-2 5 1 2 3 3 5 1l2-1v-3l1-1c1-3-3-3-6-1m14-1c1 1 1 1-1 1a5 5 0 0 0-5 8l5-5h2l1-2v-1l-2-2v1m209 5-3 3-2 2c-2 1-3 2-3 5v5l2-3a15 15 0 0 1 13-8c1-1 1-1 0 0-1 2 2 6 5 6 2 0 1-2-3-6-5-6-4-5-9-4m43 5-1 6c0 5-2 8-3 4 0-3-2-2-2 1l2 2 2 2c-1 1 0 3 1 4v6l-1 2 2 3c3 2 3 2 4 1l1-10-1-10c0-10-2-14-4-11m37 0c1 1 0 2-1 3s0 1 3 1h5c2 2 8 2 9 0h-2l-2-1-6-1a4 4 0 0 1-5-3l-1 1m-128 12c-1 3-1 3 1 3h3l-3 1c-2 1-2 2-2 3v2a2 2 0 1 0 3 3c1-1 1-1-1-1s-2 0-1-2h3a2 2 0 0 0 3-1 4 4 0 0 1 0-6l-2-1c-1 1-2 0-3-1h-1m233 12-2 2v2h-1c-2 0-2 0-1 1l4 1c2 0 7 2 9 4 0 1 1 1 2-1v-1h-2l-2-1-2-1-1-1h-1l-2-1-1-1h4l2 2c0 1 1 1 1-1l1-2 1 2 2 1v-1l-2-3c0-2-1-3-2-3-1 1-3 2-1 2l1 1c0 2-1 2-3 1l-3-2h1l1-1-1-1-2 2m-56 5c-1 3 1 4 5 3 2-1 4 0 8 1 5 1 7 4 3 3h-1 5c5-2 11-1 14 3 2 2 8 4 8 3l-1-1-1-2-2-1c-1 1-1 1-1-1 1-2 0-2-1-2-7-1-8-1-4-2a7 7 0 0 1 8 3l2-2v-1l-1 1c-2-2-7-3-8-3l-5-1c-6-3-9-3-9 0 1 2 1 2-2 1h-2l-1 1-2-1h-5l-3-1 1-1v-1c-2-2-4-1-5 1m74-1 2 1a3 3 0 1 1-3 4l1-1h2l-2-2-1-1-1-1-1 1v3c-2 1 0 3 2 3h1a4 4 0 0 0 6 0l1 1c-1 2 1 1 4-1l2-1v1l1-3 1-1 1-1 1-2c1-1 1-1-1-1l-2 1-1 3-1-2c1-1 0-2-1-1v1l-1 1-1-1c0-1-2-2-5-2l-4 1m26 0c-2 2-2 6-1 5l2-1 2-1 1 1 2 1h6c-1-1-2-2-3-1l-1-1 1-1c1 1 4-1 3-2l-2 1c-1 1-2 1-7-1h-3m-476 5-2 1-5 1c-1 1-5 2-8 1l-5 1 5 1 4 1c-1 1 1 2 3 2v-1c-2-1-2-1 1-1l5 1h-1c-2 0-2 0-1 1l3 2 2 1 1 1c2 0 1-2-1-3v-1l2 2 3 1h1l2 1 1 1v1l3-2h1c0 2 4 1 9-3l9-5c6-3 7-4 3-3h-6l-2 1h-3c-6-2-17-2-17-1h-1l-2 2c-2 2-2 1-3-3h-1m383 1a21 21 0 0 0 14 9h2c1-1 0-1 0 0l-2-1-1-1-3-1-4-2c-1 0-2 0-1-1l-1-2-2-1h-2m-297 2 2 1c2 0 2 4-1 5-1 2-1 4 1 4v-1c-2-1 0-2 2-1h5l2-1 3-1 4-2-1-1h-5c-2-1-4-2-5-1l-1-1-1-1h-5m41 6 2 1c2 1 3 1 2 2l1 1h4l2 3 1 5v1l-1-1-1-1c-2 1 0 3 2 3s3-1 3-2h2l3 1c3-1 4-3 2-3l-5-3c-2-3-4-4-6-4l-3-1c1-1 0-2-1-1l-5-1h-2m296 6-3 3-4 1c-2 2-4 2-6 2-2-1-3-1-4 1l-2 3v-1l-1-1-2 2-4 3-4 2 4-1 5-1c1-1 1-1 0 0l-5 3-4 1-1-1c-1-1-2-1-2 1l1 1 2 1h9c1-1 1-1-1-1s-2 0 0-1 4 0 4 2l2 2c2 0 1-2-1-4l-2-2 2-1 5-1 1-1c-1-2 1-3 2-2v2l-1 1c0 2 1 2 5 2l5-1 2-1 3 1c1 2 4 0 4-2v-3l1 1c-1 1 0 1 1 1l2 1c0 2 1 2 2 1h4l1 1c1-1-1-2-9-5a9 9 0 0 1-6-5c-2-1 0-3 3-2 3 0 3 0 2-1-2 0-3-2-4-3-3-3-3-3-6 2m155 10c-4 1-4 2 0 1h2c0 4 2 5 4 3 5-4 0-8-6-4m-736 1c-1 2-1 2-2 1l-1-1v2h-3c-1-1-1-1 0 0l2 2c2 1 2 1 1 2-2 1-3 0-4-2l-2-1h-5c-1 1-2 2-4 1-2 0-2 0-1-1v-1l-2 2-1 1h-3v1c2-1 3 1 1 3v2l-2 1c-2 1-4-1-3-2l-2-2c-3 0-4-2-2-2v-1c-2 0-4 3-4 4h6c0 2-3 4-4 4l3 1c4 1 5 1 9-1 6-3 9-4 16-5a8 8 0 0 0 6-2l6-5c0-3-4-3-5-1M0 461v51l1-103-1 52m579-45v1l-1 1v13l-2 11v6c0-3 2-3 2 0v3c0 1 1 2 3 2 1 0 2 0 1-2l1-4c1-1 2-3 1-4l1-1 1-4 1-6a11 11 0 0 0-5-17c0-1-1-1-3 1m164 26c-1 0 3 5 4 4l1 1 2 1 3 2h2c1-1 1-1 1 1 1 2 5 3 5 0l-2-1c-2 1-2 1 0 0l1-2h-6c-5-1-5-2-5-5h-2l-2-1h-2m61 0v4c-1 1-1 0-1-1l-1-1h-2c-1-2-3 0-2 2h2a1 1 0 1 1 1 3l-2-1-3-1c-1 1-1 1 1 2l2 1 1 1h1l1 1 1-2c-1-2 3-5 5-2l3 1h3l2 1v1c2 0 3 0 3-2h-2l-3-1-2-2-3-3-2-1h-3m-360 5c-2 2-6 3-8 1h-2l-3 2c-1 0-2 2 0 2 1 1 2 5 0 4v-1l-2-1c-2 1-2 0-2-1v-1l-2 2c0 2 1 3 2 3l1 2h1l3-1c2 0 2 0 2-2-1-2 1-6 4-5 2 0 4 0 5-2l2-1 1 1v-4l-2 2m83-1-4 1c-4 1-9 5-9 7 0 3 6 10 8 10s9-9 9-11c0-4-3-8-4-7m9 2v3l-2 5-3 4c0 4-12 6-16 3-2-2-2-2-3 0-1 4 1 5 7 4h4l-3 1-3 1-3 1-6 2c-2 0-2 0-1-1v-1l-5 1-3 1h3c3 0 3 0 2 1a122 122 0 0 1-26 7l-15 5h3l8-1 2 1c-2 2 4 1 12-2l9-4 12-4 15-5c4-1 5-2 4-3l1-2 2 1h2l6-2 6-2v-4c-1-5-7-12-9-10m-94 21c1 1 1 1-1 1l-5 1-3-1h-1l1 2v2l-1 2 2-2c2-2 4-2 4 1l1 1 1-2 2-1 1-1 1-2c3-1 2-2-1-2-2 0-2 0-1 1" fill="url(#16282281824-posters-1652916426252-horizontal-regular)" stroke="url(#16282281824-posters-1652916426252-vertical-light)" fill-rule="evenodd" tabindex="-1"/>
  <path id="16282281824-posters-1652916426252-bold" d="M0 12v13h819l1-13V0H0v12m422 53-2 4s-1 2-3 2c-2 2-2 2 0 2l-1 2c-3 1-2 2 1 0l3-1-13 6-3 2 4-1h4l2-1c2-2 7-3 7-1l-1 1-2 1h2c2 0 1 1-2 2-7 2-9 4-5 3l12-5c-2 0-2-1-2-3l-1-3 5-1 6-1h-6c-9 0-9 0-8-1l4-1h3l-3-1c-2 0-2 0 0-3 3-5 2-5-1-2m12 29 2 2a5 5 0 0 1 4 2c-1-1 1-2 3-2 10 0 8-3-2-3l-7 1m-15 40a10 10 0 0 1-5 0c0 2 3 4 8 4 3 0 5 0 4-1l-2-2c0-3-1-3-5-1m-46 9 1 1h1-4c1 2-1 3-3 2l-2-1 1 2 1 3c0 3 1 4 3 4 4 0 5-1 5-5 0-7-1-9-3-6m61 3-4 1-3 1h3c2 0 3 1 5 4l4 4 1 2v3h-2l1 1v7c0 6 1 5 2-2l1-4 1-2-1-2v-2l1-2h-1c-2 1-6-4-5-6 0-2-2-4-3-3m24 6 8 2h4l8 1c8 1 4-1-6-2l-11-2-3 1m-76 6v4l-1-3-4-3c-2 0-2 0 0 1l3 3h-2l-3-1c0-2-6-1-7 1l-2 2c-1-1-1-1 0 0s4 0 4-1h3l4 1 2 1c2-1 1 0 0 0l-2 2 1 4 1 3v2c0 2 0 2-1 1s-1-1-1 1 0 2 3 1c2 0 2 0 1 1l-3 1a1 1 0 1 0 1 1l3-1c1 1 1-1 1-6v-7h3c2 0 3 0 2 2l1 10 1 8v-18c0-3 0-3 3-3h4l-3 1c-3 1-3 1-1 1 3 0 3 1 5 16 0 7 3 8 3 1l2-2c1-1 1 0 1 3l1 6c1 0 2-7 1-20 0-5 0-5 2-6s2-1-1-1c-3 1-4-1-1-2l1-1c-1 0-2 0-1-1l-1-1-1 2a1 1 0 1 1-2 0h-5l-2 2a3 3 0 0 1-4 0h-4c-3 0-3 0-2-1v-4c1-2 5 0 4 2l1 1 2-1c0-1 1-2 3-2h3l-3-1-8-1-6-1 1 3m-23 6c0 3-1 3-4 3-4 0-4 0-1 1l3 1h-3l-3 1h3c3 0 3 0 3 3l1 29 2-25c0-5 0-6 2-6 3 0 4-3 1-4-3 0-3 0-2-3v-3l-2 3m83 8v8c0 7-2 8-2 1v10l-1 3c-3 1-2 5 0 5 2 1 3-2 3-8v-5l1-8-1-6m-19 15a2 2 0 0 0-3 3c-1 1-1 1 1 1l1 1c0 2 1 2 3 2l5 1h3v3c2 0 3-3 2-5h-8c-1 0-2 0-3-2l-1-2v-1a3 3 0 0 0 3-2l-3 1m-25 14-4 1c-12 0-18 1-18 2h2l4 1-2 1-3 1h4l3-1c-2-1 1-2 4-2 4 0 5 0 3 1l-2 1h2c4 0-2 2-7 2-6 0-10 1-10 2h3c2 0 3 0 2 1-1 0-1 1 2 1 4 2 4 3 0 4l-3 1-1 1c-2 0-3 2-1 2v1c-3 0-5-2-3-3 1-1 1-1-1-1s-2 0-1-1 1-1-1-1-3-2-1-2l-2-1c-4-1-11 0-11 1h5c3 0 4 0 3 1-2 1-2 1 0 1s2 0 1 1c-2 0-2 1-1 1v2l-1 2-1 1-1 2v1l-2 1c-3 1-3 1-1 2l1 1c-3 0-1 2 1 2l2-1 2-3h2l-1 2-1 1h4c3 0 3 0 1 1-4 1-3 1 3 1 2 0 3 0 2 1l-3 1h-3c-3-2-10-2-10 0l2 1h4c2 1-1 5-4 5-2 0-2 0-1 1l4 1h1l-2 2c-3 1-2 2 2 2h2c-1 2 1 1 4-2l3-2 2 2c2 2 2 3-1 1-2-1-5 1-3 2 1 1 0 1-2 2-5 0-6 2-3 3 2 0 2 0 0 2-1 2-1 2 1 2l2 2h-3v7c2 2 5 1 7-1 1-2 2-2 6-1 3 0 3 0 1 1l-1 1v2l2-1h6l-1 2v2l1 4c0 2 2 3 4 1l1-4v-2c2 0 1-2-1-2-1-1-1-1 1-1l2-1-2-1c-2 0-2 0 0-1v-1c-2 0-2-1-2-4l1-3-3 3c-2 3-3 3-1-1l3-4 3-2 1-3 1 1c-1 1 0 1 1 1 2 0 2 0 1-3-1-2-1-2 1-2l3-1-1-1c-2 0 0-2 3-2 2 0 2 0-1-1l-3-1h4c2 0 4 0 3-1v-1l-3-1c-3 0-5-1-3-2 1-1 0-1-2-1l-11 2a14 14 0 0 0-8 2c-2-2-1-3 5-3l37-3 9-1-15-1h-13l7-1 5-1c-1-1-15 0-24 1-7 1-9 1-4-1l2-2 1-1 2-2h1l3 1v-2c-2 0-2-1-1-1 2-1 1-3-1-3 0 1-1 1 0 0l-1-1-1 1-2 1a2 2 0 0 1-3-4v-2l1-2-1 1-2 1c-2 0-2 0 0-2h7l2 2c2 0 2 0 1-1l-1-3c0-4 4-3 6 0s5 4 4 2v-1l1 1h2c2 0 2 0 0 1-1 1-2 1-1 2l-1 1h-3l3 1 2-2c0-2 1-1 3 1h4l3 1-3 3c-4 5-2 7 5 3 2-2 3-3 2-5l1-2c2 2 1-3-1-4l-1-2c2 0 3-3 1-3l-1-1-12 1c-2 2-7 1-6 0 0-1-1-2-3-1-3 0-3 0-2-1l7-1 4-1h-9m-26 3c0 2-1 2-1 1h-7a11 11 0 0 0-11 4l-1 1h-2c-1 1 0 2 1 1l6-1a3 3 0 0 0 5-1c2 1 11-1 11-3 1-3 0-4-1-2m52 1 1 5c0 3 0 4 2 4l2 1h4a7 7 0 0 0 6 1c1 0 2 0 1 1l-2 1-2 3c-2 3-1 2 4-1 4-2 6-5 4-5s-3 0-3-4c0-3 1-4 2-5 3-1-1-2-11-2-8 0-9 0-8 1m26 4c-1 3 2 6 5 6v-1c-1-1 0-1 2-1l4-1h-6l-4-1 4-1h1l-1-1h6l8-1-5-1h-7c-2-2-7-1-7 2m-374 3-1 2c-4 3-2 3 5 3 11-2 12-5 1-5h-5m-20 24-6 1h5l7 1h1l-6 1-1 1c0 1 7 0 9-2l4-2c4-1 5-1 1-1l-4 1H56m354 6-3 2-2 1c-2 0-3 2-3 6l1 2 1-2c0-2 0-2 3-2h2c-2-1-1-3 2-2 2 0 3-1 0-3v-1h2c0-1 0-2-3-1m42 1 1 3 2 1 2 1h1c1 0 1-1-1-2-1-1-1-1 1-1l2 1 1 1 3 4 2 4-1-5v-1l1-2 1-3c1-1 1-1-1-1l-3 1c1 2-1 2-2 0h-4l-2-1v-1l-3-1v2m-11 0c0 1-4 3-7 3v-1c1-1 0-1-2-1l-6 1c-2 0-2 0-1 1 2 1 2 1 0 2-3 1-3 2-2 5l2 3v-1h4a2 2 0 0 1 2-1c1 1 1 1 0 0l-1 1a2 2 0 0 0 4-2 3 3 0 0 1 2-5l1 1c2 1 3 1 3-1-1-2 2-4 4-3 2 0 2 0 0 2v2l3-2c1-1 1-1 0 0l2 2c3 0 3-1 0-3-3-3-10-5-8-3m-305 9c0 1 1 2 2 1a1 1 0 1 1 0 2l-1 12 1 12 1-12c0-12 0-12 3-12 1 0 2 0 1 1l1 2 1-2c0-3 0-3-6-4h-3m-35 2 1 1v1l-1 1-1 1h2l1 2v2l1-2c0-1 0-2 1-1l1 4a3 3 0 0 0 3 4c1 1 1 1 1-3l-1-5-4-2v-2h2a4 4 0 0 0-6 0m312 2-1 1-2 1 4 1 4 1 3 1c2 0 2 0 1-1l-1-1-2-4-1 1c1 1-3 3-4 2l1-1c3 0 2-2 0-2l-2 1m-12 4-1 3v-2l-2-2c-2-1-2 0-2 1v5c-1 2 0 4 2 4v1l-1 2 2-1h1l-1-3c-1-2-1-2 1-2h2l-1-1v-1l1-4-1-3v3m-40 8-2 12c-1 16-1 17 3 17 1 0 2 0 1-1v-29c-1-2-1-2-2 1m11-1c4 1 6 5 4 5l1 1c2 1 2 1 1 2-2 0-2 0-1 1v2c-2 1-3 1-2-1h-1c-3 0 0 3 2 3h2l1 1c1 1 2 0 1-1 0-1 0-2 2-2 1 0 2-1 2-6v-5h-4a64 64 0 0 1-8 0m-23 13 1 6h1l3-2c4-4 4-8 0-9l-4-1-1 6m-270 5c1 1 0 2-1 2-2 1-2 1 0 1l2 2-1 1h-1l1 2c1 0 1 1-1 2v1h3l1-1h3a19 19 0 0 1 1-5h5c2-1 1-1-4-1l-5-2v-3c-3-1-3-1-3 1m299 3v1c2-2 3-1 2 1-3 4-3 4 1 4 3 0 3 0 2-1s-1-1 1-1h3l-3-1c-2-1-2-1 1-1s3 0 2-1v-1c4 0 1-1-4-2-4 0-5 0-5 2m-290 4c-2 0-2 0 0 2l3 1h-3l-2 1h9l1-1v-1c1-2 1-2-1-2h-7m270 7-2 1-1 1h-3c-1 2-2 2-2 1h-1v2c2-1 2 9 1 11-1 1-1 1 1 3 1 1 2 1 3-1s2-2 3-2v-2c-1-2 0-2 3-2h5l2-1c1-1 1-1-1-1-2 1-3 0-1-1l1-3c0-2 0-2-2 0l-2 1 1-2 1-3c1-3-1-4-6-2M82 311c1 1 1 1 0 0l-2 1h-3l-1 1-2 2h-1c0-2-2-1-3 0-1 2-7 2-8 1h-4c-1-1-1-1-1 1-1 2-5 2-6 0h-1l-4 1h-7l-1-1-1 1 1 2 3 1h-3c-3 0-4-1-4-3s0-2-3-1c-4 1-5 0-2-3h1c0 1 6 0 7-2 1-1 1-1 0 0l-6 1c-2-1-4 0-5 2l-3 1h-1l-1 2v-2h-2c-3 1-3 1-2 2h-7c-10-2-10-2-10 13 0 10 1 13 2 14l1-1c0-2 2-2 2 0 1 1 4 2 4 0l2-2c2 0 2 0 1 2-1 5-2 5-7 5H2c2 1 2 1 1 4l-2 1-1 1 2 1 3 2 4 1h3l2 1-1-3c-1-2 0-4 3-4l2-1c0-2 4-3 5-2v4c-1 0-2 1-2 3-1 3 1 4 2 1 0-3 2-1 2 2s0 4 2 4l1 2c0 2 1 3 2 2l1 1a12 12 0 0 1-16-1l-2-1 2-1h2l1-1 1 3 1 2 1-1c-1-1 0-3 1-3 1-2 1-2-1-2h-3c-2 2-9 1-8-1 0-2 0-2-2-2-1 0-2 0-1 1 2 1 0 3-3 3s-4-4-1-4c2-1 2-1 0-1-3 0-3 0-3 4l1 5v4l-1 1h2a2 2 0 0 1 5 2h1l2 1v-3l1-1-1-1-3-1-2-1-1-1c0-2 2-3 3-2l3 1h1c-2 1-1 3 2 3l5 3 2 1-1-2h1l4 3 4 2 3 1c1 1 1 1 1-1h2c1 2 1 4-1 4-2-2-2 1 1 3a2 2 0 0 0 3-1h-1c0-1 1-1 5 1 3 2 3 2 2 0-2-2-2-2 0-1 4 1 5 2 4 5v1l1 1 1 1 3 1 3 2c2 0 2 0 3 2l-1 2-1-1h-5l1 1h2c2 2 5 3 5 1l3-2 3-1h-3l-3-2h4l5 1c2 2 7 2 5 0v-2l-1-1v-1l-1-1v-1c1-1 1-1 3 1l3 2-1-2c-2-1-2-2-1-2h2c0 2 2 3 2 1a3 3 0 1 1 5 2c-1 1-1 1 1 1l2 2h1c1-1 5 0 6 3l1-2c0-2-3-6-3-4h-3l2-2c4-2 6-6 6-18l1-8v-4l1-5c2 0 3 3 1 4v4l-1 5 1 3v1c-2 1-2 6 0 6v1c-2 2-2 7 0 7s3 2 2 3l2 1c2 0 2 0 0 1-4 1-5 1-5-1h2v-3h-2l-3 1c-2 2-2 2 0 4 5 5 5 5 8 4 3-2 3-2 4 0h1l1 1h-4l-3 2-2 1h-3c-5 0-12 2-14 4l-2 1-4 1c-2 1-2 1 0 0 4 0 7 2 6 4-1 3 0 4 1 2l4-1c2 0 2 0 1-1-1-2 0-2 2-1 4 0 5-1 2-2v-1l2 1c1 2 4 0 3-2 0-2 4-4 5-3s-1 3-3 3c-1-1-1-1-1 1l1 2 1 1h2c1 1 1 1-1 2l-2 2-1 1v1l2-2h1c1 2 1 2 1 0l2-2h1l3-1h3l10-2 2-1-1-1-2-1 3-1 4-1c1-1 1-1 0 0l-2-1c1-2-7-3-8-2h-1l2-3c2 0 2 0 1-1h-7c3-2 2-4-2-3l-4-1h2l4-2c2-2 6-2 6 0l2 2c2 1 3 0 1-1v-3h2c0-2 3-1 4 1s2 1 2-1c0-3 3-4 5-2h-1v1l1 3c-1 1 0 1 2 1l4 1c1 1 9 0 10-1h5c1-1 1-1 2 1 2 3 3 2 3-1-1-3-1-4 1-3 2 0 7 6 7 7h2l4-1c3 0 6-3 4-3l-4 1c-4 2-7 0-7-3 0-2 0-2 2-1a3 3 0 1 0 1-5c-1 0-2 0-1-1h3l2-1v-3l1-1h-1c-3 0-4-2-1-2l2-3 2-2v-1h-1l-1-1c0-2-3-1-3 1v2h1a2 2 0 1 1-3 1l-1 1h-4l-2 2-3-1a9 9 0 0 1 5-4 2 2 0 1 0 3-3c2 0 6-5 5-7l1-2 1-4c0-3-1-5-2-4l-1 2v1l-1 3-1 4v4l-2 1h-1l-3 2c-1 3-4 4-3 2s0-2-1-2l-2-2c0-2 1-3 3-2h1v-1l3 1h1l-1-1v-6c0-3 0-4-1-3l-1 3a2 2 0 1 1-3 0l-1-4c-1-1-1-1 1-1h1l-2-1c-3 0-4-3-1-4l5-1c3 1 4 0 4-1l-2-1-1-1c1-1-1-5-2-5l-2-1h2c2 1 4-3 2-5l-2-4-1-2-1 4c1 5-1 9-4 10-4 0-5-1-2-3a6 6 0 0 0 0-9c-1-1 0-2 1-1a2 2 0 0 1 1 2 5 5 0 0 0-3-6l-2-1c-2 0-2 0-1 1s0 1-3 1l-6 2-3-1c1-1 0-1-1-1-2 0-2 0 0 2a5 5 0 0 0 6 2c-3 2-8 2-8 0l-1-2-1 3c0 3-2 5-3 3l1-1a2 2 0 1 0-3-1l-2 2v1l-1 1a9 9 0 0 0-6 5l1-1 2-1 1-1 2-1 2-1c0-1 1-1 1 1v4c1 0 2 0 1 1l1 1h2a3 3 0 0 1-6-2c1-2-2-1-3 0-1 2-1 2 1 3 1 0 1 1-2 3l-1 2c2 0 2 0 1 1h-3c-2-2-3-5-1-3v-3h-3 1v1h-5c-4-2-4-2-4 0v1l-1-1c0-2 4-5 6-4v-1l-4-1c-2 0-4-3-3-5l-2-1-2 1a1 1 0 0 0 1 2c1-1 2 0 3 1 1 2 0 3-4 6a9 9 0 0 0-5 5l-1 3c-1 2-2 2-4 2h-3c0-1 1-2 3-2l2-2 1-8-1-7-1 3c0 2 0 2-4 2l-4 1-6 1-4 1-2 2v1c2-1 3 0 2 2-2 1-1 1 3 1l4 1h-2c-2 0-2 0 0 1h2l5 2-3 1c-3 0-3 0-2 4v6h-2a26 26 0 0 0-2-5v2c1 1 1 2-1 2-3 2-3 1-3-3a5 5 0 0 0-1-5c0-6-10-10-12-6-3 4-1 4 3 1 3-2 3-2 1 0-3 3-4 5-4 13l-3 7c-3 2-6 3-6 1 0-1-5-2-7-1v3c0 3 2 2 1 0 0-2 0-2 2-2 4 0 4 4 1 5-3 0-3 3 0 3l3-3c0-2 1-3 2-3l3-1c2-6 4 10 2 16l-1 2c-2 0-3-4-2-5v-3l-1-2h-3c-1 1-2 3 0 3l1 2-1 2a2 2 0 0 0-5 1c-2-2-1-3 2-3l2-1-3-1-3 1h-3l-2 1-2 1-2-1 1-1c0 1 3-1 3-3l-2-1c-2 1-4 0-2-1 3-2 0-2-3-1-3 2-5 0-2-3 2-2 3-2 3 0h1a3 3 0 0 1 4 0c1 2 1-5 1-10l1-3 1 1c-1 3 1 5 4 4 4 0 5-2 1-1a2 2 0 1 1-1-4h6l-1-3c-2-2-3-3-3 0 1 2 1 2-3 2-3 0-5-1-5-2l1-1 4-1h-1c-3 1-4-1-2-3l4-1 4 1c1-1-1-2-3-2-3 0-8-4-6-4l1-1v-2l2 2c1 2 2 3 4 3h4l-2-3c-2-2-3-3-6-3s-4-3-2-5v-1h6l7-1h-3c-4 0-6-1-3-3v-1h-2l-1-1h-2v-3h9c6 0 7 0 6 2l-1 2v1h4c-2 0-2-3-1-5 1-1 2-1-9-1l-8-1h-2c-1 1-1 1-1-1 1-2 5-3 10-2 2 0 2 1-1 1-4 1-3 1 2 1l7-1c3-2 7-2 7-1l6 1 5-1c0-2 0-2 1-1h1l-1-2c-2 0-1-2 1-2 2 1 5 4 5 6v2l2-1 2-2c1-1 1-1 0 0l1 1 1-2 2-2 2-2c0-1-1-2-3-1-4 1-6 0-3-2 1-1 1-1-1-1-1 1-3 0-4-1-2-2-4-1-2 1m304-1-1 1c-2-1-4 3-3 3 1 1 0 1-1 1l-2-1c0-2-3-3-4-3a8 8 0 0 0 6 7h1l1-1 1-2a1 1 0 1 1 2-1h3c4-1 4-3 1-2-2 0-3 0-3-2h-1m-49 10 1 2 2 1h-2l-2-2h-1c-1 1 0 2 2 4l1 3-1-1c0-1-1-1-3 1l-3 1 3 2c3 2 4 2 4 0l-1-1-2-1c0-1 3 0 5 2 2 3 3 2 3 0v-5a5 5 0 0 0-3 1v-1h2l4 1v3l-1 2v1l-1 1-1 1 1 1h1l2 1-1 1c-3 1-6 0-6-1l-2-1h-3l-2 1c-2 0-2 0 0-2s0-5-3-3h-2v6c2 0 3 0 3 3 0 2 1 3 6 3l7 2 3-1v-4c0-1 0-2 2-2v5h2l2 2a6 6 0 0 0 2 2h-13l-4 1 2 2c3 3 3 3 1 2l-4-1c-1-1-1-1 0 0l2 2h-4c-5 0-5 0-1 1l5 1c2 1 2 2 1 4-1 1-1 1-2-1h-1l-1 2c-1-1-2 0-2 1h-2v-2c-2 1-5-1-5-3 1-4 0-5-2-3v2c1 1 1 1-1 1-1 0-2 0-1 1l-2 1h-1l-4 1c-5 0-6-1-4-3l1-2c-1-1 0-2 1-2h7v-2l-2-2h-1l-2-1c-3-2 0-3 4-2 5 1 5 1 5-5 1-4 1-4-1-5l-3-2h-2c0-2 1-2 4-2l3-1c-1-2-8-1-13 0-4 2-8 7-6 8v1l-1 8c0 9-1 10-3 10-2-1-7 0-7 1h1l1 1c-2 2-9 2-8 0l1-3 1 1c-1 1 0 2 1 2l1-5 1-2c2 1 4 0 3-1v-2c2-2 4-3 3-1l1 1 1-2 1-1v-6l-4-4c-2 0-2 0 1-1l4-2h-4c-4 0-5 2-2 4 1 1 2 2 1 4-1 4 0 4 2 2 2-1 2-1 1 1s-1 2-5 1c-2-1-2-2-1-2l2-1h-2a1 1 0 1 1 0-3l-1-1-4-3-1-1c0-2-9-2-10 0l1 1v1l-1 2-3 3 1-1h3l-2 2c-1 1-2 2-2 5l1 3 2 1a5 5 0 0 0 3 3v2l-1 1-1-1v-3c-2-1-2-1-2 2 0 2 0 2-1 1l-1-1 2 3v1c-1 1-2 2-2 5 0 2 0 3 1 2l1-1 2-2c1-2 1-2 2-1h1v3l-2 1v2c2 1 10 2 12 1h2c1 1 1 1-1 2l-2 1h2l3-1h2c2 2 1 3-1 3l-3 1h5l4 1h5s0 2 2 3l2 2v-2c0-2-1-3-2-2l-1-1c1-1-5-3-8-2v-2l1-3 1-2v3c-1 2 6 4 15 4l2 1 1 1h5l2 1 1 1h1l4 1 2 1 7 1h7l-1-3c0-2 0-3 2-4l2-1c-3 0 2-2 5-2a5 5 0 0 0 4-2h-12c-3 1-3 1-5-1h-2c-2 3-4 2-5 0l-3-2 1 2c2 1 1 2-3 2-7 0-13-1-12-2h-1a6 6 0 0 1-7-1h5c1 0 1-1-1-1v-1c2 0 3-2 2-5 0-2 5-1 7 0 2 2 1 3-5 4-2 0-1 2 1 2l1 1h3c-1 2 1 2 5 1 2 0 3 0 2-1-3 0-2-2 1-2 5 0 7-1 6-2l3 1c2 1 4 2 5 1l5 1 2 1-1-1v-1a4 4 0 0 1 6 2h3c2 0 3 0 2 1h2l4-1-2-1c0-2 4-1 4 1 1 2 0 3-2 3-1-1-2 0-2 1l-1 1c-4 0-4 1-4 2 0 2 0 2-4 1h-2l3 2c4 0 5 3 3 4h-1v-2h-2c0-2-6-1-7 0-2 3 1 4 4 2h2c0 1 4 2 5 1 1-2 6-2 6 0l-1 1a2 2 0 1 0-2 2 30 30 0 0 1 5 0l-1-3c0-2 1-3 3-1l-1 1c-1-1-1-1 0 0s1 1 3-1l2-2h-4l-5-1a1 1 0 1 0-1 1h-1c-3-2-2-4 6-5 4 0 6 2 3 3-1 1 0 1 1 1 2 0 3 0 2-1l1-2h4c-1 2 1 2 3 1 2-2 4-2 4-1l-1 1h-3l-4 3c-4 1-4 3-1 3a2 2 0 1 1 0 4l-1 1-2-1c1-2-3-1-4 1v3c2 2 6 4 5 2l2-1h6l5-1v-1l-2-1c-4 0-4 0-4-4 0-5 0-5 3-5l3-1c2-1 4-1 4 1l-3 1-3 1 2 2 2 1c-1-3 1-2 3 0 0 2 2 3 2 2l3 1h1l-2-2c-3-2-4-5-3-7s1-2-3-2l-3-1c-1-1 1-3 4-2l2-1-1-1v-2c1-1 1-1 0 0l-2 1-2 1c-1-1-2 0-2 1-2 1-8 1-8-1h3c3 0 3 0 2-2v-3c0-7 0-8 3-9l3-1-2-1c-4-1-6 0-5 4 0 2 0 2-2 1v1a3 3 0 1 1-4 5l2-1h1c0-1-6-3-8-2-2 0-1-3 2-4 2 0 2 0 1-1s-2-2-1-3 4-2 6-1c1 1 1 1 0 0-1-2-1-2 1-2h6l6 3-1-2-1-2c1-4-2-7-5-6-2 0-2 0-1-1v-1l-4 2c-4 3-5 4-5 2l-1-2v-7h-2l-2-2 8 1h6l-2-1a2 2 0 1 1 1-2c3 2 9 3 8 1 0-1-1-2-2-1-2 1-4 1-5-1h1v-8h7l1 7c1-1 1-7-1-10h-1l-1 2-1-1-6-1c-5 0-5 0-3 1 4 2 4 6 0 8-4 1-6 0-6-3l-1-2-1-1v-1l-1-1h-6l-2 1-1 2 1 1h-3c0-1-1-2-3-2s-3 1-3 2l-1 2c-1-1-1 0-1 1l-1 3-1 2c1 2 0 3-1 3-2 1-5-1-6-4l-2-4v-3h3c2-1-1-4-3-3l-2-1c1-1 0-1-2-1l-4-2c0-2-1-2-2-1h-4m163 0h4c3 0 3 0 2 1s-1 1 2 1l3 1v2l2 1c2 1 2 2-1 3l-2 1 2 1 2 1 1 2c2 1 3 2 4 1h1c-1 2 2 2 4 1h3v-1l1-1c1-2 0-3-2-2-3 1-4 0-2-1v-1l-3 2c-2 2-4 1-4-2l2-4c2 0 2 0-1-2l-5-2-4-2c-3-1-10-2-9 0m-8 5h1l1 1c-1 2-1 2 1 1h4l3-1c2 0 2 0 1 1-1 0-2 1-2 3s0 3 1 2l2-1v-1l-2-1h2l2 3 3 1c1 0 2 0 1-1-3 0-4-4-3-6v-1h-15m-343 2v4l-1 1-1-1h-3v3c-2 2 0 4 2 2h2l-1 1v7l5 1 2-1-2-1c-1-1-1-1 1-2s2-1 1-2l-4-2 1-2c3-2 3-10 0-10l-2 2M2 329v4c-1 4-1 4 1 4l1 1 1 1c2 0 4-3 3-5l2-1c2 0 2 0 1-1H9l-1-1v-2l-1 1a1 1 0 1 1-2 0l-2-2c-2 0-2 0-1 1m56 5 1 2c2 1 1 2-1 5-2 2-5 10-5 12l2 1c2 0 2 0 1-1v-3c2 0 2-1 1-1v-1c0-1 1-2 2-1v-1c-1-2-1-2 1-2l1-1 1-1 1-3c1-2 1-2 3-1l3 1-2-2h-4l-3-2-2-1m304 1v3h4l-1 2c-2 0-1 2 1 2l1-2c0-1 0-2 1-1l2-1h3c1 2 5 1 5-1 2-3-2-3-8-1-3 1-3 1-5-1s-2-2-3 0m-347 1v9c-3 1-1 3 4 3h6a3 3 0 0 0 0-4 3 3 0 0 1-6 0 2 2 0 0 0-1-4v1a6 6 0 0 1-1-7l-2 2m121 3c0 1 4 4 6 3a1 1 0 1 1 0 2l-1 1 1 1 3 1 3 2c1-1 0-4-2-4l-2-1a20 20 0 0 0-1-5h-7m24 0-1 1c-2-1-4 3-3 4 2 1 9-1 9-3s-3-4-5-2m62 2-1 3-1 1c-2 1-2 2-2 4l-1 5 2 2v1c-2 0-2 19 0 19h3c3 1 8-1 8-3h-1l-1-2-1-2-1 1c0 2-3 3-3 2v-1l1-3c0-2 5-3 5 0 1 1 1 0 1-1 0-2 0-3-2-2-2 0-2 0 0-1l3-2h-3c-3 1-3 1-2-2l-1-4-2-4v-5c-1-1-1-1 0 0l1 1 1 1c2 0 1-4 0-5-3-2-2-3 0-2 2 0 2 0 1-2-2-2-3-1-4 1m20 0v4l1 3-2-2-1-2-1 2c-2 3-3 13-1 12v-2l1-1v5l-1 1a4 4 0 0 0 0 6l-1 1 1 1h1l-1 1c-1 0-1 1 1 2v1l-2 1h8c4 0 5 0 5-2s0-2-2-1c-2 3-2 2-1-2v-6c1-4 1-4 2-3v-1c-2-1-2-2-1-3v-1c-2 0-2-1-2-3 0-4 0-5 1-4l1-1-2-1-2-1 2-1v-2c-2-2-2-2-4-1m126 0 1 1c1 1 0 4-2 4-1-1-5 1-5 3l4 1c5-1 5 0 1 1-3 1-5 4-2 5h4l3-1a3 3 0 0 1-2 4l2 1c2-1 3 0 2 2l1 2c2 0 4-3 4-4v-1c2 0 1-3-2-3-2-1-3-1-2-3 0-1 0-3-2-4-1-1-1-1 1-1l3-2c1-2 1-2-2-2-4 1-6-1-5-3l-1-1-1 1m109 4a18 18 0 0 0-5 12l-1 4 1-5-1-7-1 5 1 7v3l1 1 1 2c2 2 2 2 1 3s0 4 1 4c2 0 3-3 2-5s1-4 2-3l1-1 2-2c9 0 9-15 0-21-2-1-2 0-5 3m45 3c-1 10 0 18 2 21 1 2 1 2 1-11 0-11-1-16-2-16l-1 6m-264-2a5 5 0 0 0 0 6v6l1 1 1 1c1 1 1 1-1 1s-2 3 0 3l2 1-1 1c-1-1-1 0-1 2v4c-1 2 0 2 2 2 3 0 4-2 2-5-1-1-1-1 0 0a1 1 0 1 0 1-2 1 1 0 1 1 1-2l1-1h-2l-2-1v-4c-1-1-2-2-1-3v-2l-1-3c0-3-1-6-2-5m130 3h-5a4 4 0 0 0-5 2h-1l2 2 2 1c1 1 6-1 7-2l2-1c1 1 4 0 4-2 0-1-5-2-6 0m-32 2h-2l-1-1v1c2 2 1 4-2 3l-4 1h2l5 1c2 2 3 2 4 1h1c1 1 1 1 1-1v-3l1 1 1 1c2-1 1-3 0-3l-2-1c0-2-1-2-4 0m-264 1c-2 0-3 1-2 2h-3l-1-1c-1-2-2-1-1 2 1 2 2 2 4 2h1c-2 2-2 2 1 3l2 3-1 4-5 1c-4 0-4 1 1 3 6 3 6 3 7-9v-11l-3 1m64 0-3 1c-2 0-2 1-2 3 0 3 2 4 5 2 4-2 5-4 2-3a1 1 0 1 1 0-2l1-1h-3m39 0c-2 0-3 2 0 2l1 2v1c2-2 4-3 4-1h-1l-3 3v6a8 8 0 0 1 5 4h-1l-2 1a2 2 0 0 0-1 3h3c0-2 0-2 1-1h3l3-1h-5l2-1h3c1 1 1 1 1-1 0-1 0-2-2-1l-3-1c0-1 1-2 3-2l2-2h-2l-2-1 2-1 2-1-2-2h-1l-2-2v-3l-1-1c-2-1-3 0-3 1v1l-1-1-3-1m-43 18-1 2-1 4-1 3c-1 1-1 1 1 1l2-1c1-2 2 0 1 2v2l1 1 3 1 4-1c0-2-3-3-5-3-1 1-1 1 0 0v-2l-1-2c1-1 0-2-1-2v-6h-1c-1-1-1-1-1 1m192 3 1 1c3-1 2 1 0 2-2 0-2 1-2 3l2 1h3c2 0 2-1 1-2v-4c0-2-4-3-5-1m-187 5 2 1h3c-1 4 6 4 8 0l1-3-1 2h-2c-2-2-11-2-11 0m126 0h-3l-2 1h-1l-2 1c-2 2-2 2 0 3h6c3 1 3 1 2-1s-1-2 1-2h5c-1-2-4-3-6-2m-162 2-1 1c2 0 2 0 2 2l-1 2h-1l-2 1 1 1 5-1 5-2c1-1 1-1-1-1h-3l1-1a1 1 0 0 0-1-3c0 1-1 1 0 0 0-1-1-1-4 1m176 5-6 2c-1-1-6 1-7 3-1 1-1 2 1 3h1v-1l2-1 2-1-1 3-2 2c1 1-1 3-4 3-1 1-2 0-3-1s-1-1-1 1v2l-1-1h-1c-1 2 6 3 8 1l2-1c1 1 4-2 4-3-1-1 0-1 0 0l2-1 1-1 1 1 2-1c4-2 4-4 0-2-3 1-4 1-3-1l2-1 3-1 3-2v2c-1 2 1 1 3-1 1-1 1-1 1 1-1 1-1 1 0 0 2-1 0-3-2-3s-2 0-1-1h11c4-3-10-2-17 0m499 11c2 0 3 1 3 2l-1 1v3c0 3-1 4-3 3v2l1 1 1 1-2 1c-2 0-3-1-2-2 0-2 0-2-3-2h-3c0-1-1-2-3-1-3 0-3 0-1 1s4 4 2 4l-1 1h13a4 4 0 0 1 4 4 4 4 0 0 1 3 0c5 2 6 2 6 4l-1 1-2 1-4 2c-3 2-4 4-1 5l-5 2-6 3h3l4-1 2-1a4 4 0 0 1 8 1v2c2-1 5 1 4 2h1c2-2 2-2 2 0h1l1-1h1c1-2 0-3-2-3h-1l2-1c2 0 2-1 2-8l-1-8-2-1-1-1a140 140 0 0 1-8 0l2 1c0 1-7 0-8-2h3l-3-1c-3-1-4-6-1-11 2-4 1-5-3-5-2 0-3 0-1 1m-776 5c-2 1-2 1-1 2s1 1-1 2c-3 0-3 0-2 2v1h-1l2 1h5l4-1h2c3 2 5 1 4-1l1-1c1 0 2 0 1-1l-2-1h-3l-1-1c-1 1-4-2-3-3 0-2-3-1-5 1m538 8c-1 2-1 2 1 4 1 1 1 1-1 3l-3 5-3 6-2 3c0 2 4-1 5-3 1-3 4-4 2-1-1 3 0 19 2 19v-1l1-2v-2l-1-3c0-2 0-2 1-1s1 1 1-1a6 6 0 0 0-1-4c1 1 1-6-1-9s-1-4 1-1c1 1 2 2 3 1a1 1 0 1 1 1 2v2h3c1-2 2-2 2 3l1 6v-6a20 20 0 0 0-4-11c2 2-4 4-5 2v-3c2-2 3-5 1-5v-2l-1-2v-1l-1-1c-1 0-2 1-2 3m-491 0-12 4 2 1 4-1v-1l1-1v3c0 2 2 1 5-2l4-2a1 1 0 0 0 1-2l-5 1m452 1c1 1 1 2-1 2-2 1-2 1-2-1 1 0 1-1 0 0l-1 2c1 1-1 2-3 4-2 1-4 3-4 5s-2 6-4 7v2l1 1c-1 1 2 4 5 5 2 0 3 1 1 1-4 0-8-2-7-4l-1-1h-1c2-2 0-3-2-2h-2l-5-1c-3 0-9 2-7 3v1l1 1 1-1c-1-1 0-2 1-2l1 2 3 1c3-1 4 0 1 2-1 2-3 2-6 2l-5 1 7 1c7-1 7-1 14 7 3 2 5 8 5 12 1 5-2 7-7 8l-13 5 9-2 5-1 5-1 2-2a5 5 0 0 0 1-8l3 2c3 3 5 4 5 2l-1-2-2-2-1-1-1-2c-1-2 0-6 2-6l3-2c3-3 11-3 11 0 2 6 1 9-3 12-3 4-3 4-1 4l2-2 1-2c1 1 7-7 6-10-1-6 6-2 10 6l1 4 1-4-1-6c-2-3-2-6-1-6a14 14 0 0 0-1-13l-1-2-1 3c0 3 0 3-2 3l-3 1c0 2-5 1-7-2-3-2-6-3-4-1l-3-2-3-4-3-4c-6-7 0-8 6-1 2 1 3 3 2 3l1 1c1-1 1 0 2 1l1 2v-3a2 2 0 0 1 1-4h1l-1-1-2-2-3-3-2-4-1-2-3-1v1m-182 1v1c1 1 0 1-1 1-2 0-3 0-2 1l1 1h-1l-1 1v2h-2l-1 2-2 1-2 1 3 1 5-1c2 0 2 0 1-1l-1-1c2 0 2-1 2-2-1-1 2-5 4-6s2-1 0-1h-3m-134 1-2 1v1c1 2-3 7-5 7a33 33 0 0 0-13 5h-2 8l5-2 3-1h1l1 1 1-1 1-1 2-3c0-1 1-2 3-2h4c1 0 3-3 3-5l-2-1-2 1-2 1c-3-2-5-2-4-1m-26 3v2c1 1-3 3-8 3-7 2-8 2-7 4h10c2 1 3 1 3-1 1-2 1-2 5-1l4-1h2c1 0 2 0 2-2s-1-2-2-1c-2 0-2 0-1-1l1-3c0-1-8-1-9 1m402 1c1 1 0 2-1 3v7l1 2c2 0 1 3 0 3-2 1-4 13-2 14l2 4c0 2 1 3 2 3v-1l1-5c2-3 2-3 0-3v-7c1 0 1-1-1-1v-3l1-2v-2c1 0 1-5-1-6l-1-2c2-1 2-5 0-5l-1 1m156 1-3 2h-1l-4 1h-1c1-2-1-1-4 1h-5c-4 1-4 1-3 2v2c-3 2-6 2-8 0l-4-1h-3l-1 1-4 1-2 1 2 1h2l1 1 1-1 1-1v2l-4 1c-4 0-14 3-13 4h-2c-2 0-2 0 0 1v1c-2 0-2 0-1 2s1 2 2 0l4-2 2-1v-2l1 1 1 1 2-1a2 2 0 0 1 3 0 2 2 0 0 0 4 0h1c1 1 1 1 1-1h4l1 1c1 0 1-1-1-1v-3h1c0 2 0 2 2 0h1c-1 1 0 1 2 1l2 1c-1 1 0 1 1 1v1l-2 1c3 1 4 1 7-1h9v1l1-1h1a8 8 0 0 0 9-3l2-1h-2a32 32 0 0 1-16 0c-2 0-2 0 0 1v1l-3-1a2 2 0 0 0-3-1l4-2a11 11 0 0 0 4 0l4-1 3-2h4v-4l1 1 2 1c2 0 2 0 1-1l-1-1-1-2 1-2h-3m-611 5-2 4-1 1h-3l-1 1c1 1 0 2-2 1-2 0-3 0-4 2l-1 2c-2 1 0 3 2 3 1 0 2 2 0 2h-6l1-1 3-1h-7l-4 1h-1c1-1 1-1 0 0l-1 3-2 1a1 1 0 0 0-1 3c3 0 4 0 3 2h-4l-3 1c-3-1-8 1-7 2s1 1-1 1h-4l-1 1 2 1h5c2-1 2-1 1 1-2 0-2 2-2 2l-6 4c-1-1-2-1-5 1h1l2-1 2 2c1 2 1 2-1 1h-2c-1 1 0 2 2 2l2-2 2-2 1-1 1-1c2 1 6 0 6-1v-1l1 2c1 1 1 0 1-1l-1-2v-3l1-1c1-1 1-1-2-1h-3l4-1c4-1 6 0 3 2-2 1-2 2 4 2h2c-2-1 0-4 2-3h2c-1-1 2-4 4-4a15 15 0 0 0 11-5l2-1-2-1c-2 0-3 0-3-4s1-4 4-4h5c4 1 5 0 3-3-3-2-2-3 1-2 2 1 3 2 2 3v4a1 1 0 1 0 2 0l3-1c4-1 11-3 11-5l4-1 3-1-2-1c-1 1-1 1 0 0h3c1 2 1 2 1 0s1-3 3-2h2l1-1v-1l-1-1h-3c1 1-6 3-7 1-2-1-6-1-7 1l-3 1-3 1c-3 4-9 2-9-2v-3l-3 4m249 0-4 5-7 6-5 3c-2 1-2 1-1 3 1 1 1 1-1 1-3 0-5-1-4-2s1-1-1-1l-4 2-4 3-4 2-5-2-5-3c-1-2-3-1-5 4-2 8-5 8-16 3l-9-3c-6-2-6-3-5-7l1-5c-1-1-4 3-5 6 0 2-1 3-2 3l-1 2-1 1-1 1c0 2 2 3 11 6 6 2 8 5 4 5l-4 1-4 1-2 1c-3-1-6 0-8 2l-3 2-1 1h-7v1l-3 2v1l-1 1c-1-1-2 0-2 1h-6l-5 1a8 8 0 0 0-8 3l-1-1-1-2c-1 0-2 0-1 2 0 3-4 5-7 3l-5-1c-7 0-10 0-9-1l-1-1-2 3c0 2-1 3-2 1l-4 1-4 1c-2 0 0-3 2-3l-1-1-3-2c0-2-3 0-3 2-1 1-1 1-1-1l1-2c2-1 0-3-3-4l-4-2h-1c1 2 1 2-1 2-2-1-2-1-1 1 1 1 1 1-1 2-3 2-5 1-5-1h-1v2l1 3c0 4 0 5-1 3l-6-1 1 2v1l-2 1-2 2-2 1-1 1c-2 0-2-1-1-2 1-2 0-2-2-2s-3 1-1 1c2 1 0 2-2 2l-2-3c1 0 1-1 0 0l-1-1 4-1c3 1 3 0 3-1-1-2 0-2 1-2 2 1 1 0-1-2-3-3-4-3-3 0l-1 2v-1l-2-1c-2 0-2 0-1-2s-3-7-4-5l1 1a2 2 0 0 1-1 3l-3-1-2-3c1-1 0-2-1-3l-2-1c0-1 1-1 3 1 1 1 3 1 4-1l-2-1-4-1c-1-1-2 0-4 1l-2 2v-3c-1-1-1-1 1-1s3 0 2-1l1-3 2-1h-2c-1 1-1 1-3-1h-2v2l-1 1-1 1-2 1h-5l-1-1c1-2-2-2-4-1l-2 1v3l-1 3-1-1-1-1h-3c1 1 0 1-1 1-3 0-3 1-3 3l-2 1c-2 0-3 2-1 2v1c-2 0-2 0 0 3 2 1 3 2 4 1l2 2c1 2 0 2-1 2h-1c0 1-1 2-2 1-4 0-10 2-8 3h2l1 2h-4c-1 0-2 0-2-2h-1v3c0 2 0 2-3 2s-3 0-2-1c2-1 2-1 1-2-2-1-2-1-2 1l-2 2v-3c1-1 1-1 0 0l-4 1h-2l1 1 1 1c-1 0-6-1-5-2 0-2-2-4-5-3-3 0-3-1 0-3 3-3 1-1-4 2l-3 1v-1l-2 2-1 2c-1 0-2-2-1-3a1 1 0 1 0-2-2h-1l-2-1-2 1h-1l-2 1c-1 1-1 1 0 0 2 0 6 3 6 5l-3 1-3-1 3-1 1-1h-5c1 2 0 3-4 3l-5-1h-2l-4 1H0v26h820l-1-26a191 191 0 0 0-1-28c2-3 1-4-2-1l-2 2-2-3c-2-3-11-4-12-2-1 1 0 1 0 0l4 1 3 1c1-1 3 0 4 1s1 1-2 1l-4 1c-1 1 0 1 4 1l4 1-26 2-10 1h-3l-4-1a4 4 0 0 1 3-1l1-1 2 1h2l1-1c2 0 2 0 1-1s-1-1 2-1a4 4 0 0 1 4 1l2-1h3l-3-1-2-2h-1c-1 1-9 2-10 1h-2c-1 1-1 1-2-1l-2-2v1c1 1 1 2-1 2h-3l-2 1a44 44 0 0 0-17 1l-3 1v2l-1-1v-2h-1c0 2 0 2-1 1-2-2 0-4 2-3h4v-1h-2c1-3-2-3-4 0-2 2-3 1-2-1v-2l-1-3-1-3v1c1 1-1 4-3 4l-2 2c-1 2-1 2 1 1l2-1 1-1v-1c2 0 2 3 0 5-2 3-4 2-6-1l-2-1-2 1-2-1h-1l-4 1-5 1h-1v-1c1-1 1-1-1-2-2 0-2-2 0-3l1 1v1l1-2h4c2-2 2-2 1 0 0 3 1 4 4 1h7c1-1-3-2-4-2l-1-1 1-1 1-2c0-2 0-2-4-1h-4c-1-2-3-1-3 0 1 1 0 2-1 1l-1 1-2 1c-1-1-2 0-2 1l-3 1h-2l2-1 2-2h-2l-3 3 3 1 2 2-2 1-4-1-1-2c1-2-1-2-5 0h-2l-2-2v-1l1-1-3 1c-2 1-5 1-2-1v-2c-2-1-2-1-2 1l-1 1-1-1-1-1h-5c-3 1-3 1-5-1h-1l-1 1h-11c-4 0-4 0-2 1h-4l-7 1-3 1h-2c1 2-2 3-3 2s-1-1 1-1v-1l-3 1-2 1h-3l1 1v3l3-2a2 2 0 0 1 4 3 3 3 0 0 1 4 0 2 2 0 0 0 5 0c-1-1-1-1 0 0h1l-1-2c-1-1-1-1 1-1h4a27 27 0 0 1 15 0c-1-1 0-1 1-1l2 1 2 1v1l9-1 3-1-1 1v1c1 2 3 2 3 0l1-1h1c-1 1 0 2 1 2 2 1 1 3-1 3-2 1-6-1-6-2h-5l1 1h1l1 1c1 0 2 1 1 2h3c1 2 1 3-1 4h-2v-2l-1-2h-1c-2 1-3 0-4-2h-1c0 2-2 3-2 0l-3 1c-2 1-2 1-1-1 1-1 1-1 0 0l-2 3h-8c-2 2-8 1-8-1h-5l-1 2-1 2v-3c0-2-1-3-2-3l-1 2v1l-1-2h-1l-1-1-2-1c-1 0-2 0-1-1h-2c-2 1-6-1-6-3h1c1 1 2-1 2-2a143 143 0 0 0-17 0l1 1-1 1c-1-1-15 2-19 4l-9 1-7 1h-2l-1 1h-12c-2 0-2 0-1 2v1l-1-1h-3l-2-1h-1v3l-1-1c0-2-5-2-7-1-2 2-1 3 3 2 3-1 2 1-2 3l-16 3-1 1-3 1-7 1c-2 1-4 2-5 1h-2l-19 7-13 4-45 1c-47 0-47 0-47-5l-1-3c-1-1-1-1 0 0l2 3c0 2 3 1 5-1h2l2 2c2 1 2 1 2-2 1-2 0-2-1-1h-1c0-1-1-2-3-2-3-2-2-5 2-4 3 0 3-1-1-3l-3-3-1-1v-3c0-2 0-2-1-1l-2-1h-2l-1 1v-1l-2-2-2-1 1-1h4c-1 2 1 3 3 1l2-1 2-1h-1c-2 0-2-1 0-3 1-1 5-1 4 1h1c3 0 3 1 1 4-1 2-3 2-4 2-2-1-3 0-2 2l2 2 1 1c-1 2 1 4 4 3 2 0 3-2 1-2l-2-2h1c1 1 1 1 1-2-1-2-1-3 1-3l2-3 1-3 6-5c5-5 9-8 11-8a3 3 0 0 0 2-5l-1-1 2-2 2-3 1-1v-1c-3-3-46-7-53-5-4 1-4 1-4-1v-1l-1 2m-342 1-3 2h-3v1h2l-3 1c-1 0-2 0-1-1h-1l-3 2c-4 0-5 2-3 3s3 0 1-1v-1h6c0 1-1 2-2 1l-1 1v1l-3 2c-1 2 2 4 4 2s3-2 4 0c1 1 2 1 2-1l-1-1 1-2 4-3a1 1 0 0 0 0-2l-1-1 1-1a21 21 0 0 0 6-2l-1-1h-2l-3 1m194 5v4l3 2c2 2 2 2 1 3l-1 2h5l-1-1c-3 0-2-3 1-4 1-1 1-1-1-1-4 1-4 0-1-2 2-1 2-1-2-2l-4-1m292 2c1 1 1 2-1 1l-3 1c-1 1-1 1 0 0 2 0 5 3 4 5 0 2-1 2-5 2l-4 1h3c3 0 4 0 5 3l2 2h1v-10c0-3 0-5-2-6v1m-272 2c-1 1-2 2-3 1h-1l-4-1h-1l4 2 4 3h2v-2c-1-2 4-1 5 0 1 2 6 2 7 1l-7-3-2-3c1-2-1-1-4 2m503-1-3 1-3 1-2 1v1h2c1-1 4-2 5 0l4 1c2 0 2 0 1-1-2-1-1-1 3-1h5l-5-1-5-1h4c4 0 4 0 1-1l-2-1-2-1-3 2m-568 0-1 1h-4l-4 1h-3l-2 1-2 1c-1-1-2 0-3 1-2 3-1 5 1 3h2c2 1 0 3-2 3v1h5l9-1h4l-1-1-2-1h2l2-1-3-1-2-1 9-1c2 0 2-1 2-2h2l2-1-2-2h-9M9 432c-2 1-2 1-2 3v1H4l-3 2-1 5c0 4 0 5 1 3l1-1v4c-3 3-2 6 0 3 1-1 3-3 5-3 2-2 2-2 0-2l-2-1c1-2-2-4-3-3v-1l2-1 1-2 2-1c2 0 4-3 4-4l1-2 1 1h-1l-1 1h4l1-1-1-1H9m157 14h-2l-1 1c-1 2 3 1 5 0h1l1 1h8c-2 1-1 2 1 1 3 0 4-1 1-2-2-2-12-2-14-1m83 3-3 2c-2 0-2 0 0 1l2 2c-1 1-2 0-3-1-4-2-7 1-4 3h1c-1-3 0-3 3-1 2 2 2 4 0 4l-2 1c-1 1 0 2 2 1l2-2 1-1h2v-1c-2 0-2 0-1-1l1-2c-1-1 0-1 0 0a5 5 0 0 0 4 0l-1-1 1-1h2l1-1 2-1c3-1 0-2-4 0h-4l-1 2v-4l-1 1m530 2 3 1 3 1 2 1a7 7 0 0 1 4 2l2-1c5 1 5-1 1-3-3-1-4-2-5-1h-2v-1l-1 1h-7m-162 3v3l-2 1-1 1h-1 7c3 2 4 1 3-1 0-2 0-2 1-1 2 1 2 7 0 6-1-2-3 0-2 2h-1l-2-1v2l1 1h1l-1 1-2 1c0 1 4 0 4-2l4-2 4-1c1 0 0-2-1-1l-2-1v-1l2-1-1-1h-2l2-2c2 0 2 0-1-2-5-3-9-3-10-1m-588 0c0 1-1 2-3 1-3 0-3 0-2 2 0 2 0 2-2 1l-2 1-1 1-1 2v3c1 2 1 2 2 1v-5l2 1 1 1v-2c0-2 1-1 3 1h1c-1-2 3-8 5-7v-1h-3m73 1c1 1 0 2-1 3l-1 2h2v-1h1l2 1c2-1 2-1 0 0-1 1-2 2-1 3l-1 1-1-1h-1c-1 1-1 1-2-1l-3-3-1 1-1 1v2c0 1 0 2-1 1l-4-2 2 1c1 1 0 1-1 1h-3l3 1 3 1v1l2-3c1-3 1-3 3-2l1 3h4l1 2 1-1v-3l1 1 1 1-1-2v-2a2 2 0 0 0 0-4c-1 1-2 0-3-1l-1-1m-41 1c-1 2-2 2-2 1l-3 1a6 6 0 0 1-5 3h-2l-1 1c0 1 1 2 3 1h7c1 0 2 0 1-1s1-4 5-6v-1l-3 1m316 3-2 1v-1l-2-1-2 1-1 2v1c2 0 1 2-1 2v1c1 1 2 0 5-1 3-2 5-2 4 0l2 3h1c-1-1 0-2 3-2l2 1c-2 1-1 2 2 3l3-1 1-2 1-1-8-1c-2 0-3 0-2-1l-1-2c-1 0-2 0-1-1l-1-2c-2-1-3-1-3 1m230 5-5 1-6 1c-1 1-1 1 2 1 3-1 4 1 1 2l-1 1c0 1 4 0 4-2l1-1c1-1 1 0 0 0l1 2c2 1 5 0 5-1a2 2 0 0 1 3 0c-1 0-2 3 0 3l3-1 1-2c-2 0-2 0-1-1 2-1 3-4 0-4l-4 2-2-1a1 1 0 0 0-2 0m86 4-1 3v-1l-1-1-1 2h-7l2 1h3l-1 1h-1c0 2 0 2 3 0h12c2-1 0-3-2-2l-1-2-5-1m-566 8c1 1 0 2-1 2-1 1-1 1 2 2l2 1-1 1h2c2 0 3 0 4 2 1 1 2 2 3 1 3 0 4-3 1-3l-2-2-1-2-1 2 1 1v2l-2-2c-2-4-7-8-7-5m77 1 2 3c3 0 3 1-1 3-2 1-2 1-1 2l3-1h4a5 5 0 0 0 6-3c2-1 2-1 0 0l-2-1c-1-2-4-1-4 1l-2-1c-2-1-3-2-2-3l-1-2-2 2m173 2v2l1-1h1l3 2c1 1 0 1-1 1l-3 1h3c2 0 2 0 1 1v1l2-1a1 1 0 0 1 2 0h2c2-2 2-6-1-6v1c1 1 1 1-1 1h-4v-1l1-1h-1l-2-1c-1-1-2 0-3 1" fill="url(#16282281824-posters-1652916426252-vertical-bold" stroke="url(#16282281824-posters-1652916426252-radial-regular" fill-rule="evenodd" tabindex="-1"/>
</svg>
