<svg id="16282281824-posters-1630438944897" itemscope="" itemtype="/posters" itemid="/+16282281824/posters/1630438944897" viewBox="0 0 683 512" preserveAspectRatio="xMidYMid slice" tabindex="0" xmlns="http://www.w3.org/2000/svg"><rect itemprop="background" width="100%" height="100%" fill="white" tabindex="-1" style="fill: rgb(183, 231, 240); color: rgb(81, 17, 6);"></rect><path d="M0 65l1 64 3 1a3 3 0 014 3l9 1 6 3 8 4 3 2 5 4 2 2-2 9c-1 6-3 9-4 10-3 1-6 4-5 6 1 1 2 0-9 43l-9 35c1 1 4-13 14-51l7-25-5 24-12 46c-4 19-6 23-7 24l-3 5-2 6c0 2 0 2 1 1l2 1-2 1c-5 0-5-6-5 81l1 81a40 40 0 0015-4l4-1c5 0 6 0 6-2h1c0 2 1 2 5 0 5-3 8-2 5 1l2-1 3-4h7c1 1 6-1 5-2h5l2 1-1-1-1-1c0-2 3-1 5 1h1v-1c2 1 6 0 6-1l1-3c2-1 2-1 1 1v9l-1 4v1h1v4l1 1c2 2 1 5-2 5l-1 1-1 2h1c3-2 6-1 5 1-1 1 0 1 0 0 2-2 3-1 2 1-2 2-4 2-4 0v-2c0-2-3 2-3 3h1c1-1 1-1 1 1a4 4 0 000 4l-1-2h-2c-1 1-2 1-2-1 1-4 0-4-2-2l-2 1h-1a3 3 0 01-4 1c1-3 3-5 5-4 2 0 0-3-2-5-2-1-5 0-4 2l2-1h2c1 1-3 7-6 6l-1 1-1 1h-1l2 1c2 0 2 0 1 1s-2 2-3 1a3 3 0 00-2 3c2-1 5 1 3 2s1 3 4 3a1 1 0 110 2l-1 1h-6l2 1c2-1 1 0-1 2h-2v-3c0-2 1-3 3-2v-1c-1-2-3-3-2-1l-1 1c-1-1-1-2 1-3l1-2c-1 1-4 0-5-1-4-1-4-1-4 1l-1 3-1 2h1c2-1 3-1 3 1l2-2 1-3-1 3c0 4 0 4-3 3-4-1-5-1-4 2 1 1 1 2-2 2-4-1-4-1-4-3s0-2-1 0l-3 3-2 2h-2l-2 1-1 1-2 2-2 2c-4 0-4 0 0 6l2-1c1-2 2-2 3-1l-1 1-1 1h4l-1-2v-2h1a4 4 0 016 1h2v-2a4 4 0 012 3v1c0 2 0 2-1 1-2-2-3-2-4-1v2h1l-1 1-1 2 2 1 1 1a2 2 0 01-3 1v3l4 1h3v-1h2v2h1c0-2 2-3 4-2v1a2 2 0 00-2 2l3 2h-8l-4 3a2 2 0 003 0c-1-2 2-2 4 0h2l1-1 1 1c-1 2 12 2 109 2 95 0 110 0 110-2v-2h-1l-2-1c-1-2-2 0 0 2 1 2 1 2-1 1l-3-2c0-2 0-3-1-2l-2-1-1-2c-1 1-5-1-5-2h2l2 1-1-2c-2-1-2-1 0-3 1-1 1-1-1-1-2 1-3 0-3-1l3-1h4c-1-3-2-4-3-2h-1l-1-1v1l-1 1-1-3c0-3 1-3 6-2l-1 1c-1 1-1 1 1 1 1 0 2-1 1-2l-1-2c-3 1-3 0-1-2l2-1h-2c-2 0-3 1-3 2v-2l-1-3-1-1-1-1c-2 1-5-1-4-2h2c1 1 1 1 0 0v-3l-2-1-2-2v-2c-1-1-1-2-5-2v-2l2-5v-4c1-1 2 1 1 3l1 1c1-1 0-3-3-8-3-4-3-7-1-5 1 1 2 1 2-1l-1-1v-2c0-2 0-2-2-1-3 1-3 1-2-1 1-1 1-1 0 0-3 2-6 2-6 1 1-2-4-2-4-1-1 1 0 2 1 1l2 2v1l-1 1c-2 2-5 3-5 1 1-1 1-1 0 0-2 2-3 1-3-2v-3l-1 1h-5l-3 1c-5 0-7 0-6 1l-1 1h-1l-2 1-2 1c0 1 4 1 6-1l1 1v2c1 1 1 1-1 1-1-1-3 0-4 1-3 2-5 1-2-1v-1c-1 1-1 0-1-1h-1l-3 1c-3-2-7-2-6-1l-2 2h-2c1-1 0-2-1-1l-1-2-2-4-1-2-2-1h-1v-4l-1-1v-4c1 1 1 1 1-7l1-5 1-7c0-19 0-19 11-21 22-4 41-3 56 4a475 475 0 0035 15l7 3 6 2h2c-1 1 7 6 10 6l1-2c1-1 1-1 1 1l2 4 8 3 29 12h1l24 12 28 13 46 20 45 21 14 7h184V179c0-16 0-18-2-17v-1c2-2 2-4 3-81V0H266l2 3 2 3-3-3c-3-3-3-3-14-3-9 0-11 1-11 2s0 2 2 2v3c1 2 2 2 3 1h1v1h-1l-1 1 3 1c3 1 4 4 2 6l-1 1h1l2 2 2 3 2 1h1v-1l1 1v2l1 1c-1 1 0 1 3 1v1c-1 1 1 4 2 3 2-1 1 2-2 5l-3 3-15-12-16-12c-2-1-1-2 2-9l4-7-5 7-4 7-6-5-11-8 36 28 15 13-4 5-5 8 5-6 5-7 9 7 7 7v1h3l1 2h-5l3 2 2 3c-2 2 2 5 4 4h1l2-2-1 3c-5 4-6 5-4 2l-4 4-6 6-12-7-10-7 20 15c1 1-1 4-5 8l-6 7 7-7 7-7 10 7c11 8 15 12 11 12v-1l-5 3-5 6 4-4c4-4 5-4 6-3 0 2 0 2 2 0v1c0 2 0 2 1 1v1c-1 2-1 2 1 2l1-2c0-2 0-2 1-1v2c-1 2-1 4 2 7l2 3c0 2 8 1 10-1 3-2 3-2 0 1l-2 3 2-1 2-1h3c1-1 3 0 6 1l4 2-4-3-3-2h4l5-1h1l1-1c0-1 5-3 8-3 1 0 2-1 1-2 0-2 1-2 6 1 2 1 2 0-1-2-2-2-3-3-1-2h3l3-1 2-1 5-1 2-1 1-1 4-2 4-2c2 1 2 1 1-1-2-2-2-2 1-2l20-11c1-2 2-2 3-1 2 1 2 1 1-1-2-2-2-2 0-2l5-2 3-2c2 0 17-10 17-11h2v-3l4-2 3-1 1-1 2-1 1-1 4-3 6-3 3-1 1-1c-1-1 1-2 3-2l2-2c0-2 0-2 1-1l1 2h1c1-1 1-1-1-3v-2l9-5 4-2 7-5 5-2 2-1 2-2 2-1 7-4-4 4-3 3 3-2c5-3 5-3 6 1 1 2 0 3-4 6l-16 10-14 9-6 4-15 10-7 5c-3 3-4 3-5 2l-1-2v2c1 2 0 2-7 7l-13 9a11 11 0 01-6 3 139 139 0 01-23 16l-8 5-8 7 15-9 9-5h1c0-1 4-5 11-9l28-18c51-33 63-41 64-40l1-1c0-2 4-4 5-3s8-2 8-3c0-2-2-1-4 1h-2c-2 0 4-4 6-3v2c-1 3 0 7 1 8a9 9 0 011 8h-1l-1 2-9 8a80 80 0 01-20 15c-1 1-2 2-3 1h-1l-5 3-16 10-4 2c-2 1-3 2-2 3h-2c-1-2-5-1-9 3l-3 2-5 3a20 20 0 01-11 7 91 91 0 01-18 13l-3 1h-1a74 74 0 01-20 12l-3 4-3 2-2 2c-3 3-5 4-8 3-1-1-1-1 0 0 1 2-3 7-4 5l-4 2c-1 2-4 3-5 3s-2 0-1 1l-2 1-2 1c0 1-6 3-7 2 0-2-2-1-2 0 1 1 0 2-3 1l-6 2h-4v-1l-1 1v3l1 1 1 1 1 1 1 1v1c1 1 2 0 2-1l2 2c1 2 1 2-2 2-2-1-2-1 0 0l3 1 2 4 1 2v1c-1 3 2 3 8 1l6-3-15 8v-2c2-1 2-1-2-1l-7-1-4-2 6 4 5 3v2l-1 1v4c-2 0-2-1-2-2a3 3 0 00-2-1l-6-1v1a19 19 0 01-14 7c1 1-2 2-3 2l1-1-2-2-7-1h-2l-1-1-3 1c1-2 1-2-1-2l-13-3a41 41 0 00-13-4h1l-1-2-5-1h-1a28 28 0 00-13-5v-1l-8-3a20 20 0 00-8-4l-1-1-7-5-6-5-1-1c1-1 0-2-1-1l-1-2-1-1c-1 1-3-1-2-3l-1-1-5-4c-2-3-5-5-5-4v-3c-1 1-3-1-6-3-10-10-14-13-16-12v-3l-7-4-9-6-6-5c-3-2-4-3-5-2s-1 1 0 0l-1-2-3-2-3-2-2-2c-2-3-3-4-6-4-2 0-2 0-1-1l1-1a4 4 0 00-4 0c1-1-2-5-4-5l-5-3-4-2-1-4v-2a2 2 0 01-3-1l-1-1-2-2-2-5-2-2-2-3-2-4-1-1-2-2-2-2c-3-1-6-4-5-6 1-1-1-6-2-5l-2-1-1-1v-2c0-2 0-2-2-2s-2 0-2-2v-6l-1-3-2-1c-1-1-1-1 1-1l5 1-2-2c-2-2-3-2-4-1a1 1 0 11-1-1l1-1-2-1c-1-1-1 0-1 3s1 4 2 5 1 1-1 1-3-5-2-13c0-7-1-10-3-9h-3L30 0H0v65m0 0l1 60 1-4v-1L1 60 0 1v64m548 76l-1 2h-3l-2 1-2 1-1 1a70 70 0 00-19 6l-4 1c-3 2-14 5-16 5l-1 2h-1l-2 1-28 10-10 4-7 3c-10 2-33 10-37 12-4 3-2 4 4 2l5-2-6 3c-7 2-11 5-6 4 2-1 2 0 2 1-1 3 3 2 31-7l56-17h1c-1-1 4-2 5-1v-1l2-1h4l1-1 2-1c2 1 7 0 5-1-1-1 5-3 8-2l1-1 1-1c1 1 10-1 9-2h2l2-1h2l1-1h1l2-1 1-2c12-3 13-4 12-7 0-3 0-4 2-4 2-1 3-3 0-3l-10 3-9 3 6-3 9-3c2-2 1-2-7-2l-5-1v1m-493 7l-2 9-3 9c0 2 1 2 4 4l4 2c-2 1 12 9 16 9l4-2 4-3-3 3-4 3 3 2 4 1c2-2 3-1 3 0-1 2 33 20 36 20a41 41 0 003-19h-1l-3-1 1-1-7-5c-7-4-9-5-7-3l-1 1v-2l-1-1h-2l-1-2h-2l-1 1-1-2-3-3-4-3-30-17c-4-2-2 0 5 4l7 5-9-5a18 18 0 01-7-6l-2 2m594 20l-21 6a9912 9912 0 00-158 39l20-5 36-8 135-34-12 2M19 179l-2 6-2 6c-1 4-6 18-6 23l-3 9-2 9-1 6-1 1v5l-1 5c0 2 1 1 2-2l2-10 3-8 3-12a89 89 0 004-17 11 11 0 001-6l2-6c3-9 3-12 2-12l-1 3m113 13l-4 24c0 3 4 6 8 4l3 1c2 2 2 2 3-9 2-10 2-15 1-14a4 4 0 01-4-2l1-1h-2l-4-2h1c2 1 3 0 0-1h-3m-37 16l-16 4c0 3 2 4 11 6 11 2 13 2 5-1-11-3-13-4-10-5 7-3 15-2 23 1 11 4 13 4 4-1-6-3-7-4-5-4H95m58 7l4 2 3 2 11 6c8 4 10 6 10 8a212 212 0 01-4 21l-2 1-1 5c0 5-1 7-5 6h-4v-2l-1-4-1 3h-8c0-2-1-2-2-2-2 1-3 0-3-2l-1-6c-2-2-2-2-3 4-1 9-1 11 1 11v1c-1 2-1 2 1 2l2 2-1 1c-1-2-5-2-5-1a9 9 0 004 3l1-1-1 2v4c0 1-1 2-3 2-3 0-3 0-3 2h6a37 37 0 0020 0v1l2 1c3 0 3 0 2 7l-2 8c-2 1 0 6 2 6l1-1a528 528 0 014-32c0-2 1-2 3 0v2c-1 1-2 2-2 5 0 5 1 7 3 5l1-13-1-1 1-1c2 1 2-6 0-7h-1v2l-1 2-2 3v-4l-1-4-2-1 2-1c1 0 2-1 4-14l2-17-11-7-15-8-4-1m0 4v3l-1 2c-3 0-1 5 3 6 5 1 5 1 5-1h1c0 2 7 5 8 3 2-3 1-6-3-8l-7-4c-5-2-4-2-6-1m442 5v2c1 2 0 4-5 4-4 1-4 1-3-2a2 2 0 10-2 0c0 3 0 3-5 4l-8 1c-5 1-5 1-4-2l-1-3-1 3c0 2 0 3-2 3a66 66 0 00-7 1c-2 0-2 0 0 1s20-1 24-3l6-1 20-2c19-4 18-4 19-1l1 2v-1c-1-2 2-5 5-5s7-2 5-2l-16 2c-20 4-26 4-24 3v-3c0-2 0-2-2-1m-488 8l-2 10v3l-5-1c-8 0-12-2-12-4 0 0-1-2-3-2l-3-2c-1-2-6-2-7-1h-3c-2-2-5-3-5-1l-2 1-1 1c2 2-4 3-11 1-10-1-17-2-17 0l-4 13c-3 12-3 13-1 13 3 0 3 2 1 11-3 11-3 14 0 14h2l-1 1h-2c-1 2 3 2 6 0 3-1 4-1 2 1v2c-2 3-1 4 2 1 4-3 6-4 5-1l-1 1c-1-2-3 2-1 3v4c-1 2 0 3 4 2l3-4c0-4 0-4 3-4s3 1 0 7l1 2 2-3c1-7 4-15 3-10v4h7l8 1-1 4v5h14v-5c1-4 1-4 3-4l3 1 1 2v1l14-72-2 5m88-1l1 1v3c2 1 2 2 1 2a27 27 0 0018 2c1-1 2-1 2 1 1 1 2 2 8 3l9 2 2-1c0-2 3-1 3 0l4 2c5 2 4 3-1 3h-3l4 1c4 0 2 4-2 5-8 2-7 4 0 2 4-1 4-1 4 2 0 5-7 7-10 2-2-4-10-8-10-5l1 1v2h-1l-8 1c-1 1-1 1-1-1 0-3-2-6-4-6-1 0-2 1-2 5 0 5-1 8-2 3a2 2 0 012-2c0-2-4-3-7-2l-7 1c-5-1-4-2-6 13-3 17-3 17 1 17h2v8l-1 7h5c4 0 5 0 5 2l2-14a1007 1007 0 013-19l4-1c13 2 12 2 12 0 1-4 3-4 4-1 1 2 1 2-1 2s-2 0 1 1c5 2 4 2-7 2a23 23 0 01-10-2c-3 1-2 3 3 3 5 1 5 1 5 5 0 3 0 3-4 3-3 0-3-1-3-4l-1-3-1 3-1 2c-1-1-1 0-1 1l-2 14v6h6c6 0 7 0 5 6-1 3-2 3-2-1l1-2-2 2c-1 3-3 4-3 2h-1l-3 1c-2 0-3 0-3 2h19c11 0 12-1 9-2l-2-1h3c2 0 2 0 2-2l-1-3-5-1c-4 0-5 0-5 3-1 3-4 3-4-1 0-3 1-4 2-4 2-1 2-2 2-5l1-18 7-1 5 1v15c-1 2 0 3 1 3h1l2 1 2 1a7 7 0 000-7l1 1 1-6 1-8c0-2 0-2-6-3-9 0-10-2-1-1h7v-6l2-16 1-10-20-4-19-4 58 11c22 4 29 6 25 6l-21-4c-24-5-22-4-22-2s7 4 8 2c0-2 3-1 3 0l2 2c1 1-1 1-4 1l-6 2-3 1-1 1 7-1h10c4 0 4 0 2-1-3-1-2-2 5-2 5-1 5-1 5 5 0 5 0 5 3 0l3-4-5 10c-2 2-2 2 0 2s2 1 2 5 0 5-2 5a2 2 0 01-1-2c1 2 2 1 2-2 0-1 0-2-1-1l-1-1 1-1 1-1c-1-2-4 0-4 3-1 5-6 6-6 1v-2l-1 2c-1 1-1 2-2 1l-2-1 1-1c1 1 2 0 2-1l-2-3-2-2c-1-2-1-2-1 0l-1 4-2 2c-1 2-1 2-1 0l1-3 1-2c0-2-2-3-2 0l-2 1h-3l1 1c2-1 2 0 1 1-1 2-2 1-3 0v-4c-2 1-3-1-2-3l-1-1v4a3 3 0 01-1 4l-1 1 1 2v1c-2 1-1 5 3 5a3 3 0 003-5l-3-2c-1-1-1-1 0 0l4 1h1c-1 1 3 3 4 2l1 3 2 2h3c1 1 4 0 5-1 2-1 2-1 3 1l2 2 2-1c-1-1 0-1 1-1s2 0 1 1l2 2a2069 2069 0 0120 2v-19c1-18 1-18-1-15-2 4 1 4-33-3a14402 14402 0 00-71-15l-2 1m412 0l-9 3v1c1-1 1 0 1 3l-1 4-3 2-2 1h3l8-2c7 0 7-1 7-3l2-2 10-2 14-3c10-1 15-3 6-3l-10 2c-10 2-18 2-18 1v-1a1 1 0 000-2l-8 1m-37 5c-6 1-6 2-6 4 0 3-1 6-4 8l-3 2h3a444 444 0 0120-3h5l-4-2c-3-2-4-5-3-8l-1-2-7 1m59 1h-4l-5 2-2 2h3c3 1 3 2 2 3l1 2c1-1 2 0 1 1l1 1h2l1 1-1-2c-1-1 0-2 1-3l1-5c0-2 0-2 1 0l1 4 1 5v1c-2-2-2-3-3 8l-2 5v7c-2 0-2 3-1 6 2 4 3 4 2-1 0-3 0-4 1-3h2v-4l3-1-1-1c-1 1-1 0 0 0 2-2 3-2 3-1v-6c-1-5-2-6-3-6v-1c2-3-1-15-3-15l-2 1m-489 2l-7 39-7 38c0 3 3 2 4 0l2-13 1-11c1 0 2-5 2-11l5-26 1-17c-1-1-1-1-1 1m360 3l-7 3-3 1 4 1h2c-2 2-2 7 0 7l-1 1c-4 2-2 3 6 2 10 0 14-2 6-2-6 0-10-1-8-2h4c8 2 14-6 9-12-4-3-7-3-12 1m-28 6l-7 1c-17 2-33 6-32 6l1 6-1 4h5l7-1c2 0 2 0 1-1-3-3 1-10 5-10 3 0 4 5 3 8-1 2-1 2 1 2l14-2c10-1 11-1 10-3-1-4-1-8 1-10h-8m-140 15v11l-1 6v6h-1l-1-2v-1l1-5c0-6 0-6-3-6h-4v11l-1 7v5h4c4 0 4 0 4-4s1-4 1 2l1 4-6-1h-11l1 1 3 1 2 1 2 7c-1 1 0 2 5 2 8 0 7 0 9-7 0-3 0-4-2-4l1-1c2-1 2-1 2-6v-27l-3-1c-2-1-3 0-3 1m-268 1c-1 2-1 3 2 3l11 3-1 1-14-3-2 4-2 6c-2 3-1 3 10 5 12 2 12 2 13-4l2-6c0-2 0-2-3-2-2 1-2 1 0 0l3-2c1 0-3-4-5-4l1 1c1 1 1 1-1 1s-3 0-2-1c0-2-1-3-7-4-4 0-5 1-5 2m90 11c-1 8-2 8 4 8 5 1 6 0 6-8 0-5 0-5-4-5l-4-2c-1 0-2 2-2 7m391-6c-29 2-43 4-44 5l7 9c8 7 9 8 9 6v-5c-1-2 0-3 3-3l4-2c2-3 5-3 8 0l8 4 2-3c2-2 3-9 1-8-1 1-2 0-2-1 0-2 3-1 6 1l2 6c0 2 0 3 2 3l1-2-2-5c0-5-1-6-5-5m-100 9h-4v7c0 6 0 8 2 8l1 3v1l1-1c0-2 12 1 15 3 2 2 2 2 3 1h1l1-2v-2l-2-10v-9h-7l-11 1m-198 1c-2 2-1 12 1 10v-2l1-2a4 4 0 013 8c-1 0-2 0-2 2s-3 2-4 0c-1-1-1 0-1 2 0 4 0 4 3 4h2c-1 1 1 3 3 3s2 0 2-4a3 3 0 011-5v-4c0-2 0-4-2-6l-2-4-1-2-2-1-2 1m19 2v2l-2 2c-2 1-2 2-2 9l1 5v17c1 1 2-1 3-15l1-12v9l5-1 8 1h4v6c0 5 0 6 2 7l2 2v1l3 2c2 2 4 0 4-5 0-4 0-4 1-2l1 1c1-7 1-9 3-11 3-3 3-16 0-16l-7-1c-5 0-5 0-5 2 0 3 0 3-2 2l-6-1-3-1-2-2c-3-2-3-2-5 1l-2 2-1-3-1-1M0 366c0 44 1 62 1 40a7290 7290 0 00-1-40m147-64v1c1 1-1 1-4 1h-5l-1 7-1 6h4l7 1c2 0 2 0 1-4l-1-4v-1l2-8-2 1m-116 5c-2 1-4 2-5 1l2 2 4 2 1-3v-1c2 0 2 1 1 3 0 4 4 7 11 7 5 0 10-2 10-3 0-2 7-4 10-3h3l-3 2c-3 1-2 1 3 1l3-1c2-3 14-7 14-4s-3 6-6 6H64c-2-1-3-1-3 1-1 1 24 2 27 0 2-1 2-6 1-9H63l-1 2-1-1c0-3-2-2-3 1l-2 2c-2 0-2-1-1-4 2-3-10-3-13 0-2 3-5 4-5 2l2-1c2 0 2 0 1-1-2 0-2-1-1-1l-3-2-5 2m175 16l-1 1-2 1-1 17 1-2 2-5 1 3 1 2v2l1 1-1 2c-2 1-3 3-2 3 1 2 2 1 2-1l1-2v3l1 3 1 2-2-1h-2c-2 3-1 4 2 4 4 0 6 2 5 5a2 2 0 104 1c0-1 1-2 4-2 5 1 7-3 3-4-6 0-9-1-8-2a2 2 0 00-3-1c0 2-2 1-2-1l1-1c1 1 3-1 2-2h-2c-2 0-2 0-2-8 0-7 0-8-2-7l-1-2c0-2 0-3 1-2l1-1 1-1c1 1 2 0 2-1l2-1c6 1 8-2 2-3h-10m16 4l-1 4-1 1-2 3c-1 3-1 3-1 1v-2l1-2c0-3-4-3-5 1l-1 3h1l1-1v3c0 2 0 2 3 2s4 0 4 2c1 5 7 2 7-3l-1-2c-2 0-4-4-3-6l-1-2v-2l1-2-2 2m55 0v3h1l-1 1c-1 1 0 4 2 3l1 5c0 3 0 4 2 4h1c0 2-2 2-4-1l-2-2-1 2c-1 2-1 1-1-2l-1-11-1 2v1l-1-2c-1-2-9-3-9 0h1l3 1 2 1 1 1 1 1c1-1 1 1 1 6 0 6 0 6 2 6 2-1 2 0 2 2s3 3 4 1c0-1 1-2 2-1 2 0 2 0 2-4l-1-4h-1v-1c1 0 2-1 2-4l-1-5-1 2c0 2 0 2-1 1 0-2-1-2-1-1l-1 1v-3c3-3 1-6-2-3m-119 81l-1 2c-1-1-5 1-5 3l2-1v1a2 2 0 11-3 0l-1-1v2l-1 1-1 1-1 1v-4l-1 1-2 1h-1l-5 1-4 2c-3 1-6 2-7 1l-3 1-1 2c-2 2-2 3-2 5 1 1 0 2-1 3v3l-1 2v2c-2 0-2 1 0 3 1 1 1 1 0 0v-2c2 0 3 3 1 4-2 0-1 2 1 1l1-2 1-2h2c2-1 3 0 3 1h-1l-4 3-2 3c1-1 1 0 2 1l1 2v-1l1-2v-1h-2l1-1v-1h4c1 1 3 1 5-1l2-1h6v-1h3l1 2c1 0 2-1 1-2l1-2h3v1h-2v5c1 1 4-1 3-2l1-1v4a4 4 0 003-2l1-2 1-2v-1l2-1 2-2c0-2 1-3 2-2v-6l-1-1v-15c-1-5-3-6-4-3m-45 7l-2 2c-1 1-1 1 0 0 0-2 0-2-3 0l-8 4a7 7 0 00-5 4l-1 1c1 1 0 2-1 3h-1l-1 2v5l-1 2-1 2-3 1v1c2-1 2-1 2 1l-1 2 2-2-1 3 1 1c1 0 1 1-1 1v4c0 1 0 2 2 2l1 2 1 1v-2l1-2c3 2 6 2 6-1a5 5 0 014-2c-1 1 0 1 0 0l2-3 1-1v4h1c1 1 0 1-1 1-2 0-5 5-4 6l1-1h1l1-1c-1-1 0-2 1-1l1-1v-1c2 1 2-1 1-3v-4l1-1 1-2 1-3 1-2 1-1 1-1h-1l-1-1 1-1-1-5v-4l1-2c2-2 3-8 1-8l-1 1" tabindex="-1" itemprop="light" style="fill: rgb(72, 211, 219); fill-opacity: 0.9; fill-rule: evenodd; color: rgb(112, 112, 112);"></path><path d="M0 60l1 59 11 4 11 5-11-3c-13-5-12-5-12 0v4l14 4 14 5 1 2 1-1v-1l3 3c2 2 2 2 2 0s0-2 3-1 3 2 1 2c-3 1-3 3 1 5l2 3-2 6-2 8-4 5-4 3 5-2v1l-2 1-1 2 1 1c1-1 2 3 1 5l-13 48c-4 22-10 41-12 43l-2 2 2-1c2 0 3 0 2 2 0 3 0 3-2 1-2-1-2-1-2 1-1 1-1 1 1 1h1l-2 1v4c1 1 1 2-4 2l-3 1v139h5l6-1 49-9a3574 3574 0 0096-17l20-4a171 171 0 0124-4c2 0 4-4 2-5v-3c2 0 3 3 2 5-2 3-1 3 2 3 13-2 28 2 62 18l8 3 5 2c2 1 2 1 2-2v-4l4 2 3 2v3l7 3 4 1 1 3 3 3 6 2c31 16 30 15 30 9-1-6-1-6 6-3l6 3v6l1 5 9 4a2245 2245 0 0158 27l71 32 8 4h183V226h-2c-2-1-2-1 0-2l2-1v-61a3172 3172 0 00-89 22l-14 3-4 3h-1c1-2 1-2-1-1l-2 1-1 1h1l1 1c-1 2 11 0 13-3h1a8 8 0 008 0h-1 2c1 1 3 0 6-1 3-2 4-2 5-1 3 2 5 2 4 0h1c1 1 3 2 4 1 2 0 2 0 1 1h-2v1l2 1v1c-1 3-1 5 1 5h2l1 3v6c1 4 1 4-2 3h-2l-1 2v1l2-1c0-2 2-1 2 1 0 1-1 2-2 1v4h-6c-1-1-2-1-2 1h-3c-1-1-2-1-2 1 0 1 0 2-2 2-5 0-15 2-14 3h1l1 1-2 1-1 1v1l1 1h4c2-1 2-1 1-3s0-3 2-3 3 4 2 5h4a2 2 0 001-3l1-2c3-3 5-2 5 2-1 2 0 2 1 2l3-1v-3c0-2 1-4 4-4 2 0 2 0 1 1s-1 2 1 2v3l-2 1h2l16-3h4c0 1-4 3-7 3a3 3 0 00-4 5h7l9-1c6-1 7-1 5-4-1-2-1-4 1-4 1 0 2 1 2 3 1 3 1 3 4 3 4 0 4-1 3-4a3 3 0 014-3v3l1 1h10c4-2 3 0 0 2l-19 4c-22 3-21 3-20 5a252 252 0 017 37c-1 0-1 2 1 10 0 3-1 6-2 5v4c1 1 0 1-1 1l-2-2c-1-2-2-2-6-2-3 0-4 0-4-2l-2-2-3-6-2-9 1-3 2 9 2 7v-13c1-2 0-12-3-13l-1-3-1-3-1-6v-3l-42 6c-49 6-44 5-42 3 4-4 2-10-5-10-9 0-13 8-6 11l2 2h-5l-8 2-12 2h-9v-4c0-7 0-7-4-7a4 4 0 00-4 2v-1h-4c-2 2-4 5-2 4l1-2 1-1c7 3 9 5 4 5-1 0-2 0-1-1l-1-1c-2 0-4 5-2 6 1 2-19 5-29 5l-6 1c-9 2-13 1-13-1 1-5 0-7-2-7s-3 3-1 5v3c3 2 2 2-8 0-9-2-11-4-8-6v1c0 2 2 3 9 1 5 0 5-3 1-3s-1-2 4-2l5-2h3l6-1c5 0 7-1 6-3s-15-2-17 0h-3v1l1 2c0 2 0 2-2 1-1-2-1-2-3-1-1 2-1 2-1 0l-2-1h-9c-1 1-2 1-2-1v-2c-2-1 1-4 5-4a3 3 0 004-3l1 1c-1 1-1 1 2 1h4c2-1 2-1 1 2v2l2-3c0-3 2-4 4-3h1c-1-1 0-1 2-2 4 0 7-2 7-3l2-1 3-1h1l1-1c0-2 1-2 2-1h4v-1c-2 1-2 1-1-1l2-1h2c1 2 3 0 3-3l3-3c2 0 4-2 5-3a53 53 0 0119-7l10-1a20 20 0 0012-4l2-2h1c2 1 6 0 6-1l2-2 2-2-2 1-3 1-11 2a63825 63825 0 00-115 27c-10 1 26-8 65-17l50-13a30741 30741 0 01166-40l9-2v-20l1-80V0h-12l-13 1h-1l-28-1h-27v8l1 8 9-3 7-3-8 5-7 4v12c0 14 0 14 4 12l3-2c0 1-1 2-3 2-3 2-3 2-3 8 0 10 1 15 3 14l12-4-7 3-6 3v19c0 10-1 2-3-37l-4-45V0h-21l-8 5-15 9 11-8 10-6h-32v4l1 5-1-5-1-4h-55a15 15 0 006 9l3 1a2 2 0 003-2l1 2c1 1 2 1 5-2l5-2-3 2c-3 3-3 3-2 6v2l-3 1v2c3 0 2 2-1 4l-3 2 5-2 4-1v1c2 0 0 3-2 3-2 1-4 8-2 10l2 4c1 2 1 2 2 1l2-2h2c2-1 2-1 0 2l-1 2c1-1 5 1 5 3l1 1c2-1 4 2 3 3l-1 2-2 3-1 4-2 1 1 4c1 1 25-11 27-13 1-1 1-3-1-8l-5-20c2-1 5 7 11 29l24 73 4 13c0 2-4 6-7 6l2-2c4-3 5-4 2-8-1-3-2-3-4-3l-2 1 2-2 2-2-1-4-3-5-20 9 2 2 1 1h3v2l1 1h4l2 1 1 1c2 1 4 4 4 8s-2 6-2 3h-1c-2 4 1 7 4 6 5-2 6-1 1 1-12 5-15 12-4 9 6-1 6 0 1 1a21 21 0 00-7 3c-1-5-3-8-4-7h-2l-2 1-3 1h-1l-2 1-3 1-9 3-6 2-10 4-4 1h-4l-2 1-7 2-10 2-6 2c-1 1-3 2-4 1l-1 1-6 2-5 1-3 1-2 1-8 2a67 67 0 00-15 5l-4 1a410 410 0 01-25 6c1-2-2-5-4-4h-2l2-1c2-1 3-3 0-3l-1-2c1-2 1-2-14 3-9 3-10 4-8 5v1l-2-1-4 1c-3 1-3 1-1 2v1h-2c-2-2-4-1-1 1 1 1 1 1-1 1-1-1-2-1-2 1 0 1 2 1 7-1l1 1a17 17 0 01-12 3l-3 2c-4 1-8 1-11-1h-3a40 40 0 01-7 2l-3-1c1-1 0-2-1-1l-1-1c1-1-3-2-5-1h-2c-3-2-10-3-13-2h-4l-9-2-4-1c-4-2-10-3-12-2h-1c1-2 1-2-3-2l-6-2h-3c-2 1-3 1-4-1l-4-2h-10c1-2 1-2-3-3l-6-2h-5c1-2 1-2-1-2l-4-3-3-1-3-1h-2l-1-1-10-7-4-4-6-4a4 4 0 01-3-3c-2 1-7-4-17-14a122 122 0 00-34-27l-1-1-2-1-7-5-8-5h-1l-3-2-8-6-4-3c-9-9-11-11-13-11l-2-3c0-1 0-2-1-1l-4-2-4-2c-1 0-2-1-1-2l-1-1-3-2-3-2-1-2-3-2h-1l-1-2c-3-2-4-3-2 0h-1l-1-2-2-2-3-2 1 1v-1c-2-1-2-3-2-4v-2l-2-1-3-4c-1-1-2-3-1-6 0-3 0-4-1-3l-2 1c-2 0-2 0-1-1 1-2 0-3-2-2l-1-1c1-1 0-2-2-4l-2-3-2-2-2-3-1-2v-1l-1-1h-2c1-1-1-6-2-6l-1-1v-2l-1-2-1-1c-1 0-2 0-1 1l-1 1v-2l-1-1-1-4V2c1-1 1-1-1-1L18 0H0v60M291 4l-3 5c0 2 2 3 2 2v1l1 1 1 1-3-2-3-1v2l3 1 2 2 1 2 2 4 1 1v1c-1 0 1 3 7 8 11 12 9 10-7-4l-13-12c-1 1 26 25 27 25 1 1 7-5 13-12l12-12-11 12-11 12 7 7 8 7-8-6-8-7-4 5c-5 6-5 8-1 7a6 6 0 015 5l2 3c-1 1 0 1 1 1 3-1 5 1 4 3h2l2 1 1 3 1 4c-1 1-1 1 0 0l1 1v3l1-1v-1h1l1 4 1-1 1-1v2l1 1v1l1 2h2l1-1v3l2 2 1-1 7 2c1 2 1 2 6-1l4-3-3 3c-3 2-3 3-1 3 2 1 4 1 4-1l1 1h1l2-1h1a1 1 0 111-2l2 2c4 2 1 0-16-16a360 360 0 01-15-15l4 4 9-8 11-9-11 11-8 7 8 7c14 13 13 12 15 9l5-3-2 2c-3 3-4 5-2 4 1-1 2 0 1 1h13l6-2 3-2 1-1c0-4 4-4 7-1l4 2-4-4c-3-4-4-5-2-5l2 1h2l3-2 1-1 2-1c4 0 16-7 17-10l1-2 2 2c4 5 2 2-2-4-3-4-3-4 0-2l3 3 2-2c1-1 2-2 3-1l1-1c0-2 1-2 3-2l2-1 2-2 2-1 3-2 7-5 4-4 3 3-2-4-1-5 2 3c0 2 2 1 5-1 2-2 4-2 5-2l1-1c-1-1 0-1 1-1l3-2 1-1h1l1-2 1-1h2l2-1c0 1 1 1 0 0l1-1 3-2 3-1 3-3 4-1 1-1 3 3-1-5-3-8H293l-2 4m218 48c3 9 3 10 2 10l-2-2c-1-3-4-3-6 1l-2 1-1 1c1 1 0 3-2 4s-2 2 0 1v1a4 4 0 00-1 4v2l-2 3 6-3 5-2-12 7-10 6 2 3 1 2-6-8-5-7c1 3 1 3-1 3l-3 1-2 1c-2 0-8 3-7 4l-3 1-4 4-3 1h-3c-2 2-3 2-5 0h-1v4l1-1h1c2 1 0 2-3 2h-2l-3 2-5 3-3 2-1 1a3 3 0 01-3 3l-1-1c-2 0-1 3 1 5 1 2 0 1-3-1-2-3-4-4-4-3l1 1v1l-1 1-4 2-5 3c-2 0-6 6-6 8v2l-3-2c-3-4-5-4-2-1l1 3h-1l-1-2-1 1-1 3c-2 1-2 3-2 5 0 1-2 3-11 8s-10 6-9 7c1 2 0 3-2 2l-1 1 2 1h1l-1 1v1h-1l1 1v1h-2v1c2 2 1 3-1 3l-2 1c1 1 3 0 6-2 7-3 7-2 0 2-5 3-6 4-5 5h-1l-3-1 16 10 2 2c1 2-4 1-5 0-1-2-1-2-3-1v7l1-1c-1-1-1-1 0 0l6-2 5-1-5 2a7 7 0 00-5 5l-5-4c-5-2-5-2-3 0l3 2 6 3 4 3 8-3 7-2-9 4c-8 3-10 4-9 7l-2 1c-3-1-3 0 0 1 2 1 5 0 15-3a63 63 0 0117-5c-1-1 9-6 15-7l7-3a12 12 0 017-1 45 45 0 0119-6l7-4c8-3 11-4 10-5h1l19-6h3l-1-2c-3-2-2-3 3-3a15 15 0 0012-2c1 1 6-1 5-2h2c2 0 2 0 1-1-2-3-2-6-1-6h5v1l-2 1c-1 1-1 1 0 0h3c1-2 2-2 2-1h3l5-1h2l1-1c1 1 3 0 5-1 3-1 3-1 4 1l-2-6c-3-7-3-6 7-10 15-5 17-7 16-9-1-6-4-10-4-10l-22 9 10-5c11-5 11-5 11-8l-1-4v-1l-1-1v-1l-1-1-1-1c0-2-2-1-7 1l-8 3 7-4c7-3 8-5 5-10l-1-3c-1-7-1-7-15 0l-14 6 3 7 3 8-3-7-4-7-3-7-14-33 2 6m30 3l-14 7c-8 5-8 4-3 15l3 7 14-6c13-7 13-7 12-10l-3-10-2-7-7 4M54 146l-2 10c-3 11-3 13 1 14 3 1 3 2-1 2h1l10 5 8 4 6 3 5 2h2c0 2 37 20 38 19h1c0 2 3 3 3 1 2-5 3-16 3-17a1 1 0 10-3-1l-12-9a742 742 0 01-38-24c-5-3-6-4-3-4l-2-1-17-4m-4 41l23 11 2 2c1 1 4 2 4 0-1-1 0-1 1-1 2 0 2 0 1-1-2-2-28-13-30-13h-3l2 2m81 7l-4 24 8 3h3c3 2 3 1 5-10l2-7-1 10-1 10c1 4 2 2 4-12 2-12 2-14-1-14l-7-4-7-4-1 4m437-3c-1 2-2 2-2 1h-2c-1-1-7 1-7 2h-1l-9 2-8 1v3l-2-1c-1-1-11 1-11 2h2c3 0 3 1 0 2-2 1-1 1 3 1l5-1 6-1a11 11 0 004-2h-1 5c-1-1 0-1 1-1l1-1c-1-1 2-2 4-1h2l2-1a21 21 0 0010-3c-2 0-2 0-1-1l1-1h-2m-523 7l2 2 2 1c0 1 1 2 3 2 2 1 3 3 0 3-6 0 2 5 11 7s10 2 11 0c2-2 5-1 4 1s2 3 12 5c9 1 12 2 9 3-2 0-3 1-3 3v5c-1 3 1 5 6 6 4 0 5 2 3 5l-5-1c-4-1-5 0-3 2v1l-2-2-3-2-7-3-4-2c-6-1-7-1-6 1h-1c-2-2-6-3-7-2-2 1-7 2-9 1-2-2-11-2-9-1 2 2 1 3-1 3l-2-2-2-1-5 1c-4 1-3-1-7 15-4 15-4 15-1 15 2 0 2 1 0 12l-2 14v8c2 1 3 1 3-1 0-1 7-1 8 1l2 1 1 1-2 1-3-1-1-1-2 1-2 1h-1l13 2h12l1-4 1-3 7-1h8v4c-1 6 0 6 8 6 5 0 7-1 7-6 0-3 0-3 3-3s3 0 1 7c0 2 4 3 5 1l14-79c0-1-1-1-1 1-1 1-1 1-1-1 0-1-2-3-13-7-14-6-14-6-4-7 5-1 7-1 13 2l12 3 5 1-9-4c-5-3-8-5-6-5v-1l-2-2-6-1-10-2c-4-2-7-2-7-1l-3 1c-5 0-1 2 4 2 3 0 10 3 9 4l-7 2-7 1-16-7c-17-7-18-8-18-6m108 13l9 6 8 5-8-4-9-4c-2 1-1 2 2 3l4 2h-5l-1-1v-1l-2 5-1 6c0 2 1 2 7 3l9 2-2 1-14-3-1 13h4l4 2 7 1c6 0 10 1 10 2h2l1 1-2 1-5-1c-2 0-2 0 0 2a4 4 0 013 4v9c-2 2-8 0-8-3v-3l-2 2c0 2-7 2-8 0l-2-1c-2 0-3-1-3-3l-1-4v-6c-2 0-6 25-7 37 0 2 0 3 2 3h1l2 2 3 1h-3c-2 0-4 4-3 6 1 1 0 2-1 2s-1-1 1-7c1-4-2-1-4 3l-4 23 18 1h18v-3l3-20 3-19h1l-2 8v6l2-1c3-2 3-3 4-16l3-18c0-2 0-3-2-3l-2 1-1 2c-1 7-1 8 1 8v1l-3 4-1 4 1-5 4-30c0-3 0-3 2-1s1 6-1 4l-1 2-1 5 2 1c1-1 2-1 2 1 1 1 1 0 1-1l1-12 2-10-4-2c-4 0-7-1-17-7-12-7-16-8-16-6m-93 6c1 1-3 6-5 6l-2 1c0 1 3 3 5 2l4 2 11 3 8 2 1-1h6l2-1c1 0 2-1 2-4l1-4c1-1 1-2-13-4-13-3-21-4-20-2m68 7v1c-2-1-3 1-1 1v1c-2 0-4 12-3 13h5c4 1 5 2 5 3 0 2-1 2-7 1-5-2-4-3-6 8-1 8-1 8 1 8l1-2c0-3 2-4 7-2 3 1 4 3 1 5v2l-6-1-6-1v2l-5 24c0 2 0 2 3 2l5-1h1l3 2c3 1 3 1 2 7l-1 6h-15l-1 3-1 8-1 4h21l2-9a1073 1073 0 017-47l4-22c0-2 0-3-2-3l-3-2v-2c2 0 2-2 1-4l-6-5c-6-2-8-3-5 0m173 8l-1 13c0 7 6 7-75-9-33-7-31-7-30 0 0 3 20 7 20 4h1l5 3 3 1a11 11 0 000 12c0 3-7 3-8 1-1-3 0-4 1-3l3-8c0-2 1-2-15-5-12-2-12-2-12 4v5l11 2 5 1v1c0 2-6 3-6 2l-11-2-1 6-2 14-2 13c0 2 0 2 3 2s3 0 3 3l-1 7-1 4h6c4 0 5 0 5 2l-1 4-2 2-1-2c1-2 1-2-1 0s-3 3-5 3l-3 1v1l2 1c0 2 1 2 3 1l5-1c2 0 1 2-1 2v1c2 1 0 3-4 3-5 0-7 1-7 3h2c2-1 3 0 3 4 0 2 0 3-1 2l-4 5c-1 4-3 5-4 5l-3 1c0 2 3 2 5 1s3-1 3 1h4l1-2v-2c0-2 0-2 1-1l2 1-1-2c-1-2 0-5 2-5l-1 8-1 6-1 14-1 11 5-30 4-24 4-1 2-1c-8 0 2-2 14-2h13l-1-4c0-5-1-6-5-6l-2-1 1-1c1 1 3 0 4-1 3-2 7-3 9-1l4 2c3 0 8 5 8 10l1 4-2 2c-4 2-2 3 3 3a6 6 0 006-3l3 1h1l1 1h9l-1-6v-3l-1-2c-1-1-1-1 1-3l2-4-1 1-3 1c-3 0-3 0-2-3l1-1 1 2c1 0 2-1 1-2h4c1-1 1-1 1 1l3 3 2 4a11 11 0 008 10c2 2 6-3 7-10l2-7c3-3 3-17 0-17v-1c2 0 2-2 2-9 2-19 2-47 1-46s-1 1-1-2l-1 7m-181-1l-6 29-6 33c-2 10-2 14 0 11l14-74c0-7 0-6-2 1m550 0l-6 1-26 3 1 6 2 8c0 2 1 3 2 2l9-1c10-1 10-2 1-1l-7-1c1-1 0-2-1-3-2-2-2-5 2-5l3-1 3 1h1l2-1c2 0 2 0 0-1h2a10 10 0 016 2v-4l2 2 1 2v-2l1-3h1l1 2 1-3c0-4 0-4-1-3m-80 1c-11 1-15 4-11 10 5 8 21 1 17-7-1-2-1-2 2-3h-8m-285 3l-1 14c0 28-2 68-3 72v5l-8-1h-8v17c0 19 0 19 5 19 4 0 4 1 4 6l1 4a2 2 0 001-4v-3c1-6 0-8-2-6-1 2-1 2-1-4l-1-7v-6c0-5 3-7 3-2 0 1 0 2 3 2s4 1 4 5-2 6-3 3c-1-1-1 0-1 1-1 4 0 5 1 3 3-3 3-2 3 9 0 10-1 11-2 10l-2 1 1 1c1-1 3 2 3 3v3l1-24-1-25-1 4c0 3 0 3-2 3h-2l2-1 1-4c0-4 1-6 2-4l1-17 2-38 1-28a26 26 0 011-12l-2 1m244 4c-4 4-1 10 6 10 3 0 8-4 8-7h-1l-3 1c-3 0-3-1-1-2l2-1 2-1c0-3-11-3-13 0m-234 39l1 19c4 0 8 9 5 11-2 1 0 8 3 8v-8h11l2-7c1-6 2-6 6-8 2-2 4-3 4-5s3-5 6-5c1 0 3 3 2 6h1l4-3c2-2 3-3 3-6l1-4v-10l-2 1-2-1-3-1-5-1c-4-1-5-1-5 5v15l-4-1h-4v-22h-4l-5-1h-5l-3-1-3-1h-4v20m67-18l-2 3c-2 0-2 1-2 7 0 7 0 7 2 7h2l-1 1c-3 1-3 11 0 11l2 1-2 1c-2 0-2 1-2 5s0 4 2 4c3 0 3 0 3 7v8h-4c-3 0-4 0-4 3a2 2 0 104 1 2 2 0 114 1c0 1 0 2-1 1 0-3-1-2-1 1l1 2c2 0 3-2 3-6l-2-31-1-28c-1-1-1-1-1 1m10 5l-1 2v2c-1 1 0 11 2 12l4-3-1-1c-1 2-4-3-3-6v-5c1-2 4 0 5 3 1 2 1 3 3 3l12-2h9v4l-1 4-2 1h-5l-4 1h12l6-1c2 0 2-1 1-2v-8l2 7 1 5-1-12-11-3-2 2h-1v-2l-1-1-2-1c-2 0-2 0-2 2l-1 3-1-1c1-2 0-4-3-5a3 3 0 000 6c-2 0-3-1-3-3 0-3-8-4-12-1m143 4a8836 8836 0 00-33 3c-3 0-2 2 7 11 6 7 8 8 8 6l1-2c1 0 2-1 1-2l-1-1-1-1 1-1 5-3c4-2 6-2 10 1l5 3 3 3c0 5 2 1 3-5 1-7 1-8 3-7 1 0 2 1 2 4 0 2 0 3 2 3s2 0 2-2l-2-7c0-5 0-5-16-3m-381 6c-1 8-1 7 4 8s5 2 6-6v-6l-3-1c-6-2-7-2-7 5m101-2v2c0 2-2 2-7 1h-4v1l1 3 1 4v-4c0-3 0-3 3-2 4 0 5 2 4 3s6 7 7 6l1-4v-4h5l12 1 7 1-9-1-13-2-5-1h2v-3l-5-1m210 3l-13 1-11 1v7l1 9 1 3c-1 1-1 1 1 1a8 8 0 019-1l1 1h-4c-1-1-1-1-1 1l1 2v3h1c0-3 5-6 7-6l2 3 1 1c1-1 1 0 1 1 0 2 0 2 2 1h1l1-1v-5l-1-15 1-2 3-4c1-2 1-2-1-2l-3 1m10 9c-2 1-3 3-4 6-1 5-1 6 2 3 1-1 1-1 0 0l1 2c2 0 3-1 2-3-1-1-1-1 4-1 6 1 11-2 10-6-1-2-11-3-15-1M0 355c0 38 1 54 1 34a5373 5373 0 00-1-34m26-48c-2 2-2 2 3 5l8 4c2 3 3 3 30 2 31 0 28 0 29-7 1-4-3-5-4-1-1 5-2 7-2 2 1-5 1-5-15-5-41-2-44-2-44-1h-3l-2 1m391-1l-2 2-1 1c0 1-5 3-6 2s-1-1 1-2c3-3-1-2-5 1l-7 4c-5 3-6 4-5 6 0 2 1 2 2 1 2-2 1 0-1 3l-2 2 2-2 3-3c0-1 2-2 3-1l-1 2-3 4c0 2 4 1 5-1l1-1c0 2 9-2 11-4 1-2 1-2-1-1l2-2 3-4c0-2 0-2 1-1 2 3 7 4 8 1l1-3-2 2c-1 1-2 2-3 1-1 0-1-1 1-2 2-2 2-2 0-3l-3-2h-2m-212 16c-3 2-3 3-5 16-1 8-1 12 1 7l1-2v2l1 2h1l2 2c1 0 2 2 0 3s-1 5 1 4c3 0 6 2 6 5s1 3 4 1c2-1 9-1 9 1 0 1 4 3 5 2l1-8 1-9v-3c-1-2-2-1-3 4l-1 5v-6c-1-15-1-15 2-15s3 0 3-3c0-2 0-2-1-1 0 2-1 2-2-1v-5c-2-1-23-2-26-1m72 5c-3 1-7 2-7 0h-3c-4 2-5 3-4 17 0 6 1 8 5 8h2c0 1 1 2 3 2s3 1 3 3c1 4 4 4 4-1l2-6c3-3 3-20 1-20l-2-2c0-2-2-3-4-1m-50 40c-2 0-3 1-3 2h-6l-1 1 2 4 1 5c1 1 3 1 3-2h1l2-1 3-1 1 1c-1 1 0 1 0 0 2 0 3-6 2-8s-2-2-5-1m113 41c2 2 3 3 0 3-2-1-3 1-2 6 0 3 1 4 6 6 7 4 7 4 7-3 0-8 0-8-6-10l-5-2" tabindex="-1" itemprop="regular" style="fill: rgb(98, 183, 181); fill-opacity: 0.9; fill-rule: evenodd; color: rgb(92, 84, 109);"></path><path d="M1 21C0 39 1 90 2 95l1 2c3-1 3-2 1-2a1 1 0 110-2l5-1c-1-1 0-1 0 0l4-2h1c0 2 3 1 3-1l1-2h2l2-1 1-1 2-2c4 0 8-2 5-2v-1h1l1-1 2-2a1 1 0 111 1l-1 1v2c-1 1-1 2 1 2l1-1c-1-1 2-6 4-7 2 0 2 0 1-1v-1a4 4 0 013 1v-1l2 1c1 1 1 1 0 0-1-2 0-3 2-3l8-1h2c2 0 6 4 7 6l1 2 3 3 2 2c-1-1 0-2 1-1l1 1a4 4 0 003 3l1 1 1 3 1 1a3 3 0 014 3l2 1 3 3 4 4 7 7c2 2 3 3 4 2l4 1 1 2 9 8c8 8 5 6-5-3-7-6-9-7-9-4l-2 10-2 8 5 11c2 6 5 11 6 11 2 0 1-1-3-12l-5-9 2-8 2-8 10 8 13 11c6 4 6 5 5 12s-1 7-5 9l-3 2c3 2-1 1-16-4a5262 5262 0 00-49-15l-6-3c1-1 0-1-1-1h-3l-1-1a27 27 0 01-17-7c-4-1-5 0-1 1l4 2-4-1-16-5c-15-4-16-4-16 0 0 2 26 11 34 12l6 2 5 2 19 6a924 924 0 0065 18l36 12a249 249 0 0024 6l1 1h1l2 1c3 0 3-1 0 23a727 727 0 00-2 20l-4 28a4990 4990 0 01-7 50c-2 9-2 10-5 11l-89 1c-74 0-85 0-85 2-2 4-1 102 1 102a7600 7600 0 00188-33c2 0 4-1 4-4l1-3 1 1c-1 2 0 5 1 5v-1c0-1 1-5 2-4l1 3 1 2v-6a7 7 0 012-9l3-2 2-4-2-2c-3-3-6-1-6 3 0 3-3 9-4 8v-9l1-3 3-3-2-1-1-1v-1c-1-1-1 0-1 1l-3 12-1-2c1 0 1-1 0 0l-1-2c0-1 0-2 1-1l1-2c0-1 0-2-1-1-2 1-6-2-6-5v-2l1-9c2-2 4-3 2 0l-1 5c0 2 0 2 1 0s3-3 3-1 2 1 2-2c2-4 0-6-3-6l-4-1c-1-1-1 0-2 1-2 5-5 4-5-1 0-3 1-4 3-4s3-1 4-4l2-6 1-1-2 1-1 1v-4l1-5c2 0 3-2 3-5l-3-1-4-2 10-78 2-16v-4l1 3c0 2 1 3 1 1a2 2 0 012-2c0-2 3-4 4-4l3-3 3-2 2-1c4-2 12-4 11-2l1 1 1-1h8l4 1h6l3 2h1l1-1 1 1c-1 1 7 3 9 3l2 1 2 1 2 1 2 2h3l5 2 3 1 2 2 3 2 2 2 6 1 6 1c0 3 4-3 4-6 0-4 0-4-4-6l-27-8-45-15c2 0 1-2-1-2l-5-3a684 684 0 00-19-12l-2-2-1-1-4-2-6-3-3-2-1-2-7-3-8-3-3-1-1-2a28 28 0 01-6-4l-12-10a960 960 0 00-33-30L98 98C78 80 60 63 60 61c0-1-9-5-10-4l-5-2a9 9 0 00-6-3l-4-3c-4-2-5-4-3-4l-2-3-4-3v-2c0-2-3-6-5-6l-1-1-2-4-2-2c0 2-3-2-4-5l-1-2-1-1-1-2-1-1v-2c2 0 2 0 0-2L4 4C2-1 1 1 1 21m545-7v4l-2 2v4l-1 2-2-3-3-4-1-1c1-1 0-1-5-1l-7 1h-5l-6 2c-3 0-3 0-3 6v5l1 1 5 1h5c1 0 2 0 2-2l4-5 5-4h-4l-7 2c-7 2-8 1-2-2 5-3 6-3 11-3 8 1 10 4 14 17l4 13 3 10a1369 1369 0 0024 71l2 4c2 1 2 1 1-1v-4l-1-1-1-1-3-14-7-24-7-25-5-14v-1l1-2h-2v-7c-1-2-1-2-1 0v2l-1-2-1-8-2-10c-2-10-4-15-3-8M136 151c-2 8-3 8-6 8s-2 2 0 3l61 19c5 0 8 3 9 6 1 4 1 5 1 1s-3-7-8-9l-2-1h-3c-1 1-41-11-42-13-1-1-1-1 1-1l-1-1c-2-2-3-4-2-5l-1-1c-1 1-2 0-1-2l-2-4-2-5c0-2-1-1-2 5m-53 6a30 30 0 0014 11l17 11c16 9 16 10 16 12-1 3-1 3 1 1l1-2 7 4 9 4c2 0 2 0 0 12l-2 14a3 3 0 01-3 4 11 11 0 006 3 10 10 0 012-12c-2 2-2-7 0-9l1-3 1-3c2 0 3-3 4-13l1-8c1-1 9 1 23 5l6 2v4l-2 12c0 7 0 7-2 7-4-2-14-2-14-1l2 2 7 4 7 5 4 1-1-4c0-4 0-4 1-1v-3l1-16 2-10v12c2-10 1-14-1-15s-3 0-3 1c-2 2-3 1-3-1 0-3-4-5-6-3h-2l-24-7 2 11c1 4 0 5-2 2l-4-3-2-1h2c1 1 1 1 0 0l-4-2c-3-1-6-3-5-4h-1l-2-1-1-1c-2 2-8-4-7-6 0-2 0-2-1-1s-1 1-10-3l-2-3c1-1 0-1-2-1l-4-1a93 93 0 00-23-7c-4-1-4-1-4 1m-39 9c-2 2-2 3-1 3 1 1 1 2-1 5-2 4-4 5-4 2-1-1-1-1-1 1-1 2 0 2 1 3l2 2a825 825 0 01-12 46l-4 21c-4 15-5 18-8 21-3 2-4 4-4 7l-2 3-1 2-4 3c-4 1-4 0-4 18-1 13-1 14 4 14 15 1 31 0 30-2-2-2-11-5-14-5s-4-2-1-2c2-1 2-1 1-3v-10c0-2 4-3 4-1 1 3 2 0 2-5 1-4 1-5-1-4h-2c-1-1 0-1 1-2l3-2h-2l-2 1v-1l1-1c0-1 1-2 2-1 2 0 2 0 2-2l-1-3-1 1v1c-1 1-2-2-1-4l-2-1-2-1v-1l-1-2h3l1-2v-3c-2 0-2 0-1-7l2-4h3v-1l2-4 1-4 1-1v-2l2-4c1-4 1-5 4-5 2 0 2 0 1-1v-1l-1-1c-3-2 2-16 5-16 2 0 2 0 0-1-2 0-2-1 0-10 1-5-1-5 20 4 14 5 18 6 25 5l3-1-4-2-6-2c-4 0-6-1-5-2l-2-2c-5-1-25-11-27-14l-3-2h5l8 3 4 1-3-2-3-2v-5l1-2c2-2 0-4-3-4-6 0-10-3-8-7 1-3 1-3-2 0m117 19l-1 6v5l-1 8c-1 1-2 1 12 4l11 2 3-19-24-6m-43 21l2 1 2 1c1 2-3 2-7 1h-6l2 1h1l5 4c6 3 6 3 3 3s-3 0-2 1c2 2-2 0-11-4-8-3-13-4-19-2-3 0-2 1 10 6l14 7-3 22-5 28-1 9c-2 2-2 6-4 15l-1 5 2 1c3 0 3-1 4-10a1648 1648 0 0114-66c0 2 1 1 2-3v-6h3v7c-1 9-1 10 1 2l2-7v-6c-2 1-3-2-2-5 1-2 1-3-1-4l-5-1m193 12l-1 9c0 6 0 7 2 7l13 4a74 74 0 0017 5c1 1 21 6 22 5l3 1c3 4 7 0 7-7-1-2 0-3 1-3v-1h-4l-3-1 3-1 1-1c0-1-5-2-6-1l-1-1c1-1 1-1-1-1a9 9 0 01-6-1l-11-3-1-2h-3c1-1 0-1-1-1l-5-1-25-8-1 2m363 10c-2 3-3 6-1 5l1-1v-2c1-1 2 0 1 1 0 3-1 5-2 4l-1 2c0 2-1 3-2 3l-1 4 1 5h-4l-11 2c-12 1-12 0-11 6a18 18 0 004 9c-1 4 0 7 2 7 3 0 5-1 4-3h1c2 3 15 3 15 0l1-2 1 1c0 2 1 2 5 2l6-1-1-5-1-5v-3l1-18c1-10 0-12-1-12l-4-1-3 2m-529 8l-10 56-4 24 1 1 2-3 1-7 6-36 5-34c1-2 1-2-1-1m163 0l-1 26 1-11c0-10 1-13 3-13s3 3 0 4v1l2-1 3 1 4 2c2 0 2 1 2 4s0 4 1 3h1c0 3 2 2 2-1v-3l1 3 1 4 18 4 14 2c8 2 10 2 11 1s1-4-1-7c-1-1-1-1 1-1l15 4 14 4 5 1 6 2h1l4-1-2-1-49-12-56-16-1 1m216 7c-3 3-3 7 1 9l2 2c-1 1 0 1 2 1l4-1 1-2c3-2 4-5 3-8-2-4-10-4-13-1m-370 4c-4 1-7 5-4 5 2 0 3 4 2 6l2 2c4 2 4 1 4-3 1-5 1-5 3-4 2 0 2 0 0 2v7c1 1 3-2 3-6l2-1c1 0 2 0 1 1l-1 5c0 5 2 5 3 1l2-4c2-1 2-2 0-4l-2-1h-4l-7-1-4-1c0-2 2-3 5-3l4-1h-9m444 2c-6 1-8 1-9 3l-2 3v-3c1-2 0-2-1-2l-47 6v1l1 1 3 1c4 1 2 5-3 4-1-1-2-1-2 1l2 1 7-1 6-2c1-2 4-3 4 0-1 1 0 1 2 1 5 0 6-1 6-4v-2l2 3c0 2 1 2 3 2s3 0 2-1c-3 0-3-2 0-3l2 2a1 1 0 103-1l1-2 1 2a2 2 0 102 0l1-2 1 2a2 2 0 003 0l1-1 1-2v-1l3-2c1-1 3-2 11-3l10-1h-14m-106 6l-5 2-4 3-4 2c-2 1-2 1-1 2l2 3c0 3-1 2-3-1-1-2-1-3-3-3l-6 1-6 2-2 1c-1-1-2 0-3 1s-1 1 0 0c0-2 0-2-2-2l-2 1a3 3 0 01-3 1l-1-1h-1c0 2-2 3-3 1l-4-1h-4l-4-1c-1 1-2 1-1 2l1 2c0 2 2 4 4 4l2-2 1-2 1 2h3v1h2c2-2 6-2 5-1l2 1 4-1c0-2 1-2 2-1 3 1 3 1 3-1v-2l3-2c2-1 2-1 3 1 2 4 0 5-2 3-1-2-2-1 0 1 1 2 8 0 8-3v-2l2 2c-1 3 3 3 7 1h3c1 2-6 4-13 4-3 0-6 2-3 2l-1 2c-3 4-5 14-2 16l1 5v6c1 1 1 1 0 0l-2 1v2h1c2 0 3 0 3 2l-1 2-1-1h-1c0 2-2 3-5 3-1 0-2-1-2-3v-5c-1-2-4 2-4 5s0 3 2 2h1c0 2-1 2-5 2h-6v-9c2-2 1-5-2-5-3-1-3 0-2 2 0 2 0 2-3 2-2 0-3 0-3-3-1-5-1-5 2-4h3l-4-2c-3-2-5-7-3-12 2-4 3-4 3 0 1 3 1 3 1-1 0-3 1-4 2-5s0-1-3-1h-5v4c0 4 0 4-2 3-2-3-14-3-16 0-3 3-7 0-6-5 0-3 2-4 2-1 0 2 1 3 3 1h1l1-1c0-2-8-5-14-5h-7l1 4c0 3 0 4-3 5l-2 2c2 0 1 2-1 2-2 1-2 0-2-3-1-5-3-6-4-1v3l1-3c1-3 1-3 1-1 2 4 2 9 1 9-1-1-3 2-1 3v3c-1-1-1 0-1 1h1v1c-2 2-1 4 1 4l2 3-1 2c-2-1-2 0-2 8l1 8 1-1 1-2 3-2 10-7 8-5h4c-1-3 3-2 5 0 2 3 2 3 5 2h6l1 1c0 1 1 2 2 1l7 2c5 2 7 4 2 3l-3 1c1 1 0 1-1 2-2 1-3 1-2 2l2 1c2-1 1 0-1 2s-2 2-3-1-1-3-2-2l-1 2c-2 0-5-7-4-7l1-1c0-2-2-1-4 1l-3 2c-1-1-2 0-4 2v2l3-2 4-1-1 2-1 1h2l1 1-3 1-8 3h1l1 1c0 1-3 2-8 2-4 0-5 0-2-1 3 0 4-1 2-3-1-1-3 0-5 2-4 2-4 2-4 0h-1c-2 3-4 2-4 0s0-2-2 0-3-1-1-3v-1l-2 3c-1 2-2 3-2 1l-3-1c-4 0-4 0-4-2 1-2 1-2-3-2-3 1-3 0-3-2 0-4 1-5 5-5h4v-4c-1-5-2-6-4-5-1 1-3-4-3-9 0-2 0-2-2 1l-2 4v-5c0-4 0-4-1-2a5 5 0 01-4 2c-2 1-6 6-6 8-1 3-9 4-9 2l-2-1h-1l1-4-1-4v-2c1-1 2-2 1-3 0-2-1-2-2-1l-2 1-5 1c-3 2-4 3-5 9l-1 6h-6c-6 0-6 0-5 6 1 4 0 5-1 4h-2l-1-1v-10c2-1 1-5 0-5l-2-2-2-2c-1 1-2 0-2-1l-3-1c-6 1-6 0-6-5l2-6v-2c-1-1-1-1 2-1h3v14l1-7c1-8 0-11-2-11l-3 1a2 2 0 11-1-3c1 1 1 0 0 0 0-2 0-2 3-2 2 0 3-1 3-2a16 16 0 00-1-12c0-3-3-2-3 1v2l1 1-2 1-3-1v18l-2 24v7h2c2 0 3 0 2 1h-2c-2 0-2 1-2 49l-1 49 1 10 3 1 4 2a2 2 0 003 1l4 2 3 2c2 1 3-1 2-4l1-1 2 1h6c3 2 4 2 4 7 1 7 4 7 4 0 0-6 0-6 9-2l4 2v12l6 2c7 3 8 3 8 0 0-4 4-8 5-6l1 2c1-1 2 4 1 7l1 4c1 1 1-1 1-6v-7l5 2 5 5 2 1v-2c4 0 6 8 3 10l-1-2c1-2 1-2-1 0h-1c1-1 0-2-1-3s-1-1-1 2h-1l-4 2 2 1h1l58 27c21 10 20 10 20 7 1-2 1-2 1 0 0 3 1 3 4 5l19 9 15 7h182V310h-6c-5 0-6 0-6-2-1-2 0-3 3-1h5l2-1c1-1-2-2-7-2l-5-1 7-1h7l-1-6-1-6v-2c1-1 3-10 2-12h-17c-18 1-20 1-17 3 2 2 2 12 0 14l-2 4-2 2-20 1c-1-1 2-4 4-5s1-1-1-1c-4 0-4 0-5-2 0-3-1-4-4-4-6 0-5-3 1-3s5-2-1-2c-8-1-9-4-2-5 4-1 7-3 4-3v-2c0-2-3-3-4-1-2 2-6 1-7-2-2-4-1-4 3-4l6-1c2-1-1-1-28 2-21 2-19 1-18 5 1 3 1 4-1 4l-1 3c1 1 0 2-1 2l-1 1-3 1v-2l2-1-2-1 1-1c2-1 2-1-2-1l-4-1-1-2v2l1 2v1l1 3c3 1 1 3-3 3-2 0-4 0-5-2l-3-2-3-3-1-4-2 14c0 2 0 3-2 3s-4-3-3-5c0-1-1-2-3-2l-5-4c-2-3-6-3-8 0l-5 2c-2 0-2 0 0 1l2 2 1 2c1 2 1 2-2 1l-3 1c0 3-1 2-11-7l-7-10 22-2 37-3 61-5h3v-1c0-3 3-3-54 3-61 6-69 7-69 5l1-2v-1l1-2c1-1 1-1 2 1 0 4 4 4 7 1 2-2 2-2 2 0 1 1 1 0 1-1l1-3 1-1 1-2c2 0 2 1 0 4v2l-1 1c-1 1-1 1 2 1l4-1h2l3-1c1-2 4-3 4-1a2 2 0 002 0l2-3c4-1 4-4 0-4-3 0-3 0-2 2l1 1-10 1-1 1 1 1a2 2 0 01-4-1h1l1-1 1-2c1-1 0-1-2-1-5 0-5-1 1-2h-2c-6 0-16 3-13 3l2 1h-2l-2 1c0 1-7 0-10-2-1-1-2-2-1-3 0-2-1-3-1-1m-127 15l-1 7v5l4 3c3 3 5 3 5-3 1-4 0-6-3-8l-1-5c0-3 0-4-2-4s-2 1-2 5m115 5c-2 1-2 1-1 2v1c-1 0-2 0-1 1l-1 1v2c0 2-4 5-7 5-1-1-2 0-2 1l1 2h2l-1 1v4c0 2 1 3 2 3l1 3c1 4 6 11 8 10l-1-3c-2-3-1-10 1-13 2-1 2-1 7 1l5 3v-3l-2-7-2-5h-11l2-3c2-3 6-4 8-1 1 1 1 1 1-1-1-4-5-5-9-4m-246 24c-2 1-3 2-1 5s3 9 2 11c-1 1 0 1 3 1l7 2a5 5 0 007-6c1-4-3-11-8-11a31 31 0 01-7-3l-3 1m67 2l-2 5a16 16 0 01-5 11c-1 2-3 3-5 3l-11 1c-8 0-8 0-4 1h17l5 1c3 0 3 1-2 1l-7 1h14v-4a5 5 0 00-1-5h1l1-8c0-8 0-9-1-7m-27 3c-1 2-1 4 1 4 1 0 2 2 0 2v4l1 4 8 1c9 0 10-1 4-4-3-2-4-3-5-7-2-5-6-7-9-4m89 1v7c-1 6-5 11-9 10-4-2-48-2-48-1l3 1 56 3 8-2-7-1c-6 0-6 0-4-2l4-3h1c0 1 4 0 7-3l2-2-2-3-3-2h7c1 1 1 1 0 0-1-5-13-6-15-2m-115 17l-5 3h-1c-2-2-7-3-7-1l-2 47-2 6-1 4c2 5-5 9-9 5-1-2-1-2-1 0l-1 2c5 0 22 6 47 17l8 3 6 3c3 1 3 1 3-1-1-4 0-4 9-1l9 3a37 37 0 00-1-9v4l-7-3c-4-3-6-4-6-6-1-1-1-1-1 2 0 4-2 6-3 2-2-3-1-9 1-9l1-3 2-5 3-2 2 2c3 3 7 6 9 6v-8l-1-8h-1v2l-1-3c0-2 0-3-2-2-1 0-2 0-3-2s-1-2-1 0-1 3-2 3c-3 0-4-2-4-7l1-5-3 1-4 1-2 1h-1l-2 1c-1-1-1-1 0 0l1 3c0 2 0 3 1 2l2-2 3-1 2-2v6l-1 2-1 2h-2a2 2 0 00-4 0l-2 3h-1c1-2 1-2-1-2s-2-1-2-9c0-1-1-2-2-1h-3l1 1c2 2 2 3-1 2-2 0-2-1-2-13s-1-29-2-25a2 2 0 01-3 1l-1-2-1-1h3c2 0 3 0 3-3 0-2 1-3 3-3l3-1h-2l-5-1h-6c1-1-1-1-7 1m136 8h-3v7l1 7h9c8 1 13 0 9-2v-6c-1-2-1-2-1 1 0 2 0 2-1 0l1-4c2-2-5-4-15-3m72 0c-1 1 0 3 2 3l1 2 2 1v1a4 4 0 000 5l2 2c1 2 0 2-1 2v7c1 1 4-1 3-3h9c17 1 30 1 42-2l9-3c-2-2-26-2-26-1l-2 1c-2 0-2 0-1-1v-2l-2-1h3c2 0 2 0 2-2v-3c1 0 1-1-1-2-1-2-1-2-3 1l-1 1c-3-7-3-8-4-3l1 7c1 1 1 1-7 1-14 0-16-1-16-4s-1-4-3-4l-2-3h-7m-137 6c-1 3-3 4-3 2s-2-3-6-2l-3 1v13l1 12 1-8c0-7 1-6 3 1 1 1 1 0 1-1v-4l2-1c0-6 4-12 4-8l2-1c3-3 4-5 1-5v-1l-1-1-2 3m18 2c-1 4-1 5 1 4 3 0 3 0 2 2l-1 1c-2-2-4 0-5 7-1 6-2 7-2 4l-1-4v-11l-3-1c-2 0-2 0-1 1 2 1 2 1 1 3-2 1-2 3-1 6v2l-1 5v5l-2-3c-2-4-3-4-3 0l-2 3v-1c0-2 0-2-2-2s-3 0-2 1l-1 1-1-1-2-1 1 2 1 2 1 1 1 1 1 1h4c0 2 4 2 6 0l4-1 2-2c0-3 0-3 5 2 4 5 4 5 6 1 0-3 0-3-2-3l-3-1h1v-3l1-4 1 3c0 4 2 5 2 2a227 227 0 003-17c1-1-5-7-7-7l-2 2m19 14l-1 1v-2l-2 1h-1c-2-3-4 0-4 4 0 3 1 3 6 5 7 3 7 3 7-4 0-8-1-8-5-5m37 5l-4 3-1 2-1 2c-1 0-2-1-1-2l-4-3-1 3c0 3 1 4 3 4 6 0 7 1 7 3-1 3 15 14 16 12l5-17-16-10-3 3m42 0l2 15c1 1 3 2 8 2h7v-4l-1-9-1-4-7-1-8 1m2 3l1 12h7c6 0 8-2 4-6l-1-2v-2c-1-1-2-2-1-3l-3-1c-3 0-3 0-3 2 1 1 1 1 0 0-2-2-2-2-2 0h-1c-1-2-1-2-1 0m-102 14c4 2 5 4 1 2-5-2-5-1-5 4 0 4 1 4 4 5l4 1-4 2c-4 2-4 2-3 5l1 4 5-2c6-3 7-7 1-4-5 2-6 1-1-2 4-1 5-4 3-4l-1-4 1-4c2-2 1-4-1-3l-3-1-4-1c-2 0-2 0 2 2m-59 5c0 2-4 3-9 3-4-1-5-1-5 2l1 3 2 2 2 2c0-1 2 0 3 2 2 2 2 2 3 1 2-1 4-9 4-10v-6l-1 1m34 23l1 7 4 2c6 3 6 3 6-5 0-7-2-10-4-7-1 1-2 0-3-2-3-3-4-3-4 5m54 3l-4 5h-3c-4-2-5-1-5 2 0 2 0 2-1 0l-13-6-1 8 1 7 6 3c7 3 8 3 8 0 0-2 0-2 4 0 5 4 6 4 6-3v-5l6 6 6 6 2-5c4-6 3-7-4-15l-6-6-2 3m29 6l-1 9c-2 9-2 8 6 13s8 5 8 2l1-2 1-7c0-6 0-7-3-8a826 826 0 01-12-7m28 18l-1 5c0 3 0 4-4 5l-4 2 4-1 4-2 4 4c7 8 14 2 9-8-2-5-9-8-12-5" tabindex="-1" itemprop="bold" style="fill: rgb(63, 13, 13); fill-opacity: 0.78; fill-rule: evenodd; color: rgb(211, 168, 13);"></path></svg>