<svg id="16282281824-posters-1653312561027" itemscope="" itemtype="/posters" itemid="/+16282281824/posters/1653312561027" viewBox="0 0 919 512" preserveAspectRatio="xMidYMid slice" tabindex="0" xmlns="http://www.w3.org/2000/svg"><defs class="gradients"><g class="radial"><radialGradient id="16282281824-posters-1653312561027-radial"><stop itemprop="radial" stop-color="hsla(45, 9%, 67%, 1.00)" offset="0%"></stop><stop itemprop="radial" stop-color="hsla(44, 9%, 67%, 1.00)" offset="15%"></stop><stop itemprop="radial" stop-color="hsla(44, 9%, 67%, 1.00)" offset="30%"></stop><stop itemprop="radial" stop-color="hsla(45, 9%, 66%, 1.00)" offset="45%"></stop><stop itemprop="radial" stop-color="hsla(41, 10%, 59%, 1.00)" offset="60%"></stop><stop itemprop="radial" stop-color="hsla(43, 10%, 61%, 1.00)" offset="75%"></stop><stop itemprop="radial" stop-color="hsla(45, 9%, 68%, 1.00)" offset="90%"></stop></radialGradient><radialGradient id="16282281824-posters-1653312561027-radial-background"><stop stop-color="hsla(45, 9%, 80%, 1)" offset="0%"></stop><stop stop-color="hsla(44, 9%, 80%, 1)" offset="15%"></stop><stop stop-color="hsla(44, 9%, 80%, 1)" offset="30%"></stop><stop stop-color="hsla(45, 9%, 80%, 1)" offset="45%"></stop><stop stop-color="hsla(41, 10%, 80%, 1)" offset="60%"></stop><stop stop-color="hsla(43, 10%, 80%, 1)" offset="75%"></stop><stop stop-color="hsla(45, 9%, 80%, 1)" offset="90%"></stop></radialGradient><radialGradient id="16282281824-posters-1653312561027-radial-light"><stop stop-color="hsla(45, 9%, 66%, 1)" offset="0%"></stop><stop stop-color="hsla(44, 9%, 66%, 1)" offset="15%"></stop><stop stop-color="hsla(44, 9%, 66%, 1)" offset="30%"></stop><stop stop-color="hsla(45, 9%, 66%, 1)" offset="45%"></stop><stop stop-color="hsla(41, 10%, 66%, 1)" offset="60%"></stop><stop stop-color="hsla(43, 10%, 66%, 1)" offset="75%"></stop><stop stop-color="hsla(45, 9%, 66%, 1)" offset="90%"></stop></radialGradient><radialGradient id="16282281824-posters-1653312561027-radial-regular"><stop stop-color="hsla(45, 9%, 44%, 1)" offset="0%"></stop><stop stop-color="hsla(44, 9%, 44%, 1)" offset="15%"></stop><stop stop-color="hsla(44, 9%, 44%, 1)" offset="30%"></stop><stop stop-color="hsla(45, 9%, 44%, 1)" offset="45%"></stop><stop stop-color="hsla(41, 10%, 44%, 1)" offset="60%"></stop><stop stop-color="hsla(43, 10%, 44%, 1)" offset="75%"></stop><stop stop-color="hsla(45, 9%, 44%, 1)" offset="90%"></stop></radialGradient><radialGradient id="16282281824-posters-1653312561027-radial-bold"><stop stop-color="hsla(45, 9%, 13%, 1)" offset="0%"></stop><stop stop-color="hsla(44, 9%, 13%, 1)" offset="15%"></stop><stop stop-color="hsla(44, 9%, 13%, 1)" offset="30%"></stop><stop stop-color="hsla(45, 9%, 13%, 1)" offset="45%"></stop><stop stop-color="hsla(41, 10%, 13%, 1)" offset="60%"></stop><stop stop-color="hsla(43, 10%, 13%, 1)" offset="75%"></stop><stop stop-color="hsla(45, 9%, 13%, 1)" offset="90%"></stop></radialGradient></g><g class="vertical"><linearGradient id="16282281824-posters-1653312561027-vertical" x1="0" x2="0" y1="0" y2="100%"><stop itemprop="vertical" stop-color="hsla(45, 9%, 67%, 0.56)" offset="0%"></stop><stop itemprop="vertical" stop-color="hsla(44, 9%, 67%, 0.56)" offset="15%"></stop><stop itemprop="vertical" stop-color="hsla(46, 9%, 67%, 0.56)" offset="30%"></stop><stop itemprop="vertical" stop-color="hsla(45, 9%, 66%, 0.56)" offset="45%"></stop><stop itemprop="vertical" stop-color="hsla(41, 10%, 59%, 0.56)" offset="60%"></stop><stop itemprop="vertical" stop-color="hsla(43, 10%, 61%, 0.56)" offset="75%"></stop><stop itemprop="vertical" stop-color="hsla(46, 9%, 67%, 0.56)" offset="90%"></stop></linearGradient><linearGradient id="16282281824-posters-1653312561027-vertical-background" x1="0" x2="0" y1="0" y2="100%"><stop stop-color="hsla(45, 9%, 80%, 1)" offset="0%"></stop><stop stop-color="hsla(44, 9%, 80%, 1)" offset="15%"></stop><stop stop-color="hsla(46, 9%, 80%, 1)" offset="30%"></stop><stop stop-color="hsla(45, 9%, 80%, 1)" offset="45%"></stop><stop stop-color="hsla(41, 10%, 80%, 1)" offset="60%"></stop><stop stop-color="hsla(43, 10%, 80%, 1)" offset="75%"></stop><stop stop-color="hsla(46, 9%, 80%, 1)" offset="90%"></stop></linearGradient><linearGradient id="16282281824-posters-1653312561027-vertical-light" x1="0" x2="0" y1="0" y2="100%"><stop stop-color="hsla(45, 9%, 66%, 1)" offset="0%"></stop><stop stop-color="hsla(44, 9%, 66%, 1)" offset="15%"></stop><stop stop-color="hsla(46, 9%, 66%, 1)" offset="30%"></stop><stop stop-color="hsla(45, 9%, 66%, 1)" offset="45%"></stop><stop stop-color="hsla(41, 10%, 66%, 1)" offset="60%"></stop><stop stop-color="hsla(43, 10%, 66%, 1)" offset="75%"></stop><stop stop-color="hsla(46, 9%, 66%, 1)" offset="90%"></stop></linearGradient><linearGradient id="16282281824-posters-1653312561027-vertical-regular" x1="0" x2="0" y1="0" y2="100%"><stop stop-color="hsla(45, 9%, 44%, 1)" offset="0%"></stop><stop stop-color="hsla(44, 9%, 44%, 1)" offset="15%"></stop><stop stop-color="hsla(46, 9%, 44%, 1)" offset="30%"></stop><stop stop-color="hsla(45, 9%, 44%, 1)" offset="45%"></stop><stop stop-color="hsla(41, 10%, 44%, 1)" offset="60%"></stop><stop stop-color="hsla(43, 10%, 44%, 1)" offset="75%"></stop><stop stop-color="hsla(46, 9%, 44%, 1)" offset="90%"></stop></linearGradient><linearGradient id="16282281824-posters-1653312561027-vertical-bold" x1="0" x2="0" y1="0" y2="100%"><stop stop-color="hsla(45, 9%, 13%, 1)" offset="0%"></stop><stop stop-color="hsla(44, 9%, 13%, 1)" offset="15%"></stop><stop stop-color="hsla(46, 9%, 13%, 1)" offset="30%"></stop><stop stop-color="hsla(45, 9%, 13%, 1)" offset="45%"></stop><stop stop-color="hsla(41, 10%, 13%, 1)" offset="60%"></stop><stop stop-color="hsla(43, 10%, 13%, 1)" offset="75%"></stop><stop stop-color="hsla(46, 9%, 13%, 1)" offset="90%"></stop></linearGradient></g><g class="horizontal"><linearGradient id="16282281824-posters-1653312561027-horizontal" x1="0" x2="100%" y1="0" y2="0"><stop itemprop="horizontal" stop-color="hsla(45, 9%, 67%, 1.00)" offset="0%"></stop><stop itemprop="horizontal" stop-color="hsla(46, 9%, 67%, 1.00)" offset="15%"></stop><stop itemprop="horizontal" stop-color="hsla(41, 10%, 61%, 1.00)" offset="30%"></stop><stop itemprop="horizontal" stop-color="hsla(44, 9%, 66%, 1.00)" offset="45%"></stop><stop itemprop="horizontal" stop-color="hsla(46, 9%, 71%, 1.00)" offset="60%"></stop><stop itemprop="horizontal" stop-color="hsla(45, 9%, 72%, 1.00)" offset="75%"></stop><stop itemprop="horizontal" stop-color="hsla(45, 10%, 67%, 1.00)" offset="90%"></stop></linearGradient><linearGradient id="16282281824-posters-1653312561027-horizontal-background" x1="0" x2="100%" y1="0" y2="0"><stop stop-color="hsla(45, 9%, 80%, 1)" offset="0%"></stop><stop stop-color="hsla(46, 9%, 80%, 1)" offset="15%"></stop><stop stop-color="hsla(41, 10%, 80%, 1)" offset="30%"></stop><stop stop-color="hsla(44, 9%, 80%, 1)" offset="45%"></stop><stop stop-color="hsla(46, 9%, 80%, 1)" offset="60%"></stop><stop stop-color="hsla(45, 9%, 80%, 1)" offset="75%"></stop><stop stop-color="hsla(45, 10%, 80%, 1)" offset="90%"></stop></linearGradient><linearGradient id="16282281824-posters-1653312561027-horizontal-light" x1="0" x2="100%" y1="0" y2="0"><stop stop-color="hsla(45, 9%, 66%, 1)" offset="0%"></stop><stop stop-color="hsla(46, 9%, 66%, 1)" offset="15%"></stop><stop stop-color="hsla(41, 10%, 66%, 1)" offset="30%"></stop><stop stop-color="hsla(44, 9%, 66%, 1)" offset="45%"></stop><stop stop-color="hsla(46, 9%, 66%, 1)" offset="60%"></stop><stop stop-color="hsla(45, 9%, 66%, 1)" offset="75%"></stop><stop stop-color="hsla(45, 10%, 66%, 1)" offset="90%"></stop></linearGradient><linearGradient id="16282281824-posters-1653312561027-horizontal-regular" x1="0" x2="100%" y1="0" y2="0"><stop stop-color="hsla(45, 9%, 44%, 1)" offset="0%"></stop><stop stop-color="hsla(46, 9%, 44%, 1)" offset="15%"></stop><stop stop-color="hsla(41, 10%, 44%, 1)" offset="30%"></stop><stop stop-color="hsla(44, 9%, 44%, 1)" offset="45%"></stop><stop stop-color="hsla(46, 9%, 44%, 1)" offset="60%"></stop><stop stop-color="hsla(45, 9%, 44%, 1)" offset="75%"></stop><stop stop-color="hsla(45, 10%, 44%, 1)" offset="90%"></stop></linearGradient><linearGradient id="16282281824-posters-1653312561027-horizontal-bold" x1="0" x2="100%" y1="0" y2="0"><stop stop-color="hsla(45, 9%, 13%, 1)" offset="0%"></stop><stop stop-color="hsla(46, 9%, 13%, 1)" offset="15%"></stop><stop stop-color="hsla(41, 10%, 13%, 1)" offset="30%"></stop><stop stop-color="hsla(44, 9%, 13%, 1)" offset="45%"></stop><stop stop-color="hsla(46, 9%, 13%, 1)" offset="60%"></stop><stop stop-color="hsla(45, 9%, 13%, 1)" offset="75%"></stop><stop stop-color="hsla(45, 10%, 13%, 1)" offset="90%"></stop></linearGradient></g></defs><rect itemprop="background" width="100%" height="100%" tabindex="-1" id="16282281824-posters-1653312561027-background" fill="url(#16282281824-posters-1653312561027-radial-background)"></rect><path id="16282281824-posters-1653312561027-light" d="M881 7c1 7 4 17 6 17l1 8c0 8 0 8 3 8h2v9l1 10 2 3c0 2 1 2 4 2h4v-4l-1-4c-2 0-2-1-2-4s0-4 2-4l1-4c0-4 0-4 4-4s12 7 9 8c-2 0-3 8-1 8l1 4 1 4 1-15V18l1-17-16-1c-14 0-16 0-16 2h-1c0-1-1-2-3-2h-3v7m-6 13l-1 3-1 6c-2 4-2 10-1 14s3 0 3-5l2-10c3-6 1-12-2-8m25 73c-2 1-5 4-3 4l1 2c-1 3 1 4 3 1 2-1 3-2 4-1 2 1 3-3 1-5s-3-2-6-1m-537 49l-3 2-5 3c-4 1-10 8-10 12l-2 4-2 4c1 7-2 9-9 8h-6c-3 2-6 8-4 10l-3 1c-5 0-6 1-6 4 1 2 0 3-2 4-4 2-8 9-8 14s-3 12-6 13c-4 2-6 5-6 9v4h-9c-9 0-12-2-10-5h-1l-6-3-6-4-2-3c-2-2-3-2-15-3-10 0-12 0-14-2-5-5-14-2-18 6l-4 4-13 9-2 1-3 1a3 3 0 110-4l3-1 2-1 1-1c0-1-4-3-7-3s-3 0-2-2c1-1 2-2 6-1 4 0 5 0 6-2l2-2c1 1 2 0 2-1 2-4-24-6-33-3-9 4-10 8-2 9 4 0 7 1 6 2h-7c-6-1-15 1-20 4-1 1-16-5-18-7h-8c-2 2-4 3-8 3l-5 2c-4 1-6 0-9-7-3-5-4-5-14 1-11 5-18 5-27 0-2-1-3 0-5 2-7 7-24 7-31 0-2-1-2-1-12 5l-5 2c-3 1-3 2-3 5l1 3c1-1 2-1 5 1l3 2H4c-6 1-5 4 1 4 5 0 5 0 3 1l-5 1c-2-1-3 0-3 1h9l6-1 10-3c9-3 29-4 29-1l4 1c2 0 2 0 0 1-1 2 0 3 3 2v1l-7 1c-29 0-54 1-54 3l15 1a2683 2683 0 0134-2h5c-2 0-1 2 1 2h1l2-1c2 0 3 1 3 2v2H0v2c0 3 0 3 5 3h6l-6 1c-5 1-3 1 7 1h13l-13 1 23 1c19 0 34 0 33-1-3-1-1-2 3-1 4 0 5 0 3 1s0 1 6 1c8 0 9 0 9-2-1-1-1-1 1-1l2 1-1 1 1 1c1-2 1-3-1-4-1-1-1-1 1-1s3 0 2 1l2 3h1c-1-2 0-4 2-4s4 2 2 3l-1-1c0-2-2-1-1 1l2 2v2l-1 1c0-1-17-2-84-1H0v7a11 11 0 001 8c-2 0-1 3 2 3l4 1c1 1 0 1-3 1H1v3c1 2 1 2 3 1 3-3 4-2 1 0-2 2-3 2-4 1s-1-1-1 2l1 3v1l-1 4 1 3 3 2c1 1 1 1 0 0l-3-1v30c-3 2 0 2 3 1l5-1c1 1 1 1-1 1l-2 1-4 1-2 2c0 2 1 3 5 3l18 2h7l-4 2c-3 0-7 2-11 4l-11 3a3 3 0 10-2 5 52 52 0 0018-4l5-2c3 0-2 2-9 4l-11 4H0v14h12l20 1h9l-4 2-6 3c-2 1-6 8-6 10l3 2 5 4c1 2 2 2 5 2 4-1 4-1 4 2-1 4 0 4 4 2 3-2 3-2 3 2l1 3 2 6v4l-9 2c-10 3-21 3-29 1-9-2-14-2-14-1s2 2 6 2l14 2c8 1 9 1 19-1 13-4 13-4 13 1v4l-4-1c-10-1-21 0-27 2l-9 2c-3-1-12 0-12 1h13l8-1c4-2 21-3 28-1 2 0 3 1 3 4 0 4 0 4 4 4l4 1c0 1-4 2-15 2H34l3-2 6-2 3-2h-6l-4 2-4 1H13l9-2 13-2c7-2 14-2 14 0v1l1-2c0-2 0-2-13-2l-13 2-9 1h-5c1 1 0 1-4 2-8 2-8 4 2 5l9 1-9-1c-7 0-8 0-8 2h60l1 3v3h-8c-9 0-8-1 2-3l5-1-9 1-28 1c-21 0-23 1-11 3l6 2 1 1 1-1c2-2 16-2 18-1l6 2c2-1 2-1-1-1-6 0-3-2 4-2 9 0 14 1 14 2s-1 2-3 1c-2 0-2 0-1 1s2 2 3 1l1 2c0 2 0 2 16 2 15 0 16 0 17 2 1 1 1 2-1 2-3 1-16 2-17 1h-2l-5 1H53l-9-1c-17-4-44-5-44-2 0 2 1 2 3 1 4 0 12 1 16 4 2 1 9-1 7-3-1-2 13-1 15 1 1 1 3 2 17 2 15 0 16 0 16 2 0 3 2 3 2 0 0-2 1-2 8-3h8c2-1 4 0 4 1 0 3 2 4 10 5s12-1 12-6c1-4 2-4 8-4l4 1v5c-1 6-2 6 18 6 16 1 19 0 16-3-2 0-2-1-1-1 2 0 1-6-1-8s-2-2 7-2l22-5h39l16-1 13-1c1-1 3 2 3 5-1 1-2 2-13 2h-14l-15 2-14 1h10l18-1c9-2 28-2 29 0s-2 4-8 5l-6 3 11-3c3-1 3 0 0 2-2 1-3 2-2 3v1h-3l-6 1-5 1c-3 2-15 3-35 5-6 0-9 1-9 2-1 1 0 1 2 1l11-1c20 0 24 0 32-3s15-4 17-2l2 1c2-2 35-3 35-2l-9 7-1 2-1 2-2 1-2 3c-2 1-2 1 0 1l4-3 7-8c2 0 15-10 18-12 4-5 7-6 16-6l12-2 11-2c12-1 16 0 24 7 5 4 7 4 20 2 17-3 17-2 17-12a42 42 0 012-11c-2 0 5-8 8-10 9-3 9-3 9-7 1-2 0-9-3-17 0-3 3-6 8-6a4 4 0 006-3c1 0 0 11-2 19-5 21 8 52 23 58 9 3 12 5 15 9l10 10 5 8 2 6v-15c0-20 2-40 6-62l1-3 1-4 2-7 3-6c1-3 2-3 5-3 4 0 6 2 3 3s-5 4-4 6l-2 2v1c2 0 1 2-1 2s-2 0-1 1 1 2-2 10c-4 13-6 22-6 34 0 11 2 30 4 33 1 2 1-2-1-12-4-20 0-47 9-67l3-6 4 1 15 3 15 2c5 0 9 2 14 6 6 5 8 5 16-2a63 63 0 0139-15 58 58 0 00-37 11c-1 0 1-5 3-7 5-7 13-19 13-21 1-1 2-2 6-2l11-3c5-2 6-2 15 0 14 2 31 2 38 0 6-1 11-1 18 2 5 1 7 3 7 8s5 7 12 6l4 3 2 1c0-2-4-5-8-5-6 0-8-1-8-6 0-8-15-13-28-10-5 2-29 1-35 0l-13-2c-14-1-16-2-11-4l4-3c2-4 8-9 12-8 3 1 4 1 7-1l6-2 16-7 4-2 3-2h-3l-4 2-5 3c-2 2-5 2-27 6h-16l-7-2-6-1c-1-2-1-2 4-2a98 98 0 009-1l1-1c-1-1 0-4 2-7l3-7c-1-1 4-5 6-5 3 0 3-1 1-3-1-2-1-2 1-2 5 2 8 3 10 2 2-2 8-3 8-2s8 9 9 8l-4-4c-4-3-4-4 4-8 6-3 6-3 7-9 0-6 1-8 3-9l3-1h-3l-2 1-3-2c-2-3-7-5-13-4-3 0-3 0-1-2 2-1 1-2-2-3-2-1 0-2 7-3 8-2 9-2 11 1 0 2 2 3 5 4 6 2 8 1 2-1-5-2-8-5-5-6l14-1 13-1h-24c-6 1-7 0-12-2-8-4-8-5-3-7l5-3 2-1 4-3c1-3 1-3-1-5l-4-2 3-1c6-1 8 0 8 2-1 1 2 2 8 6 15 7 19 10 17 14-1 1-2 3-1 4 0 2 0 4-2 5-3 3-5 8-5 9 0 2 9 7 16 8 6 1 14 4 14 5l-5 3-5 4-6 3a16 16 0 00-12 12l-1 7c0 2 1 4 4 7l3 3-2 4-3 3-9 2-10 3c-4 2-6 2-10 1-4 0-9 0-16 2-13 2-12 4 4 3 4 0 8 0 12 2 5 1 11 0 11-3l9-4 10-3c2-2 8-5 13-6 5-2 9-5 9-7a58 58 0 00-15-15c0-2 16-11 18-11l14-7c0-2-2-1-4 1l-4 3c-9 2-25 11-25 13l3 4 11 12-6 4-7 3c-3 2-3 1-2-2 2-3 2-3-2-5-8-6-5-20 6-23l8-5 8-5c2 0 4-2 5-3h6l5 2c1-1-1-3-4-3-1 0-2 0-1-1l-4-1c-7 0-26-5-31-8-3-2-3-2-1-4l2-4 1-2 2-4c0-3 0-3 1-1v4l1 1 1-4-1-3 6 1c12 1 23 3 36 7 11 4 15 4 6 0-11-4-35-9-43-9-4 0-5-1-4-3v-2c-1 1-2 0-1-1l-2-2-7-4-13-7-2-2c1-1 4-2 19-4l11-2 12-2 9-1 7-1c5 0 6 0 4 1s-2 1 0 1l3-1c2-5 1 9-3 15l-3 4c-2 0-3 3-2 6 0 2 1 3 2 1h21l2-5 3-4 7-14v-4h10c9-1 11-1 11 1h4c0-2 1-2 3-2 3 0 3 0 3 3v2c3 0 4-2 3-3 0-2 1-2 11-2h11l-1 3c0 3 0 3 2 3s4-4 3-5l1-1c2 0 2 1 1 3l-2 4-3 5-1 7 1-1 4-1c4 0 6-1 6-3l2-4v-8c-3-1 0-2 6-2h3l-3 1h3l5-1 21-1 20-1-6-1c-23 0-35-2-40-5h-10v-3c1-4 0-7-1-5l-1 5c0 3-3 4-5 2l-1-1h-3l-6-1c2 2-7 3-10 2l-3-2c-1 1-10-2-11-3-2-1-8-1-15 2-13 3-17-2-17-22 1-5-1-5-3 0a139 139 0 01-7 14l-3 1-9 3c-11 4-48 2-65-4-5-2-6-2-15-1-10 1-16 1-20-2h-7l-7-1c-3-2-29-3-32-1-2 1-12 0-15-3l-5-1c-3 0-9-3-20-10-8-6-16-7-22-3h-10c-7-2-9-2-17 0l-13 4-7 2-2-3c-3-2-4-2-13-2-12 0-15-2-16-9 0-6-2-9-7-12l-5-5c0-3-4-8-6-8l-1-3c0-6-7-14-13-16-6-1-9-5-9-10 0-4-2-10-4-10l-2-3c-4-8-24-14-33-10m9 2h2l3 1c-1 1 2 4 4 4l2 2c1 2 5 5 5 3l-3-3-1-1c0-2-2-5-4-5l-2-1h-6m151 0l-16 2c-5 2-4 4 2 4l14 2 5 2-5 4c-7 5-9 12-4 15 3 1 28 3 35 2 9-1 17-4 16-7-1-1 1-1 13-3l7-1c2-4 3-4 8-4 8 0 13-8 7-13-5-6-15-2-15 6l1 4-17-1c-14 0-17 0-18-2-2-2-2-2 6-2 9-1 13-2 13-4s-2-3-16-4h-36m22 2l8 1c10 0 14 2 4 2h-5l4 1c5 1 10 0 10-1 1-1 2-2 4-1 2 0 2 0 1-1l-26-1m-180 2c-1 1-3 2-2 0l-2-1-1 2-1 1-3 2c0 2 4 1 5-1h2c1 2 12 1 12-2h-1l-2-1h-4c0-2-1-2-3 0m-4 11l-4 2-4 1a8 8 0 01-7 1l1-1c0-1-2 0-3 2s2 2 9 0l8-3 4-1-1-1c-1 1-1 0 0 0 0-3-1-2-3 0m172 4c-3 3-3 3-8 3h-6c-1 1 3 2 8 1l-1 1-2 2h2c2 0 3-1 3-2l1-1 1 1c-1 1 0 2 2 1l2-4 1-5c1-2-1-1-3 3m9 7c-1 2 0 3 4 3 5 0 6 0 6-2 0-4-9-4-10-1m-174 16l-7 3c-5 2-3 3 4 3 6 0 7 0 7-2l2-4 2-2h-2l-6 2m536 10l-1 4-1 4c0 4 0 4 4 4 3 0 3 0 3-4 0-3 0-4 2-4l1 3c0 2 0 2 4 2h3v-7c0-5 0-5-1-2 0 6-4 6-4 0v-4h-10v4m-729 18l-12 5c0 2 6 2 10 0l2 1s1 2 3 2c3 2 3 2 3-1 1-3 0-3 9-1l5-1 3-2-3-2c-6-1-18-2-20-1m44 0c-3 0-5 2-6 4s-1 2 1 2l7-3c6-1 6-1 4-3h-6m-136 9l-4 1-4 2c-2 1-2 1 6 3l9 3 5-1c7-1 7-1 4-4-4-4-11-6-16-4m-32 3l-6 4-3 1 5 1h5l2-1 2-2c0-2 0-2 6-2l7 1-4-2c-8-3-10-3-14 0m67-1l-8 3c-5 2-5 2-2 2l6-1h5l3 2h3c4 2 7 2 7 0v-2l4 1h3l-10-4-1-1c-1-2-7-2-10 0m-102 2v1l-6 1-6 3c-2 1 5 1 15-1 8-1 9-4 2-4l-2-1a1 1 0 00-3 1m142-1l-5 2-3 1-6 4a2 2 0 004 0l2-2c3 0 4 0 3 1l2 1 1-2h7c3 1 8-2 6-4-2-1-7-2-11-1m63 1c-3 5-4 17-1 19h2l-1-1-1-2h3l1-1h2c2-1 0-3-3-3s-4 0-4-2h2c1 2 1 2 1 0h1l2 1-1-3c-3-2-4-4-2-7 1-2 1-3-1-1m277 1l-8 2-4 2h3l5-1h11l4-1c3 1 6-1 4-1-7-2-10-3-15-1m27-1l-5 2-17 6-3 1h3c2-1 6 0 11 2 8 3 14 4 33 3 8 0 10 0 9-1l-20-13h-11m-454 2h-6l-7 1-2 3-2 1c0 2-8 0-12-2l-4-1-8 4-12 5-4 2h4a20 20 0 0014-4c3 2 18 2 23 1l20-4 11-2-15-4m378 3l-2 9c-3 6-3 15 1 14l7-1c5 0 6 0 4-1-2 0-3-1-3-2 1-3 2-4 7-4 4 0 5 0 4-1-3-2 3-5 9-5h7l-3-2-6-4c-4-4-7-5-16-6h-9v3m-336-1l-10 1-13 2-12 3-5 2 2 1 2 1 7-1 7-2c5-2 14-1 15 1h7l-1 1-2 1c-2 2 2 1 4-1s5-2 6 0c0 1-1 2-2 1s-5 2-5 3c0 2 9 0 17-2l9-2c7 1 14 0 13-1l-4-1h-1c-1-1 2-2 5-3v-2l-3 1-4 1-4-1c1-2 0-2-3-2l-4 1c2 2-1 2-6 1-3-1-5-2-6-1l-3-1c-2-2-3-2-6-1m-92 2l-12 1c-6 0-6 1-4 2l4 2 2 1c1 1 4 0 13-4 10-4 9-5-3-2m457 0c-3 0-2 2 1 4h10l11-3c3-1 3-1 1-1h-23m22 4c0 1-4 2-9 2l-5 2 2 2 1 1c4 0 3 2-2 3l-4 2 5-1c5 0 6 0 7 2h9c1-2-1-2-4-1-4 1-5 1-3-1s7-4 7-2l7 1c5 0 7 0 6-1l-7-1-6-1 10-1 5 1h6c0-2-23-8-25-7m-322 4l-3 1-2 2c1 1-2 2-6 3-2 1-2 1 0 1 3 0 12-3 11-4l1-1h1c0 3 2 3 5 1 2-2 2-3 1-3h-8m-98 1c-5 1-9 4-5 4l3-1h12c2 2 7 1 7-1 1-2 0-2-2-2H80m63 0l-5 1c-1-1-5 0-8 1l-8 2c-2 0-3 2-1 2a38 38 0 0025-4l5-3-8 1m413 2l-4 2c0 2 25 9 37 9 8 1 9 1 2-2l-7-2c-1-1 5 0 12 3l14 5h-30c-9-1-23 0-16 1l12 1h30c25 0 27 0 24-2-3 0-6-3-9-5l-5-4-16-1-21-2c-5-2-7-1-2 1l2 1-8-4c-7-3-10-4-15-1m-278 0l-3 1 4 1 5 1a3 3 0 014-1c-1 1 0 2 2 1 5 0 4-3-1-3h-11m249 2c-7 2-8 3-2 3l5-1c3 0 10 3 10 4l-4 1c-3 0-5 1-1 2h15l40 2h3l-9-1c-8 0-24-4-32-9-8-4-14-4-25-1m59-1l-3 1h3l17 2c14 1 17 2 17 3l1 1 3 2c2 2 3 2 26 2l33 1 12-1-4-1c-6 0-21-2-28-5-5-2-16-1-20 0-4 2-20 4-19 3l7-2 4-1-13-3-15-1c-10-2-16-2-21-1m-102 0l-20 3-5 2c-3 1 10 1 13-1h2l11-2c2-1 3-2 1-2h-2m46 5l-5 1-10 3c0 2 17-1 20-3 2-1-4-2-5-1m-460 1l-2 1-1 2c0 1 1 2 7 2s6 0 4-1l-1-2-2-1-3-1h-2m44 1c-4 3-2 5 5 5l6-1c-1-1 0-4 2-4l2-1c1-2-13-1-15 1m634 7l-1 11-1 13c4 0 9-19 7-26s-4-7-5 2m-16-5l-7 2c-4 0-2 2 3 3 6 2 7 2 7-2l2-3v4l1 3 1-5c1-5 1-5-7-2m40 3c-7 2-7 3 0 2l7 1 11 1-12-5-6 1m-133 2l-1 1 2 1 16-1 13-1h-30m117 0c0 2 5 4 14 5h6l7 1h1c1-2-3-3-12-3l-11-2c-4-2-5-2-5-1m-302 3l-3 1 3 1 3 2h2l4-2c3 0 2-2-1-3s-5-1-8 1m98 3l3 4h1c0 2 2 0 2-3s-3-6-6-6c-2 0-2 1 0 5m-9-2c-4 2-6 9-3 9l1-1 1-1h2l1 1a1 1 0 011 1l-5 1h8v-1a1 1 0 011-2l1-3c0-5-4-7-8-4m-373 1c-1 3-13 8-17 7-1-1 0-1 3-2 5-1 9-3 9-4l-4 1-11 3-12 4c-2 1-3 1-2-1l-2-1-2 1-5 1c-9 0-4-2 10-4 5 0 11-1 19-4 5-2-1-1-11 1l-12 2-17 4h3l1 1h-7l-5 1 2 1h14a67 67 0 0017-1l11-1c12-2 19-4 19-8 1-3 1-4-1-1m305 2l-2 3v1c-1 1 0 1 2 1l4-1c1-2 2-1 1 1l2-1c3-4 4-3 1 0v3l1-1 3-3 2-1-3-2h-11m-296 4c-3 3-4 4-2 4l3-1h1c0 3 4 2 4 0l2-3 1 2c-1 2 0 4 2 2v-2c2 0 0-3-3-3-1-1-1-1 2-1 5 0 6 1 4 2-1 1-1 4 1 5l1-2 2-2v1a2 2 0 000 2h2l4 1c2-1 3-4 1-4l-3-1c-2-2-5-3-12-4-5 0-6 0-10 4m417-3c1 1-4 1-13 1-22 0-17 1 6 2 19 0 21 0 19-2l-5-1h-3l-3-1c-3 0-3 0-1 1m-532 2l-8 1-10 1H35c-3 2 5 3 14 1l26-2 20-1H64m-43 1l-7 1c-12 1-8 2 4 2l14-1-4-1-4-1h-3m491 2l-6 1-3 1-3 2c-1 1-1 1 1 1l4-1h23a28 28 0 0113 0c0-4-23-7-29-4m105-1l-2 1h-6c-2-2-4-1-4 1h-7c0 1 1 2 4 2l5 1c0 2 3 1 3 0l1-2v1l4 1 10-4c0-1-4-1-5 1l-2 1c-2 0-2 0-1-1l1-2h-1m-526 1c-18 2-22 3-22 5l-1 1-1-1a3 3 0 00-4-1l1 1-1 1c-3 2-3 2 2 1l5-1 25-4a2 2 0 002-3l-6 1m381 1c-3 5 4 9 8 5 3-3 3-4-1-5l-4-1-3 1m98 1c-9 1-8 2 0 2l18 1c7 0 13 0 12-1l-3-2h-3l-1-1v1h-23m97 0l-6 3h8l7-2 5-1h-14m-506 5c-2 5-2 4 1 5 2 1 6-7 4-9s-3-1-5 4m50-3c0 3 3 7 6 7h3l-2-3-2-4c1 0 2 0 2 2 4 5 5 5 6 5 1-2-5-8-9-8l-4 1m-43 3c-2 6-2 6 1 6 3 1 3 0 4-2l1-4c1-2 0-3-3-3l-3 3m7 2l-1 4h4l3-1 1-5c0-3 0-3-3-3-2 0-3 0-4 5m309-4l1 2h-1l-1-1c-2 0-2 2 0 3h-1c-3 0-3 1 0 3h2l1-1c3 1 6-2 5-4l-2-1h-2l-2-2v1m-386 2c-2 0-3 2-3 3l-1 1a9 9 0 00-6 7h-1c-1 1 0 2 1 1 2-1 4-3 3-4l1-1 1-1 1-1 3-2 5-4c3-2-1-1-4 1m201 1l-13 9c-8 6-10 7-9 8a3 3 0 005-2l-2 1-2 1c0-1-1-1 5-5l6-2h2v-2l2-2 6-5c4-3 4-4 0-1m345-1l2 2v5l-5 2-4 1c-2 1-2 2 0 2 4 0 5 0 7-2l3-2c5 0 6-6 1-7l-4-1m-141 5l-6 3-2 2 3 1 4 1c1 1 2 0 4-1 1-2 3-3 5-3s3-2 0-3h-8m-431 1l-8 2-5 1h8l13-3h-8m189 8c-3 0-2 3 2 5 3 2 3 2 4 1l2-1 2-2c2-3-4-5-10-3m367 1c-6 6 0 13 9 10l7-1c3 0 3-2 0-4h-4c-1 2-7 0-9-2v-4c2-2-1-1-3 1m-529 9c-1 2 2 4 6 4 3 0 5-3 3-4-3-2-8-2-9 0m11 2c-1 3-1 3 2 3l5 2 2-1v-1c2-2 1-3-3-4-5-1-5-1-6 1m-35 1c0 3 2 4 5 4 5-1 5-4 1-5l-4-1c-1 0-2 0-2 2m47 1c-2 2-3 4-1 3h1l20 2 21 1c2 0 4 0 4-2 0-3-3-4-23-5h-17c-2-1-4 0-5 1m48 1c-2 5-1 6 4 6h26l21 1v-3l-1-3h-25l-24-1h-1m319 1c-6 1-19 7-17 8 1 1 1 1-1 1-3-1-6 0-4 1 3 1 9 0 8-1-1-4 7-6 19-6l13-2-4-1h-14m128 3c-4 1-4 1-2 3 1 2 5 3 5 1 0-1 1-2 3-2l3-2-2-1c0 1-1 1 0 0 0-1-3-1-7 1m-573 4a10 10 0 000 16v-5c-3-5-1-11 5-13 3-1 3-1 1-1l-6 3m203-2h-6l-10 4-6 2-1 1-4 3c-6 2-10 6-10 8l-2 5c-1 1-2 3-2 8l1 6h3c3 0 11 5 8 5l1 1 2 2c-1 1 2 2 3 2 1-1 0-10-1-11s-1-2 1-3l1-4v-5l2-4 1-1v3l-1 4v2l1-4 1-3v-2l1-2 2 2c0 1 1 2 2 1 2-1 4 1 3 4-1 2-1 2 2 2 3-1 3 0 4 2 2 3 4 3 5-1l4-4c5 0 6 0 4 4-2 5-2 5 6 4 6 0 7 0 9 2s3 2 6 2l7 1c4 1 11-5 9-8l-1-3a3 3 0 00-5-2l-3 1h-4l-4-1c-2 0-2-1-2-4v-4h-5c-5 0-5 0-5-3 1-2 1-2-2-3-2-1-2-1-1-4 0-3-1-4-5-3l-2-1c0-2-6-2-7-1m378 1c-5 3-4 4 3 4 4 0 7-4 4-5-2-1-2-1-7 1m-19 1c-2 1 3 9 7 12l5 3c0 2 6 3 9 1l4-1c4 0 0-4-6-7-4-1-7-3-7-4-2-3-10-6-12-4m-595 1v4c1 2 1 2-1 1-2 0-2 0-1 1l1 3c0 2 6 6 7 4v-1c-1 1-3 0-4-1-2-2-3-4 0-2 2 2 6 2 8-1l1-2-2 1-3 1 1-2c3-2 5-5 3-6H11m104 1l-7 2c-3 0-4 1-4 2l-2 2c-2 1-2 1-1-1 2-2 0-2-2-1l-5 2a5 5 0 00-7 3l-1 1h-1l-2 1-2 1a19 19 0 00-11 8l1-1 1 1c-2 3 7 1 12-3a13 13 0 019-4l6-1c4 0 5 0 6-2 0-3 7-6 9-4l3 1c3 0 2-3-1-5l-2-1h3a2 2 0 013 2l1 1c-1 3 3 3 5 1l5-2c5 0 0-2-5-2l-7-1h-4m61 0l-1 1v1c2 2 18 3 20 2l-7-1-9-3h-3m-130 1l-1 3c0 3 0 3 1 2s1-1 1 2l1 2 1-3c2-4 2-4 1-5s-1-1 1-1h-5m549 2c-7 4-8 8-1 12l8 7c7 6 8 7 12 5l3-1-2-3-3-5-2-4-1-3-2-3-1-3v-1l-1-2c-1-3-3-2-10 1m26-1c3 3 14 6 16 5 4-2-2-5-10-5h-6m29 3c-1 2-2 2-6 2-3 0-7 1-5 2l-1 1 1 2 2 4h1l-1-3c-3-3-2-4 2-1 6 5 7 4 8-4 1-7 1-7-1-3m-75 10c-4 2-5 5-3 7 1 1 3 3 3 5 2 3 2 3-3-2-4-4-5-5-7-4s-2 5 1 5l7 6 7 6 6 6 4 4v-2l-4-7v-1h-1c0 1-2 0-4-3-3-2-4-4-3-4l4 3 3 2c1 0 2 0 5 3 4 4 13 8 14 6 3-4 3-9 2-11-3-3-2-4 1-1 2 2 2 2 1 0s-2-2-4-2l-3-2-5-2-5-4-3-3-1-1c0-2-6-7-7-7l-5 3m-413 2c0 4 9 7 13 5 2-2 2-2-1-2l-7-3h-5m-60 2c-6 1-7 2-8 4h1l1 1h-2l-2 2v2l-2 2-2 1h4a2 2 0 004-3h2a7 7 0 018-3h6l5-1-1-1h-2c-1-1-1-1 1-1 5 0 0-4-5-4l-8 1m490 2c2 4 7 6 9 5 2-2-5-8-10-8h-2l3 3m-433 0c-1 3-1 3 6 6 5 2 6 2 6 0l-3-3-6-3-2-2-1 2m399 6l-2 1c-3 0 3 4 7 4s5-1 2-4-6-4-7-1m-401 0c0 4 9 10 13 7l3-1-6-3-9-3h-1m138 2l-1 2-3 2-6 2c-3 1-4 2-2 2l7-2c4-1 6-2 9-1 5 1 29 0 27-1-3-2-24-4-28-3l-1-1c0-3-1-2-2 0m273 3c0 2-1 2-4 2-5 0-7 1-6 7 0 3 1 4 2 5l7 3 5 3 3 1 14 8c4 0 10 8 10 11v4h6c9-1 9-2 2-4-6-1-9-3-5-3 3 0 9-4 12-9 4-5 4-6 0-4h-6l-10-2c-5 0-5 0-10-5l-4-5c0-1-4-5-6-5l-6-5c-3-4-4-4-4-2m-524 1l-4 3-2 3c-2 1-2 1-2-1 1-2 1-2-1-1-5 3-10 7-8 8l2 2c0 2 1 3 2 3a154 154 0 013 1l2-1 4-1c0-1 1-1 2 1 3 1 5 1 7-1l6-1c4 1 5 1 6-1s6 0 6 3l3 2 2 2c2 2 12 4 12 1-1-1 3-3 5-3 1 1 1 0 1-1 0-2 1-2 4-2h6v1l1 1c3-2-4-12-9-13l-6-2-8-3-6-1h-7 2l-17 1c2-2-2-2-6 0m506 0l-2 4c0 1 0 2-2 2s-5 2-3 3h4l4 2-4 1c-5-1-5-1-2 3l7 4c7 2 10 0 6-4l-2-4v-6c-1-2 0-3 1-3v-3c-2-2-4-1-7 1m-258 4l-7 1-16 5-4 1c-2 0-7 4-7 5l-1 3c-3 2-2 3 0 4l4 2c2 1 5-1 4-3h1c2 1 3 0 5-3 4-6 12-8 17-4h6l7-1c5 0 6-1 5-4-1-2-1-2 1-1 1 0 1-1-1-2a14 14 0 00-14-3m-55 3l-4 3c-1 4-1 5 1 5l1-1c0-1 6-4 8-3l8-2c0-4-7-5-14-2m-100 7c0 1 0 2-1 1-1-2-8-4-12-3s-6 3-4 3l2-1h7c7 3 10 3 10 1l-1-2-1-1v2m394-1c0 2 2 3 3 1 3-2 4 0 2 2l-1 2 5 3 6 2-1-1-4-4c-2-5-4-7-7-7-2 0-3 1-3 2m-38 6c-5 4-4 5 5 5l7-1h1c0 1 1 1 2-1l3-2v1l-1 2c0 2 2-1 2-3 1-2 0-3-1-2-2 1-9 0-12-1-1-1-3 0-6 2m68-1l1 4c1 1 1 1 0 0a1 1 0 10-1 2v1c-2 2-2 4 1 3 4-1 6-2 4-3l-2-1 3 1c6 3 8 1 3-3l-6-5c-3-2-4-1-3 1m-46 3l-2 4h-1l-1 1h2l8-1c6 0 7 0 8-3 1-2 1-3-6-3-4-1-5 0-8 2m14 3c-1 1 0 2 2 3l4 3-3-1-4-2-2 2c-1 2-1 2 3 6 6 5 10 7 12 5l7-5 4-2-8-1-7-1 4-1c3 1 4 0 2-2h3l4 2 2 1-2-2-3-2-1-1-3-1c-2 1-5 0-8-1-5-2-5-2-6 0m-483 1l-14 8-3 4-2 4h3l4 3c1 3 2 3 6 2 4 0 4 0 4 2-1 3 0 3 1 2l4-1c3 0 3-2 1-2l-3-5-3-5v-3c2-1 2-1 3 2l2 4 2-2c0-3 2-5 4-7 3-2 3-3 0-3s-5-2-5-4c0-1-1-1-4 1m441 0l-1 1c-3 1-1 3 3 2l2 1-2 1h-3l-3 2h-1v-1c-1 0-3 3-3 5h16c2 1 3 0 4-1 3-3 2-5 0-4l-2-1 2-1 5-1c-1-1 0-2 1-2l1-1h-3a32 32 0 01-16 0m-248 4a110 110 0 00-13 9l1 4c1 3 1 3 5 3 4-1 5-1 7 2 3 2 3 2 4 0l6-1h5l3-1c3 1 8-5 7-7v-5l-2-3c0-1-5-3-12-3-5-1-6-1-11 2m239-2c-4 0-6 2-9 7-3 4-2 4 5-1 7-4 10-7 7-7l-3 1m38 0l-4 2-2 2 1 1h3c1 1 1 1-2 1-4-1-8 1-6 3l-1 1c-2-1-6 9-7 18l-1 5h12l2-4 4-9 1-6-2-1h3l3-4c2-4 2-6-2-6a1 1 0 010-2l2 1c1 2 4 1 5-1s1-2-3-2l-6 1m-447 2l-4 1a10 10 0 00-12 9v2c1-1 2 0 3 1h4l2-1 2 1 2 1 3 2c2 1 2 1 4-1 3-2 7-2 8 1 1 1 8 0 8-2l3-1h2l-3-3-3-4c0-3-3-4-9-5l-6-1c-1-2-2-2-4 0m234-1l-5 1c-3 0-10 4-9 5h-1c-2 0-6 2-5 3l-2 1-2 1-1 3c-3 3-2 4 1 3h6c2 0 5-6 5-9a8 8 0 015-5l2 1 1-1 1-1 1 1a1 1 0 102 0l2-3h-1m276 0c0 2 4 5 5 4 2-1 4-1 3 1l-4 1c-2 0-2 0-1 1l7 1c7 0 8-1 4-4s-14-6-14-4m89 2l-18 3c-13 0-22 2-12 2l12 1c6 1 6 1 11-2l10-4 5-2-8 2m-581 0l1 1 2 4c4 3 6 9 5 10h-1c-2-2-4-1-4 1s0 2-2 2c-2-1-10 3-15 7l-3 10 27 1 35 1c16 3 19 2 25-2 6-3 6-4 4-4-9-4-12-8-11-18 0-3 0-3-5-5h-4c4 5-12 2-18-2l-9-1-10-2h-4c-2 0-2 0-1-1s1-1-2-1l-4-1a6 6 0 00-6 0m218 5l-2 3-3 1c-4 0-6 2-7 7-2 4 8 4 10-1l2-3 1-1c0-1 1-2 3-2 3-1 7 0 7 2 0 3 3 4 9 3v-2l-1-3-2-2c-1 1-2 0-4-2-5-4-11-4-13 0m254-1l2 2 5 7c7 9 6 8 11 6 4-2 4-2 4-6a6 6 0 00-6-7l-6-2-8-2c-3 0-3 0-2 2m-35 0l-2 3-2 2h2l3 1-4 1c-1 0-4 3-6 8l-4 9c-1 2 0 3 4 3s5-1 13-9l9-9-3-2-5-1c-2 0-3-1-3-2 0-4 0-5-2-5v1m27 1l-4 2-1 1-2 2c-4 2-4 2 1 5l8 5c4 3 15 4 15 2s-7-11-11-15l-4-4-2 2m-180 1c-12 3-33 6-39 6-4 0-5 0-5 2 0 1 0 2-5 2-6 0-10 2-10 5 0 6-13 13-25 13l-3 1h1c2 0 2 1 1 3l-2 2h10l11-2c10 0 10 0 13-6l5-9 3-4h10l11-1 22-1a149 149 0 0034-2l9-2 8-2-7-1-22-3-12-3-8 2m83 4c-8 9-9 12-3 11l5-1h2l3-7 2-5c0-2-6 0-9 2m129 1c1 5 1 5 5 4l6-2c3 0 3 0 3-3 0-2 0-3-7-3h-7v4m-119-1v4l-1 4c-3 4 1 6 4 2l3-2v1c-3 2-2 5 1 4l1-3 1-6v-5c1-1 1-1-1-1s-3 1-3 2l-2 1v-1c1-3-2-2-3 0m14-1l-2 4-1 4c-3 7 1 11 12 12l5 1 1-6 2-9v-5l2-1c0-2-17-1-19 0m-327 2l2 12c1 3 1 4 7 5l6 2 6-3c6-4 8-4 17 0l-1-2-4-3-11-4-13-6c-1-2-8-2-9-1m16 2c-1 1 4 3 11 5 4 1 14 8 14 9l1 1h14c23 2 39 2 39 0v-1l2 2 1 1v-3l-24-3c-4 1-6 0-9-1l-5-2-2-1c-1-1-7-2-15-2-11-1-23-3-26-5h-1m31 1l10 4 4 1c6 3 13 4 18 3 4-1 4-1 1-1h-5c-1 1-2 1-6-1-7-3-22-7-22-6m221 3l-20 2h-11l10 1a79 79 0 0021-2l10-4-10 3m112 3a44 44 0 00-9 12c-3 4-6 8-3 6l17 3c9 3 20 3 22 0 4-3 4-9 0-13l-3-4-9 1-14 2c-5 2-7 1-2-1a42 42 0 0119-2l3-1-2-2-3-2-8-5-8 6m58-4c-4 1-5 3-2 5 3 3 7 2 9-3 1-3 0-4-7-2m-234 4l-3 1c0 2-10 2-11 1s-12-2-14-1l-4 5a10 10 0 01-3 5h3l8-3c5 0 5 0 3-1-3-1-3-1 1-1 9 0 13 0 12-1v-1h7l11-2c11 0 13-1 15-2h-25m70 0l-24 1-22 2h21l24-1 4-1 3-1h-6m156 2c-3 3-3 3-6 2s-3-1-5 1l-5 3c-2 0-3 0-3 5s0 6-2 8l-2 3 2 2 5 4c6 5 10 3 15-6l7-12c6-8 6-8 3-7-2 0-3 0-5-3l-2-3-2 3m-318 1l-1 8c0 5 0 6-2 7-1 1-1 1 1 1 2 1 2 1 2 6 0 6 0 6-2 5-3-1-4-1-2-3 1-2 1-2-1-1s-3 0-4-2c-1-1-1 0-1 2 0 4 1 4 5 5 6 2 6 4 5 23 0 5 1 16 3 16v1l-2 1 1 1h2a41 41 0 000-22v-4c-2-2-3-3-1-2l2-3 1-4 1-1c0-1-1-1-1 1-2 1-2 1-2-4l-2-7v-15c0-10-1-14-2-9m182 4c-1 4-1 5 1 2 3-2 3 1 0 4-2 3 3 9 10 11h3l-1-5-1-11 1-5h-6c-6 0-6 0-7 4m15 0l-1 4 1-1 1-1v3c-3 5-1 12 4 20 4 6 7 9 7 7l1-1v2l-1 1c7 6 13 4 10-3-2-4-3-6-1-4l3 6c0 6-3 9-8 6s-4-2 3 4c8 7 10 11 10 17s-6 14-10 14c-5 0 7 14 13 16h3v-10c0-15 2-31 4-44 2-10 2-11 1-12-3-2-4-6-5-14-1-6-1-6-1 2 1 16-5 21-12 13h-2l-1 1-3 2-2 2c-1-1 0-2 1-3 3-3 3-4 0-10l-3-11c0-7-1-7-3-8-3-1-3-1-5 1l-2 2v-2c2-2 2-3 0-3-1 0-2 1-2 4m-287 1l-18 12 16-7c7-4 11-4 19-3l10 3 4 1c4 3 25 6 25 3l2-2c3-1 0-2-14-2-15-1-18-1-33-6-5-2-5-2-11 1m193-2l-16 2c-14 1-24 3-28 5-5 2-3 2 2 1 4-2 16-3 39-6 11-1 17-3 11-3l-8 1m17 0c1 1 1 1-2 1l-13 2-21 3c-18 2-21 3-12 3l12-1h4v1l6-1h4l-4-1h2a56 56 0 0026-5c12-2 13-3 4-3l-6 1m20 1c-10 1-19 3-19 4h15c-2 1-2 1 0 1l3-1 5-2 8-1a5 5 0 016 0l1-1 2-1c1-1-12-1-21 1m72 1c-1 9 6 26 12 26 3 0 6-3 6-7 0-3 0-4-2-4s-2 0-1-1l2-4-1-7c-1 1-10-1-11-2l-5-1m-207 1l-1 3c0 3 0 4 4 4 3 0 5-1 5-2 0-2 2-2 4-2l1-1c1-2-9-4-13-2m157 5l-6 7-6 5-7 6c-3 2-3 2 4 4 5 1 5 1 16-4 5-2 7-6 5-10-1-1-1-1-3 1l-7 5-8 5-4 2 1-2 3-2h-1l-3 1 4-3c9-3 11-5 14-8 2-3 2-4 1-7l-1-4-2 4m-243-2l-14 6-8 4-13 1-18-1c-17-1-29-2-31-4-4-2-27-1-29 2-2 2 0 2 2 1 3-2 8-3 9-1l3 1c2 0 3 1 1 2h1l2 1c0 1 1 2 5 2h8c2 1 3 1 3-1 1-3 6-3 18-1a259 259 0 0060-1c1 2-8 3-18 3-17 1-23 2-23 3l6 1c6-1 5 0-2 1l-3 2c0 2 3 2 19 0h27l22-1-17 1c-25 1-23 1-35 6l-3 2h10l-5 1-10 2c-5 1-6 0-4-1 1-1 1-1-1-1h-6c-1 2-1 2 2 2 3-1 4 1 2 2h1l8-1c17-3 18-3 16-4s-2-1 0-1c1 1 4 0 7-1l5-1-1 1h18l-9 1a103 103 0 00-19 4l26 1a318 318 0 0035-1l9-1 15-2 9-2a24 24 0 00-15 1c-2 0-2 0-1-1h2l1-1 3-1 3-1-3-1c-4 1-7 0-6-3l-1-2c-2 0-2-2-1-2 2-1 2-6 0-6l-6 1c-1 1-1 1 2 1h1l-3 1-4 2-2 2h10c0 1-4 2-8 1h-6c-3 1-8 0-11-2l-9-2-26-1c0-2 35-1 36 1 2 3 6 2 7-1a6 6 0 013-4h-3c-4 0-6 0-29-7-9-3-12-3-14-2m53 2l-4 4-2 4-2 3-1 1-1 2c1 1 8-2 11-6l6-2c3 0 4 0 4-5 1-2 0-3-1-3-4-1-5-1-10 2m15-1l-1 2c1 0 1 1-1 1-1 2-1 2 3 2a10 10 0 016 0l1-1c2 0 3-1 3-3 0-3-8-4-11-1m247-1c-1 1 1 11 2 14 2 4 4 5 4 2a46 46 0 015-15l-11-1m-87 1l-1 1c-3-1-19 1-25 4-5 2-7 2-18 2-15 0-22 2-9 2a146 146 0 0033-2l14-2 11-3a128 128 0 01-34 10l-5 1 1-1c3-1-2-1-9 1l-16 2a9 9 0 00-9 3h-3l1 1h4c3 1 9-1 9-2l4-1 11-2h6c1 2 13 0 22-4l4-1c1 1 5-1 9-3l7-3-2-2c-3-2-4-2-5-1m-130 1c-2 0-3 1-3 2s-2 2-4 1l-4 3c0 2 9 0 12-3 3-4 3-4-1-3m95-1l-10 1-11 2-4 2h1l5-1 6-1c5 0 5 0 2 1s-1 1 6 1a38 38 0 0020-4l5-1h-20m67 12c-2 12 0 21 7 34 11 21 29 28 36 14 5-9 3-13-9-23-8-7-15-17-17-22l-3-3c-4 0-11-5-11-7 0-4-2 0-3 7m-384-4c-2 1-1 8 1 8l2-1 1-4c1-4 1-4-1-4l-3 1m16 0l-2 3-1 1c-3 0-7 2-7 4s3 2 5-1l2-2 5-2c4-1 4-2 2-3h-4m197 2l-3 2c-1 0 0 4 2 4v1c-2 0-3 2 0 2l2-2 2-2 1-2h-2c2-3 0-5-2-3m-98 5h-13l-7 1c0 2 25 1 27-1h-7m209 3l-6 2c-2 0-5 6-4 7l2-2 5-2c3 0 8-2 8-3l1-2c0-2-1-2-6 0m-165 4l-20 1-14 1h32l17-2 13-1h-12l-16 1m-61 1h-8c-6 0-7 1-7 2l6 1c5 0 13-2 13-4l-4 1m-70 3l4 2c2 0 3 2 1 2l-1 1c0 2-17 3-19 2s-5 1-4 2l44-1c2-1-4-2-12-2-3 0-5 0-5-2h2c2 0 14-3 13-4l-13-1c-11 0-12 0-10 1m-18 1l6 1c9 0 10 2 1 1l-8 1 6 1h11c5 1 5 0-1-3-5-2-15-3-15-1m345 2l-11 2c-12 0-17 1-15 4 3 3 21 0 25-4 4-3 4-4 1-2m-208 3l-23 1-31 2h22c31 0 38-1 36-2l-4-1m43 4l-27 1-21 1h-4c-6-2-13-1-17 1-3 2-7 2-14 3-8 0-10 1-9 2l10 1c9 0 12-1 22-3 8-3 19-3 20-1 1 1 15 1 24-1l13-1c11 0 16-1 16-3h-13m-89 1h-10c-1 0-1 1 1 2 1 2 2 2 13 2l14-2c2-3 0-3-18-2m-66 1H80l-13 1c0 1 11 2 20 1s14-3 9-3l-3 1m183 1h-6v9h30v-2c-1-3 2-6 6-6l1-1h-31m506 14h-3c-3 0-3 0-3 3a3 3 0 01-4 3h-2l-2 2 8 1c8 0 8 0 9-2l2-3 1-1c1-2 2-2 2 0l2 2 1 2c-1 2-1 2 1 2s3-1 3-2l1-2 1-2a3 3 0 01-1 5h19l3-1 1-2 5-1c4 0 4 0 3 2l1 2c15 2 21 0 19-6 0-2 0-3-8-2a38 38 0 00-10 0h-9c-9 0-9 0-9 3s-2 2-3-1-5-3-8-1h-1c-1-1-15-2-17-1h-2m-760 3l3 2 4 2 2 2 1 2c0 2 4 4 5 2l2-1 1-1 5-1c9 2 20 2 17 1-4-1-23-2-24-1-2 1-3 0-10-5-4-3-6-4-6-2m807 12l-1 1a17 17 0 00-12 0l-6-1c-5 0-6 1-6 2l-1-1c-2-1-2-1-2 1h-1c-2-2-5-1-5 2s0 4-3 4l-3 1h-1l-4-1c-2 0-3 0-3 2v1l-1-2c0-2-1-2-4-2-2 0-3 0-2 1h-1c-3-3-7 0-6 4 1 1 1 1 3-1h1c-1 1 3 2 9 2h24l4-1-1-2v-1l1-1a3 3 0 00-6 2c0-2-3-3-5-2l-1-1 7-1c6 0 7 0 7-2 1-2 1-2 1 0 0 3 19 3 20-1l-1-4c-1-1-1-1-1 1m-651 1l-16 3-4 1h3l35-5h-4c-1-1-7 0-14 1m590 1c-1 4 2 6 3 3h1c0 2 2 1 2-1h1c1 2 2 2 7 2a11 11 0 017 0h2l1-2c0-3 0-3-13-3-10-1-11-1-11 1m-682 2c-7 1-7 1 15 1l20 2c7 1 34 0 36-2l-9 1c-11 1-28 0-31-1-4-1-24-2-31-1m156 3l-7 1-8 2-7 1c-2 0-2 0-1 1h7l12-2c7-1 9-2 8-3h-4m570 1c-2 3 0 5 4 6a9 9 0 006-2v1c-4 2-2 5 1 5s4 0 5-2c0-4 2-4 2 0-1 2-1 2 2 2h3a28 28 0 0112 0h6c4-1 4-1 5-4l1-5c1-1 0-1-1-1-2 0-3 0-3 2s0 2-1 0-1-2-8-2a47 47 0 00-12 0 40 40 0 00-17 0h-5m-537 3l-4 2-3 1-1 2-4 12v2l6-11c1-5 4-7 9-7l2-1h-5m-79 2l-5 1c-2 1-11 2-13 1-1-1-12 3-14 6-1 1-2 2-5 2-5 0-1 2 5 2l9 1 55 4c11 0 12 0 15-3l12-5c11-3 11-4-9-3-21 0-26 2-6 2 9 0 12 0 10 1a18 18 0 01-5 1c2 0 1 2-2 3l-3 2c0 1-55-1-60-3-8-2 14-2 37 0l6-1-29-2h-19v-1c1-1 1-1 0 0l-6 1h-4l3-2 7-2 10-1 12-1h8l-7-1h-6l8-1c8-2 6-2-4-1m-118 2c0 2 26 5 46 5l19 1 5 1-5-2-24-2-38-3h-3" itemprop="light" fill-rule="evenodd" tabindex="-1" fill="url(#16282281824-posters-1653312561027-vertical-light)" fill-opacity="" stroke="url(#16282281824-posters-1653312561027-horizontal-background)" stroke-opacity=""></path><path id="16282281824-posters-1653312561027-regular" d="M525 148l17 1c14 0 17 0 12-1h-29m3 4c2 0 2 1 0 3l-2 2-3 1c-1 2 0 2 3 2 9-1 6 3-3 4l-6 1 2 1 6-1c6 0 8-2 8-5s1-3 3-3l8 1 6 2c1 0 2 0 1-2l-1-2c-2 0-1-2 2-2h3l-3-1-14-2c-7 0-11 0-10 1m-140 3v4h1c-1 2-3 3-3 1l-2-3-1-1c1 2 0 2-1 2-2 0-2 0-1 1h4c0 2-3 2-8 1h-6v1l2 1-2 1-6 1-8 3-4 2 4-1c8-3 14-4 15-3l-3 2c-6 1-6 2-1 1 5 0 8 3 6 5l1 1 2 1 2 3v2c-1 1-1 1 1 1s3 1 2 2l-2 5c-1 5-3 5-2 1 0-2 0-3-1-2l-1 5h-6c-4 0-5 0-2 1l4 1c1 1-4 5-6 5l-1 1c-1 1-9-1-10-3h-4l-3-2 1 1v6l-1-1c1 0 0-2-2-3-5-5-5-6-4-6h3l12-2c7-1 9-11 2-18-3-2-15-4-13-2l-2 1c-2-1-2-1 0 0 1 2 1 2-1 1l-3 2-4 2-4 3-6 4-6 5-3 4c-2 0-3 2-1 2 0 1 2 0 3-2 2-3 7-8 11-10l4-3 3-2a3 3 0 01-3 5v1l2 1 2 4c2 3 2 3 0 3-2-1-5 1-3 2h-5l3 1c4 2 7 6 5 6h-4l-5-1a15 15 0 00-12-2c-1-1-3 0-4 1h-5l-2 1v1c2 0 2 0 1 1l1 2 1 2c-1 2-1 2 2 0l1-1c-1 1-1 2 1 4l2 4c0 2 1 3 3 3h1c-1-2 0-6 1-5v1c-1 2 1 6 2 5l2 1c1 2-2 3-3 1a5 5 0 00-8 2l-4 1c-8 0-9-5-2-6 3-1 3-1 1-1s-3-1-3-2h-1l-1 2-4 7 1 1h2l1 1 3 1 3 1-3 1c-2 1-2 1 1 1l3 1-2 1c-2-1-3 0-3 2-1 2-1 2 1 1l2-2-6 13-1 3c1 1 0 2-1 1l-1 1 1 1h1l-1 1-3 5c0 3 0 3-1 2-2-2-3-2-2 1 1 2-15-2-17-5l15-2c3 1 3 1 3-1s0-3-6-2l-10-1a5 5 0 00-7 0l1-2 6-2c2 0 3 0 2-1h-5l-3-1c0-1 4-2 6-1h9l6 1c-1 2 0 3 1 1l4-2c2-1 2-1 0 0s-3 4 0 3l2-1 1-3-1-2c-1 1-2-3-2-4v-1l-1 1a4 4 0 01-5-6l1-1h-1c-3 2-2 7 0 7l1 2-1 3h-19l-2 3a4 4 0 11-5-5l-2 2c-3 3-1 4 2 1l5-2c3-1 3-1 1-3l-2-3-4-3-4-3h-3l-1 2 1 3-1-1c-2-1-3-2-4-1l-1 1c2 1 0 4-2 3l-1 1c1 1 1 1-1 1h-2l1 1 3 2c3 2 3 2 1 4l-3 2c-2 0-2 0-1 2l-1 2-1-1-2-3c-1-2 1-11 3-14v-2l-2-1c0-1 3-2 4-1s6 2 7 1l-4-5v1l1 1c0 2-5 0-10-3l-3-2h6c-5-3-29-1-29 2l-3 1c-2-1-4-1-6 1-2 3-2 5 1 3h2c1 1 2 0 4-1 2-2 6-3 7-1l-1 1-1 1 4-1c5-3 9-2 12 2 2 4 1 5-3 1-4-5-12-3-12 3l2-2c2-3 7-4 8-2l1 1 1 1-4 4-2 2h-5l4 3 5 2 3-2c3-2 4-2 4-1l-1 1c-2 0-4 5-5 9l-4 2c-2 0-3 0-2 1v1c-1 1-3 0-4-1l-3-2-2-2-3-3c-2 0-2 0-1-2h2l3-11h-1c-1 3-5 3-5 0l-1-2c-1-1-2 0-2 2 0 3 0 4-3 5l-3 1h8c3 1 4 2 1 5l-3 4-1 1-1-1c1-1-5-2-7-2v-5l-1 1-2 3c-1 2-1 2 1 3h4c0-1 3 0 5 2 2 1 4 2 5 1 2 0 0 3-3 5-2 3-1 3 2 1l3-2 1-2c1 0 1-1 0 0l-1-1h4c2 1 2 1 1 3 0 2 0 2 1 1 2-1 6 2 4 3h2l4 1c0 2 0 2 2 0h3l4 3c3 1 8 6 8 8s-8 1-9-2l-1-1-1-1h-1c-1 2-5 3-11 3-13 1-13 1-12-2 0-3 0-3-2-2-2 2-2 2-2 0-1-4-3-4-9-3-5 1-7 4-3 4l-2 1c-5 1-13 0-14-1l-3-1c-3 0-4-3-1-7l5-8-3-1-3 1-3 14c0 1 0 2 3 2l3 1-3 1h-4c0 1 1 2 4 1 4-1 19 0 24 1h18a79 79 0 0114 1c-3-1-2 1 1 3 4 2 5 2 5 1l-2-1v-3l-2-1c0-3 1-2 7 1s8 4 8 2h1c0 2 4 4 5 2l6 1 23 4-4-2-6-1-8-2c-6-1-9-3-7-4h1l1 1 1-2v-2c3 0 2-2-1-3l-3-2 7 1 2 1 2 1 4 1c2 0 2 0 0-1l-3-2 2-1c4 2 7 2 7 1-1-1 1-1 8-1 9 1 10 1 8 3v3l1-2h1l1 3 1 3 1 2c0 2-1 3-3 4-4 2-5 1-3-1l2-1 1 1v-3c-1-2-1-2-2-1l-1 1v-4l-6 13c0 2-2 3-2 3l-2 1h6c-4 1-2-1 4-5 10-6 12 0 3 6l-3 3h-1l-3 3-4 4h-3l-3 2h2c1-1 1-1 0 0-2 2-4 2-5 0s-1-3 6-8a2 2 0 10-2-3c-3 3-9 6-9 5 1-1 0-2-2-1-3 0-3 0-1 1 3 0 4 2 3 4v3c3 6-1 8-7 3l-4-3 2 2c3 2 3 3-3 4-6 2-10 2-10 1l2-1 1-1-1-1v-1l3-1c3 0 6-3 4-4l-1-4-1-2-1-1-3-5-2-5-2-1-6-4c-2-2-3-3-4-2l2 2c2 2 3 2-5 2l-16-3h-6a4 4 0 003 2c-1-1 1-2 2-1l3 1 2 1 2 1a113 113 0 0113 1l2 1c-1 1 0 1 1 1l2 1 3 4 2 4-4-4-5-4 2 3 2 5-4-4-6-5c-1 1-2 0-3-1-2-1-2-1-1 1l3 2 4 3c5 5 4 5-2 1-3-3-6-5-7-4l-3-2h-1l1 3 2 1c3 0 6 2 6 3l-2-1c-3-3-5-2-3 1 2 2 2 3 1 3-2 0-7-5-6-7h-3l1 3c5 4 3 6-2 1a4 4 0 01-2-4c-1 1-2 0-3-1l-2-1 6 11 2 3-3-2a3 3 0 00-3-2l-3-4-4-5c1-1-3-2-4-1l1 2 4 4c2 4 2 4-1 1l-1-1-1 2v1l4 1c2 0 3 0 3 2-1 2-7 2-8 0h-17c-5 0-6-1-6-4a6 6 0 012-5h-1l-3 1h-1v1a4 4 0 01-4 7c-2 0-3-1-2-4 0-2 1-3 2-3 2 0 2 0 1-1l-1-2h-1c0 2-1 2-3 2-3 0-4 0-4-2h-1c-1 1-2 2-4 1-3 0-4-1-1-5l1-3c0-2-6 2-7 4a2 2 0 11-3-1c2-2 1-3-1-3-1 0-2 0-1 1l-2 1c-2 0-2 0-1-1v-1l-1-1-1-2-1 2c1 2-2 3-5 2v-2l-4-1-13 1c-5 0-8 0-7 1l-1 1-3-1c0-2-3-3-3-1l-3 2-7 4c-2 3-1 2 3-1l6-3-1 1-2 2-1 2 3-2c4-2 9-3 6-1l2 1h9c3-2 2 0-1 5l-5 5c-2 0-3-1-1-3v-1l-1 2c-1 2-6 4-7 2h-1l-6 1c-2 0-4 0-3-1l-4 1-3 2 1-2c1-2 1-2-1-1l-2 2a1 1 0 11-3-1c1-2 0-3-2-1a5 5 0 01-4 2v2c1 1 1 1 0 0l-4 3c-2 3-2 4-5 4-4 0-9-3-9-4l-2-2c-4-2-4-3 1-3s4-1-3-4l-6-3-18-2c-6-1-22 3-24 5-1 2-1 2 2 2s6 2 5 3l1 1v1c-2 2-4 1-4-1s0-2-2-1l-2 2-1 2-1 1H6c0 2 3 2 5 1 3-2 5 1 2 3-5 6-13-2-8-8 3-3 2-5-1-2-4 4-3 10 1 14 5 5 4 15-2 15l-3 1c0 1 3 2 4 1l3 3c4 5 8 7 17 7a19 19 0 008-2l1 1v1l1-1 5 4c4 4 5 5 8 5h7a2 2 0 014 3l3 1c2 2 3 3 8 2 5 0 9-1 4-1-4 0-5-2-1-4 3-2 3-4 1-4-6 1-6-2 1-7 4-2 4-3 5-7 0-5 1-6 4-5 2 0 2 1 2 4-1 5 1 4 2-1l2-2 3-1-2-1c-1 1-2 0-1-1l2-1h1l-2-1c-2 0-1-2 2-4 6-4 13-2 9 3l-3 3-1 1-1 1-2 1-3 1c0 2 8 0 9-2v-2l3-3c3-4 2-5-3-6l-3-3h-1l-1 2c-2-1-7 5-8 9 0 3 0 3-1 2-3-5-9-1-9 4l-1 4c-1 1-2-4-2-8l-1-2c0 1-2 0-4-4-3-4 0-9 5-8l1-1h2v-1c-1-1 0-4 2-6l9-1-1 1c-1-1-1-1 0 0l1 1 5 1c6 0 7 0 5 3h1c3-2 12 0 10 2h2c3-2 4-3 4-1l1 1c17 0 51 3 52 4h1c0-2 1-2 6-2a16 16 0 0010 0c-1 1 0 1 3 1l6 1h16c12 0 18 1 19 3l1 1c2 0 2 0 0 2-3 3-6 4-6 3l-17-2-31 1-4 1-4-1c1-2 0-3-3-2-2 1-2 1 0 1 1 0 2 0 1 4 0 3-1 3-5 4l-6 1h4l5-1c0 2-4 8-6 8s-6 2-6 4 0 2 2 0c3-2 6-3 6-1l1 2v-1l1-2c2 0 2-1 1-3-2-2 0-4 3-2l3 1-1-1c-2-1-3-5-1-5l3-2 3-1h1c-2-3 17-5 25-3 3 1 3 1 1 3h2c4-2 8 0 6 2s-1 3 1 1c1-1 2 0 3 1 2 2 0 2-6 1l-9-1c-2 0-1 1 3 1 5 1 9 3 8 4l-1 1v-1c1-1 0-1-4-1-5 1-7 2-2 2l3 1h-2l-2 1c1 1-1 1-4 1a5780 5780 0 01-15 0c2 0 2 1 2 4-1 3-1 3 1 2l1-4c-1-1 0-1 2-1l2 2c0 2-5 8-6 7l-1 1v2h3c0-4 7-7 8-3 1 3-2 4-3 2h-2c-1 1 0 2 1 2 4 1 3 3 0 2l-3 1h2l2 1h4l-5 1-5-1c-1-2-1-2-1 0 0 3 1 4 12 4 9 0 9 0 9 2s-1 3-2 1h-1l-1-1h-3c-2 3-1 3 4 3l2 1-2 1c-1 0-3 0-4 2-3 2-4 3-4 1l1-1 1-1-2 1h-2l-5-1c-6 0-7-1-6-5l-1-3-1 2c1 1-1 7-3 7l-1-1-3-5v3c2 2 1 6-1 6l-1 2-2 2-2 2c-1 2-4 3-6 1l-5-2c-3-1-5-4-4-6l-3-2c-3-2-3-3 1-3h3l-3-2-3-5v-2l1 3a1 1 0 002 1h3c4 1 12 0 12-1l-5-1c-7 0-8 0-8-2s3-3 6-2l4 1c-1-1-3-2-3-4l-2-2-1 2-2-1c-2-2-3-2-3-1 0 2-4 3-5 2l-1 2c0 3 0 5-2 4v-5l-1-3c-1 0-1-2 1-11 1-6 5-9 11-9l2-1h-5l-5 1h-1c-1 1-12 1-16-1l-2 1-2 1c-2 0-2 0-1 1h4c2-3 4 0 3 4-3 12-10 18-10 9a2 2 0 00-3-3c2 0 2 1 2 4s0 3-4 3h-2c2 3 2 5 0 5-3 0-5-4-3-5 1-1 1-1-1-1l-3 1v2c2 3 1 6-2 5-1 0-1-1 1-2 1-2 0-5-3-5-2 0-3 2-2 2v3l1-1 2-1v2c-1 1 1 8 2 9l1-2 2-5c2-1 14 0 24 3l5 1 2 2 1 1 1-1c-1-3 1-3 4 0s1 6-3 3v1c2 3 2 3 0 3l-2 3-3 2c-4 0-6 2-6 5 1 2 0 2-4 2-3 1-5 1-4 2 0 1-5 2-6 1s-1-1 1-2l2-1h-2l-1-2v-1l-2 4-1 4v-3c0-3 0-3-1-2v3h-6c-2 0-2 0-1-1v-1c-1 0-3-5-2-8h-1c-2 1-2 2 0 5 2 4 1 6-4 6h-4l4 1a20 20 0 017 2c-1-1 0-1 3-1h25l-16 1c-6 0-7 0-6 1l6 1c4 0 6 0 8 2 4 2 15 5 16 4l-2-2h8l14 1-6-1-4-2-5-4c-5-3-3-3 4-2 4 2 6 2 7 1l3-1c2 1 2 1 3-2 3-8 13-15 17-13l4 1c0-2 1-2 8-1 3 1 9 2 17 1 12 0 14 1 6 3-6 2-15 2-15 1h-9c-2 1-2 1-4-1l-4-2c-4 1-6 3-3 3 2 0 2 0 1 1s-2 2-1 4l-2 5c-2 4-2 5 0 5v2c1 1 0 1-1 1-3 1-6 0-11-2-2 0-2 0 0 2 4 3 13 3 21 1 5-1 20-2 21 0 1 1 17 1 18-1l3-3 4-3c6-6 24-8 29-3 2 3 2 3 2 1a6 6 0 00-5-5c1 1 0 1-3 1l-7-2c-5 0-12-4-12-5l5 1 4 2-8-5-1-2 4 1 3 1c1 0 2 1 2 3 2 3 2 4 4 2l-1-1-2-2c-1-2-1-2 5-1h5l-3-1-13-3 1-2c1-1 1-1-1-1l-2 1c0 2-4 3-9 4l-5-1s4-4 6-4a17 17 0 008-9l1-1c-1-1 0-2 1-3h1a3 3 0 002 3v-3c1-1 1-1-1-2-3-1-5-3-4-6l-1-1-1 3-1 1h-10c-1-1-1-1-1 1l-1 3v1h1c3-3 8-1 8 3 0 1-1 1-2-1-3-4-6-1-6 5 0 4 0 5-2 5h-3l-12 3-3 1h-1c-2 0-3-2-1-2l1-1 1-1a32 32 0 0014-3l-2-1-1-3-1 1v1c-3 0-3-2-1-3s-1-3-4-2-5-1-5-4v-2l-2-2c-1-1 0-2 1-2l2-1 1-3 2-4c0-2 1-4 3-5 3-3 3-7-1-7l-1-1-2-2-4-1c-1-1 0-1 3-1l9 1 6 1h-6c-5 0-7 1-3 2h1l1-1 1 2v1l1-1 2-1c2 0 2 0 1 1-5 3 3 1 9-3 5-3 8-4 14-4l9-2 3 1 4 2c2 0 2 1 2 4l1 3 1-1h3c6 0 7 1 8 2s1 1 0 0l-2 1 3 1c3 0 9 3 9 4 0 2-1 1-3-1-1-1-1-1 0 0 0 2 0 2-4 2l-3 1h5l5 1c2 2 2 3 1 3l-2-1-1-1v1l-2 2h10c2 0 3-1 4-3 1-1 2-3 4-3l4-3c3-3 7-3 11-2 3 2 5 2 3 0l-3-1-1-2c0-2-6 0-10 3l-5 3-4 4-3 2 1-2 1-2c1-3 3-5 8-7l2-2v-1l-3 1c-4 2-8 6-8 8l-3 2v-2c0-3 2-5 4-5v-1c-3-4 12-8 21-6l5-1c1-2 5-3 5-1l-2 1c-2 0-2 0-1 2s1 2-3 2h-4c0 1 2 2 6 2 6 0 8-1 4-2l-2-2c0-2 1-1 4 2l5 4c5 1 5 4 1 4-2 0-3-1-3-2h-1c0 2-1 2-3 2h-5l-4 1c-8 2-16 4-19 6-4 3-5 5-2 4a98 98 0 0123-1c-3 0-3 1-2 1 2 2-1 4-5 4l-3 1-5 1h-4l4 1 23 3c5 0 12 2 8 2l-3 2c-2 1-16 2-18 0l-1 1c0 1 8 2 18 1 6 0 7 0 6 1h-28c-2 0-2 0 0 1 2 2 10 2 22 2 6 0 8 0 6 1l-13 1h-15l2 1 6 1c6 0 5 1-3 1-7 1-11 2-5 2l14 1 11 1h-48c-3 1-4 1-4-1l3-1 2-1-2-1-4 1-1 1c1 1 0 2-1 3-2 0-2 0-1 1s0 2-2 3c-2 2-2 2-3 1h-3c-1-2-2-1-1 1 0 2 7 2 8 0 1-1 1-1 1 1 0 1 6 0 9-2s13-3 26-3c17 0 16 1-1 2-11 0-15 1-22 3l-9 1-6 2v1c-1 1-2 0-1-1l-3-1c-3 0-3 0-3 3s0 3 2 3c2-1 2-1 1 1l-2 1v1l-1 2-1 2-2 3c-2 1-2 2-2 3l2-1 2 2c1 2 1 2 1 0a15 15 0 014-11h8l-2 3-1 4 3-4a50 50 0 0126-11h1l-3 3c-1 3-1 3-2 2-3-2-9 0-9 2v5l1-2c0-2 1-3 7-3l7-2c2-2 14-2 19 0h5c2-1 2-1-1-1-5 0-7-2-5-3l8 1h6l10-1 12-2c6-3 12-6 13-8s6-2 9 0l3 1c4 0 1-1-4-3l-6-3h6l-1-1v-2l2-1h9c7 1 5 1-4 1l-4 1c0 1 10 2 11 1s15 3 16 4v1l-2-1a5 5 0 00-6 0l3 1c5 0-1 2-8 2l-7 1v1l2 1c1-1 1-1 0 0l1 2c1 1 0 1-2 3-4 2-7 3-7 1l-8-1c0 1-11 5-24 7l-7 3-4 1-6 1c-6 2 14 0 28-3 16-3 19-4 25-2 9 2 20 4 27 4l10 1c3 1 14-5 14-7 0-1 8-6 12-6l5-2c3-2 18-5 20-4 3 1 1 3-8 8a80 80 0 00-17 10l-3 5-1 4 1-1c0-3 18-18 22-18l4-2c6-6 16-12 20-12 2 0 2 0-2 3l-6 5a6 6 0 01-5 3c1 1-3 10-5 11s1 2 3 1v-3c1-2 3-5 4-4v-1a4 4 0 015-5v-2l10-7v-1c-1-1-1-1 1-1l5-1c6-3 23-5 21-3-1 2-6 4-8 3-2 0-2 0 0 1 1 2 1 2-1 2-3 0-3 0-2 1 2 2 2 2-1 4l-4 3-4 3-2 4 3-3c2-3 3-4 2-1l4-4a11 11 0 0110-6c-1 0 2-4 4-4l1-1 2-1h1l3-1 3-1c0-1 1-2 3-2l5-2 3-1v-2l1-2 6-4c6-5 8-7 8-4l1 1v-2c0-2 0-3 2-4l3-2h1v-6l-1-3-2-8c-2-4-3-4-3 0 1 2 0 2-1 1v-8l3 2 1 1 1-1c-2-5 3-1 6 4 0 2 3 5 4 6l3 3-2 1-2 2 6-3-2-3-1-4-1-2c-2-1-2-3-2-4 1-3 0-3-3-3-7-1-17-2-17 0h1l1 1c-1 3 1 9 4 11l3 5c0 5-3 2-7-5l-4-7a26 26 0 006 12c0 2-5-3-6-5l-1-2v3l-1-1-2-3c-1-1-1-1 0 0l-1 2-1-4-1-3c-2-1-3-5-2-5l2 2a3 3 0 103-2l-2-2-2-2v-1l2 2 3 1h8c2 0 3 0 2-1l5-1c7 1 6 0-5-3l-10-3v-1h2c0-1 12 0 15 2h3c1-1 6 0 13 4l9 3c5 0 8 2 8 6-1 3-4 4-4 1-1-3-3-2-2 1 0 4 0 4 4 3l5-2 1-1c-1-1 0-2 3-2l4 1 2 2 3 1-3-2c-2-3-2-3 3-5l4-1-3-3c-3-2-2-3 3 0 2 1 4 2 5 1 2-1 1-1-2-1l-1-1v-1l-4-1-3-2h4l7 3 5 2-1-1c-4-3-6-5-6-7 0-3 3-7 5-7s2 0 1-1l-4-2c-2 0-4-2-9-6l-6-6-7 1c-10 0-17 3-9 3 2 0 5 2 2 2l-5 5c-5 4-6 4-10 4-4-1-5 1-1 2l4 2c1 2 1 2 3 1h3l2 1a2 2 0 01-1-3l-3-2 1-1c1 1 2 0 1-1 0-2 1-1 2 1 2 2 3 6 3 8l3 5c1 1 2 3 0 2l-5-1c-3 0-5-1-7-3l-2-1c0 2 0 2-2 0l-4-2-5-4c-4-5-5-6-12-5l-8 1c-5 1-7 2-8 4 0 2-1 2-4 2l-5 1c-2 0-3 3-1 3l2 1c1 1 0 1-3 1l-4-1c0-2 5-6 9-7 5-2 7-5 5-9v-3c0-1-3-4-6-4s-5-2-3-4h-5v4l8 1 3 1c1 2 0 2-10 2-13-1-16-1-14-3v-2l1-1 1 2 4 1 3-1 1-2c2-1 1-2-2-1-2 0-3 1-2 2l-1 1-1-3c0-2-4-1-5 2s-2 3-2 0c0-2 0-2-3-3l-2 1c2 2 1 3-2 3l-3-1-4-1-3-1c0-1-1-2-2-1-2 0 0 3 3 3l3 2c0 2 8 3 9 1l1 2-1 3v1c2 1-2 3-5 3h-1c1 1-2 2-3 1a5 5 0 00-7 0l-1-2c0-3 3-6 5-6 1 0 2 0 1-1l-2-1h-2l-6-5-6-4 3-2c3-3 6-3 9 0l2 1-2-2c-4-4-4-4 1-4 4 0 4-2 1-2h-3l-2 1a27 27 0 00-12 11l-2 2c-1 2-2 3-3 2h-5c-3-1-6-4-5-5v-1h-2c0-1 6-7 8-7l3-2c1-2 4-3 5-3 4 0 7-3 5-4v-2c1-1 0-1-1-1-2 0-3 1-2 3 0 1 0 2-3 2l-3 2-3 2c-3 1-9 6-9 8s-2 2-6 1l-10-2c-6-1-8-3-3-4l3-2h-1l-3 1c-2-1 0-2 11-5 6-3 6-3 2-2l-9 2-4 2v-12c-1-4-1-6 1-10 4-6 4-10 0-9l-3-1 2-1c3 1 3-1 1-4a10 10 0 01-4-5c-1-1-8-12-7-13l-1-2c-2 0-3-2-3-2l-3-6-4-6-1-2c-2-1-3-3-1-3v-1h-1c-1 2-4-2-3-4l-2-3c-3-2-4-3-2 0v1l-2-3-2-1-3-1 3 3c3 3 2 4-3 0l-4-4c1-1 0-3-1-4l-1-6c0-4 0-4-2 0h-3c-3-2-3-2-2-5l2-4-1-3v2l-3 4c-1 0-2-1-2-3l-2-3v3m167 1c-1 0 0 2 2 2l3 3a3 3 0 01-4 4c1 1 0 1-1 1-2 0-3-1 0-2 2-2 1-4-2-4h-5c-4-1-4-1-4 1 0 1 1 2 3 2l2 2-1 1-1 1 6 1 7 1c1 1 1 1 1-1l4-1c3 0 3 0 3 2-1 2 0 1 0 0 2-4 2-5-2-6-1-1-2-1-1-3l-2-1c-4 0-5 0-2-1 2-1 2-1 0-1l-4-1h-2m-19 5c-1 7 0 10 3 12 4 2 17 3 17 1l-7-1c-7 0-8 0-8-2l1-3c2 0 2-2 1-2l-2-2c-1-1-1 0-1 2 0 7-3 7-3 1v-5h1l2-1-2-1-2 1m-144 5l-3 1 2 2c2 3 2 3 0 3l-3 1-2-1 2-1 1-1c-1-2-3-2-4 0s0 5 2 5h1l2 1h1l2 1v-1l1-1a1 1 0 101-2l-1-1h1l2-2 2-2-2-1-3-2-2 1m-17 2l2 2 3 5c1 2 2 3 4 3l2 1c0 2 1 4 2 3v-2c-1-1-1-1 1-1s2 0-1-2c-7-3-10-6-8-7s1-2-2-2h-3m-26 4a7 7 0 00-5 3c-1-1-5 1-5 3l-1 5c0 7 14 8 21 0 1-1 1-1 0 0a3 3 0 01-4 1l-1 1h-3v2l-5-1c-3 0-2 0 2-1 7-2 12-10 7-10v1c1 1 1 1-1 1l-3-2h-2l-1 1v-2l6-1c3 0 4 0 2-1h-7m47 15l-9 5-1 2-2 2c1 1 0 2-1 3-2 3-1 3 5 2l12-1h9l-9-4-4-1h3l6 1h3l-2-2-1-2c2-3-5-6-9-5m9 1l2 3 1 1 1 3 2 2 2 1h-1l-2 1 1 2 5 1 6 2 2 1-2-3a5 5 0 00-6-3l-2-1h7l-3-3-4-1-1-1c1-2 0-2-2-3l-2-1-4-2v1m-87 11c-2 2-3 9-1 9l1-2c0-2 0-2 1-1s2 0 3-2l1-3 2 2c2 2 3 2 4 1 3-3 2-3 0-3-1 0-2 0-1-1l-1-1-2 1h-7m34 1v2l1 1 1 3c1 3 1 3 4 1 3-1 3-3-1-4l-2-2 3 1 3 1c2-1-2-2-7-3h-2m10 9l-5 4-1 1c-2 0-8 5-8 6l9-5 5-2 9-7c0-2-5-1-9 3m-31-2c-1 1 0 4 1 4v2l1 2 1-2h1v2c-1 1-1 4 1 4v-9c-1-4-2-5-5-3m44 2c-2 3-2 7 0 10v1c-2 0-1 1 1 3 1 1 3 3 4 2v4c0 5 3 8 6 6 1 0-7-17-11-21-2-3 0-5 2-2l2 2 3 5 2 5c0 2 6 6 8 5v-1l-3-2-3-3c-2 0-1-1 1-3h7l8-2 7-2 2 1v1l1-2c0-2-4-3-11-3l-5-1c0-1 13-2 14-1v-2c-2-3-19-2-25 2-3 2 0 5 4 4l4-1-3 1-3 3-1 3-1-3-2-2c-1 1-1 0-1-2s-3-7-5-7l-2 2m-143 9h-3c-3 0-11 2-8 3l5-1h2l5 1c5 0 8 1 5 2-1 1 2 5 3 5 3 0 4-2 3-3l-1-3c2-2-8-6-11-4m164 2l-6 4 2 1h2c1 1 2 1 10-1 3-1 4-1 3-2s-1-1 1-1l2 1h1c-1-3-8-4-15-2m-34 3c-2 1-5 6-5 9s4 9 4 6a27 27 0 0111-8 3 3 0 015 0l-4-7h-11m70 5c-4 6-3 8 4 8l5-1v-4l-3-4c-1-3-4-2-6 1m-254 2c-2 4-4 6-8 6l-3 1h3c6 0 4 2-2 2l-6 1h5l6 1c-1 1 0 2 1 1l1-2c0-2 0-2 2-2h2l-1-1c-2 0-2-2 1-5l1-3c-1-1-1-1-2 1m170-2l3 6c2 6 3 7 4 5 1-1 0-6-2-6-1 0-2-3-1-4l-2-1h-2m-166 3l-1 5c-2 1-1 2 3 1 5 0 8 1 7 3h-2l-3-1h-2l2 2 4 1 4 1c2 1 2 1 1-1l-2-5c0-2 0-3-1-2l-5 1c-4 0-5 0-3-5v-2l-2 2m129 2l-2 3-9 19c-2 4-3 9-1 8l1-3c0-7 11-5 12 2v4l1 1 1-5 1-6h1c-2 2 0 6 1 6l2 1h6l5-1 7-3 3-3-6-1-13-3c-9-1-11-2-2-2 7 1 9 0 6-1h1l2-1 2-2v1c-1 2 4 4 6 2l1 1c-1 1 0 1 2 1h3l-3-2c-5-3-13-7-16-7l-2-1 2-1c4 2 9 2 11 0l2-2-3-1c-5-3-18 0-14 3 1 1 1 1-1 1s-2 0-1 2c3 2 1 6-2 6l-7 3c-5 3-7 3-5 0l3-1 1-1-2-1c-1 1 2-7 4-8s4-7 3-8c-1-2-1-2-1 0m-156 2l-1 2-1 7c0 7 1 8 2 2 0-4 1-5 3-5l2-1h-3v-1l2-2 5-2c0-2-2-1-4 1h-1v-2l-2-1c-2 0-2 0-2 2m-92 8l-1 2-1 1h-3l2 1c2 0 3 2 1 2v1l1 3c0 2 0 2 1 1l2-2 1 2 1-2 3-4c2-1 2-5-1-5h-6m15 3l-3 1-1 1h2l2 1-2 1v1a7 7 0 009-2h11l3-2h1c1-1 0-1-1-1l-3 1h-1l-3-1H82c-2-2-2-2-4 0m668 5l-2 4-1-2c1-2 1-3-2-3-2 0-2 0-1 2v4l-1 4 2-2 1-3c2 0 2 3 1 7v17c1 3 3-5 2-10l1-14c2-7 2-8 3-6l2 1-3-4c-1 0-2 2-2 5m-347-3c-4 2-10 7-10 9 0 3 2 2 3 0v-2c-1 1-1 0 0 0l4-3 7-2c5 0 7-1 3-2h-7m14 0l-2 1-3 1-5 2-4 1h5c4 0 5 0 5-2l2-1h2c1-2 4 1 4 4l1 2v1c-1 1-1 2 1 2h3l3 1 2-1-1-1c-2 0-4-2-2-3s0-4-4-6-7-2-7-1m-25 1l-3 1-2 2v2c0 1 1 1 2-1h1c0 2-6 4-7 3l-3 1c-4 2-3 3 3 3l6-1v-2l1-1 5-7h-3m-202 1v6l1 1c2 0 2 0 1 3s-1 3 1 3v-1c-1-2 2-4 5-4 4 0 7-2 6-4l-1-1v1l-2 2h-4l1-1 1-1 1-2-1-1c-6-2-8-2-9-1m286 0c0 3-2 3-3 2s-1-1-1 1v3l2 2 6 2c2 0 2 0 1-2l1-1 2-1v-1h-3l1-1 2-1v-1l-1-1-1-2-2 2-1 2-1-1c1-1 0-2-1-2h-1m-386 1a148 148 0 01-1 4c0 2-1 2-7 2l-6 1h8c6 0 8 0 7 1h1l9-1 6 1-1 2c2 5 0 7-8 9l-6 2 5-1 10-2 8-2c4 0 6-1 8-3 4-4 3-5-2-1l-4 2-5 1-5 2v-2l1-4 2-3 1-2v-3c0-3 0-3-3-3-4 0-7 2-4 2l2 1 2 2c1 1-1 1-3 1l-6-1h-2c-2 1-7 1-7-1 0-1 2-4 4-4 1-1 0-1-1-1l-3 1m419 1l1 1v2l-1 3c1 2-6 2-11 1h-2c-1 1 4 2 10 2l6 2 9 3 6 3 3 1c2 0 2 0 1-1-2-3 1-8 6-10 2-1 2-1 0-1l-4 1 1-2 1-3-2 2h-3l-2-1h-1l-2 3c-1 1-1 1-1-1v-3l-1 4c0 2-3 1-4-1 0-2-2-3-5-1-3 1-4 1-2-2 3-2 2-2-1-3l-2 1m231 5l-1 4c-2 1-2 2 0 3v1c-2-1-3 0-4 1l-8 1-9 1c-2 0-2 0-1-1l10-2h9l-10-1h-29c1 2-4 3-12 3-6 0-12-2-6-2 5 0 3-1-3-1l-8-1h-2l2 1 1 1h-18c-10 0-17 0-16 1 3 1 0 2-4 0-4-1-4-1-3 1 0 2 0 2-1 1l-2-1c-2 2 0 3 4 3l4 1 3 1h5l1 1c-2 0-3 1-1 3l1 4 1 2c1 0 2 3 1 4l2 1 3-1v-8l1-1-1-1 8-2 4-1c0-1 3-1 5 1 1 1 5 0 5-1l-2-1c-2 1-2 1 0-2 4-3 4-3 4 0 0 2 0 3 9 3l11-1v-1a1 1 0 010-2l2-1h2v1l-2 1 2 1 2-1v-2h1c1 2 2 4 5 4s5-2 3-4l1-1 2 2c-1 2 4 3 8 1l9-1 9-1c1-1 1-1 1 1v2l1-2c1-2 1-2 1 1s0 3 1 2a16 16 0 000-14c0-2-1-3-1-1m-183 0l-9 2c-9 0-12 2-3 2l8-1 7-1c6 1 8-1 4-2h-7m-29 2l-5 1-5 1c-1 1 0 1 1 1l2 1a1 1 0 102 0l1-2 1 3 3 3c2 0 1-4 0-4v-1c2 0 2-1 1-3h-1m299 1l-3 2-2 1h2c2 0 3 1 1 2h-3c-2 1-2 1-1-2 0-3 0-3-1-2l-2 3-1 1c-2 1-2 0-2-1 1-2-8-1-10 1l-1 1 1-2 1-1-1-1-3-1h-1c1 2 0 2-2 2h-2l2 1c0 2-8 0-9-1s-1-1-1 1 0 2-2 1c-3-1-12 0-19 1h-8c-1-1-2 1-2 3h12c10 0 11 0 12 2 2 1 2 1 2-1 1-3 7-3 7 1-1 1 0 2 1 2 2 0 4-2 2-2l-1-2 17-1h15c1-1 1-1 1 1l1 3 1-2c-1-2-1-2 9-2a280 280 0 0019-1h5l-6-1h-10l-5-1c0-1-3-2-5-1l-4 1c-4 1-4 1-3-3 0-3 0-4-1-2m-230 3l-15 1h-6l8 2h12l5-1h-8l4-1 29-1 26-1c-1-1-46-1-55 1m-259 4l-10 2c-4 0-6 1-5 4 1 2 11-1 14-4l3-1 3-2c3-2 1-1-5 1m230 0l-4 3-3 1-3 1c-3 0-7 3-5 3h8l4-1 5-1 36-1-34-1-1-1h-3c0-2 2-3 7-3 4-1 5-1 2-1l-6-1c-2 0-3 1-3 2m64 7l-6 1h4c3 0 3 0 3 2v3l3 5 1 6 3-2c4-1 4-1 1-6l-1-5-1-1-2-1c0-3 0-3-5-2m102 4l-2 5-4 7c-2 0-4 3-3 5 0 2 1 2 3 1v-1c-3 0-2-2 1-2 2 0 2-1 2-2s0-2 2-1c2 0 2 1 1 2-2 1 8 1 14-1 4-1 5-3 3-3l-2-1h-2l-3 2c-1-1-2 0-3 1v-3l-5 1h-4l2-4 3-10-3 4m-293-1l-3 4c-1 2-1 2-2 1v2c0 2 0 2-1 1s-1-1-1 2l-1 4 1-2v-2l1 2c1 3 3 4 3 1 1-2 1-1 1 1l1 5c1 1 1 1 1-1l3-17c1-2 1 1-1 8l-1 6c1 4 3 3 4-1l1-3v7l3 3c2 1 2 1 2-1v-1l1-6c0-4 0-5 1-1l1 5c1 3 2-6 1-11v-3l2 8v8l1-4 1-8v-3l1 3a2 2 0 104 0l-1-2-2-3v-1l4 5 2 3h1v-2a13 13 0 00-9-8c-1-2-6-1-6 1h-1c-2-2-10-2-12 0m385 1l-6 3c-2 1-3 1-3 3s0 2 4 1c5 0 5 0 5-3l3-6c1-2-1-1-3 2m-340 0c-3 3-2 3 1 8 4 6 9 7 10 2v-3l-1-3c0-5-8-7-10-4m-354 3c-2 0-7 6-8 9l-2 4-2 2h2l4-2v-2l-1-1 1-1 3-1 1-1c0 2 5 3 6 1h5c3 0 3 0 4-3 3-4 2-5 0-1-2 3-4 4-2 0v-3c-2-1-3-1-6 3l-2 2 2-4v-2l-4 3-2 3 1-3c2-3 2-4 0-3m181 1c-5 1-12 9-11 11 1 1 1 2-1 1-2 0-8 11-7 15l2 3c1 0 2 1 2 3 0 3 3 2 4-2l3-5c2-1 2-6 1-9v-1l2-5 4-4c2-1 3-2 2-3s0-2 2 0l7 1 7 1-4-2c-3-1-6-2-7-1-2 0-2 0-2-2s0-2-1-1h-3m163 0c0 2 7 7 8 7 2 0 1-3-1-5-2-3-7-4-7-2m-328 2l-3 9h1l1 1h1l4-2 4-2h-8l4-1 9-1h5l-7-2-7-2h-4m457 0l-3 1 2 2 1 2-1-1h-1l2 2c2 0 3 2 4 4l4 3 4 1c2 2 6 3 7 2l-1-1c-2 0-12-8-11-9l-1-3v-1l-1-1c-1-2-1-2-5-1m-211 1v1l2 1-6-1c-1-1-1-1-1 1s0 2-2 2h-1a1 1 0 11-2 1l-1-1v2c2 1 3 1 6-1a4 4 0 016 3c0 3 1 4 2 4 1 1 2 0 1-1 0-2 0-2 1-1 1 2 3-6 2-8-1-3-4-4-7-2m-364 1c-9 1-11 3-8 6 3 2 6 3 8 0h2c-1 3 3 5 9 4h7l5-1 4-2c3 0 3-1 1-4h-1l1 2 1 1-4-2c-2-3-3-3-7-2H26l7-1 7-1H26m503 0l-2 2-2 1 8 1c7 0 11-1 6-2l-2-2-1-1-1 2h-1c-2-2-5-2-5-1m-71 3l-1 3-2 6v5c3 2 3 1 3-4 0-4 0-4 2-4 4 1 6 0 4-4-1-3-4-4-6-2m-149 1c-7 5-6 19 0 19v-2c-2-1-2-2-1-2l1 1 2 1 2-1-1-1c-1 1-1 0 0 0l1-2 1-5 1-6c1-3-4-4-6-2m9 1c-2 2-3 6-2 8l1 1h4c-1-1 0-1 3-1 4 0 5 0 6-2l2-3c2-3 2-3-6-4l-8 1m16 4c-3 3-5 9-2 9v-2c0-2 0-2 1-1l2 2h1l2-3c2-1 3-2 2-3s-1-1 2-2l2-1-2-1c-4-1-6-1-8 2m-314 2c-2 1-3 2-2 3l-1 1-1 2-1 2-3 1c-2 1-2 1 0 2 4 2 14 2 16 1v-1a2 2 0 111-2l2-1-1-1a1 1 0 010-2l1-1-1-2-1-1a6 6 0 00-9-1m29-1c0 1-4 2-5 1-1-2-6 0-9 2-3 3-1 5 3 2 2-2 2-2 5 0s2 3-1 4l-3 1h2c2 0 2 0 1 1-1 2-5 0-5-2l-2-1-2 2-2 2c-2 2-1 6 2 7l4 1c2 0 5-2 4-3l2-2c2 0 3-1 3-2l2-1 1-2 4 2c4 3 8 2 8-3l-1-4-1-2-1-1h-2c1-2 0-3-3-3l-4 1m438 10l-3 1c-1-1-8 2-8 3l4-1c4 0 4 0-3 4-8 4-12 5-11 3l5-2c6-2 6-3-1-2l-5-1h-1c-1 1-7 2-16 0-5 0-2 2 5 4 8 2 13 6 13 10a8 8 0 0014-2c2-1 17 1 23 3h6c4-3 17-7 23-7 4 0 7-2 7-5h-1l-11 1-9 1a2 2 0 01-5 1l2-1 1-1c-1-1-5 0-7 1l-2-2c-2-2-2-2 0-2l1-2-4-1h-6l-7-1c-4 1-5 0-3-1 2-2 2-3-1-1m28 2l3 1h-4c-3 0-4 0-5 2-1 1-1 2 5 1 7 0 8 0 6-1-1-1-1-1 2-1h3l-3-2-7-1h-3l3 1m-214 2c-2 3-2 6 0 6l6-2c6-1 6-2 2-3l-4-2c0-2-2-1-4 1m284 1h-4l-2 1c0 2 1 4 3 4 1 0 3 4 3 7l-1 1-1-1v-3l-1 1v1a2 2 0 01-2-1 5 5 0 009 2l-4-7a2 2 0 114-2l1 3v-5l8-1h-13m-543 6l-4 3-2 7c0 4 4 10 8 11 3 2 10 3 10 1l-2-1h-1l-1-1c-3 0-8-3-8-4l4 1c3 2 6 1 8-1h-1l-6-3-3-3 3 2c4 2 4 2 5 1l4-2c2-1 2-1 1 1-1 1-1 1 0 0l2-2v-1c2-3 2-8-1-9l-2-3c1-1 0-1-5-1s-6 0-9 4m-32 1c-4 5-3 8 3 12 7 4 11 3 12-5 0-10-8-13-15-7m167 4l5 2c4 0 5 1 2 3l-2 1-8-1 3 1 3 1 7 1h8c1 0 2 0 1-1h-2l-2-1-2-1v1c1 1 1 1-1 1s-3-2-1-3c2-2 1-3-2-3a26 26 0 01-9-2h-2l2 1m-70 4l-2 3-2 2-2 2c-1 1 1 2 2 0s2-1 2 1c-1 1 0 2 1 1 1 0 2-1 2-3l2-6c1-3 0-3-3 0m5 3c-1 2-2 3-1 4v2c2 1 6-1 6-3h-1c-2 2-3 1-2-1s2-3 4-3c3-1 3-2-1-3-3 0-4 1-5 4m380-2l1 2 2 3 2 3 3 3 3 3-1-3 1-3 2 3c0 3 3 9 4 8l-1-4-2-5 2 3a18 18 0 004 7c0 1 1 2 6 2l3 1-3-6c-2-3-3-6-2-7s1-1 1 1l2 2 2 2v1c-2-1-2-1-1 1 0 2 1 2 2 1 2-1 4 1 7 7s3 6 6 5c2-1 1-3-3-5l-4-5c-3-5-9-12-11-12l-4-4c-2-2-3-3-6-3l-6-1h-9m-360 1c-5 5-5 27-1 23 2-1 2-2 0-3-3-4-1-16 3-17l4 2c2 2 2 2 2-1 1-4-5-7-8-4m257 1c-4 5-4 6-3 8a1 1 0 101-1v-2c1-3 4-4 3-1h3c6-3 6-4 1-5-2-1-3 0-5 1m71 1l2 1 2 1-3 1h-3l1 1 2 1h4v1c-2-1 0 4 2 7l1 2 1 2c2 0 2 1 1 1l3 2-1-2c-3-4-5-10-4-11h1l1 3c3 3 3 1 0-5-2-5-10-9-10-5m-363 1l-4 1-6 2-1 2c1-1 2 0 2 1v1c-2-1-5-2-6-1 0 1 1 2 3 2l4 3 2 1v-1c-1-2-1-3 1-3v1h2l2-2c-1-1 0-3 2-5s2-3 1-3l-2 1m380 2l-1 3-1-2-1-2h-1c0 2 3 6 4 5l2 4a30 30 0 0011 14l-1 1c-2 0-3 0-2 2l-1 1-1-2c1-3 0-6-2-6v2c2 2 2 2 0 2-2 1-2 1-2 3v1l-1-3c1-4-2-5-7-4l-4-1-7-2c-5-1-5-1-3-2s2-1-1-2c-5-3-9-2-4 0l1 2a8 8 0 01-6-3v-2c-1-2-5-3-15-3l-8-1 6 2c10 3 5 3-6 0-2 0-2 0-1 1h-2c-10-1 2 4 21 10l6 2c0 2 8 4 15 5l9 2 8 1 6 1c4 2 7 2 15 0 4 0 4-1 0-3-3-1-7 0-6 1h-2l-2-3-1-1-1-2-3-3c-3-1-8-8-9-15l-2-6v3m-344 1c-2 2-3 9-2 11 3 5 7 1 7-5 0-7-2-10-5-6m58 2a2 2 0 102 1l1 1c2 2 5 2 8 0 1-1 2-2 3-1l2-1c1-2 0-2-7-2s-9 1-9 2m173 0c-3 0-4 1-4 2 0 2-8 2-10 1h-2l3 1 16 4 16 3 4 1-3-2-5-1-1-1 17 5h5l-5-2-10-4-13-3-10-2a65 65 0 0123 3l8 4a772 772 0 0116 6h4l-4-3 3 1h8c5 1 4-4-2-5-2-1-2-1-2 1 1 4 1 4-6 0l-14-3-9-1-4-3c-3 0-3 0-1-1 4 0 1-2-3-2s-4 0-2 1 2 1 0 1l-5-1h-8m-167 7l-1 3v2l-1 3c0 2 4 1 4-1v-2l-1-1 2-1c1 1 2 0 1-2-1-3-2-3-4-1m165 2l6 2-1 1c-2 1 7 5 14 7 3 0 3 0 1 1-6 1-2 3 6 3h16c-2-2 0-3 2-1s2 2 4 0h4c-1 1 0 2 4 1 5 0 8-1 4-1l-5-2-6-1h-7c-2 1-7 0-7-1a1 1 0 00-3 0c2 2-8 2-11-1a15 15 0 00-7-3c1-1 12 1 11 2l3 1c7-1 2-3-15-6a59 59 0 01-13-3c-3-1-3-1 0 1m-191 4l3 1a3 3 0 11-3 4l-4-2-4 1 3 1 4 2h8l2-2c4-2 1-4-6-5h-3m82 1l12 3 5 1c1 1 12 0 15-2 3-1 0-2-4-2h-18l-9-1-1 1m258 2c-4 3-4 3 0 5 3 2 14 3 14 1l-7-7c-2-1-3-1-7 1m-80 7l4 2c7 2 8 2 6 3s0 3 4 3c5 0 3-3-3-5-6-3-11-4-11-3m-13 8h-4c-2-1-1 2 1 3h-2l-6 1c-1 1-3 2-5 1l-5 1c-3 2 20 2 25 0l8-2c4 0 4-2 0-3-5-3-10-3-12-1m33 3l-3 1 3 1c2 0 2 0 0 1l-3-1h-9c-2 0-2 0-1 1l9 1c8 0 19-1 16-2-4-2-10-2-12-2m-259 3l-1 1v1l12 1c11 0 15-1 6-1l-14-2c4 0 4-2 0-2-2 0-3 1-3 2M48 395c0 1 1 2 3 2 3 0 3 1 0 3l-1 2 3-2c1-1 3-2 4-1l2-1a2 2 0 012-2l2 1c1 0 1 3-1 4v-2h-1v3c1 3 3 2 4-2l1-3v8l1-4c1-4 0-7-3-6l-1-1h-4l-2 1c-1 2-6 2-8-1-1-1-1-1-1 1m490-2l4 3 11 8c7 5 11 6 5 2-8-7-20-15-20-13m-221 25l-10 2c-11 0-17 2-13 5l1 2v4l-1 1-1 2c-2 1-6 0-4-1l2-3 2-2h-4c-5 0-5 0-5 2 1 2 0 2-5 4h-4a4 4 0 00-3 4l1-1c0-2 3-1 5 1 3 3 3 3 1 4-1 1-1 1 2 2l3 1-2 2-2 2h4c3 0 4 0 4 2s1 2 2 2l1-3c0-2 0-2 5-2l8 3h19c1 1 7 0 9-1 2-2 11-2 9 0v5c0 3 0 3 5 2l4 1 8 1c15 0 15 0 13 1h18c9 0 10 1 1 3l-5 1-4 1-4 1c0 2 2 2 8 0 9-2 11-2 11-1l-6 3c-8 1-9 2-2 1 8-1 11-2 10-3l2-2c1 0 2-1 2-3v-7l1-4h-8l-9-1c-1-2-8-2-8 0h-2l-2-1h2c3 0-1-2-4-2-4 0-5-2-2-5l3-2h-3l-3-1-2-1-8 1-7 1h-5l-4-1c-1-2-1-2 3-2l7-2h-1c-2 1-10 0-11-2-1-1-1-1 2-2 4 0 4-2 0-2-2 0-2 0-2-2 1-1 0-2-2-3l-3-2c0-1-4-2-9-2s-7-1-3-2v-1l-5 2m-207 2c-1 1 14 2 18 2l14-1h13l-11-1h-34m-2 5h-1c-2 0-2 0-3 2 0 2-1 2-3 2-10-3-19-2-17 2v3l-2 2-8 1c-5-1-7 0-8 1l5 1 11 2 4 1-2-2c-5-1-1-1 9-1h12l-1-3v-5c-1-1-1-1 1-1l2 1 3 2c4 2 5 4 1 4l-2 1 6 1v1c-2 0-2 1-1 3l-1 3-1 2-1 1-2 4-1 4h-6l-6-1 1-1c2 0 3 0 2-1 0-1-4 0-5 2l-15 1c-19 1-19 2 0 2h16v4l2 3 1 2c0 2 2 3 10 3 7-1 7-1 7-4-1-2-5-3-5 0l-1 1-1-2c1-2 7-3 7-1s2 1 2-1c1-3 5-5 9-5a6 6 0 007-3l1 1c1 1 18 0 18-1h-7c-9 0-12-1-8-4 3-2 3-4 0-4-2 0-2-2 1-6 2-1 2-2 1-2v-2c1-2 2-6 0-6v-2c0-2-2-3-14-4l-13-2-4 1m181 13l3 2 1 1c-1 1 0 1 1 1v1c-2 2-1 5 1 3l1-3 2-1c1-1 1-1-1-1s-1-2 2-3c1-1 0-1-2-1l-7-1h-3l2 2m78 13c-3 0-2 3 0 4l11-3c0-2-6-3-11-1m-57 3l-3 1c-5 0-6 1-5 4 0 2 0 3-3 4-2 1-2 1 3 1h6v4l-1 1-1 1-2 3c-2 2 1 2 4 0s4-3 3-4a1 1 0 111-1h1c2-3 7-5 13-5 7 0 11-1 11-3l-3-1c-3 0-4 0-3-1 0-2 0-2-2-2l-5-1c-3-2-14-3-14-1m68 1c-6 0-11 2-6 2l2 1 2 1c1 1 1 1 0 0v-2l2 1h15c2 0 2 0 1-1v-1l-1-1h-15m-223 6c-2 1-14 2-18 1-6-1-8 0-7 1l5 1 4 1-4 1-3 1c0 2 5 2 7 0 3-3 16-6 20-4l2 2-2-2c-1-3-3-4-4-2m134 6v4c-3 2-16 3-17 0-2-1-2-1-3 2-1 2-2 2-4 2l-2 2 3 1 9-2c11-1 15-1 16-3l2-5 1 1v1l1-2c0-2-3-3-6-1m513 6c-5 1-1 2 8 2l9-1c0-1-11-2-17-1m2 11c0 2 0 2-2 0-1-1-1-1-1 1h-3c0 1 1 2 4 2 6 1 8 0 7-2l1-1 1 2 1-1c1-3 1-3-2-2-2 0-3 1-3 2l-1-1-1-2-1 2m-36 0l1 1c1-1 1 0 1 1l-1 1h-1c0 2 2 1 3-1l2 1c1 1 1 1 1-1v-2l1 2 2 2v-2l-1-2 3 2c2 2 2 2 3 1h7l1-1h1v-2h-23m24 7l2 1 1 1v1c8 1 12 1 11-1l1-2c1-1 1-1-1-1s-3 1-3 2l-1 1-1-1c0-2-1-2-5-2l-4 1m27 1c0 3 2 4 2 2l1-1c1-1 2 0 2 1l1 2c2 0 2 0 1-1-1-2-1-4 1-4l1 1c-1 1 1 2 2 1 2-2 3-1 2 1v1l2-1 2-1 1 1v1l1 1-1 1h-2l2 1h2l1-2v-5l1 1 2 2c1 1 2 0 2-1s0-2 2-1l1-1-2-1-2 1h-1l-13-1h-11v2m30-1l-2 3c-1 1-1 1 1 1 2-1 5 1 5 2h-1l-2-1c-1 1 0 2 3 2 3 1 3 0 2-1l1-2c1 1 1 0 1-2-1-3-2-4-2-1 0 2-2 3-2 0h-1c0 1-1 1-2-1h-1" itemprop="regular" fill-rule="evenodd" tabindex="-1" fill="url(#16282281824-posters-1653312561027-horizontal-regular)" fill-opacity="" stroke="url(#16282281824-posters-1653312561027-vertical-light)" stroke-opacity=""></path><path id="16282281824-posters-1653312561027-bold" d="M380 167l1 1 1 2c0 3 4 7 7 8l3 1c0 2 5 2 7 0l5-1 3 1-3-2c-3-3-4-4-4-2s-8 2-12 1c-3-1-5-4-4-6v-1l-2-2h-2m-22 10c4 4 3 6-2 9s-12 4-15 1h-3l2 3 1 1c0 1 5 1 12-1l5-1 1-2 1-1c1 1 3-4 3-7l-2-1-2-2-3-2 2 3m21-1l1 2 1 1 4 4c4 3 5 6 3 6l-1 1c2 1 5-2 4-4-1-1-1-1 1-1l9 1c5 0 8 1 9 2 4 4 5 4 8 3 3 0 3 0 6 4l3 4c0-1-7-11-8-10l-1-2-1-2-29-2c-2 0-3-1-3-2l-1-1-3-2-2-2m-39 26v8c-1 5-1 5-1 2a3 3 0 011-4l-2-1c-2 0-2 0-1 3v7c1 5 1 6 5 4 3-2 4-2 4 0l-1 1-3 1-1 2 2-1 1-1 1 2c0 3-8 3-9-1l-1-2c-6 2-6 2-7-1 0-3-1-4-3-2l1 2c1 1 1 2-1 2h-3l-3-1h-1l3-1 2-1h-5l-7 1-5 1 1 1 1 2 1 2 3 2 3 2v1c-2 2-1 3 0 2 2-2 10-2 11 0h1l7 2c4 3 6 4 6 2l2-1 2-2c0-2 3-4 4-2l2 3v-1l-2-8-1-4 6-2 5-3 6-3 7-4v-2h-1l-4 3-5 3h-1l-5 2-4 2-1 1-1 1c-2 0-1-3 2-5s4-8 2-13l-2-2v2l-1 3v-1l-1-1h-1l-2-4v1l-1 3-3-1v-1l-1-2c-2-1-2 0-1 2m48 0v1l-1 1-3 2c-1 1-4 1-3-1h-3l2 4 3 2 2-2 4-3 2-2c0-3-3-4-3-2m28 2c2 2 1 3-2 2l-8-1c-6-1-6-1-3 1a9 9 0 006 1l5 1 8 2c5 2 5 2 3 3v1c2 0 2 0 1 1-2 2-4 7-2 6h1c0 2-1 2-3 0-2-1-2-1-1 1 2 3 2 6 0 6l-1-2v-1c-1 1-8 0-7-1h-2c-3 2-2 3 3 2 3 0 3 0 3 2v1h2c0 1-5 3-8 3v-2h-2c-1 1-3 2-4 1-3 0-3 0-1 2s7 4 6 2c-1-1 1-1 5-1 9 1 8 3-1 3-3 0-3 0 1 1s3 1-4 1l-10 1c-2 0-2 0-2-2l-1-2-1 2c0 2-1 2-2 2-3-1-4-4-1-5 2 0 2 0-1-2-4-1-4-1-4 2l-2 2-1 1c1 0-2 3-4 3l-2-7c-1-7-3-11-2-4 0 4 0 4-1 3h-3c0 2-8 6-11 6-1 0-1 1 1 2l3 2-3-1-5-3h-2v1l3 1 4 4c4 4 4 5 1 6-1 0-2 0-1-1h-1c-3 2-5 1-8-5l-3-7c-2-1 0 3 2 8 4 5 5 8 4 13h-4l2-2c1 0 1-1-2-2l-6-6c-3-4-3-4-3-2 1 4 1 4-4 1l-12-6 6 4c13 7 13 10 0 7l-12-2c-1 0-1 1 2 1 14 2 20 6 17 10l-3 1c-3 0-10 2-11 4l9-2h8l-3 2-7 4h1l1 1h-4c-3 0-3 0-2 1 2 1 0 2-6 4-7 1-14 7-9 7l2-1c0-2 1-2 4-1 1 2 1 2-1 2s-2 0 1 2l4 3c-1 1 3 2 14 3 8 1 11 2 10 5l-1 2c-2 0-5 2-5 4l1 1-1 2h-6l-2 2c-6 3-4 7 4 9 4 1 5 1 4 3-1 3-2 5-4 5s-2 0-1 4c1 2 1 2 3 1h1c0 2-4 2-6 0-3-2-16-3-16 0 0 2 2 4 3 2l4-1h3l-3 1c-3 2-3 2 0 6l2 3-2 2-4 2c-2 1-2 1 1 1 2 0 2 0 1 1-2 1 8 3 10 2l1 1c0 3 4 3 7 1 3-1 3-4 0-4v1c3 2 0 2-3 1l-5-2v-1h3c1 1 1 1 1-1v-6c0-4 1-4 6-2h11c1-1 12-4 13-3l4 1 5-1c4 1 5 0 8-3 6-7 15-4 14 4 0 4-2 5-7 5l-2 1 8 1 12 1c2 2 2 2 4 1 2-2 8 1 9 5l2 2c1 0 1-1-1-3v-1l11 5-1 1-4-2c-3 0-3 0-1 1l3 2c3 0 9 4 8 6 0 2 0 2 2 2s6 4 6 6c-1 1 0 1 1 1 2 0 2 0 1-1l-1-2c1-1-4-5-6-5v-2c0-1-1-2-3-2-2-1-2-1-1-3v-1h-2c0-2 7-1 9 1l1-1v-1c-4 0-30-9-30-10l2-1 4-2 7-3 1-2c-1-3 3-3 4 1 1 2 2 2 4 2l1 1c0 2 3 1 5-1l2-5 1-2v-6c0-5 0-5 1-4h2c0-2 6-1 7 1l2 1c0-1-2-4-5-5h-3l-4 1c-2-1-2-1-1-2 2-1 2-1-1-2l-4-3-3-2-1-1 5-1c17 3 36 2 34-1h1c2 0 3-1 5-4l5-3c3 0 4-1 4-2v-5c-1 0-2 1-2 3l-1 3-2-2-2-4-3-3c-2-4-3-4-3 1-1 5-3 6-6 6s-3 0-1-1v-1l-1-4-1-5-1 3c0 7 0 9-3 11s-3 2-3 0c4-8 4-12 1-16l-2-2 2 4v5l-1 5c0 2 0 3-1 2h-1c1 1-5 7-7 7-3 0-5-2-4-2l1-4c0-2 0-2-2 1-1 3-1 3-2 1-1-1-1-1-1 1 0 5-4 5-8 0h-1l2 3 2 2h-5v-3l-2-5-2-4v1c3 4 1 17-3 17-1 0 0-3 2-4 1-1 2-4 0-4l-2 1c-2 2-4-1-3-4v-7l-1 4c-1 3-4 4-4 0 0-1 1-2 2-1l1-1c-1-1 0-2 1-3l1-2a16 16 0 015-12v-2l3-8 5-8v-2l1-5 2-7 1-5 1-3-3 6-1 1c-1 0-1-2 1-4v-4l-3 3c-1 7-10 1-10-6a10 10 0 019-11v-4l-1-5c-2-1-2-1-1 2v2c-1-1-2 0-3 1l-2 2c0-1 0-3 3-8 1-2-1-5-3-5-3 0-5-1-5-3s0-2-1-1h-2l-2 1-2 1-2-2-2-2v1m-45 12l-2 1-3 1-3 1c-2 0-3 1-3 2h-1l-2 2-2 2c0-1-1-1 0 0l-2 1h-2l2 2 2 3 1 2 1-3c0-6 11-11 16-8l3 2-2-2-2-4c1-4 0-5-1-2m-126 13l-1 4-1 2-1 1-1-3v-2h-1v7c0 2 1 3 2 3l1-2v-1c2 0 4-8 3-10-1-1-1-1-1 1m12 1l-2 3c-3 1-4 3-1 3l2 2v4l-2 4-4 5-1 1-1 1-1-2v-2l-2 2c-1 2-4 3-2 1l-1-1-2-1h-1l1 2 1 1-2-1v-5l1-3-2 2c-1 3-5 7-8 7-5 0-2 2 4 2l7 2c1 2 4 2 22 2l7-1-1-1 1-1c2-2 4-2 5-1h2l-1-2-1-2c1-1 0-1-1-1-4 0-8 0-6-1s1-3-2-4h-4l-1-2c1-5 6-10 8-7 1 2 4 0 3-2l-2-2 1 2c1 2 1 2-3 1l-5-4-2-1c0 3-1 2-3 0s-2-2-1 0m166 13h-9l4 2c6 2 7 2 7 0 1-1 1 0 1 1l2 5 1 3-2-1c-4-5-21-10-23-7h-4l-5 1h-3l-3 1-3 1-5 2-4 2c-1 1-2 1-1 2l-1 1c-2-2-4 1-2 3 2 3 0 4-2 2-2-4-4-1-4 8 0 7 0 7 3 8h10c0 2 10 1 13-1h1c0 1 7 2 7 0 2-3 1-4-4-3l-8-1h1c3 0 3 0 2-1v-1l2 1 3 1c2 0 2 0 0-1l-2-1-1-1-2-1h-1a1 1 0 110-2 2 2 0 000-3v-2c1-1 1-1 2 1s2 2 8 2l6-1v-2c2-1 2-1 1 1 0 2 0 2 2 1 3 0 4-4 4-6-1-2-1-2 1-1h1v-2 7l-2 4-2 4-1 2-1 3-1-1-3-1c-3 0-3 0-3 3 0 2 0 2 3 1 6-2 14-2 13 0l2-1c1-3 6-4 7-3h2c2-1 1-9-1-10s-2-1-1-3l2-3c1-1 1-1 1 1 1 1 0 2-1 2v2c4 2 5 1 5-3 0-3-1-4-2-4v-1c0-2-7-11-9-11l-1 1m-124 20v4l1 4v3c4 4 4 6 1 10l-4 4-9 7c-9 6-10 7-10 10l1 3 1 1v5l-1 1-2 1-2 3c1 1 7-2 9-5 2-2 3-2 3-1 1 2-3 7-6 7l-2 2h-2c-3-2-3-1-1 1l3 2 4 3 3 1-1-1c-2 0-1-2 2-3l1-1h-3c-3 2-6 0-4-2l1 1 1 1v-2h3c-1-2 2-6 3-4v3-1h-1c-2 2 0 2 3 1s4-4 2-3c-2 0-2 0-2-2l-1-3h1v-1l-2-1c-2 1 0-6 4-12l3-7 5-5 4-6h2l3-2c2-1 3-6 1-6l-1 2h-1l-2 1c0 2-3 1-4-1l-2-8c0-6-1-7-2-4m499 2l-1 1c-2-1-10-2-11-1l-6 2c-2 0-3 4-1 4l1-2 4-1c3 0 3 1 3 3l1 2 1-3c0-2 1-2 6-2 4 0 5 0 4-1 0-1 0-3 2-4v-1l-3 3m-404 1c2 5 15 4 17-1 1-2-3 0-4 2l-3 1v-3h-6c-4-1-5 0-4 1m-57 7c-3 2-7 4-10 4-6 2-9 4-5 4l5 1c3 0 3 0 3-2l7-4 6-4c0-1-1-1-6 1m17 8l-2 6c-2 4-2 5 0 6l1 1 6 10c2 3 4 3 4-1l-1-3v1l-1 1a8 8 0 01-1-7c4 6 10 11 8 8l1-2c1 0 4 3 2 3l2 1c2 1 4 2 5 1l1 3 1 3v2c0 2 0 2 2 2s2 0 1-2l1-2v-2l-1-5-3-5c-1-1-2-2-1-3l2 2c2 4 4 4 4 1 1-2 3-2 3 0l-1 1h-1c0 2 1 2 2 1 2-1 3 0 3 2s-1 2-3 2c-3 0-3 0-3 2l2 4 1 3 1 2 2 1c3-1 3-3 0-7v-3l3 5c2 7 3 6 3-1l-1-7 1-2 9-4a6 6 0 017-4l1-2c3-2 2-2-3-1s-4 0 2-2c4-1 6-3 3-3l-6-2-8-3-7-1-11 1c-19 5-23 7-23 8l-2 2-1 4c1 2-1 1-2-1-2-3-2-3 0-4 2 0 3-1 1-3l-2-5c0-3-1-4-1-2m161 2c1 2 0 3-1 1-1-1-1 0-1 1l1 3 1-1h1l2 1c1 1 0 1-1 1-6 0-18 8-13 8l1-1c0-2 4-3 5-2 2 4-1 7-5 5h-2l1 2c3-1 5 0 5 2l3-3 5-3 1-1c1-2 0-3-1-1-3 2-2 0 2-4s4-4 1-4l-2-1v-3l-2-2-1 2m-279 1l7 9c0 2-2 1-3-1-1-3-4-5-4-3l2 2v2l-3-2-2-1c0 2-1 2-5 2h-5a4 4 0 004 1h3l4 2-3 1c-2-1-3-1-2 1l-1 2c-1 1-1 0-1-1s-1-2-2-1c-1 0-2 0-2-2h-1v3c1 3 1 3-2 2-4-1-5-2-3-2l3-1-2-1h-6l1 1c2 0 1 2-1 2-1 1-1 1 1 1 3 0 6 5 4 7l1 1c2 0 2 0 0-4-1-3-1-3 1-3l2 1c-1 1 0 1 0 0 2 0 4 3 3 5h6l-2-1-2-1v-3l2-1 3 2h3c0-1 1-2 3-1l3-1c0-1-1-2-2-1v-4h1l2 3 6 6-2-4c-3-4-4-5-1-5l1 1h2l2 1 5 1c5 0 7-1 3-2-1-1-2-2-1-3h-1l-2-1-2-2v2c2 4 0 4-3 0l-2-2 1 3v1c-1 0-3-1-3-3-1-3-8-10-9-10l1 2m301 2l3 1c4 2 2 4-3 4-4-1-5 0-5 1-1 2-1 2-2 1v-2l-1-1-1 3c0 2-1 3-2 3-6 0-8 2-6 4l1-1h3c1 0 2 0 1-1l2-2c2-1 2-1 2 1v1l1-1 1-2 1 2c-1 2-1 2 1 2l2-1 5-3c6-2 7-4 5-7-1-3-8-5-8-2M59 299c5 7 2 13-5 10h-2c2 2 2 2 0 2s-2 1 1 1h3l2-1 4-1c1-1 2-2 3-1l3-2 3-3-3-1c-2 0-4-2-6-4-4-4-6-4-3 0m225 1l-4 3 3-1c3-4 5-4 2 0-2 2-3 4-3 7 0 4 2 5 3 2l1-2v-2l-2-2 2-1c1 1 2 0 2-3v-4l-4 3m-139-2l-11 2v1h5c5-1 6-1 4 2l-9 1h-8l10 1 10-1 1-4 1 2v2l1-2c1-2 1-2 2-1l2-1c2-2 2-2-3-2h-5m183 5l-1 2c-1-1-1-1-1 1l-1 2-1-1c1-2 0-3-2-2s-3 1-4-1l-2-1c-2 0 2 6 3 6l-1 1-5 1h-2l4 1 2 1-3 1-2 1c0 2 4 1 6-1s12-3 10-1l-2 1-1 1c0 2 3 1 5-1 2-3 2-3 0-7a12 12 0 010-7l-2 3m190 0l1 1c1 0 2 1 1 2 0 2 0 2 2 2s3 1 3 2l2 1h2l9 1-2-1-3-1-4-1-4-2-2-1c-2 0-2 0-1-1 2 0 2-1-1-2h-3m22 11l-1 3v2l1-2 1-2 1 2 1 2c3 4 5 6 5 8s7 11 8 10v-1l-1-2-1-2-1-4c-1-4-1-5-3-5l-9-10c-1-1-1-1-1 1m-176 3c0 5 0 5 7 1 8-3 8-5 0-5h-7v4m11 1c-3 1-7 4-7 6l-1 3v-3c-1-3-3-3-3 0a2 2 0 003 3l1 1c1 2 12 3 14 1l-3-1h-5l5-2a14 14 0 018 0l2-1h1c2 2 15 1 13-1l-1-2 3 2 4 2 3 1 2 1c2 0 1-4-3-7-3-3-11-4-11-2 0 1-4 2-5 1-3-1-4-1-5 1 0 2-2 3-2 0-1-1-1-1 1-1h1l-6-1-6-1h-3m-311 1v10l-1 2v2c3-2 1 1-3 4-5 5-15 5-20 0l-2-2 2 3c2 3 6 4 14 4 3 0 4 1 7 3l4 3c2 0 2 0 1-1h-2l-1-1 5-3c4-2 5-2 4-3-5-1-5-1-3-4l3-3v-4l3 1c1 2 3-1 3-6v-4l-1 5c0 3 0 4-2 4l-3-1c-4 0-6-2-6-6-1-3-2-5-2-3m455 4c-1 1 2 9 5 12l7 12h-1l-1 1 4 3 3 2-2-5-5-8a5 5 0 01-1-4l-3-3h1l2-1c1-1 2 0 3 3 2 2 2 3 3 2h2l2 2c2 0 3 2 3 6 1 3 4 4 4 2s0-2 2-1l1 3 1 1 1-2-1-2c0-1-8-9-10-9l-2-2-7-7c-2 0-4-2-5-4-2-3-4-4-6-1m-171 22c2 2 2 5 1 6l-1 1-2 1-1 2 3-2 3-2v3l-1 5c-2 1-1 2 1 1v1l-3 3-3 3c1 4-6 6-33 7a200 200 0 00-34 4c-4 0-4 0-3 1l5 1h1l-2 2 1 1h3c1 1 1 1-2 1l-5-1-3-2-2-1-2-1c-2 0-2 0-2 2 1 0 1 1 0 0l-1 1c0 2 2 3 3 1 0-2 2-1 2 0-1 2 1 3 6 3 4 0 10-2 10-3v-2l1 1 3-1c4-2 15-4 17-2 1 0 1 1-1 1s-4 1-4 3v1c1 0 2-1 1-2l9-1h9l7-1h12l13-2a27 27 0 0014-5c2 0 6-5 6-7h-1l-2 2-3 1c-2 0-3 0-2-1 2 0 1-2-1-2-3 0-5 1-4 2s0 1-2 1c-4 0-4 0-2-1l2-2 6-1c3 0 4 0 1-1-2 0-3-1-3-2h6l1 1c0 2 7 1 9-1 3-4-7-11-21-15a22 22 0 01-10-4v2m99 11v1h4v-1l2 1 2 1 2 1-5 1c-3 0-3 0-1 1s3 2 4 1l2-1 7 1-2-1-2-1 3-1 13 2-13-3-9-2h-7m-305 9l-2 2-2 2-2 1h3l1 1c0 1 8 5 9 4l-2-2c-3-1-5-3-5-4h2l3 2 3 1h1l-1-2-1-3-1-2h-6m318 1l3 2c3 0 3 2 1 2s-2 0 0 1h3l2-1c5 2 12 1 16-1l7-3c2-1 2-1 0-1l-5 1-4 1-1 1c1 1-3 3-5 2-1-1-2-2-3-1h-2c1-2 0-3-5-3l-7-2h-2l2 2m-231 1l-2 1h-1c-2-1-2-1-2 1 0 1-1 2-3 2l-4 2 9-1c1-1 1 0 0 0l-1 2h1l2-1v3c4 1-9 10-14 9l-2 1h-23l-3 2c-5 2-3 3 1 1 4-1 24-1 34 1l4-1c0-2 14-11 19-13l3-1h-3c-5-1-8-4-8-6 1-2-2-3-7-2m200 6v3h-1c-1-2-3-2-7-1-4 0-4 0-2 1 3 2 2 4-2 4-5 0-7-3-3-3s-4-2-11-2c-5 0-6 0-10 3l-5 3-1 1 2 1c2-1 3 0 2 1 0 2 0 2 3 2l4-1 2-1 2 1h1c2-2 8 0 7 2l2 1 3-1 1-2c1-1 1 0 0 0 0 2 1 2 4 2s3 0 2 1l-2 1h8c0 1 0 2 1 1l1-2c-1-3 1-5 4-4 2 0 2 0 0 2l-1 2 5-4c5-4 10-7 13-7l4-1c1-1-1-1-7-1l-12-1c-5-2-6-2-7-1m-278 3l1 2v1l-3-1-3-1h-1v1l-1 1c0 1 9 3 13 2 2 0 3-2 1-2l-4-2-3-1" itemprop="bold" fill-rule="evenodd" tabindex="-1" fill="url(#16282281824-posters-1653312561027-vertical-bold" fill-opacity="" stroke="url(#16282281824-posters-1653312561027-radial-regular" stroke-opacity=""></path><!--v-if--></svg>