<svg id="16282281824-posters-1625776697144" itemscope="" itemtype="/posters" itemid="/+16282281824/posters/1625776697144" viewBox="0 0 683 512" preserveAspectRatio="xMidYMid slice" tabindex="0" xmlns="http://www.w3.org/2000/svg"><rect itemprop="background" width="100%" height="100%" fill="white" tabindex="-1" style="fill: rgb(41, 163, 161); color: rgb(194, 112, 114);"></rect><path d="M0 20v20l5 2 4 3-4 2-5 1v54c0 47 0 55 2 56 1 2 1 6-1 7l-1 5c0 4 1 4 5 6a20691 20691 0 0192 27 8471 8471 0 0195 28h2l2 1v1c2-1 17 3 16 4h3c2 0 2 0 1 1-2 1 3 2 6 1 2 0 2 0 1 1-2 1 6 3 9 2 2 0 2 0 1 1-2 1-2 1 6 3l6 1 1 1h4l2 1h2l2 1h2l2 1h1c0 1 6 2 7 1l1 1c-1 1-1 1 1 1h3c-1 1 5 2 6 1l1 1c-1 1-1 1 1 1h2l2 1h1l2 1h2l2 1h1l2 1h3l1 1h3l-2-1-3-2c-3-1-4-3 0-4l3-2c2-1 3-1 4 1l2 1h2c0 1 0 2 2 2v-1c-2-2 0-1 10 2l9 4 3 1 9 2 9 3a2 2 0 013 2l5 1 9 3c11 2 41 12 41 14a255 255 0 01-3 24l-2-2-2-1c1 1-2 3-3 2-3-2-4 1-2 4 1 2 1 2-1 1l-2-1h-1c0 3-2 2-4-2l-2-12-1-8c-2-2-28-9-29-7-2 1-1 7 0 8v2l-1 6c0 8-2 11-6 8l-4-2c-1 1-3 0-3-1a31 31 0 01-8-10v-2l-1-2c-2 0-5-4-6-8-1-2-1-2 1-2 6 2 15 4 16 3l-1-1c-2 0-1-2 1-2s2 0 1-1l-19-7c-8-1-22-5-29-8l-25-7-48-11c-8-2-10-2-9 0l2 1v2l1 2-17-3c-18-4-18-4-20 8l-1 6-2 5-1 5-6 1h-7l-1 1-1 1-2-1c1-1 0-1 0 0l-3 5-4 5c-1 1-1 1 0 0v-4l-1-2v-13l-1 7c-2 16-3 15-2-1v-26l1-9-9-2-68-18c-33-7-60-14-61-15H8c-3 0-3 1-2 1 3 1 3 5-2 41-4 30-4 32-4 59v28h3l23 1a15762 15762 0 00263 11l51 2c11 1-2 1-54-1l-136-4-87-4-12 1v1l-1-1-7-1c-8 0-19 0-34-2H0v16h8l9 1H8c-8 0-8 0-8 2 0 3 0 3 5 3l5 1H0v69l7-1 18-2a785 785 0 0131-3l16-1 16-2 22-2 35-4a9189 9189 0 01113-12c17-3 71-8 87-10l9-1h3l2 1 20 5 5 1-6 1-22 3-93 13a56159 56159 0 01-203 29l-38 5-21 3-1 30v31h238c190 0 238 0 237-1h1l105 1h103V0H459a17475 17475 0 00-235 1L112 0H0v20m165-4l-1 1c2 0 2 0 1 2-2 2-2 5 0 3l1 1 1 2 1 2-1 1v1c1 1 1 1-1 1-3 0-9 2-11 5l-7 4c-4 2-7 6-7 9l-1 1-1 1-1 1 1 2c2 2 2 3 0 4v4c-2-2-10-2-10-1l2 2 2 2 2 1 3 1c0 1 1 2 3 2l4 4 4 2 4 3c1 1 1 1 0 0v1c1 3 1 4-8 4-9-1-9-1 2 6l51 29 52 28-8-12c-8-8-7-8-4-8l4 1c1 1 5 0 5-2l1-3 2-3-1-1h-6l1-1c3 0 4 0 4-2h1v-2l-2-3-2-4-2-5-1-3 1-3 2-2-2-3c-5-7-1-10 9-8h6l5-1c8 0 10-3 4-9l-2-3 2 1c4 3 4 2 4-2-1-2 0-4 1-5 2-3 1-6-2-9-11-10-32-10-28 0l-1 4c-3 4-4 6-3 7s1 1-1 2c-1 1-1 1 1 5l2 4-3-3-2-5v-2a30 30 0 01-20-17l-1-1a40 40 0 00-21-20c-3-1-6-3-8-6-5-6-9-7-11-4h-1l-1-1h-7m206 101l-5 1-2 1-2 1c-1-1-3 0-4 1l-2 1c-2-1-4 3-2 5 1 2 1 2-1 2-2 1-3 3 0 3 2 0 0 2-3 3-4 2-5 2-5 0l1-1v-1c0-1 0-2 2-1l2-1v-2h-3c-4 0-4 0-3-2 2-1 2-2 1-3l-1 1c1 1 0 1 0 0-2-2-13-4-11-2l-2 2-3 4c0 2-2 3-3 4a9 9 0 00-4 2h-2v4l1 1 1 1c-1 2 0 3 1 2l2-1c1 1-2 4-6 4h-3l-2-1h-1v-1c-3 0-10 7-9 9 0 2-4 7-7 7l-3 2-2 2h6l79-4 13-1h5c6 0 14-2 11-3l-4-2-10 1h-7l-5-1c-3 1-4 1-3-1l1-1h7c1 1 9-3 10-4 0-3 1-4 4-4 2 0 2 0 1-1-2-2-9-1-9 1a2 2 0 01-3 0l-1-1-1 1-4 1-5-1v-4l1-2-1-2c-2 0-1-2 1-5v-2l1-1v-9l1-1c0-2-5-2-8-1m63 46c-3 0-9 7-9 9l2 5a30 30 0 01-2 27l5 9 5-9-1-4c-2-3-2-4 0-8l2-6c0-1 10-12 12-12 1-1 1-2-1-3-3-3-4-7-3-8h-10m43 78l-2 11v8h3l63 4c7 0 11-5 6-9l-2-3-2-3-1-6v-4h-19l-32-2h-14v4m-171 21c-2 2-2 2 2 4l5 3c2 2 19 7 33 9l13 2 9 2c2 0-2-2-5-3l-9-2a334 334 0 00-43-13h-2c-2 0-2 0-1-1 0-2 0-2-2-1m66 29l-1 3c0 3 0 3-3 3l-3 1-1 3c-3 2-2 3 1 4l4 1h-4c-3 0-4 0-4 3l-1 4v-5l-1-5v-1c-2-2-3 3-3 12v9h5c3 0 4 0 3 1-3 0-3 1-3 2l1 4 1 2c2 0 3-2 5-11 1-8 1-8 1-3-1 7 1 8 1 2 1-3 1-3 1 1l-1 4c-1 0-3 3-3 5l2 1 2 2h-2c-2-2-2-1 0 1l2 1 2-1c1 0 1 2 2-12 0-17 1-17 1-1a55 55 0 001 16l-1 2-1-2h-1c-1 2-1 3 1 4l2 2-4 7c-5 8-5 9-2 5l3-2v3l2 3c1 1 5-3 5-5l1-3v-7c1-5 0-49-1-49l-1 4c0 3 0 4-1 2 0-2 0-2-2 0h-1l-1-2-3-1 2-1c1 1 2 0 1-1l-1-1 1-1 2-2-1-1h-4m211 12l1 4 28 3c4 0 5 0 4-1l-4-1h-3l2-1c3-2 4-4 1-4l-24-3h-5v3m-114 9c-1 2 1 3 7 4 6 2 7 4 8 13l3 11 3 7 1-6 2-9 1-5v-1c-1 1-2 0-2-2 1-3 1-3 6-2 3 1 3 2 4 5 0 5 0 4 4 2l4-1c3 1 6-1 6-4 0-2 0-2-4-2h-3v-1c-3 1-7 0-7-1 0-3-4-5-11-7-8-2-11-2-9 1h-1c-9-2-11-3-12-2M4 325l4 2 4 2 4 1h20l4-2 2-2h-4l-11-1c-5 0-7 0-5 1l2 1h-2l-8-1-8-2c-3 0-3 0-2 1m525 2c-2 1 1 7 4 7v-1c-1-1-1-1 1-1l7 2 5 1 2 6 2 7v-5c0-3 0-4 2-4s3-2 0-5c-2-2-9-5-10-3 0 2-2 1-2-1s-10-5-11-3m-44 51l-16 1c-5 0-7 2-7 6l6 1 18-2c13-2 13-2 13-5 1-3 0-3-14-1m-133 33l-1 2-1 2c-2 1-2 4 0 4l2 1-1 1c-3-3-9 10-6 14h-3l1 1v1c-2 1-2 1 1 5l1 2c-2-1-2-1-3 1-2 3-1 4 3 4h4l-4 1c-3 1-4 0-5-1h-2c0 2 3 3 8 3s5 0 2 1c-6 0-8 2-3 2h4l-4 1-2 1 11 2 4-1-4-1h-4l3-1 7-1c3 0 3 0-2-1l-6-1h5c4 0 5 0 4-1h-3l-4-1c-2-1-2-1 2-1s8-2 5-2l-2-1 1-1c1 1 8-1 8-2l-1-1-2-2c-1-3 0-4 2-2a1 1 0 101-1c-1 0-2-5 0-6l1-2h2c2 0-1-3-4-6-3-2-1-3 2-1h1l-2-3-1-2-1-1h2c4 3 4 2 1-1s-5-4-8-4l-6-1h-3" tabindex="-1" itemprop="light" style="fill: rgb(255, 87, 87); fill-opacity: 0.595; fill-rule: evenodd; color: rgb(41, 127, 127);"></path><path d="M161 1l-58 1c-2 1 1 3 4 3 4 1 5 4 1 7v1l4 2c3 3 3 3 1 3l-2-1h-1l2 2 2 2 2 1 1 1c0 3 16 1 54-9 13-4 18-5 19-4h1l14-5a168 168 0 0014-5l-58 1m170 1c-36 9-45 11-55 11-13 0-20 2-20 7l1 3v-1l4-6-1 12c-1 2-2 4-1 6 1 4 3 5 3 2l1-2c0-1 5 1 5 3 1 1 1-1 1-5 0-7 1-9 8-10 5 0 7-2 4-3l-7 1c-10 2-4-1 11-4l53-13 6-2c0-1-2-1-13 1m269-1l-58 1v3c1 2 1 2-1 2h-1c1 0-1 3-3 3-3 0-4 3-2 3 2 1 2 1 1-1h1c1 1 1 2-1 3l-1 3c0 2-1 3-2 3l-2 2 1 3c1 0 2-1 1-2 0-2 0-2 2 0v3c-1 1-1 4 1 4l2 1 1 3v4c3 1 2 3-1 4-4 0-6 3-3 5l2 1c1-1 2 0 2 1s3 2 4 0h2c3 2 1 3-2 2-3 0-3 0-2 1v2l-3-1h-5c0 1-2 2-5 2l-7 1-29 5-27 5 34-4 51-7c1 1-19 4-124 19l-34 5 25-3a50281 50281 0 01130-18h3l-1 6v7c0 2-1 2-2 2l-2 1-2 1-1-1-1 1c1 2 0 3-1 2l-1-2v2l2 2 2 1 1-1 2-1 1-1-1-1h-1l2-2c1 0 1 8-1 30 0 8 0 8-4 10s-6 6-6 11c0 3 0 4-2 4l-44 4c-3 0-4 0-4 2s-1 3-2 3c-2 0-2 1-3 8 0 9 0 9-17 9l-55 4-1 1c-2 0-2 0-1 1l2 1a3 3 0 014 2 6 6 0 00-9 2c-1 0-3 2-2 3h-3c-2-2-2-4 0-4 3 1 3 0 2-1h-2l-1-2 2-2c1-1 0-1-2-1-3 0-3 0-2 1 1 2 1 2-1 2l-1-2-3-1-3 1h-1v3c-4-2-4-2-4 0l-2 2v-3l-1-2v2h-1c-2-1-3 1-1 3h-3l-3-1c1 0 2-1 1-2l1-1 1 1v1c1 1 1 0 1-1 0-2-1-2-4-2l-4 1h-10c-11 0-14 1-3 1a13 13 0 018 3c-2-1-3-1-3 1l-1 1-2 1h-2l-1-2-1 1a1 1 0 01-1 1c0-2 0-2-1-1l-1 2c0 1-5 2-8 1l-1 1 1 1 1 1 2 2a1 1 0 002-1c2 0 2 3 1 3l-22 2-12 1 11 6 19 12 12 7 24 12 19 10h16l-1 3-1 13c-1 14-2 14-8 12l-16-6-12-5v-1c-1-1 0-1 4-1 6 1 8 0 3-1-1-1 0-1 3-1l6-1 2-1-3-2-11-7-8-4-5-3-8-4c-5-1-16-6-20-9l-7-2h-5l-4-1-8-3-4-1-6-2-3-1c3 0-3-2-9-2-5 0-5 0-1-1 3-1 2-1-5-1-8 0-8 0-3-1s5-1 2-1c-4 0-4 0-2-1s1-2-6-2l-8-1h15l-10-1-9-1h17l-9-1-8-1h16l-9-1c-8-1-9-1-4-1l10-1h-5c-11 0-11-1-1-2l7-1h-17l6-1 7-1h-19l7-1c6-1 7-1 3-1-2 0-4 0-3-1 6-1-2-4-14-4h-9l8-1 7-1-13-1c-14 1-14 0-1-1l10-1h-27l10-1c15-1 14-2-2-1-14 0-16-1-2-2 9-1 8-1-4-1h-15l6-1 12-1h-7l-13-1 7-1c3-1 0-1-8-1h-15l7-1 14-1h-11c-20 0-19-1 1-3l12-1-13 1-21 1-8-1 18-2 17-2-18 1h-24l18-2 17-2-28 2c-15 1-9-2 6-3l14-2-30 2-9-1 16-2 15-2-16 1h-20l15-2 12-2-17 1h-18l-2-1h3l19-2c20-2 14-2-12 0a289 289 0 01-20 1v-1l17-3 16-2-24 2-24 1h2l1-1 2-1c5 0 41-4 40-5l-23 2c-30 3-32 3-35 2s-3-1 35-5l17-3-30 3-31 2c0-1 2-2 30-5l24-4-32 3-31 3c-1-2-2-1 36-7l18-3-33 4a234 234 0 01-32 3l-2 1v-1l2-1 30-5 30-5-2-1-22 4-34 4a36 36 0 01-16 1c1 1 1 1-1 1-6-1 1-3 30-7l34-6-37 5c-27 3-32 4-34 3-1-2 4-3 32-7l32-6-36 5c-32 5-41 6-38 3l31-6 33-6c1-1 1-1-1-1a14114 14114 0 01-63 10c-6 1-9 2-11 1-3-2-1-2 38-9l29-6c-1-1-9 1-39 6-37 7-37 6-39 5v-2c5 0 68-14 66-14l-26 5c-47 8-55 9-51 6l58-13 11-3-2-1C70 82 8 93 5 93l-4 1v48c1-2 2-2 6-1 2 2 33 13 45 17l42 15v3l-8-1-14-5-57-18c-11-4-12-5-12-7v-2l-2 2-1 7v4l19 6 26 8a1536 1536 0 0191 30l5 2 8 3 10 4a42 42 0 0013 4l6 2 6 1 2 1 8 2 8 2c2 0 3 1 3 2l3 1c2-1 7 0 12 2l35 11a3724 3724 0 01101 32l45 14c7 3 10 2 7-1-3-1-2-2 0-2l2-1c0-2 4-5 6-5a20 20 0 019 23l-4 1c-4-1-6 2-6 10l-1-7a23 23 0 00-3-13c0-3-2-2-3 2l1 4v2a416 416 0 00-8 64l-1-1c0-2-2-2-6-2l-6-1h6c8 0 7-2 0-2h-6v-4l-2-30-1-28c-2-1-28-7-29-6-1 2-1 4 1 4v1c-1 2-1 3 1 3v1c-2 1-2 3-2 5 1 3 1 3 1 1 1-2 3-3 3-1 1 2 4 0 4-2l-1-1c-2 0-3-3-1-4 1 0 1-1-1-1h2c3 0 4 0 3-1l1-2 2 1 2 1c2-1 7 0 8 2l2 2c1 0 3 37 2 54-1 14-5 34-7 31l-10-3-1 3c0 2 1 3 7 4l7 1h-5l-8 1h-2c2 1 2 1 0 1l-9 1c-6 0-6 1-2-10 2-5 2-6 6-6 6 0 11-7 7-9l-2-3-4-2c-3-1-4-3-1-3 2 0 3-2 2-6l1-1 2-4v-2h11l-2-4-1-2h-1c0 2-4 1-6-1h-4v2l-1 1c-2 2-3 0-1-3 3-2 3-5 2-9-1-2-5-3-5-1l1 1v1c-1 2-1 3 1 3 1 1 1 1-1 2l-4 3h1c3-2 3 3 1 8-1 2-2 2-2-1v12h-5l-90-2-232-4c-26 0-26 0-26 2s12 3 161 4l117 1-251-1c-27 0-27 0-27 2s27 3 159 3h105c0 1-141 2-210 1H0v2c0 2 0 2 19 2h180l-171 2H0v5h38l62-2c101-2 140-2 141-1 1 2 1 2 4 0h3c1 2 7 2 6 0 0-2 1-2 11-2l6 1-4 1 4 1h5c1 1 1 0 1-1 0-2 0-2 4-2h5l-4 1-4 1 3 1 3 2h1c1-2 2-2 4-1l3-1 2-1c1-1 1-1 0 0l2 1 6-1c3 0 4-2 1-2-1-1 6-1 16-1l17 1a1 1 0 002 0h1l3 1h1l2 1c5-3 4 10-2 13-4 3-23 6-41 7l-13 1-15 1a3353 3353 0 00-29 2l-26 3-11 2h-9l-8 1-11 2h-10c-4 2-20 3-20 1 0-1-1-1-2 1s-3 2-16 2l-42 3-16 2-15 1-14 2-26 1-12 1-5 1-1 4c-1 4-1 7 1 7l10-1 12-1 23-2 14-2 28-3 47-5a2794 2794 0 0167-7l13-1 19-2a1311 1311 0 0142-5l50-4 23-3 29-3c2 0 1 1-2 1-4 1-4 1-2 2 2 2 0 4-2 2l-1 1c3 2 16 4 22 3l1 4c-1 17 4 18 16 4 2-3 2-1 0 5-4 9-10 15-11 10h-1c0 3-3 2-3-1-2-4-2-2-4 13-2 17-3 18-5 18v1c2 2 3 5 2 5v2l-1 2v1l1 2v3c1 3 0 3-3-1l-2-1v2l1 1c3 2 4 6 1 7l-6-4c-3-4-5-5-7-5-3 0-3 0-1 1 2 0 5 2 8 6 5 5 7 8 4 7l-1 1c0 2-4 1-5-1l-1-2-5-4-3-2c1 1 0 1-4 1s-4 1-4 2c0 2-1 2-9 2h-5c6 1 6 3-1 3-6 0-6 0-5 2 3 3 3 5 1 6s-1 2 1 2c2-1 3 0 5 2l2 2h-6c-5 0-6 0-7-2l-3-2 1 2c3 5 3 7-2 7-4 0-5 0-8-4l-3-4c0 2-2 2-13 1-14 0-15 0-15-3l18-1c18 1 20 1 4-1-8 0-10-1-10-2h28c1-1 0-1-3-1-12 0-14-1-18-8l-4-6v1l1 3v1c1 0 5 6 5 8h-5c-5 0-6 0-7-4l-2-4 2-1c1-1 0-1-3-1-5 0-5-3 1-3 2 0 3 0 1-1-2 0-2 0 0-1 1-2 1-2-2-2-4-1-5-3-2-4l1-2c-2-2 2-1 4 1 2 1 2 1 2-1l-3-4-1-3-4-2c-5 0-7 0-6-1l-3-1c-3 0-6-3-4-4 1-1 0-1-1-1-3 0-3 0-2 1l3 5 2 4h-6c3 0 2 2 0 2l-3-1c0-3-4-9-5-9-2 0-2 0 0 1l1 2v1l2 3c0 3 0 3-2 3h-3l2 1 1 1-3 1-3-2-2-3-1-3c1-1 0-2-1-2-2 0-2 0 0 5l2 5h-5c-5 0-6-1-7-4-1-4-3-5-3-1 1 3-5 8-6 5l-2-1-1-1c0-3-3-4-9-4l-4-1-1-5c-1-3-1-3 3-3 2-1 1-1-2-1-4 0-6 0-5 1v2l-2-2-1-1c-4 1-6-1-6-5l-1-4-1 2-1 4c-2 1 0 3 4 3l3 1-3 1c-3 1-3 2-3 5 0 6 1 7 7 7 7 1 7 1 8 6v5h-5c-6 0-7-1-7-5 0-1 1-2 4-2l-5-1-10 1 1 1c3-1 8 1 7 2v1l1 4 1 3h-12l-1-4 1-4c1-1 1-1-1-1s-2 0-2 5v5h-7l-1 2c-1 1-1 2 5 2 6 1 11 3 11 4h-10c-10 0-11 0-11 2s0 2 2 1l1-1c0 2-2 3-5 3l-2 2-2 2c-2 1-2 4 0 3l1 5v5h-8c-5 0-7 0-4 1 4 1 5 2 5 4-1 3 1 5 3 5h3l1 1c2-2 13-2 16-1h116l-4-1-4-1a100 100 0 0133 2h13l62 1h62l-3-3-2-3 4 3 4 3h205v-44a45837 45837 0 000-305v-53l-1 10v-15l1-15v-2a4 4 0 011-6h-1l-1-3 1-32V1h-83m-39 57c-7 1-7 1-7 5l1 4v1l1 1 1-3c0-1 1-2 2-1l1 2 1 2 1-1v-1l2 1 4-1 2-2-3-2-2-1h2l3-3c0-2-3-2-9-1M275 76l9 8c7 5 8 7 4 5h-4v-2c-3-1-2 5 1 8 2 2 2 5-1 4 0-1-1-1 0 0l2 1 1 1 3 4c2 3 2 3 0 4-2 0-2 1-1 2l1 2 1 4c1 4 1 4 4-11l2-12c0-1 5-2 11-2l66-10-36 5c-35 4-38 4-41 1l-5-3-5-2-15-9 3 2m278 4l-3 27c-1 23-2 21 12 21l12-2h6c4 0 5-1 3-3v-2h1l1 2v-1l3-1 1-1-1-1v-1c1-2 3-1 2 1h1v-5c-1-3-1-3 1-2v2a1 1 0 102 0l-1-4v-2l1 2c0 2 1 2 1 1v-1l1-1c1-1 0-1-2-1-3-1-8-5-5-5l1 2h2c1-3 0-4-2-3l-3-1-3-1c-2 1-3 0 0-1 1-1 1-1-1-3l-2-1v-1c0-2 1-2 2-1v-3l1 1h1c0-2-1-2-3-2-3 0-3 0-1-1l3-1c-1-2-6-3-7-2s-3 1-5-1c0-2-1-2-2-2l-7-2h-2c1 1 0 2-2 1-3 0-3 0-1-1s2-1-1-1l-4 1M4 132l2 2 4 1 16 6 3 1 10 4 40 15c16 6 18 6 18 3l-28-11a146 146 0 01-24-9l-7-2-5-1-4-2-11-4c-14-5-14-5-14-3m489 12c-6 0-6 0-6 8l-1 5h7c8 0 8 0 8-9 0-4 0-5-2-5l-6 1m-62 19c-6 2-11 10-8 12l1 5v7c1 5 0 11-1 12-4 3-3 9 0 13l3 5c0 3 6 9 7 7l4-5c4-5 5-8 5-13a84 84 0 014-23c1-1 3-3 3-5l4-3c1 0 2-2 0-2l-3-6-2-5h-7l-10 1m-60 9l-2 1h-6l1 1h-2l-2 1h9l2 1c1 1 1 1-2 1h-3l-2 1c-1-1-1-1 0 0l8 1 26-1c9 0 15 0 14-1-3 0-5-2-4-3 0-1-4-2-5-1h-7c-2 3-7 3-7 1l-1-1-1 1h-2c-1-1-1-1-3 1-1 1-1 1 0 0 0-2 0-2-6-2a3 3 0 01-4-2l-1 1M2 174l20 6a5401 5401 0 0164 19l50 15 133 38-15-5c-37-11-57-17-56-18s1-1-1-1c-2 1-13-2-13-3h-1a54 54 0 01-20-6 13 13 0 01-10-3l-2-1h-2l-2-1c1-1-2-2-3-1s-64-16-128-36c-14-4-16-5-14-3m96 0v2l1 2a86 86 0 0027 10l4 1 5 2c2 2 3 1 2-2 0-2-1-2-3-2h-3c-1 1-1 1-1-1l-22-9-9-3h-1M5 239c-4 33-4 37-4 60v25h7l46 2c83 6 90 6 89 2v-4l6-78c0-8 9-5-84-28l-54-13c-1-1-2 4-6 34m33-23c0 1-1 2-3 2-2-1-4 0-5 1l-4 2-3 1 3 1c2 0 3 1 3 2s3 4 6 4c2 0 2 0 2 6v4l4-10c1-3 2-3 5-3l6-2 4-3 2-1c0-1-9-3-13-2l-3-1c0-2-3-3-4-1m221 13c-2 1 1 4 6 6 21 7 28 9 28 7l-12-6-17-6-5-1m218 10c-1 5-3 20-2 22 0 3 1 3 5 3l9 1c3 0 4-1 1-2-1-1 1-1 5-1 6 0 7 0 8 2 3 3 43 5 41 2 0-1 11-1 43 1h29c-1-1 0-1 1-1l8-2 4-1c3-1 3-1 2-2s-1-1 1-2l1-1-2-2v-1h1c1-1-2-2-3-1l1-2 1-2v-1c2-2 1-3-3-3l-2-1c1-2-5-3-21-3l-48-2-55-3h-25v2m-458 5h-3l-1 2c1 1 0 2-1 2v2c2 1 1 6-1 14h1c1-1 2-1 3 1l7 1c4 0 6 0 5-1l-2-1 1-1c1 1 3-1 3-5l2-7 1-5-6-1-7-2-2 1m166 7c-2 2-2 8-6 55-2 30-3 27 17 28a8710 8710 0 0164 4l1-30 1-35v-6l-14-4-59-14-4 2m82 17l-1 36v34h6c14 2 46 3 47 2 2 0 2-3 2-30v-29l-2-1-25-6-25-7-2 1m207 5c-2 9-2 9 6 10l9 1c2 1 2 1 2-2 0-4-1-4-9-8l-8-5v4m-254-1l-1 2-2 1v1c1 2 1 2-1 2l5 2c5 1 6 2 6 4s-1 2-3 2h-3l2 1 3 2 2 1 1-1a2 2 0 014-2c0 1 3 0 5-2s2-3-4-4h-5v-5c1-5 1-5-1-5l-3 3c-1 1-1 1-1-1s-1-2-4-1m364 28c-3 8-3 8 9 8l33 3 27 2c2-1 3-3 0-3l1-1c3-1 2-2-42-6l-25-4-3 1m-54 6c5 1 7 3 3 3-8 0-3 3 7 5l7 2c1 2 9 2 9 0s-4-6-6-6l-5-2-12-2h-3m-60 3c-2 8-2 9 6 11l7 1 2 29-6 1c-4 0-5 0-3 1h-5l-6 1 6 1c4 0 6 0 7 2l7 1 6 1h2c2 0 2 0 2 4l-1 5-1-2c0-1-12-1-19 1h-4c-5 0-8 5-4 6 5 2 22 2 24 0 3-2 3-2 2 2v3l-14 1c-17 1-16 1-16 5 0 3 0 4 4 5l4 1h-4c-4-1-5 1-2 3v1c-2 0-3 2-5 27-3 25-3 27 0 27 1 0 2 0 1 1h2c2-1 3-1 6 1 4 2 4 2 2 0l-1-2h8c-2 2-2 2 2 1l6-2h4l3-1-1-3h-2c-3 0-3-2 0-2l4-3c1-2 1-2-2-2h-2l3-1c2-1 2-1 0-1-4 0-6-1-2-2h4l2-7a31 31 0 002-14 306 306 0 001-38c1-12 1-15-2-16-5-1-7-7-5-16a38 38 0 002-9l1 3v-3l1-4 1 1c-1 4 2 5 10 2l5-2c3 0 4-1 4-4l1-3-14-4a4112 4112 0 00-28-9l-5-2v3m112 12l-1 9v5h4c5 1 6 2 5 4-1 1 0 2 2 3l2 4 1 2v-12l-3-2c-1 0-2-1-1-7 0-8 0-8-2-8l-5-1c-1 0-2 0-2 3m-27-1l-1 2c2 1 0 8-1 8v1c3 2 0 2-10-2-14-4-15-4-15 1-1 3 0 3 3 4 7 2 7 2 8 8l2 8c2 1 2 3 3 10 0 11-1 12-9 13l-8 1-3 1 1 14c0 16 1 19 6 20 4 0 5 2 2 5l-2 2a8 8 0 016 5l1-1 1-1c2 1 0 3-2 3l-2 1c1 1-1 2-5 1-3-1-4 0-6 3-1 3 0 6 3 6 2 1 2 1-1 1s-6 2-3 2c1 0 0 4-3 6v2l-1 2c-2 1 3 5 6 4h3l-4-1h16v-6c-1-1-1-1 1-1s2 0 1-2v-3l1-1v-2l1 1v1l1-4 1-4c1-1 0-1-2-2-4-1-5-4-2-4v-1c-1-1-1-1 1-1l6-3 1-3h-2l3-1c4 1 4 0 0-2-2-1-2-1 0-1 1 1 2 0 3-1h-1c-3 0-5-2-5-4l3-24v-10h-2c-4 1-5 0-4-4 2-6 1-25-2-30l1-2c1 1 2 4 3 13s2 12 3 12c2 0 4-3 2-4l-1-9c-1-7-1-8 1-8s2-1 3-8c1-5 3-5 6 0l1 3 2-2c2-4 0-9-4-8a2 2 0 11-1-3l1-1h-5m-168 45l-3 11v4l6-1c7 0 8-1 8-6v-6c0-2 0-3-5-3l-6 1m191 5l-1 10v13c-1 6 2 8 4 2l1-5v-5l1-2c3 0 4-5 2-9l-2-5c0-2-4-1-5 1m-69 13c-3 8-5 18-4 27v6c-1 1-2 10 0 11l1-2 2-1c2 1 3 0 3-1v-2l-2-3c-5-2-3-4 4-4 5 0 5 0 6-2l-4-23-2-7c0-4-1-4-4 1m124 5l1 4 1 3c2 0 1 3-3 6-5 3-6 5-2 8l2 1 4-4 4-4v3l-1 4 3-1c3-1 3-1 3-6-1-4-1-4 1-4 1 1 1 1 0 0h-3c-1 1-2 0-4-1-2-3-3-4-1-4l2-1c0-2-1-3-3-3l-4-2v1m8 27l-1 5c-2 4-1 7 4 8 10 4 24 6 23 5l2-1h3c2 0 2-3-1-4-1 0-2-1-2-3l-1-5c0-2 0-2 3-1l4-1c1-1 0-2-1-2v-1c1 0 0-2-2-2v1c1 3-3 3-15 0-15-4-15-4-16 1m-185 39c-1 4-1 5 1 6l3 2h-3c-2-1-2 1 0 16v8c0 2 3 5 6 5 2 0 2-2-1-6l-2-2 2 2c4 3 6 3 3-1-3-2-3-2-2-3 3-2 5-1 11 4l3 2-4-4-4-5-3-3-2-2 7 4 6 3-2-2c-2-1-3-3-3-5l-1-2 5 3c5 3 7 2 1-2l-6-4-6-2-4-2h7c6 1 9 0 6-2-1 0-2-1-1-2 0-2 0-3-5-4a17 17 0 01-10-6c-2-1-2-1-2 4m71-3c-3 0-4 1-2 1h-2c-5 0-4 2 2 3h5l-4 1-3 1h4c4 1 8 3 7 4l-2-1h-3c-1 0-1 1 1 2v1c-2 0-2 1-2 2 1 1 0 1-1 1-5 0-2 3 4 4h7c4 1 6 0 3-1v-1l2-1v-8l1-1v-2l-2-3c1-1 0-1-5-1h-5l5-1 5-1h-5l-10 1m-313 1c0 2 2 2 11 2 12 1 15 2 9 2-3 0-4 0-4 2l-1 1v2c1 1 2 2 6 2h5l-1-5c0-5-1-6-8-6l-11-1-6 1M60 478l-6 7-3 4h4l9 1c7 0 6 5 0 6l-1 1c2 0 1 1-2 6-6 9-6 8 2 8 7 0 7 0 2-1l-6-1a10 10 0 018-6c-3 0-3 0 1-7 5-7 5-7-4-7-9-1-10-1-7-5l6-9-3 3m293 0l-6 1h-5l4 5c3 4 3 4 9 4h5l-3-4-2-4 1 1 7 3h6l-3-4c-3-4-4-4-8-4s-5 0-5 2m-189 14c-1 3-7 5-10 3-2-2-11-1-11 0 0 4 0 5-3 5-2 0-3 0-1 1 2 0 3 2 2 6-2 4-1 5 2 2l1-2 3-5 1 2c1 3 9 3 9 1s-1-2-2-1-1 1-1-1l-2-1h-2l3-1 2-1 3-3c4-2 5-1 4 4-1 8-2 8 4 8h6l-5-1c-5 0-6-3-2-3v-5c2-6 2-11 1-11s-2 1-2 3" tabindex="-1" itemprop="regular" style="fill: rgb(0, 124, 174); fill-opacity: 0.445; fill-rule: evenodd; color: rgb(46, 46, 46);"></path><path d="M554 14l-7 2c-1 1-2 12-1 17l1 5 2 2c3 2 3 7-1 46-2 26-2 28-4 28-3 0-7 5-7 11-1 5-1 5-5 5l-44 4c-1 0-2 1-2 3l-2 3c-1 0-2 1-2 7l-2 9v3l-6-1c-10-1-37 0-41 1s-9 5-8 6l3-1c3-2 19-4 21-3l5 1c2 0 3 1 3 3v6a22 22 0 01-5 17 218 218 0 01-6 32 10 10 0 003 12c0-1 8-3 10-2l1 7c-1 8-2 10-4 10v2l2 5c0 1 0 2 1 1h2a2 2 0 01-2 4l-2 4c0 6-1 7-5 7a8 8 0 01-8-8c-1-2-5-3-5-2l-2 4c-3 4-1 9 3 11 5 1 6 5 3 16-3 10-3 18 0 20 4 2 5 12 2 22-1 4-1 4-2 2l-1-6-2-5-1 1v3l-2 6c0 5-3 9-3 5l-1-2v-3l-1-2-1-1-3 1-3 39a96 96 0 01-1 18l-1 7-2 30-1 8a36 36 0 01-5 22c3 1 1 3-3 3l-4-1 4 2 12 2c5 1 9 2 13 5 5 3 5 3 2 0l-3-3 4 1 6 2 2-1c-1-1 0-1 3-1l4 1v-10l7-77 14-1 15-2c1-1-1-1-4-1l-15 1-9 1v-3l1-7v-4h31l-15-1h-15l13-2 14-1-13 1-13-1 9-1h9l-9-1h-9l-1-4c0-3 0-3 3-3h3l-3-1c-2-1-2-1 2-1l4 1v-10l-1-15c0-4 0-5-2-6-2 0-3-1-2-6 0-7-1-7 13-3l12 4-5-2a169 169 0 01-16-6c-4-2-4-3 0-3l3 1-3-2c-6-2-2-2 7 1 22 8 31 12 31 13l2 1c2-1 10 2 30 9 9 3 11 4 11 2-1-1-4-3-10-3l-4-2c-1 0 0-3 2-3 3 0 0-1-7-3-12-3-21-7-20-8l-2-2-7-2-5-2 7 1 38 4c3 2 5 2 5 1l-3-1c-1 0-2 0-1-1l6 1h7c2-1 2-1 4 1 0 1 1 1 0 0l2-1 1 7 1 8c3 4 2 26-2 26-1 0-2 2-2 17l-2 26c-1 13-1 20 1 21l2 3 1 4-1 2v1l-1 1-2 1-4 1c-2-1-3-1-3 1h2a10 10 0 007 7h5c5-1 5-2 2-5v-3l1-6 2-13 2-20c1-17 3-29 4-32 2-3 1-6 0-7a3 3 0 115-3c3 1 2 3 0 2l-2 1 3 1c2 0 2 0 1 3l-4 4c-2 0-3 1-3 2l1 1h3l1 2 1 3c0 2 0 2-2 2s-3 2-1 4l1 2 1 4c2 2 1 9-1 9v1c2 1 2 2 2 5v3l1-1c-1-1 0-2 1-3 2-1 3-11 1-12l-1-6c0-4 0-5 1-2 0 4 1 4 3 0l2-4 1 11c-1 12 0 15 3 14 2 0 2 0 2 2l1 3 1-2 1-11 4-52c0-7 1-9 2-9a185 185 0 0129 4c3 0 7 1 6 2s-18 0-28-2a3 3 0 00-5 4l1 2c-1 1 0 2 2 3 2 0 3 1 3 2v6c0 7-1 9-3 8-3 0-4 2-5 13v14c1 3 0 4-1 5a6 6 0 004 11 4 4 0 010 6l-1 1-1 1c1 1 0 1 0 0-3 0-4 5-4 13v5l1 1a2 2 0 011 3c-2-2-2 3 1 6l2 3-2-1c-3-1-3-1-5 1-1 1-1 1 0 0h2c1 2-1 2-8 1-12-3-20-3-16 0l7 2 6 2 5 1 5 1 5 1 5 1c1 1-1 3-2 3l-2 2-4 2-3 2a8 8 0 01-6 2v-1l1-1-1-1c-5-3-8-1-5 2 2 2 2 3-1 2v2c0 3 0 3-2 2l-2 1 3 3c5 1 4 2 0 1-4 0-4 0-1 1 2 1 2 1-3 1l-6 1 1 1h1l5 1c7 0 9 2 3 2h-6l4 1c2 1 4 1 3 2v2l-4 1h-4v2l5 1c3 0 4 0 3-1h7l-2-1c-3-1-4-2-3-3a39 39 0 0115 7c2 0 13 1 12 2v2h-3l-5 1 4 1c5 0 2 2-4 2h-5l5 1 6 2-2 1h-3l3 1c2 0 2 1 2 2 0 2 1 2 2 1h2l-3 2-15 1 7 1 8 1h1c-1-1-1-1 2-1 2 0 2 0 1 2l-7 1c-2 0-2 0 0 2 4 2 4 1-3 2l-7 1-7 1 1-1 1-1a2 2 0 10-3 2v2h83v-28l1-36c0-9 2-8-15-12l-22-6-8-2v-4l3-11c1-2 1-2 14 1 11 3 15 3 15 0l-2-3c-2-1-1-1 3-1 6 1 9 2 6 3-2 1-1 4 2 4l3 1v-77h-7l-9-2c-3 0-2-2 0-2l10 2h7l-1-10-1-11c-1-1-38-4-43-3-2 0-3 1-3 2l-2 1h-2c0 2-21 0-22-1-2-1-14-2-16-1-3 1-2 4 1 3 6-1 8 3 6 7l-2 9 1 8c0 3 0 3 2 2 2-2 3 0 2 7l-1 6v-5c-1-6-4-5-6 2 0 3-2 3-2 1l-2-4-1-5-1-3-1-3-4-3c-5-1-5-1-4-13l1-12-1-2-1-1 1-2 1-4 2-5c1 0 2-1 2-3v-6c-1 0-2 0-1-1 0-1-4-3-10-3l-5-1-2-2v1c0 1-7 1-40-1-22-2-30-3-28-4l1-2 3-5c4-4 3-5-14-6l-16-1 3-30 3-22 4-30 28-1 35-2h91c2 1 3 1 4-1s3-1 3 2 3 9 3 6h1v-3l4 1 1 1 2 1-1 1c-8 1-9 1-9-1l-1 1c-1 2 0 3 2 3 0-1 1-1 0 0l1 1v2l2-1h9c2 0 3 0 4 2l1 3v-3c0-2 2-3 2 0l3 1h2l-3 2h-3l1 1c1 0 2 0 2 2l1 2 1 1v2h-1l-2-1c-1 1-1 2 1 3 1 1 1 1 0 0-2 0-2 1-1 3l4 2c1-1 2 0 1 2 0 2 0 2-1 0l-1-1v2l-2 4c-3 1-3 1-2-1l2-1-1-2v-3l-2 1-2-1h-1v1c-2 0 0 3 2 4 1 1 1 1-1 1-1-1-2 0-1 1 0 2-2 3-2 1h-1c0 2-5 6-7 5-2 0-2 0-1 1h5c2-1 3-1 2 1l-2 1h-3l1 2 1 3-1-1c0-1-2-2-5-2-4-1-5 2-2 3l1-1c-1-1 0-1 1-1 2 0 2 0 1 1-2 1 0 3 3 2l1 1h3l-1 2-1 1a1 1 0 100 2v2l4 1 13 1h10v-15c0-14 0-15-2-14l-2 1h-1l2-2 3-1-1-1-1-1h1l1-15 1-23c0-8 0-8-2-8s-2 0-1-1c2-1 2-1 0-5-1-4-1-5 2-2 1 1 1 0 1-9l-1-28h-11a1411 1411 0 01-33 2l-26 2-43 4h-19c-2-2 3-69 5-70v-9c1-11 1-13 5-13 3 0 4-1 4-9l3-7c6-6-1-8-13-6M45 115a19976 19976 0 00-41 6c-3 0-3 0-3 3 0 5 2 6 9 4l38-8 12-2-31 4c-18 3-24 3-24 2s2-2 28-6l18-4-6 1m18 7a2047 2047 0 00-54 7c-2 0 8 5 14 6l3 2 4 1 3 1 31 11 10 4 8 1c8 0 9 0 4 1l-5 1 6 2 14 5a34 34 0 0016 3c-6 0-4 2 2 2h3l-2 1 16 7a3442 3442 0 0132 11l1 2h1c0-1 7 1 29 9l12 5c8 2 12 5 12 6 0 2-3 1-23-6l-25-8-1 1-1-2-3-3c-4 0-19-5-47-15l-20-6-1 2-1-2c1-2 0-2-3-3l-88-32c-2 0-2 0-1 1 0 2 0 2-2 2s-2 0-2-2c1-1 0-2-1-3-3-1-3-1-3 3l1 3 4 1 40 14a8069 8069 0 0152 18 3924 3924 0 0171 25 1768 1768 0 0156 18 342 342 0 0134 12l34 12c2 1 0 4-2 4l-29-10-5-3h-1c-1 1-22-5-30-10l-5-2a1031 1031 0 01-66-21l-56-18-32-11-62-20-4-2v2c0 2 1 3 3 4l13 4 9 4-13-4c-13-5-12-4-12-3 0 2 16 7 53 18l71 23a3746 3746 0 0098 31l37 12 95 31a89 89 0 0019 5l15 5c17 6 18 6 18 5a84 84 0 00-30-10c1-1-4-3-11-5l-8-3-15-5a329 329 0 01-21-7c-9-1-27-9-27-12 0-2 0-1 12 3a28387 28387 0 0028 9c1-1-3-4-5-3l-3-1-1-2-1-1c0-2 2-1 16 4a8635 8635 0 0064 23l4 2v-9c2 0-6-4-9-4l-5-1c-3-2-12-3-11-2l1 1 2 2-4-1a4 4 0 01-4-4l-5-1-6-1-7-2-4-2c-9-2-23-8-23-9h-3c-3 0-3 0-2-1 0-2 4-2 7-1h1v-1l-5-2c-6-2-10-5-6-5l1 1h3c3 0 3-1 0-2h-3l-13-1c-5 0-6 0-4-1l4-2h1l2 2v-4l-1-1-2-2-2-1c0-3-8-5-20-7l2-1 3-1h-3l-3-1h-4c-3 0-3 0-2-1s0-4-1-4l-8-1v-1l-16-2h3l4-1-10-1c-8 0-9 0-4-1s5-1 2-1a152 152 0 01-11-1h-4l4-1c3-1 3-1-2-1h-5l3-2 1-1h-19l7-1 8-1h-18l7-1 8-1h-18l6-1 6-1h-6a76 76 0 01-13-1h-5l6-1c5-1 5-1-4-1h-10l7-1 7-1h-20l13-2 13-1-19 1h-18l19-1 20-2h-34l14-1c16 0 13-1-4-1h-14l10-1c9-1 8-1-6-1h-16l15-1h13l-17-1c-17-1-17-1-7-1h11l-12-1c-11 0-11-1-6-1 6 0 5 0-5-1h-11l14-2 15-1-18 1c-20 0-20-1-2-2l11-1h-15c-16 1-14 0 3-1l10-2-42 3-7-1 7-1 28-3-24 1-18 1 3-1 17-2 14-1-11 1-22 1c-18 1-12-1 9-3l20-1c4-1-9-1-23 1H97l20-2 20-3-20 1c-19 2-26 2-24 1l21-3 19-2-25 2-27 1 20-3 10-1-18 1H76l20-3 18-2-14 1c-28 3-31 3-32 2v-1l21-2c14-2 6-2-12 0H60l20-3 18-3-36 4H46l33-5 17-3-23 2c-34 4-35 4-35 3l4-1 36-6-19 2c-44 5-43 4 2-3 14-3 5-2-14 1-22 2-23 3-21 1l13-3c31-5 42-7 24-5m426 22c-2 0-3 4-3 11v3h7c9-1 8 0 9-8v-7h-5l-8 1m-108 35l-36 1-23 1-6 1 12 6 41 23 29 16 3-3a35 35 0 007-8l3-1 2-4h1l1-1 2-1 1-1 1-3 2-23v-4h-10l-30 1m-156 32l1 2c1 0 2 1 1 2l2 1c2 0 2 0 1-1v-1c10 3 17 6 16 7l2 1h3l2 1c-1 1 5 3 6 3l-3-2c-2 0-2 0 0-1s6 2 5 4l3 1h4l2 1v1c1-1 21 6 22 7 1 2 3 0 3-1a67 67 0 00-21-9l-31-12-13-3a3 3 0 01-4-2l-1 1M86 226c2 1 3 2 2 3 0 2 3 5 6 4l9 4h23l11 1-25-7c-24-6-32-7-26-5m-79 6c-2 6-6 45-6 58 0 8 0 13 1 12l3-38 1-20 1-12m56 13l-1 1c-1-1-2 0-1 1l-2 1c-8 0-13 3-13 7l-1 2-7 21c-6 17-7 20-9 20s-2-1 0-8l1-8c0-3 0-3-1 0l-2 7-3 7-1 3-1 2-1 1c-1-2-3-2-6 0l-6 1c0-2-2-1-3 1l-2 3v3l-1 1-1-1v-1c-1-1-1 1-1 3v5l82 6c1-2-3-4-9-5l-13-1-13-2-1-1-6-2-8-1-6-1c-5 0-5-2 0-2h3l8 2h2l8 1c12 0 20 2 20 4l6 1c10-1 13 1 11 5-2 3 20 4 26 2 5-2 5-2 5 0-1 2 2 3 11 3 5 0 6 0 6-2s2-4 3-3 2-2 2-8l2-21c2-25 2-26 1-26l-2 4c-4 12-5 15-7 14h-4c-2 1-2 1-1-5l1-7 1-3c0-2 1-3 2-3l2-3 1-2v-2c-1-2-5-3-15-5-3 0-4-1-4-2l-2-1a86 86 0 01-24-4l-7-1-19-1m124 6a12 12 0 0012 4c-1 1 5 3 10 2 7-1 11 1 10 3-2 3-1 3 10 4 10 0 13 0 17 5l4 2-1 1-2 4c0 3-1 4-3 1h-1l-1 1c-1 0-2 1-1 2l-1 1v1h5l2-2 2-1 1-2 2 4-1-1h-2l-1 3c1 3-3 16-7 24-1 2-1 2-1-2 1-7 1-6-2 2l-3 9-3 1-10-1c-18-2-23-4-10-4 7 1 8 0 8-2 0-4-2-7-3-5-2 3-4 1-4-2 0-2 0-5-2-7l-2-4-1-2v2l-1 3v-2l-1-4a2 2 0 01-1-3l-4 10c-3 12-6 12-2 0v-3l1-2v-2c-2 0-1-2 1-4l2-4c0-2 3-5 3-3 1 1 1 0 1-1-1-2 0-2 1-3l2-2 1-4-1-2h-9l-2 2-5 1c-4 0-9 2-9 5v2h-2v4c-2 4-5 47-4 50l2 2 77 5c2 0 2-5 2-30l2-35v-5l-22-6a791 791 0 00-40-9c-12-2-13-2-13-1m-42 15l-5 51v7c1 4 1 4-32 2a74088 74088 0 00-100-7c-7 0-7 0-7 2s1 2 9 2l31 1a6029 6029 0 0094 7c5 0 7-3 8-10 2-19 4-53 3-55h-1m112 3l-1 10-1 10c-2 1-5-1-5-3v-2a28 28 0 00-2 11c0-2 2-2 6-1l2 1-2 5c-2 7-3 10 0 10v22c-1 3-1 3 2 3h2v-13l1-16v-34c0-4-1-5-2-3m10 14l-1 35v20l21 1c30 2 32 2 33-2 2-4 1-53 0-55-1-1-10-4-25-7l-25-7c-2 0-3 0-3 15m206-5l-2 11c0 2 0 2 3 3l5 2 10 5 2-7 1-10c1-3 0-5-12-10-7-4-7-4-7 6m-204 13c-1 22-1 23 4 21 3-1 3-2 2-5l-2-7-2-2 2-1c2 0 3-3 1-6-3-2 0-6 5-6l3-1 4-1c2 1 4 1 5-1l6-1h2v-1l1-1c0-2-8-4-16-4a22 22 0 01-14-4l-1 20m382-18c4 1 2 2-6 2a39 39 0 00-11 0l-3 1h1c2 0 2 0 1 1l-2 3h2v1l-1 3-2 1-3 1-3 1h-4 1l1 1c-1 1 0 2 1 2l3 1h-10c-19-1-27-1-28 1-2 1-2 1 0 3a7 7 0 004 1c-2 1-1 3 1 3h7a1483 1483 0 0038 5h4l6 1 34 4v-36a266 266 0 00-31 0m-344 10h-4c-2 0-3 0-2 1 4 1 1 16-4 19-3 2-7-2-8-7l-1-4v3c-2 8-2 15 0 15a1 1 0 010 3c-1-1-4 1-3 2l2-1h2l2 2a23 23 0 0111-1c3 0 12-23 10-25-1-1-1-3 1-3s3 6 2 21v17l-1 10c-1-1-2 0-3 1-3 3-14 1-12-2v-2l1-1 3-2c1-3-1-4-10-4l-9-1c-3-1-4 2-2 6l4 2 7 2 5 2-15-1h-15l21 2 26 2h4v-55h-6a6 6 0 00-6-1m204 3l-1 3c1 4 0 6-1 4-1-3-6-4-6-1 0 2 0 2 2 2a2 2 0 012 2h-1c-2 2 1 3 7 3l7 2v-3c-1-2-1-2 3-2 3 0 4 1 3 2h-1c0-2-3-1-3 1 0 1 1 2 5 2h11l2-3c4-5 4-5-22-6l-5-2 2-1 9 2c7 0 7 0 7-2s-5-3-6-1h-1c0-2-1-2-4-2l-7-1-2 1m-418 5c-4 2-7 13-3 13 2 0 5-2 4-3l1-1c3 0 8-4 8-6 0 0-1-2-3-2-3-2-4-2-7-1m285 1c5 2 5 4 5 39 0 27-2 41-6 49-1 4-1 4 1 4 4 0 7-19 7-57s0-35-7-36l-3-1 3 2m29 12l-3 22c-2 24-3 28 0 29 1 0 2 0 2-3l2-7c2-8 2-29 1-36l-2-5m67 16l2 1 1 1h2v1l-4 1c-1-1-1 0-1 9l1 13v4l5-1h5v-7l-1-10c0-3 0-4-1-3l-2-1c0-3 0-4 1-3l1-2c-1-1-9-5-9-3m47 0c-3 0-5 2-4 4 0 3-5 7-6 5-1-1-6 1-5 2l-2 1c-3 0-8 2-8 3h2v1l-3 1a11 11 0 003 19c2 0 3 12 1 31v27l1 5c-1 1 0 2 1 2 1 1 1 0 1-1l2-5c1-3 2-4 1-6-2-6 3-30 7-30 1 0 7 26 7 32l1 3v1c-2 1-4 12-2 13 1 1 1 1-1 1-2 1-2 1-1 2l1 3 1 2h2v-1l1-4v-4l2-3c2-3 3-4 6-4 5 0 4-2-2-4l-5-1 4-1c8 0 11-3 5-4s-6-2-6-17l-1-14c-1-4 2-5 12-7l7-1-8 1h-7v-14l1-18c1-3 0-4-1-5-2-1-1-9 2-9l-1-2-3-3c-1-2-2-2-5-1m34 22l-2 13c0 8 2 11 5 6a19 19 0 001-16l-3-10-1 7m-198 8v4h-27l-108-2-206-4c-15 0-16 0-15 2 0 2 21 3 155 4l108 1H1c-4 3 0 3 139 3l138 1c1 1-128 2-212 2-60 0-66 0-66 2h265a11384 11384 0 01-264 4c-9 3 48 4 140 1a15643 15643 0 01132-2l50-2h32v2c-1 2-1 2 5 2 4 0 6-1 6-2l-1-1-2-3c0-5-2-5-28-5l-27-1 21-1h30c2-2 2-6 1-6l-3-2v3m274 36l2 3c2 3 0 5-4 5h-3l-2 3-2 2c0 3 2 3 2 0 1-1 1-2 4-1l4-1 3-1c2 0 0 4-4 5l-5 6c3 3 10 4 15 2h6c3 2 6 0 3-3 0-1-2-2-3-1-2 1-1-5 1-6l2-1-2-2c-2-2-3-2-5 0-1 1-1 1-1-3s0-4-3-4l-4-2c-3-2-4-3-4-1m-287 2l-12 2-26 2-69 7-10 1h-6c-5 0-21 1-22 3a488 488 0 01-61 6l-2 1-10 1-12 1-11 1-70 7-32 3c-3 0 0 2 4 1l28-2 94-9 178-19c50-5 55-6 47-6l-6-1-2 1m256 9l-3 1-4 4c-2 3-2 3 0 3 0-1 1-1 0 0-1 2-2 1-4-1 0-2-1-2-3-2-4-1-6 8-2 11 2 2 6 1 6-1l1-1 1 1 1 3c1 1 2 3 1 4l1 1 2 1 1 1c2 0 3-6 3-17 0-8 0-10-1-8m-104 50l-2 4-3 4c-2 3 1 6 6 9 4 2 6 4 4 4l-5-3c-3-2-4-2-4-1l2 3 2 1c0 2 11 4 18 2 2 0 3 0 2-4a4 4 0 012-5v-2c-2-1-2-3-2-7l1-5-4-1-5 2h-2c-2-2-8-2-10-1m69 0l-2 2c1 2 0 5-1 5l-5 2c-4 2-4 2-2 3l3 1-3 1c-1 0-2 1-1 3l-1 2c-4-1-4 0-2 1v2c-2 0-2 1-2 3s0 3 2 3h3l10 1h4c2 1 2 1 1-2v-3l1-4-1-8c3-11 1-14-4-12m72 4v5c0 7 0 7 2 7l-1 2-1 2h-7c-3-1-4 0-1 2v2c2 2 2 2 0 2-1 1-1 1 2 1l4 2h-5l2 1c5 3 6 3 6-1l1-1v-4c2-1 16-1 18 1l1-1c-1-1-1-1 1-1 4 2 6 2 8 0v-2l-1-1-1-1c0-2-4-5-7-5s-4-1-4-4c0-2-1-2-4-3l-8-2c-2-1-4-2-5-1" tabindex="-1" itemprop="bold" style="fill: rgb(25, 0, 11); fill-opacity: 0.65; fill-rule: evenodd; color: rgb(132, 169, 102);"></path></svg>