<svg id="16282281824-posters-1618700455786" itemscope="" itemtype="/posters" itemid="/+16282281824/posters/1618700455786" viewBox="0 0 512 683" preserveAspectRatio="xMidYMid slice" tabindex="0" xmlns="http://www.w3.org/2000/svg"><rect itemprop="background" width="100%" height="100%" fill="white" tabindex="-1" style="color: rgb(1, 1, 61); fill: rgb(228, 228, 220);"></rect><path d="M0 210c0 141 0 210 1 208l1-6-1-4 1 3 2 3 1-3c1-2 2-2 5-2l4 1c-1 1 3 2 4 1l2-2c7-1 9-2 10-3h2l2 1c2 0 2 0 1-1s0-1 3-1c5 0 6 1 4 3l-1 2-1 2v1l1 7v7H27c-6 1-6 1-6-1l-2-2c-4 0-4 3-1 3 2 1 2 1 0 1s-3 1-3 2l-1 1v-1l-2-1c-3 0-7 3-5 3v9l-2 10-1 4-1 3-2 5c-2 5-2 27 1 27l2 1c1 2 4 0 4-3s0-3 1-2c1 2 2-2 2-16a37 37 0 012-14v-3 22a30 30 0 000 12c-2 0-1 11 2 12l2 2-3 4c-3 3-4 5-4 8s-1 4-2 5c-3 2-3 1-2-4 0-5 0-6-2-7-4-1-4-2 0-5 5-5 4-7-2-5H0v27c0 25 0 26 2 26s3-1 5-6l1-4v8l6-2 10-3 3-1-2 2-4 2-6 3 5-2c7-1 7-2 6 3 0 7-1 8-4 10-3 1-3 1-1 1l-2 1-3 3a19 19 0 01-1 6c-1 2-1 4 1 6l1 4-2-3-2-3-6 2a7 7 0 00-6 4c-2 1 0 3 2 1h3c0 1-2 3-4 3s-2 2-2 49v49h513l-1-52v-58l1-290V0h-32l-32 1-2 1V1c1-1-1-1-6-1a23 23 0 00-10 1c1-1-1-1-6-1a17 17 0 00-9 1l-9-1h-9l10 9 10 9a569 569 0 0036 29h4c2 0 3 1 1 3l-1 1a2 2 0 01-2 2l-4 3a10 10 0 00-4 6l-22 21c-11 12-21 21-22 21l20-22 20-21-3-4-20-19-24-22-6-6-18 23-19 23a1052 1052 0 0134 43 36 36 0 008 8v2l-4 1-5 2h1l3 1c-2 2-5 1-10-6l-19-25-15-19v-2a9 9 0 015-7v-5l6-8 6-8 1 1 1-2 9-13-1 1 1 1 1-2c-1-1 4-7 5-7l1-2c1-5 13 0 16 5 0 2 6-6 5-8 0-1-5 3-5 5l-1 1a26 26 0 01-9-11l-3-1c-5-2-5-2-27 27-18 25-21 28-22 27 0-2-1-2-1-1l-1 1 4-11 4-10c-1-1-2 0-1 2l-1 1-2 1c-1 1-1 1 0 0 2-2 2-1 0 3-1 3-2 4-3 3l-2 1c-1 1-1 1 0 0 2-1 3-1 3 1l-1 1c0-1-2 0-2 2l-3 2-2 1c-1 1-1 1 0 0 3-2 2 0 0 3l-3 3-2 1c-1 1-1 1 0 0h2a5 5 0 01-5 3l1 1c2-1 1 0-1 3l-3 3-2 1c-1 1-1 1 0 0 3-2 2 0-2 5a11 11 0 01-6 5l1 1h1l-3 2a3 3 0 00-1 2v2l-1 1 3-1 3-2-3 2c-1 2-3 3-3 2a2 2 0 00-2 3l-3 3a7 7 0 01-5 4l-4 6c-4 4-7 8-11 16a27 27 0 01-7 11l-2 4-3 3-1-3c-2-2-2-3 0-5l1-1 1 1v-3l2-1 1-1c-1-1 3-7 4-7l1-1 1-1 1-1c-1-1 17-27 18-27l1-3 2-1 1-1c-1-1 6-10 7-11l3-2h-1l1-2c0-2 2-3 2-2l3-3 2-3-2 3-3 2a23 23 0 019-11l-1-1v-1l2-1v-1c0-1 4-7 6-6l4-6c4-5 4-5 1-2l-3 2 1-1 1-3c0-1 0-2-1-1l2-4 4-5-1 2-3 6c2 0 6-7 5-8s0-3 3-7c5-7 6-8 3-3l-1 4-1 1c-2 0-3 2-3 4s7-7 11-14l4-6c2-2 3-4 1-4l-2 3-4 5-3 4 3-5c5-7 5-7 0-7-4 0-4 1-8 6-2 4-3 5-2 6 1 2 0 3-1 3l-1-2-9 12c-6 9-8 13-7 14v1h-1c0-1 0-2-1-1a3 3 0 00-1 3c-1-2-2 0-1 3 0 2 0 2-1 1-1-3-6 5-5 8 0 2 0 2-1 1-2-1-3-1-3 1l1 1h1l-1 1c-1-1-5 4-11 13-9 13-10 14-8 14l1-1c0-2 4-7 4-6l-1 3-2 3-5 5a3 3 0 00-3 4l-3 3c-1 2-2 3-1 4l-1 3-2 3a12 12 0 01-4 4l1-2c2-1 3-5 3-5a20 20 0 00-7 12v-1c1-2 1-2-1-1v3l-1 3c-1 1-1 1-1-1l1-2-2 2-3 4 6-11 3-5 4-5 3-5 4-6 4-6 4-6 4-5 4-6 4-7 4-5 5-7 3-5 5-7c1-3 3-6 5-7l5-8 4-6c2-1 7-10 8-13 1-2 0-2-4-2s-5 0-4 1c2 1-1 5-3 5a17 17 0 00-7 11c-1-1-10 12-10 14 2 2-2 5-5 3h-2l1 1c3-3 1 3-10 18a87 87 0 00-11 20c-1-1-6 7-5 8l-1 1-1 1c0 2-1 2-4 1l2-3c2-1 3-3 2-3l-2 2c-2 2-2 4-2 5l-1 4-1 4h-1l-1 1v2l-3 3-2 4 1 1-2 1a18 18 0 00-6 9l-3 2 5-10 7-12-7 9-5 7 16-23a3 3 0 001-2l6-10a87116 87116 0 0047-73c1-2 1-2-2-2-2 0-3 0-2 2l-2 4-3 4-2 4-3 4c-1 1-1 2-2 1l-1 2v2l-2 2-1 1-1 1c1 1 0 3-1 4l-2 2c1 1-5 8-5 7l-1 1c1 1 0 2-1 3l-1 3-1 1-1 1-1 2-1 2-1 1-1 1c-1 2-2 2-2 1l2-4 3-4 7-10 1-2 1-1 1-1c0-3 0-4 1-3l1-1c0-3 6-12 7-11v-1l1-2 1-2c1-1 1-2 2-1l1-1V9l2-3 2-2 1-2V0H0v210m0-88c0 67 1 94 1 61a16852 16852 0 00-1-61m500-90l-26 25c-34 34-41 40-42 40l-1 2c0 2 0 2 13-10 36-34 68-65 68-67l-12 10M391 42v1l-5 5a16 16 0 00-5 8l-1 1-3 4v2l2 2v4l2 2 3-3c6-6 5-2-2 5l-4 5 29-32c1-2 1-2-1-1l-3 3c0 1-4 1-6-1l-3-2-1-2c0-2-2-3-2-1m-102 3v1l-5 5-4 6-2 1-2 1-1 1h-2l-4 6a118 118 0 00-12 12l-1 2-2 1-2 3-2 1-5 3c-5 6-5 5-11 0l-6-5 24 22a6 6 0 003-5h-1l2-1 1-4h3c-1-1 1-7 2-7 1 1 2-2 2-4l1-2 1 1 1-1c1-1 2-3 1-4l1-1c1 1 2-1 2-4 0-2 0-2 2-2 0 1 1 1 0 0l1-1 1-1v-3h3a5 5 0 013-7v-1l1-2 1-1v-1l1-1c1 1 6-7 6-8h-1m206 4l-34 31-20 21c0 2 13-9 34-31l13-12 9-10-2 1m6 37l-8 6v1l-1 1-7 6a67 67 0 01-8 7h-2l-1 2 1 1 1-1 1-1h2c1-1 1-1 1 1-1 2-1 2 2 2 2 0 2 0 1-1l-2-1v-4c2-1 3 0 2 2l15-11 14-13c0-2-2 0-4 2l-3 1c-2-1 3-6 5-5l1-1c-1-2-3-1-10 6m-194 4c-2 2-5 3-3 1l-1-1-1 2-8 9c-7 7-9 10-14 21a166 166 0 01-8 14l-1 3 1 2h1c1 1 17-19 34-43 3-5 4-8 1-7v-1c3-3 2-3-1 0m-105 7l-3 6c-5 8-17 33-17 35l-3-1c-4-3-6-3-3-1l3 2v4l1-1 1-1h3l1 1 1-2v-1c1 1 2-2 1-3h1l1-1v-1l1-1v-1l1-1v-2c1 1 3-2 5-6l2-8 1-2 2-3-2 2-3 1 1-2 3-2c2-2 6-4 5-2l1 1c2-2 0-3-3-2-2 0-2 0-1-1l1-2 1-3-1-4c-1 0-2 1-1 2m105 4l-2 3 2 2 2 1-2 2-21 27h4c3 0 4-1 12-12 5-6 9-11 10-10l2-2 3-2c2 0 1-1-2-4-2-2-3-2-4 0h-2c-2-1-1-4 1-5v1c-2 2-1 3 1 2v-4c-2-2-2-2-4 1m-102 9l-2 4v1h1v1l-1 1v2l2 3 8 33c8 34 9 36 7 36l-2 1-1 5 1-1 1-3 1-1 4-4 4-6c3-3 3-4-7-37l-11-33v-2l-1-2h-1l-3 2m111 3l-3 2 5 8c4 8 5 8 8 8 4 0 4-1-1-11-7-11-6-10-9-7m79 18c-1 2-1 2 1 1l-16 17-19 18v-2c-1-2-2-2-4 0-2 1-2 1-1-1 2-2 8-8 9-7v-4h-4l1 2c2 1 0 3-2 2-2 0-5 2-4 3l-1 3c-1 2 0 5 2 4l1 1 1 2c1 1 4-2 22-19l20-22-2 2c-1 1-3 1-2-1l-1-1-1 2m-27 34l-56 55 3-1c0 1-7 7-8 6l-2 2c-1 1-1 1 0 0 3-2 3 0 1 3-12 13 28-24 66-61a264 264 0 0118-18 24 24 0 007-8c0 1 13-10 14-13 2-3-2-1-4 2l-3 3-3 3a4 4 0 01-4 2c1 1-8 11-9 10l-1 1v1l-32 29-13 12 20-21 44-43-38 36m-40-33h-3c-2-1 0 3 6 15l9 16 2 3-4 5c-2 2-4 4-5 3l-1 1-9 11-9 11 34-34 3-3c2-1 3-2 3-4v-2h3l2 1v1l1-2v-3c1-1 1-1 0 0h-3l-2 1-2 2c-2 1-2 2-1 2v2c-1 2-1 2-2 1a2 2 0 00-3-1l-1-3-5-9-4-6-3 2h-2l3-2c2-1-3-9-4-9l-3 1m132 3h-2l-10 7c-18 16-27 23-26 21l8-7c4-3 6-5 6-7v-2l-2 2-9 6-4 4c-1 2-3 3-3 2l-4 3-3 3-4 4-4 4c-1-1 2-4 13-13l9-9-2 1c-2 1-2 1-1-1l2-2a48 48 0 0012-13c-1-3-2-2-3 1l-1 1c-1-1-1-1-1 1-2 3-6 6-7 5s0-2 2-5l2-3-3 2-3 3 1 2c1 2 1 3-1 6l-2 5-2 3-9 6-2 1-1 1-3 4-4 2 1-1 1-2h-3l1-1 4-3 2-2c-2 0-2 0 0-1l3-3c0-3 10-13 11-13l1 1v1c3-1 3-2 2-3a77 77 0 00-25 21 990 990 0 00-72 65c0-1-2 0-3 2l-1 2h2l1-1 2-1c2-1 3-2 2-3s-1-1 0 0h2c2-1 1 1-1 3-8 9-10 12-9 13l-2 2h-1c2-2 1-3-1-2-1 1-2 3-1 4 0 3-3-3-5-9-3-8-4-4-1 4 5 13 6 13 17 3l104-87c32-27 33-28 31-28l-1 1m1 10c-10 9-18 18-25 28l-5 8 5 6c3 5 5 6 6 5 2 0 3 0 4 2l19 25 19 22c1-1 1-2-1-3v-1c3 1 1-2-10-16l-10-13c0-2 3 1 7 7l5 5-1-2-2-3 6 7h-2l1 2 4 4-1-2-1-2 3 2 2 2c1-2-2-5-3-4l-1-1v-2l-2-2-2-2-1-1c-1 0-3-3-2-4l-1-1-1-1-1-1h-1v-2l-14-18c-4-3-5-4-7-3l-3-1c1-1-3-7-4-6v-1l1-2 1-1 1-2 2-1v-2l1-1 2-1c0-2 2-5 3-5 1 1 3-1 2-2l11-11c1 1 3-1 2-2l3-3 2-2 2 2 2 1-2-2c-1-1-1-1 1-3v-2c-7-1-6-1-14 6m2 0l-16 17h2c0 1-3 4-3 2l-3 3c-2 2-3 4-2 5l-1 1c-1-1-6 5-6 7h1c1-1 5 0 5 2h-2v1c4 5 6 7 7 6l4 2c2 2 5 2 5 1h2c1 1 1 1 0 0l-2-1-1-1h-2l-1-2c1-1 0-2-3-1-4 1-4 1-3-1v-2h-2v-2l1-1-2-1h-2c-1-2 8-14 16-22 5-6 7-9 2-4l-3 3 2-4 4-2 8-6c6-5 6-6 4-6l-9 6m-181-2h-1l-1 1 2 3 3 3 1-1 1-2c2-2 1 1-1 3s-2 5 0 3l2 1-1 1c-2-2-1-1 4 12l16 35v4l7-7-1-1-1-1c0-3-24-53-25-52l-2-1c0-2-2-2-3-1m-97 11v1l-1 1-1 1v6l1 2v3l1 2 1 3c0 2 0 3 1 2v8l1 3c2 0 2 1 1 1-1 1 5 35 7 37 1 2 3-2 3-6 0-3 0-3 1-2 0 2 0 2 1 1v2c0 3 0 3 1 2h1c0 1 1 1 2-1s1-3-1-14c-3-12-4-13-6-14v-3c2-3 0-6-2-3l-1 3v4l1 2v4l-1-2-1-5v-2c-1 0-2-7-1-9l1-1v1l-1 3c0 1 1 1 2-1l2-1-1-7-1-6-3 3-2 2 2-4c2-3 3-6 1-4-1 0-2 1-2 3-1 2-1 2-2 1a6 6 0 013-9l-2 2-1 4c1 1 1 1 2-1 3-4 2-10-1-7l-2 3-1-4-2-4m83 7l-1 1c-1-1-2 0-2 4l1 4v3l6 20c6 16 6 16 11 19l5 3-7-18-7-17 6 14c8 18 10 21 12 21h1a940 940 0 00-25-54c-1-1-1-1 0 0m-7 12l2 4-1 2c-2-1-2 0 0 4 0 1 1 2 0 0l1-2c1-1 2 2 1 4s0 5 1 4v-3c1-2 2 2 1 4a18 18 0 007 16l2 1-1-5-7-17c-4-12-6-16-6-12m120 45c-17 5-38 22-47 38l-4 6 2 6 4 5 11 21 10 21h2c1 1 2-1 2-3h6l-1-3-19-39 2 5 2 6c0 1 1 4 3 5a18 18 0 012 6c2 4 2 6 1 6l-1-3-1-1-6-13-8-12-3-6 1 1h1v-3l1 4 1 1h2c2 1 2 1 0-3l-1-4c-1-4 17-20 28-26 9-5 9-5 11 0 2 4 3 5 4 2v-1l-1-4v-5l4 8v2l1 1 1 4a3 3 0 011 4h1l1 1v1a9 9 0 014 6l-2-3-3-2c-1-1-3-2-4-5 0-2-2-4-3-4l-1 1c9 15 21 36 22 35l1 1v3l1 1 2-3c1-2 1-2 1 0s0 2 2 1c3-2 4-2 4-1v1l-2 2c-4 2-6 4-4 4l1 1c0 2 4 2 5 0l3-1 1-1 1-2-14-25c-11-19-15-26-14-27 1-2-5-12-8-12l-6 2m-142 5l-5 8-9 13-8 9v3l-1 1-2 1c-1 1-1 1 0 0h2l-2 2c-3 1-4 2-1 1l-1 2-4 3h-2l1 1h2c1 5 12-5 22-19l2-1 2 1v-1c-2-1 0-2 2-1l1-1v-1l5-4 2-4-5 5-1 1c-4 0-4 1-4 2 0 2-2 1-3-1a5 5 0 016-5c-1-1 1-5 2-5l2-4 4-4c2 0 2 0 0-1l-2-3c0-4-2-3-5 2m6 19c-3 4-5 8-4 10l6 23 8 29c5 18 6 23 5 26 0 3 0 3 2 4a39 39 0 016 20 25 25 0 014 13c1 0 2 7 1 9-2 2 0 1 8-3l7-4c-1 2-8 6-9 6-3 0-8 6-7 9 1 2 0 3-5 6a13 13 0 00-7 5c-1-1-6 1-9 5-4 4-4 4 10-3 16-7 17-7 2 1l-12 6c-2 2 0 2 4 0 7-3 6-2-1 2l-8 5-4 1-1 2-1 1c-1-1-2 0-1 1l1 1h4v-1l2-2h7l13-7 15-7-10 6c-12 5-13 6-2 2l17-6c15-6 16-8 12-18l-2-6v-1l-3-5a4 4 0 00-3-4c0-1 0-4-3-11l-6-21-5-10c-2 0-2 0 0-2v-6l-24-71c0-3-2-5-2-4l-1 1c1 1-1 3-2 3l-1 1-1 1-1 1-2 1c-1 0 0-2 6-9 3-4 1-4-3 0M0 328c0 46 1 65 1 42a7987 7987 0 00-1-42m94-57v5l-1-4-1-4v9l-8 2-9 2c-2 1-3 3-1 2l2 2c1 1 1 1-2 1h-2c1 1 0 1-1 1l-2 2c0 2 1 3 3 1l3-1 6-1 4-1c1 1-3 4-5 3l-5 1-4 2-4 1-3 1h-1l-1 4 1 3 1-3 1-2 2-1h5a10 10 0 013-1l12-2c2 0 2-3 0-5-1-1-1-1 2-2 3-2 5-4 2-5-1 0-1-2 1-2 2 1 4-3 3-8l-1-4v4m216 1l-1 1c0 2 0 3-1 2l-1 2 3 7 3 4 1 3v4l4 7c2 6 4 10 3 5-2-5 0-5 3-1l1 2c0-2 3-5 4-3 2 1 1-1-5-15-7-15-11-20-14-18m-194 22l-7 12 5-9c4-9 7-16 4-11h-1c0-2 0-2-1 0l-3 1c-2 0-3 2-2 3l1-1 2-1c3 0 3 1 1 3-1 2-2 3-3 2l-1 1v2l-3 7-1 2c-1-1-2 1-2 4l-1 2c-2 0-4 5-3 6l-1 1h-2c0 1-1 2-2 1l-2 1 2 1v5l7-9 6-10-5 10-5 10 13-21 11-23-7 11m94-6v1c2-1 2-1 2 2v2c1-1 1-1 1 1-1 4 0 9 1 8l1 4v8l1-1 1-2v3l-1 6 1 3c-1 2-1 2 1 1l1-2v2l-1 5-1 3 2-3v4l-1 3 1-3 2-2v2l-2 5v3l1-3 2-2-1 3-1 5 1-1 2-2-1 3-1 4c0 2 1 1 2-1v1c0 6 1 8 4 5l2-4-1-3c0-1 0-2-1-1l-1-2v-5l-1-3-2-4a258 258 0 00-4-25l-1-2-3-11c-2-9-2-9-5-5m95-2l23 58h2c1-1 1-1 0 0l-2-1-1-7-6-15-2-5-1-3-2-5-2-6-3-8c-2-7-6-12-6-8m-187 32l-4 5-2 6c-4 4-4 9-4 41 1 32 1 36 3 36 1 0 2-7 2-19 0-11 0-12-1-6l-1-14v-13c-1 7-1 7-1-4l1-12 1-1v-1l-1 1c0-2 2-5 2-3l3-5 5-7c3-2 4-5 2-5l-1 1a14 14 0 01-5 6 3 3 0 000-3c2 1 5-1 4-4 0-1 1-2 2-1l1-1c-2-2-3-1-6 3m-36 3l-7 3-2 2v21l1 19 1-8v-32l4-1c3-2 7-2 11-2 2 0 2 1 2 3l1 5 1-5c0-6-3-7-12-5m44 14v23l1 12v7l-1-4v3l3 28 4 3 2 2v-6l-2-26c-1-16-2-19-2-14l-1 6v-7c0-6 0-7-1-5s-1-1-1-7v-7c-1 2-1 1-1-6v-8c-1 1-1 1-1-2v8m84-10l1 3 1 3v6a224 224 0 012 7 47 47 0 003 16c0 2 4 24 6 25 2 2 1 0-1-11a54 54 0 01-2-13l-2-4-1-5-1-2-2-13-2-12c-1-2-2-2-2 0m-60 14c0 7 0 8-2 9l-2 2v6l2 18v15c1 1 1 1 0 0-2 0-2 0-2 2 0 1 1 2 3 2 1 1 1 1-1 1-1 0-2 0-1 2l-4 6c-3 3-4 5-3 5 1 2 7-4 7-7l2-3h1l-1 2-1 2h5l4-1c1-1 1-1-1-1h-1l4-1h2v-1l2-1c1-2-1-13-2-14l-1-5c0-3 0-4-1-3l-1-2v-3l-1-4c-2-10-3-11-5-11l-1 1-4 2c-1-1 2-4 4-4 1 0 4-3 3-4l-3-1h-1v-10l-1-7 1 8m-90 18a147 147 0 01-2 24c0 3 2 4 3 0h-1v-2c1-2 3-3 6-4l5-1-4-1c-3-1-3-1-3-3l1-7v-5l1 5c1 4 1 3 1-6 0-13-1-18-2-18s-2 1-2 3c-1 3-1 3-1-1l-1-4c-1-1-1 4-1 20m37-15h-1l-1 11v11l-1-11-1-11v12c0 12 0 13-1 12l-2 1h-2l-1 1c1 1 0 1-2 1-2-1-2-1 0 0 1 1 1 1-2 1h-6l-1 1-1 1c-2 1-3 2-2 3h1l1-1 1 3c0 3 0 3 2 3l3 1c1 1 0 1 0 0l-17 4-2 1c-6 0-7 1-10 7-2 5-3 6-4 5l-2 1-3 1c-3 0-3 0-1 1l4-1c2-1 2-1 3 1l2 1h2c2 3 5 1 4-2l1-1v-1h1l1-1c-1-2 2-6 4-6h4l1-1h2l4-1h1l1-1 1-1h2l4-1h2l1-1h3v1l1-1 2-1a2 2 0 002-4c1 0 2-1 2-4s-1-4-2-4a1 1 0 110-2c2 1 2 0 2-6l1-7 1-4v-3l-1 3-1 3v-3l1-4 1-4c0-4-1-5-2-3m132 20v5l2 5 1 9c1 4 1 4-1 5-2 0-2 1-1 1l-1 1c-1 1 0 2 3 1l2 3c0 3 1 3 3 2 1 0 1-3-2-16-3-17-4-20-6-16M98 388c0 11 0 18-1 17a8 8 0 00-2-3v1c-1 0-2-1-2-3 0-3 1-4 2-4 2 0 2-1 2-5l-1-5-14 3-16 4-6 6-4 6h-6c-6 0-6 0-5 2l1 2c-1 1-3 10-3 30l-1 9c-2 2-3 1-3-3a3 3 0 00-2-4l1-1 1-5 2-6h-1l-12 1-6 1-1 5c-1 7 0 9 3 9l3 1h-3l-3 1h5c4 0 4 0 4 2v2l1-1c-1-2 0-4 2-4s2 7 0 7l-1 6v5l2-1 3-2-1 4-3 35c0 1 1 1 3-1 4-3 5-10 2-10v-1c2 0 3-2 1-2l-1-1v-2c2 0 2 0 1-2-2-2-2-14 0-17 2-4 2-4 2 1v4l3-25h6c4 0 4 0 4 3s1 4 3 2c4-3-2-8-9-8l-4-1 2-1 5-1 4 1c0 1 1 2 3 2 2-1 3 0 1 1v2l2-2 2-2 1-9c0-8 0-9 1-4s1 3 1-6c0-10 0-11-2-12-2 0-2 0-1-1s1-1-1-1-3 0 0 2v2l-1 4-1 5c-1 1-1 1-1-1 1-2-1-3-2-1l-2 1-2-2h-2l-2-1 5-2c5 0 6-1 4-3v-5h2l2-1 1-1c-1-1 3-3 5-3v1c-5 2 4 1 13-1l11-3-1 4 2 3c2 2 3 3 3 5 0 1 0 2 2 2s3-2 0-3v-1l1-21-1-19v20m199 11v1l-1 1c-1-1-24 9-24 10l4-1 4-2-5 3c-6 3-10 7-8 9h1l2-1 32-13c1-1-1-8-3-8l-2 1M96 491l-1 5c0 2 0 3-1 2v1l1 47a647 647 0 000 44l2-5 1-13-1-77c1-4 0-7-1-4m51 0v22c1 26 1 26 5 24 2-1 0-40-3-42v-4h-2m55 154c-1 1 3 4 4 3l1 1 1 1c1-1 6 2 6 4l1 1 1-1 3 1a5 5 0 005 3l5 2 5 2 2 1 2 1h4l2-1c0 1 3 5 4 4 1-2 1-8-1-10l-2-2v2l-1 2-2 1h-2l-9-4a5 5 0 01-4-3h-2l-5-2-6-2-3-1-2-1c-1-2-7-3-7-2" tabindex="-1" itemprop="light" style="fill: rgb(22, 38, 3); fill-opacity: 0.245; fill-rule: evenodd; color: rgb(0, 0, 0);"></path><path d="M1 1a913 913 0 000 68v16c-1 1-1 1 1 1v1c-2 0-3 2-1 5l2 2c0 1-1 1-1-1-2-1-2-1-2 1l1 2v18c-1 3-1 10 1 12l-1 1v2l2 1 2 1H3c-3 0-4 3-2 4v2c-2 2-1 3 1 3l2-2c0-3 1-2 3 0 2 3 2 4-1 3H1l-1 1 1 2 1 1v1c1-1 3 0 4 1l3 2H4c-3 0-4 0-4 2h1v7l-1 9 1 8v18l1 1c1-1 1 0 1 1 0 2 0 3-2 2v1c2 2 3 7 1 5l-1 4v17l2-1c1-1 1-1 0 0l-1 2v8c-2 0-3 4-1 6v1c-1 2-1 5 1 5l1 1-1 1H1l2 1c2-1 3 0 5 1l2 2 1 2-1 3v1l2-2 1-3c1-1 0-2-2-2-5-3-10-9-9-9 1-1 2 0 2 1 1 2 1 2 2 1s5-2 6-1l-2 1-3 1 1 1 1 1 3 3 3 2 1 4v5c0 3 2 6 4 6h4l1-1c1 2-1 4-4 4-2-1-8 1-6 2l1 1 3 1h5c2 1 2 1 1 2v1h2l-1-1c1-1 4 0 4 3h4v-1l-1-2-1-1c-2 0-5-7-4-9l-1-1h-1l-3-4c-2-3-2-3 0-3a7 7 0 016 6c1-1 3 0 5 2l3 1c-2-2-2-2 2-3a9 9 0 005-2c0 1-1 2-3 2-3 2-4 3-1 3v2l-1 2v2c0 2 0 2 2 0l2-2-1 2-2 5v1l2-1c1-2 1-2 3 0l1 1h6c1-1 1-1-1-1-3 1-4 0-4-4-1-4 0-4 1 0l2 1h2c3 2 4 1 1-1-2-2-2-2 0-1 2 0 2 0 1-1l-1-2v-1c2-1 2-1 0-1-3-1-3-1-1-3 3-2 3-3 0-3-1 0-2 0-1-1l-3 2-2 3v2c-1 1-2 0-2-4l-1-6v1l-5 4-4 2-4-3-4-4c-1-2-1-2 2 0l5 4-2-2-3-3h3a9 9 0 017 3l1-1 2-2 1-1c1 0 2-1 1-2l1-4 1 1c-1 1 2 2 3 2l-1-1-2-3c-1-3 0-4 2-2 1 2 8 4 10 3v-1l-5-1 2-1h2l1-2 1-4c0-5 0-5 5-2l4 2 2 4c4 6 11 13 15 13l-1-1c-4-2-10-7-12-10-2-4-1-5 3-2l5 2-5-3-5-4h3c1-1 0-1-1-1l-3-2c0-2 1-2 8 0h-1l-5-2c-3-1-2-2 7-2 8-1 8-1 7 1v4l-1 1-1 2-1 1c-3 0-2 1 0 3 2 1 3 3 0 3h-1v1h1l2 1c1 1 1 1 0 0 0-1 0-2 2-1l4-1c1-1 1-1-1-1-2 1-3 0-4-1-1-2 3-3 5-1v-1l1-1h1l6-3 2-1c3-3 4-2 5 5 0 4 0 4 1 2v-3l-1-4a39 39 0 00-1-5l3 1v-2c-2 0-2-1-1-1l1-1v-3c2 0 2 1 2 8v10c2 2-1 7-4 8-2 0-2 0 0 1v1l-2 1 1 1v4a2 2 0 01-2 3c0 2-1 2-3 1-2-2-3-2-3 0l1 1 2 1h1v2c-1 2-1 2-3 1v1c1 2 1 4-5 17l-10 23 7-14a56 56 0 017-14c0-2 9-23 11-24s3-2 2-4v-4c1-2 1-2 2-1v3l-1 2h1c3-5 0 4-10 24l-13 31c-4 8-4 8-7 9-3 0-3 0-3-4l2-5h-1c-1 0-2 1-2 5v5h3l8-2c5 0 6-1 7-4l2-4c-1 0-2 1-2 3-2 5-7 6-6 2a429 429 0 0124-49c-1-2 1-3 3-2v-6l2-4 2 2 2 2-3 5-3 6-5 12-8 16c-3 6-1 4 2-2l4-6-4 9a26 26 0 00-4 10c-1-1-6 10-5 11l1-1h1v-3l1-1v-1l1-1v-1l4-7 1-1 1-2 1-2 1-3 1-2v2c0 3 0 2 2-1v-2c-1 1-1 0-1-1l-1-4 1-1h1l-1-1 1-3 1-1h1l10-22-3 7-2 8v3c0 3 0 3 1 2l2-1 1 1v-3h1l1-1-3-1-1-1 4-3c2 0 2 0 1-1s-2 0-3 1h-2l1-1 2-2 1-1 1 2 2-2 1-1v-1c0-1-1-2-2-1v-1l1-2 1-1 3-8c5-9 7-10 7-4l-1 4-2 1 1 1v2c0 3 0 4-1 2h-2c-2 2-2 2 0 4 4 4 5 6 2 6-1 0-3 1-21 36-12 21-13 22-15 23-4 0-4 0-2 1l1 3v3c-1-1-1 0-1 1l1 2a10 10 0 016 1c-2 0-2 0-1 1l1 35c1 41 1 38 4 34 1-1 1-1 1 1l-2 2v5l-4-2-5-2h-2c-1-1-2-1-4 1-3 3-4 4-1 3l1 1c-1 2-1 2 1 1 3-1 6 1 5 4h-1c0-4-5-1-5 4s-1 6-6 4l-4-1-2-1h-1l-2 2c-2 1-2 1-1-1l1-8c0-8 0-8 6-10l2-2-6 2-4 2v8l-1 10c1 2 1 3-1 4s-2 1-2-10c0-13 1-16 4-20 2-2 3-4 1-3l-5 1c-5 0-5 0-5 3 0 2 0 3 2 3s2 1 2 13c0 15-1 21-4 19-3 0-6 4-6 8 0 3 2 4 4 2h2l-3 3c-2 0-3 1-3 2l-1 2v2c4 1 6 4 5 7l-1 1-1-2c1-2 0-2-1-2v-1c0-2 0-2-2-1l-3 2-4 3-2 1v-3l-1-2h1c3 3 3 2 4-3v-8c1-4 1-4-1-4l-5 1c-4 0-4 1-4 13-1 10-1 10 3 9h1c-1 1-2 2-1 3h1c1-1 1-1 1 1a2 2 0 11-4 0l-1-1c-1-1-1 0-1 1l1 2v3l1 2c1-1 1-1 1 1v3h1l2-3c2-2 2-2 2 0l-1 4v2l-2 4-2 3h-1l1-2 1-2c0-1-1-1-2 1l-2 2-1 2-1 2h-2l4 1a1 1 0 110 2h-3c1-1 0-1-1-1-2 0-3 2-1 2l-1 1-2 2h-2l-2-2v1c2 2 3 4 1 3h-2c-2 1-2 1 1 1 3-1 4-1 4 3l-2 4c-1 1-1 1-1-1v-3h-8l-3 2 2-2 2-2h-3c-4-1-2-4 3-4 3 0 3 0 1-2-1-1-1-1 1-1 3 1 5 0 4-3 0-2 0-2 1-1 1 2 2-1 3-19 2-20 2-19 0-17-2 3-3 2-3-2-1-6-4-7-5-2l-2 2c-1-2 2-6 5-6 2 0 2 0-1-1-6-1-6-2-1-1l5-1-5-1-5-1c1-2 0-2-2-2l-3 1-1 2c-3 12-3 13 0 13 2 0 2 0 1 1-2 0-3 4-4 14l-1 13 1 4v2c3 0 4 3 1 6l-2 6c1 2-1 9-3 8v2c1 1 2 2 3 1 2 0 2 0 0 1s-3 2-4 15l1 10 9-3c6-2 7-3 7-4-1-3 0-2 1 1 2 4 1 14-2 17-1 2-1 2 2 2l3-1-3 1-1 2v2l-2 5-1 3c-1 1-2 3-1 5 0 1 0 2-1 1l-2 2c-1 3-1 6 1 5l1 3c0 6 1 6 7 4 1 0-1-7-3-8-2-2 0-4 4-4l7-2 5-2v1l-2 1-5 3c-6 2-7 3-2 3 3 0 3 1 4 4l1 3c2 1 1 3-1 2-2 0-2 0-1 1s2 2 1 3h-1c0-1-1-1-1 1l-2 2c-1 0-2 1-2 3s0 2 3 1c3 0 6-2 6-3l1-1c2 0 2 1 1 2l-2 2c-2 0-2 0-1 1l1 7 1 6-10 4-19 9-9 4v15c0 16 0 16 3 13 2-1 1 0 0 2-3 2-3 3-1 2l3-2c1-2 2-2 2-1l1 1h1l-4 3c-4 1-5 2-5 6 0 5 0 5 2 4 2-3 5-2 5 2 0 2 1 2 4 2l3-1h1c1 2 4 1 5-3 2-3 4-5 4-3l2 1c2 0 1 1-1 3h-2v-1l-2 4 5-1h1l7 1a14 14 0 009-1l6 1c4 0 6 0 5-1h8c1 0 1-2-1-4-1-2-1-2-1 2v2l-6-11-1-2c-2 0-3-5-1-8v-2l1-1c1 0 2 3 0 3-2 1-1 4 1 8 2 3 3 4 4 3l2 1 1 2 3 4 2 4h120l-1-3v-4a23 23 0 011-12v-3l-2-6-1-13 1-10v2h4l2-1c2-1 10-1 11 1l3 1 7 2 8 3 6 2h1c1 0 2 1 2 3l1 3 1-3 1-2 1 3 1 2h2c1 1 4-5 3-6h-3l1-2-1-3c-2-2-2-3-1-4h1c0 2 0 3 5 7 3 4 4 5 5 4 3-2 7 3 4 6v3c1 2 1 2-2 2l-4 1 1 1c3-1 5 4 4 8-1 6-3 9-3 5a3 3 0 00-5-2c0 4-2 9-3 8v-4l-1-2-2 2v7l1 1-1 2 5 1 7-1h1l132 2h131v-3c2-8 0-25-2-27l-3-3c-1 1-6-6-6-8h2l1 2c0 2 5 7 8 8 1 1 1-8 1-41v-42l-11-11a63 63 0 00-14-12h1v-1l-3-3-2-1c1-1 0-3-2-5-4-5-5-7-1-3l5 4c2 1 2 1 1 3v2l13 12 13 13v-51c0-4-1-6-4-9-9-9-15-19-12-21 3-1 8 4 9 12l3 7v-2h1l2-1c0-1 1-1 1 1 1 1 1 1 1-2 0-2-1-5-4-9-8-9-7-13 1-7l3 2v-13l-1-68-1-55-11 4c-13 5-13 5-12 1l1-3 1 1 1 1c1 1 1 1 0 0l2-1c1 1 2 0 2-1 1 0 1-1 0 0l-1-2 1-1a8 8 0 006-2l-1-1 4 1c3 2 3 2 3-1l2-4c3-2 4-9 2-8l-2-1v-3l1-1c1-2 1-2-5 0h-6c-1-2 5-4 7-3h2l1-1 2-1c1-2 2-13 1-14v-27h-1l1-2-1-55v-2l1-2v-1l-1-1-1-2v-1l1-9 1-9c0-1-1-2-3-1a1 1 0 11-1-1l2-2v-2c2-1 1-2-1-1-3 2-3 2-2-1l-1-2v2h-2c-2-2-3-3-1-3l4-2c2-2 2-2 1 0l1 2c2 1 2 0 2-5a5 5 0 00-2-7l1-1 1-4c0-4 0-4-1-3s-2 0-3-1c-1-2-1-2 1-2 4 0 5-1 5-5l-1-4v-15c-1 1-1 1-1-1l1-3 1-4-1-4h-2v-1c2 0 4-3 3-4l-3 1c-2 1-6 1-6-1h-1l-4-2-4-2-1-3c0-2 0-3-1-2h-2c-1-1 3-5 13-13 7-6 9-8 9-10s0-2-1-1c0 2-23 21-24 20h-6l-4-2h-1c-3 4-4-1-1-6 0-2 0-2-1-1-2 1-4 0-4-2 1-1 1-1 0 0h-2a8 8 0 017-5l17-17c15-14 19-18 19-20s0-2-1-1c-3 2-2 0 0-2l2-6v-3l-1 3c0 4-2 5-3 2l-1-2-1 2c-2 2-2 2 0 2 3 0 3 1 0 4-3 2-5 0-3-3v-1l3-3a16 16 0 005-8l1-10c0-7 0-11-1-9l-5 5-29 27c-51 50-47 46-49 43-2-2-3-1-3 1l-1 2v-1l-1-1h-2v-2l-1 1-2 1c-1-1-2-1-1 2 0 3-2 4-4 1h-1c0 1-4 2-4 0l18-19 19-18 2 2 3 1-7 7-6 8 6-7 8-6c2 0 1-1-1-3a9 9 0 00-5-3l-22 21a292 292 0 01-23 23l-6 3c-4 1-5 2-3 2l3 1 4 1c2-1 3 1 0 1h2c4 0 7 1 3 2l-2 2c0 3-6 6-11 6s-5 0-4-2c2-1 3-2 5-1l2-1c-2-2-5-1-8 3l-2 2h5l8 1 5 1a748 748 0 01-44 42v1c-2 0-8 7-8 8l-3 3a7 7 0 00-6 6l-5 3a10 10 0 01-5 5c1 0 0 2-2 2l-2 2c2 0-5 7-7 7l-1 2h-1l-1 1-3 4 24-22 47-46c19-18 23-21 26-19 2 1 0 2-27 29l-45 42-34 33-3-2a49056 49056 0 01-64-38l-17 23c-15 20-18 23-20 23l-44-20-1-2 2 1 2 1 9 2c11 5 12 4 1 0l-8-4 11 4 12 5-1 1v1c2-1 5 0 10 2l7 3 26-35c6-9 9-12 10-11 5 1 56 34 55 35l1 1 6 2 4 2 2-2 3-2-3 1-2 2c-1-5-2-8-3-7l-4-2-3-2 2 2c5 4 8 8 6 7l-5-3-26-17-8-18a427 427 0 00-9-25 22 22 0 00-11-8l-4-4-5-5h-1l-1-1-2-1 1 1c3 3 4 5 2 5l1 3 3 8c2 5 2 6 3 5a7 7 0 018 6c1-1 1-1 5 6 3 7 3 7-4 2s-7-5-5 1c1 6 1 5-5 2-6-4-6-4-9 0l-2 4 2-3c2-3 5-4 4-2h1v1l-1 2 1-1c1-1 2-1 7 2 6 4 6 4 0 2l-5-3-8 11a61 61 0 01-9 12l-2 3-3 3v2h-1l-1 1-1 2-5 7c-3 5-5 7-4 3 1 0 1-1 0 0l-1 2c1 1 0 2-2 1l-2-1-2-1-14-7c-10-4-12-6-13-8l-2-4c-1-2-1-2 1 0l3 2v-3a19 19 0 00-2-6l1 1c3 2 4 9 1 9v1h6l-1-3v-1a2 2 0 00-1 0l-1-4c-1-2-1-2 1-2s3 1 3 6l2 7h-1l-3-1 7 4v-1h4v-3a2 2 0 010-4 1 1 0 100-1l-1-1v-2l-1-1v-1c-1-1-1-1 1-1l2 1-2-2-3-6-2-6 1-1c1 1 2 0 1-3-1-1-1-2-2-1v-4l-1-1v-3a10 10 0 01-2-10c-1 1-2 0-6-3a17 17 0 00-11-6c-9-5-9-5-7 4 2 16 2 16-1 16l-2-1-2-15-1-15-1-2v-1l2 2c1 2 1 2 2 1h2l2 1 11 6 12 6v1h-1v1l2 2c2 1 2-1 0-5l-2-6v-3l2 3c2 3 4 4 3 2-1-1 0-3 1-3 1-2 1-2-1-2s-4-3-2-4c2-3 0-5-17-16l-16-12v-3h-1c0 3-3 5-4 3-2-2-4 0-3 2h-1c-2-1-2-1-1 1 2 2 2 2 0 4l-2 3-3 1-1-2-1-2v2c0 3 0 4-3 2-2 0-2 0 0-3l1-3c-1-1-4 0-3 2s-1 3-3 2a4 4 0 012-8l-3 1c-3 1-9 1-11-1l1-1v-3h3c1 1 1 1 1-1v-2l3 2c1-1 5 0 4 1l-1 1h-1c-1 3 2 1 4-1 1-4 3-11 1-8l-1 1v1l-1 2v1h-5v-3l-1-3c0-3 1-3 3-3l1-2v-4c1-1 0-2-1-4-2-2-3-3-2-4h2l1 1v-4c2-2 3-1 2 2l1 2 1-2c0-1 1-1 4 1l5 3 2 2a3 3 0 004 2l3 3 5 1 3 1c2 3 2 3 0 2l1 1 4 3c2 0 2 0 0 3 0 2-1 3-2 3v-1l-3-3-4-4h-1l-3-2-2-2c-1 1-4-1-4-3h-1c-1 0-2 0-2-2l-1 1c-1 1-1 1-1-1s-3-2-4 1l-2 2v1h5c2 1-2 2-5 2h-2l3 1 2 1a373 373 0 011 8c1 2 0 3-2 4a2 2 0 00-1 4 2 2 0 011-3h2c1-1 2-2 5-1s6 0 7-1-5-6-6-6l-4-3-2-3 2-1 4 2c1 2 3 3 3 2l22 13 21 14 11-22 11-22 3 2 28 23c19 16 25 21 26 20 2-2 1-4-1-4l-3-2-3-1-1-1a64 64 0 00-16-13l-4-5a917 917 0 01-11-9l-4-5h-1c-1 1-1 1-1-1l-1-3h-2l1 1 1 1c-1 1-6-3-6-5s0-2-1-1h-1c1-2-3-6-4-4l1 1c2 1 2 1 1 3h-2l-1 2v2l-2 2v1c0 1-8 18-9 17v2l-1 1h-1a13 13 0 01-5 10c1 1 0 4-1 3v1c0 2 0 2-2 2l-2-1h-1l-1-1-1-1-2-1h-1l-1-2c0-2 0-2-1-1l-1 1-2-3-2-1c1 2 0 2-1 0l-3-4h-2l-2-1-1-2c0-2 0-3 2-3l1 1c-1 1 0 2 3 2l5 2v-2l1-4c1 1 1 0 0 0-3-2-7-3-7-1l2 2-1 1-2-2-1-3c0-2 0-2 2-2s2 0-2-2c-5-3-5-3-1-4 2 0 5 1 9 4 3 3 7 5 7 4l-1-1-6-4c-6-4-5-6 2-5l3-1h-2l-2-1-3 1-4 2-14-11a74 74 0 01-16-13l-2-1 1-1h2l-5-1-2-2h-1l-4-3-2-2c1 1 9-1 12-3l7-2 4-1 3 5c3 6 2 7-1 2l-2-3-1 3-1 4-5 7c0 2 3 0 4-3 1-4 6-5 7-3l3 4c2 2 2 2-2 2-3 0-4 0-2 1 2 0 3 1 3 2h6l1-1-1-1v-1l2-3 1-3v-1h-2c0 2-2 2-4 0-2-1-2-1 1-3s4-6 2-12c-1-2-1-1-1 4l-1 7-1-2 1-2v-2c0-3-2-1-2 2 0 4-1 5-3 2l-1-4-1-1c-1 1-1 0 0 0l-1-2-5-8c-1-2 0-2 1 0 2 3 2 3 4 1v1h1l1-1h4v-4l4-1c4 0 4 0 4-3 0-2 1-2 3-2s2-1 2-3l-1-4-1-2c0-2 2 1 3 5v-3l1-4 1 1c-1 1 0 1 1 1 2 0 7-5 7-7l4-5c5-3 5-4 9-3l3-1c-2-2 0-3 2-2a1 1 0 102-2V7l1-1v1l2 1 2 1c0 1 1 1 1-1l2-2c1 1 5-3 5-5C206 0 2-1 1 1m321 3l-5 7a5517 5517 0 01-34 53l-1 1a85 85 0 01-13 20l-1 3-9 14c-2 5-5 6-4 3h-1c-2 1-4 0-35-29l-23-20-8 16c-9 19-8 18-7 18l5-12 1-1 5-10c4-9 4-9 5-6v7l-2 6c1 2-1 4-2 4-1-1-3 4-2 5l-1 1c-1-1-1 0-1 2v4l-1 2c0 1 1 1 2-1l2-3c2 0 2 0 1-1-1-2 0-5 3-5v-1c-1-2 1-6 3-5 2 0 5-7 3-8l-1-2 4 3 5 4c1 0 0-2-3-4-2-3-2-3 3 2l7 6-2-1-4-3a24 24 0 008 6v-1l1 2 1 3 3 2-2-3-1-2 4 4 3 4 3 2c-2-2 1-1 11 9l12 10c1 1 5-4 11-14l33-50c30-47 29-45 27-45l-3 4m27-3l-1 1-1 1v2l-1 1-2 2-2 3-1 2-1 2c-1 2-1 3-2 2l-1 1-1 1-1 1-1 2-1 2-2 4-3 3-1 1-1 1c1 1 0 2-1 3l-1 2-2 2-2 2-1 3-2 2-4 7a16 16 0 00-5 7l-3 3-4 6-4 6-4 6a15 15 0 00-4 6l-2 4a5 5 0 01-4 4l-1 3-4 5c0 2-1 3-2 3l-2 3-4 6a128 128 0 00-7 11c-2 1-2 2-1 3 0 1 5-5 11-15L347 8l5-8-3 1m37 16l-17 22-13 18c-1 1 30 38 37 46l5 5 2-2c2-2 2-2 0-3-2 0-8-9-7-10l1 1 2 2c1-1 2 0 1 1 0 2 0 2 2 2h4l-3-1-1-3-2-1-1-2v-1l-3-3 4-1h3l-1-1c-1 1-2 0-2-1s1-2 3-2c1-1 2-2 1-4 0-3 5-7 6-5a4 4 0 004 1h-1c-1 0-3-3-2-5 1-1 2-1 5 3 4 4 6 5 6 0 0-1-4-6-5-5l1 2c2 2 3 5 2 5-1 1-4-4-4-7l1-2h1c1-2 3-1 2 0l2 2c2 1 3 0 1-1-1-1-1-1 1-1 2-1 3 0 1 3l-2 4 4 3-1-2c-2-1-2-2-1-3 2-1 2-1 3 1 1 4 3 4 7 1l3-5c-1-1-1-1 0 0l5-3 3-4-3-3-9-9-34-32-7-6-4 6m17 13c12 11 12 12 0 1l-8-7-3 3c-5 4-28 33-28 35l4 6 4 5 2 3 2 2v2c1 2 1 2 2 0 2-2 31-37 35-40l2-2-10-9c-13-12-14-12-2 1m103 2l-59 56-10 11c1 1 1 1-1 1 0-1-1-1 0 0l2 1h3c1 1 4-1 50-45 21-20 22-21 21-27 0-2-1-2-6 3M404 56l-16 19c-8 9-8 8-5 12l3 3 5-6c10-12 10-12 11-10h1c-1-2 0-4 4-7 14-16 16-20 10-19-2 0-3-1-2-2 1-3-1-1-11 10m94 1l-3 3-1 2h-1l-4 3c-6 4-8 8-4 4 1-1 1 1-2 3-4 4-4 5-2 6 3 2 6-1 4-3-1-2 0-3 2-1s6-2 4-4l-1-3h-1l1-2a2 2 0 013 0c-1-1-2 0-1 3 1 2 1 2 3 0 2-1 3-4 1-4l-1-1h3c3 2 6-1 4-3s-2-2 0-3c2-3-1-3-4 0M203 74c0 3-1 4-3 4-1 0-2 0-2 2s0 2 1 1c2-2 2-2 5 0l7 7h-2l3 1 7 5 4 3 4 3 1-4c2-4 1-6-3-6l-1-2a47 47 0 00-18-15l-1-1v-1l-2 3m-91 7l-1 3-2-2c-1-2-1-2 1-1h1c0-1-2-2-5-2h-6c-3-1-1 5 2 8l1 1c-2 0-3 1-1 4 4 4 6 6 7 5h4l-2 1a5 5 0 00-3 1l-1-1-1 4-2 5c-2 1-1 3 1 3l3-1c1 0 2-1 2-3 1-2 0-3-1-2-3 0-2 0 0-2 3-2 3-2 3 1-1 3 0 4 1 3 1-2 1-11-1-10l-1-2c-1-1-1-1 0 0l1-1-1-3-3 1v-1l-1-2v-2l-1-4-1-2 2 2c1 3 6 8 7 8v-3c0-1 0-2 1-1 2 1 4 0 3-2l-2-5-3-2-1 4m19-2c-3 1 4 8 9 8l2 1c-2 1-2 3 0 2l1 1c-1 1-1 1 0 0l4 3 1 2v3l5-1 5-2-12-9-13-9-2 1m-49 1l-2 1-1 2c0 2 0 2 1 1l4-1-9 7-2-1v1h-4l-1 1c-3-1-4 2-1 3s3 1 1 1c-2-1-5 0-4 1s6 0 8-2 3-1 1 1v1l3-3c0-2 1-3 2-3s5 3 3 3l-2-1h-1a5 5 0 008 1v-2l2 2 2 1c2 0 3 3 0 3l-1 2c1 2-1 3-5 3-2 0-3 0-2-1s0-2-3-3h-2c-3-1-8 0-9 1-2 2-2 2 2 5l5 3 1-4c0-4 1-4 4-3l-2 2a5 5 0 004 9c-1 0 1 6 3 6l1 1h5c2 0 2 0 1-2h-6c-1-1-1-1 1-1 4 0 5-2 2-4l-2-3v-1l-2-2-2-1 2-1 3 1 2 2 1 3v-3l-2-3c-1-1-1-1 1-1 3 1 5 2 3 2s-1 2 1 5l2 4 1 1c1-1 1-1 1 1v2a5 5 0 001-4l-1-1v-1l1-3c0-1 0-2-1-1v-5l2 1v3c1 1 1 1 1-1l1-2c2 2 3-5 1-9-1-3-3-3-3 1-1 2 0 2 2 2s2 0-1 1a4 4 0 00-4 4l-1 3c0 3 0 3-1 2v-4l-1-1-1-1v-2l-1 2h-1c-1-1 0-2 1-3l2-3 1-1 1-3c0-3-1-4-6-8-6-5-6-5-8-3m131 24l-2 2h-1v1a2 2 0 011 3l4 1 2 1v-1l3 6c0 3 8 23 8 20 0-2 0-2 2 0 2 0 3 2 3 3l2 2 9 6 9 5c1-2 4-2 6 0s2 2 1 3v2l2 5c0 2 0 2 2-1 1-6 1-7-1-7h-1l-18-16c-14-11-18-14-19-13s-1 1-1-1l-1-2v-6l3 1c2 1 2 1 0 0l-3 1 1 1 6 2 3 1-1-2-5-5c-5-4-6-5-5-7l-1-3-1 2c0 1 0 2-4 1-2 0-1-2 1-3s2-1 0-2h-4m87 24l-12 16 3 6c14 32 22 46 24 44 1-1 2-2 0-5v-3l1-1h-2v-5h-1c1 2-1 4-1 1a3 3 0 012-4c0-1 7-9 8-8l1-1-1-2-2-1h1l2-1c0-2 1-2 2-2 1 1 2 0 2-1 2-1 2-1 2 1 1 3 1 3 2 2v-5c0-2 0-2 2 0l2 2 1 1 1 1 1 1c0 2 2 3 4 3l-11-21a8 8 0 00-5-5c1-1-12-24-14-28l-12 15m10 1l-8 9c-7 8-8 11-6 14l1 5v1c1-1 5 7 4 9 0 3 0 3 13-12 11-13 13-16 11-17l-1-1-1-1v-1l-2-2-2-1-4-8c0-1-3 1-5 5m-247-3c-3 2-3 2-1 2l4 2 3 2-3-1-7-2h-4l2 2 4 2h1l1 1h1l1 1c2 0 3 3 2 3v1a2 2 0 003-1l2-2c2-1 3-4 1-5l-1-2 2 1c2 2 2 2 5 1l5-2c4 0-2-3-8-3l-8-1c-1-1-3 0-5 1m360 3c-3 4-6 5-4 2 2-4 0-2-13 10l-29 27-44 42-29 27-7-4c-8-5-8-5-9-2-1 2 0 2 8 7l10 5c2 0 3 2 1 4-1 2-2 2-4 1a1721 1721 0 00-61-34l-34 42-8-3-26-10-18-7-1 3c-2 3-5 3-7 1l-2-1c-1 0-2 0-1-2h-1c-1 2-1 2 8 6 14 5 9 4-6-1l-4-3a3 3 0 00-5 0c-2 4-1 5 2 4l5 1 4 2 2 1c-1 1 0 1 0 0l4 2 6 1c5 1 7 2 5 4-2 1 0 2 32 13a33 33 0 0112 6v1c-2 1-2 2-1 2 1 1 1 1-1 3s-2 3-1 3 2 1 2 3v3c0 1-2 0-4-3-10-8-30-14-40-11-2 0-2 1 3 32a7052 7052 0 0110 76c0 3 0 3-2 3l-2-1-2-14c-1-15-2-17-7-17l-5-1h9c3 1 3-2 0-4v-3l-10-60c-1-1-1-1 0 0 1 3-1 2-2 0s-1-2-1 1c0 2 0 3-1 2 0-2 0-2-1-1h-2l-2-2c-2 0-2-1-1-1l1-1v-2l1 1 2 2c1 0 2 0 1-1 0-2 0-2 3-1s3 1 2-7c-1-7-4-11-6-10v-1l-1-1-1 1h-1c-1-2-2-2-4-2-2 1-2 1 0 0h6c4 1 5 0 2-2h-1v1l-2-1c0-2-4-3-4-1h-3c-2 0-2 0-2 2 0 4 0 5-2 5l-1 1c4 8 4 8-3 18-30 50-27 43-27 80a233 233 0 001 34c0 8 0 8 2 8h1l1 2 1-12-2-36v-23l3-7c4-7 8-12 8-9l-2 4-2 2 2-1c2-2 3-1 1 1v1c3 0 2 8-1 10l-2 3v17l1 12-3 4-2 3 6-7c5-6 5-6 5-3l-1 5c-1 1-2 6-2 18 0 9 0 16 1 15h3l3-1 4 4-2-42-3-46v-9l4-8 6-11 3-3v4l-1 5-1 4c0 7-5 13-6 10-1-1-1 1-1 5 2 20 2 33 1 34l-1 2 7-7 6-7v3l-1 5v1l-2 3v25l2 22-5 5-3 5 1-1h5c0-4 6-6 8-3l3 3 3 3c-1 2 0 2 5 1l5 1-6 1c-7 1-7 1-7 4a2 2 0 103 2l1-1h2c1-1 1-1 1 1l4 2c2 0 3 0 2-1l1-1 1-1 1-2c1 0 3 2 2 4h1c1-2 1-3-1-5-1-1-1-1 1-1h4l1-1-3-1c-2 0-2 0-1-1l3-1h10c6 0 8-1 7-2h2l2-1c-1-3 0-3 3-1 2 3 3 3 14 2 10 0 11 0 10 1-2 1-2 2-1 2 2 1 1 3 0 3h-2l2 4v-2l2-2c1-2 1-2 1 1s0 3 2 3l3-1c1-1 2-1 3 3l2-1h2l2 1-1-2 2-1c2-1 3 0 2 1 0 1 3 2 5 0l24-10-4 2a10 10 0 00-6 5c-1-1-11 3-10 4h-1l-5 1c-2 2-2 2 0 1h3l-3 2-6 1c-3 1-5 1-5 3h-2c0-3-3-2-3 0 0 1 0 2 1 1l1 1v1l1 1h1l6-1 6-1 29-12c25-11 29-12 36-13 17-1 16-3-3-5-9 0-8 0-8-5l-1-4h11l10-1c0-2-5-5-8-5l3-1c12 0 8-2-6-3-17 0-18-2-1-2l12-1-1-1h-2l-2-1c-1 1-3 0-3-1l-6-2h-4l4-1a5 5 0 004-2c2-1 2-1 0-1h-2l-1-1c0-2-1-3-3-3l-2-2c0-1 12-1 19 1l2-1c0-2-1-2-14-4l-8-1-5-16-6-15c-2 1-13-1-14-2-1-2 1-2 7-1 9 3 9 3 7-2l-11-32 1-2 1 1c-1 4 1 6 3 2l2-2 1 1a2 2 0 104 1l-1-1h-1l-4-2-3-2c0-1 2-1 7 1v-1l-1-1c1-2-1-5-3-5l-3-1-4-2c-4-1-9-9-9-14 0-2 14 2 21 7 6 4 6 4 9 15 9 25 25 66 27 67s3 1 3-1c-1-1-1-1 0 0 2 3 4 2 4-1l1-2c1 1 4-2 4-4a1 1 0 00-2 0l-1 1c-1 0-2 1-2 3l-2 4-1-4c-1-4 0-6 2-6v1l1 1 3-1-1-2h1l3 1c3 0 3 0 2-2-2-2-2-2 0-2 1 0 2-1 1-5l1-5c2-1 0-3-2-2-2 0-2 0-1-2 2-1 2-1 3 1h4l1 1h4l1-1v-3l1-2v-4h5c1 1 2 0 3-1s2-2 3-1c3 1 3-1-10-28l-13-28c0-5 29-28 36-28l14 24c15 25 16 27 19 25v1c-2 2-2 3-1 4l2 2v3c2 1 2 1 4-1l2-1v-1l1-2 3-2c2-2 3-3 4-2h2l1-1c0 1 1 1 1-1l1-2a2 2 0 015 2h3c1 2 5 2 5 1l-3-3h-2c-1-1-1-1 2-2l3-1-3-2c-2-2-2-2 0-2a3 3 0 001-5c0 2-1 2-3 1v-1l3-1c1-2 2-2 2-1v1l1-2h1v5l1-2h2c2 2 2 2 4 1h1l1 1 1-2h1c2 0 4-2 4-4l2-1 1 1h2v-1l3-2 6-3 4-1c2 0 3-1 3-3l1-2 1-2c0-1 0-2 1-1h2l2-3 1-2-1-2h1l2-1c1-2 2-3 3-2 5 1 0-6-22-33l-23-28 2-3 12-13 11-12 2-3c2-3 1-3-5-5a4 4 0 00-6 1h-2l2-3c2-2 1-3-1-1l-5 4-28 23-44 37-63 53-8 6 43-38 95-79c8-7 8-8-1-5-6 1-8 2-8 3h-1c-2-1-2-1-4 1l-3 2-1 2-1 1v-5c2-1-1-6-3-6-3 0-39 32-94 83l-24 21c-4 4-5 5-6 4v-3l2-1 2-1 2-2c2-1 3-3 2-3l1-1 1-1 1-1 2-1 1-1a11 11 0 008-8v1l1-2 1-1a13 13 0 009-8c-1 2 8-5 12-10 2-2 2-2 0-1h-1l3-1a124 124 0 0025-24 57 57 0 0016-16v-2c0-2 0-2 1-1h2c2-1 2-2 1-3s-1-1 0 0h3l-3 4-3 4 6-5a15 15 0 004-6v-4h5s-1 2-3 2l-2 3c1 1 18-15 17-17l1-2v-1c-2 1-2 1-2-1 1-3 1-3-2 1m-344 3l-4 4-2 2-1 2h2c1 3 5 2 7-1l1-2c-1 1 0 2 1 2v1l-1 2-2 1-2 1-1 1 1 1h4l3-1-2-1h-2l4-2 5-2-4-9-2-1-5 2m34 5c2 2 2 2 1 5l-2 5c0 3-2 7-2 4h-1c-1 1-1 0-1-1v-5c-1-1-1-1 2-1h3l-4-2-2-1-2 2-3 1 2 1 2 1-2 1c-1-1-2 0-1 2 0 2 0 2-2 2h-2v1a5 5 0 01-2-4h1l-10-3c-2 0-2 0-1 1s1 1-1 1c-3 0-8 2-7 4h1l1 1c-1 0 0 3 2 5l2 4 1-2 1-2 1-1 2-1h3l1 1 5 3-1 1-1 1a1 1 0 01-3 0l-1-1-2-3h-2v3l1 1 1 1c1 0 2 0 1 1l1 1 1 1 4 4c2 3 2 3 4 2 1-2 1-2 1 0 0 3 1 3 5 1l4-1-2 1-1 2 3-1 5-2 2-1h1c0 4 7 2 9-2l2-4v4l1 5 8 4 8 3-3-16-2-18-2-3v1l-1 3c-1 1-1 0-1-1l-1 1h-1l1-3v-3h-1v2l-1-2a2 2 0 00-3-2l-2-2c-3-2-6 0-5 4s1 4-1 4l-1 1a1 1 0 11-1 1h-1c-2 1-4 0-5-3 0-2 2-1 2 1 1 1 1 1 1-1l-2-2c-2 0-2 0 0-1l1-1v-1c1-1 1-1-1-1-1 1-2 0-3-1l-2-1v1m204 20c-10 11-13 15-11 14 1-1 2 2 1 6l19-20 5-6-2-3c-2-4-1-5-12 9m-241-7l1 3v1l-1-1c-1-1-2 0-4 1l-3 1 2 3 2 3c-1 2 3 7 5 6 2 0 1-1-2-3l-3-4 5 3c6 6 12 9 11 6 0-1-1-2-2-1l-4-2-2-2 2 1 2-1-3-1-2-1h2c1 0-1-5-3-7l-1-1a5 5 0 00-2-4m419 13l-2 1-4 1v-3l-1 2-1 3c2 1-5 2-7 1v1c2 2 1 3-2 3-2 1-3 1-3 5 0 3 1 4 2 4h1c-2 0-1 2 1 2l1 1 1 1 1 2 2-1c3-3 4-4 1-3v-1l2-3a3 3 0 010-4h-1l-1-3c-1 0-2-1-1-2 0-1 1-1 3 2l2 2 2-2 2-1-1 2-1 1v2l-2 2c0 3 0 3 2 3h2v3l3 1 2 1h4l-1-1c-3 0-7-6-4-7v-2c-1-1-2 0-3 1l-1 2 1-3 1-4 1-1c1 1 1 0 0 0l-4-2-2-3a7 7 0 013 0c-2 0-1 2 1 2l2-1 1-2v-4l-2 2m-339 6v10h5a4 4 0 014 2l1-1 2-2 2 1 1 1c2-1 0-4-2-4l-2-1c1-2-3-5-4-4l-3-2c-1-2-2-3-4 0m-79 4v2c1 2 1 2-1 0s-3-2-3-1c-1 2 0 3 2 4a9 9 0 014 3l1 1 1 1h3l-1 1c-2 1-3 5-1 7v1h-3c0-2-2-1-2 1l-2 2h-2l-1-1c-2-2-1 2 1 3 2 2 3 4 1 4l-3-2-2-1c0 1-1 1-2-1s-1-2 1-2l2-1a2 2 0 00-3-1l-1 1c-2 0-1-3 1-3s2-1 3-4v-7l-1 1-1 1v-4l-1-1h-7c-3 1-4 3-1 3v1l1 1 1-2 1-1 1-1h1v1l-1 1 2 1v1l2 3v1c-4-3-5-1-2 2l3 2-4-2c-5-4-7-4-4 0 2 1 4 5 5 7 3 5 7 8 11 8l4 2c2 2 5 1 6-2l1-3-1 3v3h4l6-1v-5c0-2 2-2 6 0 2 1 2 1 2-2-1-3-4-5-6-4v2l-1 1c-1-1-4 1-3 2 1 2-2 2-5 1s-3-1-2-4 0-5-2-2l-1 3v1c-2 1-2-2 0-5 1-1 1-2-1-4v-2h5c-1 1 0 1 1 2 2 0 2 5 0 8-1 1-1 1 1 1l3-1 1-2c-1 0-1-1 0 0l1-1-1-1-2-1v-1c3 0 4 0 3-2v-2l-2-1a29 29 0 01-6-1c-2 0-1-3 1-3v-1l-3-4c0-2-1-2-1-1v1l-1 1h-1v-5h-5m54 3l-1 4c-1 1-1 1 0 0 2 0 2 0 1 3 0 3 0 3 1 2s1 0 1 3l-1 5a13 13 0 00-6 3l3-1c2-1 2-1 0 2l-2 4 1-1 8 2c13 7 18 9 17 7-2-2 1-1 2 1 2 3 4 3 3 0l-11-6c-10-4-14-7-11-8l-1-2h4c1 1 3 2 4 1l5 1 2 2v-4c-2-13-2-13-3-10l-1 3v-3c0-3-2-5-2-2-1 2-6 2-6 0h2c3 1 3 1 3-1s-4-5-10-6c-2-1-2-1-2 1m-13 5v3l-1 4-1 2-4-3c-2-3-3-3-2-1l1 2 1 2-2 1v6h-2c-1-2-1-2-1 0l-1 2v8c-3 2-3 1-3-4 0-2-1-3-2 0-1 1 2 8 4 9l1 2c0 2-6-6-6-8l-1-1v1l-1 1c-1-1-2 0-3 1h-1l-4-1c-4 0-5 0-5 3-2 4 6 10 8 7l2 1c2 1 2 1-1 1-3-1-3-1-2 1l-1 2v1l2 3v1l1 1c2-1 2 1 0 4v1l2-1 1-1h2c1 0 0-2-3-4-5-5-4-7 2-5l5 2v-3c0-2 0-2 1 1 1 5 4 6 4 1l3-10 1-8v-1l3-2 2-3 1 1c-2 2-1 21 1 21l8-19a1 1 0 00-2 1c1 0-1 6-2 5l-1-5c0-2 0-4-1-3v-14l-1-3-2-2m34 0c-2 0-2 2 1 6l3 2-3-1-2-2v3l1 7c1 4 3 6 8 7h1l2-1c3 1 3 1 2-1v-3l-1-1-1 1v2l-1-1c-1-3-2-3-3 0l-2-6-3-9c-2-1-2-1 0 0 2 0 2 0 1-1-2-1-2-2-1-2h-2m318 0l2 3 1 2-2-1h-3l6 9c6 7 8 8 9 7 0-2 1-2 1-1l2 1c2 0 1-2-2-5-5-6-6-8-5-8l-3-3-3-4h-3M47 198c0 2 4 6 6 5l-1 2-4 2c-3 1-6 5-5 7s1 2 3 0 3-3 1-3l-2-1c0-2 2-1 4 1v2c-2 1-3 5-2 4l1-1 1-1h2v-4l-1-3 1 1s1 2 3 2c2 2 2 2 2 0h-1c-2 1-1-2 2-5 4-5 3-8-2-8h-8m183 11a1434 1434 0 00-26 35l-4-1-5-2c-1 1-1 1 0 0l-1-1h-3c-1 0-2 1-1 2 0 2 2 3 2 1 0-1 1-1 1 1 1 2 11 6 10 4l-2-1v-2h3l1 1h1l1 1h-2l-1 1c0 2 2 2 3 1l2-1 17-19 17-22v-2l-2 1c-1 2-2 0-2-3 0-5 0-5-9 6m-101-5l-5 12c-5 10-6 16-4 12h1v3c1 2 1 1 6-11l6-11 10 4 10 4-13-7c-7-2-10-5-9-6l-1-1-1 1m116 4l15 9c9 5 12 7 11 8h1l4 1 10 6 2-2a13 13 0 00-12-8l-4-4-12-6 3 2v1c-1 1-7-1-7-2l1-1a2 2 0 00-1-2l-1 2h-1c1-1 0-2-1-1l-4-2-4-1M30 227l-5 1 3 1 1 1h4l-5 3-2 1c2 0 3 0 2 1l-3 1c-4 1-4 2 1 3 4 2 8 1 6-1l2-2c3-1 4-2 3-4h1l5 2h3l-3-3c-2-3-2-3 0-1 3 2 5 3 3 0-2-2-7-4-9-4l-7 1m217 7l-1 2c0 2 5 4 9 3l2 1 3 2 3 4c-2 4 1 7 7 7 6 1 16 5 25 12l6 4 4-3c3-4 3-6 2-8l-1 1c0 4-1 4-2 5v-2c1-2 0-3-18-12-13-7-20-10-21-9-2 0-2 0-1-1l-1-1c-1 1-8-1-11-4-2-2-5-3-5-1m133 9l-2 1-3 2-4 3-3 2-4 2-1 2-1 1-1 1h-2l-1 1c1 1 0 2-1 2v3l-1 1h-1l-1 2c-1 1-1 1 1 1l1 1c-2 1-2 3 1 7l2 3-1 1 1 3 1-1c1-1 2 0 4 4 2 5 6 8 6 5l2-1 1-1 6-5 13-8c6-4 7-4 10-3l-1-2-3-3v-1l-1-1-10-16-3-5-3-3-1 2m-143 5c-2 2-3 3-4 1 0-1-2 0-6 5-8 10-13 15-14 14l-1 2c0 3 3 6 7 7l2 1-6-1c-3-3-6-1-6 5-1 2-1 2 1 0 3-2 7-3 10 0 2 1 2 1 2-1 1-7 3-11 13-22l5-7v-4c0-4-1-4-3 0m-178 3c1 2 1 2-1 1h-8c-5 1-6 1-5 4l1 2 5-3-1-1a7 7 0 019 1c-1-2 2-2 3 0 1 1 2 2 3 1l3 2c1 4 2 4 1 1 0-4 1-4 3 0l2 4-3-1c-3 0-3 0-1 2l1 4h2c3 1 3 0 3-2l1-3v-2l-3-2v-3l-1-1h-5c-3 0-4 0-7-3l-2-1m27 6l-5 2h-1v20c10 0 13-3 12-13-1-6 0-7 2-5l1 1-2-3-4-3-3 1m-85 5c0 5 0 6 2 6 2 1 2 1 0 1-2 1-3 6-1 9v2c-1 1 0 1 2 1 3-1 4-1 3 1 0 2-1 3-2 3-1 1-1 1 0 0s1-2-1-2H2l1 2H2l-1 8 1 9v3h1a4 4 0 002 5l2 1 3 2 1 1 1 3c1 0 1 1-1 1-1 1-1 1 1 2 1 2 1 2-2 1l-4 1c-2 2-1 4 0 1h7l2-1c-1-3 1-2 3 0 1 1 2 2 3 1v3l1-2 3-4c3-3 6-7 5-8h-1c1 2-1 3-3 1s-3-3 0-2c1 0 0-2-3-4a13 13 0 01-3-5h1c2-2 1-4-2-4l-1-1-3-2-3-2h-1a4 4 0 01-5-3h10l-2-1-3-2h-1c-1 2-2 1-2-2l1-2c0 2 2 3 3 1l-1-1h-1l5 1c5 2 6 8 1 7l-3 1 1 1 4 2 3 2 3 4c2 5 6 10 11 13 4 3 4 3 2 3h-8 1l4 2 7 2 4 1h5l-1-1h-1l-2-1v-2l2-2 2-1h3v-1l-1-1a37 37 0 006-2l-1-1h-3l-2 1h-1l-1 1v-1h-1l-2 1-1 1-2 1c-2-1-3 2 0 4l1 1c-4 1-6 1-6-1l1-1-4-4-6-6-2-3-7-12c0-2 9 1 10 2h1v-1l-1-1-2-1h-1c0-1-4-2-6-1l-1-2a1 1 0 112 0h1c2-1 2-1 3 1l3 1h1l1 1c1-2 5-2 5-1-1 1 2 5 4 5 3 1 3 0 2-3-1-2-1-3-3-2v-1c2-1 4 0 5 4 3 12 2 16-2 16-1 0-2 0-1 2h-1c-2-2-3-3-1-2l1-1h2c3 1 2-1-1-3l-2-1c3 2-2 4-6 2l-3-1 1 1 1 1c-1 1 0 1 0 0l2 1 2 1 1 1c0 2 4 3 5 1l3-1h2l1-11 1-1c5 1 5-1 0-3l-4-3c0-3-7-8-9-7l-4-2-4-3-1-1-2 1-1 4-12-3c-6-3-12-7-10-7l1 1h4c1-1 2 0 2 2l4 3c1-1 3 0 4 1 3 2 5 2 4-1l1-1h1l-2-1-4-1-1 1h-4v-1l-1-2a1 1 0 010-3h1v-1c-1 0-1-1 1-2 1-1 1-1-1-1l-3 1 3-1 3-2-3-6-1 1h-1l-2-1c-1-2-2-3-5-3s-3 0-3 5m398 13l-1 2-1 1c-3 0-11 5-11 7 1 1 1 1 0 0s-2-1-2 1l-2 1c0-1-2 0-3 2l-4 2a9 9 0 00-6 8c1-1 1 0 2 2v3a6 6 0 003 5h2c2 0 2 0 1-1v-3l1-2c-1-1-1-1 1-1 2 1 2 0 2-1 0-2 0-2 1-1h4l-2 3v1l-1 1c0 2 1 2 2 1h1l1-1-1-1-1-2 3 1h2v-2l1-2 2-1v-2l1-1-2-1-1 1c2 1-1 3-3 2h-1v1l-1-1 1-2v-6h3c1 0 1-1-1-2v-1l2 1c1 1 5 0 5-1h2l1 1 1 1c1 1 1 0 1-1l-1-2v-2h1l3 3v-1h1l2 1c1 0 1-1-1-2l-2-4c-1-4-3-6-5-5m-230 6l2 14 7 51 6 39 34 1a3943 3943 0 00-14-72l-5-23a35 35 0 00-30-10M7 305c-1 4 2 6 4 4 3-2 5-2 8 2l3 4-3-4c-4-3-6-3-7 0 0 1 4 4 6 4 3 0 4 2 3 4h-3c-2-1-2-1 0 1 3 3 3 3 6-1l3-3-2-3c-3-2-4-5-2-3v-2c-1-2-2-3-1 0l-2-1c-3-3-3-3-4-2-2 2-2 2-4 0-2-3-5-3-5 0m72 20l-4 2v22l1 21 6-2c2 0 3 0 2-1-2-1-3-10-1-15 1-3 1-2 1 7v8l1-9 2-8h1l1-2 2-1c1-1 1-1-1-1l-5 1 5-2 2-1-6 1-6 1c-1 0 0-16 2-17 2-2 9-5 9-4l1-1c0-2-8-1-13 1m108 16v2l-1 2 1 1c2-1 1 2-1 3v3l-1 1h-1l4 1v2h-2l1 1v10c-1 0-1 1 1 2 2 2 2 4 2 9l1 4c2 0 3-3 3-6l-1 1c0 2-1 2-1 1-1-1 0-3 1-3 1-2 1-3-1-13a602 602 0 01-2-16l-1-3-1-3c-2-1-2-1-1 1m285 14l-4 4h-1c-1-2-1-2-1 0s0 2-1 1c0-2-2-3-2-1l-1 1a6 6 0 00-5 2c1 1 1 1-1 1-2 1-2 1-1 3 1 1 1 1 3-1s4-3 4 0c0 2 7 1 14-1 8-3 9-4 7-5v-2c2 0 2-1 2-2-1-2-8-2-13 0m-62 11c-2 1-2 2-1 3h-1c-3-3-7-1-7 2a2 2 0 01-5 2h2v-1c0-1-1-1-3 2l-2 2v-1c-2 0-2 4 0 5 3 3 24-8 24-12l-1-1-2-1h-1l-1-1c-1-1-1-1-2 1m-4 15l-4 2-2 1a6 6 0 00-7 4l-1-1h-2l-2-1a1 1 0 00-3 0l-1 3c-1 1-1 5 1 7l4-1h4l1-1a53 53 0 011-6c0-1 1-2 5-3a5 5 0 005-3l1 2v2c1 1 2-2 2-3h1c2 1 2 1 4-1l3-1 1-1h-3l-1 1-1 1c-1 1-1 1-1-1s0-2-5 0m-110 32c-5 2-7 4-5 4l3-1-1 5v2c-1 0 0 3 2 3l1 1c-1 2 1 10 3 10l1 4-1 3a1 1 0 000 3l2 1c2 2 3 1 3-1l1 1 2 2-1-4a47 47 0 00-2-4l3 5c2 2 2 2 3 1s1-1 1 1h3c3 5 1-4-7-29-3-11-3-11-11-7m57 20v1c2-1 4 2 4 6l1 2h4l1 2 6 3 6 3-2-2c-2-2-2-2 0-2v-2l-1-2-2-2h2l3 3 2 3v-3l-1-3 1 3c2 2 2 2 2 0a9 9 0 00-6-7h-1c0 2-4 1-8-1-2-1-2-1-2 1 1 1 0 2-1 2l-1 1h-1l1-2a1 1 0 000-3l-3-1-3-2-1 2m35 6c0 1 2 4 5 5 2 2 4 4 4 6 0 4 1 5 4 10l6 7 1-2-2-8c-2-5 0-3 2 1l3 4v-1l-1-4 1-2 3 2-1-1c-5-4-6-8-1-5l2 1v-6l4 3c0-2-4-5-5-4l-1-1-1-2-1-1 2 1c2 1 3-1 1-2-1-1-6 2-6 3h-1l-3 1c0 2-5 0-8-3-4-5-7-6-7-2M8 439l-3 12c0 6-2 11-3 13-2 3-2 26 1 26h1l2 1c2 0 2-1 2-5a182 182 0 012-27 7 7 0 015-9c1-2 1-2-1-2l-1 1-2 1c-1 0-2 1-2 3-2 5-3 4-2-1 0-6 2-10 3-6l2 2 3-1 2-2h1c0 3 1 2 2-1 0-3 0-3-2-2-6 1-10 1-9-2 0-2 0-3-1-1m376 5v3l2 2 1 1c-2 0-3 3-2 4l2 4c1 2 1 2 2 1s0-2-1-4l-1-3 2 2c1 3 4 5 4 3l1 2v4l2 4 2 5h-2c-3 1-3 1-2 6 0 4 4 10 5 9l1-15 1-1 1 1 2 3v2h-2c-2 1-1 1 3 10 3 6 1 7-2 2l-2-4 1 6c2 2 2 6 1 6-2 0-7-5-7-6h1l-2-4c-3-5-5-6-6-5-2 1-1 3 1 6l1 3c-2 0-2 1-1 4l2 5c-1 2 0 3 1 3v-1h2l2 2 1 1 2 2-1 1-1-1-1-1a2 2 0 00-1 3l3 2c1 2 2 2 3 1 2-2 2-2 1-4l-2-4c0-1 0-2-2-2-3-1-5-6-2-6l1 2 2 2 2 2 1 1 1 1 3 5c3 2 3 4 0 3v-1c0-2-1-1-3 1a6 6 0 003 8c-1-1 0-1 2-1v1c-1 1-1 1 1 4 2 1 3 2 2 3l-2-1v2a11 11 0 003 3v-2h4l-2-2v-4l1-2a4 4 0 014 4c1 3 1 3-1 2-2 0-2 0-1 1 1 2 7 2 5 1v-2c3 1 4 2 2 3-2 2 0 6 4 6h2l-1 1c-2 0 0 2 3 3 1 1 2 1 1 3l1 2c2 1 3-1 2-2v-4l1-1c-1-2-1-2 1-2h3c1-1 1-1-1-1s-2 0-2-4c0-3-1-4-2-3-2 0-3 2 0 2a1 1 0 110 2h-2l-1-1-2-3c-2-2-3-3-2-4 0-1 3-1 3 1h3c2-1-1-4-3-3l-2-1c1-2-1-9-2-9v5a4 4 0 01-3 6l-2 1 1-2c2-2 2-3 1-3-1-1-2-2-1-3l-3-2c-2-1-2-1-2-3 2-7 2-9 0-8a3 3 0 00-2 3c0-2-2-1-2 1h-2c-1 0 0-2 2-3l3-5c-1-2-1-2-2 0l-4 4-3 3h-1l-2-1c-1-1-2-1-1-2h2a2 2 0 002-1l-1-3c-1-4-1-4 2-1l2 1 1-1c2 0 2-1 2-2l-1-4c0-3 0-3 1-2 2 3 2 1 0-3 0-2-2-3-2-2l-1-2-1-1-1 2-1 1v3c2 2 0 1-3-1l-4-8 2 2c1 1 1 1 1-1v-1l1 3a1 1 0 102-1v-4c-2 1-2 1-2-1 1-1-1-3-4-6-3-4-4-5-2-4 2 0 2 0 1-2l-2-1c-1 2-2 1-2-1 1-2 0-3-3-7l-4-6c0-2 0-2 2 0l2 2-1-2c0-2-1-3-2-3l-3-1c-2-2-3-2-5-1m-23 2l-1 3c0 2-3 4-3 2-1-1-1 0-1 1l1 2 6-3-1 2-1 3-2 3c-3 1-5 5-2 5 2 0 3 1 1 4v4c1 2 1 2 2 1 0-2 0-2 1 0 3 8-1 12-6 6-4-3-9-4-6-1v2c-2 1-2 0-3-2-2-5-7-8-5-4 0 2 0 2-1 1-2-1-2-11-1-11h2l2-1c1-1 2-1 3 1 1 1 2 1 3-3l1-3v4c-1 3-1 5 1 7l2 3v-3a22 22 0 000-8c-1-4-3-7-4-6v1l-2-1-1-3-4-2-3-1-1-1v8l1 3c1 3 1 3-1 2-2-2-2-2-3-1-2 2-3 1-3-1 0-4-3-1-4 4l-3 3c-2 1-2 0 1-3 2-5 3-9 0-5s-4 8-3 11c1 4-1 8-2 6l-1-2h1v-5c-1-3-2-2-2 0v1c-2-1-5 6-5 10l3-6c0-2 0-2 1-1l1 3c-1 1 0 3 1 4l-1-3h2l2 3c0 2 0 2 2-1 1-3 2-3 3-1 1 1 1 1 1-1 0-3-2-8-2-5l-1 2c-1-1 1-6 2-5 2 1 3 0 3-2s0-2 1-1l2 1 1 2-2 1c-1-1-1 0-2 1l-1 2v10c0 2 0 2 1 0 2-1 2-1 2 2v4l1 1 3 5c4 13 7 15 5 4-1-7-1-7 4 2 4 8 5 10 3 8v2l2 2v-1c-1 0 1-3 2-2l1-1-2-4 1-1 2 2c0 3 0 3 1 2 2-2 2-2 3 0s0 4-2 4l-1 3c1 3-1 4-2 2h-2c-1 1-1 1-1-1l-3-4c-2-1-2-1-2 1l3 4v3l3 3 2 3h-1l-2-1c-2 1-1 3 1 3v1c-2 1-2 5 0 7v8c2 0 3 2 1 3-2 0-1 2 1 2l1-1c0-3 3-2 3 1 1 2 1 3 3 2l1 1a10 10 0 002 8h1l2 1c2 0 2 0 1 1-2 1-2 1 0 4v2l1 2 3 1a1 1 0 000-3v-4h2c1 2 3 1 2-1 0-1-1-2-2-1l-1-1c0-1 1-2 2-1l1-1c-1-3 0-4 1-3 2 2 4-1 3-4 0-2-1-3-2-2l-1-1c1-1 0-1-1-2l-1-3v-7c0-2 0-3-2-3s-3 6 0 10c1 2 1 2-2 1-2 0-2-1-1-2v-9l2-2c2 0 2 0 1-1-2 0-3-2 0-3 2-1 1-2-1-2h-1l1-2-3 3c0 2-1 3-2 3v-5c-1-1 0-4 2-2l-1-8-2 2-3 2v-1a3 3 0 000-5l2 1c0 2 2 1 2-1h1l1-1 1-1a7 7 0 010 8l1 1h3l-1 1-1 1h2c1-1 2-4 0-3s-1-2 1-4 2-2 3-1c2 1 3 0 1-1l-1-5h-1c-1 1-1 1-1-1l2-2c1 0 2 0 1-1l2-1c2 1 4-1 2-3l-1-2v-2c-1-1-2 0-1 2 0 3-3 3-5-1s-5-5-7-4v1l2 1 1 1c2-2 4 5 3 7-2 1-2 1-2-1l-3-5c-3-3-3-6-1-7l1-2c0-2 0-2-2-1-2 3-6 2-5-1 0-2 0-2 2 0l2 2v-2c0-2 0-2 2-2l2 1v3c0 1 0 2 1 1l1-2v-2l-1-3 2 2 1 2 3 1c2 3 3 3 2 1 0-1 0-2 3-1 2 0 3 1 3 3l1 2-1-7-3-1c-3 0-7-2-10-6-1-2-3-4-4-3-1 0-3-3-2-6l-2-1-2-1h1a1 1 0 101-2l-1-2a5 5 0 000-5v-5l-1-3-1-3h-1m2 1l1 1 1 1 2 4c2 2 3 3 1 3v2l1 3 1 2v-1c0-3 0-2 4 0s8 8 7 10l1 1 1-1 2 1h1c0-2 0-2 1-1l1-1v-2l2 4v4l1-4c0-4-3-8-6-6l-3-1-2-2-5-4c-5-4-5-5 0-2l3 1-2-2c-2-2-2-2 0-2 3 0 4-1 2-3l-2 1h-2c-2 0-2 0-1 1l-5-4c-4-4-5-5-5-3m-83 6l1 2v6h-2l-1-5-2 1-2 2 1 1h1l2 13 3 2 1 2 1 1v-8c1-1 1 0 1 1l1 1h1l2 11 2 9 1-7a16 16 0 000-8h2v-1c-1-3-2-3-3-1v-2c0-3-3-7-4-5l-2-1c-1-1 0-2 3-1l2 1c2 0-1-6-3-7l-3-4c0-3-3-6-3-3m12 14c-1 3-1 3 2 6l4 7 3 6 1 3 2 3 2 2-1 1v2l1 2c-1 0-2-1-2-3l-2-1c-1 1 7 14 8 14v-3h-1c-1 0-2-2-2-5 0-2 0-2 1 0h1c0-2 0-2 2-1v3c2 2 3-2 0-3l-2-3v-3c-1-3 0-5 2-3s3 1 2-1c-2-2-3-3-1-2l1-1h2v-2c-2-2-2-2-2 0-1 2-3 0-6-5l-4-3-2-2-2-3-1-2-4-5-2 2m-48 13c-2 3-1 4 1 1 2-2 2-2 2 0v3h-1c-3 0-6 2-5 4l-1 4-2 3-1-3v-3l-1-1c-2-1-4 2-4 5 0 4 0 6-1 5v2c1 2 1 2 3-2 2-3 2-3 3-1l1 6 1 1v-1l1-2h7c2 2 2-9 0-12-3-3-2-3 1-1 2 1 3 3 3 5l2 5c2 2 3 1 1-2-1-2-1-2 1-1l-2-3-4-5c0-8-3-11-5-7m-99 0c-2 1-4 3-2 3v4c-2 5-2 5-4 3h-1c1 1 1 1-1 1l-2-1 2 3c2 3 3 4 1 3l-2 2-1 5c-1 1-1-2-1-7 0-8 0-8-2-7a11 11 0 00-8 5v8l1 1h1l4 7c5 7 6 8 1 5a10 10 0 01-6-9l1 29 1 9c0 2 0 3 1 1l2-4c1-2 1-2 1 0-2 4-2 5 0 5s3 3 2 6l1 1c1-1 2 0 2 1l-2 2v2h-2c-1-1-1-1 0 0v2c-1 0-3-2-2-3h-1v3l1 1h1c1 1 2 0 3-1h2l1-4 1-4v4c0 5 2 5 10-2 5-5 6-6 6-9s0-3-1 0c0 3-2 6-2 3l-2-1c-5 0-1-9 4-9h3v-8l-4-29-1-5v-8c-1 1-1 0-1-1s0-2 1-1v-1l-1-4c1-2-1-3-5-1m134 0l-1 1h1c1-1 2 2 3 7l1 2a1 1 0 110 2l-2-3h-2l-2-1-3-2v1l1 2 1 1 1 2h2a2 2 0 01-2 2c0-2-1-1-3 2l-1 2 1 3c1 4-1 3-3-2l-2-5-2-2v3l1 6a2 2 0 002 3h2l-1 2-1 1 1 1 1 2c0 2-1 3-2 1-1-1-2-2-1-3l-2-3-3-4-3-3c-3-2-3-1-2 4v4c-1 1-1 1-1-1 1-1 0-2-1-2l-1-1-1-1 1 3v1h-1l1 1v2l1 1v2c-1 1-1 1 1 1 1-1 1-1 0 0-2 2-2 2 0 3v2c2 1-1 3-2 2a3 3 0 001 5c-1-3 1-5 2-3s4 3 4 1l-1-1-1-1v-2l1 1a1 1 0 102 0l-1-2-1-1c0-4 0-5-1-4v-2l1-3h-1l1-2v-1h1c1 1 2 2 1 3l1 5v11l3 6 2 4 2 1c1 2 1 2-1 1-3-1 0 1 3 3 3 1 3 1 2-1-3-2-2-5 0-6l1-1-2-2h-1l-1 2a3 3 0 012-6v-2c1-1 0-6-1-5l-1 3c1 2 0 2-1 1l-1-3-1-2-2-3c0-2 1-2 1-1l2 2 2 1 3 2c2 2 2 2 2 5l3 1 2 2 2 2 2 2 1 1 1 1 1 3c2 2 2 2 2 0a6 6 0 00-1-4h1c0-1 0-2-1-1v-2c2-4 0-5-2-3v-2c0-5-1-7-2-4l-4 1 2-1 1-2 2-1 2-1v-7c2 0 2 1 1 2v10c0 2 0 2 1 1 1-2 1-2 3 0l2 4v1c1 0 2 1 1 2 0 1 0 2 2 2 2 1 3 0 1-1-1-1-1-2 2-6v-2l-2 2-2 1-1-1 1-2v-1c0-1 2-4 4-4s3-2 1-2l-1-2a6 6 0 00-4-4c2 2 2 2 1 3l-1 3c1 1-1 6-2 6l-1-1v-3c-2-3-2-6 0-6 1-1 2 2 0 2v2c2 2 3 1 2 0l-1-7c0-2 0-3-1-2v1l-2 1-1-1v-2c-1 0-1-1 1-1l2-1c0-2 0-2-1-1a2 2 0 11-1-2l2-1c0-2-3-2-5-1-1 2-3 1-3-2h1l1 1c0-2-3-5-4-5v-1c2-1 2-2 1-4-1-3-3-3-3 0 0 2-1 1-2-2-1-4-2-5-3-3m68 4l1 5c0 3 0 3 2 2h1v1l2 5c1 4 4 9 4 6l-1-1v-3l-1-3v-3l1 1 3 5 2 5c0 2 3 4 4 2v-2l-2-2c-1-2-1-2 1-2h2l-2-1-2-3-1-2-1-1v-1l-1-3a2 2 0 00-3-1c0 1-2 0-4-3-5-3-5-3-5-1m-187 1c-1 3-3 4-5 2l1 34c1 19 1 19 5 19l3-1c1-1 2-1 2 1l1 1c1 0 1-7-1-31s-4-30-6-25m-65 1v4c0 1 0 3-2 4v1c2-1 2 0 2 1l-1 2-2 1 1 1 1 20c0 22 0 25-2 24l-1 2 1 1c2-2 2 2 2 23 0 22 0 22 2 22s2 0 1-2c-3-3 0-7 5-6 5 0 5 1 5-43-1-37-1-38-3-40l-1-3-1-1-1-2c1 0 1-1 0 0v3l-1 3v10c2 0 1 3-1 5-1 1-1 0-1-11l1-13a19 19 0 013-1v-1h-2c-1 1-2 1-2-1l-2-1h-1l2-1v-1h-2m219 10v1l-1 1c-1 1-1 1 2 2 3 2 4 5 2 8-2 2-2 6-1 6l1-3c0-2 1-2 3 0l4 4 3 2h-3l-4-2c-1-2-1-2-2-1v3h-1l-4-2 1 1a3 3 0 011 4l-1 3-1 8c0 3 0 4 1 2l2-4c1-2 1-2 1 0-1 3 0 4 2 2 1-2 2-1 3 3 2 3 2 3 2 1l-2-9c-1-6-1-8 1-8l1 3c0 4 4 12 5 11s1-1 3 1l2 1c1-1 5 1 4 3l2-1c2-3 3-3 5-2h3c1-1-1-2-3-1l1-2 3-2-3 1c-3 2-5 3-5 1a19 19 0 00-11-18v2a1 1 0 11-2 0l-2-2c-6-3-11-15-6-16l-2-1h-4m-195 15c-3 8-3 10-1 5l3-3-3 5c-2 5-4 13-2 17 1 2 1 2 2-1l-1-6-1-2 2 1 1 1 1 1 2 4 2 2-2-1-3-3v2a11 11 0 002 12l-1 1c1 3 3 2 3-2 0-5 1-5 1 0l1 4v-8l-1-9c0-6 0-10-2-12v-2c2 1 2 1 2-1l-1-6c0-6-1-6-4 1M0 510l1 9a5 5 0 002 6c-2 0-2 1-2 13 0 19 2 14 3-9 2-20 2-21-2-22-2-1-2-1-2 3m492-2v2h-2c-4 0-5 3-2 8v4l2 1 3 3c1 2 6 5 7 5v-4l-1-4c-1-3 2-2 3 2l2 2v-4h2c4 3 3 1-2-5l-6-10h-2v2c3 2 5 7 4 7l-2-3a12 12 0 00-6-6m-247 1v2c-1 1-1 8 1 8v5c0 2 0 2-2-1l-1-2v2l3 11 1-3-1-4 2 3c2 5 3 6 4 5 2 0 2-1 0-3l-1-4 3 3 2 5v-4c-1-6-2-8-5-8l-2-2v-4c0-2 0-2 2-2h1l-2-1-1-1c2 0 2-1 0-3h-1v1l-1-1-1-3-1 1m-26 7l1 6v9a13 13 0 003 12l3 3h3c3 2 6 1 3-1-1-1-2-2-3-1-2 0-2-3 0-5v-9c1-4 3-5 4-3l2 1c2 0 2-1 0-3-2-3-2-3-4-2h-3v3c1 1 0 4-1 3v-1c1 0 0-2-3-5l-3-5 2 1c1 2 3 3 5 3 2 1 2 1 0-1l-2-1-1-1c0-2 0-2 2-2l1-1-3-1-1-1c0-2-3-3-3-1h-1l-1-1v4m221 99l35 23 14 10c7 5 8 5 2-1l-2-4-1-1c-1 1-2 0-3-1l-22-14c-24-14-23-13-23-12m-322 43l-9 1c-5 0-6 1-7 2v9c0 2 2 3 3 1 0-1 1-2 3-1h18l-9-1c-6 0-9 0-11-2-1-1-1-1 0 0l16-7c4-3 2-4-4-2" tabindex="-1" itemprop="regular" style="fill: rgb(9, 72, 5); fill-opacity: 0.595; fill-rule: evenodd; color: rgb(136, 27, 27);"></path><path d="M106 1l-8 6-13 12c-5 5-9 9-8 10l-1 4-2 8-1 12-2 9c-1 3-2 3-3 3h-2c1 1-2 2-5 2v-1h-1l-3 2h-2l-4-1c-4-2-4-2-2-4h1v-3c0-6-1-6-1-2l-1 4-1 1c1 2-6 7-8 6l-3-1h-2c-3 2-6 1-6-1 1-1 0-1-1-2-1 0-2-1-2-3 1-1 0-2-1-2-2 0-10-11-11-13 0-2 0-2 2-2 4 1 4 1-1-4l-2-3c3 1 2 0-1-2l-2-2v-2c-1-3-1-3 4-3 3-1 4-2 6-5l3-4v-2l2-3v-3c0-2-1-1-3 1v3h-1c-1-1-1-1-1 1 1 2 0 5-1 4v1c1 4-9 8-12 4 0-1-1-1 0 0l-1 1-1 1-2 1v-3c-2-1-2 9 0 11v2a3 3 0 004 5c1-1 1-1 1 1l1 2a3 3 0 013 3c1-1 2 0 6 5l3 5a3 3 0 004 2c-1 1 0 3 1 4l2 4-2-2-3-1v1l-2-4h-7l2 2 2 2h-5l-4 1H3l-2 1v7c-1 5-1 6 2 6v1c-2 1-2 2-1 2v7l1-1c1-1 1-1 1 1l-2 1c-4 0-2 2 3 5 5 2 5 2 4 4-4 2-10 14-8 15l3 2c2 2 4 3 3 1h4c2 0 5 7 5 11 0 2 0 2-2 1h-4c-3-2-10-2-10 0l8 4c6 1 8 3 8 9 0 3 0 3-3 3l-2-1c1-1 1-1 0 0l-5-3c-3-3-6-4-6-3l4 4 5 2-4 1c-6 1-6 2 1 2 5 0 6 0 11 4l6 6a19 19 0 001 5l2 1h1c-1 1 3 3 4 2v1l1 1c2-1 3 0 5 1l3 2c0-1-8-7-10-6l-1-1v-3c-1-1 0-2 3-1v-2l1-1 3 1 9 10 10 13c5 5 7 10 15 26l3 7h-5a4 4 0 01-6-2c0 2-5 3-8 1-1-1-3 0-5 1-4 2-6 1-6-4 0-2 0-2-1 0l1 3c2 2 1 3-2 6-4 3-21 4-19 1v-1h-1v-3c-3-11-4-16-3-17 2-3 1-4 0-1l-2 1-1-9-1-8v10l1 12 1 2c2-1 4 14 2 16l-3 1-2 1-7 4c-5 3-6 4-6 6h1c3-2 5-1 13 7l2 1-4-3a5 5 0 01-3-5c-2 2-2-1 1-4 7-6 26-9 32-6 10 6 16 8 20 6l3-1h-4c-4 1-8 0-14-4-5-4-6-5-2-6l2-2c2-2 6-3 15-2 10 0 11 1 9 3l-2 3-1 3v8c0-10 5-19 8-14 1 2 1 2 0 0 0-2 0-2 3-1 2 1 3 2 3 4 0 3 0 3 1 1 0-4 1-4 5 0 3 2 4 3 4 0l-4-2-3-2-2-1v-1c1-1 1-1-1-1-1 1-2 0-3-1l-2-3 1 3c2 2 1 2-2 1-3-2-9-14-7-15l4 2 2 1v-2l-1-1c-2 1-8-4-9-8l-9-11c-15-19-16-21-5-21l9 1h1l-3-2c-8-1-11-2-9-4v-3l-1 2h-1v-5l3-3 1-2-2-1h-2v1c2 0 3 1 1 2l-3-1v-2l-1-1c-1-1-1-1 1-1v-1h-3c-1 1-1 1 0 0 0-2 5-4 6-3l2 1a4 4 0 014 5l1-1 3 3c2 3 2 3 0 2v1l3 1 11 8 2 1-2-3-3-3-1-1c-1 1-12-9-12-10l4-1h2c-2-1 1-2 5-1h5c1 0 4 2 4 4l4 8-1-2v-3l-1-2v-1l-5-5-1-2v-1c-2 2-3 2-6 2l-4-1-1-2h-4l-1-1c1-1 0-2-1-1l-6-5c1-1 0-1-1-1-2 1-3 0-2-1l-2-2-3-2c-2-2-2-2 0 1s2 4 1 4v-1h-3c-2 2-12-3-12-6l1-1 2-2 1-2v-1l-2 2-2 2-1 2c0 2-1 3-3 1l-15-5c-4-1-4-4-1-7l2-4 2-2h1l1-1-1 4-1 4 1 3c1 2 1 2 1-1l-1-3 1-2 1-2v-2c1-2 1-2 8 1l9 5c1 2 2 2 2 1v-2l-1-1c-2 1-2 0 1-2 5-2 8-4 6-4l-1-1a1 1 0 00-1-1c0 2 0 3-4 5l-4 2-5-2c-6-3-8-4-6-4l9-3a23 23 0 019-3c1-3 7-3 13 0a30 30 0 0115 13l6 5 6 6-5-6-8-9-3-4c1 0 7 2 8 4l2 1c2-1 10 6 12 9 0 2 3 6 6 9l3 6c-1 1 0 1 2 1l6 1c1 2 3 2 3 1l4-1c4 0 4 0 2-1h-5a4 4 0 01-6-2c-2 0-2-1 0-5 2-6 2-6 4-5 1 1 2 2 3 1s1-1-1-2c-2 0-3-1-3-2v-1l-1 1-2 1-4 1-2 1h2c3-1 4 2 2 7l-1 2-2-2-2-2c0 2-3-1-3-3a2 2 0 011-1c-2 0-5-3-5-5 0-1-6-7-12-10a10 10 0 01-6-5h-2l3-2c3-1 3-1 1-1l-5 2-2-1v-3l-1 1-1 2v-1l-1-1c-2 2-5-2-5-5s2-5 5-3l2 1-1-1v-3l6-5a21 21 0 019-6l-1-1c-1 0-1-1 1-2l3-2v-1c-2-1 0-2 3-2l3-1c2-2 10-2 10-1l1 1c2 0 3 0 4 2 1 3 3 5 3 3l1-1 1-1-1-1c-1-1 0-1 1-1l3 2-1 1h-1l2 1c1-1 2 0 4 2l5 5v-1a5 5 0 014-7l1-1 2 1 6 4 4 4-2 1h-1l-1 1h-2 10c5 3 1-1-8-7-10-8-10-8-9-5l-2 1c-1 0-2-1-2-3l-1-1-1-1-2-1-2-1h-1l-2 1h-3v-1c-2 1-5-3-4-4v-1c-3-1-3 1-2 3v1h-2l-6 1c-7 1-8 0-4-6 1-4 3-3 5 2l1 4v-4c0-3 1-4 3-2l1 1-1-2c-1-1-2-3-1-4h-2c-2 0-2 0 1-3 6-5 14-10 17-10 3-1 3-1 1-1-2-1-4 0-8 2-5 4-6 3-3-1 6-7 11-7 21-2l4 1c-1-1-7-4-13-5s-6-2 1-6l3-3-3 2h-2l-1 2-2 1-2 1-2 1-1 1c0 2-14 17-16 17l-1-2c1-2-2-3-2-1-1 2-7-3-7-5 0-4 3-10 5-9 2 0 2 0 1-2s8-13 12-13l1-1 2-2 2-3c0-2 6-6 9-7l22 4a5 5 0 014 7h3l-1-3-3-4-8-2c-8-3-14-4-18-3m294 55l-18 20c-3 3-4 5-3 7 0 2 0 2 3-2 5-7 33-39 35-39s1-1-1-2c-2 0-5 3-16 16M33 45l-1 2c-1 0-2 0-1 1 0 1-1 1-4-1l-2-1 2 2 2 6a22 22 0 002 6l-3-3c-1-2-1-2 0 0v5c0 4 4 5 14 4l-1-2-3-1h-5l-1 1 1-3 1-2 3 2 4 2h1l2 1 2-1v-4h-3l1-2c1-1 1-1-1-2-3-1-3-1-2-2s1-1-1-1a5 5 0 01-4-7h-3c-1-1-1-1 0 0m31 25l-7 2-9 1-7 2c-2 0-2 0-1 1l2 2 2 4 3 3-3-3-4-2-1-1-1-1 4 6c5 4 6 5 7 3 1-1 0-5-1-4v-1l1-2-1-4c0-3 1-2 1 1l2 4 1 4a1 1 0 101 0l1-1c2 0 6-3 5-5h2c2 0 11-8 8-9h-5m-37 7v2h-1c-2-1-5-1-5 1h-5l1 2 3 4-1-1h-1l-3-2h-1v2l-1-2h-1c0 2 0 2-1 1l-4-1-2 1v4c2 0 2 1 2 3l-1 4-3 1 1 1 4 2a7 7 0 009 0h2l1-1-2-1v-1c1-3-1-6-4-6-1 1-2 0-2-1l-3-1-1-1v-2h1c5 4 11 6 11 3 0-2 1 0 2 2 0 4 1 6 3 6a3 3 0 004-5h3v1l-2 1c0 2 5 0 6-2h3l3-1 2-1v-2h-2c-1 1-1 1-1-1 0-4-10-11-14-9m422 22c0 3-4 5-7 4l-4-1-2-1h-7l-2-1-1 2v2c2 2-9 2-11 0h-4c-2 0-2 0-1 2 1 1 2 2 3 1l-1 2-2 2 2 2 2 1-2 2-2 1-3-1-3-1c-2-1-2-1 0 1l3 4h-2c-1-1-1-1-2 1-1 1 0 2 1 2h5l1-1 2-1h3l2 3-1 4-5-3h-2a1 1 0 101 2c1-1 1-1 2 1 1 1 2 2 3 1l1 1h1l3-2 4-1h2c0 2 0 2 3 0 3-3 4-3 4 1v4l1 1 3-1-1-1-2-1 1-1 3-3 1-1v7a2 2 0 101 2c0-2 8-6 12-6h3l-2 3-5 2c-2 0-3 1-3 2 0 2-2 3-5 2l-2 1v2c-2 3 1 2 5-1l4-2 3-1 2-2 1 1v1c2 0 3-2 2-2-2-1 0-3 2-4h2l1-1a1 1 0 011-1c0 2 0 2 3 0l4-1-5 3c-7 3-8 5-3 4 3-1 3-1 3 1h3l2-1c1 0 1 1-1 2-1 1-1 3 1 1h9l2 3c1 1 1 1-1 3l-1 3-7 7c-10 9-19 20-18 21s2 0 4-1c2-3 3-5 0-3-1 1-1 1 0 0l2-2 6-5 21-17c4-2 3 0-3 4-7 5-20 17-23 21l6-5c4-4 11-11 16-14l8-6-3-4-4-2c-1 0-1-1 1-2 1-1 1-1-1-1-2 1-3-2-1-3 2 0 5 2 4 4h1c1-1 3 0 4 1h1l-3-4c-4-1-4-3-1-3s9-6 9-8-4-1-6 2l-5 2c-3 0-5 2-3 2l1 1c-1 1-3 0-6-1-7-3-7-3-6-5h1c3 4 6 3 9 0 2-4 3-7 0-7l-4 1c-2 0-2 0-1-1l3-1 1-1-3-1h-2v-3c-2-1-2-4 0-7v-2l-2 3c-1 2-3 3-3 1l1-1v-4l-1 1-3 2-2 1a1 1 0 11-2 0c0-3-2-3-3-1l-1 2v-2l-3-2h-1l-1-1v1l-2 1-1-3-1-3-1 1m-39 51a52156 52156 0 00-86 79l-14 13 12-9a3011 3011 0 01110-100c0-3 0-3-22 17m-392-7l1 1v1c-2 1 0 6 3 6l-1 1-2 1v1l5 2 6 1-3 1c-3 0-3 0-2 2v3l1-1c2-3 8-6 8-3h2v-3l1-5c1-4 1-5-6-5l-8-2c-4-2-5-2-5-1M2 158c2 3 4 4 3 2s0-1 3 1l8 8c-1-1-1-1 0 0v5l-1 5c0 3 0 4 1 3v-2l1-1c1 0 2 3 1 4v1c2-1 2-7 1-8v-2c2-1 4 2 4 4l1 1c1-1 3-2 1-2l-2-2-2-4c-3-3-2-4 0-5l1-1c-2 0-3-3-1-4 1 0 1-1-1-1l-2-2-1-1v4l-1 4a40 40 0 01-11-8l-3-1-2-1 2 3m240 19c1 3 4 6 5 6l5 3 4 3 3 5 1 4-4-2-3-2-17-10c-1 0-2 1-2 3l-2 3 2-3 2-2 12 7 15 10 5 2c2 0 0-2-2-2h-1l-1-2-2-3-2-4c0-1 0-2 2-1a3 3 0 013 2c0-1-1-4-2-3l-1-1-10-9c-10-6-11-7-10-4m-10 44l-16 21-9 9h-1l-22-7-30-12a17 17 0 01-8-5c0 2-3 1-4 0a2 2 0 10-2 1 3 3 0 011 3l5 1a14 14 0 008 2c-1 1 51 21 54 21a42 42 0 009-13l13-16 11-14 5 3 22 12 27 15c9 6 10 6 12 5 2-2 0-4-3-3l-38-20-24-14-10 11m257 23l-1 4-1 1-1 1v2l-1 2a9 9 0 00-4 2l-1 1-3 5-2 3-2-2-1 2a2 2 0 01-3 1h1l1-1-2-2h-1l-1 1v4c1 5 2 5 3 3 2-1 2-1 1 1 0 2-1 3-2 2l-3 2h-3l-1 1h6l2-1 2-2h1l1 2 1 1c0 1-1 2-3 1-3 0-3 0-2 1h-1c-2-1-2-1-2 1v5h2l1 1-2 1-1 1v2l3-1h2l3 1 3 1-3-2-2-1h4c-2-1-2-2-1-2l1-1 1-1 2-2 1-1 1 3 1-1v-1l1-2 1 1c1 2 2 3 3 2l2 1h2l1-1h3a6 6 0 004-1c-2 3 3 3 5 0h1v2l1-1 2-3v1c-1 2-1 2 1 2 2-1 3-11 1-12-1-1-1 0-1 3v5l-1-4v-4l1-3c0-2 0-2 1-1l1-7-1-11v-2h-1v-1c2-2 1-5-1-2l-1 3v2l-1-1-1-2v-2c0-2-5 0-11 4-2 2-2 2-3 0l-1-4-1-1-1 1m-333 16l2 5 6 2a289 289 0 0140 11v-3h-1c-5 1-35-11-37-15h-3c-2 2-4 2-4 1-1-2-2-2-3-1m115 6l5 9a34 34 0 0115 8v-2l1 3v2a8 8 0 011 9c1-1 2 1 5 9l6 14v1l1 5 1 3-11-29-1-2 1 7c2 4 3 8 2 9l1 1h1l13 36 1-2-7-19a163 163 0 019 27l-1-2-1 2c1 3 8 5 9 3h1l1 2c1-1-1-5-3-5l-1-1v-5l-1-2c-1 1-2-2-1-4l-1-1c-1 1-3-4-2-7l-1-1c-1 1-1 0-2-1l-1-3v-4l-1-3a58 58 0 01-8-18v-3c-1 1-2-1-4-6l-3-8-1-9c1 0 4 6 9 19l5 14 5 13 10 26c3 5 2 0-3-12l-14-38c-7-19-11-27-13-29-3-3-14-8-19-9-3 0-3 0-3 3m-101 16l1 1v5l1 2c1-1 4 1 3 3l2-1c2-2 6-2 9-1h4c-1 1 0 2 1 1v1l2 4c4 3 5 8 6 19l4 13-3-16c-3-19-4-22-2-21l1-1c-2-5-29-13-29-9m275 1c1 2-3 4-7 4-3 0-3 0-2 1l1 2c-1 1-4-2-4-3v2a4 4 0 010 5l-1-1-2-2-2 1c-1 2-2 1-1-1h-2v9c1 1 1 1-1 1-2 1-3 3-1 3s-1 2-3 2c-1 0-2 0-1-1h-2c-2 1-3 3 0 5v-3l2 3 2 4 1 3h-1c-1 1-1 0-1-1-1-3-2-4-4-4h-4v7c0-2-1-3-2-3l-1 2v1l-1 2c1 1 1 1 0 0-2-2-2 0 0 2 1 2 1 2-1 1l-2-1c0-2-3-1-5 2l-2 2-1-2v-4c1-3 0-4-1-2v6c0 3 0 3-1 2l-1-5c0-3-1-4-3-1-2 2-7 5-7 2v-3c-1-1-1-1 1-1 1 1 2 0 1-1l1-2h2l3-1v-4c-1-2-1-2 3-2l4 1h4c-1 2 1 3 1 1h1c0 1-1 2-3 2l-2 2v1c-1 1 0 2 2 3l3 1-1-1a1 1 0 010-2l1-1 1-1 3-1h-1l-1-1v-3l-1-1c-2-1-2-1 0-1a1 1 0 100-2l-2-2c1-2-1-4-2-3l-1-1c2-2 0-1-3 1l-1 4-1 2-1-2c0-3-1-4-2-4v1l1 1-1 1c-1-1-1 0-1 1l1 2h1l-1 1-5 3a3 3 0 01-4 3l-4 3-4 3-1 1c-1-1-1 0 0 0l-1 2-1 2 2 3 1-2v-5c1-3 5-3 5 0l-2 2c-1 0-2 0-2 4 0 7 0 8-1 5l-2-3v2c-1 2-1 2-2-2l-1-2h-1l-1-1-1 1c2 2-2 3-4 0-3-2-4-3-6-1l1 1c1-1 2 0 3 1h-1l-3 1c-1 2-2 2-3 2-2-1-2-1 0 0l2 2h3c3-1 7-1 5 1h-4c0 2-1 2-3 2h-2c1 1 0 2-1 3h-3l-2-2c-2-1-2-1-1 2v4c-2 2-5 3-5 1v-2c-2 0-1 3 1 4l1 2 1 2 1-1h1c2 0 3 2 1 2v3c-3-1-3 0-1 2v1c-2 0-3 2 0 2 2 1-1 4-3 4s-2-3-1-4l-1-3c-2-2-2-2 0-3 2 0 3-3 0-3h-2c-1-1-2-1-3 1l-4 3c-2 1-3 3 0 3l1 2h1a2 2 0 000-3h2v4a4 4 0 001 6c0-3 3-2 3 0v4c3 2 1 6-2 4l-2 1c0 1-5 7-5 5l-1-3 1-2 1 1 2-1c2-3 2-3 0-3v1l-2 1c-2 0-3-3-1-5l1-2c-1-1 0-1 1-2l3-1h-3l-3 2-2 2c-2 0-2-1-1-3l-1 1-3 1-1 2 1 3 3 1 1 2c-1-1-1 0-1 1l2 1h1v3l-1-1c-1-1-2-1-2 1s1 2 4 2l4 1c0 1-3 3-5 3-6-2-9-2-9 0l2 1 1 1 1 1 2-2h1c2 3-2 4-16 4h-14l14 1 14 1-19 2-8 1 14 1h34c20 0 20 0 23 2l2 3h-7l-33 2c-30 2-32 3-30 5l2 4c0 2 3 13 4 11 0-3 6-2 6 1l2 6c2 3 1 4-2 4-2 1-2 1-2 3l6 20v-5c-2-3 0-4 2-2h2l1-1 1 3 1 3 1-5 1-1 1-1c-1-1 0-1 1-1l3-1h4c2 1 2 1 2-1l-7-20 5 11c3 11 4 12 7 13 2 0 4 2 5 4 3 4 8 5 6 0-1-2-1-4 2-4 2 0 2-7-1-7v-3l-1-3-2-2h-2v-2l2-3 3 2 4 3c1-1 4 0 6 1l5 1c-1-2 4-1 6 1l2 4c2 4 4 4 5 0l1-3 2-4 2-3v-1c-1-3 2-3 7-1l7 3 2 1c0 1-3 2-4 1l-1-1 1 2 2 3 2 1c1 0 2-1 1-2-2-3 0-4 4-5 5 0 5-1 5-7 1-3 1-4-1-3v2c2 0 1 2-1 2l-2 2 1 2h-2l-3 1c0 2-3-3-3-5l-2-2-3-2-4-3c-1-1-1-1 1-1 1 1 2 0 2-1 0-2-2-4-5-4-2 0-4-3-4-6l-1-3c-2 0-1-7 2-8l2-1c0-1-2-1-7 1-1 0-2 0-2-2l-2-2v5h-3c0 2 0 2-2 0-1-1-2-3-1-5v-2l-1 2c-1 4-3 4-3 1l-2-4c-2-1-2-1-1-2s2-2 1-3h1c2 2 2 2 3 0l1-1 2-1 2 1c1 2 1 3-1 2l-2 1 1 1c1 0 2 0 2 2 1 2 4 3 4 1l-1-1c-1 1-2-6 0-7v-2l1-1h1l-2-2-2-1h2c2-1 2-1 1-3s-1-2 3-2l2-1 2-1v1l-1 3c0 2 0 2-2 1-1-1-1-1 0 0 0 1 1 3 3 3 2 2 2 2 1 0-2-3 1-7 3-4v-1l1-2 2-1h2c2-2 2-5 0-4l-1 1-2 2c-2 1-3 0-1-3 2-2 9-2 8 0v1l2-2h1c1 2 3 0 2-1l2-2c1-1 1-1 1 1v1h5l2 1c1 1 1 1 0 0l2 2 8 7c4 3 5 6 3 7l-2 1h6v2c-2 2 0 2 3 1h4v3c-2 2-2 2 0 4l2 3c0 1-4 1-6-1h-1a72 72 0 015 4l-3 2v-2l-3-2h-1v3l-1 1 1 1h1l-1 1h-2c0-3-2 0-2 3 0 4 2 4 5 1 2-4 3-4 3 0v3l2-2c2-2 4-3 4-1l-1 2v2a2 2 0 11-5 2l2 2-4-1-6-1-1-1 1-1h2v-1h-2c-1-1-1 0-2 1-1 3 0 5 1 4a3 3 0 015 2c-1-1-2 2-2 4v1c-1 0-2 0-1 1h-2c-1-1-2 0-3 1h-4c-2-1-2-1-1 1 3 2 2 5-1 4-2 0-2 0-1 1l3 2-2 3c-1 2-2 3-1 4h-2c-1-1-1-1 0 0l1 4c-1 1 0 2 1 2v1c-2 2-2 2-1 4v2h-3 2v-1c-1-2-2-2-2-1h-1l-1 1c2 2 0 3-2 2l3 6 3 2-3-1c-2-2-2-2-2 0v3a7 7 0 016 6h1l4 3c4 3 4 3 2 4s-3 2-2 7h1c1-1 1-1 1 1-1 2 0 3 3 6a9 9 0 014 7l1 2 1 1 1-2 2-3-3-3-6-6-1-5 1 1 2 3 2 2 4 5c3 3 4 4 3 5h1c2-2 3 0 1 3-3 3 1 6 3 3 3-3 2-6 0-7a68 68 0 01-16-16c-3-1 0-4 3-3 2 0 4 5 2 6-1 0 5 5 7 5l6 3c4 3 4 3 5 1 1-3 5-2 6 1l1 3c1 0 2-1 1-2v-4l-1-2-1-5 1-4v-2l1-2h1c-2-3-2-13 0-13 2-1 2-1 1-2h-2l-1 1h-1c-1 1-2 0-4-2-4-4-4-2-1 4 3 4 3 5 1 5l-3-1 1-1-1-3c-4-5-4-4-4-2v1l3 4 3 5 1 2c-4-2-5 2-1 5 2 2 2 3 0 2-3-3-3-2-1 2l2 4-2-1c-2 0-2 0-1 1 2 3 1 3-2 0l-3-2v2c1 4 0 4-1 0-1-3-1-3-2-2-2 2-2 1-3-2l-3-5c-2 0-5-5-5-7l2 1c2 2 3 0 1-3v-1l2 2 2 3-1-3a2 2 0 013-3l2 1c1 1 1 1 0 0v-4c2 0 3-2 3-4h-5c-5-1-7-2-3-3 3-1 5 0 2 1l3 1 4-1v-4c1-4 4-5 4-2l3 2 7 1c1 1 1 1 0 0l1-2c1 0 4 3 3 4l-1-1h-1l-1 2 2 1c6 2 9 5 7 7-2 1-2 1-5-1l-2-3v3l1 3 1 1h2l-1 1h-1l1 1 1 1-3-2c-2-1-2-1 0 2 3 4 3 4 1 3s-2 0 1 3l4 5 5 7 2-6 1-8c1-1 1-1-1-2l-2-1h2l4-1h1l2-1h-1l-1-1c1-2 0-3-1-4l-1-2 3 2 4 2c3 0 4 1 9 6 3 3 0 2-3-1-2-2-2-2-1 1 2 4 2 4-1 4-1-1-2 0-2 1v1c-2-1-2 0 0 2v1l-3-1-3-3c-2-6-2-4 0 2 3 7 5 10 7 10 2-1 2-1 1-4v-1l1 2 7-3c8-3 13-4 10-2-2 2-2 2-1 3 2 1 2 1 2-1a285 285 0 000-18v-21c-1 0-5 1-7 3s-8 3-8 1l6-2 2-1 4-2c4-2 5-6 1-6-2 0-3-1-2-3v-2h-3c-1-1 0-1 3-1l4-1v-10l-1-10v-1l1-4c0-3 0-4-3-3-3 0-4-1-3-3 0-2 0-2-1 0-1 1-1 1-1-1l-1-5c-3 0-4 0-3-1h-3v2c1 4-4 1-6-4l-3-5c-2-1-2-6-1-6l4 2h3l2-2c2 0 2 0 1-1s-1-1 1-1l-3-1h-9l2-1c3-3 5-7 2-5l-3 1c-1-1 2-3 4-3s2 0 1-1-2-2-3-1h-1l2-2 7-2 8-2c2 0 3-1 3-2-1 0-1-1 0 0l3-1v-1c-2 0-2 0 0-2 4-3 2-3-9 1-12 4-14 5-14 3l1-4 3-3c2-1 2-1 0 1l-1 3 1-1h2c-1-1 1-4 3-4l2-2 1-3 1 2v1l2-1h3l-1-1c-2 0 0-3 4-4l3-2 1-3c0-2 0-2-3-1l-3 1-7 3h-1v-1l-1-2v-1l1-2 1 1 1 2 1-1c-1-1-1-1 1-1h2l-2-1-4-5c0-1 7-4 10-4l3-2c1-2 1-2-1-2l-1-1v-1l-1-1c1-1 0-2-1-3l-1-2v2c1 3 1 3-1 2v-7h-1v2c-1-1-1 0 0 0l-1 2v-4c1-3 3-2 4 2 1 3 1 3 3 2s2-1 1-3v-2l-1-2v-3l1-2v-11l1-3v-1h-2l-3 2v1c1-1 2 0 2 1 1 2 1 2-1 1-3-2-5-1-5 2v1h-3a1 1 0 10-2 0l-1 1 1-7c2-3 2-3 2-1h2c1-2 1-2 2-1h1l2-1c1-1 0-1-2-1-3 1-6 0-7-1-2-1-3-1-4 1l-4 1-4 1h-1v1c2 2 2 2 0 2l-2 2c0 1-1 1-3-1h-2l-1 3-1 1-3-1-4-3 1 3 1 5-1-1c-1-1-3-2-4-1l-1-1 1-1c3 1 3 0 2-2 0-2-2-3-2-1s-4 3-5 2v-2c0-3-2-5-3-3-1 1-1 1-1-1-1-2-1-2-1 0 0 3 0 3-3 3-3-1-3-1-2 1v1l-2-1h-3c-4 2-8 0-7-2l2-2 4-2h3l-1-2v-2c1-1 1-1-1-1-1 0-2 1-1 2m31 27l-1 5c-1 1-1 1 1 1 1-1 2 0 2 1s-1 1-4-1h-3l-2 1v2l-2-1-3-1h-1c-3-2-9 1-7 4h2l-3 3c-3 1-5 4-4 6h2l1 1c2 2 3 1 2-1 0-3 1-5 3-5a1 1 0 100-1c-1 0-1-6 1-6 2-1 5 2 5 4v2l1 2 1 2v3c-1 3-2 3-2 1h-1c0 3 1 4 3 2l2-1v1l1-2c0-2 0-2 3 0l4 1-3-2c-4-4-1-6 6-3v-2c-2-2-2-3 0-3l1 1h1l2 1 1 1c2-1 3-4 2-6v-1c3 1 4 1 4-1h1c2 2 2 2 2 0-1-1 0-2 1-2l2-1c-1-1-8 0-9 1h-1c0-2 0-2-1-1-1 2-1 2-1 0-1-1 0-2 1-2v-2l-1-1a3 3 0 01-3-1c1 1 2 0 1-1 0-2 0-2-2-1h-2c-1-2-2-1-3 3m-35 10c-2 2-3 5-1 3 3-2 4 0 2 3l-4 1-6 1v1h-3 1l1-2c0-2 0-2-2-2-2 1-2 0-1-1 0-2 0-2-2-1-2 2-2 2-3 1v1l-1 3v2l1 2a4 4 0 01-2 6c1-2-7-1-8 1v1h1l-1 1-3 1 1 1 1 2-1 3v1l-1 1-1 2c-1 3 0 4 1 2 1-1 2-2 3-1v-4l1 1 1 3v-2l1 1 2 3v-3c0-3 2-5 3-3 1 1 1 1 1-1-1-2-1-2 1 0s2 5 0 8h3c4-1 4 0 0 2l-3 2 3 4c3 5 7 9 9 9l-1 1c-2 1-2 1-1 2 2 1 3 1 3-2 1-1 1-2 2-1v-3l2-1 2 1-1 2-1 1-1 2c-2 2-1 3 3 1l4-1v1l1 2 4 2-1-1c-2-1-2-2-1-3l2 1 2 1c2 0 2 0 1-1l-2-2c-1 0-2-1-2-3-1-3-2-3-4-3-4 1-4 0-1-2 2-2 3-2 2-5-1-5-2-7-3-5v4l2 2c0 2-1 2-2 2l-3-1v-1c1-1 2-10 1-11l-1 1h-1l-1 1v2l-1 2h-1l-1 1v1a3 3 0 012-5h-3c-4 0-4 0-4-2 1-2 0-4-2-5l-2-5c0-3-1-4-2-2l-1-1 1-2h1l-1-2c-1 0-1-1 1-1 1-1 2 0 1 2l1 2h2v1c-3-1 1 2 5 4l-3-4c-2-3-2-5-1-7h1c-1 1 0 3 1 4s1 1 1-1v-2l1 2 2 4v-1l-1-3v-1l-1-1 3 1c3 2 3 2 2 0l2-1h1v-2l1-1h2c0 2 1 2 1 1l1-1h3l-2-1-2-1h-2c-1 0-2 0-1-4 0-6-1-7-3-5m-147 7l-1 1 9 27c1 2 8 2 8 1l1-2v-3l-1-2-1-2c0-3 0-3-4-2l-3 2v-3c0-3-4-9-4-6l-1 1 2-4v-2c-1 1-2-3-2-5l-1-1h-2m-117 1c-1 2 0 4 2 3l9 1 11 2c2 0 3 1 3 2l1 1c2 0 3 4 8 31l2 15 2 2h3l-5-25a225 225 0 00-7-28v-1l-1 1-28-4m-37 19l-6 9c-1 1-1 0-1-3l-1-4 4 58c1 1 3-3 2-6v-42c1 2 2 1 2-2-1-3 0-4 3-8l3-6c0-2-1-1-6 4m339-4c2 3-2 5-5 2-1-1-3 0-3 2 1 1 0 1-2 1-3-1-3-1-2 1v1c-2-2-6-1-7 2-1 1-1 1-2-2l-2-3v3l-1 1-2 2c-1 2-1 2-3 0v6c0 4 0 4 4 3 3 0 3 1-2 2-2 1-2 2-1 4v4c0 2 0 2 2 1l3-2 1-2c0-3 1-5 3-5l2 1c0 1 1 2 4 1 2 0 3 0 2 1l-2 2-1 1-2 1-2 1c-2-1-7 1-6 2 1 2 3 1 3-1l3 1 1 3c-1 1 1 1 4 1a7 7 0 006-2c2 0 4 3 3 5-1 1-2 0-3-1h-2c0 2 1 2 4 2 4 0 6-2 6-5-1-2-1-3 1-3s3-1 3-6v-5l-3 1c-3 1-5 3-3 3v3l1 3c-1 0-5-7-4-8l5-3c5-1 5-1 3-3-1-2-1-2 1-2 1 0 2 0 1-2 0-3-3-4-6-3-2 0-2 0-1-1 1-2 1-2-1-1-2 0-2 0 0-1l3-3 2-1v-1c-2-2-4-3-3-1m-118 8l-1 1-2 2c-1 1-2 1-1 2l-1 1h-1l-1 1-8 8 4-2 1-1c1 0 2-1 1-2 0-2 4-3 6-1l-1 1h-1a2 2 0 003 0l1-2c1-1 1 0 1 1a4 4 0 005 5h-1a3 3 0 01-1-2c1 1 1 1 1-1 0-1 0-2 2-2l3 1v3h2l1-2 2-1 1-6v-1l-2-2c-2 1-5 5-4 6a5 5 0 01-6-3c1 0 1-4-1-5l-2 1m-248 23c0 20 1 34 3 34l1-13c0-14 0-15 6-22l3-6c0-2 1-2-8 8l-4 5v-9c-1-7-1-7-1 3m340 6l-1 3-2 4-1 2 3-1c1-1 1-1 1 1-1 3 0 7 1 5h3l1-2c0-2-1-2-2-2l-2-1 2-1 4-1v7l1 1v2l1 1 1 1v4l-1 3h2c1-2 1-2 3-1l1 4 1 2 1-1 1-2c2 0 3-4 1-4h-1v2h-1l-1-2a1 1 0 01-2-1h3c1-2 1-3-1-2l-1-1 2-2h3c1-1 1-1 0 0-1 2 0 5 2 5l4 2h4c1-1-6-4-8-4-1 1-1-1 1-2v-3c0-2-1-2-3-1l-3 1v-1c-2-1 0-3 3-3l3-1c0-1-2-3-4-3s-2 0 1 1l3 2h-4c-2 1-3 0-4-1h-1v-4c1-2-1-5-4-4l-3-1h-4c0-2-2-2-3-1m28 3l1 1c3 1 3 3-1 3-1-1-2 0-3 1v5l1 1c0 2 4 6 6 5 1-1 3 3 4 10l1-1c1-1 1 0 2 2 2 6 5 6 5 0v-3c1-1-11-23-13-24h-3m-69 1c-1 1-1 1 1 4l2 3h1l-2 2-1 2v1l-2 1-2 1h-2l-1-2 1 3 1 3v1l2 2 3 1 2 1 5 1-2-1-3-4c-2-4-2-5 1-5 2 1 3-1 1-1l-1-2c1-1 6 0 8 1 1 1 4 1 4-1h-1l-2-1-2-2h-2v1c-1 1-4 0-4-2h1c1 1 1 1 1-1 1-3-2-5-3-2-1 2-3 0-3-3l1-2-2 1m42 14c-8 3-9 5-6 8 1 1 2 2 1 3l-1-1c-1-2-2-1-2 2a4 4 0 003 6h1l3-1h3c3-1 3-3 0-3h-2l2-1 2-1c1-2 0-3-2-3-2 2 0-2 2-3 1-2 1-2-1-2l-3-2c-1-1-1-1 3-1h4c-1-1-4-2-7-1m-306 13l-2 1v5l-1 6v2c1 1 1 1 0 0s-2-2-1-3l-1-1v-4c0-5-1-7-4-4l-1 1h-2c-2 1-2 1-1-1v-2l-1 1-1 1c-2 0-5 3-5 5 0 1-1 1-4-1l-2-4c1-1 1-1 2 1h2l-1-3c-1-1-5 2-4 3l-1 1-3 2c-1 2-1 3 2 4l1 2h-2l-2 1c-2 0-3 1-3 3s-9 3-9 0c0-2-2-1-2 2l-1 5v4c2 1 2 6 1 7-2 2-2 2-3 0v-2l-2 2-1 1-1-1c-2 2-2-4-1-6 2-3 3-5 1-3-1 1-2 0-3-1-2-2-2-2-3-1l-3 2-1 1c1 1 0 2-1 1-2 0-3 2-1 2v1l-3-1-1-1 1 3c3 5 3 7 0 5-2-2-3-3-2-1l-1 1h-2v9c1 1 6-2 7-5l3-3c1-1 2-2 2-5l3-5c2 0 3 1 1 2l-1 3c1 3-1 6-3 5l-1 1c2 2 0 9-2 9-2 1-2 0-1-2v-3l-2 2c-1 1-2 3-2 8l1 6 2 1h1l1-2 1-1 2-2v-2h1c2 2 2 3 0 3-2 1-2 8 0 8v1c-1 2 0 2 4 1l-1-1v-1l3 4 4 3 3 2c1 1 4 2 3 0h-1v-2h1l1 1v-1l2-1h1l1-1c1 0 4 5 4 9l1 2 1-3c-1-3-1-4 1-5 4-1 2-12-2-14-2-1-2-1-1-2 2-1 2-1 3 1 0 1 1 2 3 1h5c2 0 1-4-1-5-1 0-2-1-1-2 1-2 1-2 2 0 1 3 5 5 5 2 0-2 3 0 4 2l1 3v-3c0-2 0-2 3 0 5 1 5 1 5-1l-1-1h-3l-1-1c-1 1-3-3-3-5l4-5 1 2h1l2 2c0 2 0 2 3 1l4-3 2-2v-3c0-2 0-2 2-2 2 1 3 1 3-1 1-2 0-4-1-3v-2l-1-1h-1c2-2 2-1 4 2l2 3v-6l1-3h1v-3c-1-3 0-4 1-5 1-2 1-5-1-4l-8 2-2 2v-4c2-3 2-5 2-10l1-3c2 0 0-1-3-2l-3 2m325 0c1 1 2 2 1 3h1v2c-3 3-2 3 2 2 4 0 4 0 6 3 1 4 5 7 5 5h1l2 1 1 1c1 2 1 2-2 2l-2 1-2 1c-3 1-4 2-2 3v1c-3 0-4-2-3-6a3 3 0 013-4h-4l-3-1c0-3-1 0-2 3l-1 4c-2 1 2 4 5 3l3 1c0 2 1 2 6 1 6-1 7-2 6-5v-2l-3-6v-1l-1-1-1 1-3-2-2-3 3-1c1-2-3-3-5-1h-3c-2-1-2-1 0-1 3 1 3-3-1-5-4-1-6-1-5 1m-7 3l-3 4c-3 1-4 2-4 5-1 3-4 4-4 1l1-1 1-1h-3c-2 2-1 3 2 6 2 3 2 3 3 2 0-2 0-2 2 0 3 5-2 5-11 0h-6c-2 0-5-4-3-4l1 1 1 1 1-1c-1-1 0-1 1-1l2-1-3-1c-2 0-2 0-1-2 0-3-2-1-3 2l-2 2-2 1c-2 2-2 2-3 1h-3l-2 1c0 2 4 3 4 1l2 1 2 2-2-1-2-1 1 2 2 4 2-1 2-2h1c2-2 3 1 2 4-2 1-2 1-3-1l-1-1 1 2c1 1 0 4-2 4-1 1-1 1 1 1l4 3c2 4 4 3 7-2h3c-1-2 2-5 3-4l-1 1v1h4c0 2 2 1 2-2s0-3-3-3h-4l1-1h6c5-1 5-1 5-4l-1-5c0-2-1-2-2-2-3 1-2-2 2-6s5-7 3-7l-1 2m-265 11c0 3 0 4-2 2h-3v1h2v3l-1 3h1c2-1 4-1 4 1 1 1 1 1 0 0-3-2-2 2 1 6a4 4 0 012 4c2 1 2 7 0 8-1 2-3 2-3 1l-1-2 2-2c1-1 1-1-1-1-1 0-2 0-1-1l-1-2-1-1v5c1 2 1 2-1 2h-1l1 1v1h-1l-1 2c1 3-2 3-3 0l-3-2 1-1v-1l-3-3-2-2h-2l1-1h1c1-1 0-1-1-1l-3 1-2 1 1 1c2 3 2 3 1 4l-1 3 1 3-2-3c-2-2-2-2-2 0l-1 3 1 2 1-2c1-1 1-1 1 1l1 2c1-1 1 0 1 1l1 2v1l-1 2h-3c-2-1-2-1-1-3 1-1 1-1 0 0l-2-1v-2l-2-1c-2-2-2-2-4 0s-4 2-4 1l-2-7v-1c1-1 2-2 1-4 0-2-2-2-2 1l-1 3v-1l-1-1c-2 2-1 4 1 5 2 2 2 2 0 0-2 0-4-2-5-3-1-2-2 1 0 4 1 3 0 5-2 3h-1l1 2v3c-1 1-1 1-1-1-1-1-1 0-1 2l2 4 1 2c1 3 2 3 4 1l2-2 1 7a398 398 0 014 33v8l1 4v6c0 8 1 16 3 15 3 0 5 17 3 19-4 3-6 2-6-2 0-3-1-4-4-4l-5 1c-2 2-2 2-2 0-1-1-1-2-3-1-2 0-2 0-2 4-1 4-2 5-4 3l-1-2v-1l-2-1-1-1-1 1-3 2v-2c1-1 1-1 0 0h-5c0 2 5 4 6 3l2 1c0 2-3 8-5 8s-2-3-1-4l1-3c-1-1-1 0-2 2-2 3-2 4 0 4l1 3c0 2 0 2-1 1s-1-1-2 1c-3 5-4 7-2 8 1 2 1 2-1 2v2c-1 0-2 1-2 3l-2 2v1c0 3 3 1 3-2l1-2 1 4c0 3 0 3-1 2l-1-1-1 3c-2 1-5-3-4-5l-1-1c-1 1-1 0-2-1l-1 5a15 15 0 002 8h-6v-4c2-3 3-6 1-6h-3l-2 1-3 4-1 4c-1 4 1 11 3 8v-2c-2 0-2-1-1-3v-2h1l3 2c5-1 5 0 3 6l1 1 2-1h1l1-1 1-1-1 2c-1 2-1 2 1 3 3 0 4 1 2 3l-1 2c0 2 0 2-1 1l-2-1-2-2c-1-1-1-1-1 1l1 2v2c-1 2 0 2 3 1l3-3h2l1 4v4c1 1 0 2-1 4-2 2-3 5-3 7l-2 5c-1 1-2 2-1 3h-1v-3l-3-1c-2 0-2 0 0 1 1 1 0 1-3 1h-15l-1-2 1-1 3-1h-3l-3 1-2 4-3 5c0 3 2 2 2-2l3-3 1 2c-1 1 0 1 1 1 2 0 2 0 1 2-4 7 7 9 25 3l9-3-2 4a16 16 0 00-9 9 2 2 0 000 3c1-2 4-2 4-1l-2 1v1l4-1h4c1 2 2 3 2 1v-1l1 3 3 4v3c-2 0-2 0-2 2s0 2 23 2h22l-1-3-1-26c0-25 0-26 6-25 2 1 3 0 5-2 3-3 6-3 8-2 2 2 6 3 6 1l-2-1c-1-1 1-1 4-1l5-1 1 1c1 5 13 10 15 7l-1-1-1-1 1-1h2l-1-1h-2v-1l1-1-3-2c-2-3 0-2 3 1 2 2 5-1 5-4 0-2 0-2 1 0l1 4c-1 2 0 3 1 3l1-1c-1-1 0-1 1-1l2 1-1 1a2 2 0 00-2 2c3 0 5 6 3 7v-2l-1-2c-2 0 0 5 3 8 4 3 5 3 3 0l-2-2c4-1 5-1 4 2 0 3 0 3 1 2l2-2 1-2c1 1 2 0 2-2l1-3v3c0 3 3 3 3-1 0-2 1-1 4 1a4 4 0 013 4v-3c0-3 3-12 5-12l-1 3c0 3 0 3 1 1l1-4c-2-8-2-9-3-8l1-7c1-1 2 2 2 5 1 5 3 5 3 1l1-4 1 3v2l1-2c1-1 1-1 1 2l1 4c2 0 2-1 1-3l1-4 1 1h1c2-1 3 2 3 6l-1 5-3 2-1 1c-2 0-2 3-1 4 2 3-2 7-6 7-1 0 0-2 3-3s4-3 2-3l-1 1h-1c-2-1-2-1-4 2 0 2-1 3-1 1 1-2 0-3-2 0-1 1 0 2 2 4 2 1 3 2 2 3l-1 8c1 0 3 5 2 9l1 1 1 2 1 3 1-1 1-2 3-7c5-10 6-10 11-5l5 4 1 1v1l1 3 2 5 5 6 3 2-1-3c-2-2-1-2 2 0l2 2 3 1 5 1c4 2 11 3 13 3l3 2 8 2c4 0 6 0 5-1a2 2 0 112-1c1 2 2 2 81 2h80l-3-2c-3-3-4-5-2-5l3 3c2 3 2 2 1-3 0-4 0-5-18-17l-30-23-19-13-8-6h1l9 5a733 733 0 0111 6l-25-17-1-2 5 3 23 13a376 376 0 0150 32l3 1c1-1-5-6-7-6l-1-1-2-3c-2-2-3-6-1-6l2 4 4 3 2 2c3 5 3 0 3-40l-1-41-4-5c-4-4-11-7-10-4l-1 3v4l-2 2-3 2 1-3c0-2 0-2-2-2h-3c-1-1-1-1-1 1l-1 1-2-3v-3c-2-2-1-2 2 0l9 3-1-3c-2-3-2-4-1-6 1-1 2 0 3 1 1 2 1 2 3 1h1l1 1-1-3-5-3-2-1c0-3-3-5-5-5v-2l-2-2c-2-1-3 1-1 3v1c-2 1-2 0-2-2l-1-1v-1c2 0 2-4 0-7l-2-2v3c1 4 0 5-1 3l-3-1c-1 0-2-1-2-4l1-2c2 2 3 1 3-1s-8-10-9-8a4 4 0 001 3h-6c-1 1-1 2 1 3l-4-1-7-4c-4-2-8-2-12 0v1c1 0 3 1 3 3 2 3 2 4 1 4h-3v-2c2-1 2-2 0-3-1-1-2 0-3 3v2c-1 1-1 2 1 1 2 0 5 2 3 3v3l1 2-3 1-3-2-1-1 1 3 1 2c-1 1 1 3 4 2l3 1-1 1c-1-1-4 2-4 4v1l-3 1v3c1 2 1 2-1 2h-2c0-2-6-8-6-7l-2-6-4-5c-2 0-2 0-1 1l-2-1c-1-1-2-2-4-1-2 0-2 0-1-1a5 5 0 000-6s0 2-2 3l-2 1 2-2v-2l-1-2-1-1-1 3c0 1-1 2-2 1l-2 2v4l2 2c1 2 0 2-1 2-2 0-2-1-2-2h-1v2l1 2c0 1 0 2 2 1 2 0 5 2 4 3l-2-1c-2-2-4-1-3 2l1 1 6 2h-3c-3-1-4 0-2 2l2 2c-1 0 0 2 2 3 2 3 2 3 0 2l-2-2-1-1c-1 1-4-3-4-4v-2l-1-2v-1c-1 1-4-1-2-2h1l1 1-1-3-2-6-1-2-1 4c1 2 0 4-1 5l-1 3 2-1c1-1 1-1 1 1 0 3-1 3-2 1-6-5-10-14-8-20v-2l-1-2c0-4-5-7-6-3l1 2v3c0 3 0 4 2 5 1 1 2 2 1 3l1 4 1 3c-1 0-5-6-5-8l-1-2c-2 0-2 0 0 4s3 9 2 9-2-2-2-5c0-2 0-2-1-1h-3c-3 0-2 2 4 6 4 2 5 4 6 9 0 3-1 3-2 3-1-1-1-1 0 0l3 1 2 2c1 2 0 3-3 3-3-1-3 1 0 2l2 1 2 1 3 1h-3c-3 0-3 1 0 3l2 2c0 2-6-2-8-5l-3-2c-2 2-3 1-3-1l-1-2v2l-1 2-2 1c-2 0-2 0-2-2s0-2-1-1c-2 2-3 2-4 1-2-2-4-8-3-9l-3-1-2-4-2-5v6a3 3 0 01-1 3l-2-1c-2 0-3-3-1-7 2-2 2-7 1-5-1 1-2 2-1 3a2 2 0 11-3-1c1 0 1-1-1-1-1-1-1-1 1-2 1-2 1-2-1-3v-5c2-3 0-4-4-3-5 0-5 2 1 18 1 3-4-2-7-7-2-4-4-5-2-1v3l-1 2-1 3v-2a7 7 0 00-8-9l-4-2-5-5c-2-3-3-3-4-1-1 1-1 1-1-1s0-2-1 1l-2 4v-5c0-3 0-4-2-4-2-1-3 1-2 4v4l-2 1 2 1 2 1v3a2 2 0 11-2 2l-1-3c-2-1-2 1-1 4v1l-2-3-3-5-1-3-1-2v-3c1-1 1-1-1-2-1 0-2-1-1-2l-1-2-1-2-2-3h-1c3 2 2 3-1 3l-2-1 2 2c3 2 4 5 2 5v2l2 1h1c0 2-1 2-2 1-3 0-3 0 2 13 2 6 2 10 0 10l-6-14c-2-8-5-13-5-13-1 1-1 0-2-1-1-2-1-2-3 0-1 1-1 1-1-2 0-2 0-3-1-2l-2-3-1-3v6l1 6 2 7h-2l-1-1c1 2 1 3-2 4v2l1 3c-1 1-1 0-2-2l-6-13-2-4v-2c1 1 1 1 0 0h-3l-3 1v-1l-1-3-3-3c-2 0-2 0 0 1l2 2 1 3 1 5-1 2c-2-1-2 0-2 2l-1 2-3 1v2h-1l-2-5-2-2v4l-2-2-2-6c0-2-1-1-1 2v7l1-1v-1c2-1 2 0 2 2l-1 4h-2v1l-1 3c-2 0-2 1-1 1a4 4 0 01-1 5l-1-2v2c0 2 0 2-1 1-2 0-2 0-1 2 1 3-1 5-2 3-1-1-1-1-1 1l1 5 2 2 4 1c2 0 2 0 3-2 0-4 3-5 3-1 0 3 1 5 2 3h2l4 1c4 0 4-1 4-4l-4-16c-1-5-1-5 2 0l1 3 1 8 1 9c0 1 9 2 10 1h4v1c-1 1-1 1 1 1l2-1v-1l2 1 5 2c5 0 5 0 5-3 0-2 0-2-2 0v-1c1-2 1-3-1-4l-1-2c2 1 2 0 0-8-2-7-1-8 2-3 3 3 3 3 1 2l-2-2v2l2 7 2 6 1 3c0 3 2 4 5 4l5 1 1-1c-1-1 0-1 1-1v-2c-2-2-4-9-4-12 2-3 4 3 3 7l1 3 1-2c-1-1-1-1 0 0l1-2v-3l3 11c0 3 3 4 3 2a3 3 0 013-1l2 3c1 1 1 1-2 1-4-1-6 1-4 4 2 4 3 14 1 14v-1l-1-1v-1l-1-3-1-2-4-11-7-1-5-1v3c0 3 0 3-1 1 0-4-2-5-9-5l-6-1v5l1 5-1-5c-1-6-2-6-9-6-5 0-6 0-6 2a81 81 0 013 16l-2-2v-5l-1-6c-1-6 0-6-7-7-5 0-6 0-6 2l-1-1c-1-2-8-3-8 0-1 1-1 1-2-1 0-2 0-2-1 0h-1l-2-2c-2 0-2 0-1-1 1 0 2-1 2-3s0-2-1 0l-4 3-4 1h-1c-1-2-9-3-9-1h-1c-1-3-1-4 1-4l2 1a2 2 0 004-1l1 2 4 1c3 0 3 0 2-2l-1-4-1-4c0-2 0-2 1-1h1l-6-13-1-5-3-7c-1-2-2-3-1-4l1 1 1 3 2 2v-4l-2-9-1-5v2h-3c0 2-3-2-3-4s0-2-1-1h-1c0-4 3-6 6-5a3 3 0 005-1l-1-2a2 2 0 00-1-4l1-1 2-1c1-2 6-3 7-1 0 2 2-1 2-4 0-1 0-2 2-1l-5-5-8-6c-2-3 0-4 3-1 1 1 3 3 5 3 3 0 3-1-2-3l-3-3 3 1 3 1-2-2c-2 0-3-1-3-2 1-1 5 2 8 5l3 3 5 1c4 2 4 2 4 0l-1-3c-2-1-2-7-1-7l2 2c3 4 5 4 4 0v-9l1-2c-1-2-1-2 1-3l2-2 1-1a1 1 0 100-2l-2-1-3 1-6 2h-3l-1 1v-1l5-2c2 1 4-2 2-4l-1 1a1 1 0 11-2 0c0-3-2-5-3-5l1 2 1 3-1-1-1-1c-1 1-2-1-1-5 0-3 0-4-1-3h-2v-2l-1-1-1-1h1l1-1-3-1h-1v-2c-1-1-1 2 1 6l1 4-1 3c0 2 0 2-1 1-1-2-1-2-2 0l-1 1-1-2v-1h2l-2-1-1-1c1-2 1-2-1-1s-2 1-1-1a2 2 0 012-2h-2l-4-6h-1l1 9c2 0 1 2 0 2-2 0-2-1-2-3l-1-1 1 5c2 1 2 1-2 1-2 1-2-1-1-3l-1-3a6 6 0 013-7l1-3c0-3-1-5-4-3l-2 1 1-1 1-1v-2c1-2 0-3-2-1h-7c0-1-1-1-1 1h-1l-1-2v4m-22 0l-1 3c1 3-1 9-3 9v3c-2 1-5 8-4 11a5 5 0 01-3 7l-1 1 4-2 3-3c-2-1-1-4 1-5l2-2 2-2 3-3 1 1h2l-1-1v-3l-1-1c-1 1-4-5-3-7l1-2v-2a5 5 0 01-1-5l-1 3m-68 74l-3 1h-2l1 35c0 41 1 45 3 43 2-3 3-9 0-11v-12l1-58v2m338-1a6 6 0 000 4c0-3 2-1 2 1l1 2 8 7c15 15 16 15 17 13l1-2h-1c-1 1-1 1-2-1s-1-2 1-1l2-1-2-1c-2-1-3-2-4-5-2-3-2-3-6-3h-5c-2-1-1-1 7-2 1 0 2 0 1-1l-3-3-2-2-3 1v-1a1 1 0 100-2l-4 1-4-1c0-2-3-4-4-3m-365 3l-3 1c-2-1-2 0-2 2 1 2 0 2-1 1h-1l-1 2h-6c-1-1-3 2-3 5l-2 1v1a3 3 0 010 3l-5 1 1 1c2 0 0 1-2 2-3 0-4-3-3-6 1-2 2-2 4-2s3-1 3-2 0-2-2-2l-2 1-1 1-2-1h-1l-1 11 1 6c0-2 1-2 5-2l5-1c1-1 1 0 1 1 0 4-1 6-2 5v1c0 2-1 2-3 2-4 0-7 2-5 3l-2 3c-2 2-2 2-2 0l-1 1-2 3v-2l-1-1c-2 2-4 0-4-4l-1-5v5c0 5 0 5-1 4h-3l1 1c1-1 2 0 3 10l2 6 4-9c1-1 4 0 6 1 6 2 8 2 12-1 5-3 5-3 1-4-3-1-2-2 2-1 2 0 3 0 2 1v2c0 2 0 2-2 2l-3 2v1l2-1c0-1 1-1 2 1 2 2 1 3-2 3l-2 2-1 1c-2-1-2 1-1 3 2 3 4 2 4-2l1-2c2 0 1 5-2 9v3l-1-1c-1-2-3-3-3-2v5c-1 2 0 4 2 2h2a3 3 0 000 6c3 2 2 6-1 8-2 2-6 4-6 2l4-3c1 1 1 0 1-3 0-4-1-4-4-4l-3-1 2-5c1-5 1-5-1-4h-3l-1 2c0 1 1 2 2 1v3l-1 2c1 2-1 7-2 6v-5c0-4-2-6-2-2l-1 1v-2c1-3-2 0-3 3l-2 3-1 1-1 4v2l5-1-1 2v2h1l2 2c2 0 3 0 3-2 0-3 6-8 7-7v1l-1 2-1 1c-1-1-2 0-2 1-1 2 0 3 1 2v2l1 1h1l-2 3c-2 1-2 2-2 4 1 2 1 2-2 2h3c11-1 10-1 11 2 0 4-4 9-6 6-1-2-3 0-3 4-1 3-1 3-3 3-4 0-4 1-3 6 2 3 2 3 0 5l-1 3-1 1-1 1c0 1 1 2 3 2s3-1 3-2c0-4 1-5 3-4l4 1c4-1 2 0-3 2l-3 2 7-2c8-4 10-4 5-1l-5 5-6 5-5 2 15-5c4-1 7-2 8-1l2-1 1-2h2l2-1h1c0-2 3-5 6-5 2-1 2-2 1-4l1-3v-6l-1 3c0 3 0 3-4-1l-3-3 3-8 3-9 2-2c2-2 2-33-1-32l-2 3c0 2 0 2-2 0l-3-5c0-2 4-8 4-6l2-3v-4c-1 0-2-5-1-6l1-29v-1l1-7c0-5 0-6-1-3l-1 1c0-2-4-4-6-2m401 27l1 4 1 2c0 2 0 2-1 1-2-1-3-1-2 1l2 1 1 2c0 2 6 9 8 9l3 2c0 3 11 14 13 14a15 15 0 00-3-15l1-1c2 2 3 1 3-1l-1-2c-2 1-5-1-5-2l2-1 3 2c2 1 1-10-1-12l-2-2-1-2v1l-1 1c-3-1-3 1-1 4l1 5-1-3c-1-2-2-4-5-5-2-1-5-2-6-4l-3-2 2 3 2 7c0 4 1 6 3 6l1 1c0 1 3 1 4-1 1-1 1-1 1 1l-2 2c-2 0-2 0-1 1v2h-1c1-1-1-4-3-4s-4-2-3-3-2-4-4-4h-1c1-1 0-3-1-7-3-4-3-4-3-1m-369 51c0 2-3 6-5 6v2l-1 4c-2 2-4 1-4-2l-1-2c-1 0-2 4-1 5s0 2-1 4v4l-1 2-1 1h-1a4 4 0 007-3v-2l1-2c-1-1 0-1 2-1l2-1 2-2c1 0 2-2 2-5l-2-1 1-2c2-2 4-7 2-7l-1 2m252 2l1 2c1 2 1 2-3 1l-5-2h-2l-4 2-1 1 5 1c8-1 12 1 13 4 0 2-1 3-2 3v1c1 0 2 1 2 3l1 2 2 2c2 2 2 2 1 0v-18c1-1 1-1-1-1l-2-1h-5m-171 7l2 1 2 1h2l4 3c2 3 3 3 2 0l2 1 2 4h1c0-2 1-2 4 0 1 1 1 1 1-1-1-3-1-3 3-2l6 2 5 1h3l2 1h3l5 2 6 1h2c1 1 3 2 10 3l5 2 2-2v-3l-1 1c0 2-3 0-3-2h-1c0 2-4 2-6-1h-1c-1 2-6 0-6-2h-1c0 2-2 3-3 0h-1l-10-2-12-3-3-1h-3c-2 0-2 0-2-2s0-2-1-1l-1 2-6-2-2-1h-11m-147 5l-1 4-2 1-1 4a12 12 0 01-1 8l-1 2-1 1c1 1-1 5-2 6h7c4-1 4-1 3-4v-8l-1-4v-5l2-6-2 1m92 11c-2 1-2 1-2 9l-1 5-1 4-1 6c-1 2-2 4-1 5 0 3-1 5-4 5l-4 2-2 2 2 2 2 1-1-1-1-1h2l2 2 1 1 1-3c-1-2 0-3 1-4 2-1 2 0 1 4v1c2 0 2-1 2-5 0-2 1-2 3-2l2-2h-2c-3 2-1-22 2-25l2-3-3-3m171 21c2 8 3 10 4 9l1 2c-1 2 0 3 2 4l1 2c-1 2 0 6 1 6l1 3c-1 5 5 18 7 16l-6-19-1-6-2-5-1-2c1 0-3-8-6-11-1-2-1-2-1 1m-204 2l-1 3-1 3v2l-1 1-1 1v4c-1 4 0 5 5 3h3c-1 2 2 1 4-1 3-3 3-5 0-4-2 0-3 0-3-5 0-3 0-6-2-7l-2-2-1 2m150 17l-1 4c0 2-1 3-2 3l-1 2v1l-1 2-1 1v3l2 4 1 3c1 1 0 4-2 4v-1l-2-2c-2 0-3-1 0-3v-1c-3 0-4 7-3 17l3 1c4 0 4-1 4-3l-1-3v-1l2-3 1-3 3-3c0-3 4-6 6-6h1v-2c1-2-2-1-4 1-5 5-12 1-8-4a7 7 0 015-4l1-3-1-2-1 2c-1 2-1 2-1-1v-3m154 1c-1 1 0 2 1 3 2 0 11 10 11 12l1 1c1-1 1-1 0 0l1 5 1 3v-3c1-3 2-4 4-2l1 1v-1l-1-1-1-2-1-6c0-4-1-5-3-5-1 0-2 0-1 1 0 3-2 2-4 0-1-1-2-2-1-4 0-2-2-5-3-3h-3c-1-1-2-1-2 1m-118 17c0 3 0 3-1 2h-3l-7 1c-5 0-6 1-5 2 0 2-2 11-3 9a1 1 0 10-1 2c1 1 1 1-1 1s-2 0-1 1l11 2c10 0 11 0 12-2l1-2 2 2c3 3 3 3 3 0 0-1 0-2-1-1l-1-2-1-2v-2l-3-1c-3 0-2 2 0 4v1c-3 0-4-2-4-4 1-1 0-3-1-3-1-2-1-2 1-3h3v1l1 1a1 1 0 003 0l-1-6-1-4c-2 0-2 1-2 3m-170 9l-5 6-5 5h10c12 0 13 0 10-8-2-3-2-3-2-1l1 3v1l-2-2c0-2-4-5-7-5v1" tabindex="-1" itemprop="bold" style="fill: rgb(1, 9, 9); fill-opacity: 0.675; fill-rule: evenodd; color: rgb(128, 20, 20);"></path></svg>