<svg id="16282281824-posters-1618099207550" itemscope="" itemtype="/posters" itemid="/+16282281824/posters/1618099207550" viewBox="0 0 512 683" preserveAspectRatio="xMidYMid slice" tabindex="0" xmlns="http://www.w3.org/2000/svg"><rect itemprop="background" width="100%" height="100%" fill="white" tabindex="-1" style="fill: rgb(228, 228, 220); color: rgb(4, 4, 58);"></rect><path d="M0 76v76l5 11 6 11 4 6 3 6c0-2 2 2 3 4v3l2 3 2 4 2 3v3l1 1 1 1 2 7 5 12c3 9 10 23 17 30 6 8 12 19 12 22l3 3c2 1 3 4 5 7l2 6-5-6-5-6c0-1-6-12-12-20-6-7-11-16-30-55L1 163l-1 28c0 27 0 29 2 33 2 5 2 6 0 4s-2-2-2 226v229h225l229-1c4 0 4-1 4-3v-1c1 1 2 0 4-2s2-2 4 0c2 1 2 1 0 3v2h8c-1-4 5-7 6-3 1 1 1 1 0 0v1l1 3 30 1 2-1V0h-19l-3 33-5 42 2-51c3-24 3-24-1-24h-3l-1 16-2 30a248 248 0 01-3 30l-1 7-1 12c-1 9-2 13-5 11-3-1 0-51 4-102l1-4h-6c-7 0-9 2-9 8 0 3-4 12-5 11l-3-16V0h-7c-9 0-9-1-7 10l2 23 4 42c2 16 2 20 0 19l-1-1-1-1c-2-1-2-2-2-4l-3-19c-1-2-25 14-24 17l1 13a104 104 0 010 17v2l-4-18a810 810 0 00-6-31l-3-24-4-18v-4c0-3-1-3-5 1-2 3-10 6-11 5s8-10 12-11c3-1 3 0 1-13l-1-4-14-1h-14l-14 14c-13 12-14 13-14 10 1-3 8-13 15-21l3-3h-57l-2 3c-2 3-6 4-10 2l-6-1-9-2c-4-1-37-2-138-2H0v76m0 1c0 42 1 59 1 38a6503 6503 0 00-1-38m425-42a14 14 0 00-4 15l-2-6-1-3v10l-2-3c-4-3-5-3-5 2 0 3 0 3-1 2v13l1 5 1 4 23-15c2-2 2-12 0-15l-1-2c1-1-3-8-5-8-1-1-3 0-4 1M145 66l-1 9v5l12 3c23 6 72 14 74 12 2-1 7-9 7-11-1-3-4-4-29-10-15-4-42-10-56-11l-5-1-2 4m331 41c-4 2-6 4-6 7l-2 4c-6 6-6 7-7 13 0 7 0 7 2 7 3-1 3-2-4 21l-6 21-2 5 6-1 8-2 13-48 1-28-3 1m-288 24l-13 24c0 2 3 3 8 3 3 0 15-14 22-26 4-8 4-9-6-10l-4-1-7 10m42-6a71 71 0 00-18 21l-3 9-5 8-2 6c-5 9-5 8-2 15a22 22 0 013 8v2l1 1 2 2c0 1 1 4 3 5l1 1c-2 0 2 4 7 9l5 4 5 10c0 1 1 1 4-1l11-6c10-5 10-4 6-14l-3-9v-4c1-1 1-1 1 1l1 2 1-3v-10l1-4 1-4-1-1-1-1c2 0 2 0 1-3v-3c1 1-7-23-11-31 0-3-1-2-4 0l-2 3 2-3 3-6 1-4c4-4-4-4-8 0m148 7c-12 8-12 17 0 12 10-3 14-8 10-13-2-4-2-4-10 1m-96 1c-7 4-9 8-7 15 3 5 7 5 14-1 7-5 0-18-7-14m-64 35l-9 10 5 13 10 23 2 5 3-2 4-2 2-2c4 0 5-1 5-5 0-3 0-4 2-5l2-1-12-32-1-3-2 2c-3 3-4 3-5-1 0-3 0-4 2-6l2-2-10 8m47 8l1 5 1 4 2 7 1 5-1-1-1-2c-2-3-2-2 5 20l7 17c0 1 5 1 7-1l-6-18-7-20a73 73 0 00-5-13l-2-4-2-3v4m-148 2v1l-1 3c-2 2-4 10-4 14 0 3 0 3 4 3 3 0 3 0 3-5v-2l1 2c2 3 2 3 5-3 4-9 2-14-4-14l-4 1m41 3c-4 5-7 11-7 14-1 4 5 4 9 1 6-5 12-18 8-18l-5-1c-3 0-3 0-5 4m30 2l3 7 1 1v3l1 1 1 1v5l-2 3h2c2-1 2 0 2 2 0 3 2 7 4 7l1 3 2 2-1-4-1-4c3 1 5-2 2-6l-1-4v-3c-1-3-4-4-5-1-1 2-2 1-4-5-2-5-2-6 0-7l1-2-2 1-2 3v-3l-1-2-1 2m227 8a130 130 0 00-18 14l-67 21-16 6-2 2c-5 1-11 0-12-3h-4c-2 3 5 9 7 6l4-1 11-2 73-22-1 4c-3 5-2 6 1 2 4-5 5-6 12-8l10-5 5-3c2 0 11-17 10-19l-13 8m33 9l-4 18a1888 1888 0 01-33 114c-9 31-9 32-18 33l-5 3c0 1 2 3 3 1l2-1a17 17 0 0014-13l2-5 4-16 5-18 3-8v2l1 1 1-3 3-8 5-12a9 9 0 012-6c1-1 1-2 2-1v-2c-1-2-1-2 1-2s2 0 1-1c-2 0-3-2-1-2l1-1 1-2v-1l-1-2c0-2-1-2-2-2l1-2c3-2 3-3 2-4l-1-2 1-3c0-3 2-5 2-2l1 3v-5c1-1 0-2-1-4-1-1-1-2 1-2v1l1 1 1-2-1-2a2 2 0 01-2-2l1-2a4 4 0 012-5c-1-1 2-15 6-31 1-5 1-8-1-3m-290 15l-4 2c-2 0-3 5-3 8 1 2 0 4-1 5a1 1 0 101 1c0-2 2-1 3 1l1 2 1-2c3-2 4-3 4 0v1c2 0 1 3-1 4-2 2-2 2 1 4h3v-2c1 0 6 10 5 11h2c2-1 4 1 4 5v2c1-1 3 3 3 6l-3 3c-4 2-1 2 3 0 4-1 5-3 1-8l-2-5-1-3-6-6 1-1a2 2 0 001-3l-1-4-2-4-1-4 5 9 6 11c2 0 1-1-2-7l-3-7a11 11 0 00-3-8l-2-3c-1-3-2-3-3-2-1 2-1 1-3-3-2-6-2-6-4-3m104 9l-1 3 1 3c1 1 1 1-1 2a1287 1287 0 00-29 11l-2-4-2-5v12l13-5 21-7c8-3 8-4 8-7 0-5-6-8-8-3M0 455c0 125 1 177 1 114a61550 61550 0 00-1-114m110-227c-2 0-3 1-3 3v2h13c14-1 16-1 16-4 0-2-15-3-26-1m0 9h-2l-2-1-2 2h-1c-2-1-2-1-2 1l2 2c2 0 2 1 0 2h-2v5l1 4c0 4-1 4-2 3l-1-4-1-2a6 6 0 001 7l-1 1-2 1 1 1v2c0 2 1 3 3 3l4 2c0 2-4 7-5 5h-2l-2-2-1-1-1 2v1c2 1 2 1 1 2-2 2 0 6 5 10a16 16 0 015 8c1 0 1-3-1-7 0-2 0-2 1-1l2 3 1 2c1-1-1-8-3-11-1-1 0-3 2-5a14 14 0 003-6l4-5 1-1 1-1 3-5 4-6 2-2c3-1 3-4 0-5-2-1-2-1 0-1 4 0 6-1 6-3 0-3-18-3-20 0m262 0l-1 1-6 1-10 2a49 49 0 00-18 5l-2 1c-2 0-2 0-1 2l4 1 2 1 1 1a20 20 0 0110 5c-2 0 2 4 5 4l2 2 2 1 2 1c0 2 0 3 2 4l2 3h-1l-1-2v6l-1 5-2 3 6-3 9-4 3-1-2-5c-2-6 2-27 5-27l1-2c0-2-4-5-5-4l1 1v1l-2-1c-1-2-4-3-5-2m-260 79v4c0 4 0 5-3 3-3-1-3 1 0 3 1 2 1 2 3 0 1-1 1-1 2 1l8 18c2 5 5 9 8 12a14 14 0 014 6l3 4 2 3 3 5 3 5 2 5 2 2 1 3 2 2 4 3c0 2 2 4 4 6l3 3a9 9 0 007 5c3 0 8 4 6 4l2 3c3 3 15 4 15 2h1l-1 4v1l-1 1c-2 1 0 3 4 2l2 1v1a5 5 0 01-1 6h2l1 1v1l1 2c-1 1 0 1 1 2l2 2 1 2c2 0 6 9 6 12 0 2 0 2 3 2 3-1 6 1 4 2v3l1-1c0-2 1-2 3-1s2 1 2-1 1-3 2-3c3-2 5-5 4-6v-2l2-1h1l1-1 1-2 2-1c-1 2-1 2 1 2l2-1 1-2 1-2 1-3v-6c1-1 1-2-1-5l-1-9v-1l-1-2a11 11 0 00-2-3v1l-1-2v-2l-2-2-4-3c-2 1-3 0-4-2l-2-3-5-3c-2-3-3-3-5-2-3 1-5 0-6-4l-3-3c-1 0-2 0-1 1v1l-4-6-5-5c-1 1-1 0-2-2l-8-9-9-9-7-6-1-2c-1-2-10-8-15-10l-3-3h-1l-2 1h-1l-8 2h-7l-5-5-8-10-4-5-1-3c0-1-1-2-2-1m-12 26l4 10 11 24v6l-1 2 1 5c1 4 5 5 5 2s3 0 4 3c2 5 3 5 4 2 1-2-1-8-5-12-2-4-3-4-3-1l-2-4-3-8-8-15-7-14m213 8c-2 2-1 3 1 3l18 4a3278 3278 0 0046 10c2 0 3 1 4 3l1 5v4c0 1 2 5 3 4v-2c-3-10-4-13-1-13 3-1 2-4-1-4a281 281 0 01-49-10l-5-1-16-4-1 1m-222 7l2 3 1 4 8 14 6 11a2709 2709 0 0035 61l20 37 6 11 6 11c4 9 6 12 3 5l-2-5 1-1c2-1 1-5-2-6-1 0-4-4-6-10l-7-12c-5-8-7-13-7-19l-3-11-2-9-1-6c-3-1-6 2-6 5 0 4-1 2-5-5-21-38-47-82-47-78m200 85c-1 2-2 2-7 2h-4c1 3 1 4-1 3h-1c1 3-7 10-9 8v2c1 2 2 3 1 4v1h2l1-1c1 1 0 2-1 3-2 1-3 4 0 5v2l-1 2-1 1c-1 0-2 1-2 4a3 3 0 003 5l-1 1-2 1h4v1l-1 3c0 2 0 2 1 0s3-3 4-1h-1l-2 1 1 1c1-1 1 1 1 3-1 5 0 7 1 4 1-1 1-1 3 1l1 3v2l-1 1c-1-1-1 0-1 3l1 4c1-1 2 1 3 3l1 5-2-3c-3-3-3-1 0 3l1 4c0 1 3 4 5 3v5c-2 1-3 5-1 4l3 3c2 5 5 6 6 2 1-3 3-2 3 1l2 4 3 2-2-3-2-4-1-2v-1a4 4 0 013 3l1 1c2 1 2 2 2 3-1 1 0 2 1 2 1 1 1 0 1-1l1-2v6h-2l-1 1 1 3h1l1 1c-1 1 0 2 1 1l2 1h1v2c0 3 0 3 2 3 2-1 2 0 1 2l1 4 2 3c0 2 0 2 2 2h3c1 1 1 1 1-2v-6l1 2c1 2 3 3 3 1h2c3 1 1 2-4 2-2 0-2 0-1 1l1 1v2l1 3h4l-1 1-1 3c1 1 1 1 2-1l1-2 1 2-1 3v4c-2 0-2 1-2 4s1 4 2 4c4 1 4 1 4-2v1c2 3 2 4 0 3s-1 2 3 5l3 2 3 1c2 0 3 2 3 3l1 3 4 5 1 1a3 3 0 003-4c1 0 3 2 3 5 1 3 2 4 4 2 1-2 2 0 1 3v2c2 0 4-2 3-4 0-3 1-3 4-2 3 2 4 2 5 0 3-2 5-3 5 0h7v1l-1 1 1 1 2 2c1 2 1 2 1 0l-1-4c-1-2-1-4 1-5 1-3 1-3-1-3-1-1 0-1 2-1l3 1v-8l1-3 2-2c3-2 3-7 1-6l-1 2-2 2-2-1-1-3 1-2 2-1c0-2-2-5-4-5-1 0-2-1-1-3l1-2c0 2 3 4 4 3l2 1c3 2 6 0 6-5v-4l2-1c0-2 0-2 1-1 2 2 6 0 4-2 0-1-1-1-2 1l-1 1-1-4c-1-2-1-5 1-5 2 1 3-4 2-6-1-3-1-3 1-3l1-1h3l-2-2c-2 0-2 0-1-1v-1l-1-2-2-1c-3 1-3 0-2-2l2-4-1-2c-6-4-7-5-7-7l1-3-1-2c-2-2-2-2-2 0l-1 3-1-2-1-4-2-1-1-2v1l-2-1c-3-4-3-4-1-6 2-3 0-4-2-2h-2l-2-2-2-4c1-1 1-1 0 0v3c1 1 1 2-1 2l-2-2-2-2c-2 0-5-3-4-4l-2-1h-4v3c-2 1-3 1-3-1 0-1 0-2-1-1 0 1-1 1-2-1-1-1-2-2-3-1l-1-1-1-3-1 1-1-1c-2-2-3-3-6-3-2 1-3 0-2-1 0-1 0-2-2-2h-4l1-1v-3l1-1h-2l-1-1v6c-1 1-2 1-2-2l-1-4c-2 0-2 0-1 1v2c-2 3-6-4-5-8 0-2-7-8-9-6v-1c0-1 0-3-2-4-4-4-4-5-3-7v-1l-1-1c-1-1-1-1-1 1s0 2-1 1v-3l-1-1c-1 1-2 0-3-1 0-2 0-2-1 0h-2c-2 0-4-4-3-5 1-2 0-3-2-2l-1-1-1-1-2-1h-1c-1 2-3 0-3-4v-3l-2 2" tabindex="-1" itemprop="light" style="fill: rgb(115, 146, 237); fill-opacity: 0.335; fill-rule: evenodd; color: rgb(97, 88, 61);"></path><path d="M0 57a5944 5944 0 011 79v12l8 17c9 18 11 21 15 19h2l2 5v4l-1-3c-1-4-2-4-4 0-1 2 0 3 4 13l9 20c5 14 12 27 18 34l9 15 7 11c3 4 9 17 9 20l4 11c5 12 5 14 1 11l-4-3-1-6-1-1-1-5c0-4-2-8-2-5l-1 3v4l-1 3v1c2 0 2 1 2 4 0 4 3 11 9 20l6 11a85 85 0 0016 23l4 10c5 8 6 9 4 1l-4-8-8-15c-5-11-5-11-3-12 2-2 2-2 1-6-3-8 0-5 5 5 5 12 6 12 2 2l-2-10-1-5c-2-1-6-8-6-9a15 15 0 018 11l3 5 1 4h2c2 1 4-3 2-4v-1c0-3-4-8-5-8v-2c1-1 1-3-1-6-3-5-3-5 1-4 3 0 4-1 1-3a4 4 0 116-4c1 3 1 4 5 4h6l-1 1c-3 0-4 2-2 4l3 2 4 2c3 2 9 2 7 0l10-4 5-1 11-2c5-1 8-2 10-4 3-2 3-2 3 0l3 2c4 0 6 2 9 8 1 3 2 5 3 4a4 4 0 013 6c-4 0-7 9-3 9l3 3c2 4 8 11 10 11a54 54 0 0127 15l3 1 4 1 1 1c0 1 6 4 9 4h8l-1-1c-2 0-1-1 2-3 2-1 2-1 1 1-2 2-2 2 0 3h1v-1c1-1 2 0 1 1l1 2h3c2 1 2 0 1-1h1c1 1 2 1 5-1l4-2 2-1 4-1 3-2c2-2 4-3 5-2l3-1 2-1 2-1 2-1 1-1c0-1 2-1 3 1 0 1 2 2 2 0v-1c0 2 2 1 2-1h1l2 2 1 1v2l-3-1h-2l-3 5c-3 4-4 5-2 5l1 1h1l2-1c-1-1 0-2 1-2l2-1c0-2 1-1 4 1l3 3h3a3 3 0 013 2c2 0 3 0 2 1h2c1-1 3-2 4-1 2 0 2 0 0-2l-2-1-1-1h-2l-1 1c1 2 1 2-1 1-2-2-3-3 0-2l1-1h3l3-1 2 1h2l2-1c2 0 2 0 1 1l-2 4-1 2-5 2-2 2-3 3c-4 3-5 5-3 7s5 2 4 1h-1a1 1 0 01-1-2c1-1 5 3 5 4l1 1h2l-1-1-1-1h3a3 3 0 013 3h-1 2c4-1 4 7 1 10l-3 3v1l-2 2 1 1 1 3c0 2 0 2 1 1h1l2 1c2 0 2 0 2 2-1 1-1 1 0 0 2-1 2-1 3 1l1 2 1 1c-1 2 0 3 6 8l3 2c-1-2-1-3 1-1l8 6 4 2 6 2h2a21 21 0 003 3v-1l1 2 2 2a3 3 0 013 4c1-2 2-1 2 1-1 2 1 3 1 1 1-1 2-1 3 1l3 2 1 1h1c2-2 4 0 3 2v1h2c0 2 6 5 7 4s2-1 3 1v2c-2 1 0 5 3 4l1 1 1 1 3 1c2 0 2 0 1-1h1a1 1 0 102-2v-1c2 0 6 4 5 6s-1 3 1 2c2 0 2 0 2 2l2 2c1 1 2 2 1 3l1 2c2 0 3 3 1 3a1 1 0 000 2l1 1 1 1c2-1 2-1 1 1l-1 3 2-1c0-1 4 1 4 3h1l1-1h1c1 0 3 2 4 5l2 5 1 2c-1 1-1 1 0 0 2-2 4-1 8 3l2 1h4l1 1c1 1 2 2 3 1v1c-1 1-1 1 2 4s5 4 5 2l1-1v2c-1 1-2 2-1 3h2l3 7 5 4c0 2 1 2 1 0l2 2a5 5 0 004 4l1 4a9 9 0 002 5l-1-3c1-1 3 1 3 3l1 1 3 1c2 3 4 4 4 1h-1l-1-1h2l1-1 2-1c1 1 1-1 1-13l1 59 1 72V577l-1-107v-1l1-120-1-90c0 20-1 24-1 13v-16l-2 1c-2 0-3 1-3 2l-2 3v3c0 2 0 2 1 1s1-1 1 1c1 1 0 2-2 3l-3 1-3 2c-3 2-5 3-5 1l1-2v-2a7 7 0 010-9l-2-3c0-3 0-3 2-1v-7l-3-1c-2 0-2 0-1 1v1l-1 2h-2a2 2 0 10-4 3l-2 1-2 2-2 1h-2l-1 1a2 2 0 01-3 4c0 1-1 4-2 3v1l-2 3-2 2-1 1v1l-1 1-2 2-1 5-1 3c1 1 0 2-1 3l-1 2c1 2 0 2-2 0h-1a6 6 0 01-3 5h-1c-2 0-1-3 1-8 2-3 2-5 1-6v-4l1-11a100 100 0 016-23v-10l1-8-2 5-2 12a698 698 0 01-10 51 272 272 0 01-8 34c-8 30-14 50-16 52l-3 4c-3 5-8 6-18 4l-10-4c-1-2-1-2-1 0s-1 3-4 1l-5-3-46-14c-19-6-20-7-22-12-3-8-1-9 16-6l13 2-5-20c-3-2-9-3-14-3-12 0-12-2 1-5 4 0 10-4 10-5l-1-6-2-5h5l6-1h39c35 0 38 0 38-2a8810 8810 0 0022-82l10-35h18l-3 15-1-2c0-4-1-2-3 8-2 12-2 16-1 14 0-2 4-4 11-6l23-9 6-1c7 0 10-1 10-3h1l1-102V0h-17v3c-4 23-9 89-6 88 2 0 1 2-1 3l-2 4-2 3c-2 0-1-50 2-74a675 675 0 003-26l-2-1h-3l-1 22-4 38-2 30v14l-3 2c-4 3-5 3-5-1 0-1 0-2-1-1V89c0-10 1-31 6-82l-1-7-1 1c0 3-16 21-18 20l-2-11-1-10h-12v6l2 14a465 465 0 012 30l1 9 2 22 6 52c0 6 0 8 2 8 3-2 4-2 2 0l-3 2-3 4c-2 3-2 3 2-1l8-5c3-1 4-3 1-2l-2-1c0-9 2-14 6-19l4-7 2-3c5-3 17-7 17-6 1 1-1 12-3 17-3 5-2 8 0 6s2-3 2-5c-1-3 1-5 3-3 6 5 1 16-6 16-4 0-4 0-7 13l-3 9-2 9-4 12-2 6c0 1-5 3-11 3s-6 3 2-25l5-20c-1-1-21 23-28 33l-15 31c-1 6-3 9-3 5 0-2 0-2-2-1l-6 1a11 11 0 00-12 8l-5 5-4 6-2 4-1 1-1-2-1-2v1l-1 2c-3 1-2 4 0 6 3 1 3 3 0 7-4 6-6 20-4 25 1 4 1 6-1 7-7 2-18 8-20 10l-2 2c-4-11-5-12-8-13l-3 1c2 1-4 5-12 8l-14 7c-5 2-6 2-8 1-5-3-9-1-17 8l-5 4-17 7c-12 6-15 7-20 7l-6 2h-3l-6-3c-5-2-5-2-2-4 3-1 3-1 1-3-1-1 1-4 6-6a21 21 0 0010-22c0-5-2-3-3 3-2 8-8 15-12 13-2-1-2-1-1-2 3-1 2-4-1-5l-6-1-2-2-1-3v-2c-1 1-4-1-4-3l-4-1c-3 0-4 0-3-1v-1l-2-2-3-4c-3-2-2-3 1-4l13-3 11-3c1 1 3-4 3-9 0-2 0-3 1-2 2 1 1-2-1-3-2-2-2-2-2 3 0 6-1 9-4 8l-2 1c-1 4-2 1-2-5v-4l-2 3v3c2 8 0 8-3 0l-2-6v4c1 4 1 5-2 6l-2 3c0 1-1 1-3-1l-4-7c-1-1-1 0-1 1l1 4c1 1 0 6-1 7-1 0-6-5-7-9l-2-3 1 6 1 2h-1l-1 2v3c-1 1-1 1 1 1l1 2c-1 1 0 5 2 9l1 6s-12-24-11-25l-1-2v-2l-2-2c-2 0-2 0-2 2l2 6 9 26a58 58 0 015 12l11 1h11l2 6 3 13c1 7 2 9 9 10 6 0 6 1 8 4 2 7-1 7-20 3-11-2-13-4-26-34l-7-14c-2-1-2-2-1-4 0-3-2-5-2-2-1 1-2 2-3 1v2c1 1 0 2-1 3-1 2-1 2-2 0-1-6-5 2-5 12v4l-1-4-1-4c1-1-1-9-4-14l-1-5c0-2 3-4 4-2l2 1 2 4c2 6 4 4 5-4 1-4 1-5-1-6l-15 4-3 1h-7l-2-2-2-1c0-2-12-21-13-22-2-1-2-1-1 2v3l-2-2-2-2 1 2 1 3c-3 0-2 1 1 7s3 6 2 8c-2 4-2 4 0 4 3 0 4 0 3 3l1 2v1c-1 2-3 0-2-2l-4-1-1-3-4-8-4-8c-2-5-5-8-7-6-3 3-3 4 0 5 2 0 4 2 5 4 3 3 9 15 9 16l-15 5 4-2 5-2c1-1-3-6-4-6-2 1-5-6-4-7l-1-5c-3-4-3-4-4-2h-2l25-29c4-3 5-5 5-7 0-7 8-18 11-15 2 1 2 1 2-1h6l5 7 5 7 2 4 1 2c-3-4-2-1 3 8l4 13c0 2 1 3 3 4s2 1 2-1a2 2 0 013-1c0 2 3 1 3 0l1-2 1 1h1l4-1 13-3a1418 1418 0 00-14-37c-1-2-1-2-2-1s5 19 7 20l1 3 2 7v4c-1-1-2-1-3 1-2 2-3-1-1-3 1-1 0-7-1-8l-2-4-6-14-4-12-2-1c-2 1-2 1-1-2 1-4-2-13-5-11-2 2-1 5 7 24l8 20c-1 1-1 0-5-8-5-9-6-9-2 0l2 8-4-7c-3-8-4-8-8-5l-3 2-3-7v-7h3c0 2 0 2 1 0 2-5-4-12-7-8l-3 1 6-9 2-3 3-5c2-3 2-4 1-6-1-4 0-7 3-7s6-2 4-2-1-1 2-2 4-3 4-4c0-7 11-24 25-38s13-13 18-9c2 3 3 3 5 2a2 2 0 112 3l-1 1c3 0 6-3 7-8l3-5 1-2 2-3 3-3 6-9 9-12c3-5 11-14 24-27l11-11 12-15 7-7 6-8a380 380 0 0011-14c1-1-2-1-24-1h-25l-3 5c-4 5-4 5-8 5h-14l-11-1c-2-1-8-3-9-2l-4-2-5-1-4-2c-2-2-6-2-46-2h-44v2l-5 24-17 67a1598 1598 0 0120-92L75 0H0v57M364 1l-24 26-38 41-29 31-16 17c-2 4-1 10 2 14 3 5 3 5 3 1s1-6 3-3l18 52 18 51c2 3 4 3 22-3l45-15c29-9 29-9 36-15l13-9c7-4 7-4 5-18l-3-18a23568 23568 0 00-21-125c-1-1-2-3-1-4 0-2 0-2-4 1s-11 5-11 3 9-10 12-11c2 0 2 0 2-6-2-12 0-11-17-11l-15 1M156 61l-4 1h-5c-2 0-4 6-5 12v6l4 2 5 3 3 1 8 4 8 2a116 116 0 0022 5c9 2 25 3 31 2 7-2 10-4 13-11 3-5 2-6-6-9a94 94 0 01-20-9c-3-2-6-3-7-2l-2-1-7-2-4-2h-2l-4-1-4-1h-24m52 48c-2 3-4 4-6 4-4 1-7 3-5 6 1 2 1 2-1 2-2-1-5 2-8 7a6 6 0 01-4 4l-4 11c-7 12-7 14-1 15 14 3 37-21 37-38l-1-6v-3c1-3 1-3-1-3h-1c0-3-2-3-5 1m125 5a324 324 0 00-13 10c-4 2-5 6-3 6a26 26 0 0013-10c2 1 12-7 12-10s-1-3-9 4m-37 2a91 91 0 00-20 20l-3 3 1 5c2 9 3 10 8 8 7-3 13-10 12-14s-4-8-6-8c-3 0-1-2 12-13 5-4 5-5 2-5l-6 4m41 2l-5 4-2 1c-4 2-12 10-12 11 1 3 8-1 8-4 0-2 0-2 1-1 0 1 9-4 16-10l-1-2v-3l-5 4m160 5l-2 5-1 4h10c8-1 8-1 8 9l1-6-1-9c-1 3-4 3-10-1-3-2-4-3-5-2m-118 8c-8 5-10 7-10 12v4h4c8-2 20-10 20-14-2-7-6-8-14-2m-159 37c-3 3-4 4-3 6 0 1 0 3-2 4-1 1 1 1 3-1 6-5 6-5 6-2 1 1 0 2-1 4l-1 2c2-2 2 3 0 5l-5 5 4-3c4-3 4-3 5-1s0 2-3 5c-5 4-7 7-3 5 2-1 2-1 1 1-3 3 1 9 4 7 0-1 1-1 2 1h1l1-1c1 1 2 0 2-3 0-5 0-6 4-4 3 2 3 2 3 0a1 1 0 113 1l-1 2-2 2h3l3-2-6-16c-7-18-6-17-9-14l-3 2-2-3v-5c1-2-1-1-4 3M1 183v18h4c4 0 4 0 3 2l-4 1c-3 0-3 0-3 3l1 3v1c-2 3 0 9 6 18l7 11 10 14a208 208 0 0113 19l5 13c1 2 3 3 2 0h2l3 1c1 0 2 1 2 3 1 2 1 2 9 1 7-2 8-3 5-5l-2-2c0-4-5-12-11-21-7-8-11-16-30-54L1 165v18m111-6c-1 1-3 9-3 16v4l2 1 5 1c3 0 4 0 4-2h3c5 1 8-11 3-18-2-3-10-3-10 0s-2 2-3-1l-1-1m45 3c-5 6-7 14-7 21v6l-4-1c-4 0-5 0-7 5-5 9-3 12 6 9 4-1 11-11 11-16 0-4 0-4 3-5 6-2 12-14 11-20-2-4-10-3-13 1m92 39c-3 2-4 2-4 0 1-2 1-1-7 3-5 2-7 4-6 4 2 0 2 0-1 2l-3 3c0 3 4 11 6 11v-5l-1-3 2 2c2 4 2 4 5 4 4-1 5-3 3-6l-1-3c0-2 2 0 3 3s2 3 5 1c3-1 3-1 1-8-1-4 2-2 3 2 2 4 2 4 4 3 3-1 3-1 0-9-2-7-3-7-9-4m-135 8c-7 0-7 0-7 3s-2 3-2 0c-1-3-2-2-3 1 0 3 0 3 3 3 3-1 4 1 1 2h-3c-2 1-3 0-3-1h-1l1 2c1 1 0 8-2 12l-1 3-1 4v3l1 3c0 2 1 3 2 3l1 2-1 2h-2c-1 1-1 1-2-1-1-3-2-2-2 2l-2 5c-2 2-1 2 5 8l7 8c2 2 3 3 6 3s4 0 5 2l1 1-1-3c-1-2 0-3 2-1 1 1 1 1 1-1l4-3 3-2h-3l-4 1h-2c-1 0-2 0-2-2-1-3-1-3 2-2h10c1 0 2-1 2-3 1-3-4-13-7-14-4-1-7-5-6-8l3-2c1 0 5-6 5-8l2-2 2-4 3-3c2-1 2-1 2-4-1-3-1-3 2-4 2 0 3-1 3-3 0-3-2-3-22-2m174 4l-13 4c-17 4-18 4-17 7 0 2 0 2-3 1-4-2-6 0-5 3 3 6 4 8 2 7v13c1 9 1 9-1 7-5-6-5-6 0 4 8 16 9 20 8 23-2 4-1 3 9-1l11-5c4 0 7-4 6-7l2-11 1 4 1 5c1 3 1 5-1 7-3 2 2 1 11-2a100 100 0 0116-6c3-2 11-3 12-2s4 0 4-1l1-1c3 0 4-4 2-9l-2-7c0-3 0-3-10-2l-8 2-3-3-2-4-3-8-2-7 8-2c15-5 31-9 30-10l-17 4-16 4h-5c-4 1-4 1-8-3-4-5-5-5-8-4M1 351v332h103l115-1c14 0 13 1 10-11-4-10-8-20-13-24-4-4-7-5-5-2s1 3-2 1c-4-2-3-4 1-5 8 0 17 15 22 36l1 5h46l46-1a9 9 0 00-6-10l-2-2-1-1c-1 1-1 0 0 0l-1-2-1-3c0-4-3-6-4-3v3l-1-3-1-2v-1c1-1 1-1-1-1l-2-2-1-1v3c0 2 0 2-1 1l-1-3c0-2-2-5-4-5v-2l-3-6-2-5-1-3v2c0 3-3 1-4-1h-1l1 3v1l-2-1c0-2 0-4-2-5h-1l-2 2-1-1-2-1h-3l-1-2v-6c0-2-1-2-3-2l-2 1 1-4c1-2 1-3-1-3l-1 1-1 4c-3 3-4-3-2-7 1-1 0-1 0 0-2 2-2 2-2 0l-1-2-1-3c0-3-1-4-2 0-1 2-1 2-2 1v-3c1-2-2-8-4-8l-2-1-2-4-1-3-1 3-1 3v-3c0-4-2-8-3-8l-2-2-1-2-5-6-6-8-2-4-1-5v-5c-1-2-1-2-2 0-1 1-1 1-1-3l-2-3a5 5 0 01-3-4l-2-1h-3l-4 1-7 5c-5 5-5 5-5 9 1 3 1 3-2-2a2321 2321 0 01-18-35l-2-4c-1-4-6-11-9-16l-2-4-2-4-3-6-2-3-2-3-2-4-10-19-2-2-1-2-2-3-2-2-11-22-5-9-4-6-6-11a12 12 0 00-4-6l-4-6-4-8-2-3-1-2-1-2-2-2-1-3-2-4-2-3-8-14-4-6-3-5a241 241 0 00-13-21l-3-5-6-7-7-4h-1c-2 1-1-3 1-6v-3a275 275 0 01-27-38l-4-7-6-9-5-6v120m148-117l-5 4-3 3 2 3c2 1 6 9 11 18l9 16c1 1 7-4 6-5a137 137 0 00-13-25l-3-7-2-6 3 4 2 4c2 0 1-2-1-7-2-4-3-4-6-2m230 60c-4 2-15 4-32 5-10 0-15 1-16 2h36c34-1 43-2 41-3h-6l-4-1c0-2-1-2-5-2l-8-1c-3-2-3-2-6 0m-274 4l3 5 2 4 2 2 2 1 1 1c1-1 3 1 3 3a1 1 0 102 0c-1-1 1-3 3-2l-1-3c-2-4-5-7-6-6l-2-1c0-5-2-7-4-6h-3c-1-3-2-1-2 2m16 101c-1 0 4 10 14 27l5 9c1 3 1 3 3 1 1-2 2-15 0-15l-1-1-3-2-2-3-4-3c-4-3-5-4-8-10l-2-4-2 1" tabindex="-1" itemprop="regular" style="fill: rgb(49, 31, 91); fill-opacity: 0.357; fill-rule: evenodd; color: rgb(206, 225, 163);"></path><path d="M332 36l-68 73c-5 5-6 8-7 11 0 5 1 6 4 3l2-2 2 5 33 100 3 3c1 1 1-3-1-7-1-3 3-4 6-2 1 1 2 1 1 2-2 1-2 5 0 6v3c-2 2-1 1 9-2l7-3 2-1c1 1 2 0 3-1l4-1h1c-1-1 1-1 5-3 11-3 16-9 13-12-4-4-3-5 3-8a39 39 0 0112-4 9 9 0 015-1l-2 1h2l-1 1c-2 1-2 1-1 3v1h-1l1 1 6 1c1 1 1 1 0 0h1l5 1h1c-1 2-1 2 2 1h3l-4 2-4 2 8-2 5-2c-5 0-3-1 3-3a70 70 0 0023-16h2l1-1c2 1 1-9-5-44-5-34-7-42-8-40s-4 0-5-2c0-3-4-5-4-3-1 2-3 0-3-2v-1l-1-1-1-1-2-1-3-2c-2-1-3-3-1-3 1 0 2-1 1-2 0-2 0-2-1-1h-1c0-1 1-2 3-1v-1l-1-2v-1l1-4 1-4 1-6c0-4 1-6 3-8 1-2 2-3 1-4v-1l1-2-1-2V31l-1-1-2-1c0-2 0-2-2-1-3 2-10 3-10 1l5-7c5-5 5-6 5-10 1-7 1-7 2-5h1l-1-3-2-1V2c1-2 0-2-12-2h-13l-34 36M446 3l3 25a6027 6027 0 0010 100c0 8 1 9 2 1 0-5 4-12 7-14 2-1 1-8 0-9v-4l1-28 2-44a2 2 0 10-2-1l-1 2v2c0 2-2 4-3 2l1-1h1l-1-3c-1 0-1-1 1-1 1-1 1-1-1-1l-2 1c0 2-6 8-6 7-1 0 0-2 2-3l3-2-3 1-3 2-5-26c0-8-1-9-3-9-3 0-3 0-3 3m51 0l-2 13-1 11c-3 22-5 63-3 63s1 5 0 5c-2 1-3 6-1 7l1 3c-2 11-2 11 1 13l5 1 3 2c3 3 9 7 11 7l1-29-1-63V0h-14v3M310 66a310 310 0 00-33 35l-5 5c-6 7-2 4 14-12l35-38 2-1 1-1c0-3 1-3-14 12m15 6c-9 3-17 16-19 31-1 8-2 8-5 9l-5 3c-2 3-10 9-11 8l-3 2c-2 3-2 1 0-3l1-4c-1 0-6 2-8 5l-4 2c-3 0-3 3 0 13a216 216 0 0011 31 5 5 0 003 4c-1 2 1 9 4 13l2 5c0 2 1 1 2-1l1-2c2 0 1-3-1-4-2-2-5-8-5-11l-2-4c-1-1 0-2 2-1h4l-1-4v-7c1-8 1-8 3-8 4 1 8-3 7-6-1-2-2-3-3-2-1 0-2 0-2-2 0-5-2-9-4-9-3-1 0-6 5-10l5-4c1-5 3-3 4 5 8 36 43 21 43-19 0-20-11-34-24-30m-208 1l-1 1-1 1 1 1c1 1 1 1-1 1s-3 1-2 3h1c1-2 4 0 4 3l2 8 2 6c1 2 1 2 2 1s4 2 7 8c2 4 4 2 2-3l-1-4a14 14 0 00-3-7l-1 1-1-2-2-2-2-4a5 5 0 00-3-5v-5c-2-3-2-3-3-2m204 4c-8 5-12 15-13 30a15 15 0 002 12c-1 2 1 8 4 13 3 4 4 4 2-1l-1-4c1-2 26-21 27-20l1 4c0 7 2 8 3 3 3-26-10-46-25-37m-10 18v14c2 3 4 14 3 15l1 1 2-3c0-2 0-2 2-1h2l-1-3-1-3-1-4-1-5-1-6-3-4c-1-3-2-3-2-1m-189 12c-2 1-1 6 1 8l2 11c2 17 3 22 6 26a10 10 0 004 3c-3-1-8-21-6-21l9 18 1 2-6-19-6-22c-1-4-1-5-2-4-2 1-2 1-2-1l-1-1M3 114l2 7c3 8 3 14 1 14l-1 2c1 4 4 8 5 8 2 0 2 2 4 8 0 4 4 14 5 15l1 7v6h4c3 0 4-2 2-5-2-2-4-19-2-18 2 2 4 8 4 12v3c5-1 1-14-7-27l-4-7-2-1-1-1c1-1 0-3-1-7l-3-6-3-6c-2-5-4-6-4-4m381 12c-8 2-9 2-12 7l-2 3c-2 1-2 11-1 11l2 1c0 2 15-3 16-5 0-2 5-7 6-7l1 2v-7c-1-5-3-6-10-5m97 15l-9 33c-1 6-2 9-4 11s-2 2 0 2 3 1 0 12l-1 10c2 1 6-1 8-4 1-3 3-4 6-5l30-11v-47h-4c-3-1-7 0-12 3-4 1-5 0-7-3l-3-1-2-1c0-2-2-1-2 1m-367 4c-1 3-1 4 1 5s3 4 4 12c3 9 6 18 5 11l-2-7v-4l2 2 4 8 2 4-7-18-3-9c0-2-3-4-4-3 0 1-1 1-1-1l-1-2v2m343 4c-5 6-9 15-6 13l-1 7-1 5-3 11-1 3-1 5-2 5-2 2v1l-3 13-2 7a8 8 0 01-3 5v4l-1 6-2 5-1 3v2l-1 6-2 5-2 4-1 3-2 3-6 10-5 8-4 8-2 4h9l8 1c-1 2-12 2-54 3l-31 2-6-1c1-3 7-5 14-5 8 0 11-2 10-6l-2-6a2 2 0 10-2 2l3 1h-3l-4 2a23 23 0 01-14 5v1l-6 2-4 1-2 1c0 1-1 2-3 2a5 5 0 00-5 2v-2c2-2 1-3-1-3l-7 1-3 3-4 3a10 10 0 01-9 5l-3 2-5 2-6 4a52 52 0 00-10 4l-4 2h-5l-2 1h-1c0 2-4 2-7-1-2-2-3-2-3 0-1 1 3 7 5 7l2 5c2 7-1 8-16 5l-8-2c-5 0-7-3-16-20-7-15-10-19-7-10 2 3 6 19 6 21l-3-9-4-12-1-7c2-1-3-10-4-9l-2 2-1 1h4l-3 3-3 3-2-4c-2-5-2-6-4-5s-3 15-1 15a1 1 0 11-1 2c-1 0-4 2-4 4s0 2 5 3c3 1 5 5 7 11l2 1 4 3c1 2 1 2-2 5l-3 3h8l-2 2c-2 2-2 4 1 3l4-1 7-3 6-4c2 0 1 3-1 4-3 3 4 5 13 4 3-1 4-1 6 2l2 1 3 2 6 3c2-1 4 0 7 5 5 5 5 5 11 5l7 2c3 2 5 1 13-3 17-9 19-10 25-10s9-4 4-5c-7-2-12-10-9-14v1c0 4 2 7 6 9 5 2 7 1 4-2-6-7 0-17 10-17l7-2c5-3 4-2 2-12v-3h6l44-1h38l2-10 8-27 13-48a253 253 0 0110-35c-2 0-1-4 5-23 6-22 6-23 0-15M1 179c0 9 0 10 2 11l2 3 5 1c4 0 5 0 4-1l-6-12c-6-14-7-14-7-2m28-4v5c5 9 7 13 6 14 0 1-7 0-9-2h-2l5 15 8 17c1 6 13 27 18 34l10 16 6 10 25 46 8 16c1-1-1-10-3-12-3-4-4-7-3-7 1-1 5 1 7 4 3 4 5 1 3-3a103 103 0 01-6-34c1-1-1-4-3-4v3c4 1-1 5-8 7-6 1-8-13-4-20 4-5 6-15 4-22l-2-6-13-17v1l2 7c-2 0-13-13-17-20l-4-4v1l-1 1c-1-1-3-12-2-14 1-3-6-9-10-9a20 20 0 01-10-12l-2-5c0-6-1-8-3-6m43 9c-5 2-6 2-5 3v3l1 2v1c-1 3 1 5 5 5h4v-7c-1-7-1-8-5-7m334 31c-6 4-15 13-17 18-3 5-3 5-5 2-2-2-2-2-3-1 0 2 0 3 2 4l2 2 7-7a39 39 0 0113-10c1-1 0 3-4 8a69 69 0 00-8 16h2c4-2 4 0 0 4l-4 4c0 3-2 3-3 1-2-1-2-1-3 2-2 3-1 7 1 4l1-1c2 1-1 3-3 2s-4 5-4 11c0 3-2 3-11 8-9 4-16 10-16 14l25-2c1-2 4-2 12-2h11v-13c0-14 4-30 11-52 1-7 3-12 4-13 0-3-4-2-10 1m-383 5v9l1 7c0 3 3 8 3 6 1-1 4 2 5 4h1c0-3 2 0 2 4l2 8-1 2c-3 0-2 2 1 6l6 11 6 7 4 4c1 2 3 3 10 1 4-1 4-1 2-3l-2-3c0-3-4-10-11-20-5-6-10-15-16-26a140 140 0 00-11-20c0-5-2-2-2 3m174-2l4 9c3 6 3 7 2 8v4l-2-2c-1-2-1-2-5 1l-4 5c0 2 4 5 6 5 6-2 7-2 10 1 4 3 9 1 6-2h-3c-2 2-3 1-3-2 0-8 0-9-2-9l-1-4c0-4-3-11-6-14h-2m55 1c-2 1-3 2-2 3 0 2-4 4-16 9l-1-1c0-2-1-2-3-1-2 2 2 13 4 12v-3l-1-4v-2l2 2 3 4c1 1 5 0 6-1l-1-4-1-4c1-1 4 3 4 5h5v-5c0-6 1-7 3-2 2 4 3 5 5 4 1-1 1-2-1-7-3-7-3-7-6-5M1 272c-1 56-1 79 1 80v1l-1 12c0 10 0 12 2 12l1-1 2-2 3-2 1-1 6-1 4-1 5-3c1-2 2-2 3-1a2 2 0 003-3c1 1 2 0 3-1l2-1c1 1 7-4 7-5 1-3 4-7 6-7 1 0 6-8 6-10l-2-3c-2 0-6-7-6-9l-1-2-6-9-5-7c-5-4-5-5 0-8 4-2 6-5 5-7h-8c-7 0-7-1-7-3-1-4-11-18-14-18l-3-7-3-4-1-1v-1l-2-4c-1-1-1 7-1 17m307-8c0 3 5 13 6 13v2l-3 2-1 2h3c3-2 14-6 18-6 3 0 3-2 2-9-2-6-1-6-15-4-7 1-8 1-9-1-1-1-1-1-1 1m-158 20c-1 5-3 7-4 5s-4-2-4 0v4c2 2 2 2-1 2l-5-2-3-2-3-1h-7c-2 0-1 10 1 12l2 4c0 2 0 2 2 2l2-1v-2c0-4 2 1 4 9l4 7c3 1 6-1 6-3s0-2 1 0l1 4c0 2 6-1 8-5s3-4 6-1c2 2 2 2 4 1l6-2 2-3 2-3c1-1 2-2 1-3l-1-4c0-5-12-22-13-20-1 1-8 0-8-1 0-3-3 0-3 3m359 26l-4 4-4 3c-6 6-21 17-23 17-1 0-2 1-2 3h-2l-1-2-1 5-1 1-5 3c-6 8-25 26-41 39-10 8-12 9-24 6-5-1-10-2-11-1l-5-2c-3-3-7-3-7 1l-2 2c-5 0-2 12 3 12 3 0 3 3 2 6-2 3-3 6-1 6 2 1 3 2 2 4 0 2 0 2 2 2l2 1-1 1 1 2c3 2 4 1 2-2v-1l3 2 2 1-1 1 1 2c3 2 6 3 5 0l1-2v-2l3-1c2 1 5 0 6-1l5-1h1l1-1 1 1 1 3 1-1c-1-1-1-1 0 0l8 1 3 1h2l4 2c3 2 10 3 11 1h3c2 2 15 5 15 4l2-1 5-1c1-2 3 0 3 1l1 2h4c2 1 3 1 3-1l4 2 3 2 2-2 3-2c1 1 5-1 5-3h4l1 1c1 1 1 1 1-1s-1-2-4-2v-1c2-1 3-1 5 1a2 2 0 104-2l-1-1 1-1 1-38v-37h-2l-9-2c-10 0-10 0-3-7 5-5 6-6 10-6 3 0 4 0 4-2l-2-2c-3 0-3-2 0-4 2-1 2-2 2-8 0-7-1-7-2-5M24 549h-4c-3 0-4 1-4 2h-2l-2 1h-1l-1-1-1 1-5 1c-4 2-4 2-4 70v59h174v-3a24 24 0 00-1-8l-3-22-3-10-1-2v-3l-1-2c-2 0-7-6-8-9l1-1 1-1-1-4-3-3c-1 1-1 0-2-2s0-7 1-7l1-2c-1-1-1-1 0 0l1-2v-3h-5l-3 3h-1c0-2-4-4-5-2h-2l-2 1c1 1 0 1-2 1-2-1-4 0-5 1-2 2-2 2-3 0l-2-2h-2l2 1 1 1a4 4 0 01-3 1h-5l2-1v-1c-1 0-1-1 1-2l1-2h-1l-1-2a4 4 0 010-7h-1c-2 0-2-3-1-5v-1h-3c-1 2-5 2-5 0v-1c-1 0-2 1-1 2l-1 2-1-1v-1l-1-2h-4c-1-1-3-2-5-1l-3-1c-1-1-1-1-1 1 1 1 0 2-1 1l-2 1 1 1h1c-1 2-2 1-3-1l-1-1-1 2v-3l-2-1h-1l1-1h1l3-1c1-1 1-2-1-2a2 2 0 01-2-4h-1v-1l1-2v-3c-2 1-2 0-1-4v-1h-3l-3-1a2 2 0 00-3-2l-2-1-4-1H60a5 5 0 00-5-1v1l-1 1-1-2v-2h-1l-1 1v1h-1l-1-2-2-1h-1a2 2 0 01-3 2l1-1c3 0 1-2-3-2l-5-1h-2l-9 1 1-1 1-1-3 1m171 108a1610 1610 0 01-6 15c-1 4-1 4 1 3v1l-1 3 2-1 2-2 1-1h4c8 0 10-4 5-13-3-6-3-6-5-3l-1 1 1-3c2-2 2-6 1-6l-4 6" tabindex="-1" itemprop="bold" style="fill: rgb(52, 40, 14); fill-opacity: 0.961; fill-rule: evenodd; color: rgb(208, 217, 236);"></path></svg>