<svg id="16282281824-posters-1705522289401" itemscope="" itemtype="/posters" itemid="/+16282281824/posters/1705522289401" viewBox="0 0 512 683" preserveAspectRatio="xMidYMid meet" tabindex="0" class="" xmlns="http://www.w3.org/2000/svg"><g class="radial"><radialGradient id="16282281824-posters-1705522289401-radial" gradientUnits="userSpaceOnUse"><stop itemprop="radial" stop-color="hsla(211, 10%, 42%, 1.00)" offset="0%"></stop><stop itemprop="radial" stop-color="hsla(208, 11%, 56%, 1.00)" offset="15%"></stop><stop itemprop="radial" stop-color="hsla(208, 7%, 48%, 1.00)" offset="30%"></stop><stop itemprop="radial" stop-color="hsla(196, 5%, 57%, 1.00)" offset="45%"></stop><stop itemprop="radial" stop-color="hsla(180, 4%, 48%, 1.00)" offset="60%"></stop><stop itemprop="radial" stop-color="hsla(105, 1%, 63%, 1.00)" offset="75%"></stop><stop itemprop="radial" stop-color="hsla(75, 2%, 47%, 1.00)" offset="90%"></stop></radialGradient><radialGradient id="16282281824-posters-1705522289401-radial-background" gradientUnits="userSpaceOnUse"><stop stop-color="hsla(211, 13%, 80%, 1)" offset="0%"></stop><stop stop-color="hsla(208, 13%, 80%, 1)" offset="15%"></stop><stop stop-color="hsla(208, 13%, 80%, 1)" offset="30%"></stop><stop stop-color="hsla(196, 13%, 80%, 1)" offset="45%"></stop><stop stop-color="hsla(180, 13%, 80%, 1)" offset="60%"></stop><stop stop-color="hsla(105, 13%, 80%, 1)" offset="75%"></stop><stop stop-color="hsla(75, 13%, 80%, 1)" offset="90%"></stop></radialGradient><radialGradient id="16282281824-posters-1705522289401-radial-light" gradientUnits="userSpaceOnUse"><stop stop-color="hsla(211, 10%, 66%, 1)" offset="0%"></stop><stop stop-color="hsla(208, 11%, 66%, 1)" offset="15%"></stop><stop stop-color="hsla(208, 7%, 66%, 1)" offset="30%"></stop><stop stop-color="hsla(196, 5%, 66%, 1)" offset="45%"></stop><stop stop-color="hsla(180, 4%, 66%, 1)" offset="60%"></stop><stop stop-color="hsla(105, 1%, 66%, 1)" offset="75%"></stop><stop stop-color="hsla(75, 2%, 66%, 1)" offset="90%"></stop></radialGradient><radialGradient id="16282281824-posters-1705522289401-radial-regular" gradientUnits="userSpaceOnUse"><stop stop-color="hsla(211, 10%, 44%, 1)" offset="0%"></stop><stop stop-color="hsla(208, 11%, 44%, 1)" offset="15%"></stop><stop stop-color="hsla(208, 7%, 44%, 1)" offset="30%"></stop><stop stop-color="hsla(196, 5%, 44%, 1)" offset="45%"></stop><stop stop-color="hsla(180, 4%, 44%, 1)" offset="60%"></stop><stop stop-color="hsla(105, 1%, 44%, 1)" offset="75%"></stop><stop stop-color="hsla(75, 2%, 44%, 1)" offset="90%"></stop></radialGradient><radialGradient id="16282281824-posters-1705522289401-radial-bold" gradientUnits="userSpaceOnUse"><stop stop-color="hsla(211, 10%, 13%, 1)" offset="0%"></stop><stop stop-color="hsla(208, 11%, 13%, 1)" offset="15%"></stop><stop stop-color="hsla(208, 7%, 13%, 1)" offset="30%"></stop><stop stop-color="hsla(196, 5%, 13%, 1)" offset="45%"></stop><stop stop-color="hsla(180, 4%, 13%, 1)" offset="60%"></stop><stop stop-color="hsla(105, 1%, 13%, 1)" offset="75%"></stop><stop stop-color="hsla(75, 2%, 13%, 1)" offset="90%"></stop></radialGradient></g><g class="vertical"><linearGradient id="16282281824-posters-1705522289401-vertical" gradientUnits="userSpaceOnUse" x1="0" x2="0" y1="0" y2="100%"><stop itemprop="vertical" stop-color="hsla(209, 10%, 45%, 1.00)" offset="0%"></stop><stop itemprop="vertical" stop-color="hsla(209, 9%, 51%, 1.00)" offset="15%"></stop><stop itemprop="vertical" stop-color="hsla(201, 6%, 56%, 1.00)" offset="30%"></stop><stop itemprop="vertical" stop-color="hsla(185, 4%, 50%, 1.00)" offset="45%"></stop><stop itemprop="vertical" stop-color="hsla(50, 4%, 58%, 1.00)" offset="60%"></stop><stop itemprop="vertical" stop-color="hsla(211, 10%, 45%, 1.00)" offset="75%"></stop><stop itemprop="vertical" stop-color="hsla(207, 8%, 51%, 1.00)" offset="90%"></stop></linearGradient><linearGradient id="16282281824-posters-1705522289401-vertical-background" gradientUnits="userSpaceOnUse" x1="0" x2="0" y1="0" y2="100%"><stop stop-color="hsla(209, 10%, 80%, 1)" offset="0%"></stop><stop stop-color="hsla(209, 9%, 80%, 1)" offset="15%"></stop><stop stop-color="hsla(201, 6%, 80%, 1)" offset="30%"></stop><stop stop-color="hsla(185, 4%, 80%, 1)" offset="45%"></stop><stop stop-color="hsla(50, 4%, 80%, 1)" offset="60%"></stop><stop stop-color="hsla(211, 10%, 80%, 1)" offset="75%"></stop><stop stop-color="hsla(207, 8%, 80%, 1)" offset="90%"></stop></linearGradient><linearGradient id="16282281824-posters-1705522289401-vertical-light" gradientUnits="userSpaceOnUse" x1="0" x2="0" y1="0" y2="100%"><stop stop-color="hsla(209, 21%, 66%, 1)" offset="0%"></stop><stop stop-color="hsla(209, 21%, 66%, 1)" offset="15%"></stop><stop stop-color="hsla(201, 21%, 66%, 1)" offset="30%"></stop><stop stop-color="hsla(185, 21%, 66%, 1)" offset="45%"></stop><stop stop-color="hsla(50, 21%, 66%, 1)" offset="60%"></stop><stop stop-color="hsla(211, 21%, 66%, 1)" offset="75%"></stop><stop stop-color="hsla(207, 21%, 66%, 1)" offset="90%"></stop></linearGradient><linearGradient id="16282281824-posters-1705522289401-vertical-regular" gradientUnits="userSpaceOnUse" x1="0" x2="0" y1="0" y2="100%"><stop stop-color="hsla(209, 10%, 44%, 1)" offset="0%"></stop><stop stop-color="hsla(209, 9%, 44%, 1)" offset="15%"></stop><stop stop-color="hsla(201, 6%, 44%, 1)" offset="30%"></stop><stop stop-color="hsla(185, 4%, 44%, 1)" offset="45%"></stop><stop stop-color="hsla(50, 4%, 44%, 1)" offset="60%"></stop><stop stop-color="hsla(211, 10%, 44%, 1)" offset="75%"></stop><stop stop-color="hsla(207, 8%, 44%, 1)" offset="90%"></stop></linearGradient><linearGradient id="16282281824-posters-1705522289401-vertical-bold" x1="0" x2="0" y1="0" y2="100%"><stop stop-color="hsla(209, 10%, 13%, 1)" offset="0%"></stop><stop stop-color="hsla(209, 9%, 13%, 1)" offset="15%"></stop><stop stop-color="hsla(201, 6%, 13%, 1)" offset="30%"></stop><stop stop-color="hsla(185, 4%, 13%, 1)" offset="45%"></stop><stop stop-color="hsla(50, 4%, 13%, 1)" offset="60%"></stop><stop stop-color="hsla(211, 10%, 13%, 1)" offset="75%"></stop><stop stop-color="hsla(207, 8%, 13%, 1)" offset="90%"></stop></linearGradient></g><g class="horizontal"><linearGradient id="16282281824-posters-1705522289401-horizontal" x1="0" x2="100%" y1="0" y2="0" gradientUnits="userSpaceOnUse"><stop itemprop="horizontal" stop-color="hsla(206, 8%, 40%, 1.00)" offset="0%"></stop><stop itemprop="horizontal" stop-color="hsla(203, 8%, 52%, 1.00)" offset="15%"></stop><stop itemprop="horizontal" stop-color="hsla(200, 5%, 45%, 1.00)" offset="30%"></stop><stop itemprop="horizontal" stop-color="hsla(192, 4%, 53%, 1.00)" offset="45%"></stop><stop itemprop="horizontal" stop-color="hsla(157, 4%, 44%, 1.00)" offset="60%"></stop><stop itemprop="horizontal" stop-color="hsla(90, 2%, 55%, 1.00)" offset="75%"></stop><stop itemprop="horizontal" stop-color="hsla(80, 3%, 44%, 1.00)" offset="90%"></stop></linearGradient><linearGradient id="16282281824-posters-1705522289401-horizontal-background" gradientUnits="userSpaceOnUse" x1="0" x2="100%" y1="0" y2="0"><stop stop-color="hsla(206, 8%, 80%, 1)" offset="0%"></stop><stop stop-color="hsla(203, 8%, 80%, 1)" offset="15%"></stop><stop stop-color="hsla(200, 5%, 80%, 1)" offset="30%"></stop><stop stop-color="hsla(192, 4%, 80%, 1)" offset="45%"></stop><stop stop-color="hsla(157, 4%, 80%, 1)" offset="60%"></stop><stop stop-color="hsla(90, 2%, 80%, 1)" offset="75%"></stop><stop stop-color="hsla(80, 3%, 80%, 1)" offset="90%"></stop></linearGradient><linearGradient id="16282281824-posters-1705522289401-horizontal-light" gradientUnits="userSpaceOnUse" x1="0" x2="100%" y1="0" y2="0"><stop stop-color="hsla(206, 8%, 66%, 1)" offset="0%"></stop><stop stop-color="hsla(203, 8%, 66%, 1)" offset="15%"></stop><stop stop-color="hsla(200, 5%, 66%, 1)" offset="30%"></stop><stop stop-color="hsla(192, 4%, 66%, 1)" offset="45%"></stop><stop stop-color="hsla(157, 4%, 66%, 1)" offset="60%"></stop><stop stop-color="hsla(90, 2%, 66%, 1)" offset="75%"></stop><stop stop-color="hsla(80, 3%, 66%, 1)" offset="90%"></stop></linearGradient><linearGradient id="16282281824-posters-1705522289401-horizontal-regular" gradientUnits="userSpaceOnUse" x1="0" x2="100%" y1="0" y2="0"><stop stop-color="hsla(206, 18%, 44%, 1)" offset="0%"></stop><stop stop-color="hsla(203, 18%, 44%, 1)" offset="15%"></stop><stop stop-color="hsla(200, 18%, 44%, 1)" offset="30%"></stop><stop stop-color="hsla(192, 18%, 44%, 1)" offset="45%"></stop><stop stop-color="hsla(157, 18%, 44%, 1)" offset="60%"></stop><stop stop-color="hsla(90, 18%, 44%, 1)" offset="75%"></stop><stop stop-color="hsla(80, 18%, 44%, 1)" offset="90%"></stop></linearGradient><linearGradient id="16282281824-posters-1705522289401-horizontal-bold" gradientUnits="userSpaceOnUse" x1="0" x2="100%" y1="0" y2="0"><stop stop-color="hsla(206, 8%, 13%, 1)" offset="0%"></stop><stop stop-color="hsla(203, 8%, 13%, 1)" offset="15%"></stop><stop stop-color="hsla(200, 5%, 13%, 1)" offset="30%"></stop><stop stop-color="hsla(192, 4%, 13%, 1)" offset="45%"></stop><stop stop-color="hsla(157, 4%, 13%, 1)" offset="60%"></stop><stop stop-color="hsla(90, 2%, 13%, 1)" offset="75%"></stop><stop stop-color="hsla(80, 3%, 13%, 1)" offset="90%"></stop></linearGradient></g><!----><rect itemprop="background" width="512" height="683" tabindex="-1" id="16282281824-posters-1705522289401-background" fill-opacity="1" fill="url(#16282281824-posters-1705522289401-radial-background)"></rect><path id="16282281824-posters-1705522289401-light" d="M1 3c-2 4-1 11 1 11s3 1 3 2c1 2 1 2 1 0l2-2c4-1 4-1 4 2l-2 7-1 5-1-2v-3l-1-2c0-2 0-2-1-1 0 3-3 1-5-4-1-1-1-1-1 1 0 3 4 12 6 13v3l-2 1-3 1h1c3 0 3 1 0 4-2 1-2 1-1 2v3c-2 4-2 4 8 5 11 2 10 1 9 8-1 10-2 13-7 19C0 88 0 89 0 102l1 11 3-7c9-15 14-22 14-17l1 2c1 0 2 12 0 17 0 2-2 6-5 9l-2 4c2-2 2-1 0 3l-2 2H6l-4-1c-1-1-2 1-2 6v7l1-5c1-4 2-5 5-5l4 1a22 22 0 0 1-9 11c2-1 2 0 0 2l-1 5c0 2 0 2 1 1a2 2 0 1 1 2 2v2l1 6c0 3 0 4 1 2l1-3v-10a8 8 0 0 0-1-7l2-1 1-1c-1-1 5-9 6-9l6 3 1 8 2 12c2 3 2 5 1 7l-1 4 1-2c1-4 2-4 6 2l13 14-4-4-9-12-4-6 4-8c5-9 6-10 4-9l-7-3-5-3v-13c0-15 1-17 3-10l2 6v1l1 3 2 3a31 31 0 0 1 6 14l7 16 1 3 8 13 10 19a299 299 0 0 1 17 37l4 6 2 5-3-2-39-14-1-3c1-6-2-11-10-13-4-1-4-1-4-3s0-2 5-3c7 0 8 0 6-3-3-2-19-10-26-12-6-2-6-2-11-13l-2-4v12l1 12 6 10-4-1H0l4 2 4 3 1 1 3 5-2-1-5-2c-2 0-4-1-4-3l-1 74c0 71 0 76 2 78v1c-2-1-2 5-2 107v108h2l9-2 13-1 15-1 12-2a2 2 0 0 0 4-2l2 2c0 2-1 3-8 3l-10 1-29 4c-8 1-11 2-10 4 2 1 50-5 62-9l12-1h6l-6-1H62c-3-2-2-3 2-3l7-1c3-2 12-3 18-3l3-1c-1-1 0-1 1-1l13-3c7-2 4-3-4-2-4 0-5 0-4-1l17-1h2l2-2H88l-31-1 21-4 17-3 31-3 12-1h-7c-8 1-10 0-6-1l13-4 51-9 8-2h-4c-2 0-3 0-2-1l6-1 6-2 1 2v5c1 2 1 3-3 6-3 3-4 5-6 14l-3 12-1 6v3h-8l-9-1 4-1 4-1c0-2 4-4 7-4l1-1c-1-1-6 0-8 2l-8 2 2-3c1-2 1-3-1-3l-2 2c0 2-1 2-3 2-4 0-9 1-7 2v2l-5 1c-5 0-7 3-3 3l3 2-8 1-13 1c-20 6-45 9-67 10-21 0-26-1-7-2 12-1 25-3 42-7l19-3 7-1h-9c-7 0-10 1-12 2H85c-9 3-47 8-72 10H0v22c0 20 0 22 2 22v1c-2 2-2 4-2 30v29h513v-53l-1-49-1 4-1-5-2-4v7l-3-3-4-2-1-1c1-1-2-4-4-4l-1-1-4-2c-2 0-3-1-3-2h-9l-12 2-9 2v-1c2-2 2-3-2-3l-3-1c0-2 4-2 6 0s3 1 7-1c2-2 4-3 12-4 5 0 7-1 4-1a138 138 0 0 0-37 6l-3 2h-2c0-3 2-4 7-6 6-3 6-3 4-3-5-1-3-3 2-3 4-1 6 0 7 1h14l21-2 13-2 4-2v9l1-98V355h-54l-1-3-2-3h48l8 2c1 1 1-32 1-75l-1-72v5l-16-1c-47-1-101 6-91 12l2 4c0 3-6 3-9 0-1-3-3-4-4-1l-3 1-2 1c1 2 0 2-4 2l-6 1c-2 1-2 0-2-3v-4l-1 4-1 8 1 6c0 3 2 1 3-3s1-4 15-5l6-1 1 4c4 6 6 14 6 18 0 2 0 3 2 3l1 2 2 5c2 3 2 4 1 4l-2-2-1 5v8c1 2 0 3-1 3l-1-3-1-3c-3 0-5 1-5 3l-2 1 1 2 2 2h-5c-7 1-7 1-7-2l-1-3v-6l1-7c0-6 0-7 2-8 3-1 3-1 2-3v-3l-1-2c-1-1-2 2-1 5 0 1 0 2-2 3l-3 3c0 3-1 5-2 5l-1-2-5-4c-3-2-5-3-5-5 0-1-1-2-3-2h-3v-27l-1-27-1 3c1 3 1 3-1 2l-2-4v-3l-1 3-1-51c-1-54-1-58-4-56l-6-1c-6-2-7-2-7 1l-2 2v-3l-1-2c-1 0-2-1-1-2a3 3 0 0 0-3-3c0 5-4-10-4-17l-1-10-1-9c-1-10-2-13-3-13l-1 1v3l-1 3-2 10-1 17-1 9c-1-1-6 5-6 7 0 3-2 4-3 2h-1c0 1-1 2-5 3-6 1-11 3-11 4l-1 1c-2 0-3 38-2 92 0 7-1 9-2 8l-1 1c1 1 0 1-2 1s-3-1-3-2l-6-1c-5 0-6 0-6-2v-33l-4-2c-3-2-6-3-9-1-3 0-2 2 0 2l2-1a1 1 0 0 1 3 1c-1 2-7 3-8 1h-2c-2 2-6-14-6-22 0-4 3-10 5-11l1-2 2-3c3-3 7-13 5-14l-5-5-5-5-3-2V59c-2-9-2-9 0-7l8 9c1 0 1-1-1-2-8-7-13-17-15-34-1-13-3-25-5-25l1 7 3 18 3 18c5 11 7 48 4 49v2l1 19-1 17-3 5a22 22 0 0 1-8 8c-4 4-9 6-15 6l-2 1-1-25c0-23-1-25-2-26h-4v3c-1 2-2 1-2-1 0-3-3-5-9-5l-4-1v-1l-4-6v1c3 3 1 6-4 6s-5 0-5-2l1-3c1-1 1 0 1 1l1 2v-4c0-5 1-6 4-3 2 1 2 1 0-2l-1-11-1-14-3-12v-4l-1 3c-3 6-3 16-1 16l1 1-2 1c-2 0-3 0-3 8a40 40 0 0 1-1 11l-2 4c-2 1-2 3-2 5l-1 3-2 1-1-1c-1-2-1-2-2-1 0 1-1 2-4 2-4 0-10 3-10 5h-1c-2 0-2 1-2 6l-1 15v9h-6l-13 2h-16l-27-9-2-2c-2 0-2-1-1-2 0-1 0-2-2-3s-2-1-2-16c0-14-1-16-3-19-2-4-8-8-11-8-2 0-2-1-1-11 2-7 4-25 3-26l1-5 1-5 1-5 1-3 5 4 5 4-1-2c-7-4-10-8-10-13L72 0v7c0 7 0 6-3-3-3-8-4-5-4 12-1 18-2 25-7 28-4 3-4 2-3-4l4-9c6-6 6-15-1-19-3-2-5-5-5-10 0-2 0-2-1 1-2 4-4 4-3 0l-1-3-1 2c0 3-1 5-2 4l-1-3-1-3-1 3 1 3h-6c-4 0-6 0-7 2-2 2-2 2-3-3l-1-4-7-1h-7v6c0 5 0 6-3 6l-3 1C6 12 4 2 5 1L4 0 1 3m398-1c-4 5 0 13 8 16 4 2 5 3 5 5l1 2 1-2c0-3 3-1 4 3l1 2 1-1 10-2 9-3V8l4-2c4-2 6-2 11-2 9 1 9 1 9 9v7l13-1 12 1c0 2-2 2-13 2s-13 0-13 2v1c1-1 1 1 1 8v9h38v-8l1-9c3-1-1-3-7-3l-6-1 7-1h6v-3c0-8 1-9 6-8l4 1V0h-49c-55 0-54 0-61 7l-3 2c0-2 2-6 4-7l3-2h-3l-4 2M66 14l-1 17v5l2-4 2-3-3 7-3 6c1 1 6-6 7-9v-7l-1-9c0-17-3-19-3-3m-53-3-1 8c0 4 0 5 3 7 2 2 2 2 1 3h-3l-1-1-1 2 2 2 1 1 2 2c2 1 2 1-1 1l-3-1-1-1c-2 2 4 7 7 7a25 25 0 0 0-1-17l-2-1h-1l1-3c0-1 0-2 1-1 1 0 1-7-1-9-1-2-2-1-2 1m24 1c-6 2-8 4-6 8l2 3 10-11h-6m13 0v1l-1 1-1-1-1-1v10l-2 11v10h2c4 0 6-2 5-5 0-2-1-2-3-1-4 0-2-1 2-2 2-1 2-2 2-8l-1-11c-1-4-2-7-2-4m4-1 2 5c2 2 2 5 2 9 0 6 0 6 2 4 2-3 3-7 2-9 0-2-8-10-8-9m-13 6-4 6-2 1c-2 0-3 3-1 5l1 6v7h4c5 1 6 1 4-1V27c-1 1-1 1 0 0l2-12c0-3-1-2-4 2m12 0 1 10c0 5 0 6 1 5 2-2 2-11 1-15-2-4-3-4-3 0m375 10c-11 4-12 5-9 9l2 7c0 2 0 3 1 2 0-2 1-2 2-1 4 1 13 2 14 1l1-10c1-11 1-11-11-8m-1 3v8l9 4 1-5c0-6 0-6-3-7h-7M5 39a9 9 0 0 0-4 6c0 2 14 5 16 4L8 37l-3 2m61 3-3 6-6 22c0 2 0 2 3 2l4 1c2 0 2 0 2-3l1-7c1-4 3-24 2-25l-3 4m-14 2c0 2 0 2-3 1-3-2-5-1-3 2v2l1 5v5l1-4c2-9 2-9 4-8l1-2v-3l-1 2m7 0-4 3-4 18 11-22-3 1m-22 0 1 3c1 1 2 3 1 5 0 3 10 18 11 15l-1-2c-2-2-5-14-5-18l-1-3-4-1-2 1m448 1-18 1c-40 2-72 8-75 16-2 6 2 11 5 5 2-3 13-9 21-11l4-2c-8-2 33-6 53-6h12l-14 1-13 1h27c1 2 25 2 25 1 1-4-1-6-4-5l-2-1-2-1v1l-8 1-9-1a1 1 0 0 0-2 0M31 53l-2 6-1 8-1 5 2-2c2-4 3-4 4 0 0 3 0 3 7 2 6 0 6-1 1-6-4-4-7-9-8-14l-2 1m25 7c-3 6-4 8-3 9 2 3 3 2 5-7 3-11 2-12-2-2m414-4-26 1c-22 3-33 6-41 10-7 3-8 5-5 10l3 3 2 2 3 1c2 1 5 4 5 6s2 4 3 2c3-11 61-18 94-12 4 1 4 1 4-1 0-1-1-2-4-2l-7-1a471 471 0 0 0-48 1c-18 2-27 4-35 7-7 3-8 2-1-2 4-2 11-5 19-6l6-1c18-3 64-3 69 1l1-7c0-6 0-7-2-7l-2-1h2c9-4-7-5-40-4m-19 12-7 2h-4c-2-1-9 1-11 3s-2 2 0 2c4-2 24-4 37-5l14-1h-2l-2-1h-18a6 6 0 0 0-7 0m31 0c-1 2 0 2 9 2l13 1c3 0 3 0 2-1-4-2-22-4-24-2M37 75l-5 1-3 7c-4 6-4 13-2 13l13-14c0-1-2 0-7 5l-3 2 6-6 7-7-1-2-5 1m8 2-5 8-2 4c-1 0-4 2-6 5l-5 5 2 5 3 8 3 9c3 10 3 10 6 5 3-6 6-22 4-22l-2 1c-4 2-3 0 0-2 4-2 4-2 4-6l1-12c2-11 1-12-3-8m16-1 3 1 1 1 1 2c2 0 11 22 11 28l2 4c2 1 2 1 2-9l-1-11c-2-1-2-2-1-3 3-5-4-12-11-13l-7-1-2-1 2 2m-7 3-1 4c-2 2-4 11-4 15 0 2 1 1 6-5 6-7 7-12 3-13l-2-2-1-1-1 2m5 12-6 7c-9 9-7 23 5 38 3 2 6 8 9 12l13 21 13 20 6 9 4 4a23 23 0 0 0 31 1c3-2 3-2 2 0-4 4-12 7-18 7-10 0-18-6-27-22l-9-14c-4-6-13-19-18-29l-7-9c-3-3-9-14-10-19l-2 3-4 8-2 4 4 8 5 8v2c-1 4 8 19 11 19 3 1 4 3 1 3s-3 0 4 12l12 23a104 104 0 0 0 8 16l4 10c5 10 9 14 15 14l6 1-2 1h-3l4 4 1 1h1v-4l1-2v-3l1-4v-2l1-2 2 7 8 27c6 19 6 20 9 21l5 2c6 3 9 1 12-7l8-20a130 130 0 0 0 7-19l1-2c0-2-1-3-2-3-2 0-2 0-1 1s1 1-1 1c-3 0-3 0-2-1s-1-1-8-1l-9 1v-42h4l3 1c-2 1-1 2 2 2 2 0 1-19 0-23l-2-8c0-4-1-6-5-11l-7-9c-3-4-7-5-8-1 0 3 1 5 5 11 4 5 8 14 9 20v4l-1-5c-1-7-6-16-11-21-4-6-5-6-2-15 2-5 1-7-3-8l-38-9-4-2-3-3-1-2c0-2-4-8-6-8-1 1-2 0-3-7l-2-11-3-7c-1-2-1-2-2-1h-2c-2-1-2-1-3 2m191 6 1 4v3l-2 24 4-4 5-8c3-4 5-8 3-8l-1-2c0-1-8-10-10-10v1m238 4c0 2-1 3-3 3l-3 1c0 1 0 2 2 2 3 0 4 1 1 2l-3 1-5 1 7 1 14 1 7-1c1-1 0-1-8-1-9 0-13-1-8-3 2 0 2 0 1-1v-5h22c1-1-3-2-13-2-11-1-11-1-11 1M18 117a42 42 0 0 1-4 9l6 4 1-18-3 5m417-3-7 1c-6 1-13 4-12 7h2l3-2c1 0 1 1-1 1-1 1-2 2-2 14l1 14 1-11c0-10 0-10 2-9 1 1 5 3 8 3l7 2v8l-1-4-1-4v4c0 5 0 6-7 6l-5 1v-6l-1-6v15l4-2 9-1h4v-14c0-16 1-15-9-12h-6l9-3 5-2h-3m28 14v15h39v-28l-20-1h-19v14M22 140l2 10 2 4 3-7c5-8 5-7-2-11-5-3-5-3-5 4m224-3a27 27 0 0 1-10 11l-1 1-6 1-7 2c-3 1-3-1-3 26l-2 25a3 3 0 0 0 0 3c0-1 2-2 6-2 7-1 8-1 8-6 0-3 0-3 3-3 5 0 6-2 6-10s0-8-6-5l-5 1 4-2 7-2v-22h4c3 0 4 0 3 1-2 1-2 1 0 2 3 3 4-2 2-17v-7l-3 3m-112-1c-4 2-4 3 0 6 2 1 3 2 2 4 0 3 6 13 11 18 4 3 4 3 4 10l1-16v-22l-7-1-11 1m328 11v2c1-2 1 6 1 20l1 8 19 1h19l-1-13c0-14 0-18 2-17l1-1c-1-2-42-3-42 0m-31 1c-9 2-14 4-14 6l1 1c2-1 3 5 3 16 0 10 0 12 1 9l1-10c0-10 0-10 2-9l3 1 4 3 3 1-1 7c0 8 1 10 5 6v-16c1-18 1-17-8-15m1 4c-3 3-3 6-1 6l4 1c2 0 2 0 2-4 0-5-2-7-5-3m50 34c13 1 13 1 5 1h-9l11 1 18 1c4 1 5 1 5-1s-9-3-30-3h-14l14 1m-470 3c-1 3 5 12 7 12l3-1 1-4 2-3c-8-5-12-6-13-4m409 2-6 1c-2 0-7 6-7 7 1 3-1 4-15 4l-15 1v2c0 2 1 2 3 2 3 0 8 2 8 3l-3 1c-3 0-7 2-8 4h2l5-2 5-1c1-1 4 1 7 3 7 4 8 3 1-1-8-6-8-8 0-8l7-1c2 0 2 1 2 4 0 8 7 4 8-4 0-7 1-7 7-9l3-2-5 1-6 1 12-5 3-1 2-1h1c-2-1-5-1-11 1M0 277l1 76-1-152v76m26-69c0 5 1 6 8 8 6 2 7 2 7-2 0-5-4-8-11-9l-4-1v4m426 5c-26 2-43 6-43 10 0 2 0 2 4 0 11-4 47-6 78-6 21 0 21 0 21-2s-1-2-6-2h-54m-7 8c0 2-1 2-4 2-8 0-23 4-26 7-1 2-2 2-4 0-3-3-3-1 0 3 2 2 2 2 4 1l24-4-5 1-13 3c-7 2-12 8-8 12v8h2c1-2 2 1 2 12 0 10 0 10 2 10 7-2 15-2 15-1l2 2c2 0 2 0 2-2-1-2 0-2 1-2s2 3 2 17v16h-12l-4 1v-9l-1-11c-1-2-1 1-1 9v12l-1-12c0-12-1-17-3-17-2 1-2 17-1 29 0 8 0 8 2 8l22-2-9 2c-7 0-8 0-4 1 3 1 3 1-3 1-9 1-10 3-1 3l7-1-7 1-6 2-1 7v8l12-1 15-1 35-1 32 1v-16l-10-1c-11-1-8-1 3-1l7-1-7-1a95 95 0 0 1-28-3c-2-1 4-1 15-1l20 1v-36l-1-35-1 15-1 16v-18l1-18 2-7-27-1-26-1h26c26 0 27 0 27-2s-2-2-16-4c-21-2-43-1-43 2 0 1-1 2-3 2-3 0-4-3-1-3l3-2c0-3-6-3-7 0m28 13h37l-19-1c-11 0-19 0-18 1m-1 4c2 1 34 2 35 0l-18-1c-11 0-18 0-17 1m-46 3-11 2 1 2c2 2 2 4 3 15l1 14v-23l2 2c2 2 2 3 2 11s0 9 2 8l1-3 1-3 1 3c-1 2-1 2 4 2 4 0 4 0 2-1s-3-2-3-4l-1-4-1-3-1-3-1 2v3c-1 1-1 0-1-3v-5h10v4l1 8 1 5 1-14v-14h-5l-9 1 8-2 6-1c0-1-1-1-14 1m38 13v15h10l10-1v-1l1 1 10 1h9l-1-1v-24l1-3-20-1h-20v14m-252-7a52 52 0 0 1-1 6l-3 1h-3l3 1c3 1 4 2 5 6l2 4h33l1-5-1-5v-2h1l2 1c2 0 2 1 1 3 0 5 1 13 2 12l1-7c-1-9-2-12-3-11l-1-1c0-2-5-3-11-2-5 0-4 4 2 5h-29v-5c-1-3-1-4-1-1m192 1c0 1 0 2-1 1l-1 3-1 4v1c3 0 1 4-2 4v1c1 1 2 0 2-1l2-1c2 0 4-2 3-4l-1-5-1-3m-87 15-1 12v4h4c4 0 4 0 3-2v-6c-2-1-1-4 2-4l2 2 1 1 1-1c-1-2 21-4 35-4h8v-11h-27l-28 1v8m-59-3 1 2 1 1c1 1 0 2-1 1-4-1 0 1 5 3 4 2 5 2 5 0 1-1 1-1 2 1s4 4 4 2l-2-1v-1c1 0 4 2 3 3l1 1 1-1 1-2-2-2-5-3-5-2-6-2-2-1-1-1v2m143 8c0 4 1 5 2 1 1-2 1-2 1 0 0 3 4 3 4 0 0-6-7-7-7-1m-118 0c-2 0-2 2-1 7 1 4 3 5 10 4h5v-11h-14m103 2-15 1c-17 0-18 0-18 4 1 4 12 4 13 0 0-3 2-3 2 0 0 2 0 2 9 2 10 0 10 0 10-4l-1-3m-42 2-6 3c-7 2-6 3 0 4l7-1h4c2 0 2 0 2-3-2-4-3-5-7-3m119 1v3c1-1 1 2 1 9v14l1 5h37v-10c0-15 1-20 3-20v-1c-1-3-41-3-42 0m-424 6c0 5 0 6 1 5v1c-1 2 1 3 4 1 2-2 0-13-3-13-2 0-2 1-2 6m224-1-1 5-2 5v6l3 12 2 9 20-1h21l2 8c1 7 2 7 5 8h3v-12c0-10 0-11 2-11l2 1v2l-2 1c-2 0-2 11 1 11v1c-2 0-2 1-2 4 0 4 0 4 4 5h3l1-33c0-1-2-2-5-2-5 0-5 0-5 3-1 2-1 2-1-2 0-5-1-6-4-5l1 1h-1c-4 0-6-2-6-4h10l2-1c2 0 3-1 3-2 1-3 1-3-6-3l-6-1h-6c-1-1-1 0-1 1a6 6 0 0 1-10-2c-1-1-1 0-1 1 0 3 0 3-4 3l-12 1h-8v-4a6 6 0 0 1 1-5h-3m-133 15c0 4 4 10 6 10 3 0 3 0 2-3v-4l-8-3m262 24h-21c-20 0-23 1-21 4 1 1 58 0 60-1 3-2 1-4-4-4-4 0-5 0-4 2h-2c-2-2-7-3-8-1m-247 24c0 19 1 22 1 8l1-9 1 1 1-1 1-4c1-2 1-2-1-4l-1-2c3 0 2-1 0-4l-3-2v17m10 5c0 18 1 19 3 19l2-1-2-1c-2 1-3-27-1-31 1-2 0-5-1-5l-1 19m215-15-3 1c-2-1-1 0 0 0 3 2 4 3 1 3-1 0-2 0-1 1l2 1h1c-1 1 0 2 1 2 2 0 3-1 3-3 1-3 3-4 3-2s3 2 4 1c2-3 6-1 6 2v4l1 1c2-1 2 4 1 6-1 1 2 4 4 4s3-2 3-9l1-5 1 6c0 7 0 8 9 8 4 1 5-1 3-3v-1c1-1 1-2-1-4-4-3-4-4-1-4 2 0 3-1 3-5v-5h-20l-21 1m83 11v2h30c28 0 29 0 29-2 0-3-2-3-32-3h-27v3m-19-1-10 1c-6 0-6 0-6 3 0 2 0 2 4 2 13-2 24-2 24 0 0 1-1 2-9 2-13 1-18 3-18 6l1 2a411 411 0 0 1 15 0c-15 1-17 2-17 4l6 1c7 0 7 1 0 1-4 1-5 2-5 3l11 1c11-1 9 0-5 2l-6 1h7l10-1h4v14l1 13-9 1-9 1v-11c0-9 0-11-2-12-2-2-2-2-2 12v14h11l11-1v33h-18v-13c0-12-1-14-2-16-2-1-2-1-2 18 0 21 0 21 7 21h5l-6 1-5 1v8l2 9h28v-8c0-6 0-7-2-7l-2-1h2c3 0 1-2-2-2s-3 0-1-1c5-1 5-1 5-41l-2-50v-12h-6l-8 1M0 463c0 60 1 84 1 54a13347 13347 0 0 0-1-54m459-105 24 1c27 1 29 1 28 2h-24c-20 0-27 1-25 2l23 1c22 0 25 1 21 3-1 1-2 3-2 15v15h-39v-6c-2-9-2-10-2-4 0 3 0 5-1 4 0-2-2-2-2 1l-1 2-2-12c-1-23-2-14-2 23v36h22l28-1c6 0 7 0 6-1-1-2-2-76 0-76 2-2 1-6-2-6-8-2-50-1-50 1m-215 29-1 2-1 1-3 1-2 1c-1 1-1 1 0 0 2 0 2 0 1 1l1 2 1 1v1c2 0 2-2 1-4-1-1-1-1 1-1 3 1 4-1 3-3-1-1-1-1 1-1s2 0 1-1c-2-1-2-1 0-1 2-1 2-1 0-1l-3 2m236 12-16 1v37-35l1 14 1 16 20 1h19l-1-16 1-16c2 1 2 1 2-1l-1-2h-5l-21 1m-248 8c3 3 4 8 3 9l-1-1-1-3-1 1-2-1h-5c0-2-6-6-7-5s1 4 3 3l1 1-2 1-1 2c2 2 0 1-3-1l-4-2c-2 0 0 1 4 4 5 2 7 1 7-3 0-1 1-1 1 1 1 2 1 2 4 2h3l1 2 1 2v2l2-2 1-2v3a2 2 0 1 0 3-1c-2-3-2-3 1-6 3-4 3-5 0-2-2 2-2 2-2 0v-2l-1-2c0-2 0-2-1 0l-1 2-3-2-2-2 2 2m37 18a7 7 0 0 0 2 9l1 2 2 1h-2l-7-1h-7v3c-1-1-2 0-3 1-1 2 0 3 2 1 1-1 3 0 5 1h3l-2-1c-2-1-2-1-1-2l3 2c2 2 8 6 7 4h2l3 1c0 2 3 4 4 4s1-1-1-2c-2-2-3-8 0-8l-1-3-1-3v-3l-1-4c0-3 0-3-4-3l-4 1m105 18v4l7-1c6 0 7 0 7-2s0-2-1-1c-2 3-3 2-3 0 0-1 1-2 3-2 5 0 1-1-6-2h-7v4m25-3c-1 0-2 1-1 2l1 1 1 1-2 1-1 1h6c6-1 6-1 6-4s-3-4-10-2m57 19-1 3h46l-2-2c-2-1-2-2-1-2 7-1-7-2-23-2h-19v3m-214-1c1 1 0 2-1 3v1c1 0 2 3 2 16l1 8-10 1c-20 2-20 3-5 3h15v3c0 3 0 4 2 4l1-1v-8h25l-5-1c-3 0-5 0-4-1l1-1c1 1 4 0 4-1h-17l-4 1v-5l-2-12c0-9-1-11-2-11l-1 1m48 4-1 6-1 3-3 1-2-1c0-2 0-3-1-2h-4c-3 0-4 1-2 2v10l1-1c-1-1 0-2 2-1l3-1h1l1 2 1-2c0-3 5-5 5-3h2c1-1 0-3-1-2v-13l-1 2m131 4c0 2 1 2 12 2 16 0 20-1 10-3-12-2-22-1-22 1m40 0-5 1h41l-12-1h-24m-166 10c-2 2 16 2 19 0 1-1-2-1-9-1l-10 1m-9 2v1c-2 2-1 5 1 7s2 3 1 3-2 2-3 7c-1 6-2 7-3 5s-3-2-3 0l2 2 2 2 3 1c3-1 3-1 3 4v4h-7l-8 2h15v29l1 30 1 2c0 2 0 2-1 1h-2c-1 1-1 1 1 2l3 2h2l-1-1c-1 0-1-1 1-2 1-2 2-2 2-1l1 1v-3c-2-4-3-6-3-4h-2c-2 0-3-2 0-2 2 0 2-17 0-19-2-1-2-1 0-3s2-3 2-8l-1-23c0-16 0-16-2-16-3-1-4-3-1-3 2 0 3 0 3-8v-9c1-2 0-2-1-2s-2 1-1 2c0 2 0 2-1 0l-3-3h-1m-178 10-7 2-4 1v14h-3l-8 1-6 3c-2 1-5 2-12 2-8 0-10 1-11 2l1 1 1-1-2 2h7l10 1-2 1-4 1h3l5 1c-1 3 7 4 10 2 2-2 2-2-1-2-4-1-5 0-4 1l-1 1-2-3c0-2 2-3 6-2l2-2c2-2 5-1 5 2v2l2-3c0-2 2-3 5-4 5-1 6-2 3-3v-2l3 2c1 1 6 2 6 0l3-1h5l4-1v3l-2 10 2-5c0-4 1-5 3-5h2l-2-2c-2-1-2-1 0-1l2-1 1-1 1 3v2-9c-1-2-1-2-2-1-2 2-6 1-7-2l-4-5-2-3c0-2 5-1 8 1l3 3-3-3c-2-3-8-4-14-2m339 10c0 10 0 11-2 11v2c2 1 2 4 2 10 0 10 1 11 7 11s7-1 6-6l-1-14h-2l-3-1c-3 0-3 0-3-3v-4c-2 0-2-2-2-9l-1-8-1 11m-341-7 5 11c1 3 8 0 7-2-1-6-5-10-9-10l-3 1m-5 1-1 6v5l2-1c2-1 3-2 5-1l1-3c-2-5-5-9-7-6m158 6c-11 1-17 3-17 4l1 1 22-5c4 1 6 0 6-1s-2-1-12 1m10 3-7 1h-6c-3 1-3 1 2 1 7 0 5 1-6 3l-11 2c-9 4-14 5-21 6-7 0-7 0-6 3 1 1 2 3 1 5 0 4 0 4 4 6 3 2 4 2 5 9 2 8 1 20-2 25-2 5-2 6 6 6 3 0 5 0 4-1-2 0-2-1 0-2 3-3 8-5 9-4v-1c-1-2-1-2 1-1h4l3 1-2 1c-1 1-1 1 1 1l3 1v-2l-1-9c0-5 0-6-2-6l-2-1c0-1 2-2 3-1 1 2 2 0 2-3-1-4-1-5-2-2s-1-4 1-11c1-7 3-10 6-10l8-4 9-4c3 0 3 0 2-2l-2-4c0-3-1-4-4-3m33 0-3 1c-2 0-3 0-3 3s0 3 3 3l6 1c2 0 3 0 2-3l-2-2h-1l2-1 2-1-1-1-3-1-2 1m136 3-2 4c-1 2-2 3-1 5 1 4 1 4 4 3 2-1 3-2 2-7-1-4-3-8-3-5m-186 21-1 11c2 2 4-6 3-10-1-3-1-3-2-1m146 0v5c0 3 4 3 5 0 0-1 1-2 2-1 2 0 2 0 2-2l-1-2-1 1c0 2-3 1-4-1-2-2-2-2-3 0m70 9c-2 3 0 4 5 4 10-2 21-2 22 0h4l8-1 5-1-18-1c-16 0-18 0-17-1 1-3-7-3-9 0m-198 9c0 3 0 3 3 3l6 1c5 2 8 1 4-1l-2-4c0-1-3-2-8-2-3 0-3 0-3 3m34 3-1 13v13h-3c-3 1-2 3 1 4 2 0 3 4 1 4v2c1 1-3 2-11 1l-5 1c-6 4 51 3 58-1h4l6 1c3 0 5 0 4-1l-2-1h-3c-2-2-34 0-39 2-3 2-7 2-7 1l-1-19c0-18-1-22-2-20m-107 11c-2 4-2 11 0 15 1 3 2 3 2-7l-1-11-1 3m-97 4-5 1c-3 0-5 0-4 1h27l3-1c2-1 0-1-13-1h-8m87 6c-5 0-5 3-1 3 2 1 1 1-2 1s-4 0-3-1c2-2-7 0-20 3l-33 6c-21 2-21 2-14 3 10 1 33-1 51-4l21-4c6 0 6 0 6-4 0-3 0-4-5-3m129 2c-8 2-8 2-8 5 0 4 5 4 17 2 15-4 16-5 2-5-10 0-12 0-10-1 11-5 10-5-1-1m31 2-3 2-3 1-7 2-4 1h6l8-2 6-2 4-2h-7m92 3c-2 1 0 2 4 2s4 0 2 1c-2 2-1 3 5 3 4 1 5 1 4-1l1-4c2-2 1-2-4-1h-12m-217 2c-2 1-2 1-1 4 2 3 2 3 18 0 8-2 7-3-2-3l-10-2-5 1m50 1-4 2-5 1c-2 0-2 1-2 2l-5 1c-6 0-10 3-4 3 4 0 6 1 2 1s-6 2-3 2c3 2 12 0 11-2 0-2 0-2 2-1l1-1c-1-2 0-2 2-3l2-1h3l14-3c0-2-10-3-14-1m-63 2c-4 2-4 6 0 6s5-2 5-4c-1-3-1-3-5-2M0 601c0 12 1 17 1 11a482 482 0 0 0-1-11m176-18c-14 2-11 3 4 3 9 0 11-1 11-2 0-2 1-2-15-1m278 5 1 5h3c4 0 4 0 4-3 0-1 0-2-1-1 0 2-4 0-6-3l-1-3v5m-359-2c6 1 58 3 60 2l-22-1-31-2c-7 0-9 0-7 1m251 6c2 1 1 1-4 1h-7l8 1a26 26 0 0 0 11-1l5-1c2-1 0-1-6-1-7 0-9 0-7 1m-170 3 9 1h13c-1-1-21-2-22-1m107 0 43 2h16l-19-1-43-1-25-1 28 1m-60 1c1 1 14 2 31 2l70 3c-1 2-14 2-38 1l-59-1 46 2c32 1 40 2 37 3s-3 1-1 1l5-1 5-2 7-1c8-1 10-3 4-3-11-2-108-5-107-4m-75 2c-10 2-5 2 22 2l23-1c-8-1-39-2-45-1m329 11-3 12c-3 2 4 4 8 2 1-1 1-1-1-2s-2-3-3-12l-1-9v9m-351-6c-9 2-4 2 23 2l37 1 10-1c0-2-62-4-70-2m82 2c-11 1-2 2 38 3 35 1 42 2 42 3s4 1 13-2c7-2 6-3-1-2l-39-1c-47-2-48-2-53-1m-121 4 14 2h13a817 817 0 0 0 61 1l12 1h14c4 2 77 4 78 2l3-1 3-1h-29l-32-1-47-2c-54-2-93-2-90-1m270 10-4 1-7 3-7 2-6 2-8 4c-3 1-3 1-1 2l7-2 5-2 8-3c8-4 14-6 19-6 2 0 2 0 1-1a8 8 0 0 0-7 0m-135 2 24 2c8 0 5-2-3-2h-21m156 1 10 2a624 624 0 0 1 58 11l2 2c1 1 6 2 6 0l-1-1-3-1-13-4-19-4c-30-5-43-7-40-5m-359 3-9 1c-5 0-6 0-3 1a46 46 0 0 0 21-1h4l-3-1H19M0 654c0 16 1 23 1 15a863 863 0 0 0-1-15m100-27-6 1-5 1h25a132 132 0 0 0 24 0c5 2 16 2 18 1 2-2 2-2-2-2l-7-1h-47m66 2c-1 2-1 2 3 2 5 0 12-2 10-3-2-2-11-1-13 1" itemprop="light" fill-opacity="0.90" stroke-opacity=".90" stroke-width="0.25px" fill-rule="evenodd" tabindex="-1" fill="url(#16282281824-posters-1705522289401-vertical-light)" stroke="url(#16282281824-posters-1705522289401-horizontal-regular)"></path><path id="16282281824-posters-1705522289401-regular" d="M13 2c2 4 2 6 0 5l-1 1 2 1c3 0 5 7 3 10v2l1 2v3a187 187 0 0 1-1 43l-4 6-9 10-4 6v21l5-9c8-13 13-19 14-14l2 6c1 3-1 13-5 23l-4 9-6-1-5 1h5c5 0 5 2 1 8l-2 3c4-3 13-19 15-27s4-9 5-3l3 11 2 4 3 5 7 14 4 10 9 19a540 540 0 0 1 26 52l4 8 5 8 4 10 4 8-7-3-7-1-1-1-1-1h-3l-1-1-2-1-4-1-5-1-3-1-4-1a10 10 0 0 1-4-2l-5-1-7-1-1-1-1-1-2-1-5-6-2-2 4-5c3-3 5-4 6-3l3 1h4l-3-2-3-1-3-2h-4a2 2 0 1 0-2 2l1-1h1l2 1c3-2 1 1-3 4l-4 3-2-5-2-12v-6h4l5 1-4-1c-3-1-4-2-4-4 0-3 0-3 7-3 6 0 7 0 4-3l-20-11h-4c-7-2-8-3-11-10l-2-7-1 11 1 12a20 20 0 0 1 7 12l1 1v1l4 7-7-2-6-3v64c0 63 0 64 2 63l4-2c1 1 1 1-1 2-2 0-3 2-1 2 1 1 0 1-1 1-2 0-3 1-3 2s0 2 2 1l1 1v1l1 2-3-1c-1-1-1-1-1 5 0 8 4 13 8 11h6c2 2-8 2-11 0l-2-1-1 33 1 33v4l1 2v2l-1-1c-1-1-1 31-1 70v72l3-1 2-1c0-1 9-3 19-4a13 13 0 0 0 9-2l10-1 21-2a63 63 0 0 0 21-4l5-1c1-1 0-1-3-1H75c-7 1-8 1-5-1 8-3 8-3 1-2H45l9-4 17-3 24-4 18-3 6-1c-1-1 62-15 72-15h4l-4-1-4-1 6-1 9-2c2 0 2 0 1 2 0 3 0 3 2 2v1l-1 3c1 2 0 3-2 5-4 4-6 7-9 21l-2 9 1 2 2 1-1 1-3 28 5 1a3 3 0 0 1 3 4l-11 1h-11l11 1c8 0 11 1 12 2l-14 1h-19c-8 1-1 2 14 2 12 0 15 0 16 2h67l39 1 7-1h-6l-39-2-37-2c-6-1-5-2 2-1 17 1 86 2 87 1l-23-1-70-3c1-2 12-2 53 0l67 2c0-1-22-2-93-4l-27-1v-5h8l20 1-4-2c-1-2-1-2 1-4l3-2h-3l-3-1h6c2 1 12-1 16-3l3-2-2-1h-19c-15-1-23 0-10 1 8 1 9 2 3 4l-19 3c-1 0-4-6-2-7v-1c-2-1-2-6 1-13 5-11 3-31-4-34-3-1-4-2-3-6l-1-5c-1-3-1-3 10-5l5-1 2-1 4-2 5-1c2 0 3 0 1-1l-6 1h-4l8-2a54 54 0 0 0 12-3l-7 1c-5 0-5 0-3-1v-2l-12 2h-11l5-2 12-3c7-1 9-2 9-5l-16-1c-13 0-15 0-14 1h-2c-2-2-2-2-1 1 0 3 0 3-2 2-1-1-2-2-1-3 0-3 0-3-8 1-5 3-7 3-6 2l1-1a12 12 0 0 0 6-5l-4-4c-3-5-6-5-9 1-1 3-3 4-5 4l-8 1h-8l-2-1 2-2 5-1 2-1 6-2c2 0 7-1 10-3 5-2 6-2 7-1l4 2 5 3c1 2 3 3 3 2l2 1c1 2 2 2 9 0l16-2 8-1-1-5c-1-17-1-18-3-18h-2l2-1c2-1 3-2 1-8l-1-4-7 1c-5 0-7 0-5-1l6-1 5-1-2-1c-1 1-2 0-2-1h-5c-1-1 0-2 1-2v-1l-1-1-1-1h-5c-5 0-8-1-8-4h1c2 2 5 3 5 1l-6-4-4-2-2-1c-2 0-2 0-1-1h2l3 1v-7l1-1c2-1 2-1 1-2l-2-2h8l3-1c2 0 1-2 0-2h-2c0 2-4 3-4 2l-4-2-4-3-1-2h-1l5 1 6 1-1-1-1-2a7 7 0 0 0-9-6l-5-2h-6l-1 1v-1c0-2 0-2-2-2l-8-4c-5-3-5-3-4-6l2-2v3l1 3 1-2c-1-3 1-5 2-3 2 2 3 3 1 3-1-1-2 1-1 3s3 0 3-3l2-3v4c-1 4-1 5 2 5l3 1c2 1 1-2-1-4v-4l3 7 5 3c1-1-1-3-3-3l-1-1h2l2-1c1-2 1-2-1-2-1 1-2 0-2-1v-1h2c2-2 3-1 3 2l1 4c2 1 2 0 1-3l-2-5c-4-2 1-2 4 1 5 2 6 4 3 4v1c3 1 5-3 2-6l-3-4c-3-3-6-4-15-4-9-1-9-1-5 1h-4a30 30 0 0 0-13 2h-2l2-2c1-1 3-2 4-1 2 0 2 0 2-2-1-1-1-2 1-2 2-1 3-3 1-3l-3-2-4-1c-2 1-3 0-3-1l-3-1c-2 0-2 0 0 1s4 7 3 9c0 2-2 2-3 0h1c2 2 2-1 1-5-2-2-5-4-4-1h-2v-1a1 1 0 1 0-1-2l-1 1c-1 0-2-1-2-3l1-3 1 1 1 1c2-1 13 1 14 2l5 1c4 0 4 0 2 1h1l5 1c-1 6 4 9 13 7l4 1c1 2 4-1 3-4l1-2c1-1 1 0 1 1a3 3 0 0 0 4 2l1-3v-2l-2 1v3l-1-3-1-2c-3 0-3 0-3-12 0-11 0-13 2-14 2-2 3-1 3 2s0 3 6 3h5v-4c0-3 0-3 3-2l2-1-1-3h-2v-1c2-1-1-5-4-5-3 1-3 1-1-1 3-3 9-2 9 1 0 2 0 2 1 1 2-2 4-3 5-1v2c-2 1 1 2 3 0l3-1v2c-2 2-2 3-1 3l7 1 7-1c1-2 1-2-1-2h-1l1-1h2c2 0 6-3 4-4l-32-10c-2 0-3 0-3 2-1 1-1 0-1-2v-4c-2-1-1-2 2-2 3 1 4 0 4-1 2-3 1-3-4-3h-5l-1-4-11-41 6-1 7-1h-13l-2-4-2-4-2 8-4 10v6l1 3v-3c0-3 0-3 1-1 2 4 1 5-2 4-5 0-3 2 2 3l6 2-6-1-6-2v3l2 11a14 14 0 0 0 2 10l1 1 3 1v-2c-2-3-1-17 1-17v6c0 7 0 7 3 12l4 6 1 3v1l-9-3-8-2 1-4v-4c-1-1-1 0-1 3v4l-4-1c-5 0-6-2-4-5 2-4 2-4-4-4h-5l-1-4-6-23c-7-27-7-24-4-24l3-1-3-1c-2 0-3-1-3-2s19-2 28-1c3 0 3-30 0-30l-2-1h2c2 0 2-1 2-4 0-5 0-5-3-5l-5-1c-1-2-1-2 1-2l2 1c0 2 3 1 4-1l2-2v2c0 1 1 2 3 2l3 1h-3c-3 0-3 0-3 4 0 5 0 5 3 5l3 1h-3c-4 0-4 9 0 9l3 1h-6v20h5c3 0 4 0 1 1-3 0-4 3-1 2h4l2-5c0-4 0-4 1-2 0 2 1 3 3 3s2 0 2-7l1-6v7a4 4 0 0 0 6 5c1-2 4-2 4 0l4 1c3 0 3 0 3-3v-4h-8c-4 0-7 0-5-1l3-1h4c5 2 6 1 6-9v-9h12l-5 1c-4 0-6 1-6 2 0 4 2 5 10 4h7v-9l-8 1c-5 0-7 0-6-1l7-1h7v-8l-1-8c-1-1 2-7 4-8 1 0 2 5 1 6s0 1 2 1l3-1 2-1 2-2c0-2 0-3 3-3l3-1-4-1c-4-2-9-1-11 0v-1c1-3 1-3 2-2 2 1 3 0 3-2 0-3 4-3 4 0l4 3 3 2v-34l-3-2-4-2v4c0 3 0 3-5 3-3 0-4 0-4 2l1 2 3 1 2 1c0 2 2 1 2-1 1-1 1 0 1 2 0 3 0 3-2 3l-5-1c-3 0-3-1-3-5v-4h-12c4 0 3-2-1-4l-3-2v10l-1 17 1 7 1-2c0-4 0-5 1-1 1 5 4 5 4 1 1-3 3-3 4 1 1 3 3 2 2-1 0-2 1-3 3-1 1 2 1 5-1 5l-2 1h-11l3 2 4 1c2 0 1 2-1 3l-2 2 2 1c3 1 0 2-5 2s-5 0-5 3c1 3 3 4 5 0 1-2 1-2 2-1 2 1-2 5-5 5h-11c-6 0-8 1-9 2l2 1h3l-3 1c-1 0-2 1-2 3s0 2 8 2h8v-3c0-3 0-3 1-1 1 4 0 5-9 5-7 0-8 0-8 2h-1v-5l-1-3v-1c2-1-1-6-4-9-4-1-2-3 2-2 2 0 2-2 2-23a698 698 0 0 1 1-27l2-1c4 0 14-4 17-6a66 66 0 0 0 15-19l2-4 2-4c2-1 4-4 5-7l2-4-5-5-2-2c7 8 7 8-7 28-10 14-17 20-27 21h-4v-24c0-23 0-25-2-26-2-2-2-2-2 1v3c1 2-1 3-5 1-6-3-8-3-8 2l-1 5v-5c0-7 0-7-1-6h-18l1-2c1-1 1-1-1-3l-2-2v4c0 4-2 6-6 4-2 0-3-1-2-2l-1-4c-1-1-1-1-1 3s0 4-4 4l-6 2c-2 1-2 1-2-2s0-3-1-2l-2 1c-2 0-2 2-2 14v15h-8l-13 2c-5 2-15 1-30-4l-10-3-2-2c-1-1-1-2-3-1l-1-2c1-2 0-2-1-3l-3-3-1-2c-1 2-4-3-5-8-2-10-7-21-12-26s-5-6 3-4c6 1 10 4 12 8l2 2c0-6-11-12-20-12-4 0-8-3-10-6-1-2-1-3-1-1 1 3 0 2-5-3-5-6-7-10-6-12l-2-5c-2-2-2-4-2-9l-2-9a19 19 0 0 1-2-17c0-3 2-2 3 0h1c-1-3 0-4 2-3l1 2h5c1-1 1-1 0 0l1 2 1 3 1 4v2l-2 4h1l2-3v-4c-2-4-1-8 0-6 1 1 2 0 3-2l1-2 1 5 1 3V4c-1-4-1-4-1-1s0 4-4 4c-3 0-4 0-4-2l-1-2v2c0 2 0 2-4 2-6-1-10 0-10 3 0 2-2-2-2-6l-1-4h-7c-6 0-6 0-6 2m400-1c-2 1-2 2-2 3l-1 1-2 1-2 1-3 2V7c2-2 2-2 0 0-4 4-3 7 4 11l6 4c1 1 1 1 1-1s0-2 1-1c2 2 3 1 3-2s1-4 3-5l16-5-3 2-8 2-4 2v6c0 6 0 6 2 6l8-3 6-1v-7c0-6 2-10 6-10l1-1c0-1 6-2 8-1l19 1 18 1h-27v14h17l19 1c2 0 4-8 3-13 0-2 1-2 1-1l4 1 3 1c1 2 2 1 2-3V0h-48l-51 1m51 30v10h14l18 1h5v-9l1-10h-5l-19-1h-14v9m-31-5c-5 2-6 3-2 3 6 0 7 1 7 7 0 7 0 7-7 5h-7l1 1 3 1c8 4 11 2 11-9-1-9-1-9-6-8M29 49l1 3v2l-4 18c0 2 1 1 3-2l2-2 1 2c1 3 2 3 7 3 7 0 7-2 2-8a49 49 0 0 1-9-14v-2l-2-3-1 3m449-3 12 1 16 2 6-1-12-1-22-1m-57 5c-22 5-33 11-27 16 1 2 1 2 4-2l2-5c-1-2 13-6 30-9l6-2-15 2m44 6c-3 0-4 1-4 2 0 2-1 2-3 2-4 0-5-2-2-3h-13c-3 0-4 0-2 1 4 1 2 4-3 4-2 0-2 0-2-2 1-2 1-2-2-2l-5 1c-2 0-3 0-2 3 0 2 0 2-2 2h-3c-2 1-2-2 0-3l-6 1c-13 3-19 7-19 10 0 2 0 2 1 1 1-2 2-1 2 2 0 2 0 3 2 3l2 1c0 3 3 3 6-1 4-4 6-4 5 0l-2 2c-3 0-4 2-3 3 0 2 0 2 2-1l3-2 3-1v-2l-1-1c0-3 6-5 9-4l3-1c1-2 3-2 8-2l10-2 10-1 12-1 7 1h7l6-1 21 3c2 1 2 1 2-1s-1-3-3-3h-3c0-1 3-7 5-7l-22-2h-9v3c-1 3-3 6-4 5l1-2c2 0 1-2-1-2-1 0-2 1-1 2l-1 2c-1 1-1 0-1-1l-1-4c0-2 0-2 4-2 2-1 2-1-2-1l-9 1M47 74l-9 1h-7l-3 8c-3 7-4 14-1 14v1l3 9 4 14a182 182 0 0 0 14 30c0 4 7 17 10 18s3 2 1 3c-1 1-1 1 2 8a781 781 0 0 1 22 42l5 11a63 63 0 0 0 7 13l3 6c2 6 2 6 9 8l10 3c1 0 0-2-3-4-4-3-4-4-3-6v-3l-1-1 3-1c1 0 2 2 9 22l7 22 5 1 12 2h7v-4l1-8-1-3c-1 1-1 1 0 0 0-3 3-2 10 0l6 1-6-2-8-4 1-1v-1l1-1v-5l1 2v3l1 2c1 1 1 0 1-2 0-5 1-7 2-6v-1c-1-2 1-6 2-5l8 28 8 27c2 2 1-1-2-12l-12-47 14 48 4 12v4l-23-7-21-7c0-1 3-2 5-1 8 3 8 2 8-3v-4l2 2c1 2 2 3 5 4 3 0 4 0 3 3 0 3 1 4 7 5 4 1 3 2 0-8l-2-7-2-2c-2 0-2 0-1-1 2-2 2-2 0-7-2-6-3-4-3 4 0 11 0 12-2 11-3 0-5-2-5-4 0-1-3-2-10-2l-10-1c-6-3-6-3-3 6 2 7 3 8 5 8l46 13c0 2-4 5-5 4 0-1-14-6-22-7h-3v2l-2-2v-2l-2 2c-3 3-3 3 3 4 5 1 5 1 4 3s-2 3-3 2l-2-1-2-2-4-2c-2-1-2-1 0-3v-2l-1-2-1-1-1 2-1 2-1-2c0-2-1-3-2-3v1l-1 1-1 2-2 3-2 3h1l3-2 3-1 2-1v1c-2 0-2 0 0 3l2 2 1-1c2 0 1 16 0 19a28 28 0 0 0-1 17c0 1 1 2 3 1 2 0 2 0 1-1-3-1-2-3 0-3 2 1 5 0 3-1h-2l-1-4c0-4 0-5 3-4l2-1c0-2-3-4-4-3l-1-1c0-2 1-2 3-1h3v-6l1-7 1 15c-1 16 0 21 2 21l4 2 2 1-1-2-2-1 1-1 1-1v-1a1 1 0 1 1-1-2c1 0 2-2 2-5v-8l-1 6-1 5-1-9c0-10-2-5-2 6 0 5 0 7-1 6l1-30h2c3 2 18 5 19 4l4-2c1-1 1-1-1-1-3 0-2-5 1-9 5-4 7-14 4-14l-1 2c0 8-3 1-10-28-10-34-10-34-8-38l-1-2v-6l-1-7-1 4-2 8-1-2c0-2 0-2-3-1l-1 1 2 1-9 1h-9v-15l1-19c0-3 0-4 2-4l1 1 1 1 2 1h1c0-2 2-3 3-1l-2 3-2 2h3c4 0 4 0 4-2h3c1-1 1-1 1 1v2c-1 1 1 1 4 1 5 0 5 0 2-1-6-1-3-2 4-2h4v-4c0-4 0-4-1-2-2 4-11 4-11 1 0-2 0-3 1-2l1-1h7l2-1c1 0 2 0 1-1l-5-1c-3 1-5 1-6-1h-2c0 1-1 2-3 2l-2 1 2 1c3 0 2 4 0 5l-1-1v-2l-3-3v-3l-1 3-1 3v-4c0-3 3-8 6-8v-1c-2-3-3-2-4 1-2 2-2 2-2-3l-1-9-2-8c0-4 0-5-3-8l-8-9-5-6h-2l-1-1v-2c1-5 0-8-3-8-22-5-41-10-43-13l-3-2-1-2c0-2-4-7-6-7-1 1-1 0-2-10l-3-8-2-6c-1-2-2-3-3-2-2 0-4-3-3-7 0-3-6-7-8-4h-1c0-2-2-5-3-5l-2 1m277 16v5h-9l-12 2c-3 2-3 2-3-1 0-4-2-3-2 2 0 3 0 4-1 2l-1-4c-1-1-2 39-2 71v25l3-5c2-5 6-7 7-3 0 2 0 2-2 1l-1 1c1 0 0 2-2 3s-2 2-2 5l-1 3-2 2-1 2c-2-1-2 0-2 2l1 3c2 0 4-1 4-4 0-2 0-2 1-1h3v1c-3 3-2 3 2 1l5-1c2 1 5-2 5-3s-3-2-7-2c-6 0-6 0-6-3 0-2 2-3 3 0l1 2 1-1v-1l1-3c0-4 3-2 3 3l1 3 2-3c2-2 4-1 3 1-1 0 0 2 2 3 2 2 2 2 0 2h-2c0 3 15 3 16 0 0-1 0-2-2-3v-1c2 0 3-3 3-7l1-2c1 0 3 7 2 8l-1 5 7 1c10 1 9 4-1 4h-7v20h7l7-1-6 1-15 1h-10l8-1h8v-4c0-3 0-3-2-3s-2 0-1-1c2 0 4-8 2-9v-2c-1-1-17 0-16 2l-1 1-1-2-7-1-11 1h-3v19h4l4 1h-8v15l-1 23v-65l-3-3-3-3v4l1 5-7-1h-13c1 1 0 1-4 1h-6v15h6l8 1c1 1-1 1-6 1h-8v9h5l6-2h5l1-2 1 2c0 3-1 3-3 3h-15v10l1 10a11 11 0 0 1 10 11l1-3c0-2 0-2 2 0 2 1 2 1 2-1s0-2 1 0c1 3 5 5 5 2 0-2 3-5 5-5l1 5v5l1-3 1-3v4l-1 5h5c5 0 5 0 5-2l1-3 1 3c0 2 0 2 2 2l1 1c0 2 6 1 6 0a3 3 0 0 1 3-1c-3 1-1 4 4 5l4 2v-20h53v-24c0-26 0-26-6-29l-2-54-1-54c-1-1-1 0-1 2 0 3 0 3-1 2h-2c0 2-2-1-2-4l-1-3c-2-1-2-1-2 2l1 4-13-1-13-1 1-6-1-1c-2-1-2 0-2 3m-151 15-2 2h3c1-1 13-1 20 1 4 1 5 1 5-1 0-3-20-4-26-2m294 10-3 1v26h38v-27h-35m-36 4c-7 1-11 3-8 3l2 2 2 2c1 2 1 2-2 2-3-1-3-1-1 1l4 2c10 2 10 2 10 6l1-7c0-13 0-13-8-11m-292 16c-8 1-10 4-5 7 1 2 2 3 1 4 0 2 5 11 11 17 4 4 4 5 5 9l1 9 1-23c0-22 0-23-2-23h-12m161 7-1 3c0 2 0 2-1 1-1-2-1-2-1 1l-1 14 1 12 1-9 1-6 5-1 7-2 2-1c0-2-1-2-5-1h-5c-4-2-4-3-4 1-1 3-1 3-1-1s0-5 2-5c2 1 4-3 2-4l-1-2h-1m164 19v16h19l18 1v-15l1-16c1-1-10-2-26-2h-12v16m-26-7v5h-6c-7-1-9 1-2 2l7 1c2 1 2 1 2-7v-7l-1 6m-92-3c0 1-1 2-6 1-8-1-14-1-15 1l10 1 11 1v5l1 6v-6l1-5-1-3c0-2-1-2-1-1m0 36c0 7 0 8 2 8h3l-1-4-1-2-2-5-1-4v7m-334 3c0 4 5 12 7 12 1-1 1-1 0 0-1 2-1 3 1 5l2 4v-5a6 6 0 0 1 1-5c-1-1 0-3 1-4 2-4 1-4-4-7s-8-3-8 0m342 8c-2 1-1 12 1 13s2 1 2-5-2-10-3-8m-168 14c0 12 1 17 1 6 0-5 0-8 2-9v-2l-1-3-2-3v11m83-6-2 2h-2l-1-1-2-1-3 1c-2 0-2 0-1 1v1h20c3 0 4-1 4-2-1-4-13-4-13-1M6 211l-2 7c0 2 0 2-1 1-2-2-2-2-2 3a5 5 0 0 0 3 7c1 1 1 0 2-1l2-2v2l2-1h3c1 0 2 0 1-1-3 0-2-2 0-1 3 0 4 1 3 2l2 1h3l-2-3-2-3-2-4h-1c1 1 0 2-2 1l-1-1-1-1c-2 0-4-3-4-4h2c2 2 6 3 6 2l-1-1v-1l-4-1-2-1H6m291 0 1 4c1 3 1 3-1 3-2 1 0 1 3 1 5 0 6 0 6-2v-1h3c0-1-4-1-7 1-2 0-2 0-2-3a2 2 0 0 0-3-3m15 3-1 2-1 1v1c1 1 2 2 2 6v4h-6l-6 1h12v10c1 0 2-5 2-18 0-5 0-5 3-5 2 0 2 0 1 1-2 1-1 2 3 1 6-1 4-4-2-3l-5-1c0-2-1-2-2 0m151 4c-10 0-11 0-11 2l8 1c8-1 40 0 49 2 3 0 3 0 3-2 0-3 0-3-11-3h-38m-33 3-18 3-13 3c-1-2-2-2-6-2s-4 0-2 2c1 2 1 2-5 2l-7 1h-2c-2-3-2 0-1 4 2 4 2 4 2 2 0-4 1-4 12-6l11 1a92 92 0 0 1 8 23l1 1 6 13c2 0 0-7-1-9-3-2-3-6-2-8s0-5-2-5l-1-3a5 5 0 0 1 4-6l3-3-6 3-1 1c-2-1-2 0-2 1 0 3-1 2-3-4-3-6-2-6 1-6 2 0 2 0 2 3l1 4c2 1 3-1 1-3l-1-4v-2l2 2 2 2 4-3c3-2 14-5 23-6 3 0 5-1 5-2s-2-1-15 1m-377 3 1 1 1 1h3l1 1 1 1h1l5 2 4 1h2l1 1 1 1 7 2h1c0-2-4-3-14-7-17-6-16-5-15-4m190 7h-6v5l1 4v1c-3 4-1 6 5 6l8 1c2 1 3 0 3-4v-3h-6l-6-1h12v-5c-1-5 0-5-11-4m221 18 1 13v6h30l7 1v-9l1-14v-5h-39v8m-36-5c-10 1-12 4-6 8 3 1 3 2 3 11 0 5 0 8 1 6l1-11v-6h5l6 1v8l1 8v-23c0-3-1-3-11-2m-40 18c1 4 0 5-9 5-12 0-15 2-4 2h6c5-1 6-1 6 1 1 2 1 2 2 1v-10c-1-1-1-1-1 1m-329 8-2 3v6h4c1 1 1 2 1-4 1-8-1-10-3-5m193 2-1 3-1 1c-2 0-3 7-1 10 2 4 3 5 2 0l-1-4c1-1 3 8 3 10l-3 1c-3-2-7-2-5-1l2 4 1 4c1 1 1 1 1-1-1-4 1-6 2-3l1 3v-1l1-4 2 5 8 28c2 3 2-1-4-25l-6-26c1-2 1 0 4 14l8 28-3-13-5-23c-2-13-3-13-5-10m163 5c0 12-1 21-2 21l-2 2c0 3-1 3-4 3l-6 1h-3l-3-1a1 1 0 0 0-2 0l-5 1-1 1h-1l-2 2c-1 1 0 1 4 1l14-2h9v6c0 7 2 11 2 5 0-5 2 8 2 17 0 7 0 9-2 9-1 1-1 0-2-1l-2-2-2 1 1 2c1 1 2 2 3 1 1 0 2 3 0 4v2c2 3 0 9-2 9l-2 1 2 1c2 0 2 0 1 1v1l1 1c-1 1-3 0-6-1l-9-3c-3 0-4 0-4-2l-1-2h2c3 0 3 0 2-2s-3-1-8 2l1 1c1 1 1 1-1 1l-4-3c-1-3-6-6-9-6-2 0-3 1-1 3v1l-2-1-3-2c-1 1-2 0-2-2l-3-2c-2 0-2 0-1 1v1c-3 0-2 1 1 4l1 2-2-2-3-1-1-1c-1-1-4-1-5 1-2 1-2 1-2-2 0-2 0-2-3-2h-1c2-2 1-3-4-3l-8-2-8-4-5-1h3c3 0 3 0 2-2l-2-1h-4c0-2-4-3-5-1-1 1-1 1-2-1 0-2-3-3-3-1 0 1-3 2-4 1l1-1c1 0 1-2-1-8-1-6-3-9-3-6l-2 10c-2 8-2 8-5 8-3-1-6 0-6 3l-1 1-1-1h-2c-1 0-2 0-1 1s0 1-2 1l-3 1 4 1c3 0 4 0 3 2h-1l-4-1c-3 0-3 0-2 2l3 2 1 1 1 1c1 1 2 0 1-1l1-1 1 3 1 1 1-1 2-1v2c-1 1-1 1 1 1 3-1 4 0 1 2h-2a6 6 0 0 0-8 0l-1-2c1-2 0-3-2-4h-2l-2 1-3 1c-1 1-1 0-1-1 1-3 1-3-2-3s-4 1-4 3h1l3-2-4 4-1-2-1-1c-3 1-3-1-2-3l2-3-5 1-6 2c-2 0-2 0-1-1 0-1-1-2-4-2-5-1-6-1-6 4 1 3 1 4-1 4-3 0-4 0-4 2l-1 1-1 6c0 6 0 7 2 6l1-4c0-5 1-5 8-8l1-1-2-1h1l2-1-2-1c-2 0 0-2 4-2h3c0 2 0 2 2 0l4-2-3 4c-3 2-4 4-3 4s1 1-1 1c-1 1-4 2-6 1-3 0-3 0-2 1v1c-3 0-4 7-2 8v3c0 1-4 2-4 0h-1l-7 1h-7l5 1c5 0 6 0 6 2h-1c-3-2-10-1-10 1s1 3 2 2l1-1h4l-1 1a3 3 0 0 0 4 0h2c1 2 6 2 5 0l2-2c3-2 3 7 0 10l-2 3h2c0-2 2-2 3-2l1-6c0-1 0-2 1-1 2 3 6-1 6-5-1-3 0-4 1-4 2-1 2-1 1 1-2 3-1 3 2 3 3-1 3-1 2 2l-3 2a7 7 0 0 0-5 6l1-1h1a3 3 0 0 1 1 4c-2-1-7-1-6 1 1 1 1 1-1 1-2 1-3 5-2 5v1c-3 0-2 3 1 3l2-1c0-2 3-5 5-4l1-1h2l-1 2-1 2 3-2 2-1 1-1-1-1-1-3c0-4 3-4 5-1 2 2 2 2 3 0 2-2 7-3 7-1 0 1-3 2-4 1-2 0-2 3-1 4a2 2 0 1 1-2 2l-1-2c-2 0-3 0-2 2l-2 4c-2 2-2 2 0 2l2-2 1-2 1 2h2c2-2 2-2 2 1 0 2-1 3-3 2-2 0-2 0-2 2s0 2 2 1l3-2 3-2c2-1 2-1 0 1-3 4-3 4 5 3 7-1 7-1 4 1l-2 1-1-1-5 1c-6 0-9 2-4 2 3 0 4 0 3 1l-1 1-3 1h-1c1-1 0-1-1-1-2 0-3 2 0 3h-2l-3 1a4 4 0 0 1-3 3h-3l-4-1h2l2-1c-1-1 3-3 4-2l1-1-4-1a7 7 0 0 1-5-1l-2 1-3 3 1 1h1c0 1-3 2-6 1h-4c-3 3-3 4 0 3l5 1c2 2 10 1 8-1h3c2 0 2 0 0 2l-3 2-3 4h2c1-1 2-2 3-1 2 1-1 4-4 4-2 0-2 0-1 1l2 4c1 3 2 3 3-1a6 6 0 0 1 1-3h5c3-2 5-2 2 0-2 1-2 5 0 4l2 2h2l1-6v-4h5c4 0 5 1 5 4l2 4c3 0 3 0 1 1l-2 3c1 1 2 2 5 1l1 1 4 3c5 1 5 3 1 2-2 0-4-1-5-3s-2-2-2 0l-2 1c-3 0-2 5 1 9l2 3v7c0 6 0 6-1 2-2-7-4-6-4 2 0 5 0 5 3 4l3 1 1 2c2 0 3-2 3-8l2-8c0-3 0-3-2-3l-3-1h1c2 0 5-1 5-3 1-1 1 3 1 8l1 11v4c-2 3-1 4 1 4l2-2 1-2v2c0 2 0 2 8 2l12 1-6 1-6 1h-2l-15-1 3 1 3 2 2 3c2 2 2 8 0 8l-1-2v-3l-1 6 1 6c1 1 0 1-2 1l-4 1 8 1c8-1 10 0 11 1 2 2 2 2 1 3-2 1-2 1 0 4 1 2 4 1 3-2-1-1 4-2 5-1v2c-2 1-1 2 2 3l2 2c-1 2-27 0-26-2v-2c-1-2-1 1-1 7l1 9v3l-2 11-2 10c-1 1-1 1 1 1s2 1 2 8a150 150 0 0 0 1 14c0 1 0 2 1 1 0-1 1-2 3-2h3v-13c-1-11-1-12 1-13s3 2 3 14c0 14-1 14 27 4 8-3 9-3 15-2l11 2h5l-4 1c-7 3-4 4 13 4l21 1c16 1 17 2 13 6-3 3-18 3-17 0 0-1-11-1-14 1l-6 2c-4 1 18 2 32 1 3 0 3 0 3 4 0 5-2 6-8 3l-11-1-43 2c-33 0-43 1-32 2l11 3c7 1 10 1 14-1h27l24 1-4 2-4 3h13l33 1 22 2c1 1-3 1-15 1-46-2-55-2-55-1 0 2-1 2-6 2-8 0-7-2 0-2 5 0 5 0 2-1a94 94 0 0 0-40 3l-10 2-25 6-8 2-4 2h-3c-3 0-4 1-3 2l-5 1h-6l-20-1-131-3h-15c3 1 3 1-3 1-4 0-6 0-4-1l-7-2c-18-2-19-3-1-3a125 125 0 0 0 37-5l11-3 20-3 16-2 10-1c12 0 11-2-1-3l-15-2-11 1-16 2-13 1c-1 2-18 3-26 2l-17-1c-14 0-11-1 8-1a444 444 0 0 0 22-2l-1-1c-7-2-27-3-69-4H0v9a17 17 0 0 0 1 11c-3 0-1 4 2 4l48 3h4l-3 1a3725 3725 0 0 0 216 6l-5 2-7 2-10 2c-5 1-10 1-7-1 2-1-4-2-35-3l-67-1-112-2c-12 0-11-1 3-4l8-2H26l-18-1H0v11h19l58 2a4411 4411 0 0 1 151 3c11 1 15 2 10 3h-12l-10 1h-14l-29-1a37637 37637 0 0 1-138-3H0v3c0 4 0 4 4 4l10 2h-3l-7 1H0v45h513v-29l-1-30c-3-2-29-4-29-1l-5 1c-5 0-5-1-5-2 0-2-1-2-9-2-9 0-10 0-10-2 0-1 1-2 4-2 4-1 5 0 2 2-2 1-1 1 7 1h9v-12l1-21c0-2 6-1 6 1v7l-1-1-1-3c-2-1-2-1-2 8v10l2-4c2-4 5-5 8-2 5 5 6 7 2 3l-5-3c-1-2-3 0-3 3v2l1-2c1-1 1 0 1 2l1 4-1 2-1-2c0-3-2-4-3-1l-1 1-1 4c0 5 1 5 10 5l16 1 8 1v-19l-1-13-1 3-3-1c-1 0-2-1-2-3-2-6-6-12-12-14-5-3-14-4-14-2h-3c-5-1-13 7-14 16 0 3-1 4-4 4h-4l-1-6c0-5-1-7-2-4v51c-1 1 0 1 1 1 2-1 6 2 4 3s-10 0-10-1-3-1-27 1l-8-1 14-1c14-1 17-2 8-4l-28-5-20-3a54 54 0 0 1-19-3c-7-1-11 0-22 5l-14 6c-11 4-20 4-10 0 28-12 37-15 47-15 7 0 7 0 3 1-6 1-2 2 11 3 10 1 20 2 36 6l10 2 9 1 9 2 4 1v-13h-7c-5 0-7 0-5 1v1c-3 1-6 1-5-1l-1-1v-1l5-1 8-2c5-1 5-1 5-5l1-14c0-9 0-10-2-12-3-3-8-5-10-3l1 1c1 0 1 5-1 7-1 2-3-2-3-5 0-1 0-2-2-1-2 0-3 1-3 2l-1 2-1-5-2-8c-2-5-2-6 0-6l2 1 2 2 1 1 2 1c3 0 7-6 7-10h-9c-11-1-12-2-3-4l9-2 5-1c3 0 4-1 4-5 0-5 0-5-6-5-4 0-4-2-1-2 6 0 7-1 7-6 0-4 0-4-3-4-5 0-7-2-4-2h5l2-1c0-2-3-2-7-1h-5c0-2 6-5 9-5 2 0 2-1 2-5 0-6 1-6-8-4l-4-1a2 2 0 0 0-3 0l1 1h-2c-1 0-1-16 1-17 1-1 0-2-2-4-3-2-3-3-2-4v-2l3 3 3 3h3c1 2 4 2 3 0h2c4 4 5 3 5-4l1-6 7 2c5 2 5 2 3 3l-5 1 3 1c4 1 4 2 6 14l1 11c1 6 0 7-1 7l-1 2 1 4c0 3 0 3 4 3l3-1 22-1h22l-9-1c-29 0-32 0-33-2 0-2 36-3 39-1 2 1 2 0 2-8l1-30v-22h-92v-20c-1-25-2-44-1-45l3 2 2 1a3 3 0 0 1 0 4v22l5 1 9-1h3v-31h-22c-2-2-1-49 1-49 5-2 18-4 22-4l4-1c-1-2-2-2-17-1l-11 1v-23l-1-37-1-15c-1-2-1 0-1 5m61-5-12 1v1l1 15v15h36v-15l2-16c1-1 0-1-5-1h-22m-436 1c-2 1-1 19 1 19l4 1-3 1c-4-1-4 1 0 2h5l4 2c4 1 4-1 1-6l-2-3-1 2c-1 4-2 4-1 0 0-3 0-3-4-3-3 0-3 0-1-1l2-3 1-2c1 0 0-5-2-8-2-2-2-2-4-1m398 3v3h-10c0 2 2 2 9 3 1 0 2 3 2 10 0 10 0 10-2 10h-7c-1-1-1-1-1 1s0 3 2 2l2-1h5l2 1c1 0 2-25 0-30-1-3-2-2-2 1m-35 0c3 0 2 2 0 2s-2 0-1 2c3 2 2 3-4 3l-6 1 4 1c5-1 4-1 4 8 0 6 0 6 1 3l1-8c0-4 3-6 7-5v-3l-1-3-4-2c-1 0-2 0-1 1m22 0h-3l-4 1 2 1c2-1 2 0 2 2l1 3c1 0 2 3 2 11 1 14 2 16 2 4l1-9-1-5-1-7v-2l-1 1m-337 6c0 4 0 5 3 3h3c2 2 2-2 0-5-4-3-6-3-6 2m-28 2c-1 3-1 3-1 1l-2-2-1 2 3 8c3 9 4 8 3-2 0-9-1-13-2-7m108 2c1 6 7 28 8 27l-8-29v2m-54 3h-2c-2 0-2 0-2 5l1 7 5 4 5 2-6-18h-1m201 1v4l5 1c6 1 10 2 10 5 0 1 3 3 6 3 4 0 4-6 1-7l-3-2h5c0-2-1-3-2-3h-12a3 3 0 0 0-5-1h-5m-229 3c0 2 0 2-2 1-1-2-2-2-2 3 0 4 0 4 2 3h2l3-2c1-3 1-3-1-5l-2-2v2m112 4-1 6-1 1v2l1 1 3-2 1-3v-5l-1-3c0-2-1 0-2 3m-107 1a3 3 0 0 0-1 3l-6 5 4 2 6 1c2 1 2 1 2-1l1-2 1-2-1-2h-1a5 5 0 0 1-3 3l1-1v-6h-3m251 2c0 3 1 3 5 4a8 8 0 0 0 9-5 4 4 0 0 0-6 0 2 2 0 0 0-3 0h-1c-2-3-4-2-4 1m-231 7-1 3 13 3c1-1-3-5-7-7-5-3-5-3-5 1m79 10 1 1 17 5 17 4-23-7-11-4-1 1m45 4 2 1 4 1a299 299 0 0 0 25 8l1-1-2-1-4-1-4-2-8-2a19 19 0 0 0-7-2c-2-1-6-2-7-1m164 0h-18c-16 0-18 1-18 3l1 1h6l-3 1c-2 1-1 1 3 1 3 0 4 0 3-1-4-1-1-2 13-2 11 0 13-1 13-2h1l3 1 4 1-1 1-1 1h3l1-1v-2l2-2h-12m-211 2 1 4 6 2 6 2 9 2c13 4 18 3 10-1-5-4-31-11-32-9m-25 6c0 1 1 2 7 2 10 1 11 0 1-3l-9-2 1 3m106-1c-1 2 1 2 6 2l9 1h4l-17-5-2 2m-82 0 1 1 3 3c1 2 1 2-3 2s-3 1 2 1c4 1 4 1 4 6 0 2 0 4-1 3-1-5-2-4-2 0l-1 14c0 9 0 9 2 9h3l1 1v-1c-2-1 0-7 2-6v-3c-2-1-3-10-2-10v-5l2 3c2 5 3 4 3-3l1-6v30c-1 1 0 2 1 2l1-16c0-13 0-15 2-16l2 1 8 3-2-1c-5-2-3-2 4-1 6 0 6 2 2 2-2 1-2 1 1 1l3-1 1-2c1-1 0-1-1-1-6 0-18-2-17-3h1l1-1-3-1c-2 0-3 1-3 2l-1 1-6-4c0-2-2-1-2 1-1 1-1 1-1-1 0-3-5-6-6-4m-151 3a6 6 0 0 0 8 5l1 2 3 5 3 4c2 0 1-2-1-3l-1-2c2-1-4-9-7-8v-1c1-2 1-3-1-3h-3c-2-1-2-1-2 1m232 2c-1 3-1 3 1 3 7-1 11 1 6 2l-3 2c0 2 6 0 7-1l5-2c3-1 4-1 3-2a5 5 0 0 0-7 1v-1l1-2c0-2-4-1-4 0h-4l-3-2-2 2m-134 1-3 1-3 1c-4 1 1 4 6 4h5v-4c0-4-2-6-5-2m363 3 5 1c-2 0-1 1 3 1l7-1c0-2-2-2-11-2-11 0-11 0-4 1m-412 3c-3 1-3 1-3 10l-1 8-2 1 2 1c1-1 1 0 2 2 1 3 3 2 5-1 1-2 1-2 1 1-1 2 0 3 1 2l2-1c1 1 2-2 1-4s2-5 4-3v-5c-1-1-2 0-1 1l-1 1c-3-1-2-5 1-6h8c1-1 2-2 4-1l2-1c0-1-1-2-3-2l-4-1c-2-3-5-2-7 1-1 2-1 3-2 2-1-2-4 1-4 5l-1 3-1-3c1-7 0-11-3-10m234 1c0 1-1 2-3 2-1 0-2 0-1 1h5l5 1 4 1c3 0 5 0 6 2l5 2c2-1 2-1-2-3l-4-3c1-1-2-3-4-2-4 2-11 1-9 0 2-2 2-2 0-2-2-1-2-1-2 1m-25 1-3 1v1h5c3 1 3 1 1 1s-2 0-1 1v3h2l3-1h3c1-1 1-1-1-1l-3-2-4-4-2 1m-176 1v5c1 4 1 4 3 4 4 0 6-2 4-3h-2c-1 3-2 1-2-3 0-3-1-5-3-3m9 0c-2 1-1 3 2 3l6 1c4 0 4 0 4-2s-8-4-12-2m323 2c-2 1-2 1 0 1 3 0 3 3 0 3s-2 2 1 3c3 0 3 2 0 2s-2 2 1 3l2-1v-3l2-4c-1-2 26-2 47-1l9 1v-5h-30l-32 1m-232 13v8h12v-14h-3l-6-1h-3v7m-83 3-1 1c0-2 0-2-3-2l-4 1c-2 1-3 3-2 4l2-1c1-2 2-2 4-1l4 1h3c2 1 3 1 4-1 0-2-1-3-2-1h-2v-1l1-1c0-2-2-1-4 1m263 3h-1c-1 0-2 0-2 2h-1c-2-1-3 0-1 2v6c0 4 0 4-2 2s-9-5-10-4l2 2c2 0 3 1 3 2l-1 1c-1-1-1 0-1 1l3 1h3l-1 1v1l1 1 1-1v-1l2 2 1 1 1-2c-1-6 0-7 2-6h2l1 4v4l1-3 2-3v-1l-1-2c1-2 1-2-3-1l-4-1c0-2 1-2 2-2 2 1 3-1 1-2-3-1-2-2 1-2l2-1-1-1h-2m66 11 1 14v7h39v-28h-40v7m-34-5c-10 0-12 1-8 5l1 10c0 13 0 13 9 12h8v-14c0-14 0-14-2-14l-8 1m-316 6c-3 2 3 5 7 3 2-1 4-1 3 1l1 1 1-1v-4c-1-1-5 0-6 2h-2v-1h1c-1-2-3-2-5-1m171 3-2 1-2 1h-1l-2 2v1c1-1 2 0 2 1 1 1 0 1-1 1-2 0-2 1-2 2l2 1 1 1h-2c-2 0-2 0-1 1v2l-1 1h2l3-2c1 0 5-2 3-2s-1-3 1-5v-2c-1 0-2 0-1-1h1l2-2a1 1 0 1 0-2-1m89 5-1 2-1 3a2 2 0 1 0 1 2c-1-1 3-2 4-1v3l2-1 3-1 2 1 2 1 1 2h2c2-1-3-6-7-6l-5-2c-1-1-2-2-3-1v-2m-53 5c-2 2-6 4-9 4a1 1 0 1 0 0 2l2-1c3 0 4 0 6-2a8 8 0 0 1 9-1c3 0 3-2 0-3-3-2-6-1-8 1m-22 9c-1 2-4 3-5 3l-2 1h1l4 1c3 3 3 2 3-1l1-3 1 1a1 1 0 1 0 2 0l1-2c2-1 0-3-1-3l-5 3m-204 2-1 4 1 2v3c2 2 3 0 2-3l1-3 1 3 1 1 1-3c0-2-1-2-3-2l-2-2h-1m95 10 1 11v1c-3 0-2 2 0 4h2v-3c2-1 2-1 0-3v-1l1-9c0-9-1-10-2-10-2-1-2 0-2 10m274-10 1 2 1 15c0 15 0 15 2 15l19 1h17v-16l1-17c1-1-3-1-19-1l-22 1m-186 8-4 2-2 1v4c0 2 0 2 2 0l1-1c0 2 0 2 2 2h2c-1 1 0 2 3 2 2 1 3 1 2 2-2 1-1 2 3 2h4l-2-1-2-1-1-2v-1c1 0 2-1 2-4 0-2 0-3-1-2-2 1-11 1-10-1l3-1c1 1 1 0 1-1v-2l-3 2m103 9-5 1-3 1c-1 1-5 2-5 0l-1-1c-2 0-2 2-1 2v2l-1 1 11-3 10-4c0-1-2-1-5 1m-91 0c-1 1-1 1 1 3l1 4c0 2 0 2 3 2l3-1-2-1 1-3v-2c-2 1-3 1-4-1-1-1-2-2-3-1m26 3c-1 2-1 2 1 2h1l-1 7 4-2 8-2c3-1 5-2 2-2l-9-2-2-1c0-3-3-2-4 0m96 7c0 10-1 12-9 12-5 0-5 0-5-3 1-2 1-2-6-2-6 0-6 1-6 3s0 2-6 2h-6v4l-1 4h37c1 1 2 0 2-4l1-7 1-5c0-2 0-2 1-1l1-4c0-4-1-5-2-6-2-1-2-1-2 7m-238-7v7c2 0 2 1 1 2-2 4-2 5 1 5s5-1 3-2l-1-6-1-5h-2l-1-1m70 4-4 1c-1-1-1-1 0 0l-2 1c-1-1-1-1 0 0l3 2v3l4 1c2 1 4 0 4-2h-1a3 3 0 0 1-3 0l2-1 1-4c0-2 0-2-4-1m41 4-2 2 2-1c2 0 2 0 1 3-1 2-1 2 3 2 4-1 4-1 4-4h-3c-2 0-2-2 0-3 1-1 1-1-1-1l-4 2m-97 5c-1 1 0 4 1 4l2-2c0-1 2 0 2 3l-1-1h-1l-2 1a2 2 0 1 0 1 4l4 2c2 2 2 2 4 1 1-1 1-1 0 0l2 2c2 1 2 1 2 3l1 3 1-2 1-5c1-2 1-2-2-2h-3l2-1h5c2-1 4 0 6 1 3 3 3 0-1-3-3-3-3-3-5-2l-5 2c-4 1-4 1-4-2v-1l-4 2v-1c2 0 0-5-3-6h-3m48 8 2 3 3 3 1 2 2 6 3 21v8h3l13-2h10v3l-1 5v2c1 2 1 2-2 2l-11-2-8-1c-2-2-3-1-3 2s0 3 2 3c5-2 19-2 17-1-1 1-1 1 2 1 5-1 5-2 6-11a43 43 0 0 1 0-11v-8c1-7 1-7 1-3 0 6 2 8 2 2 0-8-1-11-3-11-5 0-12-6-11-9 1-2-6-1-7 1-1 1-2 2-3 1-2 0-1 1 1 3s2 2-1 0-3-2-2-4c3-2 2-3-2-3-3 0-4 0-3 1s1 1-1 2h-3v-2h1l-2-1c-1 1-2 0-4-2l-2-2v2m-78 1-3 1h-4l-4 2c-2 0-4 2-3 3l3-1c1-1 2 0 3 1 2 1 6 0 6-2 0-1 1-2 3-2l2-2h-3m330 0-11 1h-11l14 1 23 1c9 0 9 0 9-2s-1-2-12-2l-12 1m-372 23c5 5 10 9 10 7h1c2 0 1-1-1-4s-2-3-2-1l-1 2-2-2-2-2-3-2-3-2c-1 0 0 2 3 4m382-2-7 1 4 1c7 2 17 1 17-1s0-2-14-1m-245 8c0 6 1 8 2 9 2 0 1-12 0-15-2-1-2-1-2 6m-42-2-1 16 1-1c0 5 2 1 2-4 0-10 0-10 2-11 1-1 1-1-1-1l-3 1m201 6 2 6v1c-2 0-2 1-2 5l1 6v1l-1 12c0 5 0 9 1 8l1-3v-9l1-9a17 17 0 0 0-1-17v-2c2 0 1-1 0-3-2-1-2-1-2 4m-112 5c-2 2-2 2 0 2l1 7v5l1-2 1-3c1-1 1-1 1 1v3l1-4 1-6c0-4-4-5-6-3m-108 3-3 9a2 2 0 0 0 3-1l3-1c2 0 3-1 0-5-1-3-1-3-3-2m-82 4-11 1c-5 0-6 0-3 1s3 2 0 1l-25 3h24c1 0 2 1 2 6l-1 6-35 4-5-1c1-2 0-3-2-2l-1 2c1 1 0 3-2 4-6 4-7 4-3 5 3 0 3 1 3 3 0 3 1 3 5 3 5 0 5 0 2-1-9-1 1-3 13-3 7 0 3 2-4 2-4 0-5 0-3 1h12c10 0 11 0 11 2 0 3-2 3-2 1-1-3-4-2-4 1-1 4-1 4 4 3 4-1 4-1 4-5-1-2-1-3 1-3l1 4c-1 6 1 5 2-2s4-10 8-6c2 3 2 3 7 1l5-1-5 1c-5 0-5 0 2-2 10-3 10-3 9 2a22 22 0 0 1 0 5v2c1 0 2-2 3-7 1-7 1-8 3-8s3 1 4 4c2 5 3 4 2-2v-7l-8-15c-3-3-7-4-13-3m47 2 2 1 2 5c1 3 1 3-1 5l-2 2 10-1h4c2 2 4 1 3-1-3-6-10-11-9-7 1 2 0 1-2-1a6 6 0 0 0-7-3m-49 2 1 3 1 3-1-3c0-3 1-4 3-1 1 3 1 4-1 4a4 4 0 1 0 7 3c0-5-8-13-10-9m315 9c-2 5-1 14 0 14 1-1 2-3 2-8 0-7-1-10-2-6m14 0-2 8c1 0 2-1 2-3 1-3 1-3 3-1l1 3v3l1 2c0 2 0 2 1 1h2v-2c-2-2-2-3 0-2l1-5c0-4 0-5-2-5l-1 3v2l-1-2c0-2-4-4-5-2m-154 9-3 1c-7 2-6 4 2 4 7 0 7 0 7-2s-1-3-3-3h-3m104 2-1 2c0 2 0 2-1 1-1-3-3-2-4 0l-2 2h-2l-2-1-2-1c-1 1 2 4 5 4l4 1h1c-1-2 0-3 4-2 2 0 2 1 1 2 0 3-1 3-2 2h-2l1 1 1 5 1 3 1-3c0-2 2-4 4-3 2 0 3-7 0-9-1-1-1-1 1-2 1-1 1-1-1-1l-2 1-2 1v-2l1-2-2 1m-372 2-2 1 3 5c2 6 2 5 9 4l2-1c1 0-6-9-8-9l-1-1-3 1m7 0c0 1 7 8 9 8 3 0 3-2-1-6-3-2-8-4-8-2m274 2c0 2 5 3 11 4 10 0 12-1 4-3-13-2-15-2-15-1M9 518l-2 2-1 2c0 3 0 3 3 2l4 1c2 4 3 1 1-3-2-5-2-5-5-4m24 3-7 3-8 3c-1 0 1 3 3 3l1-1c-1-1 4-4 6-4l1 2 2 1h1v2h2l2-1c2 1 2-3 1-6-2-3-2-3-4-2m234 1-3 1c-2 0-2 0-1 1h2l1 1h-3c-2 0-2 0-2 2l-2 2c-2 1-2 1-3-1s-1-2-1 1c1 2 0 4-1 4-3 3-4 26-2 29 2 2 12 5 22 6l10 1 4 1v-46l-1-2c0 2-2 3-4 2l-1 1 5 1v1c-2 1-17 0-19-2v-2c0-2 0-3-1-1m68 2c-4 2-5 4-2 4l3 3 3 2c3 0 6 5 6 8 0 2 1 3 3 3 4 1 4 1 5-4l1-7c0-2 0-2-2-2l-6-1-3 1v1l-2-1c-1-2 0-2 1-2 2 0 3-3 1-4l-2-2c0-2-2-1-6 1m47-1c-2 2-2 22-1 23l3-1c1-1 1-2-1-7l1-1c1 1 2-1 1-2l-1-6c0-4-1-8-2-6m17 1c-2 4-3 8-1 8 2 1 12-4 12-5 0-2-3-3-6-2-1 1-2 1-3-1-2-2-2-2-2 0m-47 1c-5 3-5 5 0 5l7-4c-1-2-6-2-7-1m-92 5c-1 1 5 2 12 2l6 1h5c3 0 1-1-6-2l-13-2-4 1m15 8c1 2 0 2-2 2-2-1-2 0-3 2l-2 4 6 1 9 2 4 1v-4c0-4-1-5-4-5s-7-2-4-2v-2c-3-3-4-3-4 1m201 2 21 1c15 0 15 0 6-1h-27m-279 16c-3 7-3 9 0 17l2 4v-26l-2 5m247 12c-2 0-3 4-2 5 1 2 11 0 15-2l3-2h-3l-3 1c0 2-4 1-5-1l1-1h2-8m-235 3-1 4-1 6c-2 3-1 4 4 4s5-1 2-7a47 47 0 0 1-4-7m-84 3-4 1-6 1h5l19-1c18 0 20-2 3-2l-17 1m236 0c-3 2-3 2 3 2 7 0 12-1 12-2h-15m-193 4c-6 1-7 2-5 2h3l-4 1c-2 1 0 1 8 1h17c1 0 1-1-2-1l-4-1h4l4-3c1-2-10-1-21 1m-96 2-21 1h14l22 1h8l-6 1c-5 0-3 1 10 1h17c1-1-1-1-5-1-7 0-10-2-4-2 6-1-15-1-35-1m196 7c-2 2-2 2 2 3 3 2 29 4 46 4h8l-6-1-8-2-11-2-27-4-4 2m-62 3c-1 4 0 4 6 4 4 0 5 0 5-2s-1-3-6-3c-4-1-4-1-5 1m-135 0c-2 1 4 1 21 1 6 0 9 0 7-1H71m10 7c-7 1-2 2 9 1 13 0 17-2 5-2l-14 1m51 10c-3 1-2 1 4 1l12 1 96 3c27 1 40 1 42-1l-38-3-27-1h-89m-83 29c-1 1 0 2 1 3v3l1 1 3-1h2c2 1 2 1 0 3v1l3-2 5-1c3 0 3 0 3-2 0-3-1-4-3-2h-1l-3 2v-1c0-3 0-3-3-3a3 3 0 0 0-4 2l-1-2c0-2-1-3-3-1m-32 1 2 2v2l2-2c1-2 4-2 6-1h4l4 1h1l2-1 1-1-13-1c-6 0-10 0-9 1M0 661c0 12 1 17 1 11a504 504 0 0 0-1-11" itemprop="regular" fill-opacity="0.90" stroke-opacity=".90" stroke-width="0.25px" fill-rule="evenodd" tabindex="-1" fill="url(#16282281824-posters-1705522289401-horizontal-regular)" stroke="url(#16282281824-posters-1705522289401-radial-background)"></path><path id="16282281824-posters-1705522289401-bold" d="m14 4 2 6c3 4 5 37 3 50-1 10-2 11-7 17l-8 9-4 6v20l4-7c6-11 11-18 13-18s5 6 4 12c0 5 0 6 1 4 2-1 2-1 4 7l3 10 1 2c2 1 6 11 12 26l19 37a432 432 0 0 1 19 38l2 4 7 15c8 15 8 17 5 14h-3l-1-1-2-1-10-2a50 50 0 0 0-11-4l-2-1-5-1a76 76 0 0 0-12-3c-6-2-9-4-13-8-5-6-5-6-2-9l2-2-3 2-2 2-1-3c-3-7-4-21-2-26 1-3 1-3 5-2 7 1 8-1 3-4-7-5-17-9-23-10-6-2-6-2-8-7l-3-7c-1-2-1 1-1 8l1 11c2 1 11 18 12 22l4 7 2 5 3 7 3 6-5-1-3-1-14-4H1c-1 1-1 42 1 55l-1 6H0l1 1 1 1-1 1c-1-1-1 0-1 1 0 2 0 2 1 1s1-1 1 1l2 2 1-7 1-7v6l1 7c1 1 1 0 1-3l1-5 1 4c0 4 1 5 2 3 0-1 1-1 3 1 3 2 2 3-7 3H0v9l1 10v12l2-1c3-2 5 0 3 2-1 1-1 2 1 2 2 1 2 1 2-2 1-2 1-2 3-1l2 1 2 2 3 2v2h1c1-2 6 0 12 5l4 3 2 1 3 2 2 3 2 2 1 1h-2l-2 1v1c-3 0-4 0-3-1l-1-1-1 2v2l-1 2c0 2-3 4-5 2l-2 1c-1 2-13 2-14 0s-5-3-4-1l-1 2c-1 1-1 1 2 1l3 2c0 2-4 5-5 3l-4 1 4 1 3-1c0-2 6-3 8-2l1 2 6 3c6 4 7 4 4 6l-3-1c-1-3-4-2-4 0-1 2-1 2 1 1l-1 2-3 2h-3c-3 1-6 0-4-2l4-1c3 0 3-1 0-2l-6-3-6-2c-1 0-2 0-2-2l-1 1-1 2-1 1c-2-1-2 0-2 4 0 5 0 5 3 6l5 1h4c4-2 8 1 8 4 0 2 0 3-1 2-2 0 0 6 3 8v2c0 2 0 2-2 0l-2-2c-2 1-5-2-4-3l-3 2c-3 2-3 3-1 3 2 1 2 1-1 1-2 0-3 0-2 2a1 1 0 1 1-2 0H4l-1-3c1-4 3-6 4-4h1v-5c0-3 0-3-2-3s-2 1-2 2c0 2 0 2-2 2-2-1-2 0-2 6l1 7 5 3c2 2 2 2 1 3l-2 4H4v-6l-1-2-1-1c-2 0-2 1-2 4a3 3 0 0 0 2 4l-1 2v1c2 0 2 4 1 5v2c2 0 1 3 0 3-2-1-2 5-2 50l1 50 2-7c2-11 5-13 17-13h6l6 6 6 6v6c0 6-1 8-2 5l-3-2-3-1-1-2a185 185 0 0 0-25 6c-3 1-3 1-2 3 1 3 7 2 11-1 2-2 4-2 4-1s2 1 9-1c2 0 2 0 2 4 0 3 0 4-1 3 0-1-1-2-3-2-4 1-3 1 2-3l-11 2c-5 3-11 3-13 1s-2-2-2 3c0 4 0 5 1 4 3-1 3 4 1 8-3 5-3 5 8 3l26-7 14-4c-5-1-2-2 11-3a450 450 0 0 0 76-14l15-3 19-3 8-3 25-5v2c-1 1 0 2 1 2l1-3c-1-3 3-4 5-2a5 5 0 0 1-4 7l1-1h-1c-4 3-1 8 3 5 4-2 3 0 0 3-3 4-4 4-5 2-4-6-7 0-11 19l-1 11c2 0 5-6 5-8l1-3 1 6v4c0-2 0-2 2 0 1 1 2 2 1 3v2l-2 2c-2 2-2 2-1 3h2c1-3 3-2 3 0s-1 3-3 3-2 1-2 3c1 5-1 3-3-3-3-7-4-8-4-5l1 3 1 3 2 5-1 2-2-4c0-7-2-6-2 1l-2 9v4h9v-5c1-7 4-8 4-1l1 7-1 2-1-3-2 1v2l2 1-1 1c-1-1-2 0-2 1-1 1-1 1 1 1 2-1 3 0 0 4-1 3 0 4 3 2l5-29c0-5 2-6 3-3l2 6 3 11 2 6v4c0 2 1 3 3 3s2 0 2-9l-2-11c-2-5-2-15 1-20 5-12 3-30-4-34-4-2-4-2-4-6a288 288 0 0 0-1-24v-1l-1-5-1 2c1 2 1 2-1 2s-3-1-3-3l-1-2-12 7h1l1 1c-1 1 0 1 1 1 4 0 5 2 2 4-3 1-6 1-4-1l2-1c2 0 2 0-1-1s-4-2-4-5c-1-4-2-5-3-3-1 1 0 3 1 4 2 3 2 4 0 4h-2l-1-1-2 1c0 1-1 2-3 2l-2 2v2c-1 1-2 1-2-1s-1-3-3-3l-4-2h-1c0 2-1 2-3 1l-9 3-2 1-2 1-4 1-4 1-5 2h-3l2-2a5 5 0 0 1 5-1v-3l-5 2c-5 3-7 3-6 2l8-5c5-1 7-3 6-4l1-2c1-2 1-2-1-2s-2-1 0-2c4-3 4-2 3 2v4l1 2c0 3 1 2 6-1 4-3 4-4 0-4-2 0-3 0-3 2s0 2-1 1l-1-6v-5h-5l-6-1c0-1 1-2 2-1h3l-3-1c-4-2-3-5 3-5 4 0 5 0 4-1l-7-1c-10 1-11 1-8-6 2-9 3-9 5-7l2 4c0 3 0 3-2 1l-3-1c-1 1 7 6 11 7l4-1c-1-2 1-1 2 1v2l-1 4c-1 4 0 4 2 4l5 1c4 1 14-2 12-4-2-1-3-1-7 1h-10c-1-2 0-4 1-4l4-1c4 0 4-2 0-2-3 0-9-4-8-5l3-2c1-1 1-1-2-1-5 0-9-2-5-3l3-1v-5h1c1-5 0-6-1-6l-1-1 6-3 5-2h-6a11 11 0 0 1-8-1l-3 1c-6 0-5-1 2-5l7-4c2-1 2-1 1 1 0 2 1 3 3 1h3l-2 2-2 1c0 2 1 2 8 2l5 1c2 3 4-2 5-7l-1-6c-2 0-2-3 0-6 1-2-1-4-4-2l-1 1 3-6 1-2c0-2-1-3-2-3-2 0-2 0-1-1 2-2 1-5-1-6l-1-2 3 1 2 2-1-1 1-1 2-4c1-4 1-4 3 1l2 3 1 2 2 1c3 0 3 2 1 3h-2l-1-1-2-1-1-1h-1l-2-1 1 2 2 4c0 2 0 2-1 1h-1c-1 1 0 2 1 3l1 4v4h6c5 0 6-1 4-5-1-1-1-1-1 1 0 1-1 2-4 2h-4v-4a4 4 0 0 1 3-5l1-1v4l1-1c-1 0 1-3 3-3l1 3c1 1 1-2 1-8 0-10 0-11-2-13-1-1-1-1 1-1s2 0 1-1h-5c-2 1-3 1-5-2a5 5 0 0 0-5-3v-2l-1-3-2-1-3 1c0 2 0 2 1 1h2v1l-1 1-1 1-2-2-2-2-3-1c-1-1 0-1 1-1 2 0 1-1-2-1h-2c3 2-1 4-6 3-2-1-4-2-5-1v3l1-1c0-2 4-1 5 1 3 2 2 3 0 3-1-1-2-1-1 1 0 3 1 3 3 2 1 0 2 0 2 2 1 2 1 2 4 0l4-1 3-2h1l-1 2-3 5c0 2-1 3-2 3a1 1 0 1 0 0 1c1 0 2 1 2 3-1 3-1 3-3 3s-2 0-1 1a3 3 0 0 1-1 5 1 1 0 0 0-1-2l-1-1h-1l-1-1v-2l1-4c2-4 3-8 1-5h-3c-1 2-2 1-3-3 0-3-2-5-4-5-3 0-7 2-7 4s-2 0-2-3c-1-2-1-3 1-2l2 1 1 1 1-3c0-2-1-2-2-1-2 0-2 0-1-2l2-2c2 0 1-3-2-4h-1v2l-1 3-2 2a1 1 0 1 1-1-2c2 0 1-4-1-4-3-1-4 0-2 2l-1 1c-4 1-5 0-4-2s-1-4-3-3l-2-1-3-1c-3 1-9-1-11-3h-3c1 1-5 2-6 2v-3c-1-2-1-2 1-2 2 1 2 1 0 0-3-2-4-4-2-3s2 0 1-1c-1-2 0-3 1-5l1-3-3 1 1 1-2 1c-2-1-2-1-1 1s1 2-1 4h-3l-2-2c-3 0-6-4-5-5s1-1 0 0c-2 1-2 1-4-1l-3-2-1-1 1-2 1-13c0-13 0-13-3-13l-2-1 2-2 19 4c1 0-3 3-5 3v1l5-2c1-1 4-2 5-1h5c1 0 2 0 1 5l1 5c2 0 4 3 2 4-4 2-1 8 4 7 4 0 4-2 0-2-3-1-4-3-1-5v-1c-2 0 0-2 6-4 4-1 5-2 5 0 0 1 2 1 3-1l-1-3-3-5c-1-3-3-4-2-1 0 2 0 3-4 2-4 0-6-2-6-4h2c2 0 3 2 1 2-1 1 0 1 2 1a3 3 0 0 0 4-4c0-1-1-2-5-3l-6-3c-3-2-3-4 0-4l10 3 10 3 5 3c4 0 6 2 3 2a7 7 0 0 0-5 4l2-1c3-4 5-2 5 3v5h-9l4 1a3 3 0 0 1 2 5l1 1c1 2 1 2-1 2l-3-1c1-1 0-2-1-1l-5-1c-3-2-3-2-3 0l1 2 1 1c-1 1 0 2 1 2 3 1 3 4 0 5l-3 3c-1 2-1 2 3 0 3-1 3-1 3-3 0-1 1-2 5-2l4 2-2 1-3 1h2c1 0 3 0 4 2h2l-1-1c-1 0 0-27 2-31 1-3 1-3-1-2-2 0-2 0-3-2-1-3-3-4-3-2l-1 1h-4v-2l3-6c0-3 1-3 2-3l2-1v-1l2 1 2 2h1c-1-2 3-1 5 1l3 2c2 0 2 0 1-1h2c3 0 4 1 1 1l5 2a27 27 0 0 0 9 2l4 2a5 5 0 0 0 8-1c-1-2-41-12-44-12h-3l-10-29c-7-21-10-28-10-26-1 2-1 2-1-1l-1-4-1 2c-1 3-1 3 2 6 3 2 4 4 4 5v6l-2-3a5 5 0 0 0-4-4l-4-1c-7-2-8-2-11-10l-8-14-12-25-14-28-5-12c1-1 0-2-1-2-2-1-10-16-10-19l-3-8c-5-8-11-23-12-28l-6-18c-2-6-2-7 0-11l2-4-1 1c-1 2-3 2-3-1s4-7 5-4h1l1-3c1-1 2-2 1-4l-1-2-2 2c-3 4-4 2-2-5l2-13c0-9 1-9 5 1l8 12 5 6 3 1 2 2 2 1c3 0 8 5 8 8l1 4c3 0 9 12 10 20 0 4 1 6 2 6 0 0 3 2 4 5 4 7 8 10 11 10l17 4 17 4c5 1 7 5 7 9-1 3 0 4 2 3l3 2v-1l-1-4-3-4c-5-6 2-8 16-8 25 2 29 3 27 5h2c3 0 3 0 3 2s0 3 4 2c3 0 4 0 5 2h7l4 1c2 0 8 5 8 6l-3 2c-3 0-3 0-1 1 3 0 3 17 0 18-2 0-2 1-2 5s0 4 1 1c0-3 1-3 2-3 1 2 1 5-1 6s-2 2-2 6v5l1-5c0-4 3-5 3 0l-1 2v1l-1 2-1 4c1 2 1 2 2 1 1-2 1-2 2-1 2 2 2 2 2-1l-1-3-1-2c0-2 0-2 1 0s1 3 1-21v-20h3c2 0 3 1 3 5 1 2 1 3 1 1s1-3 5-4c13-3 19-7 26-17l3-6-4 5c-8 13-21 19-31 14-5-2-5-2-5-7-1-9 0-34 1-33h1c0-2-4-4-7-4-2 0-2 0 0 1 2 0 2 1 2 4a4 4 0 0 0 2 4l-1 1c-2 0-1 6 0 8v2c-2 0-1 7 0 8v2c-1 0-2 1-1 4 1 5 1 5-3 5-2 0-4 0-5-2s-2-2-6-1c-7 1-15-4-11-6v-9l-1-5c-1-1-1-1-1 3v13l-3-2-3-2c0-1-35 0-41 2-7 1-7 1-17-1a96 96 0 0 1-29-10l-2-2-4-6c-4-4-4-4-6-13-3-13-12-26-21-31-7-3-17-15-16-20v-3c-2-1-4-8-4-13a13 13 0 0 0-2-9l-1-2c-2-1-1-16 2-16V7l-3 2c-1 4-2 2-3-4l-1-5H13l1 4m462 3a11 11 0 0 0-2 3l1-4h-10l1 4v6c-1 2 0 2 11 2h12v-3l1-6V6h-6l-8 1m0 16c-8 0-10 0-10 2v15h9c9 0 9 0 9-3 1-2 1-2 1 1 0 2 0 3 2 3 2-1 3-19 0-19l-11 1m-13 36v4c0 2-1 2-2 2l-2 1c-2 2 4 1 6-1 3-3 6-3 6-1 1 1 1 0 1-2 0-4 0-4-4-4l-5 1m18 0-1 3c0 3 0 3-3 3-2 0-2 0-1 1h5l10-1h4l-3-1c-2 0-3-1-3-3s0-3-4-3l-4 1m16 1-1 3h1c1-2 1-2 2 0 1 4 6 6 8 4 1-1 1-1-1-1s-2-1-1-3c1-1 0-2-1-3-2-3-5-2-7 0m-145 47c0 8 0 9-2 10l-2 1h2c3 0 3 18 0 19l-2 1h2a1 1 0 1 1 0 2 2 2 0 1 0 0 3v-2c3 0 3 6 0 6l-2 1h2c3 0 3 17 0 19l-2 3c0 2 0 2 1 1 1-4 3-2 3 2 0 3 0 4-2 4l-2 2c0 2 0 2 2 2 2-1 2 0 2 2 0 4 1 4 3 0v-64c-2 0-1-6 1-7v-1l-1-1v-2l-1-5v-5c-2-1-2 0-2 9m140 12-1 7c-1 1-1 0-1-3 0-5 0-5-3-5l-3 2h-1c-1 0-12 3-11 4l-1 1-1 4v11c-1 1 3 1 10 1l16 1h5v-12c1-15 1-15-4-15-4 0-4 1-5 4m-132 41c0 39 0 39-2 38l-2-2-1-1c-3 0-3 1-3 31v27h16v-24c0-24-1-28-4-26-2 2-2-5-3-43l-1-39v39m-180 9v27c0 3 0 3-4 2-6-1-14-5-19-10l-5-4a47 47 0 0 0 15 13c3 2 13 4 19 4 4 0 1-1-4-2-2 0-1-6 1-6v-1c-2-2-2-2-1-6v-5c-2-1 0-8 2-8 1-1 1-1-1-1s-2-1-2-9a26 26 0 0 1 1-11v-4l-1-2c-1-1-1 6-1 23m303-22c2 1 2 1 2 15 0 11 0 15 1 14l1-3 2-17-1-2h-1l2-1c2 0 2 0 1 3v21h11v-31h-10c-6 0-9 0-8 1m-159 30 1 17 1-2 1-2v-1l-1-15-1-15-1 18M12 189c-1 2 1 6 5 13l3 5c2 5 2 4 3-3l2-9c0-3-1-4-8-7-4-1-4-1-5 1m341 15c0 6 2 10 4 8 2-1 1-12-1-13-3-3-3-2-3 5m-146 0-1 23v22h2c2 0 3-1 4-3 0-3 2-3 2-1 0 3 0 4 2 4 3 0 3-4 0-4l1-1c1-1 1-1-1-1s-3-2-1-2l1-1v-1c3 0 3-6 0-6-1-1-2-1-1-4 0-3 2-4 2-1 1 1 1 0 1-2 0-4 0-4-3-4h-2v-8c0-6-1-9-2-10h-4m196 31 4 12 3 9 2 4 1 1-5-17-7-15 2 6m72 7v1c1 2-2 4-5 3h-3c0 1 3 2 4 1l1 2v2a1 1 0 0 1-1 3v6l1 1v3h-2l2 1c2 0 2 0 0 1l10 1 16 1h3v-11l1-14 1-2h-13l-15 1m-430 4 3 1 5 3 4 2 2 1 8 2 31 10h1c0-2-1-4-4-4l-4-1-11-3-19-7-6-1-3-1-3-2h-4m123 3c-1 1 0 5 1 10l9 32 7 23c1 0 1-4-1-7l-5-17a3478 3478 0 0 0-9-38c-1-4-2-5-2-3M47 261l4 12c1 3 3 6 3 3l3-5 3-5-3-3-5-5-9-5 4 8m31 0 2 3 2 6c0 5 0 6 3 6l2 1h-2c-3 0-3 0-3 3 0 5 4 7 8 7l7-1h5v-6c0-7-1-11-3-12h-2l-1-1-4-1h-4l-1-1-1-1h-2l-1-1-1-1c-1-2-4-3-4-1m-39 1-1 14c0 14 0 16-4 16-1 0-6 5-6 7l4 1 3 1h-2l-3 1c0 1 2 3 7 3 4 1 4 1 4-2-1-2 0-3 9 0l7 1c0-1-1-2-10-4-5-1-6-2-4-2l7 2c5 2 6 1 3-6-1-4-2-6-5-6-2-1-2-2-1-4 1-3 0-6-3-10l-2-3v-3l-1-4c0-2-2-4-2-2m64 2c0 2 6 5 9 5 2-1 3 1 5 9l4 10-3-12c-3-9-4-10-8-11l-5-2c-2-1-2-1-2 1m-45 6c-4 7-2 20 5 32 2 5 6 7 5 4v-3a58 58 0 0 1-2-20l1 5v-5l-1-4-1-4c0-3-2-8-4-8l-3 3m46 8c0 7 1 8 2 8 2 0 2-1 2-6s0-6 2-6 2 0 1-2l-4-2h-3v8m105-6c-1 2-1 5 1 8l1 4 2 3-1-8c-1-7-3-9-3-7m270 1 6 1c0 1-3 3-5 3-4 1-4 18-1 21h2c0-1 0-3 2-4l2-2v9l-2 1 7 1h11v-30l-14-1-8 1m-449 4c0 7-1 10-3 9-1-1-1-1-1 1l-1 3v7l7-7h1l1-2v-3l1 2 1 2c2 0 0-6-2-6-3 0-3-1-3-5-1-4-1-4-1-1m80 4c0 6 1 7 4 5v-5c-2-6-4-6-4 0m-98 0c0 2 1 3 2 3l1 2 2 2 1 2c0 2 2 3 3 1v-2c2-2 0-6-2-6l-2-1a5 5 0 0 1 7 2c0-3-2-4-8-4-5-1-5-1-4 1m147-1c3 2 3 11 0 10-1 0-2 0-2 3-1 4 2 5 3 1 1-2 1 0 1 3v5l1-10 1-10c2 0 0-2-3-2h-1m315 2-1 2-1 1-1 2c-3 2-3 6 1 6l2 1 1 1c1 1 1 0 1-7-1-8-1-9-2-6m-305 0v3l5 16 5 15-9-34h-1m-88 13c0 9-1 13-2 10-1-2-1-2-1 0-1 2-1 2 2 2 3-1 3-1 2 1-2 1 0 3 4 3l5 1 6 1-3-2h1l4-1-1-1-2-1 1-1c2 0 1-5-2-8l-2-3-5 4-4 5 3-5c5-5 3-8-5-13-1-1-1 2-1 8m10-7-3 1 5 5c6 5 7 6 7 4v-6l1-5h-3l-7 1m13 1v3l-2 5v5h3c4-1 4-15 0-15l-1 2m6 9c0 5 0 9-1 7 0-2-4-4-4-1l1 1 2 3c2 3 4 4 13 5 3 1 4-1 2-3l-1-2c0-1-2-10-5-16-1-3-2-4-4-4h-4l1 10m95-8v1l-1 3c0 2 1 3 2 3l1 1-2 1c-2 0-3 8-1 10 3 3 4 1 4-9 0-9 0-11-3-11v1M18 302c-4 4-6 14-3 11l1-2 3-7c1 1 0 7-1 8l-1 2-1 7v9l2-8 2-10 1-4c0-2 1-3 2-3 2-1 2-1 0-1-3 0-5-2-3-2l1-1c0-2-1-1-3 1m24 4-2 3h4l3-1h3c5 2 9 2 8 0l-6-3-7-2-3 3m59 1a6 6 0 0 0 4 7c-2 0-1 2 2 2 2 1 3 0 1-1l4 1-4-5c-7-7-7-7-7-4m41 0 14 4 18 6c6 2 11 2 11 1l-4-1-4-1a119 119 0 0 0-35-9m-116 1-2 12c-3 13-4 15-2 15 1-1 2 0 3 1l4 3 4 2-2-2-1-2c2-2 1-9 0-9-2 1-2 1 1-12l-1-2-3 8c-2 10-2 11-3 8l1-7 1-7c0-2 0-3 2-3l1-2-1-3a1 1 0 0 0-2 0m54 4-2 1c-3 1-4 3-1 3 4 0 4 4 1 4-1 1-1 1 2 1a108 108 0 0 1 21 4l-13-2-7 1c-3 1-3 1-1 1h4c4 2 25 6 26 5l-1-1-4-7c-2-5-3-6-5-6l-6-1c-4-1-4-1-6 1s-3 2-1-1c1-2 0-2-3-3h-4m-40 3c3 4 5 5 7 3l2-1-1 1v1l7 1h8l-2-2-6-1-6-2-7-2c-3 0-3 0-2 2m148 4c-1 1 0 2 1 1l9 2 25 8v1a3 3 0 1 0 1-4l-18-5c-19-5-18-4-18-3m115 6c-2 9-1 14 2 8l2-2c1-1-1-12-2-12l-2 6m-267-2a68 68 0 0 1-1 7h-1c-1-1-1-1-1 1l1 3v1c-1 1 0 2 1 2l3 1-3 1c-3 1-3 3 0 4l8 6c5 5 5 5 7 3 2-1 3-2 3-4l1-2 1 1 2 1c2 0 0 2-4 4s-5 4-1 4h1l-1 2 2 2c0 3 2 2 3 0l1 1c1 2 1 2 2 1l3-1c2-1 2-4 0-5l-1-2-1-1a2 2 0 0 1-1-3l1 1 2 1c3 0 3-1 0-4l-2-3s-1-2-3-2l-2-2v4l-3-2c-1 1-2 0-2-1l-2-3 1-1 1 2 1 1c2 0 0-5-3-8-4-4-4-4-2 1l2 4-2-2-3-5-2-2h-1l1-1v-4c-2-4-6-4-6-1m11 0c0 1 5 8 7 8v2l1 1 2 1c-1 1 9 10 11 10 1 0 3-3 3-5-1-1-1-1-3 1-2 1-2 1-2-6a12 12 0 0 0-2-9l-5-3H47m185 2c0 1 4 3 13 5l15 5 4-1 1-1c-26-9-33-10-33-8m-74 7-1 16v16l1-15c0-14 2-22 2-11 0 6 1 6 2 1 1-3-3-9-4-7m21 5c0 1 0 2-1 1l-2-1v2l1 14v12h3l7 1h3v-14l1-15c1-1 0-1-7-2-3-1-4-1-5 2m26 3v9c2 4 3 4 5 1 0-2 6-7 8-7l1 3c0 3 1 4 6 4h5v-4c0-5 1-7 2-4l1 1c2-1-1-3-4-3-4 0-5 0-5 3l-1 1c0-1-12-4-15-3v-1l-1-2-2 2m-183 4c0 3 1 4 6 4h3l-3 3-3 2h5l-2 2c-2 1-3 4-1 4s4-2 4-7v-5l-4-1c-4 0-4-1-4-3v-2l-1 3m223-1v5c1 1 8-3 8-4-1-2-7-3-8-1m56 2 4 1 4 2h3c0-2 4-1 5 1h1l3-2 2-1c0-1-11-2-12-1h-2l-5-1c-3 0-4 0-3 1m25 2v4l-4 1-2 1 2 3c4 3 4 3 3 0v-3c1 0 2 1 1 2a2 2 0 1 0 3 0 2 2 0 1 1 3-3c1 1 4 0 4-1 0-3-7-6-10-4m-229 2 1 4 1 2 1 3c0 1 1 2 3 2l2-1-1-1c-4 0-4-3-1-4 2-1 2-1 1-2l-3 1-1 1v-1c2-2 2-3 0-4-2-3-4-3-3 0m102 3c2 6 1 14-1 14l1 1c3 1 3 0 3-9 0-7-1-9-2-9-2 0-2 0-1 3m74 0c1 2 1 3-3 3a1 1 0 1 1 0-2l1-1h-3c-4 2-5 5-2 4 2 0 3 1 1 3-2 1-7 2-6 0 0-2-1-2-3 0l-1 2 3 2c1 2 1 2 3 1h2a2 2 0 1 0 2-1c-1-1-1-2 1-3 2-3 3-4 3-2l6-4 3-2c1 0 1-1-1-1h-6v1m-54 6c-1 7 0 9 2 7h2l4 1c2 0 2 0 2-7v-7h-10v6m198-3v52l1 11v-9c1-12 0-59-1-54m-65-1v4l-1 1-4 2-4 2-5 2c-2 1-2 1 1 1 2 0 3 0 2 1l-2 2-2 1-5 2h-4l-2-1c-2 0-2 0-1-2s2-2 5-2c3 1 3 1 2-1l-2-1-2-2c-1-1-1-1 1-1v-2c-2-2-2-2-4 0v4c1 1 1 1-1 1-3 0-3 0-2 2 3 2-1 4-5 3a4 4 0 0 0-6 2l1 2h3c3-3 18 0 17 4l1 3c2 0 1 1-2 3-3 3-3 3 2 4 2 1 4-2 4-5v-3l3-2 2-2 2-2 4-1 3-2-3-1c-3 0-5-1-5-2l1-1h2c0-2 2-3 5-3l2-1c1-2 11-2 12 0 0 2-1 3-5 4-4 2-5 5-2 5 2 0 2 0 1 2l-1 1c1-1 2 0 4 1 3 1 4 0 4-4l4-4 1-1h-1l-2-1 2-1v-2l-1-1c-1 1-7-4-6-5l-2-3c-2-1-3 0-1 2h-1l-3-2c0-2-4-2-4 0m-51 1c1 2 0 4-1 5-2 2-3 3-3 0l-2-1c-2 1-4-1-2-2h-1l-2-1h-5l1 2c1 1 1 1-1 3l-5 3c-1-1-2 1-2 3s3 1 4-2l3-2c2 1 5-2 4-3l3 1c3 1 3 4 1 4v1c3 2 2 5-1 4l-2 2-3 2-2 1c-1 1 2 2 4 2s4 2 4 4h-5v1c-1 1 0 1 2 1l4-1c1-2 5 0 5 2 0 3 2 3 7 1 2 0 2-1-1-1-4 0-5-1-5-2 0-2 0-2 1-1s2 2 4 1c5-2 3-3-3-3-5 0-5-1-5-3l-1-2-2-1c0-2 8-3 9-2l4-1c3-1 3-1 1-1s-2-3 1-3l2-3h-6c-1-2 0-4 2-4 4 1 6 0 3-1-2-1-3-2-4-1 0 1-2 0-3-2l-2-2v2m-54 2c-2 2-1 3 3 5l3 3 1 1c2 0 1-5-1-7s-4-3-6-2m-201 2h-2l-6 3c-5 4-6 6-2 5h1v2l2-1a2 2 0 0 1 3 1l2 1a2 2 0 0 1 1 2h-2c-1 0-1 2 1 2v4c-1 2 0 4 1 4l1-1h2c2 0 3-1 0-3v-7l3 2c1 1 1 1 4-2l3-3-3-3c-2-2-3-3-4-2h-1c0-2-2-1-2 1h-1c0-3-1-2-3 0l-2 1 7-6 1-1c-1-1-3-1-4 1m19 8h-2c-3 0-2 2 1 3h1l3-1c2 0 2 0 1 1-2 3 1 3 3 1l2-2-2-1-2-1-2-1-3 1m19 3 3 4c0 2 1 5 3 5v-5l2 3c1 1 1 2 2 1v-1l-1-1h2l-3-3a17 17 0 0 0-7-4l-2-1 1 2m381 10c0 18-2 16 20 16h19v-28h-39v12m-319-4-1 2c0 1-1 2-2 1l1 1 2 4 2-1c1-1 2-2 5-1h4l-3-1-4-2v-1h2c1-1 1-1-1-2h-5m121 0c-2 1-3 5-1 5 3 0 4 0 3 1-2 1-2 1 0 1 3 0 4-2 3-6l-1-2-4 1m-176 7c1 6 3 9 4 6h3v-1l-3-2-3-3c0-2 6 1 7 2l3 2a2 2 0 0 1 0 4c-1-1-3 0-3 2l-2 1-4-1-2 1c0-1-1-1 0 0l2 1v2l1 1 1 1c0 1-1 2-3 1-3-1-5-8-2-10v-4l-2-1c-3 0-3 0-3 3 0 2 0 2-2-1-3-5-4-5-4-1 0 5 1 7 3 7s2 0 1 2c-2 2-5 3-3 1l-1-1-1 1c1 2-1 3-2 2-2-4-4-4-6-1-1 5-1 5 2 5 2-1 2-1 1-2-2-2 0-3 3-1h4c4 0 4 2 0 4-3 1-3 3-3 7l-1 1c-1 0-2 2-1 7 0 2 1 2 2 2 2-1 2-1 1 5v7c0 3 0 4 3 5h2c0-1 0-2 2-1l2-1v-1c-2 0-1-4 1-5s2 0 1 2v1h2l2 2c2 1 2 1 2-1-1-2 0-2 6 0v-2l1-1c1 0 2 1 1 2l1 1 2 2c1 2 5 1 5-1l-2-1-2 1 2-1 2-3 1-3-1-2-1 2c-1 3-8 1-8-3 0-2 0-2 1 0l4 2c2 0 2 0 1-1v-2l1-1 1-2h3l2-1h19c2-1 3-3 1-3l-1-2-2-3c-2 0-3-1-2-2 0-4-1-5-4-4v2c3 0 2 2 0 2l-2-1a2 2 0 1 0-3 0h-5l2-3c1-1 0-4-3-4l-1-1-1-1v3c3 0 5 1 4 2l-2 1h-2c-1 1-1 1-2-1l-2-3a6 6 0 0 1-5-10h1c2 2 7 2 7 0h-2l-4-1c0-3 0-3 3-2h1c0-2-13-8-17-8-3 0-3 0-2 3m290 0h-2l-1 1v3h6l2-3h2l2 2 1 2-2 1c-2-2-3 0 0 3 2 3 2 3 4-3v-1c0 4 1 5 3 3 2-3 0-6-3-7l-12-1m-328 1c0 2-2 4-5 4-2 1-2 1 0 4l-1 2-4 1 2 1h3c3 1 5 0 5-1h-1l-1-1h3c2 0 3-1 0-3h-2c-1 2-2 1-1-1l2-2h4c3-1 4-3 1-3l-2-1h-3m258 4v2l1 2-4-2a3 3 0 0 0-4-1l2 2 1 5-1 4-1 2c1 1 3-1 3-4l1-2 1-1c-1-1 0-1 1-2 9-4 9-3 7-5h-7m20 3-1 1c-1-1-2 0-3 1l-2 1c0-1-1-1-3 1-3 1-3 3 0 3s3 2 0 3c-2 2-2 2 2 2a3 3 0 0 0 4-5c-1 0-1-1 1-2l3-2 2-4-3 1m-51 2-3 3c-2 3-2 3 0 3h8c3-4 0-7-5-6m90 1c1 0 0 3-2 3v-2l-2 3c0 3-2 5-4 5h-5c-2 1-2 1-2-1 0-1-1-1-3 1-2 3-2 3-5 2l-3-1c0 1 1 2 3 2l3 3 2-1c3-2 4-3 6-1 1 1 4 0 4-1v-1l6-1 2-2a2 2 0 0 0 1-3c-2 0-1-1 1-3s1-3-1-3c-1 0-2 0-1 1m-273 3c-1 5-1 5 1 4l5 1c2 1 3 3 1 2l-2 1v4l-2 2a4 4 0 0 0-2 1h1v1l-1 2 1-1c3-3 5-4 5-2h1l-1-2c-1-1-1-1 1-3 3-3 3-5 0-5l-1-1-3-1-3-2-1-1m376 3h-7v14l1 16c0 2 0 2 19 2h18l-1-15 1-16c1-2-10-2-31-1m-189 2c-1 1-3 2-5 1-4 0-4 0-4 2 1 2 1 2-2 3l-2 2 3-1c5-3 7-4 9-3 2 0 2 0 2-2l1-2 1-1-3 1m99 0c-1 2-2 2-6 1h-5l2 2c2 3 2 3 1 5l-5 1h-2c0 2 2 2 5 1 3-2 6-1 4 2 0 2 2 3 4 2l6-2c2-1 3-2 3-4v-5c1-2 1-2-1-3l-3-1c0-2-3-1-3 1m89 1v2l3 1h2l1 4v3c-2-1-2 4 0 6v7c-1 5-1 6 3 4 2 0 2-1 2-4 0-2 0-2 1-1s1 0 1-3 0-5-1-4l-1-5-1-1-1-2c0-2 0-2 2 0h1v-1l1-4v-4h-7c-6 0-7 0-6 2m-276 0c-1 1-2 15 0 16l1-2v-2l2 2 1 1 1-3-1-4-1-4c0-5 0-6-3-4m213 2c0 4-1 5-2 2-1-2-3-2-6-3h-4l3 2c5 2 5 4 2 5-2 0-2 0 0 1 3 1 4 1 4-1l1 2c1 4 3 5 3 2 0-2 0-2-1 0-1 1-1 1-1-1l1-2 1-6c0-2-1-3-1-1m-301 3 1 4v1c-1-1-2 0-1 1 0 2 7 2 7 0 1 0 1-1 0 0l-1-1 1-2c2-1-1-2-3-1-2 0-2 0-2-2l-1-2-1 2m199 5c-1 1-2 1-1 2 0 2 2 2 4 1h3c3 1 11 0 11-2h-10l-3-1h-4m-161 5c0 2 0 2-1 1l-1-2-1 1v3l-2 1c-3 0-4 1-1 2 2 1 7 0 7-2l2-2c2-2 3-4 1-3h-3c-1-1-1-1-1 1m258 2c-3 2-3 2-4 1h-1l2 2c1 0 2 0 1 2l-2 1-1 1 1 1h3c1 2 2 0 1-3 0-4 0-4 2-3 3 0 4 2 2 2l-2 2h1l1-1c0 2 3-2 3-4h-2v-2c0-2-1-1-5 1m-340 5-1 1c-2 0-3 3-2 4v2l-1 1-1 1-1 1c0 2 3 1 5-2 2-2 2-2 4-1h2l3-2c6-2 3-4-4-3l-1-1-2-2c-2-1-2-1-1 1m278 3-1 2c-2 0-5 3-5 5h2l1 1-2 2-2 2-2 3v2c1 1 0 6-1 6l-6-3h1l4-4c2-4 1-6-1-2-1 1-2 2-3 1h-1l-2 2h-2c-2 0 6 7 7 7l1 1-2 1v1l1 1h3v-2l1 2c0 2 1 3 3 3a1 1 0 1 1 1 2l-1-1c-2 0-1 2 3 4l3 3v-3l-1-5-3-2-3-1-2-2c-1-2-1-3 1-3l1-2c-1-2 4-3 8-2 3 1 5-1 3-2-1-1 0-1 2-1h4-2l-1-1c0-2-4-5-6-5v1l-1 2c-1 2-1 2-1-2l-2-5c-1-2 0-4 1-2 2 3 5 0 4-4l-1-2-1 2m-47 0h5c2-1 1 4-1 5-3 1-4 4-1 4 2-1 5 1 5 3a2 2 0 0 1-3 0l-1-1c-2 0-2 1-2 8l1 5 2-4v-1c0-1 1-1 2 1l3 1 4 2c1 1 1 1 1-5 0-5 0-6 1-5l1 4c0 1 0 2 2 1v-2l2-4c1-4-2-8-7-8l-7-2 3-1 2-1-7-1c-6 0-7 0-5 1m53 1-1 1v4c1 1 0 1-2 1-3 0-3 0-1 1l3 3 4 3c2 0 3 1 3 2-1 0 0 2 2 3l2 4-2-2h-2l2 3c2 3 1 4-2 3l-2-1c1-1 1-6-1-7s-4 1-3 3v2l-1 3v2c-1 0-2-1-1-2l-1-2-2 4v6h5c2 1 2 1-2 1l-2 3c-2 3-3 3-5 0s-3-4-3-1c-1 1 0 1 1 1l2 2 2 2a3 3 0 0 1 2 3l-1 1c0 2-4 3-5 1l1-1c1 1 2 0 3-1s1-2-2-2c-2 0-5 2-4 4a4 4 0 0 1-8 1v-3l-1-3c1-1 1-1 2 1 0 2 2 2 1-1v-2l-1-3-1 1c-1 1-2 2-3 1v5c-1 0-1 2 1 6 1 3 2 3 4 3h2c-1 3 2 7 4 7l4 2-3 1h-4c-1 1-1 1 0 0 1-2 1-2-1-3-2 0-3-2-1-2l1-1h-1l-2 2c0 3-4-1-4-6-1-4-1-4-2-3-2 2-14 3-14 1a1 1 0 1 0-2 0c1 11 0 14-3 14-2 0-3 0-3-3l-1-3v3c0 2-1 3-2 3l-2 2h3l1 1h9c3 2 2 3 0 2-2 0-2 0 0 1 1 1 3 2 5 1 2 0 3 1 3 2h1l3-1c2 2 1-1-1-3l-1-2 2 1a1 1 0 1 0 2 0c0-2 2-4 4-3v-3c-1-3-1-3 2-2l2 2 1 4c0 2 0 2-2 1l-3 1-1 2c-1-1-2 0-2 2 0 4 2 5 5 3 1-2 3 0 2 3l1-1c2-2 6-3 5 0-2 3-2 6-1 6l2-3c0-3 0-3 1-1l1 1 2-3 2-4c0-2 1-3 2-3 4 1 7 4 7 7-1 1 0 2 1 2v-7c1-1 2 0 2 1 0 2 0 2 1 1 1-2 1-2 1 1-1 2-1 3 1 3 1 0 1 6-1 7v2h-5l-2-1-1-1-1-1-2-1h-1l-1-1c-2 0-3 4-1 6v4c4-2 7-2 7-1h-1v3h3c6 0 8 1 5 4s-4 8-4 17l-1 6-4-5-1-2-1 2v2c-1 0-2-2-2-5 0-5-3-10-6-10l-2-2-3-2c-3-1-2-3 1-5 6-3 6-3 6-8-1-4-1-4-2-2-2 2-12 2-27 0h-10c19 3 22 5 4 5h-9v3c0 1 0 2 1 1 1-2 2-3 4-2 3 0 2 2-2 6-3 2-3 3-3 7s0 5 1 4c1-2 6 1 6 3h-4c-4 0-6 2-5 5v1l-1 2h1c1-1 5 0 5 1l-1 1c-2 0-2 2-2 10v9h7v-12c0-12 0-13 2-13s2 0 2 9l1 13c0 4 0 4 22-3 14-5 20-6 21-4h5c5-1 13 0 13 2l-2 1h-2l-2 2-2 1 9-1h7v1l-4 1h1l13-1 10-1h-9c-7 0-8 0-7-1 2-1 10-2 27-2 4 0 4 0 4-2l-1-3c-2 0-2-1-2-7s0-8 2-8c1 0 2-20 0-25 0-3-3-3-5-1s-3 3-3 1 3-4 6-4c1 1 2 1 2-2v-18h-1l1-2v-17c0-4 0-5-2-5v-1l-1-2c-1-3-3-2-1 2 1 2 1 4-1 4l-2 2-2 1-1-2h-2c1-2-1-5-2-3a2 2 0 0 1-4-2c1-2 9-2 8 0h1v-3c-2-1-2-1 0-1h3l-2-1 1-2 5-1c2 1 2 0 1-1l-3-1-1-1-1-1c-1 0-2-1-2-3 0-3 1-3 2-2 2 0 7-2 5-4l-2 1c-1 2-3 3-3 1a2 2 0 0 0-4 0l-1 1v5l-1 1a2 2 0 1 1-3 0v-2l1-1v-6l-3 2h-2l1-1c1-1-1-1-5-1a7 7 0 0 0-8 5c-2 1-2 1 0 3 4 2 3 3-1 1-3-2-3-2-3 0s0 2-1 1c-2-3-1-6 2-6a3 3 0 0 0 2-4c-1 0-6 4-6 6l-1 1c-1 0-2 1-2 3-1 1 0 2 1 2v2h-2l-2-2h-5v4l-3 2c-4 1-7 3-4 3a3 3 0 0 1 1 3l1 2c2 2 2 2 4 1s2-1 2 2l-1 4-1 1-1 2c-1 6-1 7-2 6v-1l-1-1-1 4c0 3 0 3-2 2v-4c-2 1-2 1 0-1l1-2v-2c2-2 2-2 0-3l-1-2h2c1 1 1 1 1-1l-1-3-1-1-1-1-2 2c-1 3-4 4-3 1l-1 2-3 3v-1c1-2 0-3-2-1-1 2-2 0-1-1l3-1c2 0 2 0 1-1v-2l-1-3v-2l1-1a5 5 0 0 1 5-1c1 1 1 1 0 0-1-2-1-2 1-2 2-1 2-1 1-2-3-2-2-2 1-3 2 0 3 1 2 2-1 2 0 3 2 2v-2l1-1 1-1c-1-2 3-6 5-6 1 0 2 1 1 2l1 2 1-4 1-4 1-5c1-5 1-5-2-6l-2-1 1-1-1-1h-3c-1-2-6-2-5 0l-1 2-1-1-4-4c-3-1-4-3-3-3l2 1c1 1 2 2 3 1l1 1 1 2v-3c-2-2-7-4-8-3m58 1-3 1-2 1-1 3c-1 1-1 1 1 1l2-1c0-2 3-4 5-4v4c2 0 1 2-1 2h-5c-3 1-3 1 2 1 6 0 6 0 7-2 1-5-2-8-5-6m-125 12h-1c-3-1-1 5 2 7l3 1 3-1c5-1 6-5 1-5l-4 1h-2v-2l3-1-2-1-3 1m-59 2c-3 4 12 6 15 3h-1l-2-1-2-1h-3c-2-2-5-2-7-1m19 2 1 2c1 0 3 6 3 10l1 3v2l1 11v9h5l6-1 7-1c8 1 10-1 6-5-1-2 0-4 3-4l1-7c0-6-1-7-2-7l-2-1-2-1-3-1-2-2c-2 0-3-2-3-3l-2-2c-3 1-1 3 6 9l8 6-4-2-4-1-1-1-1 1c-2 3-3 5 0 6l1 2 1 2 1 1c1 1 0 1-3 1-4 0-5-1-5-6l-1-3-1 9-1 8-3-2-2-2c-1-1-2-2-2-6-1-6-1-7 2-5 3 3 3 0 0-3-2-2-3-3-2-6 0-3 0-5-2-6v-2h1l-2-1-3-1h-1m177-1v13a16 16 0 0 1-1 11h3c1 0 2 3 0 5-1 1-1 1 1 1l3-1-1 8 1 8v2l-1 3-2 2-1 16v9l-2-7v21c0 19 0 21 2 21l3 1-2 1h-1l1 3v2l1-2c0-1 1-2 6-2l8-2 6-2c4 0 4-1 5-4 0-4-1-4-6-4-9 0-9-3-1-4h6v-4c0-4 0-4-3-4h-2l2 2c2 1 2 1-3 1l-5-1v-1c-2-2-1-3 1-4h3l-3-1c-2 0-2-1-2-4s0-3 1-2c1 2 2 1 6 0s5-2 3-2v-1a3 3 0 1 0-4-2l-2 3v-2c1-4 1-4-2-5l-4 1a3 3 0 0 1-4-1 5 5 0 0 0 0-4c-1 3-2 1-2-4 0-4 0-5 2-5 1 1 1 0 1-2l1-2 1-1-1-2c-2 0-3-2-4-6 0-3 3-2 4 2 1 2 2 2 9 2l3 2c3 2 4 1 4-5 0-7 0-7 8-5 8 3 9 4 9 22 1 25 0 24 5 22 2 0 2 0 1-1l-2-1h-2l1-2 1-1h-1v-26c1-4 1-4 1 1l1 4h8l9-1h-2l-4-1h-4l-3 1a2 2 0 1 1 0-4l2-1 3-3h5l5 1h1l1-1a5 5 0 0 1-2 8l2 1c2 0 3 0 2-2l1-2v-4l5-1-2-1v-1l4-1 4-1h4c0 2 3 0 4-2l1-12v-9h-33l-32 1-1 2-1-3h-11l-13-1-2-12-1-11m-186 5-5 1 4 4c7 8 11 8 10-1l-2-5-7 1m53 5c-2 2 0 18 2 16l2-6c0-5 0-6-2-6-2-1-2-3 1-3l2-1c0-2-3-3-5 0m33 3c-1 2-1 2-2 0-1-3-2-3-2 1 0 2 1 3 2 3l2 1-2 1-2 1h2l1 1c0 1-1 2-6 2-3 1-3 1-3-1a2 2 0 0 0-3-1l1 1 1 2c1 1 1 2 2 1l1 1c-1 1 0 2 1 2 1 1 2 0 2-1h1l3 2c2 0 2 2 0 4h2c3-1 4-3 2-3-1 1-2-7-1-7v-3l1-2c1 0 1-1-1-2l-1-4c1-3 0-3-1 1m66-2-1 3-1 2 2-1h2c0 2-6 7-8 7s-2 0-1-1c1-2 0-3-2-2-2 0-2 1-1 1 2 0 1 2-1 2l-1 1-1 2v1l2 1h-2l-2 1 2 1c2 0 3 0 2 3l1 3 1-3c0-3 0-4 1-3 1 0 2-1 1-3 0-3 4-4 5-1l2-1 1-1c-2 0-2 0-2-2 0-1 0-2 2-1l2 1 2 1-1-4v-5l-1-2h-3m-274 3c-2 2-2 3-1 7v9l1 4v-7c0-10 0-11 6-5 10 9 11 9 11 7 0-1 0-2 1-1 2 1 1-3-1-5-2-3-5-4-4-1v1l-1-2c0-2-1-2-3-2s-3 0-3-2l-2-2v-1l2-1 2-1c-2-2-6-1-8 2m217-1c-2 2 1 6 4 6l3 1-2 1c-2-1-2-1-1 1 1 1 2 2 3 1v2h1c2-1 2-2 0-2v-2l-2-3-2-3c-1-3-2-4-4-2m-202 2a7 7 0 0 0 5 7l1 2v3c-2 2-2 2-1 3 1 2 3-1 2-2l1-3c1-2-7-12-8-10m65 3-3 3-3-1c-2-1-2-1 0-1h2-5l-2 1 2 1c2 2 2 2-1 3h-7l-1 1c0 1 1 2 2 1l1 1-2 1-1 2c0 2 2 3 2 1l1-1 1 2 5 1 3 2 3 2h-4l-6 1c-3 2 9 0 13-2 5-3 13-1 17 4l2 3-1-3-1-3 1-5c2-6 2-12-1-13a17 17 0 0 1-8-2c-2-1-5-1-9 1m172 3a2 2 0 0 0-1 2v-1l2 1 2 3c1 1 1 1 0 0-2 0-2 0 0 3 2 5 3 3 3-2l1-4c2-1 2-1 1-2h-2c0 3-1 2-3 0h-3m21 9 4 1c1 0 2 1 2 4l1 3 1-2c-1-1 0-2 1-2 2 0 1 4-1 6-1 2-1 2 1 2v1h-5a1 1 0 1 1-1-2l1-3v-1l-2 2-1 1-1 4-2 3-1 3 1-1h1v1l2 1v-1l1-1h2l-1-1a1 1 0 1 1 1-2l1 2v2l1 1v2h1v-2l1-2 1-3c0-1 0-2 4-2v-1l1-1c2 2 1 4-1 4h-2c1 1 0 2-1 2l-1 3 3-2 2-1h1l2-2c2 0 2-1 1-3-1-3-2-4-3-3-2 2-3 0-1-2l1-3c-1-2-1-2-1 0s0 3-1 2l-1-3c1-2 1-2-2-2-2 1-3 0-5-1-1-2-1-2-2-1h-3m-72 9-1 1-2 2 1 2v4c2-2 2-2 3 0v-2c0-3 0-3 2-2v-4l-1-2-2 1m-201 2-10 2-17 2-13 3c-6 1-6 2 0 2l21-1c-6 1-7 2-7 4l-2 4v2l2-1 2-1h4l1 1v2l-33 4c-1 0-2 0-1-2l-1-2c-2 0-4 2-3 4l-4 4c-5 3-5 3-4 6v4l1 1h19c13-1 14-1 14 4 0 1-1 2-4 2h13c4 0 4 0 5-8 2-10 9-7 9 4 0 3 1 4 7 2l8-2c4-1 4-1 5-7 1-11 7-12 7-1 0 2 0 2 2 1 4-5-3-26-10-31-2-2-10-3-11-2m262 7c1 1 1 1 0 0-2-1-3-1-7 1s-5 3-9 2h-7c-1 1 0 2 1 1 2 0 2 0 1 1v1c4 1 6 1 7-1h1l-1 2s0 2 2 3c3 3 3 3 3 1l-1-3c-2 0-2-1-1-2 2-2 4-3 4-1l-1 1v2l2 2v-3l1-3 1-2 1 1c-1 3 4 2 4 0 2-3 4-2 3 2 0 4 2 6 3 4l2-2v-2h-2c-1 1-1 1 0 0l-1-2-1-2-2-2c-3-1-3-1-3 1m50 9c-2 8-1 13 1 13s2-1 2-8c0-10-1-11-3-5m-50 0-1 3 1 4 2 3-1 2c-3 2-3 3-2 1l-1-1-3 2 5 2h4c1 1 2 3 1 8v10l1-2 1-8 1-6-1 22v4h3a8 8 0 0 0 4-1v-3c-1-2 2-3 5-2 2 0 3 0 3-2l-1-3a5 5 0 0 1-5-7l1-2c2 0 2 1 1 3 0 3 0 3 1 2h3l1-3v-2l1 5c0 3 1 4 2 3l4-1 4-2 3-2 1-2c0-2 0-3-2-3-4 0-4 0-1-3l2-4c0-1-1-1-2 1l-3 2v2l-1 3c-1 0-3-3-2-4v-5l1-5c2-1 1-3-1-5l-2-2-2 2v1l2 1-1 1c-2 0-2 1-2 4 0 2 0 3-2 3l-2-1 1-1c2-1 2-2-2-3s-6-1-6 2c1 1 1 1 0 0-2-1-1-6 0-6l3 1c1 2 5 0 5-2a5 5 0 0 0-3-3l-1 2c-2 1-2 1-1-1s0-4-2-2l-6 2c-4 0-4 1-4 3l-1 3-1-4c0-6 0-7-2-4m-173 3c-4 1-5 2-4 3v4c0 2 1 2 4 2l5-1 2-1-2-1-3-1h-2l-2-1 5-2c4 0 6-1 6-2 0-2-4-2-9 0m-10 2c2 2 3 3 1 3a3 3 0 1 0 4 2c0-4-1-6-4-6-2 0-2 0-1 1m178 2c0 2-2 3-3 1v1l-2 1h-1c1 1 0 2-1 1l-1 1c0 2 1 2 3 2l-1 7v2c3 0 4-2 3-3-2-2 0-4 1-2a1 1 0 1 0 2-2c-2 0 0-6 1-7h3l-1-3a2 2 0 0 0-3 1m100-1-1 3c0 3 0 3 1 1 1-3 2 5 1 12 0 3 0 3 2 3l4-1 3-1 1-1 2-2c1-2 1-1 1 1v4l5-1 6-1-1-1h-2l-3-1c-2 0-3-1-3-2h8l-2-1c-2-1-4-5-4-8 0-2 2-3 2 0 1 1 1 1 1-1s2-3 2 0c0 2 4 4 5 2h6c5 0 7-1 2-2l-3-1c2-2 7 1 7 3l1 2 2-4v-3h-7l-21-1-15 1m-343 10v11l1 1c2 0 2-1 2-5 0-5-2-9-3-7m243 16c2 3 3 6 2 8l1 3c4 2 4-10 0-13-6-4-6-4-3 2m-110-2c0 2 16 5 18 3h2c2 2 11 2 11 1l-12-3-16-1h-3m-225 4c-1 1 0 12 1 13 2 2 3 0 4-5 0-3 0-3 2-3v-1h-5l1-3-3-1m221 3v17l-1 1v3c0 3 6 5 22 7l11 2h3v-19l-3 1-13-1-13-3c-4 0-3-2 1-3 3 0 4-1 3-2-2-3-1-3 3-3h5l-3-1-10-1c-4-1-4-1-5 2m2 18 29 4c3 0 2-1-4-2l-25-2m226 16-1 6v6h4l6 2 3 1-3 3c-3 4-4 3-1 0 2-4 0-5-4-5-2 0-2 0-2 5 1 6 2 7 7 3 3-3 5-3 6-1l-3 2-4 2c-4 2-4 2 2 6l4 4c0 2-2 2-6-2-4-3-5-4-5-2v2c1-1 1-1 1 1l1 5c1 2 1 2-1 2a2 2 0 0 1-3-2l-1 1-1 3v4h11l16 1h5v-4l-1-4v-1l1-9v-8l-3-1c-2 0-3-1-4-3a23 23 0 0 0-24-17m-9 2c-4 3-8 8-9 13l-1 5h-8c-1-1-1 1-1 11l1 12v-15l4 1h6l5 10-4 1c-6 0-7 2-2 2l4 2c-1 1 5 2 7 2 3-1 3-16 0-16l-1 2c1 2 1 2-1 1-2-3-1-5 2-5l2-1-3-1a2 2 0 1 1 1-3c2 1 2 1 2-4v-12c1-8 1-8-4-5m-53 1c-9 0-9 2 0 2 4 0 6 0 5 1h-3l-1 2 1 3 3 2 2 1 1 2 1 3-1-15-8-1m22 10-3 6c-3 4-2 5 5 6l5 2c3 0 3-12 0-16-2-3-6-3-7 2m-161 3c-2 1-2 3-1 3h24c-2 0-2 0-1-1 2-1-19-3-22-2M33 608l-5 1h-2v1l15 1c14 1 19 2 15 3-1 1 1 1 5 1 5 0 5 0 2-1-6-1-2-2 5-1l11-1 5-1h-5l-10-2h-7c0-1-16-2-29-1m119 7c-3 1-3 1 2 1h11c5 0 5 0 2 1l9 1a38 38 0 0 0 16-1v1l1-1 1-1 1 1c-1 1 0 1 1 1l1-1v-1l2 1a141 141 0 0 0 44 0h8c1-1-95-3-99-2m301 11 1 7v-11h8l8 1c0 1 5 3 11 4l8 2c3 1 9 2 19 1 4 0 4 0 4-3s0-3-8-4c-14-2-19-2-20 0s-13 1-12-1l-5-1-9-1h-5v6m-44 4c-2 1-2 1 3 2l5 1-5 1c-12 2 4 2 19 0h6l-6-1-10-2-5-1h-7m-307 1-2 2h-1c-1-1-5-1-5 1-1 2-1 3 5 3 5 0 9-3 7-5h1c3 3 6 4 6 1l-2-2h-9m58 2c1 1-4 1-11 1l-12 1h-1a9 9 0 0 0-12 1l13 1 4 1h6l4-1h6c2-1 2-1 2 1l-1 2h-2l-7 1-7 2-6 1H83l-4 1-9 2a20 20 0 0 0-10 2v-1h-4c0-2-5-4-8-3-4 2-6 2-8 0h-7c-1-1-2 0-4 1-4 1-4 1-5-1-2-1-2-1-4 1-1 2-4 2-4-1a2 2 0 0 0-2 0c2 1 1 2-3 2H6c-2 0-3 0-3-2l-1-1c-2 1-3 22-1 23l12 2c16 0 21 1 18 2h-7l-15-1H0v13h38l36-1-3-1h-3l-7 1c-4 0-5 0-4-1s5-2 11-2c11 0 13 1 10 2-1 1 0 2 3 2l4-1h1c1 1 5 0 5-1l2-1v2c-1 1 0 1 3 1l4-1h19l99 1 88-1c-9-1-5-2 6-1 7 0 8 1 5 1-4 1-4 1 1 1a12 12 0 0 0 8-2v1l93 1h94v-20c0-11 0-18-1-16l-1 3c-1 1-20 2-22 1h-4l-5-1-5-1c-9 0-12 0-13 2h-4c-2 0-3 0-3 2h-1c-1-2-2-2-2-1h-2c-1-1-1-1-1 1s-5 2-10 0h-3l-3 2-3 2 3 3c2 3 2 3 0 3l-2-2-1-3-2-3-1-1-1 1-2 1-4 2c-2 1-4-1-2-3h-1c-2 1-2 1-3-1h-1v5c-1 2-2 4-1 5l-2-1c-2-2-3-2-3-1l-2 1c-2 0-2 1-2 3l-1 1h-2l2 2c1 0 2-1 2-3l1-2 1 1 1 1 2 2 4 1v2l-15 1h-7c-2 0-3-1-2-2 2-2-1-2-5-1l-18 2-3 1c-2 2-13 2-17 1h-4c0 1-3 0-5-2l-10-2h-9c-1-2 2-3 7-4h9c2 0 3-1 3-2 0-2 0-2 1-1 0 2 2 3 2 1l1-1 2-1h4v-2h6c3-2 3-1 3 2-1 2 0 4 1 2 1-1 4 0 6 2s5 1 6-2l1-2 2-1 3-1 3-1h9l2-1c5 2 9 2 11-1l2-1c0 1 5 1 5-1v-2h2c3 2 3 2 3 0h2c1 2 1 2 3 1h3c2 2 2 2 2 0v-2l1-2h5c2 0 3 0 3-2l1-1c2 1 4-1 4-3l1 1v4h1l2-1 6-1c-2-1-2-4-1-4s2 1 1 2l1 1c1-1 2 0 1 1l3 1 4-1 3-1h2l-2-2-1-2 1 1c1 1 1 1 1-1s-1-2-7-2h-6l-7 1-8-1h-26l-2 1h-8c-7 0-9 0-8 1l-1 1-5-1-3-1 2-1c1 0 2-3 0-3-2-2-7 0-7 2 1 2-1 2-12 0a10 10 0 0 0-9 1l-1-2h-2c0 1-4 2-5 1h-2l-1-1h-2l-4-1h-1l-5 1-4-1h-8l-10-1h-8a35 35 0 0 1-20-1l-5-1H160m18 6c-1 1 0 5 1 6v2c-1 1-1 1 1 1 1 1 1 1-1 2-3 1-3 1 1 2l3-1a3 3 0 0 1 4-1l-2 1-1 2 2 1 2 1 1 1v-2h1l2 2 3 1h2l2 1c2 0 3 0 2-2l1-1c2 1 8-2 8-3l-2-1c-2 0-2 0-1-1 2-1 2-1 1-2-2-2-2-4 1-5l4-1h3l1-1-6-1-3-1h-2l-2 1h-8c-1-2-1-2-3-1h-15m282 1 4 1 8 1h3c0 2 7 2 7 0v-1l-22-1m-228 8-2 1-1 1 2 2 5 1c4 0 5-1 3-3l-2-3c0-1-4-1-5 1m-42 10-4 1c-2 0-3 0-2 1h-4l-1-1h-3l-6 1-5 1-7 1a13 13 0 0 0-8 2l-3 1h-13c-1-1-3-1-5 1h-7a2 2 0 0 0-3 2l1 2 1 1h1l6 1 5 1a1629 1629 0 0 1-76-1l3 1 32 1 6 1 30 1h17l3-1c0-2 7-5 13-6l7-1h9l5-2 1-1h2l5-2 3-1-1-1-1-2-1-1m232 0c0 2-3 3-4 1-3-3-5 2-3 6 1 4 2 4 1-1a2 2 0 1 1 3 0l1 2 1-2c1-2 1-2 2-1 1 2 6 1 6-1l-1-2h-2c0 2-3 1-3-1l-1-1m24 1h-3l-1 1 3 1 1 1a2 2 0 0 0 3 1 2 2 0 0 1 3 0h5l1-1h1a1 1 0 1 0 2-3h-9l-1 1-2-1c1-2-1-2-3 0m-150 10-5 1-3 1-3 2v1h12l6-1 6-1c0-2 4-2 6-1 1 1 1 1 0 0l1-2 1-1c-2-1-18-1-21 1m-279 9 2 1 8 1 9-2-11-1c-5 0-9 0-8 1" itemprop="bold" fill-opacity="0.9" stroke-opacity=".90" stroke-width="0.25px" fill-rule="evenodd" tabindex="-1" fill="url(#16282281824-posters-1705522289401-vertical-bold)" stroke="url(#16282281824-posters-1705522289401-radial-light)"></path><!----></svg>