<svg id="16282281824-posters-1644252214590" itemscope="" itemtype="/posters" itemid="/+16282281824/posters/1644252214590" viewBox="0 0 512 683" preserveAspectRatio="xMidYMid slice" tabindex="0" xmlns="http://www.w3.org/2000/svg"><rect itemprop="background" width="100%" height="100%" fill="white" tabindex="-1" style="fill: rgb(245, 255, 196);"></rect><path d="M0 256v256h6v7l-1 8-3 2-2 2h3l3-1-3 1c-4 2-4 3 0 2 3-1 3 1 0 3l-3 2 3-1h2l-2 2a2 2 0 100 4l2 2-2 1H0v137h7c7 0 8-1 5-6l2 2 4 4h495V531h-6l-5-1 5-1 6 1V0H0v256m0 1c0 140 1 185 1 98V198h5l-2-1H1V99L0 257M222 34c-10 2-19 11-21 19 0 1-1 2-3 2s-2 0-2 2l1 3c0 1 2 2 11 3a2327 2327 0 0134 5l44 8-1 1c-1 1-1 2 1 2 6 2 10 1 9-2l2-1c3 0 0-2-7-3l-4-2c4 0 4-2-1-3-9-1-9-1-13-9a45 45 0 00-50-25m11 1c17 2 28 10 34 25l4 6c3 1 3 1 2-4-7-15-22-27-39-27l-8-1 7 1m-8 12c-5 2-9 5-10 7s-1 2 1 1v3l24 3 23 4c1-1-4-8-9-12-8-7-21-10-29-6m-37 35c0 16 1 19 4 20h2l-1-11c0-8-1-13-2-15-3-6-4-5-3 6m14 4c0 18 1 18 7 20l6 1v-4c0-5 0-5 2-5s2 0 1-1c-1 0-2-2-2-6-2-15-2-14-7-15-8-2-8-2-7 10m67-2c0 3 0 4 2 4 19 5 19 5 19 1 0-3-1-3-5-3s-4 0-4-2c1-1 1-2-2-1l-2-1h-1l-5-1c-2-1-2-1-2 3m-30 13c1 15 2 16 6 16 2 0 2 0 2-5-1-4-1-5 1-6v-1l-1-8-2-9-4-1h-2v14m30 4c2 19 0 17 12 20l11 2-1-15-1-14-10-2-10-2-1 11m-66 11c0 9 1 16 2 15l2 1 30 5 26 4-29-3-26-3 2 1 3 1h-3c-2 0-3 2-1 5l41 5c46 6 45 6 44 8l1 1a485 485 0 0133 4l2 3c1 3 4 3 4 0 0-2 0-2 7-2 17 2 21 3 21 5 1 3 4 4 4 1 1-2 1-2 6 0 10 3 13 4 17 9l5 5v-4c-1-4-1-6-4-9-8-8-15-10-50-14l-26-4-7-1-10-1h2c3 0 3 0 2-2-1-3-6-5-8-4l-4-1h-3l2-3 4-2c1 0 1-6-1-7l-10-3-10-2v5c0 5 0 6-3 4l-5-2c-15-1-16-2-15-7 0-4 0-4-2-5-5-2-6-2-5 5 0 6-1 8-4 4l-4-1-16-2-1-5c0-8 0-8-5-8l-6-2c-2 0-2 0-2 6m-93 13c10 1 9 2-4 2-25 2-29 6-5 5 17 0 22 0 71 6 25 2 28 2 23 0-4-2-4-4-1-5 2-1 2-1-2-1l-13-3a366 366 0 00-69-4m8 29l-4 1c-3 0-4 1-3 2 0 2 0 2-2 2h-2c0 1 3 2 5 1l1 1 5 1 17 1c8 2 78 9 80 9s1-7 0-8h-5l-3-1-3-1-10-1-74-8-2 1m105 12c0 5 0 5 4 5l37 5 7 1 1 1 11 1 31 3c45 4 53 6 61 12 4 3 4 3 3-3-3-11-10-13-78-19l-28-4-12-2a3053 3053 0 01-32-3l-5-1v4m-109 18c0 16 0 20 2 21 1 1 2 4 0 4l-1 15v15l-1-14c0-11-1-14-2-16-3-3-5-1-4 7v17l1 9 3 1 13 2 8 2-12-1-12-2c-2 0-1 13 1 14l1 2c-2 0-2 2-2 42l2 42 1 1 3 1 4 1 1 2c0 2-2 3-3 1 0-2-3-3-5-2s-2 2-2 17l1 17v7c1 1 2 7 1 9v1c2 0 2 1 2 9 0 10-2 14-2 5l-1 14a128 128 0 001 22c-2 2-1 7 1 8 3 1 3 4 0 5-2 0-3 8-1 9v17c-2 0 0 4 2 4 2 1 2 2 2 7l1 6v-7c0-5 0-6 2-5l1-16c0-11-1-15-2-16v-5l1-7v-7h5c20-4 44 1 48 9 3 5 4 86 1 86a4 4 0 002 7l2-1h2l1-1 4-1 5-1 2-1 3-2 3-2a1 1 0 100-1l-1-1 7-1 6-1v-9a477 477 0 00-4-52c1-5 0-5-11-1l-7 3v21l1 32v12h-2c-1 0-2 0-1-1 2 0 3-12 1-45 0-16-1-18-2-17l-4 1h-2v-17l3-2 4-2v-27h-9c-24 2-57 2-57 1 0-2 3-2 15-2 31-2 57-2 57-1l-3 1h-2v13l1 14c1 1 16-6 15-7l1-3c2-1 2-3 1-8l-1-27c0-18-1-19-2-19l-2-1 2-1c2 0 0-45-3-65 0-4 0-4-15-4l-10-1 1 27v27h-4l-4-1-5-1h-6l-13-1-3-1 3-1h12l11 2h2c1-1 0-1-1-1l1-1c1-1-2-1-10-1l-14-1h-3v-17l-2-20 1-3h1c0-4-7-3-11 2l-11 5-1-4v-4h6c5-1 13-3 16-5l1-5-2-13v-9h17c19 1 18-1 18 14v9h11c13 1 14 1 14-2-1-2 0-3 3-4 4-2 8-1 9 2l2 33c3 37 3 40 5 42l2 2-2 1-2 2a4057 4057 0 003 45c0 4 0 4 3 3a70 70 0 0019-7l5-2 6-3 4-2c1-2 1-2 3 0l6 2c7 1 9 2 8 4 0 1 2 9 4 11 1 1 1 2-1 3l-1 5c0 6-5 12-9 11-2 0-3 0-5 2l-2 3-2-3-3-1c-5 1-12-5-12-10 0-2 0-2-1-1-2 1 1 8 4 11l1 1c-2-1-6-6-7-9 0-3 0-3-10 2l-8 3v5c0 8 3 48 5 59 1 7 1 7 4 7a30 30 0 0017-2c1 1 3 0 5-2l4-2 1-1 2-3c3 0 9-3 28-12 11-4 11-5 11-8 0-4 1-4 9-5 10 0 26-8 24-12 0-2 0-2 1-1l1 4c0 4 2-3 2-10 0-4 0-5 1-3 1 10 1 11 2 10l1-5c0-5 2-4 2 1v3l1-3c0-2 0-2 1-1s1-1 1-5a14 14 0 00-2-9l1-2-4-1h-6l13-1 7-1h-6v-8l-1-13-1-6h-1l-1-1c-2 0-2 2-2 6l-1 6v-6c0-6-2-8-3-5h-1l-1-2c-2 0-3 2-3 7-1 2-1 1-1-3v-8c-2-2 1-2 10-3l11-2c5-2 7-3 7 0l-1 1a1 1 0 101 2l1 6 2 33c1 7 1 8 2 6l5-3c4-1 5-2 5-3l-4-56-1-9c-2-2-3-16-1-17v-3c-1 1-2 0-2-1l1-1 1-2c-2-46-2-54-4-55v-24l-6-1-6-1 6 1h6v-3l-1-7v-3l-41-5-185-27c-4-2 7 0 56 7l170 24-1-23v-23c2-1 4 0 3 1 0 1 0 2 2 1 2 0 2-1 1-4l1-3 1 1 1 1c2 0 1-2-3-4l-4-3h3c7 4 10 2 10-7 0-12-3-19-11-22l-4-3c-1-1-2-2-7-2l-7-2c-2 0-2 7 2 58v8h-3l-3-1c0-2-1-2-3-2h-4l-1-13c0-13-1-14-3-14l-1-1h1l2-1c1-1-7-2-13-2-3 0-3 0-3-3 0-2 0-3 1-1 0 1 1 2 6 2l9 2c1 0 2 0 1-1l-1-8-2-13v-5h-5a7 7 0 01-7-1c-2-1-2 0-2 5s0 5-1 1c0-10-1-14-2-11-1 2-1 2-1 0 0-1-1-2-7-2l-23-2c-21-2-19-3-19 11l1 12h-3c-3 0-3 0 1 1l4 1h-5l-39-3 1-5 1-4v3c0 4-1 4 7 3h7c3 2 3 2 1 2-1 0-2 0-1 1l9-1h8c2 2 5 1 5-1l-1-3v1c0 2-2 3-4 0l-1-1c2 1 2 0 2-7s-1-8-2-8h-5c-5-2-20-3-20-2h-1c-2-2-2-1-1 6l-1 9-1-9c0-8-2-16-2-9 0 2 0 2-1 1-1-2-2-3-5-3l-5-1c-1-2-36-6-44-6-1 0-1 26 1 63v10h-7l-19-2-12-1 2-1 14 1 16 2c3 0 4 0 3-1l-16-2c-16 0-15 0-16-8v-5h6l6 1v12l1-6v-6h14-3l-1-9v-8l-7-1-11-1-4-1v7l-1-10 1-10c0 8-1 8 13 8l9 1-1-13-1-14-10-2c-10-1-12-2-12-6 0-2-3-3-14-3h-7v19m257 51l-4 6c-2 2-2 3-1 16a414 414 0 001 19c0 3 0 4 2 4v1c-2 0-2 1-2 4l1 6c0 2 1 3 2 3v1c-3 0-2 18 1 20v1l-1 12c3 46 3 46 5 46l3-2 3-2 2-1c1-1-1-25-3-27-1-1-1-1-1 1l-1 3c-2 0-2-1-2-4 0-4 1-5 7-1 2 1 2 1 2-2 0-2 0-3-1-2 0 2-1 2-3 1-1-1-2-3-2-10l-1-9c-1-1-1-1-1 1v4c-2 1-3-3-3-12v-8l5 2c5 2 5 1 4-6l-1-9v-4h23l-18-2a8 8 0 01-7-2v-1c2 0 2-1 1-8 0-10-1-11-6-13-4-2-4-2-1-1 3 0 3 0 3-3l-1-12-2-12-1-2-2 4m-182 36a10268 10268 0 00152 20l-35-5-75-11c-34-4-48-6-42-4m60 25l-2 2c-4-3-13 6-12 10 1 2 0 3-1 4v4l2 4c1 2 1 2 1-1l-1-4v-2l1 1v1l1 5c0 2 1 4 4 7s9 5 8 2h-3v-1c1-1 4 0 5 3 0 3 0 3 2 1l4-2 2-2h1v1h3c3-2 4-4 4-8l2-5v-3l-3-5c-1-6-5-10-9-10-3 0-4-1-5-2-1-3-2-3-4 0m74 20l1 17h7l19 1-12 1-13-1v7l1 11v4h10c10 0 11 1 11 3l1 3c2 1 0 4-3 5-2 1-2 1 1 1l5 1-7 1c-4 0-7 0-5-1 4-1 2-2-5-2-5 0-7 0-4 1 5 0 5 2 0 2s-5 1-6-17l-1-15 1 17c0 18 0 20 2 17l15-1 15 1v-5l-1-25-3-31v-11h-10l-15-1h-4v17m129 11v1l2 24 1 2v9l2 18c1 0 2-3 1-11 0-7 0-11 1-10h1l-1-2-3-22c0-10-1-11-4-9m-350 47v2l-1 1v3c0 1 1 1 2-2l2-1-2 7-2 7v2l2 4c0 2-3 3-16 3H77l1 3c1 3 1 3 15 3h13v-17c0-16 0-17-2-17l-2 2m390 0l4 1h-4c-8 0-9 1-9 5l2 6h-24l2 11 1 13h1l10-1c13-2 13-2 13-12v-9l3-3 7-7 3-5h-6c-6 0-6 0-3 1m-63 21v10l-3 2c-4 4-11 3-14 0l-2-1c0 1 1 3 3 3l1 2h9c5 0 5 0 6-2 1-3 2 0 2 6 0 4 0 4 2 3l11-3c7-1 8-2 5-2l-4-2 1-1h3l3 1h3v-12l-1-13-13-1h-12v10m-23-4c1 5-1 7-3 4h-2c0 2-3 1-3-1l-1-2v2c0 2-1 2-3 2-3 0-4 0-4-2-1-3-2-3-10 0-6 3-6 3-4 26l2 22a83 83 0 005 28c0 8 2 6 2-3a37 37 0 000-12l1-2c1 1 1 0 1-3s0-5 1-4l1-6c0-4 0-6-1-5l-2-2-2-3-2-1c0-2 0-2 2-2h3l-1-1h5v-5a8 8 0 012-9c-3 2-3 1-3-6v-7h8c10 0 16-1 15-2h-1l-1-5v-5l-1 4c0 6-2 7-2 2l-1-5c-1-2-1-1-1 3m-287 16l1 1v1l-1 3c0 3 0 3 1 2 1-3 6-3 6 0h2a8 8 0 019 0c0 1 1 1 0 0 0-2 3-2 5-1 2 2 14 2 15 1 0-2 12-2 17-1 1 1 3 0 4-1 3-1 4-1 3 1l2 1 2-1 3-2c4 0 5-3 1-3l1-1-34-1-37 1m-28 6h-6v13h21v-6c0-6 0-6-3-5l-2-1c1-1-3-2-10-1m-4 19l-1 44c1 55 0 68-2 68l-1 4c0 5 0 5 5 6 4 1 6 4 2 4l-1 3v4c-1 1-2 6-1 7v8c-2 13-1 20 1 20h14c1 1 1-1 1-7l-1-50c-2 0-2-6-3-43 0-45 0-49 4-51 2-1 2-2 2-10v-9h-9c-9 0-10 0-10 2m170 53c-5 5-2 12 4 11l6-2c3-1 3-1 1-1l-2-1-1-1-1-5c1-4 1-4-2-4l-5 3M0 618l1 65-1-131v66m52-25l2 1 15 13c4 4 5 5 7 5h2c-1 1 0 1 1 1 2 0 2 0 1 1-2 1 2 5 5 5h6c-1 1 0 3 2 2 4-1-9-12-35-26-5-3-8-4-6-2m168 45c5 3 11 4 14 3h2c1 1 8 0 8-2 0-3-1-4-15-4h-13l4 3m21 22l-2 1c-4 0-4 3-1 4l2 1c0 2 41 1 41 0h20c2 1 6 0 6-1l-31-4h-13a4 4 0 00-5 1v-1l-3-1h-8c-1 2-1 2-4 1l-2-1" tabindex="-1" itemprop="light" style="fill-opacity: 0.525; fill-rule: evenodd; fill: rgb(0, 168, 126);"></path><path d="M0 98v98h2c3 0 5 2 4 3H1l-1 55v53h3l3 1H0v92c0 82 0 93 2 94h2c1-2 4-2 5-1l1 9 1 8H7c-4 0-4 0-4-3l-1-4v-5c0-7-2-2-2 6v8h3l3-1v17a97 97 0 01-3 23l-1 3c-2 0-2 6-2 52v52l7 6a41 41 0 009 6l8 11 3 2h486v-54l-1-76v-21h-4l-4-1c-4-1-2-2 3-2h5v-14l1-265V0H0v98m0 1c0 53 1 75 1 48a10815 10815 0 00-1-48m220-66c-8 3-19 15-19 20l-4 1c-2 1-2 1-1 5 1 3 1 3 19 6l71 11h-16l-4-1c2 0 1-1-4-1h-7v3l1-1 2-2c2 0 3 0 2 2 0 1 0 2 2 2l9 2h-1c-2 0-2 1-2 7l2 20c0 10 1 12 2 12v1c-2 0-2 1-1 5 0 4 0 4-2 4l-2-1-9-2-9-2-1-4a9 9 0 00-1-6v-12l9 2 11 1c1 1 1 0 1-2s0-3-1-2c0 2-1 2-7 2-13-2-12-1-13-11v-8h-3c-6-2-6-2-5 6 1 23 1 23 3 23 2 1 2 1 0 1s-2 0-2 6l-1 5-2-1-10-2c-10-1-10-1-10-4 0-2 0-3 2-2l1-1-1-2c-1 1-2 0-2-2-1-2-2-3-5-4l-4-1 4 1h4v-5l1-4 10 2 9 1c2 1 2 1 2-2 0-2 0-2-1-1h-11l-9-1-1-4-1-10v-6l-7-1-7-2 1 16c0 14 1 14 3 15s2 1 0 1c-3 0-3 0-3 2l1 11 1 10c2-1 4 2 4 6s0 4 4 4l83 10-1 2c-1 1-1 1 1 1 1 0 2 1 2 3l1 2v2l2-1c2-2 2-1 0-4-1-1-1-1 3-1l8 1 2 1 1 4c2 3 5 1 4-2-1-2-1-2 2-2l6 1c2 0 3 1 3 2 1 3 5 4 5 1 1-2 1-2 4-2l5 1 2 2c1 3 5 4 5 1 0-2 0-2 5-1 7 0 7 1 7 3l2 2c2 1 2 1 2-1s2-2 7-1c4 1 4 2 4 4s1 3 2 3c2 0 2 0 2-2-1-3-1-3 4 0 3 2 3 2 2 5s0 4 1 3l1-2c1-2 1-2 2 0v8c1 1 1 1 1-1l1-3c1 0 3-6 2-9-2-5-16-14-24-16l-4-2-2-1v1c0 2-11 1-17-1l-19-4c-27-3-26-2-28-5l-4-3-3-1c-1-2-3-3-2-1l-2 1-3-1c0-1 2-3 4-3 4 0 2-9-1-9-2-1-2-1 0-1s2 0 1-17a42 42 0 00-2-13l1-5a7 7 0 014-7l3-4c2-2 1-4-4-4l-3-2c-2-2-3-3-8-3l-6-1-3-8c-8-16-22-26-40-27l-13 1m7 13c-4 1-4 2 4 1h7l-6 1c-8 1-19 8-15 9l45 7c1-2-6-10-10-13-8-5-17-7-25-5m-39 40c0 16 0 16 3 16l3 1h-3c-3 0-3 17 0 17l2 2c1 3 3 1 3-4l-2-21-2-18c-1-4-2-7-4-7v14m-85 38c-5 1-5 2 0 2l-6 2c-10 1-17 3-17 5l4 1 34-1c-1 0 0 4 2 5l1 1 1 1v-6c-1-1 2-1 6-1l9 1c2 0 3 1 3 2 0 2 2 4 4 4s2-1 2-3c-1-2-1-2 4-2a3515 3515 0 0036 5l12 1c2 0 1-2-2-4-4-2-4-3-1-4 4-1 0-2-14-4-37-5-71-7-78-5m7 29c-6 1-12 4-12 7 0 2 1 2 9 2l42 3c62 7 68 8 68 5 0-6-2-8-11-8l-36-5-54-5-6 1m109 1l28 5 28 4c0 2 7 1 7 0s-1-2-3-2l-2-1-4-1-54-6v1m3 13l1 4 10 2 23 2 15 2 20 3 67 7c10 2 18 6 20 12 1 1 1 1 1-1 0-3 2-4 2-2h1c2-1 1-2-2-2l-1-4-1-2-3-2-7-5-7-5h-1c0 2-1 2-3 2l-42-5c-42-4-43-4-43-7 1-1 1-1 0 0-2 1-7 0-31-3l-15-1h-4v5m-106-2c-2 0-2 0-2 13v12l-3-1-2-2-2 3v12c0 5 0 5 4 5l3-1h2l1 2c0 1-4 2-5 1l-3-1h-2v25l2 68c0 44 0 43 4 45 2 0 2 1 1 1-4 0-5 1-4 51l1 62v10c0 21 0 22 2 23 1 0 2 1 2 3l1 53c0 53 0 58 3 58l1-8 1-9v-1c-2 0-2-1-2-19v-77l1-25v-26h5c19-3 40 1 45 7 4 4 4 2 4 50 1 37 1 38-1 38s-2 1-2 9c0 6 0 8 1 6 1-1 1-2 2-1l4-1c1-1 2-2 3-1l1-1 2-1 4-1c2-2 2-2 2 0 1 1 6-2 6-4-1-1 5-4 10-6 2-1 3-2 3-5 1-4-2-65-3-67l-10 4c-8 3-9 4-9 7-1 3-1 3-1 1 0-3 0-3-6-1-2 0-2-1-2-8v-9l4-2 6-3c7-2 17-7 16-8v-1a272 272 0 00-1-50c0-6 0-6-2-6-2 1-2 1 0-1l2-2-1-19-4-47c-1-1-25-3-26-1v46c1 5-3 7-3 3 0-2-1-3-14-3-10 0-14-1-14-2l2-1v-1c-2 0-2-1-1-1v-1c-1-2-1-2 3-2h4l-4-1-3-1v-6l-1-3 1-1c2-1 2-1 0-1-3 0-3-6 0-6v-1c-2-1-2-1 0-1 1 0 2 0 1-1l-2-1c-1 1-1 0-1-1v-3l15 1 15-1-4-1h-26v-3l-1-4v-28h31l-1 11c0 7 0 10 1 9h1l14 1c12 0 13 0 13-2s2-4 7-4h3l1 6 5 59a25 25 0 003 15c-2 0-2 11-1 29l1 13c0 7 1 10 3 9 6-1 22-8 25-11l5-1 5-3h4c1 2 2 2 4 2 4 0 9 4 10 10l2 5v3l-2 6c0 4-2 7-5 9-2 1-2 1-1-1 3-2 3-5 0-3l-5 2-4 2h-2l-5-1c-3 0-4-1-4-3l-2-3-2-2-1-1-23 9 5 62 1 10h9c16 0 20-1 24-6l5-4 10-4 17-8c7-3 9-5 8-9s0-4 8-4c9 0 24-5 25-9 1-1 1-1 1 1l2-2c0-3 1-4 1-2 0 3 2 4 2 1l3-2 1-1h1l1-2c0-2 0-2 1 0s1 2 1 0c0-3 0-3 1-1 1 1 1-1 1-6 0-6 0-8 1-5l1 3v-3c0-3 1-3 3-3 4 0 3-3-1-3-4-1-3-1 2-1 6 0 6 0 5-3l-1-1c0 2-1 2-4 2-4 0-5-1-5-10v-6l-1 6-1 7v-6c0-11-1-21-2-20h-10c-1-2-1-2-2-1h-1c0-2 1-2 4-2l8-1h1c-1 1 1 1 5 1h6v5c0 2 0 4 1 3v-9h-6c-3 0-5 0-4-1 1-2 10-6 11-5l-2 3c-1-1-2 0-2 1l4 1c1 0 2 7 2 18 0 15 1 27 2 26s1-1 1 1c0 3 0 3 1 2l5-3c6-2 6-5 4-31l-2-27c0-9-1-12-2-12l-1-2 1-2 1-1 1-2v-1l-1-1-2-4c-2-2-2-2-1-3l2-3-2-2v-1c2 0 2 2 0-28l-1-27-1-3-2-1 1-1c2 2 2 0 1-14a4428 4428 0 01-3-51c-1-19-1-18 1-18l2 2c0 2 3 1 5-2l2-3c1-2 1-2-3-4s-3-3 1-1l4 2 2-4c2-4 2-16-1-24-1-2-8-7-10-7l-2-2c-2-1-16-4-17-3-1 2 1 49 3 62 0 4 0 4-2 4s-2-1-2-14c-1-19-1-19-6-19-4-1-4-1 1-1h5l-1-8c-1-19-1-24-2-20l-1 4v-4c0-3 0-3-4-3-3 0-3 0-1 1 3 0 4 2 2 3v3l-2-2-3-4c0-1-2-2-7-2l-8-2-48-5h-4v9l-1 13-1 4v-3l-2-11v-9l-17-2a139 139 0 01-20-4l-10-2-4-1-37-4h-4l-1 33a293 293 0 001 35c0 2-2 2-8 1-4 0-4 0-4-5a4 4 0 012-5l4-1c4 1 4-1 0-2-3 0-3 0-4-9v-8l-10-1-11-2h12c8 1 12 0 7-1-1-1 0-1 4-1s6 0 5-1h-4c-3-1-3-2-4-15v-13l-7-1c-12-1-14-2-14-4 0-4-11-7-21-5m258 65a57 57 0 01-7 11l-2 1-1 5 2 19 1 14 1 9c0 24 0 26 2 26v1c-1 1 1 57 3 59a24 24 0 0018-3c1 0 2 0 3-2 2-2 3 0 3 6l-1 7v1c2-1 3 0 1 2l-1 2-1 2v2c2 3 2 4 0 4l-2-4-1-2v3l-1 3-1-3c1-2 1-2-2-2-6 2-14 6-14 8a1841 1841 0 006 71c0 4 2 9 5 11 1 1 1 1 1-10-1-11-1-12 1-12l2-2c0-8 1-11 2-9 1 1 1-1 1-5a149 149 0 01-1-23c0-5 5-13 7-11l1-1c-1-3 6-9 10-9h4l-4 1c-4 1-4 3-1 3 4 1 1 4-3 3-5 0-5 2 0 2l7 2c2 0 3 0 2 1h16l1 4 1 5 22-6 2-3 1-2 1 2 2 1v-11c0-13 1-15 3-2 0 7 2 15 2 12l4-1 17-2h3v-10l-1-9 5-6c9-9 9-10 2-10-8 0-14 3-14 6 2 8 3 7-3 7-10 0-19-1-19-3l-2-1c-2 0-3 2 0 2 1 1 0 1-1 1l-3-1-1-2c-1-1 1-1 4-1 5 1 6 0 4-2-3-4 2-34 6-33h5l-4-2c-2-1-2-2 5-24l2-7-14 10 7-5c4-2 5 0 2 7-1 4-1 4-6 4-5-1-7-2-5-5l-2 1h-2c1-2-4-1-7 1l-7 1h-4l3 1c4 0 4 3 0 5-2 1-4 1-13-1l-37-12c8 1 12 1 5-1-10-2-11-2-11-6l-2-5c-3-2-3-3 1 0l2 5c1 1 1 0 1-3v-5l3-4 3-4v-1l2-4c2-1 2-2 2-3l1-1c1 0 2 0 1 1h1l5-1c3 0 4-1 2-2l-1-3-1-3v-7l-1-1v-3a2 2 0 000-2l-1-1v-2l-1 4 1 9v8h-3c-3 0-4 0-4-4l-1-7c-1-4 0-6 3-6 2-1 2-1-1-1-2 0-3-1-3-2v7l1 11-5 1-5-1 1-5 2-4 1 2v4c-2 1-2 1 0 1l1 1 1 1 1-2-2-12-1-1v2l-1 2-2-2c0-4-1-8-3-9-2-2-4-35-2-39l2-3-7 11M97 248l-1 6c-1 2-1 3 5 3l4 1v-15h-3c-6-1-6-1-5 5m-3 11c2 2 2 4 2 12v14c1 3 0 4-1 4-2 1 0 1 4 1h7l-1-15-1-16-6-1c-5 0-5 0-4 1m156 37a6 6 0 002 5c-1-1 0-1 2-1l3 1 1 2v-1l1-1 1 2 2 4c2 4 3 6 1 5l1 2 2 3-1 5-1 6 1-1 3-6 1-4v-4l-2-5c0-5-6-10-10-10-2 1-3 0-4-1-1-2-3-3-3-1m73 5l1 1 1 1 10 1h10v13c1 14 2 16 3 14 1-1 1-1 1 1l1-3 1-5v12l-13-1c-11 0-12 0-6 1h12c6 0 5-2 6 15v14l1 5h-12l-12 1h28v-14l-1-17-2-38-5-1-15-1-9 1m4 8l-1 4v17l3-2 4-2 1-3-1-9-1-5-3-1c-2-1-2-1-2 1M0 401c0 51 1 71 1 46a9740 9740 0 00-1-46m479-91c-4 1-1 9 3 10l8 15h-7l4 1 5 2c1 3 2 4 7 2h8c5 1 5 1 5-1h-3l-3-1-6-1c-7-1-9-2-12-9l-5-10c-3-5-3-7-3-8l1-1-2 1m-95 16l2 17a52 52 0 003 14l1 3 1 1c-1 3 22-11 27-16l3-2 5-2 3-1 2 1-1 1-6 5-4 3-5 2-4 2 9-5a2 2 0 10-1-3l-9 6-8 6 5-2 4-2-3 2-4 3-3 1-2 1c-1-1-12 5-12 7l6-3c6-5 6-5 6-2l2 2 1 1c1 1 2 3 2 1l3-1h1c-2 0-2-1 0-3 3-3 9-4 9-1l2-1c1-2 2-2 11 0l2-1h-1l-1-1 4-2 3-1c0-1 3-2 5-1h2c-1-1 0-1 1-1l2-1v-3c3-6-1-12-8-12-3 0-3 0-2-2 2-1 6-1 9 1 2 0 2 0 2-2s0-2-1-1h-5l2-1c3 0 9-4 7-6-1-1-7 1-7 3s-9 7-10 6l-49-15-1 5m67 23v9l-5 2-19 11a153 153 0 01-17 9c0 1 3 0 21-11l18-9h3v8c0 9 1 12 2 12l1-11a39 39 0 00-2-12c1-1 0-16-1-16l-1 8m-351 21c1 1 1 1-1 1l-2 4v12l-2 1v1l-1 7c0 1 1 2 2 1 2 0 2 0 1 1l-6 1-10 1h-5l1 4 1 3h13l12 1v1c3 4 4 0 3-20v-20h-4c-3 0-4 0-2 1m403 14c-12 17-12 16-8 16 2 0 3 0 3 2s2 3 3 2v-2c2 0 2 0 2 2v2l2-2 2-2v1c-1 1-1 1 2 1 2 0 2 0 1-1v-1l2-2c0-3-2-5-6-5-3 0-3 0-3-2l1-3v-1c-1-2 4-7 5-6h1c-1-1 0-2 1-3l1-4c0-2-1-2-9 8m-363 23l-6 2h-2c-3-4-13-2-13 2l70-1-1-1c-1-2-1-2 1-2 1-1-7-1-18-1-20 0-21 0-22 2s-4 2-4 0l-5-1m-56 10c-1 9-1 9 9 10h11l3-1v-13l-11-1H85l-1 5m53 9l-18 1c0 1 37 1 57-1h9v5l1 5v-5c0-4 0-5 2-5h-51m-44 3h-7v57l-1 57c-2 1-2 2-2 5 0 5 2 7 6 7 3 0 4 1 1 3l-1 4-1 3c-1 1-2 8 0 8v3c-1 1-2 6-2 14v13l8 1c13 2 12 2 12-6l-1-8v-36c0-11 0-11-2-12-2 0-2-1-2-42l1-44v-1c-2 2-1-3 2-5 3-3 3-3 3-12v-9H93m-24 54l1 18c2 0 3-3 3-8l1-4v5l1 5c3-1 3-33 0-33-1 0-2 2-2 10l-1 10v-10l-1-9v-2c-2 0-2 2-2 18m-48 86c-2 1-2 1 3 4 7 4 7 4 1 2-7-2-8-1-4 1l11 7a22 22 0 008 4l1 2 1 1c1-1 6 1 8 4l-3-1c-6-4-5-3 3 3l9 6 8 7 9 5 10 7c2 1 9 2 10 0l-17-14c-5-3-7-5-3-3 5 3-2-4-9-8l-22-15c0-2 1-2 2-1l1 2 1 1h1l3 1 5 2 3 2-23-14c-8-4-10-4-3 0l5 3a23 23 0 01-13-8h-6m135 46l5 2 4 3 2 2c-2 1 6 3 10 2h3l-3-2-2-2 28 9c3 1 24 0 22-2h2l10 1 7 1-4-2c-3-1-11-2-19-1l-11-2-10-2h-2c-1-2-9-4-13-4l-14-2-17-3c-3 0-3 0 2 2m53 17l9 5c10 5 10 5 18 5h9v-4c0-3 0-4-2-4l-11-1c-9-2-22-3-23-1m27 18l4 3h41l-7-2c-6-2-35-5-41-5l3 4m5 8c0 2-1 3-2 3-4 1-5 4-1 4 2 0 2 1 2 4s0 4 1 3l2-1h3a2 2 0 002 1c2 1 5 0 4-1h-1c-2 0-1-1 1-2h1l1 2 1-1c-1-2 1-2 4-1h4c0-2 2-1 2 1l2-1h5c-1-1 2-1 7-1h19l21-1 10-1c0-1-13-4-31-5l-22-2a290 290 0 00-25-2c-8-2-10-2-10 1" tabindex="-1" itemprop="regular" style="fill-opacity: 0.265; fill-rule: evenodd; fill: rgb(7, 194, 255);"></path><path d="M0 30v30l6 1c6 2 3 2-4 0-2 0-2 0-1 1l23 5c20 5 26 6 22 6l-13-2-14-3-17-5c-2 0-2 1-2 19l1 17c0-1 1-1 2 1l1 1h1c2 0 4 6 4 9v2l1 1 2 1 1 2a14 14 0 003 11v2l4-3 1-1c2-1 2 0 4 3l3 3 2 1-1 1c-2 0-1 2 1 3s3 1 5-2l6-5 3-3 3 2c4 2 7 2 9-2 2-2 1-3-2-4-2-1-2-1-1-2l4 1c5 2 8 2 7 0l2-1c2 1 4 0 6-1l4-1h2a11 11 0 017-2l8-1 8-1 4-1-4 1-10 3c-11 1-25 6-38 15-5 3-4 2 7-2l10-4-1 1-10 4-10 3c-4 1-11 10-10 13a12 12 0 01-3 10c1 3 0 7-1 6v2l-1 2c-2-1-2-1-1 1v3l-2 8c-2 7-2 7-2 3 0-9-2-6-2 3l-1 12v3l12 1 12 2-23-2-2 1-2 6-2 8c0 2 0 2-1 0-1-5-2-2-2 7 0 6-1 10-2 10-1 1-1 1-1-3 1-5 1-5-1-5s-3 0-2 2l-10-1c-2 0-2 0-1 1l6 1c6 1 5 1 5 9l2 10 2 4 4 3 4 2v10l-1 15-6 21v24l1 4v5l-8-3-9-2c-2 0-1 163 1 163h2c4-3 7 0 6 6l1 2c1 1 1-1 1-3 0-4 0-5 2-5l1 3c0 4 1 6 6 6 3 0 2 0-2 1-5 1-4 1 4 1l10 1c0 2-2 3-13 4-15 2-17 3-4 3a24 24 0 0012-2c2 0 2 0 1 1l-1 20-1 24c0 5 0 5 2 5 3 0 3 1 0 4-2 2-2 2-5 0l-3-2-1-1c-1 1-3 0-4-1l-15-5-1 5c0 5 0 5 2 5l6 1h4l-3-2c-2-2-2-2 0-2l4 2c4 0 3 2-1 4l-7-1-5-1v8c0 8 0 9 3 11s3 5-1 5c-1 0-2 2-2 26v26l6 6 20 22v3l1 1c0-1 3 1 5 4l4 5h476V532h-5l-5-1c0-2 1-2 5-2h5V338v9l-5 2c-9 2-9 4-1 7l6 2h-3l-5-1-3-1 2 4 2 7c1 3 2 4 4 2 1-3 3-1 3 6 0 5 0 7-1 6l-1 1 1 1v1c-2 0-2 0-1 1v1l-1 1v3l1 2 1 1v1l-1 1c3 0 2 8-1 10h-5c-2 2-6 0-6-3 0-1 0-2-1-1l-1 2h-2c-3-2-2-5 8-17 8-11 9-13 8-14-3-2-8 0-10 3l-6 8-6 6 1 14c0 10 0 15-1 14-2 0-1 5 1 7l1 8v7h-4l-4-1-4-1-2-2c0-2 0-2 5-1l4-1h1c1 2 1 3-1 3-1 1-1 1 1 1 1 0 2-1 2-4 0-4-1-4-3-4l-3-1c2-2 0-4-3-4-2 0-3-4 0-5v-5c-1-4-3-6-3-2h-1l-1-1h-2l-2 1c-4 0-5 0-6 4l-1 5 1-5-1-5-1-9-1-10v10c0 11 0 11-2 11h-2l-1 4 1 4 1 14v2c2 3 1 6-1 6h-4l4 1c9 0 0 2-11 2l-13 1v-9c-2-27-3-28-10-24h-4c1-2 0-2-4-2l-3-1c1-1-1-2-4-2-2 0-2 3 1 4l2 2c-1 1 0 2 1 4l1 9v7l-2 1-2-2h2c1 1 1 1 0 0l-2-2-2-1c1-1 0-1 0 0-2 0-2 2-1 3v2a2 2 0 014 3h1l1-1v-1a15 15 0 014 13c1 1 3 6 1 6l-1-1c0-2 0-3-1-2l-1-1v-3l-1-2-1-2v-4l-3 4c-2 3-2 3-3 2l-2-1v-1l1-2 1 1a1 1 0 001 1c1-1 0-4-1-3l-1-2v-2l-1 1-1-5c0-2 0-3-2-3l-1-1-1-1-2-2h4l-1-1-1-3c0-2 3 0 3 2h1l-4-7c-1-1 0-3 1-3l1 2c0 2 2 2 4 0v-1c-1 0-2 0-1-1l-1-1c-3 0-4 0-4-2l2-1h3c1-1-2-2-3-1l-1-1h-3l-2 2v3l-1-1h-2v3l-1 3c0 3 2 4 4 1h4l-1 4-1 1c-2 0-2-2-1-2v-1c-6 0-7 20-1 26 3 3 4 6 1 5l-1 1-1 1c-2 1-2 0-2-2v-1l-1 4-1 3a21 21 0 00-4 1l-1 4c2 14 2 32 0 22l-2-3c-2 1-4-6-4-14-1-7-3-12-3-8 0 5-14 15-14 10l-1 1c-1 1-1 1-1-2 0-7-1-10-3-10s-2 0-1 1c2 1 2 4 2 16v7l-1-15c0-4 0-6-1-5l-1 2-1 9 1 10-1-6c-2-8-4-10-4-4a50 50 0 01-1 9l-1-1-1-3v3c0 2 0 2-1 0v5c0 4 0 6-1 4s-1-2-1 0c0 4-8 3-8-1 0-3-2-5-2-2 0 2 0 2-1 1s-2-1-10 3c-6 3-9 4-10 3l-8-1-6 1-1 5v5l-8 4a159 159 0 00-35 19c-2 0-2 1-2 2 0 2-2 3-3 4l-4 3-2 1h-1l-5 2c-10 1-13-4-15-26l-4-56c1-2 22-11 25-11l5-2 4-2-1-6v-9c0-3-2-3-7 0-4 3-21 10-24 10l-3 1-1-9a260 260 0 01-2-46l-4-44c-3-36-2-34-8-32-4 0-4 1-4 3s-4 5-6 4l-12-1h-12v-10l-1-10h-25l-3 1c0 1 3 2 11 3 11 0 11 0 9 1l-2 1h4l-2 1-1 1 2 1-2 1 1 1 2 1h-2c-2 0-2 0-1 1 2 0 2 1 1 1v3h-2l2 1v2c1 1 1 1-1 2l-2 1-4-1c-4 0-4 0-2 1 1 1-5 2-11 1l-2 1 1 1h3c2 0 2 0 1 1-2 1-2 1 2 1 3 0 3 0 2-1-2-1 0-1 6-1s8 0 7 1-1 1 1 1h2l-2 1-1 1c3 0 3 2 0 2-1 1 1 1 4 1h5v-5c0-7 1-7 16-6 14 1 14 1 15 7l1 16 2 52 2 45-1 6v2c3 0 0 2-7 5l-13 6-5 2v8c0 9-1 9 12 4 14-6 15-6 15-5l4 65v13h-4c-6 0-6 0-8 2l1 1v1l-3 3-1 4v-4c0-2 0-3-1-2 0 2-3 3-4 2l-6 3c0 1-1 2-4 2l-5 3c-3 2-4 0-4-11 0-10 0-10 2-10s2 0 1-11v-42c-1-35-1-34-8-38s-34-6-43-4l-3 1v51h7l-4 1-2 1v1c-2 1-1 78 0 78v3c1-1 2 1 1 9v7l13-1c13 0 13 0-1 2l-8 2h5c8 0 8 3 0 4-5 0-8 2-3 2 2 0 2 0-1 1-4 1-2 1 5 1l20 1c18 2 25 2 37 2a53 53 0 0119 4l-1-1 1-1h20c-1 1 0 1 2 1l4-1h9l2 1 2 1 10 3 22 8-8-4 1-1c2-1 2-1-2-1l-11-3 13-1c15 1 21 2 13 4-2 1-1 1 1 1l4-1c0-3 5-2 11 0a16 16 0 0013 2v1l3 1a57 57 0 0110 0l-1-2h3l30 1 30 1h-12c-15 0-28 1-26 2l4 1 2 2c0 1 1 2 4 2l7 1h7l-4-2-3-1v-2l2 1 3 1 5 1v-1c-1-1-2-2-3-1-2 0-5-2-4-3l2 1h3l6 1v1l11 4 14 2v1c-1 1-2 1-8-1-9-2-15-3-16-1v1l-1 1c-2 1-5 1-10-1l-10-2c-5 0-5 0 0 2l6 2h-5l-7-1-2-1h-3c-1-2-1-2 2-2 1 0 2 0 1-1-2 0-2 0-1-1h-2l-3-1c1-1 0-1-2-2l-3-1-6-1-6 1 4 1c2 0 2 0 1 1-2 1-1 1 4 2l6 2h-6l-6 1h1l3 1h-9c-5-2-5-2-3-2 2-1 2-1 0-1l-2-1-2-2-4-1h-1l-1-1h-9c-2 1-2 1 0 1l2 1 3 2 5 2c-2 0-1 1 2 2l4 1h-6c-7 0-15-2-12-3 1-1 1-1-1-1l-2-1c-1-2-9-4-13-4h-3l3 1c3 1 3 1 2 2-2 1-2 1 1 2l3 1 4 2c3 1 4 1 3 2l-5-1-9-3-6-2h-3c-2 0-2 0-1-1 3-1-5-3-11-3-4 0-4 0 2 2h3l-3 1c-2 1-2 1 0 1l9 3c5 1 6 2 4 2h-4c1 1-5 0-9-2-3-1-3-1-1-1l-2-1c-4-2-4-2-2-2 4 0-5-3-10-3h-4l4 2c3 1 3 1 1 1l2 1 2 2c-2 0-1 1 3 2l5 2-7-1h-12l-4-1h-2c-4 2-1 3 6 3 8-1 14 1 14 5l-7 3c-2 1 1 1 5 1 5 0 15 3 12 3h-18c-2 1 12 3 16 2a780 780 0 0151 4 604 604 0 0130 3c2 0 2 0 1 1-3 1-49 0-56-1l-5 1c1 1 0 1 0 0l-2 1 5 1 12 2 8 1c1-1 23 2 28 3h5v1l-3 1-2 1 2 1a8 8 0 015 1l-1 1h1l1 1-4 1c-1 0-2 0-1-1h-1c-2 1-19 2-21 1-2-2-23-2-21-1s1 1-5 1l-22 3c-6 0-24 2-27 1l-5 1c-2 2-4-1-3-4v-4l-6 2c-6 2-9 3-8 1l4-1 4-1 2-2v-3c-2-1 0-5 2-5s2-1 2-3c0-4-5-10-9-10v-2l-4-2c-3-2-4-3-2 0v1l2 2 2 2c-1 1-12-3-21-7l-13-4a1 1 0 11-2 0l-1-1-3-1h-1v2l-1-1c0-2-3-4-8-5l-5-1-3-1-4-1h-2l-3-1c-2-2-13-4-12-2 3 4-13 0-17-4-1-1-2-2-3-1l-2-1v-1l-2-1a1 1 0 00-2 0l-1 1-1-1-1-2-2-2-3-2-1-1h-1l-7-2c-2-2-7-3-9-3-12-2-12-2-12-6v-4l-1 4c-1 3-1 3-1-2l1-8c1-1 1-1 1 2v-1a4 4 0 00-1-6h1l1-1-1-1-1-3c0-2 0-3-2-3v1a4 4 0 01-1 6h1l1 1-2 1-2 1c-1 1-1 1 0 0l2 1 1 3c0 3-1 4-2 2h-1v2c2 0 3 0 3 2s0 2-1 1c-1-2-2-2-2 0l1 2 2 2-1 2v-2l-1-1-7-3a151 151 0 00-14-9c-5-3-10-4-6-1l15 10c25 15 32 20 32 22l2 2h-1c-2 0-5-1-6-3l-6-5-7-6-4-2 4 4c5 3 14 12 13 13h-6c-4 0-5 1-4 2l-3-1-1-2-1-1-9-5c-22-19-45-35-55-40l-4-4c-1-1-1-1 0 0l7 1-3-2c-3-1-2-3 2-4 2-1 4 0 8 2l35 20 9 4c1-1 1-1 1 1h1c1-1 3-2 4-1l2-1-1-1a2 2 0 01-2-3v-2c1-2 1-5-1-6v-3l2-1 2-1 2-1c2 0 2 0 2-3s0-4-2-3c-3 0-4-1-3-4 3-4 0-5-10-6a12 12 0 00-11 0c0-2 3-2 12-2l10-1-3-1-2-1c0-1 2-1 7 1 2 0 2-1 2-5s0-5 2-5l1-57v-58h10l11-1H84v-8c0-7 1-8 3-8 3 0 3 0 2-2-2-3-10-3-15 1l-3 1 4-4c3-2 4-4 2-4l-3 3c-3 2-4 3-4 0-1 0-1-1 0 0 1 0 7-4 7-6l6-1h7v-6l1-6-1-2-1-6c0-5 0-5 3-7l4-1h-3c-3 0-2-1 2-2 12-3 12-3 6-3h-5v-19l1-7 1 13v12h8v-16c2 1 2 122 1 122l-1-12c0-10-1-12-4-7v5l-1 19v18h6l-3 1-2 1-1 23c0 22 0 23 2 23s2 1 2 13l1 12 1 1a9 9 0 000 9 11 11 0 000 10l-1 15c0 4 0 4 4 4h4v-15l1-57v-41h-2c-2 0-3-1-3-18v-71c-1-50-1-54 1-56v-2l-2-2c0-3-2-3-2 0-1 2-1 1-1-2l-3-11-3-8-1-2c-2 0-2 1-2 5 1 4 1 4-1 4s-2 0-1-1l-1-16v-2l-1-1c0-3 0-3-1-1s-1 2-1 0a3 3 0 013-5c-1-1 0-1 1-2 2-1 3 2 3 8 0 4 0 6 2 7l1 4a3 3 0 002 4c-2 1 1 3 3 2 1-1 1 0 1 5l1 7c1 1 1-8-1-98a249 249 0 010-34l-1-10c1-10 1-11 6-9 1 1 1-1 1-11v-13h8l7-1h-18l-18-1-1-3c-1-3 9-6 22-7l11-1c-1-1-1-1 1-1s2 0 2 2c-1 1 0 1 3 1 2 0 3 0 2-1l-2-2h1c1 1 2 1 1-2 0-2 0-2 3-2h4l2-1c2 0 3-2 1-4l-2-3c0-3-3-4-10-4l-6-1-1 5c0 4 0 5 2 6 2 2 1 3-2 3-3-1-4-4-2-4l1-1-1-2v-1l-1-1-2-2c-1-2-2-3-4-3a244 244 0 00-39 2c-1-1 5-4 13-6s12-4 10-5c-1-2 21-2 37-1 17 2 55 6 60 8 3 0 3 2 0 3-3 0-2 1 1 3 6 2 4 4-3 4-6-1-7-1-7 1l-1 3-2 4c-1 4-4 4-11 3-2 0 0-2 3-2 7 0 7 0 7-2l-1-3c-2-2-1-5 1-5l-6-1c-8-1-10-1-10 2l-1 4c-2 2-2 2-3-3-2-4-3-5-6-5a7 7 0 00-11 9c3 2 1 3-5 2h-7l1 3c0 2 1 2 1 1 0-2 6-2 6 0l-2 1h-3l4 1c3 0 4 0 3-1a2 2 0 010-2l3 1c2 0 2 0 2 2-1 1 0 1 2 1 1 0 2 0 1-1-3 0-3-3 0-2a20 20 0 013 0l1 2h-1l-1 1 5 1c3 0 3 0 1-1l-3-1c0-1 1-2 2-1h3l1 2h2l2 2c2 0 2 0 1-1-3 0-2-2 1-2h2l1 1c0 2 1 2 1 1 0-2 4-2 4-1l1 1 1 1h1c0-1 1-2 4-1h3l1 2h1c0-2 1-2 4-1h3l1 2h1c0-2 1-2 4-1h3l1 2 1 2v-2c0-2 0-2 1 0l4 2c4 0 6 2 6 7 0 4 0 4-3 4l-30-3 14 2 16 3 7 1 6 2h4l9 1 13 2 7 2c1-1 2 3 2 9l1-4 1-7 8-1c5 0 6-1 3-1l-5-1-19-3-23-3h-6v-7c0-6 2-10 2-5h1c1-2 1-2 1 0s1 2 3 2c3 0 3 0 1-1a2 2 0 01-2-2h5c4 0 5 0 6 2l1 1c0-2 1-2 4-1h6l2 2h1c0-2 1-2 1-1h9c2 0 3 3 0 3-1 1-1 1 1 1l2-2c0-2 0-2 1 0l1 1v-2l1 2h1l2-2c6 0-5-2-28-5l-25-3c-1-2 3-2 29 1l28 2 2 2 2 1 2 2-4 1c-5 0-7 2-3 2 10 0 16 1 18 2l10 1 9 1c1 1 2 2 3 1h10l1 1h7c1-1 11 0 11 1l4 1h11c6 1 5 0-2-2l-4-1h4c5-1 8-9 3-10-6-2-10-2-10 0l-1 2c-1 0-3 5-2 6l1 1c0 1-4 2-5 1h-1l-1-1 3-2c2-1 2-1 1-5 0-5 0-5-5-5s-6 0-6 2l-1 2-1 2-1 1v-2l-1-2-1-2a7 7 0 00-12 1l-2 4-1 3h-5l-5-1 3-1c5 1 10-3 7-5l-1-3c0-2-1-2-10-3-1-1-2 0-1 1l-2 4c-1 1-2 3-1 5 0 2 0 2-3 2-3-1-4-2-2-3l1-2v-1l1 1h1c1-2-2-9-3-9v-1c0-1-1-2-6-2l-40-5c-43-5-40-4-40-8s-2-8-4-7c-1 0-2-16-2-42l-1-14v-4c0-3 0-4-2-4v-1l30 4a5087 5087 0 0055 9h2l-2-1-85-13-4-8 3-2c2 0 3-1 3-2 0-3 7-11 11-15 18-12 48-2 59 19a27 27 0 004 6l2 3 6 3c3 0 5 1 7 3l4 2c4 0 5 3 3 7l-3 2-1 1v3l-1-1v-1l-1 2-1 8c-1 1 0 1 2 2 3 0 3 0 1 1s-2 1-1 13a40 40 0 001 14c-3 0-1 2 3 3l3 1h-3c-3-2-4-1-2 3 0 1 1 3 3 3 3 0 4 0 1 1l6-1c3 0 3 0 2 1l1 2 3 1-2 1c-4-2-12-2-12-1s8 3 35 6c27 4 37 6 42 10l5 2 5 2c3 2 3 2 1 0-3-3-16-9-23-11a92 92 0 00-21-5 27 27 0 00-14-5l-6-3a34 34 0 00-10-3l-3-1-2-1a212 212 0 0131 7l-8-2c-2 0-2 0-1 1l6 2 7 2c3 2 4 1 2-2-1-1-1-1 1-1s2 0 2 2c-1 3 1 4 4 4 2 0 1-3-1-3l-2-2 26 5 56 11-25-6c-37-8-40-8-30-7l11 1c3 1 6 2 7 1l4 2 4 1 11 1h2c-1-1-3-2-4-1v-2c1-2 3-3 4-1 0 2 2 1 7-4 3-4 6-4 9-3l1 2h-1l-1-1c-1 2 1 3 4 1h7l4 1h1l2 1 2 1 2 1 1-1 3-1c1 1 2 0 2-1h8c3 1 4 1 6-1 1-1 1-1-2-1h-2l-1-1h-4l-8-2a28 28 0 01-9-3h-5l-2 1c-1 1-1 1 0 0 1-2-1-3-13-5l-8-2-8-2c-4-1-6-1-5-2l8 1 92 20c1-1-14-4-47-11-15-3-21-5-18-5l2-1c0-1 1-2 3-2l15 1h18l7-1c4 1 6 1 7-1 2-2 8-3 7-1h16v3l1-60V0H0v30m218 39l-2 2-2 1 14 3c8 1 9 2 9 4s-1 3-2 1l-4-2-3-1-8-1c-3 0-6 0-5 1l1 9c1 10 1 11 6 11 1 0 2-1 1-2V84l2 6c0 7 0 7 7 8l4 1v-9c0-6 0-7 1-4 0 4 1 4 1-3l1-8-8-2-10-1-2-2-1-1m-31 17l1 24 2 10v1c-2 0-1 1 1 1l4 3-40-4-37-3c-11 0-36 2-37 4h4l43-1 11 1 32 4 25 3v-12l-1-15-3-24c-1-4-1-6-3-6-2-1-2-1-2 14m56-10l2 1 10 2c11 2 11 1 11 6l1 3-9-3c-10-2-15-3-12-1l16 4c3 0 3 1-2 7l-4 6 6 1 5 1v-5c1-5 1-5 1 1v7l-9-2h-10l8 2 8 1h-12c-2-1-2 0-2 2l-1 3-1-4-1-2c-2 0-1 9 2 10 2 0 2 1 2 2 0 2-1 2-2 2-4 0-2 4 2 5 3 0 8-3 4-4l-1-1-1-2v-1l2 1c0 1 1 2 3 2l6 5c5 5 5 5 5 0l1-5v-1l-2-14a64 64 0 00-2-14l1-2 1-5v-5l-4-1-6-1-16-1m-5 21v5l-4-1-18-2 9 2 10 2h-5l-6 1h-1c0-2-1-2-3-2-3 0-4 0-4 3 0 4 1 4 4 4l5 1-2-1c-2 0-3-2 0-2 2-1 5 0 5 1l1 5v5l-5-1-6-1c-2 0-1 4 0 4l10 2 9 2c3 3 3 1 2-15 0-16-1-22-1-12M2 104c-2 2-1 25 1 27h7c3 2 4 1 4-1l1 1 2 3a25 25 0 00-4-8l-1 2-2-4-4-9c-4-9-5-12 0-3l4 7c0-3-8-16-8-15m407 51c0 2-3 2-5 1h-1c1 1 0 1-1 1l-2 1-1 3c-2-1-3 2-1 5l2 2c0 2 1 2 1 1l1-2 2-2c1-3 4-4 6-3h2l4 1c4 1 10-2 10-5-1-4-17-7-17-3m-42 8l-3 4-2 2 2 1c3 1 4 4 2 5l1 2h4l-1-1c-2 0-1-2 2-3h2l1 2c3 0 3 4 2 6v1l2-2h2c1 2 1 2 5 0 6-2 6-2 5-5h-1l-2 1c-1 1-2 0-1-3 0-2 0-3-2-4-3-2-4-2-4 0l-2 1c-1 0-2-1-2-3s-1-3-7-4h-3m-235 2l4 1c2 2 11 3 24 5h6v10l1-6 1-5h8c11 0 7-1-16-3l-28-2m-61 24l-1 11 1 4-6-1H51l10 2c7 0 9 1 10 2h29l-12-2c-14 0-13 0-13-9a21 21 0 00-3-12l-1 5m336-5l-3 4c2-1 2-1 0 2l-4 3a59 59 0 00-17 18l-4 7-6 10c-5 9-9 11-10 7 0-2-2-2-2-1a1729 1729 0 003 46v13l1 11 1 9c1 2 1 2-1 3v1l1 14 3 55c2 4 2 5 1 5v6l3 13 1 8v-21l5-3 9-2a6 6 0 006-2c4-2 3-5-1-4-3 0-4 0-3-2v-4l3-5c4-4 3-5-2-2l-7 2c-4 1-15 0-13-1l-2-37a10856 10856 0 01-4-76c-1-18-1-18 1-20l10-16c12-20 24-33 29-31l12-6 4-2-5-2h-9m-248 21l3 1 2 1-1 1c-2-1-3 1-3 9v9h3c4 1 4 3 0 2-2 0-3 1-3 2a3 3 0 01-3 5l2 1 1 1 2 1 4 1 1 1v-34a24 24 0 00-8-1m-62 31v1l-5 2c-4 0-1 2 3 2 5 0 4 0-2 1l-4 1 1 6 1 7-1 1-1 11v11c2 1 2 5 1 9 0 3-3 2-3-1l-2-2 1 5c2 6 2 7-2 7h-2v17c0 17 0 17 2 17s3-1 3-3c0-3-2-4-2-1-1 1-1-3-1-8l1-9 1 2 2 2c1 1 1 1 1-1l-1-7c0-5 0-5-1-1 0 3 0 4-2 3-2-2-2-10 1-10l1 1h1c1-2 1-2 3 2v-1c0-3 0-3 3-3 2 1 4 0 6-1 1-1 1-1-4-1-6 0-6 0-7-2s-1-2 4-2l9-1c3 0 3 0 3 2v16l1-5v-12l-1-31v-25h-3l-5 1m-35 24l1 8c1 2 1 15-1 19v15a1771 1771 0 01-1 101c2 2 3-2 4-9l1-7v7l1 8c1-1 2 0 1 1h1v-5c4-2 6-3 7-2 3 2 4 0 4-7v-8c1-6 0-7-3-6-3 0-3 0 1-2l4-1h-5l-7 2c-2 0-2 0-1-2l1-15-1-36-1-24 6-2 4-2c-2 0-4-7-3-10v-5c-1-3 0-5 1-7v-2c1-1 0-3-1-7-3-7-4-8-9-8l-4-1v7m10 48v25h6v-14c0-14 0-14-1-5l-1 10v-12c0-11 0-12-2-12-1 0-2 2-2 8m404 3l-2 5-8 27 18 6c5 1 7 2 6 0h-1l-1-1 1-3 2-1c1-1-2-1-4-1l-1-2-2-2 1-1v-2l-15-3h4l8 1c4 0 4 0 2-2l-3-5-1-4v-1c1-1 1-1-1-3s-2-4-2-8l-1-1v1M0 412c0 45 1 63 1 40a7471 7471 0 00-1-40m153-81l13 1c2 0 1 4-1 4l-2 2-2 1v1c2 1 2 4 0 4v1c2 1 2 4 0 4-1 1-1 1 1 1v2c2 0 1 2-1 2l1 1 2 1h-2l-1 1 2 2-2 2v1l2 1c-1 1 0 1 2 1l4-1v2c0 3 0 3 2 3s2 0 1-2l-1-18c0-20 2-18-17-18h-14l13 1m-77 8l-1 2c-1-1-1 0-1 1l1 3a8 8 0 010 8c-1-1-1 2-1 8 0 7 0 8 2 8 1 0 2-2 2-6l1-4v9h5c7-2 7-2 7-8l-1-5v-8c0-6 0-7-1-2l-1 5v-5a7 7 0 00-2-7h-1l-1 5c0 6-3 5-4-1 0-4 0-4-1-1-1 2-1 2-1-1 0-4-2-6-2-1m386 16c-4 13-4 16 0 16h2l-2 1c-3 1-4 3-2 6 0 1 1 2 3 1a16 16 0 017-1l6-1 7-2 5-2 5-1h-5c-5 0-5 0-2-1 2-1 2-1-2-1l-6-1h-1l9-2 7-2c-1 0-2-1-1-2 0-1 0-2-2-2v-1l-1-7-11-4-12-3-4 9M61 407l1 4v37l1 14 1 1-1 1c-1-1-1 0-1 1l2 2a297 297 0 00-1-62l-2 2m7 59v2l-1 25v24h4c4 0 5-2 2-2l-2-1h2l2-2c0-2 0-2 1 0s2-5 1-8v-38h-9m1 54l-1 20c1 3 1 4 3 3 2 0 2-1 2-8v-8l1 7 1 8v-22h-6m88 17c0 12 1 13 3 13s4-9 4-18v-6h-7v11m330 61l1 1 1-1c-1-1 1-1 6-1l8 1-2 1-1 2 1 5c0 2 0 3 2 3l1-2c-1-2 1-3 6-2l1-1c1-1 1 2 1 6a9 9 0 01-1 9l1 12 1-12c0-13 0-23-1-21-1 3-7 2-6-1l-10-1c-8 0-10 0-9 2m-270 63c10 0 5 2-9 2l-13 1 3 1c2 2 5 3 13 3h11l-1 3 1 3 1-6 2-6c2-1-3-2-8-2h-5l5 1" tabindex="-1" itemprop="bold" style="fill-opacity: 0.91; fill-rule: evenodd; fill: rgb(21, 21, 24);"></path></svg>