<svg id="16282281824-posters-1641523574860" itemscope="" itemtype="/posters" itemid="/+16282281824/posters/1641523574860" viewBox="0 0 512 683" preserveAspectRatio="xMidYMid slice" tabindex="0" xmlns="http://www.w3.org/2000/svg"><rect itemprop="background" width="100%" height="100%" fill="white" tabindex="-1" style="fill: rgb(236, 191, 162); color: rgb(11, 65, 102);"></rect><path d="M0 27v28l3 4c3 5 3 5 0 5s-4 5-2 5c13 4 17 6 17 10 0 2 0 2 2 2 0-1 1-1 0 0l2 1 2 1 5 1c7 1 10 7 4 9-3 2-4 3-2 5l3 3c1 3 1 3-1 2h-1c1 2 0 3-2 1-1-1-3-2-6-1-7 0-8 1-6 5 1 3-1 5-4 2-3-1-11-2-12 0-2 1-3 83-1 83l5 1 16 6c13 4 29 13 28 15s-11 2-18 1c-12-2-17-2-16 0a2 2 0 01-3 0l-1-1-6-2-6-3v4c0 3 0 4 2 5 5 3 6 4 4 6-1 1-3 2-4 1-2 0-2 2-2 228v229h385l-4-8a4016 4016 0 01-22-41 3619 3619 0 01-26-49 5532 5532 0 01-37-68l-9-19c-20-37-20-37-19-38l10-2a962 962 0 0034-5l7-1 4 4a1522 1522 0 0153 60l16 18 13 15 11 12 29 32 35 40 21 22c9 10 11 13 11 21l1-222-1-223v6l-6 1c-8 1-10 1-5-1 7-2 6-2-3-6s-11-6-9-9 9-7 16-9 9-2 5 0l-2 1h2l2 1v1l1-108V0H0v27m366 120l-10 5-4 2c-3 0-9 3-9 4 0 2 2 2 6 1l10-5c5-1 9-4 12-7 6-5 5-5-5 0m-47 21l-8 4c-4 0-27 12-27 14l1 2a132 132 0 0029-14c3 0 15-6 15-8 0-3-2-2-10 2m-120 13c-8 0-9 1-10 2l-1 1c-1-2-8-3-10-1h-1c-1-2-20 0-20 2s0 2-2 0-8-2-10 1h-1c0-2-1-2-10-1-12 0-12 0-10 5 1 5 2 5-8 6-7 1-8 1-9-2-5-6-7-7-8-7v3c1 2 1 2-1 0s-3-2-4-1c-2 2 1 6 4 7l7 4c4 4 7 5 5 2-2-4 3-4 6 0 3 3 7 3 5 0-1-3-1-3 1-3l5 2 3 3h-6l-9 3-7 1c-4-1-41 1-43 2s-8-1-11-3l-8-6 26 20 3 2c-2-2 0-4 3-3s32-3 34-5h4c3 1 19 1 36-1l10-1 6-1 6-1c29 1 53-3 51-8 0-3-3-5-6-5-2 0-3-1-1-4 1-3 4-2 4 0s3 3 3 0l2-5 1-6c2-3 0-4-4-1l-2 2h-2c-2 1-2 1-2-1 1-3-6-4-7-2s-1 2-2 1l-10-1m-16 14l-2 2c-1 3-3 4-4 1-2-4-6-4-6 0 0 3-3 3-4 0s-6-3-6 1c1 3-2 3-4 0s-6-3-6 1c1 2 1 2-1 2l-3-2c-3-5-6-4-5 1 0 2 0 2 11 1l14 1h7l9-3c12-1 13-1 12-4 0-3-5-3-5 1a2 2 0 11-4 0c0-2-1-3-3-2M30 225l38 20 38 19-1-4c-1-5-2-6-9-9l-6-2 2-3 3-2-5-3a45 45 0 00-22-8l-11-2-10-2-6-1-8-2-3-1M0 455c0 125 1 177 1 114a61550 61550 0 00-1-114m18-221c1 7-1 5 28 16 28 11 26 11 26 7 0-2 1-3 2-3 1-1 0-1-2-2l-28-12-26-11v5m178-1l-1 1v-1l-2-1c-2 0-3 1-3 2s-1 1-3-1c-1-1-1-1-3 1h-2l-2-1-2 1c1 1 0 2-1 2l-1-1-2-1c-2 0-3 2 0 3h-1l-3-2h-5v2l-2-1h-4v2l-2-1c-1-2-5-2-4 0l-1 2-1-1c0-1-4-2-5-1v1l1 2c0 2-1 1-3-1-1-2-4-3-4-1l2 2c1 1 1 1-1 2-4 1-4 2 1 5 3 2 4 2 8 2h17l-13 8-5 3-5 2-3 1h-2l-2 1h6c12-1 15-1 15 1 0 1-2 2-7 2-12 2-15 3-8 7l11 7 6 1c5-1 5-1 0 0l-3 1 3 3c4 2 5 2 13 0 2 0 2 0 1 1v1c4 0 8-1 7-2h1c3 2 12-2 12-7l2-5c2-3 2-3 1-4-3-2-2-3 1-3 3-1 5-4 2-4-2 0-1-4 2-5 3-2 3-5 0-6l-1-1v-1l-2-2-2-2c-2-1-2-1 1-1l3-1h3l2-1c0-1 1-2 3-2l2-3-2-3-3-2c0-2-3-2-4 0l-1 1-1-1-1-1c-2-1-2-1-3 1m214 5l-3 1v2l-4 2c-3 3-1 6 5 9 5 2 5 4-1 4l-7 2h8c6-1 6-1 8-6l3-9 1-4h-5c-3 0-4 0-2-1h-3m18 4l-2 3-1 3-2 4v3l7-2c23-3 40-8 31-8a64 64 0 01-22-3l-6-1c-2-1-3-1-5 1m38 9l-12 1-9 2-4 3 4 2 5 2a48 48 0 0030-4v1c0 1 1 1 9-1l4-1-4-2-4-3c0-2-3 0-3 3-1 3-3 3-3 0 1-3-1-5-4-5l-9 2m-355 8l1 3v3c-1 2 0 2 3 4l24 11c20 10 22 11 22 9 0-1-11-8-13-8l-2-1c1-2 0-3-4-5l-4-3-11-5c-9-2-11-4-7-4 3 0 2-2-2-4-4-3-7-3-7 0m286 4c-8 1-9 3-2 6 4 1 6 2 9 1l5-1 1-2v-2c5 0 5 0 2-1-4-2-8-2-15-1m-95 7c-1 1-1 2 1 2l1 2c0 3-1 3-3 1h-8c-3-2-7 0-6 2l-1 3-1-1-6-1c-3 0-5 0-4 1l3 1 2 1c2 2 12 1 13-1l1-1 1 2 1 1-3 1c-2 0-2 1-1 2s3 2 6 1l4 1-2 2c0 2 4 1 6-1s7-3 9-1c1 3 8 1 9-2 0-2 1-3 2-3l-1-2c-3-2-11-3-15 0-3 1-10 2-10 0l6-1c3-1 5-1 6-3l2-1c0 2 4 2 9 0 5-1-2-5-7-3l-3-1-5-1a9 9 0 01-6 0m172 3c-4 0-5 1-6 2-1 2-2 21-1 22l1-2c0-2 0-2 1-1l1 2 1 1 1-3c0-2 2-4 4-3l3-1 2-2c1 1 2 0 3-5 2-12 3-11-10-10m-216 11c4 1 2 1-3 1s-5 0-3 1l5 1 3 1-1 1v1l6 1 5 1c1 3 13 2 13-1l3-3 3-2h-18c0-1-3-2-7-2h-6m-13 27c-1 1 0 2 8 3l13 2 14 2 51 9c6 1 12 2 14 1 2 0 1-1-4-2-4 0-8-2-9-3-4-3-12-5-40-7l-9-2-8-1-11-1-19-1m-72 4l-5 1-2 1-4 6-6 6-3 3c-2-1-4 0-4 1s-1 2-3 2l-3 3c0 2-2 4-6 6l-2 1 3 1 3 1h-4c-3 1-4 3-1 2l2 1-5 2a161 161 0 00-7 1c-3 0 2 2 6 2h4l-4 1c-9 2-4 2 12 1 22 0 22 0-1 2-19 1-19 1-19 6l-1 4-1 7 2 1c1 1 1 1-1 1s-2 1-3 3l-1 5c-1 2 0 3 4 3h5l-5 1c-4 0-4 0-1 1 3 0 4 1 3 2-2 2-1 4 1 4s2 0 1 2c-1 1-1 2 1 3v2l-2-1v2c1 2-2 11-4 10l1-3c2-3 1-4-1-2-3 3-7 4-8 2h-3v-4l-1-1c0-3-5-3-8 0l-6 2c-2 0-3 0-2 1l-1 1c-3 0-9 6-7 7v3c-3 2-2 3 1 2h2l-8 12-4 5-6 10h6c1 1 6 0 8-3l3-2-5 9c-3 5-4 5 0 5l8-1c6-1 11-4 11-8l3-5c2-4 3-6 1-4l-1-1 3-1c2-1 1 0-1 4l-2 4h10l-7 1c-3 0-5 3-10 13-4 6-4 6 4 5l8-1 2-1 6-10c1-1 3-7 2-8l1-1 4-7 1-4v-4l4-3c2-4 3-4 1 1-4 7-4 8 1 8h5l-6 1-5 2-3 8c-3 7-4 7 7 5a15 15 0 0010-5v4l-2 5-1 4h4c3 0 3 0 1 1l-5 2c-3 2-8 21-6 21l17-4 2-6c1-6 3-11 4-11v5h6l10-2c7-1 2 1-6 2-11 2-10 1-13 15l-2 12h4c9-2 12-2 5 0-9 1-9 1-10 10l-1 7c-1 2-1 5 1 6 1 1 2 3 0 5v1c2 1 8-4 7-5 0-2 2-5 3-4 2 1 4 0 3-2s0-3 2-4l1 5-1 4v1l-1 4c-1 2-1 2 1 2 4 0 5-2 5-11 1-10 2-14 3-14l1 2c-1 4 0 4 11 3l10-2v-14l1-13h-3l-17 3-1 6c0 6-2 8-5 8-2 0-2 0 0-1l2-1a218 218 0 011-13c0-3 1-4 2-3 1 2 2 2 11 0 11-1 11-1 11 6s-1 7 11 4l9-1-1-6c0-6 2-7 3-1l2 10 1 8c0 2 0 3 2 2 2 0 2 0 0-3l-1-4v-4c-2-5-2-12 0-12l2-2h-7c-2 0-3-1-3-7v-3h-10l4-1c6-1 7-1 8 5 0 5 1 5 4 2l2-2h-2l-2-1a12 12 0 019-4v-5l-1-4v-2l-2-9-1-5c-1-3-2-3-5-3h-2l4-1c2 0 2 0 1-5l-1-5c-1-1 0-5 1-5l1 4c0 3 0 4 2 4v-2l-1-4c0-3 0-4-2-4s-1-1 2-2c5-1 5-1 4-4l-1-4-1-2-1-5c-3-7-3-10-2-10 1 1 2 0 3-1s1-1-2-1c-2 1-3 0-3-1l-1-1v-1l1-2v-4l3 2 6 9 15 27 19-2 20-2-4-5-32-36-13-15h-32l13-1 12-1h4l-7-8-7-7h-19c-2-2 0-3 8-3h8l-5-6c-5-6-6-6-11-6h-5l4-1h5l-2-3-5-2c-2 0-2 0 0-1 1-1 1-1-1-1h-5c-6-2-13-2-15 0m-76 11l-18 5a1312 1312 0 00-50 16l19-5 14-4 43-13-8 1m158 4l2 1 6 3 38 15c40 17 47 19 47 18l-6-4-7-3 7 3 8 2c1-2-65-25-67-24v-1l-1-1h-2c0-1-8-4-10-3l-1-1-1-2-9-3c-6-2-9-3-4 0m124 0h-10l-10 1a529 529 0 0063 10l88 15c2 0 2-1 2-2 0-2-1-3-11-4l-30-6-9-1-12-1-9-2-9-1-22-4-12-2-11-1-5-1-3-1M128 454c-9 1-8 0-13 10l-4 10c0 2 6 0 8-2 2-1 4-2 8-1l-1 1v1c2 0 5-4 5-6-1-2 0-3 1-4l2-6c1-4 1-4-6-3m-36 4l-7 2-6 1-5 11-3 4c-5 5-5 6 5 4 9-1 10-2 14-9l6-11c1-2 1-2-1-2h-3m8 9c-5 1-7 2-8 5-2 3-2 4-1 4l1-1h5c-1-1 0-1 1-1 2 0 2 2 0 3h-4l3 2c3 0 3 0 1 1h-5c1 1 0 2-1 2l-1 1-1 3 2 1 4-1 3-1h1c1 2 2 0 7-9 6-11 6-11-7-9m26 7l-6 2c-10 1-9 0-13 9-4 10-4 12 0 11 3 0 6-4 6-9l3-4 3-4 1-1v2l-1 1h1v1c-2 2-1 3 1 3l1 1c0 4 4 0 5-4l1-5c0-3-1-4-2-3m-61 10l-2 3c1 1 0 1-1 2l-1 1s-1 2-3 2l-2 3-2 4-5 7c-4 9 0 7 7-3 1-3 3-5 4-4v-1c-1-1 1-3 3-4l3-3h-1l3-2 1-2c0-2 0-2 1-1s1 1 1-1-2-3-6-1m72 1l-8 2-2 5-2 7v3l-1 1c-1 2-1 2 1 2l3 1 5 1h3l1 3v1h-1l-2 2v1c2 1 9-2 9-4l6-25c0-2-1-3-12 0m72 1l-8 1-5 1v11c1 20 2 21 5 20l7-2c0-1 1-2 5-1 7 0 8 0 4-16l-1-13c0-2-2-2-7-1m-27 20c-9 2-10 2-10 5v17l1-2c0-1 0-2 2-2l2-3c0-3 3-4 3-2l-1 3-1 1h2c4-1 4-2 2-4l-1-3 4-1c4 0 4 0 6 3 2 5 3 4 3-5-1-10 0-9-12-7" tabindex="-1" itemprop="light" style="fill-opacity: 0.965; fill-rule: evenodd; fill: rgb(255, 67, 4); color: rgb(42, 44, 45);"></path><path d="M0 11v11l9 12 8 14c-1 0-4-3-11-14-5-7-6-8-6-6l2 6c1 3 1 9-1 7l-1 6c0 6 0 7 4 12 3 5 3 7-2 6-1-1-2 0-2 1l3 3 5 2 6 1c6 2 7 2 8 5l3 2 4 2 7 3c4 2 8 5 6 5v2c0 2-5 4-9 4-3 0-2 1 1 6 2 2 3 6 3 8 1 4 0 4-2 1-3-2-13-4-15-3-1 1-1 2 1 5 3 5 1 8-3 4s-11-3-12 1a3 3 0 01-3 3H2c-2-1-2 3-2 34v36l5 1c21 5 57 28 44 28l-4 1c-2 0-3 3-1 3l5 1 3 1c4-1 32 11 39 16 6 4 7 5 5 6s-1 1 5 6c3 1 4 2 4 6 0 3 1 4 3 5 4 2 4 1 3-3 0-6 0-6 8-2l5 5 4 3 7 3h3c-1-1 5-3 9-3l3-1c1-2-3-2-11-1-6 1-7-1-1-2 5-1 17-8 17-10 0-3-7-6-8-3-1 1-1 1-3-1l-4-2c-2 0-3-3-1-5s2-2 1-4c-2-2-2-2-19 0l-18 1c-5 0-5 0-4 2l-4-3c-6-5-6-6 2-6h6l-5 1c-6 1-3 3 3 2l16-1c14 0 24-1 27-2l25-2c8 0 14-2 13-5-1-1-1-1 0 0l10 1c13 1 19 4 7 4l-5 1c-1 1-1 1 2 1l16-1-1 2c-1 1-1 2 1 3s-1 8-4 8c-1 0-2 1-2 3l-2 4v1c3 0 1 8-2 10v1l-2 3c-1 2-2 3-1 5l-1 4-3 5c-2 5-4 6-12 7l-8 2c-5 2-7 2-10 0l-4-2 1 2c0 2-1 3-4 1-3-1-3-1-2 1l2 2 3 1-3 1-2 1-1 1-1-5v-4l-19-9-21-11L1 211c-2 0-1 6 2 8 7 4 8 10 1 8H0v104h3c17-3 20-3 23-1l3 2-3 1-9 2-11 2-6 1v8c0 8-1 8 11 4a427 427 0 0123-6l9-3a222 222 0 0038-12c5 0 11-2 9-3l3-1h10c9-2 3 1-14 6a1049 1049 0 01-86 24l-3 1v327h384l-4-8a2361 2361 0 01-21-40 6267 6267 0 01-47-87l-6-11-17-32-19-36c-4-8-4-10-1-10l46-7 3-1-12-14-18-20-6-6-19 2c-39 4-40 4-39 7l2 10a766 766 0 019 31c2 4 2 4 10 2 2 0 3 0 4 2s1 2-1 1h-1a2 2 0 01-3 2c-1-1-2-1-3 1-2 1-2 1 0 3v1h-2l1 1 1 1v3l1 3 1 3 2 10 2 5 2 4v6c-1 1-4-4-4-8l-1-4-1-4-2-3c-2 0-2 1-1 2 0 2-2 3-14 5l-7 2 2 1c8-3 20-5 20-3-2 2-2 5 0 5v7h-1l-3 1-4 2-2 2h2c1-1 1-1 1 1l-2 2-2 1 1 1h1l-1 1v2l-1 1v5l-1 5a2 2 0 00-1 2l-2-7c-2-12-3-14-5-13l-1 2 2 3 1 8a8 8 0 010 9c2-1 3 8 2 12-1 1-1 1-1-1 1-4-1-5-6-4a4 4 0 00-4 4l-1-1c0-2-2 0-6 4l-1 2c2-1 2-1 1 2-3 5-7 8-7 4l3-3h3l-3-1c-2-1-3-1-3-8l-2-15c-1-10-1-11 6-11l4-2-6 1c-7 1-7 2-6 14 0 9 0 9-5 10l-11 2c-12 3-12 3-11-3v-14l-1 7-2 7v5c0 3-1 4-2 5v2c1 1 1 1-1 2-3 1-3 1-3-1s0-2 2-1c1 1 1 1 0 0l-2-2c-1 1-2 0-1-2l-2-2-2-2-3-1-2-1h-2a9 9 0 00-6 5l-1 1-1 4-2 4v-5l2-13 2-7 11-3 10-3-18 4h-3v-8l-1 4-2 5-1 5v2l-1 3c-1 10-3 14-7 15h-4l-3 1h-2c2-1 2-2 1-2v-3c2-4 2-4 0-4l-1 1v1l-2-1-2-1-2 1c-2 0-1-1 1-2 4-3 4-3 2-6s-4-3-5 2c-1 3-1 4-2 3-2 0-2-1 0-6l3-11c4-12 4-13 6-13v-1c-1 0-2-1-1-2 1-5-6 11-8 17s-2 7-7 8l-6 1-15 1 3-12 1-2c0-3-3 1-8 13a37 37 0 01-7 11l-1 4-2 5a5 5 0 01-5 5c1 1-1 4-2 2-1-1-3 1-2 3l-3 2-3 1 3-3 2-3c-4 2-7 2-7 1v-1c-2 0-2 0-1 1h-2c-3-2-3-2-1-2 1 1 2 0 2-1l2-1c1 1 1 0 2-1l1-3v1h1l2-1h1l1-2 2-3 2-2h-2l2-3 1-3c-2 0-6 3-5 3s1 1-1 2h-1v-3l-1-2-2 2-2 1a1 1 0 00-3 0v1c-2 2-1-1 2-6l2-4c-2 0 5-12 7-13v-1a13 13 0 00-10 10c-1-1-4 3-3 4l-1 1-2 2h2c0 2-3 3-3 1l-4-1c-3 1-3-2 1-5 2-2 3-4 0-4-2-1-2-1-4 2 0 2-2 4-4 6s-2 2 0 2l-1 2-4 3c0 2-4 5-7 5-2 0-2 0 0-4l2-5 1-2 1-1 1-2 2-3 1-2 1-3 6-10c6-9 6-9 17-11l8-2h-3l-10 2h-5l4-7 6-10-19 4c-5 0-5-1 6-15l11-11c2 0 2 0 1-1s0-2 4-7c7-10 8-12 2-6-3 3-6 4-6 2l2-1 1-3h-1l1-3 3-3 1-1 1-2 1-1 2-2-1-1c-3-2-3-2-1-2l2-2c-1-1 1-4 5-8l2-3 2-3c2-3 3-4 1-3l3-5a17 17 0 016-6l2-4c2-1 3-3 2-3l1-1 2-1c-1 0 0-2 2-3l2-3c0-2 4-6 6-6l1-2c0-2 10-12 13-12l1-1c-1-1 0-2 1-3 2-1 4-5 6-10 0-3 1-4 4-4l3-1h-3c-4 0-4-1-2-3l1-3c-1-8 0-9 6-12a17 17 0 007-5l2-1 5-1 2-1 4-2c2 0 7-4 7-6l4-3 4-5c0-3 2-5 3-3 1 1 2 1 5-1h16c0-4 22 16 24 21l-13 2c-2 0-3 0-2 1l9 1h9l7 7 7 8v1l6 4 10 11 11 13 17 19 17 18 31 33c42 45 42 45 40 46s3 5 5 4l4 2 7 9 6 8-4-3c-1-1-2-2-1 0s6 7 6 5l1-1v3l1 1c1-1 3 0 16 14 6 6 10 11 9 12 0 1-7-5-15-15l-3-2 5 5a764 764 0 0121 25 2540 2540 0 0131 33l22 26 25 28 14 15v8l1-156c0-91 0-164-1-163l-46-7a3873 3873 0 00-83-13c-25-4-33-6-25-6l4-1-4-3-4-1c-2-1-4-2-6-1l-4 1 1 1 3 1c2 0 2 0 1 1-3 2-7 1-36-4l-32-5-37-7c-2-2 2-2 12-2a46657 46657 0 0027 2l9 2 12 2a535 535 0 0128 4c5 0 5 0 5 3l4 2c2 0 2 0 1-1-3-2-1-3 5-3l10-1c3-1 3-1-3-1h-8l-1-1c0-1 1-2 3-2 1 0 2 0 1-1v-4c0-3 0-3-2-3l-3-1c-1-1 21-3 22-3 2 2-1 17-3 15-1 0-1 1 1 2l2 4c0 2 1 2 3 2l18 1 31 2c25 0 42 1 43 3l2 1c4 0 7 1 6 2l13 1c14 1 19 1 27 3 3 0 3 0 3 6l1-57-1-58c0 7 1 6-12 9-11 1-14 1-6-1l6-2-2-2-4-2c-2 0-8-6-8-8s4-7 9-9c2-2 3-2 1-2-4 1 0-2 4-3 5-2 8-1 5 1l-3 1h2l5-2c3 0 3 0 3 3l1-106V0H265L18 1l5 9 3 8-5-9-5-8-8-1H0v11m367 134l-12 6-6 3c-4 1-7 4-6 6 1 1 2 1 5-1l12-4c5-3 21-14 18-14l-11 4m-45 21l-17 7c-21 9-24 11-21 15h3a159 159 0 0029-14l13-6c3-4-2-5-7-2m-99 15c-3 2-4 3-4 0l-15-1a927 927 0 01-32 2l-48 2c-2 0-2 1-1 6s2 5-7 6h-8l-3-4c-3-5-4-6-9-5-4 0-5 2-3 6 1 2 0 2-2-1-4-4-5-5-2-3 1 1 1 1 0 0-1-2-8-1-8 1 0 3 6 10 8 10l6 3c5 4 6 2 2-3-3-4-3-4-1-3l5 2 5 3c3 4 5 4 5 1-1-4 3-4 5-1 1 3 1 3-1 3l-2 1-11 1c-10 0-31 1-39 3-4 0-5 0-7-2-5-5-21-16-21-15s30 24 40 30c7 6 9 6 5 3-5-5-6-5 6-5 17-2 23-2 27-4h18c13 0 13 0 13 5 0 3 1 4 3 4 3 0 3-1 0-5l-2-3 2-1h7c3-2 5 0 5 3-1 3 1 5 3 4 2 0 2-1 2-2-3-7-2-7 1-7 1 1 4 0 5-1 5-3 11 0 11 5 0 3 0 3 2 3 3 0 4-1 2-3-1-3 0-6 3-5v3c-1 3-1 4 2 5 3 0 3 0 3-4-1-3-1-4 1-4 2-1 2-1 2 3-1 4-1 4 2 4 2 0 2-2 1-5-1-1 0-3 3-3 2-1 3 2 1 5-2 2-1 3 2 2 1 0 2-1 1-2-2-5-1-5 6-7 10-1 14-3 16-7 2-3 1-7-1-5-2 1-4-1-3-2 2-1 5-12 6-16 0-3-3-3-7 0m49 32c-13 5-16 7-12 9 1 1 3 1 8-2l9-4c3 0 5-3 3-5-1-1-3 0-8 2m10 10l-7 5-11 10c-5 4-8 7-6 4 0-2-3-2-5-1h-2l3-2a3 3 0 10-5-4c-6 3-6 4-4 7 1 1 2 2 1 3 0 1 0 2 2 3s2 1-1 4-7 3-5-1l-1-2-1-4c0-5-4-6-8-2-1 2-1 2 1 4l1 3 2 3v4c2 1 0 5-4 6-1 1-2 1-1 2l6-4 26-21c23-18 23-18 20-18l-1 1m-265 9c0 7 1 8 6 10l47 18 2-2c0-2 1-3 2-3 3 0 1-3-3-3l-26-12c-31-14-28-13-28-8m396 4c-5 1-7 2-10 6-4 4-4 5 0 10l3 3h-7l-8 1-1 1-1 2c-4 4-1 4 14 0l12-3 2-4c2-4 4-17 2-17l-6 1m16 3c-2 1-6 10-6 13 0 4 2 3 22-1l15-4c7-1 9-8 2-7-5 0-5 1-1 2 7 2 1 3-9 1a1211 1211 0 00-20-5l-3 1m38 11l-10 1-12 3-7 3 3 1c7 4 2 6-9 3-10-2-21-2-21 1h-1c-3-2-21 1-21 4l4 3c5 3 19 2 18-1s10-4 15-3h14c12-3 28-3 22-1l-9 1c-6 1-8 3-8 7-1 2-1 3 3 2 3 0 3 0 2 1l-4 1-3 2c-1 1-1 1 1 1l4-1 4-2 4-1c0-1 3-2 7-2 6-1 6-1 5 1l-1 13v12h6c6 0 7 0 9-2 1-1 2-2 3-1l3-14 1-5c1-1 1-1-2-3-4-4-5-4-9-2-5 2-6 1-4-4l1-5c-1-3-1-3 11-5 10-2 15-4 10-4l-8-2c-4-2-4-2-5-1-2 3-3 2-3 0-1-2-4-2-13-1m-358 18l-1 3-1 5v2l1 5c0 3 1 4 2 5v2c-1 1-1 1 1 2v2l-1 1 1 1c1-2 3 1 3 5s1 6 3 6c1 0 1-22-1-24-1-3 1-6 4-6l3-1c0-1-3-4-5-4l-4-2-5-2m191 3c0 2-3 3-9 3s-8 1-5 2c1 1 0 2-5 2l-7 1c-1 1 2 3 4 2l2 1c0 1 6 1 13-1l2 1-3 1-3 1c-1 1 0 1 1 1l2 1 4 1h3l-2 1v2l28-2c12-2 12-2 14-4l3-1 2-1-7-1c-8 1-8 1-11-2-3-2-4-3-2-4l1-2c-1-2-8-4-9-2h-2c-1-2-13-2-14 0m-44 13c1 1 0 1-3 1s-3 0-1 1a11 11 0 006 2l-1 1h-6l-2 1-3 2c-6 1-5 2 1 1l7 1h2c2-2 5-3 8-1h6l-1 1-1 5c0 5 2 5 2 0 1-4 3-5 9-5 4 0 11-4 8-5-1 0-1-1 1-2 3-1 3-1-5-2h-11c-1-1-17-3-16-1m51 22l-2 2-1 1-4 2c-3 3-1 4 3 4l10 1h8v-1a25 25 0 01-6-1c-3 0-6-3-5-5 0-2 2-2 11-2 7 0 9 0 7-1h-21m-57 22a1106 1106 0 0071 30l13 6 5 2c6 3 9 3 10 1 2-2 2-3 1-3l-51-20-33-11c-22-8-24-9-16-5m-6 3l71 34 4 3h2c1-1-5-4-58-29l-19-8M0 520c0 90 1 126 1 81a31130 31130 0 00-1-81m351-154c-2 2-1 4 4 6a1049 1049 0 0061 23l3 1 4 2 10 3 10 4 10 4 11 4 4 2 5 1 3 1-21-10-21-9h2l12 4a5157 5157 0 0163 23c3 0 0-2-3-3l-34-13a7798 7798 0 00-110-40c-9-3-11-4-13-3m-27 3l14 7a31067 31067 0 01140 66l34 15-7-5-33-15a4492 4492 0 00-84-40 8206 8206 0 00-60-28c-3-1-6-2-4 0M43 501l-9 2c-6 0-7 0-10 4-5 5-9 12-9 14h1c0-2 2-1 1 1l1-1 5-4 5-3h3l1-1v-1l1 1v2c1 4 12-5 12-10l2-3c3-2 1-3-4-1m140 46c-16 4-15 3-15 16v10l1 2 1-1c0-2 2-2 4-1h1v-1l1-1h1v2c-2 3-2 3 0 2a3 3 0 002-3l1-3v-2l1-1h2l3-1c2 0 3-2 1-2l-1-1 2 1h5l4 1-1-8c0-11 0-11-2-11l-11 2" tabindex="-1" itemprop="regular" style="fill-opacity: 0.578; fill-rule: evenodd; fill: rgb(21, 21, 24); color: rgb(150, 150, 150);"></path><path d="M0 10c0 10 0 10 3 13a8 8 0 012 5 17 17 0 019 8l1 1 1 2 8 12c2 6 1 9-3 5-6-8-8-10-10-9-1 1-2 1-6-2l-5-3v6c0 5 1 6 4 11 4 5 4 6 2 7-1 1-1 1 1 2l21 6 6 2 6 3 7 2c2 1 7 3 11 3a8 8 0 0110 7l27 1a634 634 0 0152 2l2 1-48 1-48-1 6 10a52 52 0 016 12v3c2 4-1 2-5-4-8-12-16-20-21-20-8-2-8 0 2 14 10 15 12 20 4 14l-4-3-4-2c-10-6-12-4-7 4 5 7 6 10 1 7l-5-3-2-1h-2c-2-1-5 3-4 5 1 4-1 4-4 2-10-7-15-7-11 0 2 4 1 6-2 3-1-1-1 4-1 22v24l8 4 50 33c6 5 15 11 20 13 17 10 28 19 28 24 0 4 2 8 3 8s2-1 1-2h-1v-4l2-3c0-1 10 4 13 7 5 5 11 7 12 6 2-1 1-2-2-2-4-1-15-9-15-11l8-1 11-2h2l-2-3c-2-2-3-2-8-2-6 1-7 0-2-1l4-2 3-2-1-3c-2-2-2-2-17 0l-16 1 3 3c2 2 3 3 4 2s1-1 1 1c2 4-2 2-12-6l-26-18-11-8-28-22c-19-14-22-16-21-18 1-1 1-1 0 0-2 1-2 1-5-1l-2-3 3 1 31-1 50-2c21-1 22-1 10 1-4 0-5 0-4 1l17 9c6 0-3 2-13 2a3418 3418 0 01-73 4l6 4 11 7 5 3-1-2v-1l-1-3-3-3c0-1 6 0 9 2h1c-1-2-1-2 1-1 3 1 3 1 2-1 0-2 0-2 2-2l9 1h13c0-1 3-2 11-2 11-1 11-1 13 1 5 7 5 7 11 7 8 0 9-1 9-3-2-7-2-8 2-10 4-3 3-3 22-3h13c-1 1-1 1 1 1h4l17 1 32-2h17v2l-2 5 3-3c5-8 9-7 5 2-4 10-6 13-6 9a2 2 0 10-2 3c3 3 3 4-1 10-4 8-6 9-7 8l-1 2c1 2 1 2-4 2-7 2-8 2-2 2h5v3c0 4 0 4-5 5-6 0-6 1-1 1 4 0 5 2 3 3-2 0-2 10 0 11l2 2v1c2 1-3 3-7 3-2 0-2 0-1 1v4c-1 2-1 2 1 2 3 0 2 3-2 5-4 1-8 8-6 9l2 4 3 5 1 2 2-2c2-2 2-2 1-4-2-3-1-4 1-1l2 3v-3c-3-12 0-19 4-9 4 8 6 6 2-3-2-6-3-9-1-10 2 0 5 4 6 9l2 4c2 0 1-2-1-7-3-5-3-10-1-12 1-3 2-2 4 6l3 7 1 1c2-1 1-5-1-11-4-8-1-15 6-13 2 0 5 7 5 12l1 2c2 2 2-1 0-6l-2-7-2-6c-2-5-2-5 5-11l4-3 2 3 2 7 1 5 2 4c0 5 1 5 4 2s4-4 1-6l-1-4c1-2 0-3-1-5-4-6-2-11 7-14l8-4c2-1 5 4 6 9 1 3 0 3-2 4-3 1-7 7-5 7l4-3 5-2c2 1 6-3 13-10 3-5 9-9 11-8l2-3 5-5 5-3-5 4c-7 7-4 5 7-4l15-12a853 853 0 0145-36l28-22-86 70-17 15c1 1-17 15-18 15 0-1-2 0-3 2l-3 3-2 1-4 4c-2 1-16 11-30 23a1614 1614 0 01-44 34c-4 3-5 2-4-2 0-3 4-7 5-7 1 1 2-3 1-5 0-2-3-1-2 2 0 1-1 2-2 1l-1 1-4 5c-3 3-3 3-2 5 3 4 2 6-1 6-10 2-14 2-15 0-2-2-5-1-4 1l1 8v7h14c4 0 4 0 9 5l58 61 7 7c2 0 2 0 2 2-1 1 1 4 6 8a2990 2990 0 0152 57l13 13a10565 10565 0 0075 83 1101 1101 0 0031 33 4592 4592 0 0063 67l8 11a3986 3986 0 00-1-149 19814 19814 0 00-41-26l-31-19-64-41a2047 2047 0 0157 34 3675 3675 0 0074 46l6 4V357l-81-13-18-3a1625 1625 0 01-78-13c-24-3-91-15-93-17-3-4-1-7 3-7s4-1 5-4c0-4 0-4-3-4s-4 1-4 4l-1 3-1-4v-5c-2 0-1-2 1-2s2 0 0-1h-4c-1-2 1-3 6-3 4 0 5 0 5-2-1-2 5-3 14-3 5 0 6 0 8-3 1-3 2-3 6-3s5 0 6-2 2-2 7-2c6 1 8 0 9-3l5-1h5l5 1h1l6-1c3 0 4 1 4 4 0 2 1 3 2 3v-1c-3-2 1-5 5-4 4 0 5 2 2 2-1 1 3 1 8 1 9 0 17 1 17 2l5 1c4 0 5-1 2-3-1-1-1-1 1-2l3-2c-1-1 1-2 6-2 3 0 4 1 5 2 1 2 0 4-3 4-2 0-3 3-2 4 3 3-1 4-20 6-15 2-18 3-17 4v17h28c0 2 5 3 13 2 5-1 5-1 6 2 2 4 1 5-4 5-3-1-4-1-7 2l-6 2c-7 1 0 3 10 4l11 1 16 1c25 0 40 1 46 3l11 1-3-1-4-2c-1-2-4-2-15-3-12 0-13 0-13-3v-2l1-2c0-2-4-4-5-2l-1 1-1 3c-1 4-3 5-7 2-3-1-3-4-1-10 0-3 11-3 11 0l1 2c2 0 5-3 4-3l17-1h18l-1 5v6l5-1c6 0 11-2 11-4l2-3c2-2 4-3 4-1l4 1a5 5 0 005-2v1h17v10l1-39-1-46v4l-20 3-21 4c-2 0 1-5 5-8l3-6c0-4 0-5 2-6l2-3 4-4 6-4 11-5 8-2V90l1-90H18l4 7 12 24L19 7l-3-7H0v10m440 93l-2 1-5 3-12 10c-14 10-17 12-17 14s3 1 8-3l14-11c10-7 14-11 16-14 1-2 0-3-2 0m-73 42l-13 6-4 2c-3 0-8 4-8 6 1 2 5 2 8 0l8-3c6-2 18-10 20-15 1-1 2-2-11 4m-47 13c-2 3-4 3-3 2 4-4 1-3-3 1l-4 3c0-3-1-2-4 0l-1 1c1-3-1-2-5 2l-3 2c1-3-1-2-5 1l-3 2c1-3 0-2-4 2s-5 5-2 5c2-1 2-1 0 3-1 4 0 7 4 8 2 1 7-1 33-15l9-4v-8l-1-3-2 2-5 3-4 2-3 1-4 1h-1l5-4c2 1 13-9 12-10l-6 3M0 213l3 4c4 2 7 6 7 10 1 3 1 3-2 3-3-1-4 0-1 2H4l-3-1v99l5-1a66 66 0 0022-5h6c2 2 11 0 17-3h3v2c2 1 8 3 7 1-1-1 1-3 3-3s1 3-1 4l-2 1-1 1c-3-1-5 3-4 7l1 2 9-3 9-2v-1l1-2v-1l-1-1 2-1 4-2 2-1c2 1 2 1 0-2s-7-3-8 0c0 2-4 3-4 1s3-4 11-4c9-1 11 0 12 4 0 5 0 4 6 3l6-1v-7l-2-17-3-26-1-5h4c4 0 6 0 5-1l-87-45c-19-9-22-11-22-9m107 9l1 3c1 2 1 2-4 0-4-3-7-3-5 0 2 2 0 3-2 1s-7-3-7-2l1 2v2l-5-3c-6-3-7-2-4 2 4 4 5 4 19 3l19-3c7 0 11-2 10-4s-4-1-4 1l-4-1c-6-3-7-3-6 1l2 3-5-3c-5-3-6-4-6-2m-91 12c1 7-1 5 24 15 33 13 33 13 33 9 0-2 0-3 2-3s1-2-3-3l-28-13-27-11-1 6m420-1c-6 2-6 2-10 11-6 10-5 11 2 11l11-2 8-2 4-1-4 2c-6 4-26 8-41 9h-8l6-2 9-2c2 0 6-7 7-12l1-7c1-5 0-5-10-2-6 2-13 7-13 10 0 1-4 6-6 6l-4 8c-1 2-1 2 2 2h4l-3 2-3 2c0 1 7 6 9 6s2 0 1 1c-2 0-4 2-5 4l-3 3h7l42-5c4 0 4 0 4 2-1 3 1 4 5 2l14-6h5l-1 4c-2 9-2 22 0 25 4 5 4 5 10 4l7-1c2-1 5-8 6-19l1-10c1-1 0-2-2-3l-2-2 13-2 13-2v-5a9 9 0 00-1-8l1-4a2 2 0 00-2-3c0-1-9-3-15-2-8 1-14 3-12 4v1h-3l-3-1h-14l-10 1 6-2c7-2 9-4 9-10 0-4 0-4-2-3l-9-1c-9-2-16-2-21-1m-61 19c-3 0-4 1-1 2 1 1 1 2-2 3-4 2-4 2-4 5v3c-1 1 6 1 14-1 4 0 4-1 5-7v-6h-5l-7 1m-252 23l4 2c4 2 2 3-5 3h-4l1 10 1 14v6c1 1 16 0 16-1 0-2 4-1 13 1l9 2-1-1c-2 0-1-2 1-2 4-1 4-14 0-14-2 0-3 3-2 10 0 2-4 4-5 2h1c2 0 0-11-3-12-2-1-2-2 0-3 4 0 1-2-3-2l-6-3-2-1-2-2c0-2 1-2 4-1 6 2 2 0-6-5-10-4-12-5-11-3m206 13l-1 3v3l-1-3c-1-3-2-3-5-3a68 68 0 01-9 2c1 0 2 2 2 6 0 7-1 7-2 0-1-4-1-4-4-4-1 1-2 0-2-1l-2-1-6 1c-2 0-3 0-2 1v1l-1 6v6h36v-13c0-5-1-7-3-4m-45 5l-7 2h-6v5c0 4 0 4 3 4h3l-3 2c-4 4-3 5 7 5 5 0 6-1 1-2-3 0-4-1-4-3 0-3 0-3 7-2h7l-1-5-1-6h-6m-51 34l4 2 44 21 22 10 4 3c-1 1 10 6 13 6l3 1c-1 1 2 3 4 3 1-1 5 0 9 2l27 13 112 53c39 19 37 18 37 15l-70-34a29943 29943 0 01-74-34l-4-4a1 1 0 10-2-1c0 2-1 1-7-2-4-1-6-3-5-4l-4-1c-4-1-13-4-17-7l-4-1-3-1-11-6-43-20a552 552 0 00-34-15l-3-1 2 2m13 0l3 3 56 25 33 15c9 4 10 4 10 1 1-2 1-2 2 1l3 4 6 3 16 6 31 13a14191 14191 0 0098 42c8 4 8 4 8-7v-11l-5-1-104-39h1l3-1-4-1c-5 1-16-3-14-4 1-1 1-1-1-1l-2-1-9-3 2 1c5 3 1 2-8-1l-13-5-8-3-83-31c-21-7-27-9-21-5M57 341l-23 7-24 6-8 3-1 63 1 63h1l1-1c2 0 3-2 3-3l4-5 2-3 5-5a9 9 0 004-9h1c0 3 1 2 4-1 4-4 4-4 1-3h-2l2-3c3 0 4 0 2-1s-2-1 0-3v-1c-1 1-2 1-2-1v-2 1l2-1a4 4 0 014-3h2v-1a2 2 0 010-3l-4-2h-3l-1 3 2-1 1-1 1 1v1c1 1 1 1 0 0l-3 1-1 1h-1a3 3 0 01-5 0l7-7 3-1c-1 3 5 2 7-1 2-2 1-3-3-2-2 0-2 0-1-2l3-1h1l2-3 7-6 6-5 9-8 16-13c13-10 12-13 0-3l-13 10-12 8-6 5-7 5-2 1c0 1-4 4-7 4l-3 1c-1 1-1 1-1-1l-1-2-1 2v3l-2 1h2l-1 2c-4 3-6 2-3-1v-1h-1l2-1 2-3c0-2 1-2 2-2l5-4a18 18 0 017-4l2-2v-8l2-3c-1-2 0-3 1-5l1-2c0-1 4-3 6-2v-1l1-2 1-2v-1l3-2c2 0 2-8 0-11a3 3 0 00-6 1l-1-1v-2l-1 3-1 4-1 1-1 1-3-1 1-1v-6c-2 1-1-1 1-3v-1h-1l-1 1-2 2v1l-1 1v-3c1-1 1-1-1-1v-1h1l5-5 6-4c2 1 5-1 3-2-2-2-1-4 1-4l-1-1c-2-1-3-2 0-2 1 1 2 0 2-1h4l2-1c2 1 3 0 3-2s0-2-7 0m197 7a1313 1313 0 0042 26l38 23-20-14c-2-1-3-2-2-3 0-1-1-2-3-2-3 1-12-5-45-26l-19-11 9 7m6 66c-15 2-16 2-14 6l-1-1c-3-3-4-3-7-3l-12 3h1v4c-1 1-1 1 1 1v4l1 1 1 1v3c-1 1-1 1 1 1v4l1 1 1 2v1l1 2v4l1 1v2l1 1 1 2c-1 1-1 2 1 2v1c-1 2-1 3 1 3v1c-1 0-2 3 0 3l15-2 52-9 11-1-8-10c-30-33-27-30-31-30l-18 2m20 202l-2 1-1 1c-2-2-2 1 0 3 2 1 2 5 0 3l-1 2v2c-1 0-4 1-3 2h-4l1-1h1c-1-2-3-1-3 1h-1a6 6 0 00-5-1l-2 1h-1l1 2h-4v1l-2 3-2 2-1-1v2c0 2 0 2-1 1h-2l-1-2v-1l-1-1c1-1-1-5-2-5l-1-4c1-5-1-3-2 1 0 3-1 4-5 5l-5 1-4 1h-1c1 1 1 1-1 1-1-1-2 0-2 1l-3 1-4 1a28 28 0 01-9 4c-2 0-2 0-2-3l-1-6-2-2v3l-1 8 1 1v3h-3v6l-1 1-1 1c-2 0-2 0-1 1v1a3 3 0 00-4 4h-3c-1-1-1-7 1-6v1l-1 3h1l2-3 2-1v-2l1-1h3l-1-1h-3c-2-2-4-2-1 0v1c-1-1-2 0-2 1h-1l-2 1-1 1-7 1h-2v1l1 1a7 7 0 01-4-3h3c1-1 1-1-1-1h-6c0 1 0 2-1 1l-1 1v3l-1 1c0 3 0 4-2 4v1c2 2 3 4 1 4l-2 2-1 2-1 5v5h107l109-1h1v1l1-1-2-2-2-1-1-1-1-1-2-9v-3l-1 1h-2v-1c-1 1-2 0-1-1h1l1-1h-2c-1 1-2 1-2-1l-5-4-4-3v-1c-2 0-2 0 0-2 2-1 2-1-1-1l-9 3a20 20 0 01-10 1 121 121 0 006 17l2 4c1 3 1 4-2 2l-1-2-1-4-2-5-1-1-1-3-4-6c-3-2-3-2-3 0v2l-1 1v2c-2 1-2 1-1-1 0-2 0-3-2-3-3 1-4 2-3 3l-1 1-3-1 1-1a2 2 0 002-2l-1-1v-1h-3l1 1c2-2 1 1-1 2-1 1-1 1-1-2 1-2 0-3-1-2v2h-1c-2-1-2-2-1-2 1-1 1-1-1-1h-1l1-2v-3l-1-2-1 2-2 1v-2l-1-2h-1v2c0 4 0 4-1 3l-2-3-1-1-1 3 2 2h1c0 1-1 2-2 1-2 0-2 0-1 1v3l-2-2-2-1-1-1-1-1c-2 0-5-4-4-6v-2c1-1 1-1-1-2l-2-3-1-1-2-6-1-9 1-1v-6h-7m-161 29l-1 3-2 7c-1 8-1 8-3 11l-1 3-1 6c-1 7-1 8 1 8l2-2c0-5 4-8 14-10l6-2 7-3 7-1c6-3 8-3 7 2l1 3v3l-1 2-1 3a3 3 0 01-1 4c0 2 8 1 9-1v-29c0-8-1-9-1-3-1 6-3 8-10 10l-10 4-8 3a176 176 0 00-13 4l-3 1v-5a960 960 0 003-23l-1 2" tabindex="-1" itemprop="bold" style="fill-opacity: 0.875; fill-rule: evenodd; fill: rgb(45, 6, 6); color: rgb(138, 138, 138);"></path></svg>