<svg id="16282281824-posters-1720119797893" itemscope="" itemtype="/posters" itemid="/+16282281824/posters/1720119797893" viewBox="0 0 512 683" preserveAspectRatio="xMidYMid meet" tabindex="0" class="" xmlns="http://www.w3.org/2000/svg"><!----><defs class="graphic"><pattern id="16282281824-posters-1720119797893-pattern" width="512" height="683" viewBox="0 0 512 683" patternUnits="userSpaceOnUse" preserveAspectRatio="xMidYMid meet"><rect itemprop="background" width="512" height="683" tabindex="-1" id="16282281824-posters-1720119797893-background" fill-opacity="1" fill="url(#16282281824-posters-1720119797893-radial-background)"></rect><!----><path id="16282281824-posters-1720119797893-light" d="M0 342v341h83c82 0 83 0 84-2q1-4 3 0c1 1 5 2 72 2h72v-10h-15q-6 0-7-2l11-1c10 1 11 0 11-1q2-3-9-2l-9-1q-2-3 1-3l18 1-14-2q-9 1-8-5h11l12 1 1 5 1 13v7h11v-15l2-15h18l-9 1h-9v3l3 4v22h28v-9l1-11 2-3c1 0 1 13-1 20v3h33v-6l1-5v11h9v-24h-4l-5-1q1-3 4-4 7 0 7-3 0-9 5-10 7-1 6 7v5h12l12 1v5h-22v24h22v-8l1-16v-8l11-1h11v32l3 1c2 0 2 0 2-9l2-25 1 2 1 3q2 0 2 15v14h27v-6q0-7 2-3l1 5q-1 4 3 4c1-1 2-9 2-342V0H370l1 2 3 4q2 4-1 3l-3-5q-5-9-8 1l-3 4q-3 1-2-1l1-4 2-2 1-1-181-1H0zm0-108 1 145c0-81 0-87 2-87v-1c-2-1-2-6-2-43v-42l2-2 2-3-2 2c-2 1-2-11-2-100L0 1zM323 65q0 5-1 3-1-3-2 1l-2 4-3 7-2 3-2 2-1 2-3 3q0 3-1 2l-1 2-2 3-2 2q-1 5-2 3-1-1-1 1l-3 6q-4 4-4 7 0 4-1 2-2-2-2 2-1 9-2 5 0-3-1 2-1 4-2 3-1-2-2 1l-1 2-2 3q0 4-2 3l-1 3q-1 8-2 3l-1 3q-1 7-2 3-1-3-1 2-1 5-2 3-1-3-1 1l-2 4-2 4v7l1-2 3-5 3-6q0-3 2-2l1-3 1-4 1 1v1l1-2 2-3 2-4 1-2q1 1 2-3 0-5 1-2 1 2 1-1l3-3 1-4q0-3 2-2l1-1 1-3 3-5q0-6 1-2 1 2 2-2l2-3 1-4 2-3 2-2 1-2 2-2 4-7 4-8 3-4 2-3 1-4 4-9q-1-3-3 3M212 195l-1 8v10q-1 8 3-2c2-9 1-19-2-16m67 11v14h3c3-1 3-16 0-16q-3 0-3 2m-71 34q-4 8 0 5v3l-2 4c0 3 4-3 5-8q2-11-3-4m18 18c-2 5-4 11-2 9l2-4q1-1 1 9 0 24 1-2c1-16 1-16-2-12m21 1-6 3-3 2-1 1q-2 3 1 2h2l2 1v-2q-3-4 2-1h2q-1-2 2-5l3-3zm11 41-2 23q-2 2 1 1l3 1v-1c-2-3-2-5-1-21v-18zM87 315l2 2 11 6v3q-3 4 4 7l3 3c1 2 7 1 7-2q0-2 5 1 3 2 2 3h1l2-3 3-1 4-2q1-5-4-2-5 4-9 1-1-2-4 1-5 4-7 1l-2-2q-3-1-3-4 0-6-2-8v-2l-1-2q-3-2-1 1l-1 3-1-1q1-1-1-2l-3-1zm17 23-2 2-2 1h2l2 4v2l3 1v-3h2q4 3 7 1l-2-1q-4 0 0-3l2-3h-9q-3-3-3-1m280 10 1 2 3 6q3 9 9 11l-2 1h-26l-22-1 25 3 35 2c0-2-6-7-9-8q-7-2-9-8c0-3-5-10-5-8m-288 3q-1 4 4 1 5-1 3 3-2 2-1 3 1 3-2 5l-4-4-1-1v3q1 3-2 2l-2 1h-4l-3-1q-1 3 5 6 3 0 3 2-1 2-5 1-2-2-2 1v3q-2 0 1 2 2 3-2 4-2-1-2 3 2 4-1 2c-3-3-1 3 3 6q4 4-1 3h-3l3 1 2 2q-1 2 3 1l1-3v-4a6 6 0 0 0-1-7q2-3 6-1l1-3q0-3-2-3a3 3 0 1 1 1-4h2l-2-2v-1h4l3-6q0-3 3-4l2-2 3-2 2-1q2-1-2-1-5 0-1-3 3-3-1-2l-4-1h-4q-1-1-3 1m169 10 2 3q3 5-1 6h-2q0 4-5-1-3-3-4-2-2 1 1 3 3 1 1 3-2 3 5 2l4 1h4q3 0 3 2l-4 1q-5-2-5 1l-1 2a1 1 0 1 0 1 2l2-2q0-3 4 1 1 3 2 0c0-2 5-4 7-3q3 3-2 4-5 0-2 4 3 3 1 4-1 1-3-2l-3-4 1 3q3 4-2 5-4-1-1 2h4q5 0 6 4h-7q2 4-4-1-3-3-4-2h-2q-3-4-3 1l-3 4v3q4 1 3-3 1-6 3-2l2 2q1-2 2 1l4 2 3 1q-1 2 1 4l2 2-1-4q-1-5 3-5 3 0 2-4-3-13 0-14 5-4-1-6-3 0-3-2l-4-3q-4 0-2-7 1-6-2-7-2-2-2 1m64 7 4 18 6 29 17 65h1c2-2 2-2-2-16l-23-97-1-1zm-3 5-1 4-1 4-1 5-2 7-2 7-4 15v5l-1 2-1 3-1 3-1 2h-1v-1l-1-1-2 3q-3 5-3 1 0-2 1-1l1-1-1-1q-2-1-2 1l-1 2h-1q-1 2-1-1 1-2-1-1l-2-1v-3l-1 1h-1l-3-2q-2 0-1-1l-1-2q-1-1-1 1l-1 1-1-3c0-2-12-2-13 0h-3c0-2-7-3-7-1q-2 2-3-2-1-6-3-2-2 2-2-2 0-3-3-1-2 4 2 5 2 1-1 3-3 4 0 4 1 2 3-1l2-2v4q-1 5 0 0l2-3v8l2-1q4-1 5 2 0 3-2 2h-3q-1 3-6-2-6-6-1 2 5 7 0 4-4-3-3 0l-1 3c-2 2-3 23-1 23q2 0 2-5l1-4 1 3 1 4 1-4 1-3 1 2 1 4 1-3 1-4q1-1 1 1l1 4 1-4q2-8 3-1 1 5 1 0 0-6 5-3 2 2-2 3h-1l3 1 9 1 7 1v-6h7l8 1-5 1q-9 0-6 2l12 2 16-58c6-27 7-33 4-26m96 32-6 3-1 7q-1 18 9 5 3-4 4-2 2 3 2-7c1-9 1-9-8-6m-239 5-4 4q-7 4-1 7v6q2 1-1 1h-3c0 1-6-2-6-4q0-4-5-3-2 1 1 2l2 2v2l3 2q2 2 4 1l2 1q-2 2-5-1h-2l-1-1q-3-1-7 3h-3q-1-1 0 0l3 2q5 0 5 4h-5l-2-1q-1-3-2-1l-1 2-1 3-1 1-1 4q-1 4 3 2 4 0 3 2l2 3 1 5q-1 3-1 0-2-4-3 0l2 4q0 4-2 1-4-3-4 5c1 4 6 5 6 1l1-2q1-1 1 1-1 4 4 3l17 1q4 1 3-2l1-2 1 3 1 2 1-3q2-3 11 0 4 3 6-4 0-9 1-1c0 10 13 7 13-3v-17h-3l-4-1-3-1c-3 0-3-5 1-6a2 2 0 1 0-1-3q-2 5-5 0l-1-1v2c2 2 1 6-1 4l-2-1 2 3q5 5 1 3l-4 2q-3 4-3 0l-2-1-1-2-1-2c-2 0-1-6 1-7q3 0-1-4-5-5-8-2l2 1q5 0 6 4-1 2-3 0-2-4-2 2-2 8-5 3-2-1 2-10v-2l2-2 2-5 2-5q2-2-1-2t-2 2v1l-2-3q-1-5-3-2m240 13v2l-2 1q-1-1-3 2l-2 2q-1-1-1 3l1 4v2l-2 8q0 7-4 7c-4 1-4 1-4-10l1-9-1 11c-2 12-2 12 5 10l4-2v3q1 5 2-1l9-11-1 8q-4 4-1 7l3-3 1-4c2-4 1-16-1-14h-3q-3-4-4 0 1 4-1 5-2-2 0-8 2-2 1-5 0-5 2-4l2-1 1-2q0-3-2-1m-318 19-2 1-2 2-2 2-1 1v1q1 2-1 3l-2 2q3 0 6-4-1-4 3-3 3 2 2-1-2-2 1-3 4-2-2-1m148 2v4h24l17 1c13 0 14-1 14-3 0-3-6-4-7-1q-1 4-2 1l1-1 1-1h-32q-4 0-3 1 1 2-2 2-4 0-2-2 2-1-2-1l-4-1zm82 8-2 16v5l-1-4-7-23-1 15c-2 34-2 37-4 37l-4 1-3 2 3-1 13-3 18-6q12-4 1-1c-2 0-2 0-2-17q2-24-1-19 0 2-2-1-1-2-1 4 0 13-3 14-1 3-1-11l-1-13q-2-4-2 5m-95-3-1 2a1 1 0 0 1-2 1c-1-1-7 1-8 3-1 1 11 3 12 2zm-145 8q-1 1 1 4l3 4 3-1 4-2-2-2-4-2-2-1zm166 6-12 6-10 4 25 1q3 1 3-4 2-11 2-1l1 5 2-6-1-5-5-1zm15 2 1 1h1l2 2 6 1 3-1-1-1-2-1q1-3-5-2zM0 507l1 19zm89-37v4l1 4-3-3q-4-4-2 0v3q-3 1-1 2c1 2 9-4 8-6l-1-3q-1-3-2-1m251 5-10 3q-6 1-4 4l1 6 1 4 8-3c7-2 8-2 8-9q1-9-4-5m-52 37q-1 3 6 2 5 0 4-1l-1-2q0-2-4-2-6-1-5 3m126 3v8q-3 3-1 5l1-3q0-3 1-1 2 2 3-2l2-5 1-3-2 2q-2 6-3 0t-2-1m-125 2 1 1c0 2 3 2 21 4l8-1-7-1-8-2q-1-2-9-2-7 0-6 1m-4 1-1 15c-2 14-2 27-1 29l1-7zm4 5 15 2 15 1-16-1q-28 1 2 3c14 1 14 0 14-2s-2-2-20-4q-12 0-10 1M7 527v1H4q-4 0 0 3h2q4-2 6 1l2 2q4 0-2-5-5-5-5-2m280 3q-1 4 4 3l6-1 3-1q2 0-1 2-2 1 7 1l9-1h2q3 4 3 0c0-3 0-3-11-3l-17-2q-6 0-5 2m1 6v1l-1 1q-1 2 22 3c11 0 11 0 11-2 0-3-1-3-18-4zm-1 7-1 3 15 1c19 1 19 1 19-1 0-3-3-3-20-4-11-1-12-1-13 1M0 615c0 38 1 53 1 34zm288-67q-3 1 0 1l1 2 22 3c8 0 8 0 8-2 0-3 0-3-13-3l-14-2zm-2 7c0 3 3 4 18 4l15 2-7 1c-27-3-27-3-25 1q0 2 16 3c13 0 14 0 13-1v-2q2 0 2 3c1 2-2 2-21 1q-16-1-10 1v1q-6 1 5 2 29 3 24 1-3-2 0-2 2 0 2 3v2l-8-1c-27-2-27-2-27 0l1 1h1q0 2 8 2l11 1q3 2 2-1h2a7 7 0 0 0 9 0l1 9-1 12v3l-8-1q-22-2-21 1l1 2 26 1-1-2q3 0 3 3t3 2l17-1c13 0 13 0 11-2l-2-3q1-2-5-3h-3l1-7q0-14-2-9-1 2-1-7c0-15-2-9-3 10l-1 19-2 1q-2 1-2-5t-1-3q0 2-3 3l-1-12-1-14q-4-5 3-7 4 0 4-2 0-3-1-1l-3 2q-4 1-3-4 0-6-3-7zm177 18-1 2-1 1v2q1 3-2 2c-2 0-3 7-1 10l1 3q1 4 4 4 3-2-1-3c-3-1-3-8 0-8l2 2q-1 1 1 1l5-1 2-1-1-1-2-1-4-3q-4-1-1-7l1-3zm-178 9c-1 2-1 2 13 3s15 1 11-1q-3-1-2-3l-10-1q-12 0-12 2m73 7-1 12q0 3 2 1h17l14-2-2-1-5-1q-7 0-6-2-1-5-2 1c-1 4-7 5-7 1q0-3-2-3-4-1-6-11-2-9-2 5m-73-2c0 1 6 4 10 4h4l-4-1 8-1 7 1q-7 1 2 2 6 0 3-3c-2-2-30-4-30-2m2 6q-1 4 15 5c13 1 13 1 14-2q1-2-8-2l-14-2zm198 12-1 1-1-1c0-2-4-1-4 0l-2 1q-4 1-2 3l9 1h19l-1-1q-2 0-2-3 1-3-8-3-7 0-7 2m-116 0c-1 1 30 2 31 1q1-1-6-1l-16-1zm-81 1 2 1 1 2v1l1-1h19q4 0-3 1h31l11-1a67 67 0 0 0-35 1v-1c0-2-3-3-17-3zm128 2v2l-1-2-1 1v2h-3q-5-1-3 1 0 2-4 1v-1a2 2 0 1 0-1-3h-2q-1-2-1 2 1 4-2 4-6 0-7 2h46l-1-3v-5l-2-2v1l-3 1-3 1-2 1h-3l-2-2-4-2q-1-2-1 1m-125 6h-1q0 2 7 2l11 1q5 2 6-1h2q1 2 1-1 2-2-9-2c-15-1-17-1-16 1m-33 3c-3 1-3 1-3 8l-2 13c-3 11-3 10 1 10q5 1 5-5v-11q1 2 1-2-1-2 1-8a5 5 0 0 0 0-6zm34 3c1 3 5 4 4 2l3-1q3 0 2 1l3 1 6 1q4 0 4-2c-1-3 0-3-14-4h-10zm79 3 12 1h10l-12-2q-12 0-10 1m-77 3q1 4 3 2l5-1h6l-4 1q-10 3 2 2h8q1 1 1-1 1-4-5-3zm2 7q3 4 4 2l7-1h8l-5 2-5 1h5q8 0 5-4l-10-1c-10-1-10-1-9 1m-7 5 2 1 1 1q0 3 15 3c8 0 8 0 8-2q2-4-7-3l-13-1zm1 7h1l2 2q0 2 3 2h11l8 1v-2q1-4-4-3l-13-1zm3 6 3 3h16l-4 1q-6 1 1 1 8 0 6-2c0-3 0-3-9-3l-11-1zm169 11-2 15q0 8 2 6c3 0 3 0 3-9q3-24-1-22-2-2-2 10m-15-8c-1 1 0 3 2 15l3 11v4l1-4 1-15v-12h-4zm-152 24q-1 4 3 3 4 0 1-1t6-1l8-1-7-1-9-1q-2 0-2 2" mask="url(#16282281824-posters-1720119797893-horizontal-mask)" itemprop="light" fill-opacity="0.90" fill-rule="evenodd" stroke="none" fill="url(#16282281824-posters-1720119797893-vertical-light)"></path><!----><path id="16282281824-posters-1720119797893-regular" d="M439 3q-3 8 2 3 2-3 4-1 1 2 2-1 1-4 3 2 1 5-1 1-2-2-2 1-2 13 1 13v7h-3q-6 0-4-3v-3q-1-1-2 2l-3 4v2l-2 1-2 1 5 2q1-1 1 2 0 4-1 2h-4c1 1-1 10-3 13q-2 5 1 5l1-2 2-4q3-3 1 1l1 4 1-2v-2q2 1 3 7-1 5 4-3v1l-1 4q1 3-1 4-5 2-5 6l-1 1q-2 0-1 1l2 1 3 1q1 1 1-1 1-5 2-1h1l1-2q-1-1 2-3 6-2 3-3l-1-2-1-2-1 3-1 2v-8l2-3q1-3 1 2l2 5 1 3 2 3 1 5-1 3-1-4-1-3v3l-1 5v1l2 2 3 2 2 1h-4q-5-1-5 3-2 7-8 3-4-3-4-1l-4 4-4 5h1q1-2 4 1 4 3 4 1 1-1-1-3l-1-3q2-3 3-1 2 3 11-2l5-3 1-1v3l2-1 4-3-2 3-2 5c0 2-8 11-13 13q-3 1-2 2l-1 5q-2 8 2 1c3-7 12-16 14-15q3 5 0 11c-3 3-5 9-3 7h2l1 2 1-1a1 1 0 1 1 2 0l2 2v3l-2 1q-2-1-3 5l-1 3-1-1v-1q-5 1-2 4 4 3 5 0 0-3 3-3 5 0 2 4-1 3-2 0h-1l-1 3q-1 4-2 1h-4q-6 3-7 0l4-2q6-1 0-2-3 0-3-4 1-4-2-2-4 2 0 3l1 1-2 3q-1 4-2 0h-2l-3 1 1-2q3-3-1-3-5-1-2-8l2-4q0-3-1-1-1 3-3 0l-5-1q-4 2-3-2l3-4 2-3 1-1 1-2v-2l2-1q1-2-1-2l-1 1-5 1-8 1-4 2q-1-1-3 1 1 3 3 3l3 2q2 2 3-1 1-4 1 2 2 7-2 7l-3 1h-2l-3 2-2 2h2q10-3 11 2 3 4 2 1-1-9 1-6 3 3 5 2 3-2 2 3v7q2 5-2 6l-3 2 1-2c2-3 3-13 1-13l-2 2v3h-1q-2 0-2 3v4l-1-4-2-3v-3l-1-2q-3 1-4 4l-1 2-2 2-3 4-2 5-1 4q-2 1 2 1l4-2q4-3 2 3v3q2-3 3 2l1 4 1 3 1 4 1-1 2-2q3 0 5 2h3q3 0 2 1l-1 2-2 1q-3 0-1 5l1-1q1-4 3-3l-3 9q-1 2 0 0h3q1 2 2-1t1 0l-2 3-3 3q0 4 7-2 5-5 4 1 0 3-1 1l-1-2-4 5-1 3-1-1-1-2v7l2-2h3l3 1q2-1 2 1h2l1-3q1-4 3-2l2 1q3 2 0 3a1 1 0 1 0 1 2l2 1-2 4 1 1 2 2q0 3-1 1 1-3-4-1-4 2-3 5l-1 3q-3 3-3-3a1 1 0 1 0-1 0h-2q-5-3-3 1c1 2-5 4-7 1q-2-3-2 7l1 5c0-3 6-11 6-8l-1 2c-1-1-3 4-2 6q1 2 2-1 2-5 3 1l1 2 1-6q-1-5 1-5 1-2 1 4v3q2-2 1-3l1-3v13l1-1 3-3v3q-1 4-3 4-4 3-5 7l2-1 3-3v5l1 7c1 2-2 8-4 8v-2l1-2 1-3-3 2-4 3q-3 2-4 11 2 7 2 4l2-1v-1l-1-3q1-2 3 2l3 3q4 0 0 5-6 5-1 6 3-1 1 5l-2 2c-3 0-4 7-1 10q4 3 2-1c-2-2-2-7 0-7s4 10 2 12l-3 5q-2 6-3 2h-1q-1 3 3 4l2 2 3 2 3-1-3-1q-2 0 1-3 5-4 2-7c-2 0-2-6 0-6l1 1 1 5q2 4 5 4l-1-2-3-5-1-4c-1-1 2-9 3-9l2 3 2 5 2 4q-1 1 0 0l1 1 1 2 1-1 1-2 3-2v1q0 3 1 1 3-3 3 3 1 2-1 4l-1 4-3 1-2 1-2 6-1-1c1-2-5-2-7 0v2h3l1-1 1 1q0 2 3 2 4 1 1 2l-3 4-3 3-1 2q-1 3-3 1-5-1-5 6 0 2-3 2-3 1-1-2 4-8 0-11l-2-4v-2l2 2q2 2 3 1h6l2-1v-3h-2q-3 4-7-1l-2-2v1l1 2h-2l-2-3h-2q-3 0-2 2 1 3-2 3l-1 1q1 3-2 1v-2l1-2h1l1-1q-1-4-6-5h-1q-1-3-4-2l1 2q3 3 2 6v2q2 2-4 3l-2 2q0 2-3 2-3 1-3 4v3l2-2 2-2 1 3q3 3 1 0 0-3 1-1 3 4 3-2 0-3 1 0l3 2 4 1-3-2q-2-1 0-5 1-2 1 1t1 1l3-2 2-2q1-4 3 0l3 3q3-1-1 4l-1 2 2-2q3-3 1 3-4 6-5 3l-1-1-1 1h-1l-4 1v-4l-2 2-1 3h-13a46 46 0 0 0-21 3q-12 3-7 8l2 3q-1 2 1 5 1 4 9 6l3 2 3 3q7 7-10 4l-18-1q-8 1-10-1h-3q2 2-11-1l-13-2-8-1 1 5 1 7 2 5q-1 7 2 8v2q-2 0 2 13l2 9 3 4q4 0 1 1-4-3 0 12l5 19 1 5q2 8 7 8l3 1 2 1q1-1 1 2 0 4 18 4 6 0 1-1l-3-1 2-1q3-1 0-1l-2-1h15l-4 1h-5l-1 1 3 2h4l2-1 4-3 6-2q6-5 4 2 0 5-2 5l-1 2a5 5 0 0 1-7 2l2-1c1 1 5-2 4-3v-2l1-1q-12 2-11 6 0 4-2 3l-17-2c-15 0-17-1-15-2v-1l-3-3q-1-6-2-2l1 5v15l-6 1-21 7q-25 7-19 4l3-7q1-7 2-3l2 2 1 3q2 4 3-31 3-30 5-14l2 7v-9l1 7q0 14 3-3l1-9h1l1 1 1 2 1 12q0 12 1 11l1-8q0-14 3-10 0 3 1 0c2-4 3 6 2 17q-2 24 1 20l1-10q-1-12 3 2 2 7 4 6l-4-19-6-25a5 5 0 0 0-4-6q3 0 1-3l-12-56-2-6-1 4-2 11-18 71c-4 12-5 20-3 14l11-38 13-50c2-3 2 1-16 69-13 50-14 52-10 50l4-1-3 2-8 3-5 1q-3 1 2 1 6 0 5 2l2 3q2 1-2 1l-4 1h5q5 0 5 2l8 1 8 1c1 3 1 27-1 28v1l3 11q0 6 2 5 5 2 3-9 0-12 3-3l-2 45q0 8 2 6 3 2 3-12l2-27 2 7 1 7 1 9v10l7 1q11 1 5 2-5 0-2 3v3l2 2-8 1-17 1h-10l1 4q1 4-2 3-2-2-2 1l1 5 1 3v5l1 10v10l5 1h5l-1 15 1 15c2 0 3-3 3-17l1-13c0-1 17-1 18 1l-9 1-8 1 2 4q3 3 2 13l-1 10h28v-7c0-9 2-18 3-17l1 12-1 12h32v-10q0-17 3-19c2 0 9-8 9-9 0-4 10-6 11-2 1 1 2 2 12 2l12 1c4 3 24-2 24-5s5-5 6-2l3 2q3 1 1 2-3 4 2 1h2l2 1 1 1-6 1q-7 0-4 1l1 3v2q3 1 3 18v12h26v-7q0-12 3-8v6l1 3q3 6 1 5l-1-2q-1-3-1 0t3 3c1 0 2-1 2-41q0-40-1-39-1 2-1-1l1-3 1-116V367l-2 3q-2 3-3 2v-2l2-3q1-2 2-1l1-50c0-46 0-49-2-48v-1c3-4 3-84 0-84v-1c2-1 3-13 1-13h-1l-2 1-1-1v-1q-1-2 2-2l2-1v-32l-1-29v-1c2 0 1-51 0-53h-2v-5l1-2v2l1 4 1-24V0h-6q-8-1-7 3 1 3-2 3-5 1-2 4v2l-5 3q-2 3-3 0l-1-2-5-5-1-1-1 4q0 3-1 1-2-2-2 1 0 4-2 1l1-2 2-4q0-2 2-2l1-3q0-3-3-3-5 0-4 6 0 3-2 3l-3-1 2-1q2 0 0-2l-1-3q0-3-1 0-2 6-4 1l-3-3h-2l2 3q3 2 1 4v4l1 4q2 3 5 0 3-5 4-2l3 3 2 2q0 2-4-1t-5-1l1 1q2-1 2 2 1 2 3 1c2-1 1 4-2 6h-3l-4-1-4-2-2-4-1-5v-2q-2 1-2-1-2-3 1-2 5-1 0-2-3-2-1-6 2-1-7-1h-8zm-84 6-1 5-2 6-1 4-1-3q-1-6-1 3-2 9-4 8l-1-2q1-1 0 0l-1 3q0 4-5 14l-5 7-3 5-9 17-4 7-5 8-3 5-5 9-7 11-3 5-4 5-2 4-2 5-9 14-1 2-3 4-14 23q-1 2-1-1l2-6 1-5 1-3 2-3q2-1 0-2l-5 8c-5 9-11 19-13 20l-2 3-1 2v1l-2 6-1-2q-1-1-1 2 0 8-2 2-2-5-3 4l-2 4c-2 0-2 0-2-8l1-8h-15l-1 8c0 12-1 14-3 17q-6 6 5 5c8 1 7 1 6 5l-2 1c0-4-5 3-5 6q0 4-3 7-3 4-2 7 2 4-1 4c-2 1-3 7-1 7l1 4v5h6q8 1 8-6l5-9c1 1-1 33-2 37q0 3-2 3v1l-1 1q-3 0-1 3 1 2-2 2l-2 1 2 1q3 1 1 2-3 3-1 6l1 2-2-1a4 4 0 0 0-6-1q-1 1 2 4h1q0-4 5 0l2 3h-2q-4-1-4 5 0 4-3 1l1-2-1-3-2-1q-3 2-4-2l-1-2-1 1h-4l-1 3q-3 2-3-4 0-4-2-4l-1 2-1 2v-3q0-3-4 2-1 3-2 1 1-5 4-5v-1l-3-2v-2q3-4 1-4l-2 1a1 1 0 1 1-2-1l-2-4-1 2-1 2-10-5 4 1 5 1q2-1-2-1l-4-2q-3-2 0-3 4-2 3 1 0 2 2-2-1-4-6 0-7 5-9 2-1-2-1 1 2 3-2 3-6 3-5 7v1q-1 1 2 2t1 2q-5 1-6 5h2l2 1q-2 1 1 1l3-1-3 2-4 6q-1 5-4 5h-5v1l1 3-2-2v-4l-3 2q-1 3-2 0l-1-3-2 2q-4 4 1 2v1q-2 2 1 5 2 5-1 6-2 3-3 0-2-3 1-1 2-1 0-3l-1-3q0-2-2-2l-1 2-4 4-2-1q-3 0 0 2 4 5-2 4l-3 2-2 1-2-1-1-1q0-2-3 1-2 1 1 2l2 1-5 1-4 2q1 2 3 1h1q1 2-1 3h-2q-4 2 1 2 3-1 1 3-1 5-3 5v-2l-2 1-3 2q-2 0-2 4l-3 4-2 1 2 2q5 5 6 2l1-2q1-1 0 0l1 2 1-2q3-3 4 0h-1l-1 4v1q0 2-2-1h-3q1 2-6-1-7-4-7-1h3v2q3 0 1 8l-1-1-4-1q-3 0 0 2v5q-2 6 2 4l1 1 1 1h2l-3 1q-5 1-5 5l-1 2-1-1q-1-6-4-7-4-1-3-4l2 1 3 1q3 1 0-2c-2-1-6-9-6-10l3 1q1 2 1-1-2-4 1-3 1 1 3-1 1-3-5-2-4 0-3-2 1-4 4-1 2 2 3-2-1-3 3-1 6 0 0-3-3 0-3-2l-2-3q-2-2 2-2l3-1a1 1 0 1 1 2 0q0 2 2 2 3 1 2-2l1-3 1 1 1 1q3 0-1-5l-1-3 1-2-1-2h-2l2-2q11 1 9-2l-2-2q-4-2 0-3 2 1 2-1l2-2h1l-6-4q-2 0-2-3 0-5-4-3h-2q-2-3-3-1l-3-1q2-4 6-3h1l2 2 4 2-3-4-3-2-2-1-3-1q-4-3-4 0l2 1v1q-3 2-4-3 2-4 8-2 6 3 5 0 0-3 2-1 3 3 1-1l-3-2-2-1q-1-5-6-6-2 1-2-1 1-4 6 0l3 1q0-3-4-4-2-1 2-2l1-2q-3-1-9 3l-3 2 1-2c4-1 8-8 4-8l-1-1-2-2v1q2 4-2 4l-2 4q2 3-1 3-3 1-2-1 0-2-3 1l-4 1q-4 0-1-1 3 0 2-2l1-2v-3l-3-2q-3-5-4-1l-2 1q-1-2-1 1c1 1-2 5-3 3l-1-2c-1-4-9-4-9 0v3q2 2-2 1-3 0-1-2v-3q-2-1 1-3l2-3q0-2 2-1a6 6 0 0 1 7 4l1-3q1-3-2-3l-3-2h-2l-3 2h-1q-3 2-4-2l-1-2-1 1v2l-3-3a33 33 0 0 1 0-19v-4l1-1h-1a1 1 0 1 1-1-2l1-2q-2-4-8 2l-3 2 7-7 1-3q0-5 4-2 4 1 1-2l-2-3q0-3-4 0-1 2-1-2 2-3-1-3l-2-1v-1a2 2 0 1 0-1-3q-7 0-3-6 4-2 0-3h-1q2-3-1-3c-2 0-8-6-8-8l2-1 1-1-2-1q-5-1-1-3 1-1-2-1l-3-1h2c2 0 7-5 5-7h-6q-6-1-1-2l3-1h-3l-2-2h2v-3q-3-4-4 1v4q2 1-2 1t-2-9q1-5-1-3c-2 0-3 12-1 16 0 4 5 5 6 2q2-4 2 1-1 6-2 3a4 4 0 0 0-7 1q0 3 1 1 2-3 5 0 7 7 2 4-2-3-5-1H1v24l1 24v1c-2 1-1 34 1 37q3 3-1 2c-1-1-1 12-1 91v92l2 2 3 2-3-1-2-1v24c0 26 0 29 5 25q2-4 7 1t2 6-4-2l-1-2q-4 1-1 4 2 3-2 2l-5-1c-2-2-1 53 2 55H3q-2-1-2 3 1 6 5 6 2-2 3 1c0 2-6 1-7-1q-1-2-1 41v43h82c82 0 83 0 84-2q1-3 3-1l3 1 2 1 61 1c47 0 60 0 59-1v-6l-2-3c-3-4-3-4 10-3l11-1h-12q-9-1-7-4l-2-5q-3-4 0-4c2 0 2-4-1-4v1h-1q-2-2 2-3l-1-1-2-3h-1l-1-1 5-1q9 0 0-1-4 0-4-3v-6l2-1h2l1 1q2-1 0-6-4-4 6-3h7l-7-1q-6 0-8-3l-3-1-1-1 1-1 1-1-4-6h2q3 1 2-2l-2-8-1-7q-3-1 4-2 2-1-1-1h-4l-6-3 3-14-1-2q-1 2 0 0c1-2 1-9-1-11v-2l1-8 2-30 3-26 1-4 4-1q10-1 3-1l-16-2c-13-1-17-1-25 3l-5 1v-2q2 0 1-2 1-4 3-1 1 3 3 0 1-2 13-2 7 1 6-2l2-2c4-1 3-6 0-6q-4-1-2-2v-6q-1-5 3-4l8 2q6 0 6 2l-1 1q-3 0 0 2 3 4 2-2v-3h11q1-2-13-2l-14-2h-5v3c1 4 0 11-2 12h-10l-30-2q-11-1-12 2c0 2 6 5 8 3h2q3-1 0 2-2 1 2 1l3 1-1 1h-5q-1-1-3 1l-2 2-2-2-5-3h-2q0-2-2 1h-1l-1-3q0-2 4-4 7-3-2-4-6-1-7 2-3 1 0 1h1l1 1 1 3q0 4-4 1l-3-2-2-2c0-2-10-2-15 0l-3-1q-4-4-5-1l3 2q4 3 0 3h-2q-2 1 1 1l-5 1-6-1 3-2 4-3v-1q-2-1-4 1-5 5-5 2-3-2-3 1l-1 2-1-1-4-3q-8-3-5-6l2 1 1-3q-2-4 1-4 2 0-1-3l-1-2 3 2q4 5 2-1-1-5 2-2l2 3v-3l-2-3-2-4q0-3-2-1-3 3-3-2c-1-4 4-13 5-12v-1q-2-3 1-3c1 1 7-3 7-5q1-2-1-2-4-2 0-3t5 3l1 2 2 2q1 2 3-1v-3l-1-1h4l-1-2-2-2q-2-1 5-6 5-4 6-3l2 2h4v1q-2 2-2 7l-2 4q-5 1 0 2l5 4 3 3-2 2q-4 5 0 6 3 0 1 1-3 3 1 2 1-2 1 1 0 5 4 0 2-3 3-2v-1h-2l-1-3q0-3 2-1 3 3 1-2c-1-2 1-8 3-7l-1 2q-1 4 2 5l2-3q0-7 2-1 3 6-1 6-2 0-2 3l2 2 2 1h9q3-1-1-2-3-2-1-3v1l2 1 3 1q2 2 3-3-1-3 1-1 3 3 1-5-1-10-3-8h-3l2-2q2-3 0-4-1 1-3-1-1-3-3 0-3 5-2-3 1-7 4-3l2 1q4 0 4 6 1 5 3 7l2 4 4 3q7 3 7 8c0 2-6 7-9 9q-3 0-3 2l9-5q2-3 1 5l1 5q4-1 1-5v-3l1-4q0-3 2-2 4 2 3-1l2-2 1-3 2-1q3 1-1-4-2-5 3-1c3 3 10 4 10 1q-1-3-4-1a4 4 0 0 1-6-6h-5q-1-2 1-3 3-2 0-5v-4q3-3 3 2v3l2-3q3-4 3 2 1 4 3 2 0-2 3-1 4 0 1-2-4-2 2-5 5-2-1-3-3 0-1 2h-1l-2-3v-2q-1-3-2-1h-1l-1-4q-3-2-1 1 0 4-4 4l-1 1q0 3-5 3-2 0 1-2l3-3 2-4 2-4q0-2 2-1l1 2q1 3 4-2 3-3 4-2 5 1 1-5-4-2-1-3v-3q-3-4-3 1 2 3-1 2h-2l2 2 2 2c-1 1-6-4-6-6l-1-1q-6 0-7-4-1-2-5-1v-1q3-3 5 0l2 1 5 2q5 5 3 0-1-3 3-1h6q-1-2-9-2l-5-1q-2 0-2-3 1-3-2-3-5-1 1-2 2-1 5 2 4 4 4 1 0-2 2-1l1-2q-1-2-3-2-4-1 0-3 3 1 0-3l-1-3q1-2-1-3-2-2 1-2l3 1q0-2-3-2l-1-2v-7l-2-2q-3 0 0-1 2-1-1-2t-3-4q0-6 2-4 3 2 2-1-2-4-5 0-3 3-2 0l2-3 1-3a1 1 0 0 0-3 0l-1 3q-3 2-1-3l1-5v-13q-4-3 0-2l3-2q1-3-3-1h-3l2-1 1-2v-6l2-5v-3l-1-3q4-9 3 4l1 3 2-30 1-30 10 1c9 1 10 1 11-1q3-3 0-3h-22q1-5 6-4h5q2-1-1-3-4 0-3-7 0-2 2-2h2l-5-2-1 3q-2 7-3-3c0-6-1-4 18-34l35-55 24-39 10-15h1c-1-1 10-20 21-38l5-11q0-3-3 0-1 5-2 0l-2-3-1-2h-1l-1 2-3 1-5 1q-1 2-1-2 2-6-1 0m80 2 2 3-1 1q-4 2-4-1t-1-1c-1 2-9 8-11 8s-11 10-8 10l1 2 2 3q3 2 2-2l1-3 1-3 1-2 1-1q1-2 2 1l1 3 1-3q1-3 2-1 4 3 4-4 1-5 3-3 3 3 2 0h3q3 1 2-3v-4l1 8q2 14 2 3 0-13-4-12h-4q-1-2-1 1m-75 4-4 5q1 2-1 2l-1 2q0 3 2 1 1-3 2-1l3 2h2c2 1 6-4 5-7q-2-3-3 2t-2-2q-1-2 3-2l4-1q-1-3-2-2h-2q-1-4-6 1m115 10-3 7q0 5-2 6-3 0 0 1 4 0 2 2 0 4 3 1h1l2-2 2-2h-2q-3 2-4-3a11 11 0 0 1 3-11zm-121 4q0 3-1 1t-3 1q-4 3-1 5l1-2q0-3 2 1l4 2c3 0 2-9-1-10q-3 0-1 2m72 5q-6 4 0 4h2l-3 4-1 3q3-1 5-4v-5q2-7-3-2m-78 4-2 2q0 3-1 1t-2 1q-2 5 2 2h2q3 5 8 0 3-6-1-6l-1 3-1 2-1-3q0-3-3-2m107 0-2 1-1-1-2 2-1 2c-1 0 1 10 3 11q1 3 3 0l4-2q4 0-2-4l-4-1-1 1-1-2 1-3 1 1 8 4 1 1 1 1v-1l1-4q2-2 1 3l3-1q5-3-1-4l-1-1h-3q-3 1-4-2t-4-1m25 5q-1 4-4 4-2 0-1 5l-1 3v3l2-1q3-2 5 1 0 3-1 1l-1 1-1 2-2 2h2l3-2q3 0 2-5l-2-2q-3 1 0-3l2-4 1-2q2-2-1-3-3-3-3 0m-140 6-2 3v4q0 2-1 1-3-3-3 8 0 4-1 1-2-3-3-1l-1 3 1 1q2-1 0 0l-2 2q-5 0-2 7 1 7-2 4t-3 2l-1 3-1-1h-1q-2 3 2 4 3 0 2 2l-1 2-2-2-2-1h-1c-2 0-4 5-3 7v1q-5 0-4 5l2 6q3 6 2-3l1-5 1 3 1 2 1-5 1-5 1 1 1 4v-4q0-3 2-4l2-3 3-2 2-3 3-4 2-4 2-2 1-3 3-5 2-4 2-3a7 7 0 0 0 0-10l-2-4zm117 6q1 2-2 2-3 1-1 4l2 7q1 10 7 4l3-1q4 1 1 2v1l2-1 2-2q2 0 2-3 1-6-1-3v1h1-3v-2l1-2h-3q1-1-1-1t-1-1h-2q-6 5-4 0 3-2-1-5-3-3-2 0m8 27-4 8q-1 5 2 3 3-1 3 2l2 2v-1l-1-5-1-5zq2-3-1-1m3 24-2 10q-2 9 1 7v4q3 2 3-1 0-4 2-4 4 1 2 2-2 3 0 4l3-2q0-3 2-2l2-3q3-5 3-1 0 5 1 0c1-2 0-9-1-9l-1 2q1 4-1 2-1-2-2 1-2 4-4 3l1-2 1-3 1-2-2 2q-4 5-4-1 2-4-1-4l-2-1h2q3 1 2-2l-1-3q0-3-2-3-4-1-3 6m26-2-3 1v3l1 5 1 3v-3l1-2q4-1 4-6t-4-1m-106 4-3 5 1 2q3 3 2 0 0-3 3-1h3q2 0-1 5-2 3 1 1h2q3 2 4-2 0-4 3 0 1 2 1-1l-1-3-2-2q-1-2-7-1h-1l-1 1h-1v-5q1-8-3 1m-84 2q-5 7-1 6l1 3 1 4q2 2 1-7v-5l1 4q2 7 3-3-1-11-6-2m142 9q-3 4 1 6l3 3q1 4 2 0 0-7 2-3 4 3 1-4-3-6-6 0-1 4-1 1 1-5-2-3m-154 10v4l2 6q1 5 2 0c2-6-2-13-4-10m-2 5v5q0 5-1 3-2-5-3-2v3l1 3h-1l-1-2q-3 1-2 4l1 2q0 3-2 1-2-4-2 1 0 3-2 3l-1 4q0 4-1 2l-2-2-1 4 1 5q1 5 2 3l1-5q-2-3 1-1 3 1 2-3v-4l1 2q1 3 2 1l2-4 1-5q1-6 2-1 0 3 1 0l1-4q-1-2 1-2c2 1 2 1 1-10q-1-3-2-1m-20 34v4l-1-2h-1q-2 1 1 9 2 3 1-3 0-3 1-1 2 3 2-5 1-7-2-6zm215 54q0 4-3 1-2-3-2 0l-1 5q-5 8 0 6l1-5q0-5 3-1h1l2-2 1-3q0-5-2-1m-47 17-4 1q-5 0-5 2-2 3 1 1 3 0 2 2c-1 4 6 4 10 0q4-3 2-5-4-3-6-1m-199 4-2 2h3q8 1 2 5l-4 1q0-2-5 7l-1 10v21l-1 4v4l2 1 2-1a3 3 0 1 1 4 1q-1 4-4 1l-3-1 1 3 1 4-2 1h2q5-2 0 6l-1 3 2 1 2 1-1-2v-5l1 2 3 2q4-1 1-2v-2q3-2 2 1l1 1 1-2q0-2 2-3 3 0 1-3 1-6-5-1-8 4-3 0 3-2 1-3-4-2 3-3l2-1q-1-2 1-2 3-1 1-2v-2q3-4-2-6l-4-1q-3-3-6-2l1 1q6 3 2 2-4 0-4-3-1-3 2-2a2 2 0 1 0 1-3q-2 1-2-1-2-5 1-4h1q-4-4 2-3 6 2 2-2-2-3 1-1l3 2 3 2 1 2 1 1 1-3c-2-1-2-9-1-10v-4l-1-2-1 3v1l-1-3q0-3 2-3l1-1-2-1-2-1v-2l1 1h1q2-1-4-5-3-3-6 1m16 0v26l1-5v-20q-1-4-1-1m-47 62q-3 4-4 1l-1-1-1 2q0 3 2 2l5 3q1 3 3 1v-1a1 1 0 0 1 0-3l3-1q2-2-1-2l-4 1-1 1v-2q3-1 1-2-3-2-2 1m-65 29v4q-1 3 1 4l2 1q2-3 5 0l-1 1-1 3q1 5 4-1v-4l-1-4q0-3-1 0t-4 1q-5-2-1-3 2-2-2-3zm282 10q-2 3 1 3 2 1-1 2h-3c-2-2-5 2-2 4q2 2 1 3-2 2 1 1l1-4q2-5 4-1 0 3 3 0 3-2 1-3l-1-3q1-4-1 0-2 3-2-2 1-6-2 0m-292 4q-2 3 2 5 3 1 0 3h-4l-3 1q-1-1 1-2l2-2-1-2q-1-1-3 2-1 5-3 3t-5 1h4l2 1 3 3q3 5-1 1h-3q-2 2 6 3 5-1 2-5l-2-1 3 1q2 3 5 1t5-1c3 1 2-3 0-4q-2-1-1-3l-2-1h-3l1-1 3-2h2l2 2-2-2q-6-5-6-2l-2 4v-1l1-4-1-1zm34 10 1 3v2q0 3 2 3 1 2 1-1-2-3 1-3l5-1-4-1q-3 0-1-1 1-2-2-2zm292 15-2 1q0 2-3 2-4 2-4 4-2 6 2 1l2-1q2 4 5 1l1-3-2 1q-1 4-2 1 2-6 5-6 5-1 2-2zm-406 9-2 2q-3 1-1 4 1 3 4 1l3-1-1 1q-6 2-1 3 2 1 5-2 4-5 0-4l-5-3q-2-3-2-1m195 0q0 3 5 5l1 3-1 2-1 3q0 5 2 2l1-2 3-5 2-3-1 1q-2 3-3-1l-3-2-3-2q-1-3-2-1m181 1v7l-1 10q1 2-6 5l-6 2-1 9c0 10 0 10 2 10q4-1 1 2h-2q-3 0-2 4l1 5v3l-1 8q1 5-4 5l-3 1v-10q0-11-1-9l-1 6c1 5 1 5-12 4-10 0-10 0-12-3q-4-6 0 1l1 4h22c2 0 1 6 0 10q-4 7 0 3a11 11 0 0 1 9-5q3-1 2 2 0 3 5 1 1-1 3 1 2 3-3 1-3-2-1 3l3 3 1 1q1 2 2 0v-4q0-3 1-1l4 2q3 1 1-2h-3v-1l2-3h-1l-2 1v-2l1-2v-1l1-6v-5q0-9-2-5l-2 1v-2q2-2 1-3l-2 1q-2 4-3-2-2-4 2-5 4-3 4 3l1 3q4 1 1-5-3-3-1-4l1-4 1-2v-34h3q9-1-1-3-4 0-3 1m-56 1-2 1q-5 2 3 3l20 1h17q2-1-4-1l-20-1a23 23 0 0 1-14-3m-7 11-2 1-3 1q-2 1 2 1 3 3 0 4l-2 1 2 1 6 1v4q-2 1 1 1l2 1-1 1-1 1 2 1q3 1 1-4l-1-3-1-1v-2c0-3-3-10-5-10zm-235 13-3 3 2 1h11l-2-2-4-2h-2l2-1 2-1q-1-3-6 2m-44 1 1 4q3 3 0 3-3 3 1 5l3 1q-3-2 0-3l4-1a1 1 0 1 0-2-2q-1 5-3-3-4-6-4-4m23 10-6 2-3 4q-9 6-9 4l-3 2q-6 7 16-6 12-8 8-8zm262-1q-2 1 1 2l-1 1-3 1h2q6 3 5 8l1 1v2h-4q-6-2-9 1h2l2 1 2 2 2-1v-1q4 0 4 2a2 2 0 1 0 3-2l-3-12-1-3q1-4-3-2m-177 8q0 6 3 7l7-7-2 1h-2q0-3-1-1-2 2-3-1-1-2-2 1m140 1-3 9a7 7 0 0 1-6 7l4 1 7-2v-3c3-7 0-18-2-12m126 5v6l1 2v5l1 3 1-3v-6l-1-3-1-3zl1 1h2l1-2q-3-2-5 1m-358 8q1 3-2 4l-2 3h-3q-1-1 0 0v4q-2 4 3 2 2-1 2-3 0-5 3-1 3 2 2-1v-3l2-2v-2q-1-3-2-1-1 3-1 0-2-4-2 0m259 11q-3 1 0 1a3 3 0 0 1 4 3v2l2 2q3 0 1-1-3-5 0-5 1-1 0 0 1 4 3 4v-4l1-1c0-1-8-2-11-1m-268 6q-6 2-2 2 3 0 5 3 1 5 8 2 4-2 2-2-2-1-1-3 0-3-1-1h-3q-2-2-3-1zm131 2 4 2 12 1c1 1 0 7-1 8q-2 2 6 0l3-3h-4l-2 1 1-2 1-3 1-2 1 2 1 1 1-4q0-4-1-3c0 2-12 3-13 1l-6-1q-7-2-4 2m-111 1-3 3-4 5q0 3-2 3v1c0 1 8-6 8-8 0-3 6 0 7 3q6 12 12 9h2q2 3 1-4l1-5 2 2q0 3 2 1c1-2 2-7 0-7l-3 2q-3 2-2-1 0-5-3-2l1 3v1l-1 2-2 6-4-9-3-1q-3 1-3-2l-1-1-2-1zm250 1 4 1q3 0 2 1-3 5 3 5h6q-2-2 1-1l3-1h5l3-1-3-1h-10l2-1 3-2zm-137 4q2 3-1 1-2-1-6 1-5 4-1 3l10-1 10-1-3-1-7-1zm-131 3-5 1q-4-1-3 3l1 3q0 2-2-1-2-5-3 0 1 5-1 3-1-2-1 1t4 3a7 7 0 0 0 6-10l6 3q1 1 3-2 4-2 2-4l-2-1zm189 3 2 2q1 3-3 1l-3 1 2 6c1 6 6 7 6 3l1-3v-10a3 3 0 0 0-5 0m13 2q1 3-2 2-5-1-2 7l2 5h2l1-1 1-7q3-9-1-8-3 0-1 2m37 4-8 3v5c0 7 0 7 9 4l7-2 1-6c0-7 0-7-9-4m-99 1-1 1 3 2c1 3 5 4 4 1q-1-3 4-1h5l-4-2-7-1q-4 0-2-1l1-1zm174 4q-1-4-2 0l1 2 2 2q2 3-1 2l-2 1h2c2 0 8-6 7-7q-1-2-2 1l-1 1q-2 0-1-3 0-6-2 0m-75 0q-8 3-5 4 2 0-1 2v2l5-2 2-2q0-4 3-3v2l-2 1 2 1 2-1 1-3q2-4-7-1m-176 1-2 5q-1 4-3 2-2-3 1-2v-2q-1-2-3-1h-1l-1 1q-1 2-3 1l-1 1 3 1 5 2q3 3 3 1 0-4 3 0t3 1l-2-4q-5-2 0-3 2 1 3-2l1-2h-3q-2-1-3 1m70 2 4 1 3 2q0 8 1 3 1-3 3-1 5 1 2-1-2-1-1-3l-2-1-6-1zm182 22q0 7 2 4 3 0 1 1l-1 2-1 3-1 3h3l-1 2-1 11q0 12 1 8 1-3 2-1t3-2l3-1q1 2 1-1l2-2v-3q-3-8-3-2 0 5-4 4l-1 2-1-2q-1-8 1-8l3-5q3-8 0-6l-1 1-1 4-1-4q1-8-2-9l-2-2q-1-1-1 3m-397 5v3l5 1q4 3 6 1 4-4-2-3l-4-1zm368 9q7 2 2 6v2l2 3h1v-4l1-2q-1-3 3-2t6-2l2-2h-11zm17 6-3 1q-2-1-2 2l1 2q3-3 3 2v2l1-4q-1-3 1-3 4 1 1 16-2 7 1 4 5 0 2-2l-1-10q2-15-4-10m-19 7-1 4 1 4q0 2 1 1l1-4q-1-6 2-3t1-1q-1-7-5-1m-19 3c0 21-4 63-5 65q-2 1 4 1l38-1q5 1 3-2l-2-2q-3 1-2-2 3-3-1-5l-2 1q1 3-3 1h-5q-1 2 0 0l-1-2h-2l-2-2q-1-1-1 3t2 5-1 1h-3v-30l3-1h3l-3-1q-6-1-1-4 4-5-1-3-3 4-3 25l-2 13q1 4-3 3-4 0-4-12-1-11-2-1l-1 3-1-12-2-44zm58 5-2 1h-2l1 1-1 7h3v-3q-2-4 1-2 4 2 5-1 1-4-2-1h-1l-1-2zm6 10-2 1q0-2-4 1-2 3-1 4-1 3-2 1-4-5-5 2 0 8 2 9 2 0-1-7l1-2 2 3q1 4 2 1l1-1q3-1 3-5l2-2 4-3q1-3 2 0h1q1-5-5-2m-30 0a1 1 0 1 0 1 1l2 1q3 2 0 5-2 2 1 4c4 3 6-1 3-4l-1-2q0-6-6-5m-72 16q-2 0-2 3 0 5 2 2v13l1 14q3-1 4-19v-12q1-3-5-1m72 2c-1 5 2 13 4 9v-4l-2-2q0-2 2 1 1 2 1-1v-4q3-2-1-2-3 0-4 3m68 1-1 1q0 4-1 3l-1 2v2c-6-3-5 10 1 18l2 2 1-2q2-2-1-3-2 0-2-3-1-5 2-1 1 5 3 0a3 3 0 0 1 4-2q4-1 1-2l-3-5q-2-6-2-2 1 4-2 2-3 0 0-4 2-7 3-3l2 1c1-2-4-5-6-4m-80 12q-4 2-3 4 2 1 3-2 1-2 1 1-1 5 2 0 1-3 3-2 3 0 1 1-2 0-2 3t1 2h4q4 1 3-3v-2l2 1v-2h-4l-2-1zm85 8-2 4-1 6v3l1 3a3 3 0 1 0 4-3c-1 1-5-2-4-3h4l3-1-4-3-1-1q-1-1 1-3a2 2 0 1 0-1-2m20 8-1 4-2 1h-5l-4 1-2 4q4 3 9 1h3l3 1 8 1q8 1 6-4-1-4-1-1-1 4-2-3 0-2-1-1l-2-1-2-1-2-3-2-2q-5-2-3 3m-69 0-1 4q0 7-2 6v-1q3-1-1-2l-2 2q-1 3-5 2l-4-2q-5 0-4 4 1 3-6 3-10 4 3 3l25-1 18 1v-4l-2-4-1-2a2 2 0 0 0-4-1q0 2-2 1l-3 1c0 2-5 2-6 0l1-2q2-2 2-5h-3q0-4-3-3m40 4-1 2-1-1-1-1c-1 1 0 6 2 7q1 2 1-1t1-1l1 2 3 1 2-1-2-2q-2 0-1-3 1-2-2-4-3-3-2 2m-56-1q0 2-3 2a8 8 0 0 1-9-1v1l-3 1h-20l25 2a15 15 0 0 0 13-3l1-1-2-2zm-144 14c-3 2-4 2-4 9l-1 10q-6 15 0 13 7 1 6-13-1-7 1-11l2-11zm-184 1q0 2 3 2 5 2 1 3-1 1 4 1 9 0 5-4-4-2-3 1 0 3-4-1-5-5-6-2m331 2q-1 1 7 1l8 1c-1 1 6 2 10 1l4-3zm-31 3c-12 0-34 3-34 4l21-1c4-1 21-1 29 1q6-1 2-3c-3-1-12-2-18-1m115 3q-9 4-1 4 4 1 5-2l3-3v1l2 1v1l-1 2q5-2 5-5c-1-2-10-1-13 1m-83 3c-1 1 4 2 6 1l1 1q-1 2 1 2l1 1-1 1q-3-1-4 4l1 3v-3l3-2v1l-1 1 3 1q3 1 2-3v-2h12l13 1 1-3v-4zm80 9q4 3 0 3-4 1-2 2l1 4q-2 3 7 2l7-1-1-1-2-2 2-1 2 1 1 2 1 1v-3l-1-3h-4q-4-2-3 1v3h-1q-1-8-4-8zm-24 20-1 14c-3 12-2 12 1 12h2v-15l-1-16zm-13-3c-4 0-4 1 0 18l3 10v-29zm-134 4 1 4h1q1-2 1 10c-1 11 0 11 2 11s2-1 3-11c1-19 1-17-4-17h-4zm85 2q-2-1-2 12v11h7v-11c1-14 1-14-5-12m21 11v12h21v-11l1-12h-11l-10-1z" mask="url(#16282281824-posters-1720119797893-radial-mask)" itemprop="regular" fill-opacity="0.90" fill-rule="evenodd" stroke="none" fill="url(#16282281824-posters-1720119797893-horizontal-regular)"></path><!----><path id="16282281824-posters-1720119797893-medium" d="M502 12h-3l-2 1-3 1q-4 0-5 5l-2-1q-2-3-2-1v2l1 2 1 2a2 2 0 1 1-2 0q0-3-1-1l-2 3h-3q-4 0-4 4l1-1h2l2 1h2c3 2-2 6-5 4q-3-1-2 2 3 3 5 0 2-2 4 1 3 5 2-1-1-5 3-5 8-2 1 7l-2 12-2 5c-2 2-2 8 0 7l2 1q-1 2-3 2a4 4 0 0 0-4 4q4-1 4 3-2 5-5 3l-4 1 1 1q12 2 10-6v-3l1-1q-1-3 2-1v2l-2 2h7c0-2 4-1 4 0l-1 1-3 1q-2 2-4 1l-2 2-1 2v1h3q2 2 0 3l-3 2q-2 1 1 1 3-2 1 2-1 3-3 2v1l-1 2-1-1-1-2-1 1-1 1-1-4q1-4-1-5v3q1 5-2 7-5 3-3 8 3 2 2-1 1-4 4 0v7q1 2 1-1l2-2 2-3q1-10 4-9 2 1 2-2l1-3 1 1v2l1-1h1l-1 4q-1 4 2 0 1-2 1 1a2 2 0 1 0 4 0q0-2 1-1 4 3-5 4-3 2-4 6l-2 2v2h1l3-2q2-2 1-3l1-2 1 5q0 9 3 14l-1 2-3-4-1-2-2 3-2 2h3q4 1 2 3h-4l1 2c4 2 2 8-2 7l-3 1v-4l-1-5-1 3c1 3-1 9-3 9v-5q-3-3-2 1l-2 4q-3 3-1 4l1-3q1-3 2-1v4l1 5q4 3 1 7l-2 2 2 1q4 2 0 2l-3-1-5-5-1 1q-2-1 1-3 2-1 3 1a2 2 0 1 0 2-1l-1-2q0-3-2-3-4-1-4-5h-3v2l2 1 1 2q-1 2 1 1 3 0 1 1l-5 1q-4-1-2 1l1 4q0 3 2 2 4-1 1 2h-2q-1-2-1 1l-1 2q-2 1-1-5-1-12-6-8l-3 1q-2 0-1 1h2l2 1-3 1-4 1 2 1q6-2 4 4-1 4-2 3-3-1-3 2t-1 0l-1-3-2-3c-2-2-2-8 1-7q1 1 0 0c0-2-7-3-7-2l2 2 2 2-2 2q-4 4-1 4l2 2 1 2 1 6v4l-1-2v-2q0-2-4-4l-5-4h-3q-5 5-6 1 0-3-1-1-1 5 5 6 4 2 2-1 0-4 2-2l1 6q-1 11-3 6v-4q-3-1-3 2v6l1 3v-2h4v4l1-1h2l2-1v-1l-2-1q1-4 3-2 0 2 2-1 1-2 1 4-2 7 1 3 3-2 1-2-4 0 0-3l2-2 7-6 1 2 1 1 1-4 1-2 1 1v3q-1 7-3 4-2-2-2 1l2 4q4 3-1 3-4 1-4-2h-1q-2 3 2 4l-1 3q-4 8-1 9 2-1 2 2l-1 2-2 1 2 1q2-1 2 16c0 5-6 15-10 15l-2 3v3q4 0 4 5-1 5-3 0-1-3-1 0l1 4v1l3-1a4 4 0 0 0 2-6l-1-2-1-1v-2l-1-2a3 3 0 1 1 5 3l-2 1 1 1q3-1 4-5l1-1 1 4-1 4-3 2-4 5q-3 6 1 4 1-2 1 2v5l-1-1q-1-4-2 0l-2 2h-1l-2 3-1 2 2 2q1 5-3 6l-1 1 3-1q8-3 2 2l-2 3 2 3q3 3 2 7v2l2-5 1-5q5-2 1 2-2 2 1 3v2q-2 0 1 3 1 3 2 2v-4l2-8q-1-9 3-8l2 2-2 5h-1v4l1 3 1 2v7l1 3v-3q1-4 2 0 0 3 2 2 2 0 2 5l3 5q4 1 1 2l-1 4q1 3-2 3v4h-4l-2 1-4 2q-3 0-3 3l-2 3h1q3-1 4 2l2 2q3 0 1 3h-2q-4-2-4 1l1 1q1-1 1 1l-2 2q-2 0-2 2-4 4-10 1-4-2-3 1 0 2 3 1t1 3q-2 5 1 6v-2c-2-1 1-6 4-7q4 1 0 2l-2 1 2 2q3 6-1 5v1q4 2 5-7 0-6 2-5l5-5q1-1 1 3 0 5-2 4-1-2 0 0v6l-1 4v1l-1 2h-2q-3-1-3 2l1 1q4 2-2 5-5 1-3 7t1 0q-1-5 4-5 4-2 5 1 0 3 2 1 2-1-2-4-3-3-1-4l1-2q0-2 3-2 5 2 0 3-2 0-1 2 0 2 2 1 4 1 1 2v1l3-1 1-1c1 1 2-3 2-4v-1q3 0 0 6l-3 4q-8 1-3 7l1 3q1 3 4-1 0-4 3-3 2 0 1-1l1-1q2 0 1 3l-3 1c-2 0-2 7 0 8q3 2 1-2-1-3 3-1v-2q0-4 1-2c2 2 1 11-1 10q-2-1-2 3-2 8-5 6-1-1 1-4 5-9-3-7-5 1-2 4 3 2-2 2-3 0-3-2l-3-1q-5 3-6 7 1 4-2 1l-2-1q-2 1-3-1-3-4-3 0h-1q0-6 3-4h2q0-3 3-2t2-2-2 0l-2-1c-2-2-3-2-11-1h-8v15l1 14q2 0 2 3 1 3 3 1l-1 2q-1 3-3 2-5 0-4 5l1 3 1-3q0-4 4 0 5 3 9-3l2-1q3 0-1-1-5-2-2-2l3-2q4-2 3 1l2 4h1q-1-4 3-1l2 2 2-2q3-5-2-3l-2-1q-3-2 1-2 11 0 5 6l-1 4c1 2 5-6 4-8q1-3 5 3l3 3c1-1 7 5 7 6l-1 1-1-1-1-2-2-2-2-1-3-1q-1-2-1 1l1 2q2 3-1 4l-2-3-2-1 2 4q2 3 4 0 3-1 1 3v3l-1 1h-3q-2 3-2-2l-2-4q-3-2 0 1 2 5 1 14l2 1q5-1 0 4-3 2 0 3 1 4-2 2l-2 1q-1 3-3 1v-2l1-2 1-1 1-2-1-2-1-2 2-4-1-2-2-2h1q4 0 1-3l-2-3-1-1v-2q4-3-1-4l-3 1c2 2-2 2-4 0q-1-2-1 1l1 2v1q-1 3-3-1l-1-2c-2 0-2 5 0 5q2 2-1 3h-2q-1 3-3 1l-2-2-4-3q-5-4-3 3v3l-1 6q3 5 3 1a1 1 0 1 1 2-1l2 1 1 1 1 1 1 2-1 1-1 1h1q2-1 1 2l-1 3v3l1 2 1 2q3 0 2-2v-3q3-1 2 2 0 3 4 2 2 0 2-3a2 2 0 1 1 4-1v3q3 2-1 1-3-1-1 2 0 6-6 5h-3v-1q1-4-2-2-2 2-3 1l-1 1-1 1v-4q1-8-5-3h-6q-1-1 0 0l-2 3-1 10q-1 12 3 7a3 3 0 0 1 4-2v-1q3-3-2-4c-3-1-4-9-1-7q3 0 1-1-2-3 1-3 3 2-1 6-2 0 2 4 6 5 6-1l1-2 2 1q-3 7-1 7c2 0 7 2 7 4h-4c-1-2-7-1-6 1h-2q-4-3-4-1 2 5 5 6h2q-1 4-3 4l-1 1q-1 3-1 0 0-4-1-2c-2 2-3-2-1-4v-1q-2 2-2-1 2-3-1-1v3q1 5-3 6l-2 1q0 2 5 1 2 0 2 3l1 3 1-2 3-3h1q2-5 5-6l4-3q3-4 5-2h2l2 1q2 3-2 2h-3l2 2q3 2 0 4c-2 3-7-1-5-3v-1q-3 2-2 6l2 1h1q1 1-1 1l-4-2-2-2q-2 1 1 4v1h-3q-3-2-4 1c0 2-4 4-4 2q-1-1-4 2l-5 3c-2 0-3 5-2 7q1 2 1-1 0-6 7-4 4 0 2-1-1-3 2-1 4 3 0 5h-3l-3 4q-2 3-2 0 1-4-2 1v6h-1q-3-1-3 3a3 3 0 1 0 6-1q0-6 2 1l2 3v2l-2 3q-1 2-2 1l-4 2q-3 2-1 2l2-1q1-2 3 1 0 3 1 1 1-4 4 0 2 3-3 5-3 1-5 4-3 2-4 1-3-2 0 2l1 2 3-3 5-4h3q3 0 2-1-1-4 2 1 3 2 0 5v5c1 2 3-7 3-11l1-5h1v4q2 1-3 13-2 4-3 1 0-2-3-2-5 0-5 4l-1 1h-5l-1-3q-3-2 0 3 2 6-1 6-2-1-2-9-3-6-4-5l-1 2-2 3-1 3-1 1v3q-1 2 0 0 3-1 2 3l-1 2q-2-1-3 3l-2 4c-1 1-4-7-4-10v-3l-1 1v5q-1 4 1 5l1 1c0 2 5 5 5 4 1-2 6 0 6 2q1 3-3 3l-1 3q0 4 2 4l3 4 1 3 2-2q5-3 2 2-3 2-1 6 2 2 2-1l1-2 1-4q0-8 2-3-1 3 2-1l1-4h1l1-1v-2q-1-4 2-5 3 1 1-2l-1-2 3 1v10l-1 5-1-1q-1-2-2 1v2l3 2q2 2 2-1 0-2 1-1v2q1 4 4 2l-1-1-1-2 2 1 2 3 2 1v-1l1-2 1 2v4h-1v1a10 10 0 0 1 0 13l-35 1q-5 0-5 2 0 3 2 1h23c20 0 21 0 21-2l2-2q2 1 1-1-2-4-4-3v-2h2v-5h-1l-2 1 1-9v-3l1-1q3 2 1 3a4 4 0 0 0 5 6l-1-1v-6c0-1 4 3 3 4 0 2 6 8 7 7l-1-2-2-2-2-4v-5l-5-9q1-2 4 2l2 5 1 3 2 3v-6l2 2q3 1 3 5l1 3q3 0 1-3l-1-7q-1 3-3-1l-2-2-1-2-1-2-1-5q1-6-2-4-4-1-2-3v-2h-2l-1 1q-1 6-3-3-1-6-3-4h-1l-3-2q-3-1-2-3 1-3 2-1l2 3q3 3 2 0 1-4 4 3 1 1 1-3l-2-6v-4l4 8h1q3-1 3 2l-2 1q-4 1-3 5l3 1 3 2q2 2 2-3 0-7 3-6l-1 2v3q3 3 2 0l2-3q6 0 5 6v2l1 3v3l2 1 1 1h2q7-2 7 1 1 3-2 2t-1 1q4 2 5-2-1-4 3-1v2q-2 2-1 3c1 3-6 2-9-1q-2-3-5-2-3 0 0 1 2 2-1 3-5 3 0 3l3 4q0 4 6 1 4-1 1-2-6-3 8-4a8 8 0 0 1 8 4v2l3 1a9 9 0 0 1 5 10l-4 1-5 2q-5 1 1 1l6-1q2-2 3 1 3 3-3 3l-8-1-7-2h-4c-2 2-20 2-21 0l-1-2v4q2 3-1 2l-2-2h-6q-5-2-3 2 0 3 3 4 4 2 2-1l1-2 1 1q0 3 3 1l3 1 4 1q3 0 2 2v5q-2 4-2 1v-2c-2-1-20 1-21 3l-13 1h-12v4l1 5h10l20 1h11l4-4c4-3 13-7 14-5l-1 5q-1 5 1 3h3q4 2 2-1v-3l1-1-4-1-1-2c0-2 9-1 11 2l3 2c1-1 8 1 8 3l3 1h4l2 2h-2q-5 0-1 2v5l-2-2c0-2-3-6-3-4q-1 4-2 0 0-3-2-3-3 0-1 1 3 3-1 4l-2 2h-1c-2-3-18-4-18-2l1 1q1-1 0 0l-1 1-1 1 1 1q3 0 3 18v12h6q6 1 5-2 0-3 2-2t2-3 1 1q-1 8 4 6 4 1 4-2l2-21v-2l2 1q4 5 0 6v1l1 2v2l1 3v2c3-2 3-10 3-41l-1-29q-4 8-7 0 0-8 5-5 1 2 1-1 1-1-1-3-3 0-1-2l-1-2-2-1q1-3 2-1l3 1c2 1 2 0 2-25l-1-25V437l1-35c0-26 0-34-1-33l-1 4q0 6-4 1-3-6-2-1l1 2 2 3q1 3 3 2l1 1q0 4-5 0l-3-2v9l-1 4 1 5-1-3-2-6q-1-5-4-3h-5q-3 2-1-1 3-1 1-3-1-2-1 1l-2 2-1-1c2-2-2-8-5-9q-3-1-1-3t3 1c0 2 5 7 7 7l1-2 3-1q3 2 2-1l1-2q5 1 2-2l-2-3h2q2 4 3-2 2-7-2-3-2 3-3 2a8 8 0 0 1 7-7l2-1q3 0 2-3 0-4 1-1v10l-1-2q-1-4-3 1l-1 5v3q3 0 2-2l2-2 3-1v-37l-1-39c1-3 1-17-1-17s-1-7 0-7c2-1 2-4 1-19v-58l-2 7-2 7c-3 2-5 10-3 10l1-1 1-4 3-1 1 2q0 3-1 1l-3 2q-2 2 2 2 4 1-1 7-4 4-2 1l2-4q2-2-1-2c-4 0-6-12-3-16v-4q-3-1-1-3v-3q0-3 2 2 3 6 4 3v-5l-1-2 3-1 2-2h-2l-1-1 1-1c1-1 2-6 0-6l-1 2q-1 3-3-1l1-2h4l1-3q0-3-1-1h-3q-3 3-4 0v-3q2 1 1-1l-2-1q-3 1-1-2 1-3-2-4-5-2 0-5 2 0 1-2v-3q2-4-1-3-2-1 1-2 2 1 3 8-1 7 2 7l1 1-1 1-2-1q-1 3 1 4l1-1h2q6 0 1-6-2-5 1-4 1 2 1-9a19 19 0 0 0-3-15h3l-1-2c-1-1-2-5 0-4v-5c2-2 1-14 0-14q-3 0 0-4c2-4 2-20-1-22v-3c2-1 3-7 1-7l-1-4v-3q3 2 2-2 0-3-1-2 0 4-3 0-4-3-4 1l-2 3v2q0 3-1 1-3-1-2-8l-1-7q0-3-3-1-1 2-2-1l-2-2-1-1q1-4 4 0 1 3 3 2v-4l1-2 1-1v4l1 4 1-3v-4q4-1 2 2l1 3 2 3q1 2 2-1c1-3 0-10-2-10q-2 0-1-7 0-3 2-3t2-2q1-4 2 0l-1 2c-1 0-2 9-1 10l2 6q1 8 1-13l-1-17-2-1q-1-2-7-1m-52 9 1 2v2l-1 3-4 2q-7 1-7 4 1 3 3-1l1-2q3 1 1 7-1 4 1 3h3v-2c-3-2-2-7 0-6l2 2h1l3-4q4-5 1-6-2 0-2-3-2-5-3-1m40 3q-3 6 0 3 4-1 5 6-1 4 2 0 1-3 1-1l2 4 2 3v-4q-1-6-4-5l-1-1q0-2 3-2l2-1h-5q-4 0-5-3l-1-2zm-47 22q-1 7-4 4l-2-1 2 3 2 4q0 3 2-1 2-6 2 1v2q3-4 1-10-2-5-3-2m50 8-3 1q-2 0 0 2l1 3 1 3a6 6 0 0 0 4-7l-2-1 2-1 1-1c0-2-4-1-4 1m-20 19q0 2-3 2-6 0-5 4h6l-3 2q-3 6-1 4 3-2 4 3 0 4-2 0-2-3-1 2t4 1V78zm-9 21v5l-1 4-1-3-2-5q-2 0-1 4 3 6-1 11l-3 4c-1 3 4 0 6-4q0-3 2-3 2 1-1 4l-1 3 3-3 2-1 1 1V99l-1-1-1-3q0-3-1-1m-39 9-3 1c-1 0-3 5-2 6l1-2 1-2q2-1 2 5l1 3 1-3q-1-6 3-3l1-3q-1-6-5-2m37 24 2 2c3 2 4 8 2 7q-4 0 0 3t3 0l2-4q5-7-3-7l-4-1zm-25 17-1 3v4l-3 1 1 1h2q2 2 3-1 0-3 1-1h2q2-2-1-3zq-1-3-1 0m49 12 1 5q3 4 0 5v7a8 8 0 0 1 0 10l-1 3v-2l-1-2q-2-2-2 2 2 3-1 5l-3 4-1 1q-1-1-1 1l3 1q3-1 2 1l2 5q3 4 1 4l-1-2-3-2q-4 0 0 3 6 2 1 4-6 2 0 3h4l-3 3q-4 3 0 4l-2 2q-3 0-3 2v6q-3 6 0 7 2 5-2 7l-2 1-1 3 2-1 3-2q1 1 1-1 1-4 3-3l1-1 2-1-1-2-2-3h1l3 1q5-1 3 2v3l3-4q1-6 4-2 1 3 2 0 2-4-3-4-4 2-5-1l2-1h1l2-2h1l1 1-1-3v-3q2-1 1-4 0-3 1-1l2-1q0-3-4-1l-2 5-3 4-1 2v1l-2-3-1-3q-2-1 1-3v-4l-2-1h5c2-2 3-6 1-4q-3 2-5-4 0-3 3-4l3-3 1-2v4q3-2 2-6l-1-2-3 3-4 4-1-5v-6l2-2 1-2c2-2 3-10 2-11l-1 1q-2 4-1-6 0-7 1-5 4 1 4-2l-3-1q-3 1-3-1-2-3-3-1m-18 14-1 5q1 5-1 6-4 6 3-1 6-7 2-10zm9 11-1 1-3 3-3 2q-2-1-2 2 0 4-4 3t-3 3 3 0q0-4 4 0 4 3 4-4l1-2 1 3q0 3 2 1v-7q3-2 2 4h1q3-1 1-4l-1-5q0-4-2 0m-223 7-6 8-2 4-2 2-1 1q2 4-5 5l-5 1q-3 3-3-8v-8h-5c-9-1-9-2-10 10q0 12-3 15-3 4 0 4 16 0 15 2l-2 1-2 2q-1 4-3 1c0-1-4 5-4 8l-2 5q-2 3-2 7 1 5-2 5c-2-1-2 4 0 6q3 2 1 6-2 3 5 2 7 2 7-5l4-7q3-3 3-11l1-8h-3l-3-2h3q3 1 2-4c0-3 4-11 4-7l-1 1v4q2 7 3-3-1-11 2-11l1 2q-1 4 3 4 3 0 1 1h-3c-1 0-3 11-2 12l4-2 3-1q1 1-3 4l-2 2h2q7-2 5-8-2-3 3-3c3 1 4 9 2 9l-2 2q1 3-2 2h-2l-2 1q-4 1 4 4 3 0 3 3v6l1 4v13l1-5 1-19q2-8 3-3v22l1-9 1-30-1 7q1 8-2 7-3 1-2-4l1-7 2-4q2 0 1-4l1-2h3q2-2-1-9v-6c0-5 1-8 7-17l2-3h-13zM9 202q1 3 5 5v1q-1 3-3 1l-2-1H8l-1-3H5q0 2-2 1H1l2 2q5 3 0 5-4 3 0 3l2 1-2 1q-2 0-2 3 0 6 3 3 3-2 5 6 3 3 5 2v-2q-2-1 1-2l6-6 4-5-1-1h-6v-3l-1-1v-7q2-1-1-1l-3-1q-3-3-4-1m447 5-1 3-2 2-1 1q-2 1 1 4l4 2h1l-1-2q-2-3 0-4l1 2 1 1v-2l-2-2v-5zm11 5q-3 3 0 4v5q3-1 1 2l-2 2-1-1v-2l-1 1-1 1-1-2q1-3-2-1-2 3 2 4 3 0 3 2l3 1 2 2q0 3-1 1h-2l-1-1q-3-2-3 4l2 4 2 1q0 2-4 2-6-1-5 3v2h2q2 4 3 0-1-3 4-1 7 1 4-3c-2-2-3-8-1-8l1 1c-1 2 1 7 2 6v-3l1-6q3-7 1-5-3 2-4-5l-2-6q-2-1 1-2l2-3q-1-2-5 1m-206 10q-2 3 10 4l10-1 1-2c-1-1-20-2-21-1M5 229q1 4-2 0-2-2-2 1 1 6 5 6l1-2v-2q1-3-2-5zm14 0-5 7-2-1-3-2c-2 0-1 6 1 8q3 3-1 3-3 0-2 2l-1 2v-6l-1-3q-4-6-4 6 0 8 3 6 5 1 0 3l-3 1q0 2 7-1 3 1 1 4v2l2 3 2 2 2 1-2 1q-3 3-2 0l-4-4-1 2q-4 2-3 6 2 4-1 2-1-2-1 1l1 3v4h1l-1 2q-2 1 1 6 4 4 0 4c-2-1-2 1-2 28v28h8q3-1 3 3l-2 4-1-1q-1-4-6-4-2-1-2 8 0 8 2 6l2 1-2 1c-3-1-3 84 0 84q3 2-1 3l-1 11v11l5 3q9 5 6 5l-2-1-8-5v47c1 1 8-1 10-3q2-3 6 0 4 4-2 5h-2l2 2 2 2-2 2q-4 3-5-2a2 2 0 1 0-3 2q4 2 0 3-9-3-7 1l2 4v2c-2-1-2 1-2 20l1 21 3 1q5 0 1-3-2-1 3-1 5 2 5-1h3q4 4 4 1l-1-1q-2-1 1-1l2-1q1-2 4-1 6 0 2 4l-2 3q1 1-1 1-5 1 1 6l1 3 1 1q3 0 5-4l3-2 2 3q4 4-3 5-6-1-4 2 2 1 0 0l-2-2q-1-2-1 1 1 6 5 7 2-1 1-3h1q4 2 4 0-1-2 2-4 5-1 2-3-2-2 1-3l1 1 1 3q2 1 2-2 1-6 3-4 2 3-3 8-1 3-2 1-3-2-1 4l1 2 2-2q10-6 14-4l1 2-2-1q-1-2-1 2l2 5-6 2v1l-1 2-1-4v-2l-2 2q-3 4-3 1c2-2-4-4-6-2q-1 3-3 1l-5 1v1q2 0 2 2l-2 1q-7 0-3 6 2 1-1 2-5 1-2-1c2-1 0-7-2-7q-4 0-3-2h7l-1-1q-7-1-4-4 4-4 0-5l-2-2q-1-4-4-2h-3q-5-2 1-2l2-1q1-3-6-3l-5-2 2 3a4 4 0 0 1 1 6c0 2-6 3-9 2H2v18c-2 2-1 49 1 52q2 4-1 3-1-2-1 1l1 2h1l2 1q2 2 3 1l1 2q-2 3 3 1h5l75 1h74l1-3q-1-3 3-1l4 2 2 1h40l1-2q3-5 3 0v3h74v-4l-2-5q-3-5 1-5l3-1h-3l-2-2 2-1q3 0-1-5l-1-6-2-6-2-4-1-4q0-3 1-1t1-3l1-9 2-2 2-1-2-1q-4 0-4-7l-1-3q-1 1 0 0l2-2q3 1 1-2l-2-7-2-6v-3q2-2-2-3-4 2-3-7 1-7-2-6v-1h3q2-1 0-3c-2-1-5-10-4-13q0-2-3-2l-1-2h-3q-2-9 1-8v-1l-1-3q0-4-1-2-4 0-2-3l1 1h1l3 2q1 3 2 1c2-1-3-6-7-6q-4-1-2-2l1-2-2 1q-3 4-3 2-1-2 1-4 4-4 1-4-2 0-1 2l-2 3-1 2v4h2c2 1 8 5 8 7h-2l-2 1q-1 1-3-1-6-2-7 3 1 3-1 3-3-1-2 2-1 4-2 1h-2q-2 2-2-1 1-3-2 0-4 2-3-1-1-3 2-3l1-3-1-3q-3 1-2-3l-4-2-6-1h-3q-4 1-4-2 3-3 8 0 3 4 4 1l-1-1-2-1-1-1q-4-2-3-5l1 1 2 1q4-1-2-3t-8 1l-3 1 1-2v-4l-3 3q-1 2-2 1h-1v1l1 2q-2 3-3-1l-3-3q-2-2-2 1l1 2 1 2q-3 2-4-5 0-4 2-2l2-1-1-3q0-3-4 4-1 4-3 3l1-2v-2q-3 0-2 3 0 2-2 3l-2 2h2a1 1 0 1 1 0 2l-1 5 2-2q1-4 2 0 1 8-4 4l-3-4h-2q-3 3-4 0-2-2 1-2l-1-1q-4-5-5 1-2 6 4 6 3 0 1 1v2l-1 1-2-2-3-2v3q2 1-1 1-4-1-2-3v-1q-2-1-2 1l-5 1q-3-1-2 1l-1 3c-2 1-2-6 0-8v-3q-1-3 3-3 3 2-1-4l-3-6q2-6-2-1a10 10 0 0 0-4 9q-2-1-5 1h-3q0-4-5-5-1 2-1-1 1-4-2 0-4 4-5 1-3-2-3 1l-1 1-1-1q-2-4-3 1 1 4-2 1v-2l2-3h2l2-1 2-4 2-4q0-4-4 1l-4 2-2 2q0 3-1 1-3-1-4 1l2 1q3 1 2 3-2 0-2 3-1 2-3-2 0-3-2-3-3 0 2 5 5 7-1 6-4 0-2 1 2 3-1 1-4-1-4-5 0-3-2 0h-2l-3 4q-2 7-5 4-6-2-3-2 2 0 1-1c0-1-5 2-5 4l-2 1q-5-1-6 4-3 7 3 7l2 1-3 1q-4-2-1 1v4l-1 2 2-2h2q1 2 1-1 2-2 4 1l1 2q-3 1-4 6 0 2-1 1l-1-1c1-3-3-5-4-3q-2 2-3 1h-4l-1-1 3-1v-5q0-3 2-1 0 3 2 1l-1-2q-2-2-2-5 1-3-2-3t-1 1q1 3-2 3-2-2 1-5l2-2 2-2q2 0 1-2l1-3q2 0 2-3 0-4-2-4l-2-3v-3l1 1 2 1q3-1 4 1 2 2 3-1h3q2 2 3-2h1l1 3 2 2q3 0 1-1l1-2q2 1 2-2l-1-2-1 2h-1v-1l-1-3v-3q3-2 1-2h-1c0 2-6 4-7 3v-3l1-3c2 0 2-6 0-6l-2-2-2-2q-5-2-3-3l2-2q2 0-1-2-5-6-2-8c2 0 6 4 4 4l-2 1 2 1 2-1v-3q-1-3 3-2c4 1-3-3-9-5l-5-3-2-1q-3 0-3-3 0-4 1-2 2 2 2-1c-1-3 4-7 6-6l6-1q6-2 7 1l2 2 1-3c0-3 9-10 10-8l1 1 3 2h2q3-1 4 3c-1 1 2 7 3 7l2-5v-2q3 0 1-2a2 2 0 1 1 3 0h2v-2l-1-2c1-2 5 3 4 6q-1 7-3 3-3-5-2 4 1 5-2 5-6 1 0 5 7 3 7-1h2q3 5-3 6-7 1-2 3l2 3a1 1 0 1 0 1 0q1-3 4 2l3 3h2l1 2a1 1 0 1 0 1 2l1 2q0 2 2-1l4-3 1-2q-1-5-7-6l1 1q2 1-1 1l-4 1q-1 2-1-1 1-3-1-5-3-3 1-4l2-1q1-3-2-1h-3q-3-3 2-4 2 1 2-2l1-1q4-1 1-4v-4l1-3 1-3q2 0 1-2l-2-1v-1q0-3 2-1l2 1 1-4q1-2 2 1l1 2q3 0-1-4l-2-4q1-3-2-1c-2 1-7-2-5-3l1-4q2-4-4-3-4-1-3-5h2q1 2 3-1 4-4 4 2l1 3 2-6q-1-3 2-1 1 2 3-1l3-2v-1l1-2-1-1q-3-2-4 1-2 3-1-1 3-6 8-3l2 3c0 2 5 4 6 3q1-1-1-3-1-4 2-1 3 2 0-3-5-3 1-5l5-4q3-3 4-1l4 1a3 3 0 0 1 4 5q3 2-1 3-3 2-1-2v-4c0-1-3 6-2 8l-2 3-2 2h8l-1 1q-3-2-1 1 3 4 3 0 1-5 3-3 0 3 1 1h4q4 0-1 5-4 4-5 1-3-2-1 1l-1 2c-3 0-3 5 0 6l2 3 1 2q3-1 3-5-1-4 2-3 3 3 1-2-2-4 1-5 3-3 2-1v5h2v-3l2-4 2 7q1 4-2 3c-4 0-3 5 2 5q11 3 8-1-4-5 0-3h2v-1l1 3q1 3 2 0 2-1 1-3l1-1q2 0 2-3l-1-4v-2q1-2-2-2-5-1-1-4 3-2-1-2-3 0-3-2h-2q-3 4-2 0v-5q2-5 4-1l2 1q4 0 5 4v5c0 2 5 7 5 5l1-1 3-1q3-3 1 0l-3 3-3 2 2 1h4l-1 1h-2l1 1q3 0 7 5 1 4 1 1l1-2v-5l-1-4 1-2 2 3q3 4 1 7-3 6-1 7c1 0 5-5 4-6l2-1q4 2 2-1l-3-4v-2q2-2 3 1l4 3q2-1-1-3l-2-3h-1q-5 0-3-5 3-2 0-3c-2-2-1-7 2-7q3 0 2 2v2l1-2v-3a8 8 0 0 1 4 7h2l2-1q3 1-1-3l-2-2q4 1 4-2h-9q-4 2 0-2t4-1h2l2-2h-7l-2 1-2 1-4 3-5 1 1-1q5-1 3-6l-1-2h2l2 2 5-9v-1l3 2q1 3 4-1t4-3h2c0-2-4-7-6-7l1 2 2 3q-3 1-6-5-1-3-5-4-4 0-5-2 0-2-3-2l-3-1 3-1 4-3h3v-1l-4-2v-4h1l3 1 4 3q3 3 4 0h2v-1l-3-3q-5-1 0-3 4 0 1-4l-1-2-2-4q-3-3 0-5a3 3 0 0 0-3-6v-1a1 1 0 1 1 1-2v-1h-3l-3-1 1-1q3-1-1-4l-1-4q-1 1-3-2l-4-3 1 2 2 3 2 3v1l-3-2-1-1-2 1v-3l-2-1v-3q-1-2 1-5l1-3 1-1q2 0 2 3 1 8 4-3v-4l-4 2-6 6q-1 5-3 3l-4-2-3-2 2-4 2-5h-2q-3-1-1-2 3-3-1-4l-1 5q0 3-1 1l-2-2-3-9-1 3-2 6q-2 2 1 2l3-2-1 2q-3 4-1 6 2 0 1 3 1 4-2 2-5-1-2 6 3 4-1 4v-2q-1-4-3 0t-3-2q1-3-1-1-4 4-1 4l2 2q1 5-6 0-4-4 0-3 2 1 2-2 0-4-1-2t-1-1q-1-3 4-1h5l-4-2q-8-1-7 3 2 3-3 2-3 1-1-2l2-3-2 1q-3 4-4 1l1-1 1-1h-4c-5 1-9-7-4-10q3-3-1-2v-6l-1 1h-2l-1-3-1-2-1 2q1 3-2 1-7-2-3 1l3 2 1 2 2 2q3-1 0 3-4 4-1 3l2 2q-4 2-6-4l-2-8-3-5-1-2-1 2a1 1 0 1 1-2 1l-2 1-1 2 3 8-4-1a3 3 0 0 0-5 1l-1 2q-3 2 2 1l3 1-2 1q-4 1-6 5l2 2v-4h4l-1 1h-1l1 1q3 1 1 3-6 5-7 0l-1 1v3l2 2q-2 2-5 0-4-4-1 0 3 3 5 2l2 1-1 1q-2 1 1 2 1 1-2 1l-3-1v-1l-9-4v-1q-1-1-2 1-1 3 2 4 4 1 4 4h-4q2 4 5 1 2-4 3 0v5q2 3-1 4l-1 4q2 3-2 1h-4q-4 1-1 4 3 5 3 2 0-2 3-2l4-2q0-3 2 0 1 3-2 4l-2 4q-3 1-3-2 1-3-2-1-3 3-4 1h-3c-2 1 3 3 6 2q4 1 5 4l-1-1-3-1v4l-3-2q-1-2-4-2-2 2-2-1t-1-1l-2 1q-1-1-2 1l1 2v6q3 1 0 1l-4-2q-4-5 1-3l2-1q-1-2-4-1-4 0-6-4c0-2 4-1 4 1l2 1q0-4-5-5h-2l-2-1 1 2 1 1-1 1c-2-1-3 3-2 4l1 1-3-1q-4-8 0-8h2q-1-3-3-2l-1-2-2-3-3 3h-3l3 1q5 0 2 3v1q3 0-1 2-7 6-6 11 0 3 2 1v-2q-1-5 4-6 6 2 3 3v2l-1 1a1 1 0 1 0 1 3q2 1-3 2l-3 2 1 1h1c0 2-4 3-4 1h-1q-1 3-3 0l-3-1a7 7 0 0 0 6 8c1 1-4 3-5 1l-4-1h-3l-3-2v1q2-1 1 5t1 4q3 0 1 1l1 1q1-1 3 1 1 2 2-2l-2-1v-3a2 2 0 1 1 1-3l2 1h1l2 1q1 1-1 2-3 1 0 2l3 2q3-1 2 2l-3 1h-3q-3 3 1 3 4-1 1 2-4 1-6-3 1-2-1-2t-1 1h-2q-4-3-3 0l-1 2-1 2h6v2h-2l-3-1-4-1q0-6-4-7-4-3 0-4l1 1 1 1-1-3-2-4q-1-3-4-2-8 1-3-3 3-4 4-1l1-1q1-3 3-1l4-1q1-3-5-2l-3-1v-2c0-3-5 0-4 2q-1 4-4-1t1-3l1-1c0-3 7-1 11 3q3 2 2-3l3-1q5 1 1-2-2 0-3-3-3-4-4 0l-1 1q-2-3 3-5 3 0 3-2t3-2 1 2 1 2q4 1 2-3-1-5 2-1h3l-2-2-3-2v-2l-2-1q-3 1-3-2 0-2-3-2l-2-1 2-1 2-1q-1-4 1-5l1 1q-1 6 2 5l4 1h4q7-2 2-4-3-2-4-1-1 2-1-1-1-3 4-1l4-1 1-2c2 0-2-3-3-3l-1 2-1 2v-1l-1-4v-3q-2-6-5-3-1 3-2 1l-2-2h-3q-1-3 2-4a1 1 0 1 0-2-2q-3 2-4-4 0-2 2-2 2 1 0-3v-1l2 2 6 3-2-2q-4-2 0-3l2 3 2 3v-4l-1-3a3 3 0 0 0-6-3q1-1-1-1t-1-1q0-5-4-1c-1 2-6 0-6-3l-3 1h-9c-3 1-2-4 0-5q3-1 2-3-2-4-2 0l-1 1-2 2h-2l-2-2q0-2-3-2t-2 2h-1q-2-1-2 2 1 3-2 2l-5 2c-2 1-9 3-9 1l3-3 2-5q0-4 4-3l4-1q2-2-4-3-7 0-6-2l2-1q3 1 0-8-1-4-3 3 0 8-5 4-3-1-3-3h6v-3q3-2-1-1-3 1-2-2 0-2 3-2 4 0 4-5l1-6q1-6-2-4t-2 3q2 1-1 4v6l-4-2-1-2v-1h-4l-2-1-2-1-2 1-2 1q-2 1-2-3l1-4q1-4 8-3 5 0 3-1l-5-2q-6 0-2-3l2-2 2 3q5 5 3 0-1-3 2-2l1 3v2l2-2 4-3-1-2q-3-3-5-1l-2 1 1-1v-2q-3-2-1-2v-2q-2-2 1-2l3 2q1 4 3 3c1 0-1-5-3-5v-3h-2q-1 3-6-2-3-3-4-1m484 4q2 5-3 3-1-1 0 0l-1 3q-3 4-1 4t1-2q1-4 3 0h4q5-2 3-3l-2-1-2-4-2-2zm-270 2-1 9-2 25-3 26q1-1 1 1l1 2q3 0 1-4v-5l1-22 2-18c1-1 3-15 1-15zm-218 9-3 1-1 3-1 2-1 1q-2 1 2 4l3 4v-3l-1-4v-1q3 1 3-5zm477 3 1 1 1 2q-1 5 2 1l4-1q5-1 1-4-8-2-9 1m-456 3c-7 2-12 10-7 10l2 1q-1 2 1 1 3-1-1-4h-2l2-3 3-1c2 0 6-4 5-4zm434 2-2 4q-3 2-3 5 0 2-3 2-5 0-1-3 4-4-1-1l-3 2q2 4 5 3l1 1h2q2-1 2-4-2-3 1-4l3-3 1-1v6q-1 4 3-1v-4l-1-2-2-2zm-255 0q-3 3 2 4 8 3 9-2 2-5-1-2l-3 1q-3 0 0-1 4-1-2-1zm282 5-2 5q-2 3 1 5 3 5 0 6l-1 2v3l2-3 3-5q1-4 2 0l2 2 1 2 2 1 2-1-2-2q-4-1-3-7l-1-3v-1q3 0 1-4-2-2-2 1l-1 3v3q0 5-3 1-3-1-1-2c2-1 3-8 1-8zM18 267q-4 0 1 3 7 3 5 5a2 2 0 1 0 0 3c3 0 3-6 1-8l-5-4zm451 3-2 4v3h1l1 1h2q2-3 6-1h1a4 4 0 0 0-7-1v-4l-1-4zm-233 4 2 1 2 2 2-1q3-5 7 1 5 4 5-2c-1-3-18-4-18-1m-72 21-4 3v4q-1 3 2 3 5-1 2-5-5-3 1-3l3-2q2-3-4 0m-117 4-2 1 3 1h1l-2 1-3 1-3 3-1 3q3 0 2 2a2 2 0 1 0 2 0v-2l2 1h1l1-2c1 0 6 5 5 6l2 3c3 1 4 10 1 9v1q3 4 2 1 0-2 2-2c5 0 7-7 3-10q-4-4 0-3l3 3q3 4 4 1l-1-1-2-3 1-5-2-2q-6 1-7 3 1 1-1 1-3 0-2-1l-2-3q-5-4 2-6l3-1zm-22 14q0 3-2 2v1q1 2 3 1l3 1q4 1 5-2 1-4-1-2-3 1-7-2-1-2-1 1m404 6 2 8h1l3-2c2 0 3-4 1-4q-2-1-2 1 1 3-3 0-3-3-1-3l2-1 1-1q2-1 0-3h-3q-3-2-1 5m50 1-2 4-2 2h-2l-1 3-1 3-1 1 5-3 2-3 2-2 1 2q3 4 2-3v-5q0-4-3 1m-294-1-2 1v1q1 3 3 0 6-2 1 4l-4 3c2 3 9-2 9-7l-1-2-3-1zm300 3 1 4q2 2-1 2v3h1l1-1v3q-1 4-5 0-1-3-3 2 0 3 1 1 5-3 3 4 0 2-3 2l-3 1 2 1q5-1 0 3-3 0-3 2 2 2 6-1h1l-1 2-1 3q3 2 2-6 0-3 2-4 4-3 1-4v-1l3-1q5 0 3-4l-2-4q2-3-1-1c-1 2-3-4-1-5q2-3-1-3zm-259 2 2 2 1 2-1 1-2-1-1-1-1 2-1 4q-1 3 3 5l3 5q2 3 5 2 3-2-1-2-3 0-1-4 2-3-2-5l-2 1-1 1q-4 0 2-5 4-4 1-6-3-3-4-1m-28 2q0 5 2 3v6l1-2q1-4 5 0l1 4 1 2q1 3-1 2l-2 2-4 2-3 1 4 1h8q4 2 2-2-1-5 3-2 4 2 2-1 0-2-2-1-3 1-1-2 2-5-1-3-3 3-4 0l-1-1-2-5-5-3q-3-3-3-1m-9 2-5 4q-4 0-6 3-2 5 2 2l4-2v1a3 3 0 0 0 0 5l2-1q5 1 5-2 0-4 3-3 3 3 2-3 0-7-2-4v2q3 3-1 3-3 0-3 2t-2 1v-2c2-1 4-7 4-8zm-110 1q-1 3-6 2-8 2-5 5h-2l-3 1v1l2 1-2 1q-5 1-3 3v1l3 6 1-2q-1-3 2-4l2-3q0-4 5-2h3v8q3 1 3-2v-4q1-3-4-5-3 0 4-2h9l-2-1-2-2h-2l-1-1q1-4-2-1m353 11-1 1q-3 1-4 5l1-1q4-4 4 0-2 4 1 2 1-2 1 1l-3 4q-5 4-5 1-1-4-2 3l1 4 1-2 1-2 1 2 1 1 1 1q-1 2 1 4 3 1 1 2-3 1-1 4l-1 7q-3 5 0 4 4-1 2-2v-2q4-4 4 0c0 2 2 7 3 5h5q5 3 4 0t1-4q4-1-3-1l-5 1h-3l1-1q4-1 4-5l2-2 1-2 1-4q0-3-1-1h-4v-2l2-1-1-1v-4l-2-4-1 3q2 7-2 2c-3-3-3-9 0-9q4-1-1-3-2 0-2-3-1-5-3-1m-299 0-2 1-2 1h-3q-3-1-4 2v1l3-2q4 1 1 5v1l1-1 1-1q6-1 5-3v-1q4 1 3 4h1v-5q0-4-4-2m28 3q-2 2-1 3l-2-1q-3-5-3 1 0 4 3 5l3 4q1 6 6-2t-2-2q-3 4-4-2 0-3 4-1 5 1 2-3-2-3-6-2m10 9v3q2 2-1 1-5 2-3 5v2l1 3q2 2 1 3h3v-4q-2-3 2-2 5-1 1-3l-2-2 1-2 1 1 1-1-1-4c0-3-4-3-4 0m30-2-1 5q-1 4-2 1l-1-2-1 3 1 2 1 2q2 4 3-2l1-3 3 3q5 4 1-2v-2l4-1-3-4v2q1 2-2 2h-3zm12 1q-3 1-1 4c2 4 6 5 4 1l1-2a2 2 0 0 0 2-3zm222 10q0 6-2 7v1q4 2 4-4 0-2 1-1l1-1-1-1-1-4q-2-7-2 3m41-4 1 1v6l-1 3-2 3q-7 4-4 6v-1l2-2 5-2 4-1v-9q-2-1 1-1l2 2 1 2v2q-2 2 1 3 3-2 1-5-2-1-1-3 0-3-7-3l-2-2-1-1zm14 0-2 1c-1 0 0 5 2 7l1 6q-1 9 2 4 4-3 0-9-3-2-2-3l1-2v-3q0-2 1-1l1-1q-2-2-4 1m-97 0c5 1 9 5 4 4q-4-1 2 2l5 4q1 3 3 0l4-3 5-1 3-1 4-4c-1 0-15 2-17 4q-7 2-6-2a5 5 0 0 0-7-3m-157 5-2 3-2 2q-2 3 1 1 4-1 4 3 3 5 2 1l-1-4-1-3v-2l2-2q-1-3-3 1m-75 11q-1 1 1 1l-1 3q-7 7 1 3 2-3 5 0 4 3 4 0l-3-2-4-4q-1-3-3-1m25 1v3h-2q-6-2-8 1c1 3 12 1 12-2q0-3 2-1 2 1 0-2-3-2-4 1m228 0q-5 1-5 7v5l5-2 5-1v-11zm-282 4q0 7 2 3 1-2 3 1 4 6 1 8l-2 2q1 3-3 2t0 3q4 3-2 7-5 5-8 2h-1l5 4 1 2 5 1h6q4 0 1-3-2-2 4-1l1-2c-1-2-6-3-6 0h-4q2 0 2-3l1-3q2 1 1-1h2q2 3 2 0-1-4-4-2-3 3-3-2 1-3 4-3l3-1q0-2 2-1 3 0 1-1l-3-2v-5q2-1-1-1-5 0-3-2 1-1-1-1l-3-3q-1-4-3 2m328 0v3q-3 3 0 5l2 3v-3q0-6 1-5l1 3v3q3 0 2-4l-1-4-1-1-3-1zm-217 2 3 2 2 2 2 3 1 7q1 9 4 2l3-5 3-4h-3q-1 2-2-1v-2h-2q-4 1-3-2 0-5-2-2h-4q-4-3-2 0m-190 3-2 1q-3-1-2 3v2l-3 1 3 1q3-2 3 1c2 2 11 1 11-2l1-3-2-1q-6 0-7-4a1 1 0 1 0-2 1m58 0c-2 3-1 8 2 7q3 0 2 2-1 3 1 4 4 2 1-2v-3c2-4-3-11-6-8m15 0v6a5 5 0 0 1-4-5h-2q-4 1-1 3l2 3q-1 1 0 0 5 0 5 5-2 1 1 3l2 1-1-2v-2l1-3q-1-4 3-3 6 0 7-3h-1c-2 1-9-1-10-3zm205 3-6 21-23 91-1 5 3-1c8-1 8-2 13-19q5-15 6-25c2-16 2-17 5-18q4-1 5-7l3-8v-4q-3 1-5 9t-5 8c-3 1-3 3 3-17 5-21 5-20 6-18 2 4 6 28 5 29q0 4 3 3l-8-38c-4-17-4-16-4-11m38 4 1 9 2 6 4 13v1l2 8 2 9 2 6 1 3h22l1-15q2-35 1 2l1 22 1-5 1-8q1-6 1 4-1 9 1 8 2 0 2-7l1-9v-28l1-20-4 1-4 1-15-1-19-2q-6 0-5 2m-304 1q-1 3 3 2 3 1-2 3h-3q0-2-3-2l-5 2q-1 2 1 1l1 3q-1 4 3 3 2 1 2-2-2-3 7-4 3 0 3-2l1-1h3q5 0 0-4h-5l-1 1q-4-3-5 0m423 0 1 2c2 0 1 4 0 4l-2 1 3 1q4 1 3-2t1-3v-3zm-29 3q-4 3 1 5 3 1 1 3v14l2-3q0-7 2-4h1l2-2v-3q-2-2-3 1-3 2-2-1-2-3 4-2v-2l-3-3-1-1q-1-4-4-2m-421 3 1 2c5 5 1 7-4 3q-5-3-6-1l3 1 2 1 2 2 2 1c0 7 14 6 16-1q1-4-3 0c-1 3-8 6-9 4v-1q2-2 1-5v-1l2 1h2c3 0 3-4 0-4l-2-1h-3q-3 2-3-1zm466 4q0 3 2 2l1 1-1 2v11h6l-2-1-2-1c-1-2 0-7 1-7q1-2-2-8-2-5-3 1m-423 1 1 4 1 4q-1 3 1 3v-1q0-3 3-1c3 2 0 7-3 7a2 2 0 1 0 0 4l3 1q1 3 2-1h1l2 3 1 2 1-2q-1-1 0 0 3 3-2 4c-1 0-6 4-5 5l15-7 6-3q-1-5 5 0l3 4-1-4-3-3 1-2q3-3-4-5-6-1 0 2 4 1 0 4t-4-2q0-7-5-6-4-1-2 3v2l-1-1-1-1-2 1-1 1c-1 0-3-6-2-7l1 2q0 4 3 1 0-3-4-4-5 2-7-4-1-4-3-3m376 3-3 2q-5 0-1 5 2 3 4 1l2-11zm-382 1 1 3q4 3 0 5h-3q-3-1-4 5 2 5 3 1l1-2h5q4 1 2-2-3-3-1-4 3-4 1-5-2 1-2-1-2-2-3 0m47 10-1 2-1 2h-2q-1-3-2 0v2l2 3q1 3 5 1l-2-1-1-1 3-1 3-1 2-1q1 2-1 3c-2 1-2 7 0 5v11q-2 2 1 2 5-2 0 4-3 3-1 3l3-4 4-4q5-2-1-5h-3q-2 2-1-3 0-3 2-3l2-2-1-4q1-8-2-9-4-1-3 3h-2q-3-1-1-2v-1zm372 0q1 3-2 2t-1 2h2q2-2 2 1v2l-1 2q2 2 3-2-1-4 3-1l3 1v-7q-1-2-1 1l-2 2v-1q0-4-2-1-3 3-3-1l-1-2zm-394 3q-4 3-5 1 0-2-2-1-3 3 5 4l5-1v-6zm383 2c-2 0-3 5-1 5l1 2 1 1 1-2q0-3 2-1 3 0 0-4zm-449 8q-2 1-1 4l-1 3v8c0-2-5-3-5-1s5 5 6 4h2c1 2 6 0 6-3q0-3-2-2l-2-1 3-1 1-1-1-1-2 1-2 1c-2 0-2-9 0-10v-2zm67 0c0 2 8 10 9 10v-1l-2-3h1q0 2 4-1 3-4 4-2 4 3 3-1l-3-2-6 3q-6 1-5-1 2-2-3-3zm0 9q5 3-1 7-3 3-4 1-4-2-3 1l1 1 2 2q0 4-3 1l-2 1q1 2 9 1 7-1 3-2l-2-1q1-3 4-1h4l-2-3v-2l5-1-6-4-2-1-3-1-2-1zm404 3-2 2q-2-1 1 7l-1 2c-2 0-1 5 1 5q4 2 2-2c-2-3 1-11 3-10a2 2 0 1 0 1-3q-1 2-3-1zm-443 1-2 1q-2-1-4 1l-4 2-2 2q-2 4-3 1t-3-1l1 2 1 1v1q4 2 7-3l3-2h3l5-1q5-1 4-3-3-4-6-1m386 2v2l-1-2q0-3-4 2-3 5-1 6v2h2l1 2q-1 2 1 1v-1l2-1q4-2-1-4-3 0-3-2h3c3 3 6-3 2-7q-1-2-1 2m-425 5-3 2h-3q-1-1-4 1l-1 2 3-1q2-2 1 1 0 2-3 2l-3 1 1 1 2 1 5-3q3-4 5-1 4 3 0 3l-1 1q2 2 6-1 2-1-1-1l-2-3-2-3 2-1 3-1q1-4-5 0m325 10 1 11 4 10q3 12 2 4l-7-32zm-256-2q-4 1 0 2l4 3q0 4 7 3l6-3q5-1 3-4-2-1-2 1h-1l-1 1-1 1-1-2-1-2zm324 5-2 2-3 3v2q2-3 4-1h3l3-1 2-1h-2l-3-3q0-4-2-1m-303 4-3 3-1 2q-2 5-5 5v1q2 1 3-1 2-2 2 1-1 5 2 2h2q3 1 1-2v-1l2 2 1 5v2q0 3 1 1 3 1 1 3c-2 1-1 5 1 4l3 3 2 3v-3q-2-1-1-4l2-2v2l1 1c1-3-2-9-4-9q-4-1-3-6v-2q-4-1-3-5 0-2 2 1 1 2 1-2c0-5-5-9-7-4m173 5q3 3-2 4l-3 1q3 4 3 7 3 4 4-1 2-3-1-1-1 3-1 0l-1-3q-2-1 1-2h2q1 2 2-1 2-5-3-5-3 0-1 1m125 0v4q0 5-1 3-5-1-8 3h-3q-2-2-16-2l-19-2q-5-1-6 3c-3 7 3 9 26 9q7 0 2-1h18l-5 1-5 1h10v-4q0-10 11-6c4 2 0 9-6 11q-5 2-4 5 2 8 6 5 2-1-1-1-4-1-1-2 6-3 5 3v3h1l1 4q3 2 2-2l-2-5q-2-1 1-3l2-3h-1q-4 4-3-2 0-8 3-5l1-1 1-1v-3q-3-1-1-6c2-2 2-7 1-7l-1 3-1 3q-5 0-4-4 1-3-3-1m56 0-4 3q-6 5-2 4l1 1a1 1 0 1 0 2 0q2-6 5-4c1 2 7 2 7 1l-3-2-4-3q-1-2-2 0m-374 2c1 2-1 7-3 7l1 2q8 1 5-3h1l2-1-2-1v-1q1-1-2-3-3-3-2 0m204-1 1 2q3 2-1 2-5-1-2 6 2 9 4-1 5-10 0-10zm-277 5h-3c0 1 5 2 6 1l1 1-1 1q-4 1 1 2 5 2 3-2l1-4q2-1-2-1t-5 2m315 1-8 4q0 3 2 1l8-3q8-2 7-3c0-2 0-2-9 1m-142-1 2 4 2 4h4q0-2 4-3 3 0 0-1l-3-2a1 1 0 1 0-1 1l-1 2-1-1h-1l-1-1 1-1-1-2zm308 3q-1 6-8 8l-3 2h1l3-1q3 0 1 2-3 2 0 5v3q-2 2-3-3-2-5-4-2l4 7q4 5 4 0l1-2a6 6 0 0 0 0-9c1 0 6 3 6 5l-1 1v3q2 3 3-1l1-2 2-1 2-1-1 2-1 2q1 4-2 4-3 1-4 4l8-5q5-5 0-9l-3-2-2-2v2c-1 1-6-1-6-2l4-3 2-1-1-1v-2q-1-6-3-1m-487 4v4q5 2 6 6-1 5 3 5 2-1-1-3-3-4 3-3 6 2 8-1v-1h2l-2-1-2-3q0-4-5 0c-2 3-10 0-9-3q1-2-1-2zm197 1 1 4a4 4 0 1 0 7 1l1-1 1 1 2 1v-2a3 3 0 0 0-5 1c-1 2-5-2-4-4q0-3-2-2-3 0-1 1m-33 2 1 2 4 5q3 5 5 3c2 0 1-5-1-4l-4-3zm80 2q-5 1-5 4 1 4 5 6c3 0 7 6 7 9l2 5 1 2v3q6 1 6 8 0 5 2 3h1v1l1 1q3 1 1 2v1q4 1 0 3-3 0 0 2l1 4 1 2 1-3 2-20 3-26 1-7h-3l-21-3zm217 1-1 2-2 4q-4 4 0 4 2 1 1-2l1-1q3 1 2-1v-2l1 2q2 3 3-1l-2-2zm-357 11q1 3-2 2c-6-2-7 7-2 9q6 4 0 3-3 0-1 1v5l-2 3h4q6-1 2-5-3-2 1-1l3 1-1-1a1 1 0 0 1 0-3v-1l-2-1-1-1h-2q-2-1 1-4 2-3 5-1 6 1 1-2zm122-1q-1 2-3 1l-3 1q-1 1 1 1 5 0 3 3v1l6 2q2 2 1 3l1 1q2-2-1-5l-1-4-1-3-1-1zm215 0v3q3 2 0 4l-2 2v2l-1 4q4-1 3-5 0-3 1-1 4-1 3-6l-1-2q1-3-3-1m-206 3q-4 3 0 6 3 1 2 3h4q3 2 3-1l-1-1c-1 1-5-5-5-7q1-3-3 0m-43 0 1 1 2 1-1 1q-3 1 2 3 6 4-1 3-4 0-2 2t3 1l3 2q3 5 4 1 1-3 2-1l4 1q3 0 3 2h1v-4q-2-3 3-4t5-3c0-1-6-3-7-2v3l-2-1-3-4-1-2v2q0 3-3 4-7 3-3-1a3 3 0 0 0-2-5zm189 2h-1c-2-2-27-1-37 2q-19 5-30 6l-7 3-5 2-3 1h8v6q-1 6 3 5c8-2 8-2 8 0q1 4-3 3c-4 0-4 0-4 17v15q3 1 3-10 0-10 2-6l2 11c-1 0-2 41-1 43 2 1 3-14 3-31l1-7 1-15 1-18v-5h12l11 1q1 3-11 3h-9v17l-1 16h10c11 0 7 2-4 2h-5v32h5l9 1 3 1q1 1 1-4l1-15 2-34 1-24 4-2h6q1 4-4 4l-3 1v9l-1 17v8h6l-2 2q-4 0-2 5 1 2 1-1l2-2v5q0 6 2 11 3 4 3 11c0 14 2 4 3-16l1-28c0-10 0-11-2-13q-3-2 0-3 2-1 2-6l1-5h12q13 0 13-2 1-3-4-2-4 2-3-1 2-3-1-1-1 3-1 1v-2q0-2-2-2l-1-2 5-1q5 0 2-2v-2l-1-1zM8 509q-2 0 1 2h2l2 2c0 2 9 5 13 4q4-3-5-5l-7-2-4-2zm239 7c-1 2 3 5 4 4l1 1v3q2 1-1 2l-2 2q0 3-1 1v-3q2-3 1-4h-1l-1-1-3-2-3-2q-2-2-3 1-4 6-4 1-1-4-2 1l-2 3h-2q0 2 3 2 2 0 1-1l1-2 1 5 1 5 3 2h6v2l-1 4v3l2-2 2-1 1-1q0-4 3-5l1 2 2 3q4 3 3-4l1-3 1-3v-6q-4 0-2 2 2 3-1 2v5l-1-1-1-1-1 2q1 1-1 1-3 1 0-5l2-5q-1-3 3-3v-3h-4q-3 2-5-1zm-63 2v2l1-1q1-3 2 0l1 3q2 1-4 1l-2 2-4 2q-4 0-1 2 4 3 5 2l2-3 1-1-2-1 3-1h2l1-1 1 3a2 2 0 0 0 3 3l2-1q1-3 2-1 1 1 1-1 0-3-1-2l-1-2 1-2q3-3-5-2-3 0-2-1v-1q-4-2-6 1m241 6c1 6 4 13 4 10v-2l2-5q3-7 0-9l-1 2-2 8 1-3c1-2-1-8-3-8zm-20-4c-1 20-1 23 1 24q3 0 0 3-2 5 1 3h8q2-2-2-2l-2-1v-12l1-12-3-3-1 2q-1 3-1 0-1-5-2-2m-260 9-2 2h-1l-1 1q3 3 8 3c4-2 0-7-4-6m201 5-2 1q-2 20 3 20l2-1v-1q-2-3 1-1c3 1 2 5-1 4q-3 0-1 1 6 5 5-7l1-11q1-8-8-5m41 1q3 0 3 2h-1l-1 2q-1 6-2 1-2-6-3-1l-1 4c-2 1-1 6 1 6l2-1v-1q-2-5 1-4 3 0 2 2l1 2v3q-8-2-8 3 1 7 3 3c1-4 6-8 5-3q-1 2 2 1l4 2q4 3 3 0v-3l-1 1h-2q-5-3 1-5 4 1 2-2l-1-3q-1-3-2-1l-2 1q-3-1-1 1l-1 2c-2 0-2-6 0-9q3-5 0-4l-2-1zm-254 2-2 1q-1-1-4 3l-2 4h5l2-1q2 1 3-2 0-5 2-2h1l-4-5zm18 0-2 2-1 3q0 5-2 1-3-5-6-2l-4 4-2 2v2q1 5 3 3l1-1 1 1q-1 2 1 2h6q-2-2 0-3l3 3q3 3 2 0l1-2h3q5-2 2 2l-3 6-1 6 1 2 1-1 2-2 3-2q3-3 4 0l1 1 1 1q-1 1 1 3v2q-3 1-1 2v2h-3v2l5 2q4 1 2-3c-2-3-2-2 0-5q5-4 5 0l2-1q4-5 1-5l-1-2q3-1 4 2l1 3 1-1 1-4q0-3-1-1l-2-1q-4-3-4 2 0 3-4 2l-5-1v-1l2-1 1-2c1-1-4-3-6-2l-1-2-1-2-2-1-1-1-2-1h-3v-1q2-3-1-2-4 1 1-2 4-4 1-6h-2a1 1 0 1 1-2-1v-3zm-37 3-1 2v2h2q1-2 1 1l1 3v1q-2-1-2 3l-2 3v-8h-3l-1-4v7q2 2-3 2l-3 1 2 1 1 1-1 1q-3 1-3 4l9-1v7q0 3-2 1a2 2 0 0 0-1 4l2 2a7 7 0 0 1-8-2q3 2 2-1 1-3-2-2-7 2-1 5 2 1 1 2l2 2q4 1-3 3-6 3-4 4v2q-4 4 0 5 3-1 4-5h-3l3-3q3-2 1 1l2 1q4-1 4-4 0-4 6-6l2-1q1-2 3-1a1 1 0 1 0 0-2c-1 1-6-3-6-4q0-4 3-3 4 0 3 4h5l2 2h1l-2 1q-2 0-2 4v6l1-2 4-6q6-6 3-6l-1-1h2q2 0 0-3v-3l1-1 2 4q1 3 3 0l1-1v2l2 2q1 3 3-4l-1-3-3-1 1-1q2 2 0 0 0-4-4 1l-2 1-2-3q-4-4-4 4l-1 7-1-1q-2-2-1-4h-1q-1 1-4-2-2-3-3 0-2 3-1-2 1-6 5-2 2 2 2-1l3-1q3 2 2-1l-1-2-2-1 1-1q2 0-1-1-1-2-3-1l-1-3v-2l-1 3q0 2-3 0v-2l1-2q0-4-3 0v-1l-1-3zm138 3-4 3q-5 3-1 6c1 0 10-8 10-10s-5-1-5 1m-59 2q2 2-1 2-2-1-1 1l-1 2-1 5q0 6 1 2 0-4 6-1 9 6 10 1 2-4 6 0 6 4 8 1l-1-2h-1q1 3-2 1-3-1 0-3h3v-1h-8l1-1q3-2 0-4h-5q-2-2-4 1l-3 4-2 3 1-3q-1-3-3-1-3 3-2-1l1-2q3-2-1-5-1-2-1 1m-17 0-2 2q-2 1-2 4v5l1 1 1-3c-1-3 4-5 5-1 2 5 10 1 8-4q0-4-4 0-3 3-4-1l-1-1zm-112 2h-3q-1-2-3 1t-4 1h-1l1 2q1 3 4 0l3-1-1 1q-3 1-1 3 0 4-2 6-4 5-1 7l2-1q2-3 6-5l3-1c2-2 1-7-2-7q-3 2-1-1 2-2 4 1l5 2 4 4q3 6 5 2l-1-1q-2 0-1-2l-1-2q-2 1-1-5 2-9-2-4-4 9-5 5l-3-3q-3-1-2-3l-1-1zm212 1v2q0 4-3 1-1-2-1 1-3 3 4 1 5-4 4 2v3l1-4 1-6c0-2-5-2-6 0m-40 0-2 3q0 2-1 1l-3 1h-1q-1-5-6-4l-2 1h-1l1 1v2l1 4q1 3 1-1 2-5 3-1 2 4 3 1l1-1h1l3-1 2-1 1-3q2-4-1-2m-189 3 2 2 1 3v3l-1 1q-5 1-2-1v-5h-5q-2 3-2 0l-3-2q-4-1 0 3 5 4 0 4h-4l3 1q7-1 6 2l1 1 1-1h3c4 1 10-4 6-5v-1q3 0-1-4-4-3-5-1m215 2q1 5-2 5-4 3-2 8h3v-2q-4-2 1-3 3 0 1 1-1 4 1 5l3-3v-1l1 2a3 3 0 1 0 4 4l-1-2q-2 0 1-1l1-2v-4h-2q-4 2-5-3l-1-2-1-2a1 1 0 1 0-2 0m-69 9-2 1v1l-1 3q-2 0 1 3 2 2 0 0 1-5 6-2h2l2-1v2q-2 4 3 3v-2q-3-3 1-4h1l-2-1q-5 1-1-2v-1q-1-1-3 2-1 3-2 2l-2-1-1-3-1-2zm240 1-3 2-2 1h-3q-2-3-2 2l3 5q3 4 2 1-1-6 4-7l2-1 2-3 2-2q-2-3-5 2m-199 1 1 1 3 3h-2q-1 1 1 1 5 3 3 4l-1 1 2 1 2 1 2 1v2q-2 4 1 4 4 1 1 4-3 2 3 2h4l-4 1-3 4-1 4-1 2h3q3 1 5-1-1-3-3-2t-2-3q-1-2 3-2h4q2-2 4 1 4 4 4 1l-2-2v-4q-2-2 1-3 2-1-1-1h-3l-6-5v3c-1 2-5 1-4-2h-1l-1-1 4-3h2q4-3 1-4l-2-1v1l-1 2-2 1h-2l-2-2-1-3-1-2v-2l-4-2q-4-3-4 0m-224 3 7 7q2 3 4 0 2-2 3-1v-2l-2-4h-1l-2 1v4q-1 3-3-1-3-6-6-4m139 3q-2 3-2 1h-1l-2 2q2 2 5 0 2-4 2 1l-2 2q-3 0-1 2t5-1q6-6 4 2 1 7 2-2 2-5-1-4l-4-2q-1-6-5-1m174-1-1 1h1q1-2 1 14v15c2 0 5-24 3-27v-2l1-1zm-248 2-3 1-2 7q0 3 2 1l1-2 2-2 1-1 2-2v1l1 2q2 0 1 2v1q4-1 4-6 0-7-9-2m112 0-2 4q-2 4 2 4l1 1-2 1v1q3 3 4-2v-3l-2-4q0-5-1-2M9 572q-1 3-4 2l-1 1 2 2h2l1 2q-1 2 1 2 5 1 2-1v-7a2 2 0 1 0-3-1m128 1q-3 0-3 2l-3 1q-6 1-2 3 3 0 2 5l1 1 1-2 2-2 1-1h2l1 2 2 2 4 6q4 8 3 3v-4q2-1-1-1h-2v-3l-1-4v-2q2-1-1-2l-2-2q0-3-4-2m-93 8v3l-1 1-2-3-2-1q-2 0-1 1l1 2q0 3-1 1t-1 1l2 2v2h2q3-2 4-1l1 1v-4l-1-5zm20 4c0 1-6 4-7 3v1q4 3 0 2l-2 1q-1 1 1 2 2 0 1 2 0 4 4 1l3-1 2-1q-1-3-5-4v-1h4q3 2 5 0l-2-1-3-3q0-3-1-1m144 3v2l3 1q3-1 0 3l-3 4 2 10 1-2v-3l2-1-1-1q-2 0-2-3 0-2 2-2h1q1-3 3 5 0 7 3 6 4 0 0-3v-1l2-2q1-2 2-1l2-2q0-2 2-1 3 1 2-2l-1-2v-2q0-5-4-1h-2l-3 2q-3 4-2 1 0-7-4-5h-2q-2-3-3 0M3 588l2 1q2 3-2 2-2 0-2 2l3 1q6 0 1 2-3 1-1 2t4-2h2q-1 4 1 1 1-2-2-3l-1-1zm91 5q0 3 3 2l1 1v1q-2 0-1 1l-1 2c-4 1 0 7 4 6h4q2-2 3 1v2a3 3 0 1 0 5 4q-5 0-2-5 5-4 5-1a2 2 0 0 0 4 0q-2-1 1-1v-1l-1-2q2 0 2-3v-4q1-3-1 0l-4 3 1-2v-3l-1 1-2 1q-2-1-3 1 0 3-3 1l-3 1v4q-3 2-3-1v-2q-2 1-2-2c0-1-3-6-5-6zm176 0-2 3q-3 2 2 1h2l2 2-1 2h-5q1 5 7 2t3-4l-3-3h2q0-5-2-2h-2q-3-3-3-1m-130 11q-2 2 1 2t-3 3q-4 1-5-1-2-2-3 1 0 2-2 1l-1 6-2 2q-3 1-3 3v3l3-3 4-5 1-2v2q0 3 2 3 1 2 1-1-1-4 2-6h1l1 1 7-7zm43 0-4 1q-6 0-4 4 3 3 6 1l-1-1-2-1 2-1h6c1 1 5-1 4-2zm-99 4-2 2q-3 0-4 2 1 3-2 3-2 1-1 2l-1 2c-3 0-6 5-4 7l2 3 1 1 1-2-2-4 1-2 1 2q0 2 3 2l2-1 4-2 6-1q1-3 4-1h4q0-3 3 0l1 1-1-3q-2-2 1-2l3-1c0-2-8 0-10 3h-1l2-3v-4q-2-3 1-1 3 1 2-2c0-2-5-2-6-1l-2 2-3 1v2l-2 1v-1c1-1 2-6 0-7zm121-1-2 1-2 1-1 1-2 1h-7q-3-2-1 1v3l-2-3q-4-3-6-1h2l2 1q-1 1 2 2l3 1h2q2 2-1 2v5q-3 2-1 2 2 1 2-2l3-2q4-1 1-2-2-1 1-1l2-2 2-1q1 1 1-1l1-4q3-2 2-3zm156 0-5 2-20 2c-17 0-20 1-20 2l1 4 1 2 1-2c0-3 1-4 16-4 13-1 15-1 17 3q2 8-1 5l-1-1q0 3-7 3-7 2-3 6v-1q-2-4 7-4 10 2 10-9-2-5 7-4 6 0 5-2h29q2 2-6 5-8 4-1 1l6-1c1 0 4-6 3-7zm-202 3-1 2-1 1-1-3q-1-3-3 2l-1 3q-2 3 4 5 3 1 2-2l2 1q3 2 2-1l-1-3-1-3v-2l2-1q-1-2-3 1m52 2q-1 6-5 4h-3l-1 1q0 2 2 1 6 1 3 3v2q4 0 4-4a1 1 0 1 1 2 0l1-1q3-4-2-8-2-3-1 2m48 2-3 3-1 7-4 19q-2 7 4 6c4 0 4-1 5-13l2-14c1-3 2-10 0-10zm-154 4q-4 1 0 4 3 1 1 2l-6 2-4 1v7q1 4 2-1 2-7 3 0l3 5q3 3 5 0 3-4 1-4t-2 3l-1 1v-6q3-2 0-2-3-2-3 1l-1 2q-2-1 1-6 0-3 1-1 2 2 3-1h2l3-1q1-1-1-1-4-1-3-3 3-3-4-2m373 3-1 4q-2 1 1 3c1 2 2 2 14 2q21 0 12-6c-3-3-22-3-21 0q1 3-1 1-5 0-2-2l-1-4zm-117 9-11 1h-6l2 2q3 1 2 10 1 10-2 7h-4c-4 1-11 0-13-1l-4-2q-3 0-3-2l-2-2-1 1v4l-1 4v-9l-1-1-1 5v5h5c6 0 6-1 5 17l1 14 1-15q1-18 3-16c3-1 20 0 20 1l-1 1q-1-1-1 1l2 3 1 13-1 12h11v-25q0-3 2-3c2 1 3 11 2 22l-1 6h2q4 2 3-6 0-20 3-21 2 0 1 3l-1 12-1 11 12 1h13v-14q0-14 2-15c4-1 10-9 11-14v-5h-5l-5-1-1-3c-2-1-32-2-38-1m-287 5-2 2-1 2-1 1q-2 1 0 2c2 0 5 5 4 6l5 2q7 1-2-4l-4-5 1-3 2-1 1-2-1-3zm249 21-2 2c-3 1-3 23-1 24q2 1 2-3l2-24zm12 14 1 13h12v-6l1-12 1-6-8-1h-7zm64 2v11h7v-23h-7zm24-7-1 11v7h20v-5l1-11v-7h-20z" mask="url(#16282281824-posters-1720119797893-vertical-mask)" itemprop="medium" fill-opacity="0.90" fill-rule="evenodd" stroke="none" fill="url(#16282281824-posters-1720119797893-vertical-medium)"></path><!----><path id="16282281824-posters-1720119797893-bold" d="M505 91q-1 5-6 4v7q0 2 1 1 5 1 6 5l-2 2v2h5q5-1 2-3v-2l1-1h-1q-3 2-2-3 0-3-1-1-3 0-1-3l3-1 2-1-2-1q-3 0-2-3 0-4-2-4-2-1-1 2m2 30q-3 5-4 2l-2-1q-3-1-3 1l1 1q4-2 2 6v6l-1 4v1q5-1 2-6-2 0 1-5 1-6 3-2v2l1 1v-7q2 0 2-3 1-5-2 0m2 19-3 2-1 4q1 8 2 2 0-2 1-1 3 5 4-4 0-8-3-3m-24 19v4q1 7-2 1l-1-2-1 3q0 3-3 3l-2 1q0 4 3 1h1q1 2 2 0l1-2 1 1 2-2 1-4zm-268 36h9l-1 1v1l1 3c0 4-5 4-6 0q-1-3-1 1l-1 5h2l6 2q2 1-1 1-3 1 0 3c2 0 3-1 4-11v-8h-6q-8 0-7 2m254 1q-2 3-4 2-4 0 0 3v2l-1 3q-1 6 1 1t3-1q-1 2 1 2v-8l2-6zm4 0 1 4v3q-1 4 2 4v-3q0-4 2-3 3 1 2-2l-1-2h-2l-3-2q-1-2-1 1m-231 9q-2 4-6 4l-3 1 1 1 2 1 1 2 1 2 2 2v-3l2 1v-4q0-6 2-7 3-3 3 2 0 7 2 1l1-4-5-2zm8 7-3 2q-5 1 2 2l5-1 1-1 2 2q3 2 2-4c-2-4-8-4-9 0M9 215l2 4q4 4 1 6-1 1 2 2 3-1 1-6-1-1 1-2l2 1q1 3 2-1 0-2-3-2l-4-1-1-1-2-1q-1-1-1 1m8 18v4l1 3q1 6 4 4 4-2 0-3l-2-3 2-1q5 0 1-5t-6 1m461 27-2 2-1 2q1 3-2 3-2 0-1-1 0-3-1-1l-2 1q1 3 4 2l1 1 1 2q2-1 3-5-1-4 2-2v-5q0-4-2 1m-465 9 2 2q3 3-1 3l-2-1-1-2v1l-1 3q-1 2-3-3l-1-2-1 2q-3-1-1 3l2 2q3 0 1 5-3 4-1 4h1l3-3c4 0 4 0 8 4l4 4h-3q-3 1-3-2l-3-1q0 3-2 1h-1l-1 2H8l-4-2 1 2v4q-2 3-3 0l-1-2q-1-1-1 2l1 4c2-1 1 5 0 6-2 0-1 8 1 8l1 1-1 1c-2 0-2 3-2 17v18l2-1 5 1h3l2 1 3 1 2 3q0 4-3 1h-2q-3 3 3 4 6 2 3 4-3 0-1 2t-1 3q-3 2-1-1 1-4-2-3-2 1-2-4l-3-2q-10-4-3-5l2-1-3-1H0v7q-1 9 3 7 5 0 0 2l-2 1-1 33v34l4 1q4 3 4 1 1-2 1 1l3 1q4 0 0 2l-1 2h3q5-2-1 3-4 6-8 3v-2q3 0 1-1v-2q3-2-2-1l-2-1q1-1-1-1-2 2 1 5l-1 2-1 2 1 1q3-1 4 2l-2 1-2 2v8l1 2-1 2-1 4q-1 3 4 5 4 1 6 4 6 3 6-4 1-4 2-2h3l5-2q7-1 2-4l-5-2-5-4q-4-2-2-4 4-3 4 1v3l1-1 2-1 1 2q1 5 4 3 6-1 1-3c-3 0-8-5-8-6l2-1h1q-1-3-4-1c-2 3-11 4-11 1s6-7 8-6h2l2-2a2 2 0 0 0 3-3h3q3 1 0-2-2-3 4-2 3 0 1-1-3-1-1-4 2-2-2-3-3 0-1-2v-1l-3-1 4-1q3 2 5-1 4-3 2 2c-1 4 0 11 2 8l2-1h6q0 2 4-1l3-1q2 1-3 3-3 0 0 2 5 3 0 4l-6 2c0 1 8 0 11-2l1-2q-2-1 1-2l1-1 1-2 1 1q0 3 7 3c5 0 2 5-3 6l-10 2c0 1 5 3 7 2q3-1 4 1-3 4-9 1-2-3-5-1l-3 1q-5 1-4 4c1 4-4 1-5-2q0-4 2-2h1q0-2 2-1l1-1-1-3-1 1h-2l-4-1h-3q-2 0 1 4l1 3h-2q-1-3-2 0l-1 1-1 3q1 7 4 6v5l-1 2-4 3q-6 6 3 8 7 5 2 5l-2-1 2 2c3 4-4 7-9 4l-3 1q-2 1 1 1h3q1 2 4 1t1 2q-2 1-2 5v3l-1-3-1-3-3-1q-6 0-5-5 0-4-4-5l-3-3c-2-2-11-8-12-7l1 2v4l-1 12q0 18 5 19 2 1-1 1c-3 0-6 5-3 6v2q-2 1 2 1c2 0 8-3 5-3l-1-1 3-1q2 1 5-1c2-2 8-1 6 1l-2-1q-5-3-1 2t0 6v2q0 5-4 5l-4 2q-2 3-3 1-3-4-6-1-2 2 1 4 6 6 0 3-3-2-1 1 4 4 1 4c-2 0-2 3-2 18v19h3q4-1 2-3l-2-3h4q4-2-2-3-3-2-1-3l-1-2-2-2h3l4 2q1 3 1 0l1-2H9l-1-2 4-2q3 0 2-1v-2h5l3 3q3 3 2 0 0-3 2-1a5 5 0 0 0 7 0l1 3 1 5v7l4-1q4-2 3 1 0 3 2 1 5-3 5-1l-1 1q-2-1-2 2l1 3 1 1 1 3q1-2 3 1h4q2 0 1-1l-1-2 1-1c1 1 6-1 6-2a2 2 0 1 1 3 0l3 3a3 3 0 0 1 1 5q0-2-3-2l-3-1 2 2 1 2-1 1-2 2q-4 1 2 2l4 1-1 1q-1-1-1 1l-1 2q-3-1-1 2 3 2 1 3l-2 1h-2a4 4 0 0 0 1 6c0 2-7 0-9-2q-1-2-1 1-1 3-8 3l-4 1c-2 3-4-3-2-7v-1q-1-1-1 1 0 4-4 3-3 0-2 3h2q2-3 1 2-1 7-3 4-1-2-3-1l-3-2-5-2c-5 0-5-7 0-7q4 0 3-4l1-3q4 0 0-4l-3-2v3q-1 5-3 1 1-2-4-2t-2 2l1 2-3-1-5-1c2 0 7 5 7 6l-3 2-3 2-3 1q-2 0 1 4v2q-6-2-6 9 0 7 2 6 3 0 1-1t1-1l3-3q3-6 5-4 5 2 0 5-4 5 0 6 6 3 5 6v1q3-1 3-6v-4q-2-1-3 2l-1 1-1-4 1-3h4c4 1 5 8 2 10l-1 2v2l-1 2 2-2q5-6 9-4 2 3-1 2l-2 2-1 1q-3-1-2 4 1 3-4 2l-6 1 3 1h5q3 2 4-3 1-3 4-2a3 3 0 0 1-1 7h-1a1 1 0 1 0-1 2l1 1-1 1q-2-1-4 1h1q5-1 0 3-4 2-3-1l-2-2q-4 0 0-3 2-3-3 0-3 3-3 0h-3q-1-2 3-6l-2-1q-5 0-2-4c1 0 0-6-2-8H2q-2-4-2 16 0 19 2 13 2-2 3 3l2 3 1-2v-2l1 1v2l8 6 5 2q1 2 2-1 3-4 3 0l2 1 3 1c2 2 4 2 21 2h18l1-2-1-5q-2-5 1-3l1 4q0 6 9 6 6 0 4-1l-3-2q-3 0-1-1c1-1 6 1 6 3l3 1h3l-2-4-3-8v-3l1 4q4 12 10 11 5 1 4-3l-2-5-3-6-5-7q2-1 6 3 3 4 3-2 0-5 3-5v3q-1 10 2 18 1 5 7 4c6 0 5 0 6-10q0-9 4-6 3-1 2 8l-1 8h12l13-2q4 1-2-6l-2-3 2-1q3-1 4 1l3 4q2 1 3-2 1-5 4 2 1 4-3 3-4-2-3 1c1 4 9 4 9 0l3-2h2l-1-1c-2 0-7-4-5-4l3 2h2l3 1-1 1 2 2 2 2c0 3 31 3 33 0h2q5 3 3-2-2-6 2-3 5 2 5-1 1-3 2 0l2 2v-9l-1 1h-1v-1l1-2v-1h1l2 2 3 1q2 3 2-1-1-3 3-1 3 3 1 2-2 0-2 5 0 6 3 5 2 1 2-7c0-14 0-14 2-12q1 3 1 0t-1-2l-1-1 1-2c2-1 1-9-1-11q-2-1 1-2 3 0 3-2l1-2 1 1 1 1q2-1 3 2t1-1l2-7q2-4-1-10l-1-4h2l8-6-3-2q-3-3-1-4 1-2 3 1l3 2 1 4v6l1-2 1-3 1 4q2 3 3 2l-3-5q-4-5 1-3 4 2 3 3c-1 3 1 9 3 9q2 0 1-3c-1-1 0-7 1-7l1 1 1 3 1-3q1-3-2-2l-3-1q0-2-2-2c-3 1-9-6-7-8 0-2 4 3 4 5l1 1q2-1-1-4l-1-3-6-1q-6-1 0-4 3-2 4 1 2 2 0-3-2-3-1-5l-1-1-1-2q-1-1-1 2l2 5q-2 3-5-1-1-2-3-1v1l2 2q-2 2-5 0l-2-2h-2l2 2 2 4 1 4 1 1q0 3-4-2-3-2-4-1-4 0-2-4v-5q-1-2 1-4l1-4-1 1-2 2q-4-1-1-3 1-1-2-1-4 0-4 4-1 6-3 0 0-6 6-6h4q-1-5-3-5l-5-2 1-1q4 0-3-3-6-2 0-3l3-1h-3q-3 1-3-3l-4-3-2-2v-1l-1 3-3 3v2l2 2q-1 1-5-2h-1q-1 4-4 4v-2q0-3-4 0l-3 1h-3l1 1c1-1 8 6 8 7q-3 0-4-3c0-1-5-2-5 0v1q3 1-2 3-7 1-3-2l1-1q-2-1-4 1l-3 2-1 3q1 5-2 3v2q1 4-2 2-2 0-3 2l-2 3v-9l-1-2 2-4 4-6 1-2 1 1 1 1-1-3q-3-6-1-7h3l-1-1-6-3a6 6 0 0 0-10 4q2 3 2 0 0-2 4-2l5 1-1 3a29 29 0 0 1-13 19l-3 1h-2l-3-1-1-1v-6l-2 3-2 5-2 3v-4q1-8-4 1l-3 5v3q5 2 6 5l-3 2q-1-2-1 1l1 3 2 1v3h-2l-2 1 5 1q3 0 1 2-1 3 2 0 3-4 4-2v2c-2 1-2 6 0 7q3 3-5 3-8 1-5-6 2-3-1-3-3-2-1 2 0 4-5 0h-2l-2 1-2 1q-2 2-3 0l-1-2q-2 1 1 4l1 4q1 3-2 1c-2-3-8-3-8 0q-1 3-6 1-3-4-2 3 0 6-2 5a11 11 0 0 1 1-14l-2 1-3 1q-1-1 0 0c1 2 2 10 0 11l-1-2q2-4-1-3t-2 2 1 4l1 3v4q-1 4-7 1l-2-3-1-2-1-2q0-3-1 1-3 5-7 3v1a2 2 0 1 1-3 1v-3q1-4 4 0 1 2 2-1c1-1 0-6-2-6-2 1-8-2-7-4l-6 1-3 2-3 1q0 2-3 3l-1-3-1-4 2-5 3-3 1-2c2 0 5-5 4-6h2q3 1 2-2 0-2 4 2h2l1 1 3-2 2-2c-1 0-2-5 0-5v-5c-2 0-1-7 1-9l1-2q0-3 5-5 4-1 1-2-2 1-2-2 1-1-1-2-2 0-2-3 0-4 3-3t1-2q-3-3-5 3-1 6-4 0-2-4-2-2v4q2 5-3 3-1-2-1 1v2q-2-2-4 1-3 5-3 1 0-2-3-1-3 0-3 2l-2 2q-3 1-1-2v-6q0-4 2-4 1 1 0 0c-1-3-5 1-3 4l-2 4-2 1-1-2-2 3q0 3-5 2t-4 4l-2 4q-2-1-1-3v-3q-1-3 5-4l6-2q0-3 2-3 2 1 2-6 1-8 6-4 1 2 3-2v-4l-1-1q-1-1-1 1 0 3-3 2h-3l-3 2q-2 0-2 4v3l-1 2q2 2-1 2l-4 3h-2q0-2 1-1l1-1-2-1q-2-1 1-2a2 2 0 1 0-1-3l-2 2h-2l-3-1c-3 0-8-4-6-4q3-3-4-4-7 0-4-3l3-1q4 2 1-2c-2-1-2-7-1-6l1 1q1 4 5 4l3-1a1 1 0 1 0 1-2l-2-1c0-2 6-1 8 1q4 1 1-2v-2l2 1q2 4 3-2-2-3 1-3l1 1q1 4 4 1 1-1 6 5 5 3 6-3 0-3 2-2t1-1h3q6 1 4-2v-2c3 0 3-5 1-7l-3-2c-1 1-5-3-5-4q0-4 4 1l2 3v-8h-1q-2 2-3-2l-3-4-1-2-1-2q-3-2 1-2 7 0 4 5v1l2 1q-1 2 1 2l3 1q2 2 2-2l2-3q5-1-3 8-2 4 2 4l3 1a2 2 0 1 0 2-1h6l-2-1a6 6 0 0 1-3-9h1q3 2 1-3-2-1 1-1 5 2-3-3-12-6-9-9 1-4-2-5l-2-3h1l2 1v-1q-2-2 1-2l2 1 1 1v-2q-1-5-2-2l-1 1v-3h-2l-3 1 1-2q2-1-1-2l-2-2q1-3 4 1l4 2 4 2q1 3 4 1 4-1-2-2-13-6-13-9l1-3c2 0 1-6-1-6h-1l-1 1q-2 0-1 2 0 3-1 1l-2-3h-2q-3-1-1-4 2-1-1-3l-1-2c1-1 5 2 4 3l1 1 2-1h6l2 1q3 2 1 2l-1 3h2l4-2 7-1q5-2 6 1 3 3 2 0 3-4-4-3-5 2-6-2l-4-3-3-2 4-2 2-1q2-1-1-1l-3-2q0-3 2-1 3 1 3-2l-2-1q-2 0-1-2 1-3-2-1v-1l1-2q1-3 2-1h1l-1-3-1-2-3-2q-7 0-2-3l3-1-3 1-2-1 6-1q3-1-1-3v-2h-3l-3 3q-1 5-4 3v-2q1-3-2-1h-3v2h-3l-1-2q2-3-1-1-5 2-5-2t1-2l3 1-1-2-1-3q0-6-4-5v1q2 1-1 2l-5-1q-3-3-5-1-3 0 0-4v-1q-3 3-9 2l-4 2-4 1 2-3q3-2 0-3l-2-1q0-4-6-5l-2-1q2-2 8 1 4 2 1-5-4-3 0-2l3 2h2l3 1h2l-2-2q-6-1-4-4v-1q-1 1-3-2-5-6-2-6l2-1 2 1 2 2v1l-1 2q1 3 3-1 3-5 2 1 0 3 1 1l1-2q0-3 3-4l1-1q2-2 3 1l2 1 1-1v-2q3-1 2-5-1-2 3-2l4-1 2-1 3-2h3l5 3 4 2v-3q-1-3 3-1 3 0 0-1l-3-4-1-2-1 2q-2 4-3 1a8 8 0 0 1 4-7l-1-2-1-1-1-1 5-1q-3 4 1 3 2-1 1-3l3-1h3q0-3-3-2h-1l-1-3-3-2-3-4q-2-6-3 4v3c-3-4-12-5-12-2 0 1 5 3 6 2q2-3 2 3l-1 3v2q3 1 1 1t1 2q4 7-2 2-3-2-4-1-2 1 1 1 5 2 0 3l-5-2-3-1 2-1 2-1 2-1q3 0 1-4-2-2-1-3l-1-2-2-3-1 2q-3 3 0 5 4 4 0 5l-1-1v-3q-2-2-2 1 0 2-3-1l-3-2-2-1 2-1q2-1-1-1-7-2-1-5 4-1 2-3-2-3-4-1h-2l-2-3q-1-2-1 2v1q-1-2-4-1-6 0-4-3 2-2-1-3-3-3-1-3 4 2 4 5l2 1 1-2 1-2q2 0 1-2h-2q-3 1-3-5 0-3-2-3l-1-3q2-3-1-1l-3 3q0 3-3 1l-2-4q0-2-3-2c-4 0-7-5-3-6l3-2 1 2 2 2q3 0 1-1-2-2 1-2 3-2 2 1l3 1 3-2q3 1 1-2h-4l-2-2q-1-4 3-2 3 1 2-2h1q4 2 4-2-1-4-2-1-1 2-5 1-6 0-5-2l-1-2-1 3 1 3a1 1 0 1 1-1 3q-3-2-3 1l-3 2h-3l-1-3q-3-2 2-7v-2l2-1 3-2q2-3 4-1 4 1 2-5v-2l2-3h-1q-3 3-7 2v-1l3-1h-2q-3 1-4-2-2-3-2-1l-1 1v-3q2-4-1-2-4-1-1-3l1-2h-1q-1 2-3-1zm458 9-1 1h-7c-1 1 1 6 2 6l3-1 3-3q6-4 2-4zm6 2q1 2-1 3-4 3 0 5 3 2-1 3l-2 2q2 1 3-1 5-3 2 4v4l1-1 2-1 1-3-1-3-1-1 2-1 2-1q2-3 3 0l1 1v-6q1-2-3-2-2-2-2 3v4l-1-1-2-1a2 2 0 0 1-2-3v1l1 1 1-2v-4q2-2-1-2-2 0-2 2m8 15-1 5-2 2-2 3q-4 4-1 7 1 2 1-2-1-6 2-1-1 4 3 1 10-4 12-3 2 3 2-1 1-3 2-2t1-1v-3l1-2v-4h-5l1 3q3 1 0 4t-5 1l-2-1h-1q0-2-2-1-4 1-3-3l-1-4zm-429 0-2 1-4 3q1 1 4-1 4-2 5 1l2 2q3 2-2 3l-3 1 2 3 9-2v4l1 3 1 2q3-1 0 3-1 2-4-1l-1-1v7q-1 5 2 3 2-3 2-1l-4 7q-2 1 1 1l2-1 4-1q7 0 7-5 1-6 2 0 1 5 3 3v-1q-2-3 1-3l1 2 1 1q4 1 4 5l1 1 1-1q0-2 3-2l2 2-1 1-2 1-1 2-1 2 3-1h3v-7q-1-4-4-3t-3-1l-3-1q-5-1-1-5 4-3 0-2-5 3-5-3 0-3-1-1v4q2 5-2 3t-1-3v-3q1-6 5-4l2 1-1-2q-4-1 0-3l2 1h2l2-2h-4q0-3-1-1l-1 1-1-3q2-6-2-1l-1 2 1 1q-1 4-6 4-4-1-2-3 3-1-1-2t-1-3l3-2h-1l-5 1-4 2-1-1-1-2-2-2zm454 6-2 2-2 2-2 2q-2-1-2 1l-2 1-1 4q1 4-1 5v5q4 1 4-7-1-7 5-7 4-1 4-6zm-327 1q-1 2 1 3 5 0 0 4-3 2-1 3 4 3-2 2h-4l1 2c1 3 6 4 5 1l2-1q5 1 2-3-3-2-1-5 3-5 0-4zm-20 14 1 1v5l-4 4h2l1 2c2 1 0 6-2 5q-3 0 0 3v3l-1-2h-1q-2 2 1 3l1 1 1 1c3 0 6 5 4 6h4l2 1q3 0 3 4l1 1 1-2q2 1 1 3v3l-1 2-1-1-1-1q-4 0 1 3 4 2 3-1 0-5 2-3l5 1q8 0 3 4-3 1-3 4-1 6-3 0t-2 1q-2 4 7 3 4 0 2 1v7l-2-2h-1q-1 4-4 4a3 3 0 1 0 2 5q6 1 2 3l-2 1 2 1h4l2 2q2 5 3 0l2-3q3-1 2 2v2l1 1-1 1h-2l-1 1h-3q-1 1-4-1l-4-2-2-1-4-3h-1v-2q1-4-2-6-2 0-2-3l-4-3q-3-2-1 3 1 7-5 2h-3q-2 4 1 5v-2l-1-2q3 0 3 3l2 3q3 2 0 4-3 3-3 0h-1q-4 1-4-5l-2-1q-4 0-1-4 4-4 3-7l-3-1 1 2q2 1-2 4l-3 5-1 1c-3 1 2 6 5 5q3 0 1 1v3l-1 2q-8 2-5 3l3 2q3 2 4-3 2-8 3 1l2 5 2 2-3-1q-2-3-5-2-4 1-5-1-2-3-4-1l-5 1-3 2h1l5 3q3 4 1 4l-3 3q-2 5-3 2l-1-2-1 4q0 5-2 4l-4-1-1 2v4q3 3-1 4-6 2-1 4l4-3q-3-1 2-3l2-2c0-1 5-6 7-6l-1 1v1l3-2 1-3v-4q-2-1 2-1 3-1 2 3 0 3 2 2l3 1 4 1q7-1 7 3c0 2 5 5 6 4l-1-2q-2-4 2-3l-1-2v-4l6-5q5-4 5-2l4 2 3 1 4-1q3-4 4-2 4 2 3-2v-3h2l1 1 1-2q0-4 3-5v5q-2 2-1 6 0 4-2 4-5 1-4-1h-3v2l-1 2h-3a1 1 0 1 0-2 1l-7 7v2l3-1h4q0-2 1-1l1-1q1-3 3-2 2 2 3-1 3-4 4 0l2 4 3 5 1 4q3 4-1 5-5 3-1 4l3 1 4 1q4 1 2-2-4-4 0-4h3l2 1v2h1l1-2v-3q3-3 2-5l-1-2q1-2-1-2-4 0-3-4 4-3 0-3h-5q-3 2-2-3v-4l-2-3q0-3 1-1l3 1 3 1 2 1q5 1 5 7c0 4 4 10 5 7h1q3-1 2-4l1-1q3 1 1 5-2 3-4 2l-1 1q1 3 2 1h6l1-1q2 1 2-1 1-6 4 1v9q-3 3-1 5l2-2 1-2 1-1 2-3v-3q-3-2-1-3 2-2-1-3l-2-2 2-2q2-1 1-3a4 4 0 0 1 0-6l2-3 2-2h-1l-3 1-2 2-2 1-4-1q-2-2 1-2c3 0 6-4 4-4h-2l-2-2q-1-3 2-1 1 2 1-1-1-2 1-2 3 0 1-6c0-6-5-12-7-9q-1 1 2 4 4 3 2 4-2 2-2 0-2-3-4-2l-6-3-4-3q-3-1-2-3l-1-1-2-2-3-4q-4-4 2-2h3l3 2 2 1 2-3v-2q-1-3-2-1a2 2 0 1 1-3-2q3-1 1-5l1-3 4 1q2 0 2 4v5q2 2 3-7 0-6 2-2l3 2q6 2 1 6-2 2-2-1h-1l-1 3q4 0 7-4l1-2v-5l1 2 2 1q3 1-1-3-2-2-6-2-7 0-3-2h5l4-2q0-3 1-1l1 3q-1 3 4 2 1-2 1 2-2 5 1 3 4-1 1-4l-1-2q0-4-2-3h-2l-4-4q-2-2 2-4 3-5-2-8a3 3 0 0 1-1-5h-4q-5 3-2 3 7 2 1 3-2 1-1 2h6q3 3 1 3h-2l-3 1q-5 0-2 2t-2 2h-1q2 3-1 3l-2-2-7-3-7-2v3q2 4-1 3-3 0-1 1 4 3 0 2l-3-1h-2v4h-1l-1-1-1 2q1 5-3 2a1 1 0 1 0-2 1v2l-2-2-2-3v8l-1-1c1-2-3-7-5-6q-3 3 2 5l2 4c-1 1 5 4 7 3l1 1v3q1 4-5 0-4-4-4-1l1 3 1 2q0 3 2 0a2 2 0 1 1 2 3l-4 2h-4l-1 1q1 2-1 2l-1-1q1-2-1-3l-1-2h4q0 2 2 1l2-1-2-4-3-3-1-2q-1-3 1-4 3 0 2-1l-2-1q-2 1-6-3-3-5-6-5-3 1-4-2l-3-3v-3q0-3-1 0-2 2-5-2-5-5 0-5l1-3q-1-3 2-6 5-5 2-5h-2l-2-3-3-4-1-2v-2h-2q-3 3 0 5l1 2q-1 3 2 4 4 3 1 4l-1-1-1-2-6-5q2 0-1-7-1-3-2-1M54 330l1 2 1 4q1-3 3 2l-2 2-1 1h3l3-2q3 0 1-1t1-2-1-1q-6 0-5-4 1-2-4-2zm437 0 1 3q2 1 1 4l1 3 1-1c-1-3 6-4 8-2q3 3 3 1-1-5-5-5h-2l-3-1-4-2zm-300 9-2 3 3 4 1 5-7-1h-1l1 2 1 1c-1 2 5 0 7-2l3-1q1 2-1 3c-3 2-3 6-1 4v-2l2-1 2-1 2-3q3-3-1-2-2 1-2-2l2-2 1-1-2-3c-1-5-4 0-3 5v4l-1-3q0-2-2-3-3 1 0-3 3-6-2-1m312 3-3 1v1q0 2-3 2l-4 3-1 3-1-3q-1-4-5 0v1l3-1q0-2 1 1 2 6 4 1 2-4 3 0l1 2 5-10 1-1 1-1zm-290 2q4 4-5 4h-3l2 1q4 2 2 6l2 1v-2q-1-4 5-4l3-1c0-1-5-6-7-6zm29 31-2 1-4 1h-6l3 2 2 2 5 5 1-2 1-2 1-1h-3l-4-1 1-2h4q2-1 4 1l3 1v-1l-2-2-4-4zm-168 0-1 2q0 4-3 0-2-2-4-1l-3 1 2 3q5 5 1 5l-2 2 2 2 2-2 1-1q1 1 3-2l2-2 5-2 1-2q-3 1-3-2t-3-1m70 6-1 3q-1 3 3 5l3 1-1 1-1 2q1 3-2 5l-3-2q-4-4-4 0l2 1 3 2q0 4 5-3 7-6 2-7-3 1-4-7-2-2 1-2l2 2q1 4 2 1 0-3-5-4-3 0-2 2m362 3-1 3v1l-1 2q0 3 1 1 1-4 2 0l-1 2q-2 0 1 6 3 5 4 2 2-3-3-4-3-2 2-3 2 1 2-1l-1-1v-8 2l-1 1-3-2zm-175 2-2 11c-10 33-19 74-18 77q0 2-1 1l-2 4v5l1 3q1 5 3 2 1-1 1 2 0 5 2-2c6-20 8-28 8-40 1-11 1-14 5-27 6-22 7-25 5-30zm101 4v17q2 6 2-7c0-11 0-11 5-11q9-2-1-3h-6zm-327-1q-2 2 1 2 2-2 2 1l-2 1-5 1q1 3 4 2h4l1 1q-1 2 3 1 2 0 1-4 0-4-2-2v2l-2-1q1-6-5-4m307 2c-4 2-4 5-4 33 0 18 2 24 2 7q0-6 2-4h1l3-38zm-225 4q1 1-2 1-6 1-4 3 2 3-2 3-3 0 2 3 7 3 4-4-2-1 1-1l2 1a1 1 0 0 0 3 0q-1-2 1-2t-1-3-4-1m258 0-1 8-1 8 3-2 6-2q4-2 1-2l-2 1q-1 1-1-1c0-5-5-14-5-10m-344 5 2 3 2 2 2 2 3 3q0 3 2 1h1q-1 4 3-2 2-5 4-2h1l1-2q2-3-1-4v2l-2 1-4 1h-1l-4-1q-3 0-2-3 0-3-1-1zm394 3q2 6-3 3t-5 1c0 1 5 3 6 2l1 1-6 2-2 5 1-1h2l3-2q2-3 3-1c3 2 7-4 4-6v-3q0-3-2-3-2-1-2 2m-325 1q-4 1 0 5l2 4 1 2q3 0 0-4-2-3 1-5 2-2 2 1v3q-3 0-1 3 1 2 3-1c5-4-1-11-8-8M37 416l-2 2-1 3q-3 1 0 3 3 3 3-1l4-4q6-5-4-3m16 2v2q-3 1 1 3 3 0 2 4l1 4 1-1a2 2 0 1 1 3 0l1 2q3-2-1-5c-3-1-5-7-4-8q2 0-1-2t-3 1m435 2q0 3 3 4l2 3 2 3c3 2 2 9-1 13l-1 2h1l2-3q3-3 2-5t2-2q3 2 1-1l1-2q2 1 2-1 2-1-3-1l-4-1-2-3q-3-2-1-3 2-2-2-2-3 1-3-2-1-2-1 1m-336 2 1 9 1 6 1-5q2-3 3-1c0 2 6-3 6-5q-1-4-4-1-2 4-3 1h-1l-1-2q0-3 2-1l2-1-4-2q-4 0-3 2m61 5 2 4 3 4a2 2 0 1 0 3-1v-3l2 1q0 3 2 1 2-3-6-4h-3l-2-2zm276 0v3l-1 2-1-2q0-2-2-1l-3-1-1-1q-3 1 2 3 2 0 2 3l1 3v4l-1 2q0 3 3 0 3-2 1-5-2-5 0-3 3 2 3-4-2-5-3-3m-339 2-7 1q-4-1-5 3l-1 2v3h-1l-2 3-1 2a1 1 0 0 1 0 3q-2-1-4 1-5 4-1-2l1-3q-5 0-6-4l-2-2-2-1-1 1q-1 5 3 5 4 2 4 5-1 3-3 1v-2q2-2 0 0h-3q-1-3-2-1-2 2-3-1v-1l1-1q1-2-1-3-3 0-1-1l1-2q-3-2-3 3-1 2-3 0l-3-1q-3-2-1 1h2l2 2 3 2 1 1-2 1q-5 0-1 2 3 3-1 4-3 1-4-1h-2q2 2 5 2l2 1v2l3 3 2 2-3 2q-4 4-1 2l4-3q2-3 3-1l3 2 1 2h2l1-3a2 2 0 1 1 3 1c-1 1 0 6 2 6v2l1 3 1-2 1-4v-2q-3-2 4-5l3 1 2 2 2 2h-1l-1 1q1 5-3 6l-1-2q0-3-1-1v10q1 6 4 4l2-2q6 0 5-3v-1h3l1-1-1-2q-2-3 1-5l1-2 1-3 1-1h-2l-2-1 1-1 1-3-1-3a1 1 0 0 1 1-3l2 1v4l1 3 1-5q0-5-1-4 0 3-5-1v-3l1-3q1-3-3 0-4 4-4 0-1-2 1-1l3-1q2-2-1-2-4-1-4-5h3l5-5q2-3-1 0m254 6v5h-11c-11-1-11-1-10 1v3h11l11 1v-16zm-327-4-2 1 1 1h2q1 2-2 2v2c3 4 10 4 10 0h-3a2 2 0 1 1-1-2l1-2h-1q-2 2-2-1 1-3-3-1m124 1-3 4a1 1 0 1 1-2-1l1-2-1 1-1 1q-4 1 0 5l2 3q0 3 2 2 2-2 1-5-1-4 3-3 3 2 1-1-3-2-1-4 3-3-2 0m274 0q-1 5 1 2h2q2 1-1 4-2 3 1 3 2 2 0 5t-5-4q-1-3-3-2v3q2 0 2 3l2 4q0-3 5 0 4 3 0 8c-3 2-5 10-4 11q3 6-3 1t-1-5l2-4 1-5q3-1 0-3-4-1-3 1 1 4-1 5-5 0-5 3l2 2q2 0 1 2l1 2 1 3 4 3 4 1 2 3q2 1 2 3h-2l-2-1 1 2h3l1 1q0 3 6 5 3 1 1-2-4-3 0-3l3-1h-3q-4-2 1-2l3-1v-1l-1-1-2-4-2-2v2l1 2a1 1 0 1 1 0 2l-3 2-2 1v-1q2-4 0-3h-2q-1-1 2-2 4-2 1-2-4 2 0-2 3-2 1-3v-8l-1-5q1-3-2-1 0 2-2-1v-5l-2-2 1-1q2 1 2-3 2-7-1-6v-2q0-3-3-1h-2q-3-3-2 0m-359 16q2 3-2 2-2-2-2 2 0 3 1 1t1 1q0 5 2 1l2-3q4-1 1-5-3-3-3 1m24-1-2 1q-3 0-1 1l1 2 1 5q3 5 2-1l2-1q7 1 4-5-4-3-7-2m-60 1q0 2-2 1l-2 1 5 3 1 1a3 3 0 1 0 3-5q-5-3-5-1m422 1-1 1-2 1q-1 2-3-1l-1 1-2 2q-3 1-4 5l2 2 1 1 1 5 1-1q0-3 2-3l3-1h-2l-1-1a8 8 0 0 1 10 1l-3-4-1-1q-3-3-5 0 0 4-3 1 0-3 6-4 5-3 3-5zm6 11v7l-1 2q-2-1-2 2-1 4 2 4 1-2 1 1-1 2 1 3 4 1 1 4-2 3 1 4c2 0 1-26-1-27zm-395 6-1 4c-2 1-3 7-1 7v-3c-1-2 3-1 4 2l3 2v-2c-3-3-3-9-1-7q3 4 2-2-4-6-6-1m383 0q0 3 2 3a1 1 0 1 1-1 1q-3-3-3 3 0 4 3 3l4-1 1-3 1-5q1-2-2-1l-4-1q-1-2-1 1m-43 1q0 5-5 5-3-1-3 4v5q3 2 3-4 0-5 3-4l2 1q1 5 5 3 10-7 8-8l-1 1-2 2-2 2h-3q-1-2-1 1t-1 1l-2-3q-2-3 1-3 3 1 2-2c0-2-4-3-4-1m20 15-1 7q-2 5 3-1l2-2-1-1q1-2-1-3l-1-3-1-2zm-12 1v7q2 7 5 3 2-1-1-3c-2-1-3-5-1-3l1-1-2-1-2-1 2-1v-3q-3-3-2 3m-103-1c-1 2 4 3 25 4h20c0-3-1-4-16-4l-14-1-7-1q-9 0-8 2m-100 7q-7 3-4 6 3 2 3-1l2-2 7-3h2v3l-2 2h1q4-3 7-1h2v-2h2l1 2 1 2q2 2 1 4l1 4q3 2 2 7-1 9 2-6c2-16 3-15-9-16-13-1-12-1-19 1m-120 0-2 1 2 1 4 1 3 3q2 3 2 1l1-3-3-3q-3-3-7-1m226 16-36 9q-11 2-8 5l1 6v4l5-1h5v14l1 17c2 3 2 3 2-8l1-17v-7h21q4 0 4-3 1-4 10-4l1 16c-2 43-2 39 0 45l3 6v-3c2-10 2-22 0-23v-1c3-2 3-24 0-26l-2-2 2-1q4-1 3-6v-6h6q6 0 5-1l-1-2 2 1c2 3 12 3 13 0q2-1-3-1-6 1-6-2 0-2-1-1l-1-1-1-4q-1-2 4-1l4-1h-3l-2-1zM4 506l6 6q2 1-1 3-3 3 0 3 4 2 4-1l3-1q14 3 11-2l-4-2-11-3q-6-4-8-3m504 2q-2 1 1 2l1 1-3 1q-3-1-2 2 0 4-1 2-3-2-2 1l-1 3q-3 1 0 7 3 7 0 6v-1l-1-2-4-3-3-1-1-2c-1-4-6 0-5 4a6 6 0 0 0 7 7l-2 2-2 2-1 3q-2 1-2-4 1-7-1-2l-3 2q-5 0-1-2l1-2h-2v-2l2-3 1-1v-4l2-4q3-3 1-4l-1 2q-2 7-8 7-2 0 2-4l4-7h-1q-2 4-3 1l-2-2v1q4 4-1 6-6 2-2 6l1 2 1 6q4 13 6 10 3 0 1 2h-3a4 4 0 1 0-2 5q5-3 4 4 0 4 1 1t2-1v7q0 4-1 2-1-3-3 0l-3 2-2 1h-2q-2-1-3 1h-1l2-2v-5l-1 2v1l-1-3a2 2 0 1 0-3 1l2 2h-3q-1-2-1 1l-2 2q-3 0-1-2v-7l-1-3q0-3 2-1 4 4 4 0l1-2v3q0 3 1 1 4-4-2-6-3-1 0-6 1-1 2 3l1 2q1 1 1-2l-1-4-1-1q-4 0 0-4 3-2 0-5h-1q1 1-1 3l-1 3-1 2-1 2-2 2q-3 0-1-1 2-3-4-4-7 1-2 7l2 1-2 1q-4 4-4-2l-1-2-1-1v1q1 2-4 2l-5-1h-1q0 3 7 4 8 1 7 4h2l1-2q0-3 2 1c3 5 2 14-1 12q-4 0-4 6-1 6 1 2l1-3q1-3 4-2v1h5q6-4 5 1 0 2-1 1l1 2 3 3 2 1q3 4-1 2l-3-1-1-2h-1l1 8v-1a2 2 0 1 1 3-2l4 1q4 0 4 2 0 3 2 2h4l4 3 2 3v-3q-1-5 2-1l1 7q-1-2-1 1l1 3 2 1 1 1 1 1 3 2q1 2 1-1l1-3c3 0 3-8 0-9q-3-1 0-2v-1l-2-5q0-4 1-2l2 3 1 2 1-2v-4q2-5 3 3l1 5v-6l-1-5-2-2 2-1q1 3 1-8l-1-8q-2 1-2-1l2-1q2 0 0-2v-4c1-3-1-7-2-4l-2 1q-3-1 2-3c3 0 3 0 3-12l-1-15 1-5q-1-6-4-4m-52 5q0 4 2 3 3 0 0 5-2 1 1 1 2-1 3 2v2q-2-1-2 1l1 2 2 4q3 5 4 2v-2l-1-2 2-1q2 1 2-1h3l1 2-2-3c-2-3-2-9 1-8q2 1 1-2 0-3-1-1h-2q-2-2-2 2c-2 5-8 2-8-3q0-5-1-3-2 3-3 0zm-174 6-1 10q-1 2-2-2l-1-4-1 2v1l1 4 2 3v4l1 3 1-7 2-12-1-5zm165-1v1l1 2q-1 4-3 1-3-3-5-2l1 1 2 2 2 2 2 1-2 1h-3l-2-3q-3 0-2-3v-2l-1 3q0 5 2 3c2 0 1 4 0 4q-3 1-4-5l-1-3q-1-2-1 2v6l4 3q3 3 3 1l-1-2h1l4-1 4-3 2-4q-1-7-3-5m-283 10q-4 6-1 8h2l1 2-2 2v2q4 1 3-5l2-4q3-5-1-2l-3 2q-2-1 1-4l1-2zm62 3-3 1h-8q-3 2-1 2h5l-2 3q-4 4-3 7h1l2-1h1q-1-3 3 0 3 3 4-1l-1-3q-2-3 2-5 4 1 2-3zm-71 3-2 4h1q1-3 3 0l1 2q-3 6-1 8 4 4 4-2 0-3-1-1-2 5-2 0 0-3 2-3 3-1-1-5l-2-3zm46 2 1 3v1l-1 2-2 1q-5-1-1 3l1 2q-1 3 1 2l2-1q-1-6 1-5l3-1 2-2 3-2q2-4-1-1l-3 2 1-2q2-1-1-1l-2-1q1-2-1-2-3 0-3 2m234 1q0 5-7 3v1l2 3q0 9 2 2 1-3 4-4 5-5 2-6-3-2-3 1m-329 10c-1 3-8 9-11 10q-4 0-1 2l1 1c0-3 4-3 4 0q3 2 4-6-1-3 3-2t2-3q-1-5-2-2m152 2v7q-2 2-3-2l-2 1-3 2-2 1-3 1-3-1 1-1 2-2-3 1q-3 1-2 2v3q-2 3 2 4 1-1 1 1 1 6 3 8l3-2 2-2 2 2q3 2 0 3v4l3 1 2 2 2 1c2 0 7 4 7 6q2 5 3 1 1-5 4-2v-1l1-2v-4q2-1 3 3 0 4 1 1 2-5 0-5-5-1-3-5c2-2-1-9-3-9q-3 0-1 1l1 4v3q0 5-4 6l-3 1h-6q-5-4-1-6 3 1 2-2 1-4-2-2h-3l-3-2q-2 1-2-3v-1a3 3 0 0 1-5-1l4-3q4-5 5-2 1 2 4-1 4-4 0-7zq2-2 0 0m-106 6q-2 5-5 3v-1l2-1-2-1h-4q-4-1 0 2 3 2 1 7v5l2-4 1-3 3 2q4 7 3-4 1-11-1-5m-69 5q-1 3-4 3t-4 3c0 4 7 4 7 1q0-2 2-2 3 1 1-2l-1-2v-2q-1-1-1 1m261 20v15l5 1h5l-4 1-4 1h5l5 1 1-17 2-16h-15zM25 570v2l-1 2-3 2-2 1q-5 0-2 4h2l2-2 2-1 2-1q5 1 3-1l-1-4q-1-5-2-2m393 2q2 1-1 1l-2-1-2-1 2 4q3 2 2 3l-2-1-2-1q0 3 4 4a1 1 0 1 1-2 1q-3-2-1 1l2 3q3 2-2 6l-2 3 3-2q4-4 4 0l1 1 1-3q0-2-1-1l-1-1q1-2 5-2c2 1 0-4-3-5l-2-2q1-2 5 1l3 2v-3q0-3-2-2-3 0-4-5l-2-2q-3 0-1 2m-292 5-2 4q1 5-2 2h-1l-4 1-5 2-3 2 1-2 2-3q1-3-3 0-1 3-5 2-2-1-2 3v3c-1 0-2 5-1 6 1 2 9 1 10-2q0-3 2-1 3 3 6-3 1-3 1 1-1 3 1 2 2-2 1 3h1q3-3 3 3 0 3 2 3 4 1 0 4v2l4-3 3-3 2 2 2 2v-10h-2l2-2 1-2q0-3 2-3 3-1 0-3l-3-5q0-2-4 1-2 3-3 2l-1 2q-2 3-3-4l-1-4zq3-4-1 0m103 0q-3 2-1 3h-1q-5 0-2 2 2 1-1 2h-4c-2-1-7 2-7 4q0 2-2-1l-2-2q-4 7-1 8 2-1-1 6v2h-2l-2 1v4l2-1q2-3 4 2 2 6-1 4l-1-4q0-4-2 0l-2 1-2 1q0 2-3 1l-4 1h-1l-3-1q-4 1-1-2 3-4-2-4h-2l2-1 2-1-2-2-2-2h2q3-1 1-3-1-3-2-1l-3 1-2 1-1 1q-5-1 0 3 5 6 0 4c-4-3-8 2-4 6l2 3-5-2q1-3-3-2c-4 0-7 6-3 7l1 2q1 4 3 1h5l-1 3-1-1-1-2-1 2 1 3 3 1q2 0 1-1l1-3q2-2 3 1 5 14 8 4 1-6-3-5-3-1 2-3h-2q-4 0-2-1l4-2q4 1 1 4-2 1 1 1t1 1q-3 3 1 4l2-2h1l3 1h5q2-3 3-1h4l3-1 2-3 1-2v-4q3-4-1-3c-2 2-4-5-2-7q2-3 3 1l-2 2-1 1 3 1 2 2h9l2-1h3q3 2 5-5 1-5-2-3-5 0-2-2l1-2h-2q-2 3-2-1l-1-2-1-4q0-2-2-2t-1-1l3-2q0-2 2-2v-1l1-3 2 1 2-1q4-4-2-3-2-1-4 1m207 0-3 1q-3-2-5-1l1 1 2 2 1 4q2 3-2 1-3 0-1 1l3 2v1q-2 4 1 7l1-2q2-5 4 1l-1 3v1l1 2v2l2 5q1 5 1-1l1-4 1-3q0-7 2-5l1-2 1-2 1-1-4-2q-6-1-1-4 3-1 4 1 1 3 5 2 5-2 0-4-4 0-2-2v-3l-1 2h-3l-1-1q1 3-3 1l-3-3q1-3-3 0m-241 6-5 5a2 2 0 0 1-2 3c0 4 7-1 9-6v-3zm-108 5-2 3 2 1v2q-4 3 0 4 2 1 1 2l1 2 1-1 1-1q4-3 1-4-3 0 0-4 2-2-1-4-2-3-4 0m33 16 1 2q1 1-3 3l-4-2q-2-2-3 2h1q3-1 2 2-2 3 1 1h2q3 2-1 2l-3 1 3 1q5-2 5 3 0 3 1 1l2-3q2-2-2-3c-2 1-2-5 1-7l1-2-2-1a1 1 0 0 0-2 0m230 7q-3 1 0 1l3 5q2 7 3-3 0-6-6-3m161 6-4 2-2 2 1 5q2 7 3 2l2-2 1-6q-1-8-1-3m-289 8c-1 2 2 7 3 7v1q-2 3 1 3l1-4 1-1q3 0 1 4-1 1 2 4t3 0l2-3q2-3-3-3-3 1 1-2 6-4 2-5-3-3-3 0h-2q-3-1-4 2l-1-1q-3-3-4-2m-181 2-2 4-1 2h-1q2 4 8 3l1-3-1-6q0-4-4 0m24 3-1 3a5 5 0 0 0 3 6l1-2q4-3-1-7l-2-3zm65-1q-4 3-2 6h2l3-2q5 0 5-2h-1l-1-1q-1-3-6-1m-56 5-2 3-1 1-2 2-1 4v2h-1c-1 1 1 6 2 6l1 2h1l4-1 5-1a8 8 0 0 1 8 1l1-1v-3l-1-1-4-1q3 1 2-1t-3-1l-1-2q0-2 2-2 4 1 1-2l-4 3q-2 3-5 2c-2-1-3-6 0-6l1-2 2-2q3-1 0-2l-3-2zm289-4-9 2q-10 0-7 2 2 1 2 10l1 8 5-1h11l8 1-12 1q-18 1-11 5l3 8c3 15 4 17 5 17 2 0 3-10 3-22q0-7 2-6c3 0 4 13 1 25q-1 3 2 3t3-22q-1-8 10-6l3 1v27h6c8 0 8 0 8-11l1-24 1-16zm-147 8-2 1v1q0 3-3-1h-3l-2 1-3 2-2 1v3l3 1q3 2 4 1 3 0 1 1-2 3-4 1c-2-3-8-2-8 1 0 2 5 3 6 2h2q1 2-2 2-3 1-1 2l4 1 2-1 1-2v-2q0-2 2-2 4 1 2-3-3-5 1-7l2-1h2q3 2-1 3-6-1-4 3h3l2-2 2-1h3q2 1-1-5zm-56 4v3l1 4q-2 3 1 1v-3l-1-3c0-2 3 3 3 5l1 2h3l4 1 5 1q3 4 2 0l-3-2q-2 0-1-1h-4q-3 2-3-1l-2-2q-2-1 2-1h3l-1-1-2-2-1-1q0 2-2 1l-1-1-2-1zm-69 2q-1 2 1 3l2 1q6 4 7 1l-2-3-1 1-1 1-1-2q-2-5-5-2m410 10q1 7-2 6l-1-1c0-3-2 2-2 6q0 4-2 3l-1 1 2 1 4 2q2 2 2-1l-2-3q-2-2 3-1 3 2 2-3l2-6v-2q-2 1-2-1-1-3 2-3 3-1-4-4-3-1-1 6m-254-1-1 13v11h11v-7q0-7 2-9l2-6q0-7-2 2 1 7-4 3-5-2-3-5 3-4 3 0 1 4 2-1c1-4-9-4-10-1m89 11q1 8 2 1l1-4c2 0 1 14 0 17q-3 3-1 3h1q0 3 5 2h4v-4l1-12v-8h-14zm64 1v14l1-11 1-5 1 5q0 6 2 5c2 0 2-12-1-12q-4-3-4 4m25-4q-2-1-2 6t1 2l1-3v3l1 7v3l1-3q1-3 1 1l-1 4q-3 2 4 2h4v-4l1-8q2-6 2 7 0 5 1 1l1-4v3l1 5 1-11v-11z" mask="url(#16282281824-posters-1720119797893-horizontal-mask)" itemprop="bold" fill-opacity="0.90" fill-rule="evenodd" stroke="none" fill="url(#16282281824-posters-1720119797893-vertical-bold)"></path></pattern><rect id="16282281824-posters-1720119797893-pattern-render" fill="url(#16282281824-posters-1720119797893-pattern)" width="100%" height="100%"></rect></defs><radialGradient id="lightbar" cx="50%" cy="200%" fy="0" r="201%"><stop offset="0%" style="stop-color: rgb(255, 255, 255); stop-opacity: 0.1;"></stop><stop offset="10%" style="stop-color: rgb(0, 0, 0); stop-opacity: 0.1;"></stop><stop offset="30%" style="stop-color: rgb(0, 0, 0); stop-opacity: 0.3;"></stop><stop offset="90%" style="stop-color: rgb(0, 0, 0); stop-opacity: 0.55;"></stop><stop offset="100%" style="stop-color: rgb(0, 0, 0); stop-opacity: 0.6;"></stop></radialGradient><g class="radial"><radialGradient id="16282281824-posters-1720119797893-radial" gradientUnits="userSpaceOnUse"><stop itemprop="radial" stop-color="#507191" offset="0%"></stop><stop itemprop="radial" stop-color="#6f91b3" offset="15%"></stop><stop itemprop="radial" stop-color="#6a8caf" offset="30%"></stop><stop itemprop="radial" stop-color="#839bb9" offset="45%"></stop><stop itemprop="radial" stop-color="#8ca3c0" offset="60%"></stop><stop itemprop="radial" stop-color="#748baa" offset="75%"></stop><stop itemprop="radial" stop-color="#535f65" offset="90%"></stop></radialGradient><radialGradient id="16282281824-posters-1720119797893-radial-background" gradientUnits="userSpaceOnUse"><stop stop-color="#c0cfdd" offset="0%"></stop><stop stop-color="#c0cfde" offset="15%"></stop><stop stop-color="#c0cfdd" offset="30%"></stop><stop stop-color="#c1cddc" offset="45%"></stop><stop stop-color="#c0cddd" offset="60%"></stop><stop stop-color="#c3cdda" offset="75%"></stop><stop stop-color="#c8d1d5" offset="90%"></stop></radialGradient><radialGradient id="16282281824-posters-1720119797893-radial-light" gradientUnits="userSpaceOnUse"><stop stop-color="#7b9ab7" offset="0%"></stop><stop stop-color="#7999b9" offset="15%"></stop><stop stop-color="#7a99b8" offset="30%"></stop><stop stop-color="#7c96b6" offset="45%"></stop><stop stop-color="#7b96b7" offset="60%"></stop><stop stop-color="#8196b1" offset="75%"></stop><stop stop-color="#8f9ca3" offset="90%"></stop></radialGradient><radialGradient id="16282281824-posters-1720119797893-radial-regular" gradientUnits="userSpaceOnUse"><stop stop-color="#5b81a4" offset="0%"></stop><stop stop-color="#5880a7" offset="15%"></stop><stop stop-color="#5980a6" offset="30%"></stop><stop stop-color="#5c7ca3" offset="45%"></stop><stop stop-color="#5b7ca4" offset="60%"></stop><stop stop-color="#617b9e" offset="75%"></stop><stop stop-color="#73848c" offset="90%"></stop></radialGradient><radialGradient id="16282281824-posters-1720119797893-radial-medium" gradientUnits="userSpaceOnUse"><stop stop-color="#385066" offset="0%"></stop><stop stop-color="#374f68" offset="15%"></stop><stop stop-color="#374f67" offset="30%"></stop><stop stop-color="#394d65" offset="45%"></stop><stop stop-color="#384d66" offset="60%"></stop><stop stop-color="#3c4d62" offset="75%"></stop><stop stop-color="#475257" offset="90%"></stop></radialGradient><radialGradient id="16282281824-posters-1720119797893-radial-bold" gradientUnits="userSpaceOnUse"><stop stop-color="#212e3b" offset="0%"></stop><stop stop-color="#202e3c" offset="15%"></stop><stop stop-color="#202e3c" offset="30%"></stop><stop stop-color="#212d3b" offset="45%"></stop><stop stop-color="#212d3b" offset="60%"></stop><stop stop-color="#232c39" offset="75%"></stop><stop stop-color="#292f32" offset="90%"></stop></radialGradient></g><g class="vertical"><linearGradient id="16282281824-posters-1720119797893-vertical" gradientUnits="userSpaceOnUse" x1="0" x2="0" y1="0" y2="100%"><stop itemprop="vertical" stop-color="#55799b" offset="0%"></stop><stop itemprop="vertical" stop-color="#6f91b3" offset="15%"></stop><stop itemprop="vertical" stop-color="#7a94b3" offset="30%"></stop><stop itemprop="vertical" stop-color="#89a0be" offset="45%"></stop><stop itemprop="vertical" stop-color="#647282" offset="60%"></stop><stop itemprop="vertical" stop-color="#527698" offset="75%"></stop><stop itemprop="vertical" stop-color="#6f91b3" offset="90%"></stop></linearGradient><linearGradient id="16282281824-posters-1720119797893-vertical-background" gradientUnits="userSpaceOnUse" x1="0" x2="0" y1="0" y2="100%"><stop stop-color="#c0cfdd" offset="0%"></stop><stop stop-color="#c0cfde" offset="15%"></stop><stop stop-color="#c1cddc" offset="30%"></stop><stop stop-color="#c0cddd" offset="45%"></stop><stop stop-color="#c8ced5" offset="60%"></stop><stop stop-color="#c0cfdd" offset="75%"></stop><stop stop-color="#c0cfde" offset="90%"></stop></linearGradient><linearGradient id="16282281824-posters-1720119797893-vertical-light" gradientUnits="userSpaceOnUse" x1="0" x2="0" y1="0" y2="100%"><stop stop-color="#7b9ab7" offset="0%"></stop><stop stop-color="#7999b9" offset="15%"></stop><stop stop-color="#7d96b5" offset="30%"></stop><stop stop-color="#7b95b7" offset="45%"></stop><stop stop-color="#8498ae" offset="60%"></stop><stop stop-color="#7a9ab8" offset="75%"></stop><stop stop-color="#7999b9" offset="90%"></stop></linearGradient><linearGradient id="16282281824-posters-1720119797893-vertical-regular" gradientUnits="userSpaceOnUse" x1="0" x2="0" y1="0" y2="100%"><stop stop-color="#5b81a4" offset="0%"></stop><stop stop-color="#5880a7" offset="15%"></stop><stop stop-color="#5d7ca2" offset="30%"></stop><stop stop-color="#5b7ba4" offset="45%"></stop><stop stop-color="#6f7f90" offset="60%"></stop><stop stop-color="#5981a6" offset="75%"></stop><stop stop-color="#5880a7" offset="90%"></stop></linearGradient><linearGradient id="16282281824-posters-1720119797893-vertical-medium" gradientUnits="userSpaceOnUse" x1="0" x2="0" y1="0" y2="100%"><stop stop-color="#385066" offset="0%"></stop><stop stop-color="#374f68" offset="15%"></stop><stop stop-color="#3a4d64" offset="30%"></stop><stop stop-color="#384c66" offset="45%"></stop><stop stop-color="#454f59" offset="60%"></stop><stop stop-color="#375067" offset="75%"></stop><stop stop-color="#374f68" offset="90%"></stop></linearGradient><linearGradient id="16282281824-posters-1720119797893-vertical-bold" x1="0" x2="0" y1="0" y2="100%"><stop stop-color="#212e3b" offset="0%"></stop><stop stop-color="#202e3c" offset="15%"></stop><stop stop-color="#222d3a" offset="30%"></stop><stop stop-color="#212c3b" offset="45%"></stop><stop stop-color="#282e34" offset="60%"></stop><stop stop-color="#202e3c" offset="75%"></stop><stop stop-color="#202e3c" offset="90%"></stop></linearGradient></g><g class="horizontal"><linearGradient id="16282281824-posters-1720119797893-horizontal" x1="0" x2="100%" y1="0" y2="0" gradientUnits="userSpaceOnUse"><stop itemprop="horizontal" stop-color="#496474" offset="0%"></stop><stop itemprop="horizontal" stop-color="#5c8199" offset="15%"></stop><stop itemprop="horizontal" stop-color="#597b91" offset="30%"></stop><stop itemprop="horizontal" stop-color="#748da4" offset="45%"></stop><stop itemprop="horizontal" stop-color="#7e94ae" offset="60%"></stop><stop itemprop="horizontal" stop-color="#70869e" offset="75%"></stop><stop itemprop="horizontal" stop-color="#545e5f" offset="90%"></stop></linearGradient><linearGradient id="16282281824-posters-1720119797893-horizontal-background" gradientUnits="userSpaceOnUse" x1="0" x2="100%" y1="0" y2="0"><stop stop-color="#c3d2da" offset="0%"></stop><stop stop-color="#c2d1db" offset="15%"></stop><stop stop-color="#c3d1da" offset="30%"></stop><stop stop-color="#c4cfd9" offset="45%"></stop><stop stop-color="#c3cdda" offset="60%"></stop><stop stop-color="#c5ced8" offset="75%"></stop><stop stop-color="#ccd1d1" offset="90%"></stop></linearGradient><linearGradient id="16282281824-posters-1720119797893-horizontal-light" gradientUnits="userSpaceOnUse" x1="0" x2="100%" y1="0" y2="0"><stop stop-color="#829fb0" offset="0%"></stop><stop stop-color="#809eb3" offset="15%"></stop><stop stop-color="#819eb1" offset="30%"></stop><stop stop-color="#849aae" offset="45%"></stop><stop stop-color="#8297b0" offset="60%"></stop><stop stop-color="#8698ac" offset="75%"></stop><stop stop-color="#939e9f" offset="90%"></stop></linearGradient><linearGradient id="16282281824-posters-1720119797893-horizontal-regular" gradientUnits="userSpaceOnUse" x1="0" x2="100%" y1="0" y2="0"><stop stop-color="#62879d" offset="0%"></stop><stop stop-color="#60869f" offset="15%"></stop><stop stop-color="#61869e" offset="30%"></stop><stop stop-color="#65809a" offset="45%"></stop><stop stop-color="#627d9d" offset="60%"></stop><stop stop-color="#677e98" offset="75%"></stop><stop stop-color="#699396" offset="90%"></stop></linearGradient><linearGradient id="16282281824-posters-1720119797893-horizontal-medium" gradientUnits="userSpaceOnUse" x1="0" x2="100%" y1="0" y2="0"><stop stop-color="#3d5461" offset="0%"></stop><stop stop-color="#3b5363" offset="15%"></stop><stop stop-color="#3c5362" offset="30%"></stop><stop stop-color="#3e5060" offset="45%"></stop><stop stop-color="#3d4d61" offset="60%"></stop><stop stop-color="#404e5e" offset="75%"></stop><stop stop-color="#415b5d" offset="90%"></stop></linearGradient><linearGradient id="16282281824-posters-1720119797893-horizontal-bold" gradientUnits="userSpaceOnUse" x1="0" x2="100%" y1="0" y2="0"><stop stop-color="#233138" offset="0%"></stop><stop stop-color="#223039" offset="15%"></stop><stop stop-color="#233039" offset="30%"></stop><stop stop-color="#242e38" offset="45%"></stop><stop stop-color="#232d38" offset="60%"></stop><stop stop-color="#252d37" offset="75%"></stop><stop stop-color="#2b3031" offset="90%"></stop></linearGradient></g><g class="masks"><mask id="16282281824-posters-1720119797893-pattern-mask" maskUnits="userSpaceOnUse" maskContentUnits="userSpaceOnUse"><pattern id="pattern" x="0" y="0" width=".0133" height=".0144" viewBox="0 0 23.07 40"><path d="M17.62 0l-6.07 10.5m2.74 4.76L8.22 4.75m-5.48 0h12.13M.01 0h23.07M6.07 20L0 9.5m2.74-4.75l-6.07 10.5m-5.48 0H3.33m8.2 4.75L0 .02-11.54 20m40.68 0L23.07 9.5m2.74-4.75l-6.06 10.5m-5.49 0H26.4M34.6 20L23.08.02 11.53 20m-5.46 0L0 30.51m2.74 4.75l-6.07-10.5m-5.48 0H3.33m8.2-4.75L0 40l-11.54-19.98zM17.6 40l-6.06-10.5m2.74-4.76L8.2 35.25m-5.48 0h12.13M0 40h23.07L11.54 20.01m17.6 0l-6.07 10.5m2.74 4.75l-6.06-10.5m-5.49 0H26.4M11.53 20h23.08L23.07 40" stroke-linecap="round" stroke-width="3.5" stroke="white" fill="url(#16282281824-posters-1720119797893-horizontal-background)"></path></pattern><rect width="100%" height="100%" fill="url(#pattern)"></rect></mask><mask id="16282281824-posters-1720119797893-horizontal-mask" maskUnits="userSpaceOnUse" maskContentUnits="userSpaceOnUse"><rect width="100%" height="100%" fill="url(#16282281824-posters-1720119797893-horizontal-background)"></rect></mask><mask id="16282281824-posters-1720119797893-radial-mask" maskUnits="userSpaceOnUse" maskContentUnits="userSpaceOnUse"><rect width="100%" height="100%" fill="url(#16282281824-posters-1720119797893-radial-background)"></rect></mask><mask id="16282281824-posters-1720119797893-vertical-mask" maskUnits="userSpaceOnUse" maskContentUnits="userSpaceOnUse"><rect width="100%" height="100%" fill="url(#16282281824-posters-1720119797893-vertical-background)"></rect></mask></g><use href="#16282281824-posters-1720119797893-pattern-render"></use><g><use href="#16282281824-posters-1720119797893-background"></use><use href="#16282281824-posters-1720119797893-light"></use><use href="#16282281824-posters-1720119797893-regular"></use><use href="#16282281824-posters-1720119797893-medium"></use><use href="#16282281824-posters-1720119797893-bold"></use></g><!----></svg>