<svg id="16282281824-posters-1644271618199" itemscope="" itemtype="/posters" itemid="/+16282281824/posters/1644271618199" viewBox="0 0 683 512" preserveAspectRatio="xMidYMid slice" tabindex="0" xmlns="http://www.w3.org/2000/svg"><rect itemprop="background" width="100%" height="100%" fill="white" tabindex="-1" style="fill: rgb(213, 210, 154); color: rgb(11, 17, 131);"></rect><path d="M4 1l3 2H0l2 2v1C0 6 0 8 0 36v30h9c11 0 9 2-2 2H0v78c0 70 0 78 2 78l1-1v-1l2 2h2c1-1 1-1 1 1-1 2 1 3 3 2h3c1 2 1 2-3 2l-8-2c-3 0-4 3-1 5v2l-1 1 1 1c2-1 2 2 0 5-3 3-3 16 0 17v3l-1 2 2 1H2c-3 0-3 7 0 9v2c-2 0-3 4-1 6v2l-1 2h5c2-2 3-2 3 0l-1 1-1 1-3 4-3 1v107l1 107v1l-1 3v2h36l36-1c-1-1 1-1 4-1h6l-4 1 33 1 39-1c3-1-6-2-22-2h-14l9-1 39-1-5 1a1060 1060 0 00136 3l-39-2-49-3-22-1h-4c14-2 29-2 41-1l37 2 54 4 58 2c32 0 32 0-34-4l-85-6h37l68 4 15 1c19 4 76 5 196 5h118v-3c0-2 0-3-1-2l-19 2-20 1h-22l9-1 21-1 9-1 6-1 13-1h4V373l-1-129c0 4 0 4-3 3-4-1-15-1-16 1v61h19v6l-11-1a33 33 0 01-16-3c-2 0-2-1-2-10l-1-35v-25l3-1h4l-4-1c-3 0-3 0-3-3l1-3h29v-3l1-116V1L343 0 4 1m327 45a949 949 0 01-33 7l-3 1 3 1 4-1h1l5 1c5 1 7 3 3 3l6 2h2l-2-1c-2-1-2-1 1-1l4-1h2l3 1v-1c-2-1-2-1 1-1h5l7-1 5-1 4 3c2 2 3 4 2 5h3l-2-6c-3-6-3-9-1-6s11 5 40 12c5 1 9 0 7-2l-39-10-3-1-2-1-2-2h5l55 14c5 0 3-2-3-3l-52-13c-4-2-16-1-26 2m-48 10c-7 3-26 7-28 7l-2 1-5 1-23 5a2057 2057 0 01-78 17l-18 4a1395 1395 0 00-61 13c0 1 4 1 14-2l75-15a1904 1904 0 00104-23l32-8h-10m15 3L192 82a4297 4297 0 00-113 23l-9 4c0 1 6 2 12 1 7-1 8-2 2-2h-1 7c3 0 3 0 2-1-2-1-2-1 1-1 4 1 43-7 42-8h1a164 164 0 0035-7l14-3h2l2-1h2l3-1c-1-1 0-1 3-1h4c3 0 3 0 2-1s-1-1 3-1h4l4-1h2c3 0 3 0 2-1s-1-1 3-1h4c3 0 3 0 2-1h2c3 0 3 0 2-1s-1-1 2-1h6c3 0 3 0 2-1-2 0-1-1 2-2h4l-2 1-2 1 11-2 8-3h3l4-1h2l2-1c-1-1-1-1 0 0 3 0 11-2 13-4l4-1h5c2-2 4-2 6-1l3-1h1l3-1-3-1-4-1h-3m141 2a77 77 0 0019 16c0 2 6 7 10 10h-5c-9 0-12-1-13-3l-2-3v1c2 2 2 2 0 2-1 1-1 0-2-2-2-2-3-3-3 0 1 2 1 2-2 1-4-1-4-3-3-5v-5l-2 5-1 5 11 2 35 7-4-4c-5-4-5-5 3-2 9 2 13 2 12-1 0-2-1-3-2-3l-10-2a89 89 0 00-16-3l-2-2v-2l32 7c1-2-2-3-7-3l-26-7c-2 0-2 0-2 2l-3-2c-4-4-6-5-3-2l2 3-3-2-1-3a10 10 0 00-12-5M0 146c0 43 1 61 1 39a6847 6847 0 00-1-39m386-70l-11 3h3c17-4 28-3 38 2a707 707 0 0063 13l-20-5-41-10-20-5-12 2m-32 21l-1 1-4 4c-1 2-2 3-4 3-3 0-3 0-3 4s1 4-20 8c-9 1-10 2-10 3 0 2 1 2 2 2l26-5 2 2c0 2 1 2 3 2s2-1 2-3c-1-2 0-3 1-3l1 8c0 8 0 8-2 8a57 57 0 00-19 3c-2-1-16 2-16 3 1 5 2 5 17 3l17-3c3 0 3 0 3 3s0 3-1 2v-2l-2-1-15 3 2 1h-13c-7 1-8 1-8 3 0 5 2 5 19 2l16-3 1-1v63h3l13-1 9-1v-28c0-26 0-29-2-30-1-1-1-1 1-1 4 1 16-2 16-3l-9 1h-10c-1-1 1-2 7-3 12-2 12-2 11-5v-3l-6 1h-6v-4l-1-5c-4 0 1-2 6-2l7-2h-3c-5 1-15 2-16 1s2-2 10-3 11-2 10-4l-9 1c-7 2-10 2-15 1-7-2-8-3-1-3h3c-1 0-2-1-1-2l-3-2-4-1h4l4 1 1-3c0-3-1-4-2-4s-2 1-2 3l-1 2c-2 0-4-1-4-4 0-4-1-7-3-7h-1m44 1l-1 7c0 7-3 7-3 0 0-5-1-6-3-6h-2v22l1 21c3-1 3 1 1 3-1 1-2 4-2 29v28h6v-32l1-32v63h2c2 0 2 0 1 1-2 1-2 1 0 1s2 2 2-38c0-17 0-20-2-21-1-1-1-3 1-2l3-1c3-2 21 1 21 4h-3l-10-1-9-1c-1 1 0 2 9 3l9 1 1 19c0 25 1 32 3 32v1c-2 1-2 1 0 1 2 1 2 1 0 1s-2 0-2 14v13l-9-1-10-1-1-11c0-11-1-11-2-11l-3 1v22c1 1 0 9-1 9l-1-18v-13h-3l-2 1v21h-17v-19h-4l-8 1h-5l-3-1c-3 0-3 0-1 1 1 1 1 1-1 1h-3v63c0 54 0 62 2 62l1-1 2-1a2 2 0 001-3c-2 0-1-2 1-2 2-1 2-1 1-2-1 0-2-2 0-2 3 1 5 0 4-1l1-2-1-1c-3-1-3-1 2-1 4 0 5 0 5 2l3 2h3v-25l-1-26c-1-2-1-2 4-2l12-2-21 1h-5l-5-1h5l5-1c-3-4 33-4 71 1h18v-6c0-7 1-7-13-7h-8l9 1c6 0 9 2 3 2h-2l3 1 1 1-1 2c0 2-7 3-10 2l-5-1c-3 1-4 0-2-1l1-3h-1l-1-2 1-2v-1l-2-1-3-1h-19l9 1 7 2-1 2v1l-1 2c-1 2-2 2-5 2l-12-3 1-1c0-2-2-2-2-1-1 1-1 0-1-2l1-3-1-1c-5-2-5-2-5 6l-1 6-1-6c0-7-1-8-3-6-2 1-2 2-2 6l1 6h-20l1-3 1-5v-1h-3l-3-2h-6l-3-1h3c5 0 4-3-1-3l-4-1h4c4 0 4 0 4-2-1-4-3-3 28-6l18 1c8 2 17 3 42 5l12 2c-3 1 0 2 9 2l18 2a176 176 0 0023 2h-5v-28l1-30c2-2 8-1 11 1l4 3-1 15c0 11 0 13-1 10l-1-13v-8l-1 13c0 13 0 13-2 13-1 1-1 1 1 1 5-1 5 1 5 14 0 9-2 13-2 5v-3l-1 4c-1 4 0 5 2 5l1 5c0 5 0 6-2 6s-2 0-1-1a4 4 0 000-4c0 1-1 2-4 2a7 7 0 00-8 5v1c1 2 0 2-3 2h-4l-2-1-2-1c0-5 0-7-2-7-2-1-8 3-6 3v1l-1 2c0 1-4 2-9 0-2 0-2 0-1-1v-2l-1-3c0-2-3-5-4-3l-1 6-1 6-1-5c0-6-1-8-4-7l-1 6v5l-3-1-3 1 8 1 47 5a3 3 0 00-3 3l2 2c1 1 2 0 2-1l2-1 2 2 2 1 32 3c1 1-1 1-5 1l-38-2 11 2 19 1c20 3 24 3 33 3l16 1c14 2 19 2 19 1l-10-2c-13-1-16-2-4-1l13 1 3-1-10-1-11-2h15l-2-2-1-3v-3c1-3 1-3-2-3l-2-1h2l3-1-2-36v-36h4l5-1v5c-1 4 0 5 7 3 3 0 3 0 3-4-1-5 2-9 6-9 2 0 3 0 2-1 0-1-12 0-17 2l-4 1 1-1 1-2c0-2 1-2 9-2 11-1 42 4 43 7 0 3 3 3 4 1s2-2 9-2h8l-1-1v-1c1-1 0-1-4-1h-3c2-1-1-1-8-1-9 1-13 0-24-2-12-3-13-3-23-2-9 1-10 1-12-1-4-2-6-3-6-1h-2l-8-1-7-1h7l8-1c0-3-10-3-30-1l-22 2 17-3 18-3c-1-1 0-1 4-1h14l-5-1c-3-1-6-2-10-1l-14 2c-20 2-32 5-31 5l-12-1c-4-2-21-3-23-2s-2 1 1 1c2-1 14 1 24 3l9 1c6 0 6 0 0 2h-4l3 2c3 1 3 1 1 1a6 6 0 00-6 3c-2 1-2 1 3 1l5-1 3-1c3 0 3 0 1 1-3 0-4 2-1 2 1 0 2 2 2 37l-1 25-1-11v-3c1-3 1-21-1-23l-6-3-4-1 7 1 2-1h1c1 0 2-7 1-13v-4c0-2-2-3-8-3-7-1-8-2-5-6v-3c-2 0-6 4-6 7v2l-4-2c-3-3-4-3-8-2-3 1-4 1-4-1h-5c-7 0-7 0-7 7 0 5 0 5 2 5l4 1h-4c-3 0-5 0-4 1 3 0 3 6 0 6l-2 1h2c3 0 3 14 0 14-4 0-4-1-4-18s0-15-6-15h-5l5-1 11-2c6-1 5-1-3-1-4 0-4 0-3-1 2-3 1-19-2-20-1-2-1-2 1-2s3-7 2-23l1-12 1-4c-1-2-10-1-10 2 0 2-1 2-3 2-5 0-7-1-8-5s-3-5-5-4l-2 1-2 2c0 2-1 2-4 2s-5-3-3-4v-1c-2 0-1-12 1-12 1-1 1-1-2-3-1-2-3-2-4-2h-1c-2-1-4 2-4 6v3l-5-1-8-2c-2-1-3-2-3-4l-1-4-1-3c-1-2-2-2-4-1-4 1-4 1-4 5s0 4-2 4l-9-2-6-1-1-5c-1-5-3-6-5-3m199 1l-14 9c-13 9-22 17-14 12l3-1v3c-1 4 1 6 3 3 0-1 1-2 3-2l2-1c-1-4 2-8 5-6 2 1 2 4 1 5h7l1 2-1 2-6-1-4 1c1 1 0 1-2 1l-25 3-22 4c-4 0-4 2 0 3l11 2c8 3 36 4 35 2-1-1 2-2 8-2l10-18 9-18 4 1c6 3 7 2 4 0-4-4-4-4 2-1l4 4 1 1 9 2 5 1c2 0 2 0 1-2l-4-2-2-1c0-2-9-7-15-8h-7l-1 1-1-1c-2-2-5-1-10 2m-137 1c-1 1 0 1 1 1l2 1c-1 0 7 3 18 5 16 4 18 5 18 6-1 2 0 2 2 3 2 0 2 0 0 2l-3 1h-2l1 1v1h9v4c0 4 0 4 2 4l9 2c10 3 14 3 11-1-1-2-3-3-6-3-5-1-6-2-8-6-2-6-2-7 6-5 12 3 12 3 12 0s-5-5-12-3l-3-1h-16c0-1 1-2 3-2s2 0 1-1c-2-1-5 0-5 1l-36-10h-4m145 12l-9 16c-4 10-6 12-8 12l-2 1h9l22 6c3 0 4 2 1 4-2 1-3 5 0 5 2 0 1 1-7 9l-7 8c1 0 17-2 16-3l5-1c10 0 9 1 9-8v-8c1 0 2 10 1 14a10 10 0 0012-2h-2l5-3c7 0 8-1 2-1s-6 0-5-2l4-4c2-1 2-1 0-1-2 1-2 1 0-3l1-4 1-2c1 0 2-1 1-2 0-2-2-3-9-5-9-3-9-3-16-2l-5 1-4-5-12-21 4 4 7 12 6 8h5c4-1 8 0 14 2 10 2 12 3 12 0 0-1-1-2-4-2l-9-2-12-1-6 1-4-6-8-13c-5-8-4-8-8-2m-300 18v18c-1 2-1 2 1 2 4 0 4 0 4-15 0-22 0-21-2-21h-3v16m-22-6L71 160l-1-1-1-5v10c-2 3 2 3 15 1a32696 32696 0 0052-8c3 0-4 2-14 3l-32 6-21 2c-1-2-2 0-2 7s0 7 3 8l3 1c0 3 2 3 30-1l30-4h2l-29 5c-31 4-34 5-31 8 2 2 3 2 29-2l30-4-13 3c-46 6-45 6-45 9 1 3-2 3 33-2l27-3-29 5c-26 4-30 4-31 6l-3 3c-4 2 2 1 32-3l31-4c0 1-4 2-24 4-47 7-46 6-41 9 2 2 4 2 33-2l31-3-30 4c-36 5-35 5-35 7-1 3 0 4 1 2h4l4 1c7-2 54-7 56-7l-29 4-30 5 2 2 2 2 52-6h4l-26 4c-33 4-32 4-31 6 0 1 1 2 7 1 19 0 22 0 20-1-1-1-1-1 2-1h11c14-2 16-2 16-1l-12 2c-11 1-16 2-10 3l28-3 25-2v-47h5l10-2h4v23l-1 24h3l88-11 1-1c0-1-3-1-38 3-45 5-49 6-50 5l25-3c71-8 63-7 63-11s1-4-25-1l-40 6-22 2c-2-1 1-1 46-7l41-5v-3c1-4 0-4-46 2l-42 5 5-1a12952 12952 0 0087-11c19-2 23-3 23-8 0-2 0-2-12-1a6513 6513 0 01-102 13l10-2 94-12a16 16 0 008-3l2-2-1-3-34 4a1490 1490 0 01-58 9c-3 0-3 0-2-1l4-1 2-1 1-1 3-1 3-2-1 2-2 2 4-1a2471 2471 0 0059-8c16-2 20-3 19-4l1-1c2 1 2 0 2-2 0-3 1-3-32 2l-36 5 31-6c41-6 37-4 37-8v-4l-22 4-56 8c-34 5-38 5-37 4l24-4 91-13v-4c0-3 0-3-3-3a3968 3968 0 01-58 9c-46 8-102 16-102 15l26-4 133-21c2-1 4-3 4-5s0-2-14 0l-149 23 5-1 147-24 11-2v-3c0-3 0-3-2-3s-2 0 0 1c2 2-1 3-4 1s-2-3 2-3c2 0 5-5 4-7l-26 5h-3c-2 0-3 0-2 1l-2 1c-1-1-16 2-33 4l-96 16c-2-1 1-1 48-9 58-10 68-11 67-12l1-1c1 1 5 1 25-3l21-5c0-1-4-1-20 2l-143 24c-2-1 1-2 43-9a3268 3268 0 00104-18c13-2 16-3 16-4 0-2 1-2-20 2m62-1l-17 3c-14 2-16 3-16 4 0 4 1 5 7 3l8-1c1 0 2-1 1-2l3-1a3 3 0 014 2l1-1a2 2 0 013-1 1 1 0 003 0h2c3 0 3 0 3-3v-4l-2 1m58 5l1 4 6 2c9 2 10 2 10-3 0-3-1-4-2-4l-14-3-1 4m28 2l-1 4c0 3 1 4 6 5 9 2 10 2 10-3v-4l-6-1-7-1h-2m25 6c0 8 0 8 3 8l3 1h-3c-3 0-3 0-3 4 0 2 0 3-2 3s-2 0-1 2h4c3 0 4 1 3 6 0 1 18 4 19 3l-2-1c-2-1-2-1 0-1l3-1c2-3 4-2 4 0 0 4 2 1 2-3l1-5-14-2-15-4 29 6 2-1-14-3-12-3v-2c0-2-1-2 11 0l12 2-11-3-14-4c0-2-1-2 12 1l14 2c5 0 0-2-12-4-16-3-17-3-17-6 1-1 0-2-1-2l-1 7m-168 2l-124 22-23 4 18-2c88-14 134-22 133-23l-4-1m41 12l-16 3-1 3c0 4-1 4 17 1 19-3 18-3 18-7l-1-3-17 3m98-1c2 1 2 2 2 17 0 14 0 16 2 15l1 4-1 4-2 1 2 1 1 1c0 2 1 2 6 1h6l-7 1c-6 1-7 2-7 3 1 2 0 2-1 3l-2 1h2c2 0 3 9 1 13v3l1 4c0 4 1 4 5 6l5 1-6-1c-5 0-6 0-5 1 0 1 1 2 3 2l10 1h6v-32l2-1c2-1 2-1 0-1l-3-1 2-1c2-1 2-1 0-1h-2v-41l-9-2a30 30 0 01-12-4h-2l2 2m-121 3l1 21-1 1c-1 0-2 0-1 1 0 2 7 1 25-1l16-3 1-4c0-3 0-3-3-3l-32 5v5c-1 1-1 1-1-1v-4l-1-10c0-7 0-8-2-8l-2 1m25 6c-21 3-19 3-19 6v4l18-3 17-2v-4c0-4 1-4-16-1m129 5c2 1 2 1 0 1l-2 1v17c0 15 0 17-2 17v1c2 2 2 4 2 18 0 22-1 20 12 22h6v-22c-1-23-1-23 1-23 2-1 2-1 0-1s-3-2 0-2v-1c-2 0-3-20-1-24 1-2 1-2-1-2-13-3-19-4-15-2m38 3c0 2 1 3 13 5a11717 11717 0 0132 5c1-1-1-3-4-3l-22-5c-21-5-19-5-19-2m0 11l-1 9c0 2 1 2 5 2h3c-3 0-2 2 2 2l3-1c-1-1 0-1 1-1v-1c-2-1-2-1 0-1 4 0 1-1-4-2l-6-1v-1h2c0-2-1-4-3-4a14 14 0 0111-2l-3 1-5 1 4 1c2-1 8 0 17 2l14 2-15-4-10-3 14 3 14 2h8c10-1 12-4 2-3-5 1-10 0-25-3l-24-5h-4v7m117-4c-10 1-11 2-11 3 0 2-2 3 23-1 15-1 22-3 13-3h-7c0-1-5-1-18 1m-283 2l-10 1 7 1c8 1 8 1-3 1-14-1-14-1-14 3s-1 4 19 1l14-3-3-1h2c2 0 3 0 3-2 0-3-2-4-15-1m215 0c1 2 15 3 29 2 14-2 11-3-11-3-17-1-18-1-18 1m89 5c0 3 0 4-2 4s-2 0-1-2c2-7 3-7-15-4-11 1-12 2-14 4-3 4-3 4 11 3l16 1 7 1h7c1-1 1-1-1-1-5 0-6-1-5-4l1-3 1-2c1-2 1-2-2-2s-3 0-3 5m-304 3c-11 2-11 2-6 2 3 1 2 1-5 1h-9v3c0 4 0 4 19 1l16-2v-3c0-5 1-4-15-2m-6 9c-13 2-17 3-11 3l7 1c2 1 1 1-4 1-5-1-6 0-6 1 0 2 1 2 9 2l9-2 8-1c8 0 9 0 9-4s-1-4-21-1m3 8c-14 2-15 2-6 4 4 0 6 1 7 2 0 1 1 1 13-1 4 0 4 0 4-4s2-3-18-1m228 1c-3 1-4 5-2 5s2 2 0 3l-1 12 1 12h11l11 1h-23v12l1 16v4h11l10 1-2 1 1 1c3 1 3 0 3-5l-1-33v-28l-3-1c-3-1-14-2-17-1m30 1c-3 1-3 2-2 18l1 14 3 1 3 1h-7v15c0 17 0 17 7 17 2 0 3 0 3 2l2 2c2 0 1-67-2-69-2-1-5-2-8-1m44 3l-1 2c0 2-1 2-4 2-5-1-10 0-6 1 2 1 2 1-1 1l-4 1h-3c-3-1-3 15 1 17l2 1v51c0 70 1 93 3 93l2-1 4-2c5 0 5-4 3-10l-2-5-2-2 1-1 1-1v-1c2-1 2-2 2-10l1-11c1-2 1-2-3-2-6 0-7-2-1-4l4-1h-4c-3 0-8-2-8-3l6-1c5 0 5 0 2-1h-4v-19c-2-34-1-85 0-85l18 3 31 3 14 1v-3c0-3 0-3-5-3-11 0-14-1-14-4l-1-3c-2 0-4 1-4 4 0 4-13 3-13-1 0-6-4-7-4-2 0 4-7 3-8-2-1-3-2-4-3-2m-325 11v5c0 2 0 2-1 1s-1-1-1 2l1 4 1 1a17 17 0 00-1 14v10l-1-1v4l1 8-1 2 1 2 1 4v3l-1 21v30l-2 2c-1 2-1 2 1 3s2 4 0 5c-1 1-2 10 0 11 2 0 2 4 1 4s-1 3 1 4v2c-2 1-2 4-1 6v4l-2 3h8l-1-5v-13c1-2 1-2-1-2v-2l1-2c1-1 1-1-2-1h-3l2-1c3 0 3 0 3-2v-24l-1-9v-28a212 212 0 011-27v-26c2-7 1-13-1-13l-3 1m-78 8l-43 5-1 5c0 5 0 5-3 5l-4-1h-2c-1 2-1 2-3-1l-1-3 2 2 1 1-2-4c-1-2-2-3-1-6l-1-5c-1-1-1 0-1 7l-1 10c-1 4-2 2-2-3v-5h-4l-26 3c-27 3-47 6-47 7l17-2 29-2-27 3c-32 4-31 3-33 7-1 3 0 3 26 0l34-3-29 4-30 3 2 1 2 1-1 1-2 1c0 1 1 1 31-1l24-2-49 5v2c2 3 6 3 27 2l24-2-22 3-22 2 1 1 2 2c-1 2 2 2 22 0l20-1-31 4c-7 0-8 1-8 2l1 1 2 1 3 1c3 1 28-1 30-2l2 1-15 2c-15 1-16 1-14 4 1 2 2 2 15 2h5l-13 2h-2l2 2 1 2 11 1h8l-8 1c-8 0-10 1-8 3l1 2 9 1c7 0 7 0 3 1-9 0-10 1-4 3l5 1-4 1c-3 0-3 0-2 2l2 5c0 6 2 9 5 9s3 0 1 1c-2 0-3 1-3 2l-1 4a6 6 0 005 8l-2 1-2 3c0 2 0 2-2 2-1-1-1-1-1 2v4l-1 5c0 8-1 12-3 12h5l6 1-3 1-3 1 4 3 1 2c1 1 0 1-4 1s-4 0-4 3v1l-1 1a6 6 0 007 0h1a6 6 0 01-4 11l2 3c1 3 1 2 3-3l2-1c1 1 1 0 1-4v-5h35c24 0 35 0 34 1l-33 1h-34l-1 2c0 3 1 3 6 3h60c-1-1-1-1 1-1h10l1 1c0 2 4 1 5-1l1-2v2c-1 2-1 2 13 2 10 0 13 0 12-1h1c3 2 7 1 7-2v-3h-20c-18 0-21 0-21 2l-2 1c-2 0-2 0 0-2l1-3h42v-6h-59l-59-1 70-1 48-1 1-3 2-3h-54l36-1h19l3-4 4-3h-62l39-1h23l3-4 3-3h-80l42-1 38-1 4-4 4-3h-8l-37 1-38 2-9-1 45-2 47-2c2-2 0-6-2-6l-46 1-44 2c0-1 17-2 52-3 37-1 43-2 43-3a1 1 0 00-3-1l-1 1 1-3 1-2h-19l-39 2-35 1 29-2c46-2 46-2 48-5l3-3-1 3-2 3 3-1h9c5 0 9-2 4-2l-1-3c1-2 1-2-2-2l-85 4c-3-1-3-1 2-1l75-4 9-1h2c2 2 3 0 3-3 0-4-7-4-10 0s-5 4-2 1l1-3h-5l-31 1c-40 3-50 3-46 2 2 0 19-2 39-2 45-3 44-2 47-6l2-4-43 2-45 3c-7 0 11-2 50-4l39-2 2-3c2-4 2-4-9-4a64249 64249 0 01-101 6h-5c1 0 15-2 32-2a4216 4216 0 0079-6h6v-4c0-3 0-3-2-3l-19 2-55 3-48 3 11-1a7449 7449 0 0085-6c28-2 28-2 28-5l-2-2a17 17 0 0113 1l-2 2 5 1c4 0 5 0 4-1v-1l-2-1-3-1h3c2 0 3-1 3-2a53 53 0 000-19l1-6c0-6-2-9-5-9l1-5c3-8 0-14-5-11l-2 1-1 2-1 4-1 2-1 2h1c1-1 2-2 3-1 2 2 3 4 1 3-1-1-1 0-1 1 0 3 1 4 3 2l4 2 3 3-3 4-5 8c-2 2-2 2-3 1v-3l-1-1v-7l-1-3c-1-2-2-1-2 3l-1 5 1 3c2 3 3 6 1 7l-2-6a2 2 0 00-4 0c0 3-3 0-4-3l-2-3-9 1-105 10-21 1c-3-1 1-1 42-5a7965 7965 0 0092-8c2 0 2-1 2-4v-3h-5a3115 3115 0 01-83 9l-50 4c-1-1 4-2 35-5a7888 7888 0 00101-9l2-1c0-3 3-5 7-5 3-1 3-1-1-1l-5 1h-1c-1-1-7 0-68 6l-20 2c0-1 4-2 28-4l40-4 20-3v-3l-1-3-36 4c-38 4-55 6-47 4l44-5c30-3 40-5 40-6s-1-1-48 4m117 0l-8 1c-7 0-7 0-7 3v3l-3-3c-2-3-3-3-3-2l2 3c2 0 3 3 0 3l-2 1c0 2 0 2 1 1v1c-1 2-1 4 1 3l1 1 1 4c2 1 3 4 3 5l2 1 8-1c6 0 8-1 4-4v-1l2-1c-1-2-1-2-11 0l-6-1 3-1c11 0 14-1 14-5v-3h-15l7-1c7 0 8-1 8-5 0-3 0-3-2-2m137 3v3c0 2 8 4 9 2 1-1 1-1 1 1v11c-2 0 0 5 1 6 4 3 5 1 5-10v-12l-8-1h-8m-104 2l-15 1h-7c0 2 10 3 11 2h17l-8 2c-3 0-4 1-3 2l8 1h8l1-5c-1-4-1-4-12-3m-63 5l-1 2c-1 0-2 3-2 13 0 12 0 13 2 13 3 0 4 0 3-2h4c4 0 4-3 0-5-2-1-2-1 1-1 4-1 4-1 3 5-1 4 0 5 1 5l2-2c0-2 0-2 2-1l1 4 2 1 8-1h6v-4c0-3 0-4-2-3h-14l8-1 8-1v-7h-8l-8 3c-1 1-5 2-5 0h-1l-1-2c1-1 0-2-1-3l-1-2 3 1h1c0-1-2-3-5-3h-2l2-4 1-3-4 5-3 5 2-7v-3c2-2 2-3 0-3-1-1-2 0-2 1m310-1l-2 1v36l1 38 6 1 10 1c5 1 8 0 5-2-2-1-2-65 0-69l1-4c-1 0-7 4-7 6h-2c-2-1-2-2 0-2 1-1 1-1-1-1l-2 1h-1l-3-2-1-2c1-3 0-3-4-2m4 9l-2 2v61l5 1 6 1c2 1 2 0 1-30v-31l-3-3c-2-2-4-2-7-1m-362 13l-26 2-87 7-16 2 5 1 47-5a14675 14675 0 0085-7h-8m-36 11l-62 4-31 4a3558 3558 0 00137-11l-44 3m168 0c-2 1-3 47-1 47v1c-2 2-1 3 1 3s2 0 1 1v1l2-2 5-1c2 0 3 0 2-1l-5-1h-2v-45l8 1 10 1h3v35c0 29 0 54 1 51h2l2 1 2 1c2 1 2 1 2-1l-1-29v-10h8l-5-1-3-1 1-4v-9c0-2 0-4-1-3l-1-15v-14h7l10 1h3v90h-17l-3 1h-1l-1 1c1 2-2 4-5 4s-3 0-2 1l1 2 1 1 4 2 2 3-4 1c-4 0-5 1-3 3 2 0 0 2-2 1l1 2 2 3c-1 1 0 2 4 1l2-1v-1l2 2 2 1 1 1 13 1c11 0 13 0 14-2l-1-2v-2c-2-2-3-7-4-24l-1-17v-74l-16-1-38-4h-2m-63 1c-5 0-5 0-5 3-1 4-1 4-7 3-3-1-5 1-1 2h8l8-1c8-1 8-1 7-5 0-3 0-3-10-2m54 1v26c1 22 1 23 3 23h2v-25c0-25 0-26-2-26l-3 2m-134 4l-107 8-9 1 84-6 48-3a1 1 0 100-2l-16 2M7 276H5v-1l-1 1v2a11 11 0 0010 6l2 1v1l-2 1 2 1 2-2c0-1 3-4 7-6s4-2 1-5c-2-2-4-1-2 2v2l-2-1c0-3-11-5-15-2m326 0l-7 1c-13-1-13 0-13 4v3l9-1 17-1h8v-7h-6l-8 1m5 8c-19 1-19 1-19 4-1 4-3 4-3 0 1-2 0-3-1-3-2 0-2 1-2 4v3h11c23-2 23-2 23-6 0-3 0-3-2-3l-7 1m132 7l1 3 1 3-1 4-1 7a37 37 0 010 9l2 1v1c-2-1-2-1-1 1h2c2-1 2-3 1-4v-1l1-15v-13h-3c-2 0-2 0-2 4m46-2c-6 0-6 0-6 20l-1 19c-2 1-2 3-2 13v13h4c5 0 7-2 5-4l-1 1-3 1c-2 0-3-3-3-14l1-8h3l4 1-1-9-1-20v-11l2 1 2-1c-1-1 0-1 1-1l3-1-2-1-5 1m29 3l-1 2 2-1c-1-1 0-1 1-1l2 1c0 1 4 2 16 2l17 1c3 2-1 3-15 2s-14-1-16 1l-1 2-1 1-1 40c0 37 0 38-2 37-1-2-2-3-1-10 0-11 0-12-6-12l-5-1 5-1c5 0 5 0 5-2 0-3 0-3-5-4h-5l5-1c4 0 5 0 5-2 0-3-2-4-7-4l-3-1 4-1c6 1 7 0 6-3-1-2-2-2-5-2-6 0-7-2-2-2h4l1-1 2-3c1-1 1-1-1-1l-6-1h-4v20c0 22-1 19-1-6v-16l3 1c3 0 4 0 3-1l1-2 2 2c1 2 3 1 3-1 1-3 0-3-4-4-4 0-5-1-3-1h4c3 0 3 0 3-3s0-3-4-3h-4v-4c1-6-1-6-8-1l-5 4v47l-3-2-3-1-7 1-5 1h11s9 6 18 15c17 15 20 17 18 12-1-2-1-2 10-2s11 0 3-1l-9-1h11l11-1-7-1c-8 0-11-1-10-3l2-1c2 0 1-2-1-3-2 0-3-7-3-20 0-7-3-9-3-2-1 4-1 4-1-1v-5h23l-10-1h-9v-15l2-16-2-1-2 1-1 1-1-2c0-4 10-5 18-2l5 1v37l2 37h13l11 1v-36l-1-40v-3h-7c1-1 0-1-4-1h-6l-4-1h4l12 1 6-1-9-2-9-1 9 1h10l-1-2c0-2-1-3-2-3v1c3 1 1 3-2 3l-9-2c-6 0-6 0-3-1l3-1h-3c-3 0-3-1-3-3l-3-1-33-2c-2-1-3-1-4 1M0 399c0 59 1 83 1 54a13102 13102 0 00-1-54m324-106c-10 1-10 1-10 4l1 3h11c11-1 19-3 20-6 1-2-6-2-22-1m-173 1l-9 1-5 1h17l-1 3v3h-8l-8 1h16v2l1 3 5-4c0-3 6-4 16-4l11-1c1-1-2-1-12-1a30 30 0 00-15 2l2-2c2-1 1-2-1-2h-2c1-2-1-4-2-3l-5 1m15 10h-2v58h18v-13l1-29v-17h-7l-10 1m319 3l-3 3v10a28 28 0 001 10v12l1-2c0-3 1-5 3-5l1-2 1-2 1 2 4 2h3l-1-9-2-10-1-5-1-5-2-1-5 2m102 3l-1 2v34l1 33 2 1c2 0 2-1 2-14s0-15 2-15c1 1 1 0 1-1 0-3 2-2 3 1v30l-5 1c-4 1-4 1 1 1h6v-18c0-14-1-29-2-22l-2 2c-3 0-3 0-3-8l1-15 1-6v7l1 8v-9c0-7 2-12 2-6 0 2 0 2 1 0 1-6-6-10-11-6m-262 0c-9 1-11 1-11 5 0 1 1 2 5 2s5 0 4-1l-5-1-3-1h5l4-1 2-2v1c-3 2 4 4 15 4h5v-7h-6l-15 1m318 11l14 2 10 1h-27c1 1 10 2 32 3 11 0 11 0 11-2s-2-3-20-3l-18-2c-5 0-5 0-2 1m-316 6c-12 0-14 1-11 2h4c1-1 3 1 3 3h-8v2c-3 0-4 2-1 4v1c-2 0-2 12-1 12h12v-19l1-2 2-2 1 3-1 3 1-3 2-3v3l-1 3 15-1 1-4 1-3h-5l-15 1m3 10l1 1v2c0 2 0 2 2 2l2 1-3 1c-4 0-4 0-3 4 0 3 0 3 1 1l2-4c2 0 2 0 0 5h10l-1-1v-2l1-5c0-4-1-4-4-4l-2-1h8c1-2 0-2-7-2-6 0-7 0-7 2m330 0l-1 13-1 12a46 46 0 01-16-1l2-3 2-2v-1l-1-1 2-1c-1-1 0-1 1-1s2-1 2-6c0-7-1-7-7-3-2 2-3 3-3 6l-1 3-1 2v7l1 4v4h19v-3l1 19c0 23 1 26 5 26 1 0 3-23 2-25l-2-20v-20l4-1h12l3 1v-9h-23m-178 9l1 5v1l-1 6 1 6 10 10c13 12 24 21 21 16l-2-1-1-1-3-4c-4-3-4-4-4-12l-1-8v8l-1 6c-2 0-3-2-2-6 2-6 1-9-1-9l-1 6c0 6 0 6-1 5l-2-5c0-7-2-9-6-8l-3-1 4-1 3-1-4-1-4-1c0-2 2-2 8-2h8v-3c0-4-2-4-3 0-1 2-1 2-1 0v-5l-1-1-1 3c0 2 0 2-3 2s-8-3-8-6l-1-1-1 3m-165 10c0 2 0 3-2 3s-2 1-2 8v8h14v-11c0-12 0-12-7-12-3 0-3 0-3 4m190 11l-1 10-1 3h13v-5l-1-10-1-5h-5l-4 1v6m13 0v7c1 7 1 7-3 7-6 0-1 7 5 9 8 2 11-1 11-7v-2l1 4c0 2 1 3 2 3 1 1 2 0 1-1l1-2c1-1 3 1 3 3s1 3 2 2c2-1 1-4-2-6s-3-2-1-2c3 1 0-3-4-3l-2-2c1-1-3-6-5-6l-3-2c-2-5-3-3-3 5v8l-1-7c0-7-1-10-2-8m118 23a52 52 0 002 23l-1 10v9h15c12 0 15-1 15-2l-11-1h-12v-3l-2-3-1-3v-3l1-5 2-5 1-2v-35h-9v20m-502-3l2 2 1 1c-1 2 62 4 63 2l2-3 1-3h-34l-35 1m81 0v6h36v-6h-9a1448 1448 0 01-27 0m172 31a276 276 0 010 30l1 20 1 19 2-1c0-2 1-2 7-2l7 1-6 1c-4 0-5 0-4 1 1 3-14 0-21-3l-7-3v-6c0-6 0-7 2-8 2-2 2-2-1-4-2-2-4-2-9-1-3 1-4 4-1 5 1 1 2 15 0 17l5 1c9 1 8 3-3 3h-5c1-1 1-1-2-1-5-1-5-2 0-3l-28 1h-14l-1 2 22 2 57 7 5 1c1 2 65 5 68 3l13-2 3-1c0-1-6-2-21-3-10 0-13-2-5-2l14-2a99 99 0 0136 2h1c-1-1 0-1 1-1 2 0 2 0 1-1l-1-2h23c0 1-4 4-7 4l-3 1 1 1c1-1 2 0 3 1h1c-1-2 0-2 4-2 3 0 4 0 4 2-1 1 0 1 2 1 3 0 3 0 2-1-2-1-1-2 11-3h18l2 1h21l-2-1c-2-1-1-1 3-1 5 0 8 2 3 3l-27 4 9 2c18 3 12 2-33-1h-13l-3 1c0 2 32 4 51 3h9l1 1 1-1 20-1c18 0 37-1 32-2-4-1 13-2 18-1a74 74 0 0015-1l-4-1-9-1-5-1-11-1c-8 0-11 0-9 1l9 1 8 1c-2 2-22 0-22-2s-19-5-41-5l-33-3h2l38 1c-3-3-107-5-118-3l-10 2c-2 0-3 0-2 1l1 1c-1 1-11 2-12 1l-10 1 2 1c2 1 1 1-3 1-6 0-10-1-9-2l3-1 3-1 5-1c6 0 17-2 17-3l3-1h6l4-1h-5l-68-4h-9l1-3-1-3c-1 1-1-1-1-8a6976 6976 0 00-1-61l-1-12-1 26m-246-23c-3 4-3 4 3 4 6 1 5 2-1 2-5 0-5 0-3 1l5 1c4-1 5 10 2 13-2 1-2 2-1 2l1 1v7c1-1 1 0 1 3s0 4 2 4h1c-3 7-4 8-6 7-2 0-2 0-2 12l1 11 1-3c-1-8 0-16 2-16l1 5v6l3-3 3-2v-47l-2-2h27l27 1-1 10v10h4l7-1h4v-7c0-5 0-8-2-10l-1-2h11c10 1 11 1 11-1-1-1-1-1 0 0 1 2 3 2 7 2h5v-8h-17c-20-1-28-1-31 1-3 3-5 2-4 0 0-2 0-2-17-2l-27-1c-11 0-12 0-14 2m473 19l1 22-6 3-5 3-1-3c0-2-1-2-3-2-1 0-2 0-2 6 0 8 0 9-2 7v-1l1-1c0-1-1-2-2-1v-3l-1-2-1-3-1 3c0 4-1 5-2 4-2-1-3 3-3 9 0 4 8 5 8 0 0-2 1-2 4-2 6 0 6 0 6 7l1 6 1 3v3h8l12-1h4v-12c0-12 0-12-2-12l-12 2-13 1c-2 1-2 1-2-3l1-4 20-9c6-1 10-3 7-3l-7 1c-6 2-6 2-6 0l2-2 4-2h3l3 1c2-1 2-1 0-1-3 0-3 0-3-4v-28h-3l-4-1-3-2c-2 0-2 1-2 21m-392 1v6h18l-14-1-2-1 4-1a5 5 0 005-2v1l2 1 2-1 1-1 1 1 4 2c1-1 0-2-1-4l-2-4 1 1a1 1 0 003-1l-4-1-11-1h-7v6m-155 2l-1 3c-2 1-1 5 1 5 3-1 3-1 0 2l-2 1c1-1 0-2-2-3-4-2-4-3-5 1l-1 3-2-3-3-2-1 3c-1 3-1 3 3 3l5 1h4c2-1 6 0 8 2h1l-1-2-1-1 2 1 2 1 3-1c2 0 2 0 1-1s-3-2-4-1c-2 0-4-2-2-3 2-2 1-5-1-4-1 1-2 0-2-1l-1-4c-1-2-1-2-1 0m-40 20c-2 9-2 36 0 36v-3l1-2 6 2 5 2-1-4v-4l1 3a6 6 0 009 4l1 1v-8c0-10 1-11 11-11 8-1 9 0 10 6 1 10 2 10 6 11l5 1c2 2 3 1 3-3l1-4 4-1c8 0 8-5 0-5h-5v-3c0-9 2-11 9-12l3-2c0-2-26-3-49-1-15 1-23 0-15-2 4 0 4-2 0-4s-4-1-5 3m627 8l-15 2c-3 0-3 24 0 24 10 0 14-1 15-6 2-4 6-7 10-8 3-1 3-1 3-8v-6l-13 2m-64 30c-3 1-4 3-2 5s2 2 4 1l10-1c7 0 8 0 6-1-5-3-1-4 6-2h3c0-2-22-4-27-2m-88 22c1 1-5 2-22 3-16 0-16 1-8 1 23 2 50 2 50-1 0-1-1-2-3-2-3 0-10 0-15-2l-2 1m-154 2l15 1 53 3a2203 2203 0 00125 4 19272 19272 0 00-81-3l-68-5h-44m-44 1l7 1 16 1 49 2c13 1 13 1 12 2l12 1a371 371 0 0141 2l24 1h27l7-1h-9l-36-1a74180 74180 0 00-109-7c-24-2-41-2-41-1" tabindex="-1" itemprop="light" style="fill-opacity: 0.019; fill-rule: evenodd; fill: rgb(0, 191, 201); color: rgb(50, 66, 93);"></path><path d="M5 1c3 0 4 3 2 3L5 5h2l1 1-5 1-3-1v60h4c4 0 4 0 4-3s0-3 1-1c0 2 3 3 7 3 3 0 4 0 3 1l2 1c11-4 14-4 15-3l4 1 4 2c0 2-2 3-10 3-7 0-8 0-6 3h7l1 1c0 2-6 2-9-1l-2-2c0 1-5 2-7 1-1-1-1-1 2-1h-1c-5-2-5-2 9-2h14l-13-1H0v37h3l22 3 10 2-18-2c-4 0-5 0-5 2 0 1 0 2-5 2l-6 1c-2 3-1 103 1 102v1l-1 1-1 4c0 2 0 3 1 2 1-2 5-3 4-1 0 2 0 2 1 1l4 1 4 3 3 2a2 2 0 002 0c-2-1 3-3 6-3 2 1 2 1 0 0h-5c-3 1-4 0-2-1 1-1 1-1-1-1a3 3 0 01-3-3c2 0 1-3-2-4l-2-1h1v-1l-1-5c-1-3-1-3 1-3l4 1 1 2v6l4 1 6-1-5-1-4-1 1-1 2-1h6l1-2 1 1v2c2 2 1 29-1 29l-2-1 1-1-1-1-1-1c0-2 0-2-2-1h-2l-1-1-1 2c1 2-2 1-4-1-3-2-2-2 0-1 2 0 2 0 1-1l-1-2c0-2-3-3-5-2l-1 2c1 2 0 3-1 2l-2 1 1 1c1-1 9 2 9 3h1l1 1c-1 2 1 2 2 0 2-2 4-1 5 1 1 1 2 2 3 1 2 0 3 1 1 2v1l3 1h-2l-1 1c1 3-1 2-2-1-2-4-6-6-6-4l-3 1-3-1-2-1c1-1-1-2-3-2-2 1-3 5-1 8H2l-2 1h2l3 2c0 2 1 2 2 2h2l-1 1v1c0 1 1 2 2 1 3-1 9 1 10 3 0 2 4 2 6 0 2-1 3 0 2 2v1c1-1 1 0 1 2l-1 4a2 2 0 01-4 0h-1l-2-1v-1l-1 2c1 2 1 2-1 1h-1l-1 2-1-1v-3l-1 1-2 1-3 2v1c-1 0-2 0-1-1l-4-1-3-2-2-1 1 1v4c2 1 3 4 1 3-3-1-2 4 0 6l3 1-1-1v-6c1-2 9-2 15 0h3v-2c2 0 6 3 6 5l-4 4c-3 1-5 3-5 4 1 3-4 2-8-1l-3-1-3 6c-6 5-6 8-2 8 3 0 4 1 1 4v-1c1-2 1-2-1-2s-3 1-3 13c0 10 0 12 1 11v4a6 6 0 000 8c-2 0-2 161 1 161l8 1 22 2 15 1-13-1-24-1H0v7h7l23-2 19-2c6-2 18-1 19 0 1 2 1 2-2 1l-3 1 2 1 1 2c0 2 4 5 5 4l17-1 27-1 38-2 31-2h47l31 3 41 2 57 3c32 0 34 0 9-2a113546 113546 0 01-75-5l-52-3h42l80 4 39 3 54 2c28 1 8-1-60-4l-72-5-20-1c-8 0-11-2-3-2l-32-2-14-1 2-1c16 0 42 0 41-1l3-4c3-2 3-2 2-3-3-2-1-3 5-3s6 0 6-3v-3h12l12-1 3 1h19v-3c0-5-1-8-4-9l-2-1 3-2a11 11 0 0115 3c-2 0-4 3-4 7v5h19v-86l1-36c3 0 3 2 3 58a756 756 0 002 63c-1 2-1 2 8 2h8l8 1h11l19 1 23 2c6 0 7 2 2 2-2 0-3 0-2 1l7-1 27-2a289 289 0 0026 0c-2 1-2 1 2 1a3 3 0 004-2l1 1 14 1h16l21 1c-3-1-1-1 5-1 9 0 16-1 16-2h-12c-2 2-8 0-10-3-1-3-1-3-1-1a1 1 0 11-2 0l-1-1c-2 1-4 0-5-3l-2-3h11v-10l-1-10c-2 0-2-1-2-5 0-6 2-9 2-4 0 4 2 9 2 5 0-2 0-2 2-2 2 1 2 0 2-2 0-4 1-5 3-4 1 0 2 1 2 4l1 3v-2c-1-5 1-8 4-8 2 0 2 1 2 3 0 3 0 3 6-1l5-2v-43h2c2 0 3 1 3 2l6 1h6v15c0 13 0 14-2 14a2 2 0 100 3l2 2c0 2-1 3-7 4-10 3-20 9-21 12-1 4-2 4 6 3l14-1h8v11c1 14 2 13-14 13h-11v-3l-1-3-1-6-1-6c-2 0-1 9 0 12 2 3 2 6 0 6h-3c-1 1 0 1 4 1s24 5 25 7l1 4c1 3 1 3-3 3h-4l4 1 4 3c0 1-1 2-4 1-3 0-4 0-2 1h16l-1-1c-1 1-2 0-2-1-1-2 8-1 21 2l12 2 2 1h9v-81l-1-75v6l-7-1h-9l-2 1v20l2 32v12h8c8 1 8 1-2 1-14 0-14 0-14-15v-11l-1 11-1 13c-2 1-3-5-3-21s0-18-2-18c-4 0-4 1-4 18a35 35 0 01-4 24v7l2 7v3l11-1 12 1c2 3 0 3-15 3h-15v-9a40 40 0 010-12c-1 1-1-1-1-7 0-8 0-9-2-9s-2-1-2-18c0-16 0-19 2-19l3-8c1-5 2-6 5-8 5-3 6-3 6 2v3l1 1-1 2c0 2-2 3-3 4l-2 1 3 1 4 1 1-6c0-5 1-8 3-8l1 7v7l1-6c0-10 1-13 3-15 3-3 3-3 1-4h-2l-2 1c-3 0-3-1 0-4h4l12 2 9 1c1 1 1 0 1-2 0-3 0-4-1-3 0 2-13 2-19 0l-14-2-10-1v-3c-1-1-1-1 1-1s2 0 1-1l-2-1-1-1-3-2c-2-2-15-4-15-2l5 1 7 1c1 1-1 1-5 1l-7 1 4 1h4l-6 2h-6c0 1 3 2 7 2a2 2 0 111 3l-4 1c-1 1 0 1 3 1 5 0 6 1 4 5v9l-1 6c1 2 0 4-1 5v6c2 4 3 6 3 4l2-2 1 6v5h-5c-4 0-6 0-6 2l-3 1h-2l-1-72c-1-75-1-73-5-74-2-1 0-16 2-16l4-2c2-1 2-1-2-1l-4 1v-5l1-4h-4l-4 1v16l1 55v9c0 4 0 4 5 4 4 0 5 0 3 3l-10 1-8-1 7 1 9 2h-13l-28-2-21-2-18-1c-14-1-18-2-18-3l14-1c13 1 13 1 0-1-4 0-6-1-6-2s-1-1-2 1c-2 2-5 1-5-2 1-2-3-3-11-3h-3l3-1h-6l-14-1-4-1v3c0 3 0 3-5 3s-5-1-5-3a2 2 0 114-1c0 2 0 2 1 1 2-3 0-4-8-4-5 0-6 0-6-2-1-3 0-3 3-3 2 0 3 0 2-1l-1-5 1 2 1 1 1 2c1 1 1-1 1-3 0-7 6-7 6-1 0 2 0 1 1 0 0-3 1-3 3-3s3 2 2 4c0 1 1 2 4 2l5-1 2-1c1-1 0-1-3-1a4 4 0 00-5 2c-2 0-2-1-1-3l5-1 8 1c3 0 4 1 5 2l1 3 1 3c-1 1 5 2 7 1 1-1 1-1-1-1l-5-2c-4-3-1-5 8-4 9 0 10-1 13-4 3-4 3-4-7-5l-10-1h-7c-6 1-13 0-11-1l-17-1a371 371 0 01-49-3c-19-2-30-5-19-5l4 1 3 1h9l21 2 16 2 14 1c6 0 5-1-6-2-7 0-8 0-5-1 2-1 0-1-6-1h-6c3-1 2-1-2-1h-5l-4-1h-4l-7-1h-9c-4 0-5 0-4-1s0-1-3-1h-3c2-1 2-1 0-1h-6c0-1-5-1-26 1-9 1-11 2-10 3l8 1c7 0 7 0 3 1l-9 1c-4 0-5 0-3 1l2 2 2 2h16l-6 1c-4 1-5 1-2 1s3 0 2 1c-4 1 0 2 4 2 3-1 4-1 4 1l-1 1c-1-2-3-2-3-1l-1 1h-5c-2 2-2 2 1 2l11-2-1-2c0-2 0-2-2-2l-2-1a4 4 0 016 0v2c1 1 1 1 1-1 0-3 1-5 3-5l1-1c1-1 1 0 2 2l1 4 1-3c2-4 5-5 5-3s1 2 4 2l24 2 21 1h5v5c0 5 0 5 3 5h2l-2 1c-2 0-2 1-2 3l-1 3-1 2a457 457 0 010 56l1 14 1 22v7a12 12 0 002 10l2 4c2 2 1 5-1 6l-15 1c-12 0-13 0-14-2s-3-3-2-1c0 2-4 2-6 1h-1v1l-1-4c0-3 0-3-2-2-2 0-2 0-1-1l3-2v-1c-1-2-1-2 4-3l3-2h-5c0 2-4 1-5-1s-1-2 2-1 7 0 3-2c-4-1-4-5 0-5 3 0 3-1 3-3s0-2 2-2c1 1 1 1 1-1v-2l1-1-3-1-2 1c1 1 0 1 0 0-3-1-3-3-3-46l1-42h-6l-10-1h-5v22c0 24 0 23 7 23l5 1h4v-19c0-16 0-20 2-21 1-1 1 1 1 20v21h-9c-8-1-10 0-10 1l1 1 3 1h-3l-4-2-6-1-5 1v3c-1 2 0 3 1 4v2c-2 0-2 0-1 1v6c-1 5 0 5 1 6l1 1-2 4-1 4c-1 1-2-3-1-9v-22l-1-2h-11v-21c0-17 0-21 1-20s2 6 2 20v19l7 1h6l-1-9v-37l-8 1-8 1v26c0 27 0 28-5 27-3-1-7 4-4 5h1l1-2c3-2 3-2 3 0v18c-1 1-3 2-3 0 1-1 2-9 1-10l-2 1c-1 1-1 1-1-1s-1-3-3-4l-2-3a3 3 0 00-2-2c1 1 1 1-1 2-2 0-2 0 0 3l1 2c-8 2-10 2-9-1l-1-2-1 2c0 2-1 2-11 2h-10l9 1c11 0 12 1 12 5l-2 2v1c2 1 2 1-1 3l-1 3a1 1 0 110 2l-2 2v2c2 0 2 0 1 3-1 2-2 2-8 2h-6l6 1 7 1-2 2-2 4-2 1-2 1h2c1 0 2 0 1 1l2 1 1 2 1 3h-13l-8 1h12l8 1c-1 1 0 3 1 4l1 3h-27v-7c-1-8 0-8-6-8l-4-1v-23l-1-6 1-7v-38l1-10v-10a1 1 0 10-2 0l-5 1-4 1h4c5 0 5 0 5 3 0 4 0 4-4 4l-4 1h4c4 0 4 0 4 4l-1 3v15c-2 3-9 3-9 0v-3c-2-1-1-2 3-2l5-1h-5c-4 0-4 0-4-3s0-4 2-4l3-1h-3c-2 0-3-7-1-11v-3l-1-4c0-3 0-3-4-3-3 0-4 0-4 2-1 17-2 20-10 20l-5 1h5c5 0 7 0 8-2 1-1 1-1 1 4v5h-5l-5 1h10v4c0 3 0 3-4 3-3 0-3 0-1 1 2 0 3 1 2 2l1 1c2-1 3 1 1 5-2 3-2 4 0 3l1 3-2 4v2c1 2-2 4-7 4h-5l4 1 5 1-5 6-10 11-4 6h-25l12 1h12l-2 2-2 6 1 17v16h-34l2 3c1 2 2 3 9 3l15 1 7-1h1l-2 2-1 2c2 2-1 10-3 9h-41v-20h-17l-27-1c-9 0-9 0-8 2 2 1 2 4 2 20 0 28 0 25-4 29-4 5-4 5-3-1l-1-6c-1-2-2 5-2 13l-1 6c-2 0-2-2-2-10 1-15 1-15 3-14 4 1 4-6-1-21l2-3 3-1h-3c-2 0-2 0 0-2h3c-1-3-5-4-7-3h-9l-6-1-3-1c0-1-1-2-3-2h-2l11-1 7-1v-3l-1-1-1 2c0 2-1 1-1-2-1-3-1-3 2-3 4 0 4-3 0-3l3-1 6-1h-5c-3 0-5 0-4-1l-1-1-4-1 1-1h1v-1c-1 0-3 1-3 3-2 2-4 3-4 0l-1-2h-1c0 1-1 2-3 2-4-1-4-1-1-3 2-2 2-2 0-2l-1-4v-3h12l-6-1c-3 0-5-1-5-2h-2l-1-1 1-3h13l-6-1c-5 0-9-2-5-2v-1c-1-1-1-1 1-2 5-1 6-2 1-2l-4-1 2-1c2 0 2-1 2-7l1-9v-4l1-3c3 0 4-4 2-9-2-3-2-4-1-5v-6l-1-8-2-6c-3-2-2-3 2-3 3-1 3-1-1-1-3 0-5-1-7-3l-1-1-1 1-1-2-1-2-1-1c1-1-1-5-3-5l-1-3c0-2 0-2-2-2-2 1-5-4-3-5 1-1 0-1-1-1h-4l-2-1c-2 0-3-3-2-5 1-1 0-1-2-1l-3-1h-2l-1-1a2 2 0 10-3-2v-1c2 0 1-2-2-3-2-1-2-1-1-2l1-1c-1 0-1-1 1-1h-5l-6-1c1-1 0-2-1-2l-1 2c0 2-3 1-4-2-1-2-1-2 1-1h4l3-2v-1c-2-2 3-7 7-7h4l-4-1c-5-1-2-2 6-2h7l-6-1c-5-1-7-3-3-3l-1-1c-3-2-5-1-4 1s1 3-2 3c-3 1-4 1-2-1v-3c2 0 3-2 2-3l-1-5c0-2 0-3-1-2l-2-1 2-1v-1l-2-1c0-1-2 0-3 2-3 3-9 4-9 2h3c2 0 2 0 2-2v-3h1l1-2v-8l1-1 2-2 3-3v-1h-1c-1-1 0-1 2-1s2 0 1-1c-2-3-2-6 0-6 2-1 2-1 0-1l-2-2-2-1h-1l4-3 4-1h-5c-3 0-4 0-3-1s1-1-1-2c-4-1-4-3-4-11l2-10v-2c-2 0-2-1-2-4s0-3 3-3c1 1 10 0 18-2l17-2 1-1c0-1 1-2 4-2a316 316 0 0042-7l20-3 18-2 1-1c0-2 1-2 4-2a42 42 0 0017-2 104 104 0 0028-6c2 1 45-7 47-8l9-2c7 0 7 0 7 2s-1 3-2 3c-2 1-2 1 0 1s3-1 3-3l3-4h-1c-3 0-3 0-2-1 1-4 4-4 6-2s2 2 15-1l14-2 3-2 3-1c1 1 2 0 3-2 4-7 10-7 10 0 0 5 0 5 3 5l2-2c0-2 1-2 4-2l2-1c1-2 3 1 3 4 0 2 0 2 3 2l8-2c3 0 4-1 4-2l1-2 1-2c1-3 4-2 6 1 1 3 2 2 1-1l2-3c2-3 5-1 5 3 1 3 4 5 4 3l1-1 3-2c2-3 2-3 8-1h7c0-2 4 1 4 3 0 3 2 5 3 3 2-1 2-1 1-2l9 1 9 1c1-1 2 0 4 2 3 3 4 4 2 4-3 0-2 11 0 12 2 0 2 0 0 2-2 1-1 1 2 2 2 1 3 1 3-1s1-3 3-3h3c1-2 3-1 4 3s2 4 8 5c2 1 3 1 3-1s1-2 3-2l2-1 2-1c2 0 2 1 2 16l1 15v1c-3 2-1 5 5 6l24 5c17 3 20 4 35 4 16 0 19 0 27 2h4l-4 1 5 1c12-1 14 1 4 3l-6 1h8c1-2 5-1 5 1s0 2 2 0c1-2 3-3 5-3 1-1 0-1-1-1h-3l-1-2c0-2 0-2 3-2 2 0 2 0 0-1-3 0-3-1 1-4 12-12 12-12 10-13-2 0-2-2 1-6l2-2-14-3c-12-3-16-3-34-4h-20l-20-5-23-6c-4 0-4 0-4-5l-1-4-5 1c-3 1-4 1-4-1l1-2 2-1a3 3 0 004-2l-11-2-20-5c-10-2-12-3-9-5 2 0 0-3-2-3l-1-1c1-2 6-2 5 0l3 1c3-1 26 5 24 6l7 1 9 1 5 1 7 1 4 1c6 0 10 1 10 2h1c3 0 5 4 3 6l-8 1 2-1c3-1-10-4-15-4-3 0-3 0-3 2l2 4 4 4 6 1h5l1 2 5 1 29-5h4c3 0 3 0 3-2 0-3 0-3-4-1l-3 1v-3l3-4 14-9 9-6 4-2 2-2 2-2 4-1c1-2 6-1 9 1l6 2a21 21 0 0112 5l1 2c0 2 0 2 1 1l8 4a53 53 0 0010 7l4 2c4 0 1 2-5 2-7 1-7 1-5 8 2 4 2 5 4 5s2 0 1-1l-2-2v-1c-2 0-1-2 1-2 1-1 1-1-1-1s-3-4-2-4a2253 2253 0 0037-5v5a1 1 0 11-1 3l-2 1h3l1 1-11 2-16 3c-4 1-5 1-2 1l3 1c0 1 1 2 2 1 2-1 1 2-2 3-3 2-4 4-1 4 2-1 3 3 0 3-1 1-1 1 1 1l2 1c0 2-2 5-3 5l-2 2c-1 2 0 2 2 1h9l4-1c-4-1-1-3 5-3 3 0 2 2-1 2-2 1-1 1 1 1l5-1-1-1-1-1 3 1h2c1-1 1 0 1 3s0 4-2 4l-2 1h2l2 1-23 4-17 3c-1 1-1 1 2 1l12-2 17-2 9-2v3c0 2 0 2-18 5a56 56 0 01-20 0l-4 1h3c2 0 3 0 2 1-6 1-4 2 3 1h20c11 1 15 3 7 3l-8 2c2 0 2 1 2 2-1 1 0 1 3 1h5l-4 1-11 1c-11 1-15 2-15 3 1 2 11 2 20 0 15-2 15-2 15 6v6h-7c-8-1-10 0-10 2 0 1-4 1-5-1-1-3-6-4-6-1l-3 1h-2l2-2 2-2h-4c-6-1-8-1-8 1l-2 1c-2 0-3-1-1-3 2-1 1-1-7-3-7-1-20 0-21 2l2 1c5-2 17-2 17-1l-3 1-3 3-3 2v6c1 1 1 2 5 2 4 1 4 1 4-2 1-3 2-3 4 1 2 5 8 6 8 2 1-4 3-3 4 0 2 3 2 4 6 4 6 1 7 1 7-2s2-4 8-3c3 1 3 1 1 1s-3 0-3 3c0 2 0 2 6 2l9 1h4V109L683 1 343 0C156 0 4 0 5 1m337 42a101 101 0 00-15 2l-1 1-4 1-4 1h-2l-6 1c-2 1-5 2-6 1l-1 1-4 1c-3 0-4 0-4 2s3 2 6 1c2-1 2-1 2 1l2 2h-2l-60 13-39 9-115 23c-22 5-20 4-19 7 0 3 2 3 23-2l70-14 65-14 67-16h3c1 0 17-3 21-5h4l9-2c11-3 14-3 17 1s3 4-2 3l-7 1c-1 1-1 1 1 1 6-2 12 0 15 3 2 4 3 4 2 1-1-4 0-4 13-2l20 3 11 1-4 2c-4 2-4 2-2 2l-9 3-12 3 10-1c13-3 13-2 12 0 0 2 1 3 8 4 9 2 9 2 9 0 1-1 1-1-2-1h-1c1-1 1-1-2-1h-3l-2-1h-1l-2-1-1-1a105 105 0 0127 8l-4 1v-1h-5c-3 1 1 2 39 11l2-1-3-1v-1c1-1 1-1-1-1-4 1-9 0-6-1 2-1 13 0 22 2l8 1-3-2-2-1 4 1c4 2 4 0 0-4l-4-4 5 1c8 3 15 3 15 1l-1-3-5-2-5-1-9-2-10-3c-3-2-2-1 12 2 17 4 20 4 19 2s-10-4-12-3l-2-1c0-1-1-2-3-1l-3-1-2-1h-3l-4-1-3-1h-2l-1-1h-1c-1 1-6-2-14-10-4-4-6-3-17 2l-14 4-10 4-17-2-23-4c-8 0-8-1-12-7l-2-5 5 2 31 8c6 2 16 2 17 0 1-1 1-1-2-1-4 0-40-10-45-12-3-1-4-2-2-2l54 14c1 1 9 0 9-1l-2-2h-4l-5-1c-7-1-10-2-10-3h-3l-3-1-7-2-7-1c-1-1-3-2-4-1l-1-1-4-1-5-1-11-3-9 1m-61 13l-2 1h-2a7 7 0 01-3 1l-4 1-4 1h-2l-4 1h-2l-4 1-3 1-12 3h-3l-4 1-3 1-4 1h-3l-3 1-3 1-4 1h-2l-4 1h-3c-2 0-3 0-4 2h-3l-3 1h-3l-3 1-2 1-11 2h-3l-3 1-2 1h-4l-8 2-4 1-2 1h-3l-3 1-10 2h-2l-3 1h-3l-2 1h-3l-3 1-3 1-9 2h-3l-3 1h-3l-2 1h-3l-3 1-2 1h-4l-2 1-4 2c-2 0-2 0-1-1l1-10v-9l1 4c0 3 0 4 2 4l1-2h1l1-2c1-2 0-3-1-2h-2c0-3 1-4 6-5l4-2-25 7c-2 0 1 2 4 3 2 1 4 7 1 7v1l-1 3-2 2-2 3-2 2h2l3-1h2c1 1 5 1 27-4l12-2 5-1 50-11a5107 5107 0 00130-29c4-1 2-2-4-2l-7 1m150 12c-5 1-8 3-7 3l-2 1c-1-1-3 0-5 1-3 2-3 3 1 3l2 1c1 1 1 1 3-1s5-2 6 2l2 2 1-2 3-3c2-1 2-1 0-1l-3 1h-1l-1-1-2-1c-2-1-1-1 2-1l5-1a1 1 0 111 1l5 2c5 1 5 1 2 1l-4 1v6l1-2 1-2c2-2 5 1 5 4l2 2v-1c-2-2-1-3 1-2l2 2c-1 2 5 4 9 4 3 0 3 0-2-5l-6-5-2-1-2-1-5-6-4-4-8 3m-46 73l3 3-3 1-8 1-4 2v8l1 8v-7c0-8 2-9 2-3v32c-1 0-2-1-2-3l-1 7 1 11 1-6c0-4 0-5 2-5h1l3-1c2 0 3 1 3 5 0 6-2 7-3 2 0-3-2-4-2-1l-3 9-1-1-1-1-1 13v12h5l8-1h3v-10c0-10 0-11 2-11l3-1h-5v-29c0-28 0-29 2-31l2-2h-3l-5-1m17 6l2 2 3 1h-5v27a367 367 0 000 36v10h3l10 2c2 0 2 0 2-11l1-12 1 2 1 2 1-6c0-12 0-12-2-12s-2-1-2-16c0-17 0-21 3-21l1-1c1-1-1-2-6-3l-10-2c-3 0-3 0-3 2m55 2c0 2-1 3-3 3l-1 1h5c2 0 3 1 2 4 0 2 18 4 20 2 2-1 5-1 5 1h1v-1l-1-2-9-2c-16-3-18-4-18-6-1-2-1-2-1 0m-28 16a44 44 0 003 20c0 4 0 4 5 5l6 1h-10l5 1c8 1 5 3-2 3l-3 1-1 1h-2l3 1h3l-2 1c-2 0-3 1-3 2l3 1c2 0 2 0 2 3l1 3c1 1 0 1-1 1l-4-2-1-2v2c0 1 1 4 3 5 2 4 3 5 0 5v1c3 0 2 3 0 3a2 2 0 10-1 4l3 1 4 1h4v-14l1-14 1 5 1 5 1-8c0-8 0-9-2-9s-2-1-2-15c0-15 0-20 2-20l1 2 1-2v-4l-17-3c-2 0-2 1-2 15m30 0v17c0 17 0 17-2 17s-2 0-1 1c2 1 2 4 2 19l1 17h6c8 1 8 1 8-8 1-7 1-7 1 2l1 10 1-8-1-13a5 5 0 00-2-7c2 0 2-1 2-9v-36l-16-3v1m45 18l3 1h5c2 0 1 2-1 2v1c1 1 0 2-2 3h4l6 1c2 2 7 1 9-1s5-3 5-1l-1 3v1c2 0 4-2 4-3v-2c2-1-8-4-17-5h-15m115 3h-14l3 3c3 2 15 2 19 0l12 2c11 2 24 4 23 2l-10-2-10-3-22-3-1 1m-440 4v4l-1 3c-2 0-2-1-2-4s0-3-2-3-3 1-3 8l1 7c3 0 4-1 4-4 0-2 1-3 2-3l1 1c0 2 0 3 2 3 1-1 1-1 0 0l-2 5-1 4c-2 0-2-1-2-3 0-3 0-3-2-3l-2 1-1 5c0 6 0 6 3 6 2 1 2 1-2 1l-4 1 1-4-1-3-1 6-1 9c-1 4 0 13 1 13v-4l1-5 1-5c0-8 1-8 2-1a17 17 0 003 11h-2l-1-2 2 4c2 2 2 2 2 0s2-3 3 0l3 1h3v-22l1-25c0-3 0-3-3-3l-3 1m124 5v3c0 2-1 3-2 3l-9-2-6-2h-4c-6 0-7 0-5 2v18l-8 1-15 2c-4 0-5 1-3 1l14-1 11-1 1 7c-1 7-1 7 1 5l7-1 4-1a10 10 0 014-9l-4-1c-6 0-10-4-4-5l3-1h-3c-3 0-3 0-2-4 0-5 0-5 4-4 3 1 4 1 4 5l1 4v-4c0-6 3-5 3 1v4l-3-1-3 1 4 1 2 1 3 4c2 3 3 5 0 11v5l3 2c2 2 2 2 2-10 0-14 0-14 5-14h4v6c0 6 0 7 1 6 3 0 4 2 1 4l-1 3c0 2 2 1 2-1s0-2 2-1l2 3c0 2 1 2 2 1 2-2 2 0 1 2-2 3-3 5-1 5 2-1 5 1 5 3s0 2-2 1c-2-3-3-2 0 0l2 4c0 2 1 2 3 1l4-2c1-1 1-1-1-1l-2-2-3-6c-2-1-3-4-3-5 0-3 0-5 2-5l1-1-1-1c-2 0-2-1-2-4 0-2 0-3 1-1l2 4 3 2v-11c-1-7 0-8 2-8 2 1 1 0 0 0l-3-2 3-1c2 0 2 0 0-1l-4-1-7-2-8-2-1 5v6h-5c-4 0-5 0-5-2l-1-5c0-2 0-3 2-3l2-3c0-5 0-5 2-5 1-1 0-1-1-1l-3 1m209 0c-2 1-3 5-3 20v12h3l6 2h3v-13c0-10 0-13 2-14 2-2 1-3-3-5-4-3-4-3-8-2m46 7c-3 1-5 4-2 4v3l-1 12c0 13-1 12 13 12h8v-30l-4-1h-14m28 1l-1 15v16l4 1 5 1v-13c0-10 0-13 2-14 3-3-5-8-10-6m35 16v5h6c6 0 26 3 27 5l-1 1h-12c-6-1-12-2-15-1l-4-1 4-1c3-1 3-1-1-1h-5v41c1 48-1 44 13 45 11 1 14 2 9 2-3 0-3 0-1 1l2 2 8 1h9l3-1 20 1c1-2-1-2-11-3h-12c-7-2-7-1-7-11v-65c-3-2 0-7 3-7 4 0 4 0 3-2 0-3 3-5 5-3s5 3 5 1l2-1c2 0 2 0 0 2v1h1l4 1 4 1 2 1 1-1v-2c1-2 1-2-1-2v-1c1-1-5-2-18-2-6-1-7-4-2-4 2 0 1-1-3-1l-37-5c-1-1-2 0-1 4m-112 21c0 13 0 13 8 13h4v-10c0-10 2-14 2-5l1 5v-6c0-7 0-6-9-7l-6-1v11m-220-7h-2c-1-2-5 0-4 3 0 1 0 2-1 1-1-4-3-4-5-2 0 2-2 3-3 3-2 1-2 1 0 1a4 4 0 010 8l2 1 2 4 2 1c-1-2-1-2 2-2 2 1 3 0 2-1l1-1 1-6c0-4 0-5 1-4 2 2 4 1 4-3s-1-6-2-3m335 0h-2v38c0 36 1 37 3 38l22 2-1-3c-3-5-3-64 0-71 1-2 0-3-4 0l-6 1-6-1v-2c0-3 0-3-6-2m-69 17v15h8l11 1c2 0 2 0 2-14 1-19 2-18-11-18h-10v16m30-1l1 14h2c2 0 3 1 3 2h-2l-3 1 1 1 5 1h3l-1-14 1-14 1 3c1 3 1 2 1-1 0-5 0-5-3-5l-6-1h-3v13m43-6a11 11 0 000 7c2-3 4 0 3 8v12c0 2 0 3-2 3l-1 15v15h8v-27l1 14v14h-10l4 1 7 1c1 1 1-4 1-30 0-31 0-31-2-32-2-2-8-3-9-1m38 4l-2 1v25l1 30v5h9l8 1 1-30 1-30-4-2h-14m0 6l1 2v2l-1 10 1 10h14v-9l-1-13v-3h-7l-7 1m-236 33c0 11 0 14 2 14 1 1 2 17 0 17-1 1 0 1 2 1l3-1h8v-18l1-20c1-5 2-1 2 15l1 17v-19l-1-18-9-1-9-1v14m237-4v24h14v-25h-7l-7 1m-196 3c-2 2-2 8 0 9l-1 1v2c2 2 2 3 0 5a51 51 0 000 19c2 0 2 0 1 3-1 2-1 2 4 2 3 0 3 0 2-1-2-2-3-3-2-1h-1a4 4 0 013-7c-1-1-2-12-2-25 0-8 0-9-4-7m44 4l-4 1-1 4-1 7v3l1 3c0 2 0 3-1 2-2 0-2 1-2 3l1 3 1 7c0 7-2 8-2 2v30h5c5 0 5 0 5-3 0-2 0-2-1-1-4 5-6 2-6-9v-7h3c3 0 3 0 1 1-2 0-2 0-2 7s0 8 5 6c2 0 2-1 2-11l-1-10c-2 0-1-4 1-4s2 0 1-1c-4-1-4-2-4-16v-14l4-1c4-1 5-3 2-3l-7 1m29 2c-2 2-1 3 1 3h4l2 2c1 1 1 2-1 4l-3 5-2 3-3 2-2 1c-2 0-4-3-3-6 0-2-4-2-7 0l-4 4-3 2v48l-2-2c-2-2-5-3-5-1l-6 1h-4v10l-1 11c-1 1-1 0-1-6l-1-8v7l-1 7-1-9-2-10c-1-1-3 0-3 2 2 2 2 13 0 12l-1-3c1-2 0-5-1-8-1-4-2-5-5-5-6-1-3-2 4-2h8v-23l-1-22-1-2-1-2v2c0 2 0 2-2 2s-3-1-3-2c-1-4-11-3-12 2l1 10v36a11 11 0 000 7 139 139 0 0033 29 1 1 0 101 0l-2-3-3-2c-1-2-1-2 2-1 4 0 4 0 4 3 0 2 1 3 2 3l1-1c0-1 12-1 14 1l4 1-2-2c-1-2-1-2 2-2 2 0 3 0 3 2l2 1 1-1c-1-1 2-2 4-1 2 0 1-3-1-5-2-1-2-1-1 1v3l-3-6c1-1-6-6-7-6l-1-1-1-2-2-2 10 7c8 8 12 10 12 8l-2-3c-1-1-1-1 10-1l27 2h16v-14a608 608 0 010-70v-3c0-1-2-2-10-2-6 0-9-1-10-2l-16-2-19-2-6 1m-374 13h-5v26l1-12c1-16 3-13 3 3 0 10 1 11 3 11 1 0 2-1 2-6 0-8 2-8 2 0v6h6v-8l1-14v-7h-4l-9 1m394 5c-7 1-5 2 5 3l7 1h-16v28c0 1 2 2 8 2h9v-32l-4-1-4-2-5 1m23 1c-2 2-1 3 1 3l3 1h-3c-2 0-2 0-2 15v15h2c3 0 4-5 4-20a9 9 0 013-10l2-1v-2c-3-2-8-3-10-1m-139 4v4l-8 1-8 1v39h7l6 1v-20c0-13 0-19 1-18l1 19 1 20 1-24v-26l-1 3m40 19l-1 2c-2 1-2 5-2 10 0 4 10 6 10 2l1-2 1-7-2-2-5-2c-1-2-2-3-2-1m-323 7v7l-1 8v7h18v-29h-17v7m2 4l-1 13v4h6c6 0 9-1 8-2h-1c-2 0-3-5-2-14l-1-9-1 9v9l-3-4c-2-2-3-5-3-8 0-7-2-6-2 2m389 1l2 1 1 4 2 22 4-3c3-3 5-3 5 0l2 4c1 1 1 1-1 1l-4 2c-2 2-2 2 4 2h6v-30l1-3-11-1-11 1m30 7l1 17c0 8 0 10 2 10l1-8c0-18 3-28 7-22 1 1 1 1 1-1 0-3-4-4-6-1h-1c0-1-1-2-3-2h-2v7m-103 16c-2 1-1 4 3 7 2 2 3 3 2 4l2 1c1 0 2 0 1 1l3 10 2-3 3-3c3 0 3-1-1-4-1-2-3-3-4-2l-1-1c1-2-4-6-6-6h-1c1-2-2-5-3-4m-277 16l-1 1-2 7c-3 6-2 8 2 4a8 8 0 014-2l1-3 2-3v2c-2 4 0 6 3 4 2-1 3-5 0-6v-3l-3-1h-6m107 7v3h13l13-1c-1-1 0-2 1-2l2-2c0-2-2-2-14-2h-15v4m253-2c0 1 4 2 10 2 5 0 5 0 5 3l-1 3v-2c0-2-2-4-3-3-1 2 1 6 4 6 2 0 2 0 1 1h2l1-2 1-1 1 1 3 1c2 0 2 0 0 1-5 2-3 4 5 4 10 0 10 0 9-8v-5h-10l-28-1m-524 4c0 2 1 3 3 3s2 0 2 4c-1 5 0 7 4 5 5-2 4-7-1-8-2-1-2-1 0-1 3 0 3 0 3-2v-2l1-1-6-1c-6 0-6 0-6 3m271 4l1 3v1c-1 1-1 1 1 1 4-1 5 0 1 3l-1 2 1 1v1c2 1 4-2 4-4 0-1 1-2 3-2s2 0 2-3v-1l2 1v2l5 1c6 0 6 0 6-2s0-2-1-1-1 1-1-2v-2l-12-1h-11v2m18 8c-1 1 0 2 1 2h2c2 2 2 3 0 3v1c1 2 9 1 9-1 1-1 1-1 1 1s0 2-4 2c-3 0-4 0-3 1l3 1v1h-7l1 1c2 0 1 2-1 2l-2 2c0 1 0 2-2 1v1c1 2 1 2-2 2-1 0-2 0-1 1l1 1 1 1 1-1c1-3 2 1 2 9 0 11 0 12-2 15v4l2 3 1 1c2 0 3-9 1-10v-18c-1-4 0-5 1-5l2 1c-1 3 0 9 1 9l1-5c-1-2-1-3 1-3l3 1c2 0 2 1 2 4l1 3 1-4c0-4-1-5-2-5v-1c2-1 1-4-2-5-4 0-4-1 0-1s5-2 3-4v-1c2 0 2 1 2 4v8c0 2 1 3 3 1 1-1 2-2 4-1l2-1-3-1h-3v-18c-1-2-3-1-3 1l-1 6v-3c0-4-3-7-9-7l-6 1m-261 3l-1 1c2 0 2 2-1 9l-2 5c1 2-1 1-4 0l-4-2c-2 0-2 0-1 1v1c-2 0-5 5-5 7l3 1c6 0 10 1 9 2h1l4-1h3l1 1c-1 1 5 4 8 4 4 0 5-2 1-2-2-1-2-1 1-1l4 1 1 2c2 1 5 0 5-2l1-1 1-1-17 1h-3c-1-1-1-1 2-2l6-1h6l6-2c1-1 1-1-1-1h-1l2-1c2 0 1-2-1-2-2-1-9 2-11 4-1 2-7-2-7-5 0-2-1-2-4-2-2 0-2-6 0-10 1-4 1-5-2-4m-41 22l-1 6v8l-1 24v5h11l13-1c1 0 4-5 5-9 1-5-2-5-4 0-1 3-1 3-1-2 1-7 2-8 11-8 8 0 8 1 9 7 2 10 3 11 8 11 8 1 8 1 7-3v-4h4l4 1c0 1 1 1 1-1 4-4 3-6-3-6h-6v-3c0-3 0-3 1-1 1 3 4 4 4 1l1-1 2-1c2-2 3-4 1-4l-1-3c0-2 1-3 2-3 2 0 2-1 2-2 0-2-1-2-25-2-25 0-25 0-25-2 0-3 5-3 5 0h1l1-2c1-1 0-1-3-1l-4-1c0-2-1-2-5-1-14 1-14 1-13-2v-2l-1 2m227 14c-1 1-1 1 1 2 3 0 3 2 0 4-1 1-2 3-2 8-1 7-1 7 2 8 4 2 8 0 5-2l-4-1c-1 0-2 0-1-3 0-3 2-4 3 0s2 4 4 0c1-2 1-2-1-3-1-1-1-1 1-2s2-1-2-1a10 10 0 00-6 1l4-2c2-1 3-3 1-3v-4l-2-2h-3m401 1l-14 1c-5 0-5 0-4 14v11h16l2-4c1-5 5-9 9-10l4-1v-6c0-8 0-7-13-5m-17 38v2c0 2 1 3 13 4a67 67 0 0128 6c3 0 2-1-4-3-3-1-5-2-5-4s-1-2-9-2l-16-2-7-1m-535 7l-29 1h24a17539 17539 0 0148 1l-2-1c1-2 1-2-41-1m296 14l33 2a3250 3250 0 0162 3c9 0 7 1-3 2l91 1c83 0 99 0 99-2h-61l-40-2h-73l-41-2-42-2h-25m231 0l1 1h-21c0 2-1 2-5 2h8c8 0 12 0 10 1l20-1 24-2 14-1h-51m-457 2l-15 2h10c43 4 52 4 84 4 18 0 33 0 32-1l-31-1-43-3c-21-2-22-2-37-1" tabindex="-1" itemprop="regular" style="fill-opacity: 0.875; fill-rule: evenodd; fill: rgb(0, 193, 229);"></path><path d="M203 13l-59 17 17-4a36670 36670 0 0093-25c1-1 0-1-1-1l-50 13m141-5l-96 24-35 10 74-18c87-22 92-24 89-24l-32 8M131 33l-7 1h-2l-2 1-1 1h-7c-3 1-1 2 2 1h2l-6 2-6 1-58 18-4 2 33-9 43-13 21-7-8 2m227 33v4l3 3 2 2h-4c-8-2-13-1-28 2a592 592 0 01-33 7l-26 5a2456 2456 0 01-78 16l-36 7-32 7c-1 1 12 2 14 2l16-3a3792 3792 0 0083-16c24-5 75-16 91-18h4a5237 5237 0 01-189 38l68 7a105 105 0 0029-5 388 388 0 0050-10h8l4-1c-1-1-1-2 1-3 2-2 2-2 5-1 3 2 3 2 16 0a82 82 0 0018-5l6-4c5-5 8-5 8-1 0 5 3 8 5 5s8-3 9 0a10 10 0 0016-3c1-3 1-3 4-3 2 1 4 0 5-1 4-3 6-2 7 2 0 4 3 6 3 3l1-1 3-2c2-2 2-2 8-1 4 1 6 2 7 1 1-2 4 0 4 3l1 3 1-1c0-3 3-2 12 0l8 1c0-2 2-1 5 1 2 3 3 5 1 5l-1 5c0 7 1 8 10 7 5-1 5-1 6 2 1 2 1 3 8 2l9-1c3-1 5 1 5 4h4c6-1 6-1 6-5v-4l-4 1h-7l2-2c0-1 1-3 2-2a2 2 0 002-2l-41-10v-1a2 2 0 10-1-3l-3 1c-2 0 0-2 3-3 4-2 6-2 7-1 0 1 2 2 6 1 6 0 8-1 2-1l-7-1-6-2c-5 0-43-9-44-10v-3c0-2 0-2-1 0s-1 2-10 0c-8-2-9-2-18-1-9 2-12 2-8 0l1-1a4 4 0 01-6-4l-1-1 12-2c13-2 16-4 11-4a82 82 0 00-16-2l2 1-2 1c-3 0-5 1-4 2l5-1c3-2 5-2 10-1h6l-6 1c-10 2-23 4-22 5l1 4c0 3 0 3-2 3l1 1c4 3 2 3-9 1-7-2-12-2-15-2-11 2-13 0-2-2 6-2 8-3 7-4h10c5 1 6 1 4-2-3-4-5-9-4-10l-1-1c-2 0-2 0-1 2m-119 4l-90 19-28 6 18-3 58-11c23-5 70-16 65-16l-23 5M0 72c0 3 0 3 1 2s2 0 4 2l2 3H5c-5 0-5 2-5 13v11l6 1 8 2c3 1 11 3 11 1h1c2 1 2 1 3-1h2c-1 3 13 5 21 5h3c0 2 8 1 8 0h1c2 3 5 1 4-2 0-1 1-2 5-3l21-5-27 6c-1 1-1 1-1-1 1-1 0-2-1-1-2 0-2 1-1 2 0 2 0 2-1 1l-2-4h-3a2 2 0 00-4-1l-3 2c-1 1-8 0-7-2l-1-3h-2c1 1 0 2-1 2l-1-1v-1l-1 1-3 1c-1 0-2 0-1-1l2-2h-2v-2c2-2 7-2 11 0s9 2 6 0v-1l5 3c2 2 6 3 4 1v-2c1-1 2 0 2 1s1 1 3-1c2-1 2-1 0-4-1-1-3-2-4-1l-1-1-1-1h-2l-1-1c-4 0-5 0-4-1v-1c-2 0-2 0-1-1s2 0 3 1l2 1 3 1h4l-1-2v-1c1-2 1-2-2-1h-3l3-1c3-2 2-2-3-1l-8 1c2 0 1-2-1-2l-2 2c0 2-3 3-5 1h-2c-5 4-5 5-5 3 1-2-2-3-3-2-2 1-3 0-3-2s0-2-1-1-6 0-6-1c0-2-5-4-6-3s-1 1 0 0h-1c-3 2-8-3-5-6 3-4 2-5-4-5H0v3m13 38v4l-1 4v1l-4 1a9 9 0 01-6-2c-2-1-3 10-1 11v5h1c-3-4 4-3 7 0 1 1 2 2 3 1l2 1c-1 1 2 2 5 2h3l3 2c2 1 2 1 0 3-2 3-4 3-3 0v-1l-1-1v-1c-2-1-3 1-2 3v1a1 1 0 000 3h3l-1 1c-1-1-1 0 0 0l1 2-4 2c-1 1-1 1-3-1l-2-4-1-1c-1 1-1 0-2-2-1-3-2-4-4-2a5 5 0 01-4 2v2l1 2-1-1a1 1 0 10-2 1l3 1c3-1 3-1 2 1-1 3-1 3 3 3h4l-1 1v2l-2-1-4-2H2c-2-1-2-1-2 3 0 3 1 4 2 5v1c-2 0-3 5-1 5v1l-1 4c0 4 0 4 2 2 1-1 1-1 1 2 0 2 0 3 2 3l1 1 1 1h1a2 2 0 01-3 1c1-1 0-1-2-1-3 0-3 1-1 2v2H0c0 1 2 2 5 2 4 0 3 2-1 3-4 0-6 4-3 6v3l3 1 3 1-6 1-1 1 2 1v2c-3 2-2 5 0 8l2 2-2-3-1-3 3 3 5 2 1-1v-2l-2-4 2-1 5-2a471 471 0 002 7h3c2-1 3-3 1-3l-2-2c-1-1 0-2 1-2 2 1 2-4 1-6v-8l3-2c2 0 1 2-1 2l1 2 2 3h-1c-1-1-4 0-3 1h1l3 2h1l1-2v-2c0-2 2-1 2 1v2c-2 0-3 4-2 4h5c3 0 4 0 4 2h1v-4l2 2 1 1c0-2 4 2 4 4l2 2 2 1 1 1 1-1v-2l1 1h1c0-2-4-6-4-4v2l-2 1-1-2c1-1 0-2-1-3-3-2-1-3 7-1 5 2 6 3 3 3-1 0-1 1 2 1h6c3 1 4 0 3-2v-4l-1-3 6 1 1 1v-3l2 2c1 2 1 2 1-2 0-3-1-4-2-4l-3-1v-2l1-1-1-1c-2 1-5 0-5-1l2-1-2-1c-1-1-3-2-2-3l-1-1v-1h3c1 1 2 0 2-5l1-9v-3l-1-4v-4h4a209 209 0 0039-7 290 290 0 0043-7 267 267 0 0041-8h9l7-1-6-1-35-4-30-3-15 3-56 10c-9 0 13-5 50-11 14-3 15-3 6-4-7-1-11 0-44 7-14 2-17 3-17 1l4-1c2 0 3 0 1-1l-1-1-1-1v-3l2-1c2 0 2 0 1-1l-3-2v1h-1l-6-2-1-2c1-2 0-2-6-2l-13-2-5 1 1 1v2h-2c-2-2-2-3-1-4s1-1-1-1h-7c-3-1-4-1-4 1l-2 2v-3l-4-2-1 2m502 10c2 5 3 6 8 6l5 1c1 1 2-4 1-7-1-2-8-4-13-4-3 0-3 0-1 4m-17 12c-4 0-5 1-5 3v3l9-1 8-2 18 5c17 4 18 4 36 5 18 0 27 1 43 5 8 2 9 2 10 0 4-3-18-7-45-8l-22-1-20-5c-18-5-22-5-32-4m2 6c-7 1-7 0-6 10v8l3-1 2-3c0-2 1-2 4 0 2 1 3 2 4 1h7l4 2c1 1 4 2 6 1a14 14 0 019 2c2 1 3 2 2 3v1l2-2h3a18 18 0 0012-1 86 86 0 0138 5 23 23 0 0115 4c2 0 10-7 8-7l2-2 4-1-3-1-2-3c1-2-18-5-41-6l-29-2-37-9-7 1m-127 11l4 1c4 0 6 3 3 5l-1-1-1-2c-1-1-1 4-1 13v14h10c2 1 2 1 2-15l-1-9c0 3 0 6-1 5l-1 1 1 1a1 1 0 010 2c-2 0-2 1-2 6l-1 6c-1-14 0-27 1-27l-6-1-6 1m43 5c-1 2-2 2-3 1l-6-1-5-1v27h4l8 1h-5l-7 1 2 2 10 2h3l-1-14 1-17c1-3 1-4-1-1m14-1l7 2 7 2h-3c-2 0-2 0-1 1s1 1-2 1a2 2 0 01-4-2v2l-1 1c-2 0-2 1-2 10l1 11h4c5 1 7 2 1 2-4-1-4-1-4 3 0 3 0 3 2 3h2l4 1h2v-15c1-18 1-19 4-20 1-1 0-1-3-1h-9l-5-1m66 5l-3 3c1 2 4 4 5 3l-1-2c-3-2 6-1 25 3s21 5 31 4c11 0 25 1 36 3 7 2 9 3 3 3h-4l10 1c-1-1-1-1 1-1s2 1 2 5 0 4 1 2l2-2v-1c-1-2-1-8 1-9v-1c-1-1-2 0-2 1l-11-1-29-3c-15 0-23-1-29-2l-25-4c-2 0-3 0-2-1l-2-1-5-1c-1-1-3 0-4 1m-37 17c0 5 0 7 1 6h1l2-1c2-2 3-2 3-1l3 3c5 1 2 5-2 4-5 0-7-1-6-2l-1-1-1 3 1 2c1-1 1 0 1 1h-1l-1 4 2 4c2 0 1 2-1 3-1 1-1 1 1 1l7 1h5v-3l1-4v-4l-1-11v-11h-4l-7-1-3-1v8m-50 15l-4 1-3-1v14h8l4 1 3 1v-16h-8m221 4c0 1 0 2-2 2s-3 0-3 2l-3 2v5l1 2 3 1 3-1c-1-2 6-8 10-8 2 0 2 0 1 1l-3 1-3 2c-2 1 2 7 5 7 4 0 3-1 0-2-2-1-2-1 0-1l6-2 3-3a8 8 0 003-6l-5-1-3 1c0 2-1 2-3 2-3 0-3 0-2-2 2-2 2-2-5-4-3 0-3 0-3 2m-117 3c-3 0-4 6-4 19v11h4c9 2 8 3 7-11 0-11 1-19 3-16h1a5 5 0 00-3-2h-3l-5-1m-236 10a24 24 0 01-1 11l1 6v7l5-1c6 0 7-1 6-3l1-2c2-2 1-4-3-4-3 0-5-1-5-2l1-1v-14h4l4 1 1 4 1 4v-4c0-4 1-5 3-3h1c0-1-2-2-9-3l-6-1c1-1 7 0 14 2 3 0 3 6 0 10v2l1 1v2c4 4 5 12 2 16l2 3 3 2v-12a68 68 0 010-14l-3-8 2-3c1 0 1-1-2-2l-21-4c-1 0-2 2-2 10m379-9v2l-2 1c-2 0-3 0-5 2-3 4-4 4-1 8 1 2 6 3 5 1v-2l1 2c0 3 4 2 5-1 0-2 1-3 2-3v-1c-1-1-1-3 2-3l1-1-1-1-2-1c0-2-4-5-5-3m12 2l-1 1c-1 0-3 5-2 6l9 1 9 1v-10h-8c-5 0-8 0-7 1m-110 3c-2 0-2 1-1 3v2l-1 7v5h4l8 1 5 1-12-1h-5v11h19v-14c0-14 0-15-2-15h-15m-246 12c0 11 0 12 2 12s5 4 3 4v1c2 0 2-1 1-8l1-8c1-1 1 0 1 1l1-1c2-3 3-3 3 1s2 10 4 10c1 1 1 1 1-9v-10c0-3-1-3-6-4-12-2-11-3-11 11m65-9l2 4 1 1h-1l-2 1c0 1 1 2 4 2l4 1h-4c-4 0-4 0-4 3a2 2 0 003 1l1-3c2 0-1 6-3 6-1 1 1 1 3 1h5v-9c0-11 2-10 2 2l1 11v-12c0-9 0-11-2-11-2-1-2-1-2 4 0 3 0 4-1 3l-1-5c0-4-6-4-6 0m209-1v23c0 6 1 7 7 7l1-12c-1-11-1-12 1-14 1-2 1-2-2-3-3-2-6-2-7-1m-183 1l-1 8c0 9 0 8 9 9l6 1v-8c0-10 0-10-7-9l-4-1h-3m-369 4h-3c-2-1-3-1-3 1-1 1 0 2 1 1l1 9c-1 7-1 9 1 9l18 2 18 1c1-2-2-3-6-3l-5-1h-2l-2-2c0-3-1-3-4-2-3 0-4-1-2-3a2 2 0 10-2-1v4c3 2 3 5 1 3l-2-3-1-1v-1c2-1 2-5 0-5-4 0-6-2-4-2h2l4 1a7 7 0 015 0v-3c1-1 0-2-2-3h-3l1 1 2 2c0 1-1 2-3 2-1 0-2-1-1-2h-3c-3 1-4 0-3-1l3-1h1l-1-1-3-2c-2-1-2-1-3 1m400 2c3 5 3 10 0 9-4 0-2 3 2 5 8 2 8 2 8-7v-9h-7l-1 2-1-1-2-2 1 3m25 3c0 3 2 5 2 2l2-3c1-2 4 1 3 3l1 2c1 0 2 0 1 1h-9v7c0 9 0 9 9 9h4v-11c0-13 1-13-9-13-4-1-4 0-4 3m147 2c-2 1-3 2-3 4 0 3 0 4 3 4l3 1h-3c-3 0-4 1-2 2v1l-1 3c0 2 6 3 9 1 1-1 1-1 1 1 0 3 0 3-3 3-5 0-7 2-2 2s5 0 5 3c0 2 0 2-4 2l-4 1c-1 1 1 1 3 1 5 0 5 0 5 3 0 2 0 2-4 2l-5 1 5 1c4 0 4 0 4 2l-1 3h-5l-3 1h4c5 0 5 0 5 2 0 3-1 3-5 4h-4l3 1h5l1 2c0 3 0 3-3 3l-5 1c-1 1 0 1 3 1 5 0 5 0 5 3 0 2 0 2-4 2l-5 1 4 1c4 0 5 0 5 2 1 1 1-10 1-25 0-23 0-27-1-26-3 0-3-2-4-9v-7l-3 2m-425 1c-10 1-10 0-10 7 0 5 0 6 4 10 7 7 9 5 9-9v-8h-3m-111 6c-3 4-3 9 1 9l3 1h-3l-3 1h-1l-16-2-18-2c-4 0-6 3-3 6v1c-4 0 0 9 4 9l2 2h3c4-1 6 2 2 4l-1 2 1 1c-1 1 0 1 3 1l1 1-3 1-1 1-3-3h-1l-1 1-1-1-1-2-2-1-2 1 2 1v1l1 3c3 3 3 4 0 4h-2c0-2-2-1-2 2-1 3 0 3 1 2h7c2 3 12 4 12 1l-2-1c-1 1-1 1 0 0l-1-2v-2l1-5-1-3 4 1c3 1 3 1 3-2 0-2 0-3 1-2 0 3 2 2 3 0 1-3 1-1 1 3 0 2 4 3 7 1 1-1 0-4-1-4l-2-2c-1-1-1-1 0 0 2 2 3 1 3-1-1-2 6-4 7-2 1 1 2 0 2-2l4-5 3-2-3 1c-4 1-4 1-3-1v-4c-1 0-1-1 1-1l2-3-1-4c0-2 0-2-2-1-2 0-2 0-1-2s0-3-1-3l-3 3m439 16c1 13 0 12 7 13h5v-10c0-10 1-13 2-10h1c-1-2-3-2-10-3l-5-1v11m46 2c0 5 1 6 1 4 0-5 2-7 3-4s0 10-1 10-2 2-2 6l1 7h18v-3l-1-4v-3l1-10c0-6 0-8 1-7v-1c-1-2-2-2-11-2l-10-1v8m31 7v13h3c3 1 3 4-1 4-2 1-2 1 2 1h4l-1-10c0-12 1-18 3-18h1l-1-1-6-1-4-1v13m43-6l-2 3c0 3 5 4 7 1s2 1 2 13c0 9-1 13-2 14l-1-10v-9l-1 9v9h-3c-2 0-2 0-1 2l1 1c-2 0-2 1-1 3h2c1-1 1 2 1 9a58 58 0 000 13h-1l4 2 1-2 1-26 1 15 1 16 1-30v-31l-3-1c-3-2-6-2-7-1m-247 3l-11 1c-5 0-6 0-6 2l1 1 2 1 8 1h6l-4 1c-3 0-4 0-3 1 2 1 14-1 14-3l1-1 2-1h10c0 1 1 2 5 2a71 71 0 0128 3c17 0 21 0 21 3 0 1 1 2 3 2l2 1 3 1 2-1c0-2 10-2 13-1l10 2 10 1h20c7-1-4-4-12-3l-1-1 8-1h8l1-1c1-1-3-1-7-1h-18l-8-1 6 1 7 2c0 1-5 1-18-1l-15-2c-7 0-7 0-4-1h6l2-1-12-1-34-3c-25-3-38-3-46-2m285 1c-2 1-3 1-2 3 0 2 1 2 7 2 9-1 9-1 9 13l1 12c1 0 2-19 1-27 0-3-9-5-16-3M59 262l1 1c1-1 2 2 2 3-2 1-5 2-6 1l-1-1a4 4 0 001 4h5l1 2c1 1 1 2 2 1l4 1h11l3-2c1-1 1-1-1-1l-2-1h-2l-1-1c1-1-5-6-8-6l-3-1-3-1-3 1m-28 9l-4 2c-2 0-2 0 0 2s4 3 4 1l1-2v5c1 1 1 1-1 1l-3 1 1 1h8l1-1 1 1c-1 1 0 2 1 2l1 2h-8l-3 1h-3l-2-1-1-1c1-2-2 0-4 2a8 8 0 01-10 0l-1 1c-1-1-2 0-3 1-1 2-1 2 1 2 1-1 2 0 3 1 1 2 1 2-1 1H5l-3 2-1 1v1c-1 1 0 1 3 1s4-1 5-2c1-2 8-1 8 1h-1l-2-1v1c1 1 3 2 4 1l1 1c0 1 0 2 2 2l5 1 3 1 3 1v1c-2 0-2 0-1 1v1l-1-1h-3c-1 0-2 0-2-2l-3-1-4-2-3-1v1c1 1 1 1-1 1-2-1-2-1-1 1 1 1 1 1-1 1s-2 0-2 2-2 3-3 1c0-3-2-1-2 2 0 2 1 3 3 1h3l1 1c-3 0-5 2-4 4l-6 5c-2 0-2 3-1 3l1-1h2l2-1-1-1c-2 0 1-2 3-2 1 0 2 0 1 1H8l-1 1c0 2 4 1 4-1h2c2 1 2 1 0 1-2 1-2 1-1 3l1 2c-1 1-2 0-2-1l-4-1c-3 0-3 1-3 4s-1 4-2 3c-2 0-2 0-2 2l1 2c2-2 2 1 0 3v1l1 1H1l-1 24c0 24 1 28 2 24 1-1 1-1 1 1l-1 3c-1 0-2 10-2 48v48h3l3 1H3l-3 1c0 2 23 1 27-1 4-1 26 0 28 1 1 1 83 1 84-1l5-2c4-1 5-2 5-3l1 1 3 1 1 5-4 1c-4 0-4 0 1 1 8 1 69 3 110 2h37l3-3c2-3 3-4 1-5-2-2-1-2 6-2h6v-3c0-3-1-3 17-3l7-1h11c1 2 11 1 11 0l-1-9c-4-3-4-3-3-4l4-2c3-1 3-1 2-2-2-1 0-3 2-3 4 0 6 1 6 3l2 4 2 1-2 2c-2 1-2 2-2 6v5h18v-7l-1-8v-1c2-3 1-21-1-22v-1c3 0 2-41 0-42s-2-8 0-9v-17a4 4 0 010-6v-2l1-2-1-2v1l-1 1-1-1-1-1h-2c-1-1-1-1 1-1h3l3-2c1-2 4 0 4 3l1 2c1-1 2 2 2 3l-1-1-1-1-1 16 1 15h1l-1 1a126 126 0 000 34l-1 6 1 21a76 76 0 002 20l-1 4h9l14 1 9-1h3c1 1 10 2 13 1l2-1v-1l3 1 1 1h6c5-2 7-1 7 1-1 2 1 1 2-1l3-1v2c-1 1 0 1 2 1a4 4 0 005-2v2l3 1c1 0 2 0 1-1l1-2c1-1 1-1 1 1l3 1c2 0 2 0 1 1v1l2-1h4l6-1c0-2 1-2 3-1l2-1h6l2 1 2 1c0 2 4 1 5-1 0-4 0-4 1-3l4 1c3-1 3-1 3 1l-2 2-2 1c2 1 6-1 5-3 0-2 1-3 3-3l2 1-1 1h-1c0 1 4 3 5 2h3c2 0 3-1 3-4s1-4 2-3v1l-1 2c0 2 1 3 2 2l6-1c3 0 3 0 0 1-2 0-3 1-3 2l-1 1v1l3-1c0-2 1-2 1-1l5 1 7 1 23 1c-1-1 1-1 4-1l3-1-5-3h-8c-2 2-3 2-4 0-3-1-7-2-6 0 0 2-2 1-3 0v-2c2 0 2-1 2-2v-2l1 1 1 2c1 1 4 0 4-1s1-2 3-1l2 1a1 1 0 102 0l-2-2c-3 0-4-2-1-2 1-1 0-1-2-1s-3 0-2-1l1-4 1-2v3c0 4 3 4 3-1l1-3v3c0 3 0 4 2 4v1h3c2 0 3-11 1-11-1 0-2-1-2-3l1-3 2-1h-3l-2 1v6l-1-6v-11c0-7 2-9 2-3 0 2 0 3 1 1 0-3 2-3 3 0 0 2 0 2 2 0l1-2v2l1 5c1 2 1 1 1-1 0-3 1-4 2-5l2-1h4c0-1 5-3 6-2l1-2c0-2 3-4 7-4s4 1 4 3-1 3-5 3l-2 1c1 0 2 0 1 1l3-1 4-1v-14h-10l4 1c4 0 5 1 5 3 0 3 0 3-4 3-5 0-7-2-7-6l-2-2a3 3 0 01-1-5l1-1-2-1c-4 1-4-1 0-3l4-1-4-1-6-1h-2c-2 1-5-1-3-3h3l2 1h1l-1-2h-8l-1-1-2-2h-3c-2 0-3 0-2-1v-2l-1-2-1-1h-1c0 3-1 2-4-1l-6-5c-2-2-2-2 4-1l39 1 2 1 2 3c2 1 2 1-3 1-7 0-6 1 1 2 4 0 5-1 6-2 0-2 4-3 5 0l6 1c6 0 6-1 6 20l1 18-6 1c-8 2-27 12-22 12l-1 2c-2 2-1 2 6 1l6-1v-4c1-5 2-5 3 0v4l7-1h7v25h-12c-12 1-12 1 4 3l7 1-1 4 1 4v5c0 4 0 4 3 4h2c1 1 1 0 1-1l1-3 26 5a16 16 0 0015-1c3 0 3-2 3-57v-51h-18l1 2 1 12c0 11 0 11 8 11 6 0 7 0 7 2s0 2-2 2l-3-1c-1 0-2 0-1-1l-7-1-11-1-2-1-3-2a5 5 0 00-8 1l-1 4c-1 4-1 6 1 11l1 4c-1 1 3 2 11 2l12 1c0 2-1 2-16 2h-16v-18c-1-20-1-19-8-20-5 0-7-2-3-2 3 0 4-2 3-9 0-6-1-7-3-8s-2-1 3-2 5-1-3-1l-6 1-3 1c-3 0-3 0-3-3v-4h-5c-6 0-6 1 0 1 5 0 6 3 2 5-2 1-2 3-3 5l-1 3h-3l2 1c3 0 3 0 3 3s0 3-5 2c-4-2-21-3-19-1l-10 1-15-1c-3 0-4 0-3-1 2-1-3-3-5-2-1 1 0 1 1 1 3 0 3 0 2 2v2a8 8 0 014 5l-1-1-2-1-3-1-2-2c-2 0-2 0-2 3 1 3 0 4-3 1h-2c-2 2-5 3-4 1l-1-1c-1-1-2 0-2 1l-1 2-1-1-2-1v1l-1 1-2-1-2-1h-5c-1-1-5-2-5 0 2 2-2 3-4 0l-3-2-2-1-3-2-2-2 1 2 2 3c-1 1-1 1 0 0l4 2c-2 2-5 1-5-1-2-2-2-3-4 0-2 1-5 0-4-2l-1-2-2 1-1 2v2c0 2 0 2-2 1-1-2-3-2-4-1a7 7 0 01-8-5l-1-4c-1-3-1-3 1-2s2 1 1-1 0-6 1-6c1-1 1-1 0 0h-6c0-1 1-2 3-2l3-1-3-1a2 2 0 01-2-3l-1-1v-1l4 1c1-1 2 0 3 1 2 1 1 0 0-2a11 11 0 01-4-5c-1 1-5-3-5-5l2-1c2-1 2-4-1-4-1 0-5-4-5-6h1l1 1v1h1l1-2 1-1h-1l-1-1c1-1 2-1 4 1l2 2v1l1-5c0-4-2-5-2-1l-2-1a3 3 0 00-4 0v1c-2 1-3 0-3-1h-3c-4 1-5 4-2 4l1 1h1l1 1c-2 2-5 1-5-2l-2-3a1 1 0 111-1c2 3 6-3 5-7l1-3 1 4c0 3 0 4 2 4a1 1 0 101-3c-1 0 0-4 2-4v-1c-2 0-2-1-1-2 0-2 0-2-2-2s-2-1-2-3c0-3 0-4-2-4v-2c2-1 2-4 2-8l1-9c1-2 1-2-1-4l-1-2c1-1 2-10 1-11l-3 1h-4c-2-1-2-1 0-1l3-1c0-1 2-2 6-2l7-1h-6c-5 0-5 0-5-3 0-2 1-3 2-3h-5c-6 0-7 0-6-2l-1-1-1 8 1 7h1l-1 1-1 3c0 2 1 3 2 3l1 1-1 1c-1-1-2 1-2 6 0 6 1 7 3 7l2-1h1v2l1 1 2 3 2 1c0 2-4-1-5-3l-4-2c-2 0-3 14 0 17v1c-2-1-2 0-2 2s0 3 2 3v6h1l-1 1-1 3-1 3v1l1 16 1 4 1-1h1v1a4 4 0 00-1 5v-1l1-1c1 2 1 5-1 5-2 1-2 1-2 3l2 6 2 3 1 3c0 2 1 2 5 2l4 1-1 1v1c0 2-2 1-4-1h-4a156 156 0 01-36 0c0 2-8 1-8-1v-1h2l-1-1v-1c2 0 0-2-2-2s-3-1-3-2c-1-2-1-2-2-1 0 2-1 1-2-2l2-2c2 0 5-3 3-3h-3l-1-2-3-4-2-1-2-3c-2 0-2 0-1-1v-4l2 2h2c4 0 7 1 7 3-1 2 4 4 7 2 1-1 0-1-2-1-4-1-6-3-4-4h3l3-1v-4l-1 1c-3 3-4 3-5-1 0-3 1-4 2-2 1 1 1-2 1-5 0-6 0-8-2-9v-1c2 0 3-2 1-4v-1h-1l-3 1h-1l-2-1v-2l-2 1v2c0 2-1 1-1-1l-4-4c-3-3-1-7 3-8 3 0 5 3 2 5l-1-2c0-1-1-2-2-1l-2 1c0 1 3 3 5 3 1 0 2 0 1 2v1h4l1-2v1l1 2c2 0 3-4 3-11l1-4 1 3 1 1v-5h-18l3 1c1-1 2 0 1 1l-2 1-3 2h-1c0-3-4-5-6-4l-4 1-3 1c0 3 3 8 5 8l2 1-2 1c-3-1-5 1-4 5 0 3 2 4 4 4 3 0 2 2-2 3-2 1-2 1-2 4 0 2 0 3-2 3s-3-1-2-5c1-5 0-8-2-8l-1-2h1a2 2 0 102-2l-1-1 1-1v-1l-2 2h-1l-1-2v-1l-1-3c0-3 2-4 4-2l-1 1v2c2 2 3 2 3-5l-1-5h-1c-2-3-10-1-10 2 0 2 0 2 1 1l3-1 3-1c1-1 3 0 3 1l-2 1c-1 0-2 0-1 1l-1 1-2 2-2 3-1 1-1 2-3 2-1 1 2 1c2 0 2 0 1 2l-2 3v1l-1 2h2c2-2 5-2 5 0h-1a6 6 0 00-6 7c-2 0-2 0-1 1 3 2 0 7-5 6l-6-1h5c5 0 5 0 2-3l-3-1h-1c-1-1 0-3 2-3l1-1-1-1h-1l1-1c2-1 2-1 2 1h1v-6l1-2v-1c-2 0-3 0-4-2l-3-3-1-1c0-3-2-3-2-1v2c1 0 2 1 2 3s-1 3-3 3-2 0-1-2c2-2 2-3-2-1l-3 2h2c0 1-4 5-6 5-1 1-1 1 1 1s2 0 1 2l-3 1h-1l-1 1c-2 1-2 1-1 2v2c-3 1-2 3 0 3h2l-1 1-1 1-4 9v1c3 0 2 3 0 3s-2 0-1 1c2 0 2 1 2 2v5l-1 3 3 6v5a5 5 0 00-2 3v5c-1 5 1 5 2 1 0-2 0-2 2-1 1 2 1 2 1 0l2-2 2 1-2 3-2 2c-2-1-1 0 1 2s3 2 3-1l1-2v2c0 2 0 2 2 3 2 0 4 8 2 8s-1 1 3 1l3 2h-4c-1 1 0 5 2 5 2 1 2 1 2 3v3l-1 8-1 2-1 2v-5c0-2 0-3-2-3l-1 3a2 2 0 01-3 3l1-1v-8c0-2-1-2-2-1h-1c-2-2-3 0-2 2 0 3 2 4 2 2l1-2 1 3-1 2c-4-1-4 0-3 5l-1 5c-2-1-4 2-3 4l1 3v-3l1-2a10 10 0 010 11h-1v-3l-1-1-1 5v4c-1 0-2-3-1-9 0-4 0-5-1-4l-1 3-1 2v8l-1-4-2-4-1 1c1 1 0 6-1 6l-1-3-1-4-1 1v1l-2-1v-3c-2-1-1-7 0-6v1l1 1a25 25 0 002-20l1-2c0-3-2 0-3 3 0 4-2 4-2-1l-1-4c-1 0-2-1-1-2 0-2 1-2 3-1 1 1 1 1 0 0 0-2 0-2 2-2 2 1 3-2 1-3s-1-3 1-3l1 2 1 2c2 0 0-4-2-5l-2-1c0-2 2-1 4 1h2l-5-5-2-1 1-1c2 1 1-1-1-3h-3l-3 1c-1-1-4 5-4 7l-1 1v3l-1 3v3c-2 0-3-4-3-20l-1-31h-10v-32c0-29 0-32-1-30l-4 1c-2 0-2 0 0 1 2 0 2 1-2 4-3 4-6 5-3 1v-3l-1-4v-29l-1-2c1-4 0-5-3-5-4 0-4 0-4 9l-1 7c-2 3-2 4 0 3 2 0 1 15-1 19v2c1 0 1 5-1 8l1 2c1-1 1-1 1 2-2 9-2 10-6 15a512 512 0 00-19 23l-3 3v38h-7l2 3c2 3 4 3 4 0 0-2 0-2 1 0l1 1c0-2 1-1 2 1 1 5 3 7 3 5l1-2 1 1 2 1 1 1-2 1c-2-1-2-1-2 1l-1 2h-1c-1 1-1 1-1-1 1-3-2-6-3-5l-1 3c2 3 0 9-2 9l-2-1-22-1h-21v-21h-22l-26-1h-4l1 3 2 6c0 2 0 3 1 2l1-2c1 0 1 12-1 25 0 5 3 6 4 1s1-5 1 2 2 8 3 2v-9l1 2c2 4 3 4 3-2l1-18c1 0 2 5 2 15 0 8 0 8 3 8 2 0 4 2 3 3l-2-1h-1l1 2-2 4c-3 3-6 4-6 1l-1 1h-1c0-2-4-1-4 1l-1 2h-2a3 3 0 01-4 1l-4 4c-4 3-4 3-4 1l-1-2-1 4c0 7 0 7-4 7a7 7 0 00-7 2c-2 1-2 1-1 2 5 1 1 2-10 2-7 0-12 0-11-1l4-2 4-2 3-1h-13c-11 0-14 0-13-1l23-1c22 0 23 0 22-2l-2-2-2-1a1 1 0 10-3 1l-11-1h-11l-1-3c0-4 0-4 3-3 2 0 2 1 2 3-1 2 0 2 1 1l1-3 1-1 1 1h1v-2c-2-2-8-2-13 0-3 0-3 0-2-1s1-2-1-2l-3-1c-2-1-2-1 0 1l1 2-1-1a2 2 0 10-1 2v1c-2 1-5 0-5-2-1-2-1-2-1 0 0 3 0 3 8 3 4 0 4 0 4 2v2l2 1-3 1-2 1-3 1a5 5 0 01-5-2c-2 0-2-1-2-7s0-6 2-6h1l-1-1-1-1c-2 0-3 2-3 6v6c-1 2 0 3 1 3l1 5c-1 5-2 7-3 4 0-2-1-2-4-2s-3 0-3 4v4h-6c-7-1-8-1-9-11l-3-8H55c-3 2-4 5-2 4 3 0 4 3 3 5l-2 6-1 4H28c-2-2-1-40 1-45s1-5-3-5c-5 1-8 3-14 8-4 4-5 3-1-1 4-5 11-9 17-10 4-1 5-2 3-2-1-1 0-1 3-1l4 1-2 1-2 1-2 6c-2 3-2 4-1 5s2 0 4-4c1-4 2-5 3-5l2-2h1l3-1 5-2 4-2h2v3a3 3 0 00-2 4c-1-1-3 8-1 9v2c-1 1 0 1 1 1l3 1h10l3 1-3 1-8 1-5-1c0-2-4-2-5 0 0 2 1 3 2 1h1c0 2 17 1 19-2 2-2 2-2 2 0l4 2c2 0 2 0 0-1l-3-3c-2-2-6-3-8 0h-1c0-2-4-3-9-3-4 0-4-1-1-7 2-4 6-5 9-1 2 2 3 1 2-3l1-4c2 0 3-1 3-3 2-4 2-4-1-4-2 0-2 0 1-1a17 17 0 006-3v1c-2 2-5 10-4 12 0 4 2 4 5 1l3-2 3 1v-1l-3-2c-2-2-3-2-3-1 0 2-2 3-3 1v-3c0-1 3-2 4-1l4 1 2 1c0 2 1 6 3 6 4 0 5 4 1 5l-5 5 8-4c0-1 4-1 5 1 2 1 2 1 2-1 1-2 1-1 1 1v4h5l5-1h1c2 1 21 2 23 1l1-2h7l1-2c-2-1-1-2 2-1l2 1-1 1c-1-1-3 1-3 3l2 1c2-1 3 0 3 1 1 1 0 1-2 1l-2 1 1 1c3-1 6 2 3 3-1 1-1 1 1 1s4-3 2-6l-1-6-1-5v-8c2-2 1-4-1-4s-2 0-2 6c0 5 0 7-1 6l-1-1-2-1c-2 0-2 0-2-3v-2h-1l3-1c2 0 3 0 2-1v-1l-3-1h-8l-5-2h-2c-1 3-3 2-3 0 1-2 1-2-1-1h-6l-5 1h-1l-3 2-2 1 2-2v-2c-1-2 0-3 4-4 4 0 5-1 3-3l-2-2 1 1c3 2 5-6 3-9-1-1-1-1 0 0 2 1 4 1 3-2l1-1a2 2 0 003-3l-1 1v-9c-2 0-2 0-1-4l1-3-1-2 2-3v-2l-2-4-1-1-1-2 2 1 2 3 1 1c2 0 2-1 2-8l1-8v-3l2-6c2-3 3-5 0-5l-1-2v-1a16 16 0 01-1-9v2l1 1c2 0 1-5-1-7l-1-2-2-1c-3-1-4-1-2 1s2 2 1 5l-2 1v-2c-2-1-5 0-5 2 1 1 0 1-4 1l-3-1c2-1-1-4-4-4h-1l-2-1c-2 0-2 0 0-1 3 0 3-2 1-2H91l-2-1-1-1 2-3 1 1 1 2c1 3 7 2 5 0h-1l-1 1v-1c2-2 1-3-3-4-3-1-3-1-2-3s2-3 1-4v-2h2l1 1 2 1 1 1-2 1c-3-1-3 0 0 3s6 3 6 0c-1-2 0-5 1-3v3c0 2 1 2 3 2h6l-2-1v-1l3 1c1 1 2 2 3 1v1l-3 1c-3 0-3 0-2 2l2 6-2-2c0-2-2-5-4-6l-5-1h-4l2 1 4 2 3 1 3 3h-4c-4 0-4 1 0 1l5 2 3 1c-1-1 0-1 1-1v-1l1-1h2c1-1 1-1-1-2-3-1-5-3-2-3h6l4 1-1-1c-4-2-5-2-3-3l1-2-2 2h-3c0-1 0-3 2-3v-4c-1-2-1-2-2-1-1 2-4-4-3-7l-2-1h-1c1-2-2-4-5-4h-1c1 0 1-1-1-1l-1-2h1c0 1 3 2 4 1l-1-1-3-1c-4-3-8-1-6 2l1 2-2-2c-1-4-5-4-5-1 0 7 0 7-2 5s-2-5 0-4l1-1c0-2 0-3-4-2l-5 1 3 1h3c0 2-3 2-5 1l-3-1 2 2 1 1-1 1-2 1c-2 0-2 0-1 1v4h3v-1l3-3 1 1v1h8a3 3 0 014 0l-1-1-1-2h1c1 1 1 1 3-1l3-2v6l-1-1c1-1 1-1 0 0v2l1 2h-3c-1 0-1 1 1 2l1 2-2-1-2-1-2-1h-2l-1-1h-1l-4 1c-4 0-8 3-6 5a3 3 0 010 2h-2v-3c-4-2-7 0-3 3l1 2-2-1h-3l-3-1h-1c1 2 0 2-2 2l-5 1c-2 0-2 0 1-3l3-3h-3l-3 1 2 1 1 1h-5l-4 1-1 2-1 2a2 2 0 012 3l-1-1-3-1c-2 1-3 0-3-1a2 2 0 00-2-1l1 2h-1l-1 1c1 1 0 2-1 2l-1 1-2 2c-2 1-2 1-1-1v-1a2 2 0 010-3l1-1h-4l-2 1c-1-1 3-4 5-4l4-2c2-2 5-3 5 0l1 1 1-2 2-1c1 0 2 0 1-1l1-2v-6l1 1c0 3 1 4 3 2l2-2-2 3c-3 4-4 6-1 5l2-1v-1c0-1 2-2 5-2l5-1 4-2h4l-3-1h-6l-5-3c-3 0-4-2-2-2l3-2c2-2 3-2 4-1 2 1 4 0 5-3 0-3 1-3 2-3l4-1v-1h-4l-6-1h-4c-3 2-3 2-1 2h4c1-1 4 1 3 2h-8c-1-1-1-1-1 1 1 2-3 3-6 2-1 0-1-1 1-1 4-1 5-3 2-5v-2l1-1h-1c-2 1-2 2-1 3v2c-1-1-6 1-8 3l-4 2c-3 0-3 0-2-2 2-1 2-2 1-2v-1c1 0 1-1-1-2s-2-1-1-3l1-2-2 1h-3c-1 1-2 1-4-1a2 2 0 01-1-3l-2 2m345 0c-3 0-4 1-1 3 1 1 2 3 2 20l1 20h6l5 1v-45h-5l-8 1m27 23l1 21h14v-18c0-19 0-21 2-22l-4-1-9-1h-4v21m28-19l7 1h4l-5 1-4 1c-2-1-2 0-2 10l1 12 1 8v8h9l2 1v-18c0-19 0-19 3-21 3-4 3-4-6-4h-8l-1-1-1 2m47 2l1 4c2 1-1 3-3 3h-2l2 15c0 18 0 16 2 18 1 1 1 1-1 1-3 1-2 4 1 4 2 0 2 0 1 1-3 0-2 2 0 2l2-2v-10c0-4 0-5 2-6 4-3 10-3 10 0s0 3 3 0c2-2 4-2 4 1l1 2v44l-4 1c-4 0-5 0-4 1l1 5 2 5v-5c-1 0 0-2 2-3 3-3 4-3 10-2l6-1-4-1h-4v-22a75 75 0 013-29v-12a4 4 0 00-3-6c0-1 3-2 7-2 9 0 11-1 2-1l-6-1c0-1 1-3 3-3l-6-1a16 16 0 01-8-3v1c0 1-3 1-16-1-4 0-4 0-4 3m187 16v15h18v-27c0-3-3-4-4-2h-9c-2 3-1 3 2 2h7c2-4 3 3 3 13v12h-16v-13c0-11 0-12 2-14 1-1 1-1-1-1s-2 0-2 15m-150-6l3 1 6 1c0 2-3 4-5 3h-3v8c0 13 1 20 3 21v-1l1-3c2-2 2-2 2 20l1 22v-48l5-4c6-5 9-5 9 0 0 6 9 2 11-4l1-3c1 0 2-3 1-4l-4-1-3-1c0-4 2-4 17-3l20 1c3 0 5 1 5 2 0 2 19 3 21 1 1-2-6-3-39-5l-21-2c-12-2-31-2-31-1m-342 17c-8 0-8 1-6 2 2 2 2 3 2 14v11h5v-13l1-13 1 13v13h6v-28l-9 1m388 6c-1 1-1 1 2 1l12 2h-14v3l-1 14v12h5c10 2 12 1 12-1l-1-16v-14l-4-1h-11m26 7v26c3 4 4 0 5-13l1-15h-3c-2-1-3 0-3 2m27 1l-4 1-5 1h5c4 0 4 0 4 2 0 3 0 3-3 3l-5 1c-1 1 0 1 3 1 5 0 5 0 5 3 0 2 0 2-4 2l-4 1c-1 1 1 1 3 1 5 0 5 0 5 3 0 2 0 2-4 2l-5 1 5 1c4 0 4 0 4 3 0 2 0 2-5 2s-5 0 1 1 6 6-1 6l-4 1h4c5 0 5 0 5 3s0 3-5 3l-4 1h4c4 0 5 0 5 2 1 1 1-9 1-23v-24l-1 2m-176 1l-6 1v9a346 346 0 000 22v8h13v-38c0-2 2-1 3 2l1 4v-4c0-2-3-6-4-5l-7 1m191 1c-2 1-2 1-1 4 2 3 2 7 1 8v17l-1 2c-2 2-2 11 0 11 1 0 3-3 2-4v-4l2 3c0 3 0 3 2 2l2-2c1 1 1 0 1-1v-6c1-4 0-5-1-7a2 2 0 111-2h2l-1-1-1-3v-4l-1 2c0 3-3 4-5 2s-1-4 1-4 4-2 2-2v-1l4-1h1l-1-1-1-3a4 4 0 00-4-6c0-1-2-1-4 1m11 15c0 10 1 11 5 6l4-2c2 0 2 0 1 4l1 4 2-1c0-2 3-3 4-3l1-2 3-6 2-2h-3c-5 0-6-1-3-3s6-2 6-1l20 1-6-1-14-1-15-2-7-1-1 10m-553-4v1l-1 1-2 3-2 3 3 4c1 3 4 4 3 1v-3 1l1 1c2-1 2 0 1 2l-2 2h1l4-1c2 0 2 0 1-1v-4l1 1c-1 1 0 1 0 0 2 0 2-7 0-7l-1 3c0 2-3 2-4 0s-1-2-3-1c-2 2-2 1 1-2l2-1 1 2c1 1 2 0 3-2s1-2-1-2l-3-1-3-2v2m78 3l1 1c2 0 3 2 3 8 0 3 0 4 2 5l3 2c1 2 1 1 1-6l1-9 1 8c0 10 1 15 3 13h1c1 1 1-4 1-11v-12h-8l-9 1m324 0l-2 2c-3 1-3 9 0 11 3 3 7 3 7 0l2-2 1-4c0-5 0-5-3-5l-4-2h-1m70 12l1 9c0 15 1 16 5 13s5-3 5 1c0 2 1 3 2 3 2 1 1 3-2 3-5 1-5 3 0 3 7 0 7-1 7-16v-14c2-2 0-3-10-3-5 0-9 0-8 1m109 0c-3 1-3 2 0 3 2 1 3 1 3 18v17h12v-18c0-18 0-19-2-20h-13M29 356v5c1 1 1 1-1 1h-2c-1 2 1 10 2 11l1 4c0 4 0 4-1 3-2-1-3 0-3 3l-1 2v2l-1 1c-1-1-1-1 0 0l1 6 2 6c1 2 1 2 1-2l2-5c1-3 1-4-1-3l-1-1v-3l2 1c2 2 2 3 1 7-1 6 0 9 2 9l1 1h-1c-2 0-2 0-3 2l-1 2-1-3v-1c-1 1-2 2-1 3v3a4 4 0 007 2l2-1 2-3h-2c-2 0-2 0-1-1l3-2 2-1h3l1 2-1-3c-1-3-1-3-3-1l-2 1c-2-1 3-6 6-6s3 0 3 4 1 5 4 5c4 0 7-4 5-7v-4h-2l1-1v-2l1-1c-1-1 0-2 2-3 1 0 2-1 2-3l1-2 1-1c0-3-1-3-3 0-1 2-5 3-4 1 1-1-2-2-3-1l-1-2-2 1c-2 1-2 1 0 2 1 1 1 1-1 1s-4 3-6 7l-1 2c-1 0-6 5-6 7l-1 1v-9l1 2c0 2 2 1 2-2 1-2 0-2-1-2l2-2c1-2 3-4 4-3v-1l3-5a7 7 0 004-5l5-4c0-2-2-1-2 1-1 2-1 2-3 2-1-1-3 0-5 2l-4 3-2 2c-1 3-3 4-2 1l1-2 1-1c-1-1 0-2 1-2l5-11h-1l-3 2-2 3-4 7v-3a24 24 0 00-1-15c0-3-2-5-3-3m267 25c-6 6-6 6-5 27 0 5 3 8 3 3l1-3 1 2c0 4 1 5 4 3 2-3 2-3 2-20l-1-18-5 6m-177 10l-1 2c0 2 0 2 2 0h4c1 2 1 2-1 3h-1v-2l-2 1-1 2a2 2 0 00-2 2h1c1-1 7 1 7 2h-2c-2-2-4-1-4 1h-1l-3-1 1 1v1c-1 1-1 1 1 1l3 1 6-1v-2l1-1v3c0 1 6 2 10 0 1-1 1-1-1-1-1 1-2 0-2-1h1l1-1c0-2-2-2-4-1s-3 1-5-1v-1h5c2 1 4-1 3-2s-2-2-4-1c-3 1-6-1-4-2v-2l-2 1-6-1M0 439l1 39 1-9c2 3 3 1 3-5 0-4 0-4-2-4-1 1-2 0-2-1l1-2c1 1 15-13 16-15l-5-1c-10 2-11 2-11 4l-1-26c0-24-1-20-1 20m278-40v4c1 5-6 4-8 0l-2-2v13l1-2v-5l1-1 1 3c0 3-3 9-4 9l-4 4 4 1c3 0 3 0 3-3 0-2 0-2 1-1a2 2 0 003-1l-1-2c0-2 1-2 6-2h5v-4l-1-4-1-4c-1-4-2-5-4-3m-57 5c0 3 3 4 15 5 13 0 14 0 10-4-2-3-4-2-4 1v3l-1-3c-1-2-1-3-10-3l-10 1m209 20c0 2 1 3 2 3l-1 1c-2 1-2 1 0 2 2 0 3 1 1 3v1c1-1 1 0 1 4l1 4 1-2v-10c2 0 2 1 2 14l1 14 1-14c0-14 1-14 3-14s2 0 1-2v-2l-2-1c-3-1-4 0-4 2 1 1 0 2-1 1l-3-3c-1-4-3-5-3-1m47 2l-1 4h-1v1c2 0 2 2 2 13l-1 13-2-1-1-1c-1 1 0 3 4 5l1 3 1 3 1-5 3-1c4-1 5-4 4-7v-8c0-5 1-7 2-3h1c0-2-1-4-3-5-4-3-5-6-3-6l1 1v1l1-2h1c2 0 2 0 1-1-1-2-2-2-4-1-2 2-2 2-4-3s-3-5-3 0m-13 1l-6 2c-3 0-4 0-2 1 1 0 2 1 1 11l1 11 1-5 1-6v-4c-1-5-1-7 1-6l1 11 1 10 1-10v-11c2 0 3 0 3 3 0 2 0 2 1 1v-3l2-1c3 0 4-1 2-3h-2l-2 1c-2 0-3 0-2-2 0-4 0-4-2 0m-208 17c-2 3-2 5-1 5l1-1 2-1-1 2c-3 2-5 15-2 17 2 2 9 1 10-1v-8c-2 0-1-2 2-2h3l-3-1-3-3-1-1-2-1 1-1 1-1v-2c1-1 1-1-1-1l-2-1c-1-2-3-1-4 1m401 0l-12 1-7 1v25h9c7 0 8 0 9-2 2-7 7-12 12-12 2 0 2 0 2-7v-7h-4l-9 1m-18 38v6l11 1 19 3h9l-2-1c-2 0-3-1-3-3s-1-3-3-3c-3 0-9-3-9-4s-6-3-14-4h-8v5" tabindex="-1" itemprop="bold" style="fill-opacity: 0.684; fill-rule: evenodd; fill: rgb(21, 21, 24); color: rgb(232, 145, 23);"></path></svg>