<svg id="16282281824-posters-1611428486867" itemscope="" itemtype="/posters" itemid="/+16282281824/posters/1611428486867" viewBox="0 0 708 512" preserveAspectRatio="xMidYMid slice" tabindex="0" xmlns="http://www.w3.org/2000/svg"><rect itemprop="background" width="100%" height="100%" fill="white" tabindex="-1"></rect><path d="M0 89c0 88 0 89 2 89 3 0 3 1 0 4-2 3-2 3-1 4a14 14 0 014 4c-1-2 1-3 3-1h1c0-2 4-4 6-4v-1l-3-2c-1 0-2 0-1-1l-3 1c-3 1-4 2-4 0 1-3 4-5 6-4l7 1a11 11 0 017 2c-1-1 0-1 4-1h12c20 1 26 1 28-2 1-2 2-2 3-1l2 1 2 1h1v-1c0-1 3-1 4 1l1-1h2v-1l-2-2h-1l2-1 3-3 1-1 2-2 4-2 1-1 6-1 7-1 7-1c7 0 13-1 11-2v-1l2-2c1-1 2-2 3-1v-3c-1-1 0-1 1-1l3-1v-1l2 2 2 1h9l3-1 5-1 2-1 12-4-1-2h9l5-1h-5l-7-2c-2-1-11 1-9 2 1 1 0 1-2 1l-4 1 1-1 1-1-1-1h-3l-3-1-4-1c-2-1 4-2 23-3l2-1 4-1h4l8-2 8-2 2-2c2 0 2 0 0-1v-1c4 0 1-2-3-2l-4 1-5 1c-6 0-6 0-3-1 4-1 6-3 4-3h-2c-2 0-3-2-1-2h2l9-1a14 14 0 007-1l1 1 1 1 2 2 8-1c3-3 7-4 13-3h8c1-2 1-5-1-4h-1a2 2 0 014-1v1h3c-1-1 0-1 2-1l2-1h5l7 1h6a13 13 0 019 2l2 1h2c1-1 5-1 4 1l2 2 4 2 4 1 3 2 4 3 3 1h4c3 1 4 3 1 3h-3l-3 1-2 1a7 7 0 00-8 5c-1 2 5 8 8 8h8l8-1 10-2a17 17 0 0013-3v1c-2 1-2 1 7 3 5 2 7 2 9 1l5-1 3-1c-1-1 0-1 3-1h6c3-1 5-2 3-3l3-1 4 1-11 4c-2 0-2 0 0 1l2 2a17 17 0 00-11 12v3c0 3 0 3-9 3-4 0-5 0-7 2l-5 1c-5 0-11 2-12 6l-9 9v6l1 2 4 1h4l-4 2-5 4c-2 4-5 5-5 2h-5c0-1-2-1-4 1h-2l-2 2-1 3-5-2-11-1a19 19 0 01-9-2h-2c0-3-22 1-24 4l-2 2c-6 1-8 1-10 3-2 0-3 2-3 3l-3 1c-3 0-9 7-9 9 1 1 0 2-3 3-9 2-12 5-12 10l-1 6v3l1 2 2 1 1 1 2 3 2 3 5 2c4 1 6 1 5-1h7c2-1 2-2 1-2-2 0-2 0-1-1 1-2 2-2 3-1 2 1 4 1 4-2s2-3 8 0l2-1v-1l1 2c-1 0 6 11 8 12 4 3 7 7 6 8v2c-1 1-1 1 1 1s3 0 4 3 3 4 12 9c4 3 7 8 8 14l1 3h-12l-13-1a3 3 0 00-4-1v-2c1-2 1-4-1-4l-2 3c-1 2-1 2-1 0s0-2-2-2c-2 1-2 1-2-2v-2l-1-1-1-2h-6c0 1-3-2-3-4l-2-2v-1l1-1-2-1-3 1c-2 2-11 3-12 2h-7l-1-1c-2 0-5 3-5 5 1 1 0 1-1 1h-5c0-3-3-2-8 0-4 2-5 5-2 7l-4 1-6 3-3 1v-2c1-2 1-6-1-7l-1-2-1-1h-2c-1 1-2 2-1 3h-4c-1 1-1 1 2 1 2 1 2 1 1 2s-1 1 1 1c3-1 3-1 1 1v2h1l1 1c1 3 0 5-1 3l-4-1-3-2h-1l-2 1-1 1c-1-1-4 0-3 1 1 2-4 0-6-1-1-2-4-3-4-1l-1 1-2 2c0 3-3 4-4 2a73 73 0 00-1-6h-2l-1 1-2-1c-2-2-2-2-4-1-3 2-8 3-8 1l-1-5v-3c1-1-1-1-3-1-6 0-7-1-5-4 2-2 3-5 2-7v-1l1-2c0-2 0-2 2-2l1-1-1-1a3 3 0 01-2-1v-1l-1-2-2-2-4-1c-3 1-5 0-2-2v-2c-1-2-1-2 1-3l1-1v-1c0-1-2-3-4-3l-1 2-1 1-1-2h-2c-2 0-2 0-1-1 2-4 1-6-4-6-5 1-7 3-4 5a2 2 0 11-2 2l-2-1-3 1h1v1c-1 2-1 3 1 3v-1h2l3 1-3 1h-4l-3-1h-2v-2l1-1 1-3-1-4-1-2c1-2 1-2-3 1l-2 1 1-3c-1-2-4 0-4 2s0 2-1 0c-2-1-2-1-4 1a7 7 0 00-2 5h-1l-2-1h-2a2 2 0 11-3-4c-6-3-10-3-15 2l-4 3-1 3c0 2 0 2-2 2-1-1-2 0-3 1l-3 1c0-1 1-3 2-2l2-2v-2c-1 1-2 0-2-2l1-1h3l1-2 3-2 3-2 2-1-1-1-2-1v-1c-2 0-3 0-3 2s-1 1-1-2c-1-2 0-3 1-2v-1c-3-2-5-1-6 2-1 1-1 2-2 1-1 0-2-1-1-2h-2l-2 3c1 2-1 4-3 4v-6l1-1v-1l-1-1c0-3-2-3-5-1l-2 4a1 1 0 01-2 0c0-2-1-2-3-2-5 1-6 2-6 6v2c-4-2-4-1-4 7 0 7 0 8 2 9l1 1H1L0 387v125h709V0H0v89m0 1c0 48 1 68 1 44a8860 8860 0 00-1-44m323-17a15 15 0 01-9 1l-1 1h-2c-1 1-2 2-5 1l-4 1c-1 2 0 2 2 2 4 0 6 1 4 2-1 1-1 1 2 1l5-1c1-1 3-2 7-1 6 0 8-1 9-5v-3l-8 1m-158 34c-4 1-5 3-2 3 2 0 2 0 1 1-2 1-1 1 3 1 6 1 7 3 2 5s6 2 12 0c5-1 4-2-2-3h-6l10-4c6 0 9-2 5-2-10 0-12 0-10-1s-2-1-7 1l-2-1h-4m323 62c-5 5-5 8 0 8l3 1c-1 1 0 2 2 2 8 0 12 2 12 5l7-1 4-1 4-1c1-2-3-4-6-4l-5 1-2 1c0 2-1 0-2-1l2-3c1-1 1-1-1-1s-3 0-2 1l-2 1-5 1c-2 0-2 0-1-1l-2-5c-1-1-2-3-1-4 1-4-2-3-5 1m145 9v1l-3 2-3 3c2 0 1 4-1 5l-3 2-2 2h-2l1 4c4 0 1 3-6 7-8 4-11 7-9 9h4l4-2-3 2c-11 5-12 8-3 7l6 1h7c8-1 12-1 14 2l4 2c2 0 3 1 3 3l1 3c3 3 5 1 5-5 1-4 1-5 3-6v-2l-5 2c2 0 1 2-1 2-2 1-4-2-2-2 1-1 0-1-2-1l-3 1-2 1c-3 0-2-3 1-5v-2l-2-1c-1-1-1-1-2 1 0 2-2 3-4 1v-4l-2 1a2 2 0 11-2-3h1v-3c2-1 7-2 9-1s2 1 2-1l-1-3-2-1-3-1h6l2-1 1-1h-2l-2-1 2-1v-1h-5c-2 1-5 1-5-1l2-1c1 0 2-2 0-2-2-2 1-6 4-5 2 0 2 0 1-1-2-1 1-3 4-3h2l-2-2-2-1h-3m-28 16c-4 7-5 10-2 7 2-2 2 0-1 3l-2 11 3-4 6-6 7-4 4-2-2-3-2-4v1l-2 1c-1 0-2 0-1 1l-5-3-3 2m-75 0c0 2 20 21 21 21l7 6c4 7 7 8 6 5 0-3-3-6-5-7l-2-1c0-2-7-8-10-9l-3-3c0-2-5-7-9-9a5 5 0 01-4-4l-1 1m-9 1c1 1 0 2-1 2-2 1-3 1-3-1h-1l-1 4c0 3 0 4-4 5l-3 1v-2h-3c0 3-5 3-7 1-3-2-5-2-7 1v2c1-1 3 0 3 3l1 3 2-1c1-2 5-2 4 0l1 1c2-1 2 3 0 4h-2l-5-1c-3 0-4 1-4 2v1l-1 1c-1 1 0 1 1 1 3 0 5 2 5 4 0 1-3 1-6-1-2-2-3-2-3-1l-1 2a2 2 0 01-4-3l-1 7 1 5v2l-1 14 6-2 10-2 6-1c3-2 11-2 12-1 0 2 1 1 2 0 2-2 3-2 6-2l1-2c2-2 17-2 19 0 2 4 9 2 9-1s0-4 3-5l3-4 1-1c2 0-1-4-3-5-2 0-2 0-1-1v-2c-1 0-2-1-1-2l-3-2c-4-2-8-7-11-11-4-5-15-13-12-8l-1 1c-2 0-1-2 1-3v-1h-1c0 2-1 1-4-1h-2m51 2c-2 3-2 4 5 9l2 2c0 1-3 0-5-2l-3-4-2 3c-1 5-1 8 1 13s2 5 6 0c6-8 5-18-1-18l-1-1c-1-1 0-1 0 0a2 2 0 10-2-1m23 0h-1c-2-3-4 0-4 5l1 9c1 7 3 9 6 7 2-2 3-18 1-19l-1-2-1-2-1 2m-322 24a4 4 0 01-6 4c0 1 2 4 2 2l3 14c0 2 1 3 2 2v-3l1-3 1-2 2-2 4 2c2 1 1-5-1-8l-4-5c-1-3-4-4-4-1m115 10v2l1 2h3l1-1v3l-2 2c-6 1-8 7-9 26l-1 17c0 8 0 8 2 7l2 1h6l12 1h2l1 1c1 2 1 2 2 1s5 0 7 1l2 2a15 15 0 01-5 12l-2 5-1 2-2 4-2 2-1 1v1l-1 1c-1-1-6 4-5 4l-1 1-2 1 5 2 10 1 1 1a7 7 0 0011-1l1-9a110 110 0 011-39c2 0 1-4-1-7a15 15 0 01-4-6l-1-4-1-5-1-4c0-4 0-4-7-5v-1l-1-1-3-1c0-3-2-2-1 0l1 2 4 3 3 2-4-2c-3-2-5-3-5-1h-3c-2 0-3 0-2 1l-2 1h-1c2 1 3 3 1 3v-1h-1a5 5 0 01-8-4 4 4 0 012-6v-3c-1-1 0-4 3-4l1-2 3-2 3-2h-1l-3-1-3-1c-2 0-2-1-2-2v-2l-2 1m64 5c-2 2-2 2 1 3a4 4 0 014 5v2l-1 1-1 2c-1 1-2 2-3 0-2-1-2-1-3 1v5c0-1 3 1 3 3h-1c-2-1-2 1-2 11l1 12 1-3 5-7 5-5v-14c1-16 0-19-3-15-2 1-2 1-2-1h-2c0-2-1-2-2 0m16 1c-2 3-3 17-1 24 0 3 4 3 4 0l1-3c2-1 1-16 0-17v-3c0-4-1-4-4-1m-221 6a4 4 0 01-6 0l2 2 4 7c2 4 4 6 5 6l1 1 1-1c1-4 0-15-2-16l-5 1m92 1v6l-2 6-2 6c0 2 0 2 2 2s4-2 3-4h1c2 1-2 5-4 5h-2l-6 21-2 7-3 6-3 4h4c3 0 5 0 6-2h3a15 15 0 0016 2l4 1c2 0 3 0 3-4l3-9v-10l-2-14c-1-13-9-23-14-18-2 1-2 1-4-5h-1M0 387c0 69 1 97 1 63a17980 17980 0 00-1-63m315-118l1 1v2l-3 1c-2 0-1 7 2 11l3 5 4 6 4-11 2-3 2-5 1-4c0-1-1-2-6-2l-8-2-2 1m-24 6l-1 1h-1v2c0-1-2 0-3 2l-3 3 2 6 3 9c0 4 0 4 6 4 8 1 9 1 13-7 5-11 4-19-4-19l-2-1h-1v3h-1l-1-2v-1l-4-1c-3 0-4 0-3 1m278 5c-2 1-4 7-4 13 0 3 3 5 5 4v11l1 11 1-2 3-2c2 0 3-1 3-2 1-2-2-18-4-21v-2l1-2-1-4c-1-4-2-5-5-4m20 3l-1 16c0 15 0 16 2 6l1-6-1 7v9l1 3c2 0 5-7 3-9l-1-10c0-9-1-12-1-6 0 3 0 3-1-1l-2-7 1-2c1 1 1 1 0 0 0-2-1-2-1 0m-278 5l-3 9-3 6h6c5 0 6 0 7-3 2-3 1-7-1-7l-1-2-2-4c-2-2-2-2-3 1m227 1l-1 3c-5 7-5 12-1 15l3 3v-3a16 16 0 001-6c1 2 2 1 3-4 2-6 3-6-1-8-3-2-3-2-4 0m6 10c-4 10-4 13 0 18 3 4 4 4 7 3 5 0 5 1 6-7s1-10-3-11l-1-1c2 0 1-2-2-5-3-4-4-4-7 3m-61-1c0 4 0 4 3 4s3 0 2-2c-3-2-1-1 4 1l8 7c2 4 9 8 12 8l3 3c3 3 5 3 5-1a7 7 0 00-3-5c3 0-2-4-6-6-5-1-5-1-4-4 2-4 1-5-7-6l-8-2-5-1c-4 0-4 0-4 4m42 5l-1 4-1 4c-2 1 2 12 6 19l4 7 2-3c0-2 2-3 3-4l2-2 2-3c3-1-1-7-6-8l-1-1c2 0 2-1 2-2l-1-2h-3c-1 0-2 0-1-1 2 0 2 0-4-8h-3m-69 2c0 1-1 2-3 2l-2-1-1-1c-3 0-2 2 0 5 2 4 6 17 7 26 0 4 1 6 2 6 3 1 4-9 1-13-1-1-2-3-1-4l-1-4-2-7v-3l2 5 3 9c2 6 3 3 2-5 0-7-1-9-3-11l-2-4a1 1 0 10-2 0m12 1v29l1 14 3 2c1 1 2 1 2-3s1-5 2-5c3-1 3-3 2-12l-1-17c0-8 0-9-2-9-4-1-6-1-7 1m-22 16c0 16 1 18 5 18 3 0 0-20-4-29l-2-4 1 15m38-13l3 13 3 14c1 3 1 3 6 3l6-1h3l23 1a29 29 0 00-14-17l-12-7c-4 0-11-2-13-4-3-4-5-4-5-2" tabindex="-1" itemprop="light" style="fill: rgb(90, 117, 181); fill-opacity: 0.362; fill-rule: evenodd;"></path><path d="M343 1l-4 1c-5 1-5 2 0 2l9 1-1 1h-1c-1 2 2 4 3 3 2 0 1 2-1 3h1c4 0 5-1 3-2-1-1-1-1 1-1l-1-1c-3-1-3-1 0-1 3 1 4 0 3-1s-1-1 1-1l1 2h2l1-1h-1l-1-1h2l1-1 3-1c2 1 3 1 3-1 1-2 0-2-12-2l-12 1m26 2l-2 2c-2 0-1 1 1 1h5c1-2 6-1 5 1l2 2 3 1c1 1 3 0 2-1l1-1 3 1 3 1h4c0 1 1 1 2-1l2-1 5 1 5 1h1a1 1 0 112-1c-1 1 0 2 1 2l1-1 2-2 4-1h1c-1 2 0 2 2 2h7c1-2 11-2 12 0h10c1 2 9 3 11 1 2-3 4-2 4 0s1 3 3 0h2c0 2 3 1 4 0l4-2a2 2 0 013 2h2c1 1 2 0 2-1 0-2 0-2 1-1l7 1h1c1 1 2 2 6 2s4 0 5-3l2-4v1c0 2 1 3 3 0h2c-1 1-1 1 0 0l2-1c3 0 6-1 6-3h-7l-11-1-11 1h-2c0 1-4 2-5 1l1-1-56-1c-38 0-59 0-58 1l-1 1-1-1c0-2-2-1-3 2m217 0l-1 3v2h2V6c-1 0-1-2 1-2l1-2 1 1 1 4c-1 2 2 3 4 1l3-1h1l3-1v2a2 2 0 003-3l1 2c0 1 1 2 3 2s2-1 2-3c-1-3 1-5 3-4l1-1-4-1-4 1-5 1c-3 0-4 0-3-1s1-1-1-1l-3 1h-3c-3-2-4-1-6 2m72-2l1 1h2c2-1 10 0 11 1h3c1-2 2-1 3 0s12 4 18 4v1l-8 1h-7l-4 2v-1c1-1 0-1-2-1-3 1-5 2-3 2l8 2c5 1 11 1 16-2 3-2 4-2 7-1l4 1 1-5V0h-25l-25 1m11 24l-2 2-2 1c-2 0-2 0-1 2v1h-1l3 1c2-1 5 0 8 1 3 2 7 2 11 1h2c3 1 3 1 2-1l-2-2-2-1h16l3-1c3 0 4 0 4-2l-1-3-1 1-4 2-14 1h-3a10 10 0 01-10-1h1c2 0-1-3-3-3l-4 1M412 44l-2 1-1 1h-2c-3-1-5 0-7 3l-3 2c-1-1-5 2-5 4l-2 2-1 3c1 1 0 2-1 2h-1l-1-1h-2l-2-1c-2 1-3 0-3-1l-1-2h-3c-1-1-1-1-2 1l-1 1-3 1-2 1-1 1-2 2-2 1c1 1-2 3-3 3h-1c-2 2-3 1-2-1 0-2 0-3-4-3-3-1-7 0-5 2l-1 1-1-1c1-2 0-3-1-2a7 7 0 01-4 1l2 2c1 2 1 3-2 2l-1 1-2 1c-1 1-2 0-1-1l-1-1-1 3-1 1-1 2c1 0 1 1 0 0l-1 1 1 2a2 2 0 010 3c-1-2-3-2-3-1l-1 1h-1l-1 4c0 3 2 5 6 4 2 0 3 0 2 1l1 3c3 2 2 3 0 3h-1c2-3-5-4-8-1l-1 1v-2l-1 2-1 2c-2 0 0 4 2 5 4 1 6 4 6 6 1 3 1 3 5 1v3h1c1-1 2-2 3-1 1 0-1 3-4 3s-4 3-2 5v2c0 2 2 1 3 0v-2c-1 0-1-1 1-1 2-1 3 4 1 6v2h2l2-1v-2c0-3 1-4 2-2h3c1 1 0 2-1 3s-1 1 2 4l4 2v1c-2 0-2 1-1 1 1 1 4-1 3-2h4l2-1c1-1 1-1 0 0l-2-2c-1-2 1-4 3-2l-1 1h-1l3 1c0-1 1-1 0 0l3 2c2 0 3 1 3 2 1 3 3 4 3 1h-1c-1 1-1 1-1-1s0-2 2 0c5 3 5 10 1 11-3 1-4 1-5 3l-1 2-4 4-3 2c-1 0-2 1-1 3a6 6 0 01-2 6c1 2-1 3-7 3a19 19 0 00-9 1l-2 1-3 1h-6l-3 1c-1 0-5 5-4 7l-2 1c-2 1-2 2-2 6l-1 1-1 2c0 2 0 2 2 2 1-1 2 0 3 1l2 3h-1l-3 1-1 1-2 2-1 1c-1 0-2 1-2 3-1 3-3 4-3 2l-1-1-2-1h-2c0 2-2 3-2 1-1-2-4 0-4 2s0 2-2 1c-1-2-2-2-2-1-1 3-7 3-7 1-1-2-2-2-10-2l-10-1c-3-3-24 1-24 4l-5 1c-4 1-7 2-9 4l-7 5c-5 2-7 6-5 8 1 1-5 3-8 3l-3 2-3 1c-2 0-3 3-2 7l-1 4v5l4 1c3 0 3 1 1 2v2l3 2 2 2a3 3 0 013 0c-2-4 0-6 2-3a2 2 0 105 0l-2-1c-3 0-4-2-3-3l2-1h1l4-1h2c-1-1-1-1 1-1 1 1 2 0 1-1h2l1-1v-1c1 0 2-3 1-5v-1l2-1c2 0 2 0 2 3s0 3 3 3c2 0 2 0 1-1-2-1 1-3 5-3 3 1 3 1 1-1-1-1-1-1 1-1 2 1 2 1 1-1s-1-2 1-2c2 1 2 1 1-3l1-3h2c1 2 1 2 4-1 1-2 2-2 3-1s1 1 1-1h1a3 3 0 004 2l1-1a20 20 0 004-1l1-2c-1-1 0-2 1-2l6-2c3-2 4-2 4-1-1 1 1 2 3 1s2-2 0-3l-1-2c2-1 5 4 4 6a13 13 0 000 12l1 2c3 1 2 2-1 1-2 0-3 0-3 2-1 2-1 2-2 1h-1l-2 1-2-1h-1c-2 0-3 5-2 7v2c-1-1-2 0-2 1h-2c-2 0-2 0-2 2 0 3-2 4-5 2l-2-2 2 2c4 5 4 8-1 3l-3-3 1 3 1 4h-2c-3 0-2 5 1 6s3 2 1 4l-1 2-4-3-3-5c0-2 0-2-1-1 0 2 0 2-3-1-2-1-1 0 2 4a18 18 0 016 8l4 3 4 6 3 2v-5a5 5 0 014-6l4 8 1 7c-2-2-1 1 1 3 3 5 7 20 4 20l1 3c3 4 3 13 0 13-2 0-3 1-4 3l-3 4c1-4-2-10-4-9-2 0-3-3-2-5v-2c0-2-3-3-3-2l2 1c3 2 0 2-3 1s-4-2-2-4l-2-2c-3-2-4-2-6 0s-4 3-3 0l-2-1v-1l2-3v-3c-1-1-9 1-9 2l2 1h2c1 1 0 1-2 1l-3-1-3-2-3-3 1-1h2l3-2c2-4 0-5-2-2-3 3-4 4-3 1l-1-1v-3h2l1-1 1 1v1l2-3h-5c-2 0-3-1-3-2h-1c-2 1-2 1-2-1l-1-3-1-1-1-2-2 2h-2c-2-1-5 0-7 1-1 1-3 0-2-1l-2-1-4 1h-1c-2-1-6 1-5 3 1 1-2 2-4 1l-3 1h-2a3 3 0 00-4-1v2l-1 2-1 1c-3 0-2-2 0-3v-1l-3 1c-1 2-1 2 1 4 3 2 2 2-4 3a12 12 0 00-8 4l-3 2c-3 3-4 3-6 1-2-3-10-3-10-1l-2 1-2 1c0 1-3 1-5-1s-3-1-2 2l-1 3-1-1-1-1-1 1a3 3 0 01-1 3l-1-1-3-1c-2-2-1-4 2-2 2 2 1 1-1-3-1-3-2-3-3-2l-1 3c1 1 0 1-2 1h-3l2-2c3-2 2-3-1-4-2 0-2 0-2 2 1 2-1 3-2 0h-2c-2 3-3 2-3-1a3 3 0 00-1-4l-1-1c-2 0-2-1-2-3s-1-2-3-2l-3-1c-1-6 0-9 1-9 3 0 3 0 1-2s-2-5 0-3l1-2-1-3c-1-3-2-4-6-4-3 0-4 0-4-2a2 2 0 012-4l-4 1c-2 2-3 2-4 0l-3-2-1-1-1-1-1 2h-3l-4 1h-2c0-2-2-3-4-1h-1l-1-1-2-2-3-3v1l-2-2c-2-2-3-3-4-2l1 2v1l-1 2h-1l-1-1-1-1c-3 1-6 3-6 5a1 1 0 01-3 0c1-1 0-2-2-2s-3 1-2 2l-1 2v2l-1 1-2-1-3 1-2 1v-2h-2l1-1a1 1 0 10-1-2l-4-1c-1-1-1-1-3 2l-1 1c0-2-2-3-2 0h-3l-2 1-1 1c-2 0-2 0-1 1h2l1 1a2 2 0 01-3 1l-2-1c-2 0-2 0 0 2v1l-1 1c0 2-2 1-2-1-1-2 0-5 1-5 2 1 5-1 5-4 1-2-2-2-4 1h-3a5 5 0 01-4-1c1 2 0 3-2 2-2-2-4-2-3-1h1l1 3c0 3 0 3-2 1s-7-2-7 1c0 2 4 5 5 3h2c1-2 2-1 3 3 0 1 0 2-1 1H7l-1-1H4l-2 1c-1 0-2 40-2 120v120h709V380a3095 3095 0 00-1-134l1-1-1-23c0-20 0-20-2-18l-2 1h-1v-4c-2 0-1-2 1-2h2l1 1 1-71c0-70 0-70-2-70h-2l-4-4c-4-1-4-1-2-2s2-1 0-1a1 1 0 110-2c2 0 0-2-2-3l-2-1c2 0-2-3-4-3a3 3 0 00-3 5l1 2 1-3c-1-3 1-4 2-1v2c-2 0 1 4 3 4l-1 1c-3 1-4 2-5 1l-4-1h-2c0-2-4-1-5 1-2 1-3 2-4 0s-7 0-9 3l-3 2-2 2-1 1c0-3-12-4-14-2l-3-1c-1-1-3-2-4-1l-6 1c-4 0-7 2-9 5-2 2-2 2-4 1h-2l-1 1h-1c-1 2-2 2-2 1h-10c-2-1-9 2-13 6-4 5-5 6-2 8 1 1 1 1-1 1l-1 4c0 4-1 5-2 2l-2-2h-1l-3-1-3 1-2 1c-1 0-2 0-2 2v6c1 1 0 2-1 3 0 2-1 2-1 1 0-4-8-1-10 3-1 3 1 8 4 8v1h-4l-3 1c0 3 3 7 3 6h3l1 1a4 4 0 003 4c-1-1 0-1 3-1 4 0 4 0 4-2-1-1 0-2 1-3 4-1 0-3-4-2h-4c-1 0 3-3 5-2l1-1-1-1v-2c0-5 0-5 1-2l4 2 2-1 1-3h1l1 3c0 2 0 2-2 2s-3 2-2 6c1 2 3 3 3 1l-1-2-1-2h9l3 1-1 2h-2c-1 1-1 1 1 2l4-1h4v-1l-2-4c0-1 0-2-1-1a1 1 0 11-1-2l1-1h1l1-1v-1l1 1 2 1 2 2c0 2 2 3 4 1h-1v-3l2-1 1 1 2 1h9c2 0 2 0 1-1-2-2-1-3 1-3h2l-2-2-2-3c1 0 6 5 5 6l1 2 1 1 1 2v2c-1 0-3 0-4-2-2-1-2-1-1 1 1 1 2 2 1 3l2 3h1c-1-2-1-2 2 0 5 4 0 6-6 2l-2-1 2 2 3 2v1a2 2 0 002 5h7c1-1 2 0 2 1l-1 1c-7 1-9 1-12-1-5-3-15-6-14-5l4 2 5 3 3 1c2 0 2 1 0 4-2 2-2 2-4 1l-1-1h-2l-3-1-1-2v-3l-2-2h-2v3c2 2 1 2-2 1l-2-1 2 2v2l-2 1c-1 1-2 2-3 1l-1 1h-1l-3-2c-2 0-2-1-2-2s-1-2-3-2c-1 0-2 1-1 2l-1 1h-1c1 2-1 3-2 2-1-3-21-5-21-2h-1l-9 3-3 1h-4c-2 1-2 1-1-1v-6c-2 0-2 0 0-3 2-4 2-4 0-5l-3-1h-1c-2-2-6-1-7 1h-2l-2-1c-1-1-2-1-1-2l-1-2h1c2 0 2 0 1-1l-1-3v-1l-4-2c-3-2-3-2-4-1a2 2 0 11-4-3c-1 1-4-2-3-4h-5l-4-1h-5l-3-1 3-3c6-6 3-11-5-11-4 0-5-1-4-2l2-1 4-1 1-2c1 0 2 0 1 1a1 1 0 102 1l1-1h1v-2l-1-1c-3 1 0-2 2-4 2-1 2-1 1 1-2 2-2 4 0 2l2-1-1 2-1 2-3 4h-2l2 1c4 1 8 0 8-2 0-1 0-2 4-2l1-1-2-1c-1 1-2 0-1-1h3c2 1 4 1 3-1l3-1c4 0 5-1 4-3-1-1-1-1 1-3s3-4 0-4v-2c1-1 0-4-2-3l-1-1h-6c0 2-2 1-1 0 0-2-2-4-5-5h-1l-6 1c-2 2-3 2-3 1l-1-2-1-2h-7l-3 1c0-3-6-2-8 0-2 1-2 1-2-1 0-3 0-3-1-2-2 1-2 1-1-2 0-4-3-6-5-4-1 1-7 0-10-2l-10-1h-5c-1-1-6 0-7 1h-1l-5 3-4 1-5 1c-2 1-2 1-1-1s0-6-1-4h-1l-1-1h-4c-1-1-2-1-2 1m122 36h-2l-5-1c-3 0-4 1-3 2l-2 3c-2 0-3 2-3 3l1 1h1l-4 1c-5 0-8 2-8 4l-1 1c-1-1-2 2-1 4h4c2-2 1-3-1-3l1-1c1-2 2-2 6-2 3 1 4 0 4-1l3-1 4-1h2l4 2 4 1c2 2 2 2 5 1h3c1 2 1 4-1 3l-1 2-1 1c-2-1-9 7-9 8 1 1 4-1 4-3h2v2c-1 1-1 1 1 1l2-2 2-1c1 1 2 0 3-2l2-2 2-3 2-4c3-2 1-7-2-6l-1-1c2-2-3-7-5-6h-2c-1-2-8-2-10 0m-150 32c0 2 1 3 2 3 2 0 2 2 2 5l-3 2c-2-1-1 2 1 8 2 4 5 7 5 4l3-1 3-1-1-2c-2 0-2-1-1-4v-2c-2 1-2 1-2-5l-2-6-1-1c1 2 0 2-1 2s-2 0-1-1l-1-1-2-1c-2-1-2-1-1 1m218 23a1 1 0 001 3h1l2 1 5 3 4 2 2 1 1 1c2-2 6 1 5 3l1 2 1 1c0 1 1 2 2 1 2-1 4 6 2 9v1l2-1c1-2 7-5 8-4 0 2 4 1 4 0 0-3-2-7-3-7l-5-2a12 12 0 00-7-2l1-1a15 15 0 00-10-5l-2-2h-3l-2-1-3-2h-3c-1 1-1 1 0 0 0-2-1-2-4-1m-109 3c1 1 0 2-1 1l-1 3c1 2 0 3-1 4v-3l-1-4v9c1 1 4 0 4-1l1-1c2 0 1 2-2 4-3 1-4 2-4 4v3l-1-3-1-3-1 4c-2 5-2 7 1 4 0-2 1-2 1-1l-1 3-2 6v4l4-4 2-5h-1c-1 1-1 1-1-1s0-3 2-3l2-1c-1-4 3-8 8-8 4-1 5-1 4-3l-1-1h-6a8 8 0 00-4-7m57 21l-3 1-2 2-2 1c-2 0-3 1-3 2l-2 2c-1-1-4 0-3 1l-2 2c-2 1-5-1-5-3h-1l-6-1h-4l-1 1-1-1c0-2-2-1-3 1l-1 2-1 1v2l1 1c0 1-11 0-13-2-3-1-3-5-1-4v-1c-2-3-5-2-9 3-4 4-6 10-2 9 1-1 2 0 3 1s2 2 3 1l4 1 3 1c3 0 5 1 5 3l5 1c4 0 5 0 5-2l2-1c2 1 3 1 4-1l1-1h4a5 5 0 016-4c0-1 9-2 10-1 1 2 2 1 2-1l2-2 2-2 10 1h3c2 0 2 1 2 2-1 2 1 1 4-1l3-5 2-3 1-1c0-1-4-1-4 1l-2 1-3 2-3 2-2-2a2 2 0 012-3c-1 0-4 1-4 3 0 1-5 1-6-1l1-1 2-1h-3c-2 1-1-2 2-4l2-2c0-2-3-2-4 0m108 9v4h2l2 1 1 1-2 1c-5-1-7 0-6 1 2 2 1 3-1 3s-4 3-2 4v1l-1 3-1 2c-1 0-2 7-1 8h2c2-2 3-2 3-1-1 2 1 3 3 2l1-4v-8l2-1c-1-1 0-2 1-2s5-6 5-8l-3-5c-3-4-4-4-5-2m-25 8l-2 1h-3l-2-1c-3 1-5 3-3 4a3 3 0 012 4h2l-1 1c-1 2-2 2-4 1h-2v3l-2 1h-2l-3 1v-1l1-1h-2c-1 1-2 1-4-1-2-1-5-1-5 1l2 1v3h-1l-2-2h-1c-1-2-3-1-2 0a2 2 0 11-3 1h1l-2-2c-3-1-5 0-5 3h-1v-1h-2c-1 1-2 1-2-1l2-2 1-1h-1l-3-1c-1-2-7 3-8 7l-1 1c-1 0-8 6-9 9l1 23 3-1h2c1 1 1 0 1-2s0-3 1-1c0 2 1 2 4 1h5l-3-10 1-5 1-2h2l-1 2v12l1 2 2 1 1 1c-2 2 2 1 4-2l2-2-2-2c-2-2-2-3-1-3 0 0 2 1 2 3 2 3 2 3 5 0 2-1 3-3 2-5v-3l1 3 1 1c1-2 1-2 2-1s0 2-1 3c-3 2 0 5 4 4 3-1 6 0 6 1l2 1 5-2h6c3-1 9 2 9 4l2 1c3 0 3 1 2 5 0 2-1 3-2 3h-11c-2-1-4 0-4 2 0 1-6 1-7-1l-2-1h-3l-2-1v4h3c5 1 3 4-1 4-3 0-4 0-4 2h-1l-2 1c-1 3-1 5 1 5l1-2c-1-1-1-1 0 0h6c-1-1-1-1 1-1l2 1c1 2 5 1 5 0l1-1h2c1-2 7-2 7 0h-1l-1 1h3l1 1 2 1c3 0 5-2 5-4l1-2c1-1 2-2 1-3l1-2c2 2 10-10 11-17 0-4 0-4-2-5l-3-1-1-1-2-1c-1-1 0-1 0 0 2 0 3-2 1-2-1-1 0-1 1-1 2 1 3-1 1-4l-2-3-2 1h-2v-1a2 2 0 100-4l-1-1c0-2 2-2 4-2 1 0 2-6 1-7-2-1-3-1-4 1h-6c-1-1 0-2 1-1l1-1 1-1v2l1 1c2 0 1-3-1-5l-2-3a5 5 0 017 4c2 1 1-6-1-7-2 0-2-1-1-1l1-1h-1l-1-1-3-1-3 1m34 3l-5 13a21 21 0 000 13l3-4 1-2-1-2c0-2 1-2 4-2 4 0 5-2 3-8s-4-9-5-8m24 7v1l-2 2-2 1 2 1h2c1 1 1 1-4 1l-4-1c-1-2-1-2-2 0 0 2-1 3-2 3l-1 3 2 2 1 2h4c-1 1 0 2 1 1l3-3 1-1v-1l-2-2-1-1h3c3 0 3 0 3-2v-3h2l1 2v-2a4 4 0 00-4-3h-1m-161 6c-1 3-2 3 7 10l7 7 7 6 7 7c6 9 7 9 6 1 0-10-1-11-4-12l-2-2 3 1c2 1 3-2 1-4l-2-3-4-5-5-4-3-2-2 2v-1c2-2 1-3-1-2-2 2-2 2-4 0h-8v1l-1-1c0-1-1-1-2 1m-14 1l-1 2v1l-1 1h-2l1 1a3 3 0 01-5 5h-8l-5-1c-2 1-2 1-1-1v-2l-4-1v1c2 3-2 6-6 6h-3l3 1c4 0 9 2 9 5 0 2-3 2-4 1h-2c-2 4-4 5-5 5l2-3 2-2h-2c-3 0-3 0-3 3l-1 18c0 17 0 20 5 17l10-2 12-2h11l4-2 3-2c1-2 15-2 16 0a14 14 0 0014 0h5l1 1c2 1 2 1 2-1 1-2-5-4-7-2a1 1 0 11-1-1v-4c2 0 6-3 5-5-1-3-7-12-9-13s-8-6-14-13c-7-7-12-11-14-11l-5-2c-2 0-2 0-2 2m161 15h-7l-6 2v2l1-2 2 1v3h-2l-1-1c-2 0-2 1-1 3 1 1 1 1 0 0l-2-1c-3 3-5 8-4 9 1 0 1 1-1 2-3 3-3 5-1 4 2 0 2 0 1 2-2 2-2 3 0 3l1-1h3c1 1 1 1-1 1l-1 2-1 1h-2c-1 0-4 4-3 5l-2 1v1h3l2 1c0 2 8 3 8 1l2-1c2 1 2 0 2-1v-1l1-1v-1c2 0 3 0 2 1 0 1 4 0 6-2a3 3 0 012-1l1-3c2-2 2-2-1-2l-4 2-3 1c-1-1-1 0-1 1l-1-1-3-2c-2 0-3 0-2-2l3-1h2l2-1c2 0 3 2 1 2-1 1-1 1 1 1l1-1 4-1 1-4c0-2-1-3-3-3l-4-1v1l2 3h-1l-2-2c-2-1-2-1 0 1v1l-3-3v-2l-1-3-2-2h4v-1c-2 0-2 0-1-2v-2l2-1 2-3h2l2-1 2-2-1 1m-275 17v1l-1 2-1 2 1-1 1-1c1 1 1 5-1 5v1l-1 1-2-1h-1l-1-1h-1l-3-1c-3-2-3-2-4 0h-3l2 3c3 0 3 2 0 3l-2 2-1 5v-3l-1-2h-1l-1-1c-2 1-2 1-1-1l3-2c1 1 1 0 1-2l-1-3-1 2c0 2-2 1-2-1l-2 4-3 7c-2 2-2 3-2 13v11c-1 0-1 3 1 7l1 4v-5a53 53 0 016-30h1c1 1-1 6-2 5-2-1-4 16-3 24v5l1-6a108 108 0 002-15l1 4v41l-1 23v13h5l-1 2-2 2c0 2 2 1 5-2a5 5 0 015-2l-1-1-1-2 2 1 3 2v2c-3 2-2 4 2 4h3c2-2 5-2 4-1-1 2 2 2 5 0l5-1c2 1 3 0 4-2 2-2 3-3 4-1 1 5 2 0 2-8a3301 3301 0 01-2-28 20 20 0 012-11l1-6c1-2 0-3-2-7-4-5-5-10-7-22 0-4-2-5-5-4a3 3 0 01-4-1v-1c-1-1 0-2 2-3 3-2 2-3-3-1l-3 1-1 3c0 2 0 2-1 1h-4l-2 2-1 1-1 1v3c2 2 0 1-3-1l-2-3v-3h1c2 2 3 1 1-2-1-4 0-6 3-6l1-2 3-2 3-2 4-2c5-2 6-5 2-5l-1-1v-2l-1-2-1-1-1 1m70 2v3c-2 1-2 1-2-1l-1-2-2 2c0 2-5 2-7 0-1-1-1-1-1 1l3 4 2 5h2c2-3 2-2 0 1-2 4-3 10-1 10l1 3c0 3 0 3-1 1-1-5-2 0-2 7 1 7 2 7 2 0 0-4 0-4 2 2 0 3 3 2 5-3a28 28 0 000-20l1-5v-8h-1m-119 1v8l-2-1 1-1c1 1 1 1 0 0h-4c-2-1-2-1-2 1 0 1 1 2 3 2 2 1 3 3 1 5-2 1 0 7 3 9 1 1 2 1 2-1 1-1 1-1 1 1 0 4 2 5 4 2 2-2 2-2 1-4l-1-4c0-3-1-3-3 0l-1 4 1-4a19 19 0 00-3-15c0-3-1-3-1-2m100 6l-3 4 2 2 3 2v2c-1 1-1 1 1 1 3 0 0 2-4 2-3 0-5 4-4 8l1 24c0 4 0 4 2 3 1-1 2-2 1-3l4-7 5-4v-11l1-14c1-2 0-4-2-8l-4-5-3 4m-118 11v3l-2-2-3-3v4h-3l-3-1c-2 1-3 1-5-1s-3-2-3-1l1 3v1l-1 3-2 1a1 1 0 100 2l1 3v3c-1 1-1 1 1 1 2 1 2 1 0 1l-3 3c-1 3-1 3-1 1v-4l-3-1c-3 0-3 1-2 4v1h-2a1 1 0 10-1 2v1l-1 1h-3l-1 1 1 1 1 1h-2c-1-1-2-2-3-1l-2 1v-1c1-1 1-1-1-1-1 0-2 0-1 1l-2 1h-8l-1-1c1 0 2 0 1-1l1-1h1l1-2c3-2 0-2-3 0-4 2-4 6 0 14l8 30 3 10c0 2 0 2 2-3 2-7 7-17 8-18l7-12 1-2-4 11c-8 15-11 26-9 26h3l3 2h2c1-2 1-3-1-3l1-1 5-8 6-12c4-4 4-6 1-9l-2-3c0-2-1-4-3-5l-2-4c0-1 1-1 2 1l3 4 2 4 4 6 3-5 3-9c3-4 4-16 2-18h1v-3c1 1 1 0 1-2s1-6 3-8c2-5 3-4 1 0v4l-3 6v7c2-4-1 11-3 17l-3 7-5 9a14 14 0 00-3 7c-1 0-7 16-6 17l1 2v2c7 2 10 3 9 4l1 1c1-1 3 0 5 1 3 2 3 2 4 0h1c0 2 3 3 3 2h2l2 1 1 2c-1 1 0 2 2 2 3 0 3-1 3-2l1-1 1-1-1-2v-1c2-1 5-10 6-19l2-11c6-16 6-17 4-25l-2-13c-1-10-5-16-12-20l-2-1 2 1c3 0 3 0 2-2s-6-3-5 0h-1c-1 0-2-1-1-2h-4c-3-2-3-1-2 2m35 7l1 5-1 2-2 2-1 7c-2 7 6 29 8 25a23 23 0 00-4-20v-23l-1 2m305 2c-2 1-2 3 0 7 0 2-3 4-4 2h-1c-1 1 4 6 4 5l2 1c1 3 3 2 3 0 1-2 6-3 7-2v2l2 1h1l1-1c3 0 2-2-1-6l-2-3-2 2a12 12 0 01-8 3v-1l2-3 2-1 3-1c3-3 3-4 0-4l-1 2h-3l-1-1c2-1 2-3 0-3l-4 1m-50 8a3 3 0 00-2 3v-2l-2-1-1 5c0 11 0 14-2 17l-1 7c0 5 0 5-5-2-4-6-4-7-4-12 0-4-1-4-3-4s-3-1-3-2l-1-1c-2 0-1 2 3 10 6 14 8 20 4 22l-2 2c0 2-2 3-2 0v-3c-1-1 0-2 1-3v-3l-1-5-2-4-2-5a3 3 0 00-3-4c1-2-1-6-3-6l-1 1-2 1c-1-1-2 0-2 1 0 2 0 2 1 1l3 1c1 1 1 1-1 1l-1 1-1 1c-2-2-3 1-1 3l2 2-3-1a3 3 0 01-3-4l-1 2-1 1h-4v2l1 10a25 25 0 003 12l2 3c1 0 2-11 1-15v-2l1 12c0 9 1 13 2 9v1l2 6 3 4v-7c1-11 2-9 1 3 0 8 0 11 2 12 1 1 1 2-2 3l-2 1h3l7-4-1 1-1-1c1-2 0-3-2-2v-2c3-2 3-3 2 0h1c2 0 4-5 3-6l-1 1h-1c-1-2-1-3 1-2l1-1 1-1 1 1v1l1-2v-7c-2-1-2-1-2 2l-1 4-1-3c-2-4 0-10 2-7 1 1 1 1 1-1 0-3 2-6 4-6l1 1 1 1v-4c0-3 0-3 1-1l1 3v-3l1-2 4-2a7 7 0 014-3l-1-1-1-3 1-2-1 2c-2 3-2 2 0-3 1-2 1-3 2-2s1 1 1-1v-2h-1v-3l1-2h-1c-1 2-1 2-2 0-1-1-1-2 1-4a4 4 0 002-4c2 2 4-2 3-4s-1-2-3 0m21-1h-2l-3 1-2 2c-3 1-4 4-2 6v4c-3 1-2 4 1 6 4 2 4 2 2 3l1 2 2 1-1-2 1-1c1-1 2-1 1-2h-1l-1-1 3-1 2-1v-1c1 0 1 3-1 5v3l-1 1c-1-1-1 0-1 2 0 1 0 2 1 1l2-1 3-2c1-1 1-1 0 0l-3 1 1-2v-2l-1-1c1 1 2 0 3-1v-2l-1-2c0-2 1-3 2-3h3c-1 0 0 2 2 3 2 3 4 4 4 2l3-1c2 1 3 0 0-2v-1c2 1 2 1 2-1-1-3 3-5 5-3v-1l-2-2-2-3v-2l1-1v-1l-2-1a3 3 0 00-4 2l-5 1c-2 0-3 0-2-1l-2-1h-6m-144 4c-6 3-8 4-10 3-2 0-2 0-2 2 1 3-2 5-4 4l-2 1-1 1a133 133 0 001 35l3 15 4 13 1 4 1 2c-3 6-1 10 3 8 1-1 2-1 2 1 1 1 1 1 3-1 2-3 11-4 10 0 0 2 1 3 3 0h3c1 1 1 1 3-1 1-2 2-2 3-1s3 2 4 1c1 0 2 0 2 2l1-1 2-2-2-6c-1-1-2-2-1-3a25 25 0 00-15-20c-4-4-13-8-16-8a17 17 0 01-12-7l4 2c3 3 11 4 10 2v-1l1 1 5 3 8 5c4 3 7 3 6 0-1-5-3-9-5-10l-2-2h2c2 0 3-3 0-6-1-2-6-3-6 0-1 1-1 1-1-1s-1-3-8-3c-2-1-1-1 3-1l7 1c0 2 4 1 4 0l-2-3-1-1c2 0 2 0 1-3 0-4-1-5-2-5h-3c-2-2-5-2-6-1l1 1c2-1 5 0 5 2l-2 1 1 1 2 2-3-2h-10l-1-1c-3 1-3-1-1-4l2-3-2 1h-2l-1 1c1 3 0 2-2 0-3-3-2-4 1-7l3-4 12-6 1-1h-3m38 4l2 1 1 4c0 4-2 8-3 6h-5l-1-1-1 1a2 2 0 01-2 2c0-3-2 2-2 4l-1 3v-3a5 5 0 011-5c0-2-5-3-7-1-1 2-1 2-3 0s-2-2-2 0l3 7c2 6 5 10 5 7l1-3v3c0 2 1 4 3 4a29 29 0 003-8l-1 8c0 2 0 2 1 1s1-1 1 1c-1 3 0 4 2 7l4 4 1-3 2-5v1c-3 5-2 9 4 16l7 9c2 2 2 2 2-2l2-13a12 12 0 00-2-14l1 1 2 2 1-1v-1l1-4 1-8v-8c-1-3-3-4-3-2 0 1-1 2-3 2-1-1-3 0-4 1a3 3 0 01-4-4v-1c-3-1-2-5 1-6 4-3 4-3-2-3l-6 1m36 4l-1 2h-1c0 2-3 3-5 3-4-1-6 18-3 28 3 6 3 6 3 3 0-2 1-1 1 3 0 6 0 7 4 16l6 14c0 3 0 4 2 3h3v-2c-1-7-3-14-5-17l-1-1c2 0 2-1 1-6l-2-19-2-10-2-7 2 5c2 6 2 3 1-5l-1-7 1 1 2 2 2-1-1-1-1-1c1-1 0-2-1-2l-1-1-1-2v2M0 393c0 66 1 93 1 60a16302 16302 0 00-1-60m366-111c-2 4-2 8 0 12l4 28 1-6v-13l1-2c2 2 2-3 0-7l-3-6c0-3-3-8-3-6m105 7l-1 6-2 7 3-1 2-2-3 3c-3 5-3 3-2 32 0 16 0 18 2 18 0-1 1-1 0 0l1 1 2 1 1 3c1 1 2 2 1 3l2 1h2v-21a421 421 0 00-4-50c0-2-2-3-4-1m160 0c-5 6-5 12-1 14 2 1 2 1 1 3v1c1 0 2-3 1-4v-1l1-2c0-5 2-1 2 4 0 8 1 9 2 1 1-4 1-5-1-4l-1-1 3-2 2-3v-3l-1-2c0-3-4-3-5 0v3l-1 1-1-3-1-2m-269 10l-5 23c-1 9-1 11 1 9v-2l5-1 1 1 1 2c0 2-1 2-5 2s-5 0-4 1l-1 2c-5 3 5 7 10 4 2-1 2-17 0-29v-7l-2-9-1 4m82-3l6 16c3 5 5 14 6 23l2 8 2 2c1 2 1 1 2-5 1-7 1-8-1-10l-2-4-1-4-1-5 3 5c3 9 4 9 4-2-1-8-1-10-3-12l-4-5c0-2 0-2-1-1-1 2-2 2-5 1-4 0-5-2-3-5 2-2 2-2-1-2h-3m1 12a327 327 0 011 31l7 4a92 92 0 00-8-37v2m78 0c-1 6 0 14 4 19l5 9 4 7 2 5c1 4 1 4 3 3 0-1 1-2 2-1l2-1c1-1 4-2 6-1 2 2 3-8 1-11l-2-4a120 120 0 00-20-28c-3-5-5-4-7 3m39 7c-2 4-2 27-1 30 2 3 4 5 6 4h4l5 1c1-1-1-10-4-18l-3-6c0-3-7-13-7-11M305 430l-1 1-2 1-5 2c-5 0-5 0-5-2v-2l-1 2c0 2-1 3-2 3-15 5-16 12-1 8l6-1 8-3 10-3c9-2 11-6 4-6-3 1-6 0-8-1-3-1-3-1-3 1m23 2l-2 3-7 2-7 3-4 1-3 1-2 1-4 3-5 3c-1 4-13 5-17 2l-4-1c-2 0-3-1-3-2l-1-1v1l-3 1-6 1a70 70 0 01-19 5h-4l-3 1-4 1-2 2c1 4 0 5-5 5h-8l-1 1 2 7 1-2 1-3h2c1-2 9-3 9-1h4c2 1 6-3 5-5 0-2 3-5 4-5 1 1 2 2 1 4 0 3 3 4 6 2l2-1c1 1 1 1-1 3-4 4-4 4 0 4l6 1h11l4-1h3v-1l3-1h4c2 0 3-1 3-2l2-1c1 1 1 0 1-1l1-1 3-1 5-1h10a5 5 0 006-2l1-1c1-2 2-3 4 0v1l-1 2c0 2 0 3 1 2 0-2 2-3 2-1l2 2 1 4v1l1-3c0-4 4 1 5 7 1 5 2 6 6 7 2 1 2 1 1 2a1 1 0 102 2h2c1 1 1 1 1-1l1 1 3 2v-2l-2-2 4 3 1-1c1-1 2-2 3-1h2v1c-2 1-4 5-3 6l3-2c3-3 7-2 5 1l2-1 2-2 2-1 6-3 5-1c2 0 1-2 0-1l-1-1 6-1h3l-3-1-3-3-3-1-1-1h3l2 2h5c-1 1 0 2 1 1l2-1 2-2 2-2 1-1h1l3-1c1 1 2 0 3-2l2-3 4-3 4-3 2-1 3-2 2-1 4-4a16 16 0 005-8c3 0 1-2-2-2h-18l-15-1h-4l1 3c1 3-3 9-10 12l-3 2-4 2-5 4-2 2c-2 0-2 2-1 4v2h-1l-1-1 1 2c1 2 1 2-1 2l-2 1c-1 1-2 0-3-2h-2v2a1 1 0 01-2 1h-2v-1l-1-2-4-1-1 1c1 1 1 1 0 0l-2-1-1-1a1 1 0 00-3-1c0 2 0 2-1 1h-2c0 3-2 3-4-1l-5-6-4-3 6-2c4 0 7-2 6-2l2-1 4 2 2-1 1-1 5-1 5-2c2-1 4-3 4-6s0-3 1-1c1 3 2 3 2-1v-2l1 3a1 1 0 003 0l4-1c4 0 10-3 9-4 0-1-2-2-5-2a146 146 0 01-39-5l-2 2m171 9l1 9 2 11 1 6 2 6 3 9 2 4 2 1v-3h1l3-1c3-1 4-1 4 2 0 1 1 1 5-1l5-1h7l6-1c6 0 6 0 6-3l-1-3v-1l-1-2-3-3c-1-4-4-8-5-8-2 0-4-3-4-6 0-1-1-4-3-5-2-3-2-3 0-3l2-3c1-1 1-1 0 0h-10l-13-3-2-1h-2l-4-3h-3c-2-1-2-1-1 3m-28 1v4c-2 2-3 7-2 8 2 1 1 2-1 3-2 0-3 1-2 2l-1 5-2 4v2l-2 3v6c1-2 3 0 3 2l1 2 1-1c-1-1 0-1 1-1l3 1c0 4 4-6 4-10a22 22 0 013-11l1-2-1-4v-5l1-5c0-5 0-5-3-5l-4 2m17 1c-1 3 0 7 1 9 1 1 0 4-1 5v2l1 5v6l1 4c0 4 2 9 4 9 1 1 1 0 1-5v-19l-1-7-1-8c-2-3-5-4-5-1m57 8c0 3 5 8 7 8s3 3 1 4l2 4 3 5 2 3 2 2 3 2 2 2 2 4v-2c0-1 3-4 5-3l2-2c1-2 1-2 3 0l5 2v-2l-2-4c-2-2-3-5-5-5l-2-2c1-1 0-1-2-1h-2l2-2 3-9-2-2-8-2-14-3h-8l1 3" tabindex="-1" itemprop="regular" style="fill: rgb(40, 119, 84); fill-opacity: 0.432; fill-rule: evenodd;"></path><path d="M441 43c1 1-1 3-3 4-1 1-2 0-2-1h-1l-2 1v1c1 2-14 2-16 0s-4-1-4 1h-3c-1-2-1-2-1 0l-2 2-1-2v-1l-6 5-2 1-1 1c1 2-1 5-2 4v-4c-2 1-2 5-1 6v2l-1-1-2-3v3c0 2 0 2-1 1s-3 2-2 4c0 2-2 1-2 0-1-1-2-1-3 1-2 2-2 2-3 1v-2c1-1 1-1-1-4a5 5 0 01-3-4l-1 1-2 1-2 2v3h-1c-2-2-5 1-4 4 0 3-3 5-6 3h-3l-1-1v-1l-1 1-1 1-1-2c1-2 0-3-2-2h-1v-2l-3 2c0 1-1 2-2 1l-2 1-2 1-1 1-3 1c-1 1-2 1-1 2l1 3 1 4h-3l-1 1a2 2 0 001 3v-2c3 0 4 2 4 5-1 3 2 4 7 2 4-2 4-5 0-4-3 0-3-1-3-2v-5l-1-1c0-2 2-1 3 2l2 2v-2h6c1 1 2 2 3 1 2 0 3 0 3 2 1 2 0 2-1 2-3-1-6 2-5 4v2c-3 1-2 4 1 5 2 2 3 2 2 0h1l2 1a1 1 0 002 1 1 1 0 012 0l2 1 3 1c1 1 1 1 0 0 0-2 0-2 2-2s2 0 1-1l-3-1v-1h8c0-1 1-1 1 1 1 1 1 1 1-1a1 1 0 112 0v6c0 3 0 5 1 4l2-2 2-3v-1c-1 1-2 1-2-1l3-1c4 0 4 1 1 4-2 2-1 6 1 6a3 3 0 014 3c1 1 1 0 1-1 0-2 0-2 2-1l2 1-1-1v-1c1-3 3-2 3 0s0 2 1 1l1-1-2 4-2 2-1 1v4l-2-2v2c0 2 1 3 2 3l1 3v2l1 4-1 4-1-1-2-1-3 2c-2 2-5-4-8-15l-2-4v1l2 5 3 9 2 4-2 3c-3 2-8 3-8 1h-1l-1 2-2 1-1 1c-1-1-2 0-3 1l-4 5c-2 1-3 2-3 4 1 1 0 2-1 2-2 0-3 1-2 3v2l-1 4c-1 4-3 5-5 3h-6a3 3 0 00-5 1l-4 1c-1 1-3 2-4 1l-2 1h-1l-5 4c-5 6-6 11-3 13l1 2 1 3c1 2 1 2-2 1l-3 1 1 1v1l-2 1h-1l-2 3-3 2-2 1v1h-3l-1-1h-1c0 2-3 3-4 1 0-2-1-2-2 0s-2 2-2 1h-4l-2 1c0 2-3 2-5-1l-7-2-14-1h-8l-3-1c-1-1-1-1-1 1h-1c-1-2-8 2-8 4 1 1 0 2-3 1-5 0-10 2-12 4l-2 2c-2 0-8 5-8 7 0 1 0 2 2 1v2l-4 2c-9 1-15 4-14 7v4c3 0 2 3 0 4-2 0-3 2 0 2l4 2c4 3 6 3 8 0l2-1c1 1 3-3 2-4h1c1 1 5 2 4 0-1 0 5-7 8-7h3v-3a2 2 0 112 4l-1 1h2l2-1 2-1h1l1-3 2-2h-2c-2 0-2 0 0-2l2-2h3c-1-1 0-1 2-1 3 0 5-1 5-3h-2l-1-1h8l1-1h3l2-1h2l12-5a6 6 0 019 4l-1 2-1 1v4c-2 1 0 6 2 7l2 1c0 2 4 5 5 4s1-1 0 0c-1 2-1 2-4 0-2-2-2-2-3-1h-1c-2-2-4-1-4 2 0 2 0 2-1 1 0-2-1-2-1-1v2h-6c-1-1-2-1-2 1v1c1-1 2 0 1 1h-1v1l1 3 1 2 1 1h-5l-1-1-1-1-1 2 1 1 2 2v3c-2 1-3 1-4-1l-2-2-1 2c0 3-2 4-3 3s-1-1-1 1v2c-1 0-1 3 1 4v2c-2 1-2 1 0 1l10 1-1 1c-1 1-1 1 1 1 1 1 2 0 3-2 2-3 2-4 4-2 1 2 2 1 1-1l2-1h1l-2-2c-2 0-2 0-1-2l2-2 1-1c0-2 0-2-1-1s-2 2-3 1v1c1 1 0 2-2 1a2 2 0 010-2l3-1c3-2 3-2 4 0l2 1v-1c-2-1 1-2 4-1l3 1h2c2 1 5 0 3-1v-3c1-2 1-2 1 0l1 2 1-1v-2l1 1v2h1l1-2h2l2-1 1-2-1-2v-5c0-2 0-2 1 0l2 1c0-5 0-6 2-6a2 2 0 003-1l2-1h2c1 1 2 2 3 1h1c-1 3-2 3-3 1h-2l1 3 1 2 2 1 1-2h1c2 0 3-1 1-3l2-1 3 1h1l-1-3-3-1c-2 1-3 1-3-2 0-2 1-3 3-2l2 2c0 1 5 3 6 2 3-1 6 1 6 3-1 2-1 3 1 3l1-2-1-4c0-2 0-2-1-1-1 2-3 0-2-2h1l1-1h2c2 1 2 1 1 2v1l1-2 1-1c2 0 0-5-2-7l-2-2h3l2 2 2 2h1l2 1 2 1h2l3-1c1-1 1-1 1 1s-1 2-3 2-1 2 1 2l1 3 1 2v-2l1-4 1 1v2l1-2 1 1 1 1 1 1c1 2 1 2 1 0l1-2v2l1 1h1c1 1 1 0 1-1 0-3 2-3 2 1 0 3 0 2 1-2 1-3 1-3 2-2h1c0-2 5-3 6-2l3-1c2-1 6-1 5 1l1 2c2 2 2 2 3-1 1-2 1-3-1-4-1-1-1-1 2-1l3-2 2-1 1-1c1-2 1-2 1 0 1 4 0 6-1 5l-1 1h5v-1l2-2 2-2v-2c2-1 4 3 2 4l-1 5v4l1-4c1-7 4-6 6 4 1 1 1 2-5 2l-7-1h-2l-4 2-3 1-4 3c-2 0-3 1-3 2l-2 1c-1 1-2 1-1 3 1 4 3 6 3 5l1-1v-1l2-1 1-2c0-2 2-3 4-3l-1 2-2 3 2-1 2-1 3-1h1l1-1 2-1 1-1h4l1 9c1 12 4 22 8 28 2 3 2 10 0 14l-1 32c1 17 1 21-1 19l-1-2-1-1s-2 1-2 3l-2 1h-1l-2-1c-1-1-4-1-5 1h-4c-2-3-5-1-3 2l-1 1-1-1h-5c-2-3-4-1-4 2a2 2 0 11-4 2 1 1 0 00-2-1l-2 2-1 3c1 1 0 2-1 3l-2 2v-18l2-26-1-10c-1-1-1-3 1-5 1-2 1-3-1-4l-2-3h-1v2l1 1h-2l-1 1v2c-1 1-2 9-2 28 0 17-1 16-2-3l-2-8v-8l-2-9v5l-1 2 1 2 1 5 2 48-2 2c-3 2-3 2 0 5 2 2 3 4 0 4-1 0-1 1 1 2 3 2 3 3 3 9l-1 7v-3c0-2 0-2-1-1l-7 1c-3 1-7 4-7 6 0 3-2 2-5-2-2-2-2-2-1 2 0 6 0 6 3 4s4-1 2 2v5c1 1 2 2 1 3h-4c-2 0-2-1 0-3 1-2 1-2-1-1-2 0-2 0-1-1v-1c-1 0-2 0-1-1l-1-1v3l-1 2c-1-1-2 0-1 1l-1 2-1 1c2 1-1 3-3 2l-3-2 2-3 1 1c-1 1 0 2 1 1 2 0 3-2 1-2v-1l-2-1c-2 1-2 1 0-3l3-10c3-13 6-21 7-21h2l1-2h-1c-4 6 0-30 4-42l2-10 2-10-1-4c-1 0-2 2-4 13l-4 17-3 14c-2 16-8 43-10 45l-2-2-3-3c-1 1-2 0-3-1-1-2-1-2-3-1l-4 1h-3l-2 1h-2l-2 3c-2 0-2 1-2 3l-2 1-1 1-1 1-2-1-1-1c-3 1-2-1 1-3l2-2c-4 0-4-2-1-5a14 14 0 005-6l1-3-1-2-2 2-2 1h-1l-2-1c0-2-1-2-3-2l-1-1c0-1 1-2 2-1 1 0 2 0 1-2 0-3 0-3 2-3l2-1c0-2 3-1 7 1a5 5 0 013 5l1-1c0-3 6-6 8-6 4 1 13-2 12-4v-3h-1c-2 1-4 0-4-3h-2l-2-1c1-1-2-6-4-6l-1 1a2 2 0 11-2 2l-1-1c-1-1-2 0-2 1-1 2-1 2-2 1l-3-1h-1a4 4 0 00-7-3l1-2 1-4 2-12c3-15 1-17-3-2l-1 4-4 13v-2h-2l-2 3c1 3-2 2-3 0-2-7 0-23 5-33l2-7c-1-2-5 7-5 10l-1 2c-1 0-2 2-2 5-2 5-2 4-5-5l-2-13-1-1c-1 1-2 10-1 11l2 7 2 14c2 12 2 22 0 22v8l-1-1v-1c-1-1-1 0-1 1h-1l-2-1v-8c0-3 0-3-2-2-3 2-6-1-5-6l-1-3v1l-2 2c-2 0-3-1-3-2l-2-1c-2 1-4-1-1-1h5l-1-3a2 2 0 01-2-4v-2l3-2v-1h-3l-4-3-2-2v-4l-1 1v1l-2-2c-1-2-1-2-3-2-1 1-1 1-1-1v-2l-1 2-1 1-1-3-1-1-2-1-2-1-1 1-4 1v-1c1-1 0-2-1-4h-1v1c-2 0-2 1-1 3 2 1 0 3-2 3-2-1-2-1-2 5 0 3-4 8-4 6a51 51 0 00-1-4h-1v2c1 2-2 1-3 0-1-2-3-3-2-1l-1 1v2c2 2 2 2 0 2s-3-1-3-3c0-8-1-13-3-14v-3l-1-1c-1 1-1 5 1 7l2 4v3h-4a14 14 0 01-8-4l1 1v1l4 2c5 1 6 2 6 4 0 4-1 4-4 1l-5-2v1l2 1c0 1 1 2 3 2 3 1 3 2 3 4s-1 2-3 1c-2-2-2-2-1 0l-1 1v2l-1 1-2-1-2-1v-1c3-1 2-3-1-2l-2-1h2l1-1-2-2c-3 0-3-3 0-4 2 0 2 0 1-1l-1-4c0-2 0-2-1-1l-1 2c2 1 1 4-1 4l-3 2c-1 2-4 0-4-3 1-1 0-2-1-3-2-1-2-3-1-3 3 0 5-5 4-7v-1h3l1-2 5-2-3-4v1l-1 1-1-4 3 1c3 1 6-1 4-3l1-1h1c0-1 2-4 3-3v2c-2 2 1 4 3 3v-1c-2 0-2 0 0-2 1-1 3-2 5-1l4-1 2-1 1-1h-10v-1l-1-3c0-3-1-4-2-1-1 1-1 1-3-1l-2-2-2 2-2 1a1 1 0 10-2 1h-1l-2 1h-2c-2-1-4 0-4 3l-1 2h-2l2 1h2v-1c1-1 1 0 1 1 0 2 0 2-5 1-6 0-10 2-10 5a1 1 0 11-2 0l-1-2-2 1-2 2c-3 1-7 8-6 10l-1 1c-1-1-1 0-1 1h-3l-1-1-2-2h-1l-6-2c-6-2-8-2-8 3l-1 2-3 1c-2 2-2 2-3 1 0-2-2-3-2-1l-3 4-3 4-1 1c-1 0-2 1-1 3 0 2 1 3 2 3v2l1 1v1h-1l-2-1v2l-2 1-3 2c0 1-1 3-3 3l-2 2c1 2-1 4-3 3l-2 1c-1 1-1 1-1-1l-2-2v-1h1l1-1 1-1h4c2 0 3-3 1-4-2-2-1-4 1-3s3-2 3-7v-3l1-3c0-5 1-7 3-5 2 1 2 1 2-3l-1-5c-2-1-5 1-5 3l-1 2c-3 0-3-2-1-2v-1l-2-3c0-2-4-5-5-4-2 2-6 1-5-1 1-3-1-7-3-6l-3-2h-1c1 1 0 3-1 4-2 2-2 2 0 2 3 1 7 8 5 10l-2 1v3a11 11 0 010 10l1 1 1 1c1 2 1 2 2 1h1c0 3 4 5 5 3s3 0 2 2c0 2-1 2-3 2h-3l-2 1c-2 1-4-1-3-3h1l2 1c2 0 1-2-2-4l-3-4c0-2 0-2-2-1-2 2-3 2-5 0v1c0 2-1 3-3 2l-2-1-1-1 1-1c2 0 6-5 6-7-1-2 0-3 1-4 2 0 1-2-1-2-3 2-7-1-5-3 1-2 1-2-1-1-2 0-7-6-4-7v-3l-1-2-3-1c-4-1-3-3 0-2 2 0 2 0 1-1-3-2-5-2-6 0l-2 1-1 2-2 3h-4v-1l2-2 1-5v-3l-1-2 3 1c1 1 1 1 0 0a2 2 0 01-1-3h-1c-1-1-2-2-3-1l-2-1-1-2v-2c3 0 2-5-1-6-4 0-6-5-2-5 2 0 0-2-3-3h-5c-1-1-2 0-4 1l-5 2-3 1 1 1 3 2 2 1 1 1c-1 1-5 0-6-2a3 3 0 00-3-1l-1-4-2 2-1 2v-1c0-1 0-2-2-1l-1 1v6l-1-1c-1-2-1-2-2-1-2 1-2 1-2-1 0-4-2-6-2-4-1 1-1 2-2 1l-1 1c1 1 0 1-1 2-2 1-3 1-6 6-4 5-5 5-5 0v-4l-1 4c-1 3-1 4-2 3h-1l-5 1-5 2-1 28c0 25 0 26 2 26h2c0-1 3-1 3 1 1 2 0 2-4 1l-3-1v37l3 1 2 2-2-1c-2-2-3-1-3 1s1 3 3 3c4 1 4 3 0 3-2 0-2 0-3 5l1 6 1-1v-1a1 1 0 000-3v-1l1-1 4-1c3-2 4-2 6-1l4 2 2 1 1 4-1 2-2-1-2-2h-3 1l1 1H9c-4 0-5 0-5 2l-2 1c-2 0-2 7-2 58v58h213c117 0 212 0 211-1-1 0-2-1-1-3 0-2 0-2-3-1l-4 1c-1 1-4-1-3-2l-1-1-1 1c-1 1-1 1-2-1 0-2-1-2-4-2h-4l-1 2-1 3c-2 1-2 0-2-2l-1-3h-1v1-3c0-2 0-2 1-1s1 1 1-1c0-3 0-3-1-2h-9c-1 0-3 7-1 8 2 2 1 3-1 2l-1 1c1 1 1 1 0 0l-2-1c-1-9-4-13-5-8l-3 1h-2l-1 1a3 3 0 014-4c2-1 3-5 1-7-2-1-2-1-2 1s-1 3-2 3l-1 1-2 1-3 1-2 3c-2 1-2 1-2-1h-1l-2-2c-2-6-7-6-7 0 1 4 1 4-1 4-3-1-6 1-6 3h-2l-2-2-2-1-2 1c1 2-8 1-9-1h-2l-4 1-6-1c-5-1-5-1-4-2 0-2-2-1-3 1h-6c-2-1-2-1-2-3s0-3-3-2l-2-1 3-1c3 0 3-1 0-2l-3 1-2 1h-2l-1 1c-2-1-2-1-1 1 2 2 1 3-2 2-2 0-2 0-1-2 2-2 1-3-1-2-1 0-2 1-1 4 0 3 0 3-3 2l-3 1c1 1 1 1 0 0-4-1-6-9-4-11 1-2 4-3 2-1l3 1c3-1 3-1 4 1s1 2 1-1 4-5 5-2 4 1 3-2c0-1 0-2 2-2 1 1 2 0 1-1 0-2 0-2 1 0 2 1 2 1 2-1l1-4c2-1 2-10 0-11-1-2-4 0-4 2l-6 3-2-2h-3l-1 3v-1l-1-1-3 1 1 1-2 1-2-1h-1l-6 1a20 20 0 00-10 2h-6l-5 2c-2 3-5 1-5-3 0-5 1-8 2-8l4-2v-2l-6 1c-2 0-2 0-2-2v-1h-2c-1-1-1-1-1 1v3l-5 6c-2 6-3 6-7 6-2 0-2 0-2 2h-1l-4-1-2-1-1-1-1-1-2-1h-2l1 3 1 1h-1l-4-3c-1-1-2-2-1-3h-1c-1 1-3 0-8-1l-9-2a32 32 0 01-10-5h2c0-1-7-4-10-4-10 0-18-1-19-2a3 3 0 00-5 1l-1-1h-2c-3 0-8-4-7-7l-1-1c-1-1-2 0-1 2 0 1 0 2-2 2l-1-1h1v-2c-2-2-3-2-3-1 0 3-2 2-3 0s-1-2-3 0c-2 3-4 2-2-1l4-3a3 3 0 10-2-3c0 3-2 5-4 3-1-1-1-1-1 2s0 3-1 2l-3-1c-1 1-5-1-4-2l-2-1c-2 0-3 3-1 3l1 2-3-1-3-2c-2 0-3-2-1-3a3 3 0 00-5-2l2 1 1 1h-2l-2-1-1-1c-1 1-2 0-3-1-2-2-3-1-3 3 0 3 0 3-1 2-2-1-1-10 3-17 2-5 3-9 1-11l-1-11 1 4 2 5v8c-1 3-1 3 3 3l15 1a47 47 0 0015-1h9l9 1c2 2 5 3 5 2l-2-1c-2-1-1-1 1-1 4 0 5-2 2-3l-1-1 1-1c0-3 0-5 1-4l1-1 1-4c1-1 0-5-1-5l-1 2-4 1a18 18 0 00-8 1l-2 2a2 2 0 11-3-3v-1h-1l-1-2a5 5 0 00-8-5l-2 1c0 1 1 2 2 1l-1 2c-1 1-2 3-1 4 0 2-1 3-4 1h-3c-3 2-3 0-1-2s2-5-1-5l-4 2-2-1 3-1 2-1-3-1c-2 0-2 0-1-2l2-3c0-2 2-3 4-3a3 3 0 003-4 6 6 0 008-2c3 0-2-7-4-7-1 0-2 0-1-1l-1-1h-5c-2 0-3 0-2-1l-1-1-5-1a3 3 0 00-5 1h-1l-3 1-2 1c1 1-1 3-4 2l-5 2-8 1c-5-1-6 0-7 1 0 2 0 2-2 1-1-1-3 2-3 6l-1 3-3 4-2 3h2l3 1c0 1-1 2-3 1h-1c2 2 2 2 1 4l-1 2-2-2-2-1 1 2a4 4 0 01-1 7l12 4 3 1 2 1v-1c-2-2-1-2 3 0 3 1 3 2 3 4h3c4-1 5-1 2 1l-2 4-4 6-9-3-10-4c-3 0-9-6-10-12l-2-5-2-2-2-3c-10-11-11-13-11-16l-1-2-1 1v4l1 3 3 4 1 1 1 1c1 2 0 2-1 1-3-1-5 0-5 2l3 1c4-1 13 9 13 14l2 3c2 2 1 5-3 6l-4 2v-1c2-3 0-7-3-6l-2-1-2-2-1-1h-2c-2 0-3-4-2-6l-2 1-4 3-2 1a4 4 0 00-3 0c0-1-2-2-6-2-1 0-2 0-1-1 2-1 1-2-1-2H5a2 2 0 11-1-4h2l2-3c1-1 1-1 0 0 0 2 2 4 4 4l1-3c0-2 4 1 6 5s3 5 2 2h2c1 2 2 2 2 1v-1c-2 1-2-2 0-2l3-1-3-1-1-1-1-1v-2l1-2-1-2c0-2-1-2-4-1-2 1-3 0-5-2-3-2-1-4 4-2h3c2 0 3-2 2-4 0-2 0-2 4-1 4 0 3-1-3-4a13 13 0 01-7-12l-1-1c0-2 0-2 2-1h2a4 4 0 014-2 2 2 0 002 0l1-1c4 1 9 0 7-1l-2-2 1-1 5 2 5 1h20c2-1 1-2-3-2-2 0-3-1-2-3 0-2 1-2 1-1a1 1 0 102 0h4c7 3 21 5 21 4 1-1 8-3 14-3l4-2c1-1 10-1 12 1l5-2c4-2 4-2 4 0-1 1 4 5 7 5l5 2a74 74 0 0021 9l1 1c-10-2-29-1-25 2v1l-2-1-2-2c-1 0-1 5 1 5 1 1 1 1 0 0h6l6 1c0 1 1 1 2-1h2a2 2 0 002 1l1-1a8 8 0 014 5v-3c1-1 1-2-1-1l-1-1c0-2 5-2 6 0l1-1c1-2 1-2 2-1s1 1 1-1h3l11 2c2 0 3 0 3-2s4-5 6-4c2 0 2 0 1-1 0-1 0-2 2-1l2-1c0-4 7 1 8 5 0 4-5 6-7 3-2-1-2-1-1 1l1 2v1c-1 1-4 0-4-2 1-1-1-2-2 0h-1v1c1 1 0 2-1 3-2 2-2 2-1 3v1c-2 0-2 1 0 3v2a3 3 0 00-3 3 2 2 0 010 2c0-2-2-1-2 1s-1 3-3 2c-1-1-2 0-4 1l-3 2c-2 0-1 2 2 2l3 2h-3l-2 1 5 1v2c-1 1-2 2-3 1s-5 1-5 3c0 1 1 2 3 2s2 1 2 2c0 2 0 2 2 1l3-2 2-2c2-1 2-1 1 1l-3 3c-1 1-1 1 3 1s4 0 3-2l1-3 2-2c-1-1 0-2 1-2 1-1 1-1 0 0h1l1-2 1-1c4 0 3 5 0 6l-3 2h2c3-2 5-1 5 2 1 3 0 4-3 3h-1l4 2c4 1 4 1 6-3 2-3 3-3 6-3h2l-3-1h-3l2-3 2-4 4-1a5 5 0 005-2h16l1-2h-2l-3-1-4 1c-1 1-1 1-2-1h-2l-1 2c-2 0-3-2 0-4 1-2 1-2-1-2s-3 0-2 1h-3v-1c2-2 3-5 1-4-2 0-2 0-3-2 0-1-1-2-3-2-3 0-3 0-1 1 1 1 1 1-1 1s-3 0-2-1l-1-1-1 1v5c1 2 0 4-2 3h-2c0 2-3 1-4 0-1-2-1-3 1-5a5 5 0 002-4l5-2h-1l-2-1h1l1-1c0-1 1-1 2 1s5 3 5 1l-2-1a3 3 0 01-1-2c1 1 2-2 2-5 0-2 0-2 1-1l2 2 1-1v-1l1 2 2 1 1 1h1l2-1c2-1 3-5 1-7-1-2-3-3-3-1l-2 1-2-1-2-1v-1l-2-1c-2 0-4-5-3-5 1-1 3 0 4 1l2 3-1-3c-2-3 0-5 3-3 3 3 4 3 3 1 0-2 0-2 1-1l4 1h3c2 0 4 3 3 5l1 1c3-1 3 2 2 7-1 1-1 1 0 0l3-2c3 0 5 2 4 3l1 1v2l1 1v4c2 1-3 5-5 5h-2c-1 1 0 1 4 1l6 1h3c6-3 6-3 10 10l3 6h-3c-3-1-7 2-5 3h5c3 0 4 4 1 6v2c2 1 3 1 2-1l4-1c4 1 4 1 4-2v-5l-2-1-2-2-4-9-11-31c1-2 1-1 4 8 3 10 5 13 9 12l5-2 3-1v-1c0-1 2-2 9-1h21l-4 2-6 2-7 3 3 1c8 0 8 0 5 1l-3 2-4 3-4 2c-1-1-1 0-1 1l-1 2c-1 1 0 1 2 1l3 2 2 1 4-1 5-2c2-1 2-1 0 4-3 6-4 16-2 16l2-1 2-2 1-3 3-8 2-8c0-5 2-7 2-1a89 89 0 001 17c0 2 0 2 1 1s2-2 3-1l1-10v-6c1 3 6 4 13 2 4-1 6 0 6 2s1 3 3 0l-1 3-3 10-2 4h3c3 0 3-1 6-7 3-11 3-11 20-8l6-1 1-1-2-1v-1l2-2c4-2 4-2 3 0l1 2 1 2 1 1 1-1c-1-1 0-1 1-1l1 1v1c2 0 1 2-1 3v5c2 2 3 2 2 0l1-1a4 4 0 005-4c1 0 3 9 3 14l1 3 3 2c1 1 2 1 3-1h1l1 1-1-9-1-10 11 4 9 1c23 0 22-1 22 10 0 4 0 4 5 3 3-1 5 2 2 3-1 1 0 1 2 1 5 0 6 4 3 9v1l3 2 6 1h7v-2c-4-4-5-21-2-21 2 0 2 0 1-2v-16a1 1 0 111-1l1 2v13l1 12c4 0 5-1 5-8 0-6 0-6 3-6 2 0 3 1 3 8s2 9 2 2c0-2 0-3 1-1 1 7 1 8 2 6l1-7-1-6h4l4 1a433 433 0 011 20l4 1c3 1 4 1 4-3a212 212 0 011-15h5l2 2h1l2 8v-4c-1-5 0-6 5-5l3 1h4v-1l2-1a15 15 0 0114 4c2 1 2 1-2 2-5 0-7 1-3 2l5 1c3 0 3 0 3-3 0-2 0-3-3-3l-2-1h2l4 2c2 1 3 2 3 0-1-1 0-1 1-1l1 3c-1 4 1 3 1-1v-3c-1-1-1-1 1-3 3-2 4-9 3-15l1-5c1 0 2-1 2-3 1-4 2-5 2-2 1 0 1 1 0 0l-1 2 2 3v1l-3 1 1 1c1-1 1 2-1 5l-2 8-3 10c-5 10-5 11 1 12 4 0 4-1 5-4v-4l3 1c6 3 14 3 15 1 1-1 0-2-1-1l-2-1 8-1 8-1v-2h2l1-1v-1c1 0 4-8 5-17 1-11 2-11 2-7 1 5 0 10-2 20-2 8-3 15-1 12h2c1-1 1-1 1 1l-1 3-1 2c0 2-2 1-3-2 0-2-1-2-2 4-3 8-2 10 0 4 2-4 2-4 3-2 0 4 3 3 3-1v-3l1 3c2 4 5 4 4-1 0-3 0-3 2-3l3-1-2-1-2-2 1-2 1 2c-1 1 0 1 3 1 4 0 4-1 4-3s5-5 6-3l-2 1-2 1h5l5-1c5 0 6 0 4 1s-3 4-1 4l1 1c-1 1 0 2 1 1l-1 2-2 3h4c1-2 4 0 3 2 0 2-1 2-2 1h-3l1 1 1 1v3c-2 1 0 2 3 1a2 2 0 112 3l-2 2c-1 1-1 1 1 1h2v2l-2 1c-3 0-1 2 3 3l6 2 3 1c3 0 10 3 10 4l2 4c3 4 3 5-2 5-4 0-7 1-7 3l2 1h1v1a2 2 0 01-3 1c0-1-1-1-2 1-2 1-2 1-5-1l-4-3c1-1-2-3-5-3l-4-2c-2-3-3-4-5-1-2 1-2 1-2-1 1-1 0-2-1-2l-2 2v2l-1-1a20 20 0 00-1-5h-1a1 1 0 11-1-2l-1-1h-6l-2-1-2 1c0 1 6 4 7 3l1 1v2l-1 1c-3 1-2 4 1 3l1 1c0 1-3 2-5 1l1 2c1 1 1 1-1 3-1 1-2 1-3-1-2-1-2-1-1 1l-1 2c0-1-2 0-3 2l-4 2v-1l2-3 2-3 1-2-2 2c-3 3-6 3-6 0-1-2-2-2-4-1-4 1-5 1-6-1 0-1-1-1-3 1v1h1c0 2 1 2 3 1v1c0 3 0 3-3 2-2-1-3-2-2-3l-1 1c-3 2-6-1-3-4 2-2 2-2 0-2l1-2c1-1 1-1 0 0l-5 1-3 1h1c2-1 3 0 2 2 0 1-1 2-2 1-2 0-3 0-3 3 0 2 0 2 1 1 1-2 4-3 5 0h3v2l-2 2c0 1 8 3 13 3l2 1 4 1c2 0 3 0 3 2s-1 2-5 1c-9 0-14-2-14-3h-6l-1 1c2 1-10 3-12 1l-3-1h-6l1 1h-4l-3 1-3 1c0 2 55 1 57-1h2c0 1 7 2 62 2h62V397l-1-112-1 3c-2-1-2 5 0 6 2 2 1 4-1 5s-4-2-4-6l-2-5-1-10-1-7-6-12 2 1 5 1 6 2 3 2v-8c0-8 0-9-3-11-2-2-2-3-1-7 0-5 2-7 3-3 1 1 1 1 1-1l-2-2c-2-1-2-16 0-20l1-2-2 1c0 2-2 1-3-1v-10l-1-6c-1-3-4-7-4-5l-1 3c0 2 0 2 2 1l1 1v2c1-1 2 2 1 3s-1 1 0 0l1 5c-1 3-1 6 1 9l1 10-1 11c0 6-1 7-4 4l-1-2v-1c-1 0-2 0-1-1l-1-2a16 16 0 01-5-11l-1-1v-1l-2-1v2l1 4c-1-1-2 0-2 1 0 4-1 4-4 1l-4-3-4-1-3-1c-4-1 0 1 5 3 3 1 8 5 6 5l2 3a6 6 0 013 5c1-1 2 1 1 3v3c1 1 2 2 1 5 0 5 0 5-3 4l-8-1 2 1c4 0 7 2 8 5l2 5c3 4 4 9 3 17l2 8v7l-1 2c-1 2-1 2-3 2-3-2-7-2-5-1 1 1 0 3-1 2l-1 1c1 3-2 2-3-1s-1-4 3-5c3-2 3-2 1-3v-2l2-1-1-1-2-2-2-2v4h-1v3a2 2 0 01-1 2l-1 1h-1l1-1c2-1 2-2 1-2h-2l-2 1c-1-1-1 0-1 2l1 2c1-1 3 2 3 3-2 2-6 0-5-3 0-2 0-2-2-1-1 1-2 0-3-1l-2-2v-1a3 3 0 10-6 1h-2c-3 0-4 0-3 1v2h-2l-1-2-1-6c0-4 0-7-1-6v5c1 5 0 5-2 7l-1 2 1 5c-2-2-3-7-2-8s1-1-1-2l-2-1-1 1c-1 2-1 2-2 0-2-2-2-1 0 3l1 7c0 3 0 3 1 2l1-4c0-3 0-3 1-1l3 5c3 2 4 6 2 6v1c0 1-1 3-2 2-2 0-2-1 0-2l1-3-1 1c-2 2-2 2-4 0l-2-1v9c-3 1-5 1-5-1v-1l-3-6-1-5 1 5a49 49 0 000 8c1 2 0 3-1 2l-1-2a28 28 0 00-4-13l-2-2v7c-1 1 0 3 1 3a10 10 0 013 11l1 1c-3 2-10-7-8-11v-2l-1-1h1c1 0 2-1 2-4 0-5-1-5-3-2h-1c2-2-2-2-6 0-3 2-3 5 0 5 1 0 1 3-1 4l-1 1 1 1v4h-1l-2 1h7l3 3 3 4 1 1h1l-6 3 1 1v1l-1 3v3l1 2h-2c-1-1-1-1 0 0 0 2 6 4 10 4l-1 2-2 1c-1 0-7 4-6 5 0 2-1 2-3 1v1h-2l-2-2 1 2c1 3 0 5-2 6-1 0-2 0-1-1l1-2v-1c0-1-4 1-4 3l-1 1-1-1h-3l-3-1h-1l-1 1v2l-2 6 1-1c0-4 11-7 12-4 1 1 0 1-1 1v1c1 1 1 1-1 2h-3l-2 2-3 3v-3h-1l-3 3v1c1 1 0 1-3 1h-7c-1 1-2 1-2-1 1-2 4-4 6-2 2 1 2 1 1-1l2-2c2 0 6-11 5-14-1-2-4-2-4 1h-2c-1-1-3-2-4-1-2 0-3 0-2-3l-1-2-1 2-4 1-1 2-1 2v1l-1 1-2 2h-1l-1-4a2 2 0 00-2-2c-1-1-3 0-4 1h-6l-1 1c-1 1-1 0-1-4a410 410 0 003-30l1-13c-2-1-5 10-6 20l-3 17-1 13v6l-1-6c-1-8-2-8-4-5l-1 2v1l-3-2v-2l-1 2-2 2-1 1-1 3-1-1c1-1 0-2-2-4-1-1-2-1-2 3l1 4v1c-2-1-2 0-3 1 0 2 0 2-3-1-1-2-2-3-1-4v-2l-3-2h-2c0 2-3 5-4 5l-1-2-2 1-1 3c1 4-1 4-3 1l-2-3-1 2c0 3 0 3-1 2s-1-1-1 1 0 2-1 1c-2-2-6-1-6 1l-2 4-1 3s2-1 2-3c2-2 4-2 4 0 0 1-7 5-8 4l-4-29c0-4 0-7-1-6h-1c-1 0-1 18 1 27l-1 4-1-1-1-2-1-23-1-10-1 1h-1c-2-2-2-2-2 0 0 1 1 3 3 3v2c-4 0-4 0-4 5v14c0 9 0 10-3 8l-4-1h-1l2-1c1 1 2-1 1-1v-2l-4-1-1-1c1-1 0-3-1-4s-2-3-1-7c1-23 1-33-2-29v2c1 2-1 8-3 7l-1-3-1-1 4 10c1 3 1 14-1 22v10c2 4 1 19-1 20l-1-1v-1l-2 2-1-9 1-14c2-4 2-10 0-14l-2-5c0-3-3-1-3 4a7 7 0 001 5h-2c-3-1-4-2-3-3 1-3 1-4-1-3-3 1-4-2-4-13 0-10-1-13-2-12v6c-1 4-3 5-3 2v6l-2-2c-2-2-2-3-2-10 1-8 0-9-2-10v7l-2 16-1-2-1-4c-1-1-1 1-1 7v5l-1-12-2-11c-1-10-1-24 1-32 1-9 3-10 3-3 0 3 4 9 4 6l-1-2-1-3 1-5 1-2 2-6-1-21c-2-3-2-10 0-10 3-1 3-5 0-4-2 0-2 0-2-4l1-10 1-6 1 1 1 2c2 2 3 16 2 46-1 15 1 20 2 6 0-2 1-3 2-3s2-4 2-10l1-7v-8c-2-14-2-27 0-27v4c0 3 0 3 1 2h3l1-1c-1-5 0-5 2-3l3 3c0 4 0 6 2 8l2 2-1-4c-1-4-1-7 1-4l4 1c3 0 3-1 2-2-1 0-2-1-1-2l-1 1h-2l2-2 1-2-2 1c-2 3-6 4-6 1 0-2 0-2 2-2h3a5 5 0 015-1l1 2 1 4 1 3v-5c-1-2-1-3 1-4a2 2 0 014 0v-1h1v2l-1 3-1 3-1-2-1-2v4c1 2 2 4 1 6-1 6 1 19 2 15 1-3 1-3 1 1l-1 4c-1-1-1 1-1 5 0 6 0 7-3 9l-2 3-1-2-1-2-1 3-1 3-1-3-1-6-1-2-1 2c3 7 1 16-3 16v2l-1 1h-2l1 1c2 1 2 1 0 3s-7 0-7-3l-1-2 1 4 1 7 1 3v2l4 1c1 0 3 4 3 7l3 4 3 6c0 4 2 4 3-1l1-6v-7a66 66 0 011-8c-1 1-1 1-1-3s1-5 2-3c1 1 1 1 1-1s4-4 4-1l2 1a1 1 0 110 2c-2-1-2 0-1 7l1 9c2 17 4 26 4 19 0-2 2-3 2-1 1 1 1 0 1-1l-1-2c-1 1-2 0-2-1h1l1-4c0-3 0-4-1-3v-9l-1-4c0-2-1-3-2-3-2-1-1-4 1-4 2 1 2 0 1-3v-11c1-3 2-4 4-3 3 0 3 0 3-2-1-2 1-4 3-3l3-3 2-1h5l-1-1c-2 1-2 1-1-1l3-1h3c-1 2 0 2 1 2l4 1-1 1-4 2c-1 1-2 2-3 1-4-1-8 3-8 8l1 5 1-1c0-2 3-2 4 0h2c0-1 8-2 9-1l1 5 1 4v-4l1-5v-2c-2-1-2-1-1-2 1-2 3-2 3-1l-1 1h-1c0 1 2 2 3 1l1-1v-3c0-5 0-5-3-2s-3 2-2-2l2-1a6 6 0 007-2l1-1 2 1a4 4 0 006-4l3 3 3 3v-3c1-3 1-3 1-1l1 3c2 1 4-2 3-4h5l3 1 2 2h-2l-6 2h4c4 0 4 0 4 3a2 2 0 01-2 4c2 2 4 1 4-1-1-1-1-1 0 0 2 3 2 4 1 4v1h2l1 1-1-4-2-4-1-2c-1-1-1-2 1-3 1-2 2-2 2 1l1 5c4 9 4 11 4 16-1 7 1 6 3-1 2-9 4-12 6-11 1 1 1 1 0 0-1-2 0-8 1-7v1c-1 1 0 2 1 2s2-1 2-3l3-2c1 0 3-1 3-3 2-2 3-3 5-3l3-1-2-1a2 2 0 112-1l4 4v3l-2 1c-1 1 0 1 2 1l2 3 4 8 3 5 2 3 1 2 1 3v3l1 2c2 0 1-5-4-14-4-10-6-19-4-19 1 0 9 9 9 11h1c1-2 0-5-2-5l-1-1-3-4c-4-4-6-10-2-7v-1c-1-3 0-6 2-5 1 1 2 8 1 9l2 4 4 4-1-4c0-3 0-4 3-5l3-1-1 1c-1 0-1 2 1 4h1l2 2c0 1 1 1 0 0a33 33 0 010-16l-2 2-1 1c0-2-3-3-9-3h-5v-5l1-8c1-2 6-4 7-3h3c1-1 2 0 3 1h3l3-2 1-1c-1-2 3-2 7-1h4l-1-1h-1c-1-1 0-1 2-1v-2c-1-3-8-6-10-3h-2c-1-1-7-1-8 1l-3 1-3 1c0 1-2 0-3-2l-2-3-3 4c-3 3-3 3-4 1-1-1-1-1-1 1l-1 4 1 1c1-1 1 0 1 1s0 2-1 1c-1 0-2-1-2-3l-1-3 2-4c1-2 0-1-2 0-3 3-6 4-6 2l-1-3-1 3v4c-1 0-2-3-1-4h-1c-2 0-2 1-1 3l1 2 1 1h1c-1 2-4 1-3 0l-2-3c-2 0-3-2-3-3-1-1-1-1-2 1h-1l-1 2-1 4-2-4c-2-3-2-3-3-1 0 1-1 2-2 1-3 0-3 1 0 4 2 1 2 2 0 3v1c2 0 1 5-1 8l-1 5c1 1 0 2-1 1l-2-1c0-1-3-2-4-1s-1 1-1-1c1-3 2-3-16-2l-8-1h-2c-1 0-1 1 1 2l3 2h-9l-3 1-1 1-1 1-1 2v-2l-1-3-1 1h-1c-2-1-5 0-5 2l-1-1c-1-2-2-2-9 3-2 2-4 3-3 1l-1-1-2 1-1 1c-1-1-7 3-7 4 0 3-2 2-2 0l-1-4-1-19c0-16 0-16 2-19l2-3-2 2-2 2v-9l-1-2h3l3 1h4c1 1 1 1 0 0 0-2-3-3-5-2-3 1-3-2-1-4l4-2h2l-1-1-2-1c0-3 8-4 10-2h1c-1-2 0-2 2-2l3-1a1 1 0 013 0v5l3-1 2-2c2 0 2 0 1-1s-1-4 1-4 1-1-1-3-7-2-8 0c-2 3-4 3-6 1l-6-1c-3 0-3 0-2-1s3-2 4-1l1-1 7 1h2c2-2-2-4-11-5a13 13 0 01-9-5v2c0 1-2 1-4-1h-4l-1 1h-3c-4 2-5 1-4-2l-2 2c-3 5-6 3-6-6 0-3 0-4 2-5l3-1h-5c-1-5 2-8 4-6h2l2 2 2 2-1-3c-2-3-2-3 0-3 4-2 7 6 3 10-1 1-3 3-3 5a18 18 0 007-10c-1 1-2-2-2-6 0-2 0-3 2-3 2 1 3-4 0-4-3-1-2-6 1-7l2-1 3-1c3-1 4-5 1-5-1-1-1-1 1-1v-2l2-1 1-3-1 1h-2l-1-1c-1 1-2 0-1-1 0-2 0-2-2-1l-1-1c2-2 8-1 10 2l1 2h2l3-1h3l2-2c1 1 0 2-1 4v2l-1 1c-2 3 1 3 3 1 2-1 2-1 1 1-2 2-3 3-1 2l1 2v4l1-1 1-1 3-2h2c2 2 2 2 2 0l2-2c2 0 3 1 2 2l-1 1c-1-1-2 0-2 1h1l1 1c0 1 3 1 5-1v3h2l-3 2h-3a5 5 0 00-9 0l-1 1-3 1-3 1c-2-1-3 2-1 3v1l-4 7 1-1c1-3 2-3 3-2 1 2 2 2 2 1 1-2 1-2 4 4 2 3 3 4 1 3v1l5 1-1-1v-1l1-2h1v1h1l2-3h7c0-2 0-2 2-1h3l1-1h2c2 1 2 1 1 2v1l2-1 2-1 1 3v1c1 1 2 0 1-1l1-1 1-1 1-1 1 1c-1 1 0 1 0 0l2-2c1-1 1-1-1-1v-1c1-2 1-2 3-1 1 2 3 2 6-1 2-1 2-1 3 1h4l2-2 1-1 1 1v1l3 7 1 2 1-3c0-1 1-2 2-1h4c2 0 3 1 2 2h1l2-2c1-2 13-2 12 0v3c0 2 0 2-2 0l-2-1-1 5-2 2-3 2-3 1v1l-1 2-2 2h-3l-1-1h-4l1 1h1v7c2 1 2 1 1-1 0-1 0-2 2-2l2 1 2 2h2c0-1-1-2-2-1v-2l3-2c1 0 2 0 1-1l1-1c1 1 2 0 3-1l3-1h2c1-1 1-1 1 2l1-1 2-3h7c2-1 3-3 1-5-2-1-4-2-3 0 1 1-2 3-3 3-2 0-2-1 0-3 3-2 3-2 1-4l-1-2h4c1-1 1-1 0 0l-1-1h4l1 1-1 1-1 2 2 1v1l1 1h8v-4l-1-1h2c1 2 2 3 1 4v2c4 1 7 0 8-1h2c1 1 1 1 1-1s0-2 2-1v6l7 1v-2l2-1h3l4 1h1l2-2c1 1 4 7 4 11l-3 15v4c1 1 5 11 4 12l2 1c2 0 2 0 1 2-1 1-1 1 1 1l3 1-1 1-3 6a30 30 0 01-7 13l-3 4-2 5-2 3c-2 0-3 1-3 2h-1a1 1 0 10-1 2v3c-2 3-3 6-2 9 0 1 0 2-2 2s-3 2-1 2c1 1 1 1-1 2-2 0-2 0 0 2l2 4v1l-2 4c-4 4-2 11 3 8 2-2 2-2 4-1 1 1 1 1 1-2 0-4 2-7 2-5 2 5 2 5 3 4h1l1-1h-2l-1-1c1-2-2-6-4-6l-1-2-1-4v-1h3l-3-1c-2 0-2 0-1-2l3-1 4-7c5-11 4-11 6-10l2-1-1-1-2-1c0-2 1-2 3-2l1-1a21 21 0 017-13c-2 1-1-2 1-4 1-1 2-2 1-3a11 11 0 016-10c-1-1 5-9 7-9l1-1v-1l2-1 2-1c3 0 5-1 3-2h-1l-1 1 4-6 4-7 2-1 1-1c0-3 0-4 2-5s3-1 3 1l2 1-1-2v-4h2c1 1 1 1 1-1-1-3 0-5 2-4h3c1-2 1-4-1-4-1 0-2-2 0-3l1-4 1-4 2-4h1c0 1 1 1 2-1v1l1 2v-18l-1-3h1l1-36c0-36 0-37-3-36l-2-1-2-2-2-1a1 1 0 00-3 0 2 2 0 11-4 3c0-4 0-5-1-4l-1 2c1 1 0 2-1 2-2 1-4-1-3-4l-1 1h-2c0-2-3-1-4 1-1 1-1 1-4-1l-4-1h-2c-2-1-4 1-3 4l-2 1-2 1c0 3-2 3-5 0-2-3-3-3-4-1h-6c-2 2-5 3-5 2l-5-2c-6-2-15 1-12 4a2 2 0 11-1 3c-1-2-3-2-5-1l-2-1-1 1-3 4c1 1-3 2-5 1v-3h1l-1-1-2 2 1 2 1 2c0 1-2 1-5-1v-3c2-1 2-1 0-2s-5 0-6 2c0 3-3 7-4 7l-1 1v1l-1 2-1 2-1 1-1 2v1c2 0 2 1 2 2-1 2 0 2 2 2s3-2 0-2v-1l3 1c0 1 1 2 2 1v-1h1c2 0 2 0 2-2h1c1 1 1 2-1 2-2 1-2 5-1 5s1 1-1 1c-1 2-1 2 1 2 3 0 5-1 4-3l1-3v-2c-1-1-1-1 1-1s3-1 3-2h1v3l1 1h2c3 2 4 1 3-1l-1-2 3 2 2 3c2 0 3 1 2 3 0 2 1 2 5 2l2 1h2c2-1 5-1 4 1l2 2 1-1 1-1v2l1 1c3 0 2 2 0 2l1 1h2c1-3 4-5 6-4s3 1 4-1h6c2 0 4 2 3 3l-2-1a1 1 0 00-2 1l-1 2v1l4 1 4 1c1-1 3 1 3 2l-1 1-2 1-1 1c-2 0-2 0-2 2h1l1-1h2l2-1-1 1-1 1v2c-1 2-1 2 1 0s3-3 4-2l2-1c0-2 2 0 2 3 0 2 0 3-2 3-3 0-4 3-2 3l1-1h4l1 1c-1 1-1 1 1 1 2-1 3 2 1 4h-9l-1 1v4l1 2-8-1c-7-2-7-2-5-4v-3h-3c-1-1-1-1-1 1 1 4 0 4-2 1l-4-2-1-1c0-2-2-3-4-3s-1 3 1 3c2 1 2 1 0 1l-4-2c-1-1-1-2-2-1s-4 0-5-2c-1-1-2-1-3 1h-4l1 2h1l2 2h1l2-1c3 0 11 7 11 11 1 2 1 2 1 0s1-3 4-1c2 1 2 1 1 3v2c1 2-3 2-6 1l-5-2-9-5c-8-4-11-5-4-1 6 4 17 10 21 10l1 4c0 4-1 5-2 3l-4-2-11-5-9-5c-1 0 4 4 6 4l2 2 8 4 6 4c2 6 2 7-1 7h-4c-1-1-2-1-4 1-1 1-1 1 0 0h-1l-2 3-2 1c-3 0-3-1-3-3v-7l-1-1-1-3v-2l-1-1h-2c0-1-1-2-4-1l-5-2-2-1 1 2 1 1c-2 2-4 1-3-2 0-3-1-4-5-4-1 0-2 0-1-1l-1-1v3l-1 1c-2 0-2-1-2-3a1 1 0 00-2 0c0 1-1 2-3 2s-3-1-2-2h1v-2c-1-2-3-3-6-2-2 0-2 0-1 3 2 3 2 4 0 2h-3c1-5-6-8-10-5a1 1 0 110-2h-3l-2 2a2 2 0 00-2 2 1 1 0 111 1c-2 1-6-2-4-3h-9c-1 0-2 1-2 3l-2 2v1c1 1 1 3-1 3l-2 1-3 1-2 1c0 2-2 3-6 3-3 0-3 0-2 1 2 1 1 2-3 2l-4-4-3-3c-2 1-2-4-1-5l2 1v1c-1-1-1-1 0 0s4 0 3-1h2l3 1-1-1-1-2 1-2 2-1h2c0 1 1 2 2 1 2 0 2 0 0-2v-5c2 0 3-4 0-7-2-2-2-2-5-1l-3 1v-1l-1-1h-2l-2-5c-2-4-2-6-3-5h-1c-1-2-4-2-5-1s-1 0-2-1l-3-3c-1 0-2 0-1-1l-1-1h-1c0-1-1-2-4-2l-5-1-1 1h-4l-2 2v-3c1-1 0-1-1-1h-2l-3-1-3 1-2 1-2-1-1-1h-2c-2-1-2-4-1-6l2-3h-2l-2 1 1-3h3c1 2 4 0 3-2 0-2 0-2 1-1 2 0 2 0 1-1 0-2 3-3 5-1 1 1 1 1 0 0l1-2c1 0 2 0 1 1l1 1 1-7-1 1-1 3-1-2c1-4 0-5-4-4-4 0-4 0-2-2v-4l1-1v-3c-2 1-3-3-1-6l2-1c-1 2 2 2 2 0h2v1h6v-4h-4v-1l-1 1-3 1-3-1-3-1c-1 0-2 0-1 1 0 2-2 1-4 0l-2-2-1-3c0-2-2-3-2 0 0 2-2 1-3-2-1-1-1-2-2-1h-6l2-1c2 1 2 1 1-1l-4-1-3-1h-4l-2 1h-1c1-1 1-1 0 0-2 2-4 2-4 1a3 3 0 00-2-3m59 17l-3 1c-1-1-1 0-2 1 0 2-1 2-2 2h-2l-1 1c-1-1-2 0-2 1-1 2-1 3 1 2l7-1 8-2c2-1 5 0 5 3 0 2 1 2 3 2 3 0 4-1 4-4 0-4-1-5-2-3a2 2 0 01-4-1c1-1-1-3-5-3-4-1-5 0-5 1m-144 42l-2 1c-4 0-8 4-7 8h-1c-2 0-2 3-1 5v1h1l4 1-1 1h-1c2 3 9-1 7-5l1-1h1l1-2v-1l1-1c2 1 4-1 2-1-2-2-1-3 1-2s5 0 5-1l-5-1a7 7 0 01-6-2m296 32c-1 2-1 4 1 4 1 0 7 5 12 13l3 3 1-3 1-6v-4l-3-1c-2 1-4-2-2-2 1 0-1-2-5-3-5-1-6-2-8-1m35 9h-1c-3 0-5 4-4 7h3c2-2 2-2 1 0s0 2 3 5l5 4c2 2 2 2 3-1 3-7 1-12-4-7h-3c0-1 3-4 4-3l1-1v-3a1 1 0 00-2 0l-1 3-1-1c1-2-2-2-3 0v-4l-1 1m-39 6c-1 4-1 5 1 6l5 4c4 4 5 4 9-1l3-3-2-3c-3-2-8-5-13-6-3-1-3-1-3 3m25 14l-1 4-1 2c-2 2-2 6 1 9l3 8c1 3 1 4 3 3l1-2c0-3 3-8 6-9 2-1 2-1 1-3l-2-3 1 1c2 3 4 2 4 0l-1-3c-3 0-7-2-7-3 0-2-4-6-6-6l-2 2m-18 11c-5 11-8 21-7 26l1 6 1 1 1 4 1 1h4c3 0 5-3 5-4-1 0 1-3 7-9s6-10 2-18l-1-4-3 3-4 10-3 7c-3 0 1-11 5-18l3-4-3-4c-4-6-4-6-9 3m-108-2c1 2-5 6-6 5-2-1-6-1-5 1v2l-2 1-2 1c-3 2-5 3-8 1-2-1-2-1-4 1-2 3-1 4 2 3l1 2 3 3v-1c-3-3-2-4 1-4 3 1 3 1 3-1l1-2v5l-1 2 2-2c1-3 2-4 3-2h3l4 1h1c1-1 1-1 3 1l2 1 2 1v-1c-2-2-2-3-1-7 2-5 1-5 6 0 3 3 4 4 4 8 0 5 2 2 2-4l1-8 2-4-2 2c-2 2-2 2-2 0l-1-2c-3 1-4 0-4-2 1-2-2-3-4-1h-4m-195 4c-2 0-2 1-1 1l-3 2c-2 1-5 2-6 1l-3 1h-1l-1 1-1 1h-1v2c-1 2 0 2 4 2 2 0 3 0 3 2v3l1-3c1-2 3-3 3 0l2 1h1l1 1v-2c0-1 2-3 6-5l2-1 1-1 1-1c1-1 0-2-2-2-3-1-3-1-2-2s-1-2-2-2l-2 1m104 20l-4 1c-4-1-4 0-4 5v7c-1 2-1 2 3 1l9 1h1l3 1-1 1c-1-1-1-1 0 0 0 1 1 2 2 1h4c3 1 5 0 4-1 0-2-3-2-3-1h-1l1-2c3 1 5-4 4-7-1-2-2-3-3-1h-1v-1l1-2-1-3-1 1-1 3c-1 1-2 3-1 4 0 2 0 2-2 0l-3-2v2l-1-1c-1-1 3-5 5-5l2-2c1-2-2-1-6 3-5 4-6 4-5 0v-2l1-1c2-2 1-2-2 0m128 42c-5 6-5 8 1 8l2 2a10 10 0 003 4l-2-4h1l3 2c1-1 1 0 1 1 0 3 2 4 2 1 0-16 0-16-5-17-2-1-3 0-6 3m111 3c-1 1 0 2 1 1l1 1v2h-1l-1 2h-1c0-5-2-1-2 4 0 6 1 8 7 8h2l-2-2c-2-3-3-4-1-4l1 1c0 2 5 6 6 6l1-4c0-4-1-4-2-4-1 1-2 0-2-1l-2-1h-3l1-1h1c0-1 1-2 2-1 2 0 1-3-1-5-5-4-5-4-5-2m-273 4c0 2 0 3-1 2-1-5-3 2-2 10 1 14 6 25 9 21 1-1 1-2-1-6a15 15 0 01-2-6l1 3 1-2-2-13c-1-11-3-16-3-9m42 42c0 2-2 2-4 1h-2v5c-1 4 4 17 6 15 1-2 2-15 1-19l-1-2m198 6l-2 1v-1c-1 0-5 6-4 7l-1 1c-3-1-2 4 1 7s8 4 10 2c1-2 2 1 1 3s1 4 2 2h2c0 2 2 3 2 1 0-1 1-2 2-1v-1c-1-1-1-1 1-2l2-1-1-1h-3c-1-1-1-1 1-1l3-1 2 2 1 2h-1c1 1 0 2-1 1-2 0-2 0 0 1 3 2 4 0 4-5 1-3-3-9-4-7h-1l-2-1-3-1-1-2 1-1h-6c-5 0-7-3-3-5l1-1c0-1-2 0-3 2M66 324v5l1 1-2 1-1 2c1 2 2 3 2 1 0-4 5-2 5 2 0 1 1 2 2 1l2 3c0 1 0 2 1 1l1-1h3c-1 2 3 4 4 2h3c3 0 3 0 2-1h1c2 1 2 4 0 2v1c0 2 4 3 7 3l1 1 2 1c2 0 2 0 1 1s-1 1 1 1l4 1h2c-1-1 0-4 2-4 3 0 0-2-4-2-3-1-4-1-4 1s-3 1-5-3c-1-2-1-2-2-1h-1c0-3-2-5-6-5-2 0-3-1-3-2l-2-1-3-3-3-3-3-2-3-2-2-1h-3m540 6c-2 2-2 2 0 2 1 0 1 1-1 2h-1l1-1-1 10c1 0 3-3 2-4h5v3l-1-1v-1c-1-1-1-1-1 3-1 4 1 5 1 2 1-2 4-3 4-1l1 3 1-1v-1l1-2-1-2v-3h-4l2-2 1-2a5 5 0 01-3-2l3-3h-1l-4-1c-2-1-3 0-4 2m-337 30l2 2 4 4 3 4c-1 1 0 2 3 5l5 3-1 1v1c0 2 0 3 2 2l1-2v-1l2-1c0-2-3-4-4-4l-3-1v-2l2 1h3v-2c2-3 0-5-4-5l-4-3c0-2-1-3-3-3h-4c-3-1-5-1-4 1m178-1v19h2c2-1 2 0 2 3l1 1c1 0 2-2 2-9v-9a6 6 0 00-7-5m-30 1l-1 2h-2c-4-1-6 0-5 3 0 1-1 2-3 1-3 0-3 0-3 2v2c-1 0-2 1-1 2 0 1 1 2 2 1l2 1 5 2c3 0 3 0 2-2l-3-1-1-1h3l4 1 5 2c2 1 3-2 3-11-1-5-3-7-7-4m51 16l1 14 1 6h3c2 1 3 8 0 8l-1-2-1-1-1 4c0 3 0 4 1 3s1-1 2 1c1 3 4 2 5-2 1-2 1-3-1-4v-9c2-1 3-4 1-4v-1c2-1 1-8-1-9l-1-2c4-2-2-10-6-10-2 0-2 0-2 8m117-2c-1 1-2 1-1 2l-2 1c-2-1-3-1-4 1l-2 1-2 1-1 1c-1 0-3 3-2 4l-1 1-1 4c0 3 1 4 3 2l1-2v-2l2-3v-1h4c-1-2 4-5 5-4l3-2a3 3 0 015-2c-2 0-3 3-1 3 1 0 4-3 4-5h-10m-205 8l1 13c0 3 4 4 5 2 2-1 2-1 5 1 4 3 4 3 4-2l-4-6a2 2 0 010-4 13 13 0 00-7-7c-2-3-5-1-4 3m201 15l-3 1c-2 0-6 3-6 5 0 4 5 3 5 0l1-1v4l1 3 1-1 3-1 3-1c1-2 5 5 4 8-1 4-2 8-1 9l2-4 1-8a6 6 0 001-7v-1c-1-2-4-2-6-1h-2l-1 1-1 2c-2 2-2 2-2 0v-2l1-2 1-1 2-1-2-1h-2l1-2-1 1m35 3v2c1 1 0 2-1 3-2 1-2 1-1 3l1 2-2-1h-1l-2-1c-1-2-3-1-2 1l-2 1c-1-1-7 5-6 6l-1 2c-2 2-2 2-1 4s3 1 3-2c0-1 2-2 3-1s1 1 1-1a3 3 0 013-5l5-1c5 1 9-1 6-3-2 0-2-2 0-2v-7l1-1c0-1-2-1-4 1m-431 45l1 1v1c-2 1-2 1 0 2 1 0 2 1 1 2h-1l-1 2-3 1h-2l-2 2c-4 1-3 3 1 3h3c0 2 4 3 7 1h4v3c-1 1-1 1 1 1l3-1h2l1-1v-1l2 1c0 1 1 1 3-1 3-1 1-3-3-3-2 0-8-5-5-5l2 1a6 6 0 004 2l-2-1v-1h1l2-2c0-2 5-2 8-1 2 2 8-1 7-3h-1l-1-1c0-1-1-1-1 1-2 1-7 0-7-2h-10l-2 1h-1l-1 2-2 1-3 1-1-3 1-2a3 3 0 004-1h-9m457 12v3c1 2-1 3-4 3-4 0-4-2-1-3l3-1h-3l-3 2h-4c0-3-2 0-2 2-1 3 0 4 3 6l8 6c4 4 6 5 7 4h5c3 0 4 0 5-2l2-2 2-1-1-1-1-1v-3c2-3 0-2-3 0-3 3-7 3-8-1l-2-2v1h-1c-2 0-2-4 1-3v-1l-1-4c1-3 0-4-2-2m-197 38c1 2-6 8-8 7a10 10 0 00-4 5c1-1 1-1 0 0l-2 2-1 2 12 1h12l1-3v-4l-1-4-1-3v-1h1l1 1 1-2c0-2 0-2 1-1h1c0-1-1-2-7-2-5 0-6 1-6 2m30-1l-2 5c0 4-2 6-4 6-1-1-1-1 0 0 1 2 1 2-4 3-3 0-5 1-5 3l32 1c27 0 32 0 31-1 0-2-1-2-3-1l-4 1 1-1v-1l-2-2-2-1-2-2c-3-1-4-2-2-4 1-1 0-1-5-1h-6c0-2-2-1-4 2-3 3-6 3-7 0l-2-2-1-2c1-3-6-5-9-3" tabindex="-1" itemprop="bold" style="fill: rgb(0, 0, 0); fill-opacity: 0.65; fill-rule: evenodd;"></path></svg>