<svg id="16282281824-posters-1644429349656" itemscope="" itemtype="/posters" itemid="/+16282281824/posters/1644429349656" viewBox="0 0 683 512" preserveAspectRatio="xMidYMid slice" tabindex="0" xmlns="http://www.w3.org/2000/svg"><rect itemprop="background" width="100%" height="100%" fill="white" tabindex="-1" style="fill: rgb(58, 195, 223); color: rgb(56, 56, 56);"></rect><path d="M20 2c0 2 1 3 3 4 3 2 5 6 7 11l2 3c2-1 6 3 6 5l5 6c1-1 9 1 13 3l4 1c0-1 2 0 4 4 2 3 9 6 8 3h3l3 1 2 2 2 3a15 15 0 006 10h7l2-1h2c0-2 3 2 4 5l2 2 2 1c3 2 6 2 10 2l5 1 4 1c4 0 4 0 3-1l-2-2a12 12 0 01-7-10 1 1 0 010-2l1-1 2-1c4 1 5-4 1-8-3-2-4-4-4-6 1-3-4-8-7-8l-5-1-5-2-5-2c-2-1-3-4-1-4l3-2 3-2c5 0 9-9 7-14l-1-3H20v2m161-1c0 2 7 8 9 8l3 3 3 2c2 0 5 4 4 6l-1 3c0 2 8 9 10 9s4 2 9 6a382 382 0 007 7c3 3 5 3 4 0 0-2 0-2 1-1l2 1 2 1 1 2c0 2 0 2-3 1l-3 1 2 1 2 1c0 2 4 5 6 5l3 2 3 2 7 2 7 2c2-1 4 0 6 1 6 3 18 0 13-4-2-2-2-13 1-13l2 2 4 3 5 4 3 2 10 7c0 3 8 8 12 7 1-1 3 0 4 1 1 2 2 2 4 1a4 4 0 017 2l3 2 2 1c3 0 7 6 7 9 0 2 1 4 3 5l6 4 3 2v-2c1-1 1-1 1 2l-3 36-22 6-6 2-28 8c-5 0-3 1-182-75A683793 683793 0 000 31c-2 0 4 3 24 11l246 104c11 4 19 8 19 9 0 0-38 11-43 11L45 89 0 72l2 2 59 22a515888 515888 0 01181 71l-21 6-24 8c-3 1-3 1-3-2l-1-4c-1-1-1 0-1 3 0 4 0 4-3 4s-3-1-3-2l-1-2-1 2-2 1c-1 0-1-4 1-9 0-2 2-1 2 2v4l1-3 1-2h4l-2-1c-3-1-2-2 2-1 5 1 5 1 1-1-7-2-11 0-12 7 0 6-1 8-5 8l-2 1-1 1-2 2c0 1-1 2-3 2l-1-1 2-8c0-11 1-12 3-11l2-1-1-1v-2l-2-2c-4-1-5 0-4 4v3l-1-3a3 3 0 10-6 4l1 2-1 7c0 5-1 7-2 7l-5-2c-4-1-4-2-4-5s1-3 3-3 2 0 1-2l-1-3-3-1h-3l1 7c0 6 0 6-2 5-4-2-14 3-10 6 1 0 1 6-1 7 0 1-18 5-19 4l-1-2h2c0-3-4-3-4 0 0 2-6 0-54-15L1 168H0l40 13a15201 15201 0 0159 18l12 5-2 1c-6-3-108-34-109-34l10 4a95630 95630 0 0099 31c1 1-1 2-8 5-1 1-2 1 0 1l-7 6-12 7c-10 7-10 7-12 1 0-2-1-3-2-3l-1-6v-2l-3 5-1 3-7 8-8 7-9-2-9-2-19 31-11 17v223h27l137 3c49 3 63 4 94 4h32l1-4c2-5 3-5 4 0l1 3h20l21 1-1-3c-1-9 1-25 3-25v-2c-2-2-2-5 1-4 3 0 2-2-1-5-2-2-2-2-1-3h2l3 1c3 0 3 2 2 7l-2 9-3 6a31 31 0 000 18v-2l1 1c1 2 168 3 168 1l2-1v-1c-2-1 0-2 2-1s3 1 2 2c0 2 2 2 14 2h15v-5l1-5 1-2c-1-1 0-3 1-5s1-2-2-2h-2v-7l1-14c0-6 0-7 2-6 2 0 2 1 2 11v11l3 1 3 1-1 11v11h33v-21l5 1c5 0 7 1 2 1-2 0-3 0-3 2l-2 1v5l-1 8v3h17v-14c0-13 0-14 2-14 2-1 2-1 1-3 0-2 0-2 2-2 1 1 2 0 2-1 1-1 0-1-3-1-2 0-3 0-3-2 0-4 1-5 5-5 3 1 4 2 4 15 0 10 0 10-2 10s-2 0 0-1v-1l-2-2c0-4-2 5-2 13v8h13l14-1h1l4 1h4v-17c0-16-1-16-3-17l-2-2-1-4c0-2 0-2 3-2l3-1-1-1v-7c0-5 0-6-1-3l-1 3v-4l1-4 1-3 1-4c1-1-1-2-4-2-2 0-2 1 0 6 1 3-5 1-6-3-2-5-8-6-8-2 0 2-2 2-3 0h1c1 1 1-1 1-8 0-6 0-10-1-9l-8-1 3-3 4-2 1 3 1-2v-4c1-1 1 0 1 3v5h8l11 2h2l-1-15 1-14c1 1 1 1 1-1-1-2 0-5 3-5l3-2c1-2 2-3 4-3h3l1 8c0 7 0 7-2 6-2 0-2 0-1 2l1 14c1 19 2 14 3-10v-21l-3-1c-2-1-2-1-1-2 3-2 5 1 5 8l2 9 1 17c0 10 1 15 2 15v-16l1-16c1-1 1 3 1 15v16h3l6 1c2 0 3 1 3 2s-14 2-16 0l-1 2c-1 4 0 5 9 6h8v3c0 3 0 3-3 3-4 0-5 1-7 4-1 2-1 2 1 2 7 0 9 0 9 2s-1 2-5 1h-6v5a9 9 0 004 9v4l-1 2-1 12v11h4l5 1V150c0-8 0-10-2-12h-2a4 4 0 01-5 0l-2-1c-2 1-3 1-2-1h-1c-2 1-6 1-6-1h-2v-1c0-2 0-2-1-1-1 0-2 0-2-2h-7c0-2 0-2-2-2-1 1-1 1 0 0l-1-1h-4l-3-1-1-2h-1c-1-1-2 0-3 1h-4c-1-2-4-2-4-1h-1l-1-2c1-2 1-2-1-1l-1 2h-1l-2-1-1 2h-2l-2 2h-2c-1-1-2-1-3 1-2 1-2 1-1-1v-2c-2 2-2 2-3 1l-3-2h-3l-1-1c-1-1 11-2 16-1l2-1 1-1 4-2 3-2 6-3c10-9 16-12 17-6l2 2 2 2c2 4 9 1 9-3a25 25 0 0113-11l4-2 4-1V83a20940 20940 0 000-68V0H432L181 1m283 113c-16 15-17 17-17 24l-1 3-1-9v-7c-1 1-3 11-2 12v16c-1 2-1 1-1-3 0-5 0-5-1-2v-4l1-20c0-6 1-7 3-4l1 1c0-2-5-10-6-10l-1 12-3 30 1-24-1-8v4l-1 8-1 8v9h-3l-1-2-1-2c0-2 0-2-1-1 0 2-1 2-3 2l-5-2a6 6 0 01-7-10v-1l1-21-1-5-3 29v10l7 1c14 2 29 10 29 14 0 2-1 1-3-1a33 33 0 00-22-8l-2-1v1h-2c-3 0-3 0-3 2 1 1 0 2-2 3-3 0-1 1 8 2 10 2 25 6 31 9 5 3 7 3 4 0l-2-5c0-3 0-3 3-3h2l-2-1c-2 0-2-1-2-5s0-4 2-3h2l1 4v7c1 2 1 1 1-3l1-7c1-1 1 1 1 6v5l2-4c2-2 2-2 1-3s-1-1 2-1h1l-1-3c0-4-2-7-5-8-4-2-1-9 4-12 2-1 2-1 0 4-3 5-3 9 0 5 1-2 5-3 8-1h1l-2-2c-4-2-4-5 0-5a2 2 0 013 2l3 3c3 5 2 3-2-7l-4-9 8 14 8 15-4-8a24 24 0 01-3-10c-2 1-9-16-8-18l2-1v-3c-1-1 0-2 1-4l3-2 3 8 17 34-10-22c-9-21-11-28-8-25l1-1c-2-2-2-2-19 14m22-8l6 13c4 9 5 11 4 12h-1v-2l-4-7c-6-10-4-7 3 9l7 13v-4h-1l-1-1v-1l-1-1v-1l-1-1v-1l-1-1 2-1v-2l1-2c2 0 2 3 1 4-1 2-1 3 1 6l2 6 1 1h1c0 1 1 1 2-1 1-1 2-2 3-1 2 3 9 1 9-2h1l1-1h2l1 1c0-2 0-2 1 0h4l4-1 2 1h1c0-1 0-2 1-1l1-1h4a3 3 0 013-1c0 2 3 3 5 2h7c-1 2 0 2 2 1h3c1 1 3-2 3-4h-1l-4-1c-3-1-3-1-2-3 3-3 2-5-1-7-4-1-4 0-3 5 0 4 0 4-2 3-2 0-3-1-3-3 0-3-1-4-3-4l-7-3c-3-4-8-3-12 1-2 3-8 2-10-2l-3-3c-2 0-5-3-4-4s-4-3-5-2l-4 1c-2 0-4 2-5 4-1 3-4-2-5-6l-2-6c-2-2-3-3-3-1M183 250l-2 1c-2 1-5 6-6 13v6h3c3 0 4-1 5-6a48 48 0 000-14M0 393c0 62 1 87 1 56a14350 14350 0 00-1-56m173-90c-3 0-4 1-5 7-2 12-2 14 3 13 3 0 4 0 4-4 2-8 2-17 1-17l-3 1m71 25l-2 10-1 5h13l-2-3-1-2-1-2c0-2 0-2 1-1 3 4 4 2 4-3-1-4-3-7-6-7l-2-1c-2-2-3-1-3 4m437 49c0 3 0 3-3 3l-4 1-4 3c-3 1-4 4-2 4v1c-3 2 4 4 12 4h3v-9l-1-9c-1-1-1 0-1 2m-513 4c1 0 1 1-1 2l-1 5-1 8 1 4v2l1 2 1 2c0 2 1 3 2 1v-4c-1-2 0-3 1-4 2-2 5-14 3-17v-1c1-1-1-1-3-1s-4 0-3 1m443 49l-1 7-1 7v2l2 2h-3l-2 2c-1-1-1 0-1 4s0 4 3 4l5 2c3 4 5 3 5-5 0-5 0-6-2-7s-2-1 1-1h4v-8l-1-9-1 8c0 7-1 10-1 3s-1-9-3-9c-3 0-3-2 0-2 2-1 2-1-1-1l-3 1m17 0c-2 0-2 1-2 4 0 5 3 6 12 4h6v-2c-2-2-2-2 12-3 2 0 1-1-4-2-7-1-20-2-24-1m-95 12l-1 15-1 13-1-12c0-8 0-11-1-10-2 1-3 31-1 31l1 5c0 7 2 9 8 8 3-1 3-1 3-5s-1-5-5-5c-3 0-4-1-4-2h3c2 2 2 2 1-21 0-19-1-21-2-17m-385 2c2 3 84 11 88 8h3l6 2 5 1c3 0 3 0 3-2a51 51 0 00-27-3l-16-2a2048 2048 0 01-62-6v2m500-1c2 0 4 2 2 2l-1 2-1 1-3 6 2 1c3 0 4 3 2 5s-2 2 1 1c4-3 4-1-1 1-4 2-5 5-3 7 2 1 2 6 0 11l-1 10v6l1-5c1-4 1-3 1 6v13c0 2 24 3 24 1l1-19v-20l-1-1-3-4c-1-3-3-5-5-6-4-3-4-3-4-6 1-4 5-7 6-5v1l-1 1-1 2a2 2 0 102 1l3-4 2-3h-2l-6-1c-3-1-3-1 2-1h6l-6-1a20 20 0 00-7-2l-6-1c-3 0-5 0-3 1m8 37c-2 1-2 3-2 13l1 11h6v-7c0-16-1-20-5-17" tabindex="-1" itemprop="light" style="fill-opacity: 0.186; fill-rule: evenodd; fill: rgb(225, 249, 36); color: rgb(163, 163, 163);"></path><path d="M235 2c3 4 4 5 6 4 3 0 11 3 11 4 0 2 10 0 13-2 2-1 5-1 5 1l-2 2-1 1 4 2c1 1 4 3 7 3 4 1 6 2 8 5l4 4 5 2c5 2 15 3 18 2l3-2-2-3c-2-1-3-3-2-3l-9-3-3-1-2-1c-1 1-1 0-1-1v-3c-2-1-7-10-7-12l-28-1c-26 0-28 0-27 2m82-1l2 3 4 3 2 1 3 3c2 2 4 3 6 1 1-3 9 1 9 5 0 1 1 2 7 2l9 3 4 2c2 0 3 2 1 5l-2 4-2 2c-2 1-3 2-2 4 1 7-12 11-13 3-1-5-9-10-12-8l-2-1c-3-2-6-1-7 2-1 2-1 2-7 2a12 12 0 00-9 2l-1 1c-1-1-3 0-4 1-2 2 0 3 6 3 4 0 6 0 7 2l4 1c3-1 5 1 4 3 0 2 0 2 2 2 6-3 14-3 13 1l-1 2h-2c-3-1-11 2-10 4 0 2 2 3 2 1s5-1 7 2c3 4 18 4 18 0 0-3 3-4 4-3 2 3 4 2 7 0l1-3-5-10 3-2c3-1 6 0 7 4 0 2 1 4 3 5 2 2 2 2 1 5s2 8 5 8l3-6c0-3 2-3 8 3 6 5 6 5 12 0 5-4 5-5 1-5-5-1-8-4-6-5h3c2 1 3 0 2-3-1-2 0-3 4-4l2-3 1-3 2-4c1-4 5-5 7-2 1 1 8-5 7-7 0-2 8-6 14-6l8-1c4 0 4 0 1 6-1 2-2 4-1 6v6l-2 5 4 1 7 1 20 2h5c4 0 4 1 1 5-4 3-4 3 1 3 3 0 4 1 9 5 3 3 6 5 8 5 3 0 2 2-3 4-6 4-6 4-5 5h4l10 3a27 27 0 009 4l1 1 3 2 2 2 3 3c1 3 3 4 7 6 8 2 9 4 9 7s3 4 13 3c8-1 9-1 12 1s7 0 9-4c1-3 0-4-5-4l-6-1h-4c-5 2-12 0-9-3 2-3 14-5 15-3 1 3 4 2 9 0 5-3 7-3 9 3 2 3 3 4 5 4l6 2c-1 1 2 5 5 5 1 0 3-1 5-4l3-4c2 0 5-5 5-8 0-4 2-6 7-9 3-2 3-2 2-6 0-5 2-8 4-7h3c1-2 2-1 4 3s7 5 10 3h1c0 3 2 2 4-1 2-4 6-5 9-3 1 2 2 2 4 1 8-5 8-5 10-4l1 3c0 2 3 3 8 1l3-1c1 1 1-39 1-53V0H500L317 1M2 32l144 61-67-29A22314 22314 0 012 32m407 25c0 2-3 4-5 6l-4 5-8 10c-5 4-9 9-9 10-2 3-3 1-3-5 1-7 1-8 3-6h2l-1-2v-2c-2-1-2-2-1-2 1-1 1-1-1-2-3-2-7 0-7 4l1 5 1 8c-1 8-1 8-6 13-5 6-7 7-6 4l2-12c0-10 1-12 4-9 1 2 1 2 1-3 1-4 0-4-3-5l-3-3c0-3-5-5-8-5-2 1-3 6-2 9 1 1-2 60-3 62l-10 3c-7 2-10 4-13 6l-7 4 4-4c5-3 3-4-2-1l-14 4c-8 3-11 4-14 7l-6 4c-1 0-1-1 5-6 2-1 2-1-2-1l-4 1a339 339 0 01-47 13l-7 3-7 3c0 2-8 7-9 5v-1c1 1 3 0 5-2 4-4 5-4-12 1-6 1-10 3-10 4 1 1-7 7-8 6l3-3 4-3-7 1h-1v-5c-2 0-2 1-2 3 0 3-1 4-6 3l-3 2c-1 3-2 3-3 1h-2v1l1 2a2 2 0 01-4-1v-2l-1 1-2 1-2 2c0 2-1 2-7 2l-6-1-4-2h-7l-2-1-1-1-5-1c-4 1-6 3-4 4v8l-9 4c-11 2-11 2-11 9-1 5-3 9-3 5l-1-2v-1c2 0 2-1 2-4l1-5v-2c0-4-2-3-2 1 0 3-1 4-3 6-3 2-3 2-1 3v1l-2-1c-1-1-6 3-5 4l-1 1c-1-1-7 3-14 7l-12 9-2-4-2-4-1-1-2-3h-1l-2 2-14 16c-1 1-4 0-7-1l-7-1h-3l-1-1-5 8-9 14c-3 4-5 8-4 9l-1 1-1 1c0 2 0 2-1 1l-1 1v1c-1 0-9 12-9 14 0 1 0 2 1 1v-2c0-2 0-2 1-1 1 2 1 1 1-3h1c1 2 1 0 1-3l1-1a3 3 0 003-4 18 18 0 007-11l9-11 7-12 3 5c2 4 2 5 1 6h-1c1-1-2-9-3-8l-8 12-8 12h3l9-1-3 1h1c5 0 3 2-2 3l-6 2-2-1 3-2 4-1h-4c-3 0-4 1-11 12-9 13-9 13-6 14h16c-1 0-2-1-1-2l3 1c4 3 2 4-10 3H0v12h4l8 1 4 1H4c-4-1-4-1-4 1s0 2 7 2c9 0 11 1 9 4-1 2-4 17-4 23-1 8 1 6 2-3l2-14 2-6v8l-1 6c-1-2-1 0-1 3v2c-1-2-1-2-1 1 0 2 0 3 2 2 1 0 2-1 1-2l1-8c2-4 2-5 0-5-1 1-1 0-1-1l2-6 2-6 3-2h-5l3-2v-1c-1-1-1-1 1-1 2 1 2 3 0 15l-3 15c0 6-1 7-4 7s-3 1-4 4c-1 6-1 7-3 7v-1c4-3 2-6-5-6H0v5c0 6-1 6 9 7 1 1 0 1-3 1-6 0-6 0-6 2 0 3 2 4 5 4 2 0 2 0 2 2-2 5-5 23-5 26l-1 4-1 4 1 4 1 1H1c-1-1-1 17-1 50v51h36l103 2c7 0 7 0 7-2l2-4 3-2h-4v-2l1-1c1 1 1 0 1-1l2 1c1 2 2 3 1 4v2c-2 0-2 0-1 2h-4c0 1 1 2 2 1l1 1 48 4 53 1 39 1 1-6c2-8 4-8 5 0v5h18c19 0 22 0 21-3v-18l1-2c1 1 2-3 1-6v-5c1-3 1-8-1-11 0-2 1-2 2 1l3 3 2 1c3 0 5 3 3 4-2 4-4 17-3 22v1l-2-2-1-2c-1 0-2 3-1 7 0 3 0 3 2 1 1-2 2 0 2 5l-1 4h16c30 2 128 1 128 0h1l11 1c11 0 11 0 11-2-1-3 1-3 5-3l2 3c0 2 1 2 13 2h14l1-7 2-9c1-1 0-2-1-3-2-1-2-1-2-12 0-15 0-15 3-16 2 0 2 0 2 11v11l3 1 3 2-1 11v11h33v-11c-1-10-1-11 1-10h5c3 0 4 1 4 2l-2 1c-3-1-5 3-5 11v7h9l-1-14 1-14 1 14v14h5v-16c0-16 0-17 2-17a1 1 0 100-1c-1 0-2-2-1-5 0-3 1-3 4-3s3-1 3-3l6-1a6 6 0 017 3l1-1h10l3-1 2-1-2-1c-1 1-1 1 0 0 1-2 1-2-1-2s-3-1-3-4 0-3 3-3h2c-1-1 0-2 1-3 1-2 1-2-2-2-4 1-4 0-5-3-2-3-2-4-5-4-2 0-2 0 0 1 3 1 3 2 0 2h-2l1 1 3 1-2 1h-3c-1 1-1 1 1 1 2 1 2 1 1 2-2 0-2 0 0 2 2 1 2 2 1 2s-1 1 1 2l2 2-4-1c-4-2-4-2-4 0 0 1 1 2 3 2l4 2-2 1-9-2-8-3-5-2c-4 0-5-9-1-9 2 0 2-1 2-2l1-10c0-7 1-8 7-8l5 1v8l-1 9c-1 0-2 2-2 7 0 8 1 8 3 8s3-6 2-24c0-9 0-9-3-10-7-1-7-1-2-4l6-5 2-2v2l1 5c0 3 0 3 5 3l10 1 4 1v-16c0-15 0-16 2-18l4-3c3 0 3-3 0-4-2-2-2-2 0-2l3 1 5 1h1c-5-2-7-3-6-4v-1l4 1h3l1-1 3 1-1 2 1 1 1-1 1-1c2 0 3-2 1-4-1-1-1-1 1-1 3 0 5-1 4-3l2-2c1 0 2 0 1-1l1-1 1 4c0 4 0 3 1-1 1-5 3-2 3 6V231a15 15 0 00-1-11l1-14v-13h-3l-3-1h6v-11a411 411 0 000-18 15 15 0 00-2-8h1a20 20 0 000-14l1-1c0-1-6-1-7 1h-1c1-2 1-2-1-1l-2-1h-1c-2 0-2 0-1 1v1l-3-1 1-2-1-1c-2 1-7-2-6-3l-1-1h-5c-3 0-6-1-8-4l-3-1c-1 1-4 0-3-1h-1a2 2 0 001 4h2l-1 1v1h-2l-2-3h-2v-3c-2 0-3 1-2 2h-1l-2-1h-6c-1 1-5 0-4-2h-3c-3 1-4 6-1 6v1h-5 1l1-2c0-3 0-3-5-2-4 1-4 1-4-1s0-3-4-2l-1 1-2 2h-4l-4 2-3 1-1-2v2l-2 1c-3-1-5 1-3 2l1 1h-2c-1-2-5-1-7 2h-4c-1-1-1-1-1 1l-3 1h-1c1 1 0 2-2 2l-2 1h-5l-1 1-1-2-1-2c-1-1-1 0 0 0l-1 3-1 2h-2l-1-2-1-2-1-2h-2c-2 1-3 2-2 3h-1l-1-2c0-1-1-1-2 1-2 2-3 2-8 1-5 0-6 0-7 3-2 2-4 2-3-1h-1l-3 2h-5c1 1 0 2-1 2v-1l-4-1c-4 0-5 1-4 2h-1l-11-21c-10-22-9-21-11-19-3 2-3 3 6 20 7 15 9 21 8 21l-13-27c-3-6-5-8-5-4l1 1 1 1 1 2v2l1 2 1 2 1 2v1l1 3 1 1a2 2 0 003 4c-1 1 0 4 1 3v1l1 3c1 0 2 1 1 2l1 1v2c0 2-2 2-4 1h-2l-1-2c0-6-5-15-9-15-2 0-2 0 0 2 1 1 1 1 0 0-2 0-2 0 0 1 3 3 5 6 6 12 0 3 0 3 1 1h1c0 3-4 7-5 6a7 7 0 00-8 1l-2 2-2 1c-1 1-2 2-1 3l-1 1-1-4-1-3v3c0 4-1 5-3 2s-3-2-3 1c-1 3-1 4 1 5 4 3 2 4-3 1-4-3-16-6-29-9l-12-2c-2 0-3-1-3-2l-1-1c-3 0 0-3 5-3 11-2 26 2 31 8 3 3 4 3 2-1-2-3-15-9-30-12-6-1-6-1-5-5l2-35h1l1 9-1 9h3c4 0 14 3 15 4l-6-1c-12-3-14-2-11 6v2c-3 0-2 5 1 7 2 1 4-1 3-3s0-2 3-2c6 0 9 2 9 5-1 2 0 3 1 5l2 2v-5c2-13 2-34 1-35v-1l3 1 1 4 1 5v-5c0-10 7 0 7 11l1 6c1-4 34-35 35-33h1c-1-2 0-2-15 3l-16 4c-4 0-3 2-18-19-13-17-14-18-18-19l-4-1 3-1 4-1-5-1c-5-1-5-1-4-4l2-2c2 0 1-2-1-2-1-1-1 0-2 1m17 44l-8 1c-7 0-7 1 1 1 13 2 30 10 30 15 0 2 2 1 2-1a10 10 0 00-6-9c-2-2-11-6-14-6-2 0-2 0 0-1l2-1h-2l-5 1m-19 6l-2 15c-2 26-2 25 1 25 2 0 2-1 2-5l3-35h-4m16 71c0 3 0 3-5 3h-2c4 1 2 2-3 2h-2a145 145 0 0022 5l1-1c1-2 1-1 1 1 0 4 2 5 2 1l1-2v3c0 2 0 2 1 1l1-2 1-1v-3l3-1c3-3-4-6-16-8-5 0-5 0-5 2m-279 13c0 2 0 2-1 1s-6 0-6 2h2c2-2 3-1 4 4 0 3 0 3-1 2s-1-1-1 2c1 2 1 3-2 4s-3 1-3-1c-1-1-1-1-1 1s0 2 3 1h3v5c-1 7-1 7-7 8l-9 1h-9l1 1c1 1 1 1-1 1a2 2 0 100 4c8-3 18-4 27-4h6l-4-1h5c3 0 5 0 4-1h-4c-1 0-3 0-4-2l-3-2-1-3 1-3 1-2v-6c0-2 0-2 2-2h3l-3-1c-2-1-2-5 0-7l1-1v-1c1-1 1-1-1-2s-2-1-2 2m116 14l8 3 11 3 18 15 14 13v7c0 5 1 8 2 7l1-9-1-10-2 1c2 3-2 0-13-11a64 64 0 00-25-17l-4-2-5-1c-3 0-5 0-4 1m-81 23l1 2-1 6-2 8v3h4c5-1 5-1 5-10l1-8h-3a35 35 0 01-5-1m-49 10l-2 1h2v1l-2 7-2 8c-1 2 0 2 6 0v1l-2 1c-3 0-3 2-5 13l-2 8c-3 1 0 2 3 2h5l1-8a770 770 0 012-21l1-5-1-8h-4m-51 12c0 2 0 3-2 3a104 104 0 00-17 4l6-1 1 1-1 2c-2 1-4 15-4 16 2 2-2 18-4 20-1 1-1 1 1 1l3-1 3-12c2-26 3-27 10-28 4-1 5-2 5-5v-4l-1 4m102-2c-3 1-4 1-5 11l-3 13c-2 1 1 2 7 0l4-1 1-8v-10l-1-6-3 1M21 274l-2 2-1 1v1l-1 3-2 2c-2 1-2 1 0 1 3 0 3 0 3 2-1 2 0 2 12 1l13 1 3-14v-2l-1 2-1 7c-1 5-1 5-3 5l-8-1c-5 0-6 0-3-1l3-1h-4l-4-1h-1l-2 1-1-5v-4m348 2c-3 0-5 3-2 3l1-1v-1l1 1c0 1 10 1 18-1 4 0 4 0 4 2l-3 27v16l-1 13h-16v-9l-1 5-2 5v-8l-1 3-1 4c-3 2 2 2 11 2l10 1c0 7 2-8 3-30l2-29 1-3h-24m-13 2c-1 2 2 4 4 2h1v2l-1 2-1 4c1 3-1 15-2 16v1c2-1 2 0 1 4l-1 15c-1 9-1 11-3 13l-2 2v-3l1-21c3-29 3-34 2-31l-4 55c2 2 8 0 8-3l5-58h-8M42 295l-1 5H31l-10 1c0 1 8 2 10 1s9 0 9 2l-4 1c-5-1-6 0-5 4l-2 12-2 14c0 3-1 4-2 3-1 0-1-2 1-8l3-21c1-5-1-7-2-2l-1 4-4 23c0 7 0 7-3 7s-5 2-5 7c0 4 0 4-2 4l-3 1c0 2 8 0 8-2l3-2c8 1 11-1 7-5l-1-1c1 0 1-1-1-1-1-2-1-2 4-2h5l-1 6-2 6h-5l-5-1c-2-1-3-1-3 1l3 1c6 0 10 1 10 3 1 2 2-4 5-25l4-18c0-1 1-2 6-3l5-1h4l3-1h-9l-9 1 2-9 1-9c-1-1-1 1-1 4m205-4c-3 0-3 0-2 2v1c-1-1-1-1-1 1l1 3h5c6-2 6-2 5 8s-1 9-8 10l-5 1h12v3c0 5 0 5-5 3-5-1-6-1-6 7a174 174 0 01-2 11l-1 2c-2 2-1 2 6 1 9 0 9 0 7-4l-1-3 1 1c1 3 2 0 2-5l4-39 1-4h-5l-8 1m-77 10c-3 0-3 0-2 2v3l-1 4-1 2-1 7-1 6 3-1c2 0 3 0 2 1-2 0-3 4-1 4 1 0 2 3 1 5 0 1-1 1-1-2-2-2-2-2-2 6l-3 9c-1 2-1 2 4 2s6 0 6-2l3-17 1-14c1-17 1-16-7-15m-137 6l-2 15c-4 17-4 17 0 17 3 0 4-1 2-4l-1-1-1 2-1-1 2-6c0-5 2-8 2-4s2-1 3-7l1-10c2-1 1-2-2-2l-3 1m84 4l-1 11-2 6h4c4 0 4 0 1 1-3 0-3 0-4 8v9l-2 3-2 2h5c4 0 5 0 5-2l3-22 2-21h-9v5m-43 0l-1 10-2 9c-1 2-1 2 3 2h1c-2 1-3 1-4 9l-3 10c-2 2-2 2 1 2 4 0 5-1 3-2-1-1 0-1 1-1l2-1v-2l6-34c0-2-7-3-7-2m-72 5v11l5 1 3 2H1v12h4c4 0 4 1 8-19 2-11 2-10-5-10l-6-1v4m51 3c1 1-1 16-2 17v1c2 0 2 1 2 3l-2 8c0 3-1 5-3 7l-2 2h7l2-16c4-25 4-23 1-23l-3 1m-7 7l-2 10c-1 2-1 2 1 2h1l-2 8-3 9c-2 2-2 2 1 2l3-1 6-34c0-3 0-3-2-3-3 0-3 0-3 7m86 9c-1 7 0 15 2 13 1-2 2-3 1 0l3 1c3 0 6-6 4-9v-2c1 1 1 0 1-3s0-3-1-1c0 2-1 2-1 1v-4c0-2 0-2-4-2h-4l-1 6m356 9l-1 23a5253 5253 0 00-4 77c0 7 0 7 2 7s2 1 2 9c0 13 2 9 2-6v-28l-2 3-1 2-1-1 1-21 2-24 1-46-1 5M60 375l-1 1-1 1h1v6l-2 9-1 6-2 9-1 11c-1-1-1 0 0 0l1 2 4-14 1-10h5c4 0 4 0 4-2 0-3-1-4-2-1-1 0-1 1 0 0l1 1c0 2-7 1-8-1h1l1-4v-2c1 1 1 1 1-2s2-4 5-2h2c2 0-3-3-5-2l-1-1 3-1 3 1c1 0 2-1 2-3v-3h-6c-4 0-6 0-5 1m43 2l-1 2c-1-1-1 0-1 1l1 2v4l-1 3c-1-1-3 9-2 11v1l-1 8-1 7v1l1 4v1l1-4a2266 2266 0 014-27l1 2a3 3 0 01-1 4h2v9c-1 7-1 10 1 8h2c1 3 3-1 4-10l2-12c0-3 0-3-1-2l-4 1c-2-1-3 0-3 1l-2-6c0-2 0-3 1-2 0 2 0 2 2 0h4c4 0 4 0 5-4 1-5 0-6-8-6h-6l1 3m60 2c0 4 0 4 2 2 1-1 1-1 1 4-2 14-2 15-1 15l1 2 1 2v7a1 1 0 102 0c-1-1 0-1 1-2 2 0 2-1 0-7l1-2h2v-1l2-9 1-8a3 3 0 00-2-5l-6-1h-6l1 3m23-2l-2 1c-2 0-2 1-3 5 0 3 0 4 1 3l1-4c0-3 0-3 1-2l5 1c6 0 5 3-1 4-3 1-3 1-3-1 0-5-1-1-1 6v5c1-2 1-2 2 0h2c1-2 3 0 2 3-2 2-3 3-4 1s-4-1-4 1l5 1 4 1h-3c-2 0-3 0-3 3-2 6-1 7 1 6l2-2-2 3c-4 2-4 2 0 3s5 0 7-16c0-9 2-16 2-17 2-1 1-4-1-3l-2-1h-2l-2-1v-1l-2 1m-52 3l-4 4-1 12h1c0-4 3-1 3 3 1 2-2 2-4 0-1-2-2-2-2-1 1 1-1 5-2 4v-1l-1-1-3 11 6 1 5 1h-6c-4 0-5 0-5 2 0 3 4 3 6 1l3-2-1 9v1l2 1c1 2 1-1 5-26l2-20-4 1m537 28l1 14 1-5 1-5 1-2c-1-1 0-1 2-1h3v19h-3c-3 0-4 0-4-2l-1-2v9h6l5 1v-4l-1-3-1-8c0-6 0-9 1-8l1-1c0-1-1-2-3-2l-3-1v-10l4-2 2-1-6-1h-6v15m-127 7c1 1 1 4-1 4-1-1-1 0-1 5l1 6c1-1 1 0 1 4 0 1 0 2 2 2s3 2 1 2c-3 1-4 0-4-1 0-2-3-1-5 2l-3 4v-3c0-3 0-3-1-1l-2 6-1 5v-2c0-4-1-4-3 0-1 4-2 31 0 31l1 6c0 7 3 9 8 7s6-8 1-11l-3-2v-26l2 2 2 3v-3l-1-6c-1-1-1-1-1 1v2c-2-1-1-5 1-6l1-2 2-2c5-2 8 1 6 6-1 2-1 2 1 4 4 3 5 3 5-3a12 12 0 00-1-7l-1-3c-2-3-2-3-1-4v-1c-2 0-3-4-1-6 2-3 1-6-1-6l-2-3c0-3-1-5-2-5v1m88 16h-6v7h7c5 0 7-1 8-2 0-2 4-3 9-3 3 0 3 0 2-1-2-1-12-2-20-1m-487 11l-1 1-1 1c-1 1 2 2 3 0h1c2 3 35 6 81 9l23 2c2 1 2 0 2-2s-1-3-15-4c-20-1-72-5-82-7h-11m504 5c-4 3-5 8-1 8l2 1c1 2 5 4 6 4a9 9 0 017 4h2l-1 1v2l1 5c0 3 0 3-1-1-1-7-9-12-14-9s-6 4-3 7c1 1 2 3 1 5l-1 20v18h17v-18l1-15 1 18c0 14 0 15 2 15s2-1 2-14l1-18c1-4 1-4-1-6v-1c3 0 2-2 0-2l-2-4c-1-2-2-4-6-6-4-3-5-4-4-5l1-2c-1-1 0-2 1-4l2-3h-3l-4 1c0 2-1 5-4 5-2 0-4-2-2-2l2-5-2 1m-488 10v9l2-7c1-8 1-7 6-6 3 1 3 1 1 1-3 0-4 1-4 10 0 2 0 3 3 3a85 85 0 0116 2l4 2c2 1 3-1 4-12l-1-7-14-1c-17-3-15-3-17 6m-30-4l-2 17c0 4 2-1 3-8l1-6 25 3-3 1-12-2h-7l-1 4-1 7c0 2 0 3 1 2l2-2c2 1 5-2 5-5a2 2 0 114 0l1 2 1-3c0-3 4-3 5 1 1 2 1 2 1 0l2-2 2 2c0 2 1 1 1-2l1-6c-2-1-28-4-29-3m64 1c-2 6-2 14-1 14l1-6 1-6h4l16 2 13 2-4 1c-13-2-23-3-24-2s-1 1 2 2c5 1 4 8-2 7-3 0-3 0-3 3 0 1 0 2 1 1 1-2 6 0 5 3l1 3c1 1 1 0 1-2 0-3 0-4 4-3h3l-3 16-1 18 3-16c2-18 2-18 6-17h3l-3 16c-2 15-2 18-1 17l3-16c2-16 3-16 5-16 3 0 3-1 2 14-2 16-2 18-1 18l6-51-15-2-18-1c-3-1-4 0-4 1m63 0c-1 2 0 2 14 4 18 2 20 1 20-1l-1-2-13-1c-16-2-19-2-20 0m10 11a854 854 0 00-3 40l4-30 1-13 17 2-1 19c-2 21-2 24-1 22l4-41c0-3-1-3-14-5h-7v6m404-1c1 9 8 13 10 6 2-8 1-10-1-10l-6-1h-3v5m-58 9v21c0 1-1 2-3 2s-2 0 1 1l4 1h-7v14h26v-3c0-2 0-3 1-2l1 3 2 2 1-10-1-19c0-9-1-14-3-11h-12l-11-2 1 3m41 7c-2 2-3 23-1 23l4 1 3 1v-12c0-15-1-17-6-13" tabindex="-1" itemprop="regular" style="fill-opacity: 0.895; fill-rule: evenodd; fill: rgb(19, 99, 139); color: rgb(194, 91, 36);"></path><path d="M405 62l-2 4 1-1-24 25v-7c0-7 0-7 3-7 3 1 3-1 0-1-2-1-2-1-1-2v-2c2-1-1-2-4-2l-1 13v12l-6 6-6 7 1-12c0-14 0-14 4-14 2 1 3 0 0-1v-4c1-1 1-1-1-2l-6-3h2l-1-1-1-1c0-2-3-3-5-2s-3 8-1 8c1 1-4 61-5 62l-10 4-10 3c0 2-8 7-9 6l-3-1 1-1 4-2 4-2h-1l-4 1-14 5-11 4c0 2-8 7-9 6l-2-1c-1-1 0-2 4-3l4-3-5 2-25 7-37 11c0 2-8 8-9 6h-2c-2 0 2-3 6-5 2-1 2-1 0-1l-20 7c0 2-8 7-9 6h-3l1-1 3-2 2-1 1-1 2-1c1-1-4 0-6 2l-5 1c-5 0-8 2-8 5l-1-2c-2-1-2-1-2 1l-1 4c0 2 0 2 2 2 3 0 2 1-2 3l-4 1-1 1-2 2v-8h-4l-1 9c0 1-3 4-8 7l-3 3c0 2-5 6-7 6l-1 1a30 30 0 0019 1l3-1c0-2 13-5 20-5h12c6 0 8 0 7 1-2 1-2 1 1 1l5-1 33-7v-1l4-3c7-2 12-3 13-2l2-1a2 2 0 014 0c-1 1 0 2 2 2 3 1 4 0 3-1l1-2 1 1c0 3 1 3 11 4l9 1h2l3-1 2-2c0-2 0-2 1-1 0 3 3 2 4 0l1-1c0 2 1 2 2 2l5-2c3 0 4-1 4-2l2-2c2-1 2-1 2 1 1 1 1 1 1-1s3-2 4 0c1 1 1 1 1-1l1-2 1 2v2l1-2c0-2 0-2 1-1 0 3 3 2 4-1 1-2 4-3 4 0 1 1 1 1 1-1l1-2 1 2v2l1-2c0-2 4-4 4-1 0 1 1 1 1-1 1-2 1-2 2 0l1 2v-2l1-2 1 2c1 1 1 1 1-1l1-2 1 2c-1 3 0 3 2 0l4-5c4-2 3-3-1 0h-2l2-3 2-1-3 1a555 555 0 01-58 14c-6 2-8 2-21 1-15-1-16-1-26 1-14 4-14 4-15 2v-2l12-3c13-3 14-4 14-2 0 1 2 2 7 2l13 1h8v-1l4-2 13-2c44-12 44-12 44-9l1 1 1-1c0-2 6-5 7-5h1c1-1 1 0 1 1l1 2v-2l1-2 1 2 1-1c1-3 3-3 3 0v2l1-2 1-2 1 2v2l1-2c1-3 6-4 6-1l1 2 1-2 1-2c1 0 2 0 1 2l1 2c1 1 2 0 1-2a1 1 0 113 1c-1 2-1 2 3 2a142 142 0 0113 0c-1 0-2-1-1-2 0-2 2-1 3 1l1 3v-3c0-3 3-3 3 1l1 3v-3c0-3 1-4 2-2h5c8 0 19 4 19 8 0 1 0 2-1 1l-2 2c-1 4-5 6-7 5s-3-2-2-3l-1-1h-6l-5-2v3l1 2v2l-2 3h-1c0-3-2-1-2 1l-1 2-1 2-1 3-1-1h-4c1-3 0-5-1-4-1 0-2 0-2-2l-1 1c-1 1-1 2-3 1v1c2 1 2 3 1 21l-2 20-18 1c-19 1-22 1-26 4-2 1-2 1-1-1 2-1 7-51 6-52s-26 5-28 6l-1 10-2 10-21 4 1-1c1 0 2-3 2-9v-10l-7 2c-8 2-8 1-9 11v7l6 5c3 4 6 6 9 6 2 0 3 1 3 2 1 7-1 18-3 17-2 0-4 9-2 10v4l-1 3-1 3-1-3c0-3 0-3-5-5l-2-1 5 1c5 1 3-2-2-3l-4-2 5 1c4 2 4 2 5-11l1-10-6-7-7-6-2 15-2 18c-1 1-1 1 1 1h-9c-9-2-9-2-5-2h6v-1l-4-1-10-2h13c1 1 2-2 3-14a15 15 0 000-11l2-5c0-5 0-5-4-9-3-3-10-6-11-5l-2 20c-3 31-2 28-7 28l-14 2c-11 2-14 2-11 0l1-5c2-13 2-12 0-13s-2-1 0-1c2 1 2 0 4-12l1-8c0-3-2-4-5-2l-4 30c0 3-1 3-10 5-5 0-5 0-4-2l1-5c0-2 0-3 1-2l1-1-1-3-2-1v-1c3 0 2-2-3-3-4-2-4-2 3 0 3 0 3 0 3-4s0-4 1-2c1 1 1 1 1-2l-1-5h-5c-6 0-6 0-6-2l1-2 29-7c3-2 0-2-16 1-15 3-16 3-28 2-11-1-12-1-22 1l-11 3 2 1 9-1c9-2 11-2 12 0l-1 1h-2 11l1-2 1 1c-1 2 1 3 7 3 3 0 4 0 4-2l1-1v15l-1 7a717 717 0 01-4 31h-1c-2 0-2-1-2-4 0-2 0-3-1-1-1 7 0 6-12 5l-20 1c-9 2-12 2-9 0l1-1v-1l1-5 2-17 3-15-5 1c-5 0-6 1-6 6-6 45-4 41-20 39h-15c-7 2-12 1-10-1l1-3 2-14c3-18 3-18-1-17-5 1-4-4 0-5l4-2-1-2-7 2c-7 0-8 1-6 2l1 2v1l1-1h1l2 1c1-1 1 6-1 17-1 12-2 14-3 14l-1-2c-1-2-1-2-1 0s0 3 2 3l1 2-1 6c-1 4-3 6-3 2h-5l2-1 1-2 1-4v-6l1-6v-2c-1-1-2-2-6-1l-3 6c-2 7-3 9-2 3l2-5v-3l-1-1 1-2c1 1 3-5 4-14l2-2c1-1-1-1-5-1h-6l-1 12-2 12 2-5 4-18c1 0 2 0 1 2l-5 35v8h6l11-2h4l-13 3-16 2c-3 0-3 0-2-1l-2-1-4 1-1 2c0 2 0 2 3 1h4l4 1c0 1 2 2 7 2l7-1 1-2v2c0 2 0 2 4 2 5 0 8 2 4 3l-5-1h-2c-4 2-6 9-2 9h3c3 1 3 3 0 22-3 21-4 24-6 20-1-2-1-2-1 1a2 2 0 01-4-1h-3c0 2-1 2-2 1h-3v-9l1-4c1 1 1 0 1-3v-4l1-3c-1-4 0-7 2-18 0-3 0-3 3-2a2 2 0 004-4l-1-1 2-2c3 0 1-2-2-2h-9l-5 1a4 4 0 012 6 4 4 0 001 4l2-2c2 0 2 1-1 18l-4 21 1 3 1 3-1 4h19l-7 1c-12 0-20 1-19 3l-1 1 6 1c7 1 9 1 10-1s1 2-1 6c-1 4-1 4 1 4l2 1h1a2 2 0 013 0l-1 6-6 36a7 7 0 01-5-6v2l-1 1-2-2 1-3 1-1v-4l-1 1-2 5c0 2-3 4-4 2a14 14 0 01-1-7c1 1 1 1 1-3l1-5a1 1 0 10-1-1l-2 7-2 9c0 4-1 6-2 3v-5l1-6c0-7-1-8-2-3-2 11-3 13-6 14h-2l2-2c3-2 3-5 0-4l-2-1 2-1c3 0 4-3 4-9 0-2 0-3-2-3-3 0-3 1-4 8l-2 11c0 3 0 3 3 3a2 2 0 110 4l-5 2h-2c1-2 1-2-2-2h-3l-1-1-2-1h3c2 0 2 0 2-2l1-3v-1c-2-1-2-1 0-3v-1h-2l-4 1-1-1c-1-2-1-2-5-2h-5v-4l1-4 1-2-2-2c-1 0-2 1-2 4v8l2 1-1 1-2 1c0 1-1 2-3 2-2 1-2 1-1 2v1h-1l-2-2h-1v3l-1 1c-2-2-11-2-11-1 1 1 0 1-1 1l-2-1H8c0 1-1 1-3-1H3v3l1 1 1-1v-1l1 1h4l2 1 2 2h3l2 1 1 1h-6l-2-1H9c-2-2-4-1-1 1 1 1 1 1-1 1-4-1-8 3-6 4v27l1-1h6c5 0 6 1 6 3v3H7l-7-1v44h20l48 1h27l2-15 3-21c1-7 2-7-6-8-6-1-9-2-8-4l12 1 21 1h9l-8-2-13-1c-5 0-6-2-4-5l27 4c1 1 1 1 1-1s0-2 4-2c4 1 4 1 4-2a1 1 0 112 1c0 2 4 3 13 3l8 1v-4c0-3 0-3-13-5-7 0-7 0-6-3 0-4 0-3 12-2l21 2 12 1c2-1 1-1-1-1-4 0-8-4-5-6h2l1-1-4-1-35-3c-1-1 6-1 23 1l27 2a78 78 0 0111 1 2 2 0 100 3h4v1l-2 1c-1-1-2 0-3 1-2 1-2 1-2-1h-1v2c1 2-5 0-6-2l-2-1-2 2-2 1c0 1 2 2 8 2h14l2-2 2 2h-1v1l18 2c20 1 20 1 20 5v3h-8l-17-1c4 0 4-1 1 26-3 25-3 26-5 26l-1-2h-2c-2 0-2 0-2-7l1-6-1 7-2 8c-1 1-7 0-7-1h-1l-6 2 12 1c12 0 15 1 11 1l-4 1h64l2-18 2-22v-4l2 2c2 3 3 3 3-2l1-4 1 5-1 6v5l-1 15v17l18-1c22 0 21 1 20-9l1-12c2-7 2-21 1-23l-14-3c-25-2-23-2-23-5l1-3h6c6 0 17 1 23 3 3 0 3 0 2-1-1-2-1-5 1-6l1-2h1l1 6v5h1a3 3 0 115 2l1 2 1-2c0-3 1-3 11-2 29 3 37 4 38 7 0 2 2 1 2-1s1-2 4-1l17 1c15 1 15 1 14 4l1 2c2 1-7 1-21-1l-22-1c-16-1-33-3-36-5-3-1-5-1-5 1l-1 1v-1l-2-1c-2 0-3 1-1 3 3 3 5 4 7 3s2-1 2 2c0 2 0 3-3 3-4 1-6 13-5 21 1 3 1 3-1 2l-2-3c-1-1-1 1-1 3s0 4 1 3c1-5 5 1 4 6-1 3-9 3 74 4h67v-4l1-30c1-25 1-26-1-27-2 0-2-1-2-4l5-107c1-22 1-22-1-22-1-1-1-1 1-1l5 2c3 1 3 1 1 1-3-1-4 0-2 2v1c-1 1-2 22-2 98l-2 72v19h20v-2c0-3 0-3 3-3 4 0 6 2 5 4l13 1h14v-5l1-6 1-2v-2c2-1 1-3-1-3-2-1-2-1-1-15l1-14 5 1c6 1 8 4 3 3-3-1-4 0-4 5 0 3 0 3 3 3l4 1-3 1c-4 0-4 0-4 4s2 6 8 5l9 2-5 1-5-1v3l-2 11v8h33v-16c-1-24 0-26 9-23 2 0 3 5 1 5v2l3 3 1 15c0 14 0 14 2 14h2v-20c0-21 0-23 5-22a2 2 0 101-3l-4-1h15l3 1h1c2-3 0-5-4-3-3 1-3 1-7-2l-7-4c-3-1-3-1-3-5l2-6v-3l3-9c0-4 1-6 3-7l2-1 4-3c5-4 6-5 10-13s5-9 5-7l1 1 1-1 1-1c1-2 3-3 3-1v4c0 3 0 3 1-1a7 7 0 00-1-6l2-1h3l2-1 2-3c2-2 3-3 2-4v-2c1 1 1 0 1-1 0-2 0-3 2-3l2-2h2a26 26 0 007 1c4 2 7-1 4-2-1-1 0-1 1-1 3 0 5-1 4-3 0-2 4-4 6-3h1l1-1c2 0 2 2 2 7v-66l-1-37v-2l1-5c0-3 0-5-1-4l-1-1 1-1 1-12c0-10 0-12-1-11-2 0-5-4-4-5 1 0 2-6 1-7l-3 1-2 1 2-2 3-2h2c0 3 2 1 2-2s0-4-2-4l1-2c1 0 1-1 0 0l-2-1h-2l-1 1v-1l-1-1c-1 1-2 0-3-1l-1-2-1-1-1-2c-1-1 0-1 1-1 3 0 3 0 3 3 0 5 3 4 5-1 0-3 2-4 3-1l-2 2c-1 2-1 2 1 1 2 0 2-1 2-9 0-6-1-8-2-7-1 2-2 0 0-2v-2c-2-1-2-1-3 3l-2 3-1-1c1-1 0-3-2-5l-2-2-2 2-2 2-1-2v-2h3l-1-1c-1 1-1 0-1-1 0-2 0-2-1-1l-2 2c0 1-1 2-3 2h-5c-1 0-2-1-2-3l-2-6v-2l2 2c2 2 3 4 2 5l1 2c2 1 2-2 1-3v-4h1c-1 1 0 2 1 3l1 2c0 2 2 1 2-1l3-3 3-2h2v3c2 0 2 2 2 4 0 3 2 5 4 3l-1-1c-2 0-1-1 1-1a7 7 0 005-10h-1v-1c1 0 2-1 2-3s0-2-2-1c-1 1-6-1-4-3 0-1-4-3-5-2l1-3 5-6c3-1 3-1 2-4 0-3 0-4 2-5 1-1 1-1-1-1l-3-4-1-2-1 2-1 1c-2 1-7-4-7-7l-2-1h-3l-1-1-1 1c1 1 0 1 0 0l-2 1c0 1-1 2-3 2s-3 1-3 2c-1 1-1 1 0 0 2-2 4-1 4 2l2 2 1 1a5 5 0 01-6-1l-3-2c-3-1-4-2-3-3 0-1 0-2-2-1l-2 2-1 2v1a2 2 0 010 3c2 0 1-2-1-2l-3-1-3-1v-4a2 2 0 01-1-2c1-2-2-6-4-6l-1-1h2l1-3-1-1h-1l-5-1h-4l-2 5c-2 4-2 5-2 1 0-2 0-2-3-2-5 1-6 0-5-2h-4l-1-2v2h-2l-2-4-2 1-3 5c0 2 2 3 3 0h1l-1 2v3c2 1 2 1 1 2-2 1 0 3 3 3l1 1 2 1 2 1 2 1c2 0 3 0 3 2l1 3v6l-1 2c0 2-1 2-4 1l2-3c2-2 0-6-3-4-2 0-2-3-1-4v-2a7 7 0 00-8 5c-2 0-2 0 0 2s2 2 0 2h-4l-1-1c1-3 0-4-2-3h-1l1-1v-3a2 2 0 113 0l-1 3 3-4c3-3 4-4 2-4l-2-4c0-2 0-2-1-1s-1 1-1-1h-1c0 2-2 3-2 1l-1-2v-1l-2-1v-3h-2v2l-1 2h-11l1 1 1 1-3 1c-1-1-3 0-4 1h-5l-1 2h-1v-1l-3 1 1 1c1 1 1 1-2 1l-4 1h-2l-2 1c-2 0-5 1-5 3l1 1 3 1-1 1-3 1c-2 2-5 3-4 1l-1-1c-3-1-3-3-1-4v1h2c2-2 2-7 0-7-4 0-5 0-2 2v1h-3l-2-2-1-2 1 3c0 4-1 7-2 7v-1l-1-2-1 2c-1 1-1 0-1-2a2 2 0 012-3c0-2-2-1-4 1l-2 2v-2l1-2 1-1h-4c-2 2-6 3-7 2-2-1-4 1-4 4a1 1 0 11-3-1c1-1 1-1 0 0s-4 0-4-1h1l1-1c0-1-4-1-5 1a3 3 0 01-4-1 2 2 0 00-2 4l-1 1c-3 2-4 1-2 0v-1l-2 1c0 2 0 2-1 1h-3c-2-1-10 2-10 4v1l-7-1-3 2-4 4c-1 1-2 2-3 1-2 0-2 7-1 9v2h-1c0 1-1 1-1-1-2-1-2-1-1 1 0 3-2 4-3 2-3-8-45-16-72-15-19 1-30 6-30 12l-1 4-27 6-26 7-15-1-15-2-15 4c-12 3-14 3-15 2-2-3-1-4 6-5l14-4c7-2 7-2 22 0l15 1 23-5 27-8c5-2 5-2 5 0-1 0-1 1 0 0l1-3 1-4-1 1-3 2 1-4 1-2s3 0 20-9l7-3 19-1c25 0 40 2 47 9l2 1c0-3-11-8-27-11-19-4-46-1-53 5-2 1-2 1-1-1 2-1 2-4 2-18 1-15 2-22 4-24 1-2 7-5 7-4a705 705 0 01-3 34l1 7 2-19 2-17v9l1 8 2 2 1 2v3l-2 5v3l9-1c5 0 8 0 6 1-7 0-7 2 0 1l4-1 4-39-2 31v9l2-17c2-23 2-24 4-24l3 3h1l1-1 1 9c-1 10-1 9 8 11h5v-14l2-1c3 0 3 0 3 5l1 9c0 3 0 3-1 2l-1-1 1 3v1l-1 8v6l-1-3v2l2 5c1 1 1 1 1-2l1-18c1-16 1-16-1-18-1-1-1-1 3-1l5 1 3 4c3 3 3 4 2 7l1 5c1 1 33-27 32-28l-12 4-15 3-5 1 3 3c2 3 3 7 1 10h-2c0-18-66-25-81-9-4 4-5 2-2-3 4-7 16-10 39-10l12-1c-2-1-2-1 0-1l-1-1c-2-1-2-1 1-1l-2-1a7 7 0 01-6-3v-1l3 1 1 1v-3l1 1 3 1h3l-3-1-1-1 2-1c0-2 1-1 3 1a4 4 0 002 2v-1l-1-1-2-2c-1-2-2-3-4-3-3 0-3 0-1-1s2-1 0-1c-3 0-3-3 0-3s4-1 1-1c-2 0-2 0 0-1v-1c-2 0-2 0-1-2 2-2 2-3 0-3-1 1-1 0-2-1l-2-2c-2 0-2 0-1-1l4-1c0 1 1 1 0 0l-2-1c-4 0-5-1-3-4 3-4 1-3-4 2m73 47c-2 2-2 2 1 8a717 717 0 0113 27c2 6 4 8 4 4l1-2-8-18-9-20c0-1-1-1-2 1m-65 20l1 5v3c-2 1-3 6-1 6l2 1c2 0 2 0 2-2 0-3 0-3 4-3 3 0 4 0 4-2v-5c1-3 1-3-4-4-7-1-8-1-8 1m213 21c0 1 3 3 4 2v1l-1 1c-2-1-3 1-1 3v1h-1l-1 1h-1l-1 1c-2 0-5 3-4 4l2-1h2c0 1 2 2 3 1l3 2c1 2 1 2 2 1h1c0 2 4 5 5 4l-1-1-1-1v-2l-3-3v-2l1-1c-1-2-1-2 1-1 2 0 2 0 1-2l1-3-1-2-3-1-1-1-1-1h-2l-1-1-2 1m-255 16c-7 2-12 5-13 8s0 3 4 1c6-4 15-5 33-5h16l-7-2-6-2h-27m19 14h10v4l-3 27c-1 23-2 30-3 28l-5-1c-2 0-3 0-2 1l2 1 4 1c4 0 4 0 4-3l1-21 2-29 1-9h-20l9 1m-253 8l-2 2v5l-1 4-9 2c-11 3-11 3-11 11 0 9 0 10-3 10-2 0-2 0-2 2 1 3-2 5-3 3l-5-1c-4 0-4 0-3-6l1-5-13 8c-21 14-22 14-24 13l-5-1 1-1c3-1 6-5 4-5l1-1c1-1 2-1 1-2l2-2c2 0 2 0 1-1h-4c0 1-4 6-10 11l-10 10-4-2-5-3 2 5 2 5-3 2c-6 4-7 3-3-3 2-3 2-4 1-6-1-1-2 1-8 10l-8 13c2 2 8-4 7-7s4-4 13-4l9-1 4-3 4-1-6 1h-6c-1-2-1-2 18-7l18-5 7-2 7-2-10 2c-9 1-11 1-11-1 0-3 16-5 28-4 9 0 10 0 9-1v-1h3c-1 2-1 2 2 2 6-1 7 1 3 3l-6 1h-1a8 8 0 0010 0l3-1 17-4 1 2h1l2-2 5 1c3 0 4 1 4 2h4l5-1c7 0 10-1 11-3 0-2 0-2-2-2-3 2-13 2-23 1-7-1-10 0-18 1-11 2-10 2-9 0l8-4 7-2-10 2-11 2c-2 0-1-5 2-6 2-2 3-3 3-7s-2-4-2 1c0 2-1 1-1-2 1-6 2-7 7-5s8 2 8 1c-1-1 0-1 1-1l1 1v1c1 1 2-1 3-9 0-8 1-9 4-10s4-2 3-3h-6m90 17l-13 3-15-1c-22-2-41 3-35 9l11-2c10-3 11-3 25-2 12 0 15 0 24-2l15-3 6-1-2-3-2-2-14 4m30 0c1 1-2 3-5 3l-1 1-4 32 1 3 2-17 3-17c0-1 7-2 11-1h4l-1 25-3 24h1l2-4 2-24 2-20-6-3a22 22 0 01-8-3v1m71 0c-8 1-10 2-10 4l-1 1v3l-1 5a1 1 0 101 3 100 100 0 0113-4v-13l-2 1m-130 25c0 2 0 2-3 2h-2c1 1 0 7-1 21l-3 19c1 0 5-1 4-2l5-1 6 1v-3c1-4 1-5-4-6h-5l1-5c1-9 0-9 6-9h3l-3-1h3c3 0 1-2-3-2-3 0-4-1-2-2v-1c-2 0-1-7 1-7v-1c-2 0-2 0-1-1v-2h4l5-1-2-1-6-1c-3 0-3 0-3 3m-56 6l-6 44c1 0 4-1 4-3l2-9 2-10 1-5c0-7 2-13 4-14 1 0 1-1-1-1-2-1-1-1 3-1 8 1 9 0 2-1h-11m224 9c-5 1-9 3-9 4l1 1h1l-1 3-1 3c1 3 0 3-4 4-5 1-5 2-4 4 0 1 1 2 2 1 2 0 3 1 1 2-1 1-1 1 1 1l1-2c0-1 2-3 4-3v2l3-1 4-2v1c-1 1 0 1 3 1 6-2 28-2 28-1h9c3 0 3 0 2-1h8c-2-2-19-4-34-4-18 0-22-1-14-3l4-2c0-2 2-4 4-3l2-1-5-2c-7-1-6-1 8-2l13-1h-11l-16 1m-115 18c-9 1-9 1-9 4s-7 8-8 5c0-2-4-1-4 0 0 2-3 3-5 3-4 1-1 2 4 1l5 1c0 2 0 3 2 3l1 1h2c2-2 5-3 4-1v1l3-1 2-2 1 1a2 2 0 004 0c-1-1 0-2 1-2 2 0 2 0 1 1s-1 1 1 1l2-1a4 4 0 015-1h7c6 0 7 0 6 1h5l7 1h5l2-1 1-1-14-2-20-1c-2-1-8 0-13 1h-12v-1h1c2 1 6 0 6-2 0-4 1-5 9-6l8-2c1-1 1-1 1 1a5 5 0 01-4 7l6-2c0-6 0-8 2-8 6-1-7-1-15 1m62 2l21 6c22 7 22 7 20 8l-22-6-20-6 7 3c31 9 36 11 35 13l-2 29-3 28c-1 1 4 2 18 2h37l-8-1c-3 0-4 0-3-1h2l4-50v-12h-2c-3 0-3 0-3 5l-1 11-3 45-1 1v-2l4-62-13-1c-13 0-14 0-14 2l-1 3-1-2-1-1h-2l1-1c1 0 2-2 2-6 0-5-2-6-2-1a9 9 0 01-6 5c1-1 1-1 0 0-2 2-4 2-6 1l-2-1-25-7c-9-3-13-4-10-2m-290 4l-5 1c-4 0-4 0-11 9-7 12-7 11-3 11 2 0 3-1 9-9a16 16 0 0112-11l2-1h-4m153 6c-10 2-10 2-10 6l1 5-4 1-6 2a5 5 0 008 1l1 1 3-1h2v1l2-1h4c2-2 6-3 6-1h5l7 1h7c5 1 11 0 12-1l-8-1-18-2h-13c-5 1-7-1-7-4 0-2 1-3 6-3l6-2c1-2 3 0 2 3 0 3 0 3 1 2v-8l-7 1m83 5v3l-3 2c-2 1-2 1-2-1 1-3-1-4-2-1 0 2-3 4-4 3v-2l-1-3-1 2-2 4c-3 1-3 1-2-2l-1-3-1 2-1 4c-4 3-1 4 3 1a22 22 0 0112-1l-6 1-4 2-7 53h-1l2-23c3-26 4-29 2-29l-3 8-1 5v2a73 73 0 01-3 24c1 2-1 11-3 11l-3 1c-2 1-2 1 2 1 2 0 3 0 2 1l-1 1h9l-6 2-5 1-3 1c-1 0-2 0-1-1 3-1 1-3-3-2l-4-1h-1l-3 1c-2 0-2 0 0 1 2 0 2 1-3 2h-9l5-46c1-1 0-2-1-2s-2 1-2 3l-1 4v-8h-7c-8-1-8-1-9 9l-2 12c0 3 0 3 2 3 1-1 1-1 0 0l-1 4-1 2v7l1 7h4l5 1-5 1c-4-1-6-1-7 1-2 2-3 1-3-1 3-10 6-45 5-46l-1-1-7 42-1 7 2-25 2-24v-1l1-2c1-1 0-1-5-1-4 1-5 1-5-1v-2l-2 2c0 3-3 3-3 0l-2-2-1 2v4c-2 2 0 3 2 1h3l-1 3c0 2 0 2-1 1 0-3-2-2-3 2l-1 4v3c0 4 0 4-1 2v4c0 4 0 5-1 4s-1 0-1 4v3c-1-2-1-1-1 2v4l-1 3v4l-1 2c0 5-1 7-5 7l-4 1 3-23 3-21-5-2-9-1-4 1-2 12c-1 6-2 13-1 16 0 3 0 3-1 2v3c0 4 0 5-1 4s-1-1-1 2c1 3 0 6-2 5l3-22c4-24 3-23 1-23-1 0-6 24-6 32l-1 1 2-16a274 274 0 002-22v-4l-2 2c0 3 0 3-4 3-2 1-3 0-2-2l-1-2-1 2-1 2c-1 1-2 0-1-2l-1-2-1 2-1 4c0 2 0 2 2 2h1c0 1-1 2-2 1l-1 1-2 10-4 28v7h36l15 1-7 1-6 1 4 1c5 0 5 0 4 2l-1 2c2 0-4 5-6 5-3 1-29-1-27-2s3-2 3-6c0-3 0-3 4-3h5l-5-1h-16c-4 0-6 0-5 1 2 0 2 1 1 2l1 2v3l1 1c2 1 2 1-3 1a6 6 0 00-5 3l-1-1h-2l-3 2c-2 0-2 0-1 1l3 2 1 1c0-2 7-1 7 1l-2 1h-1v2l-1 2v6c-2 0-2 2 0 3v1c-2 0-3 3-1 3v2c-2 1-2 3-1 3l1 4-1 3v1l-3 20c-2 1 6 2 26 3l20 2c3 0 3 1 5-13 2-12 2-11-2-12-2 0-2 0-2 4v6c-2 1-1 2 1 3s2 1 0 1-3 1-2 3v2l-1 2c-1 2-4 3-4 1l3-26 4-25h-11c-11-1-11-1-11 1l-4 24c0 2 0 2-2 1v-4l1-7 1-6 1-6 1-5 1-3v-2h10l13 1c3 0 3 0 2 1s-1 1 1 1c1 0 2 0 1 2l2 1c2 0 3-1 3-2 0-3 3-3 3 0v13c-1 0-2 1-2 3v7c-1 3-1 4 1 4v1l-2 1-1 3 1 4v1c-2 0-2 1-2 3v3l-1 1a17 17 0 01-4 13l51 4c3 1 4 0 5-1a1 1 0 111 1l1 1 3-1-1-1c-3 0-2-2 0-2l2-2 1-1c3-1 3 1 1 2-4 1-2 4 1 5l2-1 6-1c2 0 2 0 1-1l-3-1h-1l-3 1c-2 0-3-2 0-3h5l4-3h-1c-2 3-2 0-1-3l2-4h-3l-4 1h-1l2-2 2-1h7l5-1 1-1h-1c-6 1-12 0-11-3v-1h-2l2-1 2-1 2-1 1-1c-1-1 4-2 5-1l1 3c0 3-1 3-3 1l-3-1 3 5v-1l1-1h6l-1-2v-1c2 1 6 1 10-1h6v-4l-1-2h-4l-1 2v1h2l-4 2-4 1v-1c2-1 2-2 1-3v-4a2 2 0 00-1-2c2 0 4-3 2-4l-1-2h-2c-2 0-2 0-1-1l2-3 3-2c3-2 3-2 4 0 0 2 1 2 1 1 1-1 4 0 4 2h-1c-1-2-2-2-2 0s1 3 3 3c2 1 4 0 2-1-1-2-1-5 1-4l1 2 1 2 1-2h1v-1l-2-2c-1-1-1-1 1-1 2 1 5-4 4-6-1-1 0-1 1-1l1 2 1 1a20 20 0 014 1l1 1h-4c-4 0-4 0-3 2l1 1 3-1c1 1 3 1 4-1v-3l-2-1h-1c-2 1-4-3-3-4v-1l-1 1-2 1-2-1-1-1 1 3c1 2 0 5-1 5l-1-2c1-1 0-2-1-1l-1 2c1 1 1 1 0 0a4 4 0 00-7-1v-1c2 0 1-2-1-2h-2c0-2-7-8-8-6-1 1-2 1-3-1s-1-2 1-2h2l4-1c3 0 3 0 1 1l-1 1 1 2 1 1 3 2 2 2 1-2 1-1c1 1 1 1 1-1 1-3 0-4-1-2h-4l1 2 1 1-3-2-2-1 3-2 1-1c-1 0-2-1-2-3l1-1v2h1l2 1 2 2 1-3c0-2 0-3-2-2-2 0-2 0-1-1l2-1 1-1h2l2-1a1 1 0 012 0c-2 0-1 4 1 4v3l2-2 1-1v-4a1 1 0 10-2-2l-2-1v-1l-1-1h2c1 0 2 0 2-2l-1-3-2-1c0 1-1 1 0 0a3 3 0 00-1-3c2 2 3 1 2-2l1-3c1 0 2 1 1 3 0 2 1 3 3 2 1 0 2-2 2-5l2-24c3-25 3-26 0-26-1 0-2 1-2 9a647 647 0 01-4 36l-2 4 2-24c2-20 2-24 1-25v-2l1-8h-1m123 2c1 6 0 9-2 8-3-4-4-2-3 5 0 8-1 7 6 7l5 1v-10l2-12c0-2-1-2-4-2h-5l1 3m-259 1c-7 1-7 1-7 4 0 2 0 2 1 1l7-2c6-1 6-1 5 1 0 2-1 3-5 3l-7 2-5 1c-3 1-4 1-3 2 0 2 3 3 4 2h4l5-1v5c1 1 1 1 1-3 0-2 11-4 15-2h5l4 1 5 1c10-2 7-3-11-5-10 0-11-1-11-3l1-4 3-3h-11m193 0c-4 0-5 1-5 3v3h7c6-1 6-1 6 1l-1 5c0 2-1 2-3 2s-2 0 0-1c2 0 2 0 0-2-1-1-5 0-3 2l-1 1-1 1 4 1c6-1 5 1-2 2-10 2-9 6 1 5l7-1v-4l1-11v-8h-3l-7 1m-49 19c-1 17-2 16 4 15 8-1 9 0 9 7-2 12-2 12-5 11l-2 1 1 1v3c-1 1-1 1 1 1l2 1h-1c-3 0-5 2-3 4l2-1 2-1c2 0 2 0 0 1v2l2-2 2-1c0 3 3 3 3 0l3-22 2-26c1-3 1-4-1-4s-2 1-4 23l-2 12 1-19 2-17-9-1h-8l-1 12m-44-7c-2 0-3 1-4 4l-2 19-2 11h13s2-7 2-15l3-17c0-3-2-4-10-2m46 6l-1 9v6h12v-4c2-10 1-12-3-12l-6-1c-2 0-2 0-2 2m108 9l-1 15 2-10c0-9 1-8 1 2v7c-1-1-1 1-1 5l1 6h3c4 0 4 0 6-20v-11h-11v6m-51 34l-18 2 8 1c21-2 34-2 34-1l-23 2c-16 0-20 1-20 5 0 2 0 3 2 3 3 0 4 0 4 2h2c1-2 2-2 6-1l4-1a1 1 0 013 0l2 1 1-1 5-2c2-1 4-1 3-2l3-1h2l2-1c2 0 1-1-1-1l-4-1h4c4 0 5 0 5 3v3c-2 1 3 3 5 2h7c7-1 10-3 9-6l1-1v-1l2-2c1 0 1-1-1-1-1-1 2-1 9-1h4-60m-164 7c-7 1-7 1 6 1 7 0 11 0 9 1-3 0-3 1-4 4l-1 5c-4 2 6 3 29 3 24 0 24 0 24-2s1-2 4-2l4-1c1 0 0-3-1-2l-1-1h-1l-1-1h-1l-1 2-1 2-1-1c0-2-1-2-4-2s-4 1-4 2l-1 1-1 1h-1v-3c-2 0-2 1-2 2 1 2 0 3-2 2l-2-3c0-3 0-4-6-4s7-2 28-2l3-1-21-1h-50m182 8c-2 1-2 1 1 1 10 0-3 2-18 2-19 0-21 0-19 3h5c3 0 4 0 4 2h1c0-2 1-2 14-2 12 0 13 0 5-1-8 0-7-1 9-1l21-1-7 1-10 1h6l7 1 13 1a214 214 0 0135 2l11 2c10 1 3-1-9-3l-12-2 10 1c10 0 14-1 7-2-15-4-70-7-74-5m-319 6l-1 8c-1 4-1 4-1 1 0-2-1-1-2 6-3 13-3 13 1 13l3 1v-8l2-7h1l1-5c1-3 1-3-1-3a2 2 0 01-1-3l1-1 2-3c1-2 1-2-2-2s-4 0-3 3m240 1v4l-1 1v2c-1 1-1 1 1 1l1-2c0-3 2-3 3-1l3 2-1 2-3 2v1l1 3 1 1h-1l-1 1h-1v4h2v1c-3 2-2 3 0 3h3l2 1 2 1c0 1 2 2 2 0 0 0-1-2-3-2-2-2-2-2 2-2v-1c-2-1-2-1-1-2s-1-2-3-1l-1-1h3l2-2 3-3c3 0 4-3 1-4l-3-1c-1 1 2 3 3 2v1l-2 1-2 1c-1 1-1 1-2-1l-1-1-1-2c1-1 1-2-1-3v-1l-2-2c-2 0-3-1-3-2l-1-2c-2-1-2-1-1 1m-52 2c-6 1-6 1-2 1 7 0 8 0 7 2l1 1h3c-1-1-1-1 1-1l4 1c1 0 1 1-1 2l-3 2h-4l2-1v-1h-3c-2 1-1 3 2 4 4 1 4 3 1 3-2 0-2 0-1 1l2 4 1 2 1-1 3-1h2l2-1h2c1-1 0-1-1-1l-3-1-2-2c-2 0-2-4-1-6l5-1h4l-4-2-7-1a3 3 0 01-4-4l-7 1m-35 1l-10 1c-11-1-8 1 6 3h8l-8 1-8 1h12l-1 4-1 8-5 39c0 2-1 3-2 3-1 1-1 1 1 1 3 0 4-2 4-16l3-20 2-14v-5h18v4l-2 8-5 38c1 1 2-1 2-4a31 31 0 013-16c-1-1 0-4 1-4v-1c-1-1 0-9 2-14v-4c0-2 0-2 6-2h6l-6-1c-4 0-5-1-5-2-1-2 0-2 6-2 7-1 7-1-2-1s-9 0-6-1c5-1 5-3 0-4h-19m-33 8l2 2c2 1 2 1 0 1s-4 3-2 3l3 1-1 1-2 1c-2 1-2 1-1 2v1l-1 3v7c-3 1-1 4 2 4l2-1 4-24c0-3 0-3-3-3-2 0-3 0-3 2m258 2c0 3 0 3-1 1s-1 1-1 9v15c0 9 0 11-1 7v7c0 8 0 10-1 7v4c0 5 0 8-1 7l-1 4c0 6 6 6 6 0 0-3 0-3 1-1 0 3 1 4 4 4h3l-3-1c-3 0-3 0-3-3v-15c1 3 1 2 1-5v-7c1 1 1 1 1-1s1-3 2-3c2-1 2-1 0-1s-2 0-2-8l1-12v-4h7l7 1v24h-8l3 1h4l-1 17-1 17v1l2 2 3 1c3 0 3 0 3-6v-8l2-32-1 12-2 13 2-25 1-2 1-8v-7l-1 6-1 7v-8c1-7 0-8-1-8-2 0-2 0 0-1 1-1 1-1-2-1l-4-1h4c4 0 5 0 5 2 1 1 1 1 1-1s-1-2-13-3c-17-1-16-2-15 3m-88 3l-1 1-1 1-4 1c-4 0-4 0-4 4v3h8l11 1c3 1 3 1 3-1l1-4-3-1-5-1h-1l-2-2c0-2-2-3-2-3v1m-18 19l-2 20-2-1c-1-1-2-1-1 1l1 3v-1c0-2 0-2 1-1 2 0 4-3 3-4l1-2 1-1c-2-1 0-7 3-7 1 0 2 0 1 2l2 2c2 0 3 4 1 4v-2l-2 2-2 8 1 6h11v-5l1-16 1-11-5-1c-5-1-7 0-7 3 1 4 0 7-3 7-3-1-4-6-1-8l1-2c-3 0-2-5 1-5 2 0 2 0 0-1l-2-1v-2l2-2c1-1 1-1-1-1h-3l-1 16m246 13l1 1-1 3c-2 3-3 11 0 12s1 3-4 3h-4l1-4 2-6 1-2-2 1h-1c-2 0-3 2-2 10 0 4-1 6-2 7-4 3-5 10-6 25l1 16c2 0 2 1 2 5 0 7 2 9 8 7 4 0 4 0 4-5l-1-4c-1-1 0-15 1-16l-1-2-1 6-1 8c-2 3-3-1-3-11 0-12 1-14 3-11 3 6 5 2 5-10l1-5 1 10c0 9 0 9 2 9l2-1 3-2 3-1-2-1v-2c2-4 0-15-3-17v-3l-1-2c-1-1 0-2 1-1l1-3c0-4-2-8-3-8-1 1-1 0-1-2s-2-5-3-5l-1 1m-25 15c-2 4-1 31 0 32 3 2 3-2 3-19 0-16-1-19-3-13m-224 11c-1 15 0 14-20 11-14-1-15-1-16 4-1 2-1 2 4 2 6 1 6 0 5 10l-2 21c-1 16-2 18-4 18-1 1 1 1 5 1 3 0 5 0 3-1h-3l2-11 2-21v-11l8 1c8 0 9 1 9 2l-2 16-2 19 1 5c2 0 2-2 4-28l1-17 1-1 2 2c0 2 0 2 1 1l2-32-1 9m-202-2c0 3 8 4 28 6l15 1h6v-3c0-3 0-3-6-3l-22-2c-21-1-21-1-21 1m-20 10l-4 24 5 1c6 1 5 2 7-14l1-12-1 3c-1 4-4 5-5 3v-4c-1-6-2-7-3-1m125 8l-1 10c-1 8-2 9-3 8-4-4-13-6-25-7l-4-2-1-1c0 3-1 3-5 2a4 4 0 00-6 1c-1 1-1 1 1 1l2 1h1l1 4v5l5-1 5 1c-1 1 1 2 5 2l2 2v2l-5 1-6 1h-2c-1-2-5 0-5 3 1 3-1 4-2 2-1-3-6-2-8 1-1 2-2 2-3 1h-2l-1 2c-2 1-2 0-1-2 1-1 1-1-2-1s-4 0-4 2h-1c-2-2-14-2-15 1 0 2 0 2-2-1-2-5-5-5-8 0-2 4-3 2-1-2 3-4 16-12 17-10l5 2c3 0 3 0 2-1-1-2-1-2 1-2 1-1 1-1-1-1s-3-1-1-3h-1c-3 3-4 1-2-7 2-10 2-10-4-10l-12 2c-6 0-7 0-7 2l-3 21-3 19c-1 1 22 2 38 2 10 0 11 0 11-2a5 5 0 011-6c0-2 3-4 4-4 2 1 2 6 1 6v1l1 2c-4 2-2 4 4 4l23 1c17 2 18 2 19 0l4-2c4-1 5-5 4-14a27 27 0 00-3-13l-3-2-4-1c-1 0 0-10 2-18l-2-2m453 7c-4 1-4 5-2 7l1 2v2l-1 2v36h14v-3c0-4 0-4-2-4-8 0-8-1-8-13 0-14 0-15 4-15 3 0 5 2 5 5l1-5c1-9 0-11-4-14-4-2-5-2-8 0m-37 9l1 2 1 19v19h20v-17l1-17c1-1 1 5 1 17l1 17v-38l-2-1-11-1h-12" tabindex="-1" itemprop="bold" style="fill-opacity: 0.901; fill-rule: evenodd; fill: rgb(16, 21, 4); color: rgb(30, 241, 188);"></path></svg>