<svg id="14156667777-posters-1653239054979" itemscope="" itemtype="/posters" itemid="/+14156667777/posters/1653239054979" viewBox="0 0 640 400" preserveAspectRatio="xMidYMid slice" tabindex="0" xmlns="http://www.w3.org/2000/svg"><defs class="gradients"><g class="radial"><radialGradient id="14156667777-posters-1653239054979-radial"><stop itemprop="radial" stop-color="hsla(41, 8%, 46%, 1.00)" offset="0%"></stop><stop itemprop="radial" stop-color="hsla(42, 6%, 40%, 1.00)" offset="15%"></stop><stop itemprop="radial" stop-color="hsla(44, 11%, 39%, 1.00)" offset="30%"></stop><stop itemprop="radial" stop-color="hsla(46, 8%, 53%, 1.00)" offset="45%"></stop><stop itemprop="radial" stop-color="hsla(38, 11%, 38%, 1.00)" offset="60%"></stop><stop itemprop="radial" stop-color="hsla(36, 5%, 40%, 1.00)" offset="75%"></stop><stop itemprop="radial" stop-color="hsla(240, 1%, 58%, 1.00)" offset="90%"></stop></radialGradient><radialGradient id="14156667777-posters-1653239054979-radial-background"><stop stop-color="hsla(41, 8%, 80%, 1)" offset="0%"></stop><stop stop-color="hsla(42, 6%, 80%, 1)" offset="15%"></stop><stop stop-color="hsla(44, 11%, 80%, 1)" offset="30%"></stop><stop stop-color="hsla(46, 8%, 80%, 1)" offset="45%"></stop><stop stop-color="hsla(38, 11%, 80%, 1)" offset="60%"></stop><stop stop-color="hsla(36, 5%, 80%, 1)" offset="75%"></stop><stop stop-color="hsla(240, 1%, 80%, 1)" offset="90%"></stop></radialGradient><radialGradient id="14156667777-posters-1653239054979-radial-light"><stop stop-color="hsla(41, 8%, 66%, 1)" offset="0%"></stop><stop stop-color="hsla(42, 6%, 66%, 1)" offset="15%"></stop><stop stop-color="hsla(44, 11%, 66%, 1)" offset="30%"></stop><stop stop-color="hsla(46, 8%, 66%, 1)" offset="45%"></stop><stop stop-color="hsla(38, 11%, 66%, 1)" offset="60%"></stop><stop stop-color="hsla(36, 5%, 66%, 1)" offset="75%"></stop><stop stop-color="hsla(240, 1%, 66%, 1)" offset="90%"></stop></radialGradient><radialGradient id="14156667777-posters-1653239054979-radial-regular"><stop stop-color="hsla(41, 8%, 44%, 1)" offset="0%"></stop><stop stop-color="hsla(42, 6%, 44%, 1)" offset="15%"></stop><stop stop-color="hsla(44, 11%, 44%, 1)" offset="30%"></stop><stop stop-color="hsla(46, 8%, 44%, 1)" offset="45%"></stop><stop stop-color="hsla(38, 11%, 44%, 1)" offset="60%"></stop><stop stop-color="hsla(36, 5%, 44%, 1)" offset="75%"></stop><stop stop-color="hsla(240, 1%, 44%, 1)" offset="90%"></stop></radialGradient><radialGradient id="14156667777-posters-1653239054979-radial-bold"><stop stop-color="hsla(41, 8%, 13%, 1)" offset="0%"></stop><stop stop-color="hsla(42, 6%, 13%, 1)" offset="15%"></stop><stop stop-color="hsla(44, 11%, 13%, 1)" offset="30%"></stop><stop stop-color="hsla(46, 8%, 13%, 1)" offset="45%"></stop><stop stop-color="hsla(38, 11%, 13%, 1)" offset="60%"></stop><stop stop-color="hsla(36, 5%, 13%, 1)" offset="75%"></stop><stop stop-color="hsla(240, 1%, 13%, 1)" offset="90%"></stop></radialGradient></g><g class="vertical"><linearGradient id="14156667777-posters-1653239054979-vertical" x1="0" x2="0" y1="0" y2="100%"><stop itemprop="vertical" stop-color="hsla(43, 8%, 46%, 0.63)" offset="0%"></stop><stop itemprop="vertical" stop-color="hsla(37, 6%, 40%, 0.63)" offset="15%"></stop><stop itemprop="vertical" stop-color="hsla(44, 11%, 39%, 0.63)" offset="30%"></stop><stop itemprop="vertical" stop-color="hsla(44, 9%, 52%, 0.63)" offset="45%"></stop><stop itemprop="vertical" stop-color="hsla(38, 11%, 38%, 0.63)" offset="60%"></stop><stop itemprop="vertical" stop-color="hsla(33, 5%, 39%, 0.63)" offset="75%"></stop><stop itemprop="vertical" stop-color="hsla(260, 1%, 58%, 0.63)" offset="90%"></stop></linearGradient><linearGradient id="14156667777-posters-1653239054979-vertical-background" x1="0" x2="0" y1="0" y2="100%"><stop stop-color="hsla(43, 8%, 80%, 1)" offset="0%"></stop><stop stop-color="hsla(37, 6%, 80%, 1)" offset="15%"></stop><stop stop-color="hsla(44, 11%, 80%, 1)" offset="30%"></stop><stop stop-color="hsla(44, 9%, 80%, 1)" offset="45%"></stop><stop stop-color="hsla(38, 11%, 80%, 1)" offset="60%"></stop><stop stop-color="hsla(33, 5%, 80%, 1)" offset="75%"></stop><stop stop-color="hsla(260, 1%, 80%, 1)" offset="90%"></stop></linearGradient><linearGradient id="14156667777-posters-1653239054979-vertical-light" x1="0" x2="0" y1="0" y2="100%"><stop stop-color="hsla(43, 8%, 66%, 1)" offset="0%"></stop><stop stop-color="hsla(37, 6%, 66%, 1)" offset="15%"></stop><stop stop-color="hsla(44, 11%, 66%, 1)" offset="30%"></stop><stop stop-color="hsla(44, 9%, 66%, 1)" offset="45%"></stop><stop stop-color="hsla(38, 11%, 66%, 1)" offset="60%"></stop><stop stop-color="hsla(33, 5%, 66%, 1)" offset="75%"></stop><stop stop-color="hsla(260, 1%, 66%, 1)" offset="90%"></stop></linearGradient><linearGradient id="14156667777-posters-1653239054979-vertical-regular" x1="0" x2="0" y1="0" y2="100%"><stop stop-color="hsla(43, 8%, 44%, 1)" offset="0%"></stop><stop stop-color="hsla(37, 6%, 44%, 1)" offset="15%"></stop><stop stop-color="hsla(44, 11%, 44%, 1)" offset="30%"></stop><stop stop-color="hsla(44, 9%, 44%, 1)" offset="45%"></stop><stop stop-color="hsla(38, 11%, 44%, 1)" offset="60%"></stop><stop stop-color="hsla(33, 5%, 44%, 1)" offset="75%"></stop><stop stop-color="hsla(260, 1%, 44%, 1)" offset="90%"></stop></linearGradient><linearGradient id="14156667777-posters-1653239054979-vertical-bold" x1="0" x2="0" y1="0" y2="100%"><stop stop-color="hsla(43, 8%, 13%, 1)" offset="0%"></stop><stop stop-color="hsla(37, 6%, 13%, 1)" offset="15%"></stop><stop stop-color="hsla(44, 11%, 13%, 1)" offset="30%"></stop><stop stop-color="hsla(44, 9%, 13%, 1)" offset="45%"></stop><stop stop-color="hsla(38, 11%, 13%, 1)" offset="60%"></stop><stop stop-color="hsla(33, 5%, 13%, 1)" offset="75%"></stop><stop stop-color="hsla(260, 1%, 13%, 1)" offset="90%"></stop></linearGradient></g><g class="horizontal"><linearGradient id="14156667777-posters-1653239054979-horizontal" x1="0" x2="100%" y1="0" y2="0"><stop itemprop="horizontal" stop-color="hsla(40, 7%, 44%, 1.00)" offset="0%"></stop><stop itemprop="horizontal" stop-color="hsla(42, 10%, 41%, 1.00)" offset="15%"></stop><stop itemprop="horizontal" stop-color="hsla(43, 10%, 46%, 1.00)" offset="30%"></stop><stop itemprop="horizontal" stop-color="hsla(34, 3%, 43%, 1.00)" offset="45%"></stop><stop itemprop="horizontal" stop-color="hsla(320, 1%, 59%, 1.00)" offset="60%"></stop><stop itemprop="horizontal" stop-color="hsla(315, 2%, 52%, 1.00)" offset="75%"></stop><stop itemprop="horizontal" stop-color="hsla(33, 4%, 49%, 1.00)" offset="90%"></stop></linearGradient><linearGradient id="14156667777-posters-1653239054979-horizontal-background" x1="0" x2="100%" y1="0" y2="0"><stop stop-color="hsla(40, 7%, 80%, 1)" offset="0%"></stop><stop stop-color="hsla(42, 10%, 80%, 1)" offset="15%"></stop><stop stop-color="hsla(43, 10%, 80%, 1)" offset="30%"></stop><stop stop-color="hsla(34, 3%, 80%, 1)" offset="45%"></stop><stop stop-color="hsla(320, 1%, 80%, 1)" offset="60%"></stop><stop stop-color="hsla(315, 2%, 80%, 1)" offset="75%"></stop><stop stop-color="hsla(33, 4%, 80%, 1)" offset="90%"></stop></linearGradient><linearGradient id="14156667777-posters-1653239054979-horizontal-light" x1="0" x2="100%" y1="0" y2="0"><stop stop-color="hsla(40, 7%, 66%, 1)" offset="0%"></stop><stop stop-color="hsla(42, 10%, 66%, 1)" offset="15%"></stop><stop stop-color="hsla(43, 10%, 66%, 1)" offset="30%"></stop><stop stop-color="hsla(34, 3%, 66%, 1)" offset="45%"></stop><stop stop-color="hsla(320, 1%, 66%, 1)" offset="60%"></stop><stop stop-color="hsla(315, 2%, 66%, 1)" offset="75%"></stop><stop stop-color="hsla(33, 4%, 66%, 1)" offset="90%"></stop></linearGradient><linearGradient id="14156667777-posters-1653239054979-horizontal-regular" x1="0" x2="100%" y1="0" y2="0"><stop stop-color="hsla(40, 7%, 44%, 1)" offset="0%"></stop><stop stop-color="hsla(42, 10%, 44%, 1)" offset="15%"></stop><stop stop-color="hsla(43, 10%, 44%, 1)" offset="30%"></stop><stop stop-color="hsla(34, 3%, 44%, 1)" offset="45%"></stop><stop stop-color="hsla(320, 1%, 44%, 1)" offset="60%"></stop><stop stop-color="hsla(315, 2%, 44%, 1)" offset="75%"></stop><stop stop-color="hsla(33, 4%, 44%, 1)" offset="90%"></stop></linearGradient><linearGradient id="14156667777-posters-1653239054979-horizontal-bold" x1="0" x2="100%" y1="0" y2="0"><stop stop-color="hsla(40, 7%, 13%, 1)" offset="0%"></stop><stop stop-color="hsla(42, 10%, 13%, 1)" offset="15%"></stop><stop stop-color="hsla(43, 10%, 13%, 1)" offset="30%"></stop><stop stop-color="hsla(34, 3%, 13%, 1)" offset="45%"></stop><stop stop-color="hsla(320, 1%, 13%, 1)" offset="60%"></stop><stop stop-color="hsla(315, 2%, 13%, 1)" offset="75%"></stop><stop stop-color="hsla(33, 4%, 13%, 1)" offset="90%"></stop></linearGradient></g></defs><rect itemprop="background" fill="url(#14156667777-posters-1653239054979-radial-background)" width="100%" height="100%" tabindex="-1" id="14156667777-posters-1653239054979-background"></rect><path id="14156667777-posters-1653239054979-light" d="M0 11v10h36l-18 1H1v10c0 10 0 11 2 11l3 1-3 1c-2 1 0 1 6 1 9 0 11 1 5 2-4 0-4 1 2 1l6-1h1l5 1h5l-5-1c-4-1-4-1 3-1s13 2 7 2c-2 0-1 0 1 1l4 1h-7l3 1c3 1 1 1-5 1-7 0-9 0-6 1s3 1-2 1-5 0-2 1 3 1-3 1c-5 0-6 0-2 1 3 0 4 0 4 2v1h3l-6 1h-6l5 1 7 1c3 1 0 3-5 3-11-1-16 2-8 4l4 1h-4c-4 0-3 1 1 2 1 1-1 1-4 1s-5 0-4 1c3 0 2 2-2 3-3 0-4 2-1 2v1c-2 0-2 1-1 1v2c-1 1-1 1 1 1h3l-3 1-1 1v1c-1 1 1 1 6 1h8l-6 1c-6 1-8 2-4 2 2 0 3 1 3 2l-2 1v-1l-3-1a2 2 0 00-1 4l1-1c0-2 0-2 2-1l3 2H6l-2 2-2 1-2 2 2 1h1l-1 1c-2 1-3 43-1 46v2l-1 11 1 10 3-1 4 1 1 4 3 3 4 2 2 1 3 1c1 0 2 0 1 1l-1 1-1 1-3 1c-1 2-4 2-4 0h-2l-1 1-1 1-2-2c-1-3-4-5-6-4s-1 48 0 50v1c-3-2 0 6 3 9h4c3-2 3-2 3 0v1c-2-1-3-1-3 1s-2 1-4-1c-3-3-4-3-4 2 0 3 0 4 2 4v1c-3 0-2 13 0 14l1-1-1-1v-1h1c1 1 1 1 2-1v-4c-2 1-2 1-1-1 0-1 1-2 2-1l1-2 1-2c2 0 2 0 0 5-3 9-5 12-7 11v2a14 14 0 002 16l-1-1-1-1-1 58v57h641v-65c0-35 0-64-1-63l-2 1v-1c1-1 0-1-2-1l-3-1h3c3 0 3 0 2-1s-1-1 1-1l2 1V0H0v11m376 10l-7 1h-7l-2 1c-1 1 2 1 6 1h7l-14 1h-13l12 1c9 0 10 1 4 1-5 0-7 0-8 2l-2 1c-2 0-2 0 0-1 1-1-1-1-5-1-7 0-7 0-2 1 4 0 2 1-6 1-10 1-9 1 7 1 17 0 26-1 14-2l7-1c8 0 9 0 5 1l-5 1 2 1-21 1h-20l16 1c13 0 15 1 9 1-5 0-7 1-7 2h-2l-8-1h-6l5 1 5 1 9 1h7c-1 1 0 1 2 1h-25l9 1c8 0 8 0 3 1s-4 1 5 1c14 0 16 1 2 1h-9l7 1 8 1h-7c-11 0-6 1 8 1h14l-13 1-13 1 1 1h6c3 1 3 1-2 1-4 0-5 0-4 1v14l-1 4v3h5c6-1 13 3 13 8 0 1 1 2 3 2l4 1h-4c-2 0-3 0-3 2v7c-1 4-1 5 1 5v1c-2 0-2 1-2 4v4h9l10 1h-19l1 3 1 3v1c-2 0-2 0-1 1v6l-1 11v11h6l6 1h-6c-5 0-9 2-5 2v1l-1 8v8h7l-4 1c-2 0-3 1-2 5h8l26-1h-13c-10 0-11 0-4-1l9-1-7-1c-7 1-10 0-5-1 3-1 2-1-2-1h-4l3-2 1-2-2-1c-3-1-3-1 1-1a6 6 0 017 2v-1c-1-1 0-1 3-1l7 1v2c2 0-1 3-4 3-1 1 0 1 4 1 5 0 5 0 4-1-2-1-2-2-1-2v-1c-3 0-1-2 2-2s3 0 2 1v2l2 1 2-2-1-1-1-1-7-1c-8 0-7-1 3-1h6c-1 1-1 1 1 1l2 1 1 1 1 2 1 1c1 1 0 2-5 1h-6l16 1c9 0 14 0 13 1-2 1-2 1 0 1a4 4 0 004-1h4l4 1-12 1c-9 0-10 0-7-1l5-1h-6c-4 0-6 0-5 1 2 1-2 2-10 2-5 1-5 1 1 1 4 0 6 0 7 2 1 1 1 1-1 1h-1l3 1c1 1-2 1-6 1h-7 15l17-1h17c6 0 9 0 8 1s0 1 3 1h5l-4 1-7 1c-3 0-3 0-1-1s0-1-6-1c-7 0-8 0-2 1 4 0 5 0 4 1-2 1 0 1 5 1h7l-6 1-4 1c3 0-1 2-5 2s-4 0-1-1h-73l5-1h4l-9-1c-9 0-12 2-5 2l4 1h-4c-4 0-4 0-4 3 0 2 0 3 1 2a3 3 0 016 2l1-1c0-2 2-2 8-2l8-1h-7l-9-1a303 303 0 0166 2c5 0 7 0 5 1h5c3 0 6 0 5 1l-2 2-2 1c-2 1-1 1 2 1 4 0 7-2 3-2l2-1 1-1 5-1c6-1 6-1-4-1-11 0-25-2-20-2h11c-2 1-1 1 5 1s9-1 6-2c-1-1 4-1 11-1l7-1-5-1 6-1h5l-6-1c-3 0-4 0-3-1h2l3-1a13 13 0 014-2h-4l1-1h12l3 1c2 1 1 1-1 1-3 0-4 0-3 1s1 1-1 1c-1 1 0 1 4 1 5 0 6 0 4 1l-2 1h3l6-1c2 0 1-1-3-2l-7-1 5 1 6-1c1-1 0-1-2-1l-4-1h2l2-1-3-1c-3 0-3 0-1-1 3 0 2-2-1-1-3 0-3 0-2-1l3-1c5 0 1-1-7-2l-8-1h10c10 0 10 0 4-1-7-1-7-1 0-2 5 0 6-1 2-1l-4-1-3-1c-6 0 6-2 17-2h11l-9-1c-12-1-13-2-1-2h8l-12-1-11-1 4-1c7 0 4-1-4-1l-5-1c2 0 2-1-2-1l-4-1h10l-5-1-4-1h4l5-1 1-1c1-1 0-1-2-1-4 0-5 0-4-1h6c3 0 4 0 3-1l-10-1h-8l8-1 5-1c-3 0-3 0-1-1l1-1-1-1h4l5-1h9c1-2-1-2-18-2h-15l3-1h-2l2-1 4-1h3l-3 1c-2 1-1 2 6 2l11-1 3-2h-4c-3 0-3 0-2 1s0 1-3 1c-5 0-7-3-2-3l10-2-16 1h-6c-3-1-3-1 3-1 3 0 5 0 4-1h25l-14-2-11-1h24l-2-1 1-1c1 1 6-1 6-2l-2-1c-2 0-2 0 1-1 2-1 1-1-3-1-5 0-6 0-4-1h5l4-1 7-1h8l-7-1-9 1h-4c-1-1-1-1 1-1l3-1 6-1 12-1h-3c-7 0-9 0-8-1v-1l4-1c5-1 5-1-2-1l-8-1 2-1h3c0-2 3-4 5-4 4-1 4-3 0-3-3 0-3 0 1-1l5-1h-5c-7 0-11-2-5-2h5l-4-1c-4-1-4-1-1-1 2-1 2-1-1-1s-4 0-3-1c0-1 0-2-2-2v-1c1-1 0-1-4-1l-6 1h3l1 1v2l3 2c7 0 4 1-6 1-9 0-10 0-10-2l-1-2-2-1c1-2 0-2-6-2-4 0-7 0-6-1 3 0 2-2-1-2-2-1-2-1 2-1 6 0 5-2-1-2-5 0-7-1-2-1l3-1h-19v-1c4 1 6 0 2-1l-4-1h4c5 0 7 1 6 2l1 1 2-2-1-2h-5l-4-1h5c4 0 4 0 2-1l-2-1c2 0 0-2-2-2s-2 0 0-1c4-1 4-3-1-3h-1c3 0 3-2 0-1l-5-1c-1-1-1-1 1-1l-5-1c-8-1-13 0-11 1 1 1 1 1-1 1-1 0-2 0-1-1l-28-1-19-1c7 0 9 0 9-2l-5-1c-17-1-17-2 0-2 28 0 50 0 43-1-4 0-5-1-3-1l4-1h-23l-18 1h-1l-13-1 20-1c28 0 36-1 33-2l-6-1c-7 0-8-1 0-1h6l-5-1-4-1h4c2 0 3 0 2-1s0-1 2-1c9 0 3-1-9-1h-9c2 1 2 1-2 1-3 0-4 0-3-1s-2-1-11-1a45 45 0 00-15 1h-7l-7-1c-2-1-2-1 2-1 16 1 60 0 56-1l-5-1h4l-15-1h-19l16-1c16-1 15-1-12-1l-24-1 5-1h-13l5-1c5-1 6-1 1-1l-3-1 21-1 21-1h-20l-15-1 5-1-2-1h-6a8 8 0 01-8-1l-2 1m-144 1l3 1 2 1-2 1-5 1 1-1 2-1h-4v1l-2 1-6-2h-4l4-1-15-1a105 105 0 00-25 2l-9 1h10l12 1-4 1h-5l13 1h14l-15 1-14 1h13l13 1c-1 1 1 1 5 1h5l-15 1-2-1c-1-1-2 0-2 1 1 1 0 1-3 1l11 1 15 1h-16c-14 0-16 0-15-1 0-2-1-2-3-2l-3 1c1 1 0 2-2 1h-2l2 1c2 2 2 2-3 2l12 1 11 1c-4 0-7 0-6 1l-5 1h-4l4-1-10-1-14-1-2-2c-2-1-1-1 4-1h6l-7-1c-8-1-12 0-8 1v2c-2 0-2 0 0 1v1c-2 0-2 1-2 2l-1 1-2-2 1-2 1-1h-9l3 1c3 1 3 1 1 1l-3 1 2 1h3l-9 1c-5 0-7 0-5-1 5-1 5-2-2-2l-6-1-2-1c-2 0-3 0-2 1l3 2 4 1c1 1-2 1-6 1-6 0-8 0-6 1 2 0 2 1 1 1l6 1 8 1h-7c-11 0-8 2 4 2l11-1-2-1h-4l7-1c3 0 5 0 4 1l-2 1 2 1c1 1-6 1-16 1-17 0-18 0-9 1l7 1c-3 1-3 1 2 1 4 0 6 1 7 2l8 1h7l-6 1-4 1c1 0 2 0 1 1-1 3-1 4 3 4h5l-5 1-5 1h4l4 1-4 1 6 1 7-1-4-1h4c4 0 4 0 2-1l-3-1h3l7-3 3-3h-9c-6 0-8 0-6 1 1 1 0 1-4 1l-5-1c-1-1 0-1 15-2l9-1c-2-1-2-1 1-1 2 0 2 0-1-1l-4-1h5l5-1-3-1h-8c-5-1-4-1 3-1 9 0 14-2 11-3-1-1 5-1 14-1h16l-13 1-9 1c3 0 3 0 1 1l-1 1 2 2v1l2 2 10 1h10v-3c0-2 0-3-3-3l-2-1h2c6 0 4-4-1-4l-5-1h11l-7-1-7-1h8l11-1 4-2h-5l-5-1h2l7-1h3l-3-1c-3-1-3-1 1-1 3 0 3 0 1-1l-3-1h3c3 0 3 0-2-1l-5-1h5a9 9 0 007-2l4-4 2-4h-6c-4 0-5 0-3 1M50 25h16c27 0 29-1 6-1l-22 1m10 7l8 1h-8c-7 1-6 1 3 1 7 0 10-1 11-2l-11-1H52l8 1m308 1h15c12 0 16 0 12 1l14 1c17 0 18 0 7-1l-11-1h-37M41 36c-3 1-3 1 0 1h3l4 1c4 0 4 0-1 1l-6 1h6c5 0 7 0 6-1l1-1h2l-5-1 10-1 15-1H60l-19 1m17 3v1h2l8 1c5 0 7 0 4-1l-3-1h3c6 0 2-1-6-2-7 0-8 0-8 2m24 1c0 2-2 2-13 2-12 1-12 1 3 1h12l-2 1h-3l-4 1 4 1c4 1 4 1-1 1h-5l6 1h19l-2-1-2-1-3-2h4c2 0 3 0 1-1l-1-1-1-1-1 1-3 1v-1c1-1 0-1-3-1-4 0-4 0 2-1l7-1h-7l-7 1m318 0l-8 1 15 1c23 1 27 0 26-1l-10-1h-19a3 3 0 00-4 0m-231 4c1 1 0 1-4 1h-5 10l13-1h15c1-1-6-1-15-1-11 0-16 0-14 1m224 0a414 414 0 000 0m12 1c-23 1-23 1 9 1 18 0 31 0 30-1h-39M61 50c10 0 13 1 8 1-14 0-11 2 4 2 12 0 12 0 3 1a27 27 0 00-11 1l-3 1c-1 0-1 1 1 1 2 1 2 1-2 3l-4 2h11l7-1-2-1v-2l1-1 2-1a25 25 0 0116 2l2 1-3 1H79l5 1 5 1h-5c-5 0-5 0-3 1l-10 1H58c1 2 27 1 28 0 0-2 2-1 2 1a2 2 0 003 0h44l-8-2-8-1h5l6-1h-6l-5-1h5l5-1-10-1c-12 0-11-1 1-1h10l-28-1h-2c6 0 8-2 1-1l-1-1v-2c-1-1 1-2 9-2l-30-1c-24 0-30 1-18 1m82 2l1 1 1 1 19 1h5l-9-1-10-1c0-2-2-2-5-2-2 0-3 0-2 1m271 1l-2 1h2c2 0 2 0 1 1h37c4-1-6-2-17-1-5 0-7 0-6-1h-15m-211 7l2 4 8 1c5 1 5 1 5-2 1-6 1-6-9-6h-9l3 3m206-1l2 1 1 1 2-1 2-1v3l-11 1c-16 0-11 1 8 1l18-1-7-1 9-1 15-1h-11c-9 0-11 0-7-1l-9-1c-8 0-13 0-12 1m45 0l2 1v1l-6 1c-3 0-4 0-4 2s1 2 3 2 2 0 1-1l3-2h5l-2 1c-2 1-2 1 0 1 3 0 5-3 4-5l1-1c1-1-1-1-3-1-3 0-5 0-4 1m-21 6c0 2-1 2-5 2-5 0-5 0-2-1 2-1 0-1-5-1-7 0-8 0-3 1 4 0 4 0-3 1l17 1 18-1a13 13 0 01-9-2v1c1 1 0 1-3 1l-4-1v-1h-1m-327 1l-16 1H74l15 1 8 1c-7 0-9 2-4 2 2 1 2 1-1 1l-3-1-1-2c-3 0-1 4 2 4l-1 1-3 1h2c4 0 5 2 1 2l5 1 8 1H92c-6 0-9 0-8 1l3 1h3l-2 1c-1 1 1 1 6 1a18 18 0 0012-2c2 0 2 0 1-1-2-1-1-1 3-1h5l-5-1c-8 0-7-2 1-2h7l-5-1h-5l5-1c4 0 5-1 3-1l7-1c11 0 12-1 1-1l-7-1 2-1 9-1h-7c-5 0-6 0-5-1h3l1-1-7-1-7 1m47 4c3 1 2 1-5 1h-8l6 1c7 1 5 1-3 1l-4 1c1 1 0 1-1 1l1 1c2 1 3 1 4-1l2-1v2h5l2 1c1 1-3 1-7 1-7 0-8 0-4 1l5 1h-5c-6 0-7 2-1 3h8c-1-1 0-1 1-1l3-1h-1l-3-1c-1-1 0-1 2-1l7-2 2-3h-2l-4-1 4-1 6-1 2-2h-2l-3 1-1 1v-1l-5-1h-5l4 1m58 1c1 3 2 4 5 4 2 0 3 0 2-3 0-3-1-3-4-3s-4 0-3 2m237 5l-6 1h7l-23 1-30 1h32l36-2 4-2h-7l-13 1M65 90l2 2 2 1H57l5 1h11c-2 0-2-1-2-2 1-2 0-2-2-2-3 1-4-1-1-1 2-1 2-1-1-1-2 0-3 0-2 2m76 3l5 7 1 3 1 1 4 1h3a4 4 0 014 3l-1-1-2-1v1l-3-1-4-1-2-1c-3-2-5-2-4-1l1 4v1l6 3c3 2 4 3 2 3h-3l-2-2c3 1 2-1 0-2h-4c-2-1-1 0 1 2 3 2 3 3 2 3l-2-1-2-1v4c-1 1-3-1-5-6 0-2 0-2-1 1v7c-1 1-1 1 0 0l-1-1-1 3v8l3 2 6 3a9 9 0 016 4h1l4 1c2 0 2 0 0-1l-8-5-8-5-3-2 12 6 9 5c6 4 6 4 1 3-5 0-6 1-3 4 2 2 5 1 5-1h1c0 1 1 1 3-1l4-1h4l-4 1c-6 2-6 5-1 5 3 1 3 0 3-1v-2l1 3a2 2 0 01-3 3c-1 1-1 1 1 1 3 0 3 0 2 1s-3 1-18-4l-12-6-3-2-3 1 2 2 3 3 4 1 7 2c11 5 37 9 35 7l2-1-2-1h-7l-2 1v-1l2-1-2-1c-3 0-4 0-3-1l-1-1-1-1 6 1h2l3-1h2l2-2c1 0 2 0 1 1l-2 2c0 1 3 2 4 0h1l1-1c-1-2-1-2 1-2l5 1c3 0 4 0 3 1-2 1-2 1 0 1l2 3h1v-4c2 0 6 3 4 3l1 1h3c-1-1 0-1 2-1l6-1-1 1c-1 1-2 2-3 1l-1 1 1 1v2l1 1 1-2c1-1 1-2 2-1 2 0 2 0 1 1-2 1-1 2 2 2 2-1 2-1 1-2s0-2 3-2l5-2 4-1 3-1-3-1-9-2 5-3c3-1 5-3 5-4h2l3-2 3-1 4-2 1-2 3-3c4-4 5-7 3-6l-1 3-2 1a20 20 0 00-13 8l-1 1h-3v1c1 1 1 1-1 2l-4 3-6 4c-3 0-5 2-4 2h-7c-5 1-6 0-3-3l5-3c2 0 2 0-1-2l-3-2h2l4 2c2 0 1-2-1-3s-2-1 0 0c3 0 3 0 2-1-1-2-1-2 2-1h4l3-2c5 0 14-4 13-6 0-1 3-4 4-3l4-2 3-1h-3c-3 1-3 1-1-1l2-3 3-3 1-1 6-3 2 2 1 2v1h-1c0-1-1-1-2 1l-1 2-2 2c-2 1-2 1-1 2 2 1 3 0 4-2l1-2v2l-1 2-2 3v2l2-2 2-3 2-2 2-2 1-3v-1l1-1 3-3c0-2-1-2-5-1-2 1-2 1-2-1l1-2 1-2h-17a289 289 0 01-67-4l-27-5h-4c1 2-2 1-5-1l-4-2m-16 10l-1 4c-2 1-2 3-2 7 0 3 0 4-1 3l-2-5-2-2 2-1c2 0 3-1 1-3-3-2-6 0-6 3 0 2 0 2 1 0 2-1 2 0 0 5-2 7-2 7-3 5-1-1-1-1-1 1s-1 2-3 2l-1 1h6c4-2 5-2 5 0 1 1 1 1 3-1h2c-1 1 0 1 2 1l2-1v-1l2-1-1-1a2 2 0 011-4l-1-1-1-10-1-3c-1-2-1-2-1 2m348-3a801 801 0 000 0m-434 2l-3 1h3c2 1 2 1-1 1a3 3 0 00-4 2c-1 1-1 1 1 1l3 1h3c2 0 2 0 0-2-1-1-1-1 3-1 3 0 4 0 3 1-2 1-2 1 1 1 2 0 3 0 2-1v-1c1-1 0-1-2-1s-3 0-2-1-2-2-4-2l-3 1m237 0l-2 1-2 1-1 3c0 1 0 2 1 1l3-1 3-1-3 2-2 2h4v2c-3 2-3 4 0 4h1c-5 3-6 4-3 3l3-1-2 2c-3 1-4 2-2 4 1 0 1 1-1 1v1c3 0 2 2 0 2s-2 0 1 1l3 1h-3c-2 0-3 0-2 1 1 0-1 3-3 3v2l-1 1-2 2c-3 1-2 3 1 3h4c-2 2 4 6 5 5 3-2 2-3 0-3s-2 0-1-2c1-1 2-2 4-1h6l2 2c1 1 1 0 1-3 0-4 0-4 1-3l3 2v-1c-2 0-3-5-1-5l1 2 1 2v-6c0-4-1-5-1-3l-1 3v-2l-1-3c-1-1-1 0-1 3l-1 5-1-2v-1l-1-4c0-3 0-4 1-3l1-3v-5c-1-2-1 0-1 4l-1 2-1-2a88 88 0 00-1-9c0-4-4-10-7-10-1 0-2 0-1 1m132 2l6 1h18c12 0 5-1-13-1h-11m-11 27l-3 1-4 1-2 1h-3l3 1h3l-3 1-3 1 4 1h4l-6 2-3 1 3 1h1l2-2c2 0 3 2 0 2-1 1-1 1 1 1 1 0 2 0 1 1l1 1h2l7 3c2 0 2 0 0-1l-2-1h5l-3-1c-2-1-2-1 1-1 2-1 3-1 2-2h-2l-4-2c-1-1-3-2-4-1l-1-1v-1c-1-1-1-1 1-1l-1-2-3-1h3c3 0 4 0 5 2l1 2 1-2c-1-1 0-2 1-2l1 1c-1 1 0 1 1 1 2 0 2 0 1-1s2-1 10-1h12l-10-1a24 24 0 01-11-2v1l-3 1a4 4 0 01-5-2l-1 1m-272 1l-3 1c-3-1-6-1-9 1-5 1-7 3-3 2h2l2-1 3-1a2 2 0 013 1c-1 1-1 1 1 1l4-2c2-1 6-1 5 1-1 1 0 1 1 1l1-2-1-2-4-1-2 1m407 3c-5 0-8 0-7 1l-1 1 3 1 5 1h-6c-7 0-6 1 3 1h8c0 2-1 2-7 2l-12 1h9l14 1-4 1c-2 0-1 1 3 1 5 1 5 1 1 1s-4 0-2 1h21l-2-1v-3l-2-1c-2 0-2 0-1 1v2h-1l-4-1c-3 0-4-1-2-2v-1c-2 0-2 0-1-1s0-1-3-1c-5 0-5 0-2-1 6 0 5-2-1-2h-9c-3-1-2-1 6-1h11l-1-1h-16m-247 8a3 3 0 001 5l-1 1-2-1h-1l-7 2-7 1 5 1 7-1a8 8 0 0111 5l-1-2-1-3-1-2c-1-1-2-2-1-3l1 1 1 1c1 0 1-1-1-2l-2-3h-1m-32 9l-5 1h-2c2 0 0 2-3 2l-4 1-5 1-4 1-10 1-7 1c-1 2 14 1 23-1l10-2 1-2 2-1c3 0 6-1 6-3l-2 1m198 11l1 2c1 2 1 2-6 2-6 0-6 0-1 1 7 0 15-1 13-2-1-1 0-1 3-1h5l-6-1-7-1h-2m110 3l14 2c3 0 4 0 3 1 0 2 1 2 4 2h4l-3-1-3-2h3c2-1 1-1-2-1l-18-1h-2m-125 4l11 1 17 1-7-1c-4 0-6 0-4-1h-17m-341 1h-1l-1 1c1 1 0 1-1 2-2 0-2 0 0 1 1 1 0 1-2 1h-4l3 1 2 1c-1 0-1 1 1 1l2 1-2 2-5 1-2 1h12l-3-1c-3 0-3 0-1-1 3 0 3-1 3-3l1-6-1-3-1 1m269 2v2h18l18-1h-15l-14-1 17-1 17-1h-41v2m210 1l-2 1h2c2 0 2 0 0 1v2a5 5 0 003 0c-1 1-2 2-1 3l-2 1 1 1h3l6-1h5l-5-1c-7-1-7-2-1-2h5l-5-1c-5-1-4-1 3-2l3-2h-15m-171 3c-2 1-1 1 3 1h6l-5 1-5 1h24l14-1 7-1h-7l-7-1-1-1v1l-1 1c-4-2-6-2-6-1l2 1c1 1-2 1-6 1-7 0-8 0-3-1l6-1h-21m-343 3v1l-2 1h-2c0 1-4 2-9 2-10 1-6 2 8 2 10 0 14 0 12-1l-2-3c0-2 0-3-2-3l-3 1m123 7l-2 1-2 1h3l2 1-2 2-2 1-3 1-2 2h8l-3 2c-7 1-7 2-1 2h6l-5 2c-4 1-5 2-5 3 0 2 1 2 2 2h5l5-1h3c2 2 3 2 6 0l4-2-4-1-7-2c-3-1-3-1 3-1h6l-2-1c-3 0-5-1-5-2h3l-1-2-2-1 1-1c3 0-1-2-4-2h-2l2-1 2-1-2-1c-3-2-5-3-5-1m255 3c2 1 1 2-4 2-2 1 0 1 4 1l7 1h6c5 0 6 0 4 1l-3 1h3c5-1 3-2-4-3l-6-1h-2l-3-1 5-1c5-1 5-1-1-1-5 0-7 0-6 1m-230 1l2 3c1 2 1 2-1 2l-3-1 2 2v2c-1-1-2 0-2 5l-1 10-2 5v5l2-4 5-15 1-7c1-3 1-4-1-5l-2-2m355 5c1 0 2 1 1 2l2 1 2-1 5-1c3 0 4 0 3 1l-4 1h-2l6 1 6-1h-3l-1-1 2-1-5-1h-9l-3-1v1m-13 3l-1 2h0l-10 1a59 59 0 0025-1h4l-9-1c-8 0-8 0-6-1 1-2 1-2-1-2l-2 2m-369 9l-2 1-4 1 1 1h17l-4 1h-1l2 2h-8c-4 0-4 0-2 1h6c4-1 6 1 3 3l-3 2v6h1l3-4 2-4v-4c-1-1-1-1 1-1 1 0 2 0 2-2s0-2-5-2l-7-1h-2m-104 8c0 2 2 4 3 3l3 2 2 1 1 2 2 3c2 2 1-3-1-6-5-4-10-7-10-5m83 2c-2 2-2 2-1 4 2 2 2 2 4 0l4-1c2 0 2 0 1-2-2-3-5-3-8-1m-149 1l1 2v2l-4 2c-2 0-2 0-2 2l1 2 1 1c3-5 7-7 10-6l1 2c-2 1 2 5 4 5l1 2c-1 1 0 4 1 3v-9l-2-3-2-3-1 1c-2 2-5 0-3-2h2c0-1-1-2-3-2-5-1-5-1-5 1m136 0a3 3 0 00-3 5c1 0 2 1 1 4v5l1-3h1l4 1c4-1 7 2 3 3-2 1-2 1-1 2l1 2c0 2 3-2 3-6 1-2 1-3-1-4-2-2-2-2 0-2s4-3 3-3h-1l-1-1-7-4-3 1m277 2v1l-2 1-4 2-5 3-3 1c-3 0-10 4-8 5 1 1 0 2-2 4l-4 5 1-1c2-2 3-1 1 2s-3 7-2 7l1-1-1 5a1 1 0 102 1l1-2c2 0 2 0 0 5l-1 4a1 1 0 110 2l-2 1 1 1v2c0 2 0 1 2-1 0-2 2-3 2-3l1-2v3c0 5 2 7 4 2 1-1 1 0 1 3l1 3c3 0 4 2 3 5-1 2 0 3 2 4s2 1 2-1v-1l2-1c2-2 2-2 1 0l-2 4-1 2h1l1-1 3-1c2-3 3-2 0 2-3 3-1 6 4 7 3 0 4-1 4-2h1c0 2 4 2 7-1 4-3 25 3 22 6h2l1 1 1 2 9 1 1-1c1 0 2 1 2 3l2 2v3c0 3 0 3 1 2 2-3 3 0 1 3l-2 1c0-1-1-1-1 1l-5 3c-3 1-3 4 0 7s13 2 18-1c4-2 12-1 13 2 0 2 0 2 4 1h18l-7-7a34 34 0 00-9-7 1 1 0 00-2 0h-4c-2-1-2-2-2-3v-4c0-1-9-11-13-12-1-1-2-1-1-2l5 3 5 2 2 2a1 1 0 101-1l-1-1a32 32 0 00-6-12l-1-2v-1l2 2c3 4 5 2 5-4l-1-4v-2c0-2-1-3-3-5-3-4-4-6-1-3l3 1-6-6v1l1 1-10-7-4-2-4-2h4c4 0 4 0 1-1l-4-2-2-1h-5l-4-1-1 1c-2-2-1-4 1-3l-1-2-4-3a16 16 0 01-10-7l-3-2c-3-2-10-6-13-6l-3-2c-2-2-4-3-4-1m4 8l2 3 1 5 2 5a5 5 0 011 6h-6c-2-2-17-5-19-4-3 1-5 5-3 6 2 0 4 5 3 6l4 6 4-3c2-3 2-3 8-3 12 1 17 6 15 15l1 3a5 5 0 01-4 7l9 1c9 0 10 0 16 3 6 4 7 6 1 4-3-2-8-2-6-1a19 19 0 0012 3l2 1c2 0-2-4-5-6-2 0-3-2-2-2l-3-4c-4-5-7-11-4-10 3 0 2-1-1-2-6-4-3-5 4-2l5 2 1 1 1 1 6 4c4 3 5 3 3-1l-4-8 3 3 1 2-2-7c-1-5-8-9-12-8s-8 0-6-1c1-1 1-1-6-2-4-1-6-11-2-11 3 0 2-1-5-5-9-7-15-9-15-7m68 9c0 1 2 2 5 2l5 1h-10l4 4c4 3 7 4 5 2l1-1c2 1 2 0 2-1 0-2 0-3-3-2-2 0-3 0-1-1 2 0 7-4 6-4h-5l-4 1c-4 0-4 0-2-1 1-1 1-1-1-1s-3 0-2 1M33 250a4 4 0 001 7l2-3c3-5 3-6 1-6-2-1-3 0-4 2m182-1l3 4 3 4a2223 2223 0 0111 51l1 11 1 13 1 27 1 21h2c2 0 3 0 4-2 1-3 3-3 3-1h-2c0 3 6 3 8 0v1c0 2 0 2 3 2 4 0 4-1 3-5l-11-40-14-54c-3-10-4-13-3-15s0-3-3-7c-7-9-11-13-11-10m-162 3l1 7 1 3-2-2-2 1v3c-2 2-1 4 1 4 1 0 2 0 1 2h-1l-2-1v4c-1 1 0 1 1 1 2-1 3-1 2 1v2c-2 0 0 3 2 3l2 3 2 1c2-1 3 0 2 1h5l1-9c1-7 0-8-1-8a1 1 0 110-2v-2c0-2 0-2-1-1-1 3-3 1-5-3 0-2-1-3-2-3-2 0-2 0-2-2l-1-4c-1-2-1-2-2 1m-33 1c-1 2-2 2-2 1-1-1-1-1-2 1-3 2-2 3 1 3 2-1 2-1 2 1l-2 5c-3 3-4 5-1 4v2h4l2 2v-15a3 3 0 010-5l-2 1m194 1l-3 6-4 4c-2 0-3 1-4 4l-8 10-5 5c2 0 2 0 2 14l2 8c2 0 2 2 2 3v2c1 0 4 7 3 8l-1 1h1l3 1h1l-2-5-1-6c-1-2-1-2 3 0l4 2-3-2-2-3h3l2-3h-1l-2 1 2-3c2-1 2-3 3-8l2-10c1-3 2-5 1-8-1-5-1-5 1-1 1 4 0 9-1 10s-2 6 0 7l1-1 2-2c2 0 3 3 0 5h-1v-1l-1 2v2c-1 1 3 5 5 5 5 0 1 2-4 2-6 1-7 2-3 5 3 2 5 5 5 10l1 5c3 3 5 9 5 11v1l1 5c-1 7 2 3 3-4 1-6 2-8 2-3 0 3 0 3 1 1 2-5 3-16 1-22v-5l-4-16-2-10-5-24c-1-5-3-6-5-3m166 27a19 19 0 00-5 3h1l-3 3-1 1 1 2v2c-1 1-1 2 1 2l1 4 1 2h1l1-1 2-2v1l-1 4 1 2 2-2 3-2 6-8-1-1v-1c1-2 0-4-1-3l-1-1h-1l-1-1h-2v-2l2-3-6 1m-348 2v2c2 0 4 6 3 8l1 4v1c-1-2-2-2-2-1l-3-6c0-2-1-3-2 0-1 2-1 3 1 3l1 1 1 4-1 1c-2-1-2-1-1 1h2c1-2 3 2 4 9v3l1 6 2 6v13l-1 2h2l1-11-1-12v-7c-1 1-1 1-1-2 1-4 0-7-2-12v-3c-1-11-3-14-5-10m600 0h2l2 1-10 1c0-2-2-1-2 1-1 1 0 1 5 1h6l3 1c2 0 2 0 0 1s-3 2 0 6c2 2 2 4 2 53v51l1-57-1-58v-1h-8M8 284c-4 0-3 6 0 6l1 1 1 1 1 1 2 3 1 3-2-1-3-2-1-1-2-2-3-2H2l1 2 1 2c0 2 0 2 2 1 1-2 1-2 1 0l-1 4h1c3-3 5-1 4 2-1 5-1 6 1 3 1-3 1-3 2-1s0 5-2 5l-1 1 2 1 1 1 2 2 1 4c0 4 4 7 8 7 2 0 3 1 3 4l1 4c1 0 0-8-2-11l-2-3-1 2c0 4-2 4-3 1a4 4 0 011-4l1-1h1c0 2 2 1 3-3 1-2 1-4-1-7s-4-4-4-2l-2 1v-2c-1 0-3 2-1 3s1 4-1 3c-3 0-3-2-2-4v-9l-1-1c-1-1-1-1 1-1 3 0 5 4 2 6v1l2 1h2l4 3c3 3 3 3 3 1l-2-4-2-2-2-4-2-3-1-3a4 4 0 00-4-3h-1v3l-1-1v-1l-7-2c0-1 3-2 4-1h2c0-1-3-3-5-2m180 7c-1 6 0 11 2 12 2 0 1-6 0-16l-2 4m422 6v11c0 2 0 2 2 0 2-1 2-2 1-3s0-1 6-1c3 0 6 0 5-1l-1-1-6-1c-3 0-5 0-4-1l1-1c-2-1-2-1-1-3 1-1 1-2-1-3l1-1c1-1 1-1-1-1s-2 0-2 6m-495-2h-1l-3 2-4 2c-2 0-3 2-2 3v8l2 8c2 2 2 0 0-6l2-2c4-1 4-1 4 3l1 6 1-10a39 39 0 011-15l-1 1m275 3l-2 2c-1 0-6 7-6 10-1 2-1 2 1 1h1l-1 2v1c1 1 2 2 1 4h1c2-1 2-1 1 2l-3 3-1 2c0 1 1 1 4-2l5-5 3-4a7 7 0 015-3v-3c1-2 1-2-2-2-2 0-2 0-1-1 2-2 1-5-1-5l-2-2c1-2-3-3-3 0m-292 2l-5 2-3 2v1l2 1-1 1v2h1c1-1 1-1 1 1 0 1 0 2-1 1l-1 3 2 4 1 2v1l1-3c1-5 3-4 3 0 1 3 2 4 2 1 0-1 0-3-2-4-2-4-2-6 0-7 2 0 2 0 3-4v-5c1-2-1-2-3 1m18-1c0 7 1 12 3 10s1 2 0 5a23 23 0 000 17v3c-2 2-2 9 0 7v12l1-5 4-12c5-9 4-13 0-20l-3-6c1-2 0-5-2-8-2-5-3-5-3-3m-31 4v1l1 12 1 4 3 5 4 5 1 1 1 1v1c1 0 3 4 2 5s0 3 2 5l3 3v-3l-1-3a85 85 0 01-17-38v1m101 4c1 2 0 4-1 6-3 6-3 8-2 11 3 7 6 23 4 24v15l3 1c2 0 2 0 2-4 0-3 0-4-1-2 0 2-1 3-2 3-2 0-2-2 0-4l2-10 1-12 1-15c-1-15-1-16-5-16-3 0-3 0-2 3m52 7v20l-1 4 1-4 2-4c1-2 1-13-1-15l-1-1m155 4a35 35 0 00-6 7c-4 4-2 8 4 9l4-1c0-4 7-8 9-4l5 1c3 0 4 0 5 2 0 2 0 2 1 1 1-2 9-2 11-1 3 3 4 3 2-1-3-5-9-12-12-13l-6-3c-4-4-11-3-17 3m-286 8v4a24 24 0 01-1 13l1 2 1 3v3l-1-3c-1-2-1-2-1 0l2 3c2 1 2 1 1-2 0-4 0-4 3-4s3 0 2 4c0 4 0 4 2 3l1-8-1-10c0-2 0-2-4-2l-3 1v-5c1-4 0-5-2-2m514 0l1 3c0 3 1 4 2 4 4-2 9 11 8 17-2 4-2 13 0 14 1 1 1 2 1-10l1-5c1-1-1-10-3-13-1-3-5-5-7-4l-1-1c0-2 0-2 1-1l-1-2-2-2m-381 7v6c-2 2-3 5 0 5v2c-3 2-2 5 1 3v-8c2-3 2-7 1-9-1-1-1-1-2 1m-47 2v23l1 21 7 1h8v-6a9 9 0 00-2-7v-20c0-4-2-6-3-4-1 1-1 1-1-1-1-2-1-2-2 0-2 1-2 1-2-1 0-3-5-8-6-6m-171 2l1 1c1 1 0 1-1 1h-4c-2-2-5 1-3 2 2 2 4 3 4 1v-1h3v1h-1l-1 1 2 1 4 1h2l-2-5c-1-3-4-6-4-3m205 19v12l-1-11-2-12-4 4c1 3 0 8-1 7l-1 4v7c-1 2-1 2 1 2 2-1 4 2 3 6-1 2-1 2-1-1s-1-4-2-2v2c1 4-3 5-5 2-1-2-1-2-1 1l1 3h13v-6l1 3 2 3c2 0 2-6 0-12l-1-14c-1-14-3-12-2 2M17 346l4 1 5 2h-1c-2 0-4 2-5 5-1 2 1 3 1 0h2c2 1 0 4-2 4-1-1-1 0-1 2l1 4 3 1 2 1c-1 1 0 2 1 2l1 2c0 1-6 0-9-2-2-1-2-1-1 1v1c-1-1-2 0-3 2l-2 4v1h2l2-3c4-5 17-2 13 2l-1 2c3 1 4 1 6-1l3-1-1 1v1c2 2 2 1 1-4 0-3 0-4-3-3l-3-1 1-1v-2l-2-6c0-7-3-13-6-15-3-1-11-2-8 0m194 5l1 10c1 6 2 11 2 6l2-2c3 0 2-9 0-12l-1-2-3-3-1 3m-170 3c0 5-1 7-2 4-1-1-1-1-1 2l1 4v1l1 6c0 4 0 4 2 2 0-2 1-2 1-1 1 1 1 0 1-2l-1-3-1-9-1-8v4m310 3c-2 1-1 4 1 4l4 2c2 3 2 3 5 0 3-2 3-3 1-4-1-2-9-3-11-2m-162 11l-1 3-1 1c-1 1 0 8 2 8s2-2 2-9v-6l-2 3" itemprop="light" fill="url(#14156667777-posters-1653239054979-vertical-light)" fill-opacity="" stroke="url(#14156667777-posters-1653239054979-horizontal-background)" stroke-opacity="" fill-rule="evenodd" tabindex="-1"></path><path id="14156667777-posters-1653239054979-regular" d="M0 10l1 11 120-1h121l-2 3-5 9-6 7c-1 2-3 3-5 3-5 0-5 1-5 20l-1 18c-1 1-6-5-8-9l-2-3-4-5-7-8-4-5c-2-4-7-2-9 2l-2 2h-1l-13 13c-19 17-26 25-24 26 2 2 10 2 10 0 1-1 1-1 1 1l2 2a122 122 0 0029 5l4 1c3 1 3 0 3-1v-2l1 2h1l1-1c1 2 1 2 3 1h1c0 2 6 4 7 2 0-2 2-1 2 1s4 1 4-1h2c1 2 1 2 1 0l2-2v-1c-3-2-1-3 2-1l2 2-1 2c0 2 1 2 8 2h7V95c0-6 0-9 1-8h1c1-1 1 0 1 2v3l1-3 1-3v6l1-3c1-3 1-2 1 3a20 20 0 003 10h-3c-1 1-1 0-1-2 0-4 0-4-1-2l-1 2v-2c-1-2-1-1-1 2v4h13a101 101 0 0020-2l-3 1c-3 1-6 5-5 7 0 2 2 0 2-2l2-3 5-3c3-3 4-3 8 1 2 3 3 3 3 2l-1-2v-1l1-3c0-2 1-1 1 2 1 4 1 4 1-2 0-5 0-6-1-5s-1 1-1-1c1-4 5-5 5-1 0 3 3 3 4 0 1-1 1-1 1 1l1 2c1 0 1 1-1 1-1 2-2 2-2 0h-1l-1 1c-1-1-1 0-1 1s0 2 2 1c2 0 2 0 1 2v2c2-2 3-1 2 1-1 1-1 1 1 1 2-1 3 0 0 3-3 4-3 24 1 24v12l-1-2-1-3v5a12 12 0 006-1c-2 0-3-2-2-6v-6c-1-4 1-6 3-4v2l-1 1 2 1c1-1 1 0 1 1l-1 2h-2l2 1c1 0 2 1 2 3 0 4 1 5 2 2 1-2 1-2 0 0l1 3 1-3c0-4 1-7 3-8 2 0 3 1 3 5 0 5-1 5-2 2l-1-2v2l-1 3c-2 1-1 2 3 2 3 1 5-1 3-3-3-1-1-4 3-4l5-1 1 3-1 5v6c2 6 1 6-3 5h-9c-1 1-9 0-9-2h-1l-1 2c-4 0 0-4 4-4 5 0 5-2-1-2l-5-1-2-2c-1 0-1 1 1 3 2 5 0 8-3 3-2-1-2-3-1-3l1-2c0-1-1-1-2 1l-2 2v-3c-1-4-2-3-1 1 0 3 1 4 2 4v4c-2 1-2 1-2-1h-2l-1-1v-1l-3-1h-10l-7-1h-1l-3 1c-2 0-2 0-1-1 2-1 1-4-1-4-6 1-4-1 1-2 4-1 4-1 3 2v1l1-1 1-2v-2h-7c-2-2-2-3 0-3l1 1v1l2-1 2-2c2 0 2 0 1-1s-1-1 1-1v-2c-1-1-1-1 1-1s2 0 1-1v-2l2-3c2-2 2-2 1-5-1-2-1-3 1-2v-2c-1-2-1-3 1-3l1-1-1-1-1-1v-1c1 1 2 0 2-1l-4 1c-3 2-4 2-3 3v5l-1 2v3l-1 1-1-2c0-4-2-4-3 0a4 4 0 01-3 3l-9 7c-3 2-4 3-2 4l3 1c2-1 3-3 0-2l-1-1 3-1 2-1c0-1 1-2 2-1v1l-3 2c0 2-3 5-7 8-2 1-2 4 1 3v-1l6-3h4l-1 3c-3 4-2 5 1 5 1 0 2 0 1 1l-2 1-5 2-5 1-17 5c-10 1-12 1-35-2h-4l3 1c2 2 2 2 0 2l-4-1-1-1c1-2 0-2-1-2a3 3 0 00-2 1c0-2-5-3-6-2l2 1 2 1-2 1-4 2-2 2-1-4c-2-5-4-5-4 0v2l-1-2-1-1a1 1 0 00-2-1l-1 1-1-2c1-3 1-3-1-3l-3 1-5 1c-4-1-4-1 1-3l-15-5-4-3h-1l-1-1c1-1 1-1 0 0l-2-1-2-1-1-2c1-2 1-3-1-4l-1-1c0-2-2-2-3-1l-5 2a5 5 0 00-4 3l-1-1-1-2v1c2 1-2 3-5 3l-4-1c-3 0-3 0-2-1l1-2-2 1c-2 1-4 0-4-2l4-1a23 23 0 0016-3l1-1c0-2-2-2-4 0-2 3-7 2-7-2a5 5 0 018 0v-5l-1 1-10-1 3-1 2-1-1-1c-1-1 0-2 2-3s2-1 1-2c-2 0-2 0 0-2v-5l1-2v-2l1-3 1-1c1-3 3-2 3 1s2 2 5-1c1-2 1-2-1-2l-3 1 2-2 3-8a28 28 0 014-7v3c2 2 3 4 4 9l2 3v2c0 3 3 14 5 14l1-3c0-2 0-2 1-1l1-1v-2l-1-2-1-3c-2 0-3-2-2-2l-1-1-1-2a11 11 0 00-2-7l-2-2v-3l1 1 3 3 2 1-1-2c-3-4-3-7-1-10 2-4 1-5-2-1-1 1-2 3-1 4 0 2-3 4-4 3l3-6 2-7 1-1c1 0 2-1 2-3 1-2 2-3 4-3 3 0 3-1 0-3-3-1-1-2 2-1s2 5-1 7c-3 1-5 3-5 5 0 1 1 1 2-1l4-3c2 0 4-3 3-5v-4c0-1 0-2-1-1h-2c0-2-2-3-2-1h-3c-3 0-4 2-5 7 0 8-3 11-9 12l-8 3-12 4-5 3-5 3-4 4-2 1-4 2-10 2c-5 0-7 1-10 3l-7 4-5 1-6 2c-4 0-5 1-5 3 0 3 0 3-2 2h-1l-1-1c-1-2-1-3-7-3-6-1-11-2-12-4l-6-2-9-1-3 1 2 1c1 0 2 0 1 1v5l-1 1-2 2h1l2-1-1 2-1 2-1 1-1 16c0 15 1 20 2 18l1 7-1 6c-1-2-2 2-1 4h2l-1 2c-1 0-2 1-1 2 0 3 1 3 5 2 1-1 2 0 3 2 1 3 1 3 1-2l1-6v2l1 4v4c-2 2 2 6 6 5v2l2 1 5 1h4c2 0 2 2 0 13-1 5-3 7-4 6l-1 1c0 3-5 8-6 6l-1-2-1-4c-2-4-2-4 0-3 5 3 8-6 4-11-2-2-6-1-8 2l-3 2v16l-2-1-3-1H2l1-1 1-4c1-5 0-9-1-9l-1-2H1v11c-1 4-1 4 2 8 2 2 3 3 1 2l-3-2v1l1 1v2c-3 2-2 14 0 14 2 1 5-1 3-2-2 0 1-4 3-4 3 0 4-2 2-4-1-1-1-1-1 1H7l-2 1-2 1 1-2 4-3 4-2c1-2 2-2 3-1l3 2a5 5 0 013 3l2 2c3 3 3 3 3 6v16l-1-2c0-2 0-2-1-1v3l-2 1-2 2v1l1-1h1l-1 3c-1 1-1 1 1 1v1c-1 0-1 2 1 4v5l-1 2v3l2 2c3-1 3 3 0 9-2 4-3 4-2-1 0-1-2-2-4-1v-1l2-1h2c1-1-4-3-6-3h-1l-2-1v-3l1-1 1-1-4-1c-2 0-3-4-1-6 2-1 4 0 4 3-1 2 1 3 3 1v-3c-2 2-5-2-3-4s1-4-1-4l-2-1c0-2 3-3 3-1 1 1 4 0 4-1s-5-2-6-1h-2l-1-1-1 2 1 1 1 2H3c-1-1-1-1 0 0s1 2-1 2c-2 1-2 2-2 5a3 3 0 003 5c1 1 1 1 2-1 1-3 0-4-1-2v-4c1-2 2-3 4-3 3 0 3 1 0 6l-1 4-3 6c-3 5-5 9-3 9 1 0 2-1 1-3l1-3 4-3c2-4 4-3 4 3 1 3 0 4-1 3v1c3 4 2 5-2 1-3-3-4-3-4-1-1 2 3 9 4 7l-1-3c-2-1-2-2-1-2l3 3 1 2 2-2 2-4 1-2v6l1 2 5 6c1 0 3-3 4-7l4-6v-2l1-1 1-2h1c1 1 1 1 1-1-1-2-1-3 1-3 1-1 2-1 2-3-1-1 0-4 1-5l1-4c1-2 4-2 4 0h-1c-2-1-2 0-2 2v5l-2 6c-3 7-4 12-2 10l1-1 1 2a1 1 0 110 2c-2-1 3 29 5 30v16a93 93 0 012 21l1 2 1 3 2 5-1 2h-1c0 1 1 2 2 1 2 0 2 0 0 6-2 7-5 13-6 13l-1-2-1-2c-1-1-1 0-1 1 0 3-1 4-3 2h-2a6 6 0 01-10-2c0 2-1 2-6 2h-7c-3 0-4 0-4-2l-1-1 1-3a11 11 0 00-2-12l2 1c2 2 2 3 2 9v6l3-1 1-1v-1a7 7 0 003-6h-1l-1-2v-11l2-5 2-2v7l1-3c-1-1 0-2 1-4 2-1 2-1-1-1h-3c-2 0-1-1 1-3v-1h-2l-1-1a2 2 0 110-2l-3-1-3-2h2c2 1 2 1 2-1l2-1 1-1v-4c2 0 3 3 2 5h1c1-2 1-3-1-5-2-1-2-2-1-2s1-1-1-1c-1-2-1-2 1-2 3 0-1-2-4-2-5 0-5 0-3 2l1 3-2 5-3 5v4l2 2-5-4v-2h2a2 2 0 10-3 3l2 2c1 2 1 2-1 1l-2-2v58h641v-37l-1-37c-4 1-5 0-5-4 0-2 0-3-1-1-1 4-4 1-4-4v-3l1 3 1 4v-5c0-2 0-4-1-3l-1-2c0-1 0-2 1-1h2l1 2v3c0 1 1 1 1-1 1-2 1-1 1 4 1 6 2 7 3 7 2-1 2-26 0-28-1-1-1-1-1 1s0 2-1 1v-3c1-1 0-2-1-3-1-2-4-3-4-1h2a1 1 0 110 2l-2 1 1 1 1 4v5l-1-4c0-3-1-4-2-4v4c1 2 1 2-1 1-2 0-3 1-5 3-3 3-3 4-3 9l1 6 1 1v3-1l-1-1-1 2c0 2 3 6 5 6l6 8 1 2 1 2v3c1 1 1 0 1-1l1-3c1 0 2 1 1 5l1 4 1 3-1 2h-1l1 3v7c1 2 1 7-1 9l-2 1-1-2v-1c1-1 1-4-1-5v-2l2-6v-5l-2 3v4l-1 4c-1 2-2 4-1 5v2c-1 0-2-1-1-4 0-5-2-7-5-4h-2l2-3c4-3 4-5 4-10l1-2 1-2-2-7c-2-7-3-7-6-6-2 0-3 0-2-1l-1-5c-2-1-2-2-1-3v-9l-1 3v4l-3-2c-2-2-3-3-2-4 1-2 1-2 1 0-1 1 0 2 1 2h1c1 1 1 0 1-1l1-3 1-3c-1-1-1-1-3 1-1 1-1 1-1-1v-3l-1 3c0 2 0 2-1 1-1-2-1-2-1 1-1 2-1 2-1-1 1-3 0-4-1-3-2 0-2-1-2-4 0-4 0-4-1-2-1 1-1 1-1-1 0-3 0-3-1-1s-1 2-1-2c0-2 0-4 1-3 1 4 3 2 3-3 1-5-1-6-5-6-2 0-3 0-2-1v-15c0-13 0-14 3-16 1-2 2-3 1-4v-1l-2-2-1-3 1 1h1l1 1c-1 2 3 5 3 3h4l-2-2c-4-2-7-8-7-12l-1-3-1 5c0 3-3 5-7 3l-3-1c1 1 0 3-2 5l-2 2-3-3c-4-4-8-5-10-3-1 1-2 2-3 1h-2c-1 2 2 3 6 2 4 0 4 0 5 2 0 2 1 3 2 3l-1 1v2l-2 1c-3 2-5 1-5-1s-2-3-3-1c-1 1 3 5 5 5l1 1c-1 1 0 1 2 1l3-1c-1-2 5-2 9 0l6 2c2 0 2 1 2 14 0 11 0 13-2 13l-1-3v-3l-1 2c0 3-3 1-4-3l-2-6-1-2v-1c-3 0-3 3-1 8 3 8 3 12 2 12l-1-1c1-2-2-4-5-4l-2-1h-1c-1 1-1 0-1-4l-1-5c-1-1-1 0-1 2l-1 3-1 1c-1 3-3 3-4 0-1-2-1-2 1-3 3 0 3-1 0-4-1-2-2-4-1-5l-2-13-5-21-3-12-1 2c2 10 2 42 0 42-1 1 0 1 1 1 3-1 3-1 3 4l1 7c1 4 1 4-1 4l-2-2-1-2-1 2c0 3-1 2-3-1l-1-2-1 2-2 2v-2c0-2 1-3 2-3l1-3-2-9a3 3 0 00-1 5l-1 6c0 6-2 6-5-2l-3-9-4-11-4-8v-8l-1-3v-16l-1-3-1-4v-2c-1 0-3 9-4 22a112 112 0 01-9 37 8 8 0 01-3 5v2l-2 4c-2 3-3 1-3-4l-1-4-1 4-1 4c-1-1 0-23 1-25l2-2 2-2c1-1 2-4 0-4l-1 1-2 1c-2 0-3 0-2-5l-1-6-1 6c0 5 0 5-3 5l-2-1-3-3c-2-2-2-2-1 0l2 3h-1l-4-3 1 5-1 4c0 2 0 2-2 1h-8l-3 1h1l2 1 3 1 4 2 5 2 3 1h-1l-3 3c-2 3-1 4 1 3l5-2a2 2 0 003-3v-3l1-2v14c0 9-1 10-2 12l-1 2-1 2v3l-1 2c-2 2-2 3-2 5 1 3 0 4-2 1h-1l2 2 2 5c0 2 0 3 3 3h5l2 2 1 1 2 1 1 2h2v3c0 2 2 1 2-1h1v1c0 1 2 4 4 4l1 1c0 2-1 2-3 1h-16c-5 1-5 1-5-1-1-4-8-4-13-1l-5 2c-2-1-10 1-11 3v-1c1-2 1-2-2-4-5-3-5-4 2-9 3-2 4-6 3-12-1-3-3-4-3-2h-2a54 54 0 00-12-3l-2-3-3-3c-1 0 0 2 2 3 2 3 3 4 1 4h-3l-2 1c-3 0-3 2-3 6 0 3 0 4-2 4l1 1 2 1h-4l2 1c1 1 1 1-3 1h-4l4 1c3 0 4 1 2 1h-2l2 1 1 1h-2l2 1c1 1 1 1-2 1-2 0-3 0-2-1l-2-1c-2 0-2-1-2-3l-2-1c-2 0-3 1-1 3h-3c-3 0-4 0-2 1l3 1h-3c-2 1-2 1 0 1 3 0 3 3 0 3-3 1-4 6-2 9 3 4 2 5-1 2l-4-2-8 1-5-1-4-1c1 2-5 0-7-2-1-1-1-1-1 1 1 2 0 3-1 2l-2 1c1 1-2 2-6 1-6-1-7-7-2-11v-1l-4 3-2 2 1-9v-2l-1-1-1-2v-2c1-1 1-1-1-1v-4c-2 3-3 2-2-2l-1-3c-3 2-7-12-5-15l1-2-2 2c-3 4-6 3-6-3l1-5v-1c-1-1 0-1 4-1l6-1h-6c-4 0-5 0-5-2a8 8 0 011-7c-1 0-2-12 0-14v-5c-3-6-3-22 0-25 1-2 1-2-1-5-1-2-2-4-1-39a382 382 0 00-2-39l1-4a2 2 0 000-3v-10l1-3v-4c-2-1-2-1 0-2v-12l-1-4v-1l1-9c0-11 0-11-2-11l-2-1-4-2c-8 0-9-1-9-5l-1-3v-8a9 9 0 00-2-11c0-2-3-4-7-4s-4-1-9-10l-6-11a2394 2394 0 01133 1l2 1-3 1h-4l6 1h6l-4 1-3 2h7l7 1h-8c-8 0-11 2-3 2h10c5 0 5 0 2 1-3 0-4 1-2 1s2 0 1 1-1 1 1 1l3-1 5-1c4 0 4 0 2 1l-2 2h1l1 1c-1 2 2 3 4 1h6c5 0 5 0 3 1-3 1-3 1 1 1s4 0 2 1-2 1 2 1h5l-5 1c-4 1-4 1 3 1 4 0 6 0 5-1-2 0-2-1-1-1 2 0-1-3-4-3l3-1c4-1 5-1 7 1 2 3 4 4 8 1h2v2l2-1h8l4-1c3 0 3 0 2-1s0-1 5-1c8 0 9 0 7-1-1-1 0-1 3-1 2 0 4 0 2 1-2 0-2 0 0 2l4 3h-1c-5 0-7-1-5-2l-3-1-4 1 1 2 5 1c3 0 5 0 4 1l1 1 10-2c6 0 7 0 5-1l-2-1 3-1 3-1h-4c-3 0-3 0-2-1a5 5 0 018 2v2c-2 1-2 1 3 1 4 0 4 0 1 1-6 1-6 2 0 2s7 1 1 1l-5 1c-1 1-1 1 0 0l5 1 3 1h-4a7 7 0 01-8-3l1-1c1-1 1-1-1-1-3-2-14 0-11 1 1 1 1 1-2 1-2-1-3 0-2 1l2 1h5l-1 1-2 1h2l1 1-3 1-4 1c-2 1-2 1-1-1 0-3 0-3-3-3h-2l3-1 3-1h-3c-5-2-6-2-3-2 2 0 2 0 1-1a3 3 0 00-5 1v4l1 1h-5c-7 0-8-1-2-1h5l-4-1c-3-1-3-1-2-2l1-2 1-2-3-1h-5l-4 1-2 1h2c2 0 3 0 2 2 0 2-1 2-1 1l-3-1c-2 0 1 3 4 3 1 1 1 1-1 1h-3l3 1 3 1h-2c-2 0-2 0-1 1l5 1c3 0 3 0 1-1s-2-1 0-1l5 2-2 1h-3c-7 0-3 2 5 2 9 1 11 2 10 3l3 1c1 0 2 0 1 1-2 0-3 2-1 4l1 1-2-1c-1-1-6-2-14-2-11-1-21-3-16-3 2 0 2-3 0-3l1-1c1-1 0-1-4-1-3 0-5 0-4-1l-1-2c-2-1-2-1-1 1 0 2 0 2-3 2h-3l-2 1c-2 0-2 0-1 2 1 1 1 1-1 1a2 2 0 101 3h4l-3 1-2 1c3 0 1 2-2 2-2 1-2 1 1 1l6 1 2 2h-3c-3 0-6 1-2 1l-1 1-2 1h5l-3 1h5c9 0 13-1 8-2l-3-1h3l4 1 2 1c2 1 1 1-1 1h-3l2 2 4 1a3 3 0 013 2c-2 2 1 6 3 6s2 0 1-1v-2c2 0 2 0 1-1s-1-1 1-1l2 1c-1 1 1 2 3 1v-1l-2-1-3-1h-2l2-1c2-1 2-1-2-1s-5-2-1-2c2 0 1-1-1-1l-2-1c3 0 4-2 1-2-1-1-1-1 1-1h3l-3-1h13c3 0 3 0 1 1-1 1-1 1 1 1s2 0 0 1c-3 2-3 2 2 2h12c6-1 4-1-4-1l-3-1 8-1h9l-7-1h-7l6-1 6-1h-7c-6 0-6 0-2-1l5-1h5c4 0 4 0 3 1l-1 1c2 0 2 1 2 3-1 2-1 2 7 2l12 1h-10l-16 1-2 1h6c1 1 1 1-1 1s-3 0-2 2l-1 2-1-1a3 3 0 00-4-1l-1 1-2-1-1-1c-1-1-1-1 2-1 8 0 3-1-7-2-9 0-10 1-1 2 2 0 2 0-1 1l-4 1h8l1 1 5 1c3 0 4 0 3 1s-1 1 1 1h3l-2 1 3 1c3 1 3 1 1 1-8 0-5 2 3 1 5 0 8 0 7 1l-1 1h2v1c-2 1-21 2-22 1l4-1 9-1c4-1 2-1-6-1s-10 1-10 2c1 1 2 2 6 2l3 1h-4l-3 1c-1 1 1 1 4 1 5 0 5 0 2 1l-3 1 3 1 4 1h-3c-2 0-3 0-2 1 3 0 2 2-1 2h-2l3 1c2 1 2 1-2 1-5 0-6-3-2-4 1-1 0-1-2-1l-4-1v-4l-1-1v-1c2-2 1-3-1-3l-2 2-3 1c-5 0-5 3 0 3h4l-5 1c-5 1-6 2-2 2 2 0 2 0-1 1-4 1-3 1 4 1h9l-10 1-10 1h9c8 0 10 0 10 2h14c6 0 6 0 2-1s-4-1 2-1l7-1h4c3 0 3 0 2-1s-1-1 1-1h3l-3-1h-9l-7-1 5-1a196 196 0 0014 0c-4 1-2 2 2 2 2 0 1 0-1 1-3 1-3 1-2 2 4 3 0 4-11 4-19 1-23 1-20 2l1 1 1 1 2-1h11l8-1c10-1 12-2 12-3-1-1 4-3 5-2l-1 1-3 1h5c1-2 10-2 10-1h-2l-5 1c-1 1-1 1 1 1h4c2 1 2 1 0 1-3 0-3 0 0 1 3 0 2 1-5 1h-18l17 2h3c0 2 1 2 5 2h5l-7 1c-3 0-6 0-5 1 4 1-1 3-7 3h-5l4-1c5-1 6-2 3-2-2 0-2 0 1-1l3-1h-9l-2-1-5-1-6 1h5l5 1c1 1-1 1-9 1h-9l7 1c6 0 7 1 6 2-2 3-1 3 9 2a12 12 0 0111 2h6c5 0 5 0 3 1-3 1-3 1 1 1l4 1-2 1-5-1a2 2 0 01-3-2l-1 2 5 1c2 0 4 0 3 1l-1 1h-4l-3 1h4l5-1h3c1 1 1 1-1 1-3 0-3 0 1 1l2 1c-3 0-2 2 1 2s5-2 3-2c-1 0-1-1 1-1v-1l-2-1c1-1 0-2-1-2h4l10 1 4 1h-5c-7 0-7 0-1 1l6 1h-6c-6 0-10 2-4 2 7 0 10 0 7 1-2 1-2 1 0 1l2 1-13 1-14 1h9l10 1-10 1c-11-1-11 0 1 1 8 1 8 1-2 1h-10l2 1h-1l-2 1 4 1c2 0 3 0 2-1h14l4 1h-8c-6 0-8 0-5 1h5l2 1c1 1 0 1-3 1l-5 1c0 1-1 1-3-1l-6-1c-6 0-6 1 0 1 4 0 5 0 2 1-6 0-5 2 1 2l-6 1c-14 0-14 1 0 1l11 1 2 1h-9c-7 0-8 0-3 1l8 1-3 1h-5c-3 0-1 1 5 1l10 1-4-1h-3l3-1c3 0 3-1 3-3 0-3 0-3 2-3 3 0 2-1-1-1-5-1-3-2 1-2s4 0 4 3c0 2-1 3-2 3-2 0-2 0-1 1 2 0 3 2 1 2-1 1 0 1 1 1 2 0 2 0 0 1l-3 1 3 1 4 1h-4l-5-1v1c1 1 2 2 5 2h3l-7 1c-4 0-3 1 4 1 6 0 10 0 9-1-2 0-1-2 2-3 1-1 1-1-1-1a1 1 0 11-1-2h4l-3-1c-3-1-2-1 1-1l1-3v-5l1-15v-15h-10l-9-1h9l10-1-10-1h-9l9-1c12 0 11-2-2-2-14 0-14-1 0-1 9 0 10 0 4-1l-8-1c0-1 6-2 10-1l2-1v-1l1 1 1 1v-4c2 0 1-7-1-8l-2-1h2l2-1-2-1h-4l1-1h1l-1-1 2-1-8-1c-15 0-15-1-1-1l12-1-1-1v-1a90 90 0 000-31c2-1 1-7-2-7l-2 1h-4c0-2 2-2 6-2h3V33l1-23V0H0v10m591 11l-5 1c3 0 3 2-1 3h2l4 1v1a2 2 0 103 3l-1-1v-1l2-1 1 1c-1 1 5 2 10 1l4-1h-5l-5-1c0-1 1-1 15 1l4-1 1-1h-3c-3 0-4 0-3-1l3-1 3-1h1l-11-1a31 31 0 01-10-2l-9 1m-30 4c0 1 2 2 6 2l5 1h-5l-5 1h5c8 0 7-2-1-3-2-1 0-1 4-1h8l-5-1c-9-1-12-1-12 1m-74 1l8 1c1 1-1 2-6 1h-6a46 46 0 0015 1c-1-1-1-1 1-1s2 0-1-2l-12-1h-7l8 1m135 1c1 1-2 2-7 2-9 0-9 2 0 2h9l-8 1c-7 0-12 2-8 3v2l1 2v2l1 1 2-1c0-2 1-2 4-2 4 0 13-3 9-3l-3-1 3-1h2c-3-3-5-5-3-5h1v-2l-1-1-2 1m-137 5l2 1h-4l2 1 2 1h-2l7 1 11 1 2-1v-1c-8 1-12 0-12-1 1-2-1-3-6-3-4 0-4 0-2 1m-32 11l3 2c3 1 3 1-2 1s-5 0 2 1c9 1 13 0 9-2h-2l3-1c2-1 0-1-5-1h-8m46 3c0 2-1 2-4 2l-6 1c-2 1-2 1 0 1h2l2 1 2 1a1 1 0 003 0l6-1h6l-9-1c-8 0-8 0-2-1 5 0 7-1 7-2 1-1 0-1-1-1l-4-1-2 1m115 24c1 1-1 1-5 1l-12 2-5 1h7c5 0 6 0 2 1h-4l3 2c2 1 2 1-5 1-9 0-9 1 0 1a8 8 0 017 2v1l-1 1c3 0 2 2 0 2-1 1 1 1 6 1a21 21 0 0110 0h2l-2-2-5-1v-1c2 0 3-4 2-4v-2c1-1 1-1-1-1l-2-1c-1-2 0-2 2-2l2 1v1l2-1 4-1c3-1 3-1-1-1s-4 0-2-1 2-1-2-1c-3 0-4 0-2 1M275 86h-10v8c0 8 0 8 1 4l1-5v4c0 4 0 4 2 4l4-2 2-2h-1c-2 2-2 2-2-1v-3l-1 3-1 2c0-2 0-2-1 0s-1 1-1-3c0-5 0-6 1-5l1 1h1c1 1 1 1 1-1s0-2 2 1c1 3 3 5 3 3l-1-1-1-3c0-2 0-2 1 0 1 1 1 1 1-1 1-3 0-4-2-3m26 2c0 2 0 2-1 0l-1-1h-1c-1-1-1-1-1 1l1 2c1-2 3 2 3 6 0 5 0 5 2 4l2-1v-2l-1-7v-4l-1 4v4l-1-5c-1-4-1-4-1-1m19-2l-1 5v5l1-5 1-5v6c0 5 0 6-1 5h-2v-7l-1-4c-2 0-2 1-2 5l1 4 1 1c-1 1 0 2 1 3h2l1 2c1 1 1-1 1-5 0-7 0-7 1-2 0 3 0 4 1 3 1-2 1-2 1 0l-1 2c-2 0-1 5 1 7l2 3 1-2c1-4 1-4 1 2 0 3 0 5-1 4l-1-1c-1 2 0 3 2 3l1-4 1-3v4c0 3 0 3 1 2 1-2 1-2 1 1s0 3-2 2c-3-1-3-1-3 1s5 4 6 2c1-1 1 1 1 5l1 6v-2l1-1h2v2l-2 5c0 4 0 4 1 2s1-2 1 1c-1 2 0 3 1 2l1 1c-1 5 0 9 2 9l1-6-1-13c0-5 0-6-1-4s-1 0-1-5 0-7-1-6l-1-3c1-2 0-3-1-3l-2-2-3-2-1-3c0-1 0-2 1-1 0 2 2 3 2 1l-2-4v-2l4-1h-2c-2 0-3-2-1-2v-1l-1-1-2-2c-1 0-2 1-2 3l1 2h1c1 1-1 2-2 2l-1-4c0-4 1-4 4-4l3-1c0-1-2-2-6-2h-9m-69 1l1 2h2l1 3c0 1 0 2-1 1 0-3-2-2-2 0l1 2 2 1c1 0 2-1 2-3 1-2 1-2 2-1s1 0 1-2c0-4 0-4-1-2l-1 1c0-1-1-2-3-2h-4m354 4h5c6 0 6 2 1 2-3 0-4 0-2 1 4 0 7 4 4 4-1 1 0 1 4 1 6 0 9-1 5-2-2-1-3-3-1-3l1-2c0-2-1-2-9-2l-8 1m-31 3c1 1 1 1-2 1-1 1 1 1 6 1l5-1c-3 0-1-1 4-1 7-1 7-1-3-1-7 0-11 0-10 1m-444 17v17l3 12h1l2-1c4-1 5-1 5-3s0-2-1-1l-3 2v-2l1-2h-4a24 24 0 011-22v-1c-1 3-2-2-1-4l-1-2-1-4c1-3 0-4-1-4s-2 2-1 15M20 127l1 15v-20c-1-7-1-6-1 5m295 0c0 6 0 8 2 8h2c0-1 1-2 2-1l1-1c0-1-1-2-3-2s-3 0-2-3l1-3c2 0 5 2 5 4 0 3 1 0 2-4 0-3 0-3-1-2-1 2-7 0-7-2h1c1 1 4 1 4-1l-1-1h-3l-3-1v9m260-5c13 1 15 2 3 2h-9l15 1a246 246 0 0118 0l1-2c2 0 2-1 1-1l-2 1c-2 1-14 1-14-1l-12-1h-12l11 1m-3 5c-1 1 4 1 13 1l14-1h-27m6 6h12l12 1-9 1c-4 0-7 0-6 1h15l1-1v-2h-25m-336 6l-3 2a20 20 0 00-10 6l6-3 8-2-3 1-2 2 6-2 2-2c-2 0-3-1-2-3 0-2-1-1-2 1m333 0l-4 1 5-1h15l10-1c-2-1-20-1-26 1m6 2l5 1 13 1-2 2c-1 1 0 1 3 1 5 0 5 0 3-2l-3-1h3c5 0 6-2 1-2l-14-1-9 1m-252 3l-1 3v27l1 20a2 2 0 010 3v4c0 4 0 5 2 5 1 1 1 0 1-3-1-6 0-13 1-11h1v-2l1 2c1 1 1 1 1-1 1-2 1-2 4-1s5-1 4-3v-1a1 1 0 000-2l-1-6v-5l-1 5a9 9 0 01-2 6l1 1h1l-1 1-2 1h-2l-2-1c-1 1-1 0-1-4v-5l-1 4-1 4v-15l-1-15c-2 0-2 0-1-1v-7c0-4-1-5-1-3m254 0c-1 1 0 1 1 1h3l-1 1 1 2c1 1 1 2-3 2l-4 1h5a7 7 0 007-2l1-1h1l7 1c9-1 9-1 1-2-7 0-10-2-6-3 1-1-2-1-5-1l-8 1m-443 15c-6 2-6 2-6 6l-1 5h1c1-1 1-1 1 1l-1 3c-3-1-3 6 0 8 1 1 1 1 0 0v1h3c3-2 4-4 1-4h-4c-1 1-1 1-1-1l2-2 1-5 1-4c2-1 3 0 1 2-1 1 0 4 2 4a2 2 0 012 2l-1 2h1c3-2 3-1 1 1a4 4 0 005 7l-1-6-1-6v-1c2-1 0-4-3-4l-3-1 1-1c3 1 7 0 7-1l-5-1c-4 0-3 0 3-2 2-1 2-2 1-4l-7 1m162 0c0 2 0 2 1 1h1l7 1c7-1 7-1 7 2 1 3 3 4 4 2s0-2-1-2l-2-2 1-2a1 1 0 100-2l-2 1h-8c0-1-1-1-1 1h-1c0-3-6-2-6 0m-287 4c1 4 1 5 2 2l2-2-1 4c-3 4-2 5 0 2l2-2v5l1-6-1-5h-1c-2-2-4-1-4 2m195 1l1 1c1-1 1 0 0 0l1 2 1 2-1 1-1 3c0 2-1 3-2 3v9c1 1 0 6-1 6a1 1 0 00-1 1l2 2c1 2 1 2-1 1l-2 1v7l-1 4c1 1-1 7-2 10v4c0 3 0 3 2 1l1-3 2-5 2-7c0-2 0-3 1-2 2 0 2 1 0 5-1 3 0 4 3 4l2 1c-1 1 1 1 7 1l3 1-2 1-2 2-1 3v-3l-1-2-1 1-1 5c-2 3-2 5-1 5l1-3c0-3 1-2 3 1v4c-1 1-1 1-1-1v-3l-1 2-3 3c-1 1 0 1 3 1h4v-6c0-6 2-9 5-9 2-1 2-2 1-3v-1c3 0 7-10 7-17l1-4c0 4 3 2 3-3l1-2 1-3c0-3 0-3 1-2s1 1 1-1l1-3c2-1 3-7 2-7l-1 1c0 2-4 5-7 6-5 2-6 5-6 8 0 2 0 3-1 2h-1c-2 0-5-6-6-12 0-3-1-4-3-4-3-1-3-1-3-6 0-4 0-4-3-4h-4c-2-1-2-1-2 1m95-1l-4 1h-1l-1-1-1 2 2 1 2-1h1a13 13 0 0012 0l1 1 1-2c-1-2-5-2-6 0l-1-1-1-1-4 1m-228 3c-3 1-4 3-6 6-2 4-3 5-7 6a27 27 0 00-10 5l-2 1h-7l-2 1c-2-1-5 3-3 3 1 1 0 1-2 2-2 0-3 1-4 6-2 6-2 9 0 6 1-1 3-1 3 1a16 16 0 009 9v1c0 1 6-3 6-5l-1-1v-2l-1-3c-2-3-3-7-1-7l1-1c1-3 7-5 11-4 3 1 3 1-1 1s-6 1-7 2c-2 2-3 7-1 7l1-1h1l1 2v3h-1l-1 1 1 4 1 1 1-2c-1-1 0-2 2-1 2 0 5-3 4-5l1-1c1 1 6-8 7-13v-1l-1-1c1-1 0-1-1-2-3-1-2-3 2-4 4 0 5-1 4-3-1-1 0-5 2-5l1-3c1-2 1-2 3-1s3 0 3-1-3-2-6-1m112 7c0 4 0 4-1 2l-1-1-1-1c-1-2-1-2-1 1l-2 6c-2 2-1 5 2 4l1 1-3 1c-3 0-3 1-3 3l-2 2c-1-1-3 1-1 2 1 1 1 1-1 1l-1 2-1 1v1l-1 1-2 1h3c3 0 3 0 2 2-2 2-3 8-1 6v4c1 0 1 1-1 1l-2 1h2c3 0 3 0 2 3l-1 3 2 1 1 6c0 5 4 9 5 4v-2l-1 1h-1c-1-1 1-4 3-3 1 1 6-3 6-5l2-4 3-6 3-3c3-1 4-2 1-12v-9c1-2 0-2-5-2s-6-1-6-3c-1-5 3-6 4-1 1 2 1 2 2 1h1c0 1 1 2 3 2s2 0 2-6c0-5 0-5-1-2l-1 4c-1 1-4-2-4-4s0-2 1 0 1 1 1-3c0-6 0-6-2-6-3 0-3 0-3 4v5l-1-5-1-4v5m-98-3l-1 1-4 4-2 4h3l3 1c1 1-1 3-4 3-4 0-2 2 3 2 8 1 8 1 8-8 0-8 0-8-3-8l-3 1m122 1c-1 3-1 12 1 12 1 1 1 0 1-5l1-5 1 2c-1 1 0 3 1 5s1 2 1 0 2-4 4-2c1 1 1 1 1-1 0-1 0-2-2-1l-2-1-5-6-2 2m-12 7c0 8 0 8 2 8s2 0-1 1-4 3-2 5l2-1 3-2c4-1 4-5 0-4h-3v-15l-1 8m-91-2l-1 3-1 1c0 4 0 6-1 4h-2c-1-1-1-1-1 1l-2 2c-2 0-3 0-2 2v3l-2-3c-2-2-10-4-10-2l-1 1-2-1-2-1c-2-1-4 1-5 9l-1 3c0-5-3-1-4 5v3l2-3c2-4 4-2 4 7l1 5h-1c-3 0-5 3-5 8 1 2 1 2 1-1 0-5 1-5 4 0a3 3 0 006 1v3c-1 1 0 1 1 2 2 1 3 1 3-3l1-3 1-3c0-2 0-2-1 0-2 2-8 0-7-3s0-9-1-11c-2-2-2-2 0-2l2 2c2 7 6 7 7 0l1-6c1-2 0-6-2-6l-1 1 1 1a3 3 0 11-4 2l-3-1c-2 0-2 0 0-1 2 0 2 0 1-1v-1l4-3 5-2c3 1 4 1 4 6v6h8l9 1h-9c-9 0-12 1-8 4 2 3 3 2 3-1 0-2 0-2 1-1h7l2 1a10 10 0 015 5c-2-2-3-2-2 0l-1 1-1-3c0-1-4-4-5-3l1 6 1 6-2-4-2-3c-2 1-4 9-3 10 0 3 2 2 2 0 0-3 1-3 3 0l1 2 1-2c1-2 1-2 2-1v2c-1 1 0 1 2 1 4 0 8-3 7-5l1-1 1-1v-1c1 0 2 1 1 2l2 4c3 3 4 2 2-2l-1-4-2-3c-2-2-2-2-1-3s1-2-1-4c-1-1-1-1-1 3 1 4 0 5-1 5l-1-1v-2l-1-2-1-3v-8c1-1 0-2-2-1l-2-1-2-2-2-1 1-1c1 1 2 0 2-4-1-5 1-7 3-5l4 2 3 1v-5l-1-5-2 2c0 2 0 2-1 1h-3c-2 2-3 3-3 1v-2c-1-2-1-2-1 1m196-2v3l6 1c6 0 6 0 6-3 0-2 0-2-1 0v2l-2-2c-1-2-3-3-3 0h-1l-1-1-1 1c-1-2-3-2-3-1m13 0c0 2 1 4 3 4v1l-2 1h-6c-3 1-2 3 0 3s2 0 1-1v-1h2c0 1 1 2 3 2l2-1 1-1c1 1 2 0 2-3a3 3 0 00-2-4l-2-1-2 1m-145 10l-1 1h-2l2 1c1 1 1 1-1 1l-2 1h-1c-1-1-3 0-3 2 1 3-5 3-7 1l-3-2 1-2 2-2h-2l-2 1-6 1-6 1 2 3 4 1c-1 1 0 1 1 1l3 1 5 1c5-1 5 0 1 1-3 1-4 6-1 9l-2 1-3 1-2 1c-2 0-2 0 0-1v-1c-5 0-6 3-3 5l1 3 1 2-2 2c-5 2-9 7-5 7 1 0 2 1 1 2l-1 1-1 1-2 2 2 1c2 0 3 1 3 5 0 3 0 4 2 4 1-1 2 1 0 2l2 3c2 2 2 3 1 5s-3 1-2 0l-3 1-2 3c4 3 8 4 7 2h1l2 2 2 1v1c-1 0-2 0-1 1l-4-2c-4-2-8-3-8-1 0 1 4 5 6 5v1c-1 1-1 1 1 1l2 1 1 1c1 0 2-1 1-2h3c3 1 4 0 4-3v-3c2-3 2-7 1-7a4 4 0 01-3-4 3 3 0 00-2-6l-2-1c-2-2-2-3 0-3l2-1 2-1c1 0 2-1 2-3s0-2-2-1v-1c1-5 1-5 3-4h1l-2-1c-2-1-3-3-1-3 2 1 6 3 6 5 0 1 2 2 2 0a53 53 0 00-2-33c-2-3-2-4 1-2 2 1 2 2 1 2-1 1-1 1 1 1s4-3 3-6l2-2c2 0 3-6 2-6l-1 1m96 1c-2 1-2 2-1 4 0 3 0 3-2 2l-1 5v5l-1-3-1-3v4c0 2 0 2-1 1 0-2-1-2-1-1-2 3-10-2-10-6l-1-4a8 8 0 01-2-2l-1 4-2 4-1 3-1 2-1 2-1 2-2 4-1 4c0 2 2 0 2-2 1-2 1-1 1 2s0 3 1 1 1-2 1 1l1 4c2 1-1 2-3 1-2 0-2 0-1-1s0-1-2-1c-3 0-4 3-2 6v2h-1a1 1 0 00-2 0l1 3c0 2 0 3 2 3s3-3 2-9v-1l2 6c1 5 5 7 5 2l1-2c2 0 1-10 0-10l-2-4v-2l1 2c0 1 1 3 3 3v-9l1-7v6l1 8v9l1 1 1-5 1-2 1 5c-1 5-1 6 1 7 2 0 2 1 2 2a2 2 0 004-1c-1 2-4-1-4-5 0-3 0-3 2-2l2 2 1 1c1 0 2-1 2-4l1-4v5c0 4 0 4 1 2l1-3v3c0 2 0 2 1 1 3-5 0-11-5-10-2 1-2 1-2-2s0-3 1-1c1 1 1 1 1-2l1-3v3c0 3 2 4 2 1 1-1 1-1 1 1l2 3 1-1v-2a19 19 0 000-10 3 3 0 01-4 3l-1-2c0-1-3 1-3 3l-1 1c-2-1-2 0-2 1 0 2 0 2-1 1v-3l1-3c0-2 0-2 1 0 0 2 0 2 2 0l3-2c1-1 2-2 1-4 0-3 2-2 2 2 1 1 1 1 1-1s0-2 1-1 1-1 1-6v-8l-2 1m141 2l2 4a78 78 0 013 8l6 19 1 3 1-1c0-2 3-1 3 1l3 2 4 2c2 0 2 0 0-2-3-3-3-5 1-3 5 4 3-1-8-13l-9-13-2-1-1-2-1-2-1-1a1 1 0 00-2-1m-199 3l-1 2 1 2v3l-1 1-1 3 1 2c1 1 2 0 2-1s2-2 2 0l1 1 1-1c-1-1 0-1 1-1 2 0 1 0-1-1l-2-1c2 0 2 0 0-1-1-2-1-2 3-2s5 0 6 3l3 5 4 4c0 2 1 2 1 0l-2-4-1-1c0-3 0-4-1-3l-1-1-1-2c-1 1-2-2-2-3l-1-1c-2 0-2-1-2-3s-2-1-2 0l1 3c2 2 2 2-2 2-5 0-5 0-5-2v-3h-1m109 5c0 2 1 3 2 3a1 1 0 110 1l-1 1 1 1c1-1 1 0 1 2l-1 4-2-2c0-1 0-2-1-1l-1 2-1 1c-1 0-1 2 1 3l1 2v3l-1-3-2-2-2 2c-4 4-4 4 1 4h5l-1 1c-3 0-2 2 0 2h17a3 3 0 004-3v2c0 2 0 2 1 1h4c2 0 1-2 0-2-2 0-2-1-2-4l-2-5v-7l1-4 1-3v-2l-1 2c-1 2-1 2-1 0s-4-3-4 0l1 1c1-1 1 0 1 1l-1 2c-1-2-3-2-3-1 2 5 2 8 0 8-1 1-1 1 1 1l3-3 1-3v3l-1 4-1 4v5l-1-4c-1-3-1-3-1-1s0 2-1 0l-1-3v2l-1 3v-2l-1-3h-3l-2-2h-1l1 3v3l1 2 1 1-3 1c-2 0-2-1-2-10 1-8 0-10-1-11v-1c1-1 0-2-1-2s-2 1-2 3m-189 1l2 6c2 5 2 7 1 8-2 0-1 4 0 4 1-1 2 0 3 1l2 2v-15c1 0 2-1 2-3a2 2 0 10-2-2c0 2 0 2-1 1h-4c-2 0-3-2 0-2v-2c1-1 1-1-1-1-1 0-2 1-2 3m-66 9l-5 8-1 4-2 3v1l-1 1-1 1c1 1-5 9-6 8s-2-1-1 1l2 3 1 1h-2c-4-2-4 0-1 3l3 2-3-1c-2 0-2 0-1 2 3 2 2 3-1 1l-3-1c0 1 3 5 5 5 3 0 6-11 4-13v-1l7-12c4-10 5-10 6-8l1 1-1-3c-1-2 2-9 4-9v-3c-1-1-1-1-4 6m187 2l2 3v2c-1-1-2 2-1 4l2 4c1 3 1 3 1-1 0-5 3-5 3 0 0 1 0 2 1 1a2 2 0 012-2c-1 0-2-1-2-3l-2-2h-1a11 11 0 00-5-6m-76 10c0 2 1 2 3 2 1 0 2 2 1 5 0 1 0 2 2 2s4-2 2-2l-1-4c0-3-1-4-4-4l-3 1m-108 0l-1 4c-1 3-1 3 3 6 2 3 3 4 1 4l-1 2c0 3-2 2-3 0 0-2 0-2-1-1v2l1 3c0 2 3 2 3-1l2-2c2 1 5-7 4-9 0-2 0-2-1 0-3 3-6 1-5-3l-1-4-1-1m33 7c-1 1-1 1 3 1 4-1 4-1 4 3l1 4 1 2v3c-2 1 1 3 4 1s2-11-1-10c-2 1-3 0-4-3l3-1 5 1v-1c-3-2-13-3-16 0m-91 3l-6 5c-5 5-5 6-2 10 4 4 5 4 10-3 3-4 3-4 4-2v4h-1l-1-2v2l-2 2-2 1c1 2 5 1 6 0l3-1c2 0 2 0 2-3-1-3 0-4 1-2h1l-1-3-1-2c1-1 0-2-1-3l-4-4-1-3-5 4m318-2l-2 3-2 2h2c3-3 8-3 11 0 2 2 2 2 1 3h3c2-1 2-1 0 3-1 2-1 2-2 0-1-1-1 0-1 3l1 5 1-1c-1-2 0-4 1-3s1 1 1-2 0-2 1 2l1 6v-6c0-12 0-15-1-12-1 1-1 1-1-1s0-2-1-1h-3l1 2 1 2c0 1-1 1-3-1l-3-3c0-1-1-2-3-2l-3 1m133 0l-4 2-2 1h-1c-2 0 6 5 8 4l4 2 4 2c2 0 2 0 1-1l-2-2 2-3-1-1-4-1c-5-2-5-2-3-3h-2m-19 2c-2 2 2 4 4 2 3-1 3-1 3 1l-1 2v2l4 1h2l2 1c2 0 3 2 3 4l2 3 3 1 2 1h6l6-2h5c6 3 6 2 1-1l-6-3c-4 0-7 1-7 3l-3 2c-3 0-3 0-2-3 0-3-2-8-4-8v2c2 2 3 4 1 4l-1-1-2-3c-2 0-4-2-6-4-5-4-10-6-12-4m-166 3c-2 0-2 1-2 4 0 5 2 5 2 0 0-2 1-1 1 4s1 5 1 2c0-4 1-5 2-3 1 1 1 0 1-2 0-4-2-7-2-3l-1-1-2-1m32 0c-2 2-1 4 1 5s2 1 1-2l1-3 2 5c0 4 0 4 1 2 1-1 1-1 1 1 0 4 1 4 1 1l1-3c2-1-1-4-2-3l-1-1v-2l-3-1-3 1m19 1c-1 1-3 2-4 1-2 0-2 0-1 1l2 4 1 3 1 2c-1 1 1 2 1 1 1-1 1-1 1 1-1 1 0 2 2 2 2 1 2 0 1-1s-1-1 1-1l2 1c1 1 1 0 1-2v-4l-1-2c1-1-2-7-4-8l-3 2m72 0l-3 3-3 4-2 3-2 1c-2 0-2 0 0 1 1 1 1 1-1 1s-2 0 0 1c1 1 2 0 4-2l2-1c-1 2 0 1 2-1l2-3c-1-2 2-7 4-8l1-1-4 2m31 4l2 5 1 3 1 2c0 2 0 5 2 8l-1-1h-2l-3-1-8-4c1 1 0 1-1 1l-3-1-3-1-3-1c-1-1-4 1-3 2l-1 1-2 1 1 1c1 0 4 5 4 9a2 2 0 104-1l2-1c2-2 11-2 15 0l3 1c3-1 5 5 5 10v9c0 2 0 2 1 1l2 1-2 1 2 1h11l8 3-2-3-3-3-3-7c-3-7-3-10 1-7l3 1 3 2 2 1a30 30 0 0112 7l-5-6v-2c2-1-2-10-4-11l-4 1c-2 0-2 0-1 2 3 2 2 2-1 0l-4-2c-2 0-3-1-1-1l-8-4c-2 0-4-11-2-11 5 0-5-8-12-9h-4l1 3m-360 6v9l1 4 1 4v3l1 2c2 0 2 0 1 2-2 2-1 4 1 3v-10c-2-5-2-11-2-13 0-4-1-6-3-4m253 3c0 2-2 3-2 1h-1c-1 1 0 2 1 2v2l1 1c2 0 2 0 1-1h1c2 1 2 3-1 3l-2 1h4c2-2 8 9 6 11l1 1c1-1 1-1 1 1l-2 3-1-1v-3c-1-2-1-2-1 1l1 4v9c0 4 1 5 1 3 0-5 2-2 2 4l-1 5-2 1c-1 1-1 0-2-1l-1-1 2 5 3 2v-2 5l1 13 1 5v-7c1-9 2-11 2-5 0 4 0 4 1 2l2-1 1-2-1-9c0-6 0-7-1-5s-1 1-1-4c0-4 0-7-1-6h-2l1-2c1 0 0-5-2-8v-3l2 3 3 5 1 4a6 6 0 003 6c-1 1 2 7 6 15l6 15 2 2 2 4 1 1 1 3c-1 1 0 3 2 3l-1-5c-10-22-11-25-2-9l9 16-23-49a140 140 0 01-10-22c-1 1-2-2-2-4v-1c-1 1-3-2-6-6l-4-5m69 1c-1 1-2 2-6 1-5 0-5 0-1 1l2 1h-3l-4 1c-1 1-1 1 3 1s5 0 5 2l1 5 2 6 1 3h-14l7 1 5 1c-2 1-2 1 0 1l2 1c0 2-8 5-10 5h-1c3 2-1 5-4 5h-1l1 1 2 1c4-2 6-2 6-1v1l-1 1 1 3 1-1h2l1 1 1 1v2l-1 1 1 1v2l-2 3-1 2 1-1c3-2 6-2 5 1l2 2c3 1 4 2 2 4-2 1-2 1 0 1 3-1 3 1 1 4-1 1-1 1 1 1 1-1 2-1 1 1 0 1 1 2 10 2l9-1c-1-1 1-1 4-1 4 0 4 0 2-1l-2-1 2-1 2-1c3-1 3-1 0-1h-4l4-1 4-1h-5c-3 0-4 0-3-1v-1l1-3 1-2c-3 0 3-2 7-2a5 5 0 006-2v-1h6l4-1h-3c-7-2-7-2-10 0l-4 2-3 1h-2l-2 2c-2 0-3 1-3 2l-1 1v-4l-2-3-3-2-1-1c1-1 0-2-1-3v-1l2-1v-1c-2 2-2 2-3 1l-3-1v-4c1-3 1-3-1-3l-2-1h-1c-3 2-3 0-1-2l2-3-2 1c-1 1-2 2-3 1h-3c-3 0-4-4-2-8l1-5c0-2-4-3-4-2v-9l-1-2h2l-1-2c-1-1-1-1-1 1m-355 2l-2 1c-2-1-5 2-5 6l-1 3c-1 2 0 3 1 2l1-1c0 2 2 3 2 1l2-4 3-9-1 1m176 1l1 3v1l-4 6c-1 4-3 5-4 5s-3 1-4 4a12 12 0 01-8 9l-3 4-3 6-2 9-2 6 5 2 4 3v3l-2-3-4-2c-3-1-3-1-3 4s-2 12-4 12l1 2 2 6 1 4c2 1 2 15 1 28v5l2-1c2 0 2 0 1 3l-2 2v9a3 3 0 005 0l1-2v2c0 3 16 3 17-1 0-2 2-2 2 1 0 2 1 2 10 2h10l-1-4-1-10v-13a6 6 0 00-2-8v-3a2 2 0 000-4 1 1 0 110-2c1 0 2-2 3-7l1-6c1-2 1-1 2 15l1 22-1 13v3c1-1 1 0 1 1 0 2 0 3 12 3l12-1-3-9-9-32c-2-10-2-13-1-13v-1l-1-1-1-2v-2l1-1-1-1-2-1 2-2 1-3h-1c-1 1-1 1-1-1v-3l-1-1-1-2-1 1h-1c-1-1-1-2 1-3l1-3v-2l-1 2c-1 2-1 2-1 0l-1-2v-1a4 4 0 00-1-5l-1-2-2-10-1-1-3-18c0-3 0-3-1-1s-1 2-4-2l-2-4-3-2-3-3h-3m-161 3l-1 5-2 3-2 9-1 2c0 2 3 5 4 4l1 3c-1 3 1 7 4 6l1 1 2 1 2 1h3c1-1 2-2 3-8l2-11-1-4v-4l-2 2-2 3v-1l-1-1c-1 0-2 0-1-1l-1-1v-5l-3 1h-2c1-2-1-8-2-8l-1 3m270 5l-1 5c-1 5-3 7-4 3l1-2c1 1 2-4 1-5h-6 2l1 1-1 1-2 3-1 3v-3l-2-2-3-1c-1-1-1 1-1 9 0 5 0 8 1 7 0-5 1-6 2-4 1 1 1 0 1-4v-6l1 5c0 3 1 4 1 2s1-1 1 3c1 3 1 4 1 1 0-2 0-3 2-3 1 1 1 0 1-1 0-3 3-1 3 2 0 2 0 2 1 0 0-2 1-3 2-3s2-1 1-3c0-1 0-2 1-1 1 5 3 4 3 0l-1-6-1-1h-4M74 271c-4 0-5 2-4 3h5l-1 1-3 2 1 1a2 2 0 014 2l1-5v-5l-3 1m517 11l1 9c1 8 3 11 5 6 0-2 0-2 1-1h1l-1-1c-2 1-4-3-5-8-1-6-4-11-2-5m-552 0v3l1 2v2h1l3-1c1-2 2-3 3-2h2v-2l-2-1c-1-3-3-2-3 0a3 3 0 01-2 2 3 3 0 000-3c0 2-2 1-2-1 0-1-1-1-1 1m48 0l-12 24-1 3-1 4c-1 2-1 3 1 3l1-1v-1l-5 16a108 108 0 00-6 18l-1 1c1 0 0 4-2 7l-2 8 9-23 14-36 9-24c0-2-3-1-4 1m468 3l1 1v1l-1 1 1 1 1 1h-1l-1 5c0 5 0 5 1 2 0-5 2-5 2 0v5l1-5 1-4v3c1 2 1 1 1-3 0-5 0-6-1-4l-1 3v-3l1-3-2-1h-3M0 292l1 5v18c0 18 0 20 2 20 2 1 4-1 2-2H4c0 3-2 1-2-2a2 2 0 114-2l1 1v-3c-2-5 0-9 2-6h4v-2c1-1 1-1-1-1a2 2 0 01-2-4l1 1h1l3 2h2l-3-3c-2 0-3-1-3-2h2l1-1a4 4 0 00-6 5l-1 3-1-2v-1l-2 4c0 2 0 2-1 1v-3l1-2c0-3 3-8 4-8l1-1 1-2v-1c0-1-1-1-2 1-2 1-2 1 0-2a2 2 0 013-2c0-2-2-2-4 0-2 3-2 2-1-3 1-2 1-2-1 0l-2 3 1-3-1-3c-1 0-2-4-1-5l1-2c-2-2-3-1-3 4m551-3c0 1-1 2-2 1-2 0-2 0-2 3 1 3 3 4 3 1 1-1 1 0 1 2 0 6 3 5 3-2l-1-6-2 1m-342 2v7l-1 4-2 3c-3 3-3 3-1 4 3 2 1 2-2 1-3-2-3-2-3 0l2 5 5 10v-1c-1-1-1-2 1-2 1-1 1-1 1 2-1 5 0 5 2 1 2-2 2-3 1-6a5 5 0 01-1-6l1-1c2-1 2-1-4-2l-1-2v-1l1-3c2-2 3-2 6-2s4 0 3-1h-4l-1-1v-2l-1-3c1-2 1-3-1-5-1-1-1-1-1 1m156 3l1 7v1c-1 1 0 1 2 1 4 0 5-2 2-4v-2l-2-1h2l-1-1-2-2 2-1h1c-2-1-2-1-1-2s1-1-1-1c-3 0-3 0-3 5m-254 2l-5 2c-1 0-2 1-2 3v2l1 4c0 11 0 14 1 12s1-2 2 0c1 1 1 1 1-4 0-4 0-5 2-5l1 4 2 6 1 3-1 2-2 1 2 2 1 3h-1l-1-1c0 2-4 2-4 1l1-4v-3c-3 0-4 3-4 19v12l3-3c1 1 1 0 1-3-1-3-1-4 2-4 2 0 2 1 2 5s2 5 3 2v1l-2 4v7c2 1 1 4-1 4l-2 2c0 2 0 3 1 2l1-1 2-1 1-1v-4a43 43 0 014-18l6-16c2-2 1-9-3-15-2-3-3-5-2-7l-2-6-3-7c0-3-3-3-6 0m-14 4c-2 3-5 3-8 0l-2-2-2 3-1 5-1 2v6c3 14 4 17 5 17v-1c0-1 1-1 2 1l2 1-1-2 1-3c2 2 5 8 4 10 0 2 5 9 6 9 2 0 2-5 0-6l-10-17-2-4 2 1c1 2 4 3 4 1a3 3 0 01-1 4l2 1c3 1 3 1 3-1l-1-2c-2 0-1-1 1-3 3-2 3-5 1-4v-11l1-6c1-2-2-2-5 1m-68 5a3 3 0 010 6v1l2 6 2 4v6a6 6 0 01-1 6c1-1-1-4-2-3l1 4c1 3 1 3-2 4-2 1-3 2-2 4s2 3 4 1c1-2 3 0 4 4l1-5v-14l-2-7-2-6-1-5c1-3-1-9-3-9-1 0-1 1 1 3m341-1c-2 0-3 1-3 2l-1 3c-1 1 0 1 4 1l5-1-1-1-1-1-1-1-2-1h2l2-1v-1l-4 1m-300 5v9l2 1h-1l-1 1v4l-1 1v1l-1 1h-1l-3 10c-5 12-5 14 0 4a121 121 0 009-24h-1l-1-8c0-6-1-7-1 0m10 5c-1 2-1 12 1 14l-1 1c-1 0-1 1 1 1v6l1 5v10l1 2a392 392 0 001 11l1 2c2 1 2 3-1-27l-2-23c0-4-1-4-2-2m114 0l-1 4 1 2c2 0 3 0 2 1l1 2c2 0 13 10 11 10l-2-2-4-2-2-1-1-2-3-2h-1v1c-2 0-2 0-2 4s0 4 1 1c0-3 2-4 2-1 0 0 1 2 3 2 2 1 2 2 0 7l1 1 2-1h1v2c-1-1-1 0 0 0 0 1 1 2 2 1l1 1h1c1-2 1 0 1 6l1 14 2 2c1 1 1-2 1-5 0-6 0-7-1-6h-1l1-4c0-2 0-2 2-1h2l1-1 1 4v2l1-1 2-1v-2l-2-1 2-1 3-1c1-2 2-1 2 1 1 1 1 0 1-2 0-5 0-5-2-3-2 5-4 4-2 0 1-4 0-6-2-6-2 1-3-2-1-5l1 1h1l-4-8-2 1v1l-1 3-3 4-3-4-5-3-1-2-2-3c-3-1-4-2-2-4l-1-3c-2-3-3-3-3 0m142 0l1 4v5l-1 4v-4c0-4-3-7-3-3a3 3 0 01-1 3v4c0 2 0 2 1 1l1-1v1l1 1 1-1h2l1-1v-7l-1-5c0 2 0 2-1 0-1-3-1-3-1-1m29 1l1 2 1 1c-1 1 0 1 2 1 3 0 7 3 6 6l1 1c2-1 2 0 2 1 0 2 0 2 1 1 0-2-3-8-5-8v-1c2-2 1-4-3-4h-3l4-1 4-1h-6c-4 0-5 0-5 2m174 3v6l-1 4c-1 1-1 1-1-1v-3l-1 1-1 2c-2 1-2 6 0 5 2 0 5-4 5-7l1-3v1l1 1v-10l-1 2c0 5 0 5-1 2l-1-4v4m-213 9l2 2 2 3h2l1 1 1 1c1-1 1 1 1 5l1 9v-5l1-8 2-1v-2l-3-1h-3l-2-3c-1-2-1-2-1 0h-1c-1-2-3-2-3-1m-61 1l1 8v2l1 1 1 1c2 2 3 1 3-5 1-7-1-9-6-7m325 7c-1 6 0 32 1 33h3v-5l-1-6-1-5-1-7c1-5 0-13-1-10m-91 3a3 3 0 011 4c1 2 4 3 5 2h3l3-2 2-3h-4l-6-2c-4-2-7-2-4 1m-10 2c2 0 1 3-1 5l-2 2v2l-1 2-2 1a2 2 0 100 2h2c4 1 2 2-3 2l-5 1 2 1c2-1 3 0 3 1l-1 1h-1l1 1v3c2 3 3 1 3-2l-1-2 2 2c3 4 4 2 4-6l2-8c2-1 3-5 1-5l-1-2a2 2 0 00-2-1m-110 1l-10 1c-9 0-10 0-8 3h16c1-1 3-2 4-1v-2l1-1h-3m216 3c-1 4 0 5 2 2 1-2 1-2 1 3 0 2 0 4 1 3l1-2 1 2v-8l-3-3c-3-1-3-1-3 3m-585 0c0 2 0 3-1 2-2 0-2 0-2 3s-2 5-4 4v1l3 1c1 0 2 1 2 3l2 2v-2l-1-2h2v-2l-1-6v-6 2m86 3c-1 2-2 3-3 2l-2-1a5 5 0 004 6l1 1v-3c0-1 0-2 1-1 1 2 7 6 7 4l-2-3c-2-1-3-2-2-3 0-2 0-2-1-1h-1v-3l-2 2M0 375c0 14 1 19 1 12 0-12 0-14 2-14v-1c-2 0-2-1-2-5v-11l-1 19m267-24c-1 1-3 2-2 4l-1 3c-2 2 0 3 3 3s7-4 5-5l-1-4v-3l-4 2m208 3l-3 1c-1-1-4 3-3 4l3-1c1-1 2 0 2 2l-1 3v3l2 3 1 1c1-1 1-5-1-5l-1-2 1-5a8 8 0 012-5l-2 1m128 1l-1 5-1-2v-3c-1-1-1-1-1 1h-1c-1-1-1 0-2 4 0 7 0 8 7 7 3 0 4 0 3 1v1l2-1 2-1c1 1 1 1 1-1l-3-7c-1-6-1-6-4-6-2-1-2-1-2 2m-252 1v5l4 2v2h-1a8 8 0 0010-7h-1l-2-1h-3l-3-1h-4m162 1l-1 2c-2-2-2 2 0 4l2 4 1-1 1-3v3c0 4 1 7 2 5v-1l2-2c3-2 4-3 4-1l1 2 1-1 1-1c1 0 2 1 1 2-1 3 2 6 6 5h3l-3 2c-2 1-3 3-2 3 0 2 2 1 2-1h1l2 2c2 0 1-4-1-11l-2-9c0-2-3-4-4-2l-2 1h-1c0 2-4 2-4 0h-1c0 3-2 1-2-1s0-2-1-1-4 1-4-1l-1-1-1 2m-234 1h-1c0-1-2 0-4 3l-5 4c-3 0-2 2 0 4 2 1 9-5 9-8l1-1 2-4-2 2m-171 0a9 9 0 002 15c1-2 0-5-1-7v-3c2-3 1-6-1-5m224 0v8l-1 3c0 2 0 2-1 1v-3c1-1 1-2-1-3-2-2-2-2-4 3 0 2 1 1 3-1v1l-2 2v1h1v3c-1 1-1 1-2-1a4 4 0 01-1-3l-1 1c-1 2-1 2-1 0l-1-2v-1l-1-1c-2 0-4 4-3 6l3 1c1 0 2 0 2 2h-1c-1-2-1-2-1 1-1 2-1 2-2 0l-2-2-3 5a14 14 0 0010 0l10 1c8 0 9 0 9-2l2-3c2-1-1-4-4-4l-1-2-1-2-2-1-1-4c0-2 0-2 1-1 3 2 3 2 3 0h-1l-1-2c0-2 0-2-2-1a2 2 0 01-3 0m-188 9v11l1 2 1-5v-3l-1-2c2-5 2-9 1-10-2-2-2-2-2 7m148-7l-1 3v6c-1 3-1 4 1 1 1-2 1-2 2 0l4 1v-2c-1-1-1-1 1-1l-3-2v-2c1-1 1-1-1-1l-2 1 2-2 2-2h-5m22 1v3c1 0-3 5-5 4l-1 3c0 6 3 8 5 4 0-2 1-3 2-3v-3c0-2 0-3 3-4 2-1 2-2 1-2l-3-2h-2m153 0l-1 3v1l-2 1 2 1c1-1 4 3 4 6 0 2-2 1-2-2l-2-3a6 6 0 001 10c1 2 2 2 9-1h2l-2 1-2 2h2l3-1c2 0 8-9 8-11 0-3-2-3-5 0l-2 2 3-1c2 0 2 0 1 1l-2 4a3 3 0 01-3 2c2 0 3-3 1-3l-1-1c0-2-1-2-3-1h-4l-1-1a9 9 0 01-2-10l-2 1m-96 2v1c2 0 3 2 1 2-1 1-1 1 1 1l2-1c1-1 1 0 1 1l-2 5-1 1v-4h-4l-2 2c-4 1-11 7-10 7 2 2 5 2 5 1h2l1-1 1-1 1-1v-3l1-2 1 2c0 1 1 2 3 2a1 1 0 110 2l-1 1c-1 3 3 3 7 0l5-3-1 1-2 2h5l2 2v-2l-6-6a2 2 0 01-1-3v-2c-1-2-2-2-2 3-1 5-1 4-1-2 0-4-3-7-6-5m132 3c-1 2 1 8 3 10h4l-1 1c-2 1-2 3-1 3 4 0 4-3 1-7a32 32 0 01-4-8c-2-2-2-2-2 1m-94-1c-1 1 0 5 2 5h-1l-5-1h-2l2 2c2 1 3 3 2 3l1 2 1-1 4 2c4 4 7 4 8 0 0-3 0-3-2-3-1 1-2 0-1-1l-1-2-2-2-1-2-1 1a1 1 0 01-2 0v-4l-2 1m18 3l-4 2c-3 1-3 2-1 3s2 1 2-1h1v2l-2 4c0 2 1 3 2 0l3-5c2-3 2-6 0-6l-1 1m10 4v5c-1 0-5-3-3-3l-1-1c-2-1-5 0-4 2l2-1c1-1 1-1 1 1v2l-3-1c-1 0-2 0-1 1v1c-1 3 11 2 12 0 2-3 0-7-3-7v1" itemprop="regular" fill="url(#14156667777-posters-1653239054979-horizontal-regular)" fill-opacity="" stroke="url(#14156667777-posters-1653239054979-vertical-light)" stroke-opacity="" fill-rule="evenodd" tabindex="-1"></path><path id="14156667777-posters-1653239054979-bold" d="M0 10v10h197l45 1-2 3v6h-1c0-2-2-1-5 3-2 3-3 5-2 7v4l1 1a2 2 0 001-3 1 1 0 010-2 4 4 0 005-3l1-3 3-6 4-2 3-3v-1h1l4 1c1-1 2 0 2 1l1 1 1-1 1-1h2l-1 4-1 7c0 3 1 6 3 6l1-2c1-3 0-3-1-2h-1l1-2 2-4c0-5 2-9 3-6a3 3 0 010 3l1-2c0-2 2-4 4-3h2l3-1a2 2 0 112 4l-2 1c-1 1 0 1 0 0l2 1-5 1c-4 0-5 0-4 1h3l4 2h2c-1-1 0-2 1-2l2-3c0-7 5-9 7-3l1 3 1 3v3c1 1 1 0 1-1l2-2a1 1 0 110 3c2-1 2-7 1-8-3-1-1-3 2-3 2 0 3 0 3 2 0 1 0 2 4 2l4 1c-1 1 0 1 2 1s6-5 4-6l2-1 2 2v2l3 3 2 2 2 3 1 3a1 1 0 102 1l-6-11-1-3v-2h150a9370 9370 0 01158 1c11 0 11 0 11-12V0H0v10m267 26l-1 4c-1 3-1 3 2 3 2 0 3 0 3 2h3c1 2 4 2 5 0 0-2 2-3 4-1h13l-2-2v-1c1-2 3-3 3-1l1 1 2-2-1-2-3-1-3 1c2 2-2 5-5 4-3 0-4-2-2-2a1 1 0 10-1-2v-1h-6l-2 1 2 1 2 2v1h-3l-1-1h-1l-5 2h-4l1-3c0-4 0-5-1-3m62 4c1 2 1 2-7 2h-10c-4-1-8 0-5 2l3 1c1-1 2 0 2 1h1c0-2 1-2 3-1l2-1 7-1c7 0 8 1 8 2 0 2-3 3-3 1-1-1-1 0-1 1 0 2 1 2 4 2l2 2a2 2 0 003 1h-1l-1-1 3-1c2 0 2 0 2 2-1 1-1 2 1 2s2 1 2 3c1 2 0 3-1 2h-1l3 2 1-12c0-2 0-2-1-1-2 2-3 1-4-2l-1-4-1 3-1 2-2-2 1-1c1 1 1 0 0 0l-5-4c-3-3-4-3-3 0m-41 6l-2 1c-6-2-7-2-7 0s0 2 1 1c1-3 2-1 2 4l1 4v-4c0-2 0-4 1-3h2c1-1 1-1 1 1h1l1-1c1 1 2-1 1-3 0-2-1-2-2 0m-103 4v4l1 1-1 1c-1-1-1 0-1 1l1 2 1 2c0 2 0 2 3 2 1-1 2 0 2 1h3v11c0 2 0 2 1 1v-4c-1-2-1-2 1-2 4 1 4 1 1-3l-2-6-2-2-3-1 1-2 1-1c-1-1 0-1 1-1l1-2-1-2-1-1c-2 0-2 2-1 2v2c-2 2-4 1-4-1 1-2 0-3-2-2m-43 6l-3 1c-3 0-4 0-4 8l-1 5 3-4c1-2 3-4 5-4l-1-1-3-2 2-1c3-1 4-3 3-3l-1 1m80 2h1c2-1 2 2 0 5-3 3-5 9-3 10 1 1 0 7-1 8s-2 0-4-3c-3-4-4-4-1 1 1 2 0 3-2 0l-2-1 1 2 1 2c-1 1 0 1 2 1h1c-2 1-1 4 1 3a4 4 0 014-1l5-1 5 1 9 1c5 0 8 0 7-1l-22-2c-4 0-5-1-3-2l3-1c9 1 22 0 21-1l-13-1c-10 1-12 0-9-4 2-1 1-7 0-6v-1l1-3 1-1 1-4c0-2 0-2 1-1h1c0-1-1-2-3-2-3 0-4 1-3 2m-45 1v1l1 2v2l1 1-2 3-1-2c1-1 1-1 0 0h-2l1-2 1-2c-2-1-10 8-9 10 1 1 1 1 1-1s0-2 1-1 1 2-2 5-4 4-3 5h2l3-4c2-2 4-4 4-6 1-2 3-3 3 0 0 2 4-2 4-4l3-3 2-2h-1l-1-1-1-3-1 1c1 1 0 2-1 3s-1 1-1-1c1-4 0-4-2-1m21 1v1l1 2 2 1c3 0 3 8 1 9v1l1 2 1 3h1c-1-2 2-4 3-3l-1 1v1c1 3 4-3 2-6-1-3-3-3-3 0l-1 1c-2 0-1-3 1-3v-3l-3-3c0-2-1-3-2-3l-1-1c0-2 0-2-2 0m147 8l1 5v3l-1-1-1-1-1 2 1 2v1l-1 2c1 3-3 5-4 3h-3l-1-1-2 1 6 2c3 0 4 3 1 3v1c2 0 3 2 1 2v2l2 2v18l2 26h1c2-2 2-2 3-1 1 2 5 1 5-1l-1-1-1-4c0-3 0-4 1-3l1-2c0-2-3-1-4 2 0 2 0 2-1 1l-2-1 2 3v1c-3 0-3-3-1-5v-1l-1-6 1-5h3c4 0 4-2 0-2l-4-2c-1-1 0-1 5-1a13 13 0 008-1l1-4c0-3 0-4 1-3s1 1 1-1l-2-2c-1-1-2 0-1 3l-1 3-1 2c1 2-9 3-11 1s-1-4 0-3c2 1 9 0 10-1h-3c-3 0-4 0-3-1 0-2 0-2-1-1l-2-1c0-3-2-2-2 0-1 1-1 0-1-3l1-4 1 1 1 2c2 1 1 0 0-2l-2-3v-1c0-1 1-2 2-1 2 1 2-11-1-12-2-2 0-3 3-2l3 3h-3l2 3 1 2v1c1 0 2-1 1-4a10 10 0 00-5-10c-2 0-2-1-2-3l-1-4-1 2m-213 5c-1 1-2 2-5 2l-7 2-6 2-3 1-5 2c-2 1-5 2-6 4l-4 2-4 3a27 27 0 01-19 7l-2 3-1 2c1-1 2 0 1 1l-1 1c-1 0-7 15-7 19l-1 3-1 2-2 5c-1 1-2 3-1 4h-1c-1-1-1-1-1 1h-1l-2-3h-1l-1-1 2-2c2-1 4-4 2-5l-1-3c0-4-2-4-4 0l-1 4v-4c0-4 2-6 6-5 3 0 3 1 2 5v2c2 0 4-4 5-7l4-10c3-7 4-7 2-7l-2-1h1l1-1h-3a2 2 0 01-2 2l-1 4-2 5-2 2-1 2 1 1 2 2c0 2 0 2-1 1l-2-2-1-1v-3l1-2c0-3 0-3-3-2-5 2-6 3-4 4h2c1-2 2-1 1 2 0 2-1 2-2 1l-2-1-1-2c-1-2-1-3-3-2s-3 2-2 4a7 7 0 01-3 8l1 2c2-1 2 5 0 6l-1 2-2 3c-3 3-3 0 1-4l1-3v-3l-2 2c-2 2-2 2-2 0l1-3 1-5c0-2 0-2 1-1l1 2v-1l1-2c1-2 1-2-1-3v-2c1-1 1-1-1-1l-2 2-1 3-1-2a2 2 0 10-4-1h-2c-1-2-3-2-3 1h2l-1 2-1 1h5l1-2c0-3 2-2 2 1 0 2 0 3 1 2l1-1v7l-1-1c0-1-1-2-5-2-4 1-5 0-5-1v-3c-1-1-1 0-1 3s0 4 2 3l1 1 3-1 2-1-2 3-3 4-1 1c-1-1-1 1-1 4 0 4 0 5 1 3l1-3c2 0 6-1 6-3 1-2 1-2 2-1 0 2-4 6-6 6-1-1-1 0-1 2v3l3-4 4-3v3c0 2 0 2-1 1s-1-1-1 1l1 4 1-1h2l2-2c2 0 2-1 2-4l2-5c3-3 3 0 0 4v2l2-1c0-1 2 0 2 2-1 2 1 2 3 1l2-1-1 2-1 2-4 5-2 3h1l-4 3c-2 0-5 4-4 5 2 1 5 0 6-1l2-1-2 2v6-1c0-1-1-1-2 1l-1 2-1 1v1l1 2c-1 1-1 1-3-1l-3-2 1 7-1 8c-1 2-3-1-2-4v-12h-1v3c1 1 1 1-1 1-2-1-3 0-3 2-2 6 0 13 4 12v3c0 3 0 3 1 2v2c-2 2-2 2-1 3 2 1 5-8 5-15 0-6 1-8 3-7h2l5-1c4 0 4 0 2-2h-2l-1 1v-3c0-2 0-3 2-2l1 2v1l2-2-1-2-1-2 1-1 3-1c1-1 1-1 0 0-1 2-2 9-1 12h1v-4c0-2 0-2 2-2 4 1 8-5 5-6-1-1-2 0-2 1 0 2-2 4-4 3v-1l1-3c2-7 2-7-1-8l-3-1h2l3-1v-1l2 3c1 3 4 6 3 3-1-1 0-2 1-3l1-2 1-4 2-6c1-12 5-25 6-20l-1 1-1 1c1 4-2 21-5 28v4c1 1 1 2-1 4l-1 5 1-1c0-1 1-2 3-2s2 1 2 7h1v-13l1-1h2v-1l-1-2c1-1 3 1 3 4v1c-2-3-4 0-3 6l-1 8-2 2c0 2 0 2-1 1v-4l-1-2-1 5v4l-2-3v-5c0-2 0-3-1-2l-1 5c1 4 1 5-1 4l-1 1c0 1 2 2 6 1l4-3 2-3 1-3 1-1 1-1h-1l-1-1h11c2 1 2-1 1-4h1c2 0 2 0 1-1l-1-3c0-2 0-2-1 0l-1 3v-3c0-4 3-7 5-6v1l-1 3v3l2-4c1-3 2-3 4-2l3-1-4-1-5-2c-1-1-1-1-3 2l-1 1 1-4 2-4v-2c-1-1 0-1 2-1 4 1 5 2 3 3v1l1-1c1-1 1-1 3 1s4 2 4-1h-2v-4h4v1c2-1 2-1 1 1l-2 5-2 3v2c1 4 3 7 4 6l1 2-2 1-1 1 2 1 1 1h-2l-2 1v1l-1 1-1 1c-1 1-1 1 1 1s3 0 3 2c1 2 4 1 5-2h-1c-2 2-2 2-3 0-2-2-1-3 2-4v-2c-2-1-1-2 1-2s3 1 2 2c0 1 2 2 2 0l5-2 6-1h5c7 2 13 1 13-2h1c1 2 12-2 13-5l-1-2-2-1-3-1h-3l-2-1-4-2-2-1-2-1-2-1-2-2 2-2 1-1-3-1h-2c1-2-1-1-7 1a25 25 0 01-23-1l-2-1h-1l-2-1-2 2c1 1 0 2-1 2a2 2 0 01-1-3l1-2v-2l3-1c3-1 3-1 4 1 1 3 3 2 5-3 2-2 2-3 0-3a2 2 0 010-3l1-1h1c0 3 2 2 5-2l2-3-2-1-4-1a4 4 0 01-5 0l-1-1a2 2 0 012-1l1 1 1-1h1c1 1 7 2 8 1l-2-1v-1l1-2h1l1-1v-4h-1v-1l2-4c0-2 1-3 3-4a15 15 0 0011-16c2 1 4-1 6-5 1-4 1-5-1-2m222 3l2 1v1l2 6a2 2 0 112 4l-1-1c1-1 0-2-1-2s-1 4 1 5v4c3 2 5 1 5-1s0-3-1-2c-1 0-2-1-1-2l1-2 1-1-1-1v-3l-1-1-2-2v-3h-6m-72 4l-2 1c-3 0-5 3-3 5 1 1 2 2 1 3l-1 5c0 2-2 4-3 5-1 2-1 2 1 1 3-1 3-1 5 1l2 3-1-3v-8c-2-3-1-3 3-3 3 0 4 0 5-3 1-1 2-2 3-1v-1c-1-1-1-1-4 1l-5 2c-3 0-4-2-1-2l2-3 1-2 1 1 1 2c2 0 0-5-2-5l-3 1m-153 3l1 2 3 5 3 7 1 3c-1 2 1 5 2 4l-1-5c-1-2-2-5-1-6 0-2 0-2-1-1l-2-3c-2-3-2-4-1-5s2 0 2 1c1 3 2 2 1 0 0-3-1-3-3-2h-4m-24 4l-4 1-2 1-1 1h-2l-1 3-2 3-1 6-1 7a44 44 0 01-3 16l2 1 2-7c0-17 4-27 7-23 2 1 2 4 0 4l-2 5v9a9 9 0 012-4c-2 1-2 0 0-4l1-2h1l1-1v-7l-1-1a2 2 0 010-4c1 1 6-4 6-5l-2 1m78-1c-2 0-5 3-8 6l-1 5c1 1 1 2-1 2v1c2 0 4-2 4-4v-2l1-1c0-2 2-4 3-4l3-2 3-1h-4m8 0l2 1c3 1 6 5 5 6l-2-1c-2-3-7-4-11-2-5 1-9 6-5 6l1-1c0-2 6-5 8-4h2l5 6v2c1 2 2 1 2-1l1-3c1-1 2 2 1 4l1 1c1 0 2-4 1-5v-1l-2-3c-1-1-2-3-1-4h-3c-1-2-5-3-5-1m-8 10c-2 3 0 6 3 3l2-1c0 1 2 4 4 4v-2l-1-2a2 2 0 010-2h3c0-3-8-4-11 0m-98 1c-3 1-3 2 0 1v2c0 1 0 2 1 1 1 0 2 1 1 6 0 8 1 8 1 0l2-7c1-2-2-5-5-3m221 2l-1 1c-2-2-8 5-8 10 0 3 0 4 1 2l2-4 2-2v-2l-1 2h-2c0-2 4-5 7-6 3 0 3 1-1 3-2 1-2 1-1 2l3 2h2c-2-6 2-9 7-6 4 2 5 4 5 7l1 3c1 0 3 4 3 7s0 4 2 4c1 1 1-5-1-8v-6l-8-8c-3-2-11-2-12-1m-293 4H9c-2 0-2 0-3 2l-1 2v2c0 3 2 1 2-2 0-2 1-3 6-3 4 0 5 0 5 2l1 1a2 2 0 012 3c-1-1-2 1-2 4h1c1 0 2 0 1 2l1 2v-1l1-3v-4c2-2 2-3 1-3l-5-2c-3-3-4-3-6-2m-5 9c-1 3-3 4-3 2-1-1-1 0-1 3l-1 5c-2 1-3 5-1 5s1 3 0 3c-2 1-3 6-1 6v7c0 7 0 8 1 5s1-2 1 3 0 6 3 6c2 0 2-1 2-3 0-3-1-5-2-3v-4c0-5 3 0 3 6v6l1-6 1-3c0 2 6 10 6 9v-2h4l3 2v2c-3 1-3 4-1 3l1-1c-1-3 3-2 3 0 1 3 4 3 5 1s1-2-1-1-3 0-1-2v-1l-2-1-1-1a15 15 0 01-10-13l-1-2c-1 0-2-1-2-3 0-4-1-5-3-3-2 1-2 2-1 5 1 4 1 4-1 2s-4-14-2-22l1-6v5l1 6 1-1v-3l-1-7c0-5-1-6-1-4m300 9l-1 5-2 3v-5l-1-4-1 2-1 3v1a1 1 0 010 3v1c2 1 2 3 2 6s0 4 1 3c0-2 2-3 2-1 1 1 1 0 1-1l-1-2-2-2 1-3 1-1c0-3 2-2 3 1 1 4 2 2 2-4s-1-7-3-7c-1 0-2 0-1 2m17 2v21c-1 1 0 7 1 7v-3l1-4c2 0 2 0 1-3l-1-3v-13l-2-2m9 21l-1 6v1l3-3c0-3 2-2 1 1l2 4h1v-1l4 1 2 1h-1l-2 1-1 1v1h3c1 2 0 16-1 17l-1 1 1 1a1 1 0 110 2 2 2 0 103 2h1v-1c-1-2-1-8 1-9l1 2v3l1-2 1-2c1 0 1-1-1-1-2-1-4-5-1-5l1-3c-1-2 0-5 1-7v-4c0-1-1-1-1 1-1 1-1 1-1-1l2-2 1-3 1-2-1-2h-2v3l-1 1-1-1c1-2 0-5-1-5l-1 2-1 1c-2 0-2 1-2 5l-1 4c-2 0-3-2-3-7 0-3 0-4-1-3-2 2-4 1-4-1-1-1-1 0-1 3m-74 9l-4 1a8 8 0 00-6 2l-4 1-9 3-7 1 2 1h3l-1 1h-1l-2 1c-1 1-2 1-1 2a1 1 0 11-2 1c0-2 0-3-1-2l-1-1 1-1 1-1h-4c-2 0-2 8 0 11l3 8 3 7v-2l1-1c1 1 1 1 1-3l1-1 3-1 4-1 1-2 1-1 2-2 3-2c2 0 2 0 1 2-3 5-6 15-4 12h1l-2 3c-2 1-3 4-4 6l-8 20c-7 15-7 18-4 18v1c-4 3-1 6 7 6l5 1h2l3-1h3l3-1h-7c-10 0-15-1-15-2h4l3-1c-1-1 0-1 2-1s2 0 1-1h-5l-3-1c0-3 2-7 4-7v-3l1-2v-2l3-6 1-4c1 0 2-3 1-5l-1-2 1 1a1 1 0 002 0l3-7 3-6c1-6 3-8 3-4l2 4v4l3 4c2 3 5 2 8-3 2-4 2-4 1-7-2-3-1-6 1-5l-1 2h2c5-1 6-1 6-3-1-2 2-2 3-1 2 2 3 10 1 9h-1c0 2 2 4 3 2a1 1 0 012 1l1 1v1c-2 1-2 1 0 1s2 1 2 4c0 4 0 4 1 3 0-2 1-2 1-1l1-1c1-2 1-2 1 1v7c1 2 0 3-1 4v1a1 1 0 11-1 2l-3 1 6 1c7 0 9-1 9-2l-1-1-1-10c0-9 0-11 1-10v-1c-2-3-2-18 0-19v-1c-1 1-2 0-2-3s0-3 3-3l3-1-4-1a3 3 0 01-4-1c-1 0-3 5-2 7l-2 6c-1-1-2 0-2 2s0 2 2 1c1-2 1-2 1 1l-1 5v9c-2 1-2 1-2-1l-1 2c-1 3-1 2-1-3l-1-9c-2-1-4 1-2 3 2 1 1 2-1 2-2-1-2-2-1-4l-1-4c-3-1-2-2 1-4h2v2l2-2c2-4 3-6 1-5l-1 1-1 1c-2 1-1 0 2-3l2-3c0-2 6-6 8-5v-3c0-4-2-5-2-2l-1 2v-3c0-1 0-2-1-1l-3-1c-4-3-6-4-10-3-2 0-2 0-1 2l1 2-2-1-2-1v-1c2-1 1-2-2-2s-3 0-2 2h-1c-2-2-6-3-7-1h-2m65 2v18l1 3h1l-1 2v8l1-1v-25l-1-5-1-2v2m-203 8v5c1 1 3 7 3 12 0 3-3 4-7 2-7-3-7-3-7 1v5c-2 1 2 3 4 2h7l-2 1a2 2 0 00-2 1c0-1 2-1 5 1 2 2 2 8 0 13v3l2 4 1 3 1 5c0 4 0 4-3 4-4 0-5-1-2-3l2-3c-2-2-3-1-2 1l-1 1c-2-1-5 2-3 3v6l-1 4a4 4 0 01-5 6l1 2v2l-2-2-2-2c-2 0-5-3-3-3v-1l-4-3h-1l1 1 1 3c1 3 0 3-1 2a15 15 0 01-4-10v-6l1 1h1l3-2c2-1 2-1-1-1-2 0-3 0-2-1 0-2 0-2-2-2l-2 1-2 1c-2 0 1-3 4-3 2 0 2 0 1-1-2 0-2-1-1-1l-1-1c-1-1-2 0-3 1h-1l5-4 2 2c1 1 1 1 1-1v-2c0 2 2 1 1 0 0-2 1-2 3-2v-3c-1-1-6 1-6 3l-2 1c-1-1-2 0-3 2l-3 3c-1 0-1-1 2-6 4-7 5-16 1-19-2-1-7 1-8 4-1 5 3 10 4 5v-2c-2 0-1-4 0-4 2-1 4 6 2 8v5c0 3 0 4-2 5-2 2-4 8-3 9l2-2c2-1 2-1 3 2s1 3-1 3l-2 1 4 2a14 14 0 014 9v4l1 3-2-3-1-5h-2l-1-5-1-2-2 2-1 2h-1c-1 0-1 2 1 3l1 4c-1 1-3-2-2-3l-4-5-2-4-1-1c-2-3-4-2-2 1 1 2 1 4-2 11-2 5-2 13-1 18l1 3v-3c0-4 0-4 4 0 2 3 3 5 1 5l-2-1-2-1-1 3c2 11 2 21 1 21l-3 1c-3 1-2-2 0-3s2-1-1-1l-3 2-1 2-1-2v-3c-1-1-1 0-1 3l-1 5-1 3-1 1-1-1-3-1c-2 0-2 0-1-1v-1l-4-1h-3l-1-2v-3l-1-2c1-1 0-2-1-1l-1-1-1-3c-2-5-1-8 0-5 2 1 2 1 2-1 0-4 1-7 3-11s2-8 0-6v1c1 2-2 7-5 7-2 1-2 0-1-3l2-4c1-1 0-2-2-4s-3-3-2-4v-3l1-2 1-1 1-1a2 2 0 100-3v-1l2-1c2 1 2 0 3-2l2-2 1-1v-1l1-1v-1l1-1v-2l1-1v-1l1-2 2-3v-2l1-1 2-4 2-4-2 3-3 3c0 2-4 8-6 7l-1-1c0-3 0-4-1-3v1l-2 1c-1-1-2 0-2 1l-3 1c-1-1-1-1-1 1a1 1 0 11-1 1l-7-6-1 3 1 2 1 2-1 1h-3c0 2-2 0-2-2l-2 1c-3 3-4 6-1 4h2a2 2 0 104 0l1 2c0 2 3 3 5 1l1-1c2 0 1 3-1 5l-2 3 1-1c2-1 2-1 2 3l-1 5-1-2c0-1-1-2-2-1l-2 2c0 2 0 2-2 1-1-1-2 0-3 1-2 1-2 1-1-1l3-4c1 1 5-2 5-5 1-2-1-3-3 0h-2v-2h-2c-1 1-2 0-4-2a7 7 0 00-3-5h1l4-3a11 11 0 014-5h-2v-1c2-3 2-3 0-2l-4-1c-2-2-3-2-3-1l-2 4-2 3h-5v1l4 3c3 0 3 1 3 3 0 1 1 2 3 2 2 1 2 1 1 6l1 4 1-2 1-1c2 0 2 1 0 3s-2 3-2 6v4h1l2-1c1 0 2 1 1 2v1h-2c-2 0-2 0-1 1l1 3c-1 2-1 2 2 0l1-2h2l4-1c1-2 1-2-1-1l-2-1c1-2 0-2-1-3l-1-1c0-1 4 0 4 2 1 1 1 1 1-1l1-2v5c0 5 0 6 2 6l2-2 1-1v2l-1 4-1 4c-2 1-2 4 0 5v8l1 3 1 2v-3h1c2 2 1 6-1 6h-2c-2-1-2-2-1-2 2-2 1-6 0-4h-3l-2 2c-1 2 2 6 6 6l6 3 6 2 3 2 2 1c1 0 2 4 0 4v4l-1 3h-1l-1 1v2l-1 2-1-1h-1c-2 0-2 1-1 1l2 2c1 0 1 1 0 0l-1 5c0 2 0 4-1 3l-2-2v4l2 4 1 2 1 1v1a2 2 0 10-3 3l1-1v-1c2 0 1 8-1 9v-2l-2-1-1 2c0 3-2 2-2 0v-1l1-1-1-2v-2c0-2 0-2-1-1l-1 7c0 10 1 12 2 13l1 4a10 10 0 001 6l2-1 1-1h-1l-1-1-1-2v-1h2v-1l-1-2h3l-1-3-2 1 1-3 4-4-1 3c-3 2-2 2 1 0h2v3h1l1-1c1 0 0 4-3 11-3 5-6 9-5 5v-2l-1 5c0 5-3 14-6 17h-8l-18 1H1v-6l-1 13v13h641v-24l-4 1c-4 0-6-2-6-4l-2-2-1 1v1l-2-1h-1v-1c1-2 1-2-1-2h-2l-1 1h-1v-3h-4v4h-1l-2 1h-1c1-1 0-2-2-2l-4 2-1 1v-2h-3l-3-3c-4-1-6 0-4 1 1 1 2 2 1 4 0 2 0 2-2 1-2-2-4-2-4 0l-2 1c-3 0-3-2-1-2 2-1 2-1 1-3h-2c1 2 1 2-1 2s-2 1 0 3 2 2 5 1c2-2 4-2 4-1h3c0-2 1-2 3-2v-2h-1c-1 1-2 1-2-1 0-4 4 0 6 5 1 5 0 5-2 2-1-3-2-3-2 0l-2 1-1 1-2 1-2-1h-9c-3 0-5-2-2-3l1-1h-2c-2 0-2 0-1-1v-14l1-7a9 9 0 00-5-11l1-1 3-2 5-4 2-2v-4l-1-3-1 3c0 2 0 2-1 0h-2l2 2c2 2 1 3-2 4-2 1-2 1-4-1-1-1-1-1-1 1v3c-2 0-2 0-2-5-1-4-1-4 1-4 2 1 3-2 1-10-1-4 0-5 1-6 3-3 2-3-1-1l-4 2-3 3-2 2v-3c-2-2-2-2-1-4v-2l1-2c2-4 3-4 3-1 0 2 0 3 2 2l1 1 1 2a7 7 0 00-2-10h5l1 1-1 1v3l-1 1c0 2 1 2 2 1h1l1 1v7c2 1 2 1 2-1l1 3c0 4 2 6 3 3l-1-2-1-3c0-2 0-3 4-3 3 0 3 1 3 3 0 3 0 3 1 2s1 0 1 3c1 4 1 3 1-2 0-8 2-11 4-6 2 3 3 9 2 14v2l-1-2c-1-2-1-1-1 2v9c1 1 2 0 1-1 0-1 1-2 2 0l-1-4 1-1c1 0 3 4 3 7 0 2 1 3 2 3v-2l1-2 1 1a2 2 0 002 2l3 2c3 3 2 3-1 2h-3l1 1c1 1 0 1-1 1-2 0-3 0-3 2 1 1-1 2-1 0l-2-1c-4 0 5 5 10 5 3 1 9 6 9 8-1 2 2 1 3-1 1-4-1-7-4-6l-2-1c-1-2 0-3 2-1 1 1 1 1 1-1v-2c2 0 3-2 1-3l-1-3c0-1 1-1 3 1l2 1c0-2-4-4-6-3h-2l-2-1-2-1h1c3 0 3-2 1-3l-2-2 1-1h1c1-1-4-6-5-5-3 0-3-2 0-4v-2c-2 0-1-1 2-1 2-1 2-1 1 1v2l3 1 2 2c1 1 1 1 0 0l-1-3-3-5c-3-1-3-3-3-3 1-1 0-1-2-1-3 0-4 1-3 2l-2-1-3-3-2-2h-1l1-2a1 1 0 00-1-1l-1-1 1-1v-1c-1-3-1-7 1-7 1 0 2 0 1 2h1c2 0 2-2 1-2a3 3 0 011-6l-1-1-1-2-1-2-1-4v-5l-1 3c0 4-2 6-3 4h-3c0 1 2 2 5 2 2 0 2 1 2 5s0 5-2 5l-1 3c1 2 0 3-2 1h-1l1 1c2 1 2 6 1 6l-3-2c0-2-2-3-2-1h-3c-3-1-3-1-3 1l2 2h2l1 2c0 1-3 2-4 0h-1l-1-1v-3c0-2 0-2-1-1-3 2-5 0-5-6l1-5 1 1 1 1c2 0 3-5 2-8-1-1-1-1-1 1 0 3-3 4-5 2h-2c-3 1-4-1-5-9 0-5 0-6 1-5a1 1 0 101-2l-1-1-1-3v-7l-1-3-1-3-1-7-3-15c-2-16-3-16-2 2 0 18 1 22 2 21l1 1-1 1c-1 0-2 1-2 3l2 2v5l1 6 1 8c0 6 0 6-4 10l-5 5c0 2-2 4-3 3h-1l1 2v1l-2 1c-1-1-4 4-3 4v5l-2 2v-5l-2 6a18 18 0 01-5 8h1l-3 2-4 4c-1 2-3 4-5 4-2 1-2 1 1 1s5 4 2 6v1c2 1 2 2 1 5l1 5v3c-1 3-1 4 1 6l2 5 2 3h1l1-1-1 4c0 2 0 2-1 0-1-1-1-1-1 1 0 4-12 3-14-1s-3-4-3 0c0 2-1 3-2 0h-2l-1-1c1-1-1-4-3-8-3-6-4-9-3-11l-1-6c-3-4-2-5 0-5l2 1c0 2 2 1 2-1s-6-2-7 0c0 1-6-2-7-4l-3-3c-2-3 1-4 4-2l9 1c5 0 6 1 5 2l1 2h1l2-1 1 1v2l1 4h-2l-1-1a5 5 0 004 4h4l1 1-1 2h1c2-3 1-5-1-4l-1-1 2-2c2-1 2-1-1-1s-4 0-4-2c-1-2 0-2 3-2a1 1 0 10-1-3h-2l1-1c3 0 4-3 2-3-2-1-2-1-1-2l2-1 1-1c0-2-5-5-11-5l-11 1c-2 1-3 1-4-2-2-3-9-3-14 0l-5 1-3 1h1c3 0 7 4 7 7l2 1 1 1h-1c-1 0-1 1 1 2 4 5 4 7 2 9s-2 3-1 6v4l-1 4c0 3-1 5-2 4l-1 2v5l-1 1-2 3c-1 3-4 4-10 4-7 0-7 0-9-4-1-2-2-4-1-6s-1-4-3-2l1 1c2 0 1 3-1 2-2 0-4-3-6-6l-2-5c0-2 0-2 2-2h2l-1-1-3-1a6 6 0 015-8c-1-1 4-6 5-6l1 3c0 3-2 4-3 2l-2-1c-1 1 1 3 4 3 1 0 2 0 2-3 0-4 1-7 1-3h1c2-3 2 0 1 3-2 3-3 8-1 5 1-1 1-1 1 1l1-1 1-4 3-1 3-1h-2c-2 0-3 0-4-2l-1-3v-1l2-1 1-1h5l-3-2-1-2c0-3-2-1-3 3-1 1-1 1-2-1l-1-2-1-4c0-4 0-4 3-3h4l-3-2-4-2c-1-2-2 1-1 4 0 2-1 3-2 2v-3c-1-1 0-4 1-5v-1l-2-2-1 2c-2 4-3 4-3-1l1-4-1-3-2-3v-2c1-2 2-2 3 0v2c-2 0-1 2 1 2 2-1 5 2 4 4v1h2l1 1c-1 2 2 1 5-2 5-4 3-14-3-12h-2c-1-1-1 0-1 2s0 3-1 1l-1-1-2-1c0-2-4-3-4-1l-3 1c-2 0-3 1-3 6-1 6-1 6-1 1a7 7 0 013-9c1-2 0-2-2-1l-3 2v12c3 2 4 0 4-4v-4l1 3 1 2h1v4h1l-1 2h-3c-1 1-1 1 1 2 1 2 2 2 2 0v1l1 3h2l1 1c1-1 1 2-1 3-2 2-2 2-2 0a2 2 0 00-2-1v7l-1-1-1-2-2-1c0-1-4 1-4 3-1 1-1 1 0 0l1 1a2 2 0 01-3 1l-1-1c-2 1-6-3-5-4l2 1 2 3v-4l-1-7-1-4v2l-1 1-1-2-1-3c-2-1-2-1-1 2v4l-1-2-1-2-2 2 1 1h1l-1 1-1 3 1 3a2 2 0 11-2 3h-1v3a2 2 0 01-3 2c2-3-9-5-12-2h-3a17 17 0 00-16 0l-4 1a7 7 0 00-5 1v-1c-3 0-5-7-3-10h-1c-1 1-2 3-1 4l-1 2-1-2h-1c-1 1-1 1-3-1-3-3-4-3-4 0l-1 2c-3-1-2 1 0 6a4 4 0 011 5c1 2 4 1 7-1l2-1c1 5 1 7-1 7l-1-1h-2c-4 2-7 7-4 7l2-2c0-2 0-3 3-3l4 1 2 1c2 1 3 5 2 6-1 2-1 7 1 7l1-1c1-1 1 2 1 5h1c2-2 2-3 1-3v-2h2l1 2c1-1 2 2 1 3v2c1 1 1 1-1 3s-2 2-3 1l1-2 1-2h-1l-3 2v2l-3-1 1-2-1-1h-1l-1-1c-2 1-2 1-1-1l2-1 1-1h-6l-2-1-2-2v-4h5l1 3v3l1-5c0-6-3-10-5-9s-2 1-1 3c2 2 2 2 0 2l-3 1c-2 1-2 1-3-1l-2-3c-2 0-1-3 1-4 1-1 1-2-2-2a3 3 0 00-3 4c0 2-1 2-2 1-2-2-3-3 0-3l1-1h-2c-2 0-3 0-3-2-1-2 0-3 1-3v-1c-1-2-3-2-6 1l-5 2c-3 0-2-3 1-4 3 0 7-4 7-6l2-1 2-1c1-1-2-2-4-1v-2c1-3 1-3-1-3l-1-2c1-1-3-11-4-11l-1 2c-1 1-1 0-1-2 0-4 0-4 1-2h1c0-2-1-4-3-4s-2 2-2 5l-1 3v1a1 1 0 010 3v1l1 5c-1 2 0 3 1 3v2c-1 0-2 2-1 5l-1 4-1 5a6 6 0 01-2 6v11h2c2 2 7 2 6 0h-3l-2-1 4-2 1-1h8l1-1 3-1 2-1-1 2c-1 1-1 1 1 1l3 2 2 1 1 1c0 1 0 2 2 2 4 1 8 4 9 8a8 8 0 004 5l2 3c1 2 0 2-18 2l-20-1c0-1 1-2 2-1l1-1h2l1-1 2-1c1 0 2 0 2-2s0-2 1-1 1 1 3-1l3-2v-6c3 0 2-2 0-2-1-1-3 0-4 2l-3 2c-4 1-7 2-5 3 2 0 1 1-1 2h-5c-2 2-3 3-1 3a2 2 0 11-1 2l-3 1c0 4-29 6-33 2-2-1-3-1-3 1 1 1 0 1-5 1s-7-1-6-2h1l1-1h-3c-1 1-1 1-1-1s0-2-1 1l-1 3v-3c0-3 0-3-1-2-2 2-5 1-5-1l2-1c1 1 1 1 1-1l-1-2c0-2-3 3-3 7l-1 3h-8a34 34 0 01-11-1l-16 1h-17v-6l1-8c1-4-1-9-2-8v22h-22c-24 0-25 0-24-3l-1-1c-1 1-1 0-1-1l1-2 1-8v-20l-1-12-1-5-2-5c-3-3-3-3-1-3l2-2 1-4 1-4v-2l-2 2-1 4-1-1c0-3-2-2-2 0l-1-1-1-4c1-2 1-2 1 0l1 2 3-3 2-4 1-4 1-3v-1c-1 2-4 3-4 1h1l1-1c0-2-2-3-2-2h-1l1-2 1-2v-4l1-2 1 3v4h1c0-2 0-2 1 0s1 2 1-1v-4l3-5 4-3-4 2-5 2v-3c-1-1-1-1 1-1 2 1 6-1 5-2h2v-1c-1-2-1-3 1-3l1 1 2 1c1 0 1-1-1-2l-1-2 1-1c-1-1 0-2 1-2l3-3h2c0 2 1 2 1 1l3-1 2-1-1-1c-3 0-8-6-7-8v-5c-2-3-3-6-1-5v-4c-2-2-2-3 0-3 1-1 2-1 1-3v-17l1-7 1 1c1 2 2 1 2-5 1-3 0-5-1-6v-3l1-2a3 3 0 002-1 1 1 0 010-3 3 3 0 001-5c1 1 0 3-1 4-7 6-7 6-7 12 1 4 1 5 2 4h1l-1 3-2 4-1 2c-2 1-2-1 0-2l-1-1-3 2c0 1-1 4-3 5l-2 5c0 2-4 6-5 5l-2 3c0 5-6 11-12 12l-4-2-2-2v-1c1-3-1-2-3 1l-3 1c-1-1-1-1-1 1l1 3 1 3 1 2 3 1-2 1h-3l1 1h1l2 1h1l1 3c1 1 1 1 0 0-3-2-4 0-1 3 2 2 2 4 0 2h-2l3 2c2 1 3 4 1 3s-5 0-4 1l-1 1v1l-2 1-1-2-1-1-2 1-2 1-2-1c-2-2-4-1-3 1l-2-1-1-3c1-1-3-5-4-4v-2c3-4 2-5 0-2h-2v-3l1-2 1-1h2l1 2c1 2 2-1 1-3v-1l3 1v-1l-1-1h1l1-1-3-1h-2c-1-1 0-2 1-3 2-2 2-2-2-3-5-1-7-4-2-4l2 2 1-1c1-4 1-4-2-5h-4v-2l2-2v-5l-1-2c-1 0-5 6-5 8l-1 2c-1 0 0-13 2-13v-1l-2-1c1-1 0-2-1-2l-1 1-1 1-1-2c0-2 1-2 2-2 3 0 4-3 2-8-1-4-2-11 0-13l4 1c3 1 7 1 7-1l-1-1-2-1h1v-3c0-4-2-5-3-4-2 1-1 3 1 2v3c-1 4-7 3-7-1 0-2-1-3-3 0h-3l3-3c2 0 2-1 2-4-1-1 0-5 1-8v-7l-1 1c0 2-1 2-3 1-2 0-3 0-2 1 1 3-1 2-2-1-2-3-2-3 1-2 3 0 2-1-1-1h-3m78 1l1 1 1 2 1 3 2 6c1 4 3 6 3 3l2-6c2-4 2-8 0-6a4 4 0 01-7-2v-1c1-1 1-1-1-1l-2 1M80 175l-2 1-3 3c-1 1-2 2-5 2-4 1-5 2-2 3 2 0 2 0 1-1h2l3 1h1v-1c0-2 1-3 2-3l1 1h1l1-1 1-3v-3l-1 1m194 11c-2 10-2 21-1 21 3-3 4-10 1-12v-3l1-7-1-4v5m71-2v15c0 13 1 16 3 14 2 0 1-2 0-2-1 1-2-2-1-11l2-1 1-1h1c1 2 1 3-1 4-2 0-3 4-1 4v2l1 2c1 2 1 2 1 0a3 3 0 011-3 2 2 0 010-3h2a3 3 0 002 5h3l3-2v3l-1 4-1 4c0 3-1 5-3 7l-3 5h-1l-1-2-1-3v-5l-2-3c-3-1-3-1-2 1l1 1v1l-1 1-2-1c-2 0-2 0-1 1l2 8c0 4 1 5 1 3l1-4 5 9 1 1c1-1 1 0 0 0-1 3-3 2-4 0-3-5-6 1-4 6l1 4c0 1 0 2 4 2 2 0 3 0 2-1-2 0-2-1-2-3l-1-1-1-2-1-2v-1c1-2 2-1 2 1s0 2 1 1l2-1v6c-1 1 0 1 1 1 2 0 2 0 1-2v-2a10 10 0 00-1-12l2-2c0-2 1-3 2-3 1-1 2 0 1 1l1 3c2 2 2 6 0 8s-2 2-1 4h1l2-2c2 0 2-1 1-9l1-10c2-2 2-3 0-5-1-1-1-1-1 1v1l-2-3v-1c1 0 2-1 2-7s0-7-1-5c-1 3-3 3-3-1l1-2v-1l-2-1c-1 1-5 1-5-1l-3-1h-3v-6c0-7 0-8-2-6m-54 2v13c0 2 0 2-1 1h-1l2 3c1 1 2 12 0 11-1-1-1 0-1 1l1 1h2c1 1 1-19-1-24l1-1v-3c0-3-1-3-2-2m35 5v12c-2 2-1 11 1 11l1-1-1-1c-1 0-1-7 1-8v-4l-1-8c1-5-1-5-1-1m-178 3v1l-1 2-1-1-2-1c-2 0-2 0-1 1v1l-1 3c0 2-1 3-2 3s-1 1 1 3l1 2v10l2-2 1-1v1l-1 1h3v-7c-2-2-2-2 0-3v-3c-2-2 0-6 3-6h2l-2 2c-2 2-1 6 2 5h2l2-1 1-8h-1l-5-1c-2-2-2-2-3-1m267 1l2 3 5 19c0 3 1 4 3 2 1-1 1-1 3 1 2 4 5 4 4 1 0-2 0-2 2-1 3 2 4 1 2-2l-4-3-2-1-2-2a7 7 0 01-4-6l1-1-2-1v-1l-1-3-2-2-1-1-1-1-1-2-2 1m-405 6l1 8c1 2 1 3-1 4-1 1-1 1 0 0a8 8 0 015-1l-1-2h1l1-1h-4v-9 3l1 2 1 1v1l1-2-1-2-2-4-2-2v4m61 1v3l-1 2-1-2-2 2v3l1 1c1 0 1 1 0 0l-1 7-1 2v-1a2 2 0 10-3 1c2 1 2 1 1 2s0 7 1 6v3c-1 2-3 0-2-2 0-2 0-3-3-2l-3 1-1 2v1l2 1-1 1c-2-2-4 0-2 2l1 1c-1 0-3 3-2 5l-1 2v2l-2 1 2 1h5l2-1h3c1 2 1 3-1 5-2 1-3 2-4 1l-1 1c0 2 7 1 8 0 1-2-1-13-2-12l-1-3-1-3c-2-2-2-2 0-2s3 1 3 2c0 2 0 2 1-1 1-1 2-4 4-4 1-2 1-2-1-3-2 0-2-1-2-3l2-7v-4l2 3 1 6 1 3v-2l1-3 1-5 1-4c1-1 1 0 1 1 0 5 3 3 4-1a5 5 0 00-3-6l-1-2v2l-1 3-1-2v-1c-1 2-2 1-1-2 0-4 0-4-2-1m99 12l-2 11v9l1 4v2l1-1h2c2 0 2 0 2-2v-3c1 0 2-5 1-6-1-2-2-1-2 2l-1 2v1l-1 2v-11l1 1c-1 1 0 2 1 1v-2l-2-4c0-3 0-3 2-2s3 1 3-2c0-2-1-2-2-2-1 1-2 0-2-1l-1-1h-1v2m-117 3l-2 4c-2 2-2 2-2 0v-2l-1 2c-2 3-2 8-1 8v-1l1-2 2-1 1-1c1 1 4-5 3-6l1-1 1-1c0-2-2-1-3 1m154 3v2c-5-3-6 17-2 25 1 3 0 2-2 0l-2-1 1 1 2 3c0 3 3 7 5 7 1 0 2-2 1-4-1-1 0-2 1-2l1-4c0-2 0-2 1-1h2v-6l1-1-2-1 1-1 3-1c1-2 1-2-1-1h-4c-2 0-2 1-2 3l1 3h1c0 1-1 2-2 1l-1-6c0-4 0-5 2-3s2 2 2-3c0-4-1-5-3-6s-2-2-2-4c1-1 0-2-1-2-1-1-1 0-1 2m84 7c-1 0-2 1-2 3l-1 3v5l-1-3c-1-2-3-3-4-1v1l1 4v4l1-3c0-3 0-3 2-2v2l-1 1c1 3 4 2 3-2l1-4v-3l2-2c3-1 4 0 3 2l2 1c1 0 2 0 1 2l1 1 1 4c0 2 0 3 1 2l2-1-1 3c-1 1-1 1 0 0h3c2 0 2-1 1-4-1-2-1-2 0 0l-1 3c-1 0-2-5-1-6h2l2-3 1-4c0-2 6-1 8 1h1l1-1c1 1 1 0 0 0l-1-2-6-1h-3c0 2-3 3-3 1 0-1-1-1-2 1h-1v-1c-1-1-1 0-1 2s0 3-1 2v-2l-1-2-2 2h-1c0-2-3-4-4-4l-2 1m168 1c-2 2-2 2 0 2l6 2c3 3 4 3 5 2v-3l-2-1-7-4-2 2M9 230l-2 3-2 4H4l1-3c-3 3-4 5-3 5l2 1 1 3v-2l1 2 1 1c2 0 6-5 6-6l2-3c1-1 2-4 0-4l-1 2h-1c-1-1-1-1-2 1 0 2-1 3-2 3-2 0-1-4 1-6l1-2-2 1m111 3l-2 1 2 1v2l-2 3-4 1 4 1c4 0 4 0 4-3s1-5 3-5c2 2 1 3-1 2v6c2 3 5 5 3 2v-6c-1-6-1-6-7-5m198 4v5h2l-1 2-1 1h2l2-1v-1l1-2 1 1c1 1 1 0 1-2 0-3 0-3-1-1h-2c0-2 0-2-1-1v-6l-3 5m-53 0h-2c0 1 0 2-1 1l-1 2v3c1 2-1 5-4 5l-2 2h-3l-1-1-1-1 1 2c1 3 3 3 8 2h4a2 2 0 113 2l-2 1h-2c-2-1-5 1-4 3h1c0-2 2-2 4-1h1l1 2c0 2-2 3-3 1l-1-2v1l-1 1c-2 0-2 1-2 4s0 4-1 3l-1-3-1-4h-1l1 1c1 1 0 1-1 1-2 0-3 0-2 1l3 3 2 3 3 1c1 1 1 1 1-1l-1-2v-1h3c1 1 3 0 3-3h2l1-1v-1h1l1 2 1 5 1 6c2 3 0 7-3 5v1c2 2 5 0 5-3l-1-7-1-2c0-2 0-2 1 0 1 1 1 1 1-1a28 28 0 000-9 3 3 0 00-2-4c0-1 3-2 12-2l9-2 3 1c-1 1 0 1 3 1l5-1-1-1h-15a16 16 0 01-12-1 1 1 0 01-3 0c1-2-1-2-3-1h-1v-1l-1 1h-1c0-6 0-8-1-6v2a2 2 0 11-4 2c-1-2 0-5 1-4l1-1c0-1 0-2 1-1l1-1v-3l-1-1-1 2m-200 2l1 2c1 0 2 4 1 6v1l1 4 2 10v3c-1 3-1 3 1 2l1 1c-1 1 0 2 1 3 1 0 3-1 1-2l-3-7v-8a15 15 0 01-1-3v-12l-1 1c2 2-1 1-3-1h-1m296 5l1 1 1 1-3 1c-3 0-3 0-2 1 4 2-9 4-16 2l-1 1 2 1c4 0 2 2-3 2a4 4 0 00-5 6l1-1 1-1 1 3a8 8 0 003 8c-1 2 0 3 1 2 1-2 1-2-1-3-1-2-2-3-2-9l-2-2v-2l3 1 2 1 1 2h1l-2-3c-1-1-1-1 1-1s2 0 2 7l1 7 1-2 1-1 1-2h1l3 1c1-1 1 0 0 0 0 1-1 2-2 1l-2 1 4 1 1 1c0 4 0 7 1 6v-3l1-2 1 3v4l1 2c-1 1-6-5-5-6h-3c-1 1 1 3 4 5l4 4h-3c-3 0-3 0-3-2 1-1-1-4-2-4l-1 3 1 2v2h-2v1l1 1v2l2 1h4l1 1-1 1v2l1 2 1 1 1 1h-1c-2-2-3-1-3 1s0 2 1 1 1-1 1 1v2l2 4 2 6 2 3v-3c2 0 2 1 2 3v2c2 0 1-29 0-31v-6c1-2 1-7-1-7l-1 2v1c-2 0-1-5 0-5 2-1 3-7 2-8a13 13 0 011-10v-2l1-3c-1-2-5-5-5-3m235 0v2c1 1 2 2 1 3 0 1-1 1-2-2-2-2-2-2-2 1l-4 2-3 1 2 1h1c0 1 1 2 4 1a3 3 0 014 1l2-2 1-2v-5c-2-2-2-2-4-1m-207 6l2 7 2 8 1 6c2 0 1 2-1 2-4 0-7 2-6 3l1 3c-1 1-1 2 2 6l1-1c1-1 2-1 2 2l1 3v1h-2v4l2-1h1v5c-1 1-1 1 1 1l2 1 2 1c2 0 2 1 0 5-1 3-1 3 1 3h3c1 1 0 2-1 1l-1 1 8 1c8 0 13-1 12-2l1-1a3 3 0 000-4v-6l-2 2-1 1v-6h-1c-2 2-3 1-2-1 1-3-1-5-2-3-1 1-1 1-1-1 1-1 1-2-1-1-1 0-2 0-2-3l-3-3v-4l-1-3c-1 1-3-1-4-3l-3-2c-4 1-6-4-4-8l2-5-2 2c-1 2-1 2-1 0s0-3-1-2l-1-2c0-2 0-3-1-2v-7l-2-1c-1-1-1 0-1 3m124 0c-1 2-2 2-2 1h-5c1-1 0-1-2-1s-3 0-2 1l2 1h1v2c2 0 3 0 3 2l-1 1h-3c-1 2-5-3-5-5 1-1 0-2-1-2l-1 4c-1 3-1 4-3 3a5 5 0 00-6 1l6 3 5 2a1 1 0 111 2l-3 3-1 2 2-1 5-2c1 0 2 0 2-3 0-4 3-6 3-2l1 3v-4c0-3 1-4 2-5l2-3 2-3v-1l-2 1m-152 2l-1 1h-2c-1-1-9-1-9 1l6 1c3 0 5 0 4 1l-2 1h-1c-1-1-1-1-1 1l1 1 1 1-1 1-1 1a4 4 0 007-5 29 29 0 00-1-5m-334 8l3 4-1 6-2 5c1 0 2-1 2-3l2-2 3-5c1-6 1-6-1-5l-3 2c0 1-1 1-2-1l-1-1m218 1v5l-1 4 1 4v5c-2 1-3 3-1 2l1 1 1 3 1-3 1-2 1 2 2 3 2 3 2 2 2 2 1 1 3 1h-2l-2 1v1c-2 0-1 5 1 6l1-1v-2l1 1 1 1 1-4c0-2 2-2 4 2 2 2 2 4 0 2-3-2-3 0-1 2l1 2 2 1v-1c-1-1 0-2 2-4 2-1 2-2 1-2-2 1-11-7-11-10l-2-1c-3 1-4-3-2-4v-1a1 1 0 112-2c2 1 4 0 3-3-1-2-1-2-1 0s0 2-3 1c-2-1-4 0-3 1 0 2-4 1-6 0v-4l1-2c0-2-2-3-2 0-1 1-1-1-1-4 0-4 1-5 2-4 1 0 2 0 2-2 0-1 0-2-2-1-1 0-2 0-2-2h-1m-6 7v14l1 4 1-2v-8c2 0 2-3 1-5-1-1-2-2-1-3v-1l-2 1m60 8c0 3 0 3-1 2h-1c0 2-1 2-2 2h-3l-2 1-3 2c-2 2-1 3 1 1l4-1 5-2h11c4-1 4-1 1-1l-5-2h-3c-1 1-1 1-1-1l1-2v-1c-2-1-2 0-2 2m234-2v1c-2 1-2 2-1 3v3l-2-3c-1-2-2-2-6-1h-4l-2 1c-2 2-3 5-1 5l1 5v14l1 3 1-3 1-7v-1c0-1 1-2 3-1 4 0 6-1 2-2-1-1-1-1 1-1 3 0 3-2 0-2l-2-1v-2l-1 2c0 3-1 4-3 3v-4c1-2 1-2 1 0 0 4 1 4 1 0l-1-3c-2 0-1-2 1-2v-2l1-1 2 3 2 2 2-1 4-2 3-1h4l1 2v-3c0-3-4-5-6-4h-1l-2-1v1m-451 6v5l-1-5-1-4v8c2 4 2 4 0 4h-2l-1 1c-1 0-2-1-1-2 0-1 0-2-1-1h-1a11 11 0 00-3 16c1 1 1 1 1-1a41 41 0 011-7l2 4c2 5 2 10 0 8-2 0-3 2-2 3l-1 4c-1 2-1 2-1-3 0-6-1-9-2-4v4l-1 5c-2 2-2 3-1 3 4 2 1 6-4 7-3 0-3 0-1-6l-1-1h-2c-1-1-1 0-1 3l1 6c0 2 1 3 2 3l1 2 1 2 1 1v1c-1-1-3 4-2 5l-4 9-3 9c1 1 2 0 3-1l-1 7c0 3 2 2 4-2l4-11c2-7 4-11 4-8l-1 5-1 3 2-3 1-1v2l-1 4-2 6c0 3 0 3 1 2l2-4c1-1 1 0 1 2-1 2 0 4 1 5v5l1 4c0 4 1 6 2 4l1-1c0 2 2 3 4 1l-1-1v-1h2v4c2 0 2-6 0-9l-1-2v-2l-1-5v-4l-2 1c-2 0-2 1-2 3s1 3 2 3l1 1-2 1-2-1-1-2c-1-1 0-8 2-8v-1c-2-1-2-1 0-1h2l-3-1c-2 0-1-3 1-3 2-1 3-1 3 1 1 1 1 0 1-2l-1-2c0 2-2 0-2-2l-1-2c-2 0-2-1-2-3l-1-4-1-1 1-2 1-1 1-6 3-7 1-1 1 4v7a164 164 0 012 21l-1 1 1 1c1-1 1 1 1 3l1 5 1 7 2 4v1l-1-1v3c-1 1 0 2 1 2 2 0 2-1 2-6-1-5-1-5 2-5h2l-4-2c-3 2 0-5 2-6 3-2 3-2 2-3-2 0-2-1-1-2l2 2c3 3 4 3 4 0 0-2 0-2 3 0l4 3v-3c0-3-1-4-2-5l-2-1c-1-1 0-2 1-1l1 1 1 1v-1l1-2c1 0 2 4 1 9-1 8 1 19 3 16v1l-2 2v3c0 2 3 3 3 1h4c4 3 4 2 5-11l1-11c1 0 2-1 1-2l1-3 1-4c0-4 4-13 5-12l1-8c0-3 0-3 1-2h1l-1-2-1-2v-2l-2-2-2-3-2-5-2-7-3-7c0-2-3-2-6 1l-8 2c0-2-3-1-6 1l-2 1-1-1c-1 0-2 1-1 2l-3-1-4-1 2-8c4-10 5-14 3-14-1 0-5 5-5 7l-3 5v-2c1-2 0-11-1-12v5m200 6l-1 4c-1 2-1 2 1 2 1-1 1-1 0 0l-1 3v5l-1 2-2 1a4 4 0 000 6l2 2v-3c2 1 3-1 1-1v-1l2-1c0-2-2-3-2-1h-1v-2c1 1 8-7 8-8l-2-1c-1 0-2 0-2-2 0-1 1-2 2-1l1-1c0-2 0-2 1-1l1-1-3-1-2-1c0-2-1-1-2 1m-9 0l-2 1h-1l2 1v1h-1l-1 1 1 3v2c-1 0-1 1 1 2 2 2 3 2 2-2v-3l1 1a3 3 0 002 3v-2l1-3v-1c-2 3-4 0-3-3 0-2 0-3-2-1m-97 2l-3 1c-1 0-2 0-1 1l1 2c0 2 0 2-1 1h-1l2 2 1 1a4 4 0 005 0c-2 1-1-1 1-4 1-2 1-2-1-4s-3-2-3 0m121 2c0 2 3 2 6 1h1l2 1 1 1h2l3-3-8-2c-7 0-8 0-7 2m0 4v4l-1 4 4-1 4 1-4 1-4 1-2 1h-2l-3 4c-3 2-4 4-4 6s0 2 1 1l2-4c2-2 2-2 0 3-1 2-2 3-4 3-2-1-4 1-2 2 1 1 1 1 0 0 0-3 0-3 2 0v2h-1l2 3 1 2-2-1-2-4h-1c-2 1-2 1-2-2l-1-2v5l-1 3c-2 0-3-3-2-5 0-2 0-2-2-2s-3 1-2 2v2c-1-2-1-2-2-1-3 3-3 5-1 5l1-1 1-1c2 0 2 2 2 7l1 3 1 1c-2 5-2 7-1 7l2-2c0-2 0-2 1-1 0 2 0 2 1 1h1c1 1 0 2-1 2-3 0-4 1-5 5v3h4l6-1v1l1 1h4l2-3h-4l-1-1h3v-2l1-1h1v1l1 2h2c0 2 3 4 3 3v-2h1l2 1v1c-2 0-2 0-1 1l1 2h-3c-1 1 0 1 1 2l3 1h-3c-2 0-3 2-1 2 8 1 13 2 8 2v1l1 3c0 2 0 2-2 0l-2-3c-1-2-2 0-2 2l3 2 1 1 1 2c2 2 1 3-1 2l1 1 2 2 2 1c1 1 1 1 0 0l-1-4c-1-3-1-3 1-1h1v-5c-1-2 0-8 1-8l1-5c0-4 0-4-2-3-2 3-2 2 0-1s3-4 3-2c-1 4 0 5 1 5h2l-1 1-1 5c0 2 0 3 1 2v-2l1-3 2-3 1 1v3c0-2-2 1-2 2 0 2 3 1 4-1l1-2c4 1 6-11 3-15-1-2-1-3 1-3h1l-2-1v-1c2-1 2-5-1-6s-3-1-3 1 0 2-1 1l-1-3c-2-2-2-8-1-10 1-1 1-1-1-1l-2-1a4 4 0 017-2l1-2 1-1h-2c-1 1-1 1-1-1v-2l-1 2-2 2a11 11 0 010-11h-1v-1l-1-2c-1-1-1 0-1 1l-1-1-3-3h-3l-5-1-4 1m234 1c1 3 1 3-1 3-2-1-2 3 1 4 1 1 1 3-1 4v4c1 1 2 1 3-2 1-4 1-14-1-15l-1 2m-159 1v4l1 1c1 1 2 4 2 10l1 9c0 2 2 1 2 0v-15c0-3 0-3-2-2h-1l-1-4-1-3h-1m-48 5l-1 1c-3 0-2 2 0 4s3 6 1 5c-1-1-1-1 0 0 0 1 1 2 2 1l3 2 1 2 3 1v-1l-3-2c-2 0-1-2 1-3 2 0 1-2-2-3h-2v2-5c0-2 0-2 2 0h1c0-4-2-6-3-4s-1 2-2 0h-1m-261 2l-3 2c-2 0-2 0-2 3v1l-1 3c1 4 3 6 4 3l-1-2c-1-1 0-2 1-2h2l1 1c1-2 3-9 2-10 0-2-1-1-3 1m452 0v3l1 2-1-1c0-3-1 0-2 3 0 2 1 3 3 3l2 3 2-1v-3l1-2c1-1 1-1-1-1-2 1-3 0-3-2l-1-3v-2l-1 1m-412 14l-2 3c-1 1-1 5 1 5s2 0 1 1l-2 2c-1-1-4 3-4 4l3 1c3-1 4 0 4 4v4c1 2 1 1 1-5l-1-20-1 1m153 3l-2 2h-3v7c-2-1-3 1-1 2v2c-2 0-3 0-3 2s0 2 1 0c1-1 1-2 2-1a27 27 0 013 12l1 9-1-1v-1c-2 1 1 8 3 7v-1c-2 0-1-2 2-2l3-3 1-2 2-3c0-1 1-2 4-2l4-2h-10c-3-1-4-1-3-3v-5c-1-5-1-5 2-5 2-1 3 5 0 9-1 2 0 3 3 1h4l-2-2c-2 0-2 0-1-1v-6c-1-4-1-4-7-2l-1-1c0-1 3-5 5-5 2-1 2-1 0-3l-3-2c0-4-1-4-3 0m-91 0h-3l-3 1-4 2c-2 1-3 0-4-1h-11l-3 1c-3 0-1 2 2 2l3-1h1a56 56 0 010 20c1-1 2 5 1 9v8a21 21 0 01-2 10c0 3 0 3 1 2s1 2-1 6l3 1c2 0 2 0 2-3v-39l-1-2a2 2 0 00-2-5l1-1a5 5 0 000-6l1-1 4 1v1c-2 0-2 0-2 2 0 3 2 4 3 1 0-2 4-3 8-3 3 0 10-3 10-5s-2-2-4 0m199 8c4 9 5 14 2 9a3 3 0 10-4 0l1 3c1 1 6 3 6 1l1-2-9-19 3 8m205-7v2l-1 2h-2a2 2 0 00-3 1c4-1 3 6-1 8-1 1-1 1 1 1v1c-2 1-2 1-1 2h3v1h3l1-2-2-4c0-2 1-3 5-6l3-5h-2l-1 1-1-2-1-2-1 2m-280 3c1 1 0 3-1 4s-1 2 1 3v1l-1 5c0 5 0 5 2 3l2-3h2c1 1 0 3-1 4l-2 3h4v-5c3-1 1-7-2-6-1 1-1 0-1-1v-4h1l1-2-1-2-1 2-1 2-1-2v-3c-1-1-1-1-1 1m319-1c1 1 0 5-2 5h-1l-2 1-1 1v1l1 2 1-1 1-1 2 1h1l-1 2-2 3h1c0-2 0-2 2 0 1 1 1 1 0 0 0-2 0-2 2-1l2-1c1-1 2-2 3-1v-1c-3-2-4-2-5-1l1 1h1l-2 1-1-5-1-7v1m-395 7v2a4 4 0 01-6 0l-4-1c-1 0-2 0-1 1v1h1l2 1 4 1c2 0 3 0 2 1l-2 1c-2-1-4 2-2 3l1 2 1 1 1 2c0 2 1 2 6 2l5-1-1-1v-1l1-7a10 10 0 00-3 2c1-2 0-7-2-7v-1c0-3-1-3-3-1m89 3l1 1c1 1 0 1-2 2l-3 3h3v3c2 2 3 1 3-1v-2c2-1 2-7 0-7l-2 1m27 2l-1 8a17 17 0 010 8 4 4 0 003 0 2 2 0 011-3l1-1-1-1-1-1v-2a5 5 0 011-7c0-2-3-3-3-1m143 6c-1 2-1 2 3 2 3-1 3-1 3 2v4l1-3c0-3 0-3 1-2h3v1c-1 4-5 7-7 3-1-1-1-1-1 1-1 2 0 2 1 3 2 0 3 2 1 3l-1 1h1l2-1c1 1 1 0 1-1 0-2 3-6 4-5l1-1v-2l2-3c0-3-1-3-7-1l-1-2c-1-2-7-1-7 1m-26 8l-1 4v3c0 1 2 0 2-2v-1l1 1v3l-1 2-1 2-1-1-1-1c-2-1-2 0-2 1 0 2 0 2 1 1v3c-1 3-3 4-3 2l1-2v-1h-2l-1 2-1 2c-2 1-2 1 0-2l3-4c2-1 1-2-1-2l-3 1-2 1v-1a2 2 0 00-2-3l-3-1c-2-1-2-1-2 1 0 1 0 2 1 1l3 1v2c-1-1-1 0-1 1l-2 1h-5v-1l1-1h-5l-2-1v-1l1-4 1-3v-1c0-2-3 1-2 2l-1 2c-1 1-1 0-1-2 0-3 0-3-1 1v6c2 2 2 2 0 1-2 0-2-1-2-6v-4l-1 6c0 5 0 6-1 5h-1l-2 1v1a2 2 0 01-1 4l-8-1 1 1v3l-1 1c0-2 0-2-2 0-4 4-4 5-1 2l2-1-1 2c-3 4-2 5 0 2h1c-2 3-1 3 2 2h2l19 1a93 93 0 0022-1v-1c-2-1 0-4 2-3v-3h3a17 17 0 018-2c1-1-2-8-3-8v4l-2-1a2 2 0 01-1-2h-3v-1l2-3h2v-5a8 8 0 00-3-5v-2l-1 2m-54 3a3 3 0 001 3c-1-2 0-2 1-2l2 1-1 1v4c1 2 3-1 2-3 0-2 0-2 1-1l2 1 1 4v-3l1-1 1 3v2c1 1 1 0 1-1 0-2-3-7-4-6l-2-1c0-2-5-3-6-1m178 3h-3l-5 2-2 2 2 6c3 5 8 9 10 7l1 1 1 2v-14c0-7-2-9-4-6m-68 10c-1 6 4 14 8 15 4 0 4 0 0-6a15 15 0 01-2-8c-1 1-3-1-5-3-1-2-1-2-1 2m-447 5v6c1 1 2-2 1-3h1v4l-1 3h6c6 0 6-1 4-2l-2-1-1-1c2-2 5-1 6 2 0 3 2 3 2-1a6 6 0 00-4-7v1c3 2 1 3-2 1-4-1-4-1-4 1-1 1-1 1-1-1l-1-2c-1-1-1 0 0 0v2l-2-2c-1-2-1-2-2 0m444 4c0 2-1 2-4 2-4 0-4 0-3 2v1h-1 8l2 1c3 0 3-2 0-5l-2-1" itemprop="bold" fill="url(#14156667777-posters-1653239054979-vertical-bold" fill-opacity="" stroke="url(#14156667777-posters-1653239054979-radial-regular" stroke-opacity="" fill-rule="evenodd" tabindex="-1"></path><!--v-if--></svg>