<svg id="16282281824-posters-1621636063861" itemscope="" itemtype="/posters" itemid="/+16282281824/posters/1621636063861" viewBox="0 0 512 683" preserveAspectRatio="xMidYMid slice" tabindex="0" xmlns="http://www.w3.org/2000/svg"><rect itemprop="background" width="100%" height="100%" fill="white" tabindex="-1" style="fill: rgb(162, 162, 109); color: rgb(140, 140, 140);"></rect><path d="M0 332v331l2 3a3 3 0 0 0 5 1c3 3 7-3 4-6v-1l2 1 2 1c2-1 2-1 0 1s-2 2 0 1c3 0 7 2 11 6l3 4-2 2-4 3c-2 2-4 1-4-1l-2-1-2-1-1-2-3-2c-2-1 3-2 5 0h4l2-1 1-1-3-1-3-2h-2c-1 2-3 2-5 2l-5 1c-1 1-1 0-3-2l-2-2v17h5l5-1-1-2-1-1c0-2 1-2 2-1l2 3h2l4 1h355c1-1 1-1-1-1l-11-6 8-1c8 1 8 1 4-1-3-2-4-2-4-1h-1l-4-1c-4 0-4 0-2 1l3 1h-3l-6-2-3-2h6l11-1c5-1-14-2-34-1l-7-1c4-1 0-2-6-1-6 0-15-4-15-7l-2-2-1-1 3 1c2 2 20 4 19 3l-4-1-5-2c-2-1 0-1 16-1s18 0 22 2l6 3c4 0 5 0 3 1l-13 1-13 1h17c17 0 22 1 22 4l3 1h2l3 1h2c-1 1 0 2 2 3h2l2-1 1 2c-1 1 0 1 3 1l2 1 14 5c4 2 13 2 21 2h3l-4-1c-3-1-3-1-1-2 1-1 1-1-2-1l-6-1-4-2-2-1c-1-1 1-1 5-1l6-1-6-1a43 43 0 0 1-15-2c-3-1-3-1-2-3h-9c0 1 1 2 3 2 2 2 3 2 6 2l3 1c0 1-1 2-3 1l-5-1-5-2-4-2-4-1-6-3-9-4-5-1-8-2-8-3-2-1 3-1 2 1 1 1h5l3 1-3-1-3-2 5-1c6-1 10-1 9 2h11l23 1h6v-11l-4-52v-20l6 89 1 5 1-4c-1-5 0-6 4-3h1a1 1 0 1 1 2-1l2 1c2-1 2-1 2 2l-1 4h-5l-4 1h5c5 0 5 0 6 3 0 3 3 6 5 6v1l2 2h35l1 2-1 3-12 1c-8 0-1 1 21 1h33v-20l-1-14v6l-7-4c-8-3-9-4-9-14v-7l7 3 7 1v-1c1 0 2 1 2 4l1-316V0H0v332m0-10c0 176 1 248 1 160a121798 121798 0 0 0-1-160m462-123c-2 4-6 8-12 11l-4 2v6c0 7-2 11-4 7 0-2-1-2-1-1-2 2-2 11-1 13v12c0 5 0 6 1 5h3l-1 1c-2-2-3 1-2 7l1 19v1c-1 1 0 6 1 5v1c-2 3-1 5 1 3 3-1 5-1 5 2v2l-2 2-3 2c-3 0-2 5 0 6v-1c-2-1 0-4 2-4 1 0 1 1-1 1v2c2 0 2-1 2-4 0-2 4-3 6-2 2 0 2 1 0 2h-2v-1l-1 2-2 4c-2 1-3 3-2 3l3-3c3-3 3-3 3-1l-1 2-1 1 1 1 2 3c1 2 1 2 3 1 1-1 1-1 0 0l-2 1c-2 0-2 1 0 3 0 1 1 2 2 1l-1 2-1 3-1 1v-3c2-2 0-4-3-2v2h1v7c0 3 0 3 1 1h2l-1 2-1 2-1 1v1h2l2 2-1 3-1 2c1 1-2 5-3 4v1c0 2 2 2 3 1s1 0 1 1c-1 3-1 3 2 2 2-1 2-1 1 1l5-2c4-3 5-3 2 0l-2 2h2l2-1c0-3 2 2 2 4l1 2 1-1c-1-1 0-3 2-4s3-3 2-3l1-2c1-1 1 1 1 7l1 9-4 2c-2 1-3 1-2 2v1h-1l-1-1-1 2c0 2 1 2 4 1 2-2 3-2 3-1l-1 1-4 2c-3 2-2 3 2 1 3-2 4-2 4 0l-3 3c-3 1-4 3-4 4 0 2 0 2 4 0h3l-3 2c-3 1-4 2-4 4s0 2 3 0c4-2 6 0 6 7v5c2 0 1 10-1 11-5 1-8 2-8 4h2l2-2v1c-1 1-1 1 2 1 3-1 4 0 1 1-1 1-2 1-1 2 0 2 1 2 2 2 2-1 2 0 2 2s0 3 2 3 2 0 1 1c-3 1 0 2 5 2l4 1v-9l-1-19c-1-17 1-1 2 21l2 24c0 4 0 5-1 4l-1-8c0-9-1-12-4-12l-3-1 1 5-1 5-1-1-1-1c-3-1-2 0 1 4l1 3v3l3 1c1 2-3 1-6 0h-1c0 1-1 2-3 2l-2 1 2 1 1 1-3 1-1-1v-2l2-2 2-3 1-2c-1-1-6 2-6 3l-1 2c-2 1-2 4 0 4l1 1 1 2-1 1h-1l-1-1c-1-1-1 0-1 3s0 4 2 4h2l1-1a2 2 0 1 0 4 0c1-1 1-1 1 2l-1 4c-2-1-5 2-4 3 0 2 5 2 8 0h5c-2 0-2 0-1 2l2 1 4-1 5-1 3-1c1 0 2 0 1 1l1 1 5-1h3v-16l-3 1c-2 0-2 1-1 1 3 0 2 2-1 4l-2 2-1-3-1-2v3l-1 3-1-3-2-3v2c-1 2-1 2-2 1 0-2-1-2-5-2-5 1-8 0-4-1l13-3c10-3 11-3 11-5l-1-3c-1 0-2-7-7-88-5-70-4-66-6-66s-2 1-2 4-1 5-3 7l-2 2 2-1 3-2v8l2 12c0 4-3 9-6 9l-2-23a159 159 0 0 0-2-26c1-1-1-37-3-37-1 1-2-3-2-16l-1-12c-1 0-2 2-2 5l-1 6v-6c0-6-2-9-5-7v29c0 5 0 6-2 9-3 2-3 2-3 0l-1-2v-1c1-2 1-2-1-2-3 0-4-2-2-4s3-33 1-36l-2-6-1-4-1 3m33 31v11l-1-4-2-3v3l1 17c1 21 2 24 4 24s2-1 2-6l-2-24-2-18m-26 83-3 2 2-1 4-2-1 1-1 2c0 2-1 3-2 3l-4 3c-1 2-1 2 3 0l4-2-2 2c-2 1-2 2-1 2l-1 2-1 2c3-1 2 0-1 2h-1v-2c-1 0-3 3-3 5 0 1 1 1 3-1 3-2 5-3 5-1 0 1-1 2-2 1l1 1c2 1 3 3 1 3l-1 1h2l3-1-2 2c-4 1-5 4-2 3h3l-2 1-2 2h-1l-3 1c-1 1-1 1 1 1h2l3-1c3-2 3-1 1 2l-1 1-1-1c-2 2 0 4 2 3l1-2 1-2 1-25c0-5 0-5-2-5-1 1-1 1 0 0s2-5 0-5l-3 3m-60 10-5 7-23 21-18 16-5 3a11 11 0 0 1-6 5v2l1 6c-1 4 0 5 2 3l2-2 5-4 7-7 8-7c5-5 12-10 15-10 2 0 3-1 2-2s8-9 11-10c7-2 8 0 2 3l-6 4-2 2h3l22-2c2 0 2-1 2-9 0-9-2-16-3-11-1 4-4 2-3-2l-1-4c-2-1-3-1-28 22-23 22-43 38-37 32v-2l5-3 1-1c0-2 3-5 5-5 1 1 1 1 0 0h1l1-1v-1a18 18 0 0 0 10-8l1-1c-1-1-1-1 0 0l1-1c-1-1-1-1 0 0l1-1c-1-1-1-1 0 0l1-1c-1-1-1-1 0 0l1-1 1-2c1-1 1-1 0 0v2l8-9 1-1h1c-1-1 9-11 10-10l-5 5-4 5 9-10h1l1-1 3-5 3-4h-2m83 8c-3 2-4 4-3 4l1 4 1 7 1 6 3 1a2 2 0 0 0 3-1v-18c0-7 0-7-6-3m-37 26 1 3-1 2c-2 2-1 3 2 3l2-1-2 2-2 3-2-1-2-1c0 2 4 5 5 4v6l-1 2 5-2c7-4 9-6 5-5l-2 1 2-2c3-3 2-3-3 0-4 2-4 2-4 0l3-3 3-1-3 2c-3 2-2 3 2 0 4-1 5-3 2-2v-1l2-3c0-2-1-2-3-1h-2l-2-1c0 1-1 1 0 0h2c1 0 2 0 1-1l2-2c1-1 1-1 1 1-1 0-1 1 0 0 2 0 1-5 0-5s-2 1-1 2l-1 1-2-1c-1-3-7-2-7 1m43 0-4 3-4 3c0 2 0 2 4 0l5-2-4 3c-5 2-5 2-5 6a290 290 0 0 1 3 13l3 25 2 31v5l-1-6-1-6-1 7 1 8 2-2 5-1c3 0 3 0 2-12l-5-75a1 1 0 0 0-2 0m8 9 4 49 2 17v-21c0-23-2-51-3-43l-1 4v-5l-1-5-1 4m-189 35-21 19c-4 5-6 7-4 7l30-27c10-9 13-13 10-13l-15 14m145-11a17 17 0 0 1-6 3l1 2c0 2 0 2 2 1s2-1 0 1l-1 2h2v2l1 1v1l2 2v1l-3 2h3c3-2 4-2 4-1l-3 2c-3 0-4 1-2 3l1-1 3-2c1 0 2-1 2-3 0-1 0-2-2-1l1-1v-2h-2l2-2h-1c-2 0-2 0-1-1l2-6v-5l-5 2m-182 7v2l-12 16c-2 2-3 5-1 4 1-1 1 3 1 10 0 9 0 10 1 9l1-2v-21c1-1 1 2 1 10l1 11v-13l1-12 1 2c-1 10 0 20 2 19v-25l1 12 1 11v-14l1-13c1-1 1 3 1 12v14l-7 7-7 6v9c0 6 0 7 1 3 0-7 2-6 2 1v7h-5c-5 0-7 1-7 4 0 2 3 3 4 2l2-1 5-1 5-2-1-10 1-10c1-1 1 2 1 9 0 10 0 11 2 13l2 2 6-2c9-4 9-6 1-6h-3v-12c0-25-1-55-2-51m-149 18a24 24 0 0 0 0 20h1a13 13 0 0 0 8-19c-2-4-6-4-9-1m177 34c0 11 0 11-6 10-6 0-10 2-9 5s7 2 14-2c3-2 4 3 1 5l-1 5v4c-2 1-3-2-1-2v-1c-2 0-3 1-3 6l-2 8c-3 2-5 10-3 11 2 3 6 0 6-4l2-12c2 0 3 10 3 24-1 17-2 20-3 6-1-12-2-13-2 0l-1 10c-1 1 2 1 6 1h7l-1 1v1c2 1 1 1-6 1s-6 1 1 1c7 1 8 2 1 2l-6 1 7 1 6 1h11c3 0 3-4 0-5s-3-4 0-4c2 0 2-1 2-3l-1-4-1 2h-2c-1 1-1 0-1-2v-4l-1 2-1 4c-2 2-2 2-3 0-2-3-1-13 1-12l1-1 2-3c4-1 1-1-4-1l-5 1v5a6 6 0 0 1-2 6c2-1 2 0 2 1l-2 4c-1 1-1 1 1 1h2l-2 2c-2 1-3 1-3-9-2-22-2-35 1-31h1l-1-5-1-2-1-1 1-1 1-1-1-1-1-7c-2-22-3-28-3-14m93 5-1 4-1 3c-1 0-2 1-2 3l-4 6c-3 3-4 3-4-2 0-2 0-2-1 0l-1 1-1 1c-1 2-2 2-6 2-8 0-9 2-2 2l6 1-4 1h-2l-3-1c-3 0-3 0-2-2a1 1 0 1 0-3-2h-6l-1 1v-1l-1-1c-1 0-2 0-1 1h-7l-1 3h1c1-1 8-2 9-1 1 2-2 5-5 5-10 0-6 2 5 2 13 1 21-1 21-5l14-1 13-1c0-1-3-2-7-2-3 0-3 0-3-3 0-2 1-3 2-3v-3c-3-3-2-6 1-5 2 0 2 0 1-2-2-3-4-4-4-1m-227 6h-6l1 2c2 2 3 2 6 2 5-1 5 5-1 7l-2 2-2 2c-2 0-3 1-3 2 0 2 0 2 1 1s3 2 3 4l1 4v3c-2 2-2 2-1 3v2l1 1c2 0 2-1 2-3s1-3 2-3l1 2c0 3 9 3 12 1 2-3 10 5 9 9-1 1 3 2 4 0l2-1c7 0 7-3 0-4a5 5 0 0 1-6-2c-3 0 1-3 5-3l5-1 3-1 4-2c1-2 1-2 2-1h1l1 1 2 1c1 0 2 0 1-1v-8l-1-8c-2-1-1-3 1-3l6-1 4-1c6-2 3-4-6-4-4-1-5 0-6 1-1 2-1 2-3 0s-3-2-6-1l-4-1c-1-1-2-1-5 1l-3 3-2-3c-3-1-3-2-4-1h-4c-3-1-3-1-6 1l-3 2-3-3c-2-2-5-3-3-1m220 17-2 2h-7v1l-2 1-4 3-3 2 3-2c2-2 2-3 1-3l-2 1-5 1-6 1c-2 2-3 2-2 0l-2-1-2-1-1-1a2 2 0 0 0 1 3c2 0 2 0 1 1h-4l-1-1v2c0 1-1 2-4 2h-5c-1 2-6 2-8 0-1-1-1-1-1 2 1 5 2 7 6 6l3-1c0-1 2-2 4-1h7l12-2c6-1 7-1 9-4 1-3 1-3 2-1h1c0-2 0-2 1-1h6c4 0 5 0 4 1v1l1 1v1l1-1 4-3c5-1 8-3 7-3h-3c-4 1-4-2 0-4l3-3-2 1h-11m-268 12c-2 4-2 21-1 21 2 2 1 4-1 4v1l1 2-1 4v4c-2 0-1 5 1 7 3 3 3 1 3-23 0-23 0-25-2-20m139 0v3c1 1 0 1-2 1-3 0-6 2-6 4s3 2 8 0c4-3 5-3 6-1h5c6-2 7-3 6-6 0-3 0-3-8-3-6 0-7 0-7 2h-1c-1-2-1-2-1 0m102 5-13 2 1 4c2 0 3 3 3 10l1 5 1-7c-1-13 3-12 4 1 0 10 1 10 1-1 0-10 1-11 4-7l1 7v6l1 3v3l-1-3c-1-3-4-4-3-1 0 2-3 3-4 1 0-3-2-3-2 0v1h-1c0 1-1 1-1-1-1-2-4-3-3 0 1 0 1 1 0 0l-1 7c0 6 0 8-2 9-1 1 1 1 15 3h10l3-1-1-8a1065 1065 0 0 1-1-34l-12 1m-23 4-5 1c-3 0-3 0-1 1 3 1 3 2 1 6l-1 7c1 5 1 5-1 3l-1-3v3c1 2 1 3-1 3-3 1-1 4 2 4 2 0 3 0 2 1-2 0-3 2-1 2v1l-3-2c-1-1-1-1-1 3v5h8c10 1 11 0 11-7a8 8 0 0 0-4-10l-2 1c-3 4-5 0-5-9 0-6 2-9 3-3 1 2 1 2 1-1s2-4 3-1c0 2 0 2 1 0 2-6 0-8-6-5m-99 23h-7c-6 1-8 1-7 4 0 2 0 2-2 2l-2 1v1l1 1h-3l-3 1 2 1 1 1 2 1c2 0 2 0 2-2-1-1-1-1 0 0l2 1c0-2 1-2 3-1v1h-1 3v-3l2-1h1l1-1c0-2-2-2-3-1-2 2-4 2-4 0-1-2 5-4 7-3 2 2 8-1 8-2-1-2-2-2-3-1m5 0c-3 3 1 4 5 2 3-1 4 0 2 2l-1 3h1c1-1 1 0 1 2l-1 4v4c-3 2-2 5 0 5v1c-1 1-1 1 1 1h2l-1 1-1 2 2 1 1 2 1 2 1-7a16 16 0 0 0-2-8l1-1v-1l1-2c1 1 1 0 1-4s0-5-1-4-1 1-1-1c0-4-9-7-12-4m42 12c2 0 2 1 2 5s0 4 9 5c8 1 13 0 12-4l-1-4v-1c1-1-3-1-7-1a194 194 0 0 1-15 0m-6 7c-1 2 1 5 2 4l1 4 1 7c1 4 4 7 4 5l-1-1c-1-1 0-1 1-1l2-2 2-1c3-1 2-3 0-2l-3-1c0-1 2-3 4-3 6 0 8-1 8-2l-5-1h-6l-4-2c-3 0-5-1-5-4-1-2-1-2-1 0m223 17v25c0-6-3-4-3 2 0 5 1 6 3 6 1 0 2 0 2 8l1-15-1-25c-1-3-2-4-2-1m-45 21v2a1 1 0 0 1 1 2l-1 3 1 4 1 14-1 6v6h10v-6l-3-11-2-8c-1-9-4-15-6-12m-197 37-1 1-2 1c0 2 2 2 3 1h2l2 1h2c1 2 1 2-2 2-3 1-3 1 1 1h3l-3 1c-4 0-2 2 2 2h3l-3 1c-4 1 2 2 8 1 4-1 4-1 1-1l-2-2-3-1-1-1 5 1c4 2 11 2 14 1l1-4c-1-4-2-4-1 0l-2 1-7 1-4-1c1-1 0-4-1-4v1l-3 1-4-1-2-1c-1 0-2 0-1-1l-1-1-2-1-2 1m190 7 2 2 2 1h-2l1 3 4 3c1 0 3 2 1 2l-3-2-2-1c-2 1-1 2 3 3l3 2h-4l1 1 3 2-3-1c-2 0-4-1-3-2h-1c-2 0-2 0 0 2 1 1 2 2 3 1l1 1-1 1c-2 0-1 2 1 5l2 6c0 5 1 7 3 8 2 0 2 0 1-20l-3-17c-2-1-3 0-1 1 1 2-1 2-3 0l-5-1m31 3 1 2 1 1-4-1c-5-2-5-2-4 7l1 8 9 4 1-8a15 15 0 0 0-1-10c0-2-1-5-3-5l-1 2m-203 4-5 1h-2l3 1c3 0 3 0 1 1l-2 1 2 1 5 2v1c-2 1 6 8 11 8l4 3c1 2 2 2 11 2l10 1h-12c-19 0-11 2 13 3l23-1h-1l-2-1-3-1c-10 2-17 2-16 1 1-2 4-2 8-2s6 0 5-1l-2-1h-1l4-1c5 0 5-1-1-3h-8c0 3-2 3-8 2l-4-1h5l3-1v-2h3c2-1 2-1-1-2l-8-1 2 1 1 1c0 2-2 2-7-1l-6-2c-2 0-3-1-3-2l-3-2-3-1-4-2-6-2h-6" tabindex="-1" itemprop="light" style="fill: rgb(168, 255, 199); fill-opacity: 0.595; fill-rule: evenodd; color: rgb(82, 82, 82);"></path><path d="m0 67 1 67 3 4c3 3 3 3 0 1l-3-3v81l4 6c6 9 6 9 7 2 1-8 2-10 9-12 10-4 21-3 21 0 0 1-1 1-2-1h-1c1 1 0 2-2 3l-2 1a11 11 0 0 1-11 0h-3c1 1 1 1-1 1-5-1-6 2-7 12 0 6 0 8-1 6L1 220l6 10c7 12 7 11 2 11l-4 1-1-1-2-4c-2 0-3 201-1 204v1l-1 3 1 3c2-2 5 1 5 4s0 3-3 2H0v12l1 19v7h6c4 1 5 1 7-1h1c0 2 2 3 2 0h2l3-2c1-1 1-1 2 1s1 2 1 0c0-3 2-3 3 0 0 2 0 2 1 1h2l2 1 1 2c0 3 2 4 6 4v-10l6 4c2 2 4 4 5 3l1 1c0 1-1 2-3 2h-2l2 1 6 1h3v12c0 10 0 12-2 13l-28 1H1l-1 30 1 33v4l-1 24 1 23 5 3c6 3 6 3 1 2H1l6 2c4 0 6 1 10 5l5 4-5-2a7 7 0 0 1-5-3h-1l-6 1H0v6c1 7 2 8 5 5 2-3 3-3 1-3l-3 1c-1 1-1 1 0 0 0-2 7-3 10-1 1 1 2 2 3 1 1 0 11 8 12 11 1 2 1 3-2 6-2 2-4 3-3 4h343l-4-4-8-6-4-2 6-1 7-1-55-2c-4 0-6 0-7-2l-9-2c-7-1-8-1-10-5l-2-2h35c35 0 35 0 35-2s1-2 6-2l13-3c-2-1-21 2-21 4s-17 3-50 1c-19-1-25-2-18-3l4-1h-4c-3 0-4-1-7-5l-3-6-2-3c-4-3 0-6 9-6h4l-5-1c-8-1-16-14-9-14 2 0 2 0 0-1-1-2-2-2-2 0l-2 1c-3-1-35-3-53-3h-18v-14h17c16 0 22-1 22-2-1-1 3-5 4-4 1 0 0 3-2 3v2l1 2v-2l7-1c12 0 13 0 12-1v-5l2-1 2 1v2c1 0 1 1-1 2l-1 2c1 1 10-1 11-3 2-1 2-1 2 2l1 5-2 2v1c2 0 2 1 2 3 0 8 3 12 8 12l2 1c-1 1 0 1 1 1l1-1v-1l2-1 1 2c0 2 1 3 4 3 5 0 6 0 6-6 1-5 1-5-2-5l-4-1 1-1c2 2 7 0 7-2s0-2-2 0-5 2-5-1c0-2 1-2 4-2l3-1c0-2-1-2-3-1h-3l6-2c5 0 5 0 4 1l-2 1-1 3 1 4 1 3c0 2 0 3-2 3v6l1 3v2c0 1 0 2 2 1 8-1 9-1 9 2-1 3 0 3 2 3 3 0 3 0 2-1-3-2-2-5 1-5 4-1 4 0 4 4 1 4 1 4 5 4 3 0 4 0 4-2l1-4 1-5c0-2 3-3 7 0 3 1 3 1 5-1h1c0 5 4 2 4-2s0-4 1 1v6h-5c-5 0-6 1-4 3l1 1v2c1 1 1 1-1 1-2-1-3-1-2 2 0 2 1 3 2 3 2-1 4 1 4 4-1 1 0 1 5 1 19-2 22-2 22-1l-2 2-22 3h11l12-2 4 4 4 4 10-1c19-1 27-3 27-5s-1-2-5-1l-9 2c-5 1-5 1-4-1l2-3c0-2 1-2 6-2l8-1h-7l-8-1c0-1 2-2 8-2 10-1 10-3 0-3-7 0-8 0-8-2s-1-2-2-2c-26 2-26 2-26 5l-4 3c-6 2-7 1-7-4v-5h9a27 27 0 0 0 12-2c2 0 2-1 2-3l1-6-3-5-3-5-2-1c-1-1-1 1 1 5 0 1-1 2-3 2-3 0-3 0-2-2 2-1 2-1 1-3l-1-1h-1l-1-1-1-1c-2 0-2 2-1 3 3 0 2 3 0 4-2 0-3 3-1 3l1-1h2v5l1 4v1h-11l-1-2h-1l-2 1a4 4 0 0 0-4 0l3-3 3-3c1-2 1-2 1 0s1 3 2 3l1-12 1-21 1 3c0 2 0 2 2 2h1l1 3-1 1h-1l2 1 1 2 2 1c1 0 2-1 1-4v-4l1 4c2 9 5 11 5 3 0-6 0-5 1 1 1 4 3 6 3 2v-1l2 20 1 8c1 0 2-1 1-2 0-2 2-3 7-2l2-1c1-1 1-1 1 1l2 3 2 1 1-3 1-4v4l1 4c3 1 3 0 3-7 0-9 0-10 4-9l4 1-2-22-1-46 3 47 3 26c0-4 0-4 6-1l5 2-1-2-2-1c0-1 5 1 5 3l1-1 1-1 2 3c1 1 2 3 2 8l3 8h2l2-2c2-1 2-2 2-10l1-9 1-19 1-18 1 16c0 18 1 30 2 35l1-6v-8l2-1h3v-10l1-13-1-2v-2c1-3 5-6 6-5v-2l-2 1c-3 2-5-1-6-9v-11a5 5 0 0 1 1-5l2-3 3-1-2 2-1 2h2l-2 1c-3 0-3 4-1 6l2 3v-3c-1-3-1-3 2-2l4 1-1 5-2 4c0 3 0 3 2 2h1l2 1c2 0 2-1 2-2v-1c1 1 3 6 3 11l4 14 2 10 1 6h-3l-3-1h-3c-2 1-2 3-1 7l3 24c3 27 3 26-2 26-3 0-3 0-2-2 2-4 0-21-3-25l-2-3-2-1c-1 0-2 0-2-4-1-5-2-6-3-2l-2 5c-1 1-1 1 2 2l4 2c1 2 1 2 2 1h1c0 2-1 3-3 1h-3c-2 1-2 1-2-1 1-2-4-2-7 1-2 2-4 2-2 0s1-3-1-3l-2 1h-1l-3 2c-1 2-1 2 2 2h3l-4 1c-3 0-4 0-4-2l-1-1h-2c-1-1-1-1-1 1h-1c-1-2-2-3-7-3h-6v6c0 4 0 5 1 3 0-4 0-4 5-5 6 0 6-1 7 11 1 10 3 14 7 14v1c-2 3 6 3 23 3l14-1v3c1 1 0 2-1 3s6 1 19 1c23 0 24 0 23-6-1-2-1-2-1 1v3h-14v-11l3 1c6 1 11-1 10-3l1-1c1 1 1 1 0 0v-3c0-1-4-3-6-1h-9v-13l-2-21 1-7 1 3c0 2 2 4 4 4a6 6 0 0 0-2-6c-2 0-2-1-2-3s1-3 2-3l1-2 1-2 1-2v6l-2 1-2 2c0 2 0 2 2 1 2-3 3-2 2 6 0 2 0 3 3 3l3 2h2c2 0 2 0 0-2v-1c3 0 3-4 3-22 0-14 0-15-1-6l-1 7c-1-4-2-4-3-1-1 1-1-1-1-5 0-8 1-8 3-2l1 4v-4l-1-7-1-3-1 2c-1 3-1 4-3-10 0-4 0-4 2-3h2v-12l1-11c1 0 2 2 2 11 0 8 1 3 1-15l-1-27v-4c1-4 0-7-2-5v-3l2-2v-22c0-4 0-5-1-4h-2v-3c-2-2-1-5 0-3 2 1 2 1 2-1 1-1 1-1 1 1v3l1-15c0-8-1-11-1-7 0 7 0 8-2 8s-2 0 0 1 2 1 0 1l-2 1h-2l-3-2v-1l-2-1-6 2-5 1-2-1c-2-2-8-1-8 2l-1 1v1l-4 1c-4-1-5-2-4-6l1-2 1 3c1 3 2 3 4 2v-1c-2 0-2 0-2-3v-3h1l2-1h2l-1-2-5-1h-1c-1-2-6-2-7 0-1 1-1 1 1 1s3 1 0 3c-3 3-4 2-5-6-1-9 0-11 4-11v-1h-2l-2 1v-1l1-1c3 1 2-4-2-7-2-2-3-3-3-1h-1l-1-4c1-2 3-2 4 1l1 2 1-2 2-2c2 0 1-4-1-5s-2-1 0-1l2-1-2-2c-2-2-2-6 0-8 1-2 3 0 1 1-2 3-1 5 2 3h2l-1 1v4c2 4 3 4 2 0 0-4 1-5 3-2 0 1 2 1 2-1h1v8l-2 3-2 1c-2 0-3 0-2 2l-2 1h-2c2 0 2 0 2 2l1 3c1-1 1 1 1 6 0 7 1 10 2 6 0-1 1-2 2-1v-1c-2-2-2-6 1-8l1-3 1-2h1l2 2c2 0 3 2 0 3l-1 2h2c1-2 2-2 4-1h4l-3-1c-2 0-3-1-1-3 1-1 1-2-1-3-3-4-2-7 1-3 2 1 2 1 2-2l-2-5c0-2 0-2 4-2h2l-5-1c-2 1-3 0-4-1l-2-2-4-2-4-3c-2 0-2 0-1-1h2c2 2 2 1 3-2 0-2 0-2-3-1l-3 1v-8l-1-8v8c0 5 0 8-1 7h-3c-3 1-6-3-3-6 1-2 1-2-2-1l-3 3h-3v-3h-5c-4 0-5-1-6-27v-22c0-2 18-3 21-1h1l1-2c1 1 2 4 2 13l1 12v-27l-31 1-33 1c-2 0-1 2 2 2 2 0 2 0 2 2h1l10-2 8-1v5l1 8a1186 1186 0 0 1 2 38 29 29 0 0 1-1 15c2 0 1 6 0 6h-2l-1 1c-1 3-1 3 2 1 2-1 2-1 1 2l1 5v4c1 0 2 4 1 6h-4c-2-1-2-1-1 1l-1 2h-3l1-1 1-1-1-2-1-1v-1l-1-10c0-8 0-8 2-9 3 0 3 0 2-7 0-6 0-7 1-6s1-4 1-18c-1-27 0-26-4-25l-4 1h-5c-2 1-4 0-4-2s0-2-1 0c0 2-1 3-7 2h-5v-6c0-4 0-5 2-7l1-2c-5 2 2-4 7-7 4-1 3-2-1-2-6 2-12 9-14 18v4a60 60 0 0 1-22 17l-4 4-11 9-6 5h15l-11 1-7 1-9 7-9 7c-2 3-4 2-3-1 2-6 7-13 13-17l1-2-3 1c-3 2-4 1-2-1l2-3c1-1 1-1 3 2l2 3 2-2 1-2h-2l1-1h3c1 1 2 1 5-3l3-4-3 3c-2 3-4 4-4 3a20 20 0 0 1 3-12l1 1c1 1 1 1 1-1l-1-2c-1 0-4 2-3 3h-1l-2-3-7-2c-1 0-2 0-1-2 0-2 0-2-2-1-2 2-2 2-5 1h-3c-2 1-5 0-7-1h-10c0 2-3 2-6 0h-2c-1 2-5 2-5 1l-1-1-2 1h-8a5 5 0 0 1-7-1l-1 2-4 1c-4-1-5 0-3 2l-7 13c-7 13-8 16-4 16 2 0 5 4 5 7s0 3 8-8l7-10 1 4a6 6 0 0 0 3 4h-1l-1 3 1 1 1-1 1-2 1 5c0 4-1 5-2 6v-4c-2-1-2 2-2 23l1 23 5 1h7l5-1 6-1v-8c-3 0-3 1-2 4v3c-2 3-2-4-1-16 1-5 2-3 2 2l1 6 1-2 1-6v-3l1 3c1 2 1 2 1-2l1-5v6c0 5 0 6 1 5h1l-2 2a2 2 0 1 0 1 2c1-1 1 1 1 5 0 6 0 6 2 5 4-3 11-3 12-1h2c0-2 2-3 2-1l6 7v-1l-1-1-1-3c0-2 0-2 1 0 1 1 1 0 1-4 0-5 1-8 4-6 3 0 2 7-1 6l-2 1c0 1 1 2 3 1 2 0 2 0 2 5 0 3 0 4-2 4h-1c1-2 1-2-3 0h-6l-5 1-4 1-4 2c0 1 2 3 3 2l1 3c0 4 1 4 1-1 0-2 1-3 2-2l2 1c1 0 2 2 2 11l1 11-3 1c-5 1-7 3-3 3l4 1h1l1 1-2 3 1 3c2 0 3 3 1 3l-1 1 2 9 1 4v1c-1 1 0 6 1 6l1-6v-6l1-5c0-3 1-5 3-7s3-6 0-6l-1-3c-1-2 0-3 1-2v2l1 1c2 0 5-2 3-2-1 0-5-6-5-9l-2 2c-2 4-3 4-3 0 0-3 0-3-1-1-1 1-1 0-1-5s0-6 1-5h2l2 1c1 1 1 0 1-3 0-4 0-4 1-1 1 2 1 2 1-3 0-3 0-5 1-4h1c1-3 3-2 3 2l1 4v-2c0-3 0-3 2-3 3 0 4-3 3-9 0-2 0-3 1-2l1 3 1 3v-3c0-4 4-5 4-2l1 3v-3c0-3 3-5 3-1v3l1-3c1-2 1-2 1 1l-1 3 2-2c2-2 2-2 2 0l2-1c1-3 3-3 3 0-1 2 1 4 2 2h1c0 3 1 0 2-4 2-11 2-10 6-11 3 0 3 0 3 2l1 3 2 2 1 3v-3c0-3 2-1 3 3l1 7 1-3 1-4 1 3c0 7 5 0 6-8l-1-6c-2 0-2-1-2-2l1-6c0-3 0-4 1-3l1 5 1 4 1 1a10 10 0 0 0 2 6v-3l1 1a1 1 0 1 0 2 0l-1-2-1-1-1-2c-1 0-1-1 2-7l1-5c1-1 1 3 1 9 0 10 0 12 2 15s2 4-2 4l-2-2-1-1c-1 1 1 6 2 6v2c0 2 0 2 1 1 2 0 2 0 2 2-2 3 1 5 7 5l5 1h-3l-4 1 7 1h7l-4 2c-3 2-6 2-9 2l-5 1c0 3-2 2-1-1 0-2 0-2-1-1l-3 1c-1-1 0-1 2-2 7-3 5-4-10-4-14 0-15 0-15 2h2l1 2v1l1-1h3c2 0 2 0 1-1 0-2 3-3 4-1h7c0 2 0 2 2 0s3 0 1 2-2 4 1 4c2 0 1 2-1 2-8 4-9 4-6 4 4 0 4 1 1 2h-6c-2 1-3 1-3-1l-2-2-3 1 1 1 3 1-2 1c-5-1-6 0-6 3l-1 2c-2-1-2 0-2 3s1 4 3 2l1 1c0 2-1 3-2 3l-2 2 2 1c2-1 2-1 2 2l-1 4c-1 0-2 1-2 3l1 3 2 2c1 1 0 1-1 1-2 0-2 1-2 4l1 3v4l-1 3h-8l-26-3-10-1h-10c-7-1-10 0-10 5-1 6-1 6-11 6l-13-2-4 1 8 2c9 0 12 1 10 3-1 1-2 2-3 1h-2l-3 1c-1-1-2 0-3 1s-1 1 1 1h5c1-1 1-1 2 1 0 1 1 2 2 1v1l-1 2-3-1c-3-1-3-1-5 1l-2 1-1 2-2 3h-3 1c2 1 2-2 1-5s-2-3-4-3l-2 1v-9l1-11c0-2 0-3-5-3s-6 0-4-1v-2c-2 0-3 0-4 3l-3 2v-12c0-4 0-4-2-3l-4 1c-2-1-3 1-1 3l1 13-1 1 1 1c1-1 1 0 1 1l2 11 7 4h-3l-3-1-3-1v9c0 5 0 8-1 7s-1-1-1 1l-3 2-2 2h1c2-2 3-1 3 2s-2 6-4 6v1l3 1c2 0 2 0 1-3l1-2 1 2v3l-2 2v1l-1 1-1-1-4-1h-2c2 0 2-1 2-5-1-4-1-4 2-4l3-1h-3c-3 0-3 0-3-4l2-5c2 0 2-1 2-5l1-5 1-4c-1-3-1-4-2-3-2 1-4 0-4-3-1-2-1 25-1 28l-2 1-2 1-2 1c-1 0-2 0-2 3l1 3c3 0 2 2 0 3s-12-11-9-13l1-6 1-3c2-2 2-2 2 0s0 2 4 1h5v8l2-9v-8l-2 1-2 1 2-3c2 0 2-1 2-5 0-5 0-5-2-4-3 2-5 1-5-1v-4c-2-2-2-4-2-8 0-3-1-4-2-4h-4c-2 0-2 0-1 1 2 1 0 5-2 4l-1 1 1 2v1c-2 1 0 4 2 4s3-1 3-3l1-3v3l1 5a1 1 0 1 1-2 2c1-1-5-3-6-2l-2-9c1-2 0-4-1-2-1 1-6 0-8-2l-2-2h5v-2c0-1-4-2-4 0h-1c0-2-1-2-1-1l-3 1h-7c0-2 0-2-2-1h-3l-1-1c-1 1-4-1-4-3s2-3 3-2h2v-1l-2-1 2-1h4l-2-1 1-2 3-1h3c1-1 0-1-4-1a7 7 0 0 1-7 0v2l1 2h-14c-2-1-2-1 1-1a7 7 0 0 0 6-6c-1 2-4 1-5-1 0-2 1-2 3-2l3-1-1-1-1-1c1-2 0-2-3-1h-7c-2 0-2 0 0 2 1 1 1 1-1 1v1l2 2c0 1-5-1-7-3-1-1-1-1-3 1h-1l2-3c2-1 3-6 0-5-2 1-4-1-3-3 0-1 0-2-2-1-2 0-4-4-2-6 1-1 2-2 1-4l-2-5c0-2-2-1-1 2l-1 2c-2 0-4-3-2-4v-5c0-2 0-4 1-3l1 2 2 1c2 0 2 0 2-2l2-2c4-2 4-4 1-3-3 0-3 0-2-1 3-2 0-2-3-1-7 3-11 1-7-4 1-2 3-2 8-2 1 0 2 0 1-1l-1-4-3-3-3-2-1-2-1-1c0-2-1-2-4-2l3-1c5-1 8-3 8-6l-2-1v-1c2-3 1-4-2-1l-3 2h-8 3c5 0 7-2 3-4-5-2-6-4-3-9a4 4 0 0 0 1-6l-1-2-1-7c1-5 1-5-2-5-2 0-3 0-2 2 0 1 2 2 2 0l1-1v4c-1 3-1 3-3 1-1-1-1-1-1 1 0 3 0 4 1 3l1 19a69 69 0 0 1-2 20v-5c0-4-1-5-3-7l-4-4c-1-2-1-2 1-1 2 3 2 3 1-2l-1-12c0-7-1-9-2-10l-1 1v12c0 9 0 10-2 10h-3l2-1c1 0 2-1 2-3v-3l-1 2-5 4c-4 2-4 3-1 7 3 3 3 6 1 6l-1-1c1-1-1-5-4-9l-1-2c2 0 2 0 0-2l-2-5 1-7c1-6 3-8 8-8 3 0 4-1 4-2l2-5c2-2 3-5 1-3l-1-1-2-1c-4 0-5-1-4-4v-2l-1 2-1 3c2 1-3 2-14 3-10 0-10 0-10-2 0-1 2-2 5-2l5-1 3-3c4-1 5-6 2-8v-2c3 0 3-3 0-3-1-1-2 0-2 1 0 2-3 3-10 3l-7 1v-3c-1-2 0-3 1-4 1 0 2-6 0-6l-1 3-1 2c-3-1-5 0-4 1h-1c-2-1 0-4 2-4 2 1 2 0 2-1s-1-2-3-2h-3c-2 0-3-2 0-2 2 0 1-2-2-3-3 0-3 0-2-2v-1l-2 1-2-1h1l1-1-2-3-2-1 2-1c3-1 1-3-2-2-3 0-7-5-4-6 1 0 1-1-1-3v-2l1-2-1-12-1-11c-2-1-2 0-2 4s0 4-2 2l-1-6c0-6 0-7-1-5h-2l-2 1v-8c2 0 4 0 3-1l1-2c2 0 2-6 1-6v-1c2-1 12 0 12 2l-3 1a9 9 0 0 0-1 19c3 1 4 2 4 4 0 4 2 6 5 6h3c1 2 2 0 2-4s0-4 5-5c10-4 9-14-1-18-5-3-5-4 0-4l7 1c2 0 2 0 1 1v1l3 1 3-1 2-1c7 0 10 3 4 4a9 9 0 0 0-2 19c5 1 5 1 5 5v5h11l-1-4c0-5 0-5 3-5 4-1 9-6 9-9 0-4-4-9-9-10-5-2-4-3 4-3 4 0 6 0 5 1-2 1 3 2 5 1 3-1 8-1 9 1l-3 1a9 9 0 0 0-2 19c4 1 4 2 4 6s1 5 7 5c3-1 3-1 3-5s0-4 4-5c11-4 11-15 0-19-6-2-3-3 5-3l13 1c4 0 5 0 5 2l-2 1c-4 0-9 4-10 7-2 4 1 8 6 11 4 2 4 3 4 7v4h10v-4c0-4 0-4 4-5a9 9 0 0 0 2-18c-8-3-5-4 8-4 15 0 17 1 11 3-11 4-11 15-1 19 3 1 4 2 4 5v4a10 10 0 0 0 9 1l1-4c-1-4 0-4 3-5 11-3 11-15 1-19-4-2-4-3 2-3 2 0 4 0 3 1-1 2 2 4 5 4 5-1 10-4 7-4-1-1 0-1 3-1 5 0 5 1 0 4-11 5-9 15 4 19v5c0 5-2 4-2-1 0-2-1-3-2-3l-2-1-4-2c0 2-1 2-4 2-4 0-5-1-4-2l-2 1-3 2-1 1-1 2a1 1 0 0 0 0 2l1-1 1 1c-1 1 3 2 4 1v-1c-1-1-1-1 1-1 3 1 6 0 3-1-1-1-1-1 1-1 1-1 2 0 2 1l1 1 1 1 3 3c3 1 3 1 1 1l-2 2c0 1 3 2 4 0s2-1 4 2 5 3 6 1c1-1 1-1 1 1l2-1 1-1c-1 1 0 2 3 2l12 2 5 1 4 1c1 2 14 0 14-2h5c1 1 1 1 1-1 0-1 0-2 2-2l4-2c2-2 9-1 8 1l4 1c5 1 9 4 9 7h1c2-4 0-7-3-7s-4-3-1-3c5-2 12-1 15 2s9 3 9 0v-2l2-2c5-1 6-5 2-5l-1-3c0-4-1-5-7-8l-5-2-3 2-5 3-2 3c-1 1-1 1-1-1l3-3c11-4 10-15-1-19l-3-2h17l8-1-4 3c-10 4-10 14 2 18 3 1 3 1 2 5 0 4 0 4 2 4h2l3 1c3-1 4-1 4-5s0-5 3-6c4-2 8-7 8-10s-6-9-10-10c-3 0-4-2-2-2l10 5c4 4 4 4 8 0l5-4 1-2 1-1c3 0 2 2-1 3-6 4-8 11-4 15 1 2 1 2-1 4l-1 3 2-3c2-2 3-2 4-1l4 1c3 0 4 1 3 5s2 4 3 0c2-3 3-1 3 4l1 12v6h15l1-4v-6l-1-18c0-13 0-16-2-16l-4-2-7-3h-3l3-1h10l2-3-1-21-2-34c0-11 0-28 1-21 0 2 2 1 2-2l1-3v3c0 2 0 3 1 2l2 1c1 1 1-1 1-5v-7l5-2c10-5 14-14 13-25-1-5 0-7 2-5 1 1 2 2 3 1l1 2-1 3a16 16 0 0 0-3 20c2 3 4 38 2 37-1-1-4 2-3 3h3c2 0 2 0 2-4l1-18v-12l1 9 1 9v-9c0-7 0-8 2-8l6 2c5 1 5 1 5 5v7c0 1-1 1-1-1-1-1-1-1-1 2 0 5 3 6 5 3 2-2 2-2 2 2 0 3 0 4-1 3h-4c-2 0-2 1-2 4l1 3 1 1c1 1 1 1 1-1l2-4c1-1 1-1 1 2v2h2v-1c-1-1 0-9 2-11l1-4c-1-1 0-2 1-2 2-1 2-1 2 1s3 2 3 0h1l2 15c0 14 1 15 3 12l2-1-2 3c-2 2-3 5-1 4 1-1 2 2 1 3 0 1-1 1-1-1-1-1-1 1-1 5 0 6 1 8 3 4l1-3v-5l1 2h1l-2-4v-3l1-6c0-4 0-6-1-5v3c0 2 0 2-1 1l-2-2-1-4c0-4 0-5 1-4l1 1 1 1c1 0 1-1-1-4l-2-2-1-2c0-2 0-2 2 0l2 3v-7l-1-5c-3-2-2-11 0-13l3-2v6l1 4 1-116 1-103h-13c-13 0-13 0-14 2s-1 2-1 0c-1-1-2-2-6-2s-5 0-4 1 0 2-3 1l-4-1c-1-1-5-1-6 1l2 2 1 1h1l1-2v2c-1 1-2 2-3 1-1 0-2 0-2 2l-1-1c-1-2-2-2-3-1h-1l2-1 2-3c-1-2-12-3-12-1h-2c-2-2-2 0 0 2 3 2 3 3 1 3h-2c0-2 0-2-1-1s-2 2-1 3l-1 1c-1 0-1-3 1-5 4-4 13-4-222-4H0v67M422 4v1c-1-1-9 4-9 6 0 1-5 2-6 1v1c1 2 2 2 3 1s1 0 1 3l-1 5 1-4 2-2 1-1c0-3 2-4 4-3a2 2 0 0 1 3 3l3-3h-1l-2-2c-1-3 0-4 1-4s2 1 1 2c0 2 0 2 2 2 1 0 2 0 1-1l-1-1h2a8 8 0 0 0 4 1v4h1c0-2 1-2 2-2h3l-3-3c-3-1-3-1-1-1 1 0 2 0 1-1h-4c-4 0-4 0-3-2l-1-1h-2l-1-1-1 2m-29 83c-2 2-2 2-1 3v1l-5 2-3 2 2 2h2a3 3 0 0 1 1-3l1-1h1l-1 2-1 2-1 2c-1 1 0 1 1 1 2 0 3 2 1 2v2c2 1 2 2 1 2h-3c-1-1-3 0-3 2s2 1 2-1h1c0 2 0 2 2 1 2-2 6-1 5 0l1 1c2-1 3 0 2 2h1c1-1 1-2-2-5s-4-6-1-7v-3c-2-2-3-6-1-5h2c2-2 2-2 0-3-2-2-2-2 1-1l3-1c0-1-6-1-8 1M86 258l-1 23c0 9-1 17-2 15v-2l-1-15-1-13-1 7 1 15v9h4l14 1 10 1-9-1c-8-1-16-4-13-4v-2c-2-1-1-42 1-44v-1c-1-1-2 2-2 11m-7-7c1 4-3 5-6 3h-1c0 1-5 2-7 1h-2c1 2 0 1-2-1h-1c0 2 0 2-2 2-1-1-1-1 0 0l9 1-9 1-14-1 2-2c0-1-5-3-6-2 0 2-5 1-6 0l-1-1v1l-2 2c-2 1-2 1 1 1 2 0 2 0 1 1-2 2-1 2 7 2h9c0-2 2-1 1 1 0 2 1 3 3 1 1-1 4-2 14-2 15 0 17 0 15-3l-1-5-1-3-1 3m-68 8-1 3-1 1h5c1-1 1-1 1 1-1 1 0 3 2 6l9 13 5 8 1-4 1-3v3a13 13 0 0 0 5 11l4 7 5 8-11-15-5-5 4 6 9 13c6 9 6 9 6 0 0-6 0-7-2-6-3 0-3-2-3-13l-1-9c-2 0-2 0-1 2l1 2-12-18c-4-7-6-8-11-8h-4c2-2 1-3-3-4-2-1-2-1-3 1m482 9-1 4-1-1c1-1 0-1-1-1-2 0-3 5 0 6v4c-2 0-2 7 0 8l1 9 1 31 3-2 3-1-3 1h-2l2-2c2-2 3-8 1-9s-2 3-1 5l-1 2c-1 1-1 0-1-4l-1-9c0-3 0-4 2-5l2-3c0-1-1-1-2 1h-3l2-2 2-3c0-1-1-2-2-1l-2-1 2-1c1 0 2 0 2-2 1-2 3-3 5-2l3 45 1 6v-7l1-9h3v2c-1 2-1 2 1 1s3-3 3-5c0-4 0-4-5-1l-3 2-1-9v-17c-1-8-1-8 1-8 3 0 3 0 3 10 1 13 2 17 3 16l1-7v-2c1-18 1-28-1-31a3 3 0 0 0-3-3c-1-1-1-1-1 2v4h-12v-7l-1-4M8 273l1 2 14 19-1-1 1 3 4 3 1 2v1c0-1 2 0 3 2l1 3 1 1 2 2 3 5c1-1 3 1 3 4h1l1 1c-1 1 0 3 2 5l3 5c1 1 1 0 1-2s-4-8-20-29c-19-26-23-30-21-26m331 35v1l-8 5-4-2-2-3c1-1 0-1-3-1l-4 1 2 1c4 0 9 6 9 10s-4 9-9 10c-2 1-2 1-2 4 0 4-1 6-5 6-3 0-3 0-1 1 3 0 9-3 8-4s1-6 3-7l5-3 2-2 6 3c6 3 7 4 7 6 0 3 0 3 1 2 2-3 1-6-2-7-11-4-12-14-2-19 5-3 5-3 0-3-3 0-3 0-1 1m-39 1-2 1c0 1-1 2-3 2-3 0-4-2-1-2 1-1-2-1-5-1h-7l4 2c11 4 11 15 1 19-2 1-3 2-3 4 0 4-1 7-3 7l-1-2-1 1h-3c0-2 0-2-1-1-1 2 0 3 4 3 3 0 4-1 5-2l3-2 1-1h-1c-2 0-3-2-1-4l10-5c3-1 9 4 9 7s2 6 4 5l-1-1-1-4c0-4 0-4-3-5-3-2-8-7-8-9 0-4 3-8 7-10l5-3-8 1M12 355l8 8 7 8v28l1-16c0-12 0-12 4-9 2 3 2 3 2 13v11l1-9c0-11 0-11 5-6 5 4 8 4 8-1 0-3 0-4-4-5l-3-3-3-3-4-4a7 7 0 0 0-4-4c3 4-1 4-5 0a20 20 0 0 0-7-5 7 7 0 0 0-6-3m483 9c-5 2-7 5-3 4l2-1c-3 2-4 4-2 5 2 0 2 1 5 36l3 36 2-2 1-2v4c2-1 2-12-1-49a995 995 0 0 1-2-34l-5 3m-170 15-21 21-17 19c1 1 41-39 42-42 0-2-2-1-4 2m5 9c-1 2-3 3-3 2l-14 13-18 17-5 6c0 2 0 2-3 2s-4 0-3 2c0 2 6 3 6 1s4-1 4 1l-1 1v-1l-1-1-1 3c0 2 0 2-1 1-1-2-6-2-7-1l2 1h3v1l-1 1 2 1h2v1l-1 1c2 1 4-1 4-4-1-1 0-2 1-2 1 1 2 0 1-2l-1-1v-1l-2-1c-4 2 1-4 12-14 25-21 28-25 28-27s-1-2-3 0m-79 62-1 5c0 4 0 5-2 5l-2-2h-2c-2 2-5 0-4-3l-1-2c-1-1-1 1-1 4l-1 1c-1-1-1 0 0 0l-1 4c-2 2 1 4 3 1 2-2 4-2 8-2 4 1 5 0 5-1v-1l1-2 2-1c2 0 2 0 3 3l-1 3-1-1h-1c-2 1-1 4 0 4 2 0 4-4 5-9 0-4 0-5-2-5-5 0-7 0-6-1h-1m-122 2c-1 2-2 3-1 4l-2 2-1 2v1l-1 8c0 8-1 9-1 2v-5l-4 2c-4 1-4 3-1 2l2 1c-1 2 1 11 2 11 2 0 5 4 4 5-2 1-3 24-1 24a1 1 0 0 1 0 3c-2 0-3 2-1 2v4c-2 6-2 10 1 12l3 2v-37l1-37h5c5 0 6 0 6-2h-4c-1-2-1-2-2-1h-2c-1-2-1-3 1-3v-3l-4 1M29 462c0 1 3 3 14 6l15 6 1-1h2c2 0 3 0 3-2h1c1 2 3 1 3-2l-1-2c-1 1-7-1-17-5-6-2-13-3-8-1v1l-2-1c-2-2-11-1-11 1m102 7-1 29-1 27 3 1c2 0 3 3 1 3v9l1 2c2 1 2 1 2-22a193 193 0 0 0 0-26l1-14v-13h-3c-2 0-3 1-3 4m141 1c-2 1-3 2-4 1h-3l-2-1c0-2-4-1-7 1l-2 1h-2l-1 8 1 10 2-1c2-4 2-4 4 1 2 3 2 3 4 2s2-3 2-3l2-2 2-1c-1-1 6-2 9-1l4 1c2 0 2 1 2 3v15l2 14h3c2 0 2-1 2-4s0-3 1-1a11 11 0 0 0 1 5l-1-1 2 2c1 0 2 1 1 3h-1c0-1-1-2-5-2h-5v4c0 5 1 5 3 5s1 1-2 1c-6 1-6 2 1 2l7-1c1-2 10-2 10 0 1 2 2 2 8 2 4 0 6 0 5-1h-6c-5 0-7-1-5-3v-2l-1-1v-25c0-1-1-2-3-2h-3v-5l3-7 2-2-3 1c-2 2-2 2-2 0v-4l-1-1a4 4 0 0 1-3-4h4c2-1 3 0 2 2l1 1c1 0 2 1 1 2l1 1c2-3 2-14 0-14l-2-1h-2c-2-1-7 0-9 3l-2 1c0-2-1-2-3-1h-3c1-1-2-3-5-3-2-1-3 0-4 2m115 28c-2 1-3 11-1 11v13c0 15 1 16 6 14h7l8-1c7 0 9 0 8-2h-4c1-1 0-1-2-1h-4l-3-2h-5c-2 2-5 2-5 0v-1c-2 1-2 1-1-1l-1-2c-3 0-2 3 0 6s2 3 0 2h-2l1-16c2-2 5-1 5 2h1c0-2 1-2 1-1l2 1v-2l-2-2-4-4c-7-5-8-12-1-15 2-1 2-1 0-1l-4 2m-175 44c0 3 0 4-1 3l-1-2v-1l-1 2c0 2-1 2-10 2-11 0-15 1-8 3 3 0 4 1 4 2 1 3 6 4 9 2 1-2 6-3 6-1 1 1 1 0 2-1l2-6v-3l-1-2c-1-1-1 0-1 2m15 9-1 5-3 2-3-1c2-2-1-3-2-1-1 1-2 2-1 3l1 2c0 2 1 2 10 2 12 0 14-1 10-3l-4-2-2-2c0-2-1-3-2-3l-2-2c-1-2-1-2-1 0m258 29 1 9v8l-1 7v-7c0-6 0-8-3-7a40 40 0 0 0 1 18c-2 0-1 2 1 2 2 1 2 0 2-1v-1l1 2c1 2 4 3 4 1l-1-1v-1l1-3-1-15c-1-17-2-20-4-20l-1 9m-186 0h1c2 0 2 3 1 5v5l-4-5h-1l-1 2c-1 1 1 6 2 6l1 2-1 1-1-1c0-2-6-7-7-7-2 1-3 0-2-2v-2c-4 2-7 2-7 1-2-2-4 1-4 4 0 4 10 6 11 3 1-2 1-2 1 0 0 4 3 6 8 6h5l-1-4c0-3 0-3 1 1l2 5 1 2c-1 1-1 1 0 0 3 0 2-3 0-3v-1c2 0 2-1 2-10v-10h-3c-3 0-4 0-4 2m33 21-1 7-1 4-2-2c-2-3-2-3-3-1s-1 6 1 7l-1 1-3-8c-1-8-2-12-4-8a6 6 0 0 1-5 5h6c1-1 2 0 2 3 1 5-1 8-3 6l-7-1v2c-1 1 0 2 1 3v1c-3 0-1 4 2 4s3 0 3-2c-1-3 0-4 6-4 2 0 3 0 4-2l3-3c3 0 3 0 3-8v-8l-1 4m157 22h-4c-3-1-5 3-3 12l1 10a24 24 0 0 0 3 13v6l1 11 1 6h4c3 0 3 0 3-4l-1-4v-1c2-1 0-3-3-3s-3 0-1-2l3-2c1 0 1-29-1-38-1-4-2-6-3-4m-18 5 2 13c1 15 1 17 4 16h3l-4-30a3 3 0 1 0-5 1" tabindex="-1" itemprop="regular" style="fill: rgb(255, 87, 20); fill-opacity: 0.835; fill-rule: evenodd; color: rgb(100, 125, 135);"></path><path d="M487 2c0 2-1 2-2 2-3-1-3 0 0 3l2 4c-1 2 1 3 3 1h1c2 2 1 3-2 2l-4 1-1 2-1-1-1-2v-2l2 1h1c0-1-4-3-5-2-2 0-1-1 1-3s2-2 1-3V3l-1-1-1 2c-1 1-1 2-3 1v1c2 2 2 2 1 3s-2 2-1 3a3 3 0 0 1-5-2c0-1-1-2-3-2-3-1-6 0-5 1 1 2-2 1-3-1l-2-1 1 2 1 1v3h1l3 1c1 2 1 2-1 2h-3l-1 1-2 2h-1l-1-1v2l1 4c-1 2 0 5 1 6l1 1c0-2 0-2 2-2 0 1 1 1 0 0l1-1c4 0 3 3-1 4a6 6 0 0 0-3 10l-2-1-2-1c-2 2 0 3 3 3 1 0 2 0 1 1l-2 1-2 1 1 1v2h-1l-1-2-1-1c1-1 0-4-1-4-1-1-2 0-1 4 0 3 0 4-1 3l-3 1-1-1c-2-3 0-5 1-4l1-3c0-2-1-3-3-2-5 1-5 1-3 3l2 2h-2c-3 1-6-2-5-5 0-1 0-2-2-2-1 0-2 0-1-1l-1-1v-3c-2-1-4 4-2 6l-2 3v2l-1 1c-1 0-2 2-1 4s-4 3-5 0h-1c-1 2-2 2-3 2h-2c0 1 2 3 5 4 3 0 3 0 2 3v1l4-2 3 1v1l-1 5c-1 5-2 5-6 5h-4l-1 2v1l1 2 2 1v-1c-1 0-1-1 1-2 2-2 2-2 1 0 0 2 0 3 2 3s2 0 1 3v3l2-3 1-4c1-1 1 0 1 4 0 3 0 4 1 3a1 1 0 1 1 1 2v1l2 2 1 1c1-1 0-3-1-5l-1-3 2 2c1 4 3 4 2 1 0-2 0-2 2-2s2 5 0 8l-2 4c-1 2-6 4-6 2s0-3-1-2c-2 2-3 3-1 2l1 1-2 1-2 1 1 1 2 2h2v1c-2 2-3 2-4 1v-3l-2 2c0 2 0 2-2 0s-3-2-3 2l3 1-1 2-4 2c-1 1-1 0-1-2 1-3 1-3-1-3l-2 2c0 5 0 5-2 5s-3 0-3 2c-1 2-1 2-1 0v-3c-2 0-3-2-2-4v-3h1l2-1 2-1c1 0 2-1 2-3 1-2 1-2 4-1l3-1c0-3-9-4-10-1l-1 1-2-2h-1c0-2-3-1-4 1-2 3-1 4 1 3v1c-2 3-2 3-1 5 2 3 2 5 0 5h-1c1 1 0 3-1 4h-2a4 4 0 0 0-3-3c3 2 1 11-2 10-2-1-2-1-1 1l-1 1h-1l2 1h2c0 1 1 2 2 1l2 1c1 3 5 1 4-3l5 1-1 1 1 2 2 3 1 1v1l1 2v1c-2 3-1 5 2 3l2 1-1 1h-1c-1 1 0 1 1 1l1 1a1 1 0 1 0 2 0l1 1h1a1 1 0 1 1 3 1 2 2 0 0 0 2 2c0-2 0-2 2-1 1 1 2 3 0 3h-1l1 1-1 1-1 1 2 1c0 1 1 2 2 1l1 1c-1 2-1 5 1 5l2 2c1 2 2 2 3 1v1c-1 1 0 2 2 3 2 2 2 2 3 1l3-3a8 8 0 0 0 5-5v-1c0-1 1-1 3 2l2 2-2 2-2 2h2a2 2 0 1 1-1 4c-1 0-2 0-2 2s1 3 2 2l2 1c-1 1-6 2-8 1h-4c-1 0-1-1 1-2 3-1 5-1-21-1h-7l13 1c1 1-2 4-6 6-7 4-12 10-13 15-2 8 6 18 15 20 7 1 7 1 7 8 0 5 0 6 1 5s1-1 1 1h2l1 1v-8l2 3c0 3 2 3 2-1v-1l1-2c0-2 0-2 1-1 1 2 1 2 1 0l2-2h1c0-3 2 1 2 5 1 2 1 1 1-3 0-9 0-9 2-9 4 0 11-6 14-11 2-4 2-13 0-15-1-1-1-2 1-3 1-1 1-1 0 0l-1-1h4l2 1c3-1 3 3-1 9-4 7-4 12 0 18 2 2 3 4 2 6 0 2 0 3 1 2l1-2c0-2 0-2 8 0l8 2v6a11 11 0 0 1-2 8 2 2 0 0 0 3 1 4 4 0 0 1 6-2l-1-2h-3l2-2 2-2 1-1 1-2c1-2 1-2 2 1l2 3v-3l1-3v1l3 7v-13l4-2 4-2v-76c0-70 0-79-2-79h-2l2-3c2-3 2-4 2-26V0h-12c-12 0-12 0-13 2m-57 13-1 1-2 2c0 2 0 2-1 1 0-2-1-2-1-1h-4c-4 0-4 0-4 2v3l1 1h-3v1c1 2 0 4-2 3h-2v2c2 2 5 2 5 0h5v5l1 3 2-4 2-5c-1-1 0-1 1-1l3-2 2-1c-1 1 0 1 0 0l1-3c-3 2-4 0-3-2s1-2 3-2l2-1v-1c1-1 0-2-2-2l-3 1M38 133l-2 3c0 2-1 2-3 2-13 0-23 11-20 21 1 5 9 12 15 15 4 1 5 2 5 4 0 3 4 13 5 14l2-1c1-2 1-2 2-1 1 2 2 1 2-2a3 3 0 0 0-2-4c0-2 2-2 3 1 2 4 3 4 2 1-2-5 0-3 2 2 2 4 4 6 3 2-1-2-1-2 1 0 0 2 1 3 2 3 1-1-1-6-3-10s-1-4 6-6c21-6 21-25 1-35l-5-4-1-3c-3-1-14-3-15-2m28 5 22 3 16 3 2 2-4 1c-23 0-29 25-7 35l7 4v5c0 5 2 11 3 11l5-8 1-2 1 1 1 4 2 3 2 2h1c1 1 1-1 1-7 0-8 0-8 3-8l2-1h1c2 0 9-3 12-7 8-9 2-22-12-29l-5-4c-1-2-2-2-14-3a613 613 0 0 1-44-7l4 2M1 150c0 13 0 13 2 12l6-11c0-3-4-10-6-12s-2-2-2 11m158 6c-13 4-18 15-11 25 3 4 10 11 13 11 2 0 2 1 1 8l-1 7 1-1 1-1v1l2 2h1c-1-1 0-3 1-4l1-3a1 1 0 1 1 2 0l-1 2c0 2 0 2 1 1l1-1c0 3 2 2 2 0l1-2c1-1 2 2 1 7 0 3 0 3 1 2 0-2 1-2 1-1 0 3 2 0 2-3 0-8 1-10 4-10 2 0 3-1 3-2h1c2 2 8-1 12-6 10-11 0-29-16-31l-5-1-3-1h-7c-3-1-6 0-9 1m76 3a2 2 0 0 0 0 3h-1l-3 1-1 1c-3-3-15 7-17 14-3 9 8 23 19 23v8c0 7 0 7 1 4s2-3 2-1c0 1 1 1 2-2l2-4 2 3 2 4 1-3c1-4 1-5 1-1 0 3 2 8 3 6l2-7c0-6 1-7 2-7v-1c-1-1-1-1 2-1 3 1 4 0 8-2 14-9 11-25-5-33l-8-4c-1-1-11-2-14-1m61 6c3 0 2 2-3 4-22 8-23 29-2 35l5 2v8c0 4 0 7 1 6 1-2 4-2 5-1s1 0 1-2c0-4 1-5 1-1l3 2 3 2c1 4 3 0 3-7s0-7 3-8c3 0 3 0 1-2v-1l3 1c1 1 9-4 11-7 6-9 2-20-10-26l-3-2 2-1 3-1h-3a116 116 0 0 0-24-1m54 3c-11 0-12 1-5 1 17 0 31 1 30 2l-4 1c-17 0-25 3-30 12-5 10 4 23 16 24 2 1 3 1 3 9 1 8 2 8 3 0 0-2 0-2 1 0 1 3 2 3 1-1l1-2 1 6v5l1-6c0-7 2-6 3 2l1 5v-6c-1-6 0-9 1-4 0 3 2 8 3 7l1-7v-8l5-1c10-3 17-12 15-20-1-7-12-16-18-16-2 0-2 0-1-1 2-1-4-3-9-3l-19 1M1 273v38c-1 21-1 22 4 23 3 0 5 1 5 3l-5 1c-6 0-4 2 2 2 5 0 5 2-1 2-3 0-5 0-4 1l8 1h9v3c0 3 1 3 5 3h4l-1 4 1 4 2 1h3c1 0 2 1 2 3 0 3 1 4 3 4s3 1 3 3 1 3 4 3c3 1 3 1 3 8 0 6 0 6-3 6l-6-3-2-3-1 4-1 12-1 8-1-14c0-12 0-14-2-15-2-2-2-2-2 4l1 8v1c-2 0-3 4-1 6v1l-1 5-1 6-1 3v4l-1-4-1-3c-1 1-2 0-2-2l2-2 1-2-1-2v-1c1-1 2-6 2-14l1-11-10-10C6 351 1 347 0 348l1 3v2l-1 44v43l2 1c3 1 4 2 1 2-2 0-2 0-2 2h4c3 0 4 0 6 2l3 2h-3l-2-1a1 1 0 1 0-2 1l3 1 5 2v1c-4 0-1 3 4 4 5 2 9 2 16 2 9 0 11 0 16 2 9 5 10 5 10 0 0-4 0-4 3-4 2 0 2 0 2 5 0 4 0 5 2 5l2 1v4c1 1 1 1 1-1 0-4 2-5 2-1 0 3 0 3 1 1 0-2 1-3 3-4 3-1 2-2-2-2h-4l-1-4c0-4 0-4 1-3 1 2 2 2 5 0h2c1 1 1 1 2-1v-4l-1 1c0 2-30 1-32 0l11-1c13 1 19 0 20-2v-4c0-2 1-3 2-3v-22l1-39v-19l-5-11-7-12v-2l-2-1a3 3 0 0 1-4-3l1 1 2 1v-2l-1-2h-4l-2-3c-2-2-4-8-3-8l1-6a31 31 0 0 1 1-11c-1-2 0-4 1-3v-15c-2-1-2-2-1-7l-1-6c-2 1-2 0-2-6 0-5 0-7 1-5h1l13-1 12-1-14-1H54v9l-1 15v6l-2-3-7-8-4-6v4c0 2 0 3 1 2h2c1 2 1 2-1 2l-2 1 3 2c6 0 10 8 10 19 0 7-1 9-2 9v7h-1c0 2-4-2-10-11l-20-27c-10-15-11-16-8-16v-1h-2c-2 1-3 0-1-1l1-2H8c-3 3-1 8 21 37s23 30 19 35l-2 2-4-6-18-23C8 287 8 285 6 278l-2-12-1-9-1-4-1 20m419 28c-2 0-3 1-3 2l-2 2-3 2 1 1-1 2h-3a9 9 0 0 0 11 13v2l1 3v2l1-2a2 2 0 1 1 4 2c0 2 2 3 3 1 1-3 2 0 3 10 0 11 0 11 3 9h5l1-2c1-1 0-1-1-1l-4-1 1-1h2l-2-1v-1l2-2 2-2h1v-24c0-7 0-8-2-8l-5-2-7-2c-4 0-4 0-3-1 2-2 1-2-5-1m-337 4c-7 5-5 13 4 16 2 1 3 2 3 5l2 3h2v-3l2 2c0 2 0 2 1 1h1c0 4 1 1 1-3 0-3 1-3 4-5 8-2 11-9 6-14l-2-1c2 3 1 5-2 4l-3-1c-1 1-9-1-9-3 0-1 0-2-1-1l-2-1c0-2-3-1-7 1m296 1-3 3a9 9 0 0 0 1 17c3 1 3 2 3 5a2 2 0 1 0 4 2l1-2 1 2c0 3 3 3 3 0v-4l4-4c10-5 9-16-1-18l-4-2c-1-2-9-1-9 1m-257 1a9 9 0 0 0 2 18c3 1 3 1 3 4 0 4 2 5 2 2l1-2v2c0 2 0 2 1 1l1-2 1-1 1 2-1 1-1 1h1l3 1c1 1 1 1 1-3 0-5 0-5 3-6a9 9 0 0 0 5-14c0 2 0 2-3 0l-3-3v-1c-1-1-2 0-1 1l-3 1a60 60 0 0 0-9-2h-4m222 0-2 3-1 1-1 2-1-1a9 9 0 0 0 2 16c3 1 4 2 4 5 1 3 1 3 1 1l3-2 1 2c0 2 0 2 1 0s1-2 1 0c0 4 2 3 2-1l2-4-1-2v-1l2 1a9 9 0 0 0 0-18l-4-2c0-2-9-2-9 0m-35 1-4 3a9 9 0 0 0 0 18c3 1 3 1 3 5v4l1-3c0-2 0-2 1 0 2 2 4 3 4 0 1-1 1 0 1 1 0 5 2 3 2-2v-5c0-2 3-2 4-1 2 2 8-4 8-7 0-4-4-8-8-10a5 5 0 0 1-4-3h-8m-36 1-3 3-2 2c1 0-1 3-3 3s-4 5-2 8c1 2 7 6 9 6s2 1 2 5v3l2-2v-1l1-2 1 1v1l1-1c1-2 3-1 3 1v3c1 2 1-2 1-9 0-3 2-4 4-2 1 1 2 1 4-2 5-5 2-13-5-15l-4-2c0-2-9-2-9 0m-28 3-5 1-9 1h-1c2-1 2-2 1-2-2 0-7 6-7 8 0 3 4 8 8 10 3 1 3 2 3 5l1 5 1-2c0-2 1-3 2-3l1 2c0 2 2 1 2-1 1-1 1 0 1 1 0 2 0 3 1 2v-4c0-4 1-7 2-5h2c4 2 10-6 8-11s-10-9-11-7m-93 2c-2 4 1 10 7 12 4 2 4 3 4 6s0 4 2 4l2-2 1-3 1 2c0 2 1 3 2 3h1l-1-3 1-4 3-2c4 0 9-5 9-7l-1-1-3-1-3-1-2-2-2-1-4-1-5 1h-2l-3-1h-4c-1-1-1 0-3 1m37 0c-4 5-1 13 7 15l1 5c0 5 1 5 3 1l1-2v2a2 2 0 0 0 1 2l1-2c1-1 1-1 1 1l1 2 2-4c0-3 1-4 2-4 8 0 13-9 8-15-3-2-3-2-3 0 0 1-1 2-4 2l-4-1-5-1c-3 0-4 0-3-1l-3-1h-3l-3 1m225 39c-12 1-9 1 7 1 11 0 11 0 11 3 0 2 0 2 5 2 4 0 4 0 4-2 0-3 0-3 6-3l21-1h-54m20 9v1l-2 2-2 2-2 1h2c3 0 3 2 0 3l-2 1 1 1h3v1l-3 2c-1 1-1 1 1 1 3 0 4 3 1 3-2 0-2 0 0 1l3 1-3 1-2 1h3c1-2 2-1 2 3a6 6 0 0 1-2 5c2-1 2 0 2 1l-2 2a1 1 0 1 0 1 2v-1 5a7 7 0 0 1 0 10c-1 1 0 2 1 2l-1 1c-3 2-5 6-2 5v2c0 1 0 2 2 3l1 2h-1l-1 1c-2-2-3 5-1 8l2 1-2 8-3 2c-2 1-2 1 0 1 4 0 2 2-2 2s-5-1-5-2l2-1v-1a42 42 0 0 1-1-26c-1-2-1-2-1 1s-3 5-3 1l-1 1c-1 1-1 0-1-3l2-8 1-2 3 5 3 6v-12c0-10 0-11-2-14l-2-2 3 2 2 2v-3a71 71 0 0 0-1-22h1c0-2-2-2-13-2s-12 0-4 1l8 1-7 1-6 1h10c5 0 9 0 8 1l-3 1c-3 3-7 6-10 6l-2 1-3 1c-2 0-2 0-1 1 2 1 2 1 0 3l-3 1 2 1-14 1h-16l1 14c0 8 0 13-1 10v-4h-5l-12-1h-6v15h-15l13 10 1-5c1-5 1 8 1 20 0 9 1 10 6 9 5-2 5-6 1-5-3 0-3 0-1-1l4-2 1-2c2 1 4-1 4-2h-3c-2 0-2 0-2-2v-5l2-1 3-1c3 1 4 2 2 3v6c-3 1 0 5 4 5h3v-17l1 7 1 5 6-14 2-3v5c2 10 2 12 3 9v-3l-1-9 1 4c0 3 0 3 2 2 2-3 6-2 6 0l1 2-1 5c-1 1 0 1 1 1 2 0 3-1 3-6 1-7 2-7 4-5 4 4 5 3 6-12 1-3 1 2 1 10a57 57 0 0 0 1 19h1c2-1 2-1 2 1v3c2 0 3 2 3 4 0 1-1 2-3 1l-5 1v1c2 0 2 0 1 1v3c1-1 4 2 3 4l1 2 2-1 2-1 2-1c0-2 2-1 3 2s3 4 4 2l-1-3a7 7 0 0 1 1-11l3-3c0-4 2-3 2 0 0 2 1 2 3 2 3 0 3 0 2 2-1 1-1 1 1 1 1 0 2 0 1 1l-2 1c-4-1-8 4-4 5 1 1 2 4 0 4l-1-1h-2v5c0 2 0 2 1 1 2-2 2-2 1 0l-3 3-1-1v-1l-2 1-5 1c-3 0-4 0-2 1 2 0 5 3 4 4-1 2-5 2-5 1l1-1 1-1-2 1h-2l2-2c1-1 1-1-3-1h-4c1-1-1-2-4-2l1 1 2 3 1 1 1 1c1 3 0 3-2 0-1-2-2-2-4-1s-3 3 0 2v1c-2 2-1 4 1 4v2h1c2 0 3 1 1 3l-2 4v2l-2-2-2-2v3c0 3 0 3 1 2h2c1 3 2 2 2-2l1-5 1 2v2l2 2 2 2 2 1-4 2v1l4 4h2v-1l2 2v3l-2 1 2 2v4h4v-1l1-1 1 3v3l1-3 3-2h3l-1-1c-2 1-2-1-1-3h2c2 1 0 6-2 7-2 0-3 1-3 2h2c2-2 3-2 3 1 0 5 2 6 2 2 0-1 0-2 1-1l1 2c2 0 1 2-2 3h-7c1 1 1 1-1 1l-2-3c0-3-1-3-2-3-1 1-3 0-4-1l-2-1-1 1v-1l-1-3-2-2c0-2 0-2-2 0-3 1-5 9-3 7l1 1 2 1 2-2 2 2 2 1 1 1h1c2-1 4 0 3 1h-4c-3 0-4 0-3 1l-1 1c-3-2-12 0-12 2v3l-1-3c-1-2-8-3-20-2l-18-1c-14-2-31-3-29-1l5 1 4 1 7 1 7 1v3c0 4-4 7-5 4l-2-1-1 2c1 0 1 1 0 0l-1 2 1 2v-1h2l3 1-1-1v-1h3l4 1c2 0 2-1 2-5s0-5 2-5l2 1v3c1 1 1 1 1-1 0-3 4-4 6-2l1 1 1-1v-1 2c-2 5-1 8 2 5l-2 4c-2 3-2 4 0 4l1-2v-1l1 2h1l3-2c2 0 1-2-1-3l-2-1h1v-5h5l4 1h2l1 1 2-1c0-2 3-3 5-2v1l4 1c4 0 5 0 6-2l1-2v2c0 2 1 2 4 2 4 0 4 5-1 5l-2 2h4l4-1 1 4c0 5-3 9-6 8v31c1 1 9 0 10-1l5-1h4v6c1 3 1-1 1-8 0-18 0-17 1-16l1 4 1 5 1 6 1 7c2 2 1 8 0 8l-1-3c0-3 0-3-1-1l1 4v4l1 3v-2l1-1 1 2 1 1 1 5v-43c1 1 4 0 4-2 1-1 1 0 1 3 0 2 0 4-1 3v-1l-1-1-1 2-1 1-1 5c0 4 0 5 1 4v1l1 3 1-5c1-10 2-2 3 18 0 22 1 28 1 11 0-9 0-10 3-12 2-1 2-3 2-6l2-7v-2l-2 3-3 2a2 2 0 0 0-2 1l3-5a2 2 0 0 0 0-4l-1 1c-2 0-2-2-1-4 1-1 1-1 0 0l-1-1 1-3h2l1-2c0-1 0-2-1-1l-2 1 1-2v-11h-3l-3-1c-2-2-4-3-4-1l1 1v1l-1 3c0 5-2-2-2-7s0-5 1-3c1 3 3 4 3 2 0-3 2-2 2 0l5 3c3 1 4 2 4 4h7l1-2c1-1 1-1 1 1-1 2 0 3 1 4 1 2 1 2-1 4-4 3-4 5 0 6 2 0 3-1 3-2l1-1 4 14 3 11 2 11 1 6h-3l-3-1h-2c-2 1-3 5-1 7 0 0 2 10 2 21l3 25v4h-4c-4 0-5-1-3-3 1-1 0-20-1-21-2-2-11-2-11-1 1 1-1 2-8 2-10 1-18 0-14-1v-1c-3 0-3 2-2 10s3 10 6 10h3l-1 1-1 1 2-1h3c2 2 2 2 0 2l-10 1 3 1 2 2c-1 2 10 3 24 3l12-1 1 3c0 4 3 4 3 0 1-5 6-6 6-1 0 4 0 4 3 4s3 0 3-2l-3-21-1-7-3-24v-5h5l6-1 3 36v22c0 2 1 2 9 2h8l-7-1h-7v-6c0-7 0-7 3-7l3-1h-3c-3 0-3-1-4-14-2-22-2-31-1-31 2 0 1-5-1-7s-3-4-3-9c-1-5-1-5-1 2l-1 7-5 1h-5l-1-7c-2-11-2-38 0-38l7-1h-5c-3 0-3 0-2-1l3-2v-2c-1-1-1-1 0 0l5 5 2 1h1c-1 0-1 2 1 2l1-1c0-2 5-1 6 1 1 1 1 0 1-3 0-10 0-12-1-10 0 3-2 3-3 2l-4-1c-1 0-2 0-2-2 0-3 2-4 3-1 0 3 3 2 4-1l2-1 2 1c2 0 2 0 1 4l1 6c3 2 2 3 0 3l-2 1 1 1 2 1c2 0 2 0 1-2l1-1h2l1-1v-7c0-7 0-7 2-7l2 4c1 2 1-3 1-10-1-16-2-20-4-20l-3-2h3c2 0 2 0 1-2-3-2-2-4 0-2s2 2 1-2l-1-5-2-2h1l1-2v-2c1 0 2-3 2-12 0-11 0-13-2-12l-5-4h1l3 1c1 1 1 1 0 0-2-2-1-6 1-4 1 1 1 1 1-1v-5c1-2 0-4-2-2-2 1-9-1-9-2h-2c-2 1-2 2 0 6 1 3 1 4-2 2-3-1-4-4-2-5v-1h-2l2-1v-1c-3 0-4 3-3 5 3 2 2 4 0 2s-3-2-3-1v6l-2 5v-10l1-2c1-2 1-2-1-2v-1h2v-1a3 3 0 0 0-6 1l-1 3v1l-3-1c-6 0-8-2-7-5l-1-3v-1c0-1 2 0 4 4v-2l1-5h3l-2-1-3-1a4 4 0 0 0-6 0v1c2 0 2 0 1 3s-5 3-5 0l-1-2c-1 1-2 0-3-1a2 2 0 0 0-4-1l-1-6c0-4 0-5 1-4s1 1 2-1c1-3 2-2 3 3l1 3v-3l1-4v-1c-3 1-2 0 1-2 2-3 2-3 0-4l-2-1v3h-1c-2-2-8-2-8 0h-3c-3-1-3-1-4-5 0-3 0-4 2-4l-2-2c-2-3-3-4-2-5s2 0 4 2l4 2 2 1c0 2 2 1 4-1 1-1 1-1 3 1 1 2 2 2 2 1l2-2c1-1 1-1-1-1s-3-3-1-5c1-1 0-3-1-3-2 0-5 3-5 4l1 1 1 1-2 1h-5c0-1 0-2 1-1l1-3v-3l2-1c1-2 4-3 4-1 0 3 2 1 2-2l2-4c2 0 2 0 1 3 0 3 0 3 1 2 2-2 4-1 2 1v2h2c0-2 3-3 3-1h1c0-2 0-2 2-1v3c-1 1 0 2 1 4v2l-3 3-3 2c-1-1-1 0-1 1l-1 2a1 1 0 0 0 0 3l2 3c1 3 1 3 2 2l-1-3v-1h1l1 1c3 0 2-4 0-5-1-2-1-2 1-4l3-2v4c0 3 0 4 2 3l1-1 1 3c0 3 2 4 4 4v-1c-2 0-3-2-1-3l-1-2c-3-4-3-7-1-7l1 1 3 2c0-1-2-8-4-10-2-1-4 0-2 1 1 1 0 5-1 5l-1-4c1-5-1-7-7-10-3 0-2-2 0-2l3-1c0-1-2-1-7 1l-1-1h-2c-3 1-3 1-3-1s-1-3-5-3c-2 0-3-1-3-2a2 2 0 0 0-4-1l3 4c2 3 2 3 0 3s-2 0-1 1c2 0 3 5 2 6l-2-2c-2-2-6-3-6 0h-1v-6l2-4c1-1 1-1-1-3-2-1-2-3-2-11l-1-10-2 1c-2 1-2 1-2-3 0-3 1-4 2-4l2-1c0-2 0-2-2-1-2 0-2 0-1-1 2-1 2-2 2-3l-1 1h-1c-2 0-1-2 1-2l2-1c0-1-1-2-4-1h-3l1-1v-2l2-1 1-2 3-2h-5c-3 0-4 0-3 1m-131 14-4 1h-7c-4-2-5-1-4 1 0 2-2 3-8 2-5 0-9 1-10 3v1l2-1-8 15c-5 9-5 8-1 12l5 4 5-8a29 29 0 0 0 6-9l1-1v-1l1-3 2-3c2 0 3-3 1-3-1-1 1-1 4-1 4 0 5 0 6-2l2-2v4c1 1 0 1-1 1a2 2 0 0 0-1 3c0-2 13-2 16 0l3-1h1c0 1 1 1 2-1 2-1 3-3 2-4 0-2 0-2 2-2s6-2 6-4l-6-1h-17m29 16-2 3c0 1-5 5-7 5l-1 2-6 5-2 2v1c-2 0-7 4-7 5l-3 3c-5 3-10 8-9 10l1 1v3l1 4c0 4 0 4 2 4h1c0 2 0 2 1 1l3-3c0-2 1-3 2-3v3c2 1 3-1 3-4 1-2 2-2 4-2 4 0 3-3 0-3h-3l3-1 5-1h2c0 2 3-1 3-3l2-3 2-1h-2c-2 0-2 0-1-1a10 10 0 0 0 1-6c1-4 9-13 11-13a1 1 0 1 0-1-1c-2 0-3-1 0-3 3-4 1-6-3-4m-199 10-12 2-10 1 1 2-1 4-1 3h16c2 0 1 22-1 22l-2 2 1 1c1-1 2 2 2 9v5l1-5c1-4 1-4 1-1l2 5 1-4c1-4 1-9-1-10-2-2-2-2-1-3v-2l-1-10 1-7 5-5v-1l-1-1-2-1 2-4c4-3 4-4 0-2m-86 14H17v4l-1 12v8h59l1-4 1-12v-8H47m-19 7v4h5a6 6 0 0 0 6-2l1 1 3 1 2-1 2-2 3 2a4 4 0 1 0 0-5c-1 1-2 2-3 1-2 0-2 0 0-2 2-1 2-1-1-1s-3 0-3 4v4l-2-4c-2-5-3-5-5-1-1 2-1 3-4 3-2 0-2 0 0-1 2 0 3-2 0-2l1-1c3-1 3-2-1-2s-4 0-4 4m299 0-1 4c1-1 1 2 1 9l1 8c1-3 3-4 5-2h1l1-1 3-1c1-2 4 0 4 2l2 8c2 3 2 3 2 1 3-10 2-16-2-18-2-1-2-1-2 2 1 3-3 4-4 2h-1l-1 1 2-8c1-1-2-3-8-7h-3m-207 31v10l-20 1H81v10c0 11 2 11 2 0 0-7 0-8 2-8l3-1c2 0 2 1 2 9v10l1-9c0-11-1-10 17-10h12l1-11-1-9v8M1 460c0 6 2 6 2 0 0-3 1-3 3-1a30 30 0 0 1 12 14v-5h1l3 3c3 2 4 3 5 2 2-4 8 0 8 5 0 2-3 2-6 0h-3c-2 0-2 0-1 1s1 1-1 1l-2 1 1-1-20-6-2 2c0 3 13 6 15 4s3-1 2 1c-1 1-1 1 1 1l7 2c12 4 37 6 30 2l-1-2c1-1 0-3-1-5-2-3-2-4 0-5l-10-4a548 548 0 0 1-28-11l-10-3-5-2v6m448 5c0 5 5 10 8 7l3-1c1 1-2 5-3 4l-4 2c-2 2-2 2-1 0 1-3 1-3-1-2-2 0-2 0-1-1v-4c-2-2-3-3-3-1h-1c-2-1-5-1-6 1-1 1-1 2 1 2h2l2-1c3 0 4 10 1 12v2l2 3c0 2 0 2 2 1 1-2 1-3-1-3-3-1 1-2 6-1 5 0 5 0 4-1s-2-2-3-1a2 2 0 1 1 2-1l3 1v-1h1c2 2 3 1 3-1s0-3-2-2c-3 0-3-1-1-6 1-5 1-10-2-7h-1l-1-1v3c1 3 1 3-2 0l-3-2v1l1 2c-1 1-1 0-2-2-2-4-3-5-3-2m-290 4-1 1h-1a3 3 0 0 1-4 0l-3-1c-4 0-4 0-4 4l-1 4-2 2-2 2-2 1c0 2 4 4 5 3l1 1 3 1c1 0 2 0 1-1h2l3 2c0 2 2 1 2-1l-3-4-2-3 2 2 3 3v-10c1-1 1 2 1 9 0 11-1 12-5 9l-5-2-5-2h2c-2-3-5-2-5 1 0 4 1 5 5 5s6 3 5 5c-2 2-8 1-10-2h-2c-2 1-1 3 1 5l2 5c0 3 0 3 1 1s1-2 1 2v3c-2-1-3 3-3 15v13l5 3 6 4-16-8-3-2 3 3 10 6 7 4-1 1-1 1h2c2-2 2-2 3-1s1 1 0 0l-1 1c1 2 0 2-2 2-4 0-5 2-1 5 3 3 2 5-4 3l-4 1-2 1h-33c-6 2-56 2-67 0l-10-1v-1l1-5 1-3v4c0 4 0 4 1 3l1-1c0 4 2 2 2-2 0-3 0-3-1-2-2 1-2 1-1-1 1-4 3-2 3 3v4h3l16-3 10-4 7-4 6-3 7-3 1-2 2-1c3 0-1 3-10 8l-6 4 13-6h1l7 1h13c-1 1-1 1 0 0l2-1 1-3h2v1l3-1c9 0 13-4 10-8-2-2-3-2-8-2h-4v-6c0-6 1-7 4-4 4 5 13 12 12 10l-2-2c-1 0-8-7-7-8l1-2 2-4c2-3 3-5 1-5-1 1-2 0-1-3 1-5 1-6-1-4-1 2-1 2-1-4 0-4 0-6-1-5l-1 1c-1-2-1-2-3-1-2 2-2-3 1-6h2c2 2 2 2 2 0l2-1c1 1 1 0 1-2l1-4c1-1 1-2-1-3-4-4-5-6-5-11 0-2 0-3-1-1a11 11 0 0 1-7 12l-2 1c-1 1-1 1 0 0v-1c-3 0-2 2 0 3 4 1 5 20 1 24l-2 3-2-3-2-2v2c0 3 0 3-2 3l-3-2-1 1h-3c-3 0-3 0-2 1l6 2c8-1 10 0 12 4l2 3h-8a94 94 0 0 0-11 1c-2 0-3 1-4 4l-1 2c0-2 0-2-2-1-2 2-2 2-3 1 0-2-1-2-2-1h-2c0 3-2 2-2-1s0-3-1-1l-2 3c0 2 0 2-2 2l-2 1c0 1-1 1-2-2l-1-1c1 3-2 4-3 2s-1-2-1 0c0 3-3 4-12 5l-7 2-8 1-9 1h-4l-5-1c-3 0-9-2-9-4l1-1 2-3c1-1 1-2 2-1 1 2 6 3 7 1h3c3 2 3 2 5 0h11l3-1h7l5-1h3c3 0 3 0 3-4v-3l1 3c1 3 1 3 1 1l1-2c1 1 3 0 4-1l2-1h2l2-1c1 1 2 0 2-1l-3-1c-6 1-11 0-11-1l4-1h20v-2c0-2 0-2 2-2 2 1 2 0 2-1 0-2 0-2-2-1-4 1-5 1-4-2l-1-3-1 2-1 1v-3c0-2 0-2-2-2l-2 2h1c1-1 1-1 1 2l-1 4-1-1-1-4c-1-2 1-6 3-5h1c0-2-2-3-3-2h-3l1-1 2-1c1-2 3-1 5 4a2 2 0 1 0 1-1v-3c0-2 0-3-2-3-1-1-2-1-1-2l-2-10-1 3v3l-1 2a7 7 0 0 0-3 4l1-3c2-3 2-3 0-3l-3-3c-2-4-3-3-2 1 0 3 0 3-2 3-2-1-2-1 0 1H56l1 2 4 4 3 1h-3c-2-1-2 0-2 2l-1 24-24 1-13 1-15-1c-5 0-6 1-4 5v2l-1 10v10l1-8c0-7 1-9 2-9 2 0 2 0 2 2l-2 1c-2 0-1 3 1 4v10l1 9c1-1 1 0 1 1l-1 2-1 5v5l-2 17-1 17-1 2 1 2v13c0 13 0 14 2 15 9 3 30 24 37 37 2 3 1 2-3-2l-4-5-7-6a20 20 0 0 0-26-7h2c9-2 30 13 26 19-1 1-1 1 0 0 2-1 2-1 3 2l2 3h166l165-1-4-2c-10-6-13-9-11-11 1-1-3-1-24-1h-25l-2-2c-2-2-3-3-9-3-6-1-7-1-9-4l-3-3 3-1c2-1 2-1 0-1a5 5 0 0 1-6-4l-4-6a7 7 0 0 0-5-5c1-3-1-6-3-6s-2 0 0 1c1 1 0 1-5 1-8-1-9-2-2-2 8 0 1-2-9-2h-8l8-1h24c2-2-4-6-10-6-8-1-14 0-13 2l1 2a32 32 0 0 1-15-4v1l-2 1c-3-2-23-2-22-1l-2 1-4-2c-5-1-6-3-1-3 3 0 4 0 3-1-2-1-1-1 3-1l5 1 19 1a753 753 0 0 1 26 1c6 0 6 0 5-2-2-1-2-1-1-2 2-1-1-3-3-2-2 0-2 0-1 1l-10-1c-1-1-1-1 2-1 2 0 2 0 0-1l-31-1-28-1v-14l19-1h19l1-3a6 6 0 0 1 3-4h-2l-1-6c1-7 1-8 3-6l1 4c0 3 0 3 2 3s3 1 3 2l2 3-2 1c-4 0-3 3 1 4l5 1c3 1 2-1-5-12-5-7-5-8-4-9l2-3-1-4c0-2 0-2-1-1s-1 1-1-1c-1-2-1-2-9-2l-9 1-1-4c-2-3 1-7 3-5v-5c1 0 1-1-1-5l-1-5c1-3 0-4-2-3l-2 1-1 2c0 2 0 2 2 1 2-2 2 2-1 4l-1 4c1 3-2 4-6 3-1-1-2-1-3 1-3 2-9 1-9-1-1-3-2-3-5-3l-3-1 2-2 1-2c0-1 1-2 3-1l2 1h-2v1c3 2 14 1 14-1s-3-4-7-4c-3 0-3 0-1-1l2-2h-4l-3-1a4 4 0 0 0-5 3v-1l-3-3h-13c-2 0-3-1-3-2s0-2 2-1l1-1h1l1-1h2c3 3 6 2 3-1-2-2 0-3 2 0h2c-1-1 0-1 1-1 2 0 2 0 0-1-4-1-6-3-6-5s1-3 3-1l2 1-1-1c-1-1-3-2-4-1l-4-1h-6l2-3a2 2 0 0 0-1-3l-4-1h-10l-3-1-2-1c-2-2 1-4 7-2 5 1 7 0 7-2s0-2 1-1l2 2 1-2c1-1 1-1 1 1 1 2 5 2 5 0 1-1 0-2-1-2l-5-2h-3c-1 1-3 1-9-1-5-3-5-5 1-5l2-1c1-1 1-1 3 1l2 1 1 2 3-2c2-3 1-7-2-6h-1l2-1 2-2h-2l-1-1c-2 0-2-2-2-8 0-7 0-9-1-8l-3-2h-2m131 18v10h-2c-4-1-5 1-3 4l4 3 1 2h1c1-2 3-3 3-1l2 2c1 1 1 1 1-1v-2l1-2c1-1 1 2 1 7 0 9 0 9 3 9 2 0 3-2 1-12 0-5-1-5-3-6-2 0-3-1-3-2l-3-1h-3v-10l-1-9v9m168 46 1 3v3a18 18 0 0 0-5 14l1 1 3-1v-3c0-2 0-2 2-1 3 3 3 2 0-3-2-4-1-6 2-2l3 1 2 2a3 3 0 0 0 2 4c-2 1-1 2 1 1l3 1h1c0-3-1-5-4-6s-3-1-2-2 0-2-2-4a22 22 0 0 1-5-5l-2-3h-1m-186 1v1l2 10v9h4l3 1h-12c-2-1-3 0-1 2a5 5 0 0 1 0 6l-1 2c0 1 0 2 1 1l1-2 1-1c0-2 4-3 6-2v1c-2 0-2 0-1 1l2 3c0 2 0 2 1 1l2-2v-1c-2-1-2-1 2-5 3-2 3-3 2-4v-1l1-11 1-10h-6l-8 1m55 15c-2 2-3 5-1 3l2 2c2 1 2 1 1-2 0-2 0-2 1-1l3 1 7 3h1v2c-2 1-3 2-5 1l-2 1h-2l-1-2h-3l1 1c1-1 1-1 0 0l-2 3v2l-2-2-2-2c-2-1-3 0-1 1l-1 5c-1 5-2 5-4 4s-3-2-2-3l-1-1c-2 0-3 0-3-2h2v-1l1-1 1 3 3 1 2-1c0-1-2-3-4-3l-3-2-2-1c1 1 0 2-2 2l-2-2v-1l-1 2-2 1c-2 0-2 0 0 3 1 2 2 2 2 1h1l-1 3h-1l-2 1 1 1c2 0 3 3 2 4l-4 1-2 1 3 1c3-1 3-1 3 3s2 7 2 3l1 1c1 2 0 4-1 3l-1 6c0 6 2 10 2 5 0-1 0-2 1-1l1 1v-1l1-3c2-1 2-1 2 1l1 3c2 0 1 5 0 5a1 1 0 1 0 0 3l3-3v-1c2-3 4-2 4 0l2 2c1 1 2 4 0 4v1a2 2 0 1 1 4 1c2 4 3 1 3-9 0-8 0-8-3-11l-3-6c1-2 0-2-1-1-1 2-2 1-3-2 0-2 1-2 2-2 2 1 4-1 4-6s3-5 3 1c1 2 1 2 1-1 0-5-1-5-3-5l-4 1c0 1-1 1-1-1a2 2 0 0 1 3-2h1c2-2 5-3 5-1h2l3-1 2-1 2 1h5a2 2 0 1 0 0-3c-2 0-2 0-1-1l1-1h-1l-1-1h3c1 1 1 1 1-1l-1-2-1-2c0-2 0-2-2-1-1 1-2 1-1-1 0-1-1-2-3-2l-3 1v3l-1-1-2-1h-4c-1-2-2-2-3-1m27 3 1 1 1 2h-1c-1-1-1-1-1 1 1 2 1 3-1 2l-1 1c1 1 1 1 0 0v-2l1-3h-1l-2 1c-1 0 0 4 2 7l1 3-2-2c-2-3-3-2-1 1l3 1c2-2 4 0 4 3v3l-3-3c-2-3-4-3-4 0 0 2 0 2 2 2l1 1 1 1h1l2 1c0-1 1-1 0 0l-1 1-3 4c-2 3-2 3-2 1 1-4 1-4-3 0l-3 2a4 4 0 0 1 4-5l-1-1v-7c1-2 1-2-4-2l-6 2-2 1c-2-1-3 0-2 2v2c-2 3 3 10 6 8 1-1 3 1 3 3h-2l-1 1a2 2 0 1 1-4 1c1-2-1-2-1-1h-3l1 3 2 1c1 1 1 1-1 2l-2 2h1v3l1 6a20 20 0 0 0 3 10l-1 1h-1l-1 1-1-1c0 1 1 2 3 2 4 2 5 4 1 4h-3l3 2c2 1 3 1 4-1 1-1 1-1 1 1 0 1 0 2 2 1 2 0 3-6 1-7v-1c2 0 3 5 2 9h1l1-1c4 0 4 0 3-17 0-22 0-21-5-20l-3-1c0-2 7-2 9-1v15l2 16v-31l1 1 1 20 1 15v-12c-1-12 1-21 3-18h1c0-2 1-3 2-1v3h2l1 2v5c0 4 2-1 2-6 0-7 2-6 3 1 0 5 0 5 1 3 1-3 3-2 4 2 0 3 2 4 2 1 0-4 1-1 1 5 1 11 2 10 2-1v-4c1 5 2 6 4 6l2-1a1 1 0 1 1 3 1v4c1 2 1 2-1 3l-1 1 2 1h1c3-3 5-1 5 6v-8l1-14c1 1 2 10 3 33l1 1 1-8c0-9 1-12 5-10l1-1-1-1v-2c2-2 3-10 2-11l-2-16a456 456 0 0 0-1-20l-3-1c-3 0-3 0-3 2v2l-1 3h1l1 1c-2 2-5 1-4-2l-1-1v-1l-1-1v2h-2c-2-1-2-1-1-2 3 0 2-2 0-2l-3 1-2 1c-3 0-4 1-2 2v2c0 1-1 1-4-2-2-1-2-2-1-2 2 1 2 1 1-1a19 19 0 0 1 0-12l-2 1v3c0 2 0 2-1 1h-2l-1 1h-2c-1 1-2 0-5-2-3-4-4-4-3-1 0 2 0 2-1 1-1-2-3 1-2 3h-1v2l3 2v2c-2 0-2 1-1 1l1 1-1 1-1 1-1 2c-1 1-1 0-1-1l-1-3-1 1v3l-1-3v-5c-1-1 0-2 2-4l2-3h-1c-2 2-4 0-3-2 2-2 2-3-1-3l-3 1m-178 39a348 348 0 0 1 0 21c1-6 2-5 1 1 0 8 0 9 3 3l3-4c2 0 2 0 2-3l-1-8c0-4 0-4-3-4h-3v-7c0-4 0-6 1-5l2 1c1-1-1-3-3-3s-2 1-2 8m95-3c-3 0-3 0-3 4l2 13c0 9 2 12 2 5 0-4 1-5 2-6 2-1 2-2 1-7a8 8 0 0 1 1-7l-1-3-4 1m5 7c0 2 0 3 2 3v6c0 3 0 4-2 4s-2 1-2 2l1 4c1 4 3 3 3-2 1-3 1-3 1 1 0 6 2 6 4 1v-2l1 2 1 3v-3c0-2 0-3-2-3l-2-1v-2l-1-3 1-3v-2c0-4 2-5 5-2l3 2v-1l-1-3c0-2-4-3-8-2-3 1-3 1-3-1v-1l-1 3m140 4v2l-1 3-1 4v3c2 1 2 2 1 2v3c1 1 1 1 3-1h1l1 2 3 1c3 3 4 3 4 0l1-2 1 3c0 2 2 5 4 4v-9l-1-5-2-1c-3 0-3 0-3-5l-1-6v5c0 5 0 5-2 5s-2-1-2-3l-1-3-1 3-1 3-1-5-1-6-1 3m-41 16h-6v5a8 8 0 0 1-1 7l-5 1-6-1c0-2-3-2-14 0-3 0-4 0-4 2l3 13h6l6-1h4l7-1h-8v-10h7l12-2h4v-7l-1-6-2-1-2 1m-56 4c-1 0-2 1-1 2l1 5c0 5 1 7 5 7 2 0 3 0 2-2l1-4c3-5 2-8-2-9l-6 1m152 8 2 17 2 20c0 8 1 9 4 9s2-9-1-31l-1-15c-1-3-2-5-5-5l-1 5m-83 5c-8 1-10 2-8 3v2c-2 1-1 4 1 4v3c1 1-2 3-5 3-4 0-4 1-2 3s10 2 24 1c8-2 9-2 0-2-4 0-4 0-3-1l1-6v-5h5l4-1-5-1c-4 0-5 0-5-2s-1-2-7-1" tabindex="-1" itemprop="bold" style="fill: rgb(25, 104, 118); fill-opacity: 0.936; fill-rule: evenodd; color: rgb(184, 184, 184);"></path></svg>