<svg id="16282281824-posters-1654102071516" itemscope="" itemtype="/posters"
  itemid="/+16282281824/posters/1654102071516" viewBox="0 0 736 512" preserveAspectRatio="xMidYMid slice" tabindex="0"
  xmlns="http://www.w3.org/2000/svg">
  <defs class="gradients">
    <g class="radial">
      <radialGradient id="16282281824-posters-1654102071516-radial">
        <stop itemprop="radial" stop-color="hsla(47, 9%, 78%, 1.00)" offset="0%"></stop>
        <stop itemprop="radial" stop-color="hsla(48, 10%, 72%, 1.00)" offset="15%"></stop>
        <stop itemprop="radial" stop-color="hsla(48, 10%, 71%, 1.00)" offset="30%"></stop>
        <stop itemprop="radial" stop-color="hsla(47, 10%, 70%, 1.00)" offset="45%"></stop>
        <stop itemprop="radial" stop-color="hsla(45, 10%, 67%, 1.00)" offset="60%"></stop>
        <stop itemprop="radial" stop-color="hsla(45, 10%, 69%, 1.00)" offset="75%"></stop>
        <stop itemprop="radial" stop-color="hsla(45, 10%, 69%, 1.00)" offset="90%"></stop>
      </radialGradient>
      <radialGradient id="16282281824-posters-1654102071516-radial-background">
        <stop stop-color="hsla(47, 9%, 80%, 1)" offset="0%"></stop>
        <stop stop-color="hsla(48, 10%, 80%, 1)" offset="15%"></stop>
        <stop stop-color="hsla(48, 10%, 80%, 1)" offset="30%"></stop>
        <stop stop-color="hsla(47, 10%, 80%, 1)" offset="45%"></stop>
        <stop stop-color="hsla(45, 10%, 80%, 1)" offset="60%"></stop>
        <stop stop-color="hsla(45, 10%, 80%, 1)" offset="75%"></stop>
        <stop stop-color="hsla(45, 10%, 80%, 1)" offset="90%"></stop>
      </radialGradient>
      <radialGradient id="16282281824-posters-1654102071516-radial-light">
        <stop stop-color="hsla(47, 9%, 66%, 1)" offset="0%"></stop>
        <stop stop-color="hsla(48, 10%, 66%, 1)" offset="15%"></stop>
        <stop stop-color="hsla(48, 10%, 66%, 1)" offset="30%"></stop>
        <stop stop-color="hsla(47, 10%, 66%, 1)" offset="45%"></stop>
        <stop stop-color="hsla(45, 10%, 66%, 1)" offset="60%"></stop>
        <stop stop-color="hsla(45, 10%, 66%, 1)" offset="75%"></stop>
        <stop stop-color="hsla(45, 10%, 66%, 1)" offset="90%"></stop>
      </radialGradient>
      <radialGradient id="16282281824-posters-1654102071516-radial-regular">
        <stop stop-color="hsla(47, 9%, 44%, 1)" offset="0%"></stop>
        <stop stop-color="hsla(48, 10%, 44%, 1)" offset="15%"></stop>
        <stop stop-color="hsla(48, 10%, 44%, 1)" offset="30%"></stop>
        <stop stop-color="hsla(47, 10%, 44%, 1)" offset="45%"></stop>
        <stop stop-color="hsla(45, 10%, 44%, 1)" offset="60%"></stop>
        <stop stop-color="hsla(45, 10%, 44%, 1)" offset="75%"></stop>
        <stop stop-color="hsla(45, 10%, 44%, 1)" offset="90%"></stop>
      </radialGradient>
      <radialGradient id="16282281824-posters-1654102071516-radial-bold">
        <stop stop-color="hsla(47, 9%, 13%, 1)" offset="0%"></stop>
        <stop stop-color="hsla(48, 10%, 13%, 1)" offset="15%"></stop>
        <stop stop-color="hsla(48, 10%, 13%, 1)" offset="30%"></stop>
        <stop stop-color="hsla(47, 10%, 13%, 1)" offset="45%"></stop>
        <stop stop-color="hsla(45, 10%, 13%, 1)" offset="60%"></stop>
        <stop stop-color="hsla(45, 10%, 13%, 1)" offset="75%"></stop>
        <stop stop-color="hsla(45, 10%, 13%, 1)" offset="90%"></stop>
      </radialGradient>
    </g>
    <g class="vertical">
      <linearGradient id="16282281824-posters-1654102071516-vertical" x1="0" x2="0" y1="0" y2="100%">
        <stop itemprop="vertical" stop-color="hsla(48, 9%, 77%, 0.70)" offset="0%"></stop>
        <stop itemprop="vertical" stop-color="hsla(48, 10%, 72%, 0.70)" offset="15%"></stop>
        <stop itemprop="vertical" stop-color="hsla(48, 10%, 71%, 0.70)" offset="30%"></stop>
        <stop itemprop="vertical" stop-color="hsla(47, 10%, 70%, 0.70)" offset="45%"></stop>
        <stop itemprop="vertical" stop-color="hsla(45, 10%, 67%, 0.70)" offset="60%"></stop>
        <stop itemprop="vertical" stop-color="hsla(45, 10%, 69%, 0.70)" offset="75%"></stop>
        <stop itemprop="vertical" stop-color="hsla(45, 10%, 69%, 0.70)" offset="90%"></stop>
      </linearGradient>
      <linearGradient id="16282281824-posters-1654102071516-vertical-background" x1="0" x2="0" y1="0" y2="100%">
        <stop stop-color="hsla(48, 9%, 80%, 1)" offset="0%"></stop>
        <stop stop-color="hsla(48, 10%, 80%, 1)" offset="15%"></stop>
        <stop stop-color="hsla(48, 10%, 80%, 1)" offset="30%"></stop>
        <stop stop-color="hsla(47, 10%, 80%, 1)" offset="45%"></stop>
        <stop stop-color="hsla(45, 10%, 80%, 1)" offset="60%"></stop>
        <stop stop-color="hsla(45, 10%, 80%, 1)" offset="75%"></stop>
        <stop stop-color="hsla(45, 10%, 80%, 1)" offset="90%"></stop>
      </linearGradient>
      <linearGradient id="16282281824-posters-1654102071516-vertical-light" x1="0" x2="0" y1="0" y2="100%">
        <stop stop-color="hsla(48, 9%, 66%, 1)" offset="0%"></stop>
        <stop stop-color="hsla(48, 10%, 66%, 1)" offset="15%"></stop>
        <stop stop-color="hsla(48, 10%, 66%, 1)" offset="30%"></stop>
        <stop stop-color="hsla(47, 10%, 66%, 1)" offset="45%"></stop>
        <stop stop-color="hsla(45, 10%, 66%, 1)" offset="60%"></stop>
        <stop stop-color="hsla(45, 10%, 66%, 1)" offset="75%"></stop>
        <stop stop-color="hsla(45, 10%, 66%, 1)" offset="90%"></stop>
      </linearGradient>
      <linearGradient id="16282281824-posters-1654102071516-vertical-regular" x1="0" x2="0" y1="0" y2="100%">
        <stop stop-color="hsla(48, 9%, 44%, 1)" offset="0%"></stop>
        <stop stop-color="hsla(48, 10%, 44%, 1)" offset="15%"></stop>
        <stop stop-color="hsla(48, 10%, 44%, 1)" offset="30%"></stop>
        <stop stop-color="hsla(47, 10%, 44%, 1)" offset="45%"></stop>
        <stop stop-color="hsla(45, 10%, 44%, 1)" offset="60%"></stop>
        <stop stop-color="hsla(45, 10%, 44%, 1)" offset="75%"></stop>
        <stop stop-color="hsla(45, 10%, 44%, 1)" offset="90%"></stop>
      </linearGradient>
      <linearGradient id="16282281824-posters-1654102071516-vertical-bold" x1="0" x2="0" y1="0" y2="100%">
        <stop stop-color="hsla(48, 9%, 13%, 1)" offset="0%"></stop>
        <stop stop-color="hsla(48, 10%, 13%, 1)" offset="15%"></stop>
        <stop stop-color="hsla(48, 10%, 13%, 1)" offset="30%"></stop>
        <stop stop-color="hsla(47, 10%, 13%, 1)" offset="45%"></stop>
        <stop stop-color="hsla(45, 10%, 13%, 1)" offset="60%"></stop>
        <stop stop-color="hsla(45, 10%, 13%, 1)" offset="75%"></stop>
        <stop stop-color="hsla(45, 10%, 13%, 1)" offset="90%"></stop>
      </linearGradient>
    </g>
    <g class="horizontal">
      <linearGradient id="16282281824-posters-1654102071516-horizontal" x1="0" x2="100%" y1="0" y2="0">
        <stop itemprop="horizontal" stop-color="hsla(46, 9%, 76%, 1.00)" offset="0%"></stop>
        <stop itemprop="horizontal" stop-color="hsla(48, 10%, 71%, 1.00)" offset="15%"></stop>
        <stop itemprop="horizontal" stop-color="hsla(46, 10%, 70%, 1.00)" offset="30%"></stop>
        <stop itemprop="horizontal" stop-color="hsla(47, 10%, 68%, 1.00)" offset="45%"></stop>
        <stop itemprop="horizontal" stop-color="hsla(45, 11%, 69%, 1.00)" offset="60%"></stop>
        <stop itemprop="horizontal" stop-color="hsla(47, 10%, 74%, 1.00)" offset="75%"></stop>
        <stop itemprop="horizontal" stop-color="hsla(47, 10%, 76%, 1.00)" offset="90%"></stop>
      </linearGradient>
      <linearGradient id="16282281824-posters-1654102071516-horizontal-background" x1="0" x2="100%" y1="0" y2="0">
        <stop stop-color="hsla(46, 9%, 80%, 1)" offset="0%"></stop>
        <stop stop-color="hsla(48, 10%, 80%, 1)" offset="15%"></stop>
        <stop stop-color="hsla(46, 10%, 80%, 1)" offset="30%"></stop>
        <stop stop-color="hsla(47, 10%, 80%, 1)" offset="45%"></stop>
        <stop stop-color="hsla(45, 11%, 80%, 1)" offset="60%"></stop>
        <stop stop-color="hsla(47, 10%, 80%, 1)" offset="75%"></stop>
        <stop stop-color="hsla(47, 10%, 80%, 1)" offset="90%"></stop>
      </linearGradient>
      <linearGradient id="16282281824-posters-1654102071516-horizontal-light" x1="0" x2="100%" y1="0" y2="0">
        <stop stop-color="hsla(46, 9%, 66%, 1)" offset="0%"></stop>
        <stop stop-color="hsla(48, 10%, 66%, 1)" offset="15%"></stop>
        <stop stop-color="hsla(46, 10%, 66%, 1)" offset="30%"></stop>
        <stop stop-color="hsla(47, 10%, 66%, 1)" offset="45%"></stop>
        <stop stop-color="hsla(45, 11%, 66%, 1)" offset="60%"></stop>
        <stop stop-color="hsla(47, 10%, 66%, 1)" offset="75%"></stop>
        <stop stop-color="hsla(47, 10%, 66%, 1)" offset="90%"></stop>
      </linearGradient>
      <linearGradient id="16282281824-posters-1654102071516-horizontal-regular" x1="0" x2="100%" y1="0" y2="0">
        <stop stop-color="hsla(46, 9%, 44%, 1)" offset="0%"></stop>
        <stop stop-color="hsla(48, 10%, 44%, 1)" offset="15%"></stop>
        <stop stop-color="hsla(46, 10%, 44%, 1)" offset="30%"></stop>
        <stop stop-color="hsla(47, 10%, 44%, 1)" offset="45%"></stop>
        <stop stop-color="hsla(45, 11%, 44%, 1)" offset="60%"></stop>
        <stop stop-color="hsla(47, 10%, 44%, 1)" offset="75%"></stop>
        <stop stop-color="hsla(47, 10%, 44%, 1)" offset="90%"></stop>
      </linearGradient>
      <linearGradient id="16282281824-posters-1654102071516-horizontal-bold" x1="0" x2="100%" y1="0" y2="0">
        <stop stop-color="hsla(46, 9%, 13%, 1)" offset="0%"></stop>
        <stop stop-color="hsla(48, 10%, 13%, 1)" offset="15%"></stop>
        <stop stop-color="hsla(46, 10%, 13%, 1)" offset="30%"></stop>
        <stop stop-color="hsla(47, 10%, 13%, 1)" offset="45%"></stop>
        <stop stop-color="hsla(45, 11%, 13%, 1)" offset="60%"></stop>
        <stop stop-color="hsla(47, 10%, 13%, 1)" offset="75%"></stop>
        <stop stop-color="hsla(47, 10%, 13%, 1)" offset="90%"></stop>
      </linearGradient>
    </g>
  </defs>
  <rect itemprop="background" width="100%" height="100%" tabindex="-1" id="16282281824-posters-1654102071516-background"
    fill="url(#16282281824-posters-1654102071516-radial-background)"></rect>
  <path id="16282281824-posters-1654102071516-light"
    d="M462 74l3 6c3 5 3 5 2 7-6 6-8 30-6 47 2 10 5 18 12 33 6 11 6 11 4 10-2 0-2 1 0 3v3h-1l-1-2 3 11v1c-4 0-10-15-16-39l-9-39-5-17 7 35c4 13 8 33 7 34l-1 2c0 1 1 1 1-1 2-1 2-1 2 2l4 12 2 10-1-4c-1-2-1-3-2-2l-2-1c-1-1-1-1 1-1s1-4-2-8c-2-3-3-1-1 2 1 3 1 3-1 5-3 4-4 4-6 1v-1l-1 3v1l1 3c0 2-1 3-5 0-4-2-5-3-2-8 3-7 3-16-1-21-2-1-2-3-1-9 0-7-2-13-5-15l-1-8-1-10c-2-4-8-10-8-8l1 2c4 2 7 10 7 16l2 10c3 6 4 9 3 16l-1 6-11 2c-20 5-32 6-50 3h-5l-1 4c-1 5-1 10 2 15s3 5-7 6l-9 1h13l12 1c9 2 33 2 46-1 10-2 10-2 15 0 11 4 11 5-1 10-15 5-27 7-37 7l-11 1h-35l-1-1-1-1c-1 1-2 0-3-1l-11-6-9-5c-6-5-19-7-33-4l-17 3c-12 2-16 4-21 11a7 7 0 01-5 4c1 1-6 7-7 6l-1 1-1 4-1 7c0 4 0 4-3 4-5 0-5-1-5-14 0-11-1-16-4-17l-8-4c-6-3-13-4-20-1l-6 1c-3 0-11 5-12 7-1 1-2 6-2 13 0 12 0 11-4 9-2-1-5-2-6-1-3 0-4-1-6-4l-4-5c-8-3-6-25 5-54 6-14 6-33 1-37l-1 2c6 20 1 34-11 34l-5 1v-8l-1-8-1 7a14 14 0 01-3 12c0 3-2 1-2-3l-2-6-4-10c-5-19-13-25-21-17-5 5-4 10 2 29l4 15c-1 1-2-2-3-9-3-10-4-8-1 2 1 10 1 13-5 15-3 1-4 0-7-12l-3-9c-2 0-1 2 2 11 4 12 4 21 0 24-3 4-4 3-1-1 2-1 2-2 1-2l-3 4c-1 1-2 2-3 1-2-1-2-1-1 1 0 3-6-5-8-10-2-3-3-4-3-1l2 4a8 8 0 013 6l2 1c1 2 0 4-2 4l-3 2-2 1-3 2-2 1-1 1-2 1h-1c0 3 4 2 6 0l3-2c2 0 2 0-1 2l-3 3c1 1 8-4 7-5h1l2-1-1-2v-1c2-1 2 0 2 3l-1 3h-1l-2 1c-1 1-2 2-1 3h-2c-2 0-2 0-1 1 2 3 2 3 0 2l-1 1-1 2c-1 1-1 1-1-1v-5h-4l-2-2-6-5c-5-6-5-3 0 3a13 13 0 015 7c3-2 10 12 6 15-2 2-3 1-2-1l-1-2c-1-1-1 0-1 4 0 7-1 10-6 13l-2 1 3-3c2 0 2-1 1-1l-4 1c-3 3-4 3-6 1-3-1-4-3-1-2 0 1 1 1 0 0l-2-1c0 1-3 0-4-2-4-2-5-3-5-1l3 3c2 1 3 2 2 3l1 2 1-1h2v2l1 1c6-1 7 2 3 8-3 5-3 5-15 1l-13-5c-3-1 0 2 2 4a4 4 0 013 4 17 17 0 01-2 18l2 2c7 3 9 13 4 17-2 3-3 4-1 4 10 0 13 14 5 21-1 1-1 1 1 1 7 0 10 11 6 18l-5 5a3 3 0 001 6l-5 1-4-1h-1l-7 4c-10 5-17 15-16 23l4 18 4 6c4 5 11 7 21 7l7-1-4 3c-22 14-26 36-11 53 6 6 7 6 33 6l24 1 9 3c17 7 24 9 31 9 8 0 16 2 24 5 7 3 17 4 24 3l19-2c13 1 16 0 23-7l6-3 8 2c10 2 27 8 30 10l4 6 2 2c0-3-2-7-5-9-2-2-25-10-33-11l-7-1 1-6c0-7 7-20 12-22 4-2 24 2 33 7 5 2 6 4 4 10l-5 19 2-4c0-4 5-20 6-21l-1 16-1 7c0 3 4-10 4-14 0-2 2-3 15-6 12-3 17-3 25 1l8 4c2 2 11 1 21-3 22-9 42-8 53 3h2l2-2c4 0 16-7 20-13 5-5 9-15 9-20 0-2 1-2 4 2l13 15-31 14c-10 3-11 4-10 5l24-10 20-7a3100 3100 0 0022 27h1l-14-18-8-11c0-1 8-8 15-12 4-4 6-4 4-2-4 6-6 27-3 32 2 3 7 4 9 3 6-5 15-26 15-39 0-7 9-17 16-16 7 2 7 40 0 55l-2 6c1 1 2 0 5-8 5-16 6-37 2-49-3-6 0-5 7 1 9 9 14 23 16 44l1 8c1-2-1-22-2-30-2-7-5-13-9-18-4-6-6-8-3-5l3 2 1 1v1h1l1-2h1c1-1 1-1 1 1v2l1-2c1-2 1-2 1 0l-1 3v6c1 1 2 0 2-6l2-7a637 637 0 008-30l1-3 8-33 2-5 3 3c18 20 22 26 21 27l1 2v-1h2v6h3l10 11 11 12 2 2c1-1-1-4-11-14-15-16-17-23-13-40 4-12 6-15 12-12 7 4 31 9 40 9 2 0 3 0 1-1l-24-4a68 68 0 01-39-24l-5-7c-3-3-3-5 1-5l6-1c3-2 4-2 7 0h4c-2-2-1-2 6-1 5 0 9 0 13-2 12-3 18-2 19 4 1 4 0 5-8 7-9 2-9 3-1 6 5 2 6 0 1-2l-3-1 6-2c10-4 42-5 44-2s-20 15-26 14h-2c-1 1 7 5 17 8l8 3h2l-7-3-11-5-3-1 7-3c9-4 17-9 17-12l4-2c5-2 8-6 10-11l4-8c3-5 3-6 4-13l1-8c1 0 4-8 5-15 0-5 0-6-2-10-3-4-4-13-2-15l1-11c1-11 0-13-12-25l-8-10c-8-20-17-29-31-33l-18-9c-10-6-26-7-42-2-8 3-10 3-19 3-12 0-20 2-23 6a13 13 0 01-16 2l-4-1c-2 0-3 0-2 1h-1l-4-3c-7-3-12-20-11-37 1-11 2-14 5-14 3 1 34 2 37 1l-18-1-21-1c-1-2 4-5 8-6 7-1 4-2-8-4l2 1c4 2 4 2 2 3l-5 4c-2 2-7 2-16-2l-7-2c-6 0-5-2 2-5h11l6 1-3-2c-6-1-18-5-26-9-8-3-16-4-21-2-3 2-3 2-5-2-3-5-6-9-6-7m17 10l-5 1c-3 0-3 1 2 5 4 2 4 2 7 1 4-2 5-2 2 0s-3 2 2 4c8 4 9 4 14 1l5-2c4 0 2-2-3-3l-5-2-4-1c-3 0-4 0-3-1 2-1 1-2-4-3l-6-1-2 1m-12 6c-8 14-5 55 6 73l5 8 3 4c1-1 0-2-1-3l-2-4v-1c-1 1-2-3-1-5v1l1 3 2 2c-1 1 1 3 2 2h2l1-1-1-2c-1 1-1 0 0 0l-1-3-2-4-3-10c-7-17-7-44 0-54 1-2 1-2-1-3l-4-4c-3-3-4-3-6 1m11 9c-6 15-5 39 4 58 2 5 3 6 4 5s1-1 1 1c-1 5 0 5 2 1l4-4 2-1c0-1 0-2 1-1 1 0 1-2-2-7-3-8-3-14-3-27s0-15 3-23c1-1 0-2-4-3-10-4-10-4-12 1m17 5c-3 8-3 11-3 23 1 13 3 20 8 31 3 4 3 5 5 3l3-1h2c-1-1 7-6 8-5l-1 3c-1 2-1 2 5 0h7l3 1-3-6c-5-9-7-27-5-41l1-5h-4l-10-3c-10-4-15-4-16 0m-359 28l1 6c3 6 3 7 6 7l3-1-3-8c-1-5-5-7-7-4m-6 2c-2 2-2 3 0 12l1 7 4-4c4-4 3-3 1-10-1-4-2-5-3-5-1 1-1 1 0 0 2-3 0-2-3 0m13 13c-3 0-3 1 0 9 2 5 3 6 5 7 4 0 4 0 1-9-3-8-3-8-6-7m-7 4c-3 3-4 4-1 11 2 7 1 7 5 3l4-3-2-6c-3-8-3-9-6-5m473 0c-11 3-11 3-6 5 4 1 8 4 14 9l2 2 5-3c8-3 20-6 25-6l4 1-5-4c-11-7-25-9-39-4m-37 5c-4 1-5 2-9 6l-3 2c-3 0 0 2 3 2l11 2 18 5 12 4 6-5 7-4-4-4c-7-6-12-8-26-9l-15 1m73 4a66 66 0 00-22 7c-3 0-3 2 0 7 5 6 9 15 9 16a3 3 0 005 2c-1 1 0 2 2 4l2 2-3-1c-4-3-4-3-2 4 1 6 1 6 11 2 2-2 9-4 14-5l10-2v-5c0-8-3-20-6-24a20 20 0 00-20-7m-470 3l-7 1-4 1h-1c-1-2-1-2-2-1l1 3v4c-2 0-1 12 1 13l2-2 2-2c1 0 2 1 1 2h1l3-5 3-9c2-7 2-7 0-5m264 1c-13 4-44 7-53 4-7-1-8 0-8 8 1 7 4 12 9 14 5 3 30 4 40 2 14-3 18-4 18-6l1-4c3-4 4-11 2-16-1-4-2-5-9-2m225-1l1 2c4 3 6 10 7 20v10h7l12 2 5 1-6-13c-3-7-13-17-20-20l-6-2m-506 5l-1 5a13 13 0 01-1 5v-2l-1 3v5c0 3 1 4 3 2l1-9v-9h-1m405 3l6 4c2 2 2 2 3 1l2-3c2-2 3-2-10-3l-5-1 4 2m52 0l-5 3-2 3h-1c-4-1 1 2 8 5a557 557 0 0115 8l-9-17c-3-3-3-3-6-2m-36 2c-6 2-7 5-3 9l3 4 3 5 3 4 3-3 4-3-2 4-3 4 8 15 4 9 4 8 3-2c2-3 4-4 4-3l-4 4-3 4 2 10 3 11c1 1 9-4 9-5l-2-8a150 150 0 00-25-55l-7-8-3-4c1-1 11 9 12 11 0 3 1 2 5-2 5-4 6-3-6-7-10-3-10-3-12-2m-439 5v3c5 5-6 23-18 31-3 2-7 11-15 28l-4 9h4l4 2c4 4 7 0 8-14s8-25 22-35c4-3 11-21 9-24s-7-2-10 0m372 2a15 15 0 00-9 10l1 4 1 5a1 1 0 102 0l1-2c1-1 1 0 1 1 0 4 2 2 5-6a13 13 0 001-12c1-2 0-3-3 0m44 4c-5 9-7 19-5 37 1 16 6 37 8 36v1c0 2 2 4 2 3l2-10c3-13 11-39 16-46 2-3-4-12-13-21-5-5-6-5-10 0m43-1c-5 5-5 3 2 14a107 107 0 0110 23l7-3 12-7c6-3 6-3 3-11-1-6-6-10-9-9h-1a29 29 0 00-15-8l-4-2-5 3m-464 3l-5 10-5 8-2 4v1c2 0 11-10 14-15 4-9 2-16-2-8m325 6l-1 6c1 2 0 4-2 7l-5 5-2 1 4-4a6 6 0 003-6h1l-5 1c-5 2-11 9-12 14l-1 3v3l-1 2c-2 0-2-3 0-5l2-3-2 1-4 3c-2 0-4 2-6 6l-6 5c-3 1-3 2 1 5 3 2 4 3 3 1l1-1c0 1 2 0 3-2l6-7 4-5c-1 0 0-1 0 0 2 0 4-2 2-3v-1l1-3c0-2 0-2 1-1v3l-1 2 11-10 8-10c-1-1-1-1 0 0l-1 1v-3c2-1 1-3 0-2-2 0-2-1-1-3v-1l-1 1m-158 3a48 48 0 00-22 10l5-1 10-3 10-5c10-2 7-2-3-1m-151 2a1672 1672 0 00-5 10v3h2c3-2 4-5 4-10 0-4-1-5-1-3m327-1a26 26 0 007 14l5 10 5 8-5-9-2-7-1-5-1-2c1-1-3-10-4-10v1l1 5 2 6-1-1-2-3-1-3a5 5 0 01-2-5l-1 1m-168 1l-18 7 3 1c4 0 16 4 20 6h5l5-2h4l3-1-1-1-1-1c0-1 1-1 2 1h2l-11-9c-5-2-9-2-13-1m18 2l7 5c3 3 3 3 4 1h1c0 2 3 1 4 0l1-2v1l2 1h1v1c2 0 2-2-1-4s-10-4-20-6h-3l4 3m-111 0l-2 2v34a2314 2314 0 001 64v7l4 1c3 1 7 0 4-2l-1 1h-3c-1-1-2-1-1-2l1-12c0-7 1-11 2-11 1-1 1-2-1-5-2-6-1-20 2-23v-3l-2 2c-1 3-1 0-1-10l-1-9v-15c-1-10-1-13 1-13l1-3c0-4 2-2 2 2 0 3 0 4 1 2l1-3 1-2h2c0-3-7-5-11-2m280 0l3 11 2 6 3 6 1 2 1 3-1-7v-1h4v-9c-1-3-2-2-3 2l1 4c1 1 1 1-1 1-3 0-4-3-2-5 1-1 2-5 0-6v-2c1 0 0-2-2-3h-3l1 1 1 1c0 3-3 1-4-3 0-2-1-3-1-1m176-1l-1 5a131 131 0 01-9 28v4l5-1 17-1h12l2-5c3-11 2-26-2-26l-1-1c0-2-19-5-23-3m-11 2c-7 1-10 2-19 6l-6 2 1 4v17l1 12 2-1 11-3 8-3 3-6c2-7 7-22 7-27 1-4 1-4-8-1m-464 4c-2 3-2 3-2 17 0 13 2 25 2 15 0-3 0-4 1-3h1c1-1 1 0 1 2 0 3 0 3-1 2-1-2-1-2-1 0l2 3c2 2 2-15-1-18l-1-5c1-1 1-1 1 1l1 2 1-9-1-9-3 2m-64 5l-8 11c-5 7-6 12-2 6l8-8 5-6 2-4 1-3-6 4m301-1a143 143 0 01-20 3l2 5c1 4 2 5 4 5 4 0 15-4 18-6l5-10-9 3m141 7c-6 16-8 21-10 34s-2 15 3 15c3 0 8-5 12-12l7-8c6-7 6-7-2-28-5-12-5-12-10-1m126-2c0 9 0 13-3 17-1 3-1 3 4 5 6 3 8 6 8 12v5l1-5 2-9c3-10 0-20-7-28l-5-5v8m-420-5l-1 1h-2l1 1h1a2 2 0 11-5-1c1-2 0-2-2 1a6 6 0 00-3 5c-1-1-6 7-7 12l1 3 5-1 2-1c2-7 5-12 9-17 5-5 5-5 3-5s-3 0-2 2m2 3c-4 4-9 11-9 15 0 2 0 2 8 2 9 1 9 0 13-3l11-8 7-5-4-1-19-5-7 5m-15-1l-3 2 1 1h1-3c-3-1-7 15-5 18 1 1 3-2 3-5 0-2 3-9 7-14l2-3-3 1m364 0c-23 13-21 9-15 34l1 9c0 11 1 12 11 9 2 0 7-16 5-17l-13 5-2-1 8-4c10-3 10-3 9-22-1-13-1-14-4-13m-342 3c-3 3-1 7 3 5 3-1 2-2 0-1-2 0-2 0 0-2h2c0 2 2 1 2-1 0-4-5-4-7-1m73-2l2 4 1 7c0 5 0 5 7 4l5-1-2-3-1-7 1-3h-5a26 26 0 01-8-1m14 3l2 9c2 2 21 1 21-1l2-9c1-1-1-1-11-1-11 0-13 0-14 2m-242 2l-7 14-7 13c-2 2-1 3 0 2l4-7 4-5-1 4-2 3a15 15 0 004-8h-1a83 83 0 019-16h-3m19 3c-7 4-7 3-7 22 1 23 0 21 4 21h3v-41l1 20v20h11v-21c0-25-1-26-12-21m13 11l1 22v9h6v-20c0-22 0-23-5-23-2 0-2 0-2 12m-39-8l-5 7a3 3 0 01-4 3l1 1c2-1 2 1 1 4-2 7 0 4 5-7l6-11-4 3m292 1c-3 0-3 0-2 4 1 5 4 4 7-2 2-3 2-3-5-2m-119 3l3 2c2 0 7 4 7 5l-8-3c-7-4-9-5-4-1s11 5 13 4c1-2 1-2-1-3l-6-3c-5-3-8-4-4-1m31-1c-2 0-1 1 2 6a43 43 0 017 18l2-2 2-2 1-3c0-2 0-2-1-1h-1l1-2c1 0 1-8-1-13-1-2-1-2-2-1h-10m131 0c-3 2-3 2 1 4s11 11 11 16c1 4 1 4 6 4 7 1 7 1 5-5-4-14-14-23-23-19m-116 3l1 14v10l1-2 1-4v-2a4 4 0 010-5l1-2v-2a3 3 0 01-1 6 4 4 0 002-7v-1h4c1-2 0-4-2-2h-4v-3c1-1 1-1-1-2l-2-1v3m-24 0c-4 1-10 6-10 7l3 2a84 84 0 0122 16c1 0 1-2-1-4-1-1-1-1 0 0 3 1-1-13-7-20-2-3-2-3-7-1m133 4c-3 4-6 11-7 16v4h3l9-1 10-2h4l-2-5c-2-5-6-12-10-14-4-1-4-1-7 2m-271 0c-2 2-2 2-1 4 3 3 4 3 6 0 4-4-1-7-5-4m81-1c-3 0-3 0-3 3l1 5 3 3 3 1v-4l1-7-1-2-4 1m7 1c-3 7 0 18 4 17h1l2 1c2 0 3-1 3-4l4-10 3-6h-8c-8 0-9 0-9 2m18 0l4 4 7 4a2 2 0 101-3v-1l-3-3c-4-2-9-3-9-1m123 1h-2l-2 6c0 3 0 3 2 3 5 0 6-1 5-4 0-5-1-6-3-5m254 3l-7 1-6 12-6 11c-2 1-1 2 12 2l13 1 5-6c9-10 15-19 15-22 0-1-17-1-26 1m27 1c-1 4-7 13-12 18-9 9-8 9-6 9l16 3c4 0 16-12 16-17a11 11 0 00-6-12l-2-1-3-1c-2-1-2-1-3 1m-385 1l-5 12c0 1 2 2 8 3l13 3c15 5 14-2-2-13-11-7-13-7-14-5m337 2c-10 3-11 3-11 10a40 40 0 01-4 11l7 1h7l4-7 8-17c0-1-2-1-11 2m-371 0c-2 2-1 7 1 7a111 111 0 014 0v-2c3-5-2-9-5-5m-88 3l-3 5c0 2-1 3-2 3s-1 2 1 6c1 3 4 3 7 0s8 0 6 4l2-1c5-3 6-8 2-12l-3-5c1-1 1-2-4-2-3-1-4-1-6 2m401 2l-9 10-5 8 3 1c3 2 6 3 5 1l1-1 7-3 6-3v-4l-1-5c-2-9-2-9-7-4m-176-1c-4 0 0 9 5 9 2 0 2 0 2-4l-1-5h-6m-43 4c-4 1-9 7-7 9 2 1 8 3 15 3l6 1 1-4c2-3 2-3-1-6-4-3-10-5-14-3m-103 5a13 13 0 00-1 7c-1-1-2 1-3 4l-2 7 2-3 4-8 3-6v-5c-2-1-2-1-3 4m-186 1l-3 6-2 2h7l-2-1c-5 0 1-4 6-4 4-1 4-1 1-3-5-3-6-3-7 0m381-2c-13 2-13 2-13 5 0 7 1 9 6 9l12-1c9 0 10 0 9-9l-1-5h-4l-9 1m15 6v6h5c5-1 7-3 7-7s-1-5-7-6h-5v7m134-4c-4 1-4 2-4 5 0 6 0 7 6 6 4-1 5-3 3-10 0-3 0-3-5-1m97 4l-8 7c-5 3-5 4 1 6l7 6 3 4 3-5c3-7 3-17-1-21l-1-2-4 5m-599-3l-4 4c-3 6 0 12 11 20l12 10a11 11 0 007 3c-1 1 2 3 12 10 6 4 9 5 8 3l3-1c5 0 12-7 10-11s-18-16-45-35c-5-3-10-4-14-3m115 1c-2 2-4 12-3 13l1-1c0-3 2-7 4-8 1 0 2-1 2-3 0-3-1-4-4-1m80 0l4 3c2 0 4 2 4 3 2 3 3 3 8 0s6-3 8 1c3 3 4 3 4 0 1-3 0-3-5-5-13-4-23-5-23-2m106 2l-2 5-1 3-1 4-7 18h1l1-4a73 73 0 004-9l7-21-2 4m2 2l-3 8c-3 8-6 17-5 18s5-6 8-12c5-12 7-19 6-19l-1 1h-1c0-3-2-1-4 4m-357-2l2 4v14c-1 2 17 2 18 0v-9c-2-4-2-4-18-9h-2m187 3c-2 3 0 6 5 6 2 0 2 0 2-4-1-5-4-6-7-2m9 2c0 3 0 4 2 4 7 0 8-6 1-7l-3-1v4m111-2c0 5 11 9 19 6 7-2 4-4-6-5l-9-1-3-1c-1-1-1-1-1 1m232 1a4 4 0 00-4 4c-3-2-4 1-1 4l3 3 3-2 4-3-2-1h-1c2-1 2-3 2-4v-3l-4 2m-368 1c-3 3-4 10-2 14 1 3 2 4 2 2-1-2 0-4 2-8 5-6 3-12-2-8m-29 1a5 5 0 000 7c-1 0-2 8 0 8l2-6v-4c-1-2-1-3 1-4v-2l-3 1m-121 1l1 2 1 4c0 3 1 4 4 4 2 1 2 1 0 1l-2 1h5l1-2c1-1 0-1-2-1-5 0-5-1 0-3s5-3 0-5l-6-2-2 1m406 0c-4 1-5 1-6 6 0 3-2 6-3 8-4 5 0 5 7 0 4-4 10-15 7-15l-5 1m-120 1c0 4 10 8 17 7 6-1 5-4 0-3a21 21 0 01-17-4m259 1c-2 0-2 2-3 14-1 4 3 3 5-2l3-8c3-5 2-6-5-4m8 2l-6 14c0 3 15-7 15-10l2-3c3-3 3-4-3-4s-6 0-8 3m13 0l-3 5-3 4-3 4h19l7-6c11-9 11-9-3-10h-10l-4 3m-191-1l7 9c2 0 4 2 4 4l3 3c3 0 10-10 10-15 0-2 0-2-12-2l-12 1m159 0c-2 1-3 5-3 12v4h9v-5c2-12 1-14-6-11m-43 2c-2 3-2 3 0 5 2 3 6 1 5-4 0-4-2-4-5-1m99 3l-8 6-3 3h7c8 1 9 1 9-3 0-2 1-4 4-6 3-3 3-4 1-4l-3-1c-2 0-4 1-7 5m-435-2c-2 3-4 8-2 8l3 1h3v1c-1 2 0 8 1 8v-2c-1-2 0-8 2-11a3 3 0 00-4-4c1-3-1-4-3-1m99 1c-2 4-1 8 1 8s3-1 3-3l2-5c1-3-5-3-6 0m362-1v2l6 3c5 4 10 6 9 3-1-2-5-6-9-7-3-2-4-2-6-1m-355 1l-1 4c-1 3-1 3 3 3 3 0 4 0 4-2l1-4c1-2-4-3-7-1m338 2c-3 3-4 7-2 7s14-9 13-9c-4-2-7-1-11 2m6 4l-8 5 3 3 4 3 3-3c3-4 6-5 11-6 6 0 6-1-1-5l-4-2-8 5m-442 0c-2 5-1 7 1 5 0-2 1-2 1-1 0 2 4 0 6-2h3c1-1 0-1-2-2l-4-1h-1l-1-1c-2-1-2 0-3 2m181 0a26 26 0 00-4 13h-2c-1 1-1 1 1 1s3-1 4-4l3-5a3 3 0 000-4v-1h-2m-360 5c3 4 4 10 2 14l-2 2h3l5-3 3-1c1 0 7-2 9-4s3-2 3 1l1 4v-4c0-5-2-10-4-9v-1l-2-2c-1-1-2 0-2 1 0 2-2 3-3 1 0-1-1-2-3-2h-8l-5-1 3 4m26-3h-1c-2 0-2 1 0 4 1 4 4 6 4 3l3-3c5-2 4-4-1-4h-5m110 8c0 8 1 10 3 7v-10l-1 1-1-2v-3l-1 7m495-5c-6 2-9 5-9 8 1 3 2 3 13-1 7-2 8-2 8-5l-1-2c-4-2-7-2-11 0m-57 1c-2 0-2 1-2 3 1 4 7 4 15-2l3-2h-7l-9 1m12 4c-12 8-5 8 11 1 9-4 9-4 1-5-4-1-5 0-12 4m-29 1c-2 4-2 4 0 3 5-3 19 2 20 7 1 2 1 2 3 1 2-2 8-3 21-4 19-1 20-2 18-5-4-6-9-6-19-1-14 6-22 7-22 3l-2-1c-3 1-7-3-6-5 0-2-3-1-5 1a8 8 0 01-5 0c2 0 1-3 0-3s-3 2-3 4m89-1c-2 2-6 3-13 5a37 37 0 00-12 4c-1-1-31 1-37 3-4 1-6 3-6 6l4 1c4 1 9 4 9 7 2 5 17 6 32 1 7-2 19-9 17-10-1-1-1-1 1-1 4-1 9-9 9-15 0-5 0-5-4-1m-99 2c-2 7-5 14-9 19l-3 4 2-1h1c4 2 14-12 16-23 1-3 1-3-3-3s-4 0-4 4m-246 0c-4 3-2 6 2 3 6-3 9-3 12-1h2c0-4-12-5-16-2m-54 1a4 4 0 000 3h7c6 0 9-1 9-3s-13-1-13 1h-1c0-2-1-2-2-1m-74 3v2l-1 1h-1c0 1 4 2 5 1h1c0 1 1 1 3-1s2-2 0-3c-2-2-5-2-7 0m91 1c-3 2-1 3 9 7l9 3v-1h-3v-2l3-1c1-2 0-2-5-5-8-3-11-4-13-1m291 0l-2 2-5 10c-4 6 21 6 26 0 4-3 2-9-3-11-3-2-12-2-16-1m-374 5l-3 4-1 1c-2 0-2 7-1 8 2 1 2 1 1 2v4c2 5 3 5 6 3l5-3c2 0 1-2-3-4-4-3-4-3-3-6v-2c-2 1-2 1-1-2l3-3c2 0 2 0 3-2 0-4-2-4-6 0m-163-1l-9 1-3 1h-3l2 2c5 4 6 14 1 18-1 1-1 1 2 1l7-2 4-2h-3c-4 2-7 2-6 0l1-2c2 1 5-1 5-3v-1l5-1 4-2c2 0 4-5 3-8-2-3-2-3-10-2m237 1l1 2 1 2c-1 1 3 6 6 6l1 1 6 4 7 3v-4c1-5 1-5-4-6a60 60 0 01-17-10l-1 2m-223 0v4l1 1h1l1-1 3-1 4-1h2l1 1c2-3-9-6-13-3m343 4l-2 2-2 1v2l-1 2 2-1h2l3-1h3a2 2 0 013-1c0-3-7-6-8-4m-277 4l1 1h1l-2 1c-4-2-26 28-25 35l1 2 1-3c4-7 13-20 20-27l7-9h-4m536 4l-10 5h-2l2 1c6 3 14 0 17-7l2-4-9 5m-572-3c-6 1-6 3-2 3l9 4c3 2 3 2 1 0l-3-3 2-2 2-2h-9m35 8c-10 10-22 29-22 32 0 2 7 3 10 2 7-3 21-22 24-32 1-5 1-5-2-7-4-2-3-2-10 5m183-5v8c3 2 7 1 7-1-1-2 0-3 1-3l2-3c-1-1-9-3-10-1m-62 2l6 3a7 7 0 006 3c2 2 1-1-2-4-2-2-3-3-8-3s-5 0-2 1m-169 1c-6 2-12 9-11 14v5c-1 3 0 5 1 4l1-5 1-4 3-1 2 1v1l1 2-5 1-1 3v2l3-2 6-3c3-1 4-3 1-2l-2-1 3-1c1-1 2 0 2 1l1 1 1-1c-1-2 1-3 8-6 4-2 6-1 2 1-3 2 1 1 5-1l4-1-3-2c-1-1-2-2-3-1l-1-1c1-3-12-6-19-4m477 6l-3 14-2 13h1v-4c1-2 1-2 1 2-1 4 0 5 5 12 7 8 10 11 10 9l-3-4-3-3h3c3 1 4 1 4 5s0 5 3 9l4 4-1-3a13 13 0 00-1-6c1 1 1 0 1-3l1-8 2-5 2-6v-3h1l2 1-3-4c-5-4-13-12-17-18-5-6-6-6-7-2m-336 0c-6 1-11 7-11 12 0 3 3 8 5 8v-1c-1-2-1-2 1-2l3-1h-1c-3 0-3 0 0-1l6-4c4-5 6-6 7-6 2 0 2-3 0-4a24 24 0 01-5-2l-5 1m-178 2h-4l3 4 2 7c0 3 2 5 2 2l1-1 2-1 3-1c3 0 3-2 1-4v-1l2-1c0-2 2-1 3 2s1 3 1 1c0-4 1-5 3-4v-1c-2-3-8-3-19-2m225 1l2 1 6 2 7 1c7 0 5-1-6-3l-9-1m-24 15l1 1a150 150 0 0138 6h2c2-1-3-3-17-5-18-3-24-3-24-2m218 2h42l-21-1-21 1m-363 1v3l3 6c3 7 9 8 16 4l3-2h-4c-8 2-15-2-15-9-1-3-1-3-3-2m-5 1l-1 1c-1-1-5 2-4 4l-1 1c-1-1-3 1-3 5s1 6 2 3 6-5 11-5l3 1-2-5-2-5-2-1c-1 0-2 0-1 1m449 3l-2 5-1 2v2l1 2c0 6 4 7 4 1a5 5 0 012-6c1-1 1-1 0 0v-2c2-1 1-4 0-4-3 0-3 0-2-2 1-3-1-2-2 2m-295-1c5 2 19 3 21 1l-1-1h-2l-12-2c-10 0-10 0-6 2m-87 0a39 39 0 00-19 5l1-1c3-2-4 0-7 1s-3 1-1 2c6 1 10 3 11 4 1 2 2 2 3 1l7-1c6 0 6-1 11-5l7-6h-13m15 2c-6 2-7 4-6 5h-1l-3 2c-1 2-1 2 13 2l13 1 5-5 6-5c2 0 1-2-1-2h-11c-10-1-11-1-15 2m62-2l-1 1h2l2 1 5 2c4 2 16 4 13 2-1-1-1-1 1-1 5 0 3-1-6-2l-11-3h-5m52 1c-2 2-3 2 0 4 2 2 19 3 23 1 3-1 3-3 1-3v1l-1 1-2-1c0-3-16-5-21-3m-89 5l-6 5 3 1 10 3 8 2 3-4 4-5 1-2-16-5-7 5m274 2l-2 1-2 3v4l1-2c0-3 3-5 4-3h1l1 1-2 2a2 2 0 101 2v3h1c1-1 2-2 2-6 0-6-2-8-5-5m-349 1l-21 9-4 3h5c6 1 9 2 11 4 2 1 3 1 10-3l14-7c6-2 5-3-2-5-5-2-10-2-13-1m124 0v2c-1-1-5 2-5 4l-2 1-1-1c1-1 1-1 0 0l-2 1a43 43 0 01-16 16c-4-1-4 21 0 28 3 7 5 8 10 7s11 1 15 6c2 2 4 3 5 2 9-4 16-10 19-16 7-12 4-46-4-43l-1-1v-1l-2-1h-4c2-2 2-2-1-3-4-2-11-3-11-1m-222 2c-9 2-18 8-21 15-2 4-3 9-1 8 2-2 9 14 10 23 1 3 0 3-1 3v1c8 7 34 2 40-9 1-2 1-2-2-1-7 3-11 0-15-8-6-11-1-23 9-23h4l-2-2c-4-5-15-9-21-7m135 3l6 1 14 1 8-1c0-2-2-2-14-2l-14 1m31 0c-2 2 0 3 7 4 9 1 12 2 13 3l1-1c0-1 0-2-1-1l-1-1-14-4h-5m-50 2l-19 8c-4 2-5 3-5 5 0 3 0 3 7-1 7-5 16-9 18-9l2-2v-2l-3 1m17 2l-3 1h21l7-2h-11l-14 1m27 1l-12 2-7 1 7 3c3 0 24-4 23-5 0-1-5-2-11-1m302 3c-6 1-7 2-4 5l2 5 1 5v10l4-2 6-2c2 0 2 0 2-7 0-11-4-17-11-14m-441 1c5 3 7 8 7 15-1 7-2 8-8 11l-3 1h4c7-1 9-4 10-11a17 17 0 00-4-13c0-2-2-4-5-4l-3-1 2 2m355-1l-8 2 5 2 6 3 3-4 2-4-8 1m58 3l-4 6c-4 1-4 3 0 4 2 0 3 2 3 3h-2c-4-3-5-2-8 4-4 6-3 7 3 12l4 4 7-6 6-6-2-2c-3-1-4-3-2-3l2 1c1 2 5 1 6-1s3-3 2 0h1c2-2 4-11 3-12l-6-1c-6 0-7-1-7-4 1-2-1-3-3-3l-3 4m-375 3c-11 5-11 6-7 6s13 3 15 4h3l9-6a28 28 0 008-5h1c1-1-6-4-12-4-6-1-7 0-17 5m56-5c-4 1-19 7-18 8l6-1 19-1c20-1 24-2 19-5-4-2-15-2-26-1m54 0l-9 2-9 1c-2 0-3 1-2 2 3 4 4 4 15 1l14-2h3l-3-3c-3-2-4-2-9-1m-156 2c-5 5-5 11-2 18 5 9 16 4 15-7 0-9-8-17-13-11m274-1l-1 2c0 2 0 2 2 2l19 5c2 2 3 0 1-1l-6-3-7-3-4-1-3-1h-1m186 1l2 10c0 7 0 8 3 8l5 3c3 2 3 2 2 0l-2-3v-1a26 26 0 00-8-16l-2-2v1m-206 0c-5 2-5 1-4 3 0 2 1 2 3 1l10-1c7 0 9-1 9-2 0-2-11-3-18-1m80 1l4 11 1-1c0-1 6-5 10-6l3-1-5-2c-5-2-11-3-13-1m-205 2l-21 2c-21 1-23 2-16 5a91 91 0 0046-3l-6-5-3 1m202 1c-5 8-5 18 0 25l2 2v-5c-1-5 0-10 3-11 1-1 0-2-1-5l-2-6c0-3 0-3-2 0m-264 5c-10 5-10 6-11 9 0 4 0 4 14 1 24-6 25-6 19-9-6-2-9-2-10-1 0 2-1 2-1 1l-6 2c-7 6-14 9-15 9 0-1-1-1 10-7l11-8c1-3-2-2-11 3m90-4l-9 1c-6 2-7 2-2 7l5 5 3-1 9-3c6-1 7-2 8-8 1-3 1-3-4-3l-10 2m285 2c-3 7-1 42 3 42 2 0 2-3 1-24-1-20-2-24-4-18m-59 0a16 16 0 0011 6l4 3 1-3c0-3-6-7-14-8h-5l3 2m-211 3l-2 10c0 7 1 10 2 6 0-2 1-1 1 4 0 7 1 10 8 17l3 3 2-2c1-3 1-5-3-10-3-4-5-12-5-23 0-8-1-9-3-9l-3 4m124-2l2 3 15 2-7-3-8-3c-1-2-2-1-2 1m50 0c-9 4-6 9 8 16 7 3 8 3 9-1 1-5-1-9-5-13s-5-5-12-2m21 0l-2 12 2-1 1-2 4-1 11-2c6 0 5-1-6-5-7-2-9-2-10-1m-229 1c-3 2-25 5-41 5l-14 3-16 4c-7 1-7 2-1 3l9 2c4 1 6 2 8 1l13-2h11l-5-5-3-5 6 5c4 4 5 4 11 4 7 0 30-4 32-5l-3-4-3-4-4-2m-113 4c-4 2-5 3-6 7-2 7-5 11-10 15l-3 3 9-2c6 0 7-1 16-7l16-11 6-3-3-2c-6-3-20-3-25 0m-58 1c-3 4 0 14 4 17 3 2 3 1 2-4s-5-15-6-13m329 3l-6 4-3 1-8 1h-8v4c-1 5-1 4 9 1l13-4c17-6 22-9 19-9-7-2-12-1-16 2m-137 0l-6 2c-2 0 0 2 4 6 5 4 13 5 12 2l-1-7c0-6-1-6-9-3m91 0c-1 3 0 3 10 10 9 5 9 5 9 0v-5l-7-2-7-3c-3-2-5-2-5 0m130-1c-6 1-9 2-12 5-4 3-4 4 2 4l10-2 6-2 4-3c3-1 3-1 1-2h-11m-327 1l-7 5c-21 13-23 15-21 16 3 1 4 0 10-4 15-10 19-13 19-15 1-2 0-4-1-2m283 1c-4 4-1 15 4 19s7 3 9 0l5-6 4-2-5-3-10-6c-6-5-5-4-7-2m54 2c-4 2-4 2-4 7s1 5 8 1l7-2c3 0 5-6 3-7-2-2-10-1-14 1m45-1l-10 9-9 8 4 4c6 5 13 5 19 0l2-2-1-7-2-10c0-3-1-3-3-2m27 1l-1 3a74 74 0 01-11 23c3-2 10-2 16 0 6 3 6 3 7-9v-9l-3-4c-3-4-7-6-8-4m-320 2l-24 3c-8 0-8 1 3 8 9 6 9 6 27-1l11-3-5-5-5-4-7 2m310-1l-4 4 1 19c2 0 11-20 11-24l-8 1m-401 5l-9 6c-8 5-8 5-2 4l7-1 29-6c1-1-4-3-11-4-9-1-11-1-14 1m323 0l-4 1 3 1 6 4c3 2 5 1 5-3s0-4-10-3m-285 1c-9 1-9 1-4 6l5 6 2 2 17-1 17-1-5-4-9-6c-4-3-10-4-23-2m148 3c-2 6-11 16-20 20l-3 2h4l5 1c1 2 2 1 6-2l4-3c2 0 11-15 11-19 0-3-7-2-7 1m125-1c-2 2-3 10-2 12 1 3 20-4 19-7-1-4-15-7-17-5m32 1l-7 3-16 9c-5 3-19 10-22 10-3 1-11 8-10 8l7-3 19-8 23-9 11-4c2 0 3-1 4-3 1-6-1-7-9-3m11 1l-1 6c-1 5-1 5 2 4 7-3 8-6 3-11l-3-2-1 3m-338 1l-14 3-11 2-10 2c-3 0-2 1 2 3l5 3c2 3 26 2 45-2 5-1 6-2 5-4s-9-10-11-10l-11 3m82 2c-13 4-17 6-7 3 7-1 15-1 20 1l7 1a3 3 0 013 1l-10-9c-1-1-5 0-13 3m205 0c-4 4-8 12-7 14l6-2 5-2v-7c1-8 1-8-4-3m-349 6c-3 0-5 2-4 2h-1c-2 0-14 8-19 15-9 11-8 27 5 39 4 5 7 6 29 5 21 0 29 1 38 5 8 5 18 7 30 8l13 2c6 4 22 7 31 5l19-1c13 0 18-2 23-7a15 15 0 004-15c0-7-11-21-19-26l-4-2 2 4c3 5 2 15-2 21-6 9-17 11-34 7l-20-2c-12 0-13 0-25-8l-8-6-14 1c-22 1-32-4-41-17-10-16-7-27 9-30l6-2h-7l-11 2m133 0l-6 2-5 1-27 3c-4 1-3 13 1 13l8 2c8 3 19 5 26 5l13 1c16 4 21 3 23-4 1-4 0-15-2-18-4-7-18-9-31-5m255 0l-9 4-4 2h7c9-1 13-3 14-6 0-3-2-3-8 0m18 0l-9 4c-7 2-8 4-13 12l-3 4 8-1 22-1 13-2-4-2c-4-2-10-11-11-14 0-2-1-2-3 0m-395 2c-12 4-15 10-10 20l2 4h6l9-1c10-6 24-6 32-1 4 4 8 9 6 10-1 2 2 1 4-1l7-4 4-2h-7c-8 0-15-3-22-9-3-3-5-5-6-4v-1c2-2-3-7-9-10-5-2-12-3-16-1m89-1l-6 1c-4 0-6 1-6 2s3 3 4 1l12-2c13-1 14-2 4-2h-8m65 3c3 4 4 21 1 24l-2 2h3l4-1 9-2c9-1 12-3 8-6l-5-4c-8-9-15-15-17-15l-3-1 2 3m266 0a14 14 0 01-15-1c-2 0 4 5 8 7 5 3 13 2 12-1v-5c0-2 0-2-5 0m-352 0l-21 4c-8 0-11 2-4 2l9 2c6 2 25 4 28 3 1-1 0-5-4-9-2-3-2-3-8-2m338 5c6 6 14 9 17 6 1-2 1-2-4-2-6 0-12-3-13-6l-2-1c-1 0 0 2 2 3m31-2c-5 2-14 8-12 9l2 2c1 1 2 0 5-3l8-6 4-2h-7m-78 2c-10 2-11 3-4 7 11 6 15 5 15-4-1-5-1-5-11-3m-18 4c-9 3-10 5-2 13 6 7 8 7 18 1 8-5 9-6 6-6s-11-4-14-7c-3-2-3-2-8-1m-306 5c6 6 9 7 28 8 18 0 19 0 31 2l12 1c3-1 3-1 2-2l-12-3c-7-3-10-3-14-3-8 2-11 1-21-2-6-3-10-4-16-5h-11l-4-1 5 5m377 0l-23 2-18 1 4 2a34 34 0 0036 1l7-7-6 1m6 3a11 11 0 00-5 6l-5 11 1-1c3-5 9-12 14-14 4-2 5-4 1-5l-6 3m-217 1c-4 2-5 3-12 3h-8l-4 6c-5 9-5 9 3 9 6 1 20 4 30 8 1 1 2 0 2-2l2-11c3-13 3-12-3-14s-6-2-10 1m97-1v3l-1 1c0 2 5 2 9 0l4-2-3-1c-3-2-6-2-9-1m-284 3c-6 2-11 6-11 9 0 9 11 14 31 12 13-1 14-1 25 7 8 6 12 7 24 6 6 0 9 0 16 2 20 5 33 1 37-11 4-15-6-24-23-20-7 2-10 2-16 2-7-1-7-1-6 1 7 8 4 18-6 22-7 2-20 1-26-3-4-2-2-2 4 0 17 9 36-3 28-17-5-10-27-9-42 1-4 3-5 4-3 4 3 1 11 8 10 9l-4-3a11 11 0 00-15-3c-2 0-1-2 2-3 5-2 6-4 4-8-5-8-17-11-29-7m409 1c-6 3-10 9-14 16-4 8-2 22 2 22a35 35 0 0013-17l4-19v-5l-5 3m-163 0c-2 1-3 2-3 5 0 4 2 6 4 3l4-2 3-1 3-2c2-1 2-1 0-1-2 1-3 0-4-1-2-2-4-2-7-1m101 2c-8 4-17 12-11 10 4-2 8-2 10-1 4 3 5 2 7-8 1-5 1-5-6-1m19 6l8 9 5-4 7-6c2-2 2-2-4-1-5 0-12-1-21-6-2 0 1 3 5 8m-382-5h-4l2 3 4 6c2 1 2 1 2-1v-6c1-3 2-3-4-2m173 0l-10 3-13 1-7-1 4 4 5 3 1 1 2 6 5 8 1 3 7-9 11-19h-6m122 5l-10 1c-5 0-7 2-3 3v-1h1a33 33 0 0020-2h1c-1-2-3-2-9-1m56 6l-4 2-6 14c0 2 0 2 3 1 10-2 23-14 19-17-2-2-10-2-12 0m-50 8l-12 1-15 5-2 2h2c2 0 3-1 3-2l3-1h3l2-1 4-1h4l12-2 11-2c0-1-6-1-15 1m333 16l-1 20v19h18v-12l-4-1-5-1-1-9-1-10c-1-1 1-1 5-1h6v-7h-8c-7 0-8 0-9 2"
    itemprop="light" fill-rule="evenodd" tabindex="-1" fill="url(#16282281824-posters-1654102071516-vertical-light)"
    fill-opacity="" stroke="url(#16282281824-posters-1654102071516-horizontal-background)" stroke-opacity=""></path>
  <path id="16282281824-posters-1654102071516-regular"
    d="M466 81l2 4-2 3c-7 12-7 45 0 62 6 15 16 33 21 37 5 5 3 7-4 7h-4l5 1c6 0 7 0 6 3 0 2 2 3 4 0 1-1 2 3 1 8 0 1 0 2 1 1l1 2 5 12 6 16 7 13c3 8 4 9 3 10l-2 3c0 5-3 1-18-27a1245 1245 0 00-23-42c-3-4-10-26-13-39l-3-8 10 36 3 9-11 11-22 23-11 13-4-3c-5-3-6-2-1 2s7 8 6 13c0 5-5 5-6 1l-1-2-1 2-1 3c2-1 2 0 0 6l-3 5v1c1 1 0 3-1 6l-2 5c-1 1-1 2-2 1l-1 1v3l-2 4c0 2 0 2-2 1h-4l-3 1a4 4 0 011-6l3-7 3-8c1-6 6-14 7-14l3 1h2l-2-1-3-2h-2c-1 1-1 1-1-1l1-4v-1l-1-3c0-5-2-6-2-2v4c-2-1-2 0-1 5v3l-1-2c-1 0-2 3-1 5v1c-1-1-3 0-5 1-4 3-7 3-4 0v-1c-2 1-2 0-3-1 0-2 0-2-3 0a5 5 0 000 10h-2c-3-2-5 1-5 7-1 3-12 3-16 1-5-3-7-14-4-21 3-8 18-10 25-4 2 2 6 2 6 1l2-1 3-1c1-1 0-1 0 0-3 1-1-3 1-4s2-1 0-1c-3 0-3-2 0-5l1-2c-3 1-2-4 1-6 2-2 2-2 0-2-3 0-3-3 0-5s7-1 8 2l1 1a7 7 0 00-12-2h-6l-9 1-6 2-8 2c-3 0-3 0-2-1v-1c-1 0-2-1-3-5-1-10-4-15-16-21l-10-5c-6-4-22-6-30-4l-16 3c-16 2-17 3-27 13-10 11-12 13-12 19 0 5-1 6-6 5h-3v-12c0-15-1-16-6-19a29 29 0 00-31-4c-4 1-12 5-13 7l-1 13v12l-4-2-7-2-4-1-5-6c-10-11-9-18 2-50 5-16 5-17 5-26 0-10-1-17-3-16l1 3a37 37 0 01-5 32c3-2 3 0-1 9-4 12-6 14-11 14-2 0-3 0-5 2-2 3-4 3-3-1l-1-4c-1-1-1 0-1 2l-3 9-3 7-5 10c-2 3-2 3-1 5 2 1 2 1 0 5l-1 4h-1c-1-1-2 0-3 2-2 4-3 6-1 4 1-2 3 0 3 3l1 2a12 12 0 014 10l-2 3-1-1c1-2 1-2-2 0l-2 1h-2c-1 2-3 3-3 1l2-2c3-2 7-11 5-11l-1 2c0 3-6 9-7 7h-1l-1-1 2-4c0-2-7 5-8 8l2-1 2-1c-4 8-4 9-6 9-1 0-2-1-1-2l1-5 2-5c1-1 1-1 0 0h-2v-2l-1 4a9 9 0 01-9 9h-2l-4-1c-1 0-2 0-1-2l-1-1-2 2c0 4 0 4-1 2s1-5 7-18c6-14 11-21 11-19l3-2 2-4a56 56 0 00-13 13l-1-1-1 4v2l-1-1v-1c-2 0-2 1-1 2 2 3 0 2-3-1l-2-4c4 0 12-11 12-17 0-3 0-4 2-5a15 15 0 008-19v4c0 5 0 6-3 9-4 6-7 7-11 2-6-8-6-7 0 4 4 6 3 11-4 17-4 4-6 5-8 2-3-2-2 0 0 3l2 6c0 2 0 2 1-1l1-2 3 4c3 3 2 6-3 13l-3 7c0 5-2 6-6 4l-3-2v1c5 0 7 9 3 13-1 2-2 2 7 4s7 0-4-3v-3l2-5v-3l2 3 4 4 2 5 2 4 3 4 1 3-1-1h-9a8 8 0 01-6-3v2l-6 1h-5l7 1c5 1 8 1 9 3 5 4 7 13 3 13-2 0-2 0 0 1 1 1-1 1-7 1h-8v-5l-1-5v4c0 6 0 6-11 7h2c11 0 14 2 14 10 0 4-3 11-5 11v1l2 1c5-2 7 11 2 18-2 3-2 3-2 1 1-2 1-2 0 0l-6 4-8 2-6 1c-4-1-5 1-2 5 2 1 2 1 1-1s-1-2 9-5l11-2a5 5 0 014 8v-1h-2l-5 1-7 3c-3 2-4 2-7 0h-4l2 1c2 0 8 4 11 7l4 4c6 5 8 17 5 26-3 8-15 16-23 16l-4 1 2 1 6-1 4-1-4 2-13 9-7 9c-3 5-2 5 1 0 6-10 24-21 36-21 9 0 12 1 5 2-19 2-22 13-11 31 7 10 19 16 32 16h7l-9-1c-14-1-22-6-30-18-10-17-5-27 14-27 7 0 12 3 20 12 7 8 11 10 17 12s14 3 11 1l-5-1c-7 0-13-3-23-15l-9-8c-3-1-4-3-3-3l1-1h-8c-4-2-10-2-16-1-8 3-8 2-2-1 7-3 10-7 13-15 1-6 2-6 7-9l7-3a166 166 0 0127-13l24-12 24-8c12-3 52-2 69 2 8 2 10 3 6 5-2 0-9 10-8 12l-2 1h-3c-1 1-1 1 1 1l3 1c1 2-3 4-5 3v1h3l-1 6a45 45 0 000 29c0 2 18 22 24 25v2l-1 2 2-1c1-2 2-2 4-1 8 1 15 0 21-5 4-4 10-7 11-6v15l-1 15-1 3-2 1h1c2 0 2 1 1 4l-1 10v3c1-5 2-5 14-8 15-4 20-3 35 3 7 3 12 3 21-1 17-8 32-9 46-2 5 3 8 4 8 3v-1c-5 0-1-11 5-15a7 7 0 004-5h2v-3c2-1 1-2-3-4-5-1-11-8-12-12 0-4 0-4-5 0l-5 1a14 14 0 018-8l-4 1c-5 3-11 0-14-6l-1-2 4 8v2l1 1c3 0 5 3 3 4v3h2l4-2a8 8 0 005-3l1 2 2 4a5 5 0 012 4h1l5 3 4 3a21 21 0 01-9 9l-2 6c-2 6-4 8-3 4v-2l-2-1c-1-1-2-2-3-1h-5l3 2 4 2-4-1c-4-2-5-2-17-2-13 1-16 2-29 7-8 4-10 4-10 0 0-5 7-8 24-10l7-2h-16l-2 1c-1 1-2 0-4-1s-2-1 4-1c3 0 4 0 3-1l-2-1-1-1c-1 1-2 0-2-1l-2-3c-2-3-1-3 8-4l11-1h5l2-2c1-3 0-4-1-1h-3c-1-2-27 0-29 2s-1 4 1 4c2-1 6 2 6 5h-5l-2 1h1c-1 1-10-3-13-6s-4-6-1-9l2-3c-3 0 3-4 6-4h4l28-1c0 1 8 3 9 2 0-1-5-3-9-3-3 0-5-4-6-8 0-4 1-4 2-1l1 3v-3l1-2-1-2c-2-4-4-5-4-2h1l2 2c2 3-2 2-6-1l-2-2 2-1c3 0 3 0 2-2l1-3 1-4c0-4 1-5 2-3l9 11c3 3 3 2-1-3l-5-7-5-4c-2 0-1-2 1-2 1-1 2 0 3 1l2 2-1-2c-2-2-2-2 3-4l3-1 1 2c1 0 2 1 2 3a44 44 0 0013 13c-1 1 1 3 3 6 5 5 8 5 3 0-6-6-6-6 0-3 5 2 5 3 5 6-1 4-1 4 3 3v-1c-2 0-2-2-1-6v-2c-2 1-11-4-11-5l-2-2c-5 0-9-15-7-23s6-11 17-11h8l-5-1c-4 0-5-1-1-2h26a35 35 0 0117 10c4 1 12 6 12 8s1 1 3-1c2-3 3-3 2 0v2l1-1 3-3 3-3 2-3c4-2 8-10 5-9h-3l-1-1v2h-1c-5-3-14-9-13-10 1 0 1-1-1-2-2-3 0-2 4 1l15 9-7-6a123 123 0 01-10-7c-4-1-3-3 0-2 4 0 3-2 0-2-2 0-2-1-1-2 3-2 19 14 19 18l1 2c1-1 3 0 4 1a12 12 0 005 2l-1-2-2-2c-3 0-11-9-10-10l-2-2-1-2 1-7 2-1 2-1 5-3c7-3 11-6 8-6l-1-2c1-1-5-6-10-7a330 330 0 01-14-6l-2-1-2-1-1-2v-2l-1-1 4 1 8 2 16 6 4 4 2 2-1-3c-1-3-7-6-21-10-9-3-10-4-10-5 0-2 1-3 3-3l2-1 3-1h5c2-2 23 0 27 1 2 1 3 2 2 3l-1 2-1 1a7 7 0 002 11v-2a6 6 0 01-2-5v-2l4-3a14 14 0 0111-4l8 3c6 3 20 17 19 19l1 1c1-1 2 0 5 4l4 5c3 3 1 4-9 4-9 0-9 0-2 1 11 0 8 2-4 2a17 17 0 01-17-4l-3-2v1l2 3 3 2a8 8 0 017 7l4 1c7 5 14 6 17 3s7 11 4 21c-1 6-3 10-3 7l-9-1-8 1 7 1a14 14 0 0110 2c1 1-4 1-11 1-12 0-12 0-4-1s4-2-5-1c-3 0-6-3-6-6h16c1 1 1 1-1 1h-2c-1 1 1 1 6 1 6 0 8-1 7-2l-1-1-13-1-14-1-1-2c-2-1-5-6-4-7v-1c-1 0-3 0-5-2-6-4-13-5-16-1h-1c1-3 0-6-2-5l1 2-1 3-2 3 1-1h5c3 0 3 0 2-1s-1-1 2-1c4 0 9 3 11 7l2 1-1-1-1-2c0-4 12 13 14 19v31c-1 2-1 3 3 7 8 8 11 15 14 29l1 4c0-11-7-27-15-36-3-3-1-11 3-11 3 0 10-3 14-6 3-2 4-5 8-25l4-13v-4l-2 3-2-7-1-7 1-8c0-6 1-6 5-1 2 4 3 5 2 8 0 3 0 3 1 1 2-2 2-2 10 8a151 151 0 0120 26c3 0-4-10-17-25-10-11-12-14-11-17l4-15c2-12 4-16 8-14v-1c-1-1-1-1 1-2 4-1 13-16 12-19h-1a19 19 0 01-6 11c1 1-6 8-8 8h-1c5-3 7-6 9-15 2-7 3-9 4-9a1 1 0 100-1l-1-9 1-8 3-1c2 0 3-1 2-4l-2 1c-3 3-5 3-5-2 0-12-7-34-17-56-2-5-2-6-1-8l2-2 1 2 3 6a8 8 0 013 6c1-1 7 11 8 17v3c-3 1-2 3 0 3h2l2 8c2 7 3 12 1 12l-1 1h2c2 0 1-3-1-16-3-12-4-15-8-22l-17-30c-6-7-8-10-7-12 1-1 1-1 0 0-2 1-2 1-5-1-4-3-11-6-13-6l-3-1 2-1 12 2c11 1 12 2 10 4-1 1-1 1 0 0 2-2 6-1 18 3a248 248 0 0144 20c0-1-10-7-23-13-11-5-13-6-27-10-19-6-24-7-36-7a19 19 0 01-14-5l-2-1-2-1 1 2a10 10 0 006 4l-8 1-13 3c-5 2-6 2-9 1-4-2-10-9-12-12 0-2-1-3-2-3-1 2 7 12 12 15l3 2-5 3-3 2a3 3 0 001-3c0 1 1 1 3-1l1-2-2 1-1 1-4 2c-4 4-5 4-11-2-6-7-6-5 0 2 4 5 5 8 2 4l-3-1 1 2 1 4-1 1-1 1-1-1c1-2-2-5-4-5-2 1-13-17-18-31-7-21-6-54 1-61 3-2 2-4-2-8l-2-3 2 4m-335 47c-2 1-3 5-4 7-1 5-2 5 6 28 4 11 4 11 1 11h-2l2 1c4-1 5 2 1 6a31 31 0 00-5 8c4-6 6-8 8-7s2 1 1-1c-1-4 7-7 11-3h4c2-2 3-6 1-4l-2-3c-1-4-9-3-11 2-2 4-3 4-4 0l-1-3a44 44 0 01-5-18c-2 2-6-15-3-17l1-3c0-2 2-4 3-3l-1 2v1h2c1 1 1 0 1-2v-3c3 0 5 1 5 2l2 3 1 2h1c2-1 0-5-4-6-4-3-6-2-9 0m393 41l-5 3c0 2 0 2 1 1v1c-2 2-1 4 1 7 4 5 6 6 7 2 2-4 6-8 11-12l4-3h-7l-12 1m22 1l5 2a39 39 0 0118 12l6 8c6 9 6 9 8 7l1-2c0-3-13-18-13-16l-1 1v-2l-1-3-5-3c-5-3-17-6-18-4m-34 4c-5 3-14 11-15 15-3 7 5 32 12 40 3 4 10 8 11 7l-3-6-2-7 3 5c3 6 9 10 6 4l-1-1-1-1v-13l1-5c3 0-1-4-4-4-5-1-17-8-20-10l-1-2 2 1c5 4 15 8 19 8h3v-4l2-1 1-6 1-6-3-3c-3-2-6-7-5-8l-1-1v-2c0-2 0-2-5 0m27-1c-3 2-7 7-10 14-6 13-1 55 6 56 3 0 7-3 6-4h-1c-1 1-1 1-2-1l-1-2-1-1-2-19v-13c1-1 1-1 1 1 0 3 2-1 2-4l1-7 2-8 5-8 3-4h-9m7 6c-7 10-9 26-7 40 3 18 4 21 6 21l3-1v-2l-1-2v-2l-1-9-1-7c-1-3 0-4 2-3l1-1-1-2c-2 1-3-2-2-5l2-6c0-4 0-5 1-4 1 2 1 2 1-1l2-6-2 2-1 3 1-4v-7c0-2 1-3 2-3v2c-1 3 1 4 3 1l4-4c1-1 1-2-2-3-4-3-6-3-10 3m12 3c-9 10-11 38-3 66a92 92 0 0020 37c3 2 4 3 4 1-1-1 0-2 2-3 3-2 4-2 3-4h-1c0 2-2 1-2-1 0-1 0-2-3-2l-4 1h-1c-2-1 1-2 6-2 3 0 4 0 4-2l-1-2-1-2c-1-2-6-5-8-4-1 1-1 1 1 1a11 11 0 015 2h-4c-5-1-13-4-12-5h2c3 2 8 1 11-3l1-1c-1 4 1 7 6 7 3 0 16-8 16-10l-3-9c-1-6-2-7-3-7-1 1-1 1 0 0 1-2 1-4-3-13-5-16-9-24-10-22-1 1-1 1-1-1 1-2-4-10-11-18-5-6-8-7-10-4m-393 3l-6 2-4 2-5 9-6 11c-1 3 0 4 4 1h2l-4 3c-1 1-2 1-1 2l1 2h-1c-1-1-2 0-3 3l-3 5c-2 0-2 3 0 3 2 1 8-5 7-7l1-2c2 1 7-4 7-6l-1-7c-1-1 0-4 1-3 2 0 4-2 5-6 1-3 1-3 1 0 0 5 6 3 7-2l2-11-4 1m147 8l-21 4c-6 0-14 3-17 6-16 16-17 18-18 21-1 6 1 15 3 15v-17 4l1 6 3-1v-3c0-4 4-13 7-16 2-1 2-1 1 1-6 8-8 16-5 17v1c-1 0-2 1-2 3 0 3 0 3-1 1 0-4-2-3-3 0 0 3 3 6 4 4h1l4 4c7 3 10 9 12 16 0 5 1 6 2 4h3c2 1 10 1 11-1l-4-2-5-2 5 1c4 2 8 1 5 0h3c2 0 3 0 2-1v-4c2 0-1-2-3-2v1c2 1-1 1-8-2l-4-1 6 1 8 1c1 0 2 0 2-2a30 30 0 017-14v-1l1-1v-2l1-1h2l1-1 5-3 5-2-2-3-2-2-1-3c-2-2-2-2 0-1l4 4c3 4 5 5 5 3l-2-3-4-4-1-2 2 2 5 4c2 3 8 4 7 1-3-5-3-5-1-3l2 3 1 1c2 0 2-5 0-6v-4c-2-1-2-1-2 1 1 1 1 1 0 0-2-2-3-2-7-2h-6l3-1 10-1-5-5-4-4c5 2 12 10 14 16l4 6-2-6-1-3-1-2-1-1c1-1 11 2 14 4l4 2-3-5-2-4 3 3 3 5 2 3c3 3 3 0 0-5-3-4-4-5-10-9-9-4-13-6-20-7l-6-2 6 1c8 2 7 0-1-2-6-2-15-2-19-1m156 5c-5 8-4 24 2 24 2 0 8 3 11 6 6 5 10 18 10 31 0 7 0 7 3 8l4 1c1 0 2 0 2-2h1c2 1 2-1 1-8l-1-1c-1 1-4-5-4-6 1-1 1 0 2 2 3 6 4 4 2-3-2-5-2-6 0-3 2 2 2 2 0-1-3-5-6-4-5 1v2-10 2h1c1-2 0-3-2-3l-3-1c-1-1-1-1-1 1s0 2-1 0v-4l-1-1v-5l2 1-1-3a4 4 0 00-3-4c1-1-1-5-4-10l-8-14c-4-6-3-6-7 0m-253-1l-2 1h2a1 1 0 110 2l1 104c0 2 4 4 7 4 2 0 2 0 1-2-1-4 0-18 1-17 2 1 1-5-2-10-3-6-4-18-1-24 2-3 2-6 3-16v-19c0-4 0-6 1-5 1 3 2 1 1-3 0-3 0-4 1-3s1 0 1-3c0-4-1-6-2-7l-2-2h-10m14 2l1 2 1 3 1 2v2c-1 3 0 11 1 11 2 1 3-1 2-4v-3l2-3 1-1c3 1 1-5-2-8-3-2-7-3-7-1m-24 1l-3 2c-5 0-6 4-6 21l1 17h-7l-2 1-3 1c-3 1-7-1-7-4h2c1 3 3 1 2-2l1-1c1 0 2 2 1 3s-1 3 1 2v-1l2-1c5 0 8-2 8-5 0-2-1-3-2-3v1h-3l-1-2-6-3-5-1c0-2-5-7-7-7s-2 0 0-1v-1l-2-4-2-3-3 1-3 1-4 6-3 3v-1l1-1c-1-1-2 0-5 4-2 3-2 4-2 21a83 83 0 002 21c-1 1 0 2 5 3h5c2 1 2 1 1 2s-1 1 1 1c1 0 2 0 1-1l2-2c2-1 2-2 2-5l1-1 1 3c0 3 0 3 2 3l4-1 2-1v-1l-2-2h2c1 1 1 0 1-10 0-6 0-11 1-10l2 2 1 3v5c1 3 3 8 5 8l1 1c0 2 5 4 6 2l3-1c4 0 8-5 8-9l1-3c3-2-1-8-4-7l-2-1c-1-1 0-2 2-1 3 0 3 0 3-4 0-3 0-3 1 2l1-18v-22l-2 1m-43 1c-5 1-8 4-7 5l1 4c0 2 1 2 3 1l1-5 1-3 1 3c0 3 3 3 4 1s1-7-1-7l-3 1m297 5a135514 135514 0 00-30 33c-1 1 0 3 1 5 2 3 3 5 3 13 1 8 4 20 4 14l-1-3c-1-3-2-13-1-19 1-4 8-19 10-19v-1a1 1 0 112-1l4-1 8-4c3-1 4-2 2-2l-4 1-3 1c-1-1 3-4 5-4h1l1-4 3-13-5 4m-219-1l1 11c0 8 0 10 1 8 2-6 2-17 1-19s-4-3-3 0m-10 22l-1 11c0 5 0 7-2 8l-2 2 4-2 4-3v-16h1l-1-2v-1l1-1c-2-2-3-1-4 4m101-2l2 3c2 3 7 14 8 21 1 3 2 5 4 5s3-19 1-26l-1-4h-7l-7 1m16 3l1 14c0 11 0 11 3 11 2 0 2-1 6-10 4-10 4-10-3-15-8-5-8-5-7 0m111-2h1l2 1c0 2-2 2-4 1-7-4-21 14-21 26v3l7-3c7-2 7-2 6 0 0 2 0 2-1 1-1-2-12 3-11 5 1 3 9 5 21 6l13 1h-10c-11 0-12 1-3 9l6 7c0 1 3 1 6-1h1c0 2 0 2 2 1 6-1 12-8 15-15l2-4h-3a82 82 0 01-13 1c3 0 3-1 3-5l1-4v9l5-1c8-1 8-2 6-16-3-12-7-19-14-23-4-1-14-1-17 1m-135 1l-10 8 4 3c8 3 16 9 20 13 1 2 3 3 3 2 2-2-4-19-9-24-2-3-3-4-8-2m65 0c-4 0-4 0-4 4l1 4 4-2c4-1 4-2 4-4-1-2-1-2 0 0 4 5 5 5 7 2 2-5 0-5-12-4m-10 2l-3 1v3a4 4 0 106-5l-3 1m130 1l10 22c3 5 4 6 5 5h5l2-2-1-1c-1 1-2-2-1-3l-1-2-3-5c-1-3-3-5-7-8a43 43 0 01-9-6m-119 5c-2 2-2 2 0 3h4l1-2 1 2c0 2 3 3 3 0 2-3 1-4-3-4l-6 1m-29 4l-2 6c-2 4-5 13-4 14l2-2 1-1c1 1 2 0 2-1l2-4 1-2v3l1-4 1-3-2-8c-1-2-1-2-2 2m-50 0c-5 7-6 13-3 13l3 1h-3c-2 0-2 0-2 7a21 21 0 003 10c0 1 1 2 3 2h3c-1-2-1-2 2-1s3 1 6-2 4-4 7-4 4 0 4-2c1-4 1-4-2-4l-3-2 4 1h7c0 3 8 2 10-1 2-2 2-3-1-2-6 1-10 0-12-2-1-3-12-11-20-15l-4-2-2 3m-63 3c2 2 1 3-1 1-2-1-3-2-5-1a12 12 0 00-9 6c-1-1-1 0-1 2 0 1 0 2 2 2l2 2h1l-1-2v-4l4 15 1 2h1l4 2c3 0 3 1 3 3s1 3 2 3v-3l1-3 1 4c0 5 5 4 7-1 1-1 1-1 1 1s1 3 3 0h1c-2 2-1 2 2 2l6-6c1-3 3-5 4-5 2-1 2-6 1-9-2-2-3 0-2 2v3c-1 1-1 1-1-1 0-3-3-9-7-11-5-3-5-4 0-2l5 4 3 3c2 0-5-7-8-8-6-3-8-3-8-2l-6 1c-4 0-5 0-3-1 1-1 1-1-2-1-2 0-3 0-1 2m303-2l1 4c1 2 0 3-1 4s-1 1-1-2a3 3 0 00-5-3c0 5 16 40 18 40s4-2 2-3l-1-1-3-8a18 18 0 01-4-11c-1 2-1 2-2-2l-3-4 1-6c1-1-1-8-2-8 0 0 0 0 0 0m-10 4l-4 1c-3 0-3 0-3 3 3 10 15 38 17 38l3-1c1-1 3-2 4-1l1-1-3-1c-2-1-3-1-3-4l-1-3-1-3-6-15 1 2-1 2v-14c-1-4-2-5-4-3m-313 7c-4 4-7 17-5 19l1 5c2 5 4 7 6 5 3-2 5 0 6 5 0 3 3 7 3 4-1-3 0-5 1-3 0 3 1 4 4 4 4 1 5 0 2-1l-2-1h2l2-1c-1-1 2-3 4-3 1 0 2 0 2-3 0-2 0-3-4-4h5l8-1-5-1c-5 1-9 0-14-4s-6-4-8-3l-1 1h-2c-1 1-1 1 0 0v-4l-1-2 2 2c1 1 3 2 4 1v-3l-2-3c0-5-4-9-5-5h-1l-1-2v-1c2-1 3-3 1-3l-2 2m-99 1v4l3 4 3 1v-2c2 0 1-5-2-7-4-2-4-2-4 0m-20 5c-7 6-3 15 12 25l5 4a298 298 0 0031 21c1 1 2 1 3-1l3-2 4-3 4-4v-3c-1-2 0-4 2-2 0 1 1 1 3-1h1l1 1c4-3 0-8-5-8s-7 1-5 4l2 3-1-1-20-16c-26-19-34-23-40-17m98 14v15l-1-13c0-16-2-17-2-3v11l-1-10v-9l-3 1-3 1 1 19c0 15 1 19 2 20 3 2 4 1 4-7s0-8 1-3c0 5 1 5 1 3 1-2 1-2 2-1v-36l-1 12m216-12l1 5c2 1 2 1 1 4l-1 4h6l1-3c0-4-1-6-3-6v-1l2-2a2 2 0 010-2l-1-1c0-3-5-1-6 2m103 0c-2 0-3 2-1 2l1 1c-1 1 0 1 1 1v1l15 18c1 0 0-2-5-7l-2-4c0-2-1-5-4-6-2-1-2-1 0-1s4-3 3-4l-1 1h-1l-1-1c1-1-3-2-5-1m67 4c-6 4-6 3-2 7l3 3 4-3c3-2 3-3 3-5l-1-4c0-2-1-1-7 2m-73-1v2l-1 1c-4-3-3 5 1 9l5 7 6 7 3 4 1 1c1 0 3-7 2-8l-4-4-5-7-3-5-1-2-1-2-1-1v-2h-2m-82 4l4 8h13l-3-4-3-3-7-2c-5-3-5-3-4 1m53 3v3l-1 1h-1c0 2-7 9-12 11l-6 2h-3v1l1 3c1 13 2 16 7 11 2-3 4-4 5-2v1c-2-1-7 3-6 3 2 2 11-4 17-12l-2 2c-6 5-7 6-8 4-1-1 0-1 0 0l2-1 6-10 1-4c-1-1 0-2 1-3l1-3 1-1 1 1 1 1 1-2v-3c2-2 2-2-1-3l-3-1c0-2-2-1-2 1m93 1l1 2 4 4c1 4 4 6 3 3v-2c1-1-2-7-5-8s-3-1-3 1m-262 2l-1 2 4 3c3 3 4 3 8 3h5v6c1 5 1 6 3 6v-1c-1-1-1-1 1-1l4-2 3-1c1 1 1 0 1-3s-1-4-3-4c-2-1-2-1 1-1h3l3-2c5-2 4-3-6-5a18 18 0 00-9-1c0-1 1-1-8-2-6 0-7 0-9 3m189 2a6 6 0 00-3 6l-11 9-10 11h8c10 0 24 2 25 3 1 2 7 1 12-2l5-4-9-10-10-13c-3-4-3-4-7 0m86 0c-5 4-3 10 2 9 2 0 2-1 2-6 0-7-1-7-4-3m-295 0c-4 1-5 1-2 1h3l-4 1c-3 1-3 1 3 2l9 1h2l-2-2-2-3-1-1-6 1m56 0v2l-3 2-4 3c0 2 2 5 2 3l2-1c3 0 6-4 6-7s-1-4-3-2m-46 1l3 3c3 3 8 3 6 0-1-2-1-2 1 0l3 2c1-2-4-5-7-5h-2l-2-1-2 1m123 0c-1 0-2 1-1 2a3 3 0 005-1v2l8 1c4 0 5 0 4 2l1 1 3-1-1-2c-1-2-2-2-6-2l-7-2h-6m-277 1h-2l-1 1 3 2c2 2 5 2 24 1h6l-4-2h-5l-3 1v-1c3-2 0-2-3-1-3 2-4 2-8 0s-5-2-7-1m222 3c-1 3-1 3 1 2l1 1c-1 1 0 1 1 1 2 0 2 0 2-2-1 0-1-1 0 0l1 2c-1 2 0 1 2-1l2-2-1 2c0 2 3 3 4 1l2 2c2 4 5 6 4 3l-2-6c-1-4-3-5-5-3h-1l-3-1h-5c-1-1-2-1-3 1m41 1l-3 6c-1 4-2 5-6 5l-3 1 5 1c6 0 6 0 8-4 2-6 4-6 4 0 1 6 0 7-4 6h-10c-1 1 2 2 3 1l1 1v1l-2 1 5 1c6-1 8-2 2-2-3 0-3 0-1-1l4-1c4 2 5 0 5-5v-4c0 2 2 3 3 1l-1-1a1 1 0 011-2 1 1 0 100-2l-1-3c1-3-1-4-2-2h-1c0-3-6-1-7 2m-320 0l1 2 3 4c2 6 4 6 7 4 6-2 3-9-4-10l-6-1c-2 0-2 0-1 1m218 2l8 1h8l-7 1c-9 1-8 3 1 4 6 0 8-1 8-4-1-2-1-3-10-3-7 0-9 0-8 1m-24 1c0 3 10 6 17 4h2l4 1h3l-2-2c-1-2-3-2-8-3l-11-1-5 1m271 1c-3 2-2 3 5 10 8 7 10 9 11 7s1-3-1-3l-3-2-1-4h1c1 1 2 2 1 3l1 1c1 1 1 0 0 0 0-2 1-2 3 0l3 1-9-7-1 1-3-3-3-5c0-1-1-1-4 1m-182 3c-4 4-4 6 0 4 2-1 2-1 1 1l2-1 4-3c1-2 0-3-2-1v-1c0-3-1-2-5 1m-151 0l-1 1c-2 0-4 4-4 6l6 4 5 3 3-3 4-3-3-2-4-2c-3 0-6-2-5-4l-1-2v2m136 0l-6 2h-2c-1-1-1 0-1 2 1 4 2 5 6 3l5-2c4 0-8 4-14 5l-7 1 4 1 12-2c10 0 15-3 9-4l-2-1c1-1 5 0 5 2 1 1 1 1 1-1s-3-5-6-5l1-1c5-2 2-2-5 0m-188 0c-2 2 3 7 8 7 4 0 4-1 1-5l-1-2 4 4 3 4v-4l-2-4h-13m373 0c-1 2 0 3 6 9 10 11 11 12 11 8l3-3-3-4-6-3-3-6c1-1 1-1 0 0-2 2-2 2-3 0s-3-3-5-1m-103 1c-2 0-2 3 0 2 2 0 2 4 0 6-2 0-2 1-2 2l-1 1-5 1-2 1 5 3 4 4 3-3 2-2-2-2-2-2h2c3 1 7-1 7-3l-1-1-2-1h2c3 0 7-4 5-5l-3-1h-10m146 2l-2 1h-2l-1 1-2-1-2-1v1c1 1 1 1-1 1l-3-1 2 2c4 3 9 5 11 4 2-2 3-5 2-7h-2m-301 1c-2 1 0 3 3 7l3 2-1-4c0-3 0-3 1-1l2 2 3-7-11 1m12 0l-1 5c0 3 0 3 3 3h5c0-1 2-3 4-3l7-5h-18m240 1c-9 5-9 6-4 11l7 8 11 11v-3l1-4c1-2 1-3-2-6-4-4-4-7-1-6h1l-1-1-2-2c1 0 0-3-2-5-5-4-5-4-1 1l2 4-3-3c-2-3-6-4-4-2l-1 1c-1 0-1-1 1-3 1-2 1-2-2-1m-221 1l-3 2-2 1-2 1h-2l-1 5a13 13 0 008 9l-1 1-2-1-3-1 1 1c1 1 1 1-1 1-1 1 0 1 3 1 4 0 6 0 14 4 11 6 11 6 14 3 4-4 1-12-4-12l-7-2c-4-2-3-3 2 0 4 1 4 1 4-1l-1-2c-2 0 1-4 4-5l3-2h3c5 0 6-1 5-2l-5-1-10 1-4 1-4-1c-5-2-6-2-9-1m-73 1l-4 3h-2c-9-1-14 15-8 25 2 3 2 3 3 1l5-3c4-2 4-3-1-6-4-2-4-5 0-9l2-4c1-2 3-3 3 0h10c4-1 3-3-1-5-3-1-3-1-1-1l5 2c2 3 3 3 1 0s-7-4-12-3m-76 3l-3 1 3 2c6 3 11 0 7-4-2-1-3-1-7 1m48 2l2 8 3 3-1-5v-4l2 4c2 6 4 6 4 2l1-4c1-1 0-2-2-3h-3l-2-2c-3-4-4-4-4 1m-115-2l-3 1c-1 0-1 1 1 3l2 4 2-1 3-2 1-2c1-3-2-5-6-3m26 2l1 3v1l-3-1c-4-3-5-2-1 1 4 4 7 4 10 1 3-2 2-3-1-3h-2v-2c-2-3-4-2-4 0m-46-1c3 7 4 15 2 18-2 2-2 2 2 1l5-1h1c0 2-2 3-5 3l-4 1 2 4a18 18 0 01-1 16l-1 2h3c2-2 2-2 2-9a16 16 0 015-14l4-4 4-4-1 1c-2 1-7 0-7-2h1c2 1 2 1 2-1l3-2c2 0 1-3-1-6s-3-3-9-3h-7m268 1c-18 2-17 3 2 2 15 0 17 0 17-2h-19m176 2l-3 3h3c4 0 8 3 12 7l3 1-3-3-3-3-6-7-3 2m-408 1l-3 2c-2 3-2 3 1 3l4 1h-4c-3 0-10 4-9 5l-2 1c-11 0-18 14-14 27 1 5 6 9 7 7v-1c-1 1-2 0-3-1v-1c2 1 6-2 6-5 0-2 2-3 4-2a7 7 0 005-2c-2 0 1-3 3-3l4-1 6-3 5-3h2l-1-3-3-3-4-2-7-4-3-1 3 1c3 0 6 1 8 3 4 3 5 2 1-1l-3-3 2-2 3-4c0-2-5-6-6-6l-2 1m225 1c-4 0-6 1-6 2 0 2 7 2 18 0a12 12 0 016-1c-2-1-12-2-18-1m45 1a185 185 0 01-12 4l1 1h4c6 0 9-2 4-1h-3l3-1c4-2 6-1 6 2-1 1 0 2 1 1 2 0 2-8 0-8l-4 2m20 1c-2 1-7 11-7 14 0 2 1 4 3 5l3 2v-4a3 3 0 00-2-5l2-2 1-2 2-5c4-5 3-6-2-3m18 0c-3 1-5 9-4 15a2 2 0 103 1c-1-1 0-1 3-3 3-1 4-2 3-4-1-1 0-2 3-3s4-3 1-6c-2-2-4-2-9 0m140-1c-3 0-3 3 0 5 4 3 14 4 14 1h-2v-1l-1-2a12 12 0 01-8-2c2-1-1-2-3-1m-424 2c1 2 2 3 3 2l-3 5a62 62 0 00-18 31c0-4-3-4-4-1l-1 3v-3c0-2 0-2-5 0-4 2-8 9-8 13 1 4 2 4 4 0 2-3 8-5 11-3 2 1 3-2 1-4-1-1-1-1 0 0l2 3 1 3 1 4 1 3 3-2 2-1 3-1 5-3 2-2h-5c-6 0-8-1-3-1l7-1c2 0 3 0 2 2l1 1 1-3c-1-1 1-4 5-8 8-8 14-19 15-24 0-5 0-5-4-6l-6-5c-2-3-2-3-8 3l-5 4 3-3a3 3 0 000-5l-3-2-2-1 2 2m270 3c-5 10-4 21 2 21 2 0 2-2 0-2-1-1-2-3 0-3l4-1-3-1-2 1 2-1c3-1 6-7 3-7l-1-2h1l2-2 1-3c1-2 1-3-1-4-3-2-6-1-8 4m-275-2c1 2 1 2-1 1-2-2-3-1-2 2 2 3 5 4 7 2s2-4-2-6c-2-1-2-1-2 1m222 0l-9 1c-6 0-8 0-7 1 1 2 2 9 1 11-1 1 0 1 1 1l2-1h2l2-1c-2-1 10-6 17-6 2-1 2-2 1-4-1-1-2-2-3-1l-2-1h-5m-122 3c-1 1-1 2 1 2l4 4c3 3 6 4 7 1l-1-1v-1c1-5-9-9-11-5m-108 0a1075 1075 0 00-1 3l-2-1c-3-3-4 1-1 4l3 3c0 2 0 2 2 1s2-2 2-4v-1h3c0-2-6-7-6-5m435 1c1 1 1 5-1 5l-2-4c0-1-2-1-3 1a10 10 0 006 6l1 1c1 4 0 4-3 0l-4-3-1-1c0-3-2-1-3 3-1 5 2 10 9 16v1l-1 1 2 1 4 3 4 4 1-5 3-15 3-9-3-1-3-1-4-2c-5-2-8-3-5-1m-293 2l-5 2c-1 1-1 1 0 0 4-2 13 2 14 6 2 3 4 3 4 0 0-5-6-9-13-8m-32 9c-12 6-9 20 5 22h2l-4-1-2-1 4-2 1-1 3-1c3 0 6-2 6-4l4-1c1 0 1-5-1-8-2-5-12-6-18-3m46 2c-2 1-3 5 0 5h1c-1-1 0-1 0 0l2 1h1c1-1 21 1 25 2 3 2 3-1 0-3-1-2-2-2-2-1l-2 1c-2 0-2 0-1-1 3-1 2-2-8-4-10-1-15-1-9 2l1 1-4-2c-2-2-2-2-4-1m100 1l7 6 5 5h4c-1 1 4 4 6 3l-3-4c-2-1-3-3-2-3l-1-3-3-3v1c2 1 3 4 1 5l-1-1a5 5 0 00-6-4h-2l2-1c1-1 1-1-2-1l-3-1-2-1h-2l2 2m-11 1a7355 7355 0 0033 26l8 8 6 4-11-11c-2-2-2-2-1-3s1-1-1-1c-1 1-3 0-5-2a14 14 0 00-6-4 453 453 0 00-17-16l-6-3h-2l2 2m-13 1l-5 1c-3 1-2 2 11 13 4 3 6 6 5 6v1h1l1-1v2c0 1 3 5 8 9 15 16 4 7-15-11-15-14-11-9 6 8l16 17h-1l-7-7c-8-7-7-7-9-4-2 1-6-2-19-17l-10-11c-2 0 0 2 8 11a201 201 0 0114 16 7 7 0 013 6c-2-2-1 1 2 4 7 8 7 8 0 1l-8-9 2 1 3 2-2-3c-2-2-2-2-4-1 0 2-1 2-1 1l1-2v-2l-1 1c1 2 0 1-2-1h-3c-1 1-1 1-1-1a6 6 0 00-6-6c1-1-1-6-3-6l-1-1-7-7 2 5 1 3 1 1c1-1 2 0 2 1l4 8c5 5 10 12 10 14l-5-5c-3-4-8-8-5-4l5 8c4 4 6 6 9 7 4 2 4 2 1 1l-6-2c-5-2-13-5-17-5-3-1-3-1-3 2 0 2 0 3 2 3l1 1-2 1c-3 0-3 0-2-4v-4h-7c-13 2-17 3-16 5l2 2c2 0 2 0 1 1-2 0-3 2 0 2l-1 1c-2 3 0 5 5 7l6 2-1-2-3-3c0 1-1 1 0 0l-1-1-1-1 8 3 2 2-1-3c0-2-2-4-4-6-2-1-3-2-2-3 1 0 7 6 8 9 1 4 4 3 4-2 0-3 0-3 1 1l2 4c1-3 3-3 2 0 0 1 1 1 3-1l4-3-1 2c-4 3-1 6 2 3 3-2 5-1 2 1l-2 2h2c2 0 2 0 1 1-2 1-16 2-18 1l-9-4-9-3c-1-1-1 0-2 3s-1 4 2 6c4 4 16 10 17 10l-2-2-5-3h2l6 2c2 0 2 0 2 2-1 2-1 2 5 0l35-12c4-2 7-5 5-6v-3l3 4c1 4 9 12 8 9l-2-5c0-2-1-5-3-6l-2-3 2 2c3 2 3 2 3 0l2-7c3-4 3-5 1-6v-2l1 1a2 2 0 103-2c-1-1-1-1 0 0l3 1-5-6c-8-8-7-8 2 0l7 5-3-3a1194 1194 0 01-33-29c-2-1-2-1 0 2 4 4 3 4-2 0l-2-4c1 0 1-1-1-2-2-2 0-4 3-2h1l1-1 1 2c0 1 2 4 5 6a166 166 0 0122 20l2 2c2 3 9 7 13 7s6-2 3-3l-1-1-4-3a11 11 0 01-6-5c-2 1-7-4-7-5 1-1 1-1 0 0l-5-3-9-8-10-8c-4-3-9-4-9-2m-162 3c2 1 1 2-4 2l-3 1h4l4 1 1 2 1-1 4-1 4-1-2-1-2-1-2-2-1 2v1l-2-1-2-2v1m70 2l13 1c18 2 28 5 30 9l1 1c0-3-3-7-6-7l-36-5c-6 0-6 0-2 1m149 4c3 2 4 4 3 4-1 1-1 1 1 1s3 0 2 1l1 1 1 2c0 3 3 6 6 6l3 1 2-1h1c3 2 4 2 1 2h-6l1 1c-2 0-11-7-10-8v-1h-1c0 2-2 1-3 0l-2-2 2 3 2 3-2-1-2-2v3l-1-1v-2l-1-2-1 2a7 7 0 005 4c-1-2 0-1 2 1l1 2 1 2v-1c-1-2 1-1 10 6l9 7 3 1-3-2-6-4-5-5-6-5-3-2c0-1 6 2 7 4a255 255 0 0016 12c22 17 23 18 29 11l4-3 3-2v-4l-1 1-9-5-8-7c1-1-3-5-5-5-1 0 1 3 3 3v3h-1l-2 1c-1 1 0 2 2 2l2-1h1l-1 2-1 1c1-1 3 0 5 2 3 3 3 3 1 2h-1l3 1 5 3-2-1v1l3 1v1c0 2-1 2-4-1l-5-2-2-4-2-1-7-5-4-1h-3c2-1 2-3 0-3 0 1-1 1 0 0l-1-1-3-2-3-2c-2 0-6-3-6-5h-1l-11-7c-10-7-13-9-6-3m-155 0c-1 1 0 1 6 1h8l-7 1c-10 0-7 3 3 3a65 65 0 0130 6c1 1 3 1 5-1 3-2 3-2 1-2l-10-2-3-1a37 37 0 0112 2c3 0 3-2-1-3-9-5-43-8-44-4m163 0l6 4c6 6 26 18 27 17 3 0 2-1-1-3h-1l-1 1-1-2-1-1-5-2c-1-2-4-3-6-4a3 3 0 01-3-3l-5-2-12-7 3 2m14-1l1 1 16 10h-2l-2-1-5-2-7-4-7-4 2 2 11 8 3 2 1 2 3 1 2 1 2 1h4c1 1 2 1 2-1v-5a2 2 0 00-1-3h-2v1c1 1 1 1-1 1l-5-3-2-1-2-2c-2-2-11-6-11-4m-213 6c-1 1-3 2-4 1-2 0-2 0 0 1l7 1 6 1 2 1c2 0 2 0-1-2l-5-4c-2-1-2-1-5 1m40 2l-1 1 1 1-2-1c-2-1-6 0-6 2l3 1 7 3 8 2 7 1h5l1-1h3c4 0 5-2 3-5-3-3-23-6-29-4m44 4c-6 4-7 5-5 8 0 2 2 3 3 3v-1c-3-3-1-3 7-1a65 65 0 0022 0 3 3 0 10-1-4h-2l2-1c1-2 1-2-2-4-6-2-21-3-24 0m227 0l5 4 4 2-1-1c-5-2-5-5 1-5 3 0 4 0 3-1l-8-1h-6l2 2m-126 4l5 6 6 5 4 2h4l-5-4-7-5-4-3c-2-2-3-2-3-1m80 2l-2 2c0-2-2-1-2 1v3c0 1 0 3 2 3l2 2c2 3 5 2 4-2l1-4v-2c0-1-1-1-2 2l-3 4c-2 0-2 0-1-2l2-5 2-2c1 0 2 0 1-1-1-3-2-2-4 1m-417 1l-4 1c-3 1-4 4-2 4l5 4c4 3 6 3 6 0h2l-2-4c-1-2 0-3 2 0l5 2h6c3 1 5-2 3-4l-5-1-4-1c-3-1-10-2-12-1m193 1c-1 1 0 2 2 0h1a4 4 0 01-4 2c0-3-2 0-7 7-4 7-8 10-13 12l-4 2h-1l-2-3c-3-1-3-1-5 4a36 36 0 000 23c1 9 14 24 14 16 0-3 5-6 9-6 5 0 10 3 14 7 6 6 10 8 13 6h2l7-5c7-6 11-13 13-20 1-4 1-4-2-3-5 1-8-5-6-15 3-16-8-28-24-29-4 0-6 0-7 2m-225 2c-8 3-10 5-13 10-1 2-1 2 3-2s13-9 20-10l5-1h-5l-10 3m69-1a3 3 0 104 2l1-2h2c2 0 2 0 1-1-2-2-6-1-8 1m-8 2l-3 1c-5 1-6 3-2 6l3 2 4 1c4 2 7 2 7-1 0-1 0-2-1-1l-1-1c1-1 0-2-3-3a4 4 0 01-3-5l-1 1m-15 17c-8 7-8 10 1 5 8-4 8-4 6-6-3-3-3-3-7 1m222 21l-3 9 2 1c1 1 2 0 1-1l1-1 2 1 2 1v-5a1 1 0 10-3 0c0 2-2 1-3-1l1-2c2 0 3-2 2-2h-2m42 16c-3 3-1 4 3 3h3c-1 2-2 3-9 3-6 0-7 0-5 4l2 3c0 2 6 3 11 1 2-1 1-1-4-1h-6c0-2 5-4 6-2 1 1 5 0 5-1h1v-3h1l2 2c1 1 1 1 1-1l-2-3v-1l3 2c1 3 2 3 3 2 2-2 2-2 1-3l-4-4c-4-3-9-4-12-1m-30 1c-4 2-4 6 1 8h3l1-3c1-1 1-1 1 1-1 3-1 3 7 3 2 0 3 0 2 2-1 1-1 1 1 1l2-1 1-1c2 0 2 0 2-2l-3-2-4-1-5-1c-1-1 0-1 4-1h7l1-1h-6l-9-1c-3-2-3-2-6-1m-24 5c-4 4-4 5 0 4l2-2c-2-1 0-3 2-3 3 0 6 3 4 4-1 1 0 7 1 12l4 9c1 3 2 5 4 5 3 0 3-1 0-7-5-9-8-18-7-19 2-4-6-7-10-3m14-2l-1 2c-3 2-3 3 0 3l4 1c2 1 0 3-2 2l-1 1c0 1 2 3 5 3l2-1c4 0-1-9-6-11h-1m-2 11l6 12c4 9 5 9-9 9l-12 1h13l14-1-4-9-7-12c-3-7-4-6-1 0m-14 2h1c0-2 2-1 2 1l-1 1c-1 0-2 1-2 5l1 4 1-1 3-1 3-1-3 3c-1 2-3 3-3 2 0-2-2 0-2 2l1 2h11c2 2 4 1 2-2v-2l-2-3-2-5-3-4v-1c0-1-1-2-4-2s-4 0-3 2m73 1a48 48 0 01-21 1l-5 1c-3 0-3 0-1 1l4 3h7l12-1 9-2v-2c1-1 1-1 0 0-2 1-2 1-3-1h-2m21 4l1 2c2 2 1 5-1 8l-3 1-1 1c-1 1-2 1-3-1l-1-2-1 2c0 1-1 2-6 3l-8 2-2 1h2v1h8c3-1 4 0 4 1l4 2c1 0 2 0 1-1l-1-1-1-1v-1l3-1c3 0 9-5 9-8 1-2 1-2 3 1l3 3-2-3-3-4-1-1c0-2-4-5-4-4m-198 3l-5 1-9 1c-6 0-7 1-4 1 4 1 9 1 18-2 13-3 23 3 23 15 0 2 0 3 1 1 0-4-1-9-4-12l-1-3c1-2-12-3-19-2m20 2l6 5c9 5 16 15 19 27l1 2c0-6-6-18-13-25-4-5-13-11-13-9m83 13l3 1 3 1-3 1c-3 0-3 0-3 2 1 0 1 1 0 0l-1 2 2 2 4-2v-1l11-1h10v-6h-13l-13 1m-180 3c-4 1-3 1 4 1s8 1 14 5c11 8 14 9 28 9l11-1h-25l-6-4-10-7c-5-3-10-4-16-3m213 3l1 3-1-1-2-2-1 1c1 2 1 2-1 1l-2 1 2 1 14 5h4c-1-1 0-1 1-1l-1-1-2-2-4-1-2-1h1l1-1c-1-3-3-2-3 1l-1 3-1-4c-2-4-4-6-3-2m386 14l-3 1-1 19 1 20c2 0 2-2 2-17v-17h7l7-1c0-2-1-2-6-2l-5-1h5l6-1c0-2-7-2-13-1"
    itemprop="regular" fill-rule="evenodd" tabindex="-1"
    fill="url(#16282281824-posters-1654102071516-horizontal-regular)" fill-opacity=""
    stroke="url(#16282281824-posters-1654102071516-vertical-light)" stroke-opacity=""></path>
  <path id="16282281824-posters-1654102071516-bold"
    d="M515 171c-6 3-9 5-14 10l-7 7-4-2c-3-1-6-4-8-7-4-6-5-6-1 0a30 30 0 0013 12l2-2a48 48 0 0128-21l-9 3m-370-1c-1 1-3 2-3 4l-2 2c-1-1-2 0-2 1l1 1 4-4h1l3 2 4 2c1 2 3-1 2-4-1-5-4-6-8-4m395 1c-8 5-16 18-15 25 1 2 1 2 1 0 0-11 12-26 18-25h1l-1-1c0-1-1-1-4 1m17 9c-3 3-7 13-7 16l1-3 8-13c2-1 8 4 13 9l4 5-14-16c-2-1-3-1-5 2m-348 18c-5 1-11 4-8 4l3-2 3-1 1 54c0 50 0 53-2 53l-4-2c-3 0-6-3-6-4v-6l-1-3v4c0 3 0 3-1 2-1-2-2-2-2-1h-2l-4-1-2-1-3-1h-2c3-2 0-2-3-1l-4 2-1 1-2 3c-6 6-6 7-4 7s2 1 2 2c0 2 0 2 3 1s4-3 2-6v-3c2 0 2-1 1-1-1-2 0-3 2-3v1l3-1c4-1 4-1 6 1s3 5 1 5l-2 2c0 2 0 2-2 1h-1c0 2-3 4-5 4-1-1-1-1 0 0l1 6v2l1-3c0-2 0-2 1-1s-2 27-3 26l-1-4v-2l-2 2c-3 0-5 0-2 1 2 1 3 7 1 9-1 1-1 1 1 1h1a11 11 0 01-6 1l1-1h-2l-2 2c1 1 1 1-1 2l-5 2c-4 1-5 1-3-2 3-3 2-4 0-1-2 2-3 3-2 4v1l8-2a140 140 0 0134-8c-2 0-3-2-3-12v-9h3l3-1-2-1c-2 1-4 0-4-3-1-2 0-2 3-2h5l-4-1c-5 0-4 0-3-4 3-5 4-5 9-3l9 1c12 0 22 3 24 6 1 2 1 2 1 0l-2-3-2-1-1-1c-1 1-2 0-3-1s-2-2-3-1c-1 2-8 1-9-1l-1-6-2-6v-1a110 110 0 000-38c1 1 1-5 1-27l1-29-3 1c-2 0-2 0 1-2s2-2-4 0m268 2l5 10a452 452 0 0118 33l10 17c3 6 2 7-7 8l-5 1 13-1h2a339 339 0 01-25 28l13-13c12-12 16-17 13-17l-2-3-8-15-10-18c-6-13-17-31-17-30m-232 28l-1 12-1-3-1-4-1-7c0-4 0-5-1-4 0 4-1 4-5-1-5-4-5-4-5 0 0 2 0 2 1 1 2-3 9 6 8 12 0 4 0 4 1 1 0-3 1-3 1-1 2 5 1 6-3 7-5 2-12 7-13 10l4-2h1l2-1-1-1h-1c0-3 15-7 24-7l5-1-2-2c0-2 0-2-1-1-1 4-10 3-10 0 0-2 1-2 5-2l5-1h-2c-7 1-8 0-8-9-1-7-1-6-1 4m120-7l-1 2v2l3 10-2-2-2-2v2c1 1 1 1 0 0-2 0-2-1-2-5v-2l-1 1v2h-1c-2-2-3-1-1 1l2 5h1c1-2 4 5 4 9 0 6-7 17-10 16-2-1-1 1 2 4s4 3 2 0c-2-2-2-2-1-4 3-2 3-1 3 3v4l1-5c0-4 3-13 4-13a8 8 0 003-3l-1-6v-8c0-1 1-2 3-2l4-1h-4c-4 0-4 0-5-4l-1-4m162 7l1 7v6c1 0 2 1 3 5l3 7 1 1-2-8-3-10-2-8-1-3v3m23 4c1 4 0 5-1 7l-1 2 2-2c1-1 1-1 2 3a100 100 0 0014 34c3 4 3 4 1 5v1c1-1 4 1 7 4 16 16 24 18 26 6 1-7 2-30 1-31l-1 3c0 3-1 5-3 7l-2 2 2-2 3-1v7c0 7 0 8-2 9l-13 1h-4c-8 3-25-27-30-53-1-5-1-6-1-2m-127 4l3 4 3 4 2 3c1 1 2 7 0 9v9l1 2c3 3 3 6 0 7l-3 1-1 1-2-1-2-1v1c1 2 6 3 6 1l2 3c1 3 2 3 2 2l-1-4c-1-3 4-5 6-3s19 4 18 2l-11-1-6-2-3-1c-2 0-4-6-4-15 0-7 0-9-3-13-2-4-7-9-7-8m86 0l11 24 11 14c6 6 8 9 7 11h1c1-1 1-1 4 1l4 3-2 2c-15 13-20 15-31 12l-7-2c-3 0 6 3 10 3 3 0 3 2 2 4l-1 2 1-1c0-2 7-4 12-4 6 0 10 3 21 13 6 6 10 8 10 6l-1-1c-1 0-5-2-8-6-10-9-14-12-19-13l-4-1 3-1 5-4 11-8 9 8c7 7 5 4-3-5-5-6-4-9 4-7l4-1c0-2-8-1-11 1l-4 2-3-3a132 132 0 01-31-39l-5-10m-408 18c-1 2-1 2 1 1 1-1 1-1 0 0-1 2-4 1-4-1v-1c-2 0 0 5 2 8 3 3 3 3 6-2 2-4 2-5 0-6s-5-1-5 1m308 1l-1 1-2 3-1 3a1 1 0 11-1 0l-1-1h-3l1-1 1-1-3 1c-3 1-4 1-5-1v-2c0-2-4-1-5 1a7 7 0 004 9c2-5 2-5 6-4l6 2c2 1 2 1 3-1v-2l-1-1 1-3 1 1 1-1c-1-1 0-2 1-3h-2m126 3l2 4 1 3 3 7a23 23 0 013 9l2 2 2 3-4-10-6-13-3-5m-255 4v5l-2 5h-1c-1 7-4 14-4 8l-1-3c-1-1-1-1-1 1 1 3-1 7-2 5-1-1-1-1-1 1l-1 3c-1 1-1 1-1-1 1-4 0-4-3 0l-4 2-2 1h3c2 0 2 0 1 1l-8 2a9 9 0 00-7 2l-2 2 6-1c7-2 12-2 14 1a4 4 0 011 6l1 1c1-1 1 0 1 1s-4 1-5-1h-10c0 1-2 3-5 3l-3 2h9v-1l-1-2 4 1 4 1-1-1v-2l3 3 2 1v-2l8 12c1 3 1 3 1 0-1-3-1-3 3-5 7-3 17 2 17 8 0 2 1 2 7 2 5 0 6 0 4-1l-7-1c-2 1-3 1-3-1s-5-8-7-8-1-2 2-3l5-1 13-2h9l-2-1v-1c2-1 1-3-2-2-7 2-11 0-17-6-3-4-2-6 5-6 5-1 6-2 1-2-6 0-9-4-6-8v-1l-2 1v8l1 1c0 2-3 1-5-2-3-5-3-7 1-7 3 0 4-2 4-5 0-2-2-1-2 1-1 5-5 2-6-3 0-5 0-5 3-5h4c2-1 1-1-3-1-7 0-6-2 1-2l6 1c-1 1 0 1 1 1 2 0 2 0 1-1l-1-2-15 1-2-2-1-1m-102 2l-1 2-1 2c0 2 0 3-2 2l-1-1c2-1 1-2-2-1-6 1-11 3-8 3 2 0 2 0 2 2l-1 2h-1l-1-1 6 4a1 1 0 000-2l-2-2c0-2 0-2 2-1v-1l-1-2h1l1 1c1-1 1 0 1 2v4h5c5 0 12 2 14 4h2l2 1c0 2-1 2-4 2l-4-1-1-2c-2 0-2 0-1 1l1 2a15 15 0 01-12-3l-1 1-3 1-4 2h8c13 0 19 1 21 2 3 1 3 1 3-2v-13l-1-9-3 1c-1 0-2 0-1 1l-2 1c-3-1-6 1-5 3l5 1c4 0 5 2 1 2h-3l-2-1h-3l-2-1h-2c-2-2-1-3 1-3 3 1 6-1 3-2h-1l-1 1-1-1v-1h-1m176 2l-1 2v-1c0-1-1-1-2 1-2 1-4 2-5 1-3 0-2 1 1 2 2 1 3 1 4-1h7c1 0 2 1 1 2l1 1 1 2 1-1 1-2 2 2c3 3 3 12 0 12-2 0-2-1-2-3s0-3-1-2c0 2-1 2-3 2l-2 1c-1 1-2 2-7 2l-1 3c0 3-1 4-5 4-4 1-5 1-2 1 6 1 13-2 14-4 0-2 0-2-2 0-3 2-3 2-4 1 0-3 0-3 4-4l6-2h3l-3 2c-2 2-3 5-2 5l1-2c0-2 1-2 5-3l7-1c4-3 8-2 3 1v1l2-2 3-2 1-1h-5l-6-1 1-1c1 1 2 0 2-1h1c2 3 3 2 2 0l1-3 1 2v3l1-3c1-2 2-3 5-1 3 1 5 0 3-2l-2-1-8 1c-7 0-7-1-10-4a5 5 0 00-5-3l-4-2-2-1h-1m33 0l1 2c2 1 2 2 2 6-1 4 0 6 2 4s4 0 5 6l2 6 1 2c0 2 0 2 1 1l-1-3v-9c-1-1-1-1 1-3 2-1 4-6 3-7l1-2v-2h-2l-3 1-4-1c0-2-1 0-2 3 0 2 0 2 2 1 2-2 6 0 6 2l-2 1h-7l3 1c3 0 4 2 2 4l-1-1c0-1-5-3-6-2h-1a5 5 0 00-4-10m-160 17c2 4 2 4 1 6l-2 6-1 4 1-4c1-4 4-7 6-7v-1c-1-2 0-5 1-5l1 2v3c1 2 3 4 5 4h3l-3-1c-2-1-4-4-4-7s-3-4-5-1c-1 1-1 1-3-1s-2-2 0 2m211-2v3l-1 4-1 3c-1 1-1 1-1-2v-4c-1 0-2 3-2 7l-1 3-1 2c1 1 0 2-1 2l-1 2c1 1 0 1-1 1-3 0-2 1 1 3 2 1 6 0 10-3l4-2c7-4 10-8 7-9a4 4 0 01-2-4h8c5 0 7 1 9 3 4 4 3 10-1 7-2-3-3-2-2 1 0 4-2 7-3 5-2-2-4-2-3 1v3l-2 3c0 2-5 1-6-2s-2-2-1 2c1 2 0 3-1 5l-1 4c1 1-2 2-5 2a3 3 0 001 7l-1 1-10-1h-1c1 2-6 3-10 0l-5-3c-2-1-4-3-5-6-2-5-4-6-4-4 0 3 7 12 10 12l5 3c3 2 6 2 8 2l5 1c3 1 6 2 14 1h14c-1-1 1-2 6-3 8-1 12-4 14-9 1-3 1-3-1-4-4-1-8-9-5-9l1-2c0-2 8-5 19-6l10-1h-10c-7 1-9 0-9-1l-4 2-8 3c-4 0-4 0-6-11l-1-5v-2l-1-2-1-2-3-2v1c3 3 1 4-2 1l-4-2c0 1-6 4-10 4l-4 1-2 1 2-3 1-2-1-1h-2c-2-1-2-1-2 1m-45 3l-1 2c0 2-3 5-8 7-3 2-3 2-3 0l-1-3v2c1 2-1 5-2 3l-1-1-1 2v1c3 3 1 5-3 5s-4 0-1 1l1 1v2h6c1-1 6-2 14-2l2-1 2-2c3-2 6 0 6 4 0 3 2 2 3-2a8 8 0 013-6l2-3-2-1h-1c1 2-2 3-6 3-2 0-7-9-7-12h-2m202 4l-10 1c-5 0-4 2 2 5 6 4 9 4 11 2l2-9-5 1m-204 3c-1 2 0 7 2 7 3 0 5-4 3-7h-5m-255 4l-5 2-2 1c-2 3-6 4-7 3s-1-1-1 1c0 4-1 6-5 8-5 2-5 2-5 0-1-2-1-2-1 0l-2 4c-3 1-6 4-5 4l6-3 8-4 5-5 5-5 5-2 3-2c3 0 4-2 3-2h-2m276 9c-5 7-6 10-4 8l1 2v2c1 1 1 0 1-1 0-5 1-6 4-9l4-2-1-1c-2-1-2-1 1-1 3 1 4 0 1-1-3-2-5-1-7 3m-11 6l-10 3-10 2h-2l-2 1c-1 1-17 5-26 6l-6 1 8-1 13-1c5 0 25-4 29-6l2 1c0 2 3 0 4-4 2-3 2-4 0-2m-164 8l3 7v4c-3 8 4 17 14 17 3 0 4 1 4 2 1 2 1 2-1 2h-1c1 1 1 1-2 4a28 28 0 00-8 20c0-1 1-1 3 1 5 3 14-1 21-12 4-7 7-10 12-10h3l-3-1-5-2-6-2-4-1c-1-2 3-4 11-5l9-1h-8c-10 0-12 1-13 4 0 4-7 5-7 1l2-1c2 0 7-5 7-6l2-1v-6l-1-2c-1-2-1-1-1 1 0 12-11 17-21 11-7-3-9-8-5-14v-3l-3-4-2-3m37 6c0 3 2 5 2 3h3c2 1 2 2 2 3l5 1 8 1c3 0 3 0 1-1-3-1-4-4-3-6 2-1-3-1-4 1-2 2-8 1-11-2l-3-2v2m-176 1c-1 6 0 18 3 22 2 3 9 8 10 8 2 0 1-2-2-3-8-5-9-8-9-19s-1-11-2-8m215-1a34 34 0 019 3c2 1 4 6 2 8s-2 2-6 0-12-3-12-2l2 1a16 16 0 0115 6c-1-2 1-3 5-2l4 1v-1c-5-1-6-2-5-5 0-3-1-6-5-7l-5-2-5-1h-4l5 1m52 2a131 131 0 00-15 6l-2 1-2 2a2 2 0 00-4 3c0 2 0 2 1 1l2-2v-1c0 1 3 0 5-2l11-5c7-3 10-5 4-3m-229 5l-3 5c0 2-1 2-4 2-7 0-18 14-15 19 1 1 1 0 1-3 0-5 7-13 11-13a23 23 0 006-1c1 0 2-1 2-3l4-6c3-5 2-5-2 0m203 11c-2 2-1 4 3 4 8 2 11 7 6 11-8 8-31 6-35-3-1-2-1-2-1 1l1 3h-5c-3 0-5 0-4-1 2-1 4-3 4-6l2-2c2 0 2 0 1-1l-5-2c-2-2-9-4-9-3l4 2c5 1 7 4 5 7-2 5-4 5-10 3-7-3-7-2 0 1 10 6 12 10 13 25v13c0 2 4 3 6 2 1-1 2-1 2 1 1 1 1 0 1-1a3 3 0 012-4v-3c2-5 3-11 2-11l-1-1-1-4c-1-5-6-9-12-10-3-1-4-3-2-3h5c2-1 5 0 9 2l10 2c4 0 4 0 4 2v2l1-2a11 11 0 0113-4l2-4c5-5 3-10-6-12l-4-2 1-1c1 1 2 0 1-1h-3m-73 8h-1c-2 0-9 3-9 5l-5 8 2-5 2-3-3 3c-5 6-6 16-2 16 1 0 2-1 1-4-1-4 0-6 1-6l1 3c-1 3 2 4 3 0l1-2v-1c-2-1-1-4 0-4 4 0 5 0 5-2-1-1 0-2 2-3s4-6 2-6v1m-133 6l-2 1c-2 0-2 0-1 1s-1 3-3 2v1l-2 3-3-1-2-2c-2-1-2-1 0 1l2 3 1 2-3 3c-7 4-5 4 2 0l7-3a10 10 0 005-5v-3l-1-4v1m-49 9l5 8c0 1 1 1 2-1h3c-3 3-1 5 3 2 5-4 10-5 15-5h2c-6-2-8-3-9-5s-1-2-2 0c0 2-1 2-3 1s-3-1-4 1c0 1-1 1-2-2l-2-2v2c1 2 0 4-1 5s-2 1-7-4l-5-5 5 5m287 31l-7 2-5 2-16 5-6-1-2-1 3 2 1 2v1l1-1h2c2 2 13 3 23 2v-2l1-2 1 2v2l1 1h2c0 2 2 1 6-2 3-4 5-11 3-13l-1 2c1 3 1 3-1 2h-4l-4 1 2-2 4-2h-4m-108 17c-3 1-5 4-3 4l1 3c0 3-2 3-2 0 0-2 0-2-1-1 0 2-1 2-3 1l3 3c10 13 24 15 35 5l3-3-3 1-5-1-2-2-4-3c-7-7-13-9-19-7m0 2c-2 2-2 3 1 7 2 2 3 3 3 1l2-3v-4c-1-1-1-1 1-1h2c0-2-4-1-7 1l-2 1 1-2c3-2 2-3-1 0m67 6c3 3-1 9-6 8-2-1-2-1 0 1l1 3 3-2 4-4c0-1 1-1 6 1l7 1c1-1 2 0 2 1l1 1c2-3-1-5-9-7l-7-3h-2m13 20c0 7 16 18 19 14 1-1 0-2-1-2l-3-1-4-1-10-9-1-3v2m378 33v38c1 0 2-3 2-21v-16l7-1c10 0 9-2-1-2-6 0-8 0-8 2"
    itemprop="bold" fill-rule="evenodd" tabindex="-1" fill="url(#16282281824-posters-1654102071516-vertical-bold"
    fill-opacity="" stroke="url(#16282281824-posters-1654102071516-radial-regular" stroke-opacity=""></path>
  <!---->
</svg>
