<svg id="16282281824-posters-1630250556344" itemscope="" itemtype="/posters" itemid="/+16282281824/posters/1630250556344" viewBox="0 0 683 512" preserveAspectRatio="xMidYMid slice" tabindex="0" xmlns="http://www.w3.org/2000/svg"><rect itemprop="background" width="100%" height="100%" fill="white" tabindex="-1" style="fill: rgb(190, 202, 186); color: rgb(91, 2, 120);"></rect><path d="M0 199l1 200v1l-1 56v56h136l135-1a2 2 0 013-2h1l2 1c1 3 41 3 43 0 1-2 2-9 1-11v-20l1-15c4-14 5-35 3-29l-1 1-1 2c-1 2-1 1-1-6 0-10 1-13 3-8 1 2 1 2 1-1v-3h-14c-15 0-18 0-18-3l-3-6-2-5v5a43 43 0 01-1 19l-1 4v4l-1 1v-1l-1-3c-2-1-2-1-2 5l-2 3v-1l-1-2c-2 0-2 1-2 2 1 1 1 1 0 0l-1-3v-6l-4 4-3 4v-3c0-2 1-3 3-4s2-2 2-4c0-1 1-2 3-2l3-2v-2l1-1c-1-1 0-3 1-4 2-3-1-4-3-1l-2 5c0 2 0 2-1 1s-1-1-1 1 0 2-1 1-1-1-2 1l-3 3h-3l-1 3c-2 1-2 0-2-8 0-10 1-13 2-13v-2c0-3-1-2-2 4l-2 5v-5c0-4 0-5-1-4-1 2-2 2-3 0-2-2-5-2-5 0h4l-1 2h4c1 0-1 8-3 10v13l1 5c-1 9 1 6 2-3 0-11 2-10 2 1l-1 8v20l1-8 1-7v8c0 7 0 7 1 4l2-3a97 97 0 010 23v1l1 4c1 2 3 16 1 15l-2 1h-1c0-2 0-2-1-1s-1 1-1-1c1-1 0-2-1-1l-1-3-1-1c-2 1-2 5 0 5l2 2c-1 1 1 3 2 3l2 1h-3c0 2-1 2-2 1s-1-1-2 1v-1c1-5 1-6-1-5-2 0-3-7-1-11s2-22 0-32v-4l-2 4-1 4-2 4c-2 2-3 2-3 1l2-2 1-3c0-2 0-2-1-1-2 1-2 1-2-1-1-2-2 1-4 11l-1 1v-1l1-2 2-13c3-8 3-12 3-14v-16h-2c-4 0-10 3-11 5l-1 23c1 20 1 21 3 23 3 2 3 12 1 12v-1l-1-1-1-1-1-2-6-4-2-4-4-4a14 14 0 00-7-5v-1l-1-2-4-1-1-1-2-2-5-3-7-4a31 31 0 01-7-5l-1-1c0-2-2-3-5-3l-2-2-2-2-2-1c-2-1-3 1-3 8l-4-51c0-6 0-8 2-11 3-4 3-5 0-5h-3v-15c-1-26-1-25 10-37s18-14 9-3c-5 6-5 6-2 8s8 3 6 1l-1-2c0-2 9-8 11-7l3-2-1 3c0 2-2 4-3 5-3 4 0 5 27 5 47 2 48 2 56-3 7-3 9-5 5-5l-1-1h-2l-1-1 1-3 3 1 4 1v-2c1-6 29-11 40-7l5 1-1-1-2-2h1c3 2 3 2 2 12-2 14-5 12 39 14l37 1 5-3c5-2 9-5 4-3-4 1-5 1-6-3v-5l4-3 5-3c1-3 5-6 6-6s5 8 10 21c3 6 3 7 2 14l-1 8-9-1-44-1a7062 7062 0 00-187-3l68 1 174 5-1 14v14h-11l-44-2h-6l1-4c1-6-1-11-4-14-3-2-5-3-3-1h-1l-1-1 1-1c-3-4-4-1-4 9 0 9 0 10 2 10l3 1-40-1h-16v-6c0-6-2-12-5-14-1-1-2-1-1 1l-1 2c-1 1-5-2-5-4s0-1-1 1v19h8c1 1-5 1-17 1l-31-1h-12v-6c1-7 1-7-2-10-3-4-5-5-3-1v4l-1 3v-3a7 7 0 00-6-8v19h3c2 1-1 1-11 1h-13l1-6c0-7 0-7-4-11-4-5-6-5-3-1 2 2 2 3 1 6l-1 4v-5c-1-5-4-9-6-7l-1 18 4 1c2 1-3 1-17 1h-19l-1 2v2h21l22 1h18l17 1 7 1h87l31 2 49 1c13 0 13 0 14 2 1 3 0 4-1 4l-1 8 1 9h-10l-30 1-20 1v-3l-2-7c-2-4-2-5-5 17l-3 19-1 4-1-7c0-6 0-6-2-4-1 2-1 2-1-2l1-9 1-5c-2-5-2-4-4 11-1 4-1 4-1 1 0-4-1-6-2-4v-2c0-5-1-5-3-1-1 5 0 41 2 48 1 2 1 3-1 7-2 5-2 7 1 7 2-1 1 1-1 3v1c1-1 4 8 2 9-1 2-1 7 1 8l1-1v-2h1c0 3 0 4 1 3l1-7 1-7c1-1 2 9 0 13l-1 3h50v-3l-2-4v-2c1 0 1-1-1-4a145 145 0 01-7-22v-2l-1-3c-4-7-4-34 1-41l2-5c1-3 5-4 14-4l13-2h6v18l-2 25-2 44v5h28v-10c1-12 2-14 3-13 6 5 8-11 3-23l-3-8c1-3 17-2 70 0h9c1-1-1-1-6-1l-22-1-26-1c-23-2-28-3-27-7v-4h23l-9-1c-12-1-16-3-7-3 12 0 19-3 9-3l-5-2h2l1-1 1-1h5l16-1a3151 3151 0 0071 2v3c-1 9-1 10-2 8-3-3-8-5-7-3v3l-1 2-3 30-4 33v2h125V256l-1-211c0 42 0 45-2 45l-11-1c-3 0-4-2-2-2a5 5 0 004-6h2c5-1-15-2-40-2l-35-1h-7v-5l3-31 4-35V0h-14l-15 1-1 3-1-1c1-1-2-1-4 1-2 1-1 2 2 1l3 1-1 1h-1l-2 3h2c1-1 2 0 2 3l-1 3-1 4-1 5v2a42 42 0 01-2 21 1714 1714 0 01-11 102v12l-1 4h-19c-56-2-82-2-83 0-2 2 1 3 14 3a1140 1140 0 0186 3l5-1c3 0 4-1 5-2v8h-26c-93-2-93-2-81 2a127 127 0 0115 5l10 5 1-1 1-2 2 2 2 1 4 2 4 1h2a22 22 0 0012 5h5l7 2h8c-1 2 1 1 4-2l4-5 2-3v9l1-4c1-6 2-4 3 4 0 5 2 9 2 5l2-5 2-7c2-7 4-6 4 1v7l2-4 1-3h1c1-1 1 1 1 8-2 19-2 26-1 24l2-17c2-16 3-18 6-18l3 1 1 2c0 2 0 2 1 0s4-3 4-2h2l-1 22c-2 11-2 15-1 15h-3c-5 0-8 1-8 4s5 4 20 4c13 1 13 1 8-1l-7-1c-1 1-2 0-2-1-1-2-6-3-6-1s-8 3-11 1c-1-2 3-3 7-3l5-1 2-1 3-2v-6l1-5h15v5l-1 4c-2 0-1 2 1 3l10 1c9 1 10 3 2 4-4 1-3 1 4 1h23l2-2 1-1v-3c0-2 0-3-2-4-3-2-2-3 4-3 3 0 5-1 5-2l-2-1c-2 1-2 0-2-1l-3-8v2l-1 4-2 3-2 3a6 6 0 00-4 10h-2l-2 2-7-4-2-1h-1v-8c0-5 0-4 7-3l2-1c0-1 0-2-1-1l-2-1-2-1h-3c-1-2-15-2-22 0-10 2-12 1-11-1l4-2c2 0 2 0 1-1l-4-1c-2 1-2 1-2-3l7-52c5-46 6-47 8-48s33-2 66-1h21v149h-5c-5 0-5 2 1 3h4v8a13 13 0 01-1 9l1 14v14l-8-1h-7v-3c4-18 5-32 3-43-1-4 0-5 1-5 2-1-3-1-10-1l-13 1c0 2-3 2-18 2l-23 2-6 1-1-3c0-3 0-3-8-3h-14v14c0 13-1 28-3 35 0 1-1 2-3 2l-4 1h-1l-1-1-1-2-3-2 1-12v-13l-1-2c0-2 0-2-4 0-5 2-5 3-6 7l-1 5v-3l-1-4c-2 0-2 0-1-2 1-1 2-2 1-3l1-4-1 1-3 3-4 2c-3 2-4 2-3 4 2 4 1 4-5 4-7-1-12-3-11-5l-1-5c-2-3-1-4 3-2l5 1h3c7 0 12-2 7-2l-4-1-2-1h-1v-4l1-2v2c0 3 1 4 8 5 4 0 5 0 6-2v-4l-1-1c-1-1 0-1 1-1 2 0 2 0 0-1s-5-2-6-1l-4-1-5-2c-15-2-16-2-17-1h-1l-3-1c-3 0-4 0-4-4v-4l3 2h6l2-1c0-3-3-4-6-3-3 0-3 0-3-3 0-2 1-3 2-3 2-1 2-1 1-3l-2-7v-5l-1 5-1 5-3-3c-4-5-9-4-9 0 0 3 1 4 2 5v1c-2 0-1 2 2 2l3 1h-3c-2 0-3 1-3 2l2 1 3-2v5l-1 4c3 1 1 3-6 3l-6 1h13v5l-3 9-1 4-7-1c-9-2-9-2-10-13 0-14-2-19-5-19-1 0-3 10-3 17l-2 12-2 1-2 2-1-5c-3-6-2-14 0-17 3-3 3-10-1-14l-3-5-1-3-2 1c0 1-2 3-4 3-3 1-4 3-4 4 0 4-8 7-9 3-1-1 0-1 2-1l2 1h1c3-4 0-10-3-8v-2c0-4 0-4-2-4-1 0-2 1-2 4l-1 7-1-2c1-2 0-4-1-3v2l-2-2a1 1 0 10-1 1l1 3c0 2 1 3 3 3 1 0 2 0 2 2 0 1 0 2-1 1l-1-1-6-3-6-3-2-1v17l-1 19-16 1h-15l-3-5c-2-3-5-8-8-10l-6-7-2-3c-2 0-5-3-6-5-1-3-2-2-4 2s-2 6 1 6l1 3c0 2 0 2-4 2-7 0-18 7-21 13l2-2c13-14 33-13 40 1l2 4h-14v-3c0-2 0-3-4-3-6 0-8 1-6 4 1 2 1 2-10 2-10 0-11 0-12 2-2 3-6 2-6-1 0-2-2-2-17-2a759 759 0 01-33-2c-10-1-13-2-13-4 1-1 0-1-1-1l-2 2c0 2-18 2-21 0h-3c0 2-6 1-10-2a3 3 0 01-1-5l1-1v-2l2-2c0-2 7-4 15-4l9-1v-1h1c2 1 2 1 2-1l1-1 1-2v-2l2 2c3 2 4 2 7 1 4-2 4-2 0 3s-3 5 1 1l5-3c1 1 1 1 0 0 0-2 2-3 4-2l2-1 2-2 1-1 2-2a2 2 0 001-2l2-1 4-1 3-2h1l1-2 1-1h2c1-2 64-1 90 3 5 0 6-1 0-1l-23-3-1-3v-3l-1 2c-1 4-3 5-6 3l-3-1c-1 1-3 0-4-1l-2-1c-1 1-5-1-5-3-1-2-1-2-2-1h-4v-4l5-1h5l-3-1c-3 0-4-3-2-3 9-1 10-1 8-3-2-1-2-2-1-3 1 0 2 0 3 2l2 2v-6a1 1 0 011-1l1-1a2 2 0 112 2v3h-1c1 2 4 1 4 0-1-2 0-5 1-5l1 10c0 6 0 9 1 8 0-2 1-3 2-3v-1c-2 0-2-1-2-9 0-5 0-8 1-7v1l3-1 4-1h2l1-1 1-1c0-2 4-5 6-5 1 1 2 0 1-1h3c3 1 3 1 4-1 1-4 3-5 7-5s5-1 5-3l2-2c1-1 1-1 0 0l3 1c2-1 3-1 3 1h1c2-2 6-3 6-1l-1 1v1l1 2v2l1-6 1-5v6c0 6 1 8 3 5 2-1 2-1 2 1s0 2 1 0l1-2h2c2 3 3 2 1-1-2-1-3-7-1-7 1-1 1 0 1 2 0 6 1 2 1-6a23 23 0 015-17v-2c2-1 2 0 4 3l1 4 1-6c2-10 3-12 3-5l1 7 1-4 1-2c2 0 2 3 1 6-3 4-2 6 2 6 3-1 3-1 4 1 0 2 2 3 2 1h1l3 1c2 0 2 0 1-1s-1-1 1-1l2-1c-1-1 3-3 4-3h3c1-1 1-1-1-1-5 0-6-2-6-11 0-10-2-9-2 1l-2 10c-1 1-1 0-1-3l2-23a3090 3090 0 017-98l2-19c0-4 0-4-2-4-3 0-5 2-4 5h-1l-1 1c1 2-3 8-6 9-3 0-4 5-2 8h3l1-3 2-3h3v4-2h-1c-2 2-2 3-1 3 1 1 2 2 2 5v4l-1-4-1-4-1 3c-1 3 0 4 1 5v7c1 4-2 57-4 67v3l-3-2-2-4c0-2-2-4-2-2h-1c-1-2-1-2-2 0-1 3-2 2-2-3l-2-7V79c1-10 0-12-4-13-3-1-4 1-4 13v8l-9 8c-9 7-10 8-10 16v4h-31l-48-1-132-2h-16v-4l-2-25V61l28 1c17 0 27 0 26-1l-1-1v-4l-2 1h-5c-4-1-4-1 3-1h12l9-1h48v-7l2-12c4-8 4-18 1-24l-3-8c0-4 0-4-3-4s-4 0-4 2v2l-3-2c-5-5-5-2-5 15s0 17 5 17c2 0 3 1 3 8v7l-24-1-27-1h-9c-3 0-5 0-4-1 3-1 2-3-2-3h-3l-1-2h-2c1 1 1 1 0 0-2-2-3-2-3 0l-2 1-4 1-5 1c-4 0-5 0-5-2l1-3 1 2v1l1-2h3l3-1c0-2 3-2 35-2 35 0 36 0 34-1l-1-5-1-2c-1 1-1 0-1-3l1-5v-1l-1-4c1-11 0-16-2-16s-2 0-2 15l1 14-6-1-14-1c-7-1-7-1 5-1h13V13l-1-13v25h-9l-9-1c1-1-1-5-2-5l-1 2v3c-2 2-10-1-10-5h-1c-1 2-5 1-6-2 0-2-1-3-2-3s-2 0-1-1h-1l-2 3c0 3-5 2-6-1-1-5-3-4-2 1l-1-1c-1-1-2-3-1-5 0-2-1-3-2-3l-1-1V4l-2-2v11l-1 14c-1 1-2 0-2-2l-1-22-1 13v15c-1 2-2-11-2-21s0-10-2-10c-3 0-3 0-3 9v23l-1-1h-1l2 2 1 4c0 3 0 4-1 3l-2-1-4-3-1-1-1 1c-2 0-2-1-1-2v-7c0-3 0-3-1-1-1 1-1 0-1-4l1-7v-2c-2 0-1-4 1-5l1-2c-2 1-4-2-4-4s-4-3-4-1l1 1v1l-1 8v3c-1-4-2-1-1 4l1 4 2 4c0 2 0 2-1 1v11c0 3 0 4 1 3s2 1 1 3l1 1 1 4c0 3-2 4-4 1h-2c-2-2-4-48-2-48l2-1-2-1-4 2c0 2 0 2-2 0-1-2-2-2-6-2h-5v12l1 37v1l1 4c-1 1-1 1 0 0l1 6v7c2 2 1 12-2 15l-2 1-1-5 2-4 1-3c0-1 0-2-1-1-2 0-2-1-1-5l-1-7-1-4-1-4-1 9c0 7-1 11-1 5l-1-6c0-6 1-11 3-10h1l-1-1-2-3-1-2v-2h4c1 1 1 1 0 0v-2h-2l-3 1-2-31V0h-6c-5 0-7 1-7 2v2h-1l-1-2-1-1h-1L76 0H0v199M343 2c0 2-2 3-2 1l-3-2h-3v17l1 16a1257 1257 0 016 1l1 2c0 2 1 2 41 2 36 0 40 0 39-1-1-2-6-2-37-2-34 0-39 0-33-3h28l26-1-24-1-28-1h-4v-9c-1-14-3-21-6-21l-2 2m71 11l-1 13h-29l-28 1h30c30 0 30 0 30 2l-1 2-7 1h10c2-2 2-32 1-32s-2 1-2 3l-1 4V3c0-8-2-2-2 10m22 12c-1 22-2 25-3 25l-97-1c-3-1-4-1-5 2-2 5-1 5 29 5h82l2-20 2-28V0h-9l-1 25M547 2l-2 20-13 119v2h-57l28 1h30l3-22 3-23c1-1 1 0 1 1l-3 25-2 23h-15l-15 1h16l16-1 2-18a9855 9855 0 0011-104c3-25 3-26 0-26-2 0-3 1-3 2M0 200c0 110 1 155 1 100a46387 46387 0 00-1-100m180-98l-1 1-1 1 2 1 1 2-1 2c-1-1-1 0-1 1l-1 2v1l1 3c0 3 0 3-2 2-3-3-2 29 1 32l2 4h1c0-3 2-2 3 0s1 2 2-1l-1-6-1-3c0-1 1-1 1 1 1 1 1 1 1-1l-2-34c0-6 0-8-1-7h-1l-1-2-1 1m15 48c0 15 0 17-4 18v1l3-1 4-2c3 0 3 0 2-7l-1-12-3-10-2-2 1 15m418 89c-2 2 1 3 33 4l29 1 2-2 3-4c0-2-1-1-3 1-1 2-2 2-6 1l-4-1h2l1-1-3-1-4 1-2 1-2-1h-5l-9 1c-6 0-8 0-6-1 1-1 1-1-1-1l-2 1h-19c-1-1-2 0-4 1m-255 26l-7 2-4 1c0 2 1 2 3 1 1-1 1-1 0 0-2 3-1 5 4 7 4 1 5 2 3 2l-5-2c-4-2-5-1-8 5l-6 8c-2 3-2 4-3 13 0 13 1 15 16 19 10 2 27 2 23 0l2-2c3-1 3-1 2-2-2-1-2-1 1-2l3-2h-4c-3 0-4 0-2-1 2 0 5-3 4-3v-2l2-6 2-5c2-2 2-12 0-15-1-3-1-3-11-2l-10-1c-1-1 1-1 6-1 10 0 17-4 11-6-2-1-2-1 1-3a2 2 0 015 1v2l1 3 1 1c2 0 2-2 0-6l-1-2c2 1 3 1 3-1l-3-1-6-1c-2 0-2 0-1 1 1 2 0 3-2 3s-2 0-1-1c2-2 0-3-6-2l-6-1c-1-1-4-1-7 1m165 12c-3 6 2 9 14 9 10 0 10-7 0-8a44 44 0 01-12-4l-2 3m-61 5c0 3 0 3 3 2 1-1 2-1 2 2 1 3-1 4-6 5l-3 1 3 2-3-1c-3-1-3-1-6 1l-3 2-1 14v14l18 6 2-19c0-11 0-10 7-12l5-3-3-8c-2-7-3-8-9-6-3 1-3 1-4-1-2-2-2-2-2 1m117 8v2l-1 3v1l88 1c1-1 2-1-14-2l-15-1h15c14 0 15 0 15-2s-7-3-55-3c-30-1-33-1-33 1m86 25c-1 2 0 3 3 4 1 1 0 1-2 1-3 0-4 0-3-1 0-2-12-3-15-1-2 1-1 1 2 1h8c2 1 1 1-5 1-8 0-11 1-9 2 3 2 0 2-10 2-8 0-10 0-12-2-2-3-13-4-12-1h-5c-1-2-6-3-6-1l-2 1v-1c1-1 0-1-3-1l-7-1 4 6c4 3 6 6 5 6-2 0-1 4 1 6l2 3v-9h2c2-2 4-2 7 0l2-1v-1l1 1h1l1 1c3 3 2 4-4 4h-6l3 3 10 9a31 31 0 008 7l2 4c2 2 3 3 3 5-1 3 1 3 2 0 0-2 0-2 26-2l26 1v-12h-8l-9-1 1-1h2c-1-2 0-2 2 0l7 1h5v-6a16 16 0 00-1-9c1 1 1-1 1-7a18 18 0 00-3-12v1l-3 1-11-1h-1m-109 10l2 2 5 1 5 1h4c1-1 2 0 4 1 2 2 3 3 1 2l-3 1c-2 1 1 4 4 4v1c-1 1 5 4 8 4l3 1-2 1v2l-2-1-4-1c-4 2 0 3 8 4 8 0 13 2 13 4s-1 2-4 2l-4 1a924 924 0 01-132-2h-1l-2 1c-3 0-8 2-8 4l9 1 14 2h4l15 1h3l2 1c2 2 11 3 12 0 0-2 0-2 2 0 1 2 1 2 3 1l3-1h3c-1-1 0-1 3-1v2a39 39 0 014 1l-1 1 4 1c4 0 5-1 4-2h1l2 1 6 1h8a4 4 0 005-1l1 1v1h1l4-1h3l3-1h1l-2-2h26c3-1 29 0 29 2 1 1 1 0 1-1 0-3-1-4-4-6l-6-4-7-4c-3-1-3-1-1-1 3 0 3-1-2-4l-5-4-2-1c-1 1-4-3-4-4l-1-1-1-1-1-1-5-4c-5-5-5-5-11-5l-12-1-6 1m-52 5l1 1-2 2c1 1 0 1 0 0l-1-1h-1v2c1 2 1 2-1 2l-2 1c2 2-4 3-7 2-3-2-7-2-7 0 0 1 3 2 7 2 2 0 3 0 3 2l1 1h1l-2 1c-2 0-3 2-1 2 27 2 44 2 46 0 1-1 1-1 3 1l1 1h2c2 1 2 1 2-1l-1-1c-1 1-2 0-2-1v-1l11 1 4 1h3l2-1 1-1h5c3-1-2-2-6-1-3 1-4 0-5-1h-6l-3-2v-6l-1 2c1 2-2 3-7 2l-2-1-1-1h-4c-1 2 0 4 2 3v1l1 1h3c1 1 1 1-2 1l-5-2h-3v-1l-1-1c-1 1-2 0-1-1l-2-2c-2 0-3-2-1-2a20 20 0 005-1l1-1h-3c-5 1-8 1-10-1s-6-1-4 1c1 1 0 2-2 1l-2 1 2 1h2v1l-5-2c-2-2-2-2 2-2h2l-2-1a32 32 0 00-8-1m-97 47v10h3c9 2 11 1 9-8a14 14 0 00-10-11l-1-1-1 10m74 6c-9 0-7 2 2 2l9 1h-22l-1 4c1 2 0 4-1 4-1 1 1 7 2 6l1 1 1 2c2 0 4 5 3 8v7l-1 3v3c2 5 4 5 25 6l32 1 25 1h12v-3l2-18 2-19 1-3h-9l-9-1h9l10-1c0-2-2-2-9-2l-40-1a5 5 0 00-6 0h-13a31 31 0 01-16-2l-9 1m-134 25c3 9 3 88 1 90l-1-1h-1v4h-1c-2-2-2-2-2 0l-1 3-1-1-1-10-1-14c0-7-2-1-3 8v14a14 14 0 000 10l6 1h6l-1-6c0-5 0-6 1-2s1 1 4-36c2-20 0-53-3-58-1-3-2-3-2-2m165 0c-4 4 1 11 6 9l5 1a4 4 0 100-8l-3-1c-1-2-6-2-8-1m-329 4c-1 2 6 6 12 6l25 3c21 2 30 2 30 0s1-2 2-2l2-1-12-1-35-3-24-2m461 18v3h20l19 1v-2c0-3 0-3-11-3-23-2-29-1-28 1m-373 17a19 19 0 002 8v5l3 27a8 8 0 01-1 8l1 4c0 3 0 3 1 1 0-2 1-2 1-1 2 2 4-1 4-5-1-2 0-3 1-4v-6a4 4 0 012-5l-1-4-2-3-1-1h1c2 0 1-1-1-3v-1c2 1 2 1 3-1l-1-2c-3-3-4-6-2-6l2 2 1 2v-3c-1-2-1-4 1-5v-2h-1l-1 2c-1 2-2 2-2 1l-4-3c-3 0-3 0-2-2h4c3 1 1-2-4-5l-5-3 1 5m272 16l-1 6c0 3 0 3-1 2-1-7-1-4-4 16-2 27-2 25 0 25 3 0 3 1 6-28 2-21 2-25 0-21" tabindex="-1" itemprop="light" style="fill: rgb(69, 94, 93); fill-opacity: 0.183; fill-rule: evenodd; color: rgb(243, 104, 109);"></path><path d="M6 1C2 1 1 1 1 3v395l2 1-1 1c-2 0-2 7-2 56v56h100l127-2-2-1-1-1-1-3h-2l-2-2-2-2h-1l-2-3-1-1-4-2-2-3c-2 0-3-1-3-2l-2-1-3-2-2-1-2-1-2-2-2-3-2-2c-3 0-4 0-4-2-1-3-6-5-7-3s-2-1-3-28l-3-36c-1-12-1-17 2-22 3-4 3-4 0-3-3 0-3 1-3-15 0-10 0-12-2-13-5-2-8 0-5 3 1 2 1 2-2 0l-5-2c-1 1-1 1 0 0l1-2c-5-1-7-1-8 1-2 2-4 3-4 1l2-2h-15c-3-1-16-1-19 1-1 1-1 1 0 0 0-2-6-2-10-1h-1c1-1 0-1-3-1l-9-1c-3-1 2-1 16-1a73 73 0 0021-1c1 2 13 2 12-1l1 1c2 2 2 2 2 0h2c1 2 2 2 3 1 1-2 3-2 2 0h2l1-1c0 1 0 2 2 2h3l3-1 2-1c0 1 1 2 3 2 3 1 5 0 4-2v-1l1-4c0-5-1-4 18-24 9-10 15-15 17-14 0 1-3 6-12 17-7 8-7 9-6 11h3c0-3 22-24 26-25h4l-2 1c-2 0-5 4-5 7 0 2-1 3-3 4l-4 5-3 5c-2 5-1 6 38 6l35 1 6-3 4-3-3 1 2-5c2-4 3-5 7-7l6-2h-5c-5 0-4 0-3-4 1-3 3-4 6-5 8-2 10-3 8-4-1-1 1-1 5-3l7-3 4-1 3-1h6c2 1 5-1 5-5l4-7 3-4 3-6c3-4 3-4 5-3l3 2-1-2c-3-2-4-2-6 0-3 1-3 1-4-1l-1 1c-1 1-1 0-1-4l1-6 7-1h23c2-1 19 1 19 3v3l-1 6-2-3c-1-3-4-5-5-4l1 2 2 2-3 2-10 3h13l2 3 4 5c3 1 3 3 0 3-2 1-2 2-2 4l-1 4-2 3c0 1-1 5-3 7l-2 5h2c2 1 2 1-1 2-3 2-3 2-1 2 3 0 2 2-1 2l-3 2c2 4-19 4-30 0l-6-2-1 11c0 10 0 11 2 11 3 2 74 3 76 2 3-1 3-3-1-11 0-2 1-2 4-4 4-1 5-3 7-6 2-5 6-7 7-4 7 14 12 28 12 35l-1 9v1c2 0 2 1 2 2l-1 14v12h-18c-61-3-197-6-229-6-16 0-19 0-19 2-1 1 1 1 9 1l23 1 56 1 29 1 21-1 3 1c4 1 21 2 21 0h24l11 2 10 1h44c10 0 11 0 13 2s1 6-1 5l-1 1c2 2 2 26 0 53l-2 55v3h8c12 0 12 0 12-11 0-8 1-13 3-13l1 5c-2 19-2 19 0 19l2-1a3244 3244 0 014-54c0-2 1-2 3-2 3 0 3 0-1-1h-7c-1 2-2 2-2 1l1-2v-8l2-1 5-1c4 0 4 0 1-1-7 0-4-2 4-3 9 0 10-2 3-2-6-1-7-1-4-4 1-2 3-2 14-2h13l-9-1a68 68 0 01-24-3c-2 0-4-3-2-4l1-3 2-4 1-2v-1l-1-1v-1c1-1 1-1-1-2-1-1-1-1 1-1h3l-1-1-2-1-2-1-2-1-2-5v-6l1-3 1-3 3-2 2-1c-1-1 0-1 2-1 3 0 3 0 2-1-2-1 6-1 51 1h20l-5-1-58-3c-5 0-5 0-4-2 3-3 103-1 103 2h-2v1c2 2 2 3 0 24l-4 22v-2c3-29 4-38 1-39h-4l-1 8-4 38c0 4 5 4 7 0 1-2 1-2 1 1l-3 21v-3c0-2 0-4-2-6-3-3-4-3-4 0l-1 3-1 4-3 28c-4 35-4 32 0 33 3 0 3 1 6-19l2-13c0 1-2 24-4 29v3h117V333l-1-130v48h-4c-3 0-4 0-4 2l4 1h4v22c0 21 0 23-2 25s-5 3-5 1c0-3-2-3-31-4l-48-1c-17 0-35 0-25 1h3l-3 1-2 2c0 2-2 1-3-1 0-2-2-4-4-6-3-4-3-4-2-6 2-3 3-16 2-18-2-3-6 0-9 6-1 4 0 13 3 17l-1 3c-2 1-2 1-2-1 1-3 0-8-2-8l-2-2a8 8 0 00-3-5l1 2c3 3-6 6-15 4-12-2-14-4-10-9 2-3 2-7 0-12-2-3 0-4 7-4 4 0 4 0 4-3 1-3 0-4-1-4h5c3 0 6 0 5-1l-4-2c-1-2-3-2-5-2h-5c-6-2-9-2-9 0 0 3-1 3-3 0-2-2-3-2-6-2l-4 1v-4l1-3 1 3 1 2v-7c2 1 4 1 2-1v-6c0-3 0-4-4-8s-10-6-9-2l1 3c0 2 1 3 3 4 3 2 4 7 1 10v2c2 0 1 13-1 18l-3 4h-10l-8-1v-8c0-16 0-17-2-17l-2 1-1 16v2l-1 4v3l-1 3c-1 3-4 4-4 1s-3-5-4-2-2 0-3-14a25 25 0 00-3-13v-3c0-3 2-4 2-2l2 2c2 1 2 1 1 2v2c3 1 4-5 1-8l-2-8c0-4 0-4-1 2 0 4-1 5-1 3s0-3-2-2c-4 0-9 5-9 7 2 5 2 17 1 19-3 4-4 3-6-5l-1-2v2c0 4-2 0-2-5 0-4-2-3-2 1-1 1-1 0-1-2 0-5-2-7-3-3v-3c0-4 0-5-2-5l-4-2c-5-3-5-3-4 13 1 21 2 20-18 20h-16l-3-6-7-9-5-6-6-5-4-4c0-3-3-1-4 4 0 3 0 4 2 4 2 1 2 1 2 3-1 2 0 3 3 4 6 1 11 6 14 11l2 4h-8l-8-1 2-3c0-2-3-3-8-3-2 0-2 1-2 4v3h-11c-9 0-11 0-12 2 0 2-5 1-6-1 0-2-2-2-15-2a1552 1552 0 01-43-2l-26-2h-11l-8-5c-8-6-9-8-4-12l2-4 1-1 2-2 3-5 3-4c0-5 11-7 49-8 34 0 33 0 33-4 0-3 0-3-1-1 0 3-2 4-4 2l-10-2-3-2c-2-2-2-2-3-1h-2c-1-1-2-1-4 1h-2l-1-1-1 1-2 1h-3v-3c2 0 1-1-2-2-2 0-2 0-1 1v3l-1-1-1-1c-1-1-1-1-1 1l-1-1c-2-2-2-3-3-19l1-18c2-1 5 0 5 2a3 3 0 004 3v1l1 1a3 3 0 014 4l1 1c0 1 1 2 3 2s2 0 2 2 1 2 2 2l2 2 1 3 1-2c-1-1 0-2 1-1 2 0 2 0 2-2-1-1-1-1 0 0 2 2 2 2 2 0s3-4 4-4l2-2 2-2v2l1 1 1-1 2-1 1 4c0 3 0 4 1 3v-4c0-2 0-2 2-1 1 1 2 1 3-1l3-1c1 1 2 0 3-2s3-3 4 0c1 2 2 1 5-2l5-3c1 1 2 0 2-1s4-3 6-2l2-1 1-1 5-1 4-1-2 2-2 1h6c5-5 5-5 14-5a10 10 0 008-3c0-1 3-2 4-1h3l2-1 2-1h4l3-1c3-2 10-2 9-1 0 2 2 3 4 1l1-1c1 1 6-1 6-3h1l1 8c0 7 1 11 2 8l5-13 1-3c0-2 0-2 1-1l1-6c1-9 6-13 9-7 1 2 1 1 2-4 2-8 3-9 3-3 0 3 0 4 1 3h3c2 0 1 8-1 10s-1 6 3 5c3 0 3 0 3 2s0 2 1 1l3-1a5 5 0 004-8l-2 4c-2 1-2 1-1-5l1-10 1-14 1-22 7-94c0-2-1-3-2-3-2 0-2 1-2 11l-9 102-6-7c-2-2-3-3-4-2l-1-5-3-7c-1-1-1-13 1-19 0-3-2-6-5-6-2-1-3 5-3 17 0 4 0 6-2 7-3 2-4 5-4 8l-3 1-5 1c1 1-1 6-2 6l-1 3c-2 7 4 6-66 5l-110-2-50-1c-3 1-4 8-3 14 1 3 3 42 2 43l-37-1c-2-1-2-1-1-2l4-2h1l13-1h15l-4-74a11231 11231 0 01-5-83V0h-4c-4 0-4-9 0 78a15651 15651 0 005 79c0 2-34 1-37-1l-1-3h-1c-1 0-2-1-1-2 0-2 0-3-2-3-1-1 2-1 7-1h8l7-1 8 1c1 1 1-1 1-3 0-3 0-4-1-2-1 4-2 1-2-9a5312 5312 0 00-3-42 5432 5432 0 00-5-78c0-11-1-13-2-13-3 0-4 1-3 13 2 27 2 34 1 33l-2-23-2-23 2 40 3 67 1 6c1-1 1 1 1 5l1 12v6h-6l-6-1v-1c2 0 2 0 1-2v-13c-2-1-2-4 0-4v-1l1-3c1-1 1-1 0 0-2 0-2-10 0-11l1-3h-2c-1-1 0-2 1-2l1-3-1-2a2 2 0 01-2-3l-1 3c1 6 1 8-1 7v-4l-1-6c0-4 0-5 1-3h1l-1-3c-2-1-2-4-1-4v-7c0-2 0-3-1-2-2 0-3-2-2-3V51c-1-7-3-11-8-15l-1-6V19v1l1 2c2 0 2-6 0-7l-1-2c2-1 2-9 0-11C137 1 23 0 6 1m210 8v27h78l-8-1-66-2-2-31c0-6-2-1-2 7m83-8v17l1 16h6l1 8v7h-29l15 1 16 1h-53l-15-1c-10 0-13-1-8-1s5-1-4-1a25 25 0 00-13 0l-6-1-5 1-1 1c-1 1-1 1 2 3s107 4 107 1l1-9c0-5 1-8 2-9 2-3 2-18-1-22l-1-8V0h-3c-3 0-4 0-4 2l-1 2-2-2c-2-2-4-3-5-1m45 0l-1 2c0 2 0 2-2 0-4-4-6-2-5 5v26h4c2 0 3 0 3 2 0 1 2 2 40 2l39-1-37-1h-37l2-2 1-3-1-9-2-12-1-7c0-3-2-4-3-2m94 2l-2 26c-1 24-1 25-7 25h-98c1 1 108 3 110 2l1-12 2-13 1-17V0h-3c-4 0-4 0-4 3m112-1l-2 16-6 65c-4 41-6 67-3 44A7815 7815 0 00552 5c0-5-2-7-2-3m21-1l-2 18a12355 12355 0 01-16 143c0 4-3 5-12 5h-48c5-1 5-1-17-1l-20-1c-4-1-7 1-6 3l95 2c15 0 14 1 16-13a2177 2177 0 015-43l7-63 4-28 1-7 1 3-2 14a9325 9325 0 01-14 120l-3 24h-98l6 2c4 0 10 2 11 3h1c0-2 0-2 1-1l6 1 4 2 4 1 5 1 14 1 15 1c1 0 4 0 6-2l4-1 2-2h3c1 2 1 2 3 1h5c3 0 4 0 4-2l1 1 1 3v-3c0-2 0-2 1-1l4 2c3 0 4 0 5-5l1-3v3l1 3v1h1l2-5c0-3 0-3 1-1v-3c0-4 0-5 1-4s1 0 1-4v-5l1-6 5-32-2 25c-3 23-2 34 2 34v-3l6-37 6-39c0-2-1-2 33-2a183 183 0 0032-1h1l10-1 3-1 5-1c4 0 5 0 5-2v-3h-13c-11 0-26-1-21-2l1-2 1-2 2-3c1-3-4-4-35-4h-27v-2l1-11a3528 3528 0 007-62c0-4-2-6-4-2h-1c0-3-13-2-14 0l-1 7-1 5-1-1 2-7V0h-4l-4 1M0 278c0 67 1 94 1 60a16991 16991 0 00-1-60m596-67l2 1c1 1 1 1-1 1s-2 0-2 6c0 7 0 7 8 8 7 0 12 0 10-2v-8l2-6-4-1c-2 0-3 1-2 2l-2 1-2-1c1-2 0-2-4-2l-5 1m-17 51l-1 21 1 6h88v3l-2 2c-2 0-2 0 0 1 4 1 6-10 6-29 0-20 0-20-10-20-8 0-11 1-11 2 0 4-7 5-21 5l-15-1 4-1 8-1c3-1 3-1-3-1l-9 1-8 2-5 1v-7h-22v16m-178 4l4 2 5 3c2 2 12 7 13 6l2-6v-5l-13-1c-8 0-12 0-11 1m61 16l-2 4-2 3c0 1-2 3-5 4-5 2-5 2-5 6l-1 15v11l3 1c2 1 2 1 0 0l-3 1c-1 1 0 6 2 6l1 1v3l1 2 1 2v1c-1 1-1 1 1 2h2l2 1c1 2 1 2-1 2v2c1 1 3 2 4 1 3-1 0 2-4 4-5 2-7 4-6 6l4 5c0-2 3-1 4 1h6l2 1c1 1 0 1-3 1-10 0-5 2 8 3 7 0 10-1 4-2-1-1 0-1 4-1 3 0 5 0 4 1-3 0-2 2 1 2l27 1 32 1 10 1 35 1h35l1-7v-6l-21-18-25-21c-4-2-17-2-22-1a8 8 0 01-8 0c-3 0-3 2 1 2h-2l-19 1c-1 1 3 2 4 1s1-1 0 0-2 2-3 1c-3-1-8 0-6 1v1l-2-1c-2-2-2-2-2 0l-13 1a35 35 0 00-14 1c-1-1-3 1-5 2-6 6-7 6-8 6l-3 3-1 3c2 0 4 0 3 1l-1 2h-2a5 5 0 00-4 0c1 1-4 5-7 5-2 0-2 0-1-1l1-3v-1l3-5 1-6c-2 0-3-4-1-6v-2c-2 0 0-9 2-10l2-1 3-2c1 0 2-1 1-2l1-1 1-1h-2c-3 2-5 2-5 1l7-3 1 2v4c1 1 1 0 1-3s0-4 3-5c4-2 7-6 3-6-2 0-4 3-3 4h-1l-1-6-2-8-2-6c-1-4-2-5-6-4-3 1-4 1-6-1-2-1-2-1-2 2m114 28c-2 3-2 7 0 10 2 2 5 3 3 1l1-1v2l2 2h2c0-3 0-4-1-3l-2-4-3-4-2-2 8 6 7 8-1-1c-1-1-5-1-5 1l15 15 1-3v-4a26 26 0 019 10c1-1 19 16 17 17v3c1 4 1 5-1 3-1-2-1-2-1 1l1 5c1 3 4 0 4-3l1-2v-2c0-3 0-3 2-3l4-1 1-1v1l6 1 21 1 15-1 1-1 1 1v1l1-27c0-14 0-26-1-25h-40c-6 0-6 1-5 2l5 2c2 0 2 0-1 1-5 1-11 0-10-1h-3a7 7 0 00-11-2v1l-2 1-10-2-10-2-19-1m-217 21c-5 6-3 8 10 8 10 0 10 0 10-2 0-5-7-8-10-5-2 2-2 2-3 0l-3-1-1-1-3 1m-145 41c0 10 0 10 6 11h4l1-5c1-5 1-5-1-9-3-4-4-4-3 0v5c-1 4-3 3-3-2l-2-6-2-2v8m33-1c-1 11-1 11 2 11 6 1 8 1 8-1 2-4 1-9-1-12-3-4-3-4-2 0 0 5-1 8-2 6l-1-4-2-5-2-2v7m72-2c1 5 1 7-1 4l-3-2-3-2-2-2v5c0 10 1 13 3 12h6c4 0 4-2 3-8 0-3-1-6-3-8l-2-2 2 3m55 7v9h4c6 2 7 1 7-5 0-4-1-6-3-8-2-3-3-3-2-1l1 5-1 4v-4c0-3-1-4-3-6l-3-3v9m33 1c0 9 1 10 8 10 3 0 3-1 3-5l-2-8c-2-3-5-4-3-2l-2-1c-4-3-4-3-4 6m-249 1h-2c-2 0-2 5-1 10 1 3 1 5-1 6-1 1-1 1-1-3v-3h-16c-11 0-16 1-17 2l14 3h2l2 1c4 0 6 2 6 4 1 2 1 2 1-1l2-6 3-2v4l1 8 1 3 2-3 1-2v3c0 3 0 4 2 5 1 0 3 2 4 5 3 8 5 5 4-6l-1-11c-1-13-3-19-6-17m222 32l-2 9-2 14-2 14c0 5-1 7-2 3v5c0 6 0 6-1 3l-2-12-1-7c-1 2-1 2-2-1-2-8-3-4-4 11 0 17 1 23 2 22l1 5c-1 4-1 5 2 7a5 5 0 012 4l1 1 2 13v7c-3 4-1 4 19 4l21-1c1-1 1-3-3-15a128 128 0 01-2-75c0-2-1-2-12-2h-11l-1-4c-1-7-3-9-3-5m-90 9l-2 25v3c1 1 1 1 0 0l-2-1-5-2c-6-3-6-4-5-8 1-2 0-2-2 1-5 5-5 5 6 11 5 3 7 5 6 7l1 2 1 2h-1c-1-1-1-1-1 1l-1 3-1 2 2-1c1-2 1-1 2 2 0 3 0 3-3 3-2 0-2 0 0 2 1 1 2 2 1 6 0 10-1 12-2 13-2 2-1 4 1 4v1c-2 2-2 3-2 5v2h-2c0 3-2 2-2 0-1-2-1-2-2-1-1 4-5 4-7 0-1-2-1-2-1 1 0 2 1 3 3 4l3 3h2c1-1 1-1 1 1l2 2 1-2v-1c2 3 36 5 37 1v-4l1-18 2-15-1-1-1 2-1 5c-1 4-1 4-2 2-2-3-1-7 2-16l4-36c0-9 1-9-15-9h-13l-1-6c-3-8-3-8-3 5m59-5v42c1 36 1 37 3 7 1-20 0-47-2-51l-2-3 1 5m333 9v5h-56l-11 4c-1 1 37 2 58 2h10v-6l-1-5m-408 6l-1 2-1 1-3 1-1 1-1 1c-2-1-2-1-3 9v11c2 0 3 4 3 17 0 7 1 10 2 10l1 1a5 5 0 01-1 3c1-1 1-1 1 1l-2 6a2 2 0 103 1h1c4 1 3-16-2-46-1-11-1-13 2-15s4-4 2-6v2m-35 3c-3 3-3 9-1 35 0 14 3 17 5 7l4-15c3-10 4-14 2-14l-1 4c0 3 0 4-1 3l-1-1v1l-1 1v-9c1-3 2-4 2-1s2-2 2-8l1-5h-4l-7 2m17 29l-2 8c0 3-2 6-3 7l-1 3v2c-2 2-2 1-2-2v-4l1-3c0-3-3 1-4 5l-2 5-2 10v11c-2 2 1 1 4-1l3-1c0 4 3-5 3-10 1-6 2-10 2-5 0 2 4 6 4 4v-27c-1-5-1-5-1-2" tabindex="-1" itemprop="regular" style="fill: rgb(53, 54, 75); fill-opacity: 0.295; fill-rule: evenodd; color: rgb(64, 80, 52);"></path><path d="M93 13a1289 1289 0 005 72l1 17c1 14 1 14-1 12-3-3-6-3-6 1l1 2 1 1 1 4c2-2 3 12 1 14-4 3-1 8 4 6 3-2 3-2 4 7 0 9 3 8-31 9a3303 3303 0 00-63 1l-9 1c0 3 3 3 77 2 24-1 28 0 28 2s-3 3-11 4a1135 1135 0 01-64 0l-15 1-15 1-1 111 1 111 1 1v2c-1 2-1 2 1 2 3 2 2 4-1 3l-1 1v2l2 3 1 3c1 1 0 4-1 4l-1-4-1-2v14l18-14 3-2-4 5c-3 1-6 7-6 10l1 8 2 13c0 7 0 8 3 20a180 180 0 014 23l2 18c1 9 2 10 7 10s5 0 4-4l-5-33 6 33 2 3 1-2-6-34c-1-9 0-12 6-12l4-1c3-3 3-3 4 10l2 12 3 18 2 9 1-3-12-74c0-5 0-5 7-12 3-3 5-4 6-3l2 1v4l1 2v30l1 4 1 9 2 16 1 11-1 1v3h-1l1 1-1 2c-2 1-2 2-1 5v3h117v-11l-7-98 1-12c3-4 2-6 0-6-2-1-2-2-2-8v-6l-9-1-11 1c-2 1 0 2 3 1l2 1 5 1h5l-4-1-4-1h10l-2 3c-2 3-2 5 0 29l2 9c0-9 2-1 2 10 0 9 0 10-1 5l1 30v11l-2-3-2-4-3-3c-2-1-3-4-4-7-1-5-2-6-3-4s-3-13-3-17c0-3 0-3-1-2v7a8 8 0 01-3 9v-2l-2-8-1-7v7l-1 8-1-3-1-3-2-1-1-1-1-1-2-3-5-6a87 87 0 00-8-12l-3-4-7-12h21l-11-1c-11-1-13-1-13-3v-3c1-2 4-2 22-2 25 0 26-1 0-1-26-1-27-1-31-6s-2-6 7-6h8l-7-1c-7-1-8-2-2-2l16-1 13-1h-10l-10-2h-4c-4-2 3-2 32-2l27-1c0-2-1-2-6-2l-4-1-6-1c-7 0-7 0-6-1s0-2-3-2l-4 2c0 1-3 2-4 1v-1c1-1 1-1-1-2h-1c0 2-2 5-3 4l1-2c1-1 1-1-1-2l-3-1h-7l-3 1c-2-1-3 0-4 1-1 2-3 3-2 1l-1-2-2-1h-9l-5-1h-6c-2-2-3-2-3 0 1 1 0 1-2 1s-2 0 0-2c1-1 1-1-2-1h-5l3-1 3-1h1l3 1 3-1 2-2v2c-1 1 0 1 1 1l4-2h3c1-2 7-1 8 1a4 4 0 005 0h-1l-1-1 3-1c3 0 4 1 2 2v1c3 0 5-1 4-2s-1-1 1-1l5-1c2 0 2 0 1 2h1c1-1 3-2 5-1 3 0 5 0 6-2l3-1-1 1c-1 2-1 2 1 2a53 53 0 0019-2v-1h2c2 0 2 0 0 2s-1 2 3 0l2-2v-1l1-2c-2 0 3-6 9-12 7-7 8-6-12-8l-14-2 17 1h18l11-12c15-17 22-23 23-23l1-2v-24l11 1c10 0 11 0 13 3l3 2c1 0 1 3-1 7l2 3 1 6v4l-4-2c-6-3-8-3-8 1 0 3-3 6-5 4-2-1-4 2-4 5l-3 3-4 6c0 5-5 10-8 10l-3 4c0 3-1 5-3 5-2 1-8 14-7 15l38 1c38 0 42 0 42-4l2-6 2-5 6-11c3-2 3-2 1-2-3 1-3 0 1-2 2-1 2-1 0 0-2 0-2 0-1-2l4-2 5-2c12-2 30-9 31-11l4-4c2-2 4-8 3-8-2 0-3-8-2-12 0-4 0-4-2-4l-3-1c0-2-3-2-11-2l-20-2h-60l-10-7-11-7v-5a583 583 0 003-19c0-2 6-4 18-5 7 0 11-2 6-2h-23l-8 3-1-9v-8h21l-11-1c-11 0-11-1-8-7v-5c-1-1 0-1 1-1 2 1 3 0 2-1 0-2 6-6 9-6l2-2v-1c-1 1-2 0-2-1 0-2 1-3 3-3l4-2c2-1 2-1 2 1h1c2-1 5-1 7 1s8 2 12 1l2 1c1 2 1-1 1-8l1-3c1 1 1 0 1-1a5 5 0 012-5c-2 1-3-2 0-5l1-9c0-2 0-2 1-1s2 1 4-1l3-1 1-1-1-1v-1h2l2 1 1 1 2 1v1c-2 0-1 2 1 1l4 3 4 2h2c3 2 14 2 17 0 2-1 2-1 3 1s2 3 4 2 4 0 4 1l-1 1h-1c0 2 2 1 4-1l4-2c2 1 7-2 9-4l2-1c0 3 3 3 3 1 1-2 1-2 2-1 2 2 2 2 3 1 0-1 1-2 6-1a12 12 0 007-2l2-1c1-1 10-1 11 1l7-1h5l2-1 3-1h17c12 0 19 1 20 3h1l1-3c1-1 1 1 1 5v6l4-6 4-5 3-5c1-6 5-9 7-5 1 2 2 2 3-3 2-4 2-4 2-1s0 3 1 2c3-2 4 2 4 10l-1 8c-3 2-2 5 1 5 2 0 3 0 2-6l2-13v-10l-5-8-3-5-1-5-2-8c-2-2-3-7-2-16l-1-11c-3-2-4-1-4 5l-1 25-2 18H340l-118-4-21 1h-2v12l2 29v16h-7l-77-3c-5 0-9-3-9-5 0-1 3-4 4-3 1 2 5 3 12 3l33-2c8 0-16-3-29-3-12 0-13 0-14-7 0-7 0-9 3-6 2 2 4 0 4-4l1-2c2 0 2-1 2-2l-1-7v-4l-1 4-1 5v-10a12 12 0 00-10-13l-3-40-1-10-4-39c-1-19-1-21-3-21h-4l-3-1v13m90-8l1 21a9447 9447 0 013 50v38l1 11 1 7v3l1 8c1 16 1 18-1 17l1 1c4 2 4 1 3-26l-2-34-2-23a2414 2414 0 00-3-74l-1-3c-2-1-2 0-2 4m127-4l-1 2c0 2 0 2-1 0l-1 15 1 17 1 8 1 10h-32l15 1c22 0 20 2 20-18 2-26 0-39-3-35m129 0v7c0 5 0 6-1 5s-1 1-1 9v18c0 8 0 11-1 9l-1-2v2l1 4c1 2 0 2-8 2l-8 1h10l11-1 3-49c0-6-1-7-5-5m132 1l-2 12-3 32-1 18-1 5-1 6-6 63c-4 32-4 31-1 31 2 0 2 1 4-21l3-21c6-45 14-125 13-126-1-2-4-1-5 1m-95 4v6l-1-4v3c0 8-2 47-3 40l-1 10v21l-3 29c-1 17-2 20-2 16v5l-1 10-1 4c0 5 1 6 2 5l1-5 1-15a8200 8200 0 009-126V1l-1 5m120 86l-1 2c0 2 47 2 57 1h8l10-1 7-1-7-1h-74M42 191h-4v12c1 17 1 16 8 16 8-2 8-1 8-9 0-4 0-6-1-5l-1-1c2-2 2-10 1-10-1 1-1 0-1-1 0-3 0-3-10-2m160 11l-4 1a5 5 0 004 1h3l-4 2-1 1 4 2c2 2 1 2-2 1-1-1-1-1 0 0v3h3c2 0 2 0 2 2s0 2 1 1h4c4 0 5-1 5-9v-7h-6l-9 2m298 23l1 2c4 0 5 3 5 17v11c1-1 1-1 1 1 0 3-3 11-4 11s-2-1-1-2h-2c-2 2-2 2-3 1h-5l-4-1 2-1-3-1c-6-2-11 0-12 3 0 3-5 4-5 2l-1-2-1 2c0 2-8 1-9-2l-1-2v2c-1 3-3 3-3 0 0-1 0-2 1-1v-3c-1-2-1-2-2 2-1 7-3 6-4-2-1-9-4-10-4-2 0 6-1 8-3 8v-11c0-11-1-10-3 3l-2 6v-6c2-8 1-14-3-13-3 1-4 1-4-2-2-8-3-5-3 5 0 8 0 10-2 11-2 2-16 3-25 2h-6l-3-6-8-11-6-7-3-3-3-1c-1-1-2-1-3 1l-2 1 1-2c1-1 2-2 1-3h-2c-1 2-1 6 1 7l1 4c0 1 1 2 3 2 5 1 10 5 13 10 4 7 4 7-5 7-8 0-7 1 6 3 5 1 7 5 4 9-2 3-2 3 0 5 3 3 3 3 7-1 3-2 5-8 3-7l-2-2c-1-3 0-3 3 0l3 1c2 0 2 0 2 2 0 4 5 8 6 5h2c4 3 1 6-7 8-7 1-8 4-8 16-1 12-1 14-4 16s-6 3-4 1c1-1 1-2-2-1l-1 1c1 1 0 1-2 2-7 4-32 4-42 0-2-1-3 0-4 11 0 7 0 8 2 9l38 2c38 1 42 1 40-3a40 40 0 01-3-17l-1-4h4l5 1c2 3 3-1 2-5l-7-21c-1-2-1-4 2-4 2 0 1-2-1-3-1-1-1-1 1-1s3 2 3 5l6 15 7 17c1 4 2 4 4 4 4-1 4-1 5-12v-10l-2-1c-4-2-4-5 0-7l4-2 5-2 4-3 2-4 2-5c0-1 0-2 1-1l1-1v-2l1 1 1 2v1c-2 0-2 0-1 1h4c5-1 7-1 7 2l1 3 1-4c-1-5-4-10-6-8v-1c4-6 9 2 9 13-1 10 0 12 3 14 4 2 4 5 0 7-4 1-6 4-5 5 1 0 11-2 13-4l8-2c4 0 4-1 4-2l1-2 1 1c-2 2 0 1 3-1 2-2 2-2 3-1 2 3 1 4-2 4l-4 3c-1 2-2 3-8 4h-9c-7 1-10 3-10 7 0 7-3 10-5 6h-4c-2 1-3 1-2 2l1 2 3 2 1 1v2c1 1-1 2-3 0l-1 1c0 2 1 2 5 2 6-1 10-4 10-6-1-2-4-2-5 0s-1 2 0 0c0-4 1-4 8-7l6-2 3-1 4-1 16-3 3 1-3-1c-4-1-4-3 0-2l2-1h3c2 2 3 2 9 2l5 2 4 1 3 1-4 1c-3 1-3 1 5 1 9 0 17-2 19-5l4-2c3-1 3-2 3-5 0-5 2-6 6-4l8 2 5-1c3 0 0-3-3-3l-3-1 7 1a18 18 0 0012 4h19c4 0 8 0 7-1v-2l20-1a448 448 0 0027-1c1 0 2 0 1-2 0-2-2-2-42-2l-49-2c-8 0-9 0-11 2-3 3-6 4-6 1l-7-9c-4-3-5-3-3 1 1 2 1 2-2 4-3 3-4 4-4 2 1-2-3-6-5-5 0 0-2-1-2-3-1-3-1-3-6-3-6 0-15-2-17-4-1-2-1-3 1-6 2-2 2-4 2-7l-1-8-2-6c-1-1-3-3-3-5-2-3-2-3-7-3l-4 1v-11c0-16 1-15-3-15-3 0-4 0-4 2m80 27l-1 27-1 9h45l45 1 1-2c3-5 2-43 0-39h-1l-8-1h-7l-1 2c0 3-4 6-7 5l-22-1h-22v-6l-11-1h-11l1 6m-272 14l11 7c14 8 16 10 9 10-8 0-13 2-13 5 0 2 3 3 10 0l8-2c2 0 2 0 1-3v-19h-13c-12 0-13 0-13 2m104-1l-13 1 4 1 6 4 4 3c2 0 3 2 4 3 0 2 6 5 7 3l1-8 1-8-14 1m-146 12l1 7v6c0 3 0 4 3 4 2 1 2 1 2-2v-4l4-8c1-6 0-7-5-7h-6l1 4m-30 43c-8 3-11 5-8 6 2 1 2 1-1 1-2 1-5 2-6 4l-2 1c0-1-1-1-3 1l-3 2h5l14 1c9 0 9 0 9-2l1-5-1-2-1 2-1 1-1-2-1-4c-2-1 1-4 6-5l3-2-10 3m8 8l-1 4c0 4 3 5 22 5h11v-3a33 33 0 010-6 3 3 0 01-4 3l-4-1h-10c-5 1-5 0 0-1l2-2h-4c-4 2-8 2-11 0l-1 1m115 2c-5 2-5 3-5 6l1 3h12c13 1 13 1 13-4 1-4 0-4-10-4-2 0-4-1-3-2 1-2-3-2-8 1m48 3c-4 4-6 4-8 3-1-2-10-2-10-1h-3l-4 2c-3 2 1 3 17 3 15 0 16-1 16-3s-2-7-4-7l-4 3m41 23l-1 5v1l1 13c0 14-1 17-3 16s-1 0 0 4c2 4 2 4 0 53l-4 56v8h6c6 0 10-2 10-4h-2c-2 3-2 2-2-2l3-6c2-2 3-5 1-5l1-4 3-4c2 0 2-3 2-14 0-9 1-11 2-11l2 4v3l1 3a4 4 0 01-1 4v6l1 6 1-18v-16c-2 0-2 1-2 3 0 4-2 4-4 0-2-3-1-14 1-14l1-1 2-2 1-1 4-1c3 0 3 0 1-1s-2-2-2-5c0-2-1-3-4-3s-5-2-4-6l-1-3 1-3c2-2 2-3 1-5l-1-3-1-2-1-7-2-5c-2-3-1-10 1-8l1-1 4-1 3-1c-2-1 2-3 8-3h6l-4-1c-4-1-7-6-4-6l1-1-9-1c-15-1-16-3-16-14l-1-5c-1-1-1 0-1 3m135 20v9l-3 27a8611 8611 0 01-12 98c0 2 112 3 115 1 1-1 2-10 0-10l-1-10c1-17 1-18-5-21l-5-2-1-1-1-1h-4v3l-1-1c1-2-1-1-2 1h-10l-2 1-1 2v2a3 3 0 010 3l-2 1c-1 2-15 3-23 1l-3-1 3-1 6-1c3 0 3 0 2-1h-5l-2-1 2-1h2c2 1 8 0 9-1h-2c-4 0-2-2 3-4 4-2 5-2 5-1v2l1-1 2-3a3 3 0 015 2v-2c-1-1 0-2 3-3l3-2-2-2c-4-3-4-5 0-5 4 1 2 0-18-11-15-9-16-9-21-9l-5 1 15 8a82 82 0 0017 8l-1 1-1-1 7 5c7 4 7 3 2 5l-17 7-18 5c-5 0-5 0-2 1l3 1h-3l-5 1c-1 0-2 0-1 1l-1 1-3 1v-1l2-2 2-2c1-1 1-1-1-1l-5-1h-2l-1-1-3-1-3-1 1-1c1 1 4 0 4-2h-4l-1-2-1 1h-1v-2l1-7v-18c0-4 0-5 2-5 1-1 1-1-2-1-3 1-4 0-3-1l-1-1-1-1c1-2 9-1 11 0l6 1 2-1 12-1h16v-3c1-3-1-3 16-3l6-1c-3 0-3 0-1-1 1-1-1-1-6-1-47-1-55-2-58-4s-3-2-1-2l2-1-4-1-5-1 5-32c1-2 0-2-3-2s-4 0-3 1m-398 8l9 1 15 2 10 1h5l-5-1 11-1 20 1c6 2 20 2 20 1l19-1 20-1h-51c6-1 5-1-5-1l-40-1h-28m390 4c-4 27-5 41-3 39 1-2 1-1 1 3s2 1 2-3v-4l-1 1-1 1-1-3 1-4h1l1 2v1l4-31-2-4c-2-2-2-2-2 2M46 403l-4 3-1 2-2 2-4 4-3 3c0-2-7 3-7 4a5 5 0 003 7h2l2-4 7-7a41 41 0 0011-14v-2l-4 2m246 32v15l-3-1-14-8v-3c0-2 0-2-2 0-2 3-2 3-1 4l6 4c2 2 4 3 5 2l1 1 2 1 1 1 2 3c4 1 4 1 6 21l2 18-1 6h-2c0-2-1-1-3 1-3 3-3 4-1 6 3 4 4 5 14 5h10l-1-3v-4c2-2 3-7 2-7l-2 1c0 2-2 5-3 5l1-12 3-11 3-14c3-11 5-30 4-34-2-7-12-12-25-12h-5l1 15m87-3l-1 23a534 534 0 01-4 45v11h3c3 0 3 1 4-11a11 11 0 011-8l-1-1 1-2v-23l1-17 3-3c2-1 3-3 1-3l-2-2 1-1 1-1v-9l-3-3-5-2v7m-139 1c-3 3-3 3-3 9l1 7 1 13c0 8 1 14 2 15 1 2 1-1 1-19v-21l3-4 4-3h-3l-6 3M8 490l-7 8v6c0 9 3 10 8 5a2 2 0 013-2l1-3c3-2 2-7-2-8-2 0-3-2-1-4l1-2 2-3 2-3-7 6" tabindex="-1" itemprop="bold" style="fill: rgb(40, 40, 51); fill-opacity: 0.85; fill-rule: evenodd; color: rgb(159, 159, 157);"></path></svg>