<svg id="16282281824-posters-1654102179771" itemscope="" itemtype="/posters" itemid="/+16282281824/posters/1654102179771" viewBox="0 0 709 400" preserveAspectRatio="xMidYMid slice" tabindex="0" xmlns="http://www.w3.org/2000/svg"><defs class="gradients"><g class="radial"><radialGradient id="16282281824-posters-1654102179771-radial"><stop itemprop="radial" stop-color="hsla(60, 2%, 52%, 1.00)" offset="0%"></stop><stop itemprop="radial" stop-color="hsla(60, 2%, 53%, 1.00)" offset="15%"></stop><stop itemprop="radial" stop-color="hsla(60, 3%, 52%, 1.00)" offset="30%"></stop><stop itemprop="radial" stop-color="hsla(51, 3%, 54%, 1.00)" offset="45%"></stop><stop itemprop="radial" stop-color="hsla(60, 3%, 55%, 1.00)" offset="60%"></stop><stop itemprop="radial" stop-color="hsla(60, 3%, 51%, 1.00)" offset="75%"></stop><stop itemprop="radial" stop-color="hsla(60, 4%, 48%, 1.00)" offset="90%"></stop></radialGradient><radialGradient id="16282281824-posters-1654102179771-radial-background"><stop stop-color="hsla(60, 2%, 80%, 1)" offset="0%"></stop><stop stop-color="hsla(60, 2%, 80%, 1)" offset="15%"></stop><stop stop-color="hsla(60, 3%, 80%, 1)" offset="30%"></stop><stop stop-color="hsla(51, 3%, 80%, 1)" offset="45%"></stop><stop stop-color="hsla(60, 3%, 80%, 1)" offset="60%"></stop><stop stop-color="hsla(60, 3%, 80%, 1)" offset="75%"></stop><stop stop-color="hsla(60, 4%, 80%, 1)" offset="90%"></stop></radialGradient><radialGradient id="16282281824-posters-1654102179771-radial-light"><stop stop-color="hsla(60, 2%, 66%, 1)" offset="0%"></stop><stop stop-color="hsla(60, 2%, 66%, 1)" offset="15%"></stop><stop stop-color="hsla(60, 3%, 66%, 1)" offset="30%"></stop><stop stop-color="hsla(51, 3%, 66%, 1)" offset="45%"></stop><stop stop-color="hsla(60, 3%, 66%, 1)" offset="60%"></stop><stop stop-color="hsla(60, 3%, 66%, 1)" offset="75%"></stop><stop stop-color="hsla(60, 4%, 66%, 1)" offset="90%"></stop></radialGradient><radialGradient id="16282281824-posters-1654102179771-radial-regular"><stop stop-color="hsla(60, 2%, 44%, 1)" offset="0%"></stop><stop stop-color="hsla(60, 2%, 44%, 1)" offset="15%"></stop><stop stop-color="hsla(60, 3%, 44%, 1)" offset="30%"></stop><stop stop-color="hsla(51, 3%, 44%, 1)" offset="45%"></stop><stop stop-color="hsla(60, 3%, 44%, 1)" offset="60%"></stop><stop stop-color="hsla(60, 3%, 44%, 1)" offset="75%"></stop><stop stop-color="hsla(60, 4%, 44%, 1)" offset="90%"></stop></radialGradient><radialGradient id="16282281824-posters-1654102179771-radial-bold"><stop stop-color="hsla(60, 2%, 13%, 1)" offset="0%"></stop><stop stop-color="hsla(60, 2%, 13%, 1)" offset="15%"></stop><stop stop-color="hsla(60, 3%, 13%, 1)" offset="30%"></stop><stop stop-color="hsla(51, 3%, 13%, 1)" offset="45%"></stop><stop stop-color="hsla(60, 3%, 13%, 1)" offset="60%"></stop><stop stop-color="hsla(60, 3%, 13%, 1)" offset="75%"></stop><stop stop-color="hsla(60, 4%, 13%, 1)" offset="90%"></stop></radialGradient></g><g class="vertical"><linearGradient id="16282281824-posters-1654102179771-vertical" x1="0" x2="0" y1="0" y2="100%"><stop itemprop="vertical" stop-color="hsla(60, 2%, 52%, 0.56)" offset="0%"></stop><stop itemprop="vertical" stop-color="hsla(60, 2%, 53%, 0.56)" offset="15%"></stop><stop itemprop="vertical" stop-color="hsla(60, 3%, 52%, 0.56)" offset="30%"></stop><stop itemprop="vertical" stop-color="hsla(60, 3%, 54%, 0.56)" offset="45%"></stop><stop itemprop="vertical" stop-color="hsla(53, 3%, 55%, 0.56)" offset="60%"></stop><stop itemprop="vertical" stop-color="hsla(53, 3%, 51%, 0.56)" offset="75%"></stop><stop itemprop="vertical" stop-color="hsla(60, 4%, 48%, 0.56)" offset="90%"></stop></linearGradient><linearGradient id="16282281824-posters-1654102179771-vertical-background" x1="0" x2="0" y1="0" y2="100%"><stop stop-color="hsla(60, 2%, 80%, 1)" offset="0%"></stop><stop stop-color="hsla(60, 2%, 80%, 1)" offset="15%"></stop><stop stop-color="hsla(60, 3%, 80%, 1)" offset="30%"></stop><stop stop-color="hsla(60, 3%, 80%, 1)" offset="45%"></stop><stop stop-color="hsla(53, 3%, 80%, 1)" offset="60%"></stop><stop stop-color="hsla(53, 3%, 80%, 1)" offset="75%"></stop><stop stop-color="hsla(60, 4%, 80%, 1)" offset="90%"></stop></linearGradient><linearGradient id="16282281824-posters-1654102179771-vertical-light" x1="0" x2="0" y1="0" y2="100%"><stop stop-color="hsla(60, 2%, 66%, 1)" offset="0%"></stop><stop stop-color="hsla(60, 2%, 66%, 1)" offset="15%"></stop><stop stop-color="hsla(60, 3%, 66%, 1)" offset="30%"></stop><stop stop-color="hsla(60, 3%, 66%, 1)" offset="45%"></stop><stop stop-color="hsla(53, 3%, 66%, 1)" offset="60%"></stop><stop stop-color="hsla(53, 3%, 66%, 1)" offset="75%"></stop><stop stop-color="hsla(60, 4%, 66%, 1)" offset="90%"></stop></linearGradient><linearGradient id="16282281824-posters-1654102179771-vertical-regular" x1="0" x2="0" y1="0" y2="100%"><stop stop-color="hsla(60, 2%, 44%, 1)" offset="0%"></stop><stop stop-color="hsla(60, 2%, 44%, 1)" offset="15%"></stop><stop stop-color="hsla(60, 3%, 44%, 1)" offset="30%"></stop><stop stop-color="hsla(60, 3%, 44%, 1)" offset="45%"></stop><stop stop-color="hsla(53, 3%, 44%, 1)" offset="60%"></stop><stop stop-color="hsla(53, 3%, 44%, 1)" offset="75%"></stop><stop stop-color="hsla(60, 4%, 44%, 1)" offset="90%"></stop></linearGradient><linearGradient id="16282281824-posters-1654102179771-vertical-bold" x1="0" x2="0" y1="0" y2="100%"><stop stop-color="hsla(60, 2%, 13%, 1)" offset="0%"></stop><stop stop-color="hsla(60, 2%, 13%, 1)" offset="15%"></stop><stop stop-color="hsla(60, 3%, 13%, 1)" offset="30%"></stop><stop stop-color="hsla(60, 3%, 13%, 1)" offset="45%"></stop><stop stop-color="hsla(53, 3%, 13%, 1)" offset="60%"></stop><stop stop-color="hsla(53, 3%, 13%, 1)" offset="75%"></stop><stop stop-color="hsla(60, 4%, 13%, 1)" offset="90%"></stop></linearGradient></g><g class="horizontal"><linearGradient id="16282281824-posters-1654102179771-horizontal" x1="0" x2="100%" y1="0" y2="0"><stop itemprop="horizontal" stop-color="hsla(60, 2%, 53%, 1.00)" offset="0%"></stop><stop itemprop="horizontal" stop-color="hsla(60, 2%, 53%, 1.00)" offset="15%"></stop><stop itemprop="horizontal" stop-color="hsla(53, 3%, 55%, 1.00)" offset="30%"></stop><stop itemprop="horizontal" stop-color="hsla(54, 4%, 49%, 1.00)" offset="45%"></stop><stop itemprop="horizontal" stop-color="hsla(55, 5%, 52%, 1.00)" offset="60%"></stop><stop itemprop="horizontal" stop-color="hsla(56, 7%, 47%, 1.00)" offset="75%"></stop><stop itemprop="horizontal" stop-color="hsla(56, 6%, 42%, 1.00)" offset="90%"></stop></linearGradient><linearGradient id="16282281824-posters-1654102179771-horizontal-background" x1="0" x2="100%" y1="0" y2="0"><stop stop-color="hsla(60, 2%, 80%, 1)" offset="0%"></stop><stop stop-color="hsla(60, 2%, 80%, 1)" offset="15%"></stop><stop stop-color="hsla(53, 3%, 80%, 1)" offset="30%"></stop><stop stop-color="hsla(54, 4%, 80%, 1)" offset="45%"></stop><stop stop-color="hsla(55, 5%, 80%, 1)" offset="60%"></stop><stop stop-color="hsla(56, 7%, 80%, 1)" offset="75%"></stop><stop stop-color="hsla(56, 6%, 80%, 1)" offset="90%"></stop></linearGradient><linearGradient id="16282281824-posters-1654102179771-horizontal-light" x1="0" x2="100%" y1="0" y2="0"><stop stop-color="hsla(60, 2%, 66%, 1)" offset="0%"></stop><stop stop-color="hsla(60, 2%, 66%, 1)" offset="15%"></stop><stop stop-color="hsla(53, 3%, 66%, 1)" offset="30%"></stop><stop stop-color="hsla(54, 4%, 66%, 1)" offset="45%"></stop><stop stop-color="hsla(55, 5%, 66%, 1)" offset="60%"></stop><stop stop-color="hsla(56, 7%, 66%, 1)" offset="75%"></stop><stop stop-color="hsla(56, 6%, 66%, 1)" offset="90%"></stop></linearGradient><linearGradient id="16282281824-posters-1654102179771-horizontal-regular" x1="0" x2="100%" y1="0" y2="0"><stop stop-color="hsla(60, 2%, 44%, 1)" offset="0%"></stop><stop stop-color="hsla(60, 2%, 44%, 1)" offset="15%"></stop><stop stop-color="hsla(53, 3%, 44%, 1)" offset="30%"></stop><stop stop-color="hsla(54, 4%, 44%, 1)" offset="45%"></stop><stop stop-color="hsla(55, 5%, 44%, 1)" offset="60%"></stop><stop stop-color="hsla(56, 7%, 44%, 1)" offset="75%"></stop><stop stop-color="hsla(56, 6%, 44%, 1)" offset="90%"></stop></linearGradient><linearGradient id="16282281824-posters-1654102179771-horizontal-bold" x1="0" x2="100%" y1="0" y2="0"><stop stop-color="hsla(60, 2%, 13%, 1)" offset="0%"></stop><stop stop-color="hsla(60, 2%, 13%, 1)" offset="15%"></stop><stop stop-color="hsla(53, 3%, 13%, 1)" offset="30%"></stop><stop stop-color="hsla(54, 4%, 13%, 1)" offset="45%"></stop><stop stop-color="hsla(55, 5%, 13%, 1)" offset="60%"></stop><stop stop-color="hsla(56, 7%, 13%, 1)" offset="75%"></stop><stop stop-color="hsla(56, 6%, 13%, 1)" offset="90%"></stop></linearGradient></g></defs><rect itemprop="background" width="100%" height="100%" tabindex="-1" id="16282281824-posters-1654102179771-background" fill="url(#16282281824-posters-1654102179771-radial-background)"></rect><path id="16282281824-posters-1654102179771-light" d="M0 45c0 25 0 44 1 43 0-3 2-4 2-2h3c3-1 8 3 6 6l1 4 1 5c0 4 0 5 2 4 1 0 0 2-3 5l-3 5 1 2c-1 2 0 4 2 4s2-1 1-3 1-3 6-3c4 0 4 0 3 2 0 3 0 3 2 2l2-2 1-1 1-1h1l1-1c0-2-1-2-2-1l-3-1c0-1 3-2 8-2 2 0 3 0 3-3 0-4-1-4-3-4s-2 0 0-1l3-2c2 0 2 0 1-1v-2l3-2c1-2 0-1-5 2l-7 4-2 2c-1 1-1 1 1 1l2 2c-1 2-7 3-9 2s0-6 2-7l2-1c0-2 5-7 7-8 1-1 2-1 1-2l1-1c1 1 5-4 5-6s-3-1-4 1-2 3-3 2l-1 1-2 4c-2 2-2 2-5-1-4-3-4-4 1-4 4 0 4-2-1-3-6-1-8-2-4-2 3 0 3 0 3-2-1-3 1-6 4-6s4-1 4-6l2-14c1 0 7 5 7 7l2 4c2 3 2 3 0 5-2 0-2 1-2 2v3l2 2 1 1h1v2c0 3 0 3 2 2s7 0 7 3l-4 5a20 20 0 00-6 6v1l2 1h2c2 3 8 3 8 1-1-1 0-3 1-4 3-2 6-1 6 1l3 3c4 3 3 4-4 6l-4 2-3 2c-3 1-4 3-2 3s6 3 5 5c0 2 0 2 3 0 3-1 3-2 1-2-3-1-4-3-2-3l2-1c0-2 7-3 8-2 2 4 4 11 3 12v1h1c0-2 3 1 5 6 2 3 2 4 5 3h2l-3-3-3-5-1-2v-3l5 5 7 8 3 3-3-1-2-3-2 4v5l-2 2c-2 0-3 1-3 2l-2 1-4 3-4 2-1 2h-1c-1 0-1-2 1-3v-4l-1 1h-2l-6 6 3 1c1 0 2 1 1 2l-7 4-1 1-2 1-2-2-1-3v-2h2c0 1 1 2 4 2s3 0 2-1l-1-2-6-1c-2 0-4-2-4-4s-1-3-3-1v5c-1 2-1 3 1 3l1 1 2 3 1 2 1 1c1 1 1 1-2 3-3 0-5 2-6 3l-4 2c-2 0-3 1-4 3l-3 3-4 2-3 2-1 1h5c4-1 4-2 2-3l7 1c2 1 8 0 8-1l3-1 3-2c1-3 9-4 12-2 5 4 3 9-2 6-1-1-2 0-2 2l-1 2c-1 1 0 1 1 2l4 1-1-1-1-1 5-1c7 1 8 2 6 3v1l1 2c-1 2-1 2 1 1 1-2 1-2 2-1l3 3v2c-1 1 0 5 1 7l-1 1c-2 1-2 1-2-1 1-1 0-2-1-3h-5l1 1c2-2 3 2 2 4v2c1-1 7 2 7 3l4 1c4 0 6-3 3-5l-1-2c1-2-1-6-4-6-2 0-2 0-1-3 0-2 0-3-2-5-1-1-1-1 2-1s4-1 4-2h2l3 2c2 0 3 4 2 9l1 10h1c2-5 2-6 3-4 0 2 1 2 2 1h6l6-1c4-2 7-2 7-1 0 2 4 6 5 6 2-2-1-8-4-8l-2-1c-1-2-1-2 2-1h4c2-1 2-1 2 2l2 16c0 2 0 2-2 1-3 0-6 1-6 4l4 1h5l-4 3-3 4-2 5c-3 4-7 11-8 16l-2 4-1 2h-2v-2l3-4 2-8c3-6 0-13-6-17-2 0-3-2-3-3-1-3-3-3-4 0 0 1-1 2-4 2-6 1-9 7-9 17l1 9-2 3-1 3 2-1 2-1-2 3-2 2 3 6c4 7 4 9 1 6s-4-3-3 0c1 2 1 2-1 1-2 0-2 0-1 2 2 5 1 5-4-1-4-4-5-6-4-6 2-1 5-5 5-8l1-1c1-1 2-2 1-4l1-4c2-1 1-13-1-16 0-2-3-4-6-6-5-3-6-4-6-7 0-4-2-4-3 0l-5 7c-6 5-9 11-8 19s0 9-7 8h-6l-4-7c-3-9-4-13-4-20-1-4-1-6-3-7l-1-3c0-3-2-5-3-4-1 0-3-3-4-7l-5-10-7-18-7-19c-3-5-3-6-1-7v-1c-2 1-2 0-2-5 0-16 0-17 2-17s4-3 2-4l-2 1c-3 1-3 1-3-8L0 255v145h67l68-1c2-3 10-4 9-2l-4 2c-2 1 125 1 283 1h287V0H477L249 1l6 1h5l19 1h-2l-2 1 5 1c3-1 4-1 4 1 0 1 2 1 2-1 1-2 1-2-1-2l-2-1h40l-2 1c-2 0-3 0-2 4 0 2 0 4-2 5v1l2-1 3 2 2 2-3 2c-2 0-5 2-6 4l-3 3-1 1-2 3c-1 1-1 1 0 0l-2-2v-2c1-1 1-1-1-1s-2 0-2 2l-1 2-1 2v3c-1 1-1 2 1 3l1 4c-1 2 0 3 2 2 1-1 3 0 5 2 3 3 5 4 5 3 2 0 2-2 1-2-1-1 0-1 2-1 4 1 6 2 4 3l4 1 7 1 3 2 3 2c1 2 4 3 6 4 4 2 7 8 7 15 1 6 2 10 4 10 1 0 4 5 5 9l1 6c0 4 0 5-2 7l-3 5-1 3-3 6c0 3-2 6-3 6-2 2-3 5-2 7 1 1 1 1 0 0l-2 1-1 1-2 1 2 1 1 2c0 2 1 2 3 1 3-3 7 1 6 6 0 2 3 1 7-3l5-8c2-8 3-7 3 1-1 12-4 18-11 22-3 2-4 8-1 7l2-1 1-2v-3c1-1 1 0 1 3 0 2 0 4 1 3h2l1-4c-1-6 1-9 5-8 2 0 2 0 1-2-3-3 2-14 5-11l-2 2-1 2v20c-1 3 2 5 5 2 2-1 2-1 3 1 1 3 3 3 3 0 0-2 0-2 1 0 1 1 1 1 2-1l1-2v3c1 4 1 5-4 4h-6l-4-1c-2 0-3 0-3-4-1-3-3-3-3 0l-1 5-2-2-1-2c-1-1-6 0-6 1l1 1c1-1 2 0 2 3 0 2-1 3-2 3v4l1 2c1 1 1 0 1-1h1l3 4c4 4 4 5-1 7l-4 3c-1 1-1 0-1-3 0-6-4-11-9-11l-5-1c1-3 2-3 3-2 0 2 3 3 3 1l-1-1-2-1-2-1h-2l1-1c2-1 2-1 1-2-3 0-7 5-5 7 2 1 1 2-1 2s-2 0-1 2a3 3 0 011 5l-2-1-4-2c-3 0-4-1-5-4-1-4-1-4-2-2 0 2-1 2-2 1h-5l1 2v1l1 1-3 1-3 1v1a1 1 0 110 2c-3 0-2 2 0 3 2 0 2 1 1 3l1 2c1-1 1-1 0 0l-2 2a1 1 0 000 3l1-1 2-1h2l2-1 1-3c-2-7 3-12 9-9 4 1 4 2-1 3-5 0-6 4-3 10l1 4-1-4c0-4 0-4 2-4s3 3 1 5c-3 2 1 5 4 3l5-2c3 0 3-1 3-5l1-2 1-2v-1h3c0-2 2-1 2 1l-1 1-1 1 2 1 2 1h-2c-3 0-3 0-2 1v3l-2 1 1 1 4 3c2 1 3 2 5 1h3l-3 1-3 2-2 1c0 3 3 2 7-1 5-3 7 1 6 10-1 4-1 4-1 1 0-4-2-10-3-10l-1 2c1 3 3 22 2 23l-3 1c-2 0-3 0-2 1l4 1h2l2 1c2 0 2-1 1-6v-6l1-5c-1-5 1-3 3 3l2 7 1 3v3c3 0 3-4 1-9-2-3-2-5-1-10l-1-7c-2-1-1-2 1-4 2-1 9 4 9 7l2 1c2 0 1-3-3-6l-4-5c1 0 6 3 7 6 1 1 1 1 2-1l4-6c3-3 4-3 4-12 0-11 2-15 8-15l4-1c1-1 1-1 0 0l1 3c3 2 2 7-1 7-2-1-2-1-2 1l2 1c2 0 3 2 1 4l-1 2-2 2c-3 1-3 4 0 6l5 9 6 15c2 4 1 5-1 4l-3-6-1-4v6l-1 10c-2 0-3-3-2-4 2-1 0-4-2-4s-3-2-1-2h-1c-2 0-3-2-2-5h-4v11l3-1 4-2c2 0 3 1 1 3v6c0 2 0 2 3 1l3 1-2 1-3 2c-1 2 1 3 2 1l6-2c5 0 6-2 4-5v-3l1 1c0 2 5 4 14 5h7l-7-1c-8-1-10-3-7-4 2-2 10-16 9-17 0-1 3-4 4-3 2 1 4-2 3-5 0-3 1-3 4 0l2 3-2-3-3-3v-3h3l-1 1h-1c0 1 2 2 5 1 3 0 7 2 7 5l-2-1c-2-2-6-4-6-2l3 4 4 4-2 2-6 3c-5 1-4 2 3 2l6 1v-5c0-4 0-4 2-3l2 4 4 6 3 6 2 1c2 0 3 1 3 2l-1 1a1 1 0 101 2l1 2c0 1-3 2-3 0h-8l2 3c3 3-1 2-5-2s-12-6-8-2l3 2a7 7 0 016 6h1l4 1 2 1 7 4v-1l-1-1c-2 0-2-1-1-3 0-2 0-3-3-4l-3-2 5 1c1 1 2 1 4-2l3-3-3-3c-3-4-2-7 3-9l6-4c4-2 13-1 16 1 1 2 2 2 3 1v3c-2 3 0 4 2 2l2-2-1 2v3c2 4-2 7-6 6l-2 1 3 1 2 1-1 1-2 4c0 2-2 4-3 5v3h-3l2 2c3 2 3 4-2 4l-3-1-2-3c-2-5-6-3-6 3l-1 6-1 3 2-3 2-2v3c1 9 0 14-2 13l-3 1h-1a12 12 0 014-7l-2-1-3 1 1 1a1 1 0 11-1 2l-1-2c0-2 0-2-2-2-2 1-3 1-3-1l-3-1c-2 1-3 0-1-3h3c1 1 1 0 1-2 0-4-1-5-2-3 0 2 0 2-2 0l-2-1h-3c-3-2-3-5 0-5l1 1v1l2-1c1-1 2-2 3-1 2 1 1-1-1-4l-5-2-7-4-4-3a1 1 0 100 2c-3 0-3 1-2 9v13c-3 8-3 11-2 13 1 1 1 1 1-1 0-3 0-3 2-3 1 1 1 0 1-1l1-8c2 0 3 7 2 12l-1 6-1 2c-1 1-1 0-1-2s0-2-2 2c-2 3-2 16 0 23l-1 3c-1 2-2 2-1-2l-1-4-2 5c-1 6-3 6-2 0 0-3 0-4 2-6 1-1 2-2 1-3v-7l-1-5-1 2c1 3 0 5-2 5-2-1-2 21 0 26v3l-4-2c-4-1-15-10-15-12l-7-9-7-8-1-2c0-2 3-3 5-1s4 0 2-3-1-3 4-2 6 1 6-1l2-4c2-2 2-2-3-7l-6-5a27 27 0 01-9-14l-2-3c-1-4 0-4 3 0l2 2c0-3-7-8-11-9-4 0-5-1-6-2-5-9-8-11-8-7 0 3-2 5-3 3-2-2-3-1-3 3 0 3 0 4-5 9a69 69 0 00-14 25l-1 2-7-7c-5-5-8-9-11-15-2-5-5-10-7-11-4-4-4-7 0-7 3 0 4-3 2-6l1-6 1-16c0 3-3 2-4 0l-3-2-3-2h-6l-3 1-3 2c-2 0-3 3-3 12-1 10-2 12-7 12l-4 1-1-7v-8a9 9 0 00-2-11c1-1 0-2-1-4-2-2-5-15-5-19l3-3 4-1-4 1c-4 0-3 1-5-17l-3-22c-2-7-2-9-1-11a55 55 0 004-19c0-7 2-4 2 5l2 10 1 10 3 13c3 0 0-36-3-40l-2-5-1-4v-4a7 7 0 00-6-9l-1-1a19 19 0 01-6-15l-1-2-1-5-2-6c0-3-2-5-4-4v12c0 12 0 13-6 13-2 0-3 2-1 4l1 9-2 4c-3 3-4 9-5 19 0 6 0 8-2 10l-1 2 3-1 3-4 1-4 2-6v-3l1 3c1 4 3 4 3-1l1-5c2 0 0 17-2 23l-8 10c-5 7-12 19-13 24l-1 9-1 7 4 15c8 11 5 29-4 29l-5 2-8 1-4 1c-1 1 0 1 1 1h8l7 1c1 0 2 0 1 1l-2 1-1 1-1 2-2 3-1 1-1 1 9-3 9-8 4-7c3-2 6-9 6-14l1-4c2-1 4-8 2-8l-2 2c-2 2-3 3-3 0l-2-5a14 14 0 01-2-14c-3 0 2-18 6-21l5-4 6-4 4-5 2-2 4 22 1 10c0 3 0 3-1 2-3-2-4-1-2 2l2 2c3-1 6 22 4 26l-2 9c-1 5-1 8-3 8-2 1-1 14 2 22l2 7 6 8c6 6 8 11 8 22l1 9 2 6-4 3-4 4 2 5 1 6-2 2-4 3-3 2-9 4c-10 4-11 5-17 11-8 7-8 6-6-3v-8l-2-5-3-7-4-7c0-2 2-1 3 1 1 3 5 5 6 4l-1-3c-2-1-2-2 0-5v-8l3 5 3 7h2l-2-7c0-6-2-10-5-12l-1-2 1-3 2-2c2 0 3-1 3-2l2-4c1-2 1-3-6-9l-7-8c1-2-1-5-5-6l-7-5-5-3-1-1-1-1-1 3c0 2-1 2-4 1l-3-2c-2 0 0 7 2 9 1 1 1 1-1 4s-3 3-5-2l-3-7c-1-4-1-4 1-4l2-3 2-4v-4l-1-4c2-2-3-12-7-14-5-3-10-4-8-2v2l2 1 3 1h-3l-5 2c-3 3-4 2-2-1l1-2c-3 1-5 8-4 12 3 10 1 15-6 17-3 1-5 2-5 4l-2 2-1 6-1 5-4-2c-3-2-4-2-3-3l2-2 1-4 1-5v-6a13 13 0 00-12-14c-3 0-4 0-5-3l-2-4-2-2c1-1-1-3-5-3l-5-2-1 1c-2 5-4 3-2-2 4-15 5-18 7-20l3-2-3 1c-2 0-2 0-1-1l2-6 4-16c3-7 4-12 3-14 0-2 0-2-1 0l-10 29-11 37c-3 6-3 7-6 7l-3 2-2 2c-1 1 1-4 3-5l1-4-2-5c0-2 0-2 4-1l5-1c1-2-3-4-6-3h-4v-8l-2-17v-13c-2 0-2-1-2-4s0-4 2-4c0 1 1 1 0 0l1-3c3-4 2-4-1-1l-3 3a155 155 0 01-2-11l-2-13-1-6 3-3 5-3 1-1c1-1 1-1 4 1l3 2v-4c0-2 0-3-2-3v-3h2l2 2 1 2c1 0 2-2 2-5 0-4 1-5 3-6l7-5 5-5 5-3 3-3-2-4-2-5c0-2-6-1-11 1l-4 4c0 1-4 4-6 4s-2 0-1-1l1-3V64c-1-17 0-25 2-25h1c0-3 2-3 2-1v2c2 2 2 2 1 3v1c1 1 2 7 2 22l1 14h2V65l1-2 1-3c-2-8-1-13 2-9h2c2-1 2-1 2 3 1 11 1 13 4 11v-1l-1-2 1-3v-2c-2-2-1-3 2-2 3 0 3 1 2 4v6c1 5 0 9-1 10v1c2-1 2-1 1 1 0 3 1 6 3 6s1 5-1 6l-2 1h2c2 0 2 0 2 11l2 4v1c-2 0-3 2-1 2v16c-2 3-2 8-1 10v3c-2 3 0 8 3 8 1 0 3-6 2-7v-1l1-1-1-7-1-7 1-3c2 0 1-3-1-4l-3-2h2c1 1 1 0 1-1 1-9 1-9 3-4 1 3 2 5 4 5l2 3 2 2 1 2-3-1c-4-3-4-3-4 0v1c-1 0-2 0-2 2l2 1c1-1 1 0 1 1s0 2-1 1l-1 4c2 7 3 11 5 11 1 0 2 2 0 2-1 1 1 9 2 9l1 3 4 19c1 2 2 1 2-2v-3c1 0 2-1 1-4l1-4 1 2 2 1 1-2 1-2c2 0 1-7-1-9v-1l-1-23v-1l2 1 1 2c2 0 2 0 2-2-1-2-1-2 1-1l2-1-3-1c-4 0-4-2-1-3l4-2h-1c-2 1-2 1-2-1 0-3-1-4-3-2h-2l1-3c2 0 5-4 4-8 0-4 3-8 6-8v-3c-1-1-1-1 1-1l3-1-2-1-2-2-1-2-2-1h3l2-1 2-1a3 3 0 00-2-6c-2-1-2-1 0-2s2-1 1-2l-3 1c0 2-3 1-3-1l-3-2-1-1c0-2-2-3-3-1h-1v-1c3-2 2-3 0-2-3 1-4 1-3-2l-1-2-1-1-3-2-3-2-4-2c-4-2-6-4-5-9 0-4-1-5-2-5l-1-1c0-1 0-2-2-2v-5c-2-3-4-3-3 0s-2 2-4-2c-1-3-4-4-5-2l-3 1c-2 0-2-4-1-5s1-1-1-1l-3-2-3-2c-2 0-5-7-5-12 0-3-1-5-2-5h-2c-2-1-6-1 50-2h48l-96-1C96 0 53 0 54 1l1 22 1 22h-4c-3-1-5-1-5-3l-2-2c-3-2-6-10-4-13 2-4 1-17-1-22-2-4-2-4 5-3l6-1-25-1H0v45m0 1v45l1-41 1-39 1 3 2 1c2 1 2 1 1-2 0-3-3-6-4-5L1 4 0 46M2 3c0 2 4 4 6 2l1 1c-1 1 0 3 1 4l1 6 1 2-1 7-1 7v8l2 1c1-1 1-1 0 0-2 2-1 3 1 3s3-8 2-20c0-4 0-5 2-6s3-3 1-3c-3 0-2-2 0-2s3-2 3-4c2-3 4-5 7-5h1l3 2c4 3 4 6 4 14 0 5 1 6 2 3a20 20 0 00-1-14c-1-5-3-6-7-7-3-1-13 0-13 1l-3 6c-1 0-2-5-1-6s-1-2-5-2C3 1 2 2 2 3m56 1l-1 3 1 19v18l3 2c3 1 4 3 2 4v1c0 2-4 4-6 4v4l8 14 4 4 3 5 3 6 4 8 8 10 7 8 2 2c1-1 3 1 2 2s3 8 5 9l4-2 15-8 3-4c0-3 2-4 2-1a2 2 0 003 0l7-5 2-2 2-2 1-1-1-1c-2 0-2-1-2-6l-1-17-1 2-1 1c-2 0-2-1-1-3 1-3 0-7-1-7-4 0-6-7-3-9v-1c-1 1-2 0-2-1l-1 7c0 5 0 8 1 7 3-4 5 4 3 10-1 4-3 3-3-1v-3l-1 8c0 6-1 8-2 8l-1-20c0-19 0-19-2-20-2 0-4-3-2-4l2 1 2 3c2 0 2-49 0-51V4l2-1c0-1-4-2-7-1l-2 1 2 1 2 2h-1c-2-3-2 1-3 19a119 119 0 01-1 23l-2 7-1-4c0-2 0-3-1-2h-1l1-2c2-1 2-7 1-15h-1c-2 1-2 0-2-2 0-3 0-3 1-1 2 3 2 2 2-4v-9c1-3-3-9-5-8v30c0 26-1 31-2 28l-5-2-6-2V43c0-3 0-3 1 2s1 4 1-3c0-6 0-8-1-6l-1 4v-4l-1-19 1-15h-9C77 1 69 2 70 3c0 2-2 1-4 0-2-3-7-2-8 1m305 0l3 2-4-1-4-2-3-1h-2l3 2 3 3 3 1c2 0 2 1 1 3h-2c0-2 0-2-2-1-4 3-8 3-9 1a1 1 0 10-1 1 2 2 0 010 3l-1 1c1 2 1 2 8 2 4 0 5 0 5 2l2 1 18 3h4l6 1c4 1 4 1 4-1-1-2-1-2 1-2 3 0 4 2 1 2v1l4-2c2-2 2-2 0-2l-6-3-17-9-6-3-9-4-3-1 3 3m-63 0c0 2 2 6 4 6v2a3 3 0 004 4v-5c0-2 0-3-2-3s-2-1-2-4l-2-1-2 1m183 7c-1 1 1 6 3 6l1 1c0 3 3 4 5 3h3c2 0 1-2-2-2l-4-2-2-2-3-3-1-1m-80 14c-2 1-2 1 2 2a141 141 0 0112 3l5 1 8 3 7 2h2l-2-1-4-2c-3 0-13-5-14-6 0-2-2-1-2 1 0 1-1 1-3-1l-3-1h-3c-3-2-3-2-5-1m111 17l2 3 1 5c1 4 5 8 8 6 1-1 1-1-1-2l-5-4-2-8h-3m-146 7c0 1 1 4 4 5a20 20 0 0111 14l1 2 2 2c1 0 1 2-1 2v3c2 2 2 4 0 5-1 1-3 16-1 20 0 2 7 1 9-1l5-4c3-2 4-4 1-4l-2-2h-1c0 3-3 2-3 0-1-2-2-2-3-1-3 1-5-1-2-3 1-1 2-3 2-7 2-12 2-13 4-13l1-1h-2l-1-1v-2c-2-3-2-8 0-7l2-1c0-1-1-2-5-1-4 0-4 0-5-3 0-3 0-3-8-3l-8 1m147 8l1 2 4 3 4 3c3 0 12 4 14 6 2 1 2 2 1 4 0 2 0 3 3 5h2l1-2c1 0 1-2-1-5-3-7-5-8-13-10-5-1-8-2-10-4-4-3-5-3-6-2M10 68l-1 3c-2 0-2 4 0 5 2 0 1 2-1 2v1c1 1 8 0 7-1l1-1c2-2 1-6-1-7s-2-1-1-2c1 0-1-4-3-4l-1 4m544 5c0 2 1 3 2 3l2 3c0 2 2 5 4 5s1-5-2-9c-4-5-5-6-6-2M407 84l-2 2c2 2 1 3-1 3l-3 1h2c4-1 2 3-6 10-7 5-11 8-10 5l-2-1c-4 0-6 4-3 5l-2 6c-6 10-5 17 3 27 4 4 7 8 7 11l2 5 1-4v-4l-10-15a18 18 0 0110-21c2-2 4-3 4-1 0 1 4 2 5 1h1l1 2 1-1h3c3 0 3 0 3-3l-2-4c-2-1-2-4 0-6 6-7 9-20 5-19h-3c0-1-1-1-4 1m134 3c-1 1 3 5 5 5l4 2c3 2 4 1 2-3-3-3-8-6-11-4M0 255c0 91 1 121 1 81l1-64 1 1h4l-4-3-2-1v-35l5-1 9 1 4 2v-8l1-10c1-2 1-4-2-9l-9-25-4-8v2l-1 1v-6l-1-4-1-2-1-29-1 117m390-136c-5 5-8 16-4 16v-3l1-3c2 0 2 0 1 1v2h1l1-2-2-3c-1-2-1-2 2-1 1 0 2 0 1-1-3-2 3-10 7-8h2l-1-1-2-1c0-2-3-1-7 4m-355 5h-3c-3-1-6 2-4 4 1 0 2 1 1 2l1 1v5l-2-2-2-1c-1 1-3 0-3-1-1-2-2-2-4-2h-4c-2-2-3-1-2 2 0 2 1 3 2 2l2 1c0 3 2 3 4 2h2v1l-1 1c0 2 3 4 4 2l1-1 4-2c2-2 4-3 4 0h6c2-2 1-3-1-3s-2 0-2-2c1-2 0-3-1-5-3-2-3-3 0-3 1 0 2 0 1-1 0-2-1-2-3 0m177 2l-2 5-1 3-1-1-1-2-1 2 2 9c0 7 0 8 2 8 1-1 2 0 3 1 2 2 1 3-2 3-3-1-3-2-2 15l-1 6c-2 2 2 9 4 7v-3c-1 1-2-6-1-7s1-1 1 1 3 7 3 5l-1-6-1-3v-2l-2-2 1-2 2-1-2-2-1-2c0-2 2-3 3-2l2 5 3 9 1 3c0-9 0-11 2-11l1-3c0-5 2-3 6 6s5 11 2 10l-4 2c-2 1-3 2-4 1-2-1-3 0 0 2 1 1 1 1-1 3l-2 8c0 5 0 6 1 4l1-5c-1-2 1-6 3-7l2-2c1-3 7-4 9-2l2 2 2 2c0 2 1 3 2 3v-5c0-1 0-2-2-3-2 0-3-2-3-3l-3-7c-1-2-2-5-1-7l-1-4c-2 0-6-4-6-6h5v-1l1-2-4 1c-4 1-11 3-8 1 2 0 1-2-1-2l-1-2c1-2 0-3-1-5l-1-2v-3c-2-3-1-5 1-5v-1l-1-4c-1-4-1-4-4 0m221-1v3c0 6-7 17-13 18a8 8 0 00-7 12c1 2 2 4 5 5 4 3 5 5 3 8h-1a4 4 0 00-2-4h2c0-1-3-3-5-3v5l-1 3c-2 2-2 5 0 4a1 1 0 111 2l-2 2h3c2-3 10-1 7 2v7c1 5 1 5-3 8-3 2-3 3-2 4l2 3 1 3c2 1 2 10 1 10-3 1 1 11 4 11 2 0 2 0 1-3v-12a15 15 0 00-2-13l1-6c0-11 0-10 4-10 6 0 7-2 3-5-2-2-6-3-8-1 0 1-1 1-2-1-2-1-2-1 0-5 2-3 3-7 1-9-2-1-3-4-1-3l3 4c1 2 2 3 2 1-1-2-1-2 1-1 2 0 2 0 1-2l-3-1-2-2c0-1-1-2-2-1-1 0-1-1 1-4a11 11 0 0113-4l1 1v1l1-3 7-3h1l2-5 4-8 1-5v-2l-21-1m-23 3c0 4-2 9-2 5 0-2-1-2-3-1v2c2 2 2 7 1 9v1a1 1 0 010 3v2l-1 2-1-4-1-5-3-5c-2-3-2-4-4-3-1 0-2 0-2-2h-2c-2 2 0 7 5 12 3 3 3 9-1 13l-2 4c0 2 6-3 7-7l4-2c3 0 3 0 3-3l2-3 1-10c0-9-1-16-1-8m-266 10c-1 8 0 12 2 12v-13c0-10-2-9-2 1m-88-4c-1 3 0 4 4 4 2 0 3 0 3 2 0 3 1 4 3 3v-2l-2-2c0-2 0-3-2-3l-3-2h-3m331 5l3 4c2 1 5 6 5 9 0 2 0 2 1 1 2-3 1-6-3-10l-3-5-3-2v3M9 147v2l2 3c0 2 0 2 3 3 4 0 5-2 1-3-3-1-2-3 1-3 2 0 2 0 0-1l-2-1H9m443 0c-1 7 0 10 2 11 3 1 3 1 3-3s-5-11-5-8m-357 3l-5 5-7 4-2 1-6 3-3 3v2l3 2c2 2 2 1 8-4l6-5 4-3 4-3c2 0 2-1 2-3s-1-3-4-2m43 5l-1 3c0 2 0 2 2 2 2-1 3 0 4 2 1 3 3 2 3 0v-4a3 3 0 00-3-2l-1 1-2-2c0-2-2-3-2 0m39-1l1 4v4c-1 1-1 0-1-3 0-2 0-3-1-2 0 2 0 2-2 1-2-2-3 0-1 2l4 10 7 15 3 8 1 1 1 1 1 3c2 1 2-1 0-5l-3-5-5-12a49 49 0 01-3-10h1c2-1 2-8 1-9l-1-2a2 2 0 00-3-1m282 14a8 8 0 002 5h-1l-2 1-2 4c-4 4 0 6 4 2 2-2 2-2 1-3v-2c1-1 1-7-2-10v3m-52-1l-1 2c-2-1-6 2-5 3h-4c-2 3 0 3 5 2l2-1-1-1 3-1c2 0 2 0 3-3l-1-3-1 2m-322 7l-5 4h5l7 2c2 2 3 1 3-3 0-8-2-8-10-3m297-2l1 2c1 1 1 1-1 1-3 0-6 6-6 13l1 8-1 4c-1 5-1 5 1 4 2 0 2-1 2-3-1-2 1-2 2 1h5l-2-2c-1 0-2-1-2-3l-1-9c0-7 1-9 6-9 3 0 3-1 0-3-2-1-2-2-1-2h3c-1-2-5-4-7-2m-265 3c3 3 3 4 0 3-4 0-4 3-1 6l2 4 1 3 1-2h5l-3-2c-2-3-2-5 0-3h2l2-3v-1c-3 0-6-1-6-4l-3-3h-2l2 2m425 4h-2l-1 1 1 1v2c-2 3 0 5 3 6 2 0 2 0 2-2 0-6-1-9-3-8m-195 4c-2 3-2 7 1 5h4l1-2c0-2 0-2 2-1 3 2 4 1 2-3-2-3-7-3-10 1m-145-1l-4 1c-5-1-5 1 0 2s9 6 7 8l-1 2 2-1c3-3 3-4-1-6l-2-5c1-2 1-3-1-1m105 3c3 3 3 3 2 5-2 2-2 3-1 3l2 1 1 2c2 1 1-9-1-11-4-4-7-4-3 0m124 2v2l-2-1a1 1 0 10-2 1v3c-1 1-1 2 1 3 2 2 3 3 2 1l2-4 2-3 1-1c1 0 1-1-1-2-3-1-3-1-3 1m-253 1l2 3v2c-1 1-2 2-1 3l-1 1-1 1h3c1 0 2 0 2 2 0 4 0 4 3 3 2-2 2-3-2-11-2-5-5-7-5-4m36 7l3 3 1 8c-1 9 1 8 3-2 0-4 0-4-3-8-4-3-6-4-4-1m-54 3l-2 7c0 3 0 3 1 0 0-4 5-9 9-8 3 0 6 4 4 7v1l1 3c0 3 0 3 3 2a10 10 0 00-16-12m75 2l-3 5c-3 3-4 5-2 5l1 3c0 2 0 2 1 1l4-5c3-3 3-5 0-8l-1-1m158 6l1 3v2l1-2c1-2 1-2 3-1v3c-1 0-2 0-2 2l2 1c1-1 1-1 1 1-1 2 0 3 1 3 2 0 2-2 1-6-2-6-6-9-8-6m-17 8l1 1c2 0 7 6 8 9 1 2 2 2 3 2 1-1 2-1 2 1 2 4 12 12 15 10 2-2 1-4-1-4-1 1-8-1-8-3l-2-1c-2-1-3-2-4-7 0-3 0-4-1-3v3l-1 1-1-3-6-5-2-1-1-1-2 1m2 7l-1 3c-1 1 0 6 2 6l1 1v1c1 1 1 0 1-2l-1-3v-4h3l-3-3-2-2v3m-97 7v5l1 4v2l1 7c1 4 0 7-1 6l-1 1 2 1 1 1h-4c-3-2-4-2-4 1l2 1 5 1c3 2 3 2 3 0l1-2 1 2c-1 1 0 4 1 4 2 0 2-7-1-18-2-11-5-18-7-18v2m-7 9l1 6c1 1 1 2-1 3l-4 4c-1 2-4 3-3 1 1-1 0-2-1-2v6l-1 4c1 4 3 5 3 1l-1-3 4-5c7-6 7-6 4-17 0-4-2-2-1 2m262 3c-2 0-3 3-1 4 1 0 1 1-1 1l-2 2h8l5-1h-1l-5-4c1-1-1-3-3-2m-55 6l-1 3v2l-3 4v4l2 1c1 2 4-2 4-5s2-5 4-4l1-1c-1-3-2-3-4-1l-2 2v-3c1-3 1-4-1-2m-467 1c-1 1-2 2-1 3l-1 5c-2 3-2 3 0 3 1 0 2 0 1-2l2-1h1c-2-2-1-3 1-3s2 0 1-3-2-4-4-2m520 3l-1 3-1 1-2-2-1-2-1 3-3 5c-4 3-4 5-1 4l2 1-1 1-1 2-2 2v1c2 0 7-4 7-6l2-3a3 3 0 105-5c-1-1-1-1 2-2l2-2c0-2-4-2-6-1m-71 26l2 8c1 1 1 1-1 1s0 5 2 8l7 5c5 3 9 4 6 2v-1l2 2c0 1 2 3 4 3l-1-1-1-2a5 5 0 016 6h2v-2c0-3-1-3-5-6-8-4-12-7-12-9v-4c1-1 3 3 3 6l2 1c2 0 3-1 0-3v-3c1-2 0-8-2-8l-2-1c1-1 0-2-1-3h-1c2 2 1 3-3 3h-3c3-1 3-5-1-7l-3-2v7m160-4l-3 4v4c5-3 7-4 7-7-1-4-2-5-4-1m-477 4l-5 4-3 3 4 2 4 1v1l3 4 4 4c1 2 3 3 5 1 1-1 1-1-1-2h-1v2l-1-2c1-4-1-7-3-5-3 2-4 0-4-4 1-4 2-7 5-7l1-1c-1-2-5-2-8-1M2 281l1 1 4 2c1 1 1 1-2 1H2l3 1a8 8 0 016 2c0-2 3 1 3 3 1 2 5 5 5 3S8 282 5 281H2m123 4v2l1-1c0-1 9 1 10 3h-2c-4-1-5-1-5 1l-1 1-2-1c-2-2-6-2-9 0h1c2 0 3 0 4 2s1 2 2 1c0-2 2-1 2 1h-6v1c0 2-2 3-4 2-1 0-2 0-2 2s-3 5-4 5c-1-1-2 0-1 1l-1 1c-2-1-4 0-3 1l2 1h2c1 2 6-2 6-4l1-1 3-2 5-2 5-1h1a2 2 0 004 0l-3-2c0-2-1-2-2-2l-2-1 5-1c4 0 4 0 3 2 0 2 0 2 1 1h6c2 0 3 0 5 2 3 4 4 4 2 1-4-8-21-17-24-13m69 1l-3 1c-4 0-11 2-11 3-1 1 3 4 5 5v2c-1 2-1 2 2 2 3-1 4-1 5 1 2 3 3 1 1-3-1-3-4-4-3-2l-1 1c-3 0-2-3 1-4 6-3 10-2 11 1 0 2 1 3 2 3l3 2c2 8 13 2 13-7v-3l-2 2-3 5c0 3-1 4-3 2l-5-3-3-3 4 1c3 2 5 2 4 0s-9-5-11-5l-4-1h-2m-83 1l-5 2c-4 1-7 3-11 7l-9 10c-4 3-4 4 1 5 3 0 3 0 2-3 0-2 0-2 1 0 2 1 2 1 1-1v-3l2 2 2 2-1-3-1-3 2 2c3 4 4 3 2-1-2-5-2-5 1-2l2 1a2 2 0 00-1-3l2 1c0 2 2 1 1 0l1-2 1-2h1c1 2 2 1 2-2a2 2 0 014-3h1v-3l1-1h-2m27 13v3c-3 0 0 3 3 3 3 1 3 1-1 1-5 0-7-1-7-4-1-5-13-3-13 2h1c2-3 8-4 8-2a21 21 0 001 5h3l4 1c0 3 4 2 7 0 2-3 2-6-2-7l-2-3-1-2-1 3m404 0c-2 1-4 6-4 9 1 2 3 3 3 0l2-2 2-2h-1c-2 1-1-3 1-4 3-2 1-3-3-1m-346 3l-2 3 4 1 5 1 1 1c0 2 13 3 15 1h-2l-5-1c-1-1-1-1 1-1 3 0 8-2 9-4s1-2-1-2c-3 2-6 2-4 1 1-1 1-1 0 0l-5 1c-3 0-5 2-2 2l1 1c-2 2-4 1-6-2l-3-3-2-1c-2-2-2-1-4 2m307 6l2 8 2 6 2 8 1 4 1-5-1-6v-6c-1 0-2-1-2-3-2-9-7-15-5-6m55-2v3l1 5c0 5 0 5 1 3 2-1 2-1 2 1l1 2 1-5 1-5c2-1 2-6 1-5-3 0-3 1-2 1v3c-2 3-3 3-3-1 1-4-1-5-3-2m-93 4l-1 7 1 3c2 0 2 6 0 8-3 3-5 10-3 10v2c-3 2-4 3-6 0h-3l-2 1c-1 0-1 2 1 3l1 2h2c2-2 4 0 2 3h-2l-1 3c-1 2-1 2-4-5l-5-14c-2-6-2-7-10-11-4-1-8-5-11-7-2-3-4-3-3-2l1 3c-3-1 1 4 4 5l6 6-4-2-4-1 2 2 2 2 2 3c7 5 7 5-1 1l-9-3 4 3c4 4 2 5-3 2-4-4-5-4-1 1l5 7c2 9 6 12 14 10 5-1 13 2 15 6 0 3 7 9 11 11 5 3 9 7 9 9l2 4 3 7 3 4 2 1c0 2 0 2-1 1h-2c-1 2 2 2 4 1 1-1 2-12 0-13l-1-4-2-4-1-7c1-5 0-9-3-9l-1-2-2-4c-6-5-9-17-4-19 2-2 3-5 0-6-2 0-3-3-2-6v-4c-2-3-2-3 0-5v-3l-2-2c0-3-2-1-2 2m131 2l-5 8c0 5-6 9-7 6-1-1-2-1-3 1-2 2-3 5-1 7l1-1c-1-2 1-6 2-6l1 3c-1 4 0 6 2 2l4-4c2-1 4-5 4-9-1-4 4-6 8-3l4 1c0-1-3-4-5-4l-1-1h8l-3-3-4-2-5 5m-529 0c-3 0-4 3-1 2l1 1 1 4c2 5 4 5 2 0-1-4 1-4 4-1h2l1-2-1-4h-9m77 0l-4 1c-5 0-11 2-8 3l4-1 10-1h10c1-1 0-2-3-1l-4-1-3-1c-2 0-3 0-2 1m331 7c-2 7 0 9 4 9 4-1 12 1 16 3l3 4 3 5c1 2 1 2-1 3-2 3-1 4 5 6 3 0 6 2 8 3l5 1c2 0 5 2 9 6l6 5 2 3 3 4c2 1 2 1 0-2l-2-5h4c2-1-1-2-6-2-4 0-11-8-11-13 0-3 1-3 5-3 5 0 12-6 12-9h1l4 1c2-1 3 0 2 1v9c0-2 0-2 3-3l4-1-2-1c-2 1-2 1-1-1l3-1 1-1c1-2 1-2 2-1l1 3h2c2 0 3-1 0-5-1-2-1-4 1-2l8 5-2-2c-2-2-2-3-1-3l3 1 3 2c4 0-5-5-10-5l-4-2 5-1c5 1 5 1 3-1l-3-2c-1-2-9 0-12 3l-8 4-8 5c-3 3-3 4-7 3-4 0-7 2-6 6 0 3-1 4-2 2-1-1-2-2-3-1l1-2 3-2h-3l-2-1c0-3-2-3-3-2h-1l-1-2-1-1c0-1-1-2-2-1v-2l-1-3-1-4c0-2-2-3-2 0-1 4-9 0-9-5 0-3-2-3-5-2h-2c-1-2-3-1-5 1-2 3-3 2-3-1s0-4-2-3v-1l-1-2-2 3m-342 0c-3 0-5 3-5 9-1 4 2 4 3 0l3-6c3-2 2-4-1-3m-57 1l-2 2-1 2c-2 0 1 4 4 4 5 0 8 2 7 5l1 4v3c-1 4 3 12 9 17s7 6 6 7v1c3 0 2-2-1-6-4-6-5-7-2-7 1 1 1 1 0 0s-2-2-3-1v-1c1-2-2-7-4-6h-2l-3-20-4-2c-2-2-4-2-5-2m575 14l-1 2c0 2-3 9-6 12-2 2-2 3 1 2a3 3 0 013-1l1-5 3-6 1-2 1-1c1-2-1-2-3-1m-51 17l-5 3-8 6c-4 3-11 11-11 14h1l1-2 3-2c1-4 2-3 3 2 0 7 2 8 2 2 0-4 2-10 3-8 2 1 2 6 1 6l1 3c3 2 4 1 3-3-3-6-3-10 0-10h3c1 2 3-3 3-5-1-1 0-2 2-2l6-2c2 0 2 0-2 3-5 5-6 7-4 10l2 4c1 1 1 0 1-3 0-4 2-7 7-10 4-2 6-6 3-5-1 1-2 0-2-1h-13m26 7c-2 0-3 1-3 2l-2 2c-3 2-7 13-5 11 1 0 2 1 2 3 1 4 8 15 9 15 2 0 0-5-2-8l-2-4-4-7v-4l6-6 4-4v-1l-3 1m-188 8l-7 3c-6 1-6 2-4 10l2 7 4 6 3 5 4-4c4-4 13-4 24 0h2l-3-3-4-1h1l2-1c1-1 1-1 2 1 3 2 4 6 3 7h5l3 1c2 0 2 0-1-3a5 5 0 00-5-2l-1-2c-2-1-3-4-1-5 2-2 1-3-3-5l-4-5c-2-8-15-14-22-9m188 1l1 5 2 4 2 9 2 7 1 3c0 2 1 2 5 2 2 0 3 0 2-1-2 0-2-1-1-2l-1-3-1-3-2-3-2-5-5-14c-2-3-3-3-3 1M28 380a13 13 0 00-9 18v-2l1-3 2-3 5-5c6-3 6-7 1-5m378 9c4 7 6 9 11 9 7 1 6 0-3-6-10-8-11-8-8-3m-43 0c-6 2-6 1-3 6l3 3h12c14 1 17-1 4-2-4 0-5-1-5-3l-3-2-2-1-2-2-4 1" itemprop="light" fill-rule="evenodd" tabindex="-1" fill="url(#16282281824-posters-1654102179771-vertical-light)" fill-opacity="" stroke="url(#16282281824-posters-1654102179771-horizontal-background)" stroke-opacity=""></path><path id="16282281824-posters-1654102179771-regular" d="M128 1l6 1h5l1 25a120 120 0 001 27l-1 19 1 15c0-6 1-8 3-8 1 1 1 1 1-1l-1-3-1-1-2-1c0-2 2-2 2-1 1 1 1-1 1-4l-1-5v3l-1 2-1-4 1-4c1 1 2 0 2-1V32c1-24 1-25-1-25-1 1-1 1 0 0V4l1-3c1-1 0-1-7-1l-9 1m236 0l12 5a56 56 0 0012 6l2 1 1-1-13-6-1-1-2-1-3-3-5-1c-4 0-5 0-3 1m26 0c20 2 20 2 20 0l-15-1h-14l9 1m22 9l1 9h-3c-5 0-3 2 2 3h3c-2-2-1-3 3-2l3-1-6-6v-1h2l6 3v-3l2-1h2c2 2 3 2 2-1-1-2 2-1 4 2 3 2 3 2 6 1l4-1h2c2-3 3-2 3 0s-1 3-3 3l-4 1h-4c-1 1-2 1-3-1-2-2-4-1-2 1l-3 2h-3l3 2c4 1 8 2 10 0 1-2 3 0 3 3l2 2 1 1 2 1a5 5 0 015 2c-2 0 2 3 4 3l2 1 4 3 3 3 2 1h2c0 2 1 2 3 1 2 0 2 0 1 1-2 1-1 4 2 4 2 0 2 1 2 3l2 2c2 0 5 4 5 6l2 3c2 0 3 1 3 2 1 2 1 2 2 1h2v2l-1 2c0 2 0 2 2 1 1-1 1-1 0 0l2 4 2 2a383 383 0 01-40 0h-9v-8c0-9 2-15 5-17 4-1 3-9-1-9l-3-2-14-7c-2 0-2 0-1 1s3 3 5 3l5 3 3 1 1 1-5-1-8-2-10-3c-17-5-30-8-30-6l-1 1h-6c-2-2-5-3-7-2h-4l-7-1c-4 1-5 1-6-1h1l3-1v-1l-5-1-3 1c0 2-5 3-8 2-2 0-2-1-1-3v-2l-6 1-5 1h-1l-2-2h-9l2 1c3 1 3 1-2 1-10 1-11 2-11 4l-1 2a390 390 0 0044 1l11 1a177 177 0 0115 1h3l-3 2-2 3h2l2-1a3 3 0 115 2c-1 1-23 2-25 1h-3l-6-1c-8 0-13-1-12-3h1l1-1c-1-3-4-2-5 0-1 3-1 3-10 3-20 0-21 0-18 2 1 1 3 2 4 1l3 1 2 2 2-1h12l16-1h5l2 1 16 1 16 1 1 1h3l-1 3-1 3c0 1 2 0 2-2 2-2 14-3 16-1h1c3-2 8 1 8 5 0 3 0 3 2 2h1l1 2 1-1a1 1 0 111 0c-1 3 0 20 2 20a6 6 0 001-8l-1-4v-2c2-1 4 3 4 10s-2 13-4 8c0-2-2-3-2-1a1111 1111 0 00-1 16c1 1 3-2 2-3-1-3 1-9 3-9s2 1 2 7l1 9c1 1 1 0 1-5l1-40c1-1 2 4 2 10v5c1 1 1 6-1 8l1 2 4 4 2 4v-4c0-5 1-6 7-6 4 0 5 0 5 2 1 2 1 2 3 0 1-3 3-4 3-2l2 1 2 2c0 2 2 1 2-1l1-1h3l2 1c0 2 3 3 4 2 1-4 7-3 7 0 0 2 0 2 2 0s5-2 4 1c-1 1 0 1 1 1 2 0 2 0 2 2l-1 4c0 3-3 2-3 0-1-2-4-2-4 0l-2 1c-4 0-4 0-3-1 0-3-1-2-2 0-2 2-5 1-5-2s-2-5-3-2c-1 5-5 7-6 3l-1-2-2 2c-4 3-3 3 6 4 15 0 21 2 20 4l-4 2h-2l-1 8 1 8 1-6c0-7 2-10 5-8l7 1c5 1 5 1 5 4v30l1 13 1-25 1-9 1 3c0 7 1 9 4 7 2-2 3 0 3 6v3c-1 2-1 3 1 3l1 2-1 2a3 3 0 01-4-2l-1-4c0-1 0-2 2-2v-1c-2 0-2-4 0-5 1-1 0-1-1-1l-3 1v17h4l3 1v2c1 2 3 0 3-2v-2c1-1 2-1 2 2s-1 4-2 3l-1 1 3 1a2 2 0 111 3c-2 0-4 2-2 3s0 5-3 5c-1-1-2 0-2 1l-1 3-1-2v-3c-2-2-1-9 0-9l1 2c-1 0-1 1 0 0 2-1 1-3-1-5-3-2-5-3-3-1l-1 2c-2 3-1 25 1 25a8 8 0 014 13c-2 1-2 2 0 2l2-2c0-2 4-4 5-3 1 2 3 2 3 1l-2-2c-3-1-4-5-2-5l1-1h-3l-1-2c0-3 2-6 3-5l4 1 4 1 2 1-1-2v-2l1-5-1-6-2-2v-1l1-2 1-2v2l1 3c2 2 2 13 1 13-2 2 2 5 5 4 5-1 6-2 6-5l1-3 2-1c1-1 6 4 6 5l1 2c2 2 1 3-2 5l-3 4c0 2 4 1 5-1l2-2c2 0 2 0 1-1v-2l-1-1v-3h2v2c-1 0 0 5 3 8 1 3 5 3 6 1a1 1 0 112 2 1 1 0 101 2c1 0 2 0 2 2s0 2-1 1l-2-2-3-2c-2-1-2-1-3 1l-1 3h4c0-2 4 3 4 5 0 3-4 4-6 2v-2c1-1 1-1-1-1a36 36 0 01-13-3h-1l-1 3-1 5-2 4 2 2c2 1 2 2 1 2v2c1 2 0 6-1 8l1 1c3 0 5 2 4 4l-1 4 2-2c3-5 4-4 5 8s0 13-3 10c-2-3-3-2-1 1v3l3 5c3 4 4 11 1 11l-1 5-2 7a3 3 0 001 5c-1-1 0-3 2-5a12 12 0 004-7v9l1 9 3 7 2 2v-4c-2-1-5-11-3-11v-2c-1-5 1-15 3-14 2 0 2 0 1-2-1-4 0-7 3-8 3 0 4-2 1-2l-1-1c1-1 0-2-1-1v-5c1-2 1-2 2-1 3 2 3-1 1-4l-1-4-2 2c-1 3-4 4-3 0s4-15 6-16a1 1 0 10-1-3l-3 4-2 1v-1l-3 2-1 1h-1c-2 1-2 1-2-2l-1-1c-2-2 1-6 4-6h12c0 1 1 1 4-1 1-1 1-1-1-1-7 2-11-13-5-18l2-3c-1-2 0-4 3-4 3-1 3-1 5 3l4 4c2 0 3 4 2 5v3c0 1-1 2-3 2-4 0-6 1-2 1a4 4 0 111 8l6 2c4 2 6 5 2 4h-1c1 0 2 3 0 3l-3-2h-2l1 9c0 6 1 7 3 9s3 3 1 2l-2 1 2 2 1 2 2 3v1l1 1c2 0 3 1 3 3s0 2-5-1c-6-4-15-8-12-5v2c-1 1-1 1 2 1l3 1 1 1 4 3c2 3 2 4 0 4v2c1 1 3 2 3 0v-1l1 2c0 2 0 2-2 2h-5c-2-2-3-1-2 1 0 1 1 2 3 2h3l-4 2-2 1c-1 2-2 1-3-3v-6c2-2 1-3-2-2l-3-1-1-2v6l-1-1-1-2-1 3 1 3 1-1a1 1 0 113 2v2c1 0 0 4-2 6s-2 7 1 7l2 1h-2c-1 0 0 4 3 5l1 4-1 4v2c2 2 1 3-2 3l-9 1c-1 1-2 1-3-4v-3l-1 4c0 4 0 5 3 6 1 1 2 1 0 1-1-1-3 0-4 1h1c2 0 4 0 6 2 4 3 6 7 3 6l-2 1c1 1-3 3-4 2-1-2-1-2 1-3 1-1 1-1-1-1-3 0-3 4 0 6 2 2 3 3 0 5v-1c0-3 0-3-1-2l-1 1-1 2c-2 1-3 3-1 3l8 6 3 2 2 2c2 1 2 1 1-1-1-4 4-10 6-8h4c2-1 2-1 3-6l3-6a3 3 0 100-5c-3 2-4 1-4-4 0-4 3-8 5-5l2 1h1l-2 2-3 1 1 1c1-1 2 0 2 1l3 1a30 30 0 0120 21l1 5 1 3-2-2-1-1-2 1-2 1 2 2 2 2h-5c-4 0-6 0-7 2-3 3-4 3-3 0 0-3 6-7 10-8 2 0 3-1 2-2l1-2-1-2c-1-1-2-2-1-3 0-3-3-5-7-6h-6c1 3 0 6-2 7l-2 1-1 1-3 3-3 2c-2 0-2 1-1 3 1 3-5 3-6-1l-2-2 1 4c1 2 1 4-1 4s-2 2 0 3 2 1 1 2c-2 1-7-1-10-2-1-1-2-1-2 1-2 1-2 1-3-1-2-3-4-4-3-1 0 2-1 3-3 2l-1 2-2 3c-2 2-4 3-2 0 2-1 3-4 1-4-1 0-2 1-2 3-1 2-2 2-4 2l-2-1 2 2c2 2 1 4-3 3-2-1-2-1 0 0a7 7 0 009-1l4-2c2-3 8-4 8-1 0 2 2 1 3-2 0-3 1-4 2-1 1 2-3 7-6 6-3 0-3 0-2 2v2h-1a3 3 0 01-6 0l1 2 2 1 3 1c3 1 6-1 5-4h3c1 1-1 5-3 5a7 7 0 004 11l7-9 5-3 8-6c3-2 9-5 10-4l4-2-3-1h-1v-2c-3-3 4-7 11-5l6 1-6 1c-6 1-7 2-5 3l1 2c0 2 1 2 7 2l7 1c0 1-3 3-5 3s-2 1-3 3c0 2 0 2 2 1 3-2 2 0-1 4l-3 3-2 4-2 3v-3l2-6c0-3 0-3-2-2-4 1-6 4-6 9 0 3 0 4-1 3-2-2-3-1-3 3l-1 3-3-4-1-2c-2-1-2-1-2 1 3 6 2 8-3 3-5-6-7-5-3 2 2 4 2 4 0 6h-3c-1-2-3-1-3 0v2c-2 1-6-2-6-4l-1-1-1 2-1 1-5 3c-4 4-4 4-1-2l2-5h-6l-5-4-5-3-8-3c-6-3-10-4-6-1l2 3 1 1 1 2-10-9c-1-3-13-12-17-13l-17-6v-3c3-3-3-14-8-14-1 0-2 0-1 1l-2 1c-2 0-2 0-1-1s1-2-1-2c-6-2-13 0-13 4l-2 1c-5 0-1 15 4 19l2 2 3 4c2 2 2 3 2 10l1 6c2 1 2 4 3 11 0 10-1 13-4 11l-2 1 36 1c35 0 35 0 35-2 0-3-2-6-5-10-5-5-3-8 1-4l4 2c2 0 5 2 4 3-2 4-2 5 3 7 3 2 4 2 3 3s14 1 35 1c19 0 34 0 33-1l-5-4-6-7c-3-4-3-5-3-10a20 20 0 017-17c0-4 13-5 16-2l5 4c3 2 3 3 0 2-2 0-5 2-3 3l4 10 1 2 3 4 2 3 2 2 2 4v3h-5l1 1 1 2 29 1h30V202L709 2c0-2-4-2-67-2h-67l49 2c3 0 4 0 4 2l3 1c3-1 5 0 5 1l3 4 7 6 6 3c1 0 3 2 3 4l-2 1v2l2 4h-1c-1-2-4-3-4-1s3 4 6 4 3 0 2 2h-3c-2-1-3 0-3 3l-2 2c-3 0-2 2 3 4l2 2h-1l-3-1c-6 0-7-3-4-8l2-3-2-2-4-2c-1 1-1 1 1 3 3 1 1 3-4 2-1-1-3-1-4 1-3 2-6 1-3-2v-3l-3-2h-3l-5 2c-5 0-8 2-6 4 2 1 3 1 3-1 1-1 1-1 1 1s5 7 5 5c1-1 7 0 8 1l-4 1-4 1 1 1 1 2 6 2c8 0 9 0 6 1l-4 2c0 2 0 2-1 1l-6-2c-4-1-8-3-8-6l-2-2-2-1-1-3-1-1c2-1-1-6-4-6-3-1-4 0-2 1v1h-2l-1 2 2 1h1c0 2-2 2-3 1h-2v1a1 1 0 110 2l-2-1c0-2-2-1-4 1h-2l-1-1v1l-1 1c-2 0-4-4-4-8 1-3-1-4-2-1l-2 1c-1-1-1 0-1 1 1 2-1 4-5 4h-3l1 4c1 3 1 3-2 5-2 2-1 5 1 3l2 2c1 1 1 1-2 1-5-1-5 1-1 2 2 1 2 1 1 2v5l-1-1c0-2-6-4-7-3l1 2 1 2c-1 2 3 4 5 4 2-1 3-1 2 1 0 2 1 3 3 4h3l3-5c1-1 2-2 3-1l3 1c2 0 2 0-1 1-6 2-8 5-3 4a8 8 0 008-4v2l1 1 3-1h2c2 0 2 0 1-1-2-2-1-3 1-3 6 2 9 2 9 1 0-2 0-2 10 3s12 6 14 9l3 2-3-1-3-2-1-1h-1l-4-1-3-1c-1-2-6-3-6-2l1 1 3 1-3 1c-3 0-4 0-4-2-1-2-1-2-3-1l-1 2h2c2 1 1 2-2 2-2 1-3 0-2-1 0-3-1-2-3 0-1 1-2 2-3 1l-3 1h-2l-3 1 3 1c3-1 4 0 1 1a2 2 0 102 3c-1-1 3-4 4-3v1h5l2-1c-1-1 3-3 4-2l-1 2v2l4 3 4 2c1-1 1 0 1 2 0 3-1 3-6 4l-6 1h-12c-1 1-1 1 1 1 2-1 3 0 4 1 0 1 2 2 6 2 9 0 12 1 14 3 2 3 1 3-9 3l-13 1c-2 2-5 2-5 0a1 1 0 00-2 0l-1 1a1 1 0 101 2h3l1 1h4c0-3 5-3 23 0l10 1 4 1c2 3 0 36-2 37-1 1-1 3 1 3l1 1c0 2-3 1-4-1h-1l-2 1c-2 0-2 0-1-4v-5l1-4v-12l1-3 2-2c1-2 0-3-1-3l-1 1c2 2-1 2-3 0s-3-3 0-3l1-1h-7c-4-1-7 1-7 4l-1 3-1 7 1-2 1-1a35 35 0 01-1 18c0 2-4 5-5 4v-28l1-6 2-2h-2l-2 1 1-2 1-2c-1-1-2 0-3 1v35c3 2 0 3-3 2-4-2-8-1-8 2l-2 4c-2 2-10 4-9 2v-1l-1 1c-2 2-3 1-3-2s1-3 4-3l3 1 1-1v-4c-1-3-1-5 1-4 2 0 2 0 2-2l1-4v-5c1 1 2 0 1-2h-1l-1 1c-1-1-2 1-2 5l-1 2 1-14c2-2 3-1 3 2l1 2c1 0 2-4 1-5-1-2-1-3 1-3v-2c-4-4-12-2-12 2l-1 9 1 6 1-3 1-5v-2c-2-2 2-8 6-7 2 1 1 3-1 3l-3 2c-1 5-2 17-1 21s1 4-3 4c-2 1-3 0-4-1 0-3-3-3-4-1l-1 2-1 2-1 1-2 2-2 1c-2 0-2 0 1 3 3 2 3 3 3 0-1-2 1-5 3-4 2 0 3 4 1 6v5c2 2 2 3 1 5-1 1-1 1-2-1 0-3-2-5-3-4v3c-1 0-3-4-2-5l-3-4c-3-3-3-3-3-8v-6c1 0 3-5 3-8l-1-2-1 1c0 3-2 7-3 7v-1l2-23c0-7 1-8 8-8l5-1v4c0 4 1 3 1-1 0-3 1-3 4-4l3-3h-2l-3-1c-1-1 0-1 1-2 3-1 2-2-1-2-2 0-4 1-7 4-4 4-5 4-10 4-2 0-2 0-2-2v-2c-3-3 0-4 13-5l18-3 1-1-13-1-16 1-7 3 3-5v1l-1 1c1 2 4 0 4-2l2-2c2 1 5-4 3-5l-1-4c0-3-1-3-3-2-4 1-4 1-4 4l-1 4c-1 1-2 2-1 3l-1 2-2 2v4c-1 3-1 4 1 4v3l-2 2h-2c-1 1-2 1-3-2 0-2 0-2 2-2 0 1 1 1 0 0l-3-1-8-3c-3-2-5-4-6-3l1 1 2 2 2 1c2 0 2 3 1 4l-2 2-2 3c-3 2-2 3 4 3s6 0 2 4c-2 4-3 5-1 5 1 1 4-2 4-3l1 1 2 4 7 1h7l-1 4c-1 7-1 8-4 9s-4 3-1 3l2-2h1c3 1-3 6-6 4-6-4-8-7-4-7 2 0 2 0 2-2-1-2-1-3 1-3v-1h-6l1 2c2 3-1 4-3 2s-2-2 0-5v-4c-1-2-3 0-1 1 1 2 0 3-3 3-2 0-2 0-1 3 1 5 1 5-1 4l-3 1-2 1-1 1h3l4-1v2c-1 1-1 1 1 1s6 4 7 6 2 2 4 2a2 2 0 013 2c0 2-1 2-3 2l-5 1h-2c-2-1-1-2 1-2 2-1 3-3 1-3l-1-2c1-1 0-2-4-3-5-2-6-2-6-1l2 1c1 0 1 2-1 4-1 1-1 1-2-1v-3c0-1-2-4-4-4v1l1 4c-1 1 0 2 1 2v2l1 5 1 3c-6 1-6 1-5-2 0-3 0-3-1-2-1 2-2 1-2-5-1-7-3-11-5-11l-3-1v-1c1 1 2 0 2-1l1-6c1-4 1-4-1-6-3-2-6-3-7-2l1 1c2 0 1 2-2 2-2 1-2 1-1-2 0-3 0-3-3-3-2 0-3 0-3 2h-1c-1 0 0-14 2-16l1-6c0-4 3-9 6-11 3-3 1-7-6-9l-6-4-5-7-3-4a30 30 0 00-3-16l-1-3h-3l1 1v2c-2 0-2 2-1 5 2 3-1 2-3-1-7-9-35-27-40-26-2 0-2 0-1-1 1 0 2-3 2-8V1h11l-19-1h-30v10m78-9c3 0 7 4 6 6 0 2 0 2 2 2s3-4 1-5c-3-2 0-3 6-3h10l-12-1c-9 0-14 0-13 1m-63 2l-2 3v2c1 0 4-2 4-4 1-1 1-1 2 1 1 3 3 3 2 0 0-2 0-2 2 0l4 3h2l1-1c2-2 0-5-2-5s-2 0-1 2v1l-2-1c0-2-1-2-5-2l-5 1m196 1l-2 8c-1 2-1 2 1 2l3 2h1l1-2 1-1c0-2 2-3 5-3 2 0 2 0 0-2l-3-1c-3 1-3 1-4-1-1-3-3-4-3-2M25 16v1l1 1-1 1c-3 0-2 2 0 4v1l-1-1-3-1c-3 0-2 2 2 3l2 1h-2c-4 2-6 5-2 5v1c-2 1-2 3-2 6 0 5-1 6-2 4h-1c0 7-8 3-9-4a10 10 0 011-7l-1-1c-1 1-2-4-1-6s-2-7-4-8c-1 0-2 40 0 43l1 14c0 10 1 13 2 13l1-5a47 47 0 014-23c-1-2 0-4 2-4s2 0 2-2h1l2-1v-1l1 2v4l1 7 2 6c2 0 2 0 1-1h1c2 1 2 1 2-1h1c0 2 3 4 3 2a107 107 0 012-14c0-2 3-3 6-2 2 1 3 4 6 12 3 6 4 8 8 12 4 5 4 6-1 11-5 6-6 7-3 7l2 1h2c1 0 1-2-1-2v-2l1-2 1 2c1 1 2 2 5 1s6 0 6 1l1 1c2 0 5 4 5 6l-4 2-4 3 4-2 4-1 3 3c3 4 4 5 2 5l-2-2c-2-5-3-3-1 1 2 6 2 6 6 6 6 1 8 2 7 5 0 1 2 4 3 3v1l2 3c3 1 6 6 4 7s-10 7-9 8l2-1c2-1 2-1 2 1l-1 2v2c2 1 2 1-1 1-2 0-2 0-1 1 2 2 1 4-1 2l-2 1h-4c-3 0-5 4-3 6l8-3c1-1 6-3 7-2l2-2c1-2 6-4 7-2 2 3 2 6-1 6l-5 4-4 3-1 1-4 4a7 7 0 00-4 7c-2 2 4 1 7-2l5-3c3-3 4-3 4 1l1 2v-5c0-4 1-4 3-4l2-1c1-1 8 0 11 1h7c1-1-2-5-4-5l-1-3-2-8c-4-6-3-8 2-9 4-1 9-4 12-7 2-2 7-4 7-2l3-3c3-5 7-7 7-4l1 2 1-2c-1-2 0-4 5-7l8-6c9-6 10-8 8-11l-1-5-5-1c-6 1-10 4-10 6l-3 3c-3 0-5 2-7 4l-8 6-3 2-3 1-2 1-6 4-7 4-2 2-3 2c-1 1-7 2-7 0l-8-8v-2l-1-2-2-2h1c2 1 1-2-1-3l-2-2h-1l-2-3-2-4-3-4-3-5-3-5h-1v-2c0-2-1-4-4-7l-4-6-4-7c-5-8-6-11-3-12 2 0 3-2 1-4v-2c1-1-1-1-5-2h-6l-4-6a470 470 0 00-9-14l-1-2-4-5c-2-2-3-3-4-2m616 2c-1 6 0 8 2 6h2c1 2 0 3-2 2-1 0-2 0-2 2 0 1 3 1 6-1v-4l-1-2c0-2-5-5-5-3m-116 6l-1 2c-1 1-2 2-1 3v15c-3 0 3 4 6 4l4 2c1 1 5 2 4 0-1-1 1-2 2-2s2 4 1 5l-1-1-1-1 3 4 2-12v-7l2-2 1-2-2 1c-1 1-5 1-6-1h-2c-2 1-3 1-3-1-1-2-5-3-5-1h-1l-1-3v-3h-1m-33 7l2 4c3 1 2 3 0 3-3-1-3 2 0 3 4 2 4 2 3 0l1-2v-5l-2-4-3-3-1 4m70 18c1 1 0 2-1 3-2 1-2 1 0 3 3 2 5 3 5 1l-2-1-2-1h4l3-1 1-2 1-1h-3l-2-1-2-2c-2 0-2 0-2 2m73 5c-1 2 0 3 2 3s2 0 0 1c-1 2-1 2 3 3h6l-2-2-4-3c-2-3-3-4-5-2m-274 5c-4 4-5 5-2 5l-1 3c-2 3 0 5 3 4l2-2c-1-1 1-4 4-5 4-2 7 2 8 8l1 5v5l2-2c1-1 1 1 1 3 0 7 2 6 2 0l1-5c3 0 0-13-5-19-2-3-5-4-5-2 0 1 3 4 5 4 1 0 4 8 4 12 0 3 0 4-1 3l-1-4c0-4-7-15-10-15a19 19 0 00-7 5c-2 1-2 0 0-2 3-3 4-5 3-5l-4 4m-84-1v23l-3 1h-3c-2-1-3 1-2 3 3 4 2 10 0 14-3 3-5 10-5 20 0 9 1 9 3 2 0-7 2-12 3-12l1 4v4l1-4c2-10 4-5 3 6s-3 16-10 24a57 57 0 00-14 43c1 5 3 9 3 6 0-2 8 9 10 14l2 8c0 6 2 2 2-4l2-7 1-3-1 1c-2 2-5 3-4 1 1-1 0-4-2-4l-1-2v-1c-1 0-2-1-2-4l2-23c2-6 2-5 16-16l5-6 3-3 3 25 2 15c4 22 4 22 3 26l-3 10-2 8c-4 6 3 32 9 36a19 19 0 018 13l1-1v5c0 5 0 6 1 5 1-2 1-2 1 1a2 2 0 01-2 3l2 1c3 0 1 9-3 13l-4 4 1 5c2 6 1 9-4 12l-4 2-3 2c-3 0-9 4-6 4l2 1-9 4-1 1c0 2-3 4-4 4l-2 1-4 3c-2 0-2 0 0-3l2-2 4-3 5-3 2-2c4-4-6 2-13 8l-5 5v-10c1-3 1-4-1-7l-2-6-3-6-3-6c-1-3 2-4 3-1 1 2 3 4 5 4l-1-2v-4l1-6c-1-6 2-5 4 2 1 6 3 8 2 3-1-8-2-11-5-14-3-2-3-3-1-4l1-3 3-2 2-3 2-3c1-2 1-2-3-4-6-5-10-9-10-13-1-3-2-4-4-5l-7-4-5-2c0 2-2 1-2-1l-1-2v2c0 3-1 4-3 2-2-3-5-2-5 1l2 4c1 0 1 3-1 6s-4 2-6-4l-3-7c-1-2-1-4 2-4l1-1 2-4v-10c-1-7-5-13-10-14-4-1-6 0-2 1 3 1 2 3-1 3s-6 2-6 4-1 3-3 0c-1-2-1 2 1 12l-1 7c-2 4-2 4 1 4 2 0 3 1 4 3s1 2-1 1c-3-3-4-3-4-1l-1 2-1-1-1-2a7 7 0 01-4 0c1 0-3 4-4 3-1-2-3 4-3 9l-1 4-5-3c-5-2-6-4-3-4 2 0 2-1 2-3l1-4v-8a3 3 0 00-1-3c1 1-3 3-4 2s1-3 2-2c2 1 1-2-1-4l-3-3-2-2-3-2c-2 0-4-2-4-4s-2-4-3-2l-1 1v-2l-2-1h-2v-1c-3-1-3 0-1 2 1 2 1 2-2 3l-5 2c-3 1-3 1-3-2 0-2 0-3 2-3l1-3 4-2h3l-3-1c-2-2-3-1-4 1-2 2-5 3-3 0v-5c-1 0-4 4-4 7l-2 5-1 5-3 2c-3 2-3 3 1 2 4 0 8 1 7 2l-4 1c-2 0-5 1-7 3l-6 3a1 1 0 100 2l1 2v4c1 1-2 3-3 3a20 20 0 012-17l5-9v-6l-1-5h4l5-1c0-1-5-2-7-1-1 0-2-1-2-3l-5-37a21 21 0 00-1-9l-2-11-2-8 1 14 1 21 1 19 1 13h-3l-4 2c-1 1-1 1 4 1 2 0 4 1 5 4l2 3-1 3c-2 2-3 2-3 1l1-2 1-2-2 1c0 1-3 2-3 0l2-2c2-3 0-3-2-1l-3 5-1 3c-3 1-8 13-8 17l-1 6-1 4 2-1c1-3 3-2 5 1l1 3-3-2c-1-2-2-1-1 2a3 3 0 006 2c0 1-4 4-6 4l-2-4c-2-5-3-1-1 4s3 7 1 5l-3-7-3-9v-6l2-4 1-5c5-5 4-10-4-17-6-6-6-7-6-5s-2 3-5 3c-6 0-9 7-8 19l1 8 1-11c-1-3-1-4 2-5h5c2 0 2 1 0 8l-1 3-1-3c-1-3-3-3-3 0a234 234 0 015 14c0 2 0 2-2 2-2-1-2-1-1 1l-1 1c-2-1 2 10 4 11s6 12 6 14 0 2-1 1l-11-21v3c2 1 1 5 0 4-3 0-2 0 1 8 2 5 3 7 1 7l-1-2c0-2-1-4-4-4-2-1-2-1-2 1s0 2-1 1l-1-4-4-7c-6-7-7-8-4-8 2 0 3-1 3-2l1-2v-2l1-2 2-4 1-5c2-3 1-12-2-16l-6-4-5-5-2-3-1 2c0 2-2 3-3 4v1l2-1 6 2c4 2 6 4 2 3l-4 1c-2 1-5 2-6 1l-3 2h2a16 16 0 006-1c3 0 3 0 3 2l-1 2h-3c-10 0-13 3-13 12l-2 5v2l4 7-1-1h-2l-1 1c-2 0-2 1-1 3 0 4 1 5 2 2l2-3c2-1 2-1 1 1l1 2c2 1 3 1 3-1h1l2 1c1-1 0-2-2-4-7-6-7-8-5-14l2-9 1-2 1 3-2 14c1 3 1 3 3 2l1-6c0-2 0-3 1-2l1 6a10 10 0 001 8l2-1 4-3 2-1 1-1c2 0 1 2-2 4l-4 2-3 4c-4 2-4 3-3 12l1 3h-6v2c-2 0-2 2 0 5l3 2 4 1-2 1c-2 0-2 2 1 8l2 5v3l-2-3-2-4-5-11a61 61 0 01-6-14l-1-3-1-3c-2-2-2-3 0-3l1-1-1-1c-2 0-5-5-10-16-7-17-7-18-7-24 0-4-1-6-2-7l-1 1-2 1c-2 1-2 1-1 2 2 1 2 2 0 4l-1 3-2 4-1 2-2-6c-1-7 0-11 3-16 1-2-1-10-7-22l-3-9a108 108 0 00-6-15l-5-10-3-6v4a5 5 0 002 5l1 5c2 2 2 3 1 3v1a12 12 0 015 10 9 9 0 013 9 53 53 0 018 23v6l-1 12 1 8-2-1-3-2v3c1 1 0 1-1 1-3 0-4 2-1 2s4 2 4 7c1 4 1 5-1 4-1 0-2 2 0 3l-1 2-2 2h2c5 0 4 3-1 4a6 6 0 00-6 3c1-1 0-4-2-6l-2-8c0-2 0-2-1-1-4 3-2-5 2-9l1-2c-2 0-3-2-1-2H5c-3 0-4 1-2 2v2c-2 0-2 2-2 8a16 16 0 002 10l1 4 2 3 3 2v1c-3 2-3 3 4 9l6 6c4 3 5 5 5 6l1 1c1 0 2 1 2 4l1 5v-1c0-3 0-3 1-1l2 4c1 3 1 3-1 2l-2-2c-1 1 1 8 2 8l1 3c0 1 0 2 1 1 1 0 1-3-1-7l1-1 2 6c0 6 1 7 2 4 1-1 1-1 1 1l1 2h3v-7c0-8 1-11 3-5l1 2-2-7c-3-5-3-11-1-11 1 0 4 4 4 7 1 3-1 3-2 0l-2-3 2 6c3 5 3 5 3 3 0-3 0-3 2-2l3 2 2 3 1 3 1-1v-2h2c0-2-2-4-4-4l-1-2-1-2c-1 1-2 0-2-2l1-2h1l-2-5v-3l1 2 5 7v-2l-4-8-3-6v4l1 2-2-1c-1-2-2-1-1 2 0 4 1 3-6 1-2 0-2 0-1 2 1 3-2 0-4-4-2-5-3-6-4-4 0 1-2 0-3-2l-6-7c-3-4-4-6-2-10 2-3 3-4 3-2-1 5 3 16 5 14h3l2-1c1-1 0-1-1-1l-4-2c-1-1-1-1 1-1l4-1h-2c-2 0-2 0-2-2v-3c0-1 1-1 2 1 5 6 10-3 6-11-5-11-6-14-6-17 0-2 2 1 5 9l6 12a66 66 0 018 19l3 7 8 18c2 3 1 4 0 3-2-2-3 0-1 3 2 6 9 4 9-2 0-2 0-2 1-1h3c2-1 7 0 7 1l-1 1v1c1 1 3-1 11-9l10-10 9-3c12-4 14-4 13-1h2a16 16 0 0117 3 18 18 0 019 12h-2c-2-2-3 0-1 1v4l-1 2c1 0 2 0 2-2l4-4c3-3 3-3 1-5a40 40 0 00-19-13c-1-2-1-2 1-2l5-3 6-4c3-1 4-4 1-5l-2-2c0-2 4 1 5 4 2 4 3 4 3 0l1-4c1 0 4 5 5 9l1 4c2 0 3-3 2-5l1-1 2 4c0 2-1 3-5 3-5 0-7 3-5 8l2 3c1 0 1-1-1-4v-4c3-2 9-2 7 0l-2 1c-4-2-4 3-1 7 2 2 2 2 2 0l2-3c3-1 3-1 3 1a6 6 0 005 6l1 1v-3c-1-5 2-1 4 4 2 7 2 7 0 4-2-1-2-1-2 1v1l-2-1c-1 2 2 3 5 4 4 0 5 1 3 2h-6l-2-1h-5l-2 1h2c1 0 2 1 1 2 0 2 1 3 3 1h2c0 2-4 3-6 1-1-1-1-1-1 2s0 3-1 2c-2-1-2-1-2 1l-2 2c-1 0-1-5 1-9l1-4 1-2c1 0 2-1 1-3 0-2-1-2-2-2-2 0-3-3-1-3v-2c-2 0-7 4-6 6a12 12 0 01-8 10l3 1c4-1 6 0 3 2v2h2l-3 2-4 2c0 2-1 2-3 1l-4-2c-2 0-3 0-2-1l3-1 3-1c0-2-13-1-14 1h2l3 1c-1 2 2 4 7 5l3 1h-3c-4 0-4 2-1 3l3 1-3 4c-3 4-4 4-6 4-3 0-4 1-1 3 3 1 3 2 0 5s-4 3-4-1l-1-4c-1-1-1-1 1-3l2-2-2-1-3-2v1c2 1-1 4-3 3v-3l-1-3c0-2-1-2-2-2-2 0-3 0-2 2l-1 1h-3c-1 1-2 1-2-1 0-1 0-2-2-2-2-1-4-3-2-3l1 1 2 1 3 1h2v-2c-2 1-2 1-2-3 0-2 0-2-1-1v2l-2 1c-5-2-7-2-7-1h-2c-3 0-3-1-2-2 1-2 0-2-5-5l-6-2 2 2c1 0 2 3 0 3s-5-3-4-5v-1l-2 1c0 2-1 2-3 1h-1v2c-3 0-5-3-4-4s1-1-1-2l-3-1-4-1c-2 0-2 0 2 2l2 2c-3 0 1 8 6 10 2 1 3 2 4 7 1 7 3 9 6 6l2-1 2 3 2 3 2 2c3 1 3 6 1 7-3 1-2 3 1 3l3-1c-1-1 0-1 0 0 2 0 3-2 1-2l-1-2 2 2 4 3 2 1c0 2 0 2-3 0h-4v2c2 0 2 1 1 2l-2 6c-1 5-2 5-3 4l-3-2v1c2 2 1 3-1 2a2 2 0 10-1 3l1 5-1 9 1 2v1l1 1c1-1 1 0 1 2v3l-2-4c-3-4-3-7-2-9 1-1 0-2-1-4-1-1-1-1-1 1 0 4-5 6-5 1l2-4c2 0 2 0 2-5l3-6 2-3-5-3c-7-6-13-16-10-19v-3c-1 0-2-1-2-3 0-3-1-5-5-5-3 0-9-5-10-9-2-5-12-12-11-8 2 5 2 7 1 7-6 1-11-1-11-5l-2-1v9l1 3c1 1-6 9-8 9l-2 2c0 2 0 2 1 1 4-3 5 1 2 4l-2 3 1-3c0-3-1-3-3 0l-2 3-2-2c-1-2-2-4-1-5l-1-2-1 1c0 2-6-5-8-9-1-4 0-6 5-7 2-1 2-1 1-3l-1-10-2-4c-2-1-4-3-3-4 0-2-7-10-11-12l-5-1H1v8c0 4 0 7 1 6 0-2 1-2 1-1l-1 2v25a10 10 0 000 8c0-2 2-3 2-1s1 1 4-1l3-2-1 2a2 2 0 002 4l-1 2c-1 0-1 1 1 2v1l-3-2c-1-1-1-1-1 1s0 2-2 1a4 4 0 00-4 7v1a12 12 0 001 12l-1 1c-1-1-1 5-1 18v19h17l-1-3c-1-9 4-17 12-18 7-1 9 1 5 5-3 3-3 3-1 3 8-2 8-2 1 2-6 2-7 3-8 2h-1l-3 4c-3 3-4 5-1 5l1-1 2-2v2c-1 1 0 1 8 1 5 0 9 0 8-1l-1-2c0-2 4-3 4-1h2c1-2 2-2 3 1l1 3h42c37 0 42 0 43-2 2-2 11-4 11-2l-1 3c-1 1-1 1 1 1 1 0 2-1 3-5l3-4-1 8c-1 1 3 1 8 1a17 17 0 0011-1l80 1h80l-2-3c-2-2-2-2-1-4 3-2 4-1 7 3l3 4h17l-1-4c0-5 1-5 4 0 1 3 2 4 4 4h3l-3-5-3-5c1-1 11-3 12-2 0 1 1 2 3 2l2 3c0 2 1 2 4 2 10 0 14 4 4 4l9 1h14l-2-2a27 27 0 01-9-16c0-3 2-3 2 0l10 15c3 3 3 3 8 3 4 0 5 0 2-1-3 0-4-1-9-8-3-4-4-10-2-7l9 7 9 8 23 1c13 0 23 0 22-1-2 0-4-2-5-3-3-3-7-4-5-1 1 1 1 1-1 1a2224 2224 0 00-8 1c-7 3-11 2-7-2 1-2 1-2-1-1a6 6 0 00-3 5c-2 0-8-8-9-10l-4-15c0-2 5-6 8-6l6-2c4-2 4-2 9-1 7 3 13 7 13 11 0 1 1 3 4 5 5 2 5 3 2 5-2 2-1 3 4 6l7 4h2c0-3-3-10-5-12l-2-5c0-3-5-8-7-8s-11-8-12-11c-3-5-7-6-16-6s-12-2-14-11c0-2-3-5-5-7-3-4-4-7 0-4 4 4 6 4 3 0-5-4-5-5 0-2h2v-3l-1-3v-1h2l-1-1c-1 0-5-6-5-9l-2-3-1-2c0-1 4 2 7 6 6 6 9 8 9 7l-6-6-7-9-8-8v-2l-1-3c-2-2-2-2 0-2h8l-2-3c-2-3 0-4 6-2 4 2 4 2 5-1l2-4c1-1 0-2-6-8-8-7-12-13-11-14l-3-5-2-5c1-1 0-1-2-1-7-2-7-2-11-8-3-5-5-6-5-1 0 3-2 4-3 2-2-2-3-1-2 2 0 3 0 4-5 9-6 5-12 16-15 26l-2 4-1-1c1-2-1-4-3-5l-2-2-3-4-5-7a14 14 0 00-5-7c1-1-2-7-5-10-4-4-4-8 0-7 3 0 3 0 3-2l-1-4-1-3c2-10 3-16 1-17l-2-1-4-3c-5-2-5-2-10 0-5 1-7 5-7 14a9 9 0 01-11 12c-1-2-3-14-2-15 1-2 1-9-1-10v-2l-1-3c-2-2-4-9-6-28l-4-27c-2-13-2-14-1-18 2-3 2-8 3-16 0-10 1-14 2-8l1 1v-5l-1-6c1-3-1-7-4-7-4-1-9-10-9-17l-3-11-1-2c2-2-1-5-2-3m134 2c-3 3-7 14-5 16 0 2 2 1 2 0l1-2c3 0 3 2 1 2l-1 3h1l3-2 2-2c0-1 1-1 1 1h3v-5c1-1 1 0 1 2 0 3 0 4 2 4 3-1 1-12-3-17-4-4-5-4-8 0m-217 8v75l1-1c3-3 4-71 2-77s-3-6-3 3m170 1c-2 4-2 6 1 6 2 0 2 0 1 1-2 0-2 1-1 1v2l2 2v1c-1 0-2 1-1 2l-1 2v1l1 6c1 7 2 9 3 9l1 4 1 5 1-3 1-16c1-17 0-20-1-23-2-4-5-4-8 0m127 37c-2 2-2 6-1 19 0 18 0 20 2 11l1-4c1 5 2 4 2-4l1-9c0-2 2 0 2 2l1 2v-17c-1 0-2 4-1 6l-1 2-2-2-1-2a2 2 0 01-1-3h1c0-3-2-3-3-1m-45 2l-2 5v9l-2 1h5c2 2 3 1 2-1l-2-3 1-11-1-2-1 2m-148 4c-1 1 0 12 2 16l1 10 1 6c1 0 2-8 1-13l-2-11c0-6-2-10-3-8m186 3v17l1 5 1-11c-1-11-1-13-2-11m-197 14a5 5 0 01-5 5c2 0 1 3-1 3l-2 2v1h2l-2 2-3 2c-2 2-5 1-4-1 1-3-3-3-6 0-2 1-2 2-1 3s0 4-2 4c-2 1-4 5-3 6v2l-2 1-1 2-1 2h1l7-4c10-4 24-22 25-31 1-4 0-4-2 1m269 31l-2 4 4 4c4 4 6 5 4 2-2-2-4-10-2-9l1 4c0 2 0 3 2 3l1-2 1-1v11h1l2-2 1 2c1 3 3 3 4 0 0-6-1-8-3-7-2 0-2 0-1-1l3-1c2-1 2-7 0-8-2-2-4 0-3 2s-1 3-3 2h-1l-2-2c-2-5-6-5-7-1m-391 4l-4 10-3 11c0 2-4 17-6 20v4c0 3 2-1 4-8a216 216 0 016-21c3-8 5-17 4-18l-1 2m330 1c-2 1-2 1 0 2l2 2 1 3c0 1 0 2-2 1-3 0-3 2 0 4 2 1 3 4 1 4-3 0-6 5-5 7 0 2 0 2 1 1 0-3 3-6 4-6l3-2c1-2 1-2 3-1 1 1 1 1 1-1 0-1-1-2-2-1-3 0-3 0-2-4 0-6-1-10-2-10l-3 1m99 1l-1 1-4 1-3 2 2 1 5 2c2 0 2 0 2 2-1 1 0 1 2 2 2 0 3 1 2 2a1 1 0 102 0l2-1c4 0 3-5-1-5-2 0-2-1-2-2l-2-3c-2 0-3-1-2-2l-1-2-1 2m26 1c-1 1-2 3-1 4l-3 3c-3 2-3 4 1 6v3c-3 2-2 3 1 4 3 2 3 1 0-1l-1-2 2-1 1 1 2 2 3 2c0 1 1 2 3 2s2 0 1-1l-2-1-1-2 1-2c2 0 2-2 1-8l-2-1c-2 0-3-3-3-7s-1-4-3-1m27 5c-2 2-2 4 1 6 1 1 0 1-2 2-5 1-5 1-5 5 0 3 0 3 1 2l1-3c0-3 2-2 3 1v6l1 4 4 2c3 5 10 4 10-1l-2-3v-5l1-5c2-1-1-4-3-4v1c2 1 0 2-4 0-3-1-3-1-2-2 2-1 3-5 0-7-2-3-2-2-4 1m-182 0l-1 3-2 5c-3 3-1 4 4 2 2-1 3-2 3-6l-1-4h-3m-75 6c0 2 0 2-4 2-3 0-3 0 0 1 3 0 5 3 2 3v3l-2 4v1l2 1-3 1h-1l1 3 3 5 2 3 2-3c1-1 2-3 1-4v-9c0-8-1-13-3-13v2m-65 1c1 3 1 5-1 5l-1 1-1 2-2 4-1 3 3-2 3-4 2-3c2-2 3-3 0-5-1-2-3-3-2-1m111 1l1 2v5a4 4 0 01-4 6c2 1 1 4-2 5-2 1-3 2-3 5s1 3 1 2c0-3 2-2 2 2 0 5 2 17 3 16l1-12c0-11 0-14 2-13l-1 2v2c0 2 2 3 2 1l1-1c1 0 2-1 2-3 0-3 0-3 2-3l3-2c1-1 1-1-2-1-4 1-4-1-1-5 3-3 4-3 7 1 3 3 4 5 1 4l-2 1c-1 2 1 3 3 2v4c-2 3-2 3-2 1s-2-3-2-1 2 4 4 4l5 2c2 1 2 1 0-1-3-2-3-3-2-6 1-11-8-19-13-11-2 3-3 2-3-2 0-5-1-8-4-8l1 2m158 0c-1 1-2 2-3 1l-1 2 1 1h1l4 2 3 1c1 2 5-2 4-4 0-2-1-3-2-2l-3-1h-4m-223 4l1 7c-1 3 2 8 4 6v-1l-1-4-1-5-2-3c0-2-1-3-2-3s-1 1 1 3m40 2l-1 5-2 5c0 3-1 4-2 4l1 1c2 3 12 27 12 30l1 1c2 0 1-3-1-7l-2-5-1-4c-2-2-2-3-1-3s2-2 1-7l-1-2-2-1c0-2 5-7 7-7 1 0 2-1 2-3s0-2-2-1-3 0-3-2l-1-2c-1 0-2-1-2-3l-2-3-1 4m-73-1c1 2 1 6-1 7v5l1-1h1c1 1 0 2-1 3-1 2-1 2 1 2l4-2c3 0 4-3 2-4h-1l-1 2c-2 0-2-2-1-3 2-2-1-10-4-10v1m21 0l-1 4-1 3v3c0 2 0 2-3 2h-1l1 3v2l1-1c0-3 2-2 3 1l2 2v-18l-1-1m158 0l2 3 2 5 1 3 3 2h1v-3c-2-2-2-4 1-6l1-3c-1 0-4 1-4 3l-2-2-3-1-1-1h-1m13 2l1 3v7l1 4c-2 6-2 9-1 9l1-2c0-3 2-6 2-4l2 5c1 3 1 3-2 5l-2 3-2 5c-3 3-4 8-2 7l4-7c2-4 3-6 5-6 2-1 2-2 2-7v-9c-3 2-5-1-2-4l1-2-2 1-2 1 1-3c2-1 2-2 1-2h-2c-1-3-4-5-4-4m78 1l-1 1c-3-1-5 2-4 6 0 5 2 6 8 5h9l-2-2-2-2c0-3-2-3-3-1-3 2-4 0-3-3v-5l-2 1m-15 1l-1 4-1 5c-2 2 0 6 3 6l1 2-2 1c-3 0-3 4 0 6 3 3 6 1 5-2 0-2 0-2 1-1l3 1 2 2c2 2 4 0 2-3v-4c1-1 1-2-2-4-3-3-4-4-4-7 0-6-4-9-7-6m-48 5c-1 4-1 4 1 6s2 3 2 8c0 4 2 5 6 4h3c4-1 4-5 0-8-2-3-4-3-2 0 3 3 3 6 1 6l-2-3-1-3-2-4-1-4-2-3-1-2-2 3m-59 7c-1 3-2 5-1 6 0 2 0 2-2 1-2-2-4 0-2 1 3 2 2 5-2 4l-3 1c-3 4-3 0-1-5l-2-2-3 1-1 2-1-2c0-1 0-2 2-2v-1c-2-1-2-1-1-2l1-3h-3l-3 2-1 1v7c-1-2-3-3-3-1l2 2 1 3h-3l1 1 2 4 2 5 1-2a2 2 0 113-1c-1 2-1 3 2 5l2 3-4-2-2-2 2 3c2 4 3 4 5 0l3-3 2-1-2-1-2-1-2-3c-1-2-1-2 2-3 3-2 5-1 5 2l2 2 2 1h1c1 0 3-1 3-3l2-2v3c2 0 2-5 1-7v-1l2 2h1c0-2-4-7-6-7l1-2 1-2c-2 0-2-1-1-2 1-4-1-3-3 1m124 2c-1 1 1 7 2 8v2c-2 2 0 3 4 2 2-1 2-1 1-2-2 0-2-1-1-1h2c2 1 1-4-2-7s-4-3-6-2m10 2l-1 1h2v2l1 4v1l-1 2-3 2c-4 1-7 4-8 14l-2 11 1 4 1 2 1 6 1 3 1-3 4-5c3-4 3-6 1-8-3-1 1-3 8-3l7-2c2-2 3-5 2-5v-4c0-4 3-6 3-3v4c1 3 2 4 2 1l-1-5c-1-2-1-2 1-2 4 1 0-2-4-3-2-1-5-2-6-4-3-2-3-2-1-3 2-2 2-2-1-5-2-2-2-3-4-2h-4m-109 19l-1 4c-1 1-2 2-1 3 1 2 1 3-1 4l-2 4-1 3-2 4-2 4c-2 1 1 5 3 5l1 5c-1 4 0 7 1 7l1-2 2-3c3-1 3-5 0-7-2-2-2-3-1-4v-2c-2 0-4 1-3 3 0 1-2 2-2 0-1-1 3-9 4-9l1-2 2-3 1-7 1-6v-2c-1-1-1-1-1 1m10 0v1l-2 1h-1l-1-1v3c3 4 2 6 0 3l-2-1v1l-1-3v-1c-2 2-2 2-1 4s1 3-1 5v3c1 1 0 4-1 3l-1 2 1 4 1 2 1-2c0-2 0-2 2-1 3 0 4-1 4-8 0-3 1-4 2-4l1-1v-2l1-2v-2c2 0 1-2-1-5-1-1-1-1-1 1m-426 0l-2 3h2c2-2 6-3 6-1 1 2-2 3-3 2l-1 1 7 2c4 0 4 0 2-2-2-1-3-4-1-4l1-1H95m117 0c-1 1-2 2-1 3l-1 2c-2 0-4 2-3 3l3-1 5-1c3-1 3-1 2-2l-1-2c2-2-2-3-4-2m402 1c-1 2-4 20-3 21l2-2c3-2 4-13 3-16v-4l-2 1m-454 6v5c0 2-1 2-3 2h-2c0 2 2 6 3 5l2 2c2 3 6 5 6 2l-1-2-1-1h2a1 1 0 100-2c-2 0-1-2 1-3l2-2-1-2h-1c-2 2-3 1-3-1 1-2 1-2-1-1-1 1-3 1-2-1a5 5 0 018 1c1-2-2-4-5-4s-4 0-4 2m381 2l-3 2-1 2-4 1 2 1a8 8 0 0110 1v-7h-4m-419 4c-2 1-7 15-5 17s4 1 3 0l1-2c2 0 2-1 2-3l1-7c1-4 1-6-2-5m-19 1c-1 2 0 14 1 15v-2c0-3 3-8 4-7 2 1 1-4-1-5-2-2-3-2-4-1m-29 3c-1 1 0 4 2 6 2 4 2 4 0 4-1 1-2 0-2-1-2-3-3 1-2 7 0 2 7-1 7-3l2-2 1-1c0-3-1-5-2-5l-3-2c-2-2-2-2 2-2s4 0 3-1c-2-3-8-2-8 0m550 3c0 1 0 3 2 4v2l-2-1-2-1-1 1-1 1-2 1 8 1 11 1h2l-2-1-2-1c0-2 1-2 4 0 2 1 2 1 2-1l-2-2-4-3c-1-1-9-2-11-1m-478 7c1 5 3 9 4 9v-1l1-2v-2l1-2 2-2c0-2-1-3-3-2h-2c-1-4-3-2-3 2m478 5c-2 1-3 2-5 1l-3 1c1 1 0 2-1 3l-2 3-1 1 1-5v-3l-4 3c-1 1-3 2-4 1-2 0-3 2-3 6 0 2 2 1 2-1 1-2 1-2 1 0l-1 3v8l-1 4-2 1-1 2h1c2-1 5 1 5 3l1 2 2-2c0-2-1-3-2-3s-1-4 1-6v-4l2-1c2 0 4 2 2 2l-1 2 3 1h1l-2 1c-4 2-3 13 2 13 1 0 2 1 1 3 0 1 0 2 2 2l1-2c-1-1 0-2 2-3l3-3 2-3 2-3 1-6a3 3 0 002-6l3 3a4 4 0 006 0c-1 1-2 0-3-1v-2l1-4 1-4c6-5-9-12-15-7m-454 7c0 2 4 5 5 5 3 0 4 3 3 6 0 4-2 4-2 0l-1-4c-2 0-1 7 2 11 3 5 7 7 7 4 0-2 4-5 5-4l1 1c-1 2 6 2 10 0h1c-1 1 2 4 4 4l4 2c2 2 5 3 3 1l1-2v-3c-3-2-5-3-5 0l-1 1v-3c2-1 2-1-4-5l-6-5-9-4v3c0 2 3 3 5 1 1-1 1-1 2 1 1 3 0 6-3 6-2 0-2-2 0-4v-1l-1 1c-2 2-4 1-5-1 0-4-2-2-2 1v4l-1-6c0-8-1-10-3-7h-1c0-2-4-4-7-4l-2 1m400 5l-1 5-2 4c-2 2-1 4 1 2 3-2 4 2 2 5-3 1-3 2-2 7l1 4 1-4v-4c2-2 3-3 3-1s5 6 6 5v-2c-1 0-3-2-4-5l-3-7v-7c1-6 0-7-2-2m-451 1c-1 0 1 5 3 6 3 1 9-3 8-5l-2 1c-1 1-1 1-3-1s-5-3-6-1m465 2l-1 3v10l2 9c0 4 0 5 1 4 1 0 2-1 1-5l1-7 2-3 1-1c2-1 3-3 0-3v-2a21 21 0 000-6l-1 2-2 2-1 2-1-1v-2c-1 0-1-1 1-1 3-1 3-3 0-3l-3 2M1 276c0 2 1 3 4 4l9 7c6 5 8 6 3 1-4-4-11-10-13-10s-2 0-1-2v-2l-2 2m44 0l-3 3c-4 1-5 3-2 2l3 1-2 3c-3 0-2 2 1 2 3-1 7-7 5-10 0-2-1-2-2-1m447 0l-2 2-3 1-3 1h-1c-1 1 0 2 1 1 1 0 2 6 0 8s-2 8 0 8l2-5 3-4c1 1 4-2 4-4h2c1 0 2-5 0-7s-5-3-3-1m-301 10l-4 1-5 1c-3 1-4 6-2 8l1 3 3 6c3 4 3 4 4 2h8c1 1 1 1-2 2-6 3-4 8 3 6l4-1-4-1c-3-1-2-1 3-1s7 1 6 2 1 3 4 3c1 0 2 0 1-1 0-2 0-2 2-2a11 11 0 007-6h-1v-1c2 0 4-3 4-5 0-1-1-2-2-1v-1h-1c-3 2-4 1-2-3s2-8 0-9l-3 5c-3 4-3 4-3 2 0-3-6-7-12-9h-9m319 4l-4 4-3 4-2 2-3 1c-3 0-3 2 0 3l2 1 1-1c3-7 7-6 6 1v4l2 6c0 2 3 3 4 0l-1-2-1-3-1-3c-2-3-1-4 2-1l9 1c7 1 6 1 4-8-1-5 0-7 3-5 1 1 2 2 3 1l2 3 1 2-1 2 1 1h3l3-2c3-3 3-4 0-2-2 1-2 1-5-2-5-5-9-6-13-6l-4-1h-8m119 2l1 4 1 4c1 5 5 4 6-2v-6c0-2 0-3-4-3s-4 0-4 3m-117 0c-1 1-2 2-3 1-2-1-1 5 1 8l3 2 3-4 3-4-1-1-2-3c-1-2-3-1-4 1m83 0l-3 3v2a1 1 0 101 2c3-1 7 1 9 3s2 2 3 1l-1-2-1-3h2c2 2 2 1 1-4l-8-4-3 2m-144 5v7l1 3c2 3-1 9-3 7v-6l-2 4v5c-2 5-3 15-2 15l1-6c2-10 4-13 4-4 0 3 0 5 1 4l1-5 1-8v-5l2-5c2-3 2-5 1-5h-1c1 1 0 2-1 3s-2 1-2-4c-1-2-1-2-1 0m-439 2c-3 2-2 5 3 11l3 5 1 1 1 1-2 1v1c2 2 3 1 3-3 1-5 0-8-2-5h-2c-1-2 1-4 3-2l2-1c1-2-3-4-4-3h-4c-2-1-2-1-1-4 3-3 1-5-1-2m537 1c1 1 0 3-2 4l-3 4h3l2 4c2 3 3 6 1 4h-4l-1-2c1-1 0-2-1-1l-1-2h-1c-2 1-5-1-5-3s-4-1-6 1c-1 1-1 1 1 3s3 4 1 4l-1-1-2-2-5-1c-3 0-8 3-7 5l3-1 4-2-1 2-2 3-2 4-2 3-4 5v-2l-1-2-1 4c0 5 1 5 2 3 2-1 2-1 1 1l-2 3c-2 1-2 1 1 2l3 2v-3l2-10c1-1 2-2 1-3l1-1c2 1 1 3-1 5l-1 2 4-2c5-3 8-3 11 3 2 3 2 4 0 5h-1c0-3-3-3-4-1-2 2-1 4 2 3v1c-2 1-2 2-1 2 2 0 11-10 9-10l-1-2-2-3c-4-1-4-3-1-5 4-2 9-2 12-1l1 2c-2 0-2 1-1 3l1 4-3 1-3 1c0 1 7-1 9-3l4-3c3 0 3-1 3-3v-12l-1 3v6a4 4 0 01-2 3l-2-1-2-2-3-1c-2 1-4 0-2-2h5c3 0 4-1 4-3 0-7 2-11 3-10l2-1-3-1-5-3c-1-2-3-3-3 0m60-1l2 3 2 3 2 1h-2c-2-2-3-1-2 1l3 2h3l3 1c1-1 1-1-1-1-1-1-2-2-1-4 0-2 0-3-3-5s-7-3-6-1m24 7l-3 7c0 3-2 3-5 1-2-3-4-3-8-2-2 0-2 1 0 3 2 3 8 5 10 4h1l1 2c1 1 2 2 1 3l-2-1c-1-2-2-1-1 2 0 2 1 3 2 2l1 2 1 2 4 3c2 3 3 2 3-2l2-2c1 0 1-1-1-3v-2l2-2c1-2 1-2-1-2l-3-1h4c3 0 3 0 3-2v-1c2 2 3 1 3-1s-7-5-10-5l-4 2-2-1 2-1 1-3 1-2 1-1-3 1m-522 4a4 4 0 01-5 2v3c2 2 2 2 0 2-1 1 0 1 1 1 3-1 3-1 2 2-2 2-2 2 2 1 3-1 4-6 1-8-1-1-1-2 1-3l2-3-4 3m425 1v10l2-3c1-3 1-3 3-3h2l-2-2-3-2h-2m148 2l-2 1-2 2h-4c-2 1-2 1-1-1l-2-1h-5l1 2h-4c-5 0-6 0-6 2l-1 2-2 1 1 1 1 2 2-2c1-3 1-3 2-2v3c-1 1 0 2 5 2l4 1 4 1 5 4c2 2 5 3 5 1a1 1 0 013 0c-1 1 0 1 1 1l3 1-3 1-5 1c-4 2-5 1-5-2 0-2-1-3-5-4-6-2-6-2-6 0 0 3 10 11 12 10s11 3 11 5l2 1v-3c-1-1-1-1 1-1h3c0-2 1-2 3-2l2-1h4c1 1 1 0 1-4s0-6-1-5v1c1 2-3 2-4 1s-2-2-3-1-4 1-4-1l1-1c2 0 5-3 4-4l1-1 2-1 2-1 1-1-1-1-3-1-3 3c-2 4-3 5-5 3-2-1-1-4 2-4l-1-1c-1-2-1-2 1-3l3-1h3l2-1h-10v-1l1-1h-6l-3-1-2 1m-485 3c-2 2-4 9-3 10l1-2c0-2 3-6 4-6v4l-1 6v2a4 4 0 005 5h2c4 1 1 5-4 4-3-1-4 0-2 1l1 1-4-1c-2-1-3-2-2-3v-1l-2-2c0-2-1-3-2-3-3 0-3 1-1 3l1 2 3 4 3 7 3 3 1-2c0-2 2-3 4-3 1 0 2 1 1 2l1 1c1 0 2-2 2-9 2-10 3-13 9-19l3-4h-4c-5 1-9 2-6 4l-2 1c-4 1-4 0-6-3-1-3-3-4-5-2m130 1l-8 3-6 2c-3 0-10 6-10 8a112 112 0 006 19l2 4-3-9-3-14c0-2 8-6 12-6 2 0 3 0 3-2l1-1h4c0 2 2 1 4-1s2-2 4-1h1l-3-3-4 1m-240 2l-2 3-2 1 2 2 3 3c-1 3 1 4 3 3 2-3 7 1 7 4-1 3 0 3 2 1s3-3 5-2c3 0 3 0 1 1-1 2 0 7 2 5v-1c0-1 2-4 3-3l1-1-1-1a2 2 0 010-3c2 0 1-2-1-2-1-1-2 0-1 1l-2 1h-5c-2 1-3 1-3-1l-3-3-4-1c0-3 1-3 6 0l7 2c2 0 1-1-2-2-3-2-4-2-3-4v-2h-4l1 1 1 1h-3c-2-1-3-1-4 1-3 3-4 3-3 0l1-2 1-1a2 2 0 00-3-1m101 3l-3 1-3 2-2 1v2l-1 2c-2 0-4 3-3 5s3 1 4-1c0-2 2-2 3-2 2 0 3-1 3-3l2-4 1-3h-1m-137 6c0 4-2 7-7 8l-1 2-3 6c-3 5-4 6-1 6v1c-1 2 2 16 4 18s1-2 0-7l-2-8c0-2 0-3 1-2 0 3 2 2 2-1 0-2-1-3-2-3l-2-1 4-4c1 1 5-1 5-2l2-2c3-1 6-5 6-8 0-4 0-4-2-3h-3l-1-3v3m591-1a2 2 0 004 2l-1 3-3 8-1 5 2-3 2-4 1-1c2 0 1 4-3 8-6 7-6 14 0 13 3 0 8-6 8-8l2-1c2-1 2-1 1-2l-1-1c3 0 6-4 5-5v-3l-1-2c-2-1-1-2 2-2s3 1 3 3c-1 2 0 3 1 3 2-1 2-5 0-7-3-2-10-5-15-5l-3-1-1-1-2 1m-353 8l-3 1c-2 0-4 2-7 5-1 2 0 5 2 5l3 1 2 1c1-1 1-2-1-3v-1l7-1-2-1v-1c1-1 2-4 1-5 0-2-2-2-2-1m-122 7l1 2 1 3c0 2 3 3 3 1 2-3 3 0 4 7 0 6 0 6 2 6 2-1 2-1 0-4l-1-6c0-3-6-11-8-11l-2 2m-90 2l1 2c1 0-1 3-3 3-1-1-4 3-3 3h1c1-2 3 1 2 3 0 2 1 1 3-1 3-4 3-4 2-7-2-4-3-5-3-3m606 2c1 1 0 2-1 1l1 3 3 4h4c4-1 6-3 2-3-1 0-2 0-2-2l-2-3-2-1a1 1 0 00-3 1m-21 2c-3 3-4 5-1 6 3 2 5 1 7-1l4-2 3-1-6-1-1-1c-1-3-3-2-6 0m-604 1c0 3 9 13 10 12l-1-3-2-3-7-8v2m187 0l-7 1c-3 1-11 12-12 17l-1 3-1 2 1 1 5-10c3-6 5-6 3 0-3 7-4 15-3 19l1 5 2-5 2-8c0-1 1-5 3-7l3-7c0-2 2-4 7-6 7-3 6-6-3-5m335 4c-5 0-8 5-6 9 2 2 2 2 4 1s3-3 1-3-1-2 4-4c3-2 4-4 0-4l-3 1m-497 6l-1 1h2l-2 1c-4 1-3 4 1 3a5 5 0 017 4c1 0 1-7-1-9s-4-2-6 0m217 0l-2 3c0 4-2 6-3 4-2-2-2-2-2 0-1 1-1 1-3-1h-3c-2-2 1-4 5-3 3 1 5 1 5-1l-5-1c-5 0-6 0-7 4-2 5-2 6 0 6a17 17 0 0011-1l2-2 2-1 4-1 3-1h-3l-3-1 1-1 2-1 1-2 1 2 1 1c0-4-3-6-7-3m-31 1c2 0 2 1 1 4-2 1-2 1-2-1l-1-2-1 2-1 2-1-2c0-3-1-2-3 1l-1 2 5 1 7 2c2 0 2 0 2-2l-1-4a2 2 0 00-4-3m403 8c-1 2-1 4 1 5l1 3c-1 1 0 2 1 2v1l-2 1 2 3c1 4 3 3 3-3l-1-5c-1 0-4-6-3-7h-2m-397 3a17 17 0 001 7l1-2c1 1-1 10-2 10v-3c0-1-1-1-2 1 0 3-1 5-2 5v9l1-4c0-4 2-8 3-6s5-9 5-14l-1-4v2l-1 2c-2 0-2-1-2-2v-2l-1 1m33 1c1 6 13 27 15 26l-3-5a29 29 0 01-5-9l-4-9c-2-4-3-5-3-3m-6-1l6 15c3 5 9 12 9 10l-2-4-3-4-1-3c-2-1-7-11-7-14a1 1 0 00-2 0m-48 8l-1 8c-3 6-3 6 1 7l3 1v-10c0-10-1-13-3-6m-90 0l-1 3-2 2c-1 1-1 2 2 3 4 1 5 3 3 3l-2-1-1-1 2 3c2 3 2 3 1 4v2c3 0 3-11 0-12v-2c4-2 2-5-2-4m9 4l-2 6-1 4 2-2 2-2v4c-1 4-1 5 1 5 3 2 5-3 5-14 0-3-1-4-4-4s-3 0-3 3m50 5c0 3-2 6-3 5a4 4 0 00-4 4l1-1c1-3 3-2 3 1 0 2 1 3 3 1 1-2 3-10 1-10l-1-1v1m-186 2c-4 3-1 5 2 3s6-2 6-1h2v-2c-2-2-8-2-10 0m559 0l-3 3-4 3h1c2-1 4-1 4 2l1 1 1-1h7l1-2 1-2 1-3v-1l-1 1-2 1-7-2m-568 2c-6 3-5 7 2 7 4 0 4-1 4-3s-1-3-2-3v-1h-4" itemprop="regular" fill-rule="evenodd" tabindex="-1" fill="url(#16282281824-posters-1654102179771-horizontal-regular)" fill-opacity="" stroke="url(#16282281824-posters-1654102179771-vertical-light)" stroke-opacity=""></path><path id="16282281824-posters-1654102179771-bold" d="M667 1h42l-25-1-17 1M34 29h-2c-2 0-3 0-3 5s2 7 4 3h2c1 3 3 4 4 3 2-2 2-2 0-2l-1-3c1-1 0-3-1-4l-3-2M23 41l2 2c2 2 1 3-1 2l-3-3-1 1c-1 3-1 13 1 12v-4c0-4 1-4 3-4s3 0 1 2c-1 1-1 2 2 5s3 3 3 1l-1-2v-1c2 0 2 0 2-2v-2c1-1 0-2-2-4l-2-3-2-1-2 1m13 3l2 3c1 1 2 3 1 4l1 2c1 0 2 1 1 2 0 2 2 4 4 2l-1-4c-2-1-3-4-3-5 0-3-5-7-5-4m11 6c-2 1-3 3 0 3h1c-1 1 0 2 1 3v2l-1 2-2 1c-2-1-4 0-2 1l1 4c0 2 5 10 6 10l2-1 2-1v3l2 1-2 1c-1-1-1-1-1 1 1 2 0 4-2 6l-2 4 2-2c2-2 2-2 7-1 3 1 4 1 3 3l1 2 3 2 2 2v-2l3-2 1-1-3-1c-3 1-4 1-1-1v-2l-1-1 1-2v-1h-1l-2-2c-1-1-2-2-3-1v1c1 1 0 5-2 5v-7c2 0 2 0 0-2-1-3-1-4 1-4l1 2a2 2 0 003 1l-5-5-2-1c-1-2-7-3-7-1l2 1 1 1c-2 2-5 1-5-1v-2c-4-2-1-7 3-5h4l-3-1c-1 0-2 0-1-1s2-8 0-7l-2-2c0-3-1-3-3-2m661 6v39l1-21V53l-1 3m-432 3l1 2 1 8 1 11c2 1 0 4-1 3h-9l2 4 1 6v4c2 1 3 4 2 5l-1 2c0 2-2 3-3 1v-3c2-4 0-5-2-2s-4 15-3 19c1 2 1 2 1 0l1-6v-5h6l2-1 1 8 1 8c1 1 0 5-1 5a2 2 0 00-2 4c3 0 4-2 4-7l1-6v-4l-1-6v-5c2-3 3-1 3 11a47 47 0 01-1 13l-2 4-2 5v3l2-3 3-5 1-1 2-2 3-3c3-4 4-3 3 2-1 9-16 27-25 32l-8 4-3 2c-1 0-2 3-3 11a7 7 0 002 8c0 2 6 12 8 13 1 1 1 0 1-1l-1-3-2-2v-2l-2-2c-2 0-2 0-1-1l1-7c-1-5 0-7 1-7l1-3 1-1v6l1-2 2-4-1-2h-2l2-1 2-2 9-8 10-10 4-3c1 0 4 18 7 48l2 10v4l1 2 3-1v-1l-1-5-3-13-3-22-2-21c-2-7-2-8 0-13l3-15v-10c0-2 2-1 2 1s0 2 1 1c1-2-1-6-2-5v-4c2-3 0-6-3-8-4-1-13-18-11-21l-1-4-1-5c0-3-1-4-3-2m93 10l1 3 1 6c-2 5-1 22 0 23 1 0 2-17 1-27 0-3-2-7-3-5m272 9l2 3 4 4 3 5 2 3c3 3 1 4-5 4h-6l2 1 14 3 1 2 2 2c2 2 2 2 1 3-1 0-2 1-1 2l-6-1-12-1c-6-1-7 0-2 1 3 1 4 1 4 6l1 3v-4c0-4 2-5 9-3 8 2 9 1 9-4s-2-8-5-8l-3-4-8-15c-4-4-9-6-6-2M275 89c-2 2 2 11 5 11l2 2 4 1c5 0 1-5-6-7l-1-1c1-1 3 0 5 1l5 1c2-2 0-5-4-5l-5-2c-2 0-3 0-2-2 0-1-1-1-3 1m-116 7h-4c-2 0-3 0-2 3l-1 4-1-1c0-2-6 0-10 3a14 14 0 01-9 7l-4 2c-2 1-3 2-2 3 3 1 0 3-7 4-3 0-3 1-3 2l-4 3c-2 0-5 1-7 3-3 1-5 2-6 1-2 0-2 0-1 2l2 3-3-1-3 1-1 1-2 1c0 2 3 2 5 1l3-1 5-2h4c1 2 5 0 8-3 1-2 1-2 2-1 0 1 9-4 9-6l1-1 8-3c0-1 7-4 9-3l2-1 1-2c1 0 5-2 9-6 7-5 9-8 6-7-3 0-2-2 0-2l2-1-2-2c-2-2-4-3-4-1m549 6v29c0 20-1 45-2 33 0-3-2-4-2-1s-1 3-3 0c-2-2-2-2-4 0-3 3-3 5 0 5l6 1-2 1c-2 1-2 1-1 2h2l4-2c2-1 2-1 2 8-1 13-2 17-5 14-2-2-1-4 1-4l2-1-2-1h-2c-1-1 0-1 1-1v-1l-1-1-2-1c-1-1-1-1 1-1l2-1c0-1-6 1-8 3s-1 3 1 3c1-1 2 0 3 1l-2 6-1-1c1-3 0-2-2 0l-2 3v-3c0-3 0-4-2-4l-2-2v-2l-2-2v7c2 4 2 7 0 9-2 1-2 1 0 3l3 4-2-1h-2l2 4 3 3v3h-2c-1-2-5 1-5 3h1l2 1c2 2 1 5-1 7l-2 2-3 3-3 2c0 3-2-1-3-5 0-5 0-5-2-3l-2 2v-2l1-3v-2l-1-2v-1l-1-4-2-4c-2-1-2 4 0 7v10l-1 3c-1 2-1 2 2 2l3 1 1 1v5l-1 1-1-2-3-3v5c1 0 2 1 2 3l3 4c2 2 1 5-2 5-2 0-4-4-3-6l-1-2c-2-2-1 9 1 12 4 4 4 6 3 12 0 3-1 5-2 5v6l-1 3h8l1-7a1 1 0 010-1h1c1 0 2 4 1 5v3l-1 3h-2l-2 1h-5l-7 3-2-4-2-5c-1-3-1-7 1-7l-1-6-3-4-3-4c-1 0 0 4 3 8 2 3 3 5 1 7-2 1-2 1 0 4 1 3 2 11 0 11l-2-5-2-6-1-3v-2l-2-3c0-2-1-3-2-3v2c1 2 0 7-2 10-2 2-3 7-1 6l2 3c1 6 0 9-3 11l-2 3c1 2 3 1 5-2l3-2v3l1 3-1-1c0-2 0-2-2-1v4c0 2 0 2 1 1 2-1 3-1 3 1-1 2 1 1 2-1h2v1c-2 0-1 3 1 4 3 3 9 0 6-3v-2l1-6c1-4 1-4 5-4h4c0-2 3-3 5-1l6 1-1-2v-2c1-1 1-1-2-1l-4-1v-1l6-1h-2c-4 0-4-1-1-3 3-1 5-9 3-11l-1-5c0-4 3-6 6-3h3l1 1h1l3-2 3-2 2-3c3 0 3 1 1 3-2 1-2 2-1 2 0-1 3 0 5 2l5 1-1-167v2m-637 1c0 1 5 6 8 7l2 1h-2a3 3 0 102 2l2-2c4-1 3-2-2-3-3 0-4 0-4-2 0-3-4-5-6-3m214 4l-1 20c1 0 3-6 3-10l-1-10h-1m14 17l1 5 1 6 1 6c1 0 1-15-1-18-1-3-2-2-2 1m-193 20l-3 2c-2 1-4 7-2 7s1 2-2 3c-4 2-6 4-6 5 1 1 0 1-2 1l-2 1c1 1-1 3-4 4-3 2-4 3-4 5s0 2 2 2l2-1 1-1 2-2 6-4 6-4c2 0 3-1 3-3 0-1 1-2 3-2l2-1v-2l2 2 2 1c2 1 2 0 1-3-1-9-4-13-7-10m545 1l-2 2c-3 0-5 5-4 6v2a2 2 0 004-2c0-5 0-5 1-4s2 1 2-1c1-2 0-4-1-4v1M1 154l4 11a304 304 0 018 16L2 154H1m682 9l-2 2-1-1c1-2 0-2-1-2-2 0-3 4-1 7l2 4c0 3 2 8 3 8l1-1v-4c0-1 0-2-1-1v1l-1 1c-1-1 0-9 1-11 2-2 2-3 1-4s-1-1-1 1m5 1l2 4c3 0 4 1 4 7-1 2 0 4 1 4 2 1 2 1 2-2 0-1 0-2 1-1l1-2c-1-3-6-7-8-8s-2-1-1-2c1-2 0-3-1-3l-1 3m-559 15l1 11v5l1 7c0 9 0 12 2 13 2 0 2-2-3-40-1-9-2-5-1 4m169 30c-3 3-2 4 1 3h3l-3 2c-3 2-3 3 0 2h2v4c-2 2-4 10-3 12s0 4-1 3l-1-2-2-3v-11c-1-1-1 0-1 2l-2 6c-3 2-1 22 2 22v-6c1 0 2 6 1 7-3 2 5 15 9 15 2 0 1-3-2-4l-3-3a1 1 0 101-2l-1-2a6 6 0 016 6l-3-24v-8l1 2 3 14 5 37 5 30v9c-1 2 2 1 4-1l4-1 3-2 4-2 3-3c0-2-1-3-2-1-2 2-7 4-7 2l3-2c4 0 3-2 0-1-3 0-4-1-2-3l-3-2c-4-2-5-4-2-4l3-2c0-2 3-2 8 0 1 1 1 1-1 1l-2-1 2 2 5 2h4c2 2 5 3 3 1-2-3 6-1 9 2 2 2 2 2 0 2l-3-1c-2-2-4-2-4-1l1 1c3 0 8 6 8 8-1 1-1 1-3-1l-5-3 1 1 5 4a8 8 0 014 5l3 5-2-1h-2v1l2 1 2 1c2-1 3 0 5 2l3 3 1 2 1 2a2 2 0 11-2 2l-2-1v6l1-1 1-1c2 1 2 6 0 7-2 2-1 3 1 2 4-2 5 3 1 6l-7 5a3 3 0 011-5v-2c1-3-2 0-4 4-2 5-4 5-4 2-1-2 0-3 1-2l1-1c-1-2 1-6 3-7l1-1c-2 0-2-2-2-7h-2v2c1 1-1 5-2 5-3 0-4-3-3-5 3-3 2-4 0-4h-2l1-1c2-1 2-3 0-3h1c3-2 3-3-1-3-2 0-2 0-1-1v-1l-2-1c-1 1-1 0 0 0l2-2 1-1h-1l-2-1c0-2-2-2-3-1h-2v-2l-2-3-2-2h2l4-1h-1l-2-1-2-2c-1 0-2 1-1 2l-1 1h-1l2 8a1 1 0 000 3h1v1a1 1 0 000 2l1-1 4 20c-2 2-5-1-6-4s-1-3-1 2c1 4 1 5-1 6l-3 1c-3 1-4 0-4-3l-1-3c-2-2-1-7 1-7l1-1a1 1 0 112 1v1c1 1 1 2-1 2v2c2 1 4-1 3-4l1-2c2 1 2 0-1-3-2-3-3-2-6 1s-3 2-5-3c-2-8-1-10 3-11 2-1 3-1 2-2l-4 1-4 1-4 1-4 3-2 3c0 1 1 1 3-2 6-4 6-4 8 4l4 15 3 8-3 2c-3 1-3 1-4-1l-1-3v2c1 2 0 3-1 4l-2 2h2c2 0 2 0 2 2 0 3 4 5 6 4 2 0 3 2 5 7 1 6 3 8 6 8l2 2 2 2c2 0 3-6 2-10v-10c-2-3-3-2-3 2l1 3-2-1-3-4c-1-2-1-2-2 0s-1 2-2-1l-2-7c-1-2-1-2 3-3 4-2 5-2 6 0l2-2c1-4 3-4 3 0l1 6-1 2-2-3a2 2 0 10-1 2l2 2 1 1c1-1 1 0 1 6v4l-1 1v2c2 1 3 8 2 10v1c2 1 1 3 0 3l-2-2-1-2c-1 0-1 5 1 9l-1 1-2-5c0-3-1-5-2-5-2 0-2 0-1 2v3l1 3c1 4-2 4-5 0l-2-3c-2 0-1 2 1 3l1 3 9 1h8v-9c1 0 6 6 6 8l2 1c2 0 2 0 0-4l-3-6c0-1 11-3 13-2 1 1 1 1 1-1l2-3c3-1 2-3-6-12-3-3-3-6 0-6h1l1-2 2 1v2c2 2 2 2 3-1 2-4 2 0 1 5-2 4-2 4 1 3 1 0 2 0 3 2l2 3v2l-1 1h2l2 2-1 2v2l3-1c2-3 5-2 5 1l-1 5-1-3c0-3 0-3-1-2l-4 2c-2 0-2 0-1 1 2 2 1 3-3 2-5 0-6-1-4-2l1-4c0-2 0-2-1-1l-2 5c0 3 0 3 4 3 5 0 10 2 11 4 0 2 4 3 4 1v-4l1-3 1 1c0 6 0 7 4 7h4l-3-5c-4-7-5-7-6-12-1-6 1-6 4 0l3 5c2 1 1-1-1-2l-1-3c1-1 0-3-1-4l-1-5-2-2a1 1 0 111-2l1-2v-4c2-2 0-5-2-4l1 2 1 1h-1c-2-1-3-5-1-5l2-2c1-4 3-2 4 5l-1 4v1c2 1 2 3 2 10 0 14 1 19 3 17l1 1 1 3c2 0 3 2 2 2l1 1c2 0 1-2-4-9-3-4-4-8-2-9l1-3c-1-2-1-2 0 0 3 3 9 9 10 8l-1-3c-2 0-6-5-6-7 0-1 1-2 3-2 3 0 3 1 3 4l2 4 1 1c0 3 3 8 5 9l1 2-4-3-4-3-5-3c-3-3-4-4-4-2l14 11 4 1c-1-2 2-2 2 0 1 2 3 3 3 1s0-2 3-1c2 1 2 1 0-2l-4-6a152 152 0 00-4-15c0-1 6-6 7-5l7-2c4-2 6-3 9-2a20 20 0 0116 14c1 1 1 1 1-1a1 1 0 112 0c-1 2 3 6 5 5l2 2 1 2c-3 0-3 2-1 3l4 4 2 2c1 0-3-10-5-12l-1-3c0-1-1-2-2-1-2 0-4-3-2-4 1-1 0-1-2-3-6-3-12-8-13-11-2-3-5-6-6-5l2 2c3 3 0 2-3 0-2-2-4-2-6-2h-2l-2-1-2 1h-1l-2-1c-3 0-6-4-8-10l-5-10c-4-4-5-6-3-6v-1h5c2 1 2-2 0-4v-5l-3-4c-1-5-4-10-5-9-2 1-5-1-4-2h4c2-2 1-3-1-3h-1c0-2 0-2-2-2h-2l2-2c2-2 2-2 1-3h-3v-3c-1-1 0-2 1-3 3-1 3-1 2-4v-3l1 2 1 2c2 0 1 3-1 4s-2 1 0 1l4 1 2 1-1-2c-2-3-1-5 2-5 4 1 4 0 0-2l-3-2h3c2 0 3 1 5 3 2 4 3 4 4-1 0-4 0-5-2-6l-2-3-2-3c-2 0-10-9-10-11 0-3-3-8-6-9l-2-2c2 0 1-2-2-2s-4-1-5-3c0-2-2-3-3-4v1c3 6 3 13 0 13v-1c1-2 1-2-1-4s-2-3-2-8v-2l-2 4v1l-1 1c-1 0-12 10-14 14-4 5-2 4 3-1a31 31 0 019-9l3-3v4c-1 1-2 4-1 6s1 2-1 1l-2 1 1 1 3 4 3 4 1 1h-2l-2-1-1-2c1-3 0-3-2 0l-2 1-2-3 1 7-1 2-1-2-2-2a22 22 0 006 14c1 0 0-4-2-7v-2h3c1 1 0 2-1 1-1 0-1 2 1 5l1 3v3c2 0 3 4 1 6v3l-2-1c-4-3-4-4-5-8 0-5 0-6-2-6v-3l-1-2-1 2c0 2-3 1-4-1 0-2 0-2-1-1v4c1 1 2 2 1 5l-2-1v1c0 2 0 2-2 1-1-1-1-1-1 1l1 4 2 1 1 3c0 2 0 2-2 1l-2-2 1 3 1 2-2-1h-2l-3 2 2-4c3-2 3-3 2-5-1-6-3-7-3-2 0 3-3 8-3 5 0-1 0-2-1-1v-3c2-2 2-5 1-5l-1-1c1-2-4-3-6-2v-2c1-1 0-2-1-4l-2-4c0-3-5-12-7-12-2-1-3-3-1-3l-1-2h-4l-2 3c0 3-9-3-15-12-5-6-7-9-9-9s-1 1 2 4a8 8 0 012 9l-1-3c0-3-1-4-6-8-3-3-6-15-4-17v-8l-1-1c-1-1-2-2-1-3 0-2-2-1-4 1m31-1l-3 1-7 2-1 10-2 10c-2 2-1 5 2 6l2 3c0 3 10 13 12 12 2 0 2 0 1 1l-1 2c1 0 3-1 3-3l3-2c2 0 2 0 0-2-5-4-5-11-1-10 3 1 3 1 3-5v-12a11 11 0 00-2-9c-1-2-3-2-7-2v-1l-2-1m-6 5l-2 2 2 2c2 2 2 2 0 3-2 2-4 10-2 10l2-3v-3h5l-1 1c-3 0-2 1 1 4 2 1 3 3 2 3h-2c-2-2-4-2-4-1l-1 2h9c2 0 2-6 0-6-2-1-2-1 0-3 3-2 3-4-1-3-2 0-3 0-4-2-1-4 1-4 5-1h2l-2-2-2-1h5c2-2 0-3-3-2-2 1-3 1-4-1-2-1-2-1-5 1m370 1l-2 4c-3 3-3 4 0 3 3 0 2 2-1 4-2 1-2 1 1 2l4-1 3-1a2 2 0 002-2c0-2 0-2-2-2l-2 2-1 1c-1 0-1-1 1-5 2-3 2-4-1-6-2-1-2-1-2 1m-564 3c-2 1-2 1 0 1l2 1 2 1c1 0 2 0 2 2v6l-2 2-2 2c-2 0-2 0-2 2s-1 3-2 0h-2c-2 1 0 4 3 4l-1 3c-3 4-4 16-1 18 2 2 2 7 0 7v-2l-1-3c-1-1-1 0-1 1l-2 3c-2 2-2 2 1 2l5 2c2 0 3-3 0-10-1-3 2-2 3 1 2 4 1 8-1 11v4c2 0 5-7 4-11a22 22 0 01-1-8l-3-1a17 17 0 012-18l2-5 3-5c-1-12-2-13-8-10m89 1l1 4c1 2 0 3-1 3-2 1 0 3 2 2l3 1-4 2c-3 0-3 0-1 1s2 2 2 8l-2 7v3c0 4-1 4-3 0l-1-2v2c0 3 0 3-2 2l2 5 1 3 3 8c4 8 5 15 3 19l-1 4-1 6c-2 3-2 4-1 4 2 0 5-7 6-11 0-4 2-7 3-6l1-1 2-2c2 1 5-3 3-5l-1 1-2 2-1-2 2-6c0-3 2-4 2-1l1 1v-1l1-3 2-2a1 1 0 013 0c0 2 5 3 7 2s7 0 8 3c1 2 4 4 4 2l-2-2v-2l2 1c1 2 4 3 4 2l-3-4c-2-1-3-3-2-4l-2-2c-3 0-3 0-1 4v2l-6-6-1-2v-2c1-2-1-4-2-2h-3c0-2-1-2-3-2l-6-2c-3-1-4 0-1 4 2 5 0 10-5 11-2 1-2 0-1-2l-1-4-1-3-2-5c-1-2-1-5 1-4l3-3 1-5v-1l-1-5c0-5-2-10-3-8s-4 0-4-3h4l-6-4m425 6l1 7c0 2 0 3-1 2-2 0-2 9 0 10 2 2 1 4-2 3h-1l2 5c2 3 2 3 3 2a7 7 0 012-3c-1 1 1 6 3 6 3 0 2-6-3-9-2-2-2-2 0-4 1-2 2-2 3 0 2 1 2 1 1 2-2 1-2 2-1 2 2 2 5-2 5-5l-6-12-3-5c-2-4-4-5-3-1m-611 1v2l-2 2c-2 2-3 3 0 2 1 0 2 2 0 3s-1 2 2 2l2 1c0 1 1 5 6 14l1 4 1 3v-5c-4-6-8-20-8-24 0-5-1-6-2-4m78 2l1 2c2 2 0 4-3 3-4-2-6-1-7 1-3 8-3 9-1 15l1 7c-1 2-4-5-4-9l-1-3c-1 0-1 2 1 9s5 10 7 9 3 1 8 19c1 4-1 3-3-1l-1-2v3c0 2 0 3 2 3v3l4-1c3 0-2-24-6-25l-4-2h-3l1-2h5l1 1v-2l1-4v-2l-2-1c-2 0-2 0-1 4 0 3 0 3-2 2-2-3-4-13-2-18 2-3 3-4 8-1 3 1 3 1 2 3l-2 4c1 1 1 0 3-3a9 9 0 00-3-12m49 0l-5 3h1c2-1 3 0 3 3 0 2 0 3 1 2 1-7 1-7 6-7l4 1a14 14 0 01-1 12l-1 4v3c1 2-3 2-6 0v1c2 2 2 3 1 3l-2 1 4 12c2 0 3 5 2 6a8 8 0 004 10l1 2c2 4 1-1-1-5s-2-10 1-10l1 1h1l-1-2c-4-3-4-6 0-6l5 2 4 1 2 2c1 3 4 5 4 3s-3-5-6-7c-3-1-3-2-1-2l1-1-1-1-3-4-4-6-1-2 2 1c1 3 2 1 2-3l1-4 1 5c0 5 0 5 2 6 3 0 4-2 1-2-3-1-3-4 0-7 2-3 2-3 0-4-2-2-2-2-4-1-1 1-3 1-3-2h2l1-1-2-1c-2 0-3-1-4-3a5 5 0 00-6-3h-6m529 3v8c-2 3 1 8 3 5l1-3 2-2c2-1 3-3 1-3l-1-2 1-2-1-2c-4-1-5-1-6 1m-607 3v4c-1 1 0 2 1 3 2 1 2 2 1 4-2 3-1 5 1 3 1-1 2-12 0-15s-3-2-3 1m65 0l2 2c5 2 4 6-3 6-5 1-7 3-3 3 2 0 2 1 2 6a15 15 0 001 9l-2-1v2a13 13 0 012 7c0-2 2-3 2-1l2 1v-3h1l3-1 1-2h-7v-4c-2-13-2-15 3-15 3 0 5 1 4 5v3l1-3c2-3-1-10-5-13-3-2-4-3-4-1m-77 4l-4 1h3c2-1 3 1 1 4v10l-1 6c-1 1 0 2 1 2 2 0 2-1 2-3-1-10 2-19 5-19 2 0 2 0 1-1l-2-1-6 1m-50 2v11c1 3 1 3-1 3l1 2c2 2 2 4 0 2-1-1-4 0-4 1l2 1h2c2 2 0 4-4 4-4 1-4 2-4 8-1 3 0 5 1 5 2 1 2 1 2-1s1-2 3-2c1 0 2 0 1 1l-1 1h1l4 3 4 5c2 1 2 2 1 3l-3-2-3-4v4l3 5c2 2 4 4 4 6l2 4 2 3 1 2v-3l-2-5-2-4c-1 0-2-4 0-4 1-1 1 0 1 1l1 2c3 0-3-12-9-18l-3-4c0-3 3-9 4-9v-2c-2-2-3-9-1-11v-3l-1-4-1-2c-1-1-2 0-1 1m9 1c-1 2-1 2 1 2v2c-1 1-1 1 0 0l3 1c1 2 0 12-1 13v3l2-3c1-4 3-5 3-2l1 1c1-2-6-19-7-19l-2 2m654 8h-4l-2-1 2 3c2 2 3 3 0 3a5 5 0 00-5 3l7-1 2-1h1l1-2v-2l1-2 2-1c0-2-4-1-5 1m-363 2l1 5a6 6 0 01-2 8l-1 3-1-4c-1-3-1-3-1-1l-3 3c-2 3 4 8 8 5 1-1 2-3 0-2h-1c0-1 1-2 3-2 2-1 2-1 1-2l-1-4-3-9m-118 3l-3 4-2 1v-2l-2 7-1 4c-1 1-1 3 1 3l4 3 6 5c3 1 2 0-2-4a32 32 0 00-8-7h1c1 0 2-1 1-2l3-6a7 7 0 003-4v-2h-1m3 3l1 4v3l1 3c1 2 1 3-1 5-1 3-1 3 1 3l2 2c0 2 2 3 3 3v-6l1-5c-1-3 1-2 2 0 1 3 3 4 3 2l-2-4-2-4-2-1c-2-1-2-1-2 1s-1 1-2-2l1-3 1-2-2 1h-3m-132 8l2 4v4c-1 1-1 1 1 1 6 0 6-2 2-7-4-3-5-4-5-2m254 1l-1 4-1 1c-3 0-3 2-1 3s2 1-1 1l-3 2h3c2 0 3 0 4 2 1 1 2 2 3 1l2 1-1 2h-3l1 1c2 1 6-1 6-3l-3-1c-2-1-3-1-2-5l-1-3 1-4v-1l-1-1c1-3 1-2-2 0m-174 1c-2 1-2 2-1 5 2 5 3 5 2 0l1-4c2 0 6 6 7 10 0 3 1 4 2 2v-2l-1-3c-1-3-6-9-8-9l-2 1m87 4l-2 1v2l1 2 1 1 1-1h2l3-2c2-1 2-1 2 1s3 2 4 1c2-3 1-4-1-4l-4-1c-1-2-5-2-7 0m72 9c0 6 1 8 2 8 2 0 2-1 2-4 0-2 0-3 1-2a7 7 0 006 0l-2-1-2-1c-2 0-2 0-2-2 1-2 0-2-1-2-2 1-3-1 0-3 1-1 1-1-1-1-3 0-3 0-3 8m-56-6v1c0 2-2 4-6 5-2 0-3-1-3-2l-1-2v2c0 2 0 2-3 1-2-1-2-1-1 1l-1 3c-2 0-4 4-4 7h1l3-1 1-1a2 2 0 114 2l-1 3c-1 3-6 2-9-1l-2-2-2 2-2 3v-4c0-3-2-4-4-1v1c2 0 2 0 2 2 0 3-1 5-3 5a2 2 0 00-1 3c3-3-1 9-4 11s-2 4 1 2c4-2 4 3-1 7-5 6-7 10-8 19l-1 9c-2 2-4 1-4-1 0-1 0-2-1-1l-1 1c0 2-3 4-4 4l-3-5-1-4c-2-1-5 0-5 1l-2 3-1 3 1 8 2 7 1 4 1 2c4 3 1 15-3 14a1 1 0 100 3c3-1 3 1 0 2s-3 1-3-1c0-4-3-2-4 2v6l1-1c3-3 4-2 1 4l13 1c9 0 13 0 12-1h-1l-1-1c-1-1 0-1 1-1l7-5 5-5c1 0 3-2 3-4l-1-1c-2 0-2-3 0-5v-6c2-2 2-2-1-9-4-8-4-8-6-6-1 2-1 2-1 0 0-5 8-1 9 6l1 4 1-2 1-1c2 0 2 0 2-2v-1l2 1-1-2-1-3 2 1c0 1 5-4 5-6l-2-3c-3-1-3-3 0-3l3 3c1 2 1 2 5 1l5-1c2 0 2 0 2-2 0-1 1-2 3-2l2 1-1 1 1 1 8 1v-1l1-13c0-4-1-8-4-14l-4-7c-2-4-2-8-1-8l2 1h1l3 1 2 1v-5h-2a2 2 0 11-1-2c2-2 3-6 1-6l-1 2-1 2a3 3 0 010-5l2-1 1-4c1 0 2-1 2-3 0-1 1-2 3-2 1 0 2-1 2-3l2-3c2-1 1-2-2-4h-1c2 2-1 8-4 8l-2 3c0 2-2 3-3 1v-1l2-2c1-2 1-2-2-1-3 0-3 0-3-2l1-4c2 0 2-1 1-2l-2-1m-172 5l-1 6-1 5-1-1a1 1 0 00-1 0c0 3 0 5 1 4 1-2 2-1 2 3l3 5 1 2h-3v2h3c2 0 2-1 0-6s-3-10-1-10l2 5c1 4 3 7 5 6l-4-10-4-11h-1m-16 3l1 3-1 1v4a4 4 0 007 2v1c-1 2 1 4 3 3h1l1 1-1-2-1-4c-1-3-1-3-2-2l-1-4c-1-5-2-6-4-6s-3 0-3 3m253 3c-2 1-2 3 1 2l3 1c1 2 1 2-1 2l3 1 5 1c2-1 10 2 11 4h4c0-1-1-2-3-2l-3-3h-1l-3-1-6-3-7-2h-3m-148 3l-2 1c-1 0-2 1-2 3l1 2 1 2c0 2 1 1 3-2l1-4-1 1-1 1 1-2c1-2 1-2 2-1l1 3v2c1 1 5 12 4 13l2 1c2 0 1 3-2 4-5 0-4 2 2 2l3 2c2 3 0 4-2 1-2-1-2-1-2 1v4c1 2-2 1-3-1l-2-4c0-1 0-2-1-1l-2 1c-2 0-4 3-4 6 1 3 0 5-2 3h-2c-2 1-1 2 2 2 2 1 2 1 1 4 0 2 0 2 1 1 3 0 2 1-1 6-2 3-2 3-1 5h2l2-6c2-4 2-6 1-7v-3h1l1 1-1-2-1-4c-1-4 3-4 5 0s2 4 8 1c4-2 5-3 4-4l-2-6-4-8c-2-3-5-11-5-14 0-4-4-8-6-4m201 0v1l1-1h1l1 2c0 4 9 11 16 14 3 1 3 1 2-1l-5-2c-3-1-5-2-6-4l-3-3v-1l-1-1c-1 0-2-1-1-2 0-1 0-2-2-3s-3-1-3 1M3 288l-2 2 1 1h1l-1 1-1 1h2c2 0 1 1-1 3l-2 3 3-1 2-1c1 1-2 7-4 6l-1 8c0 6 1 7 2 6v-11l1 1c0 1 1 2 2 1l3 3c1 3 0 5-1 3H6c0 1 3 3 4 1l-1-6-2-6c1 0 3 2 4 5l2 4v-4l-3-4c-2-4-2-4 1-6 3-3 7 0 4 3v3c2 1 3 1 3-4 1-3 1-3-1-4l-3-3-8-6-3 1m230 5c0 2 0 2-1 1-4-1-2 2 2 4l6 3h6l-4-1-4-2 2-1h3c1-1 0-1-1-1a12 12 0 01-9-5v2m437 4v2c2 1 3 3 1 2l-2 1c0 1-1 2-3 2-3 1-4 3-1 3 2 0 2 0 1 2 0 3 1 2 2-1l3-2h6l-1-1a1 1 0 110-1h4c1-3 4-1 3 1l1 2 2-3 2-2 2-2a1 1 0 10-2-1 1 1 0 01-3-1h-10c-1-2-3-2-5-1m-364 7l-3 3 1 4 2 6a11 11 0 01-8 8l2 1-8 3-2 1c-1 1 1 1 6 1h7c1 1 1 0 1-1l-1-4c-1-1 0-2 1-3 3-2 4-1 2 1-1 2-1 2 1 1 6-2 8-5 6-9l-2-12c0-4-1-4-5 0m-142-1l-1 4-3 5c-2 2-2 2-1 3 2 0 1 2-1 3l-2 2-2 1h-2c1 0 0 2-2 3s-3 3-2 3l-1 4-9 18c-1 3-5 4-5 1v-2c-2-1-2 3-1 5v3l-1-1v-1l-1-1-1-2c-2 0-3-3-1-3l1-3 2-2a2 2 0 000-3l-10 5c-1 3-3-1-2-5 1-3 0-5-1-3-2 2-3 12-2 14 2 3 3 3 2 0l1-3 1 3 1 4-1 2-1-2h-1l2 3 2 4 1 2c1 0 3 5 2 7 0 4-2 4-2 1l-1-3-1 4c1 6 0 6-3 2-1-2-1-3-2-2l1 2v1a2 2 0 01-3-1l-1-2h-1c1 2 0 3-2 1h-2c-1 1-1 1 1 2s3 4 1 3l-2 2v2l1 1c-2 2 0 4 3 4 4 0 9 5 6 6l-2-2-1-2-1 2 2 5v3h8c10 0 12-2 9-5v-2c1 1 1 1 1-1l-2-2-3-1h-2l-1 1c-2-1-1-10 0-12h3l3 2h3l3 2 1 2v10c-1 1 0 1 1 1 2 0 2-1 2-2-2-10-1-11 2-10 3 0 6 3 6 5l1 1 1 6c-1 5-1 5 2 5 2 0 3-2 1-9-2-6-2-6 0-6s3 2 4 5c2 6 4 10 6 10s2-1 0-4l-2-5c0-5-7-12-10-11-2 2-9-1-8-3 1-1 1-1-1-2l-3-2h1l13 2c2 0 2 1 2 2l1 2 1-5-1-5h4c4 1 5 1 6 5l2 5 1 6c0 5 0 5 2 4v-11c2-1 1-3-1-3-1 1-1 0-2-2-2-4-1-6 1-6s1-2-5-6a26 26 0 01-7-5l-4-2-3-3-1-2-1-2-2-2 1-2 1 1 1 1v-3c-1-5-2-10 0-11l1 5c0 7 2 7 2 0 0-5 0-6 3-10 4-4 4-6 7-15l2-7c0-2-1-3-2-1m410 5l2 3 6 5c6 5 9 6 7 4l-1-4c0-4-2-6-5-6-1 0-2 0-1 1l1 1h2c2 2 0 3-3 2l-4-4-4-3v1m-515 7c1 3 1 4-1 5-1 2-1 2 1 2s5 4 5 6c-1 1-1 1-2-1-2-4-3-3-2 1 0 6-2 9-6 11l-2 2-1 2-2 2h1l3 1c1 1 1 1 1-1-1-1 0-2 1-3l5-5 1-2 1 1c-2 4 1 2 3-2s4-6 2-2l-1 4c-2 2-2 4 1 4l2-2 1-4v-4l2-1h1c0-2-5-5-6-4-2 0-6-6-6-9l-2-3c-2-1-2-1 0 2m177-2c-2 0-1 2 1 2l2 1-2 2c-2 2-3 5-2 5a10 10 0 008-7c0-1-5-4-7-3m-191 2c0 1 1 4 3 5 2 4 3 7 1 6l-2 1-3 4c-4 4-5 6-3 6l2-2 2-3 4-3h1l1 3 1-4c-1-4-1-4 1-3l3-1-3-3-3-1c0-2-5-6-5-5m-35 2v1l1 2c-1 1 0 1 1 1 2 0 2 0 1 2v2l2 2 2 4v2l-1 2h-1l-3 3c-1 2 0 3 2 1h3c0 1-1 2-2 1-2 0 0 3 5 14v3c-1 0-3-1-2-2l-1-2-1-3c0-2-4-6-8-6a2 2 0 00-3 1v1h1c1-2 3 0 3 2 0 1 1 2 2 1l2 1c0 3-4 2-5 0-2-3-2-3-1 2 1 3 1 3-2 3H4c0 2 0 2-2 2l-2 1 3 1 2-1 2-1v3l1 1H5c-1 1 2 5 4 5v3H6l-1 1 4 1h1v6c-1 1-1 1 1 1l2-1-2 3-2 2h2c4 0 4 2 0 3-4 0-4 2-1 2 2 0 4 1 2 2-3 0-3 0-1 1 5 2 7 0 5-4-2-3 0-5 4-5 3 1 3-3 0-10-3-6-3-10-2-9l2-2c0-5 4-2 4 4l1 3c1 0 2-1 1-4v-4a47 47 0 017 16c2 1 0-8-3-15l-1-4 2 2c0 4 2-1 2-5 0-7-2-10-10-19-3-4-5-9-3-11 1-2 0-2-2-3-3-2-3-2-2 0s-2 1-3-2c-2-2-3-3-3-1m595 5c1 1 0 1-1 2-3 1-13 11-13 14-1 2-2 2-4 1l-2 1 2 2c4 0 4 1 3 5 0 3 0 4-3 3-3 0-3 0-1 1 3 0 6 3 5 4h-2v1c1 1 1 1-1 1l-3 3c-2 2 7-3 10-6l5-3 1-1-2-1-2-1-1-1-1 2c0 2-2 3-2 0-2-3 5-8 8-5v-1c0-3 2-6 9-9l4-3c-1-1-5 1-8 4-3 2-6 2-3 0v-7c5-4 6-8 3-8l-1 2m-242 0l2 3c2 1 2 2 1 2l2 1 6 1h1c0-2-8-8-10-8l-2 1m288 2c2 3 4 4 6 5l5 1c4 2 15 15 17 19l2 2c3 0 3 2 1 3-1 1-2 1-4-1h-5l-4 2c-4 2-6 4-5 5l3-1c2-3 6-4 6-2l-1 3c-1 1-1 1 3 1 3 0 14 7 10 7l-1-1c-1-2-4-3-4-1l4 4c6 5 11 19 7 21-3 1-7-1-8-4v-7l-1-4v12l-1 11c-1 1 3 1 9 1 9 0 10 0 6-1a13 13 0 01-9-3l-2-2 2-1 4 2 4 1 3 1 3 2 5 1h4v-39c-1-4-2-2-2 4s-2 8-4 8v-1c2-1 0-6-2-6-1 0-2 0-1-1l-1-2-2 2a3 3 0 01-5 3l-2-1-2-4c-2-1-2-2-1-2v-1l-1-4-4-8-11-11c-4-5-8-7-10-8a21 21 0 01-12-7c-2-1-2-1 1 2m-412-1l-2 1h-2c0-1-5-2-5 0l3 2c1 2 2 3 1 4l-2-1-2-1 6 6 5 3c4 2 6 3 6 1 0-1-1-2-3-2l-4-2-2-1c-3-2-2-3 1-3l4 2a4 4 0 005 2h3l3-1-4-1-4-1-1-2-2-4c0-3-1-3-4-2m383 2l1 3c3 3 3 6 1 6-1-1-1-1-1 1 1 2 0 3-4 1h-3l4 2 3 2c-1 2 1 3 3 4v1c-1 0-2 1-1 2l-2 1c-2 0-2 0-1 1l3 1 4 2a32 32 0 009 6l18 15c2 1 4 2 4 4 0 3-2 3-4-1-2-3-4-4-3-1l2 8v6l-3-5-3-6-2-4-3-3 1 3 13 24-3 1 10 1c10 0 12 0 11-1l-2-3-2-2v1l-1 1v-9l-1-1-2-2-1-2-1-3v-2l1-1-1-1c-5 2 4-6 10-9l3-1h-4l-6 3c-6 5-7 3-2-3 5-5 3-5-2 0-3 3-5 4-5 3-2-5-2-5-4-5-2 1-3 0-1-2h3c1 1 2-3 1-9 0-2 1-3 3-4 2 0 3-2 3-3 0-3-2-3-2 1-1 2-1 2-2 1-2-2-3-1-4 2a5 5 0 01-3 4c1 1-2 3-6 6-3 3-7 2-8-3l-2-5c-2-1-2-7 0-7l1 1v1c1 0 3-3 1-4l-1-2c-1-3-10-9-11-9l3 3 2 5c-1 2-6-4-6-7 0-2-5-9-5-7m-290 4v2c-2-2-2-2-3-1-1 2-2 2-3 1v3c0 2 5 1 6 0 1-2 2-1 3 1v3l1-3-1-4-1-4-1-2-1 4m58 0c0 2-1 2-4 1l-5 1h2l1 1c-1 1 0 2 1 1l2 1h4l1 1c-1 1 0 1 2 1s2-1 2-3 1-3 2-2c1 0 2 0 1-2 0-3-9-3-9 0m-302 1c0 5 3 8 6 6l4-2c2-1 2-1-1-2-3-2-5-2-5 1 0 2-2 1-2-1l-1-2h-1m390 0c-5 2-7 5-2 5 2 0 7 4 7 6s-2 1-2 0l-3-2-4-1c-1-4-5-2-5 1 0 5 4 13 4 9 0-3 3-4 4-1 0 1 1 2 2 1 3 0 6 1 4 2v3c2 1-1 4-4 4v2c2 1 4 4 4 7l1 3 1 1-1 1c-1-1-2 0-2 2l2 3 1 4 1 4 1 4c0 4 0 4 1 1 0-2 1-3 2-3v-1c-2-2-3-10-1-8l1-1-1-1-1-3c0-2 3 0 4 3 1 2 1 3 2 2l-1-3-1-3-1-1c-2 0-2 0-1-3 1-2-1-3-2-1-2 2-3 1-2-1 4-7 11-10 14-6l3 2 4 7-2-2c-3-2-4-1-2 2 4 4 1 4-5 0-5-5-7-5-4-1l3 4 2 1 1 2-4-3-3-2 1 2 1 2c0 2 3 4 4 4v5c0 3-1 3-3 2-4 0-4 2 0 3l2 2h-1c-2-1-2 0-2 2s1 2 3 3l3 2-3 1c-2 0-3-1-3-2a1 1 0 00-3 1l1 1 1 1-3 1c-3 0-4-1-2-3v-2l-1-1-2 4-2 3h29l1-5c2-6 5-8 4-3v4l-1 2c-2 2-2 2 15 2h18v-3c0-2-4-10-7-11v-4c0-4-10-16-12-14-1 1-1 1-1-1s-1-4-3-5l-5-4c-1-2-4-3-7-4l-6-1h-2l3 2c2 1 2 1 0 1l-2 3-2 2-1-1-2-2-2-2h3l3 1-2-2-2-1-2-1c-4 0-4-2-1-3l2-1h-2c-2-1-3-2-1-5 1-1 1-2-1-6-3-5-6-7-7-5l-4 1-8-1c-5 0-3-2 2-2l4-1h-7m-398 2v3c-1 3-1 5 2 10l2 5-3 4c-4 4-4 5 0 1 3-3 4-3 5-2 1 2 1 2-2 3-3 2-4 5-2 5l1-1c0-2 4-4 7-3h2l-2-2a20 20 0 01-6-17l-1-3c0-3-1-4-2-4-2 0-2 0-1 1m33 6c-2 3-4 4-5 2v7l3 3h3v-11c2-4 2-5-1-1m101-1l1 1 3 4c4 9 10 13 15 10 1-1 1-1-2-3l-5-7-4-4c-2 0-1 3 4 8l4 6c-1 0-10-9-12-13s-4-5-4-2m167 0l1 1 1 5c-3 1 0 3 4 3 2 0 3 0 3 2 0 3 2 6 4 6h3l-3-1c-2-1-3-3-1-3l1-2 2-2 2-3 1-2c2 1 1 4 0 5-3 2 0 3 6 3h5l4-4v-2l-1 2-5 1c-4 0-4 0-5-4 0-3-1-3-4-4l-3 1-1 1h-2l2 2-1 2c-2 3-3 2-3-2s0-4-3-6c-6-1-7-1-7 1m-81 4c-2 1-2 2-1 3v1l-1 2v3l-1-1-2-1-2 1 2 1 1 1c-1 2 2 5 2 3v-2l2 2c1 2 1 2-1 2l-1 1-4 1c-6 0-11 1-11 2l-1 3-1 2h3c-1 2-4 2-7 1-2-1-2-1 0 1l4 2c3 0 3 6-1 16l-3 11c0 2-1 3-2 3-1 1 3 1 9 1l11-1h2l12 1c8 0 11 0 10-1-4-2-16-25-16-29v-3c0-3-4 3-4 6l-2 4-2 3 2-1 3-1v3c-2 1-2 1 0 1s3 0 2 3l1 3c1 0 2 1 1 2l1 3c2 2 1 3-2 2-3 0-3-1-2-2l-1-2c-1 2-3-1-2-3l-2 1c-2 0-2 1-1 1l4 3a7 7 0 01-7-4l-1-1-1-1h1l3 1v-2c-2 0-2-1-1-1a1 1 0 100-2l-2-1-2-1c-1 1-2 0-2-1s1-2 3-1c4 0 5-2 2-4-2-1-2-1-1-2s2 0 3 1 3 1 3-2l-5-1c-7 0-8-1-6-6v-4c0-1 4-2 10-1l5-1c2-3 7-2 8 1l2 3v5l3 9c6 13 10 18 15 15 1-1 1-2-3-7l-8-16c-3-7-5-9-5-7h-1l-2-3v-3c2-1 2-1 1-4-2-4-2-5-3-3h-2l2-1v-4h-4c-2 2-1 4 1 2h2l-2 2v2l2 3c1 1 1 1 1-1-1-3 1-3 2 1 0 3 0 3-3 2h-3c-1 1-1 0-2-2-2-5-2-5 0-4l1-1c-1-2 0-3 1-5 2-3 1-4-2-1v-1c0-2 0-3-2 0m-236 1l-4 2c-1 2-1 2 1 2h2l4 5 1-3v-5c1-1-1-2-4-1m209 5c0 3-5 7-7 7-2-1-7 1-7 2l1 1c2-2 1 1-1 2l-10 6a5 5 0 016-5c1-1-2-2-4-1l-3 1-2 3-3 6c-3 3-4 5-3 6s2 15 1 18-3 3-3 0a1 1 0 10-2-1c1 3-6 9-7 6l-3 1c-2 1-1 1 7 1l9-1-2-1-2-1h3c4 0 8-2 4-3-2-1-2-1 0-1l2-1h1v2c-2 3-1 3 3 2s6 0 6 2 1 2 4 2h4l-3-2-7-3c-4-1-4-1-4-4 1-2 1-4-1-5v-4c2-5 4-5 4-1 0 3 0 3-2 2l-2 1c2 3 6-1 6-7 0-3 2-3 3 0l2 2v-3l1-2c1 0 4 3 3 4l1 2v14c0 1 1 2 2 0v-1c-2-1-2-2-1-4v-5l1-2 1 3 1 2v7l1 6v-4c0-2 0-5 2-7v-4l-1-2c1-1 0-2-1-1l-1-1-1-2-2-8 2 2c2 4 4 4 6 0 2-3-1-5-6-5-3 0-4 0-3 1v2c-5 3-7-6-4-12 3-4 3-5 5-2l5 1 3 1a1 1 0 101-2h-4c-2-1-2-1 0-4l3-4v-3c-2-1-2-1-2 1m-115 2c-2 1 2 8 6 8l1 1 8 5-8-8c-2 0-6-3-6-5l-1-1M47 361c0 9 0 12 2 13 1 2 1 2 2 0 1-3 7 8 7 13 0 2 0 3 2 3 1-1 1 0 1 1l-1 2 1 3 2 3h7l-1-1v-3c-2-1-1-2 2-2l4 4c0 3 0 3 6 3l6-1c0-2 4-4 5-2v1l-2 1c-1 1 2 1 6 1h8l-2-2-2-4-1-1-2-1c0-2 0-3-3-5-4-2-6-1-6 2l-1 1-1-2h-1l-2 2-1 2-1-1c0-2-2-3-2-1-1 2-5 0-5-2v-1l1 1 2 1v-6c2-1 2-1 4 1s2 2 3 1l3-1c2 1 4-2 3-5l3-3c2-1 3-1 2-4 0-3 0-4 2-6 3-3 3-3-1-5-2-2-3-2-3 0 0 10-2 16-6 13-1-2-5-2-7-1l-3 1c-2 1-3 6-1 6v3c-2 3-2 3-4 2-3-2-4-3-1-5v-2l-2 2a8 8 0 01-6 2c2-1-2-5-4-4l-1-1c1-2 0-3-4-6l-2-4-1-2-2-12-1-3c-2 0-2 2-1 11m11-7l1 4v-2h1l2 3v1c1 0 9 7 9 9h-2c-1-2-2-2-2 1l1 4v1c-2 0-2 0-1 1 2 1 3 1 3-1 1-1 1-2 2-1 2 0 2 0 2-3l1-3 1 1c-1 1 0 2 1 2 3 1 3-1 1-2-4-3-6-5-6-7h-2c-1 1-2 0-6-4-5-6-6-6-6-4m144 0c0 2-1 2-1 1a2 2 0 00-4 1v1l1 4 1 4h1l1-3v-2l1 3c0 1 1 3 4 4 4 2 8 2 6 0h-1c-1 2-5-1-7-5l-1-3 1-1c0-2 0-2 2-2 1 0 2 0 1-2l-2-1h-1c-1-1-1 0-2 1m-49 3l2 4 3 5c1 2 9 2 10 0l-2-1c-2 1-2 0-2-1 0-2 0-2-1-1h-3l-1-2-1-1-1-2-2-1-1-2-1 2m251 3c0 3 0 3 2 3 1-1 1-1 1 1-1 2 0 3 1 5 2 2 4 1 2-1v-1c2 0 2 0 2-2v-3c1-3-1-4-3-3h-2c-2-3-3-2-3 1m-262 2l-1 2c-1 1 0 4 2 4l2 2c1 4 4 2 3-2 0-4 0-4-3-3h-2v-3c0-3-2-2-1 0m39-1c-1 2 0 5 1 7 1 1 2 7 1 9l-3 1h-4c-1 1 0 1 2 1l8 1h2l-1-2-2-8-2-9h-2m144 0c-3 0-1 6 2 6l3 1c2 2 2 1 1-4-1-4-2-4-6-3m25 8c0 5 1 6 2 5 4-2 4-11 1-11s-3 1-3 6m-163-3c1 2 2 3 1 4s3 10 4 9c2-1 1-6-1-9-1-1-2-3-1-4 0-2 0-2-2-2h-3l2 2m423-1l-1 4c0 5-1 6-4 5-3 0-4 0-3 2 0 4-2 6-4 4l-1-1c0 2-1 2-2 2-1-1-3 0-4 2-5 5-11 7-13 4-1-1-7 2-10 6l-5 3c-2 1-2 1 1 1l4 1c0 2 4 2 6 1h3a3 3 0 005 0v-5c-1-2 1-4 3-3l3-2 3-3c3 0 4 4 1 6-1 2-1 2 2 1 2-1 3-2 2-3-1-3 15-6 17-3l1 1 3 2c2 3 4 9 2 8h-5c-3-2-4-2-6 0s-2 2 8 2c7 0 10 0 9-1l-1-1h-2v-1h2l-8-10c-3-2-4-4-2-5v-6l1-7-1 2c-1 2-2 5-1 7 0 2 0 2-1 1l-1-8c0-7 0-8-1-6m-569 2c-1 2 1 8 3 9s1 2-4 1-6 0-2 3l1 3 3 1 4 1c1 1 1 1-2 1s-3 0-2 1h4c2 0 5 5 3 6-2 2 0 7 3 7 1 0 2 0 1-1-2 0-2-1-2-8v-7c0 1-1 1-1-1v-2c1-1-1-5-3-5l-2-2c0-3-1-6-2-5l-1-2c1-2 1-3-1 0m342 0c-1 0 1 6 4 11 4 5 5 6 5 3l-1-2c-1 0-2-1-2-3l-3-6c-3-4-2-4-3-3M1 373c0 4 0 5 2 4a1 1 0 110 2c-2 0-2 2-2 9 0 6 0 8 1 7l-1 4 8 1c7 0 8 0 8-2l-2-5c0 2-4 2-4 0l-1-1c-3 0-4-2-5-4l-1-4 1-3a15 15 0 00-3-12c-1-1-1 1-1 4m552 3c1 2 0 4-3 4-5 1-3 4 4 6l5 3c2 2 4 1 5-1 3-3 2-4 0-3-2 0-2 0-1-1 3-2 2-3 0-2l-4-2-2-1-2 2c-2 1-3 0 0-3 1-2 1-2-1-3s-2-1-1 1m-438 3v1l-2 2c-1 1-1 1-1-1l1-2-1 2c-2 3-2 3 4 5 4 2 4 2 3 0l1-2 1-2c0-2-1-3-2-3v2c0 2 0 2-2 0l-2-2" itemprop="bold" fill-rule="evenodd" tabindex="-1" fill="url(#16282281824-posters-1654102179771-vertical-bold" fill-opacity="" stroke="url(#16282281824-posters-1654102179771-radial-regular" stroke-opacity=""></path><!----></svg>