<svg id="14156667777-posters-1653239927006" itemscope="" itemtype="/posters" itemid="/+14156667777/posters/1653239927006" viewBox="0 0 819 512" preserveAspectRatio="xMidYMid slice" tabindex="0" xmlns="http://www.w3.org/2000/svg"><defs class="gradients"><g class="radial"><radialGradient id="14156667777-posters-1653239927006-radial"><stop itemprop="radial" stop-color="hsla(43, 9%, 61%, 1.00)" offset="0%"></stop><stop itemprop="radial" stop-color="hsla(44, 9%, 61%, 1.00)" offset="15%"></stop><stop itemprop="radial" stop-color="hsla(44, 9%, 60%, 1.00)" offset="30%"></stop><stop itemprop="radial" stop-color="hsla(43, 10%, 57%, 1.00)" offset="45%"></stop><stop itemprop="radial" stop-color="hsla(39, 11%, 53%, 1.00)" offset="60%"></stop><stop itemprop="radial" stop-color="hsla(45, 9%, 60%, 1.00)" offset="75%"></stop><stop itemprop="radial" stop-color="hsla(45, 9%, 62%, 1.00)" offset="90%"></stop></radialGradient><radialGradient id="14156667777-posters-1653239927006-radial-background"><stop stop-color="hsla(43, 9%, 80%, 1)" offset="0%"></stop><stop stop-color="hsla(44, 9%, 80%, 1)" offset="15%"></stop><stop stop-color="hsla(44, 9%, 80%, 1)" offset="30%"></stop><stop stop-color="hsla(43, 10%, 80%, 1)" offset="45%"></stop><stop stop-color="hsla(39, 11%, 80%, 1)" offset="60%"></stop><stop stop-color="hsla(45, 9%, 80%, 1)" offset="75%"></stop><stop stop-color="hsla(45, 9%, 80%, 1)" offset="90%"></stop></radialGradient><radialGradient id="14156667777-posters-1653239927006-radial-light"><stop stop-color="hsla(43, 9%, 66%, 1)" offset="0%"></stop><stop stop-color="hsla(44, 9%, 66%, 1)" offset="15%"></stop><stop stop-color="hsla(44, 9%, 66%, 1)" offset="30%"></stop><stop stop-color="hsla(43, 10%, 66%, 1)" offset="45%"></stop><stop stop-color="hsla(39, 11%, 66%, 1)" offset="60%"></stop><stop stop-color="hsla(45, 9%, 66%, 1)" offset="75%"></stop><stop stop-color="hsla(45, 9%, 66%, 1)" offset="90%"></stop></radialGradient><radialGradient id="14156667777-posters-1653239927006-radial-regular"><stop stop-color="hsla(43, 9%, 44%, 1)" offset="0%"></stop><stop stop-color="hsla(44, 9%, 44%, 1)" offset="15%"></stop><stop stop-color="hsla(44, 9%, 44%, 1)" offset="30%"></stop><stop stop-color="hsla(43, 10%, 44%, 1)" offset="45%"></stop><stop stop-color="hsla(39, 11%, 44%, 1)" offset="60%"></stop><stop stop-color="hsla(45, 9%, 44%, 1)" offset="75%"></stop><stop stop-color="hsla(45, 9%, 44%, 1)" offset="90%"></stop></radialGradient><radialGradient id="14156667777-posters-1653239927006-radial-bold"><stop stop-color="hsla(43, 9%, 13%, 1)" offset="0%"></stop><stop stop-color="hsla(44, 9%, 13%, 1)" offset="15%"></stop><stop stop-color="hsla(44, 9%, 13%, 1)" offset="30%"></stop><stop stop-color="hsla(43, 10%, 13%, 1)" offset="45%"></stop><stop stop-color="hsla(39, 11%, 13%, 1)" offset="60%"></stop><stop stop-color="hsla(45, 9%, 13%, 1)" offset="75%"></stop><stop stop-color="hsla(45, 9%, 13%, 1)" offset="90%"></stop></radialGradient></g><g class="vertical"><linearGradient id="14156667777-posters-1653239927006-vertical" x1="0" x2="0" y1="0" y2="100%"><stop itemprop="vertical" stop-color="hsla(43, 9%, 60%, 0.63)" offset="0%"></stop><stop itemprop="vertical" stop-color="hsla(44, 9%, 61%, 0.63)" offset="15%"></stop><stop itemprop="vertical" stop-color="hsla(44, 9%, 60%, 0.63)" offset="30%"></stop><stop itemprop="vertical" stop-color="hsla(43, 10%, 57%, 0.63)" offset="45%"></stop><stop itemprop="vertical" stop-color="hsla(41, 10%, 53%, 0.63)" offset="60%"></stop><stop itemprop="vertical" stop-color="hsla(44, 9%, 60%, 0.63)" offset="75%"></stop><stop itemprop="vertical" stop-color="hsla(44, 9%, 62%, 0.63)" offset="90%"></stop></linearGradient><linearGradient id="14156667777-posters-1653239927006-vertical-background" x1="0" x2="0" y1="0" y2="100%"><stop stop-color="hsla(43, 9%, 80%, 1)" offset="0%"></stop><stop stop-color="hsla(44, 9%, 80%, 1)" offset="15%"></stop><stop stop-color="hsla(44, 9%, 80%, 1)" offset="30%"></stop><stop stop-color="hsla(43, 10%, 80%, 1)" offset="45%"></stop><stop stop-color="hsla(41, 10%, 80%, 1)" offset="60%"></stop><stop stop-color="hsla(44, 9%, 80%, 1)" offset="75%"></stop><stop stop-color="hsla(44, 9%, 80%, 1)" offset="90%"></stop></linearGradient><linearGradient id="14156667777-posters-1653239927006-vertical-light" x1="0" x2="0" y1="0" y2="100%"><stop stop-color="hsla(43, 9%, 66%, 1)" offset="0%"></stop><stop stop-color="hsla(44, 9%, 66%, 1)" offset="15%"></stop><stop stop-color="hsla(44, 9%, 66%, 1)" offset="30%"></stop><stop stop-color="hsla(43, 10%, 66%, 1)" offset="45%"></stop><stop stop-color="hsla(41, 10%, 66%, 1)" offset="60%"></stop><stop stop-color="hsla(44, 9%, 66%, 1)" offset="75%"></stop><stop stop-color="hsla(44, 9%, 66%, 1)" offset="90%"></stop></linearGradient><linearGradient id="14156667777-posters-1653239927006-vertical-regular" x1="0" x2="0" y1="0" y2="100%"><stop stop-color="hsla(43, 9%, 44%, 1)" offset="0%"></stop><stop stop-color="hsla(44, 9%, 44%, 1)" offset="15%"></stop><stop stop-color="hsla(44, 9%, 44%, 1)" offset="30%"></stop><stop stop-color="hsla(43, 10%, 44%, 1)" offset="45%"></stop><stop stop-color="hsla(41, 10%, 44%, 1)" offset="60%"></stop><stop stop-color="hsla(44, 9%, 44%, 1)" offset="75%"></stop><stop stop-color="hsla(44, 9%, 44%, 1)" offset="90%"></stop></linearGradient><linearGradient id="14156667777-posters-1653239927006-vertical-bold" x1="0" x2="0" y1="0" y2="100%"><stop stop-color="hsla(43, 9%, 13%, 1)" offset="0%"></stop><stop stop-color="hsla(44, 9%, 13%, 1)" offset="15%"></stop><stop stop-color="hsla(44, 9%, 13%, 1)" offset="30%"></stop><stop stop-color="hsla(43, 10%, 13%, 1)" offset="45%"></stop><stop stop-color="hsla(41, 10%, 13%, 1)" offset="60%"></stop><stop stop-color="hsla(44, 9%, 13%, 1)" offset="75%"></stop><stop stop-color="hsla(44, 9%, 13%, 1)" offset="90%"></stop></linearGradient></g><g class="horizontal"><linearGradient id="14156667777-posters-1653239927006-horizontal" x1="0" x2="100%" y1="0" y2="0"><stop itemprop="horizontal" stop-color="hsla(45, 9%, 60%, 1.00)" offset="0%"></stop><stop itemprop="horizontal" stop-color="hsla(42, 9%, 61%, 1.00)" offset="15%"></stop><stop itemprop="horizontal" stop-color="hsla(41, 10%, 55%, 1.00)" offset="30%"></stop><stop itemprop="horizontal" stop-color="hsla(43, 9%, 60%, 1.00)" offset="45%"></stop><stop itemprop="horizontal" stop-color="hsla(47, 8%, 65%, 1.00)" offset="60%"></stop><stop itemprop="horizontal" stop-color="hsla(46, 9%, 65%, 1.00)" offset="75%"></stop><stop itemprop="horizontal" stop-color="hsla(45, 10%, 61%, 1.00)" offset="90%"></stop></linearGradient><linearGradient id="14156667777-posters-1653239927006-horizontal-background" x1="0" x2="100%" y1="0" y2="0"><stop stop-color="hsla(45, 9%, 80%, 1)" offset="0%"></stop><stop stop-color="hsla(42, 9%, 80%, 1)" offset="15%"></stop><stop stop-color="hsla(41, 10%, 80%, 1)" offset="30%"></stop><stop stop-color="hsla(43, 9%, 80%, 1)" offset="45%"></stop><stop stop-color="hsla(47, 8%, 80%, 1)" offset="60%"></stop><stop stop-color="hsla(46, 9%, 80%, 1)" offset="75%"></stop><stop stop-color="hsla(45, 10%, 80%, 1)" offset="90%"></stop></linearGradient><linearGradient id="14156667777-posters-1653239927006-horizontal-light" x1="0" x2="100%" y1="0" y2="0"><stop stop-color="hsla(45, 9%, 66%, 1)" offset="0%"></stop><stop stop-color="hsla(42, 9%, 66%, 1)" offset="15%"></stop><stop stop-color="hsla(41, 10%, 66%, 1)" offset="30%"></stop><stop stop-color="hsla(43, 9%, 66%, 1)" offset="45%"></stop><stop stop-color="hsla(47, 8%, 66%, 1)" offset="60%"></stop><stop stop-color="hsla(46, 9%, 66%, 1)" offset="75%"></stop><stop stop-color="hsla(45, 10%, 66%, 1)" offset="90%"></stop></linearGradient><linearGradient id="14156667777-posters-1653239927006-horizontal-regular" x1="0" x2="100%" y1="0" y2="0"><stop stop-color="hsla(45, 9%, 44%, 1)" offset="0%"></stop><stop stop-color="hsla(42, 9%, 44%, 1)" offset="15%"></stop><stop stop-color="hsla(41, 10%, 44%, 1)" offset="30%"></stop><stop stop-color="hsla(43, 9%, 44%, 1)" offset="45%"></stop><stop stop-color="hsla(47, 8%, 44%, 1)" offset="60%"></stop><stop stop-color="hsla(46, 9%, 44%, 1)" offset="75%"></stop><stop stop-color="hsla(45, 10%, 44%, 1)" offset="90%"></stop></linearGradient><linearGradient id="14156667777-posters-1653239927006-horizontal-bold" x1="0" x2="100%" y1="0" y2="0"><stop stop-color="hsla(45, 9%, 13%, 1)" offset="0%"></stop><stop stop-color="hsla(42, 9%, 13%, 1)" offset="15%"></stop><stop stop-color="hsla(41, 10%, 13%, 1)" offset="30%"></stop><stop stop-color="hsla(43, 9%, 13%, 1)" offset="45%"></stop><stop stop-color="hsla(47, 8%, 13%, 1)" offset="60%"></stop><stop stop-color="hsla(46, 9%, 13%, 1)" offset="75%"></stop><stop stop-color="hsla(45, 10%, 13%, 1)" offset="90%"></stop></linearGradient></g></defs><rect itemprop="background" fill="url(#14156667777-posters-1653239927006-radial-background)" width="100%" height="100%" tabindex="-1" id="14156667777-posters-1653239927006-background"></rect><path id="14156667777-posters-1653239927006-light" d="M0 13v13h375l376 1v5l2-3 1-3h10c11 0 11 0 13 3l2 1v-2c-1-2-1-2 2-2 4 0 5 1 5 9l1 6 4 16 2 6 2 4 1 7 1 6c0 2 5 4 6 3l1-9c0-7 1-8 3-9 3-1 3-1 5 1l4 2 1 7c0 13 2 9 2-4l1-42V0H0v13m779 33c-2 8-4 19-2 21 1 2 2 1 3-5l2-10c1-4 1-7-1-7l-2 1m22 68c-2 2-2 2 0 4h2l4-2c2 0 2 0 1-2-2-3-4-4-7 0m-479 43c-9 5-12 7-13 11-2 3-2 8 0 6l2 1c1 0 1 1-1 1-2 1-4 0-3-2h-1l-2 3c1 6-1 8-9 7-4 0-8 3-8 8 0 2-1 2-4 2s-3 1-3 4l-2 4c-4 1-8 7-8 12s-2 11-5 11c-3 1-6 6-6 9v3h-8c-7 0-8 0-8-2l-3-2-12-9c-1-2-3-2-13-3-8 0-11-1-12-2-5-4-14 0-15 5 0 2-2 3-5 4l-8 6c-4 3-12 6-12 4s2-4 4-3c3 0 7-2 6-3-2-2-5-3-7-3s-2 0-1-2c1-1 2-2 4-1 3 1 5 0 6-2l3-1c4 0 2-2-3-3-8-3-20-3-26 0-7 4-8 6-2 7 4 0 6 1 6 3h-1c-3-2-12-2-16 0l-4 2h-2c-1 2-2 1-9-2-10-4-12-4-22-1-8 3-10 3-13-4-2-4-3-4-13 1-8 4-11 4-20 1-5-2-5-2-8 1-7 5-15 6-24 1l-5-2-5 3-7 4c-5 1-5 4 0 6 4 2 4 4-1 4-6 0-4 3 2 3 5 0 3 2-2 2-3 0-4 2-2 2l18-4a61 61 0 0133-1c2 0 2 0 0 1-1 2-1 2 1 2l-43 3c-7 0-10 0-9 1a206 206 0 0047-2v1c0 2 1 2 3 1 3 0 4 0 4 2s-1 2-27 2c-27 0-28 0-28 2l2 2v1c-2 1 0 1 6 1h9l-9 1 22 1 30-1c-1-1 0-1 3-1a5 5 0 016 2l1-1a2 2 0 012-2c-2 1-1 2 4 1l6-1h2c1 2 1 2 3 1h2v-2l1-1c3 2 1 6-2 6H42c-42 0-42 0-42 2 0 3 0 3 25 2 24 0 25 0 19 1l-8 1H0v5c0 6 1 6 6 4a6 6 0 019 0l-11 3-2 1-1 1H0c0 2 0 2 3 1 4-1 4 0 0 2-3 2-4 11-2 12v1c-2 0-2 28 0 28v1c-1 0-2 4 0 4l13 1 12 2-10 4-13 4c-2 0-3 0-3 2s9 1 22-3h-1c-4 3-15 6-18 6s-3 0-3 4c0 3 0 4 2 4v1l-2 2c0 2 1 2 15 3h17c4-2 3 1-1 3-8 4-10 10-5 12l4 4c2 1 3 2 4 1 3-2 4-1 4 2-1 3 0 4 2 1 3-1 4-1 4 1l1 6c3 6 3 6-9 9-11 3-12 3-18 2-11-2-19-2-18-1a73 73 0 0035 1c11-3 12-3 12 1v4l-11-1-16 1-11 2-8 1c-3 2 12 1 17-1 5-1 25-2 27 0 1 1 1 2-1 3v1l2 2 2 1 4 1h2c3 1-7 2-16 2-7 0-10 0-8-1l7-3c5-2 4-2-5 1H19c-9 0-7-1 8-3l13-2 5-1h-5l-13 1-13 2-6 1-4 1c-7 1-4 3 3 3l8 1H8l-8 1c0 1 7 2 13 1h41c0 2-18 4-35 3-16 0-19 1-8 2l5 2h3l18-1c16 0 21 1 16 3l-1 1 2 2c0 2 1 2 2 2 8-1 10 0 10 3 0 2 0 2-6 2-8 1-12 0-19-1a1306 1306 0 00-22-3h-9c-8 0-10 0-10 2l6 1h7l6 4a26 26 0 0110 8 22 22 0 0021 9l-11-2-4-3-3-2 2-2c2-1 2-1-1-1-2 1-3 0-7-3l-4-4-3-2-2-2h3l2 1v1l1-1c0-2 8-2 13 0l17 1c12 0 13 1 13 3l1-1c1-2 2-2 7-2l9-1 3 2c1 3 3 3 12 4 4 1 8-4 7-7 0-2 0-2 3-2 6 0 7 1 8 5 0 5 0 6 12 6 17 1 19 1 18-4l-2-6c-2-2-1-2 7-3l13-2c10-3 17-3 19-2 1 2 18 1 25 0l13-1 12-1v3c1 4-2 4-13 4h-2l11 1c4 0 5 0 5 2l-2 2c-2 0-2 0-1 1 3 1 2 2-4 4l-3 1 6-2 4-1-2 2h-2l2 1-4 1-9-1-10 1-2 1 9-1h6l-5 1c-5 2-9 2-25 3-21 2-20 3 3 3 15 0 17 0 23-3 8-3 13-4 15-2h33l-4 4-5 4c0 3-3 5-8 6-3 1-4 1-1 1 4 0 8-2 9-5l9-7 13-10 5-5h7l13-2c13-3 25-2 30 3 3 4 6 5 17 4 14-1 17-3 17-7 0-13 4-20 11-23s8-6 6-13c-4-11-3-14 6-14h4l-1 6-1 9c-5 18 8 48 25 53l8 5 8 9c5 5 7 8 7 11l1 2v-5c0-4 0-5 3-6s4 0 4 1l1 3c1 1 1 1 1-1-6-24-3-52 7-70 3-5 3-5 16-1l11 2c10 1 12 1 17 5 5 5 9 5 12 1 7-7 19-13 34-14 9-2 10-2 6-2-11 0-23 3-32 9-5 3-5 2 4-11l8-13c0-1 2-2 6-2l9-2c2-2 4-2 9-1 12 2 32 3 37 1 11-3 23 2 23 10 0 3 3 5 10 5 2 0 3 1 3 2l2 1c1-1-2-4-4-4-7 0-10-2-10-6 0-5-2-7-11-9h-13c-5 2-30 1-33 0l-9-2-11-1-3-1 3-1c2-1 11-11 9-11l-3 4c-6 7-14 10-17 5l-3-2-2-2 2-1v-2c-4-3 5-5 13-3 3 2 5 2 6 1h8l5 1 9-3 9-4 6-3c5-2 5-2-7-12l-8-8 6-3c5-3 5-4 6-9s2-7 4-8l3-1h-3c-2 1-4 0-5-2l-8-3-4-1c2 0 1-2-1-2-4-1-1-3 6-4 6-1 6-1 8 1l7 4c6 1 7 4 2 6l-2 1h2c3 0 3 0 4-4 1-2 1-3-4-4s-8-3-8-5l27-2c2 2 1 4-3 9-5 6-2 9 15 13l9 4-15 10c-10 4-14 15-7 21l3 4-2 3c-1 2-2 3-5 4-7 1-14 2-16 4l-8 1c-5-1-22 2-22 3l8 1 14 1c5 1 5 1 9-1 2-2 6-4 9-4l11-5 11-5c5-2 6-3 6-5l-1-2-3-3-6-6-3-2 3-3 13-7c13-6 18-10 11-10-1 0-2 0-1-1l-3-1c-1 1-6 0-9-1l-9-2-7-3c-6-2-6-2-4-5v-2l2-3c2-2 3-3 3-5v1c1 2 1 2-2 5-3 2-2 3 2 0 2-1 2-2 2-4-1-3-1-3 4-3 7 0 27 5 41 10l1-1c-3-3-30-9-43-10-3 0-3-1-3-3s-14-12-20-14l-3-1 4-2 11-2 12-3 12-1 7-1 7-1c8 0 8 0 5 10l-4 8c-3 1-4 3-3 5l10 1h10l1 1v-1l2-5c2-1 3-3 2-3l1-1c2-1 4-6 5-11l1-4h10l9 1c0 2 3 1 3 0 1-3 5-2 5 1 0 2 1 3 3 1v-2c0-2 1-2 10-2l10 1-1 2 1 3 3-1v-1l2-3c2-2 1-1-2 6-4 8-4 9 1 9l5-1c1-1 3-10 2-12-1-3-1-3 3-3l5 1h4c1-1 14-2 32-2 10 0 6-1-7-1-18-1-25-2-29-4l-6-1c-2 1-2 1-2-4l-1-4-1 5v3l-4-1-14 1-4-1-6-2-7-2c-3-1-6-1-14 2-10 3-14-1-14-15 0-11 0-11-6 0l-3 8-9 3c-12 4-38 2-57-3l-19-1-15-1c-1-1-3-2-7-2l-15-1h-17c-7 1-14 0-17-3l-3-1c-1 1-8-2-17-8s-14-6-21-4c-3 2-4 2-9 0-7-1-7-1-14 1-16 5-18 5-21 3-2-2-5-2-12-2-11-1-13-2-13-9 0-4-5-11-8-11-1 0-2-1-2-3l-4-6-3-4c0-5-4-10-10-13-9-4-10-6-10-13l-2-5-4-5c-6-9-20-11-30-6m143 0c-12 1-16 2-16 3 1 2 8 4 14 4l6 1c2 0 1 3 0 3-3 0-9 7-9 10 0 5 4 6 21 7 16 0 25-2 26-6 1-2 3-2 13-4 4 0 6-1 7-2 1-2 2-3 6-2a7 7 0 002-14c-5 0-9 3-9 8l1 3h-15c-14 0-16 0-17-2s0-2 6-2c10-1 14-3 10-6-2-1-29-2-30-1h-1l-3-1-12 1m25 2l6 1c5 0 8 2 2 2-1 0-2 0-1 1 2 0 8-1 7-2l3-1 3-1h-20m-166 2c-2 3-1 3 3 3 6 0 10-2 6-4h-5c0-2-2-1-4 1m152 10c0 3-4 5-9 5l-5 1h2l4 1h2c3 3 7 1 7-3l1-4-1-1-1 1m-154 9c-3 0-3 0-2 2 2 2 5 1 7-1h1c-1 2 3 5 4 3v-4h1-11m5 15c-9 3-11 5-6 5 7 0 10-1 11-5 2-4 2-4-5 0m485 3v9l2 3c1 2 1 2 2 1h2l1-4-1-3-1 1-2 1-1-4c1-4 0-6-2-4m-662 23l-5 3c0 1 5 2 8 1h3l2 1c2 1 2 1 1 4-3 5-3 8-1 4a8 8 0 003-6l1-3c0-2 0-2 2-2 7 2 9 2 11 0 3-3 1-3-11-4-8 0-10 0-14 2m-105 9l-5 3c-4 0-2 2 2 3l5-1 2-1 1-2 6-1 6 1-4-2c-8-3-9-3-13 0m24-1l-4 2 6 2c9 3 21 2 18-2-4-4-12-5-20-2m35 1a26 26 0 01-10 3h12l3 2h9l4-1h3l-16-7-5 3m-95 3c-7 3-6 4 6 2 10-1 10-2 5-4l-4-2-7 4m188-1c-3 6-3 9-2 9h3c1 1 1 1-1 1-4 0-4 3-1 4s8-2 6-3c-1-1-2-2-1-3l-1-1a7 7 0 01-3-2l1-2v-6l-1 3m-61-1l-3 2c-3 0-6 4-4 4l3-2c2-1 9-2 13 0h3l2-1c1 0 1-3-1-3-3-2-11-1-13 0m304 1l-7 3h9l13-1c4 0 4-2-1-2l-5-1c-1-1-5 0-9 1m29-1c-8 1-21 8-17 8l7 2c5 2 27 4 34 2l4-1-4-2-10-6c-6-4-8-4-14-3m-418 3l-2 2-1 1h-8l-7-2-10 4c-10 5-10 7 1 4l14-1c8 0 38-4 39-5 1-2-12-4-18-4l-8 1m49 1h-3l-18 2-9 3c-5 0-6 0-4 2 1 2 9 1 16-1l8-1 10 1c7 0 9 2 4 3-4 0-4 3 0 3l9-2 9-2c7 0 14-2 12-2-4 0-2-3 1-3v-1h-2l-4 1-3-1c1-2 0-2-3-2l-4 1-1 1h-6l-6-2c-2-2-3-2-6 0m300 1c1 1 0 4-2 7-3 6-2 14 1 13l8-1c2 0 3 0 2-1-6-1-3-5 4-5 3 0 4 0 3-1 0-2 2-4 7-5h5l-6-5-5-5h-17v3m-382 0l-9 2H3l4 2c5 3 5 3 14-1 6-4 6-4 3-4l-6 1m410 0c-4 0-4 2-2 3 2 2 2 2 12 0 9-2 10-3 8-3h-18m12 5c-5 1-10 3-7 3l3 2 2 2-3 1c-2 1-2 1 1 1l5 1h8l-3-1c-6 1-5 0 1-3 5-2 15-3 15-1l4 1c4 0 4-1-6-4-8-3-11-3-20-2m-278 2l-4 1-3 1-2 1c-1 1-1 1 1 2 3 0 4 0 5-2h1l1 2c2 0 6-4 5-4l-4-1m-95 3c-3 2 0 3 3 1h16l3-1c7 0-4-2-12-2-6 0-8 0-10 2m49 0l-8 2c-2 0-2 0-1 1a35 35 0 0024-3l4-2h-7l-12 2m379 0l-4 2 4 1c8 4 20 7 29 7 3 1 2 1-2 1-7 0-21-4-30-8-7-3-12-4-21-2s-9 5-1 4h8c3 2 3 3-1 3-3 0-3 0-1 1l4 1 4 1c4-1 35 1 43 1h3c-2-1-2-1 0-1s0-1-4-3l-7-3 6 2 12 4c7 1 9 3 4 3-6 0-1 1 10 1 11 1 16 0 10-2l-7-4c-4-3-4-3-20-5l-19-2c-2 0-2 0 1 2l3 1-3-1c-2 0-6-1-8-3-6-3-7-3-13-1m-317 2l-2 1 3-1 3-1c1 1 0 1-2 2l-5 1h-4l-2-1h-4l-3 2h4l8 1 4-1 4-1c2 0 4-2 2-3s-3-1-6 1m344-1c-4 1 0 2 18 3 10 1 11 1 15 4l3 3h27c26 0 31-1 18-2l-11-3c-7-2-10-2-23 1l-10 1c-4 0-3 0 2-1 7-1 9-2 4-2l-5-1c-2-1-4-2-6-1l-7-1c-2-1-22-2-25-1m-94 1l-4 1c-7 0-15 1-16 3-2 1 9 1 12-1h3l7-2c5-2 5-2 3-2l-5 1m-365 4l-3 3c-1 2-1 2 7 2 7 0 9-1 9-2l-1-2-3 2h-1v-2l-1 2h-1l-2-2c-1 0-2 0-1-1v-1l-3 1m45 0c-10 0-11 5-2 5 4 0 6 0 5-1l3-3c2-2 2-2 0-2l-6 1m360 0l-10 3a48 48 0 0018-2l2-1h-10m199 5l-2 13c-2 14-1 15 4 5 2-4 2-5 1-6v-1c3-1 2-9 0-13l-2-3-1 5m-16-2l-7 3 3 1c6 3 8 2 9-1v-3l1 3 1 4 1-4c1-6 1-6-8-3m34 3c-4 2-2 3 2 2l9 1h8l-6-3h-13m-181 1c-6 2 9 3 23 2h9l-15-1-17-1m68 0c0 1 2 2 8 1h12c9 0 3-1-8-2l-12 1m101 0c0 3 6 4 15 5l10 1h1c0-2-7-4-12-3-3 0-6 0-9-2l-5-1m-268 3l-3 1 3 2c3 1 4 1 7-1l3-1-2-2c-3-1-4-1-8 1m86-1l1 2 1 4 2 2c2-1 3-3 2-6v-2l2 2c0 2 1 3 2 2 2-1 1-4-1-4h-9m-15 3v4-1l2-1 1-1c2-1 2-1 1 2l1 4 1-1c-1-1 0-1 1-1l2 1c0 2 5 0 6-3 1-4-7-7-11-3-1 1-2 1-2-1-1-1-2-1-2 1m-350 2c-22 4-24 4-23 5s0 1-2 1c-3 0-3 0-2 1 4 3 44-1 51-4 5-3 4-5-2-2l-8 2c-4 1-3 0 4-2l3-2-17 5-8 1-10 1c-3 0-3 0-2-1l10-2 15-3c7-2 4-2-9 0m46 0v1l-1 4c-1 1-1 2 1 2h4l3-1c1-1 1-1 0 0 0 2 0 2 1 1l2-2-1-2h-2l-1-1-3-1c-1-1-2-2-3-1m250 0c-2 3 0 4 6 4 6-1 10-3 6-4h-12m-262 3c-3 3-2 5 1 3h1c-1 3 2 2 4-1l2-3v5c1 1 1 1 1-4 1-4-5-4-9 0m-117 0h38l-17-1-21 1m413 2l-6 1-3 2c-2 2-2 2 0 2l3-1 16-1c13 0 16 0 14-1l-3-1-3-1c-1-1-15-2-18 0m81 0l-33 2c-8 0-1 1 10 2 20 1 20 1 19-1h16a2 2 0 000-3l-6-1-6 1m-461 1l-20 4-1 1-2 1h2l7-1a87 87 0 0112-3l5-1 6-1h-9m345 2c-1 2 0 4 3 4s6-4 5-5c-2-2-8-1-8 1m-277 2c-2 3-2 4-1 4v1c-2 1-2 1 0 1 3 1 3 0 4-2 3-7 0-10-3-4m6 1c-2 5-2 5 1 6 2 0 3-1 3-3l1-4c1-1 0-1-2-1-1 0-2 0-3 2m6 2l-1 4h3c3 0 4-1 4-4 0-6-4-6-6 0m425-3c-2 1-2 1 0 2 4 2 1 7-8 11-4 2-4 2 2 5 4 3 4 3 19 2 15 0 17-1 17-4 0-1-10-8-18-11l-6-4c1-2-4-2-6-1m-6 2v6l-6 2c-3 2-3 2-1 2 2 1 6 0 6-2l3-2c6-1 6-4 0-7-3-1-3-1-2 1m-498 2c-9 3-26 5-28 4l-3-1 3 2h15l13-2c3-1 6-4 4-4l-4 1m369 2c-5 2-6 4-2 5l4 1h3l3-3c6-3 0-5-8-3m-216 8c-1 2 5 6 8 5 3 0 5-4 3-5h-11m330 1c-3 2-2 7 0 8 2 2 3 2 10 0 8-1 8-1 4-3-2-1-3-2-4-1 0 1-6 0-8-2v-3l-2 1M98 301c-2 1-1 3 4 3 3 1 6-2 5-3-2-2-8-2-9 0m10 2c-1 2 1 3 13 3l18 2h10v-2c0-3-2-4-25-5-14 0-15 0-16 2m43 1l-1 2c0 2 7 3 34 3 13 1 14 1 13-1l-1-3-45-1m281 1l-6 3-4 2-2 1-3 1c-2 0-2 0-1 1 2 1 7 0 11-4 3-3 4-3 7-3h19l-6-1-8-1c-2-1-5 0-7 1m118 1c-3 1-4 3-1 5 2 1 3 1 5-1l4-3v-1h-8m-512 4c-2 2-2 3-2 8 0 4 2 8 3 6v-1c-1 0-2 0-1-1h1v-2c-2-3-1-7 2-9l2-3-5 2m180-2l-4 1c-7 1-27 12-27 16l-1 4-2 7c0 5 0 5 3 5a11 11 0 019 7c3 3 5 2 4-2v-5c-1-1 1-10 2-14 2-3 4-4 4-2s1 2 3 1c3 0 3 0 3 3-1 3-1 3 2 3 2 0 3 0 3 2s3 1 4-1c0-2 4-4 7-4l1 2c-3 7-3 6 3 6 5-1 7-1 9 1 6 5 21 3 21-3 0-5-4-8-8-6h-9l-1-3c0-4 0-4-5-4-4 0-4 0-3-2 0-2 0-3-2-4-2 0-2-1-2-3 1-3 1-3-2-3l-3-1-9-1m323 2c-2 0-2 0 0 5l5 6 5 3c0 2 6 3 8 1l2-1 2-2c1-2-7-6-11-6l-2-2c0-2-7-5-9-4m-531 2a7 7 0 005 11v-1l-1-1 2-1a6 6 0 004-3l-1-2c2-5-5-7-9-3m32 0c-2 1-3 7-1 6 1-1 1 0 0 0 0 3 1 2 3 0s3-3 1-2-1-2 2-4l2-2h-2l-5 2m58 1l-5 1c-2 0-3 0-3 2l-1 2-1-1c1-2 0-2-3-1l-5 2-5 2-4 2c-3 0-4 1-2 3h-1c-4-1-9 3-6 5 2 1 8 2 8 0 0-3 14-8 19-7l2-1c-1-3 5-6 8-4h2l3-1h1c-2 0-2-1-1-1 1-1 2-1 3 1l2 2 1-2 5-2c2 0 2 0 1-1-1-2-15-2-18-1m430 2c-7 4-7 6 1 12l7 6c4 4 7 5 12 2l-3-5-4-8c-4-10-5-11-13-7m28 1c5 2 10 3 11 1 0-1-5-3-10-3h-5l4 2m21 0c-1 1-2 2-5 2s-8 2-5 2l-1 1v1h1c0-2 1-1 4 1 4 4 7 3 7-3 1-6 1-7-1-4m-66 9c-3 1-4 3-4 4 0 4 7 12 16 17l6 4c6 4 7 4 9-3l1-6 1-1c1-1 0-2-1-3-4-3-5-3-3 0a3 3 0 012 3v-2l1 3c0 2 0 2-3-1l-6-4c-2 0-4-2-6-5l-6-6-3-3-4 3m51-2c0 5 5 9 6 4 0-2 0-2 2 0s4 2 4 0l-1-1h-2l-2-1-4-2h-3m69 0l-18 11c-4 1-6 3-8 8-3 6-2 8 2 12s4 4 2 6c-1 2-1 2 1 2l7-3c7-3 7-3 0-11-4-3-6-6-6-7 0-2 7-7 16-10 7-3 13-6 12-7l-8-1m-489 4l7 6 4-1 3-1-5-2-9-2m-54 2c-3 1-9 6-8 7l-2 2c-1 2-1 2 2 2s4-1 4-2c0-2 4-4 10-4 8 0 9 0 7-1h-2l-1-1 2-1c3 1 3-1 0-2H90m52 1l-1 3 10 5c2 0 1-3-1-4l-5-4-3-2v2m384-1c1 3 5 6 7 6s3-1 1-4c-2-2-10-4-8-2m-23 2l-1 1c0 2 13 14 15 14 1 0 3 2 4 5l5 4c2 0 1-1-5-8l-11-12c-4-5-5-5-7-4m61 1l-4 2h-5c-5-2-5-2-4 0s1 2-2 4l-4 2-2 5-3 7c0 2-1 3-3 3-9 0-12 2-4 4l8 2h5l14-2c10-1 13-2 20-5l7-4-3-2-16-16h-4m-67 4c-2 2-2 2 0 3 2 2 8 3 8 1s-1-4-3-4l-1-1c0-2-2-1-4 1m-357 1c1 4 7 6 12 5h4l-8-4c-8-3-8-3-8-1m123 1l-2 2-2 1-5 3c-3 0-4 1-2 1l5-1c3-1 7-2 15-1 12 0 20 0 19-2l-3-1-11-1a25 25 0 01-10-1l-1 1-1-1c1-3-1-2-2 0m228 4l-3 3-2 2c-3 1-3 1-1 2 6 3 7 3 2 2-4 0-4 0-3 2l2 3c0 1 5 3 10 3 3 0 4-2 2-4s-3-11-2-12c2 0 1-2-1-3-1-1-2 0-4 2m15-1c-1 2-1 2-3 1-4-1-6 1-6 6v5l8 3 13 7c7 4 8 4 8 0v-2c2 2 2-2-1-4l-5-6c-1-2-3-4-5-4l-5-4c-2-4-4-4-4-2m-467 1l-5 3-2 1c-1-1-3 1-5 2-4 3-4 3-2 5v2c-2 3 2 7 5 5 3-4 5-4 9-3 3 1 3 1 4-1l6-1h5c0-2 4-1 6 2l3 2 1 2c2 2 10 2 11-1l3-1 2-2 6-1c5 1 5 1 5-1l-2-3-2-3-5-3-6-2-5-2-5-1H44c0-1-2-1-5 1m218 3l-10 3c-12 3-13 4-17 8-3 4-3 6 0 6l3 2c1 1 1 1 3-1l3-2c1 1 1 0 2-2 2-5 10-7 15-5l8 1c10-2 10-2 9-4l1-1-1-2a14 14 0 00-16-3m-45 3c-4 2-5 3-5 5 0 3 2 2 4 0l7-2c5 0 7-2 4-4-2-1-7-1-10 1m228 10c-4 3-4 4 0 5 5 1 12-1 15-3l2-3-4 1-7-1c-2-1-3 0-6 1m60 0c0 2 6 7 9 7s2-2-3-5c-6-5-6-5-6-2m-41 2l-1 3-1 1c-1 0-2 0-1 1h2l7-1c5 0 8-2 6-5-1-2-10-1-12 1m-33 3v1l1 1-2 1c-3 0-10 7-9 8 2 1 13-7 13-9l1-2c1-1 1-1-1-1-1-1-2 0-3 1m46 0l-1 1c4 3 8 5 12 5h4l-3-2-10-6-2 2m-438 5c-8 5-11 9-8 11l4 3c1 2 2 2 6 1 3 0 3 0 3 2-1 3 0 3 1 2l5-1c1-1 1-1-1-3l-2-4-2-3c-1-3-1-4 1-4l2 3c0 3 3 3 3 0 0-2 0-3 3-5l2-3-3-1c-2 0-3-1-3-2 0-2-4-1-11 4m399-3c-2 1-2 1 1 2 4 1 4 1-1 2-3 0-6 2-6 4l9 1c8 0 9-1 10-3s1-2-1-2l-2-1 2-1a3 3 0 005-2h-17m-218 2c-7 2-14 8-13 10l1 3c0 2 1 2 5 1l5 1c0 2 3 3 5 2l7-2c7 0 12-4 10-7v-5l-2-2c-1-3-13-4-18-1m243 0l-3 2-2 2c-2 0-2 1-2 2l-1 1c-2 0-4 6-6 13-2 8-2 8 4 8h6l3-7 4-9-1-1c-2-1-2-1 0-1 2 1 5-5 5-8v-1c2 1 3-1 3-3 0-1-8 0-10 2m-400 1l-7 2c-2 0-3 1-3 3l-2 4v1l4 1h7c2 3 6 4 8 2 3-3 3-3 6 0 2 2 3 2 4 1h2l2-1 3-2-2-6c-4-4-6-5-11-4l-4-1-2-2-5 2m208-1l-7 3-5 2c-2 1-3 2-2 3l-1 1-2 1-2 1c-2 1-1 5 1 5l4-1c3 0 4 0 5-6 2-5 5-7 9-6 2 1 3 0 4-2l1-2-5 1m203 1v3a2 2 0 012 3l3 1c4 4 6 3 12-1l5-3-7-1-10-2c-4-2-5-2-5 0m127-1l-8 3-8 1h-11c-5 2-5 2-1 1l10 1 7 2 4-3 6-3 6-1c5-2 1-2-5-1m-519 1c6 8 8 10 8 12s0 2-1 1c-2-1-4-1-4 2h-2c-1 0-3 0-4 2l-2 1a17 17 0 00-10 12c0 2 2 2 18 2h19l-5 1c-4 0-3 1 4 1 9 1 15 0 8-1l-6-1h10l14 2 11 1 5-3c5-3 6-5 2-5-5 0-10-11-8-16 0-2 0-3-5-3-4-1-4-1-3 1 2 2-7 1-13-2-3-2-7-2-11-3l-9-1-17-4 1 1m446 2l-3 2c-2 0-2 0 1 1 2 1 2 1 0 1s-2 0-1 4c0 5 0 5 6 3 8-2 10-7 2-6h-3l3-1 3-1-2-3c-4-3-5-3-6 0m-251 3l-4 2-4 2h-2v-2l-1 3v5c-1 2-1 2 3 2 5 0 5 0 5-2v-1l2-2c3-5 8-5 10-1 2 2 3 2 7 2h4a14 14 0 01-12 0l1 1v2c-2 0-3 3-4 4-1 4-8 9-15 10-4 0-5 1-7 3l-2 3h5l12-1 11-1 3-7c5-9 7-10 16-10l10-1 17-1c11 1 18 0 24-1h9l7-2 8-2c1-1-1-1-5-1l-19-3-12-2-15 3c-22 5-34 5-35 2l-2-2-4-2a7 7 0 00-11 0m226-3l6 9 6 8 4-2c4-1 4-2 3-7 0-4-4-5-11-6a40 40 0 01-8-2m-31 2l-1 2-1 2-2 2-8 17c0 3 8 1 11-3l8-8 5-4-4-2c-2-1-4-2-5-1l-1-3-1-3c-2 0-2 0-1 1m22 2c-6 4-8 6-5 6l7 5a17 17 0 009 4c-4 1-2 3 3 3 3 0 5-3 2-3-2 0-2 0-1-1l2-1-9-13-4-3-4 3m45 3c0 3 1 3 4 3 9 0 10-2 3-4l-6-1c-1-1-2-1-1 2m-131 2c-5 7-6 9-1 8a8 8 0 005-2v1l1 1 1-2 2-5c2-4 2-5-2-5-2 0-4 1-6 4m27-3c-4 0-6 2-5 4l-1 2-1 5c0 4 1 5 7 7l1 1-5-2-3-1v5c2 14 11 24 16 17 2-4 1-8-2-7v-1l2-6c0-4 0-4-3-4l-3-1h3c3 0 4-5 5-15 0-2 1-3 2-3 1-2-8-2-13-1m-16 2c-1 1 0 1 2 1l1 1-1 1c-2 0-4 2-4 5-1 3 2 3 5 0l2-2-2 3v2c3 0 3 0 3-4l1-4a3 3 0 10-5-3v-1l-1-1-1 2m-279 3c0 6 2 11 5 12 6 2 8 2 14-1l6-3 5 2 5 2-3-3-9-5c-3 0-9-3-13-5-9-4-10-4-10 1m13-1l7 3 12 6c6 4 11 5 29 5l15 1h2l4-1c3 1 3 1 2-1s-8-3-18-3l-8-1c-2-2-15-5-24-6l-14-1-7-2m327 5c-9 8-10 10-3 7l13-3h7l-6-5-6-4-5 5m52-3c-6 1-7 2-4 5 2 3 5 2 7-2 3-3 2-4-3-3m-209 4l-4 2-2 1v-1l-6 1c-3 0-3 0-2-1s0-1-6-1l-7 1-3 4c-3 4-4 7-1 7l39-6c7-1 10-2 10-3l-4-1c-4 0-4 0-1 1s2 1-22 4l-17 2h-6l5-1c3-1 4-1 3-2h3c3 0 3 0 2-1-2-1-2-1 0-1 1 1 9 0 16-1l19-3h5l-4-1h-17m200 1c-1 3-6 4-7 2-1-1-2 0-3 2l-5 2c-2 0-3 1-2 3 1 3 0 7-3 10a21 21 0 0010 10c3 0 8-5 8-8l7-10c5-8 5-8 3-8s-4-1-5-3l-2-2-1 2m-149 1h-26c-4 0-5 1-4 2 0 2-4 3-15 4l-29 5a86 86 0 0021-1l7-1 14-1 11-4 6-1h-13l17-2 21-1 5-2h-4l-11 2m-135 2v13c0 11-1 12-4 8-4-4-5-4-4-1 1 4 1 4 3 4 3 0 5 2 6 5 0 4 1 7 2 7l2-4-2-7-1-7v-11l-1-10-1 3m166-1c-3 0-4 2-4 5 0 2 0 2 3-1l3-2-2 3c-5 5-3 11 6 13 3 1 3 1 2-5l-1-9c1-5-1-7-3-4h-4m13 3c-5 8-4 16 3 25 3 4 4 6 1 4-1-1-1-1 0 0 1 2 1 2 3 0 2-1 3-1 1 2-1 2 0 3 6 8 9 8 11 12 7 20-1 3-3 5-5 6l-4 3 4 5c5 6 6 7 9 8h3v-9l4-42c2-7 2-8 0-9l-3-5c-1-3-1-3-1 1 0 7-5 11-10 8-2-3-3-2-2 0 2 3 2 8 0 10-1 1-9-1-8-3l4 1c5 3 7-1 3-7l-3-3c-1 1-1 1 0 0s0-2-1-6l-3-11c-2-8-5-11-8-6m65-1c-8 2-18 8-16 10l27 6c8 0 11-2 11-8 0-8-9-11-22-8m-322 1l-6 4c-8 4-14 8-10 7l10-4c12-6 15-6 33 1 11 3 20 4 22 1l2-3h-3c-14 0-29-2-35-4-8-3-11-4-13-2m198 1c-12 2-14 3-6 3 11 0 7 1-15 2-22 2-27 3-17 3l6 1c2 1 14 1 19-1l7-2v1l-6 2c-4 2-7 2-16 2l-13 1c-2 1 4 1 17 1 19-1 33-3 41-8l5-1 2-1h-11c-1-1-1-1-1 1 1 1 0 2-8 2-5 0-8 0-6-1l3-2h4l2-1h1l5-1 10-2c4-1-13-1-23 1m-115 1l-1 3c-1 3-1 3 4 3l4-1 2-2 3-1c1-2 1-2-2-2l-6-1-4 1m-14 2l-2 2-1 2c-1-1-1 0 0 0 1 4 10 2 10-1s-3-4-7-3m154 2l-8 9-9 7-1 2 2-1 8-4c7-3 11-7 11-12 0-4-1-5-3-1m-224 0c-2 0-3 1-3 2l4-1 4-2-8 4-5 2c-4 2-4 2-2 3a256 256 0 01-58-4c-9-3-28 0-27 4 0 1 1 1 3-1 3-2 6-3 8-1l2 1 3 2c2 2 16 4 16 1 0-1 4-2 9-2 20 3 24 3 35 3l19-2 6 1-17 2-18 2h3l16-1 15-1v1l-13 2c-19 0-26 2-19 5l3 1h-3c-4 0-4 2-1 2 3 1 8 0 14-2l5-2h-5l-7 2v-1c1-2 21-3 34-3l11 1h-13c-13 0-17 1-26 5l-3 2h4l4 1h-5c-4 0-14 3-11 3l19-4h3c2 0 4 0 3-1l9-1c6 0 9 0 7 1-8 0-23 3-23 4l4 1-8 1c-15 1-14 1-14 2 1 1 28-1 27-3l9-1c10 0 26-2 27-3h1c1 2 0 2-4 2l-5 1-8 1-12 1c-5 1-3 1 6 1 13 0 19-1 17-2l10-1a340 340 0 0036-5c0-1-8-1-10 1h-3c-1-1 0-1 1-1l2-1c-1-1 0-1 1-1l3-1h-2l-4-1a12 12 0 00-4-1l2-2c0-1-1-2-6-1-5 0-5 0 3-2 4 0 5-6 1-6s-6 1-6 2l-4 4-4 3-1 1-3-2-1-1c-4 1-10 0-8-1l3-1h-23l-7-1c2-2 31-2 31 0 0 1 1 2 3 2s3 0 4-4c2-3 2-3 0-3-2 1-12-1-23-5-10-3-18-4-23-1m55 0l-5 5-3 6c-3 4 4 2 8-3l4-2c4 0 6-2 6-5 0-4-4-4-10-1m233-1c-2 2 2 16 4 16a19 19 0 003-11c1 0 2-2 2-5h-9m10 2a80 80 0 00-2 7l-1 5-1 3c-2 2-7 37-7 52 0 7 0 8 2 8 4 0 4-1 3-13-2-15 0-26 4-40a85 85 0 005-15c2 0 2 0 1-1s0-2 3-4l3-4h-4c-4 0-5 0-6 2m-206 1c-1 1-2 2-3 1l-3 1c-1 2 0 2 2 2h5c1 1 3-1 5-2l3-3-4 2c-3 4-4 3-1-1l2-2h-2l-4 2m109 5l-21 3c-11 1-28 4-28 6 0 1 4 1 7-1l6-1 9-1 6-1c-3 1-3 1-2 3 1 1 0 1-5 1-7 0-12 2-5 2l5 1c1 1 3 0 2-1l1-1a5 5 0 004-2l-1-1 3-1c4 0 7 0 12-3l8-2c5-1 15-5 12-5l-13 4m38 0c-3 15 3 36 15 47 5 4 14 7 11 4l-1-2 3 2c4 5 14-5 12-13 0-3-3-6-11-13l-12-16c-2-4-3-5-6-5l-6-5-4-3-1 4m-329 0l-2 2-3 2-3 3c0 2 3 1 5-1l3-2c2 0 5-3 5-4h-5m317 1a32 32 0 01-14 8l-1 2h-1v-1c-4 2-6 3-4 3h5c3 2 16-3 17-7 1-3 0-7-2-5m-41 7c-5 2-9 4-9 6l-1 3 3-2 5-2c3 0 7-3 7-5h-5m-148 4l-16 2-8 1h12a62 62 0 0023-4l-11 1m-117 4l4 2h5c4 1 12-1 12-2l-12-1c-8 0-10 0-9 1m286 2h3c2 0 3 0 2 1l-10 1c-9 1-13 2-13 3 0 2 11 3 17 1l6-2h1l1-3c2-2-4-3-7-1m-302 2l13 1c11 0 8 1-4 1-8 0-10 0-10 2 0 1 38 1 40-1l-7-2-7-1H60m174 5v6l1 8c0 3 1 4 2 4v1l-2 2 1 1h1c0 1 1 1 1-1a39 39 0 000-20c2-1 0-4-2-4l-2 3m-17 0l-23 1h-23c-6 0-10 0-13 2l-12 2c-7 0-10 1-6 2 3 2 17 1 23-1 11-3 19-4 21-2h21l15-1c11-1 13-1 13-3h-16m-78 1c-6 0-7 1-6 2 3 2 22 1 25-1s-3-2-19-1m-75 1l-4 1c3 1 25 0 27-1H64m176 1c-2 5 0 7 7 7 20 0 21 0 20-2 0-2 0-3 3-4 4-1 3-2-13-2l-17 1m-171 6c-2 0-3 3-1 5 3 1 16-1 16-3l-2-2H69m619 7c-1 1 0 3 2 3 1 1 1 1-1 1l-2 1h-2c-1 2 0 2 6 2h8l1-3c0-2 0-3 1-2h1c1-3 1-3-3-3-3 0-4 1-4 2l-1 2v-2c0-2-6-2-6-1m16 1l1 2 1 2c0 2 0 2 2 2s2-1 2-3l1-1 1-2c1-1 1 0 1 2l-1 4h7l10-1 2-1c0-2 1-2 4-2 4 0 5 0 4 2 0 1 1 2 9 2l8-1v-4l1-3h-11a22 22 0 00-11 1c-1-2-11-1-10 1l-2 2-1-2a4 4 0 00-8 0c0-3-10-3-10 0m-541 12a348 348 0 01-56 6c1 1 20 0 32-1l23-3 10-2h-9m527 0h-6v5c0 4 0 5 2 4l3 1 16 1h15v-3l-2-2-2 2h-1a12 12 0 00-13-1l-3-1-13-1h3l1-2h1a17 17 0 0014 1l1-2-2-2h-14m26 0h-3c-4 0-4 0-4 3 0 2 0 2 1 1h1c0 2 10 1 11-1l1-2v2c0 2 0 2 2 2l3-1 2-2c1-1 1-1 1 1s1 2 8 1l1-2c0-3 0-3-6-3s-6 0-6 2c1 2 1 2 0 0s-10-3-12-1m-652 1c2 2 5 3 25 3h15l-18-1c-12 0-17-1-20-2h-2m152 5l-8 1c-4 0-8 2-9 3h1l23-3h6l-13-1m-59 6l-12 6-4 2 4 1c43 6 39 6-59 6H0v26h820v-12c0-17 0-17-6-16-4 0-6 1-7 2h-5c-1-2-7-2-8 0h-5l-2 1-277-1H234l2-3 3-7 3-5c3-2 1-2-2-1-2 1-2 3-3 5l-2 8-2 3h-11c-8 0-11 0-9-1l5-2 9-5 8-4h-1l-16 1-14 1 10 1h12l-4 1-3 1-3 3c-4 2-3 2-33 0h-11l8 1c9 0 13 1 13 2 0 2-18 1-21-1l-7-3-6-2a2 2 0 00-2 1h-3c-1-1 0-1 2-3l3-2-4 2-6 1c-2-1-2-1 3-2a9 9 0 006-4l1 2 1 1 1-1 10-1h10l-11-1c-12 0-12-1-6-4l4-3-11 6m566-3c1 3 4 4 8 2h1l-1 3c0 3 5 2 6-1 2-3 3-3 3 0l-1 3 12-1c14 0 13 0 13-5l1-4h-42v3m-655 4l8 1 15 2 19 1 18 1c4 1 4 1-1-1l-21-1-22-2-16-1" itemprop="light" fill="url(#14156667777-posters-1653239927006-vertical-light)" fill-opacity="" stroke="url(#14156667777-posters-1653239927006-horizontal-background)" stroke-opacity="" fill-rule="evenodd" tabindex="-1"></path><path id="14156667777-posters-1653239927006-regular" d="M0 13v13h820V0H0v13m339 150l2 4v4h-10v1c5 0-1 2-13 5-4 1-4 1-2 2 1 1 1 1-2 1l-6 1h-2l-2 2c-2 2-4 3-5 2l-1 1-5 4-7 5c-1 3-1 2 3-1s7-5 8-3l1 1c1 0 2 1 2 3l2 3c1 1 1 1 0 0a13 13 0 00-16 2l-1 1 3-1c3-2 9-2 11 0 1 1 0 2-2 1h-1l3 2c4 2 4 4 0 4l-5 1c-2 2-3 2-4 0-2-1-2-1-3 1l-3 3-1 1c-1 1-1 0-1-2 0-4 2-6 5-5h3l2 1h2c1-1 0-2-1-2l-2-2h-1l-5 1-6 1-2-1v-2l-1 1-2 3-2 3c2 0 3 0 3 2v1c2-1 6 3 6 6l2 2 1-3 1-2c1 1-1 7-3 7l-2 1a9 9 0 01-10 2c-2 1-1-3 1-4 1-1 2-2 1-3s-1 0-3 3a7 7 0 00-1 7l1 2v-1c0-2 2-2 4-1 1 1 1 1-1 2-1 1-1 1 1 1l3 1-1 1-1 3-4 8c-2 3-3 6-2 7l-1 1c-1-1-1 0-1 1 0 2-3 5-3 4-1-1-1-1-1 1 1 2 1 2-4 1l-9-4-3-2h16c1 1 1 0 1-2 0-3 0-3-1-2h-13c-2-1-5-2-6-1l-1-1h1l1-1 2-1c1-1 1-1-1-1-1 0-2 0-1-1a41 41 0 0119 2h2l3-1 1-2c1-1 0-2-1-2l-1-1v-2l-2-1c0 2-3 1-4-1s-1-2-2-1l2 3 3 4c0 1-1 1-2-1-2-2-4-3-8-3-6 0-5 1 2 2 6 1 6 2 0 3-5 0-9-1-7-2l-3 1-3-4-4-5-5-3c-2-2-3-2-2 0l-1 1-2-2v-3l-1 1h-2l-1 1c2 2-2 1-6-2l-4-2h6c2-2-17-2-23 0-3 1-3 1 2 1l7-2c2 0 2 0 2 2l-1 2c-1 0-1 1 1 1 2 2 4 6 2 6l-3-2c-3-3-5-4-8-1-2 1-3 4-1 4 1 0 2-1 1-2 0-2 3-4 6-2 3 1 3 4 0 5l-3 2-2 1c-2-1-2-1 0 1 3 2 7 3 9 1 1-1 1-1 1 1-1 1 0 2 1 2 1 1 1 1-1 1l-3 2-3 3c-4 2-6 4-5 5l3 2a5 5 0 014 3c-2-3 3-3 6-1l3 2 1 2 1 1c1 1 3 2 3 4s-5 0-8-3l-3-2c2 2-2 3-19 4-2 0-3 0-3-2v-1c0 2-2 1-3-2-1-2-1-2-5-1-7 1-8 2-5 3l3 1h-6l4 2 3 1 2-1 14 1c11 0 12 1 11 2l-1 1c1-1 4 1 7 2l6 4h-5c-6 0-7 1-5 3l1-1 2-1 3 1 1 1c2 0 8 7 7 8l-5-4c-2-3-5-5-5-4h-9v1l-1 1c-3-1-2 0 0 2 2 3 3 6 1 5l-5-6 1-1-2 1c-2 0-1 1 1 3s2 2 1 3c-1 0-7-5-6-6l-2-1h-3l2 2 2 4 2 3 2 2-7-5-5-4v2c-2 0 0 3 2 4 4 0 3 3-1 2-4 0-4 0-4-2l-2-2-2-1c-1-1-1-1-1 1l2 2 2 1-4 1-5-1h-15c-4 0-5-1-3-3l1-1v-2l1-2-1 1h-6c-3 0-5 0-4 1v2l1 2 1-3 3-1c4 0 4 2 0 2-2 0-2 0 0 1 3 0 3 2-1 3-3 0-8-2-6-3v-1a21 21 0 01-4-1v-1h3a1 1 0 100-2l1-3c3-5 3-5 0-4s-7-1-5-2l-2-1c-3 0-3 0-1 1s3 3 1 3l-3 1c-2 1-4-2-2-3 1-1-2-1-6-1-10 1-12 2-11 3l-2 1-3-1c1-1-1-1-11-2-4-1-11 1-11 3l3-1 5-2c2 0 2 0 1 1-2 0-2 2-3 3v3l3-2c2-2 3-2 4-1l4 1c4 0 5 1 2 2l-3 3c-1 3-1 3 3-1 5-6 7-5 3 1-4 4-3 4-17 5l-10 1c-1 1-1 1 0 0 0-2 0-2-2-1-3 2-4 1-2-2l1-2-2 2-4 2c-1 1-2 2-1 3l-1 1c0-1-2 0-3 2-3 4-12 3-13-1l-3-2-1-1 7-1c4 0 5 0 2-1l-10-3c-7-5-21-6-28-4-4 2-4 2-1 2 3-1 4-1 3 1l2 1v2a5 5 0 01-8 2l-2-2c-1-2-2-2-3-1l-2-1 3-1h3c1-2-5-1-7 1l-2 2h3c5 0 8 3 5 5-3 1-3 1-3-1s-1-2-4 1c-4 3-2 5 2 3h2c2 3-4 6-7 4-2-1-3-5 0-9v-3c-2 2-4 7-3 9l-1 2v1c3 0 6 4 6 9 0 4-2 7-5 7-1 0-2 0-1 1l3 1c2 0 2 0 0 2-1 1-1 1 0 0l5 3 4 3h16c3-1 10 5 7 7-1 1 0 1 2 1 9-1 14 0 13 2-1 1-1 1 0 0 3 0 5 2 4 4h11l-3-3c-3 0-3-2 2-4l5-2h-5l-4-1c0-2 9-8 13-9l3-2 2-1v-1c-1 0-1-2 1-2l1 1c0 2 5 1 7-2l4-5c3-3 2-4-5-6-4-1-4-1-6 3-2 3-3 5-2 6 0 2 0 2-1 1l-1-1h-1c-4-3-8 0-8 7 0 4-2 2-2-4l-1-3c-1 1-5-7-5-8 2-3 8 0 7 3h1c2 0-2-5-4-5s-2 0-1-1l3-2 2-1v-1l1-1a3 3 0 012-3l4-1c4 0 4 1 3 4h1c2-2 9-1 8 1h1c2-1 10 0 10 2h5l1-1 1-2v2l1 2 2 1h15l22 1a17 17 0 009-1c2 1 11 2 26 2 13 0 14 0 16 2s2 2 2 0c-1-2 2-2 7 1l3 1-3 2-2 1c2 0-1 2-3 2v-1l-1-2h-1l-14 1c-7 0-12 0-10 1 6 1 6 1 5 2s-1 1 1 1h5c4-2 13 0 11 2l13-6 6-2 7-1a8 8 0 0111 9l1-1 10 1v1l3 2 6 3h-2c-1-2-2-2-2-1l-2 2c-2 1-2 1 1 1 4 0 7 1 7 2a1 1 0 01-2 0l-1-1-1 1a2 2 0 010 2l1 1h3l4-2c1 1 2 0 4-2l4-3 1-1c0-3 7-4 11-2l4 1c1-1-2-3-4-3l-2-1-2-1-3 1-4 3-6 5c-2 3-3 3-3 2l1-3v-1c0-1 6-6 9-6v-1h-5l-3 4c-3 4-5 6-5 4a13 13 0 015-7c0-1 1-2 7-5l5-1h3l-3 2h-1c4-1 14-1 16 1h-2c0 1 1 2 3 2l4 1 1 1 2 1 2 2h-7a4 4 0 01-7 0c1 1 1 1-7 3a88 88 0 00-11 3l-2 1h-1l-1 1c-3 2-1 3 3 2l12-1h7l-3 3-6 3c-1 0-2 0-1 1l-3 1c-7-2-8-2-5 0l17 2a67 67 0 0113 2l-2 1-2 2-3 2h8-23l1 3c1 2 2 3 5 3l3 1-4 1h-6c-2 1-1 1 4 1h7l-5 1c-9 2-17 2-17 0h-9l-3 1a4 4 0 00-4 2v2c-2 2-6 3-4 1h-3c-1-1-1 0-1 1 0 2 4 3 6 0h9c2-2 14-4 27-4h13l-12 1a173 173 0 00-34 6c-2 0-2 0-1-1h-1c-1 1-1 2 3 3v1h-3l-2-1-1-1-2-1c-3-1-3 0-3 3 0 2 0 3 2 2v1l-1 1v1l-1 2-1 1-2 3-1 2 3 2c1 2 1 2 1 0a5 5 0 00-1-4c1 1 1 0 1-1 0-3 3-6 8-6h4l-2 3c-1 2-1 2 2-1l4-3 5-2c2-2 6-3 9-3l6-1-2 2c-2 2-3 3-5 2-3 0-7 2-7 4v3l1-2c0-1 1-2 3-2 5 0 9-1 9-3 2-2 8-1 11 2 2 1 3 2 2 0-3-2-1-3 4-1 3 1 10 0 9-1h-3c-3 1-7 0-7-2a26 26 0 0113 1l4-1a61 61 0 0027-7v-1c-1-1-1-1 2-1 2 0 2 0 1-1h5l5 1-5-2c-6-1-9-4-3-3 3 0 3 0 2-1-2-1-2-1 0-2h8l-5 1c-1 1 6 2 10 1l7 1c3 1 4 2 2 2s-2 0 0 1c2 2 2 2-8 3-6 0-7 1-4 3 2 1 1 2 0 3-2 2-3 2-12 0l-3 1-7 3-9 2-5 2-5 1-3 1-5 1c-5 2 7 1 22-2 16-3 19-3 32-1l14 2 10 1c3 1 8-1 14-7 6-5 35-13 34-8l2-1 12-6-2 3-7 6-8 13 3-1c2 0 2 0 1-1s1-6 3-6l1-1a34 34 0 0119-15c1-2 5-2 13-3h7l-3 2a8 8 0 01-7 2c2 1 1 2-1 2-2-1-2 0-2 2 1 2-2 6-3 4l-3 2-1 3 2-2c2-2 3-1 1 1-1 1-1 1 0 0l3-2a12 12 0 019-7c-2-1 1-3 5-5l2-1h3l2-1c0-1 1-2 4-2l5-2h1l1-1c-1 0 0-2 2-3 4-4 5-5 4-6l1-1c1 1 3 0 5-3l6-3v-1l1-1 2-1c1-1 1-1 0 0-2 0-2 0-2-2l-1-3v-3c0-2-1-3-3-5l-1-1 1 3-1-1-1-1-1-2v-2c2 0 2 0 1-1l-1-1a2 2 0 014 2l1-1c1-2 4 1 4 2l4 6c4 4 4 4 2 6h1l2-1-2-5-2-8c0-2-2-3-11-3s-10 0-8 1h2v3c0 3 3 8 4 8 2-1 3 0 2 2v2c1-1 1 0 1 1 0 2 0 2-1 1l-2-1h-1c-2-2-3-3-1-3l-3-5-3-7c0-2-1-2-2-2l-3-1 5-1 7-1h5c5 0 4-1-7-4-8-2-9-2-6-3 2-1 11 0 13 1l6 1 9 3 7 3c6 0 5 2 0 2l-4 1c0 2 8 0 10-1h3c0-2-2-3-7-3l-4-2-2-2-1 1a16 16 0 01-9-6h-2c-1-1-2-2-3-1a3 3 0 01-2-3l2 1 2-1c0-3-18 0-22 3l-5 2c-4 0-7 3-4 4 2 1 2 1-1 1l-4-1 8-6c4-2 6-4 5-6l-1-3c1-1-2-5-4-5-3 0-5-2-4-4h-1v4l-2-2c-1-1-1-1-1 1 1 2 1 2 5 2l5 1c1 2 1 2-2 2l-4 1v-1l-7-1c-8 0-10-1-8-4h1c1 2 9 3 9 1 0-3-3-3-6-2h-1c0-2-4-1-5 1l-1 3v-3c1-2-1-3-2-1h-1l-1-1v2c0 1-3 2-5 0v-1l1-1c-1-1-4 1-4 4 0 2 0 2 2 2 8-2 10 4 3 7-3 1-5 2-6 1h-1c0 1-1 1-1-1h-2l-1 1c-2-1 0-4 3-7l1-1-3-1-10-7 1-2 4-3c3 0 8 4 7 5 0 2 1 1 4-1l2-1h-2c-2 1-4 0-6-2-3-3-3-3-1-3h7l-7-2-1 1c-2 0-12 8-11 8l-2 3c-2 4-8 3-12-1l-2-2 3-3 3-3 4-2c5-5 11-5 28-3l-2 1-3 1 4 1h6l5 1c2 1 2 2-1 2-2-1-3 0-4 1h4a16 16 0 018 1l1-1c-2-2-1-5 2-7l3-3h-4l1-2c1-2-1-3-3-1h-3c-1 3-3 2-2 0h-1c-2 3 0 6 4 4a1 1 0 111 2v3a1 1 0 11-2 0c0-2-2-4-4-3v1l1 1c-2 0-6-3-4-4 1-1 1-4-1-4-2-1-2 0-1 2a2 2 0 11-3 0v-1c-2 1-3 0-1-2l4-1h2c1-1 0-1-3-1-4 0-4 0-3-1l3-1 1-1c1-1 0-1-3-1-2 0-3 0-3 2v5c-1 4-1 4-10 3-6 0-7-1-7-2s0-2-2-1l-2 2c0 2 0 3-2 3l-4 1-5 4-4 3c0 4-2 4-6 3l-10-2c-4 0-6-3-2-3l3-2c1-2 4-4 7-4l3-2-7 2c-6 1-6 2-7-7 0-7 0-8 2-11 2-4 3-8 1-8v-2l-1-3a8 8 0 01-4-4l-2-3-4-7-2-3 2 1 3 1-4-3c-2 0-3-2-3-2l-2-3v-2l-1-1c-3-2-4-6-4-7l-1-1c-1 1-3-1-4-4v-2l-1-2a5 5 0 00-5-2l-2-1-3-2 2 2c3 2 4 4 2 4l-6-6a9 9 0 00-7-9c-2-2-2-2 0-3 3-1 4-3 2-5s-3-3-2 0c0 1-2 4-3 3l-1-2c0-2-2-3-2-1-1 1-2 1-4-1-1-2-3-3-3-2m132 3l-4 4c-2 0-2 1 1 2 2 1 2 1 1-1-1-1-1-1 1-1 3 0 5 2 3 3l-6 1c-8 1-8 2-1 2 6 0 11-4 9-6h8l2 3 2 1 4 1-1 1h-1l-3 1c-3 0-4 0-4-3a2 2 0 00-4-1c1-3 3-1 3 4 0 3 0 4-2 4v-1l-1-1c-3 0-1 3 3 4l3 1-2-4c1-2 17-2 18 0l-2 3-1 1c3 0 4-2 4-4-1-3-1-3 2-3 5 1 6-1 2-3l-3-2h8l-4-1-5-2-6-1-6-1c0-1 1-2 3-1h3l-3-1c-5-2-18-2-21 1m21 5l-1 1h-1 2c2-1 3-1 3 1l-1 1-1 2c-1 1-1 1 2 1l7-1c4 0 4 0 3-1h-4c-2 0-2 0-2-2s-3-4-6-4c-1 0-2 0-1 2m-167 5c-3 1-3 1-2 2h-2c-4 0-4 0-3 2v2h1c3 0 6 5 5 9l-1 4-1 1-12 3c-7 1-7 1-4 4l4 5 2 3v-3l-1-5c-2-2-2-3-1-3l1 1v2c1 2 4 3 4 1h1c2 3 8 4 10 2l4-2 1-2c1-1 0-1-7-1h-8l10-1c8 0 9-1 10-3l1-2v2c-1 4 0 4 2-2 3-5 3-5-1-5l-2 2h-3c-2 0-2 0-1-1s1-1-1-2c-2 0-2-3 1-5 4-3 1-6-4-5h-3l3-1c4-1 5-3 2-3l-5 1m21 0l2 3c2 2 2 3 0 3-3 1-4 0-2-1v-2h-2a4 4 0 002 6l2 1 2-1h2v-1c-1-2-1-2 1-3s1-4-3-5h-4m-37 6l-2 1-2 2c-3 0-4 4-2 7 1 2 1 2-1 2l1 1c4 3 14 2 15-2 0-2 0-2-4 0-5 2-5 1 0-1 4-3 6-7 2-6a2 2 0 11-1-3l1-1h-7m41 14a13 13 0 00-8 9c-3 2-1 4 2 3l12-1c8 0 10-1 5-3h-1c6 1 4-3-3-5l-1-1 4 1c3 1 3 1 0-2-2-2-5-2-10-1m14 5l2 2v2l-1 2 4 1 5 2c3 2 4 1 3-1l-5-3c-2-1-3-1-1-1 3 1 4 0 1-2-1-2-8-3-8-2m-38 11l-6 4c-2 2-5 5-7 5-2 1-3 3-1 3a24 24 0 007-5l10-5c3-2 1-4-3-2m8 2l1 3 4 5c2 4 4 6 5 4h1l1-1 2-1 17-3c4-1 0-2-6-2l-6-1c1-1 11-2 12-1 2 1 2 1 1-1-1-4-20-4-24 0-1 2 2 5 5 4l4-1-3 1-3 3-1 3-1-3-2-2-1-3c0-3-4-6-6-4m-124 10c0 1 1 2 3 2s2 0 0 1l-2 1 5 4c2-1 3-4 1-4v-1l-3-3c-4-2-4-2-4 0m156-1l-5 1c-6 0-10 1-13 4v1h3l7-1h3l1-1 2-1h2l1-2-1-2v1m-179 3c0 1-3 3-5 3-3 2-3 2-3 5 1 4 1 4 9 4 4 0 4 2 1 5-4 3-9 2-9-1s-2-3-3 1l-1 3h8l2 1c1-1 1 0 0 0 0 2 0 2 2 2 7 0 9 2 9 4v1c3-3 2-3 0-5-2 0-3-2-3-3l-2-2-2-1h2l2-4 1-4c1-3 1-3-1-2-3 2-4 2-4-1l-1-2h-1c0-2 0-3 2-3 1-1 1-1 0 0-2 2-1 2 3 0 4-1 3-2-1-2-3-1-4 0-5 1m137 1c-5 2-7 9-4 13h2l3-2 2-2 5-3c3-1 4-3 2-5-2-1-7-2-10-1m-104 5c1 2 0 5-1 7-2 4-2 4 0 6 1 3 4 4 3 2v-1l5-4c-6-4-6-5-5-5l2-1h2l1-1-1-2c-1 0-1-1 1-1l3 1h2l-5-3h-5c-2-1-2-1-2 2m165 0c-3 6-3 7 3 7 4 0 5 0 5-2v-2l-1-2-2-3c0-2-3-1-5 2m-223 2l-1 5c0 2 0 3 1 2s8-1 9 1h-6l2 1 2 2v1h2l2-1h1c-2-1-2-3-2-5v-2l-5 1c-4 0-4 0-3-2l1-3c1-1 1-1-1-1l-2 1m-21 2c1 1 1 1-1 1-2-1-3 0-3 1v12l9-1h2c2-3 1-3-3-2l-6 1c-2 0-1-4 1-5l1-1h-2a3 3 0 013-3l2-2c1-2 1-2-3-3-2 0-2 0 0 2m142 1c-1 0-2 3 0 3l2-1c3-2 2 0-1 2-2 2-2 3-1 5 2 2 0 5-4 5-1 1 1 1 5 1l7-1v-1l3-2c1-2-1-3-8-4l-2-1h2l6 1c4 1 9-2 7-3l-6-3-3 1c-2 0-2 0-1-1 2-1-3-3-6-1m24 1l2 4 6 11 3 3c2 0 2 0 1-2l-4-5a8 8 0 00-3-5l-4-8-1 2m-68 3a8 8 0 01-5 2l1 1c0 1 0 2 2 3s2 1 4-2c3-5 2-7-2-4m-184 6l-2 2c2-1 2 0 2 3s0 3 2 2h2c1 1 1 0 1-2a3 3 0 013-4v-2c1-1 1-1-1-1h-3c-1-1-3 0-4 2m31 1h-9c-1-1-9-1-10 1v1c2 0 2 0 0 1-1 2-1 2 2 2l5-1 10-1v1l2-2h2c1 2 2 2 2 1v-1l-1-1c1-1-2-3-3-1m579 2c0 2-1 3-2 2-3-1-3 0-3 3-1 4-1 4 1 2v-3l1-1c2 0 2 2 1 7l-1 6a20 20 0 01-1 13c0 2 0 2 2-1l1-13c0-6 1-9 2-10v-3c0-2 1-3 3-1h1l-1-2-2-1c-1-1-1 0-2 2m-509 2l-1 6c0 2-1 3-2 3-4 0 1 2 5 2 2 0 2 0 1 1l4 1 6 1c2 0 2 0 1-1l-4-1-10-3 6-11c2-2 2-2-1-2s-4 0-5 4m212-2l-2 1v1h2c2-2 4 1 4 5 0 3 0 3 3 3 4 0 8-4 4-4l-1-1c1-1-3-4-6-6-3-1-3-1-4 1m-13 1c-5 1-8 4-8 7-1 3 1 2 2-1 3-4 6-5 11-5 4 0 6-1 2-2-2-1-3-1-7 1m-11 0l-3 4-2 2-6 2c0 1 5 2 8 1s4-4 2-4l-1-1 3 1h1c-1-1 0-2 1-4 3-2 2-3-3-1m-178 1l-1 4c0 3 0 4 1 3 0-2 2-1 2 1s0 2-2 2h-2c0 2 5 1 5-2l2-2c3 1 7 0 8-2l-1-2-1 1c0 2-4 3-5 2l1-1c2 0 2-3-1-4s-3-1-2 1c0 2 0 2 1 1h1l-1 2h-2l-1-2c1-1 1-1 0 0l-2 1 1-3h-1m255 1l-2 1v-1l-1-1-1 3a6 6 0 0011 1h-2l1-1v-1l-1-2v-1l-2 1v1h-1c0-2-2-2-2 0m-345 1l-1 3c0 2 2 3 7 2a6 6 0 113 10l-2 1 9-1a16 16 0 009-2l4-3c3-2 5-3 11-4 4 0 5-1 3-1l-4-1h-8l4 1c3 1 3 1 0 1l-5 2c-2 2-3 3-4 2v1c1 2-2 1-3-1h-2l-1 2h1c2 0 2 0 1 1-1 2-6 0-6-2l1-4c2-3 2-3-1-3l-2-1h-3c-2 0-2 0-1-2l-2 1c-4 3-7 2-7-2v-2l-1 2m196 0c-1 1-2 2-3 1-2 0-4 5-3 7h1c0-5 1-6 5-6l4 2c2 4 4 10 3 12h1v-12l1-2v2c0 4 4 7 9 5a23 23 0 017-2h1l4-4a36 36 0 00-13-3h-17m384 4l-2 4v1l1 1-1 1h-2l-8 2c-4 0-6 0-4-1l7-1-4-1h-25c2 1-6 3-13 2l-4-1-2-1-7-1h-2l2 1c2 1-4 1-19 1l-10 1c3 1 4 4 1 4-2 0-3-2-1-2l-6-2-2 1h-12l8 2 13 2 4 1v4c3 6 3 8 2 8a9 9 0 01-4-9h-3l1-2 1-1-5 2 1 1c-1 1 1 6 2 7l1 2 1 4c1-1 0-6-2-8l-1-3c1-1 5 6 4 8 0 1 2 1 7-1l2-2c-3 1-7-8-5-10 2 0 2 0 2 5l1 5 1-1v-3c-1-2-1-2 1-2v-1c-3-1 2-2 7-2 4 0 4 0 4-3v-2l1 2 1 1 1 1c-1 1 0 1 2 1 4 0 4 0 3-3l1-3v3c0 1 1 2 4 2 2 0 3 0 2-1-3 0-2-2 0-1l2-1a5 5 0 0010 0c0-2 0-2 2-1l5 2h8v-2c0-2 2-2 2 0s3 2 14 1l10-1h1c1-2 1-2 1 1 0 2 0 2 1 1 2-4 2-9 1-9l-1-2-1-3v2m-163 0l-7 1-9 2v2h1c1-2 3-2 6-2h5c0-2 10-2 12 0 3 2 0 11-3 8l-1 1-3 1-4 1c-1 2 8 2 11 1l13-1 13-1-11-1h-12c-2 0-1-4 1-4v-1l-1-2c1-3-7-7-11-5m209 1c3 1 7 5 6 5h-4l-5 1h-20c-5 0-7 1-7 3h10c9 0 10 0 12 2h1c0-3 6-3 6 0a2 2 0 103 0 52 52 0 0126-2l2 2 1 1c1 1 2 0 1-1 0-2 4-3 18-3 7 0 9 0 8-1l-9-1h-6l-2-2h-2c1 1-1 2-5 2-2 0-2 0-2-4 0-2 0-3-1-1l-2 2-2 2c0 2-2 1-1-1l-1-2-1 2a2 2 0 01-3 1l-3-1h-5a5 5 0 00-4-1v1l-4-2-6-2-2-1 3 1m-470 3l2 2h-2c-2-3-3-2-1 0 3 3 3 4 0 3h-1v2l7 1 3-1h2v1c-1 2 3 4 7 4l3 1h-8c-8-3-16-5-17-4 0 1-5 0-12-4l-6-1v1l1 1 3 3c5 3 9 7 13 13 3 4 4 5 6 4l3-1c1 1 0 1-2 1-3 1-4 3-1 5l5 5c4 4 8 3 6-2-1-2-1-2 1 0 2 3 2 1 1-3v-2l1 2c2 3 6 2 11-3a11 11 0 017-5l1-2c2-1 5-7 4-8-2-1-15 8-15 10 1 1 1 1-1 1h-1c1 0 0 2-2 3-3 2-5 3-3 1v-2l3-3 3-2 1-1c2 0 4-3 3-5l1-2 3-6c1-5 3-7 3-5l-1 3-1 2 1 1c2-2 2 1-1 3l-1 4 1-1 2-1 1-1a3 3 0 011-1v1c1 0 1-1-1-9-1-3-2-4-4-4h-13c0 1-4 1-9-1l3 2c5 3 3 3-4 0-7-2-9-3-6 0m314 0l-33 3 5 1c1 2 10 1 10 0-1-3-3-2 22-3l21-1h-25m-249 4l-8 3c-4 0-5 1-5 3s2 2 7-1l4-1 2-1 4-3h-4m92 9l-3 5h-1l-3 7h1c1-2 1-2 1 0s1 3 3 1c1-1 1-1 1 2l2-5 2-9 1 2c-2 4-2 17-1 14l2-5c1-2 1-1 1 2 0 4 0 5 2 5h1l1-1 1-6c0-6 1-7 1 0 0 6 2 5 2-2 0-6 2-5 2 2v4l1-3 1-6-1-3 1 2c2 4 4 4 3 1-1-6-3-7-10-8h-7c-1-1-3 0-4 1m20 0c1 0 1 1 0 0v2l3 4c0 2 1 3 2 3 2 0 1-1-1-4-3-4-2-5 1-1 3 3 3 3 4 2 1-2-1-5-6-7-4-1-6-1-3 1m242 2c-4 9-5 11-7 11-1-1-2 3-1 5l3-1-1-1h-1l6-1 6-1h2l4-1c2-1 2-1 2 1h1c2-3 3-4 1-4h-2l-1-1-3-2c-1-1-1-1 0 0l-1 3-1-1h-1c-4 2-8 1-7-1l1-3 2-7-2 4m-222 0c-2 2-2 2 3 8 3 3 6 4 7 1 2-3-1-8-4-10-4-2-3-2-6 1m108-1c-7 1-13 3-8 3 2 0 7 2 4 2l-5 4c-3 3-5 4-8 4-2 0-3 0-2 1l2 1c1-1 1 0 2 2 1 1 1 2 2 1l1 1v3h3l-2-3c-4-5-3-6 1-2 3 4 4 3 1-1-2-1-2-2-1-3v-2c-1-2 1-1 3 3l2 6 3 5c1 2 4 7 2 6-1-1-3 1-2 3l-1 1h-1v1l-2-3c-1-2-1-2-1 1 0 5 0 4 4 2l4-1 1-1 2-1a30 30 0 0011-5c-2 1-23-17-22-19l9 9 14 8c2 2 4 2 5 1s1-1-1-1l-5-2-2-2h3l6 3 5 2-3-3c-5-3-5-11 1-11 2 0-2-3-5-3l-7-5-5-6-8 1m-427 6l-3 4-2 4v3a4 4 0 004-5h1c1-1 2-2 4-1l4-1h2l1 1c3-4 4-6 3-7-2-1-3-1-5 2l-2 1 2-2c2-3-1-3-3 0h-1c2-3-2-2-5 1m165-2c-4 1-10 8-15 17-2 5-2 6 0 9l2 4c0 3 2 1 4-1l1-1c0 1 1 2 2 1l5-1h4l-3-2-3-2h-3c-1 2-2 2-2 1l2-2 1-3v-2l2 2a5 5 0 004 4v-1l2-3 2-6 1-5c1-3-1-4-5-2-3 1-5 5-5 8 0 2 0 2-2 1v-2l2-4 4-4 2-2 6 1h7c1 0-7-3-9-2-2 0-2 0-2-2s0-2-4-1m-148 5c-3 5-3 5 1 5 4-1 5-3 2-3-2-1-2-1 1-1 6 0 7-3 1-4-3-1-3 0-5 3m409-3c-3 0-3 1 1 5l3 5 2 1 5 2c4 2 5 2 1-1l-5-5-2-2h2l4 3 2 1 3 3 3 1-2-2-5-5c-4-4-7-5-5-3h-1l-2-3h-4m-193 2l-1 1c-2 0-3 1-1 3l2-1c1-2 5-1 6 1l1 5c3 0 6-9 3-10h-3l-4 1h-2l-1-2v2m-304 1l-8 1-6 2c-2 3 1 5 8 4h5l-3 2-5 1c-1-1-1-1 0 0v2c-1 1-1 1 1 1l3-1 2-1c2 0 5 3 4 4l-2-1c-1-1-2-2-3-1s-1 1 1 1v1c-2 0-1 2 1 2h1c-1 2-4 1-5-1s-4-2-4 1l-1 2a2 2 0 00-2 2h1a2 2 0 004 0h1c3 1 3 2-1 2l-3 1c5 1 12 1 9-1-1-1-1-1 1-2a6 6 0 004-9l-2-3v-2c1 1 5-2 4-3h1c3 2 6 1 4-2-2-2-3-2-4-1h-3c-1-1-1-1 0 0l2-1h-5m370 1l-3 5-1 6 1 2c2 0 2-1 2-3 0-4 1-6 2-3h2c4-4 1-10-3-7m-127 3c-3 5 0 8 5 6h2c0 2 4 1 5-1l2-3c2-3 1-3-6-4-6 0-7 0-8 2m15 2l-2 4v5l1-2h4c-2-2-2-2 0-3 1-2 2-2 2-1v1l-1 1h2l1-3c-1-1 0-1 1-2 2 0 2 0 0-1-3-1-6-1-8 1m-254 1v6c3 7 11 9 11 3s-8-12-11-9m-25 1l-2 3-1 1-1 2-1 1-2 1-2 1 2 2 2 1c-2 0-2 0-1 1h2c1-1 3-2 5-1 4 0 8-2 3-3a4 4 0 112-6h-3c-1 2 1 3 4 2h2a6 6 0 00-9-5m209 3c-2 1-2 2-2 3l-1 2h-1 9c4-1 5-3 2-5h-7m201 6l-4 3h-2l-2-1 1 2c1 1 1 1-10 1h-11l7 3 3 1c0 2 5 1 6 0l1-2 6-2 7-3c2 0 2 0 1 1l-9 4c-7 3-8 4-3 5 1 1 1 1-1 1l-2-1-3-1v2l2 3c0 4 10 5 11 2 0-2 2-3 2-3 2-1 14 0 20 2h6l5-2v-1c-1-1-1-1 2-1l5-1 8-1 6-3c1-2 1-2-1-1h-10l-8 1c0 2-1 2-9 2-7 0-8 0-8-2l-1-2c-3 0-3 1-1 2 1 1 1 2-1 2-5 0-3-4 3-5h1c-2 1 1 3 3 3h11c1-1 0-1-3-1-4 1-4 1-4-2l1-3h-9l-9-2h-7m-347 6l-1 2 2 2h-2l1 3h2a4 4 0 004-5c1 1 5-3 4-4-1-2-8-1-10 2m-67 1c-8 4-9 9-2 14 5 3 11 2 10-3l1-6c3 2 3-1 0-3-2-2-2-3-1-3h2c-1-1-6-1-10 1m27 0c-5 2-7 4-6 8v3l-1-5c0-3-1-4-2-4v8c-1 7 4 12 12 13 5 0 5-1 1-2l-2-1 3-2 3-1-3-1-5-2c-1-2-1-2 2-1h4l2-1 1-1c-1-1 0-1 0 0 2 0 5-3 4-4l-2 1h-2l2-1c3-1 3-3 0-5l-2-2c1-1-2-2-5-2l-4 2m108 3c-1 4-1 4-5 4h-4l3 1 4 1-2 2-7 5c-6 3-12 9-11 10l2-2c1-2 2-2 2-1h1c0-2 4-6 4-4 0 1 1 1 2-1 1-3 5-3 5 0a5 5 0 002 3 2 2 0 012-5l-1-1-1-2 1-2 4 2 4 2-2-2c-4-2-5-4-3-5l2 1h1c-1-2 0-4 2-4h1c-1-2 3-4 5-2l3 1-1-1v-1l5-1h4c0-1-9-1-17 1-3 0-4 0-4-2-1-1-1 0-1 3m36 4l-6 1c-3 0-4 0-3 1l2 1c3-1 9 2 8 3l-1 1v-1c1-1-1-1-6-1-11 1-11 2 0 2 2 0 3 0 2 1l-1 1-6 1c-6-1-7-1-6 1a9 9 0 01-6 8 13 13 0 010 4l2-1 1-1c0-2 3-5 5-5 1 0 2 1 2 3s-3 3-3 1h-1v2l3 1-1 1h-2l3 1 2 1c-2 1-8 1-9-1h-1l-1 2-1-1c1-1-2-2-7-3-2 0-2 0-1 1l3 1 2 1a3 3 0 01-5 2l-3-1-3 1a13 13 0 0011 1c1-1 6-2 6 0h4l7-1c7 0 7 0 7 3v2l-4-2-3-1v2c-1 0-1 1 1 2h2c0-1 2-1 3 1l-7 1-3 1h-2l-4-1h-7a2 2 0 01-3 0l-1-2c-2-2-2-2-1 1s-2 8-6 8v1c1 1 1 1-1 2l-1 2c0 1 2 0 3-2 4-5 10-9 13-7l3 1-3 1c-2 2-3 3 0 3v1l-2 2 1 1c2-1 1 1 0 2l-1 2-1 2c-2 0-1 3 1 3v2c1 2-8 1-11-1l-3-2 1 2c4 3 9 4 18 3 6-1 9-2 10-1h2c-1-1 0-1 4-1 11 2 21 2 21 1 0-2 3-3 11-8 7-4 22-4 22 1 0 3 2 1 2-2 0-2 0-3-1-2s-1 1-2-1h-7l-5-1c-1 1-9-3-10-5 0-1 6 2 7 4l1-1h1l1 1h5l2-3c2-2 1-3-1-2l-1 1v2c-2 1-3 1-5-1h-4l-3-1-2-1v-2l3 1 4 1c3 0 4 0 3-1h-3c-3 0-5-2-4-3h1v-1c-1-1-1-1-4 1s-11 3-11 2l10-7 2-3a1 1 0 111 0l3 1c2 0 3-1 2-2h-2c-2 0-4-2-3-4h1c1 2 2 2 3 0 1-1 1-1-1-2-2 0-3-1-3-2l-5-1a10 10 0 01-5-1v2h-2l-2 1v7c0 2 1 3 3 0h2a12 12 0 01-13 8l-7 1-3 1-4 1c-3 0-3 0-1-1 2 0 4-2 5-3l8-1c5 0 9-2 5-2l-2-1-1-3v1l-1 1v-2a8 8 0 00-9-2l1-7-1-1c-1-1-1-1 0 0l1-2v-2c1 0 3-2 4-5l2-5c3-1 3-2 2-3-2-2-5-3-6-1m-72 2l-4 1v1h3c2-2 5 1 3 3l-1 2v2l-1 2c1 1-4 6-6 6l-1-3a4 4 0 00-2-3l1 3c0 3 0 4-3 3h-3l2 2c1 3 1 3-1 3l11 3 6 1 3 1c2 0 3 1 3 2l1 1v-2c0-2 3-2 5 1s0 5-3 3v1c2 2 0 4-2 2v1c0 3 0 3-2 3-3 0-6 2-6 4s-1 3-4 3l-4 2-2 1-3-1 2-1 1-1h-1l-1-1-1-2-1 2-1 3v-5l-1 3-2 3-6-4c-1-1-1-1-1 1 1 3 1 3-2 3s-4 2 0 2h29l-10 1c-6 0-10 0-9 1l5 1 7 2c3 1 13 4 14 3l-1-2c-1-1 3-1 9 1 2 1 3 0 2-2a3 3 0 010-3c-2 1-8-2-7-3l5 1h7l3-1h2l-2-2c-3 0-8-3-8-4l2-1c4 2 6 2 2 0l-6-5-2-3c-3-1-1-3 1-3 2 1 2 1 0-1l-3-4c1-1 0-1-2-1l-2-6c1-1 0-1-1-1v-1l1-4c0-9 2-12 9-14l6-1-5 1c-9 1-21 1-20-1 0-1-1-1-2 1m-17 1c-3 2-3 3-3 5a3 3 0 01-1 4l3-1h8c2-2 1-3-1-2s0-3 3-5l-1-1c-2-1-7 4-5 6 1 2-2 1-3-1l-1-2c1 1 2 0 3-2 1-4 1-4-2-1m343 0a19 19 0 009 11v-3l1 1 2 2-1-3v-2l1 1a25 25 0 006 12c0 1 0 2 2 2s2 0-1 2l-4 1c-2 0-1 3 2 4 7 4 13 2 9-3-2-1-3-4-2-4l-1-5-1-3-1-1-3-3-1-3 2 3c1 2 1 2 2 1s1-1 1 1l5 5c6 5 4 1-5-8-6-6-7-6-11-6l-5-1-6-1m-321 2c-2 1-4 8-4 12h2l-1 2a7 7 0 002 7c-2-1-1-2 1-2v-1l-2-3 1 1c0 2 4 1 5-1 2-3 1-10-1-11-2 0-4 2-4 4s0 2-1 1c-1-4 4-7 7-4 2 1 2 1 2-2a4 4 0 00-7-3m288 3l3 3c3 0 8 6 8 10 1 1 2 3 4 3v-2c-4-4-6-9-4-8l2 2 1 1c1-1 0-3-1-6-2-4-3-5-7-5-3 0-4 0-3 2 0 2 0 2-2 0l-2-2 1 2m-324 1c-3 0-5 2-5 2h1c3-1 5-1 4 2h-2c-1-1-1-1-1 1-1 3 2 5 5 2a2 2 0 000-5c1 1 2 0 3-1 1-3 3-3 3 0l-2 2c-1 1-1 1 1 1l2-1 1-3c0-2-5-2-10 0m102 2h-8c-5 0-7 1-7 2l1 2 2-2h1c0 2 5 3 5 1l1-1h2l2-1h2c0-1 0-2-1-1m140 1c-2 1-2 1 1 1l10 2h8l-2-2 1-1h-18m-4 2c0 1-5 2-8 1h-2l5 2c5 0 18 4 15 4l-6-1c-5-2-7-2-2 0l2 2 2 2 4 2 7 2c3 1 4 2 2 2-5 0 0 2 5 3 4 0 5 0 4-1h6l6 1a2 2 0 00-1-1l5 1c2 0 2 0 1-1s-1-1 1-1h1l2 1h2c-1 1 0 1 1 1l2-1c1-1-6-3-8-3h-15c1 2-7 0-10-2l-4-2c-1-1 0-1 1-1l5 1 2 1c-1 1 3 2 4 0 1-1-1-1-13-4l-4-1 6 1a6 6 0 006 0l4 1h11a31 31 0 008 3c2 0 2 0 1-1-2-2-2-2 1-1 4 1 4 0 0-2-2 0-3-1-3-2a2 2 0 00-2-1l1 1-3-1-13-1-12-1c-3-2-17-4-17-3m70 0l-5 1c-4-1-7 0-7 2h-2c-6-1 6 4 18 7l7 3c0 2 7 4 14 4l9 2 6 2h5a15 15 0 0013 0h2c1-1 1-1-1-2h-7l1 1 1 1-3-2c-4-4-12-5-12-1v1l-1-3c1-3-1-4-6-4s-15-4-12-4l2-1h-2l-4-2h-4l3 2 2 1c-1 1-5-1-6-3s-11-7-11-5m73 6l3 5 2 3-1-3c-3-4-2-4 2-1l3 3c-1 2 2 5 4 4 4-1 3-2-6-8l-5-4-3-2 1 3m-368-1l-1 1-1 1-1-1c-1-2-4 0-4 2 0 4 2 4 5 2 4-4 2-1-2 3l-2 2c2-1 3-1 2 2l1 1 2-2 1-4c2-1 3-8 2-8l-2 1m37 0l1 2c2 1 2 1 0 4s-4 1-2-2c1-2 1-2-1-1-2 2-3 4 0 4l1 2v3l1-1h3c3 1 10 0 9-1l-5-1c-6 0-6 0-4-3l1-2 4 2c5 2 7 3 2 0l-3-2v-2l-1-1v2l-3-2-3-1m104 6c-7 0-6 2 2 2l2 1c0 1 5 1 12-1 3 0 4-2 1-2h-17m147 7l6 3 4 2c-2 1 0 3 3 3l1 1 1 1c2 0 1-5-1-6l-5-2-9-2m-221 6l2 2 1 1 2 2h10c4 2 18 0 19-3l-1-1a74 74 0 01-31-2c-3 0-4 1-2 1m209 2c-2 1-3 1-2 2l-3 1c-14 3-14 3-3 3h11l12-3c1-1 1-1-2-2-5-2-10-3-13-1m24 4c-5 2-5 2-2 2 3 1 14 0 18-1h4l-4-2c-6-1-10-1-16 1m23 6l-9 5-4 2-1 1v2l-2 1-3 6-3 6 2-4c4-7 18-19 21-18 1 1 6-3 5-3l-6 2m-133 34l-3 1-10 2-12 2c-1 2 0 3 3 2l-1 8-3 1c-2 0-2 0 0-3l2-3h-4l-3 2c0 2-7 4-9 3l-2 2v1c2-2 7 2 6 5l2 1c2 0 2 0 1 3-1 2-1 2 2 2 2 0 3 0 3 2l1 1 2-2c0-2 8-2 12 0l3 2 6-1a13 13 0 008-2v1c-2 1-2 1 2 1l4-1a9 9 0 019 0l-1 1v2c1 4 2 4 5 3l4 1 8 1c11 0 13 0 11 1s12 1 22-1h4l-4 2-6 1-3 1-4 1-4 1 1 1 6-1 10-1c5 0 5 0 5-7l1-6h-5l-11-2h-3l-3 1v1l-1-2-5-2c-4-1-6-3-3-3l2-1c1-3-12-4-17-1l-3-1h-3l-3-1c-1-2 0-2 2-2s2 0-1-1c-4-1-4-3 0-4 2-1 2-1 0-2l-3-1 2-1c2 0 2 0-1-1l-5-1-1-2-6-2c-7 0-6 0-4-1l1-2-3 1m-192 9c-1 1 1 4 5 6 4 1 4 3 1 3-2 1-2 4 1 4 1 0 1 6-1 7l-2 4c-2 3-2 4-7 3-2 0-4 0-3-1l1-2c0-1-3 0-5 2l-13 1-14 1 14 1c16 0 16 0 15 5l3 1h2l-2 1c-1 0-1 2 1 3h11c2 0 4-2 5-6 0-3 2-4 11-4 2 0 3-1 2-2h11l8-1h-9a14 14 0 01-10-3h4c3-1 3-4 0-4-2 0-2-1 0-4l2-3v-2a5 5 0 00-1-7c1-2-10-4-16-4h-5c0-2-8-1-9 1m-18 2v2c2 3-10 7-14 5l-2 1c-1 1-1 1 4 1l9 2h4l-2-1c-1-1 3-1 9-1h10l-1-4v-4c0-2-15-3-17-1m252 20c-4 1-1 3 3 2 10 0 11 0 10-1l-3-1h-10m-51 2c1 1 0 1-2 1-3 0-6 2-5 3 1 2-2 5-5 5l-2 1 6-1h6l1 3-1 2c-2 0-5 5-4 6a10 10 0 008-8c1 0 3 0 5-2l8-2c8 0 12-2 6-3-4 0-4-1-2-2 1-1 1-1-3-1h-4c3 0 2-2 0-2l-8-1-4 1m70 1h-8c-6 1-11 2-7 2l2 1 6 1 6-1 3-1h3c0-2-4-3-5-2m-230 7c-1 1-1 1 1 1l3 1-1 1a1 1 0 101 3l2-1h2l-1-2c-2-1-2-2-1-2l2 1h5l4-2h-6l-7-1c-2-1-3-1-4 1m142 5c-2 5-15 6-17 2-1-2-1-2-1 0 0 3-4 7-5 5h-1c0 2 1 2 2 1l27-3c7 0 8-1 1-1-4 0-5 0-4-1l1-2a3 3 0 011-1v1l1-1c0-3-4-2-5 0m426 15c0 2 2 3 3 2l-1-1h-1c0-2 1-2 3 0 2 1 2 1 2-1l1 1h1a1 1 0 112 0l5 1c6 0 7-1 5-3-3-1-20-1-20 1m0 6a1 1 0 101 0h1l3 2 2 1c2 0 2 0 2-2v-2l1 1c0 3 2 3 4 2h3c1 1 5 0 5-1 0-2-2-2-3 0h-1c0-2-5-2-5 0s-2 1-2-1l-3-2c-2 0-2 0-2 2h-1c-2-3-5-2-5 0m46-1l-2 1-1 1c0 2 3 2 5 1 1-1 1-1 3 1h2l2-1h6c2 2 3 3 1 3h-2l1 1c2 1 4-2 3-5v-2l2 2c2 2 2 2 3 0h1c0 2 1 2 2 2 1-1 3 0 5 1 1 2 2 2 2 1v-1l1-2c0-4-2-4-2-1l-1 3-1-3c0-2 0-2-1-1h-1l-2 1h-1c1-2 0-2-2-2a10307 10307 0 01-10 0l-2 2-1-1c-1-2-3-2-3 1l-1 2-1-3c1-2-3-3-5-1m66 20l-2 2-1 1-1-1-1-2v2l-1 1-3-1c0-2-45-2-394-2H0v26h820v-27h-5c-8 0-9 1-9 4l-1 3c-2 2-4 0-2-1 2-2-2-7-5-6l-2 1m-4 7c0 3 1 4 5 4 3 0 4-1 4-4l-1-3-1 3-1 2-1-3c0-3-2-2-2 1l-1 3v-3l-1-3-1 3" itemprop="regular" fill="url(#14156667777-posters-1653239927006-horizontal-regular)" fill-opacity="" stroke="url(#14156667777-posters-1653239927006-vertical-light)" stroke-opacity="" fill-rule="evenodd" tabindex="-1"></path><path id="14156667777-posters-1653239927006-bold" d="M0 13v13h820V0H0v13m340 167c1 5 10 10 18 10 5 0 5 0 2-1-4-1-3-1 1-1h3l-3-2c-2 0-3-1-3-2h-1c-1 0-2 0-2-2l-1-1v3c-1 3-3 3-8 1-3-1-3-2-3-4l-1-2-2 1m-23 1l4 5-2-2-2-1 1 3c4 3 4 5 0 8-6 4-16 3-17-1-1-2-1-2-1 0s5 8 6 6h1c2 0 13-2 12-3l2-2c4-2 3-7-1-12l-3-2v1m21 6l5 5 4 4c-1 2 0 2 3 0a38 38 0 0116-1c-3-1-2 1 1 3l4 1h3c2 0 2 0 1-1l-2-2-1-1c1-2-5-3-18-3-10 0-10-1-10-3l-2-2v2l-2-2c-3-4-3-4-2 0m2 17l-2 5c-1 3-1 3 1 6 2 2 5 2 3 0l1-1h2l2-2c3-1 3-1 2-3-2-1-6-1-4 1l-1 1h-2c1 1-1 2-3 2v-1l1-1v-4c1-2 2-4 1-5l-1 2m-37 3v12l-1 3v-3c0-7 0-7-1-6s-2 2-1 6l1 5a2 2 0 003 2 3 3 0 014-1l-1 1-3 3-1 2c-2 0-4-2-4-3 1-1 0-1-2-1-4 1-5-1-5-4v-2c0 2-1 3-6 3l-4 2h-5c-4 0-5 0-4 1l2 2 3 4 2 3v1h11l7 2c5 3 6 3 9-2l2-1c2 0 2-5 1-7l5-4c3-1 5-3 5-4l-5 2c-5 3-6 2-2-2 3-3 4-7 2-11h-2c0 2-3 1-4-1l-1-1c0 2-2 3-3 1l-2-2c-1-1-1-1 0 0m57 5l9 2a9 9 0 0111 5v1a4 4 0 00-2 6h-3c2 3-1 4-5 3h-5c-1 1 0 1 2 1 4 0 6 2 3 3l-2 1 7-4 2-1c0 2-6 6-9 6l-2-1h-1l-4 1-2 1 2 1c2 2 3 2 4 1h10c3 0 0 2-3 2-6 0-8 0-4 1 3 1 2 1-4 1s-7 0-10-3l-4-3c-2 0-2 0-1-1h-1l-1 3-1 2-3 2-2 2-2-5-1-7-1-2v3l-1 3h-3c-1 2-7 6-8 5-2 0-1 2 1 3 3 2-1 1-5-1l-3-2 5 5c5 5 6 6 3 6l-2-1h-2c-1 2-5-1-8-8l-1-1 2 5c5 7 6 12 3 13l-2-1-2-5-5-5-2-2 1 2v3l-6-4-7-3 5 4c5 2 8 5 7 7l-15-4-2 1 4 1c10 2 14 6 9 9h-3l-4 1h-1l-1 1c-1 2 0 2 5 1 5-2 8-2 8-1l-1 1c-3 0-8 4-7 5 2 1 5 0 7-3 3-3 4-2 2 1l-7 5a6 6 0 00-4 4h-2v1l-3 1-5-1c-1 0-2 0-1-1l2-1c3 0 12-4 11-5-2-1-5 0-4 1l-3 2c-5 1-8 2-10 4h-2l-2-1 1 2c2 2 4 3 4 0l2-1 2 1-1 1c-2 1-2 1 1 2s4 3 2 3l15 3c4 0 8 2 8 3v1l-3 2c-3 3-4 6-2 4v1l-3 2v-2l-2 1c-7 6-8 6-8-1 0-3 0-4-1-3l-2 2c1 2-6 2-8 0-2-1-2-1-2 2 0 2 1 3 2 2l1 1c1 1-4 2-6 1-2 0-2 0-1 1l9 1 7 1h-3v1c1 2 2 2 3 0 2-2 2-2 4-1l6 3c5 1 5 5 1 7-3 1-3 1-2 4l1 3c-1 1-4-3-4-4v-1l-1 1h-6l-6 1h-4l-4 1c0 1 6 2 12 1h4l-3 2-1 2c3 0 4 4 2 6l-3 2v2l3 1c4 0 9 2 9 4 1 1 1 2 2 1v-2c4 2 4-1 0-3l-3-2h2c1 1 1 1 1-1 0-9 0-8 8-7 3 1 5 1 10-1 4-1 7-2 9-1 4 1 12 0 13-1 2-5 9-7 13-4 2 1 3 4 1 4v1c2 1 0 4-4 5l-4 1h13l4 2h4c2-1 5 0 8 3l3 3-1-1c-2-3 5-1 8 2h-1c-5-1-3 1 2 3a6 6 0 016 6c2 0 2-3 0-4l-2-2-1-2 6 1 2-1-6-2-21-8 12-5 1-2c-1-1 0-1 2-1s3 1 2 2c0 2 6 4 8 2 2-1 3-6 3-11v-4l4 1 5 1 2-1-4-1c-4 0-4 0-1-1h3l-3-2h-6v-1l-2-1-3-3-2-2-3-2h1c4 2 34 2 35 0l1-1c1 0 4-1 4-3l3-2c2-1 2-4-2-8l-3-4-1-1-3 9a13 13 0 00-4 0l1-1-1-1v-3l-1-4-1 4c0 6-1 7-4 9-2 1-2 1 0-2v-13c-2-1-2-1-1 2 2 5-1 11-6 16-3 2-5 0-5-4 0-3 0-3-1-1l-2 1-2 2c-1 3-4 4-4 2l-2-1c-3 1-3 1-4-1 0-3-2-3-2 0 1 2-4 5-5 3h-2l2-2 1-1c-1 0-2 0-1-1v-6c0-5 2-12 4-12v-1l1-2 1-1a33 33 0 014-14l1-5 2-8-2 1c-1-1 1-4 3-5 2 0 2 0 0-1s-4 0-4 3c0 2-4 1-6-1-5-5-2-14 3-15s0-14-4-14l-3-2-6-1-3 1c-10-2-13-2-13-1m-33 11a13 13 0 01-6 2l-2 1c-1 1-2 2-1 3l-1 1c-3-1-4 0-3 1l2 4c1 1 1 1 2-2l3-4a13 13 0 0113-1l-1-2-1-2v-2c0-1-1-1-5 1m-98 10l-3 4c-2 1-2 2-1 2 3 0 4 2 2 6-2 7-7 11-7 7l-2 1-2 2v-1c1-1 1-2-1-2h-2v-3l1-3-2 2c-1 4-6 7-8 6-2 0-2 0 0 1l4 1 6 2c4 1 7 2 14 1 14 0 13 0 12-1s0-2 2-2a5 5 0 015 1v-2l-1-2-2-1-4-2c0-2-4-4-6-3l-1-1v-4l-1-4 1 1c0 2 0 2 3 0h4c2 2 3 0 2-2h-1c0 2 0 2-1 1h-3l-2-1-1-3h-2c0 2 0 2-2 0l-1-1m132 15l-11 1c-3 0-11 3-11 4l-2 1-2 2-1 1h-2c-2 2 3 9 6 9a2 2 0 011 4l-4-5-4-5h-2c-3 2-3 15 0 16a10 10 0 009 0c2 1 10 0 11-1h3c3 1 5 1 6-2 0-2 0-2-4-1l-7-1-2-1h2c2 1 3 1 2-1l-1-2s0 0 0 0v-5l-3-1-2-1c0-1 2-1 4 1 2 1 2 1 2-1l1 2c2 6 8 9 10 5 1-2 1-2-4-2l-4-1h5c4 0 5 0 6-2l2-2-1 2c0 2 0 2 2 1 3-2 4-7 3-7v-1c2 0 2 0 2 2v1c1 0 1 1-1 5l-1 4-1 1-1 1 3-1c3 0 3 0 2-1v-1c1 1 3 0 5-1h2l-2 4h-1c-1-2-9 1-10 3a9 9 0 0012-1c5 1 6 0 6-5 0-3 0-4-1-3s-2 0-2-1l1-3c2-2-1-6-6-9-4-2-14-3-15-2m-90 9l-1 1 1 3 3 5 1 1 1-1v-3c0-5-3-9-5-6m-3 13l1 5c2 4 2 4 0 5l-2 3-7 6a18 18 0 00-8 8l-2 1 2-2 2-2-3 2c-3 2-4 6-2 8 2 1 1 4-2 6l-2 3 9-4 2-1c0 4-7 9-10 7-2 0-2 0-1 1l3 2a9 9 0 015 6c1 0 2-1 2-3l2-3 1-1h-2c-2 0-1-3 1-5 1-1 2 0 1 2h2c3-2 1-10-2-9h-4c0 2-2 3-2 1v-3c-1-2 0-4 2-6 4-3 5-2 2 1l-2 3 2 2c0 2 1 2 1 0 1-4 8-15 11-19l4-5h2c2 1 6-6 3-7v1l-1 1-2 1c-2 1-5-1-5-4 0-2-1-2-1-1m74 11a6 6 0 00-6 4c-1 1-1 1 0 0 2-3 0-3-7-1-5 1-10 5-10 8h-1l-3-2c-2 0-2 0 0 3l3 5 4 3c1 0 2-3 1-4s-1-1 0 0l-1 1-1-5v-1l7 7 1-1v-1l2 2c0 2 2 3 4 3v-1l-2-3v-1l3 1 1 1v5l1 5 2 2c2 0 2-4 1-10v-3l3-2 1-1 1 1c1-1 1 0 0 0l1 2 1 2c1 1 0 2-2 1-3 0-4 1-2 3v1l1 3 1 3 3 1c2 0 2 0 1-2l1-2 1 3 1 1v-9c-1-2 0-3 1-5 1-1 1-1 0 0 0 2 1 1 4 0l4-3 4-3h1l2-3h-5l3-1c5-2 6-3 3-4l-6-2-7-2h-6c-3-1-6 0-9 1m-129 4l3 5h-1c-1-2-1-2-2-1v-1l-1-2-1 2h-2c-1-2-1-2-2-1 0 2-1 2-7 1h-7c3 3 4 3 4 2h10c4 0 0 3-4 3l-4-1h-1c-1 2-2 2-2 1l-2-1c-1 1-2 0-3-1h-2c-1 1 0 2 1 2 2 0 1 2-1 2l1 1c1 0 3 2 3 4l2 4v-5c-1-2 2-2 4 0 2 3 3 3 2 0l1-2c5 2 7 2 7 1-1-1 0-1 1-1l1 1 3-1c1-1 1-1 2 1l2 1v-2l-2-3c-1-3 1-2 3 1 1 2 1 2 1 0a1 1 0 012-1l5 1 4-1-3-1v-2l-1-1-2-1c-1-1-1-1-1 1 1 3-1 2-4-2-2-3-2-3 0 1 1 3-2 2-3-1l-4-5c-2-1-2-1 0 2m266-1c-1 1 0 1 2 1l2 1c0 1-2 2-5 2s-4 0-4 2c-1 1-1 1-2-1 0-4-2-2-2 2 1 3 2 6 2 3l2-2v2c-1 1-1 1 1 1l2-1 5-2c5-3 6-7 1-9-3-1-4-1-4 1m-25 4c-4 3-6 5-3 6l1-2a2 2 0 113 1c0 2-1 2-4 2l-3 1 1 1c3-1 5 0 5 2l2-2c3-4 4-4 6-3 1 1 2 2 4 1l3-1 1-1-3-1-2 1a1 1 0 01-3 0v-2l-2-2c-2-4-2-4-6-1m-401 7c4 6 0 13-5 9h-1c1 2 1 2-3 2l-6 2c-4 4-4 5 0 2 4-4 14-4 14 0h4l2-2 2-5 1-3c-1-1-3 0-2 1l-1 1-1-3-3-5-3-2 2 3m427 15v3l1-2c1-2 1-2 2 0l1 2 3 5c3 6 8 12 9 12l-2-5-2-5c2-1 4 2 7 6 2 4 3 4 1-1l-5-5-3-3-1-1c-2 0-8-6-8-8s-2-1-3 2m-156 0c0 5 1 5 6 3l5-2 1-1c0-2-1-2-6-2-6 0-6 0-6 2m-267 3v10l-2 2-6 3c-3 1-3 1-1 1l6-3c3-2 3-2 3 0-1 1-1 2 1 2v2l-2 1v-2c-1-1-2 0-4 1-5 4-13 3-17-2h-1c0 3 5 5 11 5 5 0 6 1 8 3l3 1 2-1 5-2c1-2 1-2-1-2s-3-2-1-4c1-1 0-3-1-2v-1c0-2 2-3 2-1a1 1 0 002-1l1-1 2 1h1c2-1-1-2-4-2s-5-1-6-6l-1-2m274 1l-3 3a13 13 0 0015 2l2 1c3 0 3-3-1-6l-6-2-7 2m25 0c0 2 0 2-1 1l-4-1a5 5 0 01-5-1v2l2 3 6 1h6l-2-3-1-2 2 2 11 5v-3c-2-5-14-8-14-4m106 2c-1 1 2 9 8 17 3 5 4 7 2 5-3-1 0 2 3 4l3 2-2-5-4-7c-1-1-2-2-1-3l-1-1c-2-1-1-3 1-3h2a15 15 0 006 6h1l2 4 4 7 1-1-2-3c0-2 0-2 2-1l1 3 1 1c2 0 0-6-4-8l-7-7-5-4-4-3c-4-4-5-5-7-3m-152 19c3 4 2 8-5 10l-3 2a15 15 0 0010-4c2-1 0 2-4 5-2 1-2 2 0 1l3-2 1-1v4c1 1-4 5-9 7l-3 1h3a15 15 0 006-2c0 3-9 5-29 6l-27 3c-5 1-8 2-5 2 2-1 4 0 4 1h-3l2 2c2 1 2 1-1 1l-4-1c-2-3-4-2-5 0s1 3 6 3a12 12 0 0010-4c1-1 1-1 0 0h2l6-3 7-1 3 1-2 1c-1 0-3 1-3 3v1l1-1c0-2 8-2 10-1l4-1 9-1h10l8-1 1-1 1-1v1c-1 3 14-3 17-6s3-5 0-4l-1 1 1 1-1 1-3 1-2 1v-1c3-2 2-4-2-4-3 0-3 0 2-1l5-1h-4c-3 0-4 0-3-1 2 0 2 0 1-1v-1l2 1 3 1c1 0 2 0 1 1h5c10-1-1-11-15-15a25 25 0 01-10-4c-2-1-2-1 0 1m94 12l-2 1-3 2 3 1c3 1 3 1 2-1-2 0-2-1-1-1l3-1c2 0 2 0 1 1s-1 1 1 2c5 2 8 1 4-1h3a65 65 0 019 0l-14-2a30 30 0 01-6-1m25 5c8 1 9 2 4 4l-3 1c0 3-6 1-7-2-1-1-1 0-1 1s0 2-1 1v-1l-1-1-6-1c-6-1-6-1-3 1l3 2 1 1-1 1v1h13l7-3 5-3-3-1-6-2c-3 0-3 0-1 1m-302 2l-2 2-4 2-2 1h2c5 0 8 3 7 5 0 3 8 6 13 4l2-1c-2 0-16-7-16-9l6 2 2 1-5-8-3 1m77 2h-3l-1 1-5 3-4 2 6-1c8 0 8 0 1 5h2c4-2 5-2 2 1-5 6-29 9-32 4h-1l-4 4c-5 2-5 2 3 1 5-1 9-2 18-1l13 1 5-4 15-8-2-1c-3-1-7-5-6-6 0-2-5-2-7-1m178 7c0 2 0 2-1 1l-2-2-7 2c5 0 4 3 0 3l-5-1h1c2 0 2 0 1-1-3-2-8-2-12 0l-4 1c-2-1-3 0-4 1l-3 1-1 1 1 1 2 1 5 2c2 0 3 0 2-1s-1-1 1-1l2 1a1 1 0 002 0l8-2-2 1c-2 0-2 0 0 1l2 1h-2c-2 0-2 0 0 1h10l-2 1-1 1h4c3-1 3-4 0-4-2-1-1-1 1-1s3 1 2 2l1 1c1 1 3-1 3-2 0-2 1-2 3-1v3l4-3 7-5c9-2 9-3 1-3a21 21 0 01-13-2c-4 0-4 0-4 2M0 499v13h820v-26h-14v3a2 2 0 01-4 3l1-2v-2c-1-3-9-3-9 0l-3 1-4-1c0-2-45-2-394-2H0v13m792-6c0 3 1 4 5 4 3 0 4-1 4-4s-2-4-2-1l-1 3v-3l-1-2-2 2-1 3v-3l-1-2-1 3" itemprop="bold" fill="url(#14156667777-posters-1653239927006-vertical-bold" fill-opacity="" stroke="url(#14156667777-posters-1653239927006-radial-regular" stroke-opacity="" fill-rule="evenodd" tabindex="-1"></path><!--v-if--></svg>