<svg id="16282281824-posters-1632353042337" itemscope="" itemtype="/posters" itemid="/+16282281824/posters/1632353042337" viewBox="0 0 683 512" preserveAspectRatio="xMidYMid slice" tabindex="0" xmlns="http://www.w3.org/2000/svg"><rect itemprop="background" width="100%" height="100%" fill="white" tabindex="-1" style="fill: rgb(4, 133, 159); color: rgb(177, 171, 169);"></rect><path d="M0 100c0 55 0 98 1 97l1-1 3-2 1-2v3a6 6 0 015 3v2h1l1-1 1 1c0 1 1 2 2 1v-2l-1-1a8 8 0 01-4-5h1l1-1 2 3 2 1 1 3c0 3 2 3 4 0 2-2 5-3 3-1l2-1c1-2 6-2 4 0l1 1 3 1 2-1-1-1-3-1 2-1h2c0-2 2-2 4-1h1l2 1h1l1-3v4c0 2 0 2 1 1 0-1 1-2 3-1v-1c-2-2-2-2 0-2v-3c-1-2-1-2 1-2v1l1 1 1-4v-2h3l-2 3 2-2 2-3a1 1 0 111 0l1 1 1-2v-3l1 1c-1 1 0 1 1 1v-1h3l-1-1c0-1 2-2 5-1l4-1c0-1 1-2 3-2l2-3h1c1 1 3 2 7 2l4-1-2-3h2l3 2-1-1v-2h-1l-1-1h3c1 1 1 1 2-1h1v2c-3 1-2 2 0 1 2 0 3-1 4-3l2-1 3 1c1 0 2 0 1-1h2c2 2 2 2 2 0v-4l-1-1h-1l1-1h3c1-1 1-1 1 1-1 2-1 2 2 1l2-2h15l8-1h2l2-1h5c3-1 5 0 5 1l3 1 2-1h3c2 0 2 1 1 1l-2 1h3c2 0 2 0 1 1-2 1 2 2 5 1h5l2 1 3 1 2 1c-1 1 5 6 7 6l2-1v-1l1 1c0 2 2 1 2-1l1 1 1 1 2 1c2 2 4 3 5 2l2 1 5 2 2 1h1l2 1h4c2-1 2-1-1-1l-1-3-2-2-2-1h3l3 2h3l5 1 5 2 4 1c1 1 1 1 0 0 0-2 2-2 4-1 1 2 3 1 3-1l3-1 5-1c1-2 3-2 5-3 4 0 7-1 7-3h-1l1-2 2-4 2-4c1-3 2-4 1-5v-1c2 0 3-3 3-4h-3l-2-2c-1 1-3 0-5-2l-6-3-5-1-2-1h-1l-1-1-2-1-2-1-4-2h-1l-1 2-1-1c1-1-2-3-7-3-5 1-7-1-6-2h-1l-4 1-3 1-1 1-6-2-7-1c-1-4-9-7-10-4l-1 1v-3l-1-1-2-1h-1c2 2-2 2-4 0h-1v1c-1 0-2-1-1-2h-1l-2 1h-2l-4-1c-3-1-4-2-3-4l-1-1-2-1-2-2-2-2-1-3c-1-1-1-1-1 1l-1-1-1-4c1-1-10-8-11-8l-1-3h-1l-2-2-2-2c0 1-2 0-3-2l-2-2-2-1v-3l-2-2a4 4 0 00-3-3c0 2-1 0-2-1l-1-1-1-1-3-3-4-3-5-1-5-3h-2l-1-1-14-7-9-3c-1-2-1-2-5-2l-2-1-3-2-8-4-3-2v-1c-2 0-4-4-3-6h-2c-1 1-1 1 0 0 0-1 0-2-2-2v-3a1 1 0 110-2v-1l-3-3-1-2c-2 0-3-1-3-2h1l1-1h-3c-1 1-1 1 0 0v-2c-1 0-2-4-1-5l3 2 3 2-2-3c-2-2-2-2 0-2h5c1-1 1-1-1-3l-1-3c1-1 0-2-2-1-4 0-3-1 1-2 1-1-10-1-24-1H0v100M325 9c-6 11-8 17-7 16l6-11 6-11-9 20-6 12 3-4c2-4 3-3 0 1-2 5-2 5-5 2-2-2-3-2-9-1l-11 3c3 0 7 3 9 5 1 3 10 8 13 8l2 2 2 2c2 0 2 0 2 2-1 2 0 2 4 4 5 2 5 3 3 4-2 0-2 1-1 1l1 2c0 2 4 5 6 5 0-1 2 0 3 2s2 3 3 2c2-1 2-1 0-3h2l3 1-4 3c-6 3-6 5 0 2l6-2 4-2-4-4c-4-4-4-2 6-19a579 579 0 0016-26l15-23 1-2h-56l-4 9m63-6l-2 5-1 2c-1 1-9 11-12 18l-5 8-7 11-9 14c-4 7-4 7 1 11s4 4 7 0l7-10 7-11 3-6 2-2 3-6 7-10c4-6 6-7 6-5s-2 4-8 12l-1 3c0 1-10 18-12 19l-4 7-8 12c-4 7-4 7-1 7h4c3 2 4 0 3-4l2-4 11-16a1478 1478 0 0132-47l2-4-3-3-2-4h-19l-3 3m36-1l-2 4-20 29c-12 17-37 54-37 56l1 1 2 1h3c1-3 2-2 7 3 6 5 6 5 8 2 1-2 1-3-4-7l-6-5 9-12a1663 1663 0 0027-39l21-29 4-6h-5c-5 0-6 0-8 2m55 4l11 11c5 4 8 10 5 10l-3 4a73 73 0 01-18 20c-1 2-5 4-5 3l1-2c2-2 1-3-5-9l-8-6h-2c0-2-5-6-6-6a17 17 0 0010 9l-1 1 3 3a8 8 0 005 3v3l1 2v5l-1 3 2-2c1-2 2-2 4-2v6c0 1 2 3 7 4l4 1-5 6-13 15c-9 9-9 9-11 8-4-4-8 2-5 6 1 3 1 3-9 15a74 74 0 01-14 14c0 2-7 9-10 9-2 0-4 2-4 4 1 2 0 2-3 1l-2-2 3-3 3-4 23-27a43 43 0 008-9c5-7-11 10-18 19l-9 10-4 6-3 1c-4 0-7 2-3 3v1c-4 0-7 9-3 9l1 1v2h-2l-2-2-5-4-4-2v-1c0-2-2-5-4-5-1 1-1 2 1 3 1 2 1 3-2 1h-4l-5-1c-5 0-5-1-6-3-1-4 0-8 2-8 3-1 3-4 0-7-5-7-11-6-15 1-3 7-8 9-13 7s-9-7-9-9c0-3-4-6-9-7-3 0-5-1-8-3-1-2-3-3-3-2-1 0 0 2 2 3 4 4 4 5-1 5l-5 2c0 1-2 2-6 2l-10 1-3 1h2l6 1c6-2 6-1 6 0l3 3 7 3c9 4 7 5-3 2l-10-2-7-1-7-1c-1 1 5 8 8 9 5 1 10 2 11 4 2 2 12 5 19 6 10 1 16 5 19 10 1 4 3 5 9 8s11 7 21 18l7 7c4 3 3 3-8 1-14-2-17-1-16 5 1 2-1 3-2 0l-1-2-1-6-1-7c-2 0-18 16-18 18a11 11 0 006 8l-4 7-4-2c-3-3-6-3-6 0 0 2-8 1-23-1-28-6-33-3-34 17-1 8-1 10-3 11s-2 2-1 2c2 0 0 2-4 3h-3c0-2-8-2-9 0l-4 1a85 85 0 00-31 1c-7 1-18 5-21 7-2 3-5 4-4 1 1-1-4 1-5 3l-8 4a50 50 0 00-21 17l-13 23-5 8-6 5a14 14 0 01-7 4l-3 5-7 10a120 120 0 00-11 28 81 81 0 00-1 37l1 4 2 6v3l-2-1c-2-1-3-3-3-5-1-3-2-3-3 0l2 3 2 4h2l2 1 1 3 4 7a32 32 0 007 16l1 3 1 10a345 345 0 002 21c0 2 0 2 1 1 2-1 2-1 1 1l1 2c2 0 2 1 0 3l-3 5-1 4v2c2-2 2 2 1 6l-2 3 2-2c2-1 2-1 2 1l-3 11 166 1c118 0 166 0 165-1l-2-1h-2l-3-2-2-3-2-4v-15c1-2-1-9-3-9s-1-2 1-2l10-2v-1l-2-6c0-5-2-12-3-14l-1-5-2-4c-5-2-8-6-9-12l-2-3c-1-1-3-4-3-7l-2-4-2-1h-3l-2-3 1-1c3 0 1-3-2-3l-2-2-1-4-1-6-1-3c-2 0-4-5-3-8v-6h-1l-3 3-1 2-1 2-1 2c-3 0-1-6 1-9 2-2 3-4 3-7s0-3 3-2c3 0 4 0 7-6a34 34 0 005-12c1-2 0-3-4-6-2-2-2-2 2-8l6-8c-2 0-2 0-2-2l4-2 4-3-5 1c-3 2-4 2-4 0l-2 1h-2c-2-2 5-8 11-9l3-2 8-5c10-5 17-5 25 0 5 3 6 4 4 1l-14-8-14-4-12-4-3 2c-6 6-9 5-4-1 4-4 4-4-3-2-10 4-15 5-16 3h-1c0 2-1 3-4 3-2 1-2 0-1-3a29 29 0 0122-11c-3-1 1-3 23-11 17-5 21-6 25-3l4 2c4 1 5 3 2 3l-6-2c-5-2-9-2-7 0l-3 3c-3 2-4 10-1 10 1 0 1 1-1 3-1 2-1 2 3 4s6 4 5 5c-1 3 12 3 18 0a55 55 0 0115-6l3-1c2 0 13-9 23-18l7-6h7c6 0 7 0 5 1-5 2-10 8-9 12l-1 5-1 2-1 2c-2 1-2 2-1 2h-6c-6 0-9 1-11 2-3 2-4 6-1 4 2-1 3-2 0-1v-1h3v4l3 1-1 2v4l1 2 1 1c-1 2 4 2 8 2 2-1 2-1 1-2s0-1 2-1l2-2 1-2 4-4 4-5 2-8c0-11 0-11 5-14s6-5 1-5l-2-1 10-3 13 1 4 1 11 3c8 2 20 3 22 1 1-2 12-4 16-4 10 2 16 7 13 11s2 7 19 12a16 16 0 018 4c2-2 10 2 8 4-1 1-1 1 1 1 3-1 4 0 7 2l3 2v-17c0-16 0-17-2-16s-8-6-6-7l-2-3-1-1 1-1-3-1h-1l-5-1c-2-1-5-3-5-5 0-1-14-2-17 0-1 1-1 4 1 5 1 2-8 0-12-1-7-3-18-4-26-3l-3 1 4-2 10-3c4-1 8-2 12-5l6-4-5 1c-4 0-5 0-5-2l4-1c4 1 5 0 2-2-2 0-3-1-3-2h1c2 1 5 0 5-1l1-1 2-2h-2c-8 3-11 3-13 2-1-2-1-2 1-2l2-2c0-1-1-1-4 1-3 1-3 1-6-1l-2-1 3-2 3-2-3 1c-4 2-6 3-6 1 0-1-2-3-4-3l-8-6c-10-6-23-10-36-10h-7l3-3 9-7 7-5 3-2c2 0 17-10 24-15l8-5 7-7c4-3 6-5 7-4l2-2c1-2 3-4 7-6l31-21 14-9a50 50 0 011 19c3 2 1 7-3 8l-5 3-2 1-1 1-3 5c-3 3-3 3-1-1 1-3-2-2-6 2l-3 5 2 6c0 3 1 4 3 5l2 3c-1 1 1 1 12 3a11 11 0 018 3l2-2 1-91V0H491l4 5c8 9 9 11 8 11l-8-8c-7-7-8-8-11-8l-3 1 9 10 9 10c0 3-4-1-12-10L476 0c-2 0-1 1 3 6m151 55c-13 4-40 19-39 21l-1 3c-3 4 0 4 4 0l13-9 11-7c4-4 19-5 19-2 0 6-37 41-42 40l-2 1c-2 4-31 17-32 15l-2 1c-2 3-5 4-8 2-1-2-1-2 1-6 2-6 18-22 30-31 5-3 9-7 8-7-2-2-39 32-43 40l-13 13c-26 21-54 47-47 42 3-2 3-2 2 0-2 2-3 3-1 3h1l6-3 16-14 23-19 10-7 4 13c-2 2-1 3 1 3l6 3c4 5 13 7 10 2v-11c0-4 4-11 7-13l2-3 1-1a236 236 0 0036-25 267 267 0 0036-36c2-1 3-3 3-6l-1-4-6-1-13 3m-245 49l17 15c1 0 6-8 5-10 0-2-17-17-18-17l-3 3-2 3 2 3-8-6c-13-12-8-5 7 9m62 86c-1 3-2 4-4 4-1 0-2 0-1 1l-1 1-1 1 3 1c5-1 5 4 0 10l-3 7c1 2 8 0 11-3 3-2 3-5-2-10-1-1-1-4 1-9 1-4 1-7-1-7l-2 4m-93 1l-1 2-3 5c-2 3-2 3-1 6l3 1c2-1-1 4-3 7-3 3-2 4 2 1l13-1h9c0-2-3-2-10-2-8 0-9-1-9-3-1-7 4-7 20 0 1 0 3-4 2-5l-5-1c-4 0-5-1-2-2v-1l-4-2c-2-1-2-1-3 1-2 2-7-1-6-4v-3l-2 1m316 32a3280 3280 0 00-42 17h7l5-2c4 0 10-2 21-7l16-6c5-1 6-1 6-4s0-3-13 2m-159 1a24 24 0 00-12 10l-1 3-2 3-1 2-1 1h1l1 4v3l4-1 4-1c-1-1 0-1 0 0 3 0 6-4 8-11a10 10 0 015-6l1-3 1 1v1l2-2c1-2 1-2-1-1v-1c0-2-5-3-9-2m-240 53l-2 2 2 3c1 3 2 3 3 2l2-2h2c4-2 10 0 9 2 0 3 3 9 4 9l2 2c1 2 0 6-4 12l-2 4c0 6-11 8-19 5-5-3-12-3-12-1l-3 1c-6 2-6 5 1 8l6 3c6 3 9 3 17 3l8 1 4 1 3 1 2 1 4 2c4 3 12 2 20-4 4-3 7-2 9 2l2 3h2l7 3c6 0 6 2 2 5l-3 2 2 3 2 2 3-3 2-6 1-3 1-4 1-4 3-11c0-2 1-3 2-3v2l-1 23c0 1 5 1 7-1l2-8c1-8 3-10 6-6v5c-3 5-1 8 4 9h6c1-1 2-1 4 1 9 6-11-21-21-30l-15-10-25-15c-9-5-21-9-35-11-12-2-12-2-15 0m390 58c-4 1-4 2 0 6 3 2 4 6 4 7l2 2 2 2v1l2 4 4 5 1 2c-2 0-2 1-2 2v3l-2 2-2 2-3 4-2 3c-2 0-3 2-3 3l-3 3c-1 0-2 1-1 2l-1 3-2 2-2 2c-1 1-2 2-1 3l-1 2-2 2v1l-1 2c0 2-7 3-25 1-11-2-13-2-12-1l22 3 12 2c1 1-3 2-11 1l-30-2 10 1 9 1 20 2v3c-2 2-2 2 0 2l1 2-1 1-1 1-2 1-1-1h-2l-3 2c0 2 1 2 3 0h2v3l-1 1v1l-3 7a11 11 0 00-3 10v5l-1-1-1-1-1 3a1 1 0 11-1 0l-3-1-2 1 2 1c2 0 1 2-1 3h-3l-28-1c-21 0-27 0-28-2-1-1 2-1 26-1l28-1-25-1-28-1c-4-1-2-2 5-2l8-1h-2l-10-1c-11-2-6-3 24-3l26-1 1-1-11-1c-17 2-39 2-43 1h-9a128 128 0 01-14 2c-4 2-8 2-18 3h-10v3l2 5 3 6 1 6v3l1 1c2 1 2 1 1 3-2 2-2 2 0 2 3 0 3 1 1 3s-1 3 1 3c1-1 2-1 2 1l-1 1-4 1c-1 2-1 2 2 2l5 1v1h-3l-7 2c-4 1-3 1 4 1h8c0 1-5 3-9 3l-3 1h7c6 0 7 0 6 1s-2 2-8 3c-6 0-5 1 3 1 9 0 10 1 2 3-6 1-10 0-18-1h-6c-1 1-1 1 2 1l3 1 2 1h-4c-3 0-4 0-3 1a16 16 0 0010 0c-2-2-1-2 11-1l10 1c-1 1 6 1 17 1l16-1c-4-1-2-1 3-2 3 0 5 1 4 2l54 1h55v-30l-1-30h-5a6 6 0 01-8 0c1 1 0 1-1 1s-2 0-1 1c0 1-1 2-3 2-3 0-4-1-3-2l-2-3-1-1 1-1-3-1v-1l1-2-1-1-2-2 1-3c1 1 1 1 0 0s-2-2-1-3v-3c0-2 0-2 2-2l5-2 4-3 1-1h15l2 1v-67h-4c-4 1-4 0 1-2l4-2-4 1-6 1c-6 1-3-2 3-3l6-3-13 3c-2 0-2 0-1-1l6-3c7-2 10-3 5-3l-7 2h-4l4-2a18 18 0 005-3l-6 2-7 1c-3 0-1-1 3-3l5-2-4 1-5 1c-3 0-2-2 1-3h-4m-270 19l-1 1 3 6 5 10c4 7 6 7 7-1l2-7-1-2-5-3c-3-4-10-6-10-4m102 76l-6 18c-7 16-6 14-4 14l7-6c7-7 8-10 8-18l-1-7c0-5-2-5-4-1m60 5l-13 2c-9 2-25 4-27 3l-2 1 2 2 25-3 27-3 26-1h-10l-18-1h-10m-13 10l-13 2c-5 0-9 1-9 2h20l13-2 6-2c3-3-11-3-17 0m-35 2l1 1 1 1h-1c-1 0-7 8-7 10l-1 1-4 5-3 3c-3 0-8 3-7 5h-4l-3 1h-1c1 2-5 2-7 0l-1 1v4c-1 2-1 2 1 2l10-2c11-2 20-8 26-18 3-4 4-14 3-15-2-1-3-1-3 1m61 11l6 2 32 1 19 1c4 0 2-2-2-2-20-3-57-4-55-2m-56 6l-6 9-4 5-2 2c-2 0-3 1-3 2l-3 1-7 2c-3 2-7 2-13 2l-8 1v2h1c2-1 8 0 12 2l2-1c0-1 1-2 6-3l8-2 4-1c2 0 3-1 3-2s0-2 3-2l2-1c-3 0-2-2 1-3l2-2c-1-1-1-1 1-3 2-1 3-3 2-3l1-3c1-1 2-2 1-3l1-3v-1l-4 5m58-1c0 2 7 3 21 3l21 2 10-1c3-1-8-3-23-3l-19-2-10 1m5 5c-5 2 34 7 43 6h3c3-2 1-2-22-4l-20-2h-4" tabindex="-1" itemprop="light" style="fill: rgb(208, 222, 235); fill-opacity: 0.145; fill-rule: evenodd; color: rgb(224, 111, 6);"></path><path d="M335 1l-1 1c-2 0-4 3-3 5l-2 5c-1 3-1 3 1 2h1l-1 4 3-1 1-1 1-1v2h1c2-2 2 0 0 2 0 2-1 2-1 1l-1-1v2l2 1 2 2v2l2-2 2-1-1 2-1 1 1 1c1-1 1 0 0 0l1 3c2 0 2 2 0 7l-2 4-2 4c-4 9-4 10 1 15l4 4a1001 1001 0 0026-40l15-24h-24l-25 1m54 3l-2 5 5 5c6 7 6 6 0 16-5 8-6 13-3 13 2 0 10-12 10-15s1-4 3-3l5-6 5-7-3-4c-2-2-2-3-1-4l1-3h-6l-6-1c-5 0-6 0-8 4m37-2l-3 4-8 11-31 47h2c1-2 2-2 2-1 1 1 2 0 4-2l43-60c2-2-7-1-9 1m56-1l8 8 9 9c2 1 2 1 0 3l-2 4-1 2-4 4-4 6c-2 2-2 3-2 6l-1 2a26 26 0 00-13 14v1l5-6c0-2 3-5 5-5 2-1 2-1-5 7-4 6-4 6 1 9 4 2 4 2 7 0l-17 21c-10 11-13 13-13 11 0-1-3-2-5-1v7c2 1 1 2-8 12-8 10-2 4 17-15 17-18 18-18 21-17h11l1-1v-1l1 1a252 252 0 01-27 30c-1 3-21 24-23 24v1c1 2 1 4-2 6l-2 2 1-3 2-3h-10c-3-2-9-2-9 0l1 1 2 1-4 1c-3 0-3 0-2-1 1-2 1-2-3-1a3 3 0 00-3 3l-1 1c0 1-1 2-5 2l-6 1c0 2 0 2 2 2 2-1 2-1 2 1 0 3-2 4-3 2-2-2-5-1-7 1-2 3-2 3-1 4l3-1c1-2 5-2 5-1 0 3-2 8-4 8l-7-4c-6-4-6-4-4-6l3-2h2l2-2c3 0 3-1 2-2-1-2-3-3-9-4l-7-1c-1-1-4-2-5-1-6 1-7-9-2-12 4-3 0-9-7-9-4 0-5 0-8 4-5 9-10 10-17 5-4-3-6-6-6-8 1-2-6-5-10-5-2 0-3 1-5 4-1 4-2 5-4 5-4 0-3 2 5 7 6 4 4 5-6 3a426 426 0 00-21-5h-3l2 3c2 3 4 4 8 5 4 0 7 2 8 3 3 3 13 6 17 6 8 0 21 6 21 10 0 3 3 6 10 9 4 2 8 5 15 13l11 11c4 2 6 5 3 4h-19c-2 2 0 5 3 5l6 2h3l-2 5v7c-2 1 5 5 8 5l3 1c1 2 11 1 11-1l1-2v3l2 1 5 1h10l9 1h9l8-14c0-3-5-5-13-5l-7-1c-2-1-2-1 0-1h9c7 1 14-3 14-8 0-3 2-5 6-5 3 0 8-6 7-8s0-2 6-1l5 1-12-12c-2-2-2-2 0-2l3-1 2 1 4 3 3 1h3v2l-1 1-1 1 3 1v1l2 2 2 2c-2 3 4-2 6-5 4-5 3-7-2-7l-3-1h-4c-2 1-2 1-2-2 0-4-2-6-5-6l-2-1 1-1c2 2 1-3-1-4-4-4-9-3-7 1v4h2l2-2v3c2 0 2 0 0 3-4 4-14 2-13-3l-2-2c-2-1-5-2-6-4l-4-2a1 1 0 11-1-2l1-2c-2-2 1-1 3 1 1 1 3 2 8 2h5c-2-2-1-8 1-8v-2l-3-2-3-1c-1-1 48-50 51-50l1-1c-2-1 2-3 4-2h7l2-1h1l2 1h2c0 2 1 2 3 1h1l1 1 1-1c0-2 6-1 7 1l3 1c1-1 2 0 3 2l3 4c2 1 2 1 1 2v3l2 3 1 4-1 2h-1l1 3 2 2 2 1c-1 1 1 3 2 2v-4l1 1 9-7c37-35 91-60 91-42 0 3-6 13-8 13-1 0-6 10-5 11l-1 1-1 2-1 1v2c1 2 2 3 1 4a3 3 0 003 5l-2 1-2 1 2 2 1 2c-2-1-2-1-2 1v1l-1 1 1 1 1 1h-2v2l-1 1h-1l1 2h-1l-2 1v2l-2 3-4 3a27 27 0 00-5 4l-2 1-5 2h-2c0 2-2 3-4 3v-2l-1 1h-2c1-2 1-2-2 0-2 1-3 1-4-1h-2l-2-1h-3c1-1 1-1-2-1l-4 1-1 1h1l1 1-3 1-2 2-3 2v3c2 1 0 2-2 1-2 0-2 0-2 6 0 2 0 2 2 3a34 34 0 0016-1c1 1-12 5-20 7-11 2-15 1-19-3-1-2-3-3-5-3s-3-2-2-4l1-1-21 16-13 11-13 10c-3 2-4 3-7 2l17-14 10-8 11-9c13-10 15-12 14-16l-2-3-13 9-28 24c-14 12-16 13-14 15s-1 1-6-1c-3-1-8 0-12 2h-1l-3 3c-3 3-3 9-2 17 1 2-1 5-2 4l-1 1c1 1 0 2-1 3l-2 2c1 0 0 3-2 5-3 6-3 11 1 14 2 2 3 4 2 5v3l-7 10c-2 2-9 0-11-2-1-2-4-2-7-1l-10 2-13 1-14 2c-11 1-15 2-22 7-4 2-7 1-7-3a18 18 0 018-9h18c6 0 7 0 7-2s-1-3-3-3l-5-2c-2 0-3 0-5 2-3 3-8 2-8 0l-3-1h-1l1-2c0-1-4-1-6 1-2 1-3 1 3 2a2 2 0 11-3 2l-5-3-3-2c1-2-3-4-6-4-2 0-2 0-1-1 2-1 9 0 10 1h5l9 1 9 1c4 0 7 0 13 2h5c1-1 1-1 0 0 0 2 15 4 25 4 4 0 7-2 7-5l1-3c6-9 0-14-14-15l-21-2h-2c-3 1-21 0-24-2s-5-3-5-1c1 2 0 3-2 2h-5c-3-1-12 0-15 2l-3 1c-2 0-2 1-2 3s-1 1-6-2l-6-4-5-4c-3-3-3-3-6-3h-7c-23-6-38-6-43 1-2 4-3 26-2 27s-3 3-5 3v1h3l2 1-3 1h-3c-1 2-2 1-1-1l-1-2-1 1-2 1v1c2 1 2 1-1 1h-2c1-2-10-3-24-2-13 0-18 1-18 3 0 1-5 3-8 3l-14 4-6 2-2 1-3 2-4 2-5 3c-8 3-16 12-25 30-5 10-7 12-17 22l-4 4-3 5-3 5c0 2-4 7-4 5l1-4 2-3c0-3-3 2-6 9l-4 10-3 8-2 7c-2 4-2 7-2 11a518 518 0 012 24c3 15 5 20 8 20l2 1h2v2l1 5v2c-1 1-1 0-2-2-2-5-3-5-2 0l4 8 3 4 1 3 1 4c0 7 0 7 1 6v-4c-1-6 2-5 4 2 2 6 1 10-1 8l-1 1 1 2c2 0 1 7-1 8v2c3 2 3 6 0 10-2 3-2 3 0 3l1 3v4c2 0 1 3-1 7l-2 4-1 6v3h139l141-1h3l21 1c19 0 20 0 18-2l-2-3-1-2c-1-1-2-11-1-12v-7l-1-3c-2-2-3-7-1-9 1-1 2-2 1-3l-1-4-1-2-1-3-2-3-1-3-1-2-1-1a19 19 0 00-4-11l1-1c2 2 2-1 0-3-3-1-6-7-6-10l-4-6c-3-2-3-4-3-8s-1-5-3-8l-3-6a9 9 0 00-12-8l-1-3v-2c-3 1-5-1-5-6 1-4 1-5-1-6v-1c1-1 0-2-3-5l-5-3c-1 1-2 0-4-1l-4-2c-5-1-6-2-9-8-3-9-4-9-6 0a22 22 0 01-2 9l-1 1-3 2c-5 4-8 2-6-5l1-12 2-13v-5c-2 1-5 14-5 17l-2 7-4 9c-2 5-4 4-4-3l-3-15-3-2h-4c-1 2-1 2-1 0 0-5-1-5-6-3l-4 2c-3 4-18 7-18 4l-6-3-1-1c-1-1-2-2-3-1l-3-1c-1-1-2-2-3-1h-4l-6-1-7-1-13-1c-13 0-20 2-23 7l-3 3-1 2c0 6-7 1-8-6l-2-5-1-3c0-3 2-4 7-3l3-1 4-2c6 0 9-3 16-9l5-6 7 1c5 0 6 0 10 3 3 3 5 4 5 2h2c4 0 17-13 16-16l-1-2-1-2-1-6-1-5-1-1c-3-1-4 0-7 3-4 5-5 4-2 0a22 22 0 00-7 7l-1 1-1-6v-8c0-3 4-6 8-6l10 2c15 2 29 7 40 14l13 8c13 7 23 14 28 19 8 9 16 20 19 26l2 7h6c7 0 10 2 11 6 1 2 7 4 10 3 4-1 7-7 7-13 0-2-1-2-3-2-4 0-4-2 1-10 4-8 4-9 1-12l-2-3c0-3 9-9 13-9 1 0 2-1 1-2l8-5c9-4 15-4 23-2l5 2-3-2-6-3-15-5c-12-4-13-4-18 3-3 3-4 5-5 4h-2c-2 3-4 1-2-2s2-4-2-1c-3 1-5 1-2-1l4-3 3-2 1-1-5 1-5 2-1 2-1-1c3-3-6 1-12 6-3 3-5 4-7 4-4 0-6-2-2-2l3-3 3-3v-1c-1 0 0-2 3-4l3-3 2-1 8-4 17-7c7-4 36-13 39-13l5 2c6 4 8 4 11 1 9-7 13-18 4-12-4 3-5 2-5-4v-4h-5l-5-1 5-10 6-2c7-2 16-6 18-9l5-4 7-3c2-1 5-2 6-1l3-1c2-3 10 4 9 8a852 852 0 01-2 14l-1 1c0 2-8 13-8 12v1l-1 2c-2 0-6 5-6 7l-2 2-3 8-2 2-1 2-1 1-2 1c0 2-2 3-8 2h-7l-6-3-5-3-3-1c-1-2-8 0-10 3a8 8 0 001 10c-1 4 0 5 6 7 6 3 14 3 14 0l1-1 9-5c2-3 4-3 9-3 6 0 13-4 25-15l5-5h8l14-1c7-2 10-2 17-1l6 1 10-5c18-10 19-11 18-13-1-1 0-3 2-2h4c0-2 1-2 3-2 5 1 4-1 0-3-6-3-7-3-3-5 3-1 6-4 4-4l-1-1c1-1 0-2-2-3l-4-3a30 30 0 00-16-9l-3-1-2-1-4-1-8-1-20-3c-18 0-21-2-8-4 5-1 8-2 11-5l9-5 6-6 4-2c2 0 18-10 23-15l3-2h-17c-5-1-4-1 7-1 15-1 16-1 23-9 2-3 4-4 5-4 2 1 2 0 3-1 1-3 5-5 15-11l20-14 17-12 2 24a2 2 0 004 3l1-73V0h-70l-71 1-4 5-13 15a89 89 0 01-22 21v-5c-2-2 0-4 2-3 2 2 3 2 3 1s-7-8-8-7v-3c1-1 2-1 4 2 6 6 7 6 9 5v-4c0-3 1-4 3-2 1 1 5-3 19-19l6-7h-49l7 9c9 10 10 12 3 8a19 19 0 01-11-10l-1-2-1-1-2-2-4-2-1 1m-99 13l-10 17-2 3-14 22 3 5c4 3 4 3 5 1a52 52 0 0010-17c7-7 18-25 17-27h-2l-1-1c1-1-2-5-3-5l-3 2m243 53l-8 2-10 6c-11 7-21 15-15 14h2l-2 1c-3 0-7 5-7 9a2 2 0 01-3 3v3h3l-18 9-1 1 13-5 6-3-15 9c-7 3-8 3-7 4l11-4 8-4-18 9-3 1 3 1 27-14-1-3c-1-4 1-4 3-1 2 2 2 2 12-5 19-15 35-33 29-33l-2 1h-1v-2l-6 1m-42 22c-20 13-40 37-30 37l-1-1-1-3 3 1c2 3 3 2 5-1s2-3 1-4-1-1 1-1l1-1 1-2c1 0 4-2 6-6l6-6 1-1 1-2c1 0 2-1 1-2l3-5c6-4 6-6 2-3m-196 12l-2 4 13 12 1 2c0 2-1 3-2 1l-7-6c-6-4-5-4 2 2 8 9 9 9 10 6l2-5c2-4-1-8-4-6-2 2-5 1-5-1l2-1c2 0 2-1-2-5-6-6-6-6-8-3m280 59c-1 2-2 2-3 1-1-2-7 3-8 7-2 6 6 11 20 12l6 1v-18l-4-3c-5-4-8-4-11 0m-243 20l-3 4-3 3-4 3c-3 3-1 3 3 0l6-2-1 1 1 2c0 2 2 3 2 2v-1c-1-1 0-3 3-6l4-3-1 3v1c2-1 2 0 2 1s0 2 2 1l2 1 2 1-1-2-2-3a2 2 0 00-3-2c1-4-5-7-9-4m-106 42l-4 2-7 3c-5 2-6 3-6 5l-3 10c-5 8-5 9-2 9a2 2 0 012 3c1 2 5 1 7 0l2-2c2 0 3-2 2-4l7-3 4-3h-5l-1-1v-1l1-1 2-2c0-1 1-2 3-2 3 0 6-4 3-4v-1c1-2 1-2-1-1-2 0-2 0-1-1 2-1 13 0 18 2 2 0 5 3 9 6l5 4-2-3-3-2c0-2-4-7-5-7l-6-2-5-2-4-1h-4l2 1c3 0-1 2-7 3l-4 1 2-3 4-3 2-1c0-2-2-1-5 1m286 34h-3l-2 1c-1 1-3 3-5 3l-5 3-5 3c-5 1-4 2 3 4l6 2 6-3c11-6 33-3 43 7 1 1 2 2 3 1l1 3 1 1c2-1 3 1 1 1v1c2-1 8 2 11 5l4 2c3 1 7 2 7 4l8 1-1-2c-1-1-1-1 0 0v-2l-1-2-2-1c-2 0-3 0-2-2l-1-2a3 3 0 01-3-2c2-2 1-4-1-3l-1-1v-2c-1 1-3 0-3-1l-5-1-6-4-7-5-1-1-5-2-4-2c-14-6-26-7-31-4M274 361l-2 1-1 5-1 17c-1 1-4 13-4 19-1 6 0 7 5 7l4-1 2-1a33 33 0 0115-7l6-1 10-4 13-8 3-2 2-2c3-3 1-7-4-7a36 36 0 01-17-7l-5-2-7-2c-1 1-3 0-4-2l-3-2-2-1c-2-3-7-3-10 0m406 7l-5 6c-1 3-3 5-4 5l-1 2-3 4-4 4-3 4-6 9-1 2v2c-4 2-9 18-6 19 2 2 13 1 14-2 2-2 11-4 17-3h5v-53l-3 1m-188 75l-10 25c2 1 10-6 13-12 2-3 3-18 1-20l-4 7m151 38l-1 1-1 4-2 6c1 1 0 2-1 2l-2 1a2 2 0 003 1l-1 2c0 1 0 2-2 1h-1l3 1c1 1 2 2 2 5a10 10 0 001 4v-1l2 2a48 48 0 0027 1c-1 1 1 1 6 1h7v-3l-1-3-1 1-2-1c-2-1-2-1-1 1v3l-1-1-1-2c-1-1-1-1 0 0 0 1-1 2-3 2-1 0-2 0-1-1h-1c-2 2-4 1-4-1l-1-2c-2 0-3 0-3-2l-1-3-2-2-1-3-2-3-1-1v-1l-2-3-2-3-2-2h-1c1 1 1 1 0 0h-3l-2-1h-1" tabindex="-1" itemprop="regular" style="fill-opacity: 0.9; fill-rule: evenodd; fill: rgb(151, 48, 48); color: rgb(105, 151, 48);"></path><path d="M367 1a333 333 0 00-18 39l-1 6c3 0 14-13 13-15s3-10 5-8c1 1 3-1 8-9l8-12 1-2h-7l-9 1m243 1l-6 5a19 19 0 00-6 9l-2 2-2 5c-3 4-2 6 1 7 3 2 4 6 2 9-2 2 0 10 5 15l3 5 2 2 3 2 1 1c0 2 6 1 12-2 8-3 18-6 24-6a38 38 0 0119 9c4 0 6 6 8 26v8l-5 5c-22 23-70 52-94 56-11 2-14 4-8 6 8 3 13 3 24 3 15 0 16 0 24-7l7-6c1 1 1 0 2-1 0-2 2-3 12-9l19-13c25-18 22-18 24-1 0 14 0 14 3 13 1 0 2-132 0-132v-1l1-7V0h-19v4a3 3 0 11-4 2c0-6 1-6-8-6-6 0-8 0-11 3-4 3-5 3-1 0l3-3h-16c-14 0-16 0-17 2m52 11a2 2 0 01-3 0c0-2-2-1-5 1l-6 1h-5l-11 3-12 3c-3 0-4 5-2 7l2 2a1 1 0 003 0h2l1 3 1 1c4-1 6 0 6 1a4 4 0 006 3c-2-4 1-4 4-1l4 3v1h1c2 0 3 1 7 5 6 6 8 7 7 4l1-2 1-1h2c3 1 4-2 3-10l-1-13-1-11c-1-2-5-3-5 0M494 30l-4 5-2 5-2 5-2 3-5 7c-4 6-5 8-1 8l4 1c1 2 5-2 4-3l-1-7c0-5 1-6 10-6 5 0 7-2 7-10 0-10-4-14-8-8m132 47c-3 3-5 4-2 1s0-4-3 0l-5 3 2-2 2-2c0-2-5-1-8 2l-5 2-1 1 1 1h1l-3 2h-3v-4l-3 2-2 2 2 1h1l-7 5c-1 0-4 4-4 6 0 3 3 3 7 0l4-2-3 2a8 8 0 00-3 4v2c1 1 5-2 15-9 2-3 5-5 6-5l-13 11-6 6c1 1 27-21 32-27 3-5 2-6-2-2m-257 45c0 2-2 3-3 3l-3 2-7 5v-2l-3 3c-1 2-2 2-3 1h-2l-5-1c-4-2-4-2-4 1l-2 2-4 3c-1 2-3 3-5 3-3 0-3 0-2 1v2l3 1c12 3 19 7 19 11 1 3 3 5 10 8 6 4 14 11 17 16 4 7 19 15 27 15 3 0 10-4 13-7l3-3 4-3c3-5 7-7 10-5l2 2c0 2 5 7 6 7 2 0 1-4-1-5l-2-2-10-9-11-9h-1c-1 0-1-1 1-2s-2-1-9 1l-2-1c0-1 0-2-1-1v2c2 2-1 4-5 3l-13-9c0-2 4-5 8-6 6-1 1-5-8-5l-7-1c-3-1-3-1-5 1-1 2-2 2-3 1 0-1-3-1-7 1h-3l-1-2c-2-1 3-3 8-4 4 0 4 0 3-3l-1-4 3-3 3-4-3-3-3-3-1 2m60 20l-6 1-2 2h1c0-1 1-1 3 1v1c-1-1-3 2-3 3 1 3 15 11 16 10l-1-3c-2-2-2-4-2-6 1-4 0-10-2-11l-4 2m123 32l-9 7c-2 0-11 7-11 8l7-5 2-2c2-1 2-1 0 2-3 3-11 8-13 8-3 0-3 2-1 3l4 2c4 5 7 6 16 6l9-1 1-1 16-11 4-2c3-1 17-10 21-14h-3a83 83 0 01-34-7l-9 7m-273 38c-4 2-5 6-6 19 0 10 0 10 2 11 2 0 2 5 0 8-1 1 0 2 1 2v-1l1-1c1 1 1 2-1 3-2 4-3 4-10 2-7-1-7-1-7 1l-1 1-5-1c-10-1-10-2-1-3 6 0 8-1 7-2h-7l-9 1h-5v-1l-21 3h-5l-2 1c-2-2-10 1-19 6-26 13-28 14-36 29l-5 9-3 8c0 3-3 6-7 8s-8 7-5 6 2 1 0 2c-6 3-13 12-16 21l-4 8c-2 5-4 35-2 35l1 3-1 3-1 1 2 5 2 4v1l1 3 3 5 2 5 1 8 2 5c2 1 5 9 5 13l2 8 1 6v4c1 1 0 2-1 4v6l1 5v18l-3 7c-2 2-3 6-3 7v4h6c6 0 7 0 9-3 3-3 3-3 2-1l-1 4 5-1h2l110 1c108 0 109 0 111-2l2-3 3-3c3-4 4-3 5 6 1 3 13 3 13 0 0-2 0-2-2-1-1 1-1 1-1-2l2-4 1-4c2-8 4-3 3 5l1 2 1-5 2-6c1-2 2-3 1-4l1-1v-2c0-4 4-10 5-7l1 2c1-1 2 5 1 6s-1 1 0 0c0-2 0-2-2-1-3 2-4 5-1 6 2 0 2 1 2 5 0 7 3 6 3-2l2-7v16c-1 6 0 6 7 6s8 0 9-2v-2c-1 1-2-6-2-15l-2-11c-1-5-1-6 2-6l3-1c2-2 4 1 5 7 1 14 0 20-4 20-2 0-3 1-1 3l1 4a4 4 0 008 1l1 2c2 0 2-4 1-20-2-20-12-46-20-55l-5-12-1-6-1-6c0-4-4-9-6-9l-2-2c0-2 0-2-1-1-2 2-5 0-5-4-1-3-4-4-16-4l-8-1-3-1c-3 1-4 0-5-1l-1-3-4-1h-2l-3 2-4 3c-6 7-8 8-11 10l-5 2c-2 2-9 4-16 5l-7 1-5 1a22 22 0 00-12 2l-3 1-3 1-3 2c-2 4-28 6-35 3-11-6-11-9 1-21 3-3 3-3 1-6-1-3-1-3 2-9 4-7 4-10 1-14l-2-3 2-2 4-6c1-2 2-5 4-6 2-2 2-5 0-7-1-1-11-1-21 1l-5-1c-2-1-12 4-12 5v1l-1 3c0 3-4 9-6 9l-3-5c-4-9-16-21-24-25-4-2-4-4-3-6h6c2 2 9-1 10-4l1-3h10l10-1 4-2 9-5c5-3 8-4 8-2s5 1 6 0c2-2 5-15 5-19 0-6 8-13 13-12l13 3c15 3 26 6 37 14l17 10c10 5 20 12 25 17a114 114 0 0119 29 37 37 0 0017 0l5-2c3-3 3-4 3-10 0-5-1-7-2-7-2 0 3-7 11-13l9-8c6-5 11-8 19-8h7l-6-2c-4-1-7-2-9-1l-3-1c1-3-1-3-3-1l-2 1c0-5-3-1-4 5-1 2-2 5-6 8-4 4-7 5-5 3 0-1-2 0-5 3-2 1-3 1-3-1 0-1-1-1-3 2-3 3-5 3-4 0l-2 1a2 2 0 11-3-1l2-3 2-4c2-1 3-3 2-3l4-4c2-3 3-4 1-3-1 1-3 2-5 1-2 0-3 1-6 4-6 7-7 7-10 3-2-2-2-4 2-4l2-3a22 22 0 0111-12l8-4 7-3 4-1 2-1-1-1c-1 0-2-5-1-7v-1l-3 3c-1 3-1 3-3 3a100 100 0 00-21-7c-2 0-2 0-1 2 3 3 1 5-2 3-4-3-9-3-13-2l-6 2-3 1 3-3c4-3 2-4-2-1-2 1-3 2-5 1s-2-1-2-12l1-12c2-3 1-6-2-8l-4-3-1-1c-1 0-2 3-2 13l-1 22-8-2-12-1c-4 1-5 0-8-2-12-8-14-9-19-10l-6-2-6-3-3-1 4-8 5-12c1-5 5-8 13-10l5-3c2-1 3-2 6-1l6 2 5 2 3 1-4-3-4-4c0-2-3-3-7-3l-13-2c-15-3-28-4-32-1m320 23c-3 8-7 14-9 12l-7-1h-1l-2-1-13 3-5 1h-5l-7 1c-7 0-8 1-9 7a40 40 0 010 6l-1 2c-3 4 2 4 14 1 9-2 9-2 15-1l7 2 10-6 11-6 1-5 2-5 1-3 1-3c2 0 2-1 1-2v-6c2-6-1-3-4 4m-320 57c-3 4-9 16-9 19s3 8 5 8c1 0 10-13 10-15l-2-4c-4-3-4-4 0-7 2-3 2-3 0-3l-4 2m-94 39l6 3 5 3-1 1c-1 1-1 1 1 3 5 3 13 11 15 15 3 6 4 7 5 4 1-1-1-7-3-9l-3-4c-3-4-13-12-18-14l-7-2m60 25l-1 2c-1-1-5 2-5 4v1l-1 2c-10 10-12 30-3 28 2 0 3-1 3-2 1-3 5-6 6-6l3-5c2-9 4-12 9-18l2-4v-1l-2-1h-2c-1-2-8-2-9 0m432 20c-7 8-17 20-20 26-9 16-10 19-5 19l5-1 18-5 8-1v-43l-6 5m-185 68c-5 9-9 22-9 23 1 0 4-2 7-6 7-6 7-9 6-19v-6l-4 8" tabindex="-1" itemprop="bold" style="fill: rgb(36, 19, 10); fill-opacity: 0.875; fill-rule: evenodd; color: rgb(197, 97, 43);"></path></svg>