<svg id="16282281824-posters-1654102118051" itemscope="" itemtype="/posters"
  itemid="/+16282281824/posters/1654102118051" viewBox="0 0 908 512" preserveAspectRatio="xMidYMid slice" tabindex="0"
  xmlns="http://www.w3.org/2000/svg">
  <defs class="gradients">
    <g class="radial">
      <radialGradient id="16282281824-posters-1654102118051-radial">
        <stop itemprop="radial" stop-color="hsla(42, 3%, 60%, 1.00)" offset="0%"></stop>
        <stop itemprop="radial" stop-color="hsla(38, 4%, 54%, 1.00)" offset="15%"></stop>
        <stop itemprop="radial" stop-color="hsla(34, 5%, 62%, 1.00)" offset="30%"></stop>
        <stop itemprop="radial" stop-color="hsla(32, 6%, 65%, 1.00)" offset="45%"></stop>
        <stop itemprop="radial" stop-color="hsla(35, 5%, 63%, 1.00)" offset="60%"></stop>
        <stop itemprop="radial" stop-color="hsla(34, 6%, 48%, 1.00)" offset="75%"></stop>
        <stop itemprop="radial" stop-color="hsla(34, 7%, 58%, 1.00)" offset="90%"></stop>
      </radialGradient>
      <radialGradient id="16282281824-posters-1654102118051-radial-background">
        <stop stop-color="hsla(42, 3%, 80%, 1)" offset="0%"></stop>
        <stop stop-color="hsla(38, 4%, 80%, 1)" offset="15%"></stop>
        <stop stop-color="hsla(34, 5%, 80%, 1)" offset="30%"></stop>
        <stop stop-color="hsla(32, 6%, 80%, 1)" offset="45%"></stop>
        <stop stop-color="hsla(35, 5%, 80%, 1)" offset="60%"></stop>
        <stop stop-color="hsla(34, 6%, 80%, 1)" offset="75%"></stop>
        <stop stop-color="hsla(34, 7%, 80%, 1)" offset="90%"></stop>
      </radialGradient>
      <radialGradient id="16282281824-posters-1654102118051-radial-light">
        <stop stop-color="hsla(42, 3%, 66%, 1)" offset="0%"></stop>
        <stop stop-color="hsla(38, 4%, 66%, 1)" offset="15%"></stop>
        <stop stop-color="hsla(34, 5%, 66%, 1)" offset="30%"></stop>
        <stop stop-color="hsla(32, 6%, 66%, 1)" offset="45%"></stop>
        <stop stop-color="hsla(35, 5%, 66%, 1)" offset="60%"></stop>
        <stop stop-color="hsla(34, 6%, 66%, 1)" offset="75%"></stop>
        <stop stop-color="hsla(34, 7%, 66%, 1)" offset="90%"></stop>
      </radialGradient>
      <radialGradient id="16282281824-posters-1654102118051-radial-regular">
        <stop stop-color="hsla(42, 3%, 44%, 1)" offset="0%"></stop>
        <stop stop-color="hsla(38, 4%, 44%, 1)" offset="15%"></stop>
        <stop stop-color="hsla(34, 5%, 44%, 1)" offset="30%"></stop>
        <stop stop-color="hsla(32, 6%, 44%, 1)" offset="45%"></stop>
        <stop stop-color="hsla(35, 5%, 44%, 1)" offset="60%"></stop>
        <stop stop-color="hsla(34, 6%, 44%, 1)" offset="75%"></stop>
        <stop stop-color="hsla(34, 7%, 44%, 1)" offset="90%"></stop>
      </radialGradient>
      <radialGradient id="16282281824-posters-1654102118051-radial-bold">
        <stop stop-color="hsla(42, 3%, 13%, 1)" offset="0%"></stop>
        <stop stop-color="hsla(38, 4%, 13%, 1)" offset="15%"></stop>
        <stop stop-color="hsla(34, 5%, 13%, 1)" offset="30%"></stop>
        <stop stop-color="hsla(32, 6%, 13%, 1)" offset="45%"></stop>
        <stop stop-color="hsla(35, 5%, 13%, 1)" offset="60%"></stop>
        <stop stop-color="hsla(34, 6%, 13%, 1)" offset="75%"></stop>
        <stop stop-color="hsla(34, 7%, 13%, 1)" offset="90%"></stop>
      </radialGradient>
    </g>
    <g class="vertical">
      <linearGradient id="16282281824-posters-1654102118051-vertical" x1="0" x2="0" y1="0" y2="100%">
        <stop itemprop="vertical" stop-color="hsla(42, 3%, 60%, 0.56)" offset="0%"></stop>
        <stop itemprop="vertical" stop-color="hsla(33, 4%, 54%, 0.56)" offset="15%"></stop>
        <stop itemprop="vertical" stop-color="hsla(37, 5%, 61%, 0.56)" offset="30%"></stop>
        <stop itemprop="vertical" stop-color="hsla(32, 6%, 65%, 0.56)" offset="45%"></stop>
        <stop itemprop="vertical" stop-color="hsla(35, 5%, 63%, 0.56)" offset="60%"></stop>
        <stop itemprop="vertical" stop-color="hsla(34, 6%, 48%, 0.56)" offset="75%"></stop>
        <stop itemprop="vertical" stop-color="hsla(34, 7%, 58%, 0.56)" offset="90%"></stop>
      </linearGradient>
      <linearGradient id="16282281824-posters-1654102118051-vertical-background" x1="0" x2="0" y1="0" y2="100%">
        <stop stop-color="hsla(42, 3%, 80%, 1)" offset="0%"></stop>
        <stop stop-color="hsla(33, 4%, 80%, 1)" offset="15%"></stop>
        <stop stop-color="hsla(37, 5%, 80%, 1)" offset="30%"></stop>
        <stop stop-color="hsla(32, 6%, 80%, 1)" offset="45%"></stop>
        <stop stop-color="hsla(35, 5%, 80%, 1)" offset="60%"></stop>
        <stop stop-color="hsla(34, 6%, 80%, 1)" offset="75%"></stop>
        <stop stop-color="hsla(34, 7%, 80%, 1)" offset="90%"></stop>
      </linearGradient>
      <linearGradient id="16282281824-posters-1654102118051-vertical-light" x1="0" x2="0" y1="0" y2="100%">
        <stop stop-color="hsla(42, 3%, 66%, 1)" offset="0%"></stop>
        <stop stop-color="hsla(33, 4%, 66%, 1)" offset="15%"></stop>
        <stop stop-color="hsla(37, 5%, 66%, 1)" offset="30%"></stop>
        <stop stop-color="hsla(32, 6%, 66%, 1)" offset="45%"></stop>
        <stop stop-color="hsla(35, 5%, 66%, 1)" offset="60%"></stop>
        <stop stop-color="hsla(34, 6%, 66%, 1)" offset="75%"></stop>
        <stop stop-color="hsla(34, 7%, 66%, 1)" offset="90%"></stop>
      </linearGradient>
      <linearGradient id="16282281824-posters-1654102118051-vertical-regular" x1="0" x2="0" y1="0" y2="100%">
        <stop stop-color="hsla(42, 3%, 44%, 1)" offset="0%"></stop>
        <stop stop-color="hsla(33, 4%, 44%, 1)" offset="15%"></stop>
        <stop stop-color="hsla(37, 5%, 44%, 1)" offset="30%"></stop>
        <stop stop-color="hsla(32, 6%, 44%, 1)" offset="45%"></stop>
        <stop stop-color="hsla(35, 5%, 44%, 1)" offset="60%"></stop>
        <stop stop-color="hsla(34, 6%, 44%, 1)" offset="75%"></stop>
        <stop stop-color="hsla(34, 7%, 44%, 1)" offset="90%"></stop>
      </linearGradient>
      <linearGradient id="16282281824-posters-1654102118051-vertical-bold" x1="0" x2="0" y1="0" y2="100%">
        <stop stop-color="hsla(42, 3%, 13%, 1)" offset="0%"></stop>
        <stop stop-color="hsla(33, 4%, 13%, 1)" offset="15%"></stop>
        <stop stop-color="hsla(37, 5%, 13%, 1)" offset="30%"></stop>
        <stop stop-color="hsla(32, 6%, 13%, 1)" offset="45%"></stop>
        <stop stop-color="hsla(35, 5%, 13%, 1)" offset="60%"></stop>
        <stop stop-color="hsla(34, 6%, 13%, 1)" offset="75%"></stop>
        <stop stop-color="hsla(34, 7%, 13%, 1)" offset="90%"></stop>
      </linearGradient>
    </g>
    <g class="horizontal">
      <linearGradient id="16282281824-posters-1654102118051-horizontal" x1="0" x2="100%" y1="0" y2="0">
        <stop itemprop="horizontal" stop-color="hsla(36, 3%, 57%, 1.00)" offset="0%"></stop>
        <stop itemprop="horizontal" stop-color="hsla(34, 5%, 62%, 1.00)" offset="15%"></stop>
        <stop itemprop="horizontal" stop-color="hsla(32, 5%, 61%, 1.00)" offset="30%"></stop>
        <stop itemprop="horizontal" stop-color="hsla(37, 7%, 54%, 1.00)" offset="45%"></stop>
        <stop itemprop="horizontal" stop-color="hsla(40, 4%, 68%, 1.00)" offset="60%"></stop>
        <stop itemprop="horizontal" stop-color="hsla(48, 3%, 75%, 1.00)" offset="75%"></stop>
        <stop itemprop="horizontal" stop-color="hsla(45, 2%, 70%, 1.00)" offset="90%"></stop>
      </linearGradient>
      <linearGradient id="16282281824-posters-1654102118051-horizontal-background" x1="0" x2="100%" y1="0" y2="0">
        <stop stop-color="hsla(36, 3%, 80%, 1)" offset="0%"></stop>
        <stop stop-color="hsla(34, 5%, 80%, 1)" offset="15%"></stop>
        <stop stop-color="hsla(32, 5%, 80%, 1)" offset="30%"></stop>
        <stop stop-color="hsla(37, 7%, 80%, 1)" offset="45%"></stop>
        <stop stop-color="hsla(40, 4%, 80%, 1)" offset="60%"></stop>
        <stop stop-color="hsla(48, 3%, 80%, 1)" offset="75%"></stop>
        <stop stop-color="hsla(45, 2%, 80%, 1)" offset="90%"></stop>
      </linearGradient>
      <linearGradient id="16282281824-posters-1654102118051-horizontal-light" x1="0" x2="100%" y1="0" y2="0">
        <stop stop-color="hsla(36, 3%, 66%, 1)" offset="0%"></stop>
        <stop stop-color="hsla(34, 5%, 66%, 1)" offset="15%"></stop>
        <stop stop-color="hsla(32, 5%, 66%, 1)" offset="30%"></stop>
        <stop stop-color="hsla(37, 7%, 66%, 1)" offset="45%"></stop>
        <stop stop-color="hsla(40, 4%, 66%, 1)" offset="60%"></stop>
        <stop stop-color="hsla(48, 3%, 66%, 1)" offset="75%"></stop>
        <stop stop-color="hsla(45, 2%, 66%, 1)" offset="90%"></stop>
      </linearGradient>
      <linearGradient id="16282281824-posters-1654102118051-horizontal-regular" x1="0" x2="100%" y1="0" y2="0">
        <stop stop-color="hsla(36, 3%, 44%, 1)" offset="0%"></stop>
        <stop stop-color="hsla(34, 5%, 44%, 1)" offset="15%"></stop>
        <stop stop-color="hsla(32, 5%, 44%, 1)" offset="30%"></stop>
        <stop stop-color="hsla(37, 7%, 44%, 1)" offset="45%"></stop>
        <stop stop-color="hsla(40, 4%, 44%, 1)" offset="60%"></stop>
        <stop stop-color="hsla(48, 3%, 44%, 1)" offset="75%"></stop>
        <stop stop-color="hsla(45, 2%, 44%, 1)" offset="90%"></stop>
      </linearGradient>
      <linearGradient id="16282281824-posters-1654102118051-horizontal-bold" x1="0" x2="100%" y1="0" y2="0">
        <stop stop-color="hsla(36, 3%, 13%, 1)" offset="0%"></stop>
        <stop stop-color="hsla(34, 5%, 13%, 1)" offset="15%"></stop>
        <stop stop-color="hsla(32, 5%, 13%, 1)" offset="30%"></stop>
        <stop stop-color="hsla(37, 7%, 13%, 1)" offset="45%"></stop>
        <stop stop-color="hsla(40, 4%, 13%, 1)" offset="60%"></stop>
        <stop stop-color="hsla(48, 3%, 13%, 1)" offset="75%"></stop>
        <stop stop-color="hsla(45, 2%, 13%, 1)" offset="90%"></stop>
      </linearGradient>
    </g>
  </defs>
  <rect itemprop="background" width="100%" height="100%" tabindex="-1" id="16282281824-posters-1654102118051-background"
    fill="url(#16282281824-posters-1654102118051-radial-background)"></rect>
  <path id="16282281824-posters-1654102118051-light"
    d="M227 1a245917 245917 0 000 0m247 35l-19 15c-11 9-13 11-8 14 6 3 6 4 5 7l-5 4c-2 0-3 2-3 2l-1 2c-3 0-3 2-2 4 4 5 7 33 4 36l-1 3c0 3 0 3-8 4l-15 2c-8 1-31 9-34 11-2 1-2 3-2 6s-1 4-2 5c-3 2-1 6 3 8l2 1v18c-1 29-2 33-11 34l-3 3 2 1 1 2-3 1-3 1c0 2 4 6 8 8 4 1 6 4 3 7-2 2-2 3 0 5 1 2 2 3 1 9l-2 2c-3 1-6 5-6 7l-1 2c-2 0-2 0-1 1l4 2 2 1c3-1 4 4 3 22-1 19-1 20-3 18a13 13 0 00-22 10l-1-1-3-1-34-5-21-2-18-1-34-8-22-7c-4 0-4 0-2-2s2-6-1-6l-1-2c0-4-2-3-5 2l-3 6c-1 0 0-7 2-9v-6l-2-2c-1-3-3-4-3-2l-2 3-1 5c1 8 0 8-4 7l-12-2c-9-2-10-2-10-7 0-6 1-10 2-8h4l2-1-3-1c-1 0-2 0-1-1l-1-1-1 1c-1 1-1 0-1-2s1-3 2-3v-1c-2 0-2-1-1-2 0-3 0-3-2-3-3 0-3-3 1-6l2-4v-3c-1 1-1 0-2-2 0-3-2-5-4-5l-6-1-4-1v-11l-1-4c0-3-1-3-2-3s-2-1-2-4l-2-7-3-6-8-9c-6-6-9-10-7-10l1 1h1c0-2-1-2-3-2h-3l-2-1-2-1-1-1h-2l-2-2c-1-1-1-1 0 0h-1c-2-3-2-4-1-4l1-1-2 1h-7c-1 1-5-3-5-5l2-2c1 0 1-1-1-2l-4-2h-1l-3 1c-3 1-3 1-2 2 3 2 2 3-4 6l-5 3-5 3a47 47 0 00-10 7l-5 3-9 9c-9 9-11 13-11 20 0 2-1 3-3 4-3 2-4 5-1 5l1 1-2 1v1c2 1 0 5-2 6-3 1-3 0 0-2 2-2 2-2 0-1h-2l-2 1h-5l1 3-1-1-5-1-5 1v4l-2 4c-2 0-1 3 2 5 3 1 3 3 1 3l-3 2-1 2c4 0 2 4-3 7l2 2v4c-1 1-1 1 1 1 3-1 3 1 2 11 0 11-2 15-6 15l-3-1-3-3-1-1-2-1c-4-1-5-1-5 1 0 1-1 2-2 1-2 0-2 0 0 1 1 2 1 2-1 1-6-2-6-10-6 113v114h909V398l-1-71v44h-4c-8-2-8-2-9 1 0 5-1 5-1 0l-1-4-1 1-3 1a3 3 0 00-4 2v-3c0-2-1-3-3-3l-4-2c0-3-3-3-4 0 0 2-2 3-7 3-3 0-4 1-4 3-1 2-2 1-1-2l-16-1c-14 0-15 0-15 2h-1l-3-2-2-1c-1-2-5 3-5 5l-1 2h-1c-1 1-6 0-8-1h-14c-1-1-6-1-9 1-2 0-2-1-2-6 0-8 0-8-3-5l-14 1-14-1-2-1c0-3-4-2-5 0-2 2-5 3-5 0l-1 1c-1 1-1 1-2-1 0-2-2-3-3-1l-4 1-5 2-14 1h-11l-1 5v6h-6l-7 1-5-1c-5 0-5-1-5-3s-1-3-2-3c-2-1-3-5-3-10 0-1 1-2 3-2l2-1-2-1c-1 1-4-2-5-4l-5-28c-3-16-3-16 1-16s5-1 1-2c-3-1-4-4-4-12 1-6 0-6-7-8l-3-1c-2-1-2-1-3 1h-2v-3c-3-1-10-1-11 1s-2 1-1-1c0-2 0-2-1-1h-1c0-3-33-4-46-1-10 2-10 3-10-7l-1-8 3-4 4-5c0-2-4-7-6-7v-1l-1-1h-3l-1-1c2 0 2 0 1-1v-2l-1-1v-1c2-2 2-2 0-3l-4-2-1-1 3 1c4 2 5 2 5 0l-3-2c-3-1-4-2-2-3l1-2h-1c-2 1 4-7 7-9 3-3 3-7-1-6h-2l2-1 3-1-3-1c-7-3-8-3-8-2l-1 2v-3h5a47 47 0 006 1l3 1c1-1-4-5-5-5l-2-1-4-2-5-2 1-4v-23c0-9 0-9 3-11 4-3 4-5 0-5-2 0-3 0-3-2l-1-3-1-2v-1h-2l-4-1-4-2h3l7 1a5 5 0 00-3-8l-2-1h-1c0-1-2-5-4-5-3-1-4 1-2 3 3 1 0 2-4 1-2-1-3-2 0-2a2 2 0 100-3c-26-5-27-5-30-14l-2-4c-5-3-8-23-4-26 2-1 2-2 1-2v-1l1-2 2-3v-2l-2-3-4-3c-4-2-6-6-2-8 7-3 6-7-4-15-17-14-27-18-32-13m21 46l-2 3-1 2-1 2c-2 2-2 5-2 15v12h3c3 0 4 1 4 3 1 2 1 2 2-1 0-2 1-3 2-3 1 1 2 0 3-1V89l-2-3-1-4h-5m-38 5c-2 2-2 4-2 18l1 16c2 2 10-1 10-4l1-2V87c-2-4-7-4-10 0m21 15v12l1 3c1 1 1-4 1-11 0-17-2-20-2-4m47 64c0 3 1 4 3 4 4 0 6 2 5 4v6l-1 5-2 1 3 1h3v-12c1-13 2-12-5-13h-6v4m35 7l-1 10c0 9 0 10-2 10s-2-1-1-5l-1-7c-3-2-4-1-2 2a4 4 0 01-1 6l1 2 1 4c0 2 0 3 1 1l1-1c3 1 4-2 5-12v-11l-1 1m-43 46a12 12 0 01-7 4l5 1c4 0 4 0 2-1-5-1-2-2 4-2h5l-4-1h-3l3-1 3-2c0-2-4-1-8 2m-23 7l11 1 21 2h10c1-1 0-1-3-1h-5c-5-2-34-3-34-2m-12 3l21 3 15 2 8 1 11 2h9l1-1 1 1c-1 1 2 2 6 2 2 0 2 0 1-1l-3-1-2-1a4 4 0 00-6 0c1 1 0 1 0 0l-2-2c-1-2-6-3-9-1h-3l-10-2-38-2M41 257l1 1 1 3-1 2h-1l-1-2v-2c-1 0-2 6-1 14v9l1 2 1-1 1-2v2l2 1c3 0 3 0 3-11 1-11 0-16-4-17l-2 1m24 5l1 1 1 1-1 1c-1-1-1 0-1 2 0 3 0 3-1 2v1c0 4 3 7 3 5 1-1 1 0 1 2l1 3-1-17c-2-2-3-3-3-1m14 3c-1 3 0 14 1 10h1l-1 3c-1 0-1 2 1 2l1-1h1c1 2 2-2 2-9 0-3-1-4-2-4l-1-2v-2c-1-1-2 0-3 3m89 2l1 8c0 3 0 4 2 4l1-8-1-8v1l-1 1-1-1c-1-1-1 0-1 3m330-3l-2 2c-3 1-8 0-8-1l-2-1-2 1 2 1 2 2 3 1 1 2c-1 1 0 1 4 1 4-1 4-1 4 2l1 3 1-5c0-4 0-6 2-6v-2l-2 2-2 3-1-3-1-2m-14 8l-1 1h3l2 1c2 0 2 5 1 6l-1 4c0 3-1 4-2 3-2 0-2 0-1 1a5 5 0 01-2 8c2 2 8 4 9 3l-2-1v-1l1-4c0-3 1-5 3-5s2-1 2-3c0-5 2-5 2-1a61 61 0 010 21l1-2h4l2-1c1 1 7-1 7-2l2 1c3 3 8 3 6 0v-3l-2-1c-2 2-2-1-2-10 0-5 0-7-1-5l-1 3-1-2c1-3 0-3-3-3l-5-1c-3-1-4 1-4 5l2 4 1 2h-2c-1-2-1-2-1 3v6l-1-8c0-9 0-11-3-11a1 1 0 010-3v-2c-1-1-2-2-4-1l-2-1c-1-2-4-2-7-1m54 2a12 12 0 01-3 10l1 1v2c-2 2-3 1-2-1 0-2 0-2-1-1s-2 8-1 10c1 1 0 2-2 2-2 1-2 1 1 1l5-2c2 0 2-1 1-1v-4l1-4v-2l1-3v-10l-1 2m-32 11c-1 2-2 3-1 5l-1 3c-2 2-1 7 2 7 1 0 2-2 1-3-1-2 0-3 2-3s2 0 2 2c-1 2-1 2 1 2s2 0 1-1v-1l1-3c0-2 0-2-1 0 0 3-2 1-2-2 0-7-1-8-5-6M0 399c0 62 1 88 1 57a14836 14836 0 00-1-57m551-104l-1 4-1-2-1-1c-2 0-1 3 1 4s1 3-2 3l-3 2c0 2-1 2-5 2-5-1-6 0-4 3 1 1 3 2 8 2l7 1h3c3 0 3 0 2-4l-1-5h-2c-2 0-2-4 0-5v-4l-1-3v3m-70 6a9 9 0 009 4c-2 1-1 2 1 1l2-2 1-2c0-1 0-2-2-1l-1 1-2 1c-3 0-4-2-2-2 1-1 0-1-2-1-3-1-4 0-4 1m6 12l13 1 10 1h2l2-1 17 2c22 1 24 1 25-1h-4l-5-1-18-1h-42m1 11l-2 1-1 1v3c-2 1 0 6 2 6 4 1 4 0 1-2l-2-3c1-1 1 0 1 1h1l1-1 1 2c2 0 1-8 0-8h-2m12 6l-1 2c-1-1-1 0-1 1 0 2 0 3-4 2-3 0-3 0-1 1 3 0 3 1 2 2h-5l-2-2-1 4v9l-1-2-3-2c-3 0-4 2-2 4h-4l5 1 2 1 2 2c2 1 8 0 6-1-3-2-3-5 0-6 6-1 7-1 4-2l-3-2 1-2h2c0-2 4-6 5-5l-1 1v1c1 2 2 1 2-4l-1-6-1 3m241 68l-2 1c-3-2-7 0-6 2l3 2 3 1h10l2-1-4-2-2-1 3-1c3 0 3 0 1-1h-4v1l-2-1a1 1 0 10-2 0m15 6c-5 1-3 2 2 2 2 0 2 0 1 2s-2 2-4 1l-3 1a10 10 0 0010 1l-1-1-1-1h3c2 0 2 0 1-1l-2-1 5 1v4c1 1 0 1-3 1l-3 1h3c4 0 5 2 2 2h4c6 0 7-1 6-3 0-2 0-2 2-2h3l-3-1c-2-1-2-1-1-3l-1-2h-6c-6-1-10-2-14-1m27 10l-1 2h1l4 2c3 3 4 3 4 0 0-2 0-2 1-1l2 1c1-1 1-2-1-3-1-2-1-2-2-1-1 2-1 2-3 1-3-2-3-2-5-1m20 3l2 1h3c1 2 1 2-2 1-7-1-12 4-4 5 4 1 5 1 5-2l1 1c1 1 0 2-2 3h3c2 0 2-1 1-2v-2l2 3c0 2 1 3 2 3l6-1c5-1 7-2 5-3h-1l-2-1-6-4-6-2h-7m-158 11l1 2 1 2 3 4c2 2 4 4 3 5h1c2-2 2-3 0-3l-1-2-1-1-1-1 2-1c1 1 2 1 2-1s-2-3-6-3a2 2 0 01-3-2l-1 1m-21 28l2 7h1c2 2 5 2 4 1l1-2c0-3 2-1 2 1v1c2-2 1-4-2-4-2 0-3-1-3-2 0-2-3-5-4-5l-1 3"
    itemprop="light" fill-rule="evenodd" tabindex="-1" fill="url(#16282281824-posters-1654102118051-vertical-light)"
    fill-opacity="" stroke="url(#16282281824-posters-1654102118051-horizontal-background)" stroke-opacity=""></path>
  <path id="16282281824-posters-1654102118051-regular"
    d="M227 1a245917 245917 0 000 0m250 34l-3 1-5 6-16 12-6 5c-3 3-3 3 1 5 5 3 5 3 5 1-1-1-1-1 0 0 2 2-1 9-5 11l-3 4-2 1c-2 0-2 2 0 2l1 3 1 3c1 0 2 29 1 31l-1 4c0 2-1 3-3 3l-7 1h-5l-1 1-2 3c-1 1-1 1 1 1h2l-2 1c-3 1-1 2 2 2l2 1c0 1-4 2-9 2a4 4 0 00-4 1l-1-5c0-6 0-6-9-3-19 6-25 10-24 16v5h-1c-1-2-2-1-1 2l3 3c3 1 4 27 2 38l-1 9-3 5-2 2-1 2c-6 0-6 0-4 2s3 2 5 0c2-1 2-1 2 2v3l3 1c3 0 3 0 2 1h-3l-2 1-2 2v-1c2-1 2-2 1-5l-1-2-1 3c-2 4-1 7 0 7 3 0 5 5 3 7-3 2-2 4 2 4 3 0 3 0 2 4l-2-1c-1-1-1-1-1 1s1 3 4 4 3 1 1 1l-2 1v1c-8 2-11 6-6 6l2 1 2 1 1 1c0 2-3 5-4 5v3l1 1c1-2 2 3 2 8l-1 6v1l1 2c-2 1-2 4-1 3 1 0 1 3-1 7h1l1 2a7 7 0 00-1 8c-2-1-4 1-4 3v2c-1 1 0 7 1 9l5 5c4 4 4 4 1 6-4 2-7 1-7-4-1-6-2-7-4-7l-2-1 2-1c1 1 2 0 1-3a31 31 0 00-1-10c-1-4-16-1-16 2l-1 2-2 5c0 3-2 6-3 7-2 1-3 3-3 5l-1 4h-19c-15 0-19 0-20 2-2 1-2 1 2 1h5l5 1h5c0 1-2 3-4 3l-2 2h-1c0-2 0-2-1-1h-1l-1-2-1 3c0 2-2 1-2 0h-2c-2 2-2 2-4 0v-3l-2-1c-2 0-2 0-1-2v-4h2l2-1-3-1-4-1c-2-1-2-1 0 1s2 4-1 4l-2 1 1 1c2 0 3 0 3 4l2 7 1-1v2l-3 1c-1-1-2 0-2 1v1a1 1 0 010 2c-2 0-4 4-4 6l-1 3-1 5a88 88 0 01-1 16c0 3 0 3-1-1v-12c0-5 0-7-2-11-4-10-8-4-8 12l-1 10-1 1h1l2 2c1 2 0 2-1 3-2 0-3 2 0 2l1 2 4 1 3 1h3c5-1 4 0-2 2l-6 3c-4 5-13 9-15 6h-1c0 3-2 3-4 1s-3-2-6-1l-4-1 3-1 1-1c0-2-2-1-4 1h-2a5 5 0 00-2-2c4 1 4-1 1-1h-9c0-2-8-3-8-2h-6c1 1 0 1 0 0l-2-1c1-1-3-2-5-1s-5 0-5-2 7-3 9-1l2 1v-15l-2-19-4-6c-2-4-3-4-7 1-3 2-4 4-4 8l-3 4-1 1 1 1c4-2 7 12 6 21l1 5-1 3c-2-1-2-1-1 2v7l1 4 1 1-2 2c-2 1-2 1 0 0h3c2-1 16 4 18 6 3 3 7 5 9 5l10 5c4 3 25 4 22 0-1-1 11 1 15 4h4l2 1 1 1h9l2 1v-1h1l8 2c7 1 14 4 18 7l7 3 7 2c2 2 6 2 11 3l12 1 8 1c2 0 3 0 3 2h4c1-1 0-2-1-2l-1-1 2-1 2 1c0 1 2 1 5-1l2 1c-1 2 0 3 2 1l2-1c1 1-6 7-9 7l-7 2-4 1c0 2-7 5-9 5l-7-4-5-3-4 3c-4 4-6 5-8 2-2-2-3-3-3 0h-1c0-1-16-10-19-10l-1-1c-1-2-5 2-5 5l-1 1c-5 2-8 12-4 12l5 2 6 2c4 0 6 2 5 3-1 2-6 1-9 0l-6-1c-4 1-7 2-3 2l2 1-2 1h-1l-1 3-2-1h-2c-1 2-17 2-19 1l2-1c2 0 3-1 2-3-2-1-1-2 2-2l2-2c0-1-1-2-3-1-2 0-2 0-1-1 2-2 1-3-1-3-2 1-5-1-5-3h2c1-2-3-3-5-2h-4l4-3c4 0 5-2 0-2-3 0-3-2 0-2l7-2h6v1h-2c0 2 3 1 4 0s2-2 3-1v-1c-2-1-2-2-1-2l-2-2c-1-2-3-3-6-3l-3-1h4l4-1c-2-1-10-2-11-1a8 8 0 01-9-3c-2 0-1-2 1-2 1-1 1-1-1-1l-4 1v1l-2 2-3 2-3 1c-3 2-4 2-4 1l2-1 1-1c0-1-4 0-4 2-1 2-8 3-10 1l-2-2h-2c0-1 4-1 9 1l3-2 2-3v-1c-1-2-5 1-4 3h-4l-1-1-1-4a2 2 0 01-1-3l1 1h5c2-2 2-2-1-3-3 0-3 0-1-2l2-1 1-1h-5c-9 1-19 0-20-2-1-1-1-1-1 1s0 2-3 1c-4-2-26-2-27 0l-4 2h-3l-2 1a19 19 0 00-10 2l-1-1v-3c1-2 0-3-2 0h-4c0-2 5-4 10-3h7a2 2 0 013 2l1-3c0-2 0-2-5 0l-3-1c-1-2-1-2 1-2l3-1h2l4 1 4 1h-2l-3 1h11l6 1 6-1h-3c-3 0-3 0-2-1 1-2 0-3-2-1h-1l-1 1h-2l-8-2-5-1 13-1 6-1h-4c-5 0-6-1-3-3 1-1 1-1 0 0l-3-1c-1-1-1-1-1 1 1 2-2 3-3 1h-2l-2 1-1 1a1 1 0 01-2 0c0-2-2-3-3-1h-1c-2-2-4-3-8-1s-4 2-5 1l-5-2-5-1h-5l-4-1-9-1c-7 0-7-1-4-2l10-1h6c-1-2-1-2 3-2l5-1h2c1 2 0 3-3 3h-3l5 1c3 0 5 0 4-1l-1-2c0-2 2-2 5 1l3 3c2 0 1-3-1-5-1-1-1-3 1-4 2 0 5 6 4 7-1 2 0 2 4 2h10l4-1c4-1 4-1 3-2h-4c-2 1-4 1-2-1l2-1c1 1 2-3 1-4l-3 1-2 2h-7l4-1c3 0 4-3 2-5v-1l2 1h1c1-2-1-3-5-2a1 1 0 110-2l1-1v-3l2-1v-1h-6l3-2c1 0 2-1 2-3l1-2 1 2c0 1 1 2 3 2l3-1 3-1 2-3c0-1 0-2-1-1l-1 1-2 2c-3 1-3 0-2-3v-5l-1 2c0 2-1 2-3 2-3 1-3 0-3-3h-2c-2 0-2 0-1-2l1-3 1-2 1-7c0-5 1-6 2-6h1l-1-1h-3c0 2-3 5-4 5v-2l2-5 2-4c2-3 2-5 0-4l-1-4c0-4 1-4 2 0l3 1 2 1h1v-2c0-1 0-3 2-4v-7l-3-3c-3-3-3-3-3-1-1 1 0 2 1 3l1 2-1 1h-1l-1 1-1-2c0-2 0-2-2-2l-2-1-1-2v2c1 5 1 9-1 9l-2 2-2 4c-2 3-3 1 0-3l1-4v-1c2 1 4-1 3-4 0-2-4-3-5-1v8l-4-2h2v-4c-1-2-5-1-5 1l-1 1v-4l-1-2-1 3h-1v-2c1-1 1-2-1-2l-8-1 1-1 2-2h-1c-2 1-12-2-12-4s2-3 2-1a1 1 0 003 0v-1l1 2 7 1 8-2c5 0 4-1-1-1-4 0-6 0-5-1l-1-1-1 2a1 1 0 11-2-1v-1h-11v-2c1-2 3-3 6-1h3c0-2 4-2 5 0h2v-2l2-1 4 1 4 2 1-1v-1c1-1 0-1-1-1a2 2 0 01-3-1h-4c-1-2-7-2-6 0v1c-2 0-3-3-3-5l-1-2-3-1-2-2c-2-1-2-1 2-1s6-2 2-2l-4-1 1-1c2-1 2-1 0-1l-4 2c-2 2-4 1-4-1l-1-3c-5 0-1-7 3-7 3 0 3 0 2-1-2 0-2-1-1-1v-2l1-2c2-1 2-3 2-7 0-7 1-8 3-7v3l-2 1 2 1c1-1 1 0 1 4l-1 4-2 1c0 2 4 1 4-1v-25l-6-1-7-1c-1 0-2 4 0 4l1 15 1 14h-4c-4-1-6 0-4 1l1 1c-3 0-4-2-3-4l1-17-1-15-5-2h-5c0 2-3 5-4 4l1-3v-2c-3-4 0-8 4-6l6 2 13 2 14 2a14 14 0 017 1c3-1 1-2-4-3l-10-2a455 455 0 00-26-5 12 12 0 01-7-2l-1-1c0-2 7-2 40 6l13 2c1-1 1-1-1-1l-14-3c-22-5-35-8-41-8-5 0-5 0-2-1l5-1c2 1 2 0 2-5s0-6-1-5h-11l-3-1h1c2 0 3 0 2-1h15c4 0 7 0 6 1v4l1 3v-3l1-2 1 2c1 2 1 2 1 0l1-3c1-1 7 1 7 3a2 2 0 003 0l10 1a3 3 0 004-1l-11-3-22-4-23-1-12-1h41c1 1 2 0 2-4l1-6v-1l-1 1c0 3-2 0-3-4-2-8-3-11-5-13s-5-2-5 0c1 3-3 3-4 1h2l1-1c-1-1 0-2 1-3 2-1 2-1-1-3l-2-3v-2l-1-2c1-2 0-3-2-1l-3 1v-1c2-1 2-1-2-5l-4-6a7 7 0 00-2-3v1l-1-1-1-1c-1 0-2 1-1 2 0 3-2 5-14 11l-6 3-11 9c-8 4-12 11-10 16v2c-1 0-2 1-2 4s0 4-2 4l-1 1-3 1-4 3c-2 3-2 3-1 5l1 1c-2 1-2 5 0 5h1l-1-1v-1l2 2v1l-1 1v2l-1-1c-1-2-3-1-5 1l-2 2-2-2-1-2-2 2c-2 2-3 3-3 0 0-1-4-1-5 1h-2l-1-1v2l1 3 2 1 1-1c-1-1 0-2 1-1l1 1h7c4 0 6 0 5 1s-17 3-20 2c-2 0-2 0 1 2 1 2 3 3 3 2 2-1 1 2-2 4l-2 3 1 1v1c2 0 1 3-2 4l-3 1h3l3 1-3 1c-2 0-3 2 0 3l1 4 1 3 1 2 1 1c2 0 1 3 0 4h-2l1-1 1-1h-1c-2 0-3 8-3 18a7 7 0 01-2 6l4 1c8 0 27 1 32 3h9l3 1c1 1 2 1 3-1l1-2c-1 0-2 0-1-1l-1-3v-1c1 0 4 3 4 5h2a2 2 0 11-1 3h-1c0 3 0 3 12 3l10 1-10 4-6 3c-8 3-23 7-22 5l4-1c5 0 4-2-2-2-6-1-21 2-25 4l-7 1-7 2h-4l-1-1-2 1-2 2h-2v-2l-1 1-4 1-5-1-4-1H0v21a92 92 0 001 24c-1-1-1 5-1 25 0 25 0 27 2 26v1c-2 1-2 5-2 48v47h31l31-1h1l200 1c163 0 199 0 198-1s0-2 1-3c2-2 2-2 1-3h1l7 1v-2c-1-1-1-1 2-1 2 0 3 0 3-2l2-3c3-2 3-2 2 0h1c1-2 2-2 3-1 1 3 3 5 3 3l1-2 1 2 1-1c2-4 2-5 1-5l2-1c3 0 3-1 1-1h-4l-6 2-5 2-3-1 2-1c2 0 2 0 0-1-3-1-2-2 3-2 4 0 5-1 2-1l-3-1 3-2c2 0 2-1-1-2-1-1-2 0-3 1l-2 1c-2 0-2 0 1-2 6-6 6-6 5-8v-1l4-2 1 1-2 2h-2l1 1v2l1 1 1 1-2 1c-3 0-2 1 2 2 2 0 2-1 2-2-1-1 0-2 1-3 5-2 6-2 7 0s1 2-1 1l-2 1c1 2 10 3 10 0l2-1c3 2 6 0 4-2-1-1-2-2-3-1v-2c2-2 2-2 1-3s0-1 1-1c3 1 4 1 1 3-2 1 0 3 3 2l1 1c0 1 1 2 3 2l2-2 1-4v3c0 4 1 5 3 3h1l2 1c2 0 2 0 1 2-1 1-2 2-3 1l-2 1c0 2-5 4-6 2l-2-1h-1l-2-2c-2-1-3 0-1 1v2c-1 2 2 3 6 3 2 0 3 0 3 2h1c0-2 1-2 1-1a2 2 0 102-2c-1-1 0-1 2-1 8 1 10 0 10-2l1-3c2 0 2 0 1 3v2l5-1 2-1-2-2-2-1-2-2c-1-1-1-1 1-1l3-2 5-1 2-1c0-1-5-2-8-1l-3-1h2l2-1h2v-1l-2-2h-5l-4-1c-2-2-5 0-5 3s-2 2-3-3c-2-3-5-4-5-1l-1 1-1-1c0-2-2-2-4-1h-2l-3-2v-1c4-2 1-7-3-5h-3l-2-1c-2 1-3 0-5-2l-5-3c-2 0-4-2-6-4l-7-4a338 338 0 00-56-6l1-2c1-3 1-3-1-3-3 0-1-2 2-2s6-1 2-1l-3-1c-2-1 3-1 6 1 2 0 2 0 1-1l1-2-2-1-3-1h3c4 0 4 0 3 2l1 2 1-2 1-2c1-1 0-1-2-1h-3l3-1h8c2 0 3 0 2-1v-1h3l1 1 1-1 1-1 5 1v-1c-1-2-1-2 1-2l3 1 1 1c2-1 0-3-2-3-1 0-2 0-1-1l-1-1-4 1c-2 0-2 0-1 1s1 1-1 1c-1 0-2 0-1-3 0-3 3-4 3-1h1v-1h2v-1l-4-1-4-1-2-1v-2c3-2 4-1 4 1-1 1-1 2 3 1 5 0 6-1 3-2h-5l1-2v-1l3-1h1c-1-2-1-2 1-1l3-1-3-1-1-2v-2l-1-2h1l2 1c2-1 3 0 1 2-1 1-1 1 1 2h8c0-1-1-2-3-2-2-1-2-1-1-2 3-2 9 0 9 2l3 1h1c0 2 2 1 4-1s11-2 12 0l6 1 1-3c1-1 1-1-1-1v-2c2-2 3-4 1-4l-2-2h-2l-1 1-2 2c-2 1-4 1-4-2l-2-1c-3 0-3 1 0 3l2 2-3 1-4 1c-2 0-1-5 1-5h-8v-5c1-7-1-24-3-29-2-3-2-4-1-6v-1l-2-1 2-1c3 1 2-2-1-3l-3-1 2-1c5 0 5-6-1-5-3 0-4-1-2-2s-2-4-5-4l-3 1 2 1 3 1h-2c-3 0-3 0-3 7l-2 31 1 1v9l-1 5 1 2c2 2 2 3 1 5-2 3-5 0-5-5v-4l-1 4-1 4 1 2 3 1h-3c-2 0-2-1-2-2 1-7 1-9-1-8-2 0-2 0 0-2s2-10-1-13v-1l1-1c-1-2 1-4 3-3v-1c-3-2-2-4 1-3 2 0 2 0 1-2s-1-2-2-1h-2l-2 1v2c1 0 1 3-1 3-1 1-1 0-1-5 1-4 1-5-1-5l-1-1c0-2 2-1 4 1 3 3 3 3 3-2l-1-4-2-2c-1-3-2-3-4-2-2 0-3 0-2-1v-1h1c3 0 3-2 1-5v-2h1c1-2 2 0 2 4l1 4h2l1-5c0-5-1-6-2-6v-11l-2-4c-2-1-2-2-1-8a7 7 0 00-2-7c0-2 2-1 4 4l2 5v-7l1 2 3 3 1 1c-1 3 1 6 3 6l9-1c5 0 6 0 2-1l-6-2-2-2c-4 1-5 0-6-3l-2-4-1-1-1-2-2-1h-7l-1 1h-4l-3 1 2-3 2-4 1-3 1 1h1v-3l1-1 2-2c0-2 2-3 2-1h1l3-3c4-1 5-1 2-1s-3-1-2-7l2-5v4l-1 5h5c3-2 4-5 2-5l-2-1h1l3-1 2-2 1-1 3-1c2 0 3 0 3-2l2-2 1-1 2-1 4-1c0-2 13-7 20-8 14-2 18-1 18 1-1 2 4 4 5 2l2-1c2 1 2 2-1 6l-3 6c0 2 0 2 1 0 2-6 8-10 8-5l2 1 1 1c0 1 4 2 5 1 4-3 8 8 7 16v4l1 7 1 6v-15l-1-7-2-11c-3-5-1-8 2-5s4 7 4 16l1 8c2 0 0-19-2-23-2-5-2-6 2-6 1 1 2 2 2 22l1 22v-23l1-23c2 0 4 2 4 5-1 3 0 3 2 3l3-1 1-1c1 1 0 2-1 3a2 2 0 101 3l4-1a5 5 0 005-2c2 0 6-5 6-6s-1-1-2 1h-4v-2c2 0 3-3 2-4l2-1 3-1h-10c-2 0-2 0-3 2 0 2-2 3-2 1l-1 2c-1 2-1 2-1-1v-5l2-1 2-1-3-1h-3l-6-2-7-1-6-1c-6 0-10-1-7-2h-3l-4-1-4-1h-3l3 3 4 3h-4l-3-1c0-1-2-1-9 1-2 0-2 0-2-2 1-2 1-3-1-3h5c4 0 5 0 3-1a12 12 0 00-11 0l-1 1 2 1c2 0 3 2 1 3l-2-1-2-1-2-1v-1l1-1-2-2c-1 0-2 0-1 1l-1 1v1c1 1 0 1-3 1-4 0-5 0-3-1s3-3 2-5a177 177 0 00-26 0l-19-1c-23 1-15 0 16-2h49l-11-1-26-3h19c16 0 17 0 9-1l-37-1h-23l12-1 7-1c-1-1 2-4 6-6a23 23 0 0116 1l-1 2c-3 3-3 3-1 3l2-1 5-3c4-2 5-3 4-4v-1l2 1 8 1 11 1 1 2-4 2c-3 4 0 3 6 0 3-2 5-3 8-3 7 0 9 0 8 3 0 4 3 4 6 1 2-1 4-2 9-2 6 0 8 1 6 3-1 1-1 1 1 1h1v2l2-1c1-2 6-2 9-1 2 1 2 1 1 3h1l1-2v-6l-1-5-4-1v1c2 1 2 3-1 3-2 0-2 0-1 1v2c-3 2-3 1-3-4v-5l4-1c2 0 2-1 1-1l-6-1c-4-1-10 0-8 2l-2 2c-1 1-1 1-1-1l-1-1-1 1-2 3c-1 1-1 1-1-1v-4c1-1 3-2 4-1l1-1c0-1-17-3-19-2v2l-2 1c-2 0-3-1-3-2 0-2-1-2-8-2s-17-1-14-2h3v-1l1-2 2 2a2 2 0 104-3l-1 1-1 1v-1l-2-3h2l4-1 3 1c2 2 4 2 2-1-2-2-3-27-1-28l2-2 1 14 1 16v-16l1-17c0-2 0-2-2-2-3 0-4-3-1-3l16-1 1 12c0 7 0 10 1 9v1l-1 9c0 7-1 8-4 8l-3 2 1 1c1-1 2 0 3 1l3 2-1-2-1-2 3 2c2 2 2 2 2 0h2c1 1 2 2 4 1l5-1c2 1 2 0 2-2l-1-3v-17c0-16 0-17 2-17 3 0 3 2 3 6 0 3 0 4 2 5l2 4c1 2 4 2 5-1l-1-3-1 2c0 2 0 2-1 1-2-3-1-4 1-4s3-1 3-2c1-2 1-2-1-2-1 0-2 0-1-1 0-1-1-2-3-2-2-1-2-1 0-2l2-1-4-1h-3l-1-3c-4-2-2-7 1-5h2a6 6 0 00-8-1c0 2-4 4-6 4-2-2-1-3 2-3 2 0 2 0 1-2 0-2 0-3 3-2h3a357 357 0 00-51-9l2 1c0 1 1 2 2 1v2c-1 1-2 2-3 1l-1 1-2 3-1 25-1 23-1 1c1 2-7 1-8 0v-6l1-25v-21h4c5 0 5-2 0-2a4 4 0 01-4-4c-1-1 0-1 2-1 3 0 3-1 3-3 0-6-1-6-4-7l-3-1h-18l1-19c0-21 0-20 3-20 5 1 6 7 6 22 0 11 0 13 1 12s2-4 2-9c0-17 0-17 2-17l3-3c1-3 1-3-1-3l-2-1 3-1c3 0 4-2 1-2-2-1-2-1 1-1l6-2 4-2-1 1c-2 1-1 2 2 2l1-3c-1-2 1-3 1 0 1 1 0 2-1 4-2 2-2 2-1 3v2l1 1c1 1 2 11 1 22 0 6-1 6-3 6l-2 2c-1 1 0 2 1 1l1 1v1l3 1c2 0 2-1 3-6V99c0-9 0-9 3-9h1l-2-1c-4 0-2-2 2-2l4-1h-5l-4-1 3-1h5c1-1 0-1-2-1l-3-1 4-1 3-1-3-1-3-3c-1-2-1-2-2-1h-14l-7-1h-3l-5-1 2 1c2 1 1 1-1 1-3 0-4 0-3 1v1c-3 0-5-2-4-4l-1-4a2 2 0 113 0c0 1 0 2 2 1l1-3c0-2 0-2 4-2 3 0 3 0 2 1-2 1-2 1 2 1l6-2 2-2v2l-1 2 1 1c3 1 6 0 4-1v-1l2-1h4c2 1 2 1 0 1s-2 0-1 1 1 1-1 1c-2 1-2 1 1 1l4-2c0-1 1-3 3-3 2-1 2-1 1-2-2 0-4-3-2-3l1 1 2 1c2 0 3-2 0-2v-1c3 0 2-2-1-3l-5-1-30-3-4-1c-1-1 1-7 2-7l1-1c0-3 3-2 6 1l2 3-2 1 2 1 3 1 4 1 7 1 6 1 5 1c4 2 2 0-4-4l-6-5a38 38 0 00-11-7c-3-2-5-3-10-2m-19 50l-2 2h-1l-1 1c2 2 0 8-2 8-1-1-2 0-2 2s1 3 3 0h1l-3 5-1 5-1 14c-1 1-1 2 1 1 17-3 17-3 18-6 1-5 0-30-1-32s-7-3-9 0m5 57a164 164 0 00-25 3h-2l2 1h4c1-1 8 0 8 1l2 1c1-1 1 0 1 1l1 3v1l2 1 2-1 1-2v-2l-2 1c0 3-2 0-2-2 0-4 1-5 3-2h26l-4-6-17 2m20 22a9 9 0 002 10l2-12c0-3-1-5-2-5-2 0-2 1-2 7m-49-5l-1 10-1 13-1 6v-10c0-13 0-15-4-11-2 2-3 3-3 14v12c0 1-1 2-3 2l-4 1c-1 1-1 1-1-1 2-5 2-20 1-20s-2 4-2 11v7l-1-8-1-9-4 3c0 2 2 1 2-1 1-1 1 2 1 7l1 9c2 1 1 2-2 2-4 1-7 3-6 4l4-1 9-2c9 0 9-1 10-2h13l-1-5-1-18c0-13-1-14-3-14l-2 1m24 0c-1 2 0 24 1 23 1-2 1-2 1 0l-1 3v2a1 1 0 000 3c1 0 3-7 2-9l2-2c3-1 4-3 1-3-2 0-2 0-1 1v1l-3-1v-2l1-2 1-2 1-2v-10l-3-1-2 1m85 3l-1 17c0 13 0 17 2 13 2-2 1-32 0-33l-1 3m-71 1c-1 3-1 6 1 6v-1c-1-2-1-3 4-3 2 0 3 0 2 1-4 1-5 2-1 2 1 0 2 0 1 1l-1 1c0 1-1 2-3 1h-3l3 1c6 2 6 1 6-4s-1-6-3-5h-6m42 5c-1 2 0 19 1 21 1 1 1-3 1-11 0-12 0-13-2-10m-379 12l1 2v2-1l-1-1c-2 0 0 2 2 3l1 1h5c1 2 1 2-2 3h-2l3 1a597 597 0 017 2l1 1c0 2 6 7 6 5l-1-3-2-2-1-1-2-1c0-3-15-15-15-11m-27 12c-4 1-5 3-2 3l2 1h5c2-1 2-1 4 1l2 2 3 2c1 2 1 2-1 2l-2-1-2-2c-4 1-4 2 0 3l2 2c-1 1 1 2 6 2 3 0 3 0 3-2v-2l1 1c0 2 0 3 2 3l1-1c-1-1 0-1 3-1v1c-2 1-2 1 0 1l4-1-1-1-2-5c0-3-2-6-3-8l-3-2-5 1-4 1c1-2-8-2-13 0m339 1c0 2 22 2 27 0h-27m31 0c-1 1-1 1 2 1l3 1-2 1-2 1 7 1c5 0 6 0 4-1l-3-2c1-1-6-3-9-2m-4 2l-11 1c-17 0-18 2-1 2h14c1 0 0-4-2-4v1m-345 59l-1 2v24l-5 1-10 1-6 2 1 1c1-1 2 0 3 1l3 2 3 2c2 3 6 3 7 0 0-2 1-3 2-2a9 9 0 017 3l1-1c-1-1 0-2 1-2 1-1 1-1 1 1-1 1-1 1 0 0v-3c-2-1-2-1 1-1l4-1-1-2c-3 0-3-1-2-12 1-13 0-16-4-16-2 0-2 0-1 1 2 1 2 1 0 1-1 1-2 0-2-1s-2-3-2-1m-89 3l-2 4-1 3c-2 0-1 21 0 21 7-1 8 0 6 1-2 2 0 2 3 0 2-1 2-2 2-14 0-13-1-17-5-17l-3 2m133-1l1 7 1 5a1 1 0 010 3c-1-1-2 1-2 4 0 2 0 2 1 0s1-2 1 2l1 4 1-11c0-11 0-12 2-12l-4-2h-2m-119 6l-1 9c0 10-1 12-3 11h-1l1 2h3c4 0 5-4 5-13l-1-10c0-3-3-2-3 1m340 0c-4 6-6 17-4 16l3-1v-4l2-8c3-6 2-8-1-3m-330 1l-1 14v10c-1 2 3 2 5 1 3-2 4-2 4-1l1 2v-2l-1-2c-1-1-2-3-2-11 0-13-3-18-6-11m16-2l-2 3-1 2c-1 1-2 20-1 21l1-2c0-1 0-2 1-1v1l1 1h2c3 1 4-1 5-10 0-11-2-18-6-15m492 3l-1 10 1 10c0 2 0 3 2 3s2 0 2-5l-1-13c0-8-2-11-3-5m-171 1c-3 3-5 9-5 15v22c1 1 1 0 1-2l3-30c1-3 3-4 3-1h1v-6l-3 2m-302 4v7l1 6c0 2 5 2 5 0h-2l-1-11c0-4-2-5-3-2m110 2c-2 2-2 4-2 10l1 8h-6l-6-1 6 1c8 2 8 2 8 0v-4l-1-4c0-2 0-3 1-2 0 1 1 1 2-1 2-2 2-3-2-3-3 1-3 0 0-2 2-2 3-4 1-4 0-1-2 0-2 2m8 8v4l-1 1a2 2 0 00-2 3c1 0 2 1 2 3a3 3 0 005 0c-2 0-4-3-3-4h5l-2-2c-2-1-3-2-2-4 0-4-1-4-2-1m385 1h-5a4 4 0 00-6 3l-1-2h-2l-3 1h-3c-2 1-2 1-2 10l2 10 1 4c0 4 1 5 3 5l1 1-2 1c-1 1 0 1 0 0a1 1 0 111 2l-2 1h1l2 1h1a2 2 0 113 0c0 2-1 3-2 2-2 0-2 0-1 2l-1 1c-1-1-1 1-1 5 0 5 1 6 3 5l2 1 3 1 3 2h-5l-2-1h-3c1 2 0 4-2 4l-1-2c1-2-1-2-4 1h-3c-1-2-1-4 1-3l5-1 3-1-3-3c-3-2-4-3-1-3 1 1 1 1 0 0l-1-2c0-2-5-3-6-2l2 1c2 0 3 1 3 2h-3c-1-1-1-1-2 1l1 2c2 0 1 2-1 1l-2-1h-2l-1-1h-2l-2-1-7-2h-3c-1 2-2 1-1-1l2-1h2c0-2-4-2-6 0h-1c1-2-1-3-1-1h-2l-4-1h-21c3 1 3 2 2 2h-2c-2-2-11-1-11 1l-2 5-2 4c1 1 0 4-1 5-1 3-1 3 1 4 3 2 7 4 10 4 2 0 2 0 2 14a44 44 0 001 15c-2 1-2 5 0 5l3 1c0 2-1 2-2 2-2 0-3 0-2 1l-1 2h-1c0-2-4-3-7-1h-2c0-3-2-2-4 0-1 1 0 2 3 2l4-1 3 1a4 4 0 006 1h5c2 0 4 1 5 3l4 2c1 0 1-1-1-2-3-2-4-4-2-4 3 0 1-3-1-3-2-1-2-1-1-2 2-1 5 2 5 4-1 3 0 5 3 5 4 0 4 2 0 2-2 1-3 1-2 2 0 1-1 2-4 1h-3l3 1 3 2h-4c-3 0-4-1-4-3-2-3-2-3-2 1 0 1 0 2 2 3l4 2h1c0-3 3-4 9-3l5-1 2-1c2 0 2-1 2-3l-1-4-1 3c1 1 0 2-1 3h-2l-1-2a1 1 0 010-3h2l-2-1c-1 1-2 0-3-1h-3v-1l1-2c6 0 10 0 8-1-2 0-2-1-2-2l-2-2-2-2c0-3 3-4 5-2 2 1 2 1 2-1v-2c2-1 3-12 1-17-2-6-2-7 1-8h3v27c-2 3 2 5 7 5 6 0 6-1-1-1-4-1-5-1-4-3v-18l1-17c1-1 10 1 10 2h2v1c-1 2 0 3 3 1 3-1 5 0 3 1-1 1-1 1 2 1l6-1c2 0 2-1 2-2l1-2 1-1 1-2 3-1 3-2v1l-1 2-2 1c-2 0-4 7-3 11l1 19c1 15 2 20 5 20 2-1 8 2 9 5l3 3a37 37 0 0114 5l1-1c0-2 2-2 4-1l3 2 13 1 13 2 4 1c0-1 1-1 0 0l2 1h9c-2-1-3-2-2-3 0-1 0-2-2-1-1 0-2 0-1-1 0-2-3-2-5-1h-6l2-1h-3c-6 0-10-2-7-4l1-2-2 1-4-1c-1-1-1-1-1 1l-1 2c-1 0-1 1 1 1h-1l-4-1-2-1c-3 0-3-1 0-3s1-3-4-3l-3-1-2-1-2-1 1-1 1 1h4l6 1h1v-3a1 1 0 10-1 0l-2 1c-2 0-2 0-1-1v-2a8 8 0 015-4c1 0 2 0 1-2h-1l-3 2-4 2-3 2 1-2v-3l1-1c1 1 4 0 4-2 1-1 1-1 0 0-2 1-5 1-5-1l1-1 3-2h1c0 2 1 2 9 3h2l-1-1h-5c-3-1-3-1-3-6 1-5 0-6-1-4-1 1-4 0-6-2h-1l-1 1v-1l-1-1-2-1c0-2 5-2 9 1h3l6-1h4l-2 3c-2 3-4 9-2 9l1-3c2-8 8-12 15-9l3 1 1 1 1 9 1 12 1 5h-3c-2-1-3-2-3-4l-1-2c-4 3 6 10 10 8l2 1 4 1c4 0 4-2 0-3l-3-1 2-1 6 2h5l-5-1-4-2v-3a2 2 0 10-3 2v1c-1-1-2 0-2 1-1 3-2 3-4 0-1-2-1-2 1-2v-3l-1-1-1-2-1-8c-1-11 0-12 5-11 3 0 4-1 3-3l1-1h3l-4-1c-5 0-12-1-11-2l-6-1c-6 0-7 1-5 2 1 2 1 2-2 2l-4-1c-1-2 5-5 7-4h3c2-1-3-2-13-3-11 0-16-3-6-2l1-1-6-1h-5l-3-2c-2 0-2-1-1-1 2 1 2 0 2-1l1-2c1-1 1-1 0 0h-6l1-1 1-10c0-5 0-6 2-5l1-2v-13l1-1 2 1c0 2 2 2 4 1l3-1 6-1 2-2-2-2c-5-2-7-2-5 0 1 1 1 1-1 1l-3-1-2-2c-1 0-2 1-1 2 0 1-1 1-4-1h-6l-9 1h-5l4-1 4-1 7-1c4 0 6 0 5-1l-2-1-3-1-3-1c0-2 16-1 16 0h1l2-1c4 0-5-2-11-2a13 13 0 01-7-1v1l-2 1-1-2c0-1 2-2 7-2 9-1 10-2 2-2l-14-1 4-1c3 0 4-1 2-3h-1l-3 1c-2 0-2 0-1-1l2-1c-1-2-2-1-4 1l-1 1-1-2 2-2v-1l-2 1m-590 5c-2 2-3 2-7 1H0v24c2 0 4-1 3-2v-1l2 2c1 2 3 1 3-1s0-2 4 0h4l-5-4-1-2c1-4 8-3 10 1 0 2 2 2 5 2l2 1h2l1 1c-1 1 0 2 3 2l5 1 2 1-1-3c-1-2 2-4 5-2h3c1-1 1-1-1-1h-2l2-1c2-1 2-1-1-1h-4a3 3 0 00-2 0c2 1 1 2-2 2-2 1-3 1-5-1-4-3-4-4-1-3l2-1-3-1h-3l-3-1c-3 0-9-3-9-5 0-1 1-2 2-1v-3l-1-1-1-2c1-3-1-3-3-1m184 12c-2 2-3 3-1 3s4 3 3 4l1 1c2 0 2-2 1-4l-1-1v-3h1v2l3 2c2 0 3 1 3 2-1 1 3 3 4 1v-2l-2-4-3-1-5-1c-1-1-1-1-4 1m86 12l12 5 6 2c2 1 18 1 17-1l2-1c4-1-2-4-7-4l-4-1-5-1c-3 0-4 0-3 1l1 2-2-1c-2-2-8-3-6-1 0 1-4 1-9-1l-2 1m192 2c3 0 2 2 0 2-1 1-2 1-1 2 0 2 0 2-2 2l-3 1c0 2 6 0 8-2h3c1 1 2 1 3-1 1-1 1-1-1-1l-3-1 5-1c7 0 4-1-4-1h-5m-225 9l2 1h-9c-3-1-4 1-1 2l3 1h4c1 0 3 0 4 2h4l3-1h-3c-2-1-3-4-1-4l1 2 2 1c2 0 2 0 1-1l-2-2a12 12 0 00-8-1m-115 4c-1 1 0 1 1 1l3 1c0 2 7 2 9 1h10l2-1h3c0-1 1-1-12-1l-11-1h-5m75 2v3l-1 1c-1 1-1 1 1 1h3l-2 1-2 1h2c2 0 2 0 1 2l-1 5c-1 3-1 3 2 2 3 0 8-4 10-8h2c2 0 3 2 1 2l-1 3c0 4 0 4 2 3l3-3 2-1c1 1 1 0 2-1 0-2 1-2 2-2l3 1v12l2-2 1-2c0 2 3-2 3-3l2-3 1-3h-6l-15-2c-2 0-2 0 0-2v-2l-10-1h-1l3 2v1h-4l-1-2c-2 0-3-3-1-3 1-1 1-1-1-1-2-1-2 0-2 1m343 2c1 2 0 2-2 3-5 1-5 1 5 1 8 0 10 0 7-1-2-1-2-2-1-2v-1l-1 1-4-1h-4m-405 0l-10 2v2c0 2 0 2 2 1 3-3 7-3 6 0 0 2 0 2 2 0s3-2 9-2l6-1-7-1h-7l-1-1m187 5l-6 5h4l7 1h3l2-1 1-1c-1-1 0-1 1-1v-2h-4l-5-1h-3m144 3l-2 2v4c2 3 3 3 5 2 1-1 0-9-3-9v1m-199 1c2 0 1 2-1 2-4 0-6 2-6 6 0 3 3 7 3 4l2-3 2-2 1-2c3-1 1-6-1-6v1m-26 2c-2 1-3 2-2 5 0 3 4 9 4 6l-1-1c-2 0-1-2 1-4l2-3 2-1 1-2c0-2-4-2-7 0m14-1l-5 2c-1 1-2 8 0 8 1 1 6-3 7-5l2-3c1-2 1-3-1-3l-3 1m28 2l-1 3v7l5-6 3-2 3-1h-4l-4-2c-1-1-2-1-2 1m-10 1c-3 2-2 8 0 8a7 7 0 005-6l1-1c1-2-4-3-6-1m-58 3l3 1c2 0 2 1 2 14l1 14v-29l-4-1c-3 0-3 0-2 1m307 1l-5 3c-1 2-3 3-3 2l-2 2v5c-3 4 0 4 3-1 5-7 8-8 13-3l4 3 1 1c0 2 2 3 3 2v-1l-2-1c2-4-8-13-12-12m110 1l4 2 5 2c1 2 3 2 2 0l2-1 2-1 1-1 1 2 1 2v-3c-1-2-2-3-3-2h-13a1 1 0 10-2 0m-365 2l-1 12c0 13 0 15-1 5-2-12-5-18-9-15-2 2-6 12-6 14 1 7 0 22-2 21l-1 3c0 3 3 5 3 2l2-1 3-1 3-1c8 2 15 2 15 1l-2-1c-3 0-3-2-1-5l-2 1-3 1v-4l2-7 1-4 1-2h1l1-3c1-1 1-1-2-1l-1-8c0-7 0-9-1-7m-35 5c-3 4-3 5-4 20v16h-3l-2 1h3l3 1h9l5-2c2 0 3-1 3-2 0-2-2-3-2-1-1 1-1-2-1-6a14 14 0 013-10h-1c-1 0-2-1-2-6 0-6-3-15-6-16l-5 5m335 1c0 8-2 13-3 8-1-3-3-2-3 1l2 3 2 2 1 5v7c-1 1 0 2 2 4 3 2 3 2 4 0l2-2-1-15c-1-17-1-17-4-17-2 0-2 1-2 4m42-2c1 1 1 2-1 2-1 1 5 1 8 1l2 1 5 1 4-1-3-1-3-2-1-1h-9v-1l-1-1-1 2m-156 6l1 4 1 7 2 5c2 2 1-8-1-13-1-4-2-5-3-3m13 12v2l-1 4c-1 2 2 3 4 1 1-2 1-2-1-1-3 0-3-1 0-2h6v-1l-2-2c0-2-5-3-6-1m167 3c-1 1-2 4-2 10v8l4-1h5c2 2 1-10-1-13l-2-4c-1-2-2-2-4 0m-159 6l1 3v2c0 2 0 2 1 1 2-2 2-2 4-1h2c-1-1 1-1 5-1a9 9 0 006-1c2 0 1-1 0-3l-3-4v1l1 3c0 2-4 3-6 1h-1l-4 2c-3 0-4-1-3-5l-1-1c-1-1-2 0-2 3m190 4c-1 3 0 4 5 3l6 1 4 1 5 2h2c3-2 16 1 16 4l7 4-1-3-4-3c-1 1-1 1 0 0 1-2-2-3-6-3l-3-1h5c7 0 7 0 7 2a2 2 0 004-1c0-1-1-2-2-1l-4-1-6-2-2-1-2-1h-11l1 1 1 1h-15l-3-1 4-1c5 0 4-1-3-1-4-1-5-1-5 1m82 0c-4 2-4 2-3 0h-3l-1 2c-1 1-1 1 1 1h2v1c-3 0-3 2 0 2a10 10 0 016 2c2-2 6-2 6 0 1 1 1 0 1-1 0-3 0-3-2-3-4 0-4-2-1-2 2-1 2-1 0-1-3 0-3 0-3 3 1 2-2 3-4 1s3-5 8-5l6-1c1-2-9-1-13 1m-446 1c1 2 1 2-1 1l-3 1c-1 1 0 2 2 1l3 1-1 1a4 4 0 00-5 2l10-3h5v-3c-2-2-5-3-5-1l3 1 2 2-4-1c-3-2-3-2-3 0-1 1-1 1-1-1l-2-2v1m492 2v3l-1 2v2c2 1 1 3-1 4s-2 1 0 1c2 1 2 0 3-1l2-2 1-1-1-1a2 2 0 011-4v-3c-1-1-1 0-1 1h-1l-1-2-1 1m91 2a26 26 0 00-7 4v-1l-1-1-2 1c-1 1-2 2-5 2l-4-1c1-1-1-1-4-1l-7 2c-3 2-11 3-12 2h-18l-1-1-1 1c0 1-1 2-4 2-14 0-22 0-22 2v1l4 1 4 1 5 2c2 1 6 3 10 3l11 4 8 2c10 1 8 5-4 8-4 1-4 0-7 2l-6 1-3 1-11 3a67 67 0 00-10 2h11l7-1-1-2 2 1 4 1c2 0 3 1 1 3v-1l-1-1-4 1c-2 0-2 0-1 1l-3 1-6-1c-1-2-6 1-6 3s-2 2-3 1h-4l-5 1-5 1-6 2-4 1-24 4a119 119 0 00-17 4c1-1 0-1-1-1a162 162 0 00-32 9l-8 1a33 33 0 01-14 4l-2 1-3 1-9 3c-9 3-10 5-2 6l6 1h-6l-9 1-5 1-2 1-3 2h-2l-2-1-1 1h-11c-1-1-14 1-16 2l-8 2h-6v-5l-2-7v-6l2-7c0-2 1-4 4-6l5-6 2-2-1 3c-2 3-3 9-1 8 1 0 2 2 2 7 0 8 3 17 6 17l1-3c0-3 4-4 6-1 1 1 4 2 4 0s-5-6-6-5-1 1-1-1l-2-5-2-2v3c0 5-2-1-2-6s2-12 2-8c0 0 1 2 3 2l3 4c0 2 1 3 3 1l-1-1v-1l1-4v-6l-2-7-2-6-2-1c-2 1-3 0-2-1l-1-2-1-2h2c0 2 1 2 2 1s-1-5-3-6v3l-2-1c0-2-1-2-3-1-2 2-1 9 1 8l-1 2-3 4-3 7-4 7c-1 2-3 2-3-1s-2-9-4-9c0 0-2-1-2-3-2-3-4-5-6-5l-2-2c-1-1-2-3-5-4l-4-3c0-1-4-2-5-1l-3 1h-2l-1 4-3 4-3 3c-2 1-3 3-4 6-3 8-4 9-12 8-7 0-8 0-11 2-8 6-14 8-13 5v-1l-2 2c0 3 5 3 10 0 5-2 6-2 3 1-3 4-3 4 4 4 9-1 16 3 22 14 4 9 2 14-8 16-5 0-11 2-16 4-2 2-4 3-15 7-10 4-12 5-12 7 0 1 2 1 5-1l5-1 5-2 10-3 10-2 6-2 5-2 3-1-4 1c-3 0-4 0-3-1l7-1 3 1 6-2 3-1c1-1 1-1-3-1-1 0-2-2-2-5v-4l3 3c2 2 6 4 6 2a7 7 0 00-5-6l-1-3c-3-2-1-6 3-7l2-2 2-1 5-1c3-1 3-1 5 2 2 5 1 8-5 14l-4 4h3c3 0 5-2 9-8l2-3c1 0 2-3 1-4v-3c3-2 9 4 10 11 1 3-2 5-9 7l-5 2h-2a1 1 0 00-3 0l1 1v1h-1c-1-2-9-3-9-1l4 1h4l-20 7-30 12c-1 1 75 1 186 1h188v-19l-1-20-2-1h-1l-4-1c-2-2-7-3-9-1l-2 2h7l4 1 3 1c1 1 0 2-2 1h-4l-2-1-1-1h-3c-1 1-7-1-8-3a30 30 0 00-17-1l-2 1-5 1h-17l-3 1-2-1v2l-3-2c-1-1-2-2-3-1l-2-1c0-2 0-2-3 0h-3l2-1c1 0 1-1-1-3s-1-4 2-2h3l1 2c0 2 1 3 2 3l1-1 1-1v1c-1 2 5 3 11 2l13-1c6 1 9-1 6-3v-1l3 1c0 1 4 1 7-1l2 1 1 1 2 1 3 1c3 0 4-2 2-2v-1h3c2 1 5-1 5-3l1-1 1 3c-1 1 0 2 1 2v-2c-1-1-1-1 1-1 4 2 5 3 5 5s0 2 4 2h3v-25l-1-26-1 2c0 2-2 1-3-1l-1-1-1-2c1-2 1-2-1-1-2 0-2 0 0-2l5-1 3 1v-21l-3-1-2-1 3-1c2-1 2-1 1-2l-2-1-6 2-7 3 1-1 3-2 1-1c2 0 6-3 4-3l-6 3m-212 2l6 6c0 1 9 3 10 2 1 0-1-2-3-2l-3-1-1-1-1-1h-2l-1-1 4-1h2l-7-1h-4m-330 1l1 1c1-1 2 0 3 2l3 2c2 0 2 0 1 1h-4c-1 1-1 2 1 2l3 2v-1l2-1c2 1 3 0 3-1h3c3 0 6-2 5-4l-2 1-3-1-4-1v-1h-6l-1-1-2-1-3 1m45 7l3 1 2 2 2 1h5l1 3c0 2 0 2-1 1h-1l2 2v1c-2 0-2 1-1 3 1 1 0 2-1 2-2 1-2 1-1 2l3-1 3-2 2-2 1-1h3c0 2 0 2 3 1l1-2-1-1-4-3c-3-3-4-4-7-4l-4-1-4-2h-6m332 4l-1 3v-2l-3 2c-5 4-8 5-12 5s-7 3-6 5l-1 1-1-1a2 2 0 00-3-2c1 2 0 4-2 4l-4 2c-2 2-2 2 2 0l6-1v1l-3 2-5 1-4 1c1 2 4 3 6 2l3-2 2-1h2c0-2 4-4 6-2l1-1c-1-2-1-2 1-2l2 1 1 2 9-1h7l3 1v-4l2-1 3 1 1 1 3 1 3-1-3-1-7-3c-3-1-4-1-10 1-2 0-2 0-1-1l1-1a9 9 0 006-2v-1l-2-1-2-1 7-1c2 0 3 0 1-1l-4-3c-3-3-4-3-4 0M63 419l1 1-1 1h-2l-1-1c0 2-5 2-7 1-1-2-2-1-1 1h-6c-1-1-2 0-3 2-2 2-2 3 0 3 2 1 2 1 1-1-1-1-1-1 1-1 3 2 5 1 7-1 1-2 1-2 2-1h3v3c-1-1-1 0-1 1s0 2 1 1l1 1-4 1c-3 0-3 0-2-1a1 1 0 100-2l-4 1-2 1-1 1c-2 0-2 0-1 1 1 2 15 1 15-1l6-2 6-2 3-1c4 0 17-4 18-6h-1l-5 2-5 1c-4 2-7 2-6 0 0-3-1-2-3 0-1 2-3 3-6 3-4 1-7 0-5-1h7c3 0 4-3 2-5-2-1-2-1-3 1 0 3-2 3-2 0l-2-2v1m810 13v1a25 25 0 013 1l-1 2c-1 1-2 2-3 1l-1 1h4c4 0 4 0 3 2l-1 1 3-1c2 0 1-2-1-3l-2-1h2l3 2c0 2 0 2 1 1l2-1c2 1 5 0 5-1l-1-1h-4l-3-1h-3v-3h-6m-231 1l-1 2v3c-1 1-2 2-1 3v4l1 3v2c-1 1-2 3-2 11l-2 11 1 2 1-1v-3c0-4 2-4 2 0 0 3 1 4 2 4 2 1 3 1 3-1-1-1 0-3 1-4l1-5v-2l1 1 1 1-1-3c-1-2 0-10 2-10l1-1c1-9-2-16-4-13h-1v-2l-1-1c0-2-2-2-4-1m225 13h-3a2 2 0 100 4l1-1 3 1h4l3-3h-1a3 3 0 01-4-1l2-1h1c0-1-6-1-6 1m-128 13l-2 3c-1 1-1 1 1 3h2l-1-1v-2c1-1 2-1 2 1h3l3 1h1c1-3-2-4-3-2h-2l1-2c3 0 2-1-2-2-3 0-4 0-3 1m-262 8l1 3c2 1 3 2 1 2-2-1-2 1-1 3v3h-1l-1-1-2-1c0-3-2-3-4-1-4 4-7 3-3-1l3-5c0-3-1-2-4 1-2 3-8 5-6 2l-1-1c-3 1-2 4 1 3l3 1c-1 2 2 4 8 4 3 0 3 1 3 2 0 2 0 2 2 1l3-1c2-1 2-2 2-3v-3l1-2 4-1c3 1 4 0 5-1v-2l-1 1h-8c-2 0-2 0-1-1 0-2-3-3-4-2m-179 1c1 1 1 1-1 1s-2 0 1 1c6 2 6 2 5 4l-1 2 2-2c1-3 3-3 3 0 0 2 1 3 3 0 2-1 2-1-4-3-4-1-5-2-4-3s1-1-3-1c-3 0-3 0-1 1m207 18c0 1-1 2-3 2l-9 1c-3 0 4 2 9 2 4 0 5 0 5-2l-1-4-1 1m-34 5v2l-4 2-3 2-2 2-1 1 2 1c0 3 4 3 6 0l1-2a2 2 0 01-2-2c2 0 5-3 4-4l1-2v-1l-2 1"
    itemprop="regular" fill-rule="evenodd" tabindex="-1"
    fill="url(#16282281824-posters-1654102118051-horizontal-regular)" fill-opacity=""
    stroke="url(#16282281824-posters-1654102118051-vertical-light)" stroke-opacity=""></path>
  <path id="16282281824-posters-1654102118051-bold"
    d="M227 1a245917 245917 0 000 0m236 54c-5 2-5 3-1 1h3l-12 5-3 2h7l1-1 2-1 4-2c4 0 4 2 1 3-2 1-2 1 0 1l3-1a5 5 0 00-2-7l3-1h3c1-2-5-1-9 1m18 22l2 2 4 1c1 1 10-1 11-3l-8-1-9 1m-12 43l-7 1-4 2 3 2c1 1 5 2 5 0h3c1 0 2 0 1-3 0-3 0-3-1-2m-59 12c-4 2-4 2-3 3l2 5c0 4 0 4 4 3 3-1 4-1 4-6 0-7-1-7-7-5m72 2l-5 2-4 1h3l5 1c0 3 6 10 9 9 2 0 1-2-1-5-2-2-2-2-1 0l1 3c-1 1-6-5-5-7 0-2-1-5-2-4m-58 11v3c0 4-1 4-3 0-2-3-5-3-7-1h2c2-1 3 0 4 1v2c-2-1-2-1-2 1l2 2c2 0 1 1-1 1l-2 1c2 0 2 1 2 6l2 5c2 4 3 9 1 9l-1 3v4l1-3v5l1 10c1 1 1-9 1-32v-5h7v15c0 19 1 19 1 0 0-9 1-15 2-16 2-2 0-4-5-3-4 0-5 0-2-1l4-1h-3c-4-1-3-3 0-4 2 0 3 0 4 2 0 2 2 3 2 1l4-2h3l-3-1-8-1-5-1h-1m103 4a7 7 0 00-3 2l3 1c2 2 9 1 9-1 0-1 0-2 2-2h-11m-87 2c0 1-1 2-2 1h-2l2 1c2 2 2 2-1 3l-3 2h5v9c0 6 0 8 1 5s2-2 2 1v5c0 4 2 6 2 2s1-6 3-6l1 4c0 5 0 7 2 6v-26l1-2v-1c-2 1-4-1-2-2 1-2 0-3-1-3v2h-2c-2-2-6-2-6-1m-41 2h-6c-5-1-5-1-3 1l5 1c3 0 4 2 1 3h-4c-1 0-2 0-1 1v2h5v18l1 18c1 1 1-2 1-11 1-25 1-24 3-24l2-1 2-1c2 0 0-1-3-2l-1 1-1 1c-1-1 0-6 1-8v-1l-2 2m44 42l-10 1-6 1c-1 2 2 2 10 1a99 99 0 0115-2c-1-1-6-2-9-1m11 5c2 1 2 1-4 1-5 0-7 0-6-1s0-1-4-1c-5 0-12 2-8 2 6 0 0 2-8 3-8 0-13 2-6 2l3 1 7 2-3-1c-2 0-2 0 0-1 2-2 9-4 9-2l-1 1v1l1 1h3c2 1 2 1 0-2a3 3 0 114-1c-2 3-1 3 1 1 2-3 3-3 7-1l2 1c-2 0-3 0-2 1 0 2-3 4-4 2h-1c1 1 2 2 8 2 9 0 10 0 6 4s-4 5 0 4c4 0 10-4 8-5v-2c3-2 2-7-1-7l-1-1h2v-2l-2-2 1-1-6-1c-7 0-8 0-5 2m35-1h-6l-4 1c1 1 0 1-2 1-3 0-3 0-1-1s1-1-2-1-5 0-4 1l1 6v5h15l3 2-1 1c-2 0-6 5-4 5l3-2 4-3v-2l-1-3-2-2c-2-1-2-1 0-1 1 0 2 0 1-1l-4-1c-6 0-4-1 2-1l5-2c0-2-2-3-3-2m-93 1l-2 1-2 2c-3 1-4 3-1 3l2 1c-1 1 0 2 1 1l1 1h11l-1 3-1 4v1h-1c-3 0-3 0-2 2v1l-1 2c1 1 1 1-2 1h-2v1c-2 0 0 2 2 2h3l-3 1c-3 1-3 2 1 2l2-2 4-4c2 0 1 3-1 4-1 1-1 1 3 1 6-1 4 1-3 2l-7 2 1 1c7-3 8-2 5 3-1 3-2 3-5 3h-3l6 1c3 0 5 2 2 2l-3 2c-1 1-1 1 4 1 4 0 7-1 8-4l3 1c2 2 3 3 2 4l-1-1h-5l-1 2-3 2a2 2 0 10-1 3l2 1-1 1-2 2 2 1c2-1 2-1 2 1l1 3-1 2-1-2-1-3c-2 0-2 0 0 3v3c-2 1-1 3 2 3 1 1 2 0 4-2s3-2 7-1c3 0 4 0 4-2 1-1 1-1 3 1 1 1 1 1 1-1-1-3 2-8 5-9l3-3 2-2 1 1v1c1 0 2-1 1-3v-2h2c1 1 2 1 2-1 1-1 0-2-1-2-2 0 0-2 4-2 2-1 2-1-1-1s-4 0-3-1l2-1 6-1-5-1c-2 0-3 0-2-1l-1-1-2-1h-3l-10 1-6 1h-5l-5 1v-2l3-1h12c12-2 36-4 49-4h-18a233 233 0 00-33 2c-9 0-6-2 4-3 21-2 39-3 40-2l3-1-35 1-12 1h-3l4-1 4-3 2-1h1c1-1 0-2-1-3s-1-1 2-1 5-2 3-4l-1 1c0 2-7 1-7 0l-3-2a8 8 0 01-5-2c1 2 1 2-1 2-1 0-2 0-1 2l-2 1 1 2c1 1 1 1-1 1h-7c-2 0-2 0-1-1l3-2 3-1h-2l-3-1 2-1c1-1 0-1-1-1l-3-1c1-2-3-3-9-2l-4-1 8-3c6 0 10-1 10-3h-2l-1-1c1-1 1-1-1-1l-10 1h-3m103 4c-1 5-1 5 6 5 4 0 5 0 4-1l-6-1h-3l3-1 3-1-3-1h-2l10-1h9l-7-1-10-1c-4 0-4 0-4 3m-415 6l-3 3h7l9-1 1-3c0-1 0-2-1-1h-2c-7-1-9-1-11 2m-10 24l-2 1h-8l-6 1h12l-2 1-2 1c-2 2 3 1 5-1l5-2 4-1h-6m414 8c0 2-5 5-7 4-2 0-2-1-1-1 1-2-10-1-11 1h4l-3 2v7l1-1h2c0 2 1 2 1 1l2-2c2-1 2-1 2 1-1 2 0 2 2 2s3-1 1-3a3 3 0 114-3l2-1 1-3-1 1-1 1c-2 0-1-2 2-3l3-2-1-1c0-3-2-2-2 0m-36 0l-4 3h-2l3 1 3 1h-3c-3 0-3 0-3 3l1 3 1-2 2-2 2-2c0-2 0-2 2-2l2 1v1l2 1c2 0 2 0 1-1v-1l-2-1-2-2 1-1h1c1-2-4-1-5 0m56 1c-2 1-2 1 0 1l2 1-1 1-2 1c-1 1-1 1 1 1l3-2c1-1 4 3 4 5 0 1 1 1 3-1v-1h-2c-1-2 0-6 2-6 1-1 0-1-2-1s-3 0-2 2c0 2 0 2-2 1l-2-2h-2m-357 10h2l1 1-1 2c-2 0-1 26 0 26 1 1 1-2 1-12s0-13 2-14c1-1 3-1 3 2 0 2 2 2 2-1s0-4-6-5c-3-1-4-1-4 1m-36 1h-3l-1 1c0 1 1 2 2 1l1 3v4l1-2 1-2 1 4 1 3 2 2c1 1 1-1 1-4l-1-5c0 1-2 0-3-2-3-2 0-3 2 0 2 1 2 1 2-2 0-2 0-2-1-1h-5m315 5v7l-1 1-1 3v2l1 4a3 3 0 004 3l2-2v-2a3 3 0 010-5l-2-1v-1l2-1 2-1h-3l-1-1 2-1c1-1 1-1-1-1s-2-1-2-5c0-3-1-2-2 1m29-2c-3 1-6 4-3 4h2a6 6 0 007 1 2 2 0 003 0l-1-2-4-1h-4l1-1h5l4-1h-10m-71 4l-1 14c0 16 1 18 6 13 5-4 4-10-2-9h-3v-19 1m12 11l-2 17v14h5v-18c0-17-1-21-3-13m15-2l2 1c1 1 2 4 0 4l1 1c2 1 2 1 1 3l-1 1c1 0 2 1 1 3l1 3 1-1c0-2 3-4 4-4v-11h-10m-310 22c-1 3-15 3-15 0l-2-1-2 1v1h2l1 2-2 1c-2 0-1 2 1 2v1c-3 1-4 3-3 3l2-1c0-1 6-1 6 1l1-1c1-3 2-3 5-2l3 2h-3c-3 0-3 0-2 1h6c3 0 4-1 2-1-4 0-4-2 0-2l2-1h-4l-7-1h-4l-2-1h10c1 1 1 1 0 0s-1-1 1-1c3 0 5-1 5-4-1-1-1-1-1 1m315 0c-2 2-2 2 0 2 2-1 3 0 1 2v1l-1 1-1 1c0 1 5 1 6-1l-1-1-1-1 4-1c3 1 3 1 2-1-2-1-2-1 0-1s2 0 0-1h-6c-1-2-2-2-3 0m-20 13l-5 2h-2l-2 1c-2 2-2 2-3 1l-2-1 1 2c2 1 3 13 1 13l1 2c2 2 2 2 4 1a6 6 0 014-3l-1-2c-2-2-2-3 2-3 3 0 5 0 5-2 2-2 3-6 2-6l-1 2c-1 2-3 3-3 1l1-3c2-2 3-6 2-6l-4 1M42 318l-7 1-5 2-4 1c-2 0-3 0-2 2h-5v1l1 1H10l-3-1-4-1-3 1v14c0 11 0 14 2 16 1 1 1 1 1-1s2-4 3-2c3 2 7 0 7-3v-2c3 3 0 13-4 13-4-1-5 0-6 3 0 2-1 3-2 3H0l2 2 3 1c2 2 6 3 6 1l2-1 1 2h1v-2c-2-2-1-4 3-5l3-3 3-1 2 2c0 1 4 1 5-2h5l-1 3c-2 3-2 3-3 1h-2l-4 1c-2 0-3 0-3 2 0 3 2 4 2 2a1 1 0 113 1c-1 4 0 6 2 6s2 0 1 2c0 2 0 2 2 2 2-1 2 1 0 4-2 2-12 0-14-2l-4-2-3 1c-2 0-1 2 2 3l6 3 2 2v-2c-1-2-1-2 1-1h2l1 2 5 4c5 2 5 2 4 0l1-1c2 1 2 4 0 5-2 0-2 0 1 3 3 2 4 3 4 0l-1-2 7 4h1l-1-2h2c4 1 4 1 4 3v3c0 1 1 2 3 2l3 2h1l3 2v5l-1-2-2-1c-2 0-2 0-1 2l2 2c0 1 3 0 5-2l3-1-2-2-4-2 5 1 8 2c2 1 5 1 5-1l-1-1v-2l-1-3h-1c0-2 3-2 4 0l1 1v-3l2 1 2 3v-4l1-1v-1h2c2 1 4 4 3 5-1 2-1 2 1 1h2c-1 2 0 3 2 3h3l2 1h1l1 2-1-5c-2-2-1-5 1-8l2-3 1-30 1-7 9-9c2 0 1 1-1 3l-2 3c1 1 0 2-1 1l-1 1-1 5c-2 0-2 0-1 1v3l1 5c2 3 2 4 0 1-2-1-2-1-2 4l1 5v1c-3 1-3 7 0 7v2l-1 2v4h1l3 1-5 1c-3 0-5 2-3 4 1 3 8 7 7 5v-2l1 2h6c3 1 4 3 1 3a3 3 0 01-3-1 10 10 0 01-9 4v2c-2 1-3 1-3-1-1-2-1-2-4-2-7 2-12 6-9 8v1l-2 1 1 1c2 0 2 0 1 1-2 2 0 3 2 2l3-2 1-2 4-1h3l-2-1v-1l3-1c1 1 2 1 3-1l2-2h11c1-2 2 0 1 2 0 3-1 4-3 1h-2c-1 2-3 3-2 1 0-2 0-2-3-2s-8 4-6 4l2-1c1-1 2 0 6 4h3l4-1h2c-2 0-2 0 0-3s5-4 5-2v1c-2-1-4 1-4 2 0 2 5 0 6-2s1-2 1 0c1 2 3 2 5 1 1-1 1-1-1-1l-2-1c0-3 11-2 15 1 3 2 7 3 7 2l-2-2-2-1c-1-1-7-4-8-3l-4-1-3-1-3-1h-2c-3 0-4-2-1-2l2-2-2-1-6 1c2-2 1-4-1-3l-1-1 2-2 1-1c0-2 5-2 7 0 0 2 1 3 3 3v-1c-3-2-2-3 0-5s2-2 5 0c3 4 3 4 3-1 1-4 1-4 3-4l3 1 1 1h-2c-2 0-2 0-1 1l2 4c0 2 0 2 4 3 11 1 12 1 14-1h2l2 1c1-3 3-2 4 0 1 4 2 2 2-2v-3h1l4 3 4 3 1 2 1 1 1-1h1l1-1h2l4-1c2-2 2-2 0-2-8 3-12 2-12-2 0-2 2-2 2 0 1 2 3 1 5-1 3-3 2-5-2-5l-3-1c-1-1 0-1 4-1 3 0 4-4 1-5-3 0-3-2 0-3l2-2 2-3v-1l-2-1-1-1c-2 0-3 3-1 3 1 1 0 4-2 4-1 1-1 0-1-1 0-2 0-2-1-1-1 2-7 4-9 4v-8l-1-1c-2 1-3 0-3-4 1-2 3-3 3 0h1c0-2 0-2 5-1l-1 2-1 1v5c3-1 3 0 2 2h1l3-5 2-2v-1l2-2 1-3v-10l-1-2-1 3-1 2v6l-2 2h-8c-2 0-3-1-3-7-1-4 0-4 2-4h1l-3-1c-5 0-4-5 1-6h4c1-1 1 0 2 1 1 2 1 2 1 0l-1-3-2-1c1-3 0-5-3-5-2 0-2 0 0 1l2 3c0 2-8 4-10 3s1-5 3-5h1c1-1-1-2-4-1l-2 2-3 1-2 1 2 1c3 1 4 3 2 3l-1 4c0 4-1 4 6 2l2 1-2 1-2 2h2c3 0 2 1-1 3-5 3-6 2-7-1 0-4 0-4-4-3-4 0-4-1 0-3l3-2-2-1-3-1-4-2c-2 0-2 0 0-2 2-1 3-2 3 0l1 1 3 1 2 1c2-1 1-2-1-2-3-1-4-7-2-9l1-1h-1c-1 2-4 3-4 1l1-3 1-2-2-2c0-2 0-2 1-1 2 2 2 2 3 1l3-2v-1l-1-4 1 2h2c1-1 2-1 2 4 0 4 0 5-2 6-2 2-2 2 0 3 3 1 5 0 3-2v-1c1 1 1 1 1-1v-2h1l1 1v-4c-2 0-2-4-1-7v-2l-4-1c-2 0-2 0-1 1 1 2 1 2-3 2l-5 1-2 1-2 1h4c4 0 6 2 3 4l-1-1c0-2-3-2-7 0-2 1-4 0-3-3l-1-1c-1-1-2 0-2 1 0 6 0 7-2 7l-1-2a2 2 0 10-2-3c1 2 0 4-2 4l1 1c2 2 2 4-2 5-3 1-4 4-1 5 1 0 1 1-2 3-2 2-2 2 0 2l2-1h5c1 1 5 0 5-2l1-1 1 2c-1 1 0 2 3 3l3 2c0 1-4 2-5 1l-3 1c0 2-2 2-3 2-1-1-2 0-2 1l3 1a2 2 0 013 3c0 2 0 2-1 1l-2-2c0-1-4-1-9 1l-1-2-1-4 1-2 1 2c1 3 4 4 4 1 0-2 3-3 7-3l1-1c0-2-1-2-5-1h-2c0-2-5-2-6 0-1 1-2 0-4-2l-6-4-5-1-2-1 1 2v1c-1 1-2 0-2-1-1-2-1-2 2-4 2-1 3-1 2-2h-4c-3 2-3 2-4-1l-3-2v2c3 3 3 4-1 6a7 7 0 00-4 7c-2 3-3 8-3 24l-2 13 1 2 1 1h-3c-3 0-3 0-2-1 2-1 2-1 1-2v-5c-2 1-2 0-2-2s0-2 2-2l-3-1c-4-3-7-6-3-4l1-1c-1-2 1-1 2 0 1 2 1 2 3 0 3-3 0-11-4-8-3 3-6 2-3-2 2-1 1-5-1-6l-1 3c1 3-1 6-3 5l1-2-1-2c-2-2-2-2-2 1 0 2 0 3-2 3s-2 0-2-5c0-8-5-13-9-11h-2l2-2c2-1 2-1 0-1-3 0-4-2-3-5l-1-2c-2 1-2 0-3-2l-2-2c-1 0-1 1 1 3 1 2 1 2-1 5-4 5-7 15-5 15l2-5 2-3h1v-2h1c2 0 3 2 1 3s0 2 2 1c3-1 3-1 1 2-1 3-2 13-2 27 0 9-1 11-2 11l-1 1c1 1 0 1 0 0-2 0-3-4-2-5v-2l-1-2-1-2-1 5c0 5 0 6-3 4-1-2-3-2-3-1l2 2 2 1 2 1 1 1-3 1-2-1-1-1c0-2-4-6-7-6l-2 1h-2c-3 0-4-2-1-3 2 0 4-3 3-4l-2 1h-3v-2l1-2-3 1c-2 1-3 2-4 1v-4c1 0 2-1 1-2l1-1 5 1 4 1v-6l-1-6h-1c0 2-4 1-6-1s1-3 5-2l3-1 1-2 1 2v1l1 1v1h-1a12 12 0 006-1c-4 0-6-2-4-4l1-3-1 1-2 1-2-1 2-2 1-1c0-1 3-1 6 1l2-1-1-1-2-1c0-1-6 0-8 2-2 1-6 2-7 1v-2c1-1 1-1-1-1l-2-1c-1-1 5-2 9 0h4l-1-1-2-1 1-1v-1c0-2 1-2 3-2 3 0 4 0 4 2a2 2 0 01-3 0l-1-1c-1 2 1 4 4 4h4c2-1-5-6-8-6s-3-1-4-3l-1-3v-2l1-2-2 1c-1 2-7 2-7 1l2-1 1-2 1-1h3l2-2h1l2 1c2 0 3 2 2 4-1 1-1 1 1 1 1 0 2 0 1-1l2-2v-1c-2 0-2 0-2-2 1-1 1-1 0 0-2 1-4 0-4-3 1-2-4-2-5 0h-1c-1-3-1-3 2-3 2 0 2 0 2-2-1-1 0-1 6-1 7 0 9 2 3 2-1 0-2 0-1 1l7-1 8-1 2-1 2-1c2 0 2 0 1 1l-2 1h13c-1-1 0-6 1-5 3 0 4 0 6 2l2 2-2 2-2 2h2l3-2c1-2 2-2 3-1 3 0 3 0 2-1l2-3c3-2 1-3-5-3h-6l4-1 2-2h-2c0 1-1 1-2-1h-2l-1 1-2 1h-2l-2 1c1 1 0 1-1 1l-2 1-2 1c-1 1-1 1-1-1v-1l-1 2-3 1h-3l-3-1h-2l2 1c2 0 1 1-2 3-2 1-2 1-2-1l-1-3c-1-1-1-1-1 1 1 2 0 2-3 2s-4 0-3-1l2-1h-2c-3 2-9 2-10 1-1-2-2-1-2 2 1 4-7 3-8-1l-1-2h-7l1-1 2-2h1c1 1 2 1 7-2l6-3-4 2m386-1h-2c-2 0-2 0-1 1v3l-1 3 2-2c1-2 1-3 2-2v1h1l3-1 3-1 2 1h1c3-2 4-1 3 2l1 2v-1c0-2 2-4 3-2 1 1 1 1 1-1s-4-5-4-3c-1 2-13 2-13 0h-1m-68 4l-8 2v1c0 2 7 1 7-1 1-2 6-3 7-2s4 1 4-1h-1l-1-1-8 2m15-1c2 0 3 3 2 8v4l4 1c4 0 5 1 2 3v4c-1 1 0 6 1 6l1 1a5 5 0 01-9-2h-1l-3 1c-4 1-6 0-4-1 2-2 2-4 0-5-2 0-4 1-3 2l-1 2c-2 2-1 3 1 3 2 1 3 1 2 3l1 2 1 1 4 1 8 1 4-1-1-2h-3c-3-2 0-2 4-1l3 2c-2 0-2 0-1 1h2c2-2 10-2 10-1 2 2-1 4-2 2h-6c0 2 1 2 5 2l4 1-6 1h-16c-3 1-3 1-2 2 2 1 3 2 4 1 2 0 2 0 1 1s-2 2-4 1h-4l2 1 2 1-3 1h-1l3 1 2 2-1 2-1 3a1 1 0 11-2 0v-3c-1-1-1 0-1 2s0 3-1 2c0-2-3-3-3-1h-1v-2c1-1 1-1-1-1l-3-1c-2-2-6-3-6-1l-2 1h-11l1-3c2-2 2-2 0-2-1 0-1-1 1-2l3-1c-1 2 0 2 2 2 3 0 5-2 3-3l-1-2-1-1-3-1c-2-2 0-4 3-2 2 1 3 0 1-1l-1-5c0-3 0-4-2-5l-1-1h2l2 1 1 1 2 1c2 0 2 0 1 1-2 1-2 2-1 2v5l1 2 2-3 1-4c1-1-1-5-2-5l-3-2h-2c-1-1 0-2 1-3v-1h-4l-5 2c-5 1-5 3-6 12 0 3 0 3-2 3h-2l2 1 1 6v6h-5c-4 0-5 0-5 2 1 2-4 3-6 2h-2v-1l1-4c0-3 0-3 3-3l3-1h2v-1c0-3 3-5 5-4h1l-1-2v-4l1-4c-1 0-4 2-3 3 1 2-3 5-6 4l-4 1h-3c-1-1 0-2 1-2l1-1c-1-2 2-5 3-3v2c-2 1-1 2 2 2s4-1 3-2h-1l-1-1c-1-1 0-1 1-1l-1-2-2-3c1-1 0-1-1-1l-2-1c0-3-11-3-11-1v1c1 0 2 0 1 2l-1 2-1 1 4 1 4-1-1-1c-2 1-3-1-2-3h6c1 2 1 3-1 3l-1 2c0 2 0 3-4 3l-6 1c-2 1-3 8-1 7l1 3v4l-1-3-1-2a8 8 0 004 9l-1 1c-2-1-3 0-3 4 1 3 4 3 4 0 1-2 5-4 5-2s-2 5-4 5v1l4 1 3 1 7-1 2 1c1 1 1 1-1 2l-2 1h5c1-2 2-2 3 0h3l2-1 9 2 4 2 6 1 5 1h2l2 1 1 1h2l3 1 3 1 8 1h7v-3c0-2 0-4 2-5 1-1 1-1-1-1l-3 1h-1l1-2 10-1c3 0 4 0 3-1l-7-1c-10 0-12 0-10-1v-1l-2 2c-1 2-4 1-6-2s-2-3 3-3h5c2 2 4 2 4 1l3-1h3v-1l-2-1h2c2 0 2 0 2-2s0-2 4-2l6-1c1-1 1-1 1 3l-6 1c-4 0-4 0-2 1l3 3c0 2 0 3 2 2l3 1h1c-1-2 0-3 2-1a4 4 0 003 0c-3 0-3-2 0-2 2-1 3 0 4 1 0 3-1 4-4 4h-1l-4 3-4 1h4c3 0 3 0 2 1h-3v1l-1 1-4-1c-1 0-2 0-1-1l-1-1c-1 1 1 4 3 4 1-1 4 1 4 2v1h2v-2c-2-2-1-3 5-4s10 0 6 3c-1 1-1 1 2 1 2 0 3 0 2-1 0-2 2-4 4-4s2 0 1 1v2l2-1c1-1 6-2 6 0l-2 1h-2l-5 3c-4 2-5 4 0 3l2 1-1 3c-1 3-5 3-6 1a2 2 0 00-2 0v1h-2c-2-1-1 2 2 4 2 2 3 2 4 1l5-1 7-1 3-1h-3c-4 0-5-1-5-4v-6l2-1c2 0 5 2 5 4l2 2c1 1 2 0 0-2v-1l3 3c1 2 3 3 5 1l-1-1c-1 0-3-6-2-8 1-1 0-1-3-1-5-1-5 0-3-5l-1-2-1 1c0 1-1 2-3 2a3 3 0 01-4-1l-2-1-1-1-1-2 3 1c3 2 6 3 6 1l-1-1v-11l4-4 1-1c-3 1-5 0-5-2s2-2 4-1l2 2 3 2h1v-3h-1c-2 0-2 0-1-1v-2l-1-2-1-2c-3-2-1-6 2-6 4 0 3-2-1-2-2-1-3 0-3 2 0 4 0 4-5 5-4 0-8 2-7 4l3-1c2-3 6-3 6 0 0 2-3 3-5 2l-2 1-2 1-2 1 2 1 3-1c1-3 4-1 4 4s-1 6-2 4h-1l1 2 1 3c0 3 0 3-3 3l-3-1 1-1h3l-4-1-2-1c0-1-2-2-3-1l-2-1c1-1 0-1-1-1l-2 1-1 1c-2 1-3 0-2-4h-1c-3 2-4 0-2-3 1-2 0-5-1-3-2 2-6 3-7 1l-2-1-2-1-2-1 1 3c1 2 1 2-1 2h-5l-1-2-1-5c0-2 0-2 1-1 2 2 2 2 3 1 2-2 3-2 4-1 2 3 12 2 10 0l1-1v-1l-1 1-5 1c-3 0-3-1 1-6l1-1c0 3 2 2 3 0s3-3 2-1c0 1 1 2 4 1l4 1c0 1-3 4-5 4-2 1-2 1 0 1s2 1 2 3v4c5 0 5 0 5 2-1 3 1 4 4 3l3-1-3-1c-2 0-3-1-1-3l-2-2c-4-1-5-2-2-4v-3l1 1h6l-2-3c-1-1-1-1 1-3 3-3 4-2 5 0l1 2c1-4-1-6-4-4-3 1-3 1-2-1l-1-2h-1c1 1-1 9-2 9v-10c-1-2-1-2 1-2l5 1 3 1c-1 1 1 1 3 1 4 0 4 0 2-1h-3l-2-2-3-1h-2c0-1 1-2 3-1l2-1-1-1c-4 0-5 0-4-1 1-2-2-6-4-6s-2 0 0-1 1-1-3-1c-5 0-8 2-7 4v1l-2-1c0-3-5-2-7 2-1 3-1 3 1 6 3 2 8 3 8 1 1-1 8-2 8 0 0 3-3 4-9 3h-7c-2 2-3 1-3-2l-1-3-1 3c0 2 0 2-3 2a5 5 0 00-5 2v-1c1-2 1-7-1-8-2-2-1-5 1-5 3 0 3-1 1-3h-3c-1 1-1 1-2-1l-3-1c-2 2-4-2-5-6a4 4 0 00-4-5m146 3c0 2 1 2 14 2l14 2c2 0 2 0 1-1l-4-1-3-2h-1c-1 1-2 2-5 1h-9l-6-1h-1m-75 6l-1 2c0 2-3 3-3 1l-5-1-6-1h-1l1 4 1 1v-1a1 1 0 112 0l1 1c2-2 1 4-1 5l-1 2 2 1 1 1 1-3a8 8 0 011-6h-1l4-1c4 0 9-2 6-2l-1-2v-1m119 3v2l1-1c0-2 0-2 2-1 1 2 1 5-1 5l-1 1v3c-1 0-5-3-5-5l-2-1-2 1 2 1c1-1 1-1 1 1v1h1c0 4 4 4 7 1l3-2c-2 3 1 7 4 7l2 1c0 1 1 1 3-1 3-3 3-3 3 0s2 1 2-2c1-3 1-3-4-1-2 0-1-2 1-3v-1l-5 3c-2 2-3 3-3 1v-6l1 2h1v-4c1-1 0-1-2-2-5-2-8-2-9 0m-192 1l-2 2-2 1-1 1h-1l6 4 1-1-1-1a2 2 0 01-1-3l4 4 1 1h2a4 4 0 00-1-6c-4-5-5-5-5-2m-238 1h-11l-12 1c0 2 23 2 24 0v-2l-1 1m327 1l1 2h-4v2c0 5 2 6 3 3 0-2 0-2 2 2 2 3 2 3 3 1 1-1 1-2-1-2-2-1-2-1-2-4l-1-4h-1M1 337l1 1c2-2 2 1 1 4-2 3-2 5-1 5l1-1 1-1v2c0 3 2 3 5-1l4-2c1 1 1 1 0 0l-1-3v-1l-2-1-1-2-1 2-1 1c-1 0-2-1-1-2 0-2 0-2-2-2l-3 1m103 6c0 2 0 2-4 2l-5 2-5 1c-4 0-8 2-6 3 1 1 1 2-1 3-1 2-1 2 1 2h6l1-1 1 2c-1 1-1 2 2 1l1-1v-3c2 0 4 3 3 3v3l-3 1-3 1 2 1 3 2 2 1v-1c0-2 0-2 2-2l3-1c1-1 0-2-2-1l-3-1 3-1 3-1v-18l-1 3m82 5v1a5 5 0 014 6h2l-2 3-2 4c0 2 0 2 1 1l1-1c2 0 2 0 1-1s-1-2 1-3 2-5-1-6c-2-1-2-2-1-3l-1-2h-1l-2 1m183 0c-3 3 0 5 6 5l4-1c0-2-7-5-10-4m-122 2l-1 4c0 2 0 2-1 1l-3 3v26c1-1 2 2 2 5l1 1h3l4-1a3 3 0 002-4h-1v-2a1 1 0 10-2 1l-3 1c-2 0-2 0 0-2v-3c2-2 6-1 6 1 1 1 1 0 1-3l-1-4-1 2-1 1c-2 0-3-3-2-4l-1-2v-4c-3-6-3-13 1-9l-1-3c-2-3-2-4-1-4l2 1 1 1-1-3-2-2-1 2m-230 1v4c-1-1-2 0-2 1 0 2 3 3 8 2l3 1h2a6 6 0 000-5c0 2-4 4-5 2l-2-1v-1l1-2c1-2-3-2-5-1m251 1v2l2 4c0 2 0 2-1 1l-2-3c0-2-2-1-3 3v25l1 1c1 1 0 1-1 1l-2 1h5c5 0 8-2 6-3-1-1 1-7 3-7l1-4-1-4h-1v-1a1 1 0 000-2c-1 0-2-1-2-3-1-5-1-5 1-5l1-1-1-1a2 2 0 01-3-4l1 2 1 1c1-1-1-5-2-5l-3 2m261 3a18 18 0 00-5 10l-1 5-1 5v1l1 1 1 2c1 1 2 2 1 3l1 4c2 2 2 2 3 0v-4c-1-3 0-4 2-3 2 0 2 0 1-1-2-1 0-3 2-3 10 1 11-11 3-20-4-5-4-5-8 0m50 6v21l3-1v-12l-1-14c0-7-2-2-2 6M5 363c-1 3 2 6 5 6 2-1 3-5 0-6l-2-1c0-2-3-1-3 1m218 0l-1 3-1 2c-1 0-2 1-1 2h-1l-2 1c0 2 2 3 4 2h1c-1 1 0 2 1 2l1 1c0 1 1 2 2 1 2 0 2-1 1-2v-2l2 2c1 1 1 1 1-1s-1-3-2-3l-2-2-1-1-1-3c0-3 0-3-1-2m63 5v11a7 7 0 004 8c2 0 2-1 2-3a2 2 0 012-4h-2c-2 0-6-3-5-4l2 1c2 2 5 1 5-1h-1l-2 1v-2c1-1 1-1-1-3s-2-2-2 0h-1l2-3 1-1c-2 0-2 0-1-1 1 0-1-4-3-4v5M8 376v3c-1-1-6-2-8-1l1 3 2 4 2 1 3 1c-1 2 3 4 4 3l-1-2-2-1 2-1h1l-7-3-1-2c0-2 2-3 4-1h2l5-1a6 6 0 005-2l1 3 1 3 1-3a2 2 0 012-3c0-1-4-2-5-1-4 3-12 1-9-2 1-1 1-1-1-1-3 0-3 1-2 3m78 0c-2 2-1 5 1 5 2-1 3 1 1 2s-1 7 1 8v-1c0-2 1-2 4-1l4-1c0-2-1-2-4-2h-3c3-4 0-14-4-10m130-1c0 2 2 4 3 3l3 2c2 2 2 2 0 2h-2l-2 1-1 2 5 1c0-2 0-3 3-4 3 0 3 0 1-1l-2-3c-1-1-2-2-3-1l-1-1a2 2 0 00-4-1m-51 3l2 2c2 0 1 3-1 3a22 22 0 00-6 1c-1 0-2 1-2 3s0 2 1 1l4-2 3-1 1-1v1c-1 1-2 4-1 6l1 2v1l1-1 3-2c2-1 2-1 1-2l-1-3c1-1 0-1-1-1v-3c-1-1-2-3-1-4 0-2 0-2-2-2l-2 2m-114 1c-1 2 0 5 1 5v-1a3 3 0 113 2c-3 1-3 3 1 3a5 5 0 10-5-9m302 0l2 1h-1c-4 0-6 1-3 2a7 7 0 008 0l3 1 3 1c1 1 11 0 12-1s-3-2-8 0c-3 0-4 0-4-2l-4-2h-8m28 7h-2l-4 1 4 1c4-1 5-1 5 1v1c-3-1-5 0-5 2 0 3 1 3 6 2h4l-2-3-1-5c1-1 0-1-2-1l-3 1m-48 3a3 3 0 004 1h8c-1 1 0 2 2 4l2 3c0 1-3 2-4 1s-6-1-5 1l2 1h2a4 4 0 005-7c0-1-1-2-2-1l-1-1c1-1 0-2-4-2h-9m-159 1l-2 2-3 6c0 1 2 2 5 2l4-2c0-1-3-3-4-2l-1-2 3-1a2 2 0 10-2-3m14 1c-2 2-2 2-3 1-1-2-2-3-3-1h-1l-1-1-1 3c0 3 1 3 3 2l2 1c1 1 5-2 6-5s0-2-2 0m-53 2l-2 2v4l-2 2h3l3-1 5-1c2 0 2 0 1-1l-2-3-3-4-3 2m176-1l-4 1-1 1c-4 2-3 3 3 3 4 0 5-1 4-2l1-1a5 5 0 005-2h-8m-199 4l2 2c2 0 4 3 2 3v2c1 1 1 1-1 1-2-1-3-1-3 1h-1l-2-1v2c2 2 13-1 13-4h-1c-1 2-2 2-3-1v-3l1-2-2 1c0 1-1 1-3-1h-2m220 4l-6 2h-5c-4 1-5 1-5 4-1 2 2 2 4 0h1c0 2-2 3-4 3-2 1-2 1 0 1s3 1 1 2c-2 2-9 4-10 4l1-1 2-1c0-3-1-2-3 0-2 3-2 3 3 4l5-1c0-2 1-2 3-1l2-1v-1l1-1c0-2 0-2 2-2l2-1v-1c1 0 2 1 1 2l1-1 3-2c2 0 6-3 6-6 1-2 1-2-1-1l-1-1 1-2-4 2M24 416c-1 1 0 1 0 0l2 1c0 1-3 2-4 1l-2-1v2c3 1 1 3-2 3v3c-1 1-1 1 1 1l2-1h2a4 4 0 006 0c-1-2 0-1 3 1l4 1v-2c-1 0-1-1 1-2 1-1 1-2-4-2-3-1-5-2-5-4-2-2-3-3-4-1m842 8l2 2v-3l3 1a2 2 0 01-1 3l-1 1 4 1 3-1-2-1-2-2h5v-1l1 1h1c0-1-1-2-3-2l-6-1c-4 0-4 0-4 2m-247 0v7c2-2 2 1 0 3l-3 4-4 7-3 7 2-1 1-2 4-3 2-3c1 1 0 4-1 4a1 1 0 000 3l1 10c1 11 2 15 5 16 3 0 2-2 0-3a21 21 0 01-2-20l-1-2h1l1-1-1-5-1-4-1-2 2 1c1 2 2 2 4 1 2 0 2 0 2 2-1 3 1 4 2 2 1-4 2-2 2 4v6c2-2 1-12-1-16-1-3-1-3-2-1 0 1-1 2-3 2-4 0-5-3-2-6v-2l1-1v-1c-2 0-2-1-1-2l-1-3v-1h-3m-44 2l1 3c1 1 1 1-1 1l-4 2-5 4-3 4-1 5c-3 2-2 3 1 3h1l-3 1-7 2c0 1 3 3 5 3l-1-1v-3c1 0 2 1 1 2 0 2 1 3 3 4 7 2 9 1 8-4 0-2 0-2 2-1 3 0 1-3-2-5-2-2-2-2-1-3 2-1 0-3-2-3-1 0-2 0-1-1h2c3 1 3 1 2-2 0-3 5-2 9 2s5 4 7 2c1-1 1-2-5-7l-2-5c1-1 0-1-1-2l-2-2c-1-1-1-1-1 1m-505 2l-6 1h-1l-1 1-3 2h3l4-1c3-2 4-2 4-1l-2 1v1h3l8-5c3-2-6-1-9 1m161 2c0 2 0 2-2 1-1-2-4-2-4-1l-1 1h-2c0 1 2 2 4 1h2l-2 2-6 3-3 2c-2-1-12 4-12 6l5-1 3-1 3-1h2l3-1 2-2h1c1 1 1 1 1-1-1-3 0-3 5-3l5-2c0-3 0-3 2-2 3 0 2 2 0 2-1 1-1 1 1 1 3 0 3-4-1-5s-5-1-6 1m-27 1l-3 1c-2-1-4 0-5 1v1l1 1c0 2-5 3-12 5-7 1-7 1-6 3l3 1v-1l-1-2 2 1h8c1 1 1 1 3-1 3-2 5-2 7-1h2c1-1 2-2 3-1 2 1 2 1 2-2 0-2 0-2-1-1l-2 1v-3a2 2 0 00-1-3m696 1c4 2 6 6 3 6l-1 1 1 1h1a2 2 0 000 2h-3a4 4 0 011-7l-3-1c-2-2-6-2-6-1l3 1c2 1 3 5 1 5s-2 2-1 3v1h-4l1-1h-3c-3 2-4 5-1 5 2 0-4 3-7 3-1 0-2 0-1-1l-1-1-1 2c0 2 1 2 7 0l6-1 3-1 3 1c2 1 2 1-1 1l-4 1 1 1c1-1 3 0 5 2s2 2 4 0h1l2 1c1 1 1 1 1-1v-3l1-9c0-8 0-9-2-9l-4-1-4-2c-2 0-2 0 2 2m-257 1v2l-1 2c-2 1-3 5-1 5v3l1 2 1 2-1 2-2 1a309 309 0 00-1 16c0-3 2-2 2 2l3 4 1-1v-5c2-4 2-4 0-4v-8l-1-2c-2-2-2-2-1-3l2-2 1-2c2 0 0-6-2-7-2 0-2 0-1-1l2-7-2 1m170 3l-6 1-5 2h-2l-1 1h-5c-2 0-3 1-2 2v1l-2 2c0 2-4 1-7-1-2-2-14-1-14 2 0 1 4 2 5 1l2 1-4 1h-4l-3 1-6 2-3 1-2 1c-2 0-2 0 0 1 1 1 2 2 3 1h3a1 1 0 101-1c-2 0 1-2 5-3 2-1 3 0 5 2s3 2 2-1l2-1 4-2c1-1 2-2 3-1l3 1 3 1 2 2 1 1-2 1 9-1 7-1c6-1 6-1 3 1l-3 1 4-1c6 0 7-1 7-2 0-2 6-3 8-2h1l2-1c5 1 4 2 0 3-5 0-6 1-2 1l5 1 3 2v-1c-1-1 0-1 4-1h5l-5-1-5-1h4c3 0 4 0 2-1l-3-1c-4-3-12-3-20 0h-10l-3-1c-1 0-2 0-1 1l1 1a5 5 0 01-7-3l2-1 8-1 5-2c4 0 5-1 5-2v-2c0-1 1-1 1 1 1 1 1 1 1-1 1-1 0-2-1-2v-1c1-2 1-2-3-1m-674 2l-2 4-2 4-1 1c-1-1-3 0-4 1l-5 1c-1-1-1 0-1 1l-2 3c-3 1-1 4 3 3 2 0 2-1 2-3-1-1 0-2 1-2 1 1 1 0 1-1l1-2 1 1h3l2 1h5c1-1 1-2-1-2l-2-2c0-2 1-2 3-1l2 2c-1 3 5 6 7 4l4-1 2-1 2-1c2 0 5-3 4-4l3-2h4c1 2 2 2 2 0l2-1 3-1-2-1-2-1h-2c-1 2-2 2-4 0-4-1-7-1-10 2l-3 1-2 1c-3 4-10 2-11-2 0-3-1-4-1-2m282 2c-6 1-7 2-13 7-8 7-10 9-13 9-2 1-2 1-1 3l1 1c-1 1-7 0-6-1h-4l-6 4-5 3-6-4c-8-5-7-5-9 2-3 9-6 10-18 4l-11-4c-6-3-6-3-5-8l1-5c-1-1-4 2-5 6 0 2-1 3-2 3 0 0-2 1-2 3l-2 2c-2 0 3 4 5 4l3 1 6 2c3 1 6 4 4 4a29 29 0 01-16 4c-2 0-2 0 0 2 1 1 1 1-2 1l-4 1c-2 2-6 3-8 2h-3l3 2h-4l-3 2c0 2-3 4-5 3-1-1-8 1-10 2-1 1-1 1-1-1 0-1 1-2 3-2 1-1 1-1-1-1l-3 2-3 1-3 2-2 2v-2l-2-2-1 2c1 3-5 5-9 3h-4l-4-1h-5l-2 1 1-2v-1l-3 3-1 3-1-1c1-1 0-2-2-1l-2 1-4 2-2 1 3 2h1c0-2 4-3 4-1h2l2-1-2 4-3 1-8 1c-1 1-4 1-4-1l2-1c2 0 3-3 1-3-3-1-2-6 0-6l2 1v1c2 0 1-3-1-5-1-1-2 0-3 1l-2 2v-2l1-2 1-1-2-1-2-1c-1-2-8-2-8 0s-5 4-6 2v-1l1-1c0-1-1-1-2 1l-1 2c1 1 3 6 2 7 0 2-2 1-2 0v-1l-4-1c-2-1-3 0-1 2v2l-2 1a2 2 0 01-5 1v2c0 2 0 2-2 1l-4-1h-1l-2-1-1-2c1 0 1-1 0 0l-1-1 2-1 2 1c0 2 5 4 5 2 1-1 0-2-2-1l-2-1 2-1v-1l2-3c1-1 1-2-1-2l-3-1h-2l-3 1c-2 0-2 0-1-2 2-1 2-1 0-4-1-2-3-3-3 0l1 1a2 2 0 01-1 3v-1c0-1-1-2-3-2s-3 0-3-2l-2-3c-1-1-2-2-1-3 0-1 0-3-2-3l-1-3-1-2h-2l-1 1c-1 0-2 1-1 2l-2 1c-2 0-2 0-1 2 0 2 0 2-1 1l-1-3-1-1c-1 0-2 0-1 1l-1 1-2-1c0-2-3-3-4-1l-3 1h-3l-1 1h2l2 1v3h-3l-2-2c-1-2-3-3-3-1l1 1a1 1 0 110 2c-3 0-4 0-4 2l1 4 1 1-3-1c0-1-2-2-3-1v1c2 0 3 2 1 2l-1 2a2 2 0 003 2l3 1 3 3-2 1h-2l-2 1c-4 0-10 2-9 3l2 1 2 1-7-1-2 1v1c1 0 2 1 1 2a1 1 0 102 0h7a10 10 0 008 0c-1-1-1-1 1-1l2-1-1-1c-1 1-2 0-1-1l-1-3v-1c1 1 4 0 4-2s2-3 2-1l2 1c1 0 2 1 2 3 1 3 4 6 4 4s1-2 2-2l2 1 1 1c0 3-5 3-7 2l-4-2c-2 0-2 0-1-2v-1h-2a1 1 0 00-2 0v6c-1 1-1 1 1 1l3-1 2-1 3 1c0 2 39 1 39 0h1a5 5 0 008-1v1c-1 1 1 1 6 1l8-1 2-1c2-1 2-1 1 1-1 1 13 1 100 1l102-1 2-1 1-1 5-1c3 0 4 0 3-1-2-1-2-1 1-1 2 0 2 0 1-1-2 0-2-1-1-1l1-2c1-2 1-2 1 0s0 2 2 1c2-3 3-2 0 1l-1 4-1 2h-2c0-2-2-1-2 1-1 1 0 1 5 1s7-2 4-3c-2-1-3-5-1-5l1 2 3 1h2l4 1c3 0 4-1 1-3-1-1-1-1 1-1l-1-1c-2-2-5-2-7-2v-1l2-3h2l3-1v-1a12 12 0 01-8-11l-1 1-1 1-1-1c1-3 0-3-2-1l-2 1c1-2 0-2-2-3s-2-1-1-2c2-2 5-1 5 1h2v-1l-1-1-1-1-2-1a3 3 0 016 0v2h1c0-3 3-6 5-5l1 2h2l2 1c1 1-1 4-2 3l-1 1-1 2-1-1h-1c-2 2-2 4-1 5 0 1 4 0 3-1-1-2 2-1 3 1a1 1 0 102-2c-2-2-1-4 1-3 2 0 2 0 2-3s1-4 2-5l6-5a11 11 0 018-5l3-3c4-1 7-6 4-6s-2-2 1-3l2-3 1-2v-1l-24-4-14-2h-19m151 2l2 6c2 5 3 10 1 10l-2-2v-2l-1 2c-2 4-11 3-17-3-5-4-13-4-18 0l-1 2 2-1h3c0-2 2-2 2 0l3 1c4-1 4 0 2 2s-8 3-9 2l1-1 1-1c-1 0-5 2-5 4h6c7 0 12 1 14 5l3 2h1v2l2 2 2 6c5 9 1 13-18 17l-3 1 10-1 4-1 5-2 3-2c1 0 3-5 2-7 0-2 0-2 3 1s6 4 6 2l-3-2-2-2-1-2c-2-2-1-6 3-9l4-3h2l5-1h3a17 17 0 010 15c0 2 0 2 1 1l3-5c2-1 2-3 2-5 0-8 9-3 11 6l2 5v-6l-1-6c-2 1-2-6-1-7 2-4 2-14-1-12l-1 2c1 1-5 1-8-1l-3-2 3 2 4 3v1h-1l-4-1-6-2c-3-3-5-4-4-1l1 3 2 3c2 6-1 5-4-1l-1-3c2 2 3 1 2-1l-3-3-3-4c-2-6-7-11-5-6m-546 3c1 1-5 3-7 2l-1 1v1l-1 1h3c3-2 5-2 5-1h-1l-1 2 3 2 2 2c1 1 1 1 1-1 0-3 4-5 9-6 6-1 6-3 0-2l-5-1a5 5 0 00-7 0m247 6c-2 3-8 3-9 1h-1c-1 2 0 2 2 2 4 0 7 2 5 3l1 1 2-2c0-3 2-3 4-1s3 2 6 1l4-1-3-1-5-1c-3 0-4-3-2-4v-1l-4 3m-262 2l-4 2-3 2-2 1c-1 0-2 1-2 6l1 4c0-2 2-2 2 0 1 1 0 2-1 3l-1 1v2l2-1 5-4h3l-3-1-2-1-2-3c-2-2-2-2 1-4l4-2c1 0 3-3 3-5l3-1c2 1 2 0 1-1-2-1-2-1-5 2m189-2l-5 1-5 1h-3l-3 1-2 1c-1-1-2 0-3 2-2 2-2 3-1 3l1-1c0-2 5-4 6-3l-2 1c-2 0-3 2-1 2a3 3 0 01-3 5h6l9-1 4-1c1-1 0-1 0 0l-2-1 2-1 2-1-3-1h-1c1-1 4-2 9-2 1 0 2 0 1-1l1-2h1l1 1c2 0 4-2 3-3h-12m-82 6h-7l-2 1a2 2 0 100 4h2l-4 1-4 1 4 1h3l-2 3h-1c-1-1-7-1-11 1l-4 1h5l7 1-2 1c-2 0-1 2 2 3 3 0 6-3 4-4l1-1 1 1h2l3-2 1-1 3-1 9-5 2-1c2-1 2-1-1-1l-3 1-6 2c0-1 1-2 3-2l4-3h-3c-2 2-5 2-4 0 0-2 0-3-2-3s-2 1 0 2m443 3l2 1h3c4 0 5 0 5 2 1 3 5 5 5 3 2-5 0-6-9-7l-6 1m231 4l1 2c1 1 1 4-1 4v-3l-2 3-2 2v-1a1 1 0 10-2-1c0 1-4 2-6 1h-1c0 2 3 3 8 2l2 1v1l2-2h3a1 1 0 112 2v1l3-1 1-1c-2-2 0-4 2-2s6 3 7 2l-1-1h-4l2-1c1-1 1-1-1-1s-3-2-1-2l1-1c0-1-1-2-3-2l-2 1h-2l-2-1-1-1a2 2 0 01-3-1m-50 1c0 2-4 3-5 1-2-1-6 0-5 1l-5 2c-4-2-11-1-8 1l1-1v-1c1 1 0 3-3 3-2 1-3 0-1-1l-3-1-5 1h2l3 1c0 1-2 2-4 1h-4l-3-2v6c2 0 4-1 4-3 1-1 1-1 3 1l3 2 2 1c2 2 4 3 4 1l3-1h2l-3-1c-3 0-1-2 4-2 10-2 14-2 16 0h1a2 2 0 014 0c-1 1 0 1 1 1l1-1v-2l1 3v2l1-1h5l5-1v-1l2 2h1c0-3 2-2 4 0l2 2v1c-2 3-6 2-9 0-2-1-4-2-5-1l1 1 3 3h2c1-1 1-1 0 0l1 2 1 1v2c1 1 0 1-1 1h-3l-3-1h1l2-1-4-1h-5l2-1c2 1 2 0 1-2-2-2-3-3-2 0 0 2-1 1-3-1l-4-2 1 1c3 1 3 2-1 2l-2 1c0 2-1 2-4 1-2-2-2-2-1 0 0 2 0 2-1 1h-3c-2 1-9 0-9-2l-2-1-3 1-2 1-1 3c-1 1-1 1-1-1 1-2 0-5-1-5v2c0 1 0 2-2 2l-4 1c-2 0-2 0-1-1 3-3 0-8-3-6-2 1-6 1-6-1v-1a2 2 0 010-3h2c1-1 0-2-7-2a12 12 0 00-11 3c-1-1-15 2-21 4l-6 1-3 1h-6l-4 1-4 1h-7l-4 1c-1 0-2 0-1 1h-3l-4 1h-3l2-1 1-1c0-1-9 0-12 2l-2 1 2 1h5l3-1-3 2c-2 1-14 5-20 5l-1 1-4 1-7 2-6 1c-1-1-37 11-39 13h374v-15l-1-15v-2l1-2-2 1-8 2c-3-1-5 0-5 1l1 1 7 1-24 3h-15c-8 1-12 0-7-2l3-2 2 1 2 1 2-1h1c-1-2 0-2 3-2l5-2h-11c1-1 1-1 0 0h-3l-3-1-2 1c2 1 1 2-2 3-2 0-3-1-1-3v-1h-3c0 1-1 2-6 2h-11c1-1 0-1-1-1s-2 0-1 1l1 1h-7c-1-2-2-1-1 1l-1 2-1-2-2-1-1-1c0-2 0-2-3 0-3 1-6 0-4-2l-1-1h-16l-4-1c-3-2-5-2-5-1h-2l-4-1c-2 1-2 0-1-1 0-2-2-4-4-2-2 1-4 1-4-1l-1-2h-1c1 1 0 2-1 2h-1v-1l-4 2c-1 1-1 1-1-1 1-1 0-2-2-3-3-2-8-3-5-1h-2l-5-2-2-1 1 1 1 1c-1 2-3 1-3-1h-1m-555 2c-8 1-8 3 0 2h11l-1 1c-1 0-1 1 1 1h3l4-1c2-1 1-1-2-1h-3c1-2-5-3-13-2m99 4l-4 1-3 1c-1 1-5 0-7-1h-1v1l-1 1h3c3 0 4 1 1 2v2h1l3-1 2-1 1-2 6-3h-1m-198 2h9l-3 2c-1 1-2 2-1 3 0 3 7 4 7 2l-2-1c-2 0-2 0-1-1 4-3 2-6-4-6l-5 1m776-1c-2 1-1 2 2 2l6 2 5 1 3 1h1c4-2 4-3 1-3l-2-2h-2a8 8 0 01-6-1c1 1-4 2-6 0h-2m-178 2c-3 1-5 4-2 4v1c-2 1-4 3-3 4l1-1a4 4 0 016 1v-1h1l8 1 2 1 2 1 2 1v-1l1-2c2 0 4-2 3-3l-3 1h-1c1-1 1-1-2-1-5 2-7 2-7 1l1-1a1 1 0 000-2l-1-1c0-2-4-2-5-1s-1 1-1-1l1-2-3 1m-613 3l-5 1-1 1-1 1c-3-1-6 1-6 3l-2 1h-2l-1 1-2 1h10c3 0 3 0 2-1-2-1 4-7 7-7a3 3 0 003-2l-2 1m344 4l-2 1c0-2-3-3-3-1l-1 2v2c1 1 1 1-1 2l-2 1h5c1-3 5-3 8-1l4 2 1 1 2 2 3 1 2-1 2-2c2-1 1-2-2-3-10 0-10 0-9-2l4-1c1 1 1 1 0 0-1-2-2-2-2-1a2 2 0 01-3-1l-1-2c-3-1-3-1-5 1m272 5c0 2-1 2-1 1h-15l-4 1-10 2 4 1h4c0 1-3 2-4 1-2 0-2 1 0 3h1l2-1 2-3c1-2 1-2 1 0s1 2 3 2l3 1c1 1 1 1 1-1l1-3v2c0 3 1 3 5 2 2-1 2-2 1-2l-2-1h2l1-1c-1-2-1-2 1-1 3 1 4 1 1 2-1 2-1 2 1 2l4-1-1-1v-1l2-1 1-1c0-2 0-2 1-1 1 2 1 2 4 1l1-2h-3c-1-2-6-2-7 0m83 5c-3 0-4 1-4 2h-3c0 2-1 2-2 1h-5c-1 2-2 2-2 1-1-1-4 1-4 3s3 1 6-1l3-1v1c-3 2 0 2 4 0h8c6 2 7-2 2-4-2-1-2-1 0-1h2c0-1-1-2-5-1M93 503l-4 4h-1c0-2-2-3-3-1l1 3 2 2 8 1 7-1h-1l-2-1v-1l-1-2c-1-1-3-2-4-1-3 0-3-2 0-2l2-2-4 1m-18 1l1 2 1 2h1l1 2c-1 2 0 2 3 2l4-1-1-1c-2 0-4-3-2-4a1 1 0 10-2-2h-6"
    itemprop="bold" fill-rule="evenodd" tabindex="-1" fill="url(#16282281824-posters-1654102118051-vertical-bold"
    fill-opacity="" stroke="url(#16282281824-posters-1654102118051-radial-regular" stroke-opacity=""></path>
  <!---->
</svg>
