<svg id="16282281824-posters-1628462033455" itemscope="" itemtype="/posters" itemid="/+16282281824/posters/1628462033455" viewBox="0 0 683 512" preserveAspectRatio="xMidYMid slice" tabindex="0" xmlns="http://www.w3.org/2000/svg"><rect itemprop="background" width="100%" height="100%" fill="white" tabindex="-1" style="fill: rgb(155, 196, 197); color: rgb(149, 12, 9);"></rect><path d="M0 256v256h684V0H543l-2 3c-2 2-4 3-5 2-2 0-2 0-2 5l1 6c1 1 0 42-1 89v5l-1-6v14c0 16 0 17-1 8-1-11-1-10-1 1l-1 29c-1 21-1 24 1 33a171 171 0 013 31l-1 2c-1 1-1-2-1-5 1-5 0-13-2-23-3-16-3-18-3-43v-26l-1 24-2 36 1 12 2 4c1 6 1 7-3 6l-3 1c1 1-2 4-3 3s1-4 4-5c2-2 3 0 0-23l-3-22c0-4 0-4-9 0a31 31 0 01-8 1l1-1c-1-1 1-2 6-3l7-2 4-1 2-1c2-1 2-3 2-8v-7l-14-1c-13-1-16-2-15-5h21l8 1 4-102V11l-8 8-17 18 27-30h-1c-2 0-2 0-2-3V0H341l-1 19c-1 30 0 48 2 50v9h7c4-2 6 3 5 11 0 4-1 5-2 5-1-1-1 0-1 8v10c1 16-1 43-4 42l-2 8-1 7 4-57c3-27 2-28-4-28h-4v4l-1 15c-2 15-1 24 1 24l1 1v1h1l1-1c3 0-3 40-7 44-2 2-2 1-1-2 1-2 1-2-1-2l-2 1-9 3h-3l-6 2-1 1v2c1 0 1 1-1 4l-3 4-1 3v5c-1 1 1 7 4 14l-1-1-3-1c0 1 2 10 4 13s1 4-2 4c-2 0-3 0-3-2-1-3-1-2-1 2 0 5 0 6 2 5 2-2 1 0-1 4l-2 3h-10l-9 1-2 6-4 5-2 2-1 3c-2 1-2 1-1-1l-2 2-2 6c0 2-1 3-3 4l-4 4-12 8a38 38 0 00-11 9c-1-1-10 4-9 5l-15 11-17 10c-14 9-13 9-12 5l-1-4-1 2c0 1-1 3-4 5a6 6 0 00-4 6l-1-1h-1c-2 1 2 3 6 3 3 0 4-1 4-3l5-5a35 35 0 009-6l13-8c26-17 25-16 25-14s-2 4-23 18c-17 11-25 18-23 18s35-22 59-39a25 25 0 0111-6c2-4 3 1 0 6a15 15 0 00-1 7v29c-1 3 5 3 29 3l25-1c3 0 5-1 5-2h-2v-1c1-2 1-2-1-1-2 0-5-5-3-6s3 0 2 2l1 1c2 0 4-2 3-4l1 1h3l2 2c0 2 5 2 6 0l-4-1c-2 0-1-2 1-3l6-5-2-1 1-1c1-2 1-2-1-2a4 4 0 00-2 0c1-5-7 0-10 6l-3 2-4 1c-3 2-5 1-8-2l-3-2v-5c1-1 3 1 3 4l2 3c2 1 2 0 2-6 1-10 6-22 9-22l2 1 2 1c2 1 3-1 2-5l1-4c1-1 1-1-3-1l-4 1 1-4v-7c0-4 1-5 3-5 1-1 1-1-1-1-6 0-3-4 2-4 6 0 9-2 15-8s6-6 6 2c0 6-3 26-4 24 0-2-8 0-11 2l1 3 1 4 1-4c1-3 1-3 1 2 0 2 0 4 1 3 1-4 2-4 4-2s2 7 0 10l-2 6c0 11-2 15-4 15s-2 2-1 4c2 2 2 2 0 4v2h-3l-2 1a4 4 0 003 1h47l1-1a2 2 0 013-1l-1 1h-1l3 1 6-1 2-1a2 2 0 114 0l3 1 4 1 41 1 81 1 40-1 5-1c8 2 11 2 11 0-1-1 0-1 2-1 9 2 10 2 12-4 2-7 2-8 0-9-2 0-2-1-2-3 0-3 0-3-11-8l-13-4-2-2-7-4c-6-2-6-2-5-9l-1-2v-4l2-3c1 0 0-7-2-13l-2-14c-1-9-1-10-4-9l-2-1c0-2 1-2 3-2l3-1h1v2c-1 1 0 4 2 4l1-2c-1-3 0-3 5-2 4 1 4 1 4 5v4c2 1 3 5 1 5l-1 3 2 2v8c0 8 0 9 2 13s3 6 1 6v9l5 1 6 2v-8c1-7 1-8-1-8l1-1c2-1 2-1-1-1l-4-1v-12l-1 5c0 5-1 5-2 5-3 0-3 0-3-3-1-6 0-12 1-10s2-1 3-11l1-9v7c0 6 0 6 1 1v-5l4 1 4 2v15l2 1c2 1 2 1-1 1-4 0-8 4-4 4l5 1 2-1h4c6 0 6 0 6-2s0-2 1 0c0 3 1 3 3-2a135 135 0 0116-26c1-3 2-4 4-2 1 2 2 1 2-2 0-4-2-5-5-5-2 0-2-1-2-3s0-3 2-3l2-1-2-1c-3 0-3 0-4-8v-19l-2-44c-1-18-1-16 2 13 3 31 4 38 3 19a365 365 0 00-5-53c-1-1-1-1 1-1 1 0 2 0 1 1l2 1c2-1 2-1 2 3l1 18 1 27 4 47c1 6 0 17-1 20-4 7-4 10-2 9l1-2 1-2c1 0 2 1 2 3-1 4 3 4 6 0a45 45 0 0118-15l9-3c12-3 14-4 12-6-3-4-3-5 1-6l10-3c2-2 0-3-4-3s-11-3-11-5c-1-3 0-5 4-5l8-1h5v143h-9l-2-2c-1-5-1-5-5-2-2 1-2 2-2 4s0 2-5 1c-7 0-9-1-9-4l-1-2-3-1c-3-1-4 3-1 5 4 3 0 4-5 2l-4-1c-2 1-4 0-5-1-2-1-4-1-4 2a1 1 0 11-2-2v-1l-2 2h-3l-7 1h-3l-2-1-5 2-4 1h-2c0-1-2-2-7-1-9 0-10 1-8 3h-5c-1 1-1 1-2-1l-2-2-3 1v1h-2l-3-1h-3l-1 3c2 1 1 2-2 2-4 0-7-2-7-4l-6-1c-7 1-9 2-6 4 2 2 3 3 0 3l-2-1-2-2-5-4c-4-4-4-3-9-1l-3 1 2 2c3 3 1 4-4 2s-5-2-3-5v-2l-2 1-6 2a11 11 0 00-8 1l1 2 3 2h-8c-1 1-4-2-4-4 2-2-1-3-5-2l-6 1c-3 0-3 3 0 4 2 1-1 5-4 4v-2c2-2 1-3-1-3-1 1-3 0-4-2-2-2-4-3-7-3-4 0-6 2-4 3 3 2 2 4-1 4l-3-1-2-2c-2-1-2-1-1-2v-2c-1-1-3 0-3 1l-5 1c-10 0-12 0-14 2h-1c2-5-6-6-14-2h-5c-4-2-5-2-10-2-4 0-6 2-2 2l1 1h-3l-2-1h-1c0-2-3-3-5-3-1 1-4 0-4-2a1 1 0 00-3 0l-1 1c-1-1-2 0-2 1s-2 2-3 0a3 3 0 00-4-1l-1-1c1-4-8-5-10-1l-2 1a4 4 0 00-6 3l-1-1-2-1c-2 0-3-1-3-3s0-2-2-2l-3 1h-1l-1 1c1 3 0 3-2 2l-2-1c0 1-1 2-3 2s-2 0-2-2v-2c-1-1-1 0-1 1l-1-1-2-2-6 4-2-1-1-2v2c1 3 0 4-1 2h-3c-3 0-4-1-2-2h2l-2-3-2-2-4 2-5 2 2-5c2-1 0-2-6-3-4-1-4-1-3 1v4c0 2 0 2 1 1l3 1 1 1 1 1-3 1h-4c-1 1-1 1-1-1 1-2 1-3-1-4-2 0-2-1-2-3l-3 2-4 3-1 2h-1l-4-1-3 1 3-2 4-1 2-2c3-2 1-6-2-4-3 1-5 1-7-2-2-2-8-3-10-1-1 2-5 1-9-1a5 5 0 00-8 3h-1l-2 1-2-1h-1c-2 1-2 1-4-2a7 7 0 00-12 1h-6v2c-1 1-1 1-1-1 0-3-8-4-12-2-1 2-2 2-5 0-4-2-10-2-11 0-1 3-3 4-4 3h-4c-2 0-3-1-2-3l-3-2c-4 0-8 1-8 3h-2l-3 2h-4l-1-3a8 8 0 00-9 0l-1 1c0 2-4 1-5 0-1-3-8-2-11 1-2 3-9 2-10-1 0-2-5-3-7-2h-2c-1-1-1-1-1 1l-2 2-4 2c-3 1-3 1-3-1-1-2-2-3-4-3l-2-1c1-2 0-2-1-2l-2 2c1 2-5 4-6 2s-7-1-12 1a13 13 0 01-8 1l-1-2c1-2 1-2-3-2-4 1-4 1-4-1 1-1 1-1 0 0-2 1 0 5 2 5 3 0 3 4 0 4-3 1-6-2-4-4l1-2-2 1c-2 2-9 2-9 0l-2-2c-2 0-3-3-1-3 1-1 0-1-1-1-3 0-5 2-3 2v2c-3 3-8 2-7 0 0-2-1-2-4-2h-3c2-2 0-8-3-7-1 1-1 2 1 3l1 1-7 1c-1 1-1 0-1-2 0-1 0-2 2-3l6-2c4-2 6-2 10-2h5c-1-1-1-1 1-1l12-4c11-4 12-5 12-3v1l-11 5c-10 4-11 4-10 5l33 4 10 1 8-5 12-5a17 17 0 0011-4l8-3 9-3c2 0 1 4-2 6-7 3-3 8 4 5h21c19 2 24 2 7 0-25-3-29-4-23-8 2-2 1-6-2-7-2-1-2-2-2-7v-5c-2 0-1-4 1-6l1-2h-1c0 3-2 2-2 0l1-2 2-2c1-2 0-3-1-3l-1-2c0-2 0-2 1-1 1 4 2 2 3-6 1-10 1-11-1-9-1 2-1 2-1 0l2-2c2 0 3-2 1-3l-2-2c0-2 0-2 1-1 2 2 2 2 2-1 1-3 0-4-1-2-1 3-1-4 2-28l21-181 3-34h-52L68 1l11 9 12 10c-1 0-7-4-13-10L65 0h-6c-6 0-6 0-7 3l-1 4 1-4V0H0v256M256 1l3 8c2 5 3 6 3 4 1-1 1-1 1 1l-2 11-2 9c-2 1-9-8-13-16l-5-9v4a431 431 0 00-6 53c-1 2-3 13-7 48l-2 10 4 2c4 1 4 2 0 1-4 0-6 3-3 4v1c-1 0-2 1-2 6l-2 8c0 2 1 2 5 2l5 1 1 4c0 2 0 2-6 2h-5l-2 10c-1 10-1 10 1 12 1 1 1 1 0 0-2 0-3 1-4 12l-9 68c-2 15-2 16-1 16l46-19 10-5 1-7c3-9 4-21 17-116l15-103h3l4 2 6 2c3 1 4 1 5-4 0-3 1-4 2-4l1-1 3 1c5 3 13 4 12 2l-3-1v-1c2 0 1-1-3-3l-6-1h-1a12 12 0 01-1-9c0 2 3 1 3-1l1 1c1 3 4 6 6 5h2l2-6 2-5h-40l-39 1M0 257c0 140 1 198 1 127a76920 76920 0 00-1-127M376 7l-9 2c-1 1-3 2-4 1l-1 1c0 2-2 1-2-1-1-1-1 1-1 4l-1 11c0 4 0 5 1 4l2-1 1-2c1-1 1 1 1 5l-2 14v8h9l10-2c2 0 9-27 10-37V8l-3-1-4-1-7 1M47 21l-5 10H27c-2 1-6 7-6 13l-2 6c0 4 13 8 27 8 6 0 8 0 7 1-1 2 1 5 2 4l2 1h1c0-2 0-2 2-1 3 2 3 3 1 8l1 2h1l2-2c2-4 2-4 10 1 8 4 11 4 5 0l-4-3h4c5 1 5 1 4-1l-2-3c0-2-8-8-10-8l-2 4-2 4-6-3-7-4 1-1v-6l-1-3c0-4-4-12-8-15l-2-2 2-10 3-10-3 10m224 10l-4 35a5689 5689 0 00-11 78c-2 18-2 23 1 22l1-2c-1-1 0-1 2-1 3 0 4-1 3-3v-1c2 0 2 2 0 4v2l2 1-1 1v1l1 3 1 3c1 1 3-11 9-56l5-27v-2l1-11c0-5 0-5 1-2v-2c0-7 1-17 2-12 1 1 1 0 1-4v-6c0-6 1-11 2-11l1-7-1-6-1 1c0-2-3-5-4-4l-1-1h-1c-1 1 0 2 1 3v4c-2 2-4 1-4-2l-2-3-2-2-2 7M74 37c9 9 32 21 32 18S84 38 79 37h-5m511 34c-7 3-33 20-32 21l5 1c5 0 7-1 21-9 22-13 22-12 14-14-3-1-5 0-8 1m-151 0c-5 1-6 2-12 13-6 12-7 11 2 11 8-1 8-1 17-14 3-4 5-9 4-9-1-1-7-2-11-1m-67 8c-9 1-9 2-10 18-1 5-1 5 9 4l5-1 2-6c4-13 2-17-6-15m218 27c-1 1-3 2-4 1l-1 1c-1 2 2 3 8 3 5 0 5 2 1 4h-2c0-1-1-2-7-3-5-1-6-1-12 2-9 4-19 10-17 10 4 2 10 2 13 0l7-1 3-1c-1-1 0-1 0 0 5 1 21-6 22-11 1-2-2-5-4-5l-2-1c1-2-2-2-5 1m-226 9c-4 1-5 3-5 9v4h4c6-2 7-2 8-6 2-9 2-9-7-7m246 4l-3 1-9 2-10 3c-5 0-12 4-14 7l-4 4-3 3c0 2-6 5-13 6l-8 3-7 2-2 2c0 1-1 2 12-3l12-4v6l2-3 2-1 2 1c2-1 3-1 3 2a2 2 0 01-1 3l1 1v5c0 3 0 4 1 3s1 0 1 4v3c1-1 1 0 1 4v4c1-2 1-1 1 3v4l2 13 3 17c0 2 0 2 19 2h18l-1-11v-10l-5-6-6-6c0-2-2-5-4-5l2 3 1 2c-2 0-4-4-4-6 1-4 1-4 9 3l8 7v30l-1 1-5 1-8 1c-2 1-2 1 0 1a1 1 0 110 1l-3 1h-1l-2-1-2 2c0 2-1 2-3 2-3 0-4 0-4-2l-1-2-1 4c1 4 0 4-2 4s-3 0-2 1l30 1 3-1v1c-1 1 0 3 2 3 3 0 4-3 4-9l-6-90-1-3v6c0 3 0 4-1 2 0-3 0-3-3-2h-6l-3 1-2 1h-6l3-1 2-2 1-1c1 1 11-2 11-3l-3-1-5 1-3 2c-1 1-7 1-8-1l10-4c12-5 12-5 12-2l-1 1-1 3 1 2a17 17 0 001-13l-1-2-1-1M34 131c-2 4-1 8 1 8l9 1c8 0 9 0 6-8-2-3-2-3-8-3s-7 0-8 2m345 3c-14 1-27 5-27 7s3 1 27-2c22-3 24-3 24-5h-24m277 2l-6 1c-4 1-4 1-4 5 0 7 1 7 8 6l6-1v-5l-1-6h-3m-282 8c-16 1-30 6-19 6 9 0 41-5 41-6s-11-2-22 0m202 5l-8 4h1l2 1-1 1c-2 0-2 1-2 3s0 3 2 3c4 0 6-2 4-3l-1-1v-2a2 2 0 011-3c-1 1 2 7 4 7 7 0 12-5 8-7v-3c0-2 0-2-10 0m-179 1l-1 4-2 5v1c2 0 2 0 2 10l-1 12v2c1-1 1 0 1 1s0 2-1 1l-4 1v3c2 0 2 1 2 7v7l-1-5c-2-4-2-4-2-1s-1 4-3 2v-2c1-1 0-3-1-2l-2-6c1-4 0-23-1-23v15c0 14 0 15-3 12-1-1-2-1-2 1 0 3 4 7 8 7l4 1c2 2 6 3 6 2v-6l1-4a2 2 0 003 1c-2 1 0 2 3 2 4 0 4-2 1-2-1-1 0-1 3-1 5 0 5 0 4 3 0 1-1 3-3 3-3 1-2 4 1 4l1 2c0 4 3 4 5-1v5l-1 9c-1 3 12 4 15 2 1-1 1-1 1 2v3l1-3 1-5c-1-2 0-3 1-4v-2c-2-2-2-2-1-4 2-2 0-20-3-22l-5-1c-3 1-5 0-7-2-3-3-4-2 0 1 3 4 4 5 1 5-2-1-5 0-5 1l2 1h1-3l-1 1-2-1c-2-2-2-2-3-1s-1 1-1-2c0-2 1-3 2-3h1c0 1 1 2 2 1 2 0 3-3 1-3a20 20 0 01-5-1c-3 0-1-3 1-4h3l-3-1-5 2c-3 3-5 4-5 2l2-1c3-1 3-4 0-4-2 0-2 0-2-5v-13c0-6 0-7 2-8s2-1 0-1h-3m-29 1c-15 2-23 6-12 6l34-5c4-2-7-3-22-1m-2 7c-11 1-17 3-14 4v1l-2 1 2 1c9 0 40-6 32-6l1-1h-19m125 7l-5 1-6 2-11 4-10 4 2 1c2-1 2 0 3 8a207 207 0 004 19c0 3 3 4 3 2l-4-25c-1 1-3-5-2-5l5-2 7-3 4-2 1 2 3 18c2 13 3 17 5 20s3 8 1 10l-1 5v6l1-6 3-7 1-3c0-2 0-3 3-2l9-2v-2c2-3-1-5-5-5s-4-1-4-4c0-10-2-21-4-20a10 10 0 01-2-14h-1m-132 4c-7 1-8 1-8 3l2 3 1 1c0 2 0 3 2 3l2 3 1 2 1 2c-1 4 1 5 5 4l2-2c-2 0-3-2-1-4 1-1 1-1-2-1s-4 0-4-2l-1-6 7-1 9-2h-14l-8 1 11-2 13-2h-18m80 12l-4 2c-2 0-2 3-1 14 1 5 1 5 1 2s1-2 2 5l2 11c-1 1 0 2 5 1 6 0 6 0 6-4l3-5c2-1 2-2 0-10l-1-9-1-1-2-2-3-2c-1 0-2 0-1-1 1-3-4-4-6-1m132 0l4 30c0 2 0 2 10 2h9v-4l-2-7c0-4-21-24-21-21m-216 37l-2 3c0 4-11 9-17 8h-5l4 2 5 2 4 1h2c0 1 1 2 2 1v-5h2c0 2 6 8 9 7a40 40 0 0119 5l-1-1-1-2c1-1 1-1 0 0l-4-1-3-2h12l2-2h-5c-4 0-5-1-5-3 0-3-2-4-2-1l-2-2-11-12-3 2m-111 20c-2 9-2 8 0 10 5 2 16-3 16-7l1-4c0-3 0-3-1-1-1 1-1 1-1-1s-1-2-9-3l-5-1-1 7m217-2l3 3a3 3 0 013 3c2 0 0 10-3 13s-4 6-2 7h3l1-1 1-1 1-1a1 1 0 112 0c0 3 3 0 3-3l-1-4-2-1h1v-4a5 5 0 00-3-4c1-2 0-4-4-6l-3-1m62 6l-1 3c-1 2-1 8 1 12 4 6 7 8 7 3v-2l1 2c2 3 4 4 4 1v-3c2-4 0-5-2-2-1 2-2 2-3-1l2-4a3 3 0 001-4l-4-3a5 5 0 01-6-4v2" tabindex="-1" itemprop="light" style="fill: rgb(84, 156, 89); fill-opacity: 0.335; fill-rule: evenodd; color: rgb(76, 32, 72);"></path><path d="M0 164v163h4l7-4c8-4 17-8 23-8l24-7 20-6 2 1c3 0-1 2-16 7l-17 7c0 2 8 1 17-2s14-3 7-1c-14 5-14 5 5 7l13 1 8-4 12-6c5 0 8-1 10-4l3-1 8-3c8-3 11 0 5 5-4 3-2 4 8 4 7 0 8 0 4-1-7-1-8-2-5-6s2-6-3-7c-4-1-4-1-1-22A19680 19680 0 00170 4V0h-15l-2 19c-2 20-3 25-5 23V31l1-11-2 10a133 133 0 01-4 22v1h-3c2-1 2-2 1-2l-1-4-3-6c-1-2-2-3-1-4 1-2 1-3-1-3l-1-2c1-1 0-1-1-1l-3-1h-3c-2-1-5-1-5 1v1c-2 0-3-2-2-2 2-2 1-3-1-3l-2 2-2 2c-2 2-4-2-3-6a503 503 0 002-21V0H68l12 11 13 10c-1 1-5-2-16-11C60-4 59-4 54 11c-3 12-4 11 0-1 2-9 2-10 1-10a11 11 0 00-3 9l-6 21c-1 3 2 2 3-1l1-2-1 4c-1 3 5 10 11 11l6 3 4 2 2 3c0 2 1 2 3 0s6 0 8 5l2 2 3 7h-1c-2-1-2 4 0 5v3c-2-1-3 2-1 4 3 2-2 1-10-4l-9-4-2 5-2 4 2 1 9 5c7 3 9 5 3 3l-4-1h-1l-4-2-3-1h-8l1-4-1-4-1-2c0-3-1-3-4 1l-2 1 1-2v-3h-1l-1 1-3-4-2-2-1-2c0-2-3-4-5-4l-1 2-1 3c-1 1-1 1-1-2 1-3 1-3-5-4-10-3-11-4-10-9 2-15 5-20 17-19l7 1 1-6 4-15c3-8 2-12 0-7l-1 3V2l1-2H0v164M273 4c0 3 0 3-3 3s-3 0-3 3c0 2 0 2 3 2a2 2 0 013 2l1 3c0 1 1 2 5 2 11 2 11 2 10 9a3944 3944 0 01-20 145v2l-1 5v5c0 3 0 3-1 1v3c0 3 0 5-1 4-1-3-2 6-2 12v2c-1-2-1-1-1 4v7c0 4 0 5-1 4v3l-1 5v3l-1 8c-1 5-1 6 1 4h1c0 2-25 11-46 18-8 2-8 2-8 6l-1 4c1 1 52-21 55-24 3-2 4-4 24-152 10-74 10-80 12-77h1c0-1 1-1 3 1 5 2 12 1 12-1 2-4 3-14 2-17V0h-43v4m360-3c-2 1-2 2-2 3v2l-1 1-2 1h-3c0 2 0 3-1 2l-1 1c1 1-1 3-2 4l-1 2a1 1 0 11-2 0l-1-1-1 1c1 2 0 2-2 2v2h2c2-2 2-2 3 0 1 1 1 1 0 0h-2v3-1l-2-1h-3c1 1 0 3-1 4l-1 1-1-2c-1 1-2 0-2-1l-2-1-2-2h3l-4-2c-2 0-2 0-1-1l1-2h-1l-1 1h-1l-1 1-2 1c1 0 0 3-2 5a22 22 0 00-2 14l-1 3-1 1h-1l-11 4c-4 0-2 3 2 3 2 0 3 0 1 1l-2 1-1 1-2 1-2 1c-2 1-2 0-2-2s0-3-2-4-2-1 0-1l2-2h-2l-1-3c1-2 1-3-1-3v2l-3-1v-1l-1-2-1 1-1 3h-4v-1l2-1 1 1v-2c-2-2-3-3-3-1l-1 2-1-1-1-1c-1-1-1 0-1 1v1h-1l-2-1c0-2-2-2-2 0l-3 1c-2 0-3 1-3 2-1 1-1 1-1-1l1-3c2-2-1-1-4 1l-3 3v20l-2 51-1 34 1 3 4-2 14-5c7-2 10-4 10-5l5-5c5-5 5-6-7-6-9-1-13-2-10-3l3-2 3-2 3-3 2-4 7-5 2-1 1-1c-1-1 0-2 1-3V92h-4l-12 1h-5l2-2 5-4 8-6 7-5c4-3 11-6 13-6v-1c-2-2-2-2 1-4 5-3 6-3 2 0-3 2-4 3-1 3 3-1 10 1 10 3l-2 11c-4 18-2 27 5 23l2-2V92l-2-15c0-5 0-6 2-6 3-1 3-3 0-4-2 0-2-1-1-3l3-4 4-4 4-2v3c1 4-1 12-3 14v1l2 1-3 11-3 11-2 2h2c2 0 2 0 1 2l-1 4-1 3-2 4-1 4c-1 3-1 4 2 3l2 1 1 1c1-1 2 3 2 12l1 20 2 37c1 28 2 33 3 31v-3l-1-17-3-64c-1-8 0-10 1-3v-8c-1-2-1-2 1-2l2 1 2 1c2-1 2 0 2 6l2 24 1 18c0 2 1 2 2 2 2-1 3-1 3 2 1 3 1 3 2 2 1-2 1-2 1 1s0 3-1 2-1-1-1 1l1 6c0 3 0 3 1 2l2 8 5 38v4l4-2 7-5 11-4c11-2 12-3 9-5-3-3-1-5 6-7 8-2 9-5 2-5-6 0-11-4-11-8 0-2 2-3 11-3h7v-38c0-34 0-38-1-36l-2 3v-4l1-4v-2c-3-1-2-4 0-6s2-3 2-53l-1-52-13 7-13 8 14-9c13-8 13-8 13-12V0h-43l-3 3-3 2c-3-1-2-3 0-3 1 1 2 0 2-1h-3M504 13l-9 10-5 6-1 1v-1l-5 4-8 6-2 3-3 3-2 2-1 1-1 2-1 2-3 5a111 111 0 01-9 18l-8 11-6 4a41 41 0 00-8 4h-1c-2 0-2 0-1 1s-1 1-5 1l-8-1a35 35 0 016-19l-3 3c-1 3-3 4-5 4s-2 0-1-2l1-2h-1c-1 1-1 1-2-1v-3h-1c-2 1-2 1-2-1v-1c-1 1-3-1-2-2l2-1c1 0 2 0 1-1l2-1h2c-1-2 0-3 1-2h1l-7-1c-5-1-11-2-11-4h2c1 1 1 1 0 0l-3-1c-1 1-3 0-4-2-2-2-3-2-6-1-2 1-3 0-4-1h-3l-7-1c-12 0-12-1-12-5 0-3 0-4-1-3l-1 1h-1c-1 1-1-1-1-7l-1-8c-1 0-2 4-1 6v3l-1 5-1 3-2-1-3-4c-2-2-2-3-1-4l-1-4a9 9 0 01-2-7l-1-2-2 7c-2 8-2 29 1 31 1 1 2 6 0 8-2 3 0 4 5 4 6-1 7 0 8 7 1 4 1 4 1 1s0-4 1-3v-1c-1-1-1-2 1-2a26 26 0 0118-2v2l1 2v5l-1 5-1 3-2 3v1c3 0-7 3-12 3h-5v-5c0-5-2-7-2-3-1 6-3 26-2 27l-3 34c-1 10-1 12 1 8 0-2 2-3 3-3l-1-2c-3-2-2-3 5-5l6-2h-6c-5 0-7-2-5-3 2-2 3-5 1-5-3-2 2-8 8-8l12-3 11-1 10-3c2-1 2-1 3 1 0 2 1 3 3 4 3 0 4 3 1 3l-3 3c0 1-1 2-3 2-3 0-3 0-1 1 5 1 0 5-8 5-3 0-5 2-2 2 7 0 10 3 4 4l-6 4h4v1l-1 2-3 2c-3 0-3 0-2 1 3 2 1 3-2 3s-3 0-1 1c3 1 1 3-3 3-2 0-2 0 0 1 4 0 2 2-4 3l-3 1 3 2c2 1 4 0 3-2-1-1 0-1 1-1l3 3c1 3-5 10-10 12l-4 3c-2 2-3 1-2-1l-2-2v-1c2-2 1-5 0-3-1 1-2 1-1-2 0-2 0-2-2-3l-3-2c0-3-3-6-5-5v-1l-2-1h-2l-2-1c-1 1-2 1-2-1-1-1-1-1-1 1l-1 2h-1c-2 2-4 1-3-1 0-2-3-1-7 1l-6 2-6 1h-1v4l-2 2-2 4-2 3h1v2c-1 4 0 8 2 15 1 2 1 2-1 1-2 0-2 0-2 2l2 3 1 1c1 0 2 1 2 3v5c1 2-4 4-6 2l-1 1 4 1h2l-4 6c-3 5-4 6-7 7l-4 2h-2l-5 2-4 1 1-1 1-1c-1-1 0-1 0 0l3-2c1-1 1-1-1-1h-2l3-1c2-1 2-1-1-1-4 0-5 1-5 6l-2 4h9c0 2 1 2 2 1 1-2 5 0 5 2s-4 3-6 1c-2-3-14-2-13 1v5c1 4 0 3-2-1-1-6-5-1-6 8h-1l-1 1-8 7c-8 5-12 8-8 8 3-1 2 2-4 6l-6 5 10-6 13-7-2 17v31h20c24 0 28 0 28-3 0-2 0-2 1-1l3 2c0-1 0-2-2-3l-2-4-2-2c-2 0-3-1-3-2 0-2-2-1-2 2 0 6-2 7-2 1-2-9-2-10 0-12l2-5c0-3 1-5 2-5a2 2 0 002 3c2 1 2 0 5-7l4-8c4 0 10-6 6-6l-1 1h-3l-2-2c3-9 3-11 1-15l-3-5h15l4-4c6-5 5-9-4-11l-9-3-6-2c-2 0-2 0 0-2l1-3 3 3c2 1 3 2 7 2s4-1-2-2c-2-1-9-6-8-7l4 1c7 3 15 4 17 2h2c2 3 11-2 12-7l2-2 1-3h9l2-1v-2l1-3v1c0 2 0 2 1 1l1-1h1c3 2 5-1 5-5s5-4 6 0l3 2 4 2h6c1-1 1 0 1 2l1 6a9 9 0 00-10-12c0 2-2 1-6-4-3-4-4-5-3-7 0-2 1-2 1-1 3 4 4 1 4-8s-1-12-3-9l-2-1 2-1c2 0 2-1 2-3 0-3 0-4 2-4 1 0 2 0 1-2l1-1v7c-2 3-1 18 1 18v-1c-1-1-1-1 1-1a2 2 0 003-3c0-1 1-2 2-1l1-1 1-3v-11c1-8 1-8-1-7l-2 3-2 2c-2 1-3 0-1-1l1-4c0-2 0-2 2-2 2 1 3-1 3-5 0-3 2-5 5-5 2 0 2 3 0 6-2 2-3 23-1 23l2-3c1-2 1-2 1 1 1 3 1 3 3 2 4-2 7 0 3 3l-1 2c2 1 4-1 4-4l1-3 1 4 1 4v-1l6 2c1 2 5 0 5-2l-1-5c1 1 1 1 1-1s1-3 2-3c1-1 1-1-1-1h-3l-4-1-2-1h12v15l3 4v-2c0-5 0-6 2-6v-1l-2-1h2c1-1 1-1-1-1s-4-2-2-2c3-2 0-6-4-7-7-1-5-3 3-3 9 0 13 2 9 4l-2 1 5 1c4 1 3 2-1 2h-4l-1 4 1 2 1-1v-2a1 1 0 112-1l2 1 5 3 4 3c1-1 2 6 4 17 0 4 0 5-2 7s-3 7-1 7c1 1 0 1-1 1-4 0-6 1-5 2l-3 1c-3 0-3 0-1-1 1-1 1-1-1-1-3 0-4 3-2 5l1 2c0 2 3 2 3-1h1c0 4 7 2 8-1 0-3 0-3-3-3s-2-1 2-1h3l-1 5c0 3 0 3 4 3l4 1 1-5v-6h2l1-2c0-3 0-3 2-2 3 2 4 3 2 3l-3 2c-2 2-2 2 2 2 5 0 5 0 4 3-1 2-2 2-2 1-2-3-4-2-4 1l-1 4-1 2c0 2 0 3 5 3h6v-7l1-7h1l6 1c6 0 7 0 6-1l1-2c2 0 2-4 0-7-3-4-5-12-5-18 0-3-1-4-4-2-1 1-1 1 1 2v1l-3 1-1-1c1-2 1-2-1-2-2 1-5-8-5-13 0-4 5-5 8-3 2 3 1 4-2 4s-3 0-4 2h1c1-2 3-2 3 1l-1 1c-2 0-3 3-1 3 1 1 8-1 8-2l-1-1v-3l-1-5-1-2 1-2c-1-1-3 0-8 2l-8 3v1l3 11 2 14c1 5 1 5-2 5-2 1-2 1-5-16-2-15-1-14-7-13-6 3-9 3-6 0l4-2 5-1 9-4 10-4 10-3c5 0 8-1 11-3l9-5 11-3 4-1v-6c0-5 0-6-2-6-16 0-23-1-26-3-2-2-2-3-1-4l1-2c1-2 12-2 15 0h4l6 2 3 1v-7c2-15 3-81 2-82l-1-5-2-5-6-1-1 1c-3 2-3-3 0-6l3-5c0-2-12 9-15 14-1 2-4 3-4 2l8-10 8-9-7 6c-7 8-12 11-9 5 2-5 1-4-4 1-4 4-7 5-6 3v-1l8-13c10-13 13-19 6-9m-263-3l-3 25c-3 23-3 26-2 30v1c-2 0-2-1-6 31-4 30-4 27 2 29l4 2-2 1c-5-2-8-2-8 0l3 2 2 1h-2c-3 0-4 0-4 9l-1 7h4c4 0 5 0 6 2h1a2 2 0 013-2l1 2v2l3 1c2 2 2 2 2-1v-7c-2-2-3-3-1-3h3l-2-1-15-4h10c7 2 7 2 9-12 1-13 1-13-1-16l-1-3 1 1c2 5 3 2 5-19l5-37c2-14 2-16 1-17-3-1-8-7-12-15l-5-9m397 6a346 346 0 01-26 18l-1 1c-2 0-8 6-8 8h2l1 1-2 3-2 2c-1 2-1 2-1 0 0-3-2-2-2 1-1 4 0 4 2 3 4-1 9-4 12-7l6-4 4-2 5-4c2 0 3-1 3-2l1-2 1-2c1-1 2-2 3-1 2 0 2 0 2-2l2-2v-1l-3 1-4 1-3 1-1 1v-1l3-3 2-1 5-3c4-2 6-5 2-5l-3 1M73 37c2 3 26 18 29 19 8 1 5-2-8-11-10-7-11-8-17-9-4 0-5 0-4 1m514 15a393 393 0 00-11 8l-7 5c-2 2-6 5-8 5l-9 8a48 48 0 01-8 7c-2 2 4 1 10-2l25-17 5-2c7-2 9-6 7-12v-3l-4 3M461 81c-11 12-16 18-21 26l-2 3 5-4c6-6 18-18 22-25l6-8c3-2 4-5 2-5l-12 13m-120 4v6l-2 16-1 13h8l1-9 1-11 1-8v-7h-8m329 28c-1 2 3 37 4 37l2-4c1-5-2-32-3-31l-1-1c0-2-2-3-2-1m-313 2c-2 1-3 1-3 7-1 7-1 6 5 6 6-1 7-2 8-11 1-3-4-4-10-2M33 131c-2 7-1 9 12 9 6 0 6 0 6-3s-3-8-5-8l-6-1c-5 0-5 0-7 3m618 5c-4 1-5 2-5 3v6c0 5 1 5 9 3 5-1 5-1 5-5 0-8-1-9-9-7m-108 14l-11 3v15l2 24c2 8 2 12 1 20-1 14-1 14 14 13 16 0 16 0 15-8a525 525 0 00-7-61c-1-3-1-3-4-2s-3 4 0 4c2 0 2 0 1 1l-2 1c-1 2-4-3-4-6s5-5 6-3l1-2c1-4 1-4-12 1m19-1c-4 0-5 1-4 2l7 54c1 12 3 16 5 16 3 0 3 0-5-56l-1-14c1-2 0-3-2-2m-93 1c-3 3 1 7 7 6h9c6 0 7-1 5-4-1-2-20-4-21-2m-33 4l-3 5-1 4c-3 1-1 3 3 3s4 0 4-2v-3c2 0 4 0 4 2 0 1 0 2-1 1l-2 1c0 1 3 2 14 3l7-1-2-1a78 78 0 01-6-1l-2-1c0-2 4-3 6-2l8 1c2 0 1-3-2-4l-4-1-1 1c-1 1-5 1-6-1a13 13 0 00-12 0l-5 2h-1l3-3 2-2c0-2-1-2-3-1m69 9c-12 3-14 4-14 6s0 3 2 2c1 0 2 0 2 3l4 28 4 1c6 0 8 6 3 8-3 2-6 2-9 1-2-1-2-1-1 1l1 2c2 0 1 2-1 2-3 1-4 2-1 4l3 1h-3c-1 0-2 1-2 3l-1 2c-1-1-1 0-1 2 0 5 7 6 9 1 1-6 6-10 12-10l5-1v-5c1-6 2-9 5-9 2 0 2 0 2-2l-2-13c-1-12-2-13-4-10-1 1-3 2-4 1l-1 2-2 2c-2 0-2 0-2-2 1-1 1-1 0 0-3 2-5-1-4-6l1-7v-2l1 3c0 4 1 5 3 4h4c6 2 6 1 5-7-1-10 0-10-14-5m-278 2l-3 4-1 3-2 2c-1 1 0 1 1 1 4 0 4 3 1 3-4 1-4 1-10 53a606 606 0 01-4 28l6-1 7-2c2 0-3 3-5 3l-8 3 16-4c15-6 15-6 15-8l1-4 4-17-5-3-5-2 2-14c3-17 3-17 0-17-2 0-2 0-2-7v-8h-3c-5 0-6-2-4-11 1-6 1-7-1-2m344 19a5759 5759 0 004 28l5 1c4 0 6-2 2-3l-2 1v1c-1 0-2-1-2-7l-1-4 4 4c5 4 6 5 6 2 1-1-1-3-3-6a20 20 0 01-6-11l1-2-4-4-4-4v4m-527 7l2 1h1l5 2c2-1 4-1 3 1h1c2-2 4-3 4-1-1 1 3 2 5 1 1-2 2-2 3 0h2c2-2 6-1 6 0l3 2a3 3 0 013 3h1v-1l1-2 3-2c1-2 1-2-4-2l-23-2H44m359 8l-1 3-3 3c-2 0-2 0-1 3l1 5c0 2 0 2 1 1s2-1 4 1l4 2c1 0 1 1-2 1h-13c-3-1-4-1-3-4 0-2 0-3-2-4-4 0-11 0-10 2h2c2 0 4 3 4 7 0 2 1 3 2 3l8 1c5 0 5 0 4-2h1l6 1h4v4c0 4-1 5-2 1-1-3-11-4-23-2-7 1-10 0-10-3 0-2-3-5-5-5l-1 3v3l-5-3-4-3 4 4 6 7 2 1-1-3c-1-1-1-1 1-1 1 0 2 1 2 3v4l18 1 19 2 1 26-1 1v1c1 0 2 1 2 3v24l-1-5c0-9-1-15-3-15l-1 2c1 0 1 1 0 0l-3 2h-1c1-3 0-2-2 0v2l1 1v1h-2c-2 1 0 12 2 13s3 2 3 4 0 2-1 1c-2-2-3-1-3 4v8c-1 1-1 2 2 2 5 1 4 5 0 4a11 11 0 01-7-3l-3-1 3-3 2-3 1-2 1-3c0-3-4-3-4 0l-1 1c-2 0-1-4 0-5 2-1 2-15 1-16s-5 2-5 4l-2 3c-2 2-2 5 1 9 2 2 3 5 1 5l-5-8c0-4-1-4-7-1-4 3-4 3-4 1s4-6 6-6c3 0 3-2 1-8a23 23 0 01-1-10l-1 5c-2 10-6 16-8 11 0-1 2-4 3-3l1-1c1-1 0-2-1-1-1 0-1-2 1-7 0-2 1-3 1-1h1v-3a7 7 0 01-4-4v-1c-1-1-1-1 1-1 2 1 3 0 4-2 3-8-1-14-7-12l-3 1v19h-3l-7 1c-4 2-4 2-4 0l-1-1c-3 0 0-2 5-3 8-1 10-6 7-12l-4-4-1 1-1-2 2-2c2 0 2-1 1-4 0-3 0-3 2-3 2 1 3 1 3 3 0 3 0 3 3 2 2-1 4 0 6 1l4 1c1-1-6-5-8-5h-2a16 16 0 00-13-3v3a18 18 0 01-1 10v1h1c1-1 2-1 5 2l4 4-4-1-5-2-3-1-1-2-3-3c-3 0-4-4-1-4l1 2c-1 1 0 1 2 1s3 0 2-1v-2c1-7 1-9-2-10-2-2-3-2-4 0l-1 2-1 2-1 7c1 3 0 8-1 14l-3 13c0-2-1-2-4-1-2 1-3 2-3 4v3l2-4c2-3 3-3 3-1l1 2c2 0 1 11-1 13l-1 5-2 15c0 1-1 2-3 2l-2 1 2 2c2 3 2 3 1 5l-2 2h1l2 1h1l1-1 1 1 1 1c4 1 4 1 2-2-3-3-3-5 0-5 1 0 3 1 4 4 2 4 6 5 14 3h5c2 2 10 1 13-1 2-2 2-2 5-1 5 2 8 1 8-1s3-3 4-2l1 2c0 2 1 2 3 2s2 0 1-1l-1-4v-2l1 2c0 2 0 2 1 1 1-2 1-2 1 2v4l8-1h30v-3l-2-18-1-16v2l-1 3h-4c-2 0-2 0 0 1l3 1 1 1h-6v3c-2-1-4-2-3-4l-1-1h-1v4c-1 1-3-4-2-5l-3-1-1-2h2l2-1h-1l-1-2-2 2-3 3v-8l-1-13-1-6h5l19 1c14 1 9 0-14-2h-10v-4l-1-13a23 23 0 00-2-10l10-1c14 0 14 0 15-10l1-10h1v-4a4 4 0 00-6 2c4 1 5 5 2 6l-3 6-2 6v-2c2-5 1-5-3-4l-7-1-4-1v-15c-2 4-5 4-5 1l-1-3h-3c-2-1-2-4 0-4v-2l-1-1-2 1m170 28v3c1 2-5 2-6 1l1-1 1-1-3 2-3 2h4l5 1h1c0 2 40 3 43 1 2-2 1-3-1-2-4 3-9 2-7-1h-1l-17 1c-13-1-17-2-14-3l-1-4-2 1m-9 11l1 3 1 3-1 2-1 3 2 2 1 6c-1 8 0 15 2 15l1 6c0 5 0 5 1 1 0-5 1-6 2-3 1 2 1 2 3 2 1-1 1-1 1 1v2l1-5h2l1-1-4-1-3-3h-1c0 2-1 2-3 1-2-2-2-12-1-18v-3c-1 1-2-2-2-10l-1-7c-1 0-2 1-2 4m14-1l3 2c2 1 2 1 2 9s0 9 2 9l3 1c1 0 2-1 2-3l2-3c1 0 2-1 2-3 0-1 0-2 1-1l2 2 1-2c1-1 1 0 1 1l2 4 1 1-1 1h-1c-2 2-3 0-2-2l-1-2c-2 0-3 4-1 4v7l1-3c0-2 0-2 1 0l1 2c1 0 13-21 12-22l-14-1-16-2-3 1m-182 17v2l-1 1-2 1 1 1 1 1c0 1-1 2-2 1-2 0-1 0 2 7l5 6 1-1v-1l1-1 2-2 1-3c-1-3-1-3 1-3l3-1-5-1c-7 1-10-1-7-3 1-1 1-1 0 0l1 2 1-2-1-4h-2m153 0c-3 1-4 5-2 5 3 2 1 4-2 3h-4l-5 1c-5 1-4 1 2 1 7 0 7 0 5 2l-2 1v2c-1 3 0 3 2 0h1v3c2 1 2 2 1 3h-1v-2l-1 1-1 3 2 4v2l-1 4-3 7-1 3v1a20 20 0 00-2 16c1 1 1 2-1 2-1 1-1 1 0 0 1-2 0-5-2-5h-1v1c-1 1-3-5-2-6l-1-1c-1 1-1 0-1-1h2c2 0 2 0 0-2s-3-4-3-8l-1-5v-6c2 1 1-2 0-3l-2-5-1-5v2c3 30 4 45 2 45a1 1 0 101 2l1 1c-2 3 1 4 14 4h13l-1-2v-1l-1-2v-5l1-10c0-6 1-6 3-6h2l-2-1c-4-2-6-8-3-8v-1c-2-2-4-17-4-28v-7l-1 1m-183 20v6l-1 2-6 2-4 3c0 2 0 2 2 2l8-1c-1 1-2 4-1 5s1 1-1 1c-2-1-4 2-3 4 1 1 0 1-1 1v1l2 1h1c0-2 3-1 5 1 3 3 4 3 4 0s-4-5-5-4c-2 3-1-1 2-6a14 14 0 002-9c1-2 0-3-2-2v-3c1-1 0-8-1-8l-1 4M10 326l1 2H7c0 2 1 2 2 2 3-1 4 1 2 4-1 2-1 4 1 4s1 2-1 2l-3 2-1-2-2-4-2-3-1-1c-1 1-2 20-2 90v90h684v-90l-1-76c0 12 0 14-1 12s-2-3-5-2-3 1-2 3c3 4 1 6-4 4h-6l-1-1-1-3c-1 0-2-1-1-2 0-2-3-4-5-3-4 2-4 5 0 5 2 0 3 1 3 2l2 1 1 1h-13c-5 0-7-1-8-4h-3c-2 1-3 3-2 4 0 2-14 1-15-1v-2l-1-1-1 1-3-1c-4-1-4-1-4 1l-1 3c-6 1-10 1-10-1h-1l-4 2-5 2c-2 2-4 1-2-1 1-2 0-2-4-1l-16-1c-3-2-11-2-11 0v1h-9c-4-2-10-2-10 0 1 1-1 2-2 0l-3-1h-7l1 1h1l-2 3c-1 4-7 2-7-2 0-2-2-2-4-1l-5 2c-6 0-8 1-9 2 0 2-5 1-5-1 0-3-2-4-6-3-2 1-3 1-5-1l-10-1c3 3-2 3-6 1-1-1-2-1-4 1l-4 2-1 1a1 1 0 01-2 0l-1-1-1-1 2-1c3 0 2-2-1-3l-6 3c-2 2-2 2-3 0h-2l-2-2c-2-2-12-3-14-1-1 3-5 3-6 1-1-3-2-3-5-2l-5 1c-2-1-2 0-2 1 1 1-1 2-2 1l-4-2-2-1c0-1-1-2-4-2l-4 1h-2c-3-1-3-1-3 1 0 3-4 4-6 3l-2-1a1 1 0 111-2c1 1 1 1 0 0s-1-2 1-3h-1c-2 1-2 1-2-1l-1-1-1-1 1-1c5 1 6 1 7-1 2-2 2-2 0-3-2-2-2-2-2 0s0 2-1 1l-1-1-2-1c-2-2-5 0-4 2 2 2 1 2-2 1h-3l-2 1 1 1h3l6 6c0 1-9 1-11-1-3-1-3-1-2 1l-1-1c-2-2-6-2-7 0 0 2-1 2-2 1h-5c0 2 0 2-1 1-2-2-2-5-1-5 3 0 4-4 2-4h-1c0 1-1 2-2 1l-3 1-3-2c-2-2-3-3-4-2s-3 2-5 1-2-1-2 1l-1-1-1-2v2c0 2 0 2-2 1a6 6 0 00-4-2h-10c-2-1-3-2-2-3l1-1c-5-1-7 0-4 2 2 1 1 2-3 1h-3c-1 1-9 0-10-1-2-2-6-1-8 2-2 2-2 2-3 1l-3-2c-3 0-5-1-4-3h-3l-3 1c-1 3-3 1-3-3v-4l-3 2-3 2-1 1 2 1 1 2c0 2 0 2-1 1h-3l-2-2-2-2-3-1-3 1-2 1-1 2c0 2 0 2-2 0h-2c-1 2-7 2-8 0-2-3-5-3-6-1l-4 1h-1c0 2-2 1-2-1l-1 1c-1 1-1 1-2-1a4 4 0 00-6-1l-3 2-3 1h-7l-2-2c0-4-6-4-9 0-3 3-3 3-4 2-1-2-1-2-3-1h-1l-1 1c-1 1-1 1-4-1s-7-3-8 0h-5c-1 1-2 1-3-1-2-2-5-3-6-2h-5l1-2v-2c-1-1-6 1-6 2l-2 1c-1 0-2 0-1 2l3 1 2 1-4 1c-3 0-4-1-3-2 0-2 0-2-2-2a26 26 0 01-6-1l2-2c4-3 2-4-4-2l-3 1-2 1-1 1-2 1-3 1c-2 0-2 0-2 2 1 1 1 1 0 0l-7-1c-1 2-8 2-8 0s0-2-7 0c-3 0-4-1-2-4 1-2 0-3-3-2a10 10 0 00-7 8c-1 1-1 0-2-1-1-2-2-3-4-3s-3 0-2-2l1-1 1-1-1-1c-1-1-2 0-2 1l-1 1h-4l-2 1c-4 3-12 2-12-2 1-2 0-3-4 0-5 2-5 3-2 4 2 0 2 4 0 4h-2c-1 2-3 0-3-2s-1-2-5-1c-2 0-4 0-3-1l1-3c1-3-2-3-8 1-5 3-9 2-7-1s1-4-2-3c-4 1-5 1-3-2 3-2 2-3-1-4-3 0-4-1-4-3s-1-3-2-3v1M0 423c0 49 1 69 1 44a9060 9060 0 00-1-44" tabindex="-1" itemprop="regular" style="fill: rgb(231, 4, 4); fill-opacity: 0.303; fill-rule: evenodd; color: rgb(106, 108, 108);"></path><path d="M0 92v93h2l16 2c34 2 78 6 78 7l1 19 1 19-2-3c-3-3-7-4-6-2l-5-1v-1c1 0 2 0 1-1h-2c-2 2-2 2-3 0-2-1-2-1-2 1h-2c-2-3-5-2-7 2l-3 2-1 1c1 1 0 2-2 3s-3 1-2-1h1l1-1c-1-2-3-1-5 1s-2 2-3 1c-3-3-7-3-6 0l-2-1a6 6 0 00-5-3c-2-2-3-2-4-1s-1 1 1 1c1-1 1-1 0 0a4 4 0 01-6-2l-4 1c-3 0-3 0-3 2l-1-1-3-2v-2c0-3-2-7-4-7-1 0-2 0-1 1l1 1c0 1-3 0-5-2-2-3-3-2-2 0l-1 3c-2 1-2 1-1-1s1-2-1-1-3 1-4-1c-1-1-1-1 1-1 2 1 3 0 3-2 1-2 0-2-4-2H0v114l5-2 7-3c5-3 18-8 22-8l18-5c14-5 15-5 8-6-2 0-3-1-3-3s1-3 3 0c2 1 4 1 5-1l3-2h3l3-1-2 2c-2 3-3 5-1 3h8c0-1 4-8 6-7l1-1c-1-1 0-2 1-1l1-2c0-2 1-3 2-3l1-1v-2c1-1 4 0 4 1l-1 1v1l2-1 1-2 2-1c1-2 2-2 3-1l-1 1h-1l2 1c1 1 1 0 1-1 0-2 0-2 1-1h2v-1l-1-1c0-3-1-2-4 0-2 1-3 2-4 1-2-2-3-1-2 1 1 1 1 1 0 0-3-2-3-5 0-4 3 0 3 0 2-1h1c2 2 4 2 4 0l2-2v-1c-4 0-1-2 5-4h8v3l-1 2-1-2h-5c-2 1-2 1 0 0a2 2 0 111 3l1 1c2 1 2 1 1 2l-2 2v2c1 1 2 2 3 1l1 1 2 1c2-1 2-1 1 2v4l-21 7a190 190 0 00-33 14l15-5a155 155 0 0126-7l10-3-16 7-9 3-12 5c-17 6-17 6 0 8 11 1 11 1 14-1l3-2 5-2 8-4 6-1 2-1 2-1c-1-1 4-3 5-2l7-3c8-3 13-2 7 4-4 3-3 5 5 5 4 0 6 0 5-1-8-1-9-2-5-7 2-3 1-5-3-6-4-2-4 2 1-41A20446 20446 0 00169 3l1-3h-14l-1 8-5 37a3602 3602 0 01-8 66l-2 8v2c1 2 0 5-2 5l-1-1 1-1v-9l-1-5-1 18v10h1l-1 2v1l-1 10-2 13c0 3-1 4-2 4-2-1-2-1-1 1 1 1 1 1-3 1-6-1-9-3-6-5 1-2 1-2-2-3l-4-1c-1-1-5-2-22-2l-6-1-8-3h-9c0 2-3 1-5-2-2-4-3-4 0-3h4l23 6c3 1 4-1 4-8l1-7 1-9a997 997 0 013-22v-9l2-11 1-13 1-7 1-10c1-4 1-5-2-4-3 0-31-16-32-20a19 19 0 0113 1l11 8 10 6 2-14 3-24 1-13H90L69 1l12 9 12 11c0 2-4-1-17-12C58-5 59-5 52 21c-3 11-2 13 2 14a4 4 0 014 3c1-1 7 3 12 7l7 3 6 3 4 3 2 3 4 7c4 5 5 6 3 7s-1 2 2 3c5 1 4 9-1 9v-2c2-1 2-1 1-2v-2h-2l-3-1c-2-3-4-2-3 2l-1 4-2 2-4 11-5 10a277 277 0 01-11 25v3l-1 1h-1l1 1-2 2h-7c-4-1-5-1-2 1v2l-2-1h-1l-2 1v1l1 1h-1l-5 2 2 1c1 1 0 1-2 1-3 0-3 0-2-2l3-3c1-1 0-1-1-1-2 0-3 0-2 1 0 1 0 2-2 1l-2-1h-2l-2-1c1-1 0-1-1-1-3 0-4-4-2-7 1-2 1-2-5-4-5-1-6-2-4-2 2-1 2-1-1-1h-3l3-5c3-7 8-7 8-1h-1c-1-2-1-2-3-1h-1v-1c-2 0-1 4 1 4l1-1h1v3c1 0 2-1 2-3 1-2 2-3 3-2 2 0 2 0 1-2s-1-3 2-1c0 1 2 2 4 1 1 0 2 0 2 2h2v-4c-1-1-1-1 0 0l2-1h2c1 0 25-10 29-13l2-3v-2l1-1 1-3c1-2-3-3-7-2l-5 2c-1-1-3 0-3 1l-4 1-6 3c-3 4-4 5-1 5s3 2 0 3l-5 4c-1 2-3 3-3 1l1-2 3-6a1 1 0 00-3 1c1 1 1 1 0 0-2-2-7 2-7 6s-3 4-3 0a3 3 0 00-3-4l1-1 6-4c8-3 10-5 8-8-1-1-2-1-6 1-7 2-10 2-11-1l1-3 1-7 2-13 1-7-2 4a1234 1234 0 01-11 37v-7c6-19 11-43 8-35-1 2-1 2-2 1l-6-6c-4-1-7-4-6-7l-1-2v-4l2-4c1-3 6-9 9-9h14l1-4v-5h-1a32 32 0 003-15c1 1 2-2 2-4L24 0H0v92M274 6c0 6 3 11 6 10h3l8 3-15 108a38613 38613 0 00-16 114v2l2-2 2-1v3c-1 3-4 6-7 6l-36 13h-2l-1 1c1 1 1 1-1 1h-2c1 1-2 2-4 1-2 0-2 0-1 1v1c-2 1-3 5-1 5 3 0 52-22 54-24 2-3 4-11 16-101 15-119 17-131 19-132v-3c2 1 2 0 2-2 0-1 0-2 1-1l1 1c-1 2 1 2 2 0l3-1 1-1h2l1-1c0-2 0-2 2-1 1 1 2 0 2-3V0h-41v6m-34 15l-3 21c-2 15-2 20-1 21v4c-2-1-5 22-4 23v3c-1-1-1 1-3 13v12c1-1 1 0 1 1 0 2-2 3-2 1-1-1-1 0-1 1 0 2 1 3 4 4 6 2 6 4 0 3-6 0-7 2 0 3l4 2h-4c-4-1-5 0-6 7-1 8 2 10 10 7 3-2 5 1 4 3 0 2 0 2 1 1 2-2 2-2 3-1h1l-1-2v-1c1-2 1-3-4-3-4-1-5-3-2-3l-3-2c-8-2-8-2 0-3l4-1c-2-1-3-3-1-3 3 0 7 2 7 3l-2 1v1c2 3 4 1 4-5l2-13c1-6 0-7-1-9-2-3-2-6 0-6l1 1v3c1 2 2 0 3-9l2-24a415 415 0 003-31l1-5c1-5 1-5-2-6l-3-2c0-1-7-9-9-9l-2-2c-1-2-1-2-1 1m258 18a7 7 0 00-2 8h5l-1 1c-1 0-2 2-2 9l-1 13c0 3 0 3 1 2 1-2 1-2 1 2l-1 6-1-2c-1-4-1-4-1 2l-1 9c-2 3 2 6 6 5 4-2 4-4 4-14-1-8 0-9 5-9 1 0 2 0 1-1l-4-1c-4 1-4 1-4-9 0-9 1-16 2-17 2-1 1-2-2-1-4 0-5-1-3-4s1-2-2 1m127 0c-3 2-3 6-1 9 2 1 1 21-1 28s-2 15 0 16c2 2 4 1 2-1l-1-12c2-8 3-4 3 5v7c2 0 3-6 2-23l1-21c2-5 2-8-1-5a1 1 0 11-2-2c4-3 2-4-2-1m-10 6c-3 2-3 6-1 7v4l-2 17c-5 25-5 24-2 24 2 0 3-1 3-9v-8a59 59 0 018-31l-1-1h-1c-3 0-3-2 0-3 2-2 2-2 0-2l-4 2m-18 11c-2 2-2 2-1 5l1 4 1 2c1 1 1 3-1 11-4 19-4 27 0 27s6-3 5-11c0-13-1-18-2-15s-2 2-1-3c1-8 2-11 4-14 1-3 1-4-2-3-2 0-3-1 0-3 1-2 1-2-1-2l-3 2m-115 0c-2 2-1 6 1 8 2 1 2 7 1 24v4c1-1 1-1 1 2l-1 3c-2 0-1 8 2 9 3 0 4-3 4-10-1-5-1-6 1-7 3-1 3-6-1-5-2 0-2 0-2-3V62c2-3 0-4-2-3-2 2-4 0-2-2 1-2 0-3-2-1M66 72c-3 5-2 5 4 8a5 5 0 007 0l3-2c1-3 0-3-5-6-7-4-6-4-9 0m613 4l-3 1-2 1c1 1-2 5-3 4h-7c-2-1-4 0-4 2l-2 1v-2c2-2 1-4-2-4-2-1-5 0-11 3l-9 4-2 2-2 2h-2c-1 2 4 4 6 2h1c0 1-1 3-3 3h-3l-1-1v2l-1 1-2 2c-2 1-2 1-3-1-2-1-6 1-6 4 0 1 3 2 4 1l-2-1v-2h2l1 1c2 0 2 0 1 1v1l3-2c1-1 3-2 4-1l3-1 5-2 2-1 5-2c2-1 7-2 9-4l7-2 1-1 2-1 2-2h2l4-1h1l1-1 1-1 3-2h-1l-1-1h3c2 2 3 0 1-1l-2-1m0 10a469 469 0 00-28 11l-8 3-16 5c-4 1-9 4-10 7 0 3-1 4-5 4l-4 1c0 2 2 5 3 4 3-1 8-1 8 1l2 7c2 2 2 2 1-3v-5l2 1c3 1 3 2 4 7l1 15a439 439 0 014 28l2 21c5 36 6 44 7 43l-1-7a589 589 0 01-5-42l-2-21c-4-29-4-45 0-45v12l6 49c6 52 6 51 17 48 12-3 13-4 11-6-3-2-2-6 2-6 8-2 10-3 10-4l-4-1c-6-2-11-4-12-7-1-4 2-5 11-5h8v-38c0-32 0-37-1-35l-2 2v-3l-2-19c-1-4 1-7 3-6s2 0 2-8v-9l-4 1m-16 17l-1 2-2 1a16 16 0 00-12 4l-3 2c-1 1-2 2-3 1-2 0-4 2-3 3 1 0 7-1 13-4a41 41 0 019-2c6-2 8 3 11 27 1 16 2 17 4 9v-20c-3-20-3-21-5-22l-3-1h-5m-590 2l-24 10c-2 1-4 3-5 6-3 7-3 7 1 7 3 0 4 1 5 2l2 1c0-1 1-1 0 0l3 1 3-1c1-1 1-1 1 1 0 1 0 2 2 2s4-4 12-23c4-7 3-8 0-6m579 31c-7 2-7 2-6 9 0 3 1 4 2 4l7-1 6-1-1-5c-1-8-1-8-8-6m-108 14c-11 3-13 5-11 8v3c-2 2-1 18 2 33l2 22v9h10l13-1h4v-11l-1-11-2-10-2-11-1-7c0-10-1-14-2-11l-1 4v2l-2-2-1-2-1 2-1 3c0 2-3 5-4 4v-4l-1-3-4-7 2 1c1 4 2 2 1-2-1-6 2-6 4 0l1 5-1-5v-6c0-1 1-2 3-2a4 4 0 004-5l-11 4m18 2l-1 1-1 4 1 7 6 49c1 7 2 8 4 8 1 0 2 2-2-29l-5-32c0-8-1-10-2-10v2m-47 9c-2 1-2 1 0 1 6 1 3 4-3 3-4 0-4 0-2-2l-6 1-9 2-4 3c0 2 2 1 3-1 1-1 1-1 1 1 0 3 0 3 2 2 3-2 3-1 5 13v14l1 1 3 4c6 6 3 11-6 10-5-1-5-1-2 1 2 2 1 4-3 4h-2l2 1a11 11 0 015 1c-1-1 0-1 1-1l2 1 13-1 2-6 2-8 2-2-3-3-7-6-3-3 4 5c3 4 4 6 0 4-2-1-2-1-2 1s0 2-1 1l-1-4c0-4-2-11-3-11a16 16 0 01-2-11l1-4c0-6 2-6 3-1l1 3c0-2 1-2 6 0 4 2 5 1 4-5-1-9-1-10-4-8m-466 9l-2 2c0 3 0 3 6 3a11 11 0 007-1l1 1h2a6 6 0 016 0h5l6-1c0-2-1-2-4-2-4 0-5 0-4-1 0-2-15-2-23-1m282 1l-2 1-2 1c0 1-2 2-6 1l-5 1-1 1-1 1-1 4c-2 3-3 5-2 6 0 2-2 3-2 1l1 11 3 12c3 11 3 11 10 14 12 4 15 4 14-2l2-2h1l1 1v1c0 2 0 3 2 3 3 1 7-1 7-4l1-1c1 0 5-8 4-9l2-1 1 2c-2 4 6 3 8-1 1-4 2-5 5-3 2 1 4 0 4-4 0-3 1-3 3-3 3 0 4-1 1-3s-3-7 1-7l3-1-4-1c-5 0-5 0-5-3s0-3-1-2l-1 3-2 1c-2 0-4 1-3 2 2 2 0 3-2 1h-3l1 1c2-2 3 5 1 7l-2 3 1-5-1-4-2-2-1-2a5 5 0 01-2-5v-3c0-2 0-2-2-1l-1 1c1-3-3-7-6-8-2 0-2 0-1 1s1 1 0 0c-5-1-10-2-11-1-2 1-3-1-2-3 0-2-2-1-3 0m-112 15v11c-2 3-4 16-4 20l2 1 3 1 2 1c3 0 10 3 9 4h2c1-1 2-3 3-14l3-15-3-1c-2 0-2-1-2-5 0-5-1-5-2-4-3 1-10 0-11-1-2-1-2 0-2 2m-103 22c1 18 2 24 3 21 1-2 2-3 1 0h1c2-2 2-3 1-3l1-1c3-1 4-6 6-22 0-8 0-8-9-8h-4v13m365-12c-2 1-2 1-1 4 2 6 2 8-1 10-2 1-3 2-3 4 0 6-2 3-3-3l-1-5c0 1-1 2-3 2s-3 0-3-6c-1-6-5-5-5 1s1 9 3 9c3-2 7 0 7 3l-1 2-5 1h13c1 2 11 3 11 1l1-4c2-1 2-2-1-6l-3-7-1-4-2-2h-2m-75 11l-1 1 3 3 1 2c2-1 5 1 3 2l-1 2-3 2c-2 0-2 1-1 2l2 8c0 5 1 5 3 5l11-1c11 0 12 0 12-4v-5c1-5-1-3-3 2l-3 4v-4l1-2h-6c-10 0-10-1-10-10v-5l-2 2c-2 0-3-3-2-4h-4m-192 19v10c-2 2-5 23-4 23l9-3 12-3 2-1 3-2c6 0 11-21 5-23s-7-2-6 0c0 1-3 0-5-2l-4-2-2-1-6-1-4-1v6m97 0l-2 3c1 2-5 7-8 8-2 1-3 2-3 4l-1 3v1c1 1 2 3 1 10v9h5c4 0 5 0 4 2 0 2-1 2-5 2h-4v7l1 8h3l5 2h2v1l-1 3c0 2 4 5 4 4 1-1 5-11 5-14l3-3v-6c2-6 1-9-2-13-3-5-2-7 5-6h7c1 1 3 0 4-1 2-2 2-2 0-2s-4-1-12-9l-6-5-1-3c0-6-1-8-4-5m272 20v10l3 1c3 1 4 0 4-2l3-3 1-3v-3l1 2 1 2 2-2h1v1l2 4 2 2 2-3c8-14 8-14-3-14h-7l6 1c4 0 6 1 6 2 1 1 0 1-7 1l-11-1a2 2 0 110-3h3l-4-1h-5v9m-493-6c-5 0-5 0-6 4l-1 5 1 10 1-1 4-1a2 2 0 003-1h1l3 1c2 1 2 0 2-8s0-8-2-7l1-1 2-2h-2l-7 1m190 9l3 11 7 14-3-4-3-4a25 25 0 01-6-11l-2-1c-1-2-2-1-3 4 0 4-5 11-7 10-1-1-2 2-2 5-1 2 0 2 2 2 3-1 3 0 1 12l-1 23v14h21l22-1-1-2-1-4c1-2 2-4 2-2s4 4 6 4c1 0-4-6-6-6-2-1-2 0-3 2-1 5-1 6-3 2l-1-8c0-4-2-7-2-3a2 2 0 11-4-2c0-2 1-2 2-2 5 1 6 0 8-10 0-4 0-4-4-4l-2-1c-2-2-3-1-4 2l-1 3v-3l-1-3v-20l-3-1-4-4c-1-2 0-3 4-1l3 2v-5c1-7 0-9-7-9l-7 1m67 1c0 2 1 3 2 3 2 1 3 2 1 3v-1c1-1 1-1-1-1s-4 4-5 13a93 93 0 01-4 24c0 1 0 2 1 1a2 2 0 112 3c-3 0-5 7-5 16 0 4-1 4-2 3l-2-2v1l1 1 2 3v1h-2l2 1 2 3 3 1v-1a20 20 0 01-2-17l1-4 1 1 2 1c2 0 2 0 1 1-2 1-3 5 0 5 4 0 7-2 7-5l-2-7c0-4-1-5-2-4-3 0-3-4 0-5 1-1 2-2 1-3 0-4 1-6 2-5 1 0 2 1 2 3 0 3 0 3 2 2 1-1 2-2 1-3l1-10c0-1 0-2-2-1-1 0-2 0-2-2l-1 1-1 3-1-3c-1-3-1-4 1-4 10 0 16-4 16-8l-4-9c-2 0 0 5 1 7 3 3 0 3-5 0l-4-2v3c1 3-3 7-4 5-1-1-1-1 2-7 1-2 0-4-3-6-3-1-3-1-3 1m66 12c-2 3 2 61 3 61a273 273 0 00-2-53c0-8 0-10-1-8m-34 15l-4 9-3 7c-2 5-3 5-3 0l1-4-2 3-2 4 3 2c2 1 2 2 2 10l-1 9-1-3c0-5 0-6-2-3v2c2-2 1 1-1 4-2 2-2 2-1 3h2c2-3 4-2 4 0l-2 3-1 1 3-1c1-2 3-3 3-1-1 1 1 1 3-1h8l6-1 1-3c3-3 4-6 2-6-1-1-1-2 1-3a10 10 0 002-9l-2 1c-2 1-2 2-2 3 1 2 0 4-2 6l-3 2-2-1 1-1c3-1 3-2-2-5-3-2-4-2-4 0h-1c0-3-4-2-4 0l-1 4-1-2 1-4c0-2 5-3 9-2l5 2c2 0 1-3 0-4l-1-1-1-1-1-3-1-3a23 23 0 00-13 7c0-3 5-10 8-11s3-2 2-5c-1-11-1-11-3-4m-90 17l1 3h1l-1 1c-2 0-2 1-2 3v3l-6-1c-6 0-6 0-6 2s1 3 5 3c6 1 6 1 7 6 0 3 1 4 2 4 3 0 4-6 0-7-1-1-1-1 1-1s2-1 2-9c0-5 0-8-1-7l-2-1c-1-1-1-1-1 1m263 4l-1 3-1 3-2 4c0 2 0 2-1 1l-1-1-2 5c-2 6-2 11 0 11h6c3 1 3 1 2-1l1-2v-8c2-7 1-18-1-15M0 350l1 3v3l-1 80v76h684V357l-1 7c0 6-1 8-5 6l-3 2c-2 2-6 3-7 2v-4l-1-1h-2l-6 3a9 9 0 01-13 0v2l-1 1-1-3c2-5-5-6-9-2-3 3-8 4-8 1l-2-1c-1 1-2 0-1-1 1-2-1-2-6 0a26 26 0 01-10 3l1 2c1 2 1 2-2 2-2 0-3-1-4-3l-2-2c-2-1-9 3-9 4 0 2-3 1-4 0 0-2 0-2-2 0-3 2-6 1-5-3 0-4-2-5-4-3h-1l-2 1c-3 4-11 4-13 1s-4-4-6-1l-4 1-3 2-3 2h-2c-2 1-2 1-2-1l-1-2c-1 0-2-1-1-2 0-4-2-4-4-1 0 2-1 2-3 2l-4 2c-3 5-13 1-11-4 0-1-4-1-7 1h-2l-1 1c-2 3-8 2-11-1-1-2-2-2-4-1h-3l-8 4c0 2-4 2-4 0v-2l-2-4-2-2c-1 0-2 1-1 2h-2c-2-2-4-1-4 2l-4 1c-3 0-4 0-5 2l-2 3v-5c-2-5-14-4-12 0 0 2 0 2-3 2-6-1-7-2-6-5 1-2 1-2-3-2-2-1-3 0-3 1l-2 1-4 3a6 6 0 01-9-2c2 0 0-3-2-4-3-1-3-1-3 1l-1 1-1-2h-1l-1 3c1 3 1 4-2 5l-10 1 1-2c-1-1 0-2 1-2l1 1 1 1 4-1-3-2-3-1c-5-3-14-1-14 4h-5l-1-1c1-1 0-2-1-3-3-2-6-3-6-1 0 1-3 2-8 2v2c2 1-1 2-5 2-3 0-3-1-3-2v-3l1-2c2 0 0-1-2-2l-1 1h-1c-1-1-6 0-6 1 0 4 0 5-1 4h-2l-2-1h-2l-2-1 1-1-2 2-1 3v-3c0-4-3-6-5-4l-4 2-4 2-2 1 1-2 2-2c0-1-6-2-7-1s-3 2-4 1l-3 1h-2a4 4 0 00-6 4v-2l-1-2h-2c0-2-2-3-2-1a13 13 0 01-12-1c-2-1-2-1-1-2 1-2-2-2-5 0-1 1-5 0-5-2h-6l2-2 3-2c0-3-4 0-7 5l-2 3-2-2c-3-3-3-3-2 0 1 2 1 2-1 1-2-2-2-2-3 0-3 3-7 2-7 0s0-2 1-1 1 1 1-2a3 3 0 012-4l-3 1c0 2-2 2-3 2h-1c2 4-7 6-11 3-2-1-3-4-1-3l1-1-2-2v-1c1-1 1-1-1-1l-4 1v1c1 2 0 7-1 8-2 1-4 0-4-2-1-2-1-2-3-1-3 2-5 2-5 1 0-2-5-4-6-3h-1l-2 1c-2 3-2 3-8 3h-8c1-6 0-8-2-7-3 0-4 2-4 5s0 3-5 2c-5 0-8-1-7-3l-1-1v-1h-1c-2 1-2 1-2-1l-1-2v1c0 1-2 4-3 3l-3 1c-4 4-12 1-10-3l-2-2c-3-1-4 0-4 2 0 3-7 5-10 4h-2c-1 3-4 2-3-1 0-3-2-6-3-3h-2l-1 1c0 3-4 5-8 5l-3 1a4 4 0 01-6 0l-2-1-2-2c-1-2-1-2-3-1h-8c-3 1-4-2-2-3s1-2-3-2c-2 0-3 0-3 3 0 5-9 4-11-1s-7-4-9 2c-3 5-10 5-10-1l-1-2v-1c1-1 1-1-1-1-3 0-3 0-2-2h-1l-2 3c0 2-2 4-6 5-6 1-6 0-6-1l-2-1-1-2-1-2-3-1c-2-1-3 1-3 5l-1 2-1 1h-2l-3-2c-2-1-2-2-2-4 0-3-1-3-4-2s-5 0-6-3H0m0 85c0 43 1 60 1 39a6674 6674 0 00-1-39" tabindex="-1" itemprop="bold" style="fill: rgb(2, 18, 44); fill-opacity: 0.89; fill-rule: evenodd; color: rgb(173, 173, 173);"></path></svg>