<svg id="16282281824-posters-1621633261477" itemscope="" itemtype="/posters" itemid="/+16282281824/posters/1621633261477" viewBox="0 0 512 683" preserveAspectRatio="xMidYMid slice" tabindex="0" xmlns="http://www.w3.org/2000/svg"><rect itemprop="background" width="100%" height="100%" fill="white" tabindex="-1" style="fill: rgb(228, 228, 220); color: rgb(4, 4, 58);"></rect><path d="M0 221c0 209 0 221 2 222v1a100 100 0 0 0-1 37l-1 14v14l4-6c2-6 5-8 3-4 0 3-3 9-4 10-2 2-3 5-1 7h2a1 1 0 0 1 2-1l-1-2H4l-2 1v-1l5-1c3 0 4-1 4-2v-7l-1 1H9v-3l5-9c0-2-3-1-4 2-2 4-3 2-1-2 2-6 3-7 5-6l2-1c1-1 0-1-1-1-2 0-3-1-1-2 0-1 2 0 3 2l3 4-2 8c-2 10-5 18-7 18l-3 1 1 1c2-1 2 0 0 4a2 2 0 1 1-4 0c1 0-3-3-5-3l1 3v1l-1 81v81h279l-1-2 1-2 1 3 116 1h117V0H0v221m0 1c0 121 1 171 1 110a57325 57325 0 0 0-1-110M507 15c-5 9-4 8-13 6l-8-2-12 21a3954 3954 0 0 1-25 45c-1 1 7 8 10 9 1 1-10 20-31 55-13 22-15 25-14 27l2 1 2 2c1 1 1 2 2 1l6 3 7 4 2 2 6 4a86 86 0 0 1 17 12l18 12 10 6a30 30 0 0 1 9 7l11 9h1l3 1c1 5 2 0 2-23 0-25 0-25-2-23l-3 2c-1-1 0-2 2-4 3-3 3-4 3-13l-1-10c-3 1-4-3-1-5l2-2-3-2-4-4c-1 0-1-1 1-3 1-1 2-2 3-1 2 2 2 2 0 3l-1 3 2-2c2-2 2-10 2-76V8l-5 7M376 343c-10 9-10 9-35 8l-21-1-14 5-16 6-3 1-1 1-1 4-1 1-1 2c-1-1-2 0-3 1l-2 1v-1l1-1h-6l-2 1-3 3a2 2 0 0 0-2 4l1 2h3c2 1 9-2 9-3l2-1h1a1 1 0 1 1 2 0h1v1a2 2 0 0 0 3 2l2-1 1 2 1 3c1 1 1 1 1-2-1-4-1-4 2-4l5-1c0-4 3-2 3 2v4c1 3-2 2-2-1l-2-3v2c1 2-1 7-2 5-2-1-4 8-4 13 1 4 1 5-1 5l-1-3c0-3-1-5-3-3h-2l-1 4c1 4-1 7-2 2s-1-5-1 0c0 6-2 5-3-1 0-3-1-4-2-4l-1 1-2 1h-4c-3-2-3-1-3 5 0 7-2 8-2 1-1-3-1-2-1 2 1 6 0 7-1 6l-2 1c0 2 1 3 3 2 2-2 2 1 0 3l-2 5c0 2 0 2-1 0l-2-2v6l-1 1v4c-2 3-2 8-1 8h4l1 2c0 2 2 1 2-1l3-1c2 1 2 1 0-2-1-2-1-2-3 0-2 1-2 1-2-5 0-7 0-7 3-7l2-1h6v-10c2 0 7 3 7 5 1 1 1-1 1-4l1-5 1 12 2 4c2 1 8 0 8-1l2-3 1-1-2-1-1-2c-2-1-2-2-1-2v-4c0-4 0-5 2-5l1 2c0 2 0 2 1 1v-3l2-1 2 2v1l3 1c2 1 2 1 2-3l2-4 1 1c-1 2 0 6 1 6l1-4c-1-5 2-5 2 1l2 6c2 1 1 2-1 2l-2 1c1 1 6-1 6-2l3-1c3 0 3 1 2 3 0 2 0 2 1 1h3c1 0 2-2 1-4-1-1-1-1 1-1v-4l1-1c0-2 0-2 1-1h3c3-1 3-1 2-6v-4h4l4 1v5c0 6 0 6-2 6l-6 1-4 1v1l-1 2-1 2c0 1 1 2 2 1 2 0 3 2 2 4l1 1v1l2 3v1c-1 0-2 1-1 2l5 1 4-1h-3c-3 0-3 0-2-1 2-1 0-8-2-9l-1-1 2-1 5-1c4 0 4 0 4 6 0 2 1 3 3 5l2 2v-3l-2-7v-3h4l5 1v17l-2 1c0 2 4 1 5 0 0-1 1-2 3-1l8-1c6-1 12-1 17 1h6l1 1v2c1 1 2 12 1 13l-1-1h-3l-1-1-2-1c-3 0-4 1-2 3 1 0 1 1-1 1-2 1-3 3-1 5l1-2v-2l4 4c-3 2 6 3 11 1h2l-2 2v1l5-5-1-1v1l-1 1-1-2-1-2c-1-2-1-2 1-1h2l1-1v-1h-1c-2 1-4 0-3-2v-1l-1-4-1-3c-2-2-1-3 3-3s4 0 4 4c0 10 1 10 6 11 4 0 5-1 2-2-2-1-6-12-4-13s0-6-2-7c-1 0-3-2-4-6-2-6-2-6 0-6s2 0 1-2c-1-3-2-5-4-5s-6-10-4-11l-2-6-3-5c-2-5-2-5 0-5l2-1c0-3-1-5-4-5-4 0-7-10-3-10h3l-3-9-5-15c-2-10-2-10-9-2M81 469c-3 2-4 3-9 2h-5l-2 1h-2l-2 3-2 4-1 1c-4 2-2 3 4 3s5 2-2 2l-3 1a3 3 0 0 1-2 3l-6-1-6-2a3 3 0 0 0-6 1l-1-1c0-2-5-1-6 1-1 4 1 5 3 2 2-1 2-1 1 1l-3 5c-1 3-2 4-4 4s-2 0 0 1c2 0 2 0 1 4l-3 4c-3 0-5 3-5 5l7 1h8l-8 1c-6 0-8 0-9 2s-1 3 1 3l3 2c1 1 3 2 4 1v-1l-1-2c0-2 11-1 13 2l2 2 3-2c8-6 13-3 10 6l-1 4-1 1a5 5 0 0 0-4 2h4c2-2 1 0 0 2l-1 3c1 3 2 2 3-2 0-3 1-4 3-4l2-1 1-1c2 0 4-4 4-7l-2-2-2 1-1 4-1 1-1 1v1l1 1-2 1c-2 1-2 1-2-1l2-5c1-6 10-10 13-6 2 2 2 2 6 0l3-4 1-1 1 1 2 2c2 0 3 1 3 2l-2-1h-1c0 2 0 2-2 1v1c1 2 4 1 9-2l6-2c2 0 3 0 3-3l1-2H59l13-1c21 0 29-2 21-3-2-1-2-1-1-3 2 0 2-1 1-1v-1l-1-2-2-2c0-2 0-2-2 0a3 3 0 0 1-4 2v3l-2 2c-2 0-2 0-1-3 0-3-1-4-2-2l-4 2-5 1-1 2c-2 0-2 0 1 1 2 1 2 1-2 1h-4l3-8c2-8 3-9 1-11-1-3 0-7 3-7v1c-2 0-2 5 0 7 0 0 5-5 4-6l1-1 1-3 1-5v-1c-2 0 0-3 2-4 5-1 5-1 5 1h2v-1l2-3 3-2-3 1h-3c0-2-2-1-5 2m98 18-2 1a2 2 0 1 0 0 3v1c-2 1-2 1-1 2 2 1 0 3-4 3-3-1-3-1-1 5h-12l-1 2v2c-2 2 0 4 2 4h3l-3 1c-2 1-2 1-1 3 2 3 4 3 6 0 2-2 5-2 4 0a2 2 0 0 0 2 2l4-1c4 0 6-2 5-5l1-1a1 1 0 0 0-1-3 26 26 0 0 1 1-19h-2M0 602c0 45 1 63 1 41a7380 7380 0 0 0-1-41m266 2c-1 3-8 6-8 3-1-1-1-1 1-1 2 1 2 1 1-1l-2-2-1 1v2c-2 2 0 5 2 4 4-1 5-1 4 1l1 1h1-3c-1-1-2-1-4 1l-5 3-2 2c-1 1-1 1 0 0h5c2 0 3 0 3-2s1-2 3-1c4 0 6-2 4-4l2-1 2-1 1-1 1 1v1h1l2-1c3 0 3 1 1 2l-1 3 1-1 2-1 2 2h-1l-1 1c1 2 0 3-1 1h-12l-8 4 3 1 3-1h7c3 0 4 2 2 2l-2 2h-1v-1l-1-1v3l-1 3c-2 2-1 2 2 0l3-2 1-1 1-2 2-2 1 1 2 1v2l1 2 3 1c2 2 1 2-1-4-3-6-3-6-2-8 2-2 2-3 0-4l-1-3c1-2-2-5-6-5h-3c-1-3-3-2-4 0m23 5c0 2-2 3-2 0l-1-1v4c0 2 0 3-1 2-1-2-2-1-1 3 0 3 0 4-1 3h-2c0 2 5 4 7 3 2-2 1 0 0 2l-2 3h2l-4 3c-5 0-5 3 0 3h5v-5c1-2 4-3 4-2v-14l-2 3c-1 2-1 2-2 0l-1-2-1-1c0-1 2-1 3 1l1-1c-1-1 0-2 2-2l1-2c0-2-4-2-5 0" tabindex="-1" itemprop="light" style="fill: rgb(74, 72, 255); fill-opacity: 0.265; fill-rule: evenodd; color: rgb(92, 92, 92);"></path><path d="m0 198 1 198v1c-2 3-1 45 1 45 3 0 4 3 2 3l-3 1v30l1 1a36 36 0 0 1 1-4c0-2 3-2 3-1 1 2 2 2 4 1 3 0 3 0 2 2l-4 5a8 8 0 0 1-4 5l-1 2c-2 1-2 2-1 2v3l-2 9v7l3-7 7-12c5-13 10-17 11-11l1 3 1-2c-2-3-2-9-1-9 1 1 1 1 0 0 0-2 4-6 4-4 1 1 2 0 4-1 4-4 4-1-2 13l-4 8c-1 4-2 5-3 4l-2 6c-2 9-10 27-12 27l-3 2c-1 2-1 2 1 2l1 1-4 1H0v31l1 31 7-2 17-2 25-2-25 10-24 9-1 39v39h64c19 0 20 0 19-2l1-2 1 2c0 2 1 2 8 2h69a107072 107072 0 0 1 94 0l-1-4-1-2 2 3 2 3h8l12-1c0-2 2-2 3 0l3 1c4 0 3-1 0-2-2-1-2-1 0-1l4 2c3 3 21 1 18-3h1l1 3 16 1c14 0 18-1 15-2h1l4-2c4-2 5-1 2 1l-2 3h8l14 1c4 0 5 0 5-2h1c3 2 50 2 51 0h1c1 1 84 2 87 1 1-1 2-33 2-324 0-195-1-269-1-186l-1 134c0-3-3-6-5-5-1 2-4-1-6-7a3735 3735 0 0 0-5-11l-3-3-8-10a108 108 0 0 0-10-14c2 1 1-1-1-2h-1v-2c0-1-1-2-3-2l-3-1a15 15 0 0 0-7-9l-1-2-1-4c-1-3-7-12-8-11l1 3 2 2-5-5c-1-2-1-2 1-1l1-1-3-1c-2 1-7-5-7-7a5 5 0 0 0-1-3c3 2 3 1 1-2l-2-1c0 2-2 1-4-4l-4-6-2-3c0-2-10-16-12-16l-3-4a21 21 0 0 0-6-10c0-2-9-16-10-17v-7c3-3 2-4-2-4-2 0-3 0-2-1l2-1c2 0 4-1 6-4l8-5c0 1 1 1 3-1l5-4 2-2-2-1-1-2v-3c1-1 1-1 0 0a2 2 0 1 1-2-3h6c1-2 2-1 1 1l1-1 2-2v2l1-1c2-5 3-5 4-2 0 2-3 6-5 6l-1 2-1 1v2l-1 3-2 2-1 2h-3v1c2 0 1 2-1 3h-1c1-1 2-2 0-3h-1l-2 4-2 3-1 1c-7 0-9 12-4 20l4 5a40 40 0 0 0 6 9l1-1a2 2 0 0 0 4-2l7-10a4340 4340 0 0 1 15-26l2-3 1-1 2-3 1-3v-1l2-2 2-5c2-2 4-11 3-11l-1-1-1-2c-3-2-6 0-6 3l-3 3-3 2c0 2-3 1-3 0h-1v2l-2 1h-3l3-4h3l2-1 3-2h2l-1-2c-2-1 2-5 4-5s2 0 1-1c-2 0-2-1-1-1 2-3 2-8 0-7-3 0-2-1 3-4v-2l-2-3c-1-2-1-2-3-1h-1l1-1v-1l1-1 1-1c1-4 4-1 3 3l1 1h1l1 1 1-2 1-3c2-2 2-6-1-7-1-1-2-1-1 1l-1 1-1-2c1-1 0-2-1-2-2-1-3-4-1-4l1-2h1l1 3c0 3 0 3 2 3h2c1 3 4 2 4-1v-4c1-1 0-1-1-2-2 0-2 0 0-2 3-3 3-5 0-2h-2l1-2 1-1v-1l2-5 2-3 1-1-1-2-1-1h4c2 0 3 0 5-4 1-3 1-4 3-2 1 1 1 1 1-1l1-3h2l2-1 1-2 2-3c2-1 2-2 1-3l-1-2h1c1 2 3 0 3-2s5-7 5-5l1-2c0-4-1-5-2-3h-2L243 0H0v198M493 0v3c0 2-2 4-3 5l-1 2v1l3 4a8 8 0 0 0 4 3c2 1 2 1 4-1s4-2 5-2l1-2v-1c1 1 5-6 5-9V0h-18M0 214c0 97 1 137 1 88a36928 36928 0 0 0-1-88M150 88c0 1 0 2-1 1h-6c0 2-3 8-5 9-1 0-2 1-1 2l-1 3c-1 1-2 0-2-1l-1-1c-1 0 0 4 2 7l2 4c0 2 2 4 3 2 0-2 3-1 5 2l1 8c0 6 0 7 2 6l3-1h2c2 0 5-4 2-5l-1-4c1-1 0-2-1-3s-1-1 1-1 3-1 1-3l-1-1v-3l2 1c1 1 1 0 1-1 0-3-1-3-3-3a2 2 0 0 1-3-3l2-1c2 0 2 0 2-2 1-4-1-6-2-5v-4c1-1 1-2-1-3l-2-2v2m224 23-2 1-1 1 2 3v1l-2-2c-2-2-3-3-3-1l6 8 7 6 3-4c2-4 3-5 1-5-1-1-1 0-1 1 0 2 0 2-1 0-1-4-3-4-3-1l-1 3v-3l-1-2v-2c1-2-1-4-2-2v-1c0-2 0-3-2-1m-52 45v2l-1 1-3 1c-1 2 1 2 3 1l2 1c1 1 1 1 0 0 0-2 0-2 1-1 1 2-1 5-2 4l-1 2h-1c-1-2-1-2-1 1l2 2v5l-2 4v-2l-2 2c-1 2-1 2 1 2h1l-3 2c-2-1-5 6-4 8l-1 1c-2-1-2 5 0 6v3c-1 2-6 3-6 0 0-1-1-1-2 1l-4 3v1c0 2 0 2-1 1l1 3c2 2 3 3 5 3 3-1 3-1 2 2-1 4-2 5-3 3-2-2-3-1-3 1s0 2 1 1 1-1 1 1l2 2c2 0 3 2 5 5a6 6 0 0 0 3 4c1 3 0 4-3 4l-2 1c0 1-9 3-10 2 0-2-3 1-4 4 0 3 0 3 2 4l2 2-1 2h-1l-1 3c-2 1-4 5-3 5h3c2 0 3 2 1 4-3 2-2 3 0 3l4-1 1-1h2v2l2 1 5 4c3 2 5 3 5 0 1-1 1-1 3 1s3 6 1 5c0-1-2 0-3 2l-5 3v1a2 2 0 0 1-1 3l-1 4v9c2 5 1 6-3 9l-3 1h-2l-3 2c-1-1-3 1-2 3l-1 1v2c0 2-1 3-4 2l-1 1v1l-1 5c0 2-1 3-4 5-5 2-7 11-2 11v1h3l1-1-2-2c-2-1-2-1 0 0l3-1c-1-1 0-1 0 0l2 1v2h-1l-1 1v2l-1 2h-1v6l1 3c1 0 2-1 1-2h4v-1c1 0 3 2 1 3v1l-1 1-2 1c0 2-9 10-10 10h-5a12 12 0 0 0-10 8l-1 1 3 1 3 2h3l5-1 3-2c1-2 5-1 4 2 0 4 3 7 4 5l1-3h2c2 2 3 2 3 0-1-3 1-3 2 1l-1 4-4 1v1c1 2 1 4-2 5-1 0-3 0-3 2-1 2-2 2-3 1 0-1-1-1-2 2l-1 1c0-2-3-4-5-3h-3l-2 1-5 2c-2 2-3 2-5 1-4-2-6 0-3 3l1 5v3l2 1c0 1-4 2-5 1h-1l5 5c2 0 0 4-2 4s-2 0-1 1v13a10 10 0 0 0 2 7l-1 1c-1-1-1 0-1 1s1 2 3 2h5l4-1c1-1 0-1-2-1a6 6 0 0 1-4-2h7c2-1 2-2 1-2a3 3 0 0 1-2-3l2-1c1-2 8 2 8 4l2 1 1 1 1 1-2-5-1-3 2 2c2 2 2 3 2 5l4 3v-2c-1-2-1-3 1-3h1v4a1 1 0 1 0 2 0v-1l2-1c-1-1 0-2 1-2l1-1-1-1v-1l1-1v-3c-1-1 0-6 2-6l1-3c-1-2 0-3 3-2l5 1c-1 1 0 1 0 0l2 1a2 2 0 1 0 3-3c-2-2-2-2-1-3l3-1-1 1-1 1 3 1c2 0 2 0 1 1s-1 1 1 1l3 1c2 2 5 2 4 0-1-3-1-3 1-3h1l2-1h5c1-1 1 0 1 1l-2 3c-1 1-1 1 1 2 3 0 3 2 0 4-2 2-2 2 1 3l1 2c-1 0 0 2 2 3l2 3v-3c-1-3-1-3 1-1l2 3 2 1v-2c-2-2-2-5-1-5l2 3c1 2 2 2 2 0l-1-3c-2-1 0-3 1-1 1 1 2 1 2-1l3-1c3 1 3 3 1 4v-1l1-1c0-1-2 0-3 2-2 2-2 2 0 2 2-1 5 1 4 3v2a5 5 0 0 1 1 5l3-1c1 0 2 0 1-1-2-1-5-4-4-5 1-2 2-1 3 2a3 3 0 0 0 6 1h1l3 3v2l-2 2-2 2h2c3 1 4 5 1 5-2 0-2 0-1 1v3l3 3c2 2 5 3 4 1v-2l1-1h1l-2-1c-1 1-2 0-3-4l1-4 1 1c-1 1 0 1 1 1l1 1v1a2 2 0 0 0 0-3v-2c1-1 2-2 4-1h3l-1 2v2c1-1 1 0 1 1s0 2 1 1c1 0 4 5 3 6 0 2 1 1 2-1 1-3 0-5-1-3h-1c0-2 3-2 5-1v3c-1 2-1 2 2 2s3 0 2 2v2a1 1 0 0 1-1 2l-1 2c0 1 1 2 2 1s1-1 1 2l2 2h3v3l1 1v2l2 2c1 1 2 2 6 2h6l-5-2-3-1v-1l2-1 5-2-1-1h-4c-3-2-4-4-2-3h4l9-2c9 0 9 0 5-6-2-4-4-8-4-11l-4-11-4-15a29 29 0 0 0-5-11c2 0 1-2-3-13-6-11-8-20-8-22l-1-7c-2-5-2-5-4-3h-2v-4c-1-1-1-1 1-1 3 0 3-1-1-12l-5-16-2-7-3-12a96 96 0 0 0-10-30 19 19 0 0 0-2-6c-1 0-7-15-7-18l-4-15c-6-16-8-27-7-30l-2-5-2-5-1-2-1-2-2-4c-2-1-2-3-3-8l-2-12c-2-3-2-6-2-7l-1-1-1-3c0-4-7-18-9-18h-2l1-1h1c0-2-2-2-2 0M96 187l-1 3-2 2 2 2 4 2 1 1c-1 1 0 1 1 1 2 0 2 0 1 1-2 1-2 2-1 2v2c-1 1 0 1 2 1l3 1c0 3 0 6 1 4l2-1c2 0 2 0 1 1h9l2-1 2-1v-1l-1-2-2-1-2-2c0-2-2-3-6-3-1 0-2 0-1-1l1-2h1l-1-1-2-1-5-3-5-3-3-1-1 1m236 18-3 1a2 2 0 0 0-1 3l1 1-1 1h-1l-2 1c-1 0-2 0-1 1l1 1-1 1a5 5 0 0 0-4 6l-1 1v2c1 1 0 1-1 1-3 0-3 0-2 1l1 2-1 1c-1 1-1 1 1 1s3 5 0 6h-3l-1 1-2 2-5 3-3 2v3h-1a29 29 0 0 1-2 7c-1 0 0 4 2 6l2 2c0 2 1 4 3 4l2 1 1 1c3 0 5 0 8 2 4 2 2 12-2 10-2 0-2 0-1 1v2l-2 4-1 2-1 3-1 4v3c2 5 1 8-6 12-5 2-7 4-7 7l-2 2v1l-1 1c-2 0-2 1-2 5a8 8 0 0 1 0 6l1 1v1l1 1 2 3v1l-1 1 3-1h1a1 1 0 1 0 1 0 2 2 0 0 1 4 0h4c2-1 4-1 4 2h1l1-2v-1l2 1 3 1c3 0 3 0 2-1-2-1-2-1 0-1s3 1 4 3c1 1 1 2 2 1v-1h1l6 1 6 2h2l1-1h1c1 2 2 2 3 0h1c0 1 4 2 5 1h1l1-1h1c1 2 5 2 4 0l2 1c1 1 1 1 1-1-1-2-1-2 2-1s3 1 3-1 5-7 6-6v-4l-1-1 2 2a41 41 0 0 0-2-27l-3-9-2-5-1-1-1-1-2-5a53 53 0 0 1-3-11l-4-12c0-4-1-7-2-7l-2-6-2-7-2-5-1-5-1-5-2-6v-3c-2 0-2-1-1-1l-1-2-3-4a7 7 0 0 0-5-6h-1l-1 1v-2l-1 1m-232 11-1 2v3l-1 2c-4-2-7 10-4 14l1 1-7 3c-2 0-2 0-1 1l2 1-2 1c0-1-1-1 0 0l1 1c3 0 4 0 4 2 1 1 1 1 0 0l-1 1 5 1c4-1 5 1 2 2l-3 1h-1l-1 1h-1v-1l-2-3h-1v3l-1 1h1c0-1 1-1 2 1a5 5 0 0 0 4 1v2l2 1v3c1 2 1 2-1 2h-2l7 2 2 2 3 1 3 1 2 1 1 1c-1 2 0 2 2 2l4 1c0 2 2 2 5 1a5 5 0 0 0-1-6 19 19 0 0 0-9-9c-1 0-2 0-1-2l-2-1c-2 1-2 1-2-2 1-2 0-3-1-3s-2-1-1-2h3c3 2 4 0 1-3v-1h1c-1-3-2-3-2-1-1 3-3 4-3 2l-1-3c-2-1-2-3 0-3 2 2 6 2 7 1v-3a1 1 0 0 1-1-1 7 7 0 0 0-1-7 2 2 0 0 0 0 3l-3-6-1-1-1-1-2-2v-5l-1-2-2-2v1M90 438h-2l-1 1-2 1-2 2h-3l-1 1c-1-1-2 0-1 1l-1 1-2 2c0 1 0 2-1 1v2c1 2 2 3 3 2v1h-3l-1 1 1 2c1-1 2 1 1 3 0 2 0 2-2 1h-1c0 2-2 2-6 0l-2 1a21 21 0 0 1-9 20l-2 1 1 1 2 1v4l-1-1c1-1-8-3-9-2h-4a3 3 0 0 0-4 0l1-2v-4l3-1 2-2c0-2 1-3 2-3v3c1 1 2 0 3-2v-3a5 5 0 0 0 0-7l-2-1v-3l-3-1h-1l1-2c0-2 2-4 4-4s2-1 0-3c-2-3-4-2-4 1l-6 15a71 71 0 0 0-5 14c-4 6-4 8-4 11l-1 5-3 6-4 7-2 4-2 4-1 3v3c-1 1 0 1 2 1 3 0 4 0 3 2l3 1c7-1 7-1 1 18l-5 15h5l5 1c1 2 2 0 1-2s-1-2 2-5l3-5 6-1h6l-1 5c-2 4-2 4 0 4s4-2 5-5l1-4v2c-1 3 0 4 3 2 2-1 3-2 3-4l2-4c2-1 3-3 0-3l-5 2-1 2-1 3-1-3v-3a2 2 0 0 0 1-2l2 1c2 0 3-2 4-7a3 3 0 0 1 5-1v8l2-3c0-2 0-3 1-2h2c1-2 5-1 4 0h-2v3c1 1 1 1-1 1-2 1-3 4-4 12l-1 3v4l1-1h1c2 1-2 2-7 3h8c13 0 19-3 20-10l2-6-1-2h-1l-2-1c-5 0-3-6 2-10l2-1-2-2c-3-3-2-7 2-7 3 0 3 2 0 5v1l1 3c-1 5 1 2 2-3l3-8 1-10-3-1c-2-1-2-1-1-3v-2l1-1 2-9v-2l1-1 1-2 1-1c1-2 1-2-1-1h-3c-1-1-5-2-7 0-1 1-2 1-2-1-1-1 0-2 1-3l-4-2c-4-1-4-1-2-3 1-1 2-2 1-3l-2 1c-1 1-1 1-1-1s4-4 4-2h2l4-1c2 1 4-2 3-4l2-2h1c0 2 3 5 4 5l-1-3c-2-3-2-3 0-4s2-1 1-2-1-2 1-3c1-2 3-2 3-1h2c2-2 0-7-2-7l-2 1h-2c-2-2-2-3 2-3l2-1v-2l-1 1-2 1c-2 0-2 0-1-2l3-2c1 0 1-1-1-2h-2v-2c1-2 1-2-1-2s-2 0 0-1c1-1 0-1-3-1l-6 2m75 35-1 2h-1l-1-1v7h1c2 1 2 2 0 2s-3 1-3 2c-1 3 1 4 4 2h4l1 1h2l3 2v2l1 2c0 2-4 2-5 0 0-2-4-3-5-2l-2 1h-1c-3 0-3 0-4 8-3 15-2 17 7 15l4 1c0 1-1 2-5 1-6 0-6 0-7 8l-2 9c-1 2-1 2 1 1l16-3 5-1-1-1-2-1c0-3-3-2-3 0-1 1-1 1-1-1s0-2 4-2h4v-6l2-8c3-3 3-9 1-8-2 0-2-3 0-6v-1a9 9 0 0 1 2-11h-1l-1-2v-1l-2 1-1 1h-6v1c-1 1-2 0-2-4-1-3-1-3 1-3 2 1 4 0 2-1h-1l-4-3-3-3m262 4 2 2 3 2h-3c-3 0-3 2 0 3l4 1h-4c-3-1-4 1-2 2a3 3 0 0 1-2 6l-4 1c-3 0-3 0-1 1h4c2-1 4-1 8 1l3 1h-3c-3-1-5 0-3 1l4 1 5 1c2 2 1 0-3-12l-6-12-2 1m-312 30v3l-1 1h-3l-2 2 1 1v3l-1 4 7-3 6-1c5-1 6-2 6-3h-1c-2 3-5 1-5-4 0-4 0-4-3-5l-4 2m5 29c-2 0-4 2-5 3-2 2-4 2-8 2-5 0-8 2-8 7 0 2 0 3-2 3s-2 1-2 2c1 3 10 3 20 1 7-2 7-4-1-3h-7v-3c0-4 1-4 2-3l2-1c-1-1 0-1 1-1a5337 5337 0 0 1 10-1l2-6h-4m182 49-2 2c-3-1-4 2-3 6a4 4 0 0 1-1 5l-4 4 1-2c1-3 1-4-5-5-4 0-4 0-4 2v2l-1 1-1 1c-1 0-3-5-2-6 1-3-6-5-8-3-3 3-3 4 0 4 2 0 3 0 3 2v4l-2 2h-3l-1-2c-4 0-8-2-8-4 0-1-2-2-4-1l-2-2c-1-1-1-2-2-1-1 0-2 0-1-2l-1-2-1 1a2 2 0 0 1-2 2l-4 3c-2 2-3 2-4 1l-3-1c-2 0-2 0-1 3 2 4-2 7-7 5-2-2-2 0-1 3s1 3 3 2h7v-1l-2-1h8c1-1 1-1 4 1l1 2v2l-1 1h-6c-3-3-4-2-4 0s0 2-2 0h-1l-1-1-2-2v1c2 2 1 4-1 3l-1 1-1 1h-1l-1-1c-3 0-7 0-5-1s1-3-1-3c-2 1-2 0-2-3 0-2 0-2-3-1h-3c-1-1-1-1-1 1l1 2v1l-3 3c-3 0-5 2-3 2l1 1-2 1h-2l1 1 1 1v6l1 1 1-1 1 1 1 1c2 1 2 1 1-1l-2-3v-3c0-1 1-1 2 1l3 3 2 1c2 2 5 2 5 1h3l4 1c4 0 7 3 4 3l2 1 3 3h-1v1l1 3 1 2 1-1v-7l-1-4c0-3 0-3 1-2h1l2-8h3v-1l-2-1h-1c-2 0-3-2-2-2l5 1 4 1v1l-3 3c-3 0-5 4-3 4 1 1 3 0 4-2l2-2 3 4c2 4 3 4 3 2l-3-4c-2-2-2-5 1-5l6 5h1l1 2c-2 3-2 6-1 4 1-1 1 0 1 3 0 6-1 7-5 7-4-1-7 0-6 2h3c2-2 3 0 2 3l1 2 2-2c0-3 2-4 2-1h1v-2l2-1v2c-3 1 1 3 6 3 6 0 7 0 6 1l2 2c2 1 3 0 1-1-2-2-1-4 1-4v1c-1 1-1 1 1 1 3-1 3 1 1 4-2 2-2 3-1 4h3c0-1-1-2-2-1v-1l2-1 1-5c1-9 1-9 2-8v4a6 6 0 0 0 1 8l1 1 1-1-1-1-1-1h2l2-1 1-1c1 1 2-2 1-3 0-2 2-3 6-2 3 1 4 4 2 4l-1-1h-3c-2-1-2-1-2 2l1 3 1-1 1-1h2l2-1v4c1 1 5 0 5-1l-1-1h-1v-3l1 1 1 1 2 1c1 2 3 3 3 0h-1c-2 1-1-2 1-3 3-2 2-3-1-1-2 1-3 0-4-6a13 13 0 0 0-5-12h2c2 1 2-2-1-5-2-3-1-4 5-3h7v-4c-1-3-2-5-4-6-5-3-8-6-4-6l1-2-1-3-2-1-1-2c1-1 1-1 0 0-2 2-3 1-3-1 0-3 2-4 2-2h2v-4c-1-2-3-3-3-1m-39 43c0 4 0 4 3 3a2 2 0 1 1 1 3l-1 3c0 3 2 5 2 2l1-1c2 0 2 0 1-1s-1-1 2-1a6 6 0 0 1 5 2v-4c2 0 3 4 2 5h-2l-1 1 2 1c2 1 4-6 2-7-1-1-1-3 1-3s2 0 1-1l-3-3-2-2v2c1 3 0 4-1 2l-3-1c-2-1-2-1 0 0v1c-2 0-3 1-2 4l-1 1-1-2-1-2c-2 0-3-3-2-4l-1-1h-1c-1-1-1 0-1 3" tabindex="-1" itemprop="regular" style="fill: rgb(84, 255, 125); fill-opacity: 0.505; fill-rule: evenodd; color: rgb(85, 85, 85);"></path><path d="M1 12a33 33 0 0 0 1 14L1 39v57c-1 36-1 43 1 44v2l-1 3v16c-1 10 0 13 1 14l1 2H2c-1-2-2 3-2 108 0 93 1 105 2 105a2 2 0 0 1 0 6c1 0 1 1-1 2-1 3-2 18 0 20v2l-1 11v9l4-1c4-1 5-1 4 2H6l1 2c1 1 0 2-3 4-4 1-5 7-1 7l2 4c-1 1-3-1-2-2l-1-1c-1 0-2 1-2 5 0 6 1 8 3 6 1-1 1 0 2 3 1 4 1 4 2 3s2-2 3 0c1 1 3 1 2-2l2-1h2l-2 3-3 4c-5 5-11 19-10 23v4l3-4 4-8c1-5 9-17 10-17s2-1 2-3c1-3 4-6 6-6l3-1 2-2c3 1 3 5-1 14-7 14-10 20-11 25-2 9-14 30-17 29l-1 1v37c1 1 17-1 24-2l6-1 5 1c5 0 6-1 7-4l3-3v-6c1-5 2-5-3-5s-12 5-12 9l1-1v5l-2 1-6-1c-5 0-7-2-5-7l9-26-3-1c-3 0-3-1-9 17-3 11-4 12-9 12l-3 1v-5c1-3 1-5 3-6l2-3-1-1 1-3h2l1-2 1-2 1 3-1 4 2-3c2-5 1-7-1-7s-2 0 0-6l1-6 4-9 4-7 3-7 2-7 2-7 4-9 4-11 4-10c2-5 4-7 6-4s2 3 0 8v4l1 2h1l1 2 2 2v2l-1 1-1 3-3 4-2 1h-2l-3 1c-2 0-2 0-1 1h4c2 6 2 6 4 4 0-2 1-2 1-1 0 2 2 1 3-1l2-2 1-2v-1c2 1 5-5 4-6h1l1-1v-1l1-1 1-5 1-6c1-1 1-1 1 1-1 2-1 2 1 1l1-1c0 1 1 2 3 2l2-1 1-1h1v-1l-1-1c-1 1-1 0-1-1l1-3v-2l1-4v-1h-1l2-1 3-2 2-2c2 0 5-1 5-3l2-3-1-1c-2 0-2-1-2-3l1-3v-1h-1c-1 1-2 0-3-2a10 10 0 0 0-6-4c-2-1-1-1 7-1a16 16 0 0 0 6-2h-1c-2-2 2-2 5 0 4 2 6 1 6-3l2 1h2c2-2 3-1 2 1 0 2 0 2 2 3l2 1a13 13 0 0 1-8 5v-1c1-1 1-1-1-1-3 1-5 0-4-1l-1-2-1 1c1 1-3 2-5 0h-3l-1 2v1c1-1 2 0 2 1l2 2h1l2 1v3c2-1 4 1 3 2h1l2 1v2l1-2v-2l-3-1c0-1 1-2 2-1h2l1 2h7l1 1c1 5 0 7-4 6-3 0-3 0-2 2l2 3v6c3-1 4 5 1 8-1 2-1 2-3 1-1-1-1-1-1 2 1 2 0 3-1 4-2 0-2 1-1 2l1 4c0 1 0 2 2 1l1 1h-2l-3 1-3-1-2-1-1 1h-2l-3 1-3 1-2 3c-1 2-1 2 1 2 3 0 7 3 5 4v1h6l2 1a2 2 0 0 0 4-2c2 0 1 7-1 8-2 0-3 2-1 2l1 2c0 2 0 2 1 1s1-1 2 1c0 3-2 7-5 7s-2 2 0 2c3 1 4 5 1 11l-2 5v3l-2 8a118 118 0 0 1-5 22c-1 1-1 1 1 1 3-2 4-3 6-14l3-12 2-13 2-8 2-5h2c2 1 2 1 1 2s-1 1 1 2c3 2 5 1 4-3 0-2 0-2 2-2 3 0 6-3 5-4l1-1c2 0 2 1 1 2l1 3v4c0 4 2 6 5 4l1 1-2 5-2 2c-2 0-3 2-4 6l-1 5 2-1c3 0 3 0 2 5l-2 10-1 6c0 2 0 2-12 5l-8 2c0 2-32 5-48 5-2 0-3 4-2 4v3l-2 4a78 78 0 0 0 24-4v1c-1 1 6 1 22 1h22l-2 3-4 3-4 3c0 2 0 3-2 3s-2 0 0-4v-2c-2 0-5 4-5 6 0 4-2 5-18 5l-17 2-6 1c-5-1-7 0-7 1h13l2-2c2 0 1 2-1 4-2 1-2 2 0 2l3-2c1-1 12-2 12 0h1l9-2a28 28 0 0 0 18-9l5-2c0-3 4-6 8-6 3-1 3-1 3 2l-3 4c-2 2-2 2 2 2 3 0 3 0 2 1-2 1 0 2 4 1l1 1h10c11 0 13 0 13 3h-3c-2 0-3 0-3 2h-1c0-2-1-2-5-1-5 1-11 5-8 5s4 1 4 2l-4 1c-4 0-5 1-7 3l-2 2 3-1c5-3 8-3 6 0l-3 1-4 1-6 2-5 4c-4 4-5 4-14 4-8 1-10 2-13 4a15 15 0 0 1-8 4l-3 1c-2 0-3 0-2-1h-5l-11 4h6c21-3 33-5 29-3l-3 2c-3 2-15 5-26 6l-12 2h-3c-1 0-3 0-4 2l-9 6-2 1-3 2-6 4-4 3-5 2-6 3-7 2-3 1-1 11v11h10a15 15 0 0 0 13-2c-1 2 0 2 11 2h11v-3c0-3 3-8 3-5 0 1 3 0 3-2s5-9 6-8l-1 3v4a2 2 0 0 0-1 2l1-1 3-2 1-1h2c1-1 1-1-1-2-1-1-1-1 1-2 4-2 9-3 11-1 3 1 4 1 4-1s2-4 2-1c0 1 1 1 2-2 2-3 3-4 3-1 0 2 1 1 4-1 1-2 4-3 7-4a5 5 0 0 0 5-3v1c0 2 0 2 1 1l6-1 7-3c1-1 1-1-1-1-2 1-3-1 0-2l4-2h3l1-1c1-2 2-2 4-2 1 1 2 0 2-1v-2l1 1 2 2c2 2 2 2 2 0l-2-3v-1l3 1c0 2 3 0 3-2l1-1c2 1 1-3-1-4-1-1-1-1 1-2l3-1c1-1 2 0 2 1 1 1 1 2 2 1 2 0 2-1 1-3l1-2a6 6 0 0 0 9 1c2 0 1-2-1-3v-1l3 1c2 2 2 2 2 0 1-3-2-6-4-5l1-2c2-2 2-2 0-2l-2-1c-1-2 4-1 6 1a5 5 0 0 0 8-4c-2-1-1-2 1-1l2 2h2l1 1-1 2h-1l-2 1-2 2c0 1 2 2 2 0h2l3-2 1-1c1 2 5 1 5-1-1-3 0-4 2-3 1 2 3 0 2-2 0-2-3-3-7-2-2 0-3-3-1-4v-1c-2 0-1-2 0-2s2-1 1-2h2l2 3c0 2 0 2-1 1h-1l-1 1 10 4v3c-1 1-1 1 1 1s2 0 1-1c-2-1-1-1 3-1 2 0 3-1 0-3-2-2 0-2 3 0 4 2 7 1 7-2 1-2 1-2 2-1 2 3 6 3 6 0 0-2 0-2-3-1h-2c0-2-1-2-3-1l-4-1v-1c3 0 8-2 6-3l-1-3h1c2 2 3 2 2 0-1-3 3-4 5-3 3 2 4 2 4 1 1-1 0-2-1-1-2 0-4-4-2-5v1h2l3 1 4 2c3 2 4 3 4 5s2 3 4 1c1-2 1-2 3 0l2 1-1-2c-1-1-2-2-1-4 0-1 0-3-2-4-1-1-1-1 1-1l2-2 1-3 1 2v4l2 4 2 1 2 1c1 2 4 3 4 1l-3-3c-3-2-4-2-3-4l-1-3-1-5v-6c2 2 2 3 1 5l1 3c2 0 2-1 2-3v-2c1 1 2 6 1 7-2 1-1 2 1 2l2 1c0 2 0 2 3 0l2-4c0-2 0-2-1-1-2 2-2 2-2-1l1-3 1-2c1-3 4-3 5 0l1 2c1 0 2 1 2 3l-1 2v1l1 2 1 2c-1 2 2 2 3 1s1-1 1 1v2l1 2-2-1c-1-2-1-2-3-1h-3l-2-1 1 2v2c-2 3-1 4 1 4h2c1 1 2 2 4 1 4 0 4 0 3 1s-2 2-3 1v1h3l1 1c0 1 2 1 4-1 3-2 2-4 0-4-1 0-2-1-2-3v-4l1 1 1-1 3-2h3c1-1 3 0 3 2l2 2 2 2c1 2 1 2 2 1 2-2 2-2 5 1 3 2 5 2 5 0l-1-1c-1 1-4-3-4-4v-3l-1-2 3 2c1 2 2 2 2 1 1-2 2-2 3-2 2 1 3 0 3-1l2-1 2 1v2c0 2 3 4 4 2h3l2 1c2-1 4 0 4 2l-1 1c-1-1-1 0-1 1h-2l-3-1a3 3 0 0 1-3 1l-2-2h-1l1 2a7 7 0 0 0 3 6c1-2 3 3 2 5l2 4 2 5a6 6 0 0 0 4 4h2l1-2v-2l2 3c1 2 1 2 1 0 0-3 2-2 2 1l1 3 1-1 2-3h2v-1l2-1c3 0 3-2 0-4-5-5-5-5-2-6l1 1 1 1 2-2h2l3 1 1 1a1 1 0 1 0 3-1v-2c1-1 1 0 1 1l1 2v-1h6l8 3c7 2 12 4 11 5s0 1 2 1l3-1c-1-2 8-2 11 0s4 4 0 3l-7 2c0 1 1 2 3 2l8 3 6 2c1-1 1 0 1 1 1 2 0 3-1 3-2 0-2 0-1-1v-2c-2-1-5-2-4 0l-2 1-3-2-3-1-3-2-2 1h-5l-2 1v1l-2 1c-1-1-2 0-2 1h-5v4c0 2 0 2-1 0h-1c0 2-1 2-2 2h-3c-3-1-2-3 0-2 2 0 2 0 2-2-1-1 0-2 1-2 2-1 1-7-1-7v1a4 4 0 0 1 0 4h-3l-2-3-2-3v-1h-1l-3-2c-4-2-4-4-3-5s0-1-1-1c-3 0-3 2 0 5l2 2c0 1-6 1-9-1h-2c-1 1 0 1 1 1 2 0 0 2-3 2l-3 2c0 2-2 3-4 1h-1l1 1v3l1 4c1 1 0 2-1 3-2 1-2 1-2-1l-2-3-1-3h1c1 1 1 1 1-1l-1-4h-3c-1 1-1 1-3-1-3-2-5-3-3 0v1l2 2c2 2 3 4 2 7l4 4c1-1 5 1 4 2h3c-1 1 0 2 2 1h3l-3 2a18 18 0 0 0-4 3h-1l-2 2h3v2l-2 1-1 1c-1-1-1 1-1 4l-1 4-1-1h-1c-2 1-1 6 1 8 1 1 2 2 1 3h1l3 1 3 2v2l1-1c2-2 6 0 5 2 0 5 2 5 5 1l3-3-5-3-5-1h-2c-2-1 2-2 6-1h4v-1l-2-2h-2l-1-2h3c1 3 3 1 2-2-2-4-2-4 0-4 5 2 7-7 3-12l-1-1c2 1 3-1 3-6l1-2v7l-1 1 1 1 1 7 1 3c1-1 1 0 0 0l2 4a10 10 0 0 1 4 8c2 3 2 7 1 9l-1 2 2-1c1-3 3-2 6 1l3 3-2-1c-4-1-5-1-2 1l3 2-3-1c-3-1-7-1-6 1l7 1c6 0 6 0 5-2l-1-2 2 2c4 3 10 3 10 0 0-2 0-2 1 0l1 3v-3c1-2 1-2 1 0s0 2 18 2c15 0 17 0 16-1l-1-2h6l3 1c0 2 2 2 6 2h5l-1-3c-2-3-5-4-5-2l-1 1v-7l1-2 1 2 2 4 2 4 2 3h74v-65l-3-8-3-10-2-2 2 10 1 4c-1 2-9-17-10-23l-1-4-1-3c-1-6-9-28-10-27h-1l-3-13-1-2v-2h1l1 2v2a4 4 0 0 0 2 5v-4l-1-1c1-2 3-1 2 2l1 2 1 2c-1 1 0 4 1 6l3 7c0 3 6 13 6 12l-3-8c-3-7-6-16-6-20l-2-6c-4-7-6-15-4-14 1 1 1 1 1-1a1 1 0 1 1 2 1l1 4 3 11a87 87 0 0 0 5 17l4 10 5 12 8 21c1 5 1 3 1-4l-3-14a20 20 0 0 1-3-8v-2l-1-2c-1-1 0-2 1-2l3 3 1 2 1 3c1 1 1-46 1-106l1-99c0 7 1 4 1-10l-1-15-1 5v-6c0-6-3-15-4-13v-1c0-3 0-3-7-15l-5-8a131 131 0 0 1 15 23c2 0 1-17-1-18-1-2-3-4-3-7l-4-6-5-8c-1-4-4-9-9-15l-5-5c0-2-6-11-7-11l-11-11c0-2 0-3-2-4l-8-10-7-8v2l1 1c-2 0 2 6 5 8 2 1 3 3 2 3l2 2c1 1 2 2 1 3 0 2 0 2 1 1h1v4l2 2 2 3 4 5c1 0 3 2 3 4 2 3 2 3 0 2-2-2-2 0 0 2 3 3 6 3 4-1l-1-3 3 4 6 9c4 3 6 7 3 4h-2l-4-5-5-5c-2 0-2 1-1 3v1l-2-2-24-37v-2l-1-1c-1 1-2-2-3-6h-1l-1-2c0-2-3-7-7-11l-1-3c1 1 1 1 0 0l-1-3-1-2-9-14-4-5-2-2-3-4-5-7-4-4c-2-1-2-1-1-2v-3l-2-1v2c-1 0-4-4-4-6l-3-6c-3-4-2-5 1-3l2 1c0-2-4-4-5-3h-3l2-3v-2c-1-1-1-1 1-4s2-5-1-4l-2-1-2-2c-2-1-2-1 2-1 7 0 7-2 0-2-4 0-6-1-6-3l-3-1c-2 1-3 0-9-6l-8-7v-1c0-2-1-4-3-5-2-2-1-5 2-3l2-1a2 2 0 1 1 1 2c-1 1 0 1 2 1 4 0 6-2 4-4l1-3c0-2 0-2 2 1l2 3-1-3c-1-3 1-3 2 0h2c0-2 3-1 3 1l1 2c2 0 2 0 1 1h-3l-1-1v-1h-1v3l2 5 2 3 1-1 1-2a5 5 0 0 0 1-3l2-1c1-2 2-2 3-2 2 1 2 0 2-2 0-1 0-2-1-1v-1c1-2 0-3-2-1v-1l2-2c2 0 2-2 1-3v-1l1-1 1-4c2-1 3-3 2-3l-1 1-2 1c-2 0-3 0-2 1h-5l-1 1a3 3 0 0 0-3 4l1-1 1-2v5h-2l-3 1h-2l1 1v1l-2-1-1-1c-2 0-2 0 0-2l1-2-2 1-1 1-1-2h1l1-1 4-3c5-2 6-3 2-2h-4l-1 1c0 1-3 2-4 1h-2c-1 2-1 2-3-4l-2-4h3l2 2-1 1v2l-1 1c1 1 5-2 5-4h3c2 1 3 1 4-1 1-1 1-1-1-1a1 1 0 1 1 0-1l1-1a6 6 0 0 0-4-3v-1c4 1 5 2 5 3 1 2 1 2 2 1v-2l-1-3c0-7 0-7-2-6l-1-3v-3c-1 2-3-2-2-3 1-2 0-4-3-4v-9l1 3 1 4 4 4 1 1 2 1c2-1 5 1 5 4l-1 1-1 1-1 1v2c1 3 1 3 3 2l1-2 1-1 5-1 3-1v-3l1-3h2l-1 5 1 2 1-2 1-2 1 2 1 1c1 0 2-4 1-5a5 5 0 0 1 0-6l2 1c1-1 2 0 2 1l2 2v2l-3 2v2c2 1 2 2 1 3v2l3 3h1l1-3c0-1 0-2-2-1-3 1-2-2 2-4 3-3 4-3 4-1a2 2 0 0 0 3 1l-1 3-3 3-1 2c-1 2-1 2-3 2-2-1-3 0-3 1v3l1 3v1l-1 2 2 2 2-2h5l-3 3-4 2-2 1h3c-2 2-2 3 1 2a1 1 0 1 1 0 2l-1 1 7-3-1-1c-1 1-1 0-1-1l2-1c0 1 1 1 0 0-1-2 2-7 5-7l2 2 1-1c1-1 1-2 2-1 2 0 2 1 0 3s-2 2-1 4h3l2-1c2 0 2-1 3-3v-3l-2 2-2 1v-6c2 2 4 0 4-4 0-2 0-3-1-2l-2-1h-1l-1 1c-3 0 0-5 3-6l3-2 2-3v-1c-3 0-3-2-1-3 2 0 5-3 5-4h-1a3 3 0 0 1-3-4c1 1 1 0 1-1l-1-2v-5c1-4 3-5 3-1l-1 1h-1c0 2 3 2 3 0 2-7 1-8-3-5l-3 1 2-3 1-2-1-1h1v-4l1-3c2 1 7-2 6-3h-2c-2 1-2 1-2-1l-2-2-1-2v-3h-1l-1 3a4 4 0 0 1 3-7l1-1 2-3c2-2 3-5 1-5l-3 1h-2l-45-1c-44 0-45 0-44 2l-1 2-1-2-6-2c-5 0-6 0-5 1l-4 4a8 8 0 0 0-6 4 1 1 0 1 0 1 2v7c-1 1-1 1-1-2 0-6-3-5-3 1l-2 3c-2 0 0-4 3-10 2-4 2-6 1-8l-1-2h-20l-20 1h-1c0-2-9-1-9 1h-1c0-3-35-3-36 0h-2c-2-3-12-3-12 0s2 3 3 1l2-2-4 6-1-1c0-2-2-2-2-1V0h-63l-63 1h-1c0-1-48-2-48 0H36l1 2c2 1 0 5-3 8l-1 2h1v2l1 3 1 2 4 2c1 2 2 2 2 1h4c1 2 1 2-1 1-2 0-3 2-1 5 3 2 2 3 0 1-2-1-3-2-2-3l-1-1a11 11 0 0 1-9-7l-3-5c0-2-1-3-2-3-2-1-3 0-1 2h-1l-2-3-1-2a1 1 0 1 1 1-2c2 0 3-1 1-2V1l-2-1c-2 0-2 0-1 1v2c-2 1-2 1-4-1s-4-2-9-2H1v12M454 2l-2 5c-2 2-3 3-3 9-1 3 1 3 2-1l3-4c2-4 1 1-1 5-2 2-2 3-1 4 2 1 2 1 1-1 0-3 5-8 6-6a3 3 0 1 0 5-3l2-2c1-1 3-2 3-4 0-3 1-4 1-1h1c2-3 1-3-8-3s-9 0-9 2M348 53l-3 2c1-3-3-3-5 0l-2 3-1 1 2 1 1 1v1l1 2c1 2 3 2 3 0l4-1c4 0 9-4 8-7l1-1h1c0-1-1-2-2-1a3 3 0 0 1-5-4l-3 3M138 78v7l1 2 1 1 1 2c1 0-2 6-4 7-1 1-2 2-1 3l-1 2c-4-2-5 2-2 5l3 5c0 2 5 5 7 4l1 1 1 4v6l2 4 1 2 1 1v2c-2 2-4 7-2 7l2 1-1 1v1c1 1 2 2 3 1l1 1 1 3h1c0-1 1-2 2-1l1-1 1-1 1 1v1c3 0 3-4 1-6s-2-2-3-1c-1 2-2 2-3 0l-1-9 1 2 1 1c2 0 1-1-1-4-2-1-2-2 0-2l1-3h1v1l2 1c2 0 3-2 0-2-1-1-1-1 1-4 3-2 3-2 1-4l-2-1v-1h4l3 1h1c1 2 4 3 4 2l-2-3v-2l1 1h1c3-2 3-3-1-2l-3-1-1-1-2-1 1-1c1 1 1 1 0 0 0-1-1-2-4-2s-4-1-2-2v-1l-2-2h1c1 1 1 1 1-2l-2-3-1-2c0-1 1-2 2-1l-1-2-2-4v-3l-1-3-1-4-1 2c0 2-1 3-2 3v-1l-1-2c-2 0-5-1-5-3-1-3-4-4-5-1m179 73-1 1-1 1v4c-1 2 0 3 1 4 2 3 0 6-4 5h-3v1c2 0 2 0 1 2l-2 2h-1c-1 1-2 1-2-1-1-1-2-1-2 1l1 2a2 2 0 0 1 0 4h-1l-1 1-1-2c0-1 0-2-1-1-3 0-2 6 1 7 2 1 2 0 2-2l1-1c1-1 2 0 1 1 0 2 2 1 3-1 1-1 1-1 2 1 2 3 2 3 0 5-1 3-5 4-3 2l-1-1-2 1-1 2h-3v3l-1 3-1 2a3 3 0 0 0-1 5l-1 2a1 1 0 0 0 0 2v2c-2 2-3 3-3 1h-1c-1 1 0 2 1 3 2 1 2 2 1 2l-2-1h-1c0 1 2 2 5 1l2 1v2a3 3 0 0 1 1 4c-1 0-3 1-3 3l-3 1 1 3 2 2v-5c1 0 2 1 1 2l1 1 2 1-1 1-1 2c0 2 2 2 2 0l1-2v-2c-1-1-1-2 2-2a2 2 0 0 1 2 3l-1 3a5 5 0 0 1-8 5c0 2-4 1-5-1h-1l-1 1-4 1v2l-1-3c0-3-1-4-3-4-1 0-2 0-1 1v1l1 1 1 2-1 2-1 2c0 3 0 3-2 2s-2-2-1-4c0-4-1-4-3 1l-2 4c-1 1 1 7 3 9h2c3-2 2 3 0 5-2 1-2 3-2 3l-2 1-2 1h8c2-1 2-1 2 1h1c0-1 1-1 2 1 2 1 2 1 1-1l-2-2h1c2 0 2 0 2-2s0-3 2-2v1c-1 1-1 1 1 1l1 2c-1 2-1 2 2 3s4 3 2 3l2 1c3 1 3 1 1-1l-1-3c1 0 4 1 4 3l1 1 1 2c0 3 2 5 3 3 0-2 4-3 5-1l1 1h2v2c1 1 1 1-1 2l-3 3c-1 1-1 2-3 1v1l-1 1c-5-2-5-2-3 0 3 3 3 8 0 6l-1 1v2c-1 2 0 5 2 5l1 1v1c2 1-1 4-4 4-2 0-3 1-3 2l-2 2h-9v1a4 4 0 0 1 4 3l1 1c1 1 1 1-1 1-1 1-2 2-1 3v1c-2-2-7 6-5 9l-1 2c-2 1-2 0-1-3v-7l-2-5c-1-3-3-2-5 0-1 3-1 6 2 6v2l1 1a1 1 0 0 1-1 2v1l1 1 1 2-2 2a1 1 0 1 0 0 2l1 2-2 1-2 1c0 2 3 3 4 2l1 1v1l1 1-4-1a2 2 0 0 0-4 0h-1l2 1c1-1 2 0 3 1h3l2 1 1 2v17l-1 3-3 1c-3 1-4 0-5-1h-2l-1 2-3 2-2 1c-2 0-4 3-5 5l2 2 1 3v1a2 2 0 0 1 3-1h3l6-1h6v1c-2 0 3 4 5 4l1 1 2 1 2-2v-2l1 1c-1 3-2 5-4 5l-1 1-4 1-3 1 2 1c1-1 2 1 0 2h-11l-4 1c0 2-5 4-6 3h-3l-3-1c0-3-2-2-4 1v7l-1 11v4c1-2 1-2 1 0l-1 3v14l1 3c-1 2 0 3 1 3l2 2h-1l-1 1h7l8 2h2c1-1 0-1-1-1v-1c2 0 1-2-1-2l3-2c4-2 6-2 6 1h4l1 1c-2 0 1 4 3 4v-2c0-2 0-2 1-1l1 2c0 2 1 2 3 1l5-2v-2c2 0 2-1 0-3v-1l1-1 2-3c2-2 3-2 2 1l4 1 1 3 2 2 1-1-1-1v-2l1-3 3-2c1-2 3-3 2-1 0 1 1 2 3 1l2 1c-1 2 1 3 4 2l2 1c1 1 0 1-2 1-3 0-3 0-2 2 2 1 2 2 1 2l2 1c3 0 4 0 3-2h1c1 2 0 4-2 3l-2 1h4c2 0 3 0 2 1v2h2c0-2 0-2 2-1l2 2-1 1c-1-1-1 0 0 0l1 1 1 5v5l3 2c2 1 2 1 1-1l-2-3 3 2h1c-1-1 0-2 2-1l2 1a3 3 0 0 0 3 4l1 1 3 1c2 3-2 7-6 7-2 0-3 1-3 2l1 1 1 2a3 3 0 0 0 0 4c-2-1-4 2-4 4s2 1 5-1c1-2 4-3 3-1v1c5 0 6 0 4 2h2l4 1 2 2 2 2 4 2 4 1c3 2 8 3 8 2l-2-2-2-4c0-3-1-3-3-1v-5l3 2 3 1c2-1 2 0 2 1l2 1c2 0 5 3 3 4s-1 2 2 2c4 1 5 2 2 2l1 1h6c1 1 1 1-1 1l-2 1h-1l3 2c4 3 4 3 1 2-3 0-3 0-2 2 0 1 1 2 3 2l4 1-1 1-1 1 4 1h5l-3-2c-2 0-3-2-1-2l6 4c3 3 4 3 4 1-1-1-1-1 0 0l1 3 2 4v-1l1-1 1 2 1 3c1 3 1 3-1 3v1a4 4 0 0 0 3-2l-1-2 3 3c0 1 3 8 5 9v3l-2-2-3-3c-3-1-3-1-1-2 1-1 1-1-1-1h-3l-1-1c-1 0 1 3 5 6l7 5 2-1v2l1 2c3 3 5 4 4 1l1-1h1-2c-1 0-4-5-4-9h-1l-1-1v-2c-2 0-3-2-1-2l6 8 5 6-2-5c-4-6-5-8-3-8l-1-1c-2-1-2-2-1-2 2 1 2 1 1-2v-3l1 2c0 2 2 3 3 0h1c2 4 3 2 3-3a3 3 0 0 1 2-5l-2-1-1-3v-8l-2-8-2-6-4-10-6-13a137 137 0 0 1-14-40c-3-5-4-10-5-13l-1-6-3-6-3-7c-1-1-3-6-3-11l-3-12-3-10c-2-12-5-24-7-27l-3-7-3-9c0-7-4-20-8-27l-2-8c0-2 0-3-2-3-1 0-7-15-7-20l-6-20c-3-8-5-18-5-22 0-3-6-17-8-19l-2-9-2-11-4-11a65 65 0 0 0-12-22l-1-1v5l-1-1-1-1-1-2c1-2 0-3-1-1M96 187l-2 3c-1 2-1 5 2 5 2 1 5 6 3 6l1 2c3 3 4 5 2 4-1-1-2 0-2 1l1 2h3c0-2 0-2 2 0s2 2 3 1h5c1-1 2-2 4-1h5l1 2-1 1-2 2c-1 2-1 3 1 3l1-2c0-2 0-2 4 0l4 4c1 1 1 2 3 1s4-2 3-4l1-1 4-1c1-2 5-3 4-1l1 1 1-2v-1l2 3 2 2v-2c-1-2 4-1 5 1h1l1-1 1 1 1 1c1-1 2 0 2 1h1c1-2 1-3-1-3s-2 0-1-1l2-2h-2l-3 2h-2l-2-1-5-2-4-2-3-1h-1l-1 2a1 1 0 1 0 1 1v1c-2 3-6 0-4-3v-1c-1 0-3 2-3 4l-1 2v-5l1-2v-2h-2c1 2-5 2-8 0-1-2-1-2 2-2 2 0 2 0-1-1h-6l-3-3c-2-4-6-10-6-8l-12-5c0-2-3-1-3 1m3 30-1 2-1 1c1 1-2 2-3 1l-1 1c1 1-1 6-2 7v1c2 0 2 3-1 4l1-1v-1l-3-1-2-1c-1-1-1-1 0 0 2 1 2 1 3-2v-4l-1 2-1 2c-1-1-3 1-3 3s5 5 7 4c4-1 1 4-3 5l-3 2c1 1 0 2-1 2l-1-1-1-2-1 1 4 3c2-1 4 3 3 6l1 3 4 2c2 2 3 5 1 3v3c-2 1 1 3 4 4l3 1 3 2 3 1h1v2c-2 2-2 3-1 3v-1h6l2 1h1c1 2 5 2 6 1h2l2 2h2l3 1c0 2-1 2-2 1h-2c-1 3 0 4 1 4h1c0-2 3-2 5-1 3 2 3 0 0-3l-1-3 1-2c0-1 4-1 6 1l2-1h3l1 2v-1c-1-2-1-2 1-2v-1l-1-2 1-1c1 1 1 0 0 0l-1-2v-1c1-1 1-1-1-1l-3-1c0-2-5-6-5-4a6 6 0 0 1-3 6v-3c0-2-2-1-1 1h-1c-2-2-2-2-2 0h-1c-1-1-5 0-5 1h-3c-1 1-1 0-1-1 0-2-1-3-3-4l-4-3-3-2-1-1v-4c2 2 4 1 4-1l-1-2h2c2 0 3 0 3-3l3-2c2 0 2 0 1-1-2-1-3-1-4 2-1 2-5 2-5 1-1-1 0-2 1-1 2 0 2 0 2-2s-1-3-2-3c-1-1-2-2-1-4l-1-5h-1c0 1-1 1-2-1l-2-4-1-2c-2-1-2-1 0-3v-2l-3-1c-2-3-3-2-3 0m110 5v5c1-1 1 0 1 2 0 1-1 2-2 1a1 1 0 1 0 0 3h1v7c-1 1-1 1 1 1 2-1 2-1 2-6 0-3 0-3 2-2l1 3h2l3 2c1 2 1 2-1 2-1-1-2 0-1 1l2 1a6 6 0 0 1 4 4l1 1c1 1 1 1-1 1-3-1-6 3-6 8 0 2 0 3-1 2v1a7 7 0 0 1 2 4v-2l1 2-1 5-1 2h-1v2c1 1 0 2-1 4l-1 2c2 0 3 6 2 9l-2 4h1v8l-1 11v3c1-1 2 1 1 3l-1 10-1 3c-1 1-2 2-1 3 0 2 0 2 1 0v13l-1 17 1 4 1 24 1 9-1 10-2 15a98 98 0 0 1-2 28v6l2 37c2 1 3-2 3-6l-1-4-1-12v-15l1-4 1 11v10l1-15c0-7 0-9 2-11l2-2-2-1-1-1 1-19v-25l1-28a189 189 0 0 1 2-26v-23l1-33a47 47 0 0 1 2-18c-2-3 1-26 4-26l1-1c1 0 1-1 0 0l-1-1-2-2-1-5c0-8 0-9-2-9l-2 2c0 2-4 2-5 0l-1-1-1 1h-1c-2-1-3-2-2-3l-1-2-1-1v-3h-1m-77 76c-1 1 0 3 1 4v2c-1 0-2 1-1 2 0 1-4 2-7 0-2-1-4-1-6 1h-2l-3-1-4 1c-3 0-2 3 1 3l4 3c1 2 1 2-2 1-4-1-10-5-10-7h-1l-1 2v1l-1 1 1 2 1 1c-1 1 3 2 7 3l3 2 1 1 9 4c-1 2-7 2-8 1h-2v1l1 1c0 2 1 2 3 2a7 7 0 0 1 5 2h-1l-1 1-2 1c0 1 1 2 3 1h8l3-2c-1 0-1-1 1-2v-2l-1-2-2-3c-1-2-1-2 3-1l4-1c1-2 0-2-1-2l-2 1h-2l-1-1-1-1 1-1 4-2h-2v-3l1-1h3l1-1-1-1-2-1 1-1 2-2c1-3 0-4-2-6-3-3-3-3-3-1m-18 61-2 2-3 1c-4 0-5 2-2 3l2-1c2-1 2-1 2 1l-1 1-2 1c-1 1 0 1 2 1 4-1 7 1 4 2l-1 3c0 2 1 2 2 1 2-2 3-3 3-1v1l1-2h3c3-1 2-3-1-3l-4-1 2-1h5l1-2c2-3 1-5-2-5l-5-1h-4m96 39v3a15 15 0 0 1 0 9v1l-1 11-1 10c1-1 1 0 1 2s0 3-1 2c-1-2-2 9-2 14 1 6 2 8 3 8 2 1 2 0 0-3v-5l1-15v-13 2h1l1-5 1-13 1-9-1-1c0-2-3-1-3 2M39 419c-2 1-3 2-2 3v1l-1-1c-1-2-7-2-9 0-3 3-6 2-5 0 0-2 0-2-1-1-2 1-4 0-4-2l-2-1c-2 0-3 0-2 3l2 2 2 1a7 7 0 0 0 9 4l1 1h1c0 2 2 3 2 1a3 3 0 0 0-1-3l2-1c1-2 2-1 1 2s0 5 1 4l1 1a2 2 0 0 0 4 0v-1l6-13c0-2-2-2-5 0m123 53c-2 7-2 9-1 9v2c-4 3-1 8 3 5h3l4 1 3 3c0 3-3 3-4 1l-2-1-1-1h-3c-5 2-6 3-6 7l-1 4c-1 2-3 21-2 22 1 0 0 8-2 11-2 5-1 6 2 3 2-2 2-2 1 0v3l1-1c-1-1 0-1 2-1 4 0 6-3 4-4-1-1 2-1 7-2 7 0 8 0 8-2-1-5 1-16 3-17 1-2 2-12 1-21-1-2 0-5 1-6v-2l-1-1c-1-2-3-3-3-1l-3 3-1-2h-1v-4l5-1c2 0 3-1 3-3v-3c2-3 2-4-2-2a4 4 0 0 1-5-1v4c0 2 0 2 2 1 1-2 2-2 3-1s0 2-3 3c-4 1-8-2-7-4a2 2 0 0 0-3-2l-4 1 1-2v-2l-2 4m113 10 3 1c1 0 2 0 1 2h-3c-2 2-3 2-5 1h-2l-1-1-2-1c-2 0-2 0-1 2 1 3 0 2-2 0l-2-1v2l-1-1-1-1c-1 1-1 0 0 0 0-2-1-2-3-1h-1l-1-1c-2 0-3 3-1 4v9l2 2c0 2 0 2-1 1l1 5 1 8a2 2 0 1 0 2 1c0-2 0-2 3-1 2 1 2 1 2-1l1-1 1-1 3-1c2 0 3 0 5-2 1-1 2-2 3-1l2 1 2 1c1 2 1 2-1 1l-1 1h3l2 1h2l3-2v-1h2l2 1v-3c1-1 0-4-1-4a1 1 0 0 1 0-2l1-1-1-1-3-5-2-5v-1l-1-2v-2l-1-1h-1c-3-1-9-1-8 1m-65 17-1 15v5c-1-3-1 0-1 11 0 5 0 6-1 5s-1 0-1 3c2 10 2 18 1 18h-1v-18l-2-21c-1-4-1-4-1 8l-2 15v28c0 3 0 3-1 2l-1-8-1-8c-1-1-1-1-1 2l-1 3-1 2c0 2 0 2 1 1v2c0 2 0 4 2 7 2 2 2 3 1 5v1l3-3c1-15 2-20 4-13v3l2-2 1-2v2l1 2c1 0 2-6 2-15a123 123 0 0 1 1-11c-1 3-1-4-1-23l-1-16-1-7v7m-67-4c-2 4-2 8-1 9s1 1-1 2c-2 2-3 21 0 22v1c-2 0-2 1-2 3l-1 4c-2 2-3 5-2 5l-1 2v4c1 2 3-1 3-4l1-4 1-6c0-3 0-3 1-2 1 3 2 0 5-15l3-15 1-7c-2-1-7-1-7 1m256 2c-4 1-4 3 0 1 5-2 7-1 6 0l-3 1h-1l2 2c4-1 8 0 7 1l-3 1h-2c0 3 0 3-2 2-1-1-1-1 0 0l2 2 3-2-1 4 3 2 4 2c0 2 4 4 4 3l1 1v1l-1 1c-1 1 1 1 4 1l4-1 3-1 2-1h-6c0 2-3 1-4 0-1-2-1-2 2-2l2-1v-4c-2-1-2-1-1 1 0 2 0 2-2 2l-3-1-2-3c-1-1-1-1 1-1l3 2v-1c0-2 0-2 3-2l2-1h-8c-10 0-11-2-2-2 7 0 8 0 6-2l-6-2-5-1 3-1h3l-6-1-2-1c0-1-6-1-10 1m-59 24v4l-3 4c-1 3-1 3-2 2v3c0 4 1 5 1 2l1-3c1-1 1-1 1 1v3l1-2c0-2 2-4 3-4v3c0 2 0 2-1 1h-1l-1 6c-1 3-1 3-2 1l-1-2v2c1 3 3 4 3 2l2-4c2-2 2-2 1 0l-2 6-1 3v1l-1 3-1 4c0 3 0 3 1 1l3-7 2-4c-2 1-2 1 0-3v-3l1-1v-13l-1-4 1-2v-1h-3v-2l-1 3m-99 15c-1 13 0 17 4 17 6 0 6-1 6-8v-7h-4l-5 1v-6c0-5-1-5-1 3M83 574l-17 2-14 1c-1 1-2 7 0 7l1 1c0 2 12 1 14-1l1-2 4-2 2-2h1l2-1h1l10-4c0-1-1-1-5 1m21 58-1 1-2 1c-1 1-2 2-4 1l-6 1h-3c0-2-2-1-1 1l1 2c3 0-2 2-4 2a2 2 0 0 0-2 4l-1 2c-3 3 2 1 9-5 2-2 4-3 5-2v1l-1 2h3c1 2 3 0 4-4 0-5 2-6 5-3 1 1 1 1 0 0v-4l-1-1-1 1m10 32v2c-1 1 0 3 1 2l1 1-2 1h-6c-2 0-1 2 1 4 3 2 3 3-2 3-3 0-4-1-4-2 1-1-2-2-3-1v1c2-1 2-1 1 1l-2 1c0-2-4 0-4 2 0 4 8 4 8 1 0-2 0-2 1-1 1 2 1 2 2 0l2-1-1 2-1 1 2 1 2-1c-1-1 5-7 7-8l2-1 2-1c2-1 2-2 2-4-1-3-1-4-6-4l-3 1m106 2-2 4c-3 3-2 5 0 4s2 1 1 3v1c2-1 2-1 2 1-1 3 0 3 3 3l4-1-1-1v-1l1-3v-3l-1 1-1 1-1-3c0-1 0-2-1-1-1 0-3-2-3-4h1l3 2 2 1 2 2c1 1 2 1 1 2 0 2 1 2 5 0 2 0 2-1 1-1h-3c-1 1-1 1-1-1l-1-3-1-2c1-1 0-2-1-2h-6c-3-1-3-1-3 1" tabindex="-1" itemprop="bold" style="fill: rgb(0, 41, 59); fill-opacity: 0.83; fill-rule: evenodd; color: rgb(225, 225, 225);"></path></svg>