<svg id="16282281824-posters-1618681645694" itemscope="" itemtype="/posters" itemid="/+16282281824/posters/1618681645694" viewBox="0 0 512 683" preserveAspectRatio="xMidYMid slice" tabindex="0" xmlns="http://www.w3.org/2000/svg"><rect itemprop="background" width="100%" height="100%" fill="white" tabindex="-1"></rect><path d="M5 2a1722 1722 0 0 1 37 21l10 5 16 9 26 15v8l-4 16-13 58-2 13c3 3-3 1-37-14L1 116l-1 88v88l10 3c32 8 47 17 55 32 5 10 5 19 0 47a4155 4155 0 0 0-11 60 1739 1739 0 0 0-14 77l-3 14a5266 5266 0 0 1-17 98l-6 29c0-2-5-2-6 0 0 1-2 1-2-1v-1a3 3 0 0 0 3-2c-1 1-1 0-1-1s0-2-1-1l-1-3a6 6 0 0 1 3-5H8c-2 0 0-8 2-10v-2l2-14 1-8a272 272 0 0 1 4-18l3-21a1908 1908 0 0 0 12-66l-5 14-1 3 2-13 6-28 4-14c0 2 1 1 2-3v-4l-1 2-1 2 3-12 4-16c0-2 0-2-1 0l-1 3v-3l1-5 1-3v3c0 2 0 2 2-2l1-8v-2l1-1c0-1 0-2-1-1l-1-3c0-1 0-2 1-1 0 3 2 2 2-1 0-1 0-2-1-1v-7l2-4c1 2 3-5 2-7-1-1-1 0-1 1l-1 3 4-27 2-9 2-4 1-9c0-14-6-23-24-32-9-4-30-11-35-11L0 491l1 192h255l256-1V0H306L102 1l13 8 35 24-3-1-26-17C101 2 98 0 95 0s-1 2 23 18l29 18 2 3-2 15-5 50a7942 7942 0 0 0-13 111l-8 66c-4 42-5 44-6 44v3c1 0 1 6-1 19l-2 26c-2 15-2 18-4 20l-2 1-3-1-2 2-1 1c-3-1-4 4-2 6v6l-1-2-1-2v-2c0-3 0-3-1-2-2 1-2 2-1 4 1 3 1 8-2 10-1 1-2 8 0 8a6 6 0 0 0 4-6l1 3c1 5 3 5 4 0 0-3 0-4-2-5v-1a18 18 0 0 1 6 11c2 2-1 22-3 25-2 2-3 2-4 1h-2l-3 2-1 4c0 3-2 9-4 10l-1 4-2 4-1 3c-2 8-2 1 0-14a8670 8670 0 0 0 9-74l4-33 8-60 6-39 5-40 16-121 7-58c0-4 0-5-9-10l-25-17L88 0H45C5 0 2 0 5 2M1 14v12l4-8c4-9 3-9 14-3 12 6 12 6 9 14L17 56 9 77c-2 1-4 8-3 8l-2 6c-3 5-3 7-3 15l1 8 31 14 32 14c1 0 6-18 11-40l11-44v-5h1c2 0 2 0 1-1l-3-2-5-3-24-13a832 832 0 0 1-33-19l-6-3L7 5 1 2v12M0 204c0 49 1 69 1 44a8761 8761 0 0 0-1-44m197-35a136 136 0 0 0-19 8l-1 1-1 6c0 5-1 5 20-5 15-9 18-10 18-12 0-4-3-3-17 2m52 2 3 34 60 29-6-36-20-12-24-12c-14-8-13-8-13-3m-55 9-18 10v8l1 8 17-6 2-1 10-3 8-3v-11l-1-11-19 9m0 25c-18 6-19 7-17 8 1 1 37-11 37-13s-2-1-20 5m-1 9-16 6 2 1c3 0 2 2 0 3l-2 1c0 1 3 1 7-1l15-5c14-4 19-6 13-6h-4l1-1 1-1 1-2c4-2-2-1-18 5m59 6 2 23c0 11 1 20 2 20l65 26-1-5c0-3 0-3-1-1v-2c1-10-6-39-10-39l-18-8-21-9-11-6c-8-4-8-4-7 1m-55 3-5 2c-3 0-7 2-8 3l-3 1-2 2h-1c-1-1-1-1-1 1a3 3 0 0 0 1 3c-2 0-1 2 0 2s2 1 1 2h1l3-1v3c2 1 2 6 0 6l-3 3a5 5 0 0 1-3 4l4-1 19-6 16-5v-8c0-5 0-7-1-5h-1c0-5-13-10-17-6M0 485c0 102 1 144 1 93a40322 40322 0 0 0-1-93m402-185 1 7c1 6 1 6 5 8a583 583 0 0 1 18 7l5 2-1-2c-1-6-5-12-6-12-2-1-2-1-1-2v-3l-1 1h-3l1 1 2 4c0 2-5-4-6-5l-1-1-3-1-4-1-4-2-2-1M163 418l-1 2-1 1-2 1 1 1 2 1v1a7 7 0 0 1 0 5c0-3-3-3-3 0 0 4-3 4-4 2-1-3-2-3-5-1l-3 2h3l3 1 2 1h2l-1 1-8 4 2 1 2 1h3c2 0 3 0 2 1l-1 1-2 1h-2l-4 1v1l1 2c0 2 3 1 4-1h1l2 1v1c-2 1-2 1 1 3h3l3-1c2 0 2 0 1 1-2 0-3 3-1 3v2c-2 1-2 2-2 3l1-1c0-1 1-1 2 1h2v-4c0-3 2-4 4-2 1 1 1 1 2-1 0-2 1-3 2-3l2-1c0-2 2-1 2 1 1 2 1 2 3 0l3-3c0-1 1-2 3-2 3-1 4-3 2-3l1-1c2-1 3-8 1-8v-1c3-1 9 0 9 1v7c-1 3-1 4 1 3l1 5 1 7v-18c0-5-1-5-3-6-3 0-3 0-2-3v-2l-1 2c-1 2-3 3-3 1l-1-1v-1l-2-1h-4c-1-1 0-2 2-1 1 0 1-1-2-1l-6-4-2-2v5l-1-3c0-1-2-1-2 1l-2 1h-1l-1 1-4 1c-3 1-4-1-4-5l1-3-2 1m104 13a9 9 0 0 0 2 9h-3c-1 1 0 3 2 3l1 1-1 1a1 1 0 1 0 0 2c1 0 2 1 1 2 0 2 0 2 3 1h5v-1l-1-3c0-6-3-13-6-14l-3-1m212 20v3c0 2 2 3 2 1l3-1v2c-3 0-3 2 0 2a8 8 0 0 1 5 5h-4c-2 1-2 1 0 1 2 1 4 6 3 8l-1 2c1 3-1 5-4 3l-5-2c-1 1-2 0-2-1l-1-1-1-1c-1-1-1 0-1 1l1 5c1 2 1 2-1 2h-1c0 1-1 2-3 2-4 0-4 0-2 5a8845 8845 0 0 0 4 9c0 3 2 6 3 6 2 2 7 13 6 16s-4 4-4 1c-1-2-1-2-3-1h-2l-1 1a1 1 0 1 1-2 1c-1-2-3-2-3 0h1l1 2v3l4 6c2 6 8 10 11 8l3 2c1 1 2 1 3-3l1-5c-1-1 1-4 2-3 2 1 3-4 1-8l-2-2-2-6-4-6h-4l-1-2v-1l2 1h2c2 0 3-2 2-4l1-1 2-1c1-1 3-1 3 2l2 1 2 2 5 7 3 5-1-1-1-1c-2 1 0 5 1 5l6 4 4 4v-3l-1-3-1-3-6-22c-8-22-8-22-4-25 2-2 3-6 1-6l-2-2c0-2-2-3-4-4-4-1-5-2-3-3v-1l-4-3c-2-3-8-4-9-2M96 469l-1 2-1 4-2 4-1 1c2 3-1 8-4 7-2-1-2-1-2 2 0 2 0 2-1 0v-3h-1c-2 0-3 5-5 24l-4 26-1 16c1 2 3 0 5-3 2-4 5-5 6-2 0 2 1 3 3 1l2-1c2 0 4-2 3-5-1-1-1-1-3 1h-3a5 5 0 0 1 4-6h1c1 2 2-3 4-23l5-35v-11c-2-2-4-1-4 1m111 11-2 6c-1 5-1 5 2 4 2 0 2 0 1 2 0 3 3 5 4 3 0-1 1-2 3-2 2-1 2-1 1-2v-4a2 2 0 1 0-3-1h-1l-1-2c2-4-1-8-4-4m287 53v2c-1 1 1 4 3 4v2c-1 1-2 2-3 1l-2 1 1 1c1-1 2 2 2 6l2 4c1 1 1 1-1 1-3 0-3 0-1 1s3 3 1 3l-1 2c-1 2-1 2-3 1s-2-1-1 1v4l-1-1c0-4-5-3-6 1l-1 3-2 1-2 1 9 2 7-1c3 0 4 0 3-1a2 2 0 1 1 2-1c0 5 8-1 9-8 1-3 1-3-1-3l-3-1h-3l-3-1 2-1c3 0 5-2 3-4v-1l-1-1-2-1 1-1-1-2c-2-3-2-6 1-6l1-1c0-2-6-8-8-8l-1 1m-280 35v10h3l4-1v-2a18 18 0 0 0-1-13h1c1 1 1 1 1-1 0-3 0-3-4-3h-4v10" tabindex="-1" itemprop="light" style="fill: rgb(25, 245, 62); fill-opacity: 0.1; fill-rule: evenodd;"></path><path d="m107 10 27 18c17 10 15 7 14 26l-5 40a6875 6875 0 0 0-14 124l-8 66a1066 1066 0 0 1-5 45 1348 1348 0 0 1-7 68v6h-4c-2 2-3 3-1 2l1 1v2l-1 2c-2 2-2 2-3-1l-2-2c-2 2-1 4 2 6 6 6 6 8 4 23a25 25 0 0 1-5 16h3l-2 2c-2 2-3 3 0 3l1 2-1 2-1-1-1-1 1 5c1 4 1 9-2 27a1816 1816 0 0 0-6 51c0 4-1 5-3 5l-2 2-1 1-2 1v-1c0-2-1-5-3-5v2l-1 2c-1-1-1 0-2 1-1 3-3 3-6 3-2 0-4 3-3 5 0 2 0 2 2 1h2l1 1v1l-1 1-2 1c0 3-3 2-3 0h-2l-5 3-4 2-2 4-1 8c1 6 1 7-1 8a2 2 0 1 0 2 2h1c0 1-1 2-3 2s-5 3-3 3l1 1-2 1c-1 0-2 1-2 3-1 2-2 3-3 2l-2 2c0 2-2 4-4 3h-2l2 1v1c-2 0-4 2-2 3l1 3-1-1c-2-2-5-2-6 1v3h-1v1c1 2 3 0 3-2v-2l1 1v2l2 1-1 1h-1l-1 2-1 1c0 2-1 5-2 4l-1-2h-1c-2 1-2 2-2 5l-2-1-2-2h2l-1-1v-7c-1 0-2 4-2 9a13843 13843 0 0 1-10 51v3h78l34 1 1-3 1-2 1 2 3 2h144v-5l2 3c1 3 4 4 5 2l2-16c0-22 1-21 1 0v17h36l36-1 7-2a28 28 0 0 1 10-3h1l1-1c0-2 7-1 7 1 1 2 1 2-3 1-2-1-3-1-2 1l1 3v-1c0-1 0-2 2-2l1 2c-1 1 7 1 66 1l66-1c2-10 1-10-8-12-7 0-9-1-9-2s5-2 6-1h1l3-5c8-6 8-6 9-14V435l-1-212c0-12 0-14-5-15l-3-4c0-2-3-5-3-3-2 2 0 7 2 7l1 2 2 2 2 1h-7c-2 1-3 1-4-1l-2-1-1-1c0-2-3-4-5-4l-2-1-1-1-5-3-4-3c-1 1 0 1 2 3l2 2c-1 1 2 5 4 4v1l2 3c3 0 4 2 2 2l-8-2-6-1 2 1 3 2 1 1 1 1-3 2-3 1c1 3 0 3-2 1l-3-2 1 2 2 3c0 2 0 2 2 2 2-1 3 1 1 2v2h2c2-2 5-2 4 0l1 1h1c0 1-11 1-12-1s-7-3-9-1c0 1-1 2-2 1l-2 1 2 1 1 1c0 2 2 1 4-1l2-2v3l1 1-12-1-12-27c-11-30-11-30-9-29l35-3 23-4 16-2c2-1-1-1-16 1l-50 5h-10l1-5c0-5 0-5-4-7-3-2-4-4-3-5 1-4 1-5-2-7l-3-3 9-23-2 7c-2 6-2 10 1 14a14 14 0 0 1 3 5v-1c0-2 1-2 2-2l1 1v3c0 2 0 3 2 2 2 0 2 0 2 2l1 2 1 1-1 1h-1c0 2 1 2 6 2 3 0 4 1 2 3-1 1-1 1 1 1 1-1 2-1 2 1 1 2 5-2 5-5h5c0 2 0 2 3 0 2-2 3-2 2 1h8l2 2h3v-2c0-4 3-6 5-4l6 2 5 1 6 2 6 1 2 1-1-1v-1l1-71 1-67c1 1 1-1 1-8 0-6 0-10-1-9l-1-1 1-1V1c0-2-208-2-208 0l1 2c4 3 7 20 4 29l1 5v1l-1 5c0 5 1 6 2 4s3 0 3 3c1 3 3 6 4 5s1-1 1 1l2 2c1 1 1 1-1 1s-3 2 0 3l1 5a25 25 0 0 0 1 6l3 1 4 2c1 2 3 3 3 2l2 2 2 6 1 1 1-1c-1-2 2-2 3 0h3l4-1 4-1 5-2 6-1 3-1-12 5-15 7c-4 2-4 2-21-12-11-8-14-11-14-13l4-53c0-3-1-4-4-6-5-3-5-4-3-6V0l-2 2h-3c-1-2-6-2-36-2h-34l-10 5-11 5 8-5 8-5h-59c-46 0-59 0-58 1l5 4 9 5 12 8c6 4 7 5 7 3-1-2 1-5 2-4l1-2v-1l5-5c2-4 2-3-2 8l-3 8 5 3c5 4 7 6 5 6l-27-17C104 4 97 0 95 0c-3 0-1 1 12 10M30 23l-8 21C6 87 0 104 0 109l1 4 27 13 33 14 5 2 15-62 6-24c1-2 0-3-6-6L53 34C29 21 30 22 30 23m178 12-4 2c-5 1-8 3-11 6l-2 1-8 4-1 2c1 0 2 0 1 1l-1 1c-1-1-2 2-2 10 0 10 1 10 2 1 0-9 0-9 3-10l15-7c12-5 12-6 12-8-1-3-2-5-4-3m51 23-4 6-1 1-1 2 1 1 6 4 16 11 12 9 3 1-4-22-22-16-3-2-3 5m-16 20c-3 4-3 4-1 4 2 1 2 1 1 3l-1 3 50 33-2-8-2-9c0-1-3-4-12-9l-28-19c-2-2-2-2-5 2M0 118l6 4 26 11 27 11c9 5 16 7 17 7l-2-2-23-10C4 118 0 116 0 118m398 32 3 5c1 1 4 7 5 13l4 10 19 13 5 3-2-5-4-11c-2-5-3-6-15-15s-15-11-13-13l-1-1-1 1m-193 10-30 11-1 14-2 22c0 11-3 11 22 2 17-6 20-7 20-9l-1-2-38 13c-1 1-1 1-1-1l1-2v-19l1 9v9l16-5 13-5 9-3v-16c0-17 0-18-5-16-4 2-8 3-6 1 1-2 4-3 9-3 1 0 2-3 0-3l-7 3m44 11c0 24 2 33 4 34l61 30-7-42-24-15a40140 40140 0 0 1-34-18v11m167 25c3 9 3 9 13 16 9 5 10 6 9 3l-4-8c-1-6-2-6-7-10l-10-6-3-2 2 7m-221 17-18 6v20c-2 2-1 3 3 3 3 0 4 2 1 3l-1-1v-1l-1 1-1 3c-1 1-2 2-1 4 0 2 0 2-5 3-5 2-6 5-6 18v6l1-5 1-10v-6l4-1h5c-1 1 0 1 1 1l1 2c-1 2-1 2 3 1 5-2 7-5 4-7a22 22 0 0 1 12-5l-2 2c-7 2-8 3-8 5 0 3 3 3 8 0l2-1v7l-1 8 8-3c9-3 11-4 11-7 0-2 0-2-2-1a226 226 0 0 1-13 4c-2 0-2 0-2-4l1-3 8-3c7-2 8-3 8-5 0-4-1-4-9-1l-6 2 8-3 8-3v-13l-1-17c0-6 0-6-21 1m56 4 3 44c1 3 66 30 67 28l-8-45-2-2-52-24c-8-4-8-4-8-1m217 21-2 2 3 1a2 2 0 0 1 1 4l-1-1c-2 1-4 0-4-3l-2-2c-2 0-2 0 0 4 1 5 2 7 3 7l4 1-1 1h-3 7l4 1a5 5 0 0 1 3 0c0-1 2-3 5-3s3-1-1-3l-5-2c-5 1-7-1-4-4v-1l-2-1c-2-2-2-2-5-1m7 25-2 2c1 1 1 2-1 3-1 3-1 3 1 3l2 2h-3v1c1 2-2 5-4 3-1-1-13 15-13 16l4 12c4 11 4 12 9 14 6 3 10 1 7-3v-2c2 0 2-1-1-3-3-3-3-4 1-3 3 0 5-2 3-5l-2-2h5a1 1 0 1 0 1-2l2 1 2 1v-5c-2-2-4-3-4-1l-1 2-1-2 1-2v-2l1-2c1 1 3-1 2-2h-5l-1-1c-1-1-3-2-4-1l-2-1c0-2 4-5 7-5s3-1-1-3c-3-3-1-5 4-5 2 0 3 0 2-1 0-1-1-2-3-2l-4-1 1-2 3-1-1-1h-5m-333 33-1 21c-1 22-1 23 1 23l1 2c0 3 2 2 2-1v-4h-1l-1-4 1-25-1-17-1 5m257 0 2 8c3 11 4 12 8 12 3 0 3 1 3 3 0 3 0 3 2 2 2-2 2-2 5-1l8 3 7 2c2 2 1 0-2-9l-3-6-2-2c-1-3-3-4-13-9-14-5-15-6-15-3M1 472l1 170a4965 4965 0 0 0 24-127 4034 4034 0 0 0 27-137c5-28 5-32 1-41-3-5-3-11-2-13 4-4-17-16-37-21l-12-4c-2 0-2 9-2 173m279-167v5l1-1v-1l1 1v2l-1 1c-1 2-10 1-18-2-3-2-9-2-7-1l16 5a15 15 0 0 1 9 5c4 0 6 0 4 1-1 1-1 1 1 1 1-1 2 0 2 1l3 1 4 1 3 1c2-1 5 0 6 1 2 1 2 1 0 0-4-1-2 1 3 3l7 2 1-1c-1-1-1-1 1-1l1 2a55 55 0 0 0 21 7 12 12 0 0 0 9 3l6 3 8 3 2-1v-4l2 2 2 2 4 1h3v-2c3-1 5 1 4 2 0 2 2 3 3 1 2-3-6-6-8-3h-2l-1-1h-3l-1-1 2-1c3 0 7-1 8-3v-1h-2l-1 1c-1 2-2 2-6 2l-5-1c1-2-1-4-2-3l-2-1-8-1c-2 0-3-1-3-2l-1-1v-1h3l-3-3-2-1 2-2c1-1 1-1 0 0h-2a24 24 0 0 0-1-4l-1-2h-7c-1-1-4 0-4 1 1 1 0 1-1 1l-1 2-1-1a2 2 0 0 1-1-4l-1 2-3 1h-1l1 1 1 5 2 1c3 1 6 2 5 0h1c2 1 2 1 2-1 1-2 4-3 4 0h-1c-2 0-2 0-2 2 1 2-1 4-2 2 0-2-1-2-1-1-2 1-5 1-6-1h-6c0-2-4-4-6-3l-1-1-1-1-7-2-5-1c-2 0-2 0-1-3v-1l-1-2c1-3-2-3-4 0l-2 1-1-1-2-2 1-1v1l1 1h3v-3l1-1h-2l-6 2c-2 0-3 2-1 2l4 3-1 1-2-1-1-1h-2a4 4 0 0 1 2-6 2 2 0 0 1 2-3l-2-1h-2v1l1 3-3-3-2-2m-38 15 2 3-1-1c-2-2-3-1-3 1 1 1 1 2-1 2-1 0-2-1-1-2s-1-1-3 1l-5 1h-4l-6 2a9 9 0 0 0-6 1h-3l-2 1-2 1-2 2h-6l-1 1c-2-1-4 0-5 1-2 1-4 2-5 1l-5 1-3 1-2 1-2 2 1-2 1-2c-1 0-2 0-1-1 1-2-1-1-4 2-2 1-3 3-2 3l-8 4c-1-1-2 0-2 1h-2l-2 1 13-2 13-1h8l2-1 2-1 3-1c2 0 3 0 2-1 0-1 1-2 3-2l20-5c20-5 15-5 48 4a6532 6532 0 0 0 79 24l10 2c4 0 20 4 49 13l17 5h5l-3-1-5-2-4-2-4-1h-3a194 194 0 0 0-27-9 43 43 0 0 0-12-3l-7-2-7-4-3-1c-2 0-2 0 0 1s4 4 1 4l-2-2-2-1v-1c0-1-4-2-7-1l-1-1-2-2h-4c-2 0-3-1-3-2l-2-1h-1l-5-1-4-3h-3c-2 0-2 0-1-1h-3c1-1-5-3-7-3-1 1-1 1 0 0l-7-1-4-1c2-1-2-3-11-5l-13-5-17-4h-2c0-2-1-2-7-2l-3-1h1l1-1-4-2c-3 0-3 0-2 1m231 9c-5 2-5 3 9 39l6 18c1 4 2 5 4 6s2 1 1 3c-2 2-1 3 2 12l4 12c0 1 1 2 4 2 3 1 4 1 3 3l1 2 3 2c2 2 2 2 2-5 0-8 0-8-3-9-2 0-3-2-3-2 0-2 0-2 2-1h4l-3-3c-3 0-4-1-6-8l-9-26 9 3 9 2-10-5c-9-3-12-5-11-7l11 3 10 4v-10c0-6 0-9-1-8h-1l-1-1h-1l-18-10c-19-10-21-11-18-13 2-2 5-1 11 1 24 11 29 13 29 11l-29-14c-6-3-7-3-10-1m-335 27v1l-1 2 1 2 2 1h-1c-2 0-2 0-2 2 0 1 0 2-1 1-2-3-5 0-4 5v4l3 3c5 3 5 3 7 1 2-1 2-1 2 1l-1 3-2 1v2l-1-1c-2-2-2-2-3 0v2h2c-1 1 0 2 1 2 3 1 4 3 1 3-3 1-4 4-1 4l3-1h1c1 2-3 3-3 2-1-1-1 0-1 1a5 5 0 0 0 5 6h1l-2-1c-1 0-2-1-1-4 0-2 2-1 2 0l1 2 1-4-1-4-1-2-1-4v-2l1-2c1-2 8-2 10 0l2 2c2 1 2 1 1 2-2 2-1 3 1 2l2-5c0-4 3-6 5-3l1 2-1-1h-1a4 4 0 0 0 1 4h2v2c-1 1 0 4 1 4l2-12 1-3v-2c-2-1-5-1-6 1l-1 2c-2 1-3-5-2-7s0-4-1-4v-1c1-3-8-8-9-4l-3 1h-1v3c0 2 0 2 2 2s2 0 1 2l-1 1 3-1c1 0 0-3-2-3l-2-1 2-1c3-2 7 0 6 4l1 2c1-1 1 0 1 1l-2 1c-3-1-6 1-4 2h3l3 2c2 2 0 2-4 0-2 0-3 0-4 2s-8-1-8-3h1l2 1c3 0-1-3-5-3l-4-2c0-2-1-2-2-2h-2l-1-2h1c2 1 4 0 4-2l1-1 1 4c-1 2 0 3 1 3 2 0 2 0 1-2-1-1-1-1 0 0 2 0 2-4 1-5v-1l1-1-1-1-2-1 2-1c2 1 1-3-1-4-3-1-4-1-4 1m218 18-5 10 12 3h1l2 1c1-1 4 0 5 1h3l3 1h2a5 5 0 0 0-7-3l-1-2-3-3c1-3 2-3 2-2v3c1 2 3-3 3-6 0-2-1-3-2-3-1-1-1-1 0 0 1 3 1 5-1 3-2-4-1-7 2-5h1v-1h4l5 1c5 1 7 0 3-1l-22-7c-2 0-3 2-7 10m-180 0c-1 0 0 6 3 8v3l2 1 1 1c-1 1 0 1 0 0l2 1-1 1v2l3-1 1 1c1 1 1 2 2 1l-2-6c-2-4-2-5-1-6 4-2-5-8-10-6m-44 14c-2 1-2 1-1 2 4 1 4 5-1 4h-1l1 2c3 0 6 3 4 4h-1l-1-1c-2 0-1 3 1 4l2 2c-2 4-2 7-1 5 2-2 4-2 4 1l1 1 1 1-1 1-3 1-3 2h-1v3l-1-2h-2v5c-1 2-4 1-3 0h2c-1-2-5-2-5-1v7c-1 0 1 3 3 3v-1c-1-2 0-3 1-1 1 1 0 3-2 3v1l1 1h1l3-1c2-2 2-2 1-3l-1-2h2c2 3 2 1 0-1l-1-3 1-2 1-1v3l1 3 1-1 1-2v6l-2 1c-1 1 0 1 1 1 3 0 3 0 3 2-1 1 0 2 1 1 1 0 2 0 1 2 0 2 2 4 3 2h1c0 2 1 2 2 2 1-1 1 0 1 2s-1 3-2 1h-2v7l-1-3a2 2 0 0 1-2-2l-2 2c-2 1-2 1-1-3a2 2 0 1 0-3-4l1 1a1 1 0 1 1 0 2c-2 0-2 11 0 11v3h5c0-2 3-1 3 1l-1 1h-1l1 2v1l1 1v6l1-1h2v2c-3 0-4 0-3 2l-1 1v1h5l-2 2c-3 0-3 1-2 2l1 4c0 2 0 2 2 1h2c0 2 2 0 1-2l-2-2v-1l2-4c-1-2 1-4 3-5v-1c-2 0-3-6-2-7h4c4 0 4 0 4 4l1 4v-2c0-2 0-2 2-2 3 0 3 0 1-2a2 2 0 1 1 3-2l2 3c-1 2 2 5 4 4h1c0 2-3 3-4 1l-3-1c-2 0-3 2 0 2h2l1 3c0 2-2 3-4 1h-2c-1 0-1 1 1 1 1 1 1 1-1 2-1 1-1 1 1 1l3 1 2 1v-1c-1-2-1-4 1-3 1 0 2 1 1 2a4 4 0 0 0 4 6h5v-5c-1-3-1-3-3-1l-3 2c-2 0-1-2 1-2 2-1 2-1 1-8l-1-2 5-5 1-1-1-1c-2 1-6 0-5-1 1-2 7-2 7-1s1 2 3 1c3 0 3-2-1-3s-4-2 0-5 8-3 6-1h1l1-2 1-1c2-1 3 2 3 7l1 5 2-1h3l-1 2c-3 0-1 3 2 3 4 0 2-45-1-47a1 1 0 1 0-2 2h1c0 1-3 4-3 2-1-6-6-8-10-4-3 3-4 3-4 0s-4-4-4-1h-1l-1-1-2 2-1-2c1-1 0-2-2-2-4-1-5-1-5 5l-1 4v-5c0-5-1-6-7-6l-5-2h-11c0-2-4-7-5-7l-1-3c0-13-1-17-5-13m85 47-1 22c0 7 0 10-1 9-1 0-3 8-1 9 1 1 1 1 1-1 0-1 0-2 1-1 1 2 4-5 3-8l1-3 1 2 2 4c3 4 6 3 6-2v-2l1 2 1 1 1 3c0 3 0 3 2 2 2 0 2-8 1-11-1-1 2-8 4-8l2 2v1c-1 0-2 0-2 2l-1 1c-1 0-2 0-1 2l1 2 1 2c0 2 1 3 4 3 2 0 2 1 2 3l1 1 1-2c0-1 0-2 2-1v-2c-1-2-1-2 1-1h1l-2-5-1-2v-1l-2-3v-3l1-2c-3-1-2-4 0-4l2-1c0-2-4-2-5 0h-2c-1-2-4-2-5-1l-2 1c-2 0-2 0-1 1s1 1-1 1c-4 0-4-1-4-10l-1-6-1 2a15 15 0 0 0-5 4h1l2 4c2 1 3 2 3 4v2c1 1-1 3-6 7-3 3-3 3-3-6l-1-17-1-8v12m43-11c-1 1 0 14 1 15l2-1c3-2 3-1 2 2l1 3c2 0 3 2 1 2v1l2 3c-1 2 2 2 8 1v-6l1 1v1l1 3a2 2 0 1 0 4-1v-5c-1-4 1-5 2-2l2 3 1 3 1 1v2l-1 1 3-1-1-8c-2 0-2-4-1-6 1-1 1-1-1-2l-2-1-4-1c-2 0-3 1-3 2v2l-2 4c0 2-1 2-2-3-2-5-3-5-6-7-2 0-5-2-6-4l-3-2m207 4-1 1h1c1-2 2 0 2 6l1 4c0-3 3-2 3 0v6h-1l-1-2-1-2-1 2c-1 2-1 2-2 1 0-2-3-3-3-1l-1-1-2-2-1-2c0-2-1-3-3-1h-2c-1-1-1-1 1-1l3-3v-1h-2l-1 1-5 1c-5 0-6 1-1 3l2 2c0 2-3 1-4 0l-3-2c-2 0-2 0 1 2l2 4h1l4 2c4 4 5 4 5 1 0-2 2-3 4-1l5 1 6 2c-2 0-1 2 1 2 1 1 2 2 1 3l1 2 3 2 3 1a5 5 0 0 1 4 4l-1-1-1-1c-2 0-3 4-1 6l2 9-1-2c0-3-6-14-9-14v1c4 5 4 5 2 5v1c2 1 2 1 0 2-1 1-1 1 1 1s4 2 2 3v1c1 1 1 1-1 1l-4-2-2-1c-3 1-8-1-8-2v-3h2c4 3 6 2 4 0l-1-2h-1l-2-1v-2l-1-2v-4c-1-2-1-2 1-1 4 0 5-2 2-4h-2c1 2-1 1-3-1l-3-2c-1 1-1 1 1 3s3 7 1 7v4c0 3 0 3-1 2-2 0-2 0-1-1l1-2-3 2-3 2-1 1-1 1c-2-2-1-3 2-4s5-4 3-5l-1-4c1-4 1-4-1-2h-1c0-1-6-7-7-6l-1 1c1 1 0 2-2 3s-2 1-2-3c0-3-1-3-3-3-1-1-2 0-1 2l-1 2c-2 0-3 2-2 4h3c1-1 1-1 1 1-1 1 0 3 1 3l1 3 1 1c1 0 2-3 1-4 0-1 0-2 2-2 1 0 2 1 2 3l1 2v1c0 3-3 4-4 2-2-2-3-1-2 3 2 5 3 6 5 3l3-2-2 4c-4 2-4 8 0 9v2c-1 2 0 3 3 3l2 1c0 2-3 2-4 1 0-1-1-1-1 1-1 1 0 2 1 2l1 2 1 1c2 1 2 2 1 2-2 0-1 1 1 3 3 3 6 3 8 1l-5-5c-2 0-3-2-1-3l4 3 5 4 3 1c2 1 2 2 2 7l1 3c1 0 5 6 5 8l-2 1c-2-1-3 0-2 1 0 2-1 3-2 1-1-1-6 0-6 2l-2 2a1 1 0 1 0 0 2c2-1 5 4 7 10 1 4 2 5 7 6 5 0 7 1 10 3l3 1c0-2 3 3 4 7 1 2 0 3-1 3l-3 1-1-2c1-2 0-3-2-5l-2-4-1-1c-2-1-2 0 0 2l1 4 1 5 1 3 1 1 2 3-1 1c-2-2-3-1-5 3-1 3-3 4-3 2l-1-2-1-3-1-4-1-2h-2c-2 2-3 6-2 6 2-1 4 1 3 3l1 1 2 1c0 2 0 2-2 1h-1v3l2 2 12 1c12 0 13-1 15-3l4-3v-2l1-3c2 0 2-1 0-3l-2-2c-2 2-4 0-3-3a11 11 0 0 0-6-11l2-1c2 1 2 1 1-1l2 1 2 2-1-3c-1-2 1-3 3-1l1 1c2 0 0-3-4-7-3-3-7-10-6-11 0-2-6-5-7-4h-1c0-1 0-2-1-1l-1-2-1-4-2-3c0-2-1-2-2-2l-2-1 2-1 2-1h1l2-1c2-2 4-1 5 2l1 3c1-1 4 4 4 8l1 3 1 1c-1 1 0 6 1 5v2l1 2 1-1c0-2 7 6 7 9 1 2 1 1 1-2a3 3 0 0 0-2-4l-2-4-1-3c0-1 3 2 4 5 1 1 1-1 1-3l-6-22c-9-27-8-26-6-28l3-1c1 1 6-3 5-4-2-9-4-14-6-13s-2 1-2-1l-1-1h-1l2-1c2-1 3-1 2-2l-6 1-5 1-3-3c-1-2-3-3-5-3l-3-1h2l2-1h1c2 0 2-1 1-5-2-9-2-9-4-9s-2 0-1 1l1 3c-1 3-2 4-3 3v-4c-1-4-3-5-3-3 0 4-5 1-6-3 0-4-2-5-3-3m-38 14-2 1-3 1-2 1c-2 0-3 1-1 3l1 2a3 3 0 0 0 0 2l-2 2c-1 1-1 1-2-1 0-2 0-2-2 0s-1 8 1 10l1 2c-1 1 0 2 2 2 3 0 3-4 0-7-2-4 0-5 3-2l4 2 2 1h1v-2c-3-2-2-3 0-3 3 0 4 5 1 7-1 1-1 1 1 2l2 1 3 2c3 4 4 2 1-2-2-3-2-4-1-5s1-7-2-12c-1-3-6-9-6-7m-131 10-4 4c-1 0-2 1-2 3 0 3 0 3 1 1 2-2 3-3 3 0l1 5v2c0 1-6-4-6-6a1 1 0 0 0-2 0l-1 1-3 2c-2 2-2 2 0 2l4 1c1 2 1 2-2 1-3 0-3 0-2 2 2 1 2 1 0 1-1 0-2 0-1 1l2 1 4 2c4 3 10 4 8 2l-1-3c0-2 0-2 1-1 2 3 2 0 2-7 1-7 1-7 2-5l4 2v3c4 0 3-6-1-13-2-5-4-5-7-1M21 463l-1 5-5 18-6 27c-2 13-2 15 1 14s3-2 8-24c1-11 4-22 5-26 2-12 3-16 0-16l-2 2m188 12 1 2-1 1c-1-1-4 3-4 8-1 5 0 11 1 11l1-2v-4l1-1v3l1 3 1 1c-1 1 4 3 5 2 3-3 5-7 4-7-2 1-3-3-2-5 1-1 0-4-2-4v-1l1-2c3 0 7-3 6-4 0-1-1-1-3 1l-3 1h-2a2 2 0 0 1-2-1l1-1c0-1-3-2-4-1m17 8c-1 1-2 2-3 1-1 0-2 1-2 3l1 3 1 2c0 2 0 2 3 2 4 0 5 1 3 2-1 1 0 1 1 1 2 0 2 0 0 1-2 2-1 2 2 1 2-1 2-1 1 1l-1 2 2 2c1 2 1 2 2 1a1 1 0 1 1 2 0v-8l1 4c2 7 6 11 7 5v-8c1-3-1-10-3-10v-2l-3 2c-2 2-4 1-3-3 0-2-5-2-6-1h-2c-2-2-2-2-3-1m83 2v4h-2c-4-2-6 1-3 3l2 2a2 2 0 0 0 3 2v4l2 5c0 3 2 4 4 2h1c-2 3 1 3 4 0 2-2 3-4 1-4l-1-1c1-1-2-5-3-5-1 1-2 0-3-1v-1c4 3 3-4 0-9-3-2-3-2-5-1m-41 12h-2l-1 1c1 3-2 4-4 3-3-1-3-1-2 1v3h1c1-1 1 0 2 2l3 3 1 2v1h-1l1 3 2 1c1 0 2 1 2 3l1 2v-5l1-3h1c-1 2 0 2 1 3 2 0 2 1 2 4l1 3c2 0-3-23-6-26-2-2-3-2-3-1m-2 57 1 2v4c-2 1-2 1-3-1l-1-2v2c0 2 1 3 3 5l1 2-1 2c1 0 0 2-2 3-2 3-2 4-1 4 3 1 4 1 4-3 1-2 4-6 4-4l-1 3c-1 3-1 3 2 5l4 3h-6l3 1 1 2c-3 0-3 4-2 7l2 5 2 4c2 2 3 0 2-7 0-6 0-6 1-5h2l-2-2-1-3c1-2 2-4 2-2l1 1 1 4-1 4-1 2 1 7 2 5v4l2 2 1 1 2-3v-5l-1-4h2l2 2c0 2 0 2 3 2l-1-6a37 37 0 0 1-2-5l-1-2-4-4v4l-2-2c0-5-1-6-5-11l-4-6h-1l-1-3-1-5-2-2c0-2-4-7-4-5m-50 4c-2 0-2 1-2 10v11l4-1h5v-10c0-11-1-12-7-10m41 7 1 4v1h-1v3l-3-2-2-2v2l2 5 2 3c-1 1 0 3 1 4v4l1 2a1 1 0 1 0 2-2l1-1h2l1 1h1v-3l1-4c1 0 1-1-1-2l-1-2-2 2-4 2c-1-1-1-1 1-1 1 0 2 0 1-1h-1c-2 1 0-3 2-5 4-4 4-3 1-6l-3-2h-1l-1-2v2m-14 0 1 2a16 16 0 0 0 0 13c-2 0-1 2 1 2v1l1 3c0 2 0 2 2 0h1c-1 1 0 1 1 2l3 2 1 1c1-1 0-7-1-7l-2 1 1-1 2-3-2-2c-1-2-2-3-2-8 0-4 0-5-2-6-3-2-7-1-5 0" tabindex="-1" itemprop="regular" style="fill: rgb(26, 21, 41); fill-opacity: 0.47; fill-rule: evenodd;"></path><path d="M154 1c-1 1 0 2 1 3l15 10a25 25 0 0 0 11-7c1 1 7-2 7-3l1-1c1 1 3 0 5-1l3-2h-4l-13 5c-11 6-10 6-20-1-5-4-6-5-6-3m32 8-17 8c-2 0-12-7-13-8-1-2-3-1-3 1v1c-2 0 0 2 8 7l7 5 23-11 21-12-7 3-6 3 3-3 5-3c0-1-7 1-21 9m44-7 5 5c6 4 2 3-3-1l-7-4-63 32 4 6 32-15c32-15 28-14 32-11l3 3-5 7-9 13-15 20c-1 3 3-1 6-5a188 188 0 0 1 20-27l2-4 3-3 3 3 10 7 7 6c0 2-3 1-10-4l-8-6c-1 2 3 11 6 14l5 4c1 1-3 6-7 12-8 11-9 12-9 9-1-2-1-2-1 1s-1 6-7 13l-7 10-19 8-21 7c-2 0-3 1-3 2l-2 1c-2 0 1-4 3-5l3-3 6-9 6-9c0-2 5-5 17-10 7-3 9-6 6-11-1-1-33 13-35 16-1 1-1 1-1-5v-5l-2 12c0 20-1 21-4 26-3 4-4 5-10 8-7 3-7 3-3 6l2 2-4 4-4 6 4-3c4-6 4-6 4 1l-1 5 1 3 1 2-1-1-2-2v2l3 3 5 8c0 2-5 3-6 2l-3 1c-4 4-6 0-6-8 0-6-2-8-5-5-2 1-2 3-2 4 1 3-2 7-3 4l-2 1c-3 4-3 6 1 6l2-2 1-2c1-1 1 0 1 2l-1 4c-1 0-1 2 1 5 0 2 0 2-1 1-2 0-5 4-5 8l-2 2c-1 0-2 1-2 3 0 3 0 3 1 2s2-2 3-1c1 0 2-1 2-5l3-6 3-8c1-9 1-11 3-8l1 5 5 11c2 1 1 4-5 11-3 3-5 7-4 7l1-1c1-3 7-10 8-9l3 2v2l-1 3v2l-1-1-6 7-9 10-2 3-1 2c-4 4-2 4 2 0 4-3 4-3 4-1v1l1-3c-1-2 0-4 5-9a21 21 0 0 0 6-8l7-6c8-8 8-8 8 5v9l1-8c0-6 1-11 2-10a45 45 0 0 0 16-7c1 1 22-6 25-8v-7l-12 4-30 11 4-5c4-5 9-7 19-10l5-2 8-3 13-6c9-3 9-3 26 7l74 43c2 2 1 6 0 5-2 0-3 2-1 3l1 2c0 2 0 2 1 1l3-19-30-18c-28-17-32-20-29-20l2-1h-7l-15-9-15-8c-1-2-2-1-8 1l-17 7c-11 5-12 5-6-1l8-11 21-25 3-3 9 6a1135 1135 0 0 0 31 20l20 12c21 13 21 13 22 18 0 6 2 3 2-4 0-4 0-5-6-8-9-6-10-7-9-11l-2-7-1-8-1-4-1-4v-6l-1-4-1-3-1-4c1-3-1-12-2-12v-3c0-4-1-6-17-17l-7-6c0-2 4-1 12 6l14 11c6 4 8 8 5 6-2 0-2 0-1 3 1 2 3 7 3 13l3 12c0 1 3 4 8 7l7 6 3 2 7 5c3 2 4 3 5 2a257 257 0 0 1 33-13c5-3 12-4 14-3l28 24c5 3 10 8 11 10l4 3-4-2a5 5 0 0 0-4-2l-3-4-31-24-11 3-23 9-13 5-5-4-24-15 1 1 1 1 3 3 2 1 4 3c2 0 4 2 4 3h2l1 1 1 1 1 1 4 4 5 3 11-4 11-4-1-1 1-1c3 1 9-1 7-2-1-1-1-1 1-1 1 1 5 0 9-2l8-2 4 3 5 4 5 3 2 2a8 8 0 0 0 7 5 39 39 0 0 0 15 11c-1 1 1 4 2 4a57 57 0 0 0 9-19c2-4 1-5-10-14a3809 3809 0 0 1-39-36l-6 3a164 164 0 0 1-27 12l-10 4-4 1-15-11-17-13 1-12 3-28 1-17-5-5c-4-3-4-4-3-6s1-2-1-1c-2 2-2 2-4 1-2-2-6-2-23-2h-21l3 3 9 7 6 5c0 2-2 1-8-3l-6-5 1 2 1 2v1h1l1-1a37 37 0 0 0 1 4l2 1c1 1 1 1 0 0-2-3 0-2 3 0v2h-1c1 2 1 2-1 1a189 189 0 0 1-20-16l-3-1-5-2c-3 0-3 0-2 2l5 3 7 5c12 10 17 14 16 16l-2 1-20-16c0-1 1-1 3 1h2l-7-6-7-4m-36 29-18 9v10c1 13 2 16 2 4 0-9 1-13 3-10 0 2 1 2 2 1l24-11c4-2 7-6 7-11 0-2 0-2-20 8M30 24l-4 12C6 87 0 104 1 109c0 8 2 6 9-13l7-18c1-2 54 25 54 27l-9 33c0 2 0 3 2 3 2 1 1 2 5-15l5-20a9 9 0 0 0-1-11L47 81 20 67l14-37 19 10 22 12 8 4-3 10a1431 1431 0 0 0-5 20c-1 6-1 9 1 9v-1l1-2 1-5 2-9 2-9 2-5v-3l2-3c2-4 2-4-13-12L46 31c-14-8-16-9-16-7m217 24-21 28c-7 10-7 10-1 7a9 9 0 0 0 8-9c1 1 6-6 7-10 0-3 1-3 3-3 3 0 13-14 10-16-2-2-3-1-6 3m10 11-5 8 25 18 16 12 2 3-1-3-2-16c-3-13-4-15-5-13-1 1-2 1-5-2l-19-13-6 6m-16 21-5 6 5 3 29 19c28 18 26 18 26 11l-4-16c-1-4-2-2-2 3l1 6-1-5-1-5-21-14-22-14-5 6m61 0c0 3 31 25 34 25l39-15c6-3 6-3 9-1l23 19 22 18c0-1-4-6-18-16l-31-25c-2 0-42 15-43 17-2 2-5 1-5 0 0-2-14-13-26-21-3-2-4-2-4-1m-78 12-15 19-15 20c-4 5-6 7-4 7s9-8 20-22a532 532 0 0 1 20-25c2-3-2-2-6 1m14 5c0 2 1 3 19 15a88152 88152 0 0 1 39 24l11 6c2 0 1-2-1-3l-12-7a1239 1239 0 0 0-54-35h-2m-25 4-4 2c-2 0-4 1-5 3l-23 29c-7 9-7 9-1 7 4-1 6-3 16-16l18-26-1 1m-21 9c-21 9-23 10-25 8-1-2-1-2-3-1v2h2v1c-2 1-3 2-3 6l-1 1-1 1v3l1 3a22 22 0 0 1 5 12c1 2 6-2 11-9a14036 14036 0 0 1 24-31c2-2 0-1-10 4m115 3 1 2v1l-1 1 1 1 15 9 15 10 13-5 34-12 13 9a1508 1508 0 0 0 30 24h1c1-2 0-2-3-4l-3-2c1-2-36-31-38-31l-40 14-8 2-21-14-9-5m-79 14-19 8-20 9c-2 2-4 2 22-8l21-7 18 10a18597 18597 0 0 0 73 43h2l-17-11a11223 11223 0 0 1-43-25l-29-17c-3-2-7-3-8-2m154 4a788 788 0 0 1-41 15c-4 1-5 2-2 6 1 2 2 2 4 1h4l1-1 10-5 28-10 5-1 9 7a2025 2025 0 0 1 34 26c2 0 1-3-2-5l-8-7c-20-16-32-24-36-24l-3 1 3-2c3-1 3-1 6 1l22 17 19 15c2 0 1-2-3-5l-22-17-20-15-8 3m-14 17c-20 7-20 7-18 9 2 1 3 1 14-3l15-4 2-1c0-3 1 0 2 5l2 9 2 7a3 3 0 0 0 2 4c1 2 1 2-1 2-3 0-26 8-28 10-3 4-1 4 13-1 18-5 16-6 20 7l4 13c1 3 1 3-6 5l-18 5c-15 5-15 5-15 2l-3-16-4-16a269 269 0 0 0-6-25l-2-3c-2-1-3 1-1 3l5 17 1 5 9 36-2 3v3h6l12-4 40-12 15 8c33 22 33 22 35 21 2 0 2 0 1 1v1l2 2a4 4 0 0 0 4 3c1 1 2 0 2-1l-1-1c-1 1-2 0-4-1-1-1-1-1 1-3 3-2 4-2 6 0 1 2 2 3 1 4-2 2 0 3 4 3a7 7 0 0 1 6 2l2 1c1 1 1 1-2 3-2 0-4 2-4 3h-3c1 1 0 1-2 2-3 1-4 5 0 4v1h-3c-13-9-47-29-49-29a1570 1570 0 0 0-61 16c-3 1-4 3-2 3l34-9c24-6 29-7 31-6l25 14c18 11 22 14 24 13 3-1 6 0 5 2l-2 1-1 1c1 2 3 2 4 1 3-2 4-2 4 1s-1 3-3 2c-4 0-5 2-3 5 2 2 3 3 4 2h7l-1 1c-4 2-2 3 2 2 3 0 4 0 3 1-1 3-2 3-7 3-4 0-6 2-2 3 2 0 3 2 1 4l-1-1-1-1-2 2-1 1-1 2 1 1 1-1c-1-2 1-4 3-2l1 10-1-1h-2l-4-1c-2-2-4 0-2 1 3 2 2 6-1 6s-4 1-2 3 4 3 4 1h2c2 0 2 0-1 1s-3 2-3 4c0 3-1 4-3 3l-1 1c1 1 0 2-2 3-4 2-5 2-3 4 1 2 2 2 5 0l4-1 18 8c13 5 18 8 18 9 0 2-1 2-22-7-11-5-14-6-16-5-5 2-3 3 18 12l20 9v11c0 9 0 11-1 10l-9-3-10-4v2l10 5 10 5-7-2c-8-2-8-2-7 1l7 4 7 3-6-1-6-2 3 10c3 9 4 10 6 11l3 1-2 1h-2l2 3c3 2 3 5 0 4h-3l3 2h2v25c0 17 0 25-1 23v-3a13 13 0 0 0-3-11l1-2c3 1 2-3-1-4s-4-1-4 1 0 2-2 2c-2-1-2 0-1 2v4c-3 0-5-5-4-6v-5c1-3 0-7-3-7l-2-1-6-3v2c1 1 0 2-1 2-3 0 0 3 3 3 2 0 3 2 4 6 1 7 1 9-2 7s-4 0-2 3l3 3 5-1c5-2 7-1 8 1l4 13 4 14V281c0-20 0-21-2-21-3 1-4 0-3-3 1-2 1-2 2-1l2 1v-30c1 0 1-8-1-9v-2c4 0 0-7-4-8l-3-3-1-3h-1v3l1 2 3 3c4 4 4 6 1 4h-8c0-1-1-2-3-2l-2-2-1-2c-3-2-9-1-6 2h4c1-1 2 1 0 3h-3c-5-2-9-1-5 2 1 1 1 1-2 2-2 0-3 1-3 2l-1 2-1 1 2 1c1-1 1 0 1 1l-1 2v1h2l3-1c3 0 6-1 4-2v-1h1c1 1 0 4-2 4l1 2c2 1 3 3 0 3l-1-1c1-1-1-2-5-1-5 0-6 0-8-2h-2l1 1c2 1-1 4-4 3l-2 1a1 1 0 0 1-2 0l-1-1a16 16 0 0 1-11-7l-4-13-11-28-6-16-15-11-16-11 2 5c2 4 24 23 26 21 1 0 4 4 4 7l2 5 3 8 3 6-3-2-6-4-12-8-8-6 2 4c1 4 2 6 7 9l11 7 1-1 5 12 2 5c3 6 2 5-12-4a31 31 0 0 1-14-12l1 3c1 2 1 2-4 3l-6 2c-1 1-2 0-3-5a1244 1244 0 0 0-14-46l-4-12-14 5m-122 5c1 3 2 4 5 5l6 4-3-1-6-3a59 59 0 0 0 19 10 10 10 0 0 0 9 5c-1 1 12 8 13 7v1l1 1h1l1 1h2a4 4 0 0 0 5 3l1 1h1l1-1v2c0 1 5 4 6 3a123 123 0 0 1 5 27c1 2 5 23 4 24l-1-2c0-2-1-3-4-4l-57-28c-3-1-4-1-4 1l13 8c37 17 48 22 49 24 2 2 4 11 4 16l1 6 1 3 2 14 2 11-74-30-6-2v-10l-1 4c0 4 0 5-2 4l-16 4-48 14v-3c0-3 1-5 6-5l3-3 1-3c1-1 1-1 1 1-1 3-1 3 4 2 6-2 7-2 7-5 0-4-1-4-10-1-10 4-12 4-12 3a2 2 0 0 0-3-1l1 1a1 1 0 1 1 0 2c-1 0-2-1-2-3l-1-3c-2 0-3 5-3 13 0 4 0 4 2 2l1-2v3c0 4-2 6-3 3h-1c0 2-6 4-10 4-2 0-2 0-2-16l-2-6c-1-2-1-2-1 0 0 9-3 24-4 25l-2 2-1 4c0 3 1 3 13 0l80-23 103 40 6 4c1 1 4-5 4-7l-16-7c-2-1-3-2-4-7a3476 3476 0 0 0-8-43c-11-60-11-58-13-60l-64-37v4m-107 50v4l-1 3-1-1-1-3c-1-2-2-2-3 0-2 2-3 3-1 3l1 1c0 1 0 2 2 1 2 0 2 0 2 10l-1 10v17a62 62 0 0 0 3 14v-17a114 114 0 0 1-1-22c1 3 1 3 1-2 0-8 1-12 4-14 5-4 7-5 5-5l-4 2-3 2v-2c0-2 0-3-2-1m30 5v7l-1 21c-1 20-1 20 1 19 1 0 2-1 2-3v-4l1-11c1-17 2-17 7-19l35-12v-1c0-1-4 0-11 3l-19 6c-12 4-13 4-13 8l-1 2v-21l-1 5m238 4-4 1-16 4-19 6-6 3c0 2 5 0 32-8l12-3c2 0 5 9 5 13h3l-2-9c-2-7-4-9-5-7m-88 25 1 12 3 13a211 211 0 0 1 3 17l1 6 1 7 1 3 1-3-2-13-5-28-4-18v4m96 3-32 8-21 6 8 8a728 728 0 0 1 14 11c4 3 7 9 12 29l5 15-3-12c-3-12-3-13 0-13h2l-2-1-1-1 5 1a11756 11756 0 0 0 26 12l10 28 2 5c2 4 3 4-21-6l-10-3c-2 0 0 4 3 5 2 1 2 2 2 4l2 5c2 2 2 2 1 3l-2-1c-2-2-1 4 1 11l3 8 1 3c0 2 1 3 10 6l10 3-4-12-5-13-2-6c-4-8-2-9 5-4 5 3 6 5 8 12l2 6 2 5 2 9 3 8-16-5a3346 3346 0 0 0-45-13l-22-7c-5-2-5-2-4-4s-4-3-61-22l-62-21-18 5-47 11-30 8v6c0 5 0 6 2 6s3-1 3-2 1-2 3-2l3-2h3l2-1h6l-3-2c-3-1-3-1-1-1l5 1-3-2 3 1 5 1v-1h2c2 0 3 0 2-1s-1-1 1-1h5l7-1h-2c-3 0-2-1 3-2l8-2-3 2 4-1c4 0 7-2 8-3l5-1h2c-1-1-1-1 1-1h1l4-1h2c-2-1-2-1 2-2l4-1c-2-1 3-2 6-1l2-1h2l1 1 1 1a12 12 0 0 1 8 2c-2 1 13 5 17 5l2 1 2 1c2-1 5 0 4 1l2 1h4l1 1c-1 1-1 1 1 1l5 1 6 2 4 1a186 186 0 0 0 28 9l3 1a18 18 0 0 1 8 2l2 1 10 4a37 37 0 0 1 13 6l50 14a7067 7067 0 0 0 50 15c28 9 28 9 29 8 2-2 2-3 0-3l-3-1-14-5c-14-4-17-5-19-11a1994 1994 0 0 0-14-44c-7-23-8-27-7-29v-1c-1 1-1 1 0 0h5l1 1 4 1 4-1 3-4 4-6c4-7 12-16 14-15a1 1 0 1 0 1-2l-1-1 4-1 1-1h-3v-2c2-3 2-3 1-4-2-2-44-28-46-28-1-1-6 0-11 2m-205 41a2138 2138 0 0 1-65 18c-1 1 2 2 4 1l87-25c3 0 13 3 64 23a1569 1569 0 0 0 43 16h4l-1-1a2735 2735 0 0 1-102-39l-5-2-29 9m-88 2c-1 10-1 10 9 13l9 2v5c1 3 1 2 1-2s0-7-1-6c-1 2-16-3-17-6 0-4 1-4 9-2a11 11 0 0 1 9 4v-8l-1-5v3a235 235 0 0 1-18-5v7M1 393 0 512v35l3-1c2 0 3-1 3-2H3l-2 1v-4l1-9c0-3 0-4 2-4 1 0 2-2 3-8a5203 5203 0 0 1 12-56c1-3 2-3 6-3l6 1c2 0 3 4 1 5l-1 6-4 26-1 10 5-24 8-39 18-93c2-17-15-35-40-41l-10-2c-7-3-6-10-6 83m238-83-9 2-76 19c-4 1-6 3-3 3l6-1a385 385 0 0 1 20-5 1111 1111 0 0 1 49-12l15-4 16 6a11628 11628 0 0 0 74 24l22 6c0-1 3 0-32-12l-33-11-47-15h-2m-122 17-1 11-3 27c-2 19-3 25-1 24l1-2c-1-2 0-2 2-1 2 0 2 1 1 2v1c2-1 2-8 3-34 0-4 2-3 2 2l2 4 1 1 1 1c2 0 2-2 1-4v-3a5 5 0 1 0-7-6c-1 1-1 1-2-1v-5l1 2 1 1 1-4c0-9 1-9 9-5l6 2 1 1h1l1-13-1 1c0 2-3 1-11-2l-9-2v2m107 5-15 5 5 2a17 17 0 0 0 14-1l7-1c4 0 4 0 4 2v3l4-2h-1l-1-1 3-1 4-2c1-1 1-1 1 1s-2 4-7 7l-3 3 3-1c1-2 3-2 4-2 1 1 2 1 2-1h1c0 2 0 2 2 1h1l1 3c2 2 2 5 0 4v1a4 4 0 0 1-3 6l1-1h-3v2c1 2 1 2-1 2l-2 1h-3 1l1-1-2-1h-4c-1 1-4 1-11-1l-8 1-12 1c1-2-1-5-5-6l-9-2-18-2c-7-1-7-1-7 1 2 5 2 9 1 9l-1-3c0-2-3-3-4-1s2 5 5 5l3 1h-3c-2 0-2 0-1 2a2 2 0 0 0 3 1c-2 2 1 5 4 4l3 1 3 1 7 2c4 2 6 2 7 0 1-1 2-2 3-1 2 0 2 0 3-2 0-2 2-3 4 0 3 3 5 4 5 3a2 2 0 1 1 2 5l-2 1h2c2 0 2 0 1 1h-3l-5 2 5 8a7 7 0 0 1-8 6l4-3 3-2-4-4-9-5-1-1c-1-2-1-2-4-1-4 1-4 1-2 9 0 4 0 4-1 3-1-2-3-2-4-1-3 0-3 0-3-3a2 2 0 0 0-2-3h-2v-2c1-2 1-2-1-2l-2-1 1-1v-2c-1-4-3-1-3 6-2 12 1 15 18 14l8 1c-12 3-23 0-26-5-2-2-3-3-5-2-3 0-4-2-3-7 0-2-2-1-4 1-1 4-5 4-6 0 0-3-1-4-2-4-2 0-2 0 0 3 1 2 1 4-1 2l-3-2-1-2h-1c-1 2 0 8 1 9l9 2c8 1 14 3 10 3l-10-1-8-2 3 4c4 4 3 7 0 3-3-2-5-3-4-1v3c-1 3-5 3-5 0l-2-3c-2 0-1 3 2 7 2 4 2 4 7 3l5 1c0 1 4 2 7 1h4c1 2 3 2 5 1h13l5 2 5 1h3l-1-1c-1 1-1 0-1-2l6-3 1-1c1-1 1 1 3 4l2 5c1-1 1-1 2 1a359 359 0 0 1 0 52l1-1 2-1h1l1-2c2-2 3-7 2-7l-1 2h-2v-4c-1-8-1-25 1-26 1-1 2-3 2-12 1-11 2-13 3-11v3l1 2v2l-1 2c1 1 4-2 3-3h1l2-1 1-1 2-1v1c0 2 0 2 1 1l1 1v5l1 15 1 10c4-2 10-3 11-1 3 5 2-4-1-10-3-8-7-20-7-24l3 7c6 19 9 26 12 26l4 2c1 1 1 1 1-3v-4l1 4c1 5 2 7 5 7 2 0 2 0 1-1-1-2-2-4-2-10a23 23 0 0 0 0-9l-1-2-1 3c0 5 0 5-3 4l-1-1-2-2-2-4v-5c-1-3 1-6 3-5 3 0 3 0 2-5a13 13 0 0 1 3-10v12l1-1h2c3 1 3 1 3-2l3-5v1c-1 5-1 21 2 22 3 3 7 1 7-3l1-3v-2c-1-3 2-8 5-8l2 1-3 1-1 2 1 4c0 2 0 2 2 1 2-3 6-3 6 0l-1 2h-2c-2 0-2 0-1 2 2 2 2 2 0 3-2 0-3 2 0 2l4 2h6v2l-2 4-1 1c-2 0-2 0-1 1l1 4 3 3h9c0-1-5-3-6-2l-2-1c-2-3 0-6 3-6h3l2-1c2 0 2 0 0-2-3-2-3-3-1-3 2-1 4 1 4 3 0 3 1 5 3 5 4 0 8 3 6 4s-2 1-1 3c2 3 2 4 0 4-2 1-2 1-1 3s0 6-2 4v-4c0-2-1-3-2-3l-3-9h-4v2c2 0 3 3 3 6l1 3 1 3 4 5 2 3h-3c0-2-1-2-1-1 0 2-2 3-3 2-2 0-2 0-1-1v-1l-2-1c-1-1-1 1-1 3-1 6 0 6 6 4l3-1 6-3c6-2 8-3 9 0 1 1 1 2-2 1l-2 1c0 2 5 5 8 5s5 1 5 3l5 2 18 1 13 1c2 0 4 2 3 3l-1 1h-14c-9 0-12 0-11 1l12 1a58 58 0 0 1 14 1c1 0 2 0 1 1-1 0-1 1 1 2h3l1 1 1 2 1 1c-1 1 0 2 1 3v1h-2l-2 1-3 2v1h2v1l3 1 4 2c6 0 6 0 5 2h-2l-1-1c0-1-4 0-5 2l-3 1-1 1c2 1-2 3-4 2h-1l-5 1-7 2-4 1c-1-1-1-1 1-1l2-1h-7l-1 1c0 2 6 3 16 2 3 0 4 0 1 2h-1v-1c-1 0-2 1-1 2h2l4 1h2c0-1 1-1 1 1h6c1 0 1 1-1 2h-1v-1l-3 1v2h-1v-3c-1 0-2 1-1 2l-1 2c-1 0-2-1-2-3v-1h-3l-2 2h1c1-1 2 0 3 1l3 2h2l1 1 1 2-1 3c-2 0-5 2-4 3 2 2 10-1 8-3l1-1v2l2 1 1 1v3h-3l1 1c1-1 2 1 1 2l-3 1h-4c-3 2-11 2-11 1l-2-1c-2 0-2 0 0 1s1 1-3 1l-4 4 1 1h2l-1 1c-1-1-1 0-2 1l-2 2-2 1h6c3 0 4-1 4-2-1-2-1-2 1-1v3l1 2 1 1h-1v2h-2c-1-2-2-2-2 0s0 2 1 1h1c1 1 0 2-1 1h-2v-3l-1-3-1 3a3 3 0 0 1-2 3v-2l-1-2-1 2v3c-1 1-1 1 1 1v1c-1 2 3 4 6 3v1l-2 3c1 1 0 1-1 1s-2 0-1-1c2 0 1-2-1-3-3-2-4 0-2 3l1 3 1 1c2 0 0 2-2 3h-4c-1-1-1-1-1 1 1 2 0 2-3 2l-1 1c-2 2-4 1-5-1-1-3-4-3-4 0l-1 1v-2c0-2 0-2-1-1s-2 2-3 1l-1 1v2l-1-1c0-2-3-3-5-2 0 1-1 1-2-1-2-2-5-3-5 0s0 6-1 5v-2c1-1 1-2-1-3v-6c0-3-4-7-5-6l2 3c1 0 2 2 1 3 0 2-2 1-1-1l-1-2-2 2c0 1-1 2-3 2-3 0-3-2 1-4 2-2 2-3 1-5l-1-5-2-5c-2-2 0-6 2-6 2-1 2-1 1-2l-2-1c-1-2-6-2-7-1 0 2-1 2-2 1-2-2-5-2-5-1l2 1c4 0 8 8 5 10h1c2 0 3 1 1 3l-1 1-1 2c-2 2-3 1-4-5-1-3-1-3-3-1-2 1-2 1-2-1l-1-1c-2 1-1 4 1 4l1 1-1 1v7l1 5c2 1 2 2 0 5-2 2-2 2-3 1h-2c-2 0-3 2-1 2 3 0 6 4 5 6h5c3-3 5-2 5 1 1 3 0 4-1 3h-1c0 1 1 2 3 2l3 4h-1c-2-1-2-1-2 1l4 11c1 4 0 8-2 4l-4-3-3-2v2l1 3 1 6a15 15 0 0 1-7-10h-3l-2 1v1c-3 0-4 6-2 9 1 1 0 5-2 5-3 1-3 3 0 3 1 1 2 0 3-1l1-1 1 1 1 1c1 0 2 1 2 4v6c2 7-3 8-6 1-2-7-3-7-2 1v37l2-2 8-10 6-8-2 5-2 4-7 8-4 6h33l35-1c2-1 4-2 5-1l2-1c2-1 14-5 19-5l8-3 5-2 15-5c3-1 9-3 14-3l3-2h1l2-1 9-2 5-1h4c7 1 12-3 13-9v-4l7-1c2 0 3-1 2-2l-1-2h4c2 2 5 0 5-3-1-4 2-5 3-2 0 2 3 5 5 5v-5l-1-5c-3-15-7-27-10-27-2 0-4-3-3-3h1l2 1c1 0 1-2-1-5l-2-6 8 14c3 6 4 7 5 6v1c-2 2 1 16 3 17l2-1 1-2v1l1 1v-4l-1-8c-2-6-2-7 0-7 2 1 0-2-2-3s-2-2-2-3l-2-4-1-5-5-10-1-2-2-1c-2 0-7-4-6-5l2 1a2 2 0 1 0-1-2c-2-1-3-1-4-4l-3-6c-1-2 3-8 5-7l2 3a20 20 0 0 0 1 7c2 7 6 13 7 10 1-1 0-2-1-2v-8l-2-3c-3-3-4-5-2-5 1-1 0-1-1-1-3 0-3-1 0-3l2-2-3 1c-2 2-6-1-6-3l-2-5-2-2h2l-1-1h-2c-2-1-3-4-3-9 0-4 1-4 3-4l2-1 2-3c3-1-2-6-6-6-1 1-2 0-2-1l-1-3-2-3-2-4c-2-2-2-5 1-6 2 0 3-7 1-7a5 5 0 0 1 5-9h-6c0 1-1 2-3 2h-5c-2 0-2 0-2-2l-2-2-1-1-1-3v-6l-5-9c-6-5-8-5-7 0l1 4h-6l-2-3c0-3 0-3-1-2 0 2 0 2-4-1-3-2-3-2-3 0 1 3-2 4-3 1-3-3-5-9-5-10l-1-2v-2c3-2 2-3 0-3-4-1-4-3 0-3a8 8 0 0 0 6-2h8c2 2 3 1 1-1-2-1 0-4 2-4l1-1h1l2 2c2 0 1-3 0-4s-2-3-1-4l-1-3c-2-1-5 0-5 2s-3 5-6 6c-4 2-13 2-10 1 2-1 2-1 1-5l1-5v-5a7 7 0 0 0-6 2c2 2 1 3-2 3h-5c-1 1-3 0-6-4l-3-5v-1l-2-1c-1 0-2-1-2-3 0-1 0-2-2-1-3 2-2 4 3 8l4 4 2 3 2 3c0 2 0 3 2 4a3 3 0 0 1 2 3l6 2h-9l-1-3-2-2-1-2-3-3-5-4-1-2c0-3-3-3-3 0l-3 3-2 3h-2c-2 0-2 0-2 2 0 3-2 4-4 1l-2-1c-1 1-7-7-7-8l1-1c2 0 2 0 2 2-1 5 8 7 10 2 1-2 2-2 4-1 2 0 2 0 1-3l-3-9-2-1c-3-1-2-6 1-7 6 0 4-1-5-2-10-2-10-2-7-7 2-2 2-3 3-2l4 1 4 1c2 1 2 1 2-1l-6-3-3-2c2 0 10 2 12 4 1 1 2 1 3-1 1-1 2-1-8-3l-7-2 5-10 5-11-23-8a1861 1861 0 0 1-76-22l-19-5c-1-1-9 1-18 3m57 22a16 16 0 0 1-9 4l-1 2c-1 1-1 1 1 3l2 2 2-2 4-2 3-2 4-2v-1l1-1 3-1c6-5-2-5-10 0m81 9 19 6 26 8a6043 6043 0 0 0 83 25c2 0 1-2-1-3l-12-3a4148 4148 0 0 1-105-31l-10-2m-251 42c-2 0-3 3-2 5v4l-2 7a420 420 0 0 1-3 26l2 1 3-1 2-11v-4c0-3 0-3 3-2 4 0 6-1 4-2s-1-4 1-4 6-4 4-5l-2-3c-1-3-3-2-3 0 0 4-2 6-4 4-3-3-5-1-2 2 1 1 2 2 1 3s-1 1-1-1l-2-2-1-2 1-2 1-1v-3l1-1v-3c2-3 1-6-1-5m345 9c3 3 18 6 18 3l1 2v4c-1 2 1 5 3 5l1 1c0 2-1 1-4-1l-2-2v2l1 3 3 2c2 1 6 1 6-1v-6l-1-2c1-3 3-4 4 0 0 2 2 2 9 1 1-1 2 0 2 1l2 4 2 6a2 2 0 0 0 4 2l1-1 2-2 1-4 1-1c-1-1-4 1-4 2l-1 1h-1c1-1-1-6-2-6v-1l2-2c3 0 1-2-3-2l-6-2c-1 0-2 0-2 2l-2 2v-1c2-2 1-3-1-3l-3-2-2-2-3-1-3 1-1 3-1-1c1-1 0-2-3-3l-7-2v3l-4-1c-2 0-2 0-1-2 1-1 1-1-3-1-3 0-4 1-3 2m-18 3 1 2 1 1-2 1h-4l-2 1c-2 2-2 2 0 4l4 5c1 3 5 4 6 1v-2c0-2 1-2 3 0h1v-2l-1-3-1-1-1-2-2-3-1-2h-2M26 436c-2 5-6 22-5 23l3 1c3 0 4-3 5-18 1-7-1-11-3-6m85 14c-2 8-3 9-7 6l-2-2 1 3-1 4-1 2v7c0 5 0 6 1 5s1-2 2-1a2 2 0 1 0 4-3v-2h-1c-2 1-3 0-4-4-1-2-1-3 1 0 3 2 6 2 7 0v-1l-3-1c-1-1-1-1 1-2h3l2 1v-1c-2-3-1-6 2-6 2 1 2 1 1-1v-3l-6-1m154 1 1 3 1 2c0 2 2 4 5 5v2c-3 0 0 6 3 6 2 0 2 0 2 2-1 2-1 2 1 1s2-1 1 1h1c2-1 2-1 2 1 1 4 2 1 1-3v-6l-1-1c-2 0-3-2-1-2h-3c-3 0-4 0-2-1l4-1 2-1c0-2-3-4-6-4-4 0-8-1-10-4h-1m-142 4v2l-1 1h-3l1 1a2 2 0 0 1 1 3l-2 1c0 1-1 2-2 1l-2 1 1 1c1 0 7 5 6 6l-1 7a28 28 0 0 1-2 11l-1 3-1-2c1-2 0-4-1-2-2 2-3 1-2-2 1-2 1-2-1-1l-2 3c0 3-5 8-6 6h-1c0 2-2 3-3 1l-2-2h-1l2 4-1 1c-1-1-1 0-4 22-2 20-2 23 4 16 7-9 11-12 18-11 2 0 3 0 2-1l3-3c2-2 3-3 3-6s0-3-1 0c0 4-1 4-3 2-1-2-1-3 1-4 2-2 1-3-1-5-2-1-3 0-3 3 0 2 0 3-1 2l-2 2h-1l1-4 1-4v-1l1-3c1-2 1-3 3-3 1 0 2-1 1-2l1-2c2 0 3-5 1-8-1-2-1-2 1-4 3-2 3-3 2-6l1-4 1 4c0 4 3 5 4 3s1-2 3-1h5l1-6-1-7v4l-1 5h-2c0-2-1-2-3-2s-2 0-2-2l-1-3v-3a2 2 0 1 0-3-2v1c-2 0-3 0-3-2l-1-3 1-3c2-4 1-5-2-3m127 9a5 5 0 0 1-2 7l-2 2-2 1c-1 2-5-1-5-3 1-1 0-3-1-4-2-2-2-2-2 2 0 3 0 4 3 5 3 2 6 7 5 8h-4l-2-1-2-1v-2l-1 2h-2c0-3-8-1-8 2-1 2-1 2 1 1 2-2 3-2 3 0h1a5 5 0 0 1 8 4c1 1 1 0 1-1 0-4 3-2 6 4 2 3 3 7 1 9v1c2 0 2 0 1 2l-1 3c1 1 0 3-1 5l-1 4h-3l-2-2-1-2v-1l3-1-1-1c-2 2-11-5-11-8h-1c-2 3-4 2-4 0l-1-5c-1-1-2-2-1-3v-1c-2 0-2 2-2 12 0 6-5 8-5 2-1-4-8-8-8-4l-1 2c-3 0-3-18 0-22l1-3-1-6-1-5-1 1h-2l-5 1h-5a4 4 0 0 0-6 3h3c3 1 6 3 4 3l-9 1c-7 0-8 1-5 5l1 6 1 3v9h1l2 1h-1v2c1 1 3 3 5 3l-2-4h1c2 1 3 5 1 5s-4 3-4 4-1 2-2 1c-2 0-3 2-1 2l1 2-2-1h-2v3c1 2 1 4-2 4-2 0-1-7 1-7l2-2h-4l-4-1c-4 0-5 3-3 6 2 2 3 4 1 4l-3-7-1-2-1 4c2 11 3 13 4 13v4l1 6c0 4 1 6 4 6 2-1 4 0 4 2l2 3c4 2 5 4 4 4v1c2 0 2 6 1 6l1 3 2 3-2 1c-4 3-9 1-8-2l-1-1c-1 1-2 0-3-1 0-2-2-1-2 1s4 6 6 6 1 6-1 6l-1-1c1-2-3-1-4 1-2 2-2 2 0 2s1 7-1 9-5-1-5-4l-1-4v-6l-2-4c-2-3-2-4 0-6v-2c-2 1-3 0-2-1l4-1c2 1 1 0-1-2h-2l-3 1c-2 0-2 1-2 4h-1c-2 0-2-2 0-5 2-4 0-8-4-6l-2-1c1-3-1-5-2-3-2 2-2 2-3-1 0-3 0-3-1-1l-2 2a1 1 0 1 0 1 2c2 0 2 0 1 1-3 2-2 3 1 3 2-1 3-1 3 1s-2 5-3 4l1-2c1 0 1-2-1-2-1 0-2 5 0 5l1 3 1 6 1-2 2-6 1 3c0 2 1 3 3 1 1-2 2 0 2 6l-1 6v1c2 2 1 5-1 6l-4-1v1l4 2c2 0 2 2 1 4l-1 2-1-2c-2-2-6-5-6-3l2 1c3 0 6 7 4 10-2 1-4 1-4-2l-1-2-2-1-1-1-1 9c0 12-1 20-2 23v12c1-1 1 1 1 2h-4l-1-3 1-2-2 2c0 2-1 3-2 3v-11c1-2-4-5-6-4h-1l1-1 1-2h-1c-2 0-1-2 1-3v-3l-1 2-1 1v-1l-1-1-1-1c1-3 0-5-2-4-2 2-2 2-3 0-2-2-2-3 1-2v-4c-3-1-3-8 0-8l2-1a1 1 0 0 1 3 0v1l1-2c0-4 5-3 5 2l1-1c1-1 1-2-1-4s-3-4-1-4l1-1 1-2v-6l-2 1c-1 1-1 1-1-1s0-3-4-3h-3l2 2c5 4 5 6 3 8-2 3-2 3-4 0-1-4-4-3-7 2-4 5-6 5-6-1l2-4 1-3h4c1-3 1-6-1-7h-2l-2 1c0-1-1-1 0 0l-1 1-1-2c-1-2-1-2-4-2-2 1-3 1-5-1-3-2-6-1-4 1l1 6 1 7c1 2 2 4 1 5l1 2 1 2c0 2-2 3-3 0h-2v2l-2 1-1 2-2 2-2 3-1 1c-1 1-1 1 1 3v3l-1 3c-2 2-1 2 1 0 2-1 2-3 2-5l1-5c2 0 3 6 1 8s1 3 3 1h2c1 1 0 2-1 2-2 0-2 1-2 4l-1 3v-3c1-2-3-1-4 1-2 3 0 11 2 11s1 2-2 4l-3 3-1 2v1l-1 1v8l1 2v1l1 3-1 2-1 1 2 1c2-1 2-1 1 1s-1 2-3 1h-4c-1 2-2 2-4 2a5 5 0 0 0-1 9v-4c-2-2-1-3 1-3 4-2 10-2 10-1-1 3 0 4 2 3 3 0 4-1 4-5 1-4 1-4-1-3h-2l2-2 3-6c0-4 0-4 2-2l3 1-1-1v-7l-1-6v-14c0-5 0-6 2-6 2-1 2-1 1-2l-1-1c0-2 3-1 4 1 1 1 2 1 4-2l4-2c1 1-1 5-3 4l-1 2c-1 2 1 3 2 1 0-2 2-2 2-1s1 2 2 1v-2l2 1 3 1c3-1 5 0 3 1l-1 4v5c-1 1-1 1 1 1h2l-1 1c-2 0-4 3-3 4s-2 3-3 2v-3c0-2 0-3-1-2l-3-2c-1-3-3-1-4 4 0 5-5 8-5 3l-1-1v5l-1 16-1 2-2 2c-1-1-1 0-1 1 0 2 1 3 3 0h1l-1 2v6c1 5 1 6-2 6 0-1-1-1 0 0 1 2-1 1-3-1-1-1-1-1-1 1 0 1-1 2-3 2l-4 3-1 3c-1 2 0 2 9 2 13 0 16-3 10-9-2-1-2-2-1-3v-4c-2-5-2-6 0-6 1 0 2 1 1 2 0 1 0 2 2 2l2-1-2-3-2-2c-4 0-1-5 4-6 2 0 2 0 2 4l2 3 1-1v-2l-1-3-2-4-2-1c-1-1 0-5 2-5s3 2 2 3v3l1-1 2 1c1 1 1 1 0 0l1-1v4l1 2 2 2c0 7 2 10 4 8 3-3 5-8 3-7-1 1-2-2-1-2 1-2 4 2 3 5 0 2 3 2 4 0l1-1 1 2v-15l2-2 2 1h1c1-2 2-1 4 5 3 9 3 10 1 10l-3 1 2 1c3-1 3-1 4 3 2 6 1 8-3 5l-2-2v2c0 2 1 3 3 3l3 1 1 4-1 2-2-2-2-2c-2-1-3 0-1 2 2 1 2 1 0 2-1 2 6 2 61 2h62v-4l3-24c2-3 3-11 2-12l-1-3a20 20 0 0 0-13-13v1l-2-1h-2l-3-1h-3l1 2v5l-1-1-1-5c-2-2-2-4-1-10l-1-8c-1-1-2-2-1-3l-3-7v-1l-1-1c-1 1-1 0-1-1l1-2v-4c-1-3-1-4 1-4v-2l-2-3v-8c1-1 0-2-1-3v-2l1-1 1-2 4-2 2-1h1l-1-3c-1-1 0-5 1-5l1 2 1 1h2l6 7 2-3c2-5 2-5 0-7l-1-1c2 0-2-3-4-3-10 0-13-31-5-44l3-3-2 4c-4 6-5 26-1 26l4-9c5-17 5-14 0 4-3 10-3 16 0 18v-1l1-4c1-1 1-1 1 2 0 4 4 7 6 4v-3l2-5c2-2 2-4 2-8l-2-10a10 10 0 0 0-2-7c1-1 0-2-2-4-3-3-3-3-3-1l-2-11c0-3-1-5-2-5-2-1-3-2-3-7l-1-4c-1-1-2 6-1 8s0 4-1 2l-2-5-3-7c-1-3-1-3 2-4s5-1 4 1h4l5-1 5-1-4-1h-4l-2-1c-2 0-2 0 0-2v-2a1 1 0 1 1 0-1l1-1-1-1v-3c2-2 1-4-2-4-2 0-2 0-2 6m29 14v17c3 2 4 1 5-4 2-4 2-4 2-2l-1 5c-1 2-1 2 5 0h6c2 1 4-1 3-3v-2l-1-1-1 2-2 1c-1-1-2 0-3 1s-1 1-2-1c-1-3 1-7 4-8 4-2 5-5 2-4h-4c-1-1-1-1 0 0 1 3-5 3-6 0-1-2-6-2-7-1m231 7c-1 2-4 3-4 1h-2c-3 0-3 1-2 4l5 15c5 16 5 16 4-4 0-18 0-19-1-16m-365 3-2 1c-3-1-2 12 1 16l2 3c0 2-3 4-3 3v6a17 17 0 0 0 1 5c-1-3 4-3 6 0h2l-2-2c-2-1-3-4-1-4s0-12-3-12c-2-1-3-4-1-6l1-4c0-2 0-2 1-1l2-1c0-2-1-2-2-1-2 0-2 0-1-2v-3l-1 2m285 2 1 5c1 1 2 3 1 4-1 3 2 7 5 6l2-2 2-1c3 1 1-7-2-12-3-4-9-4-9 0m-133 6-7 1-6 3h-4l-3-1c-4 0-5 2-3 4l2 5 1 6v10l-2-1-1-1v1l-1 9c-2 9-2 9 0 8l2-1 1-1 1-2c0-2 0-2 2-1l3 2c2 0 4 3 3 4l-3-1c-4-1-3 2 1 4 2 2 3 1 1-1l2-1c5-1 6-1 5 2v2l2-3a32 32 0 0 1 0-7l-2 1c-2 0 0-2 4-4 4-1 4-1 2-3-1-1-1-1 5-1l6 1h1c2-1 4 1 7 7l3 5a5 5 0 0 0 5-4l1-1h2c2 0 3 1 0 2l-2 2h2l2-1 1-2 1-2v-1h-2l1-1 1-1-3 2h-2v-2l-1 1v1l-2-2c0-2-1-2-4-2-4 0-4-1-4-4l-1-5v-1l2 1v1h1c0-1 0-2 1-1v1h2c1-2 2-2 2-1-1 1 0 1 1 1l1-1c-2-2 3-3 12-4l11-1c1-1 1-1-1-1l-25-1c-2 0-3-1-3-2h-3c-2 0-2 0-1-1l-1-1h-3l1-1v-2l-1-4c0-2-1-3-2-3l-2-2c-1-1-1-1 1-1l-1-1c-2-2-6-2-9-1m47 52v1l-1 1-9 1-10 1c-1 1-2 0-4-2-4-3-5-2-2 1l2 4 2 1c2 0 5 4 5 6s-1 2-2 2c-2-1-3 0-3 1-1 1 1 4 3 4s1 2 0 2c-1 1-2 0-1-1l-1-1c-3 0-2 0 1 4 3 3 5 4 4 2l-1-1c-2 1-1-2 1-3h1c-2 2 0 4 2 3 1-1 2-1 2 1l-3 2-2 1 1 1 2 1v1l1-2 2-1v-2c0-2 2-3 3 0l1 2 1 1c-1 1 0 1 2 1l3-1-2-1h-1l4-1h3l-2-2c-2-2-3-3-4-2l-1-2 2-2 1-2c0-1-2-1-4 1-3 2-4 2-4 1 1-1 0-4-1-3l-1-1-2-2a2 2 0 1 1 1-4c2 1 2 1 4-1 2-1 2-2 1-2-2-1-2-1 7-1 5-1 8-2 8-4l-4-1-1-1-1-1-2-1-1-1v2m-131 9 1 11c0 12 0 11 5 10l4-1v-20h-10M66 571l-2 3-1 1c-2 0-1 2 1 3 3 1 3 3 1 7-2 3-1 7 1 6 2 0 1 1-1 3l-2 4v1a3 3 0 1 0 3 4v-3c2-1 2-4 2-8a31 31 0 0 1 2-10v-5l-1-1v-2c1-3-1-4-3-3m438 2-14 1h-13l2 3 3 5c2 2 2 3 12 3 11 0 12 0 14 2h3c2-2 1-12-1-13l-6-1m-237 8-1 1c2 5 2 8 1 7h-6c-1 2-3 1-3 0l-1-2-1-1v-2c-1 0-2 1-1 5 0 5 0 5-2 5l-4-2c-2 0-2 0 0-2v-1c-4 0-5 6-3 9a3 3 0 0 0 6-1l1 1 1 4c2 4 3 7 1 8v8l4 3 1-3 2-2v-9l1-5c0-1 0-2 1-1l1 1 3 2v1c-3 0-4 0-4 2a2 2 0 0 1-2 2h4c3-1 4-1 5 3v4l-1-1c0-2-3-3-5-3l-1 4-2 2c-1 0-1 1 1 2l3 4 4 2 5 2c2 2 3 1 3-1l1-3c2-1 1-5 0-6-3-1-1-8 2-8a10 10 0 0 0 1-10 33 33 0 0 0-1-3c0-2-2-1-2 0-2 4-5 1-7-5l-1-4-2-6c0-2-1-3-2-1m-161 3-1 3v4l-1 4c1 2-1 4-3 4l-2 2c0 2 0 3 2 2l1 1-1 2c-3 1-2 2 0 2 2-1 3 0 4 1 1 3 4 1 7-3l1-3 1 2 2 3c2 0 2-3 1-5-1-1-2-3-1-4h-1l-2-1c0-2-3-1-3 1-1 1-1 0-1-2 0-3 0-4-1-3l-1-2 1-4 1-2v-1c0-2-1-2-3-1m202 4v3l1 3c0 3 0 4 2 5 2 0 3 4 1 4l-6-6-1 1c-1 2 0 4 1 5l4 5 4 1c2-1 3-1 3 2l2 2h3l1-4c0-2-1-3-2-3 0 0-2-1-2-3l-4-5-2-4c1-1 1-1 2 1 3 3 2 0-1-5-4-5-4-5-6-2m-74 2-1 3-1 2-1 1-1 1-1 1v5l1 4c-1 5 0 7 2 4l2-3v2c-1 3-1 6 1 6s1 4-1 8v2l-1 1v4c1 1 1 1 1-1s1-3 2-3l3-3 3-5c2-1 2-2 1-4v-8l-1-2-1-1c-2 0-3-2-3-7l-1-4-1-2c0-2-1-2-2-1M56 605l1 2c2 0 1 2-1 4s-2 2-1 4c1 1 1 2-1 4s-2 3 0 3h1l1-1-1 2c-1 2-2 3-3 2h-1l1 3 2 1v1c-2 0-4 3-4 4l1 1 2 1c2 2 1 2-2 1h-3l-1 1-3 2c-2 3-2 3 0 2 2 0 2 0 1 2l-4 8c0 2 0 2 1 1 2-1 2-1 2 1s-1 3-2 3l-1 2 1 2 1 2 1 6c1 0 4-13 4-20 0-3 3-4 3 0h1l1 1a3 3 0 0 0 1 3s1-2 3-2l2-4c0-2 2-4 4-4h3c3-4 5-1 2 2s-4 6-3 6l2-2 2-1c2 0 3-3 2-4l2-3c1-2 1-2-1-1h-2v-1c2 0 2-5 1-7v-3c-2 0-2-3-1-4l-1-2-1-1-1 2c-2 0-3-5-2-5 1-1 1-1-1-1l-3-1 1-1c2 1 4 0 4-2l-1-2v-3c0-4 0-4-2-3l-5-1h-2m25 6-1 4 1 2c0 1 0 2 1 1l1 3c0 1-1 3-3 3-2 2-3 3 0 2 2 0 3 2 2 5 0 1-3 2-3 0l-1 1v3c1 1 2 2 2 5l1 3 1-1 3-4c3-4 4-6 1-3-3 2-3 1-1-3 2-5 2-16-1-19-2-2-2-2 0-4v-1l-3 3m174 19v9l1 6c1 1 4 2 5 0v-4c0-2 0-3 1-2 1 2 4 3 5 1s-2-7-4-6l-1-2c0-1 0-2 1-1l1-1c-2-2-5-1-5 3l-1 4c-1 1-2-2-1-4 1-3 1-4-1-5l-1 2m39-1-1 2a31 31 0 0 0 3 24c3 2 4-3 4-11l1-8c2 0 2-3-1-5-2-1-2-1-4 1-1 1-1 1-1-1l-1-3v1m16 4 2 2 1 1-4 1c-3 0-4 1-2 2v2l-1 5-1 4-1-2c0-6-2-4-2 2-1 9-1 12 2 15l3 4 1 2 1 3c0 2 0 2 2 1s3-2 4-1c3 2 4 1 4-4l-1-5 3 2c4 3 7-2 5-9l-3-8c0-7-2-11-7-15s-7-5-6-2m-34 14 1 2c2 0 2 0 1 3l-2 10-1 11c-1 5 0 9 2 9s4-22 3-32c0-3-4-6-4-3m-221 9-3 4c-2 0-5 4-4 5l3-2v-1h1l1 2c3-1 2 7-1 8-2 1-2 1-1 2 2 2 2 3 0 3l-1 1-1 2-1 2 3-1c2-2 2-2 4-1 2 2 5 3 5 1 0-3 3-3 4-1 2 3 3-7 2-12v-4c1 0 1-3-1-5v-2h-1l-2 1-1 1c-2 0-3-2-3-5s-2-2-3 2" tabindex="-1" itemprop="bold" style="fill: rgb(19, 16, 30); fill-opacity: 0.825; fill-rule: evenodd;"></path></svg>