<svg id="16282281824-posters-1744929529306" itemscope="" itemtype="/posters" itemid="/+16282281824/posters/1744929529306" viewBox="0 0 512 683" preserveAspectRatio="xMidYMid meet" tabindex="0" class="animate" xmlns="http://www.w3.org/2000/svg"><defs class="graphic"><pattern id="16282281824-posters-1744929529306-pattern" width="512" height="683" viewBox="0 0 512 683" patternUnits="userSpaceOnUse" preserveAspectRatio="xMidYMid meet"><rect itemprop="background" width="512" height="683" tabindex="-1" id="16282281824-posters-1744929529306-background" fill-opacity="1" fill="url(#16282281824-posters-1744929529306-radial-background)"></rect><!----><path id="16282281824-posters-1744929529306-light" d="M0 24c0 22 1 24 3 25h7l6-1 8-3 7-4h2l1-2 3-1q8 2 9 5l2 3q3 5-1 6l-3 1-5 1q-4 0-6 2l-5 2q-7 1-5 5 2 3 11 4l7 2 7 2 4 2 3 2 4 2 6 1 7 1q2 4 6 2h13q7 2 4 6v8l1 4 2 6c0 2 3 8 6 8l5 2 5 2-3 3-2 5-1 1-4 2-4 2h-6q-12 3-17 0c-2-2-22-3-25-1h-5l-20-2H12v4l-1-1-3-6q-10-10-4-3l4 6q2 1-1 1l-3-1-2-1a418 418 0 0 0 0 68l-1 3 1 2v7l2 2-2-1q-1-3-1 10v12l3 2 3 4h1l2 1q-1 2-4 1v-2l-1-2-3-2q-3-2 0 4v2c-2 0-2 52 0 54v1a178 178 0 0 0 0 45l-1 24v22q0-2 2-2 2-2-1 13l-1 41v32h18l5-8q7-13 7-7l-1 2q-2 0-2 2v3l-2 3q-1 2-1-1t-1 0q-4 5 2 6l-11 1H1v12h9l9-1h2l2 1h17l17 1-2 2q-3 2-1-1 3-3-2 0h-1l-25-1H1v8l4-1 35-2q13 0-2 2l-23 2-14 1v193l256-1 256-1V486l-1-192 1 5-4-1h-4v4l1 12v8h3q4-1 4 4 0 4-4 4-4-1-3 3l1 12v8h3q3-1 3 4t-3 4h-3v7l-1 8c-3 1-4-14-1-17q3-1-4-3c-9-3-19-4-18-2l2 25 3 1q3 0 3 2l-1 2q-2 0-2 2l-3 2q-4 0-3 3l-1 2a5 5 0 0 1 0-7c3-1 3-6 1-7-3-1-3-8-1-10v-1l-2-1v-8q0-10 2-9 2 0 2-4t-2-4-2-2h1l1-3-1-5h-1v-1l-1 1-1 2-2-2v1l-1 3-1 2h1l1 2q-1 3-3-1a8 8 0 0 1 0-9l-1-3q1-8 3-1 1 4 1 1v-9q0-3 2 4 2 14 1 0 0-9 2-8c2-1 2-7 1-8-2-1-2-7-1-8v-2 1h-1l-1-1v-1c-2 1-3 7-1 9v1l-2-3q0-3-1-1l-1-3 1-3 1-6v-6l1-1 1 6 1 6v-7q0-7 2-7l1-4q0-5 5-6l-1 1-2 2-1 1 4 1h6q5 1 12 7l2 4-1 1 2 2h7v-92l-1-115V59l-3 1-4 4-3 2-12 2c-2 2-10 6-13 6q-2 0-2-3 1-10-14-9-11 1-4-5l4-5c1-2 7-2 10 1l5 1q6-2 12 3 3 3 5 2h4l2-2q1-4-5 0h-2l2-2 2-2 2-4 3-5c0-3 7-11 9-11l1 6 1-16V0H0zm0 0 1 11zM292 7l-2 7-2 4 2 1 1 3c-1 3 8 12 11 9v-4c-2 0-8-5-8-6q0-3 6-1l3-1 1-3a10 10 0 0 0-12-9m8 29 1 2v5l-1 3q-1-2-1 13v13q-1-1-1 14v14q-1-1-1 3l1 5v4l1 3v-7q0-4 5-3 4 0 4-3l-1-4v-6l-1-5v-5l-1-4v-5l-1-6v-5l-1-6-1-5v-6l-1-5zm69 38 1 2v2l1 4q0 3 1 1t1 1l1 2 8 2-1-1-1-1-3-1q-4 0-2-2t-2-7c-2-3-6-4-4-2M13 78l1 4q2 4 6 3 3 0 1-2v-2l2 1a2 2 0 1 0 2-1l-1-1-3-1-3-1q-5-3-5 0m115 7-6 2q-4 0-4 2-2 3 1 3l3 1 5 3 2 2 2-1 3-1 1 1q3 3 5-3l-1-3q-2 0-2-3c-1-3-7-5-9-3M1 99l1 8 5-2q8-5-3-11l-3-2zm308 7c1 3-1 46-2 82l-1 27q0 14-4 13-2 0-2-2t2-2 2-4a4 4 0 0 0-2-6l1-5-1-3-1-4c-2 1-2-5 0-6v1l1 1 1-2-1-1h-2q-3 0 0-4 3-3-1-3l-1-1q0-4 3-3l1-4q0-5-3-5-5-5 0-5l2 1-2-2-2-4 2-1h2l-1-1-2-1q-2-5-2 6 0 8 2 9c2 1 4 5 2 4l-2 1v1l-1 2q-2 5 3 4v2l-3 1q-2-1-2 4t2 5v3l-2 3 4 2 3 4q-5 1-5-2l1-2-2 2q-3 4 2 3 2-1 2 3 0 3-1 1h-1c0 2-4 0-4-2l-1-2v12l1 8h1l2 1 1 2-2 1q-4-1 0 3 4 3 1 5h-1l-1-1q-4-1-3 7 0 9 4 10 2-1-1-4a3 3 0 0 1 0-5l1 1-1 3 1-1 1-1 4 1q3 0 2 2-1 3-3 2-4 2-3 5l1-1 1-1 3 1v2q0 2 0 0l2-1 2 1 1 2q0 2 0 0l2-1 2 1 1 2q0 2 0 0 2-3 4 0 2 2 2-3l1-3v-1l1-1 1-1h-3q-2 1-2-3l-1-4v-1q0-3 2-3l1-1-1-1h-2l-1-2 1-3 1 1h1a14 14 0 0 0-2-11l1-2-1 2q-3 3-2-1 3-4 5 0l1-1q0-3-2-3t-2-2 1-1h2l1 1q0-3-4-5c-2 0-4-4-1-4l1 1 2 1 3 1 1-1-1-2v-2q0-4-5-6-2-2 1-5v1a2 2 0 0 0 3 2h2l1-5 2-11-1 1q-4 2-6-1 0-3-2-1v-2l1-5q0-3-1-1v-23q3-6 5-2l1 2 1 3q1 4 3 3 1-2-1-2v-1l2-5q0-5-2-4v-1l2-4v-5l1-2v7l1 8 1-4q0-5 1-2 1 2 1-1l-1-3v-1l-1-3q-4-4-5-11-1-6-1-1l-1 3-4 1-2 1v-26l-4-3-3-2zm105 3q-3 2-1 4l3 2 4 1c2 2 9-2 9-5l-2-2zM0 154l1 14zm133-12-4 3q-7 6 9 7c7 0 10-6 4-8l-5-2zm137 6-4 2q-3-1-6 3-1 3 3 3l5-1q6-2 5 2 1 3 1-4 0-10-4-5m116 9v12l1 4 1-7 1-6h1v-1l-1-1q3 0 5 3l1 1q3 1 3 4l1 1v-2l1 1 4 3q3 2 3 11-1 8 3 9l5 3q1 1 2-5 1-7-1 0l-1 1q0-7 5-5 13 6 13 23l1 2 2 1-1 1q2 2 3-6a5 5 0 0 1 1-6l1-1 2 2h1l3 3h-1q0 2 3 2l2 1 1 1q2 0 2-3 1-3-9-9l-15-12-24-18-18-14q-1-1-1 7m-327 1-2 5c-1 6 13 13 18 10q5-2 6 1c0 1 3 6 5 6l10 7q3 4 0 2h-3q-2 2-25-8l-5-2-6-2-5-1-1-1q0-3-3-4v2l-1 1h-1l-4 3q-12 5-7 12v3q-2 1 1 4l2 2 4 1q11 4 21 4h11l3-1c0-3 8-5 13-3l4 1q-1-3 4 1l5 2q7 0 6 2l-1 4-2 4-2 2 3 2q8 4 6 7-2 9 11 10l7 1h3l7 1h7l8 2 8 1 7-2 8-2q12-4 23 3l6 3 2 2c0 1 10 4 13 3l4 2 12 6 1 1 3 1q3-1 3 3 1 4 4 4l3 1q2 3 3-5l1-9q1-5-5-2l-1-3v-3c-6 0-14-4-13-5l-1-2q-2-1-2-3-1-5-5-9l-14-8-9-2q-2-4 2-4l1-1q0-3-2-3t-2 2q1 6-11 5l-12-3-6-1q-9 0-15-4l-10-1q-10 0-11-2t-4 1l-5 1h-3q-2 2-8-1l-5-2-3-2-4-4-6-3-2-2 2 3v2l-2-1-1-4-2-4v-1l-4-3-4-5 8 7 2 1 8 1 9 2 8-1h15l13 1 10-1q-1-4-15-8c-12-3-12-3-14 1l-2 2-4-2q-3 0-10-6t-12-6l-11-3-11-2-4 1 3 4 2 4-3-4q-4-5-6-4l-8-3q-9-4-9-2m116 5q-6 3 2 5l10 5-3-8-1-2c2-2-6-1-8 0m78 10-4 4q-2 0-2 2 0 3 4-1 2-2 5-2 5-2 5-5-4-3-8 2m243 10-1 2h-2q-2 0-2 2l-2 1q-1-1 0 0c2 2 9 1 8-1h4l2-1-1-1q-2-4-6-2m-249 4-4 3-3 3-8 8-3 2q-4 4-8 1v-2l1-1q-1-5-3 1v7q-2 2 1 2l7 4 6 2c5-3 20-1 20 3l3 6 3 6c0 2 6-24 8-40q2-5-6-2l-4-2q-6-4-10-1m131-1c-1 1 1 16 3 18v-3q0-3 1-2v-4l-1-3-2-3zM3 197l1 4h3l1 1 2 2q9 6 8 10v1l2 1 5 3 7 4 2 2v-1l3 6q-1 1 2 3l4 2 1-1v2l2 1 2 1h-1v1l1 1a1 1 0 0 1 2-1l14 5q8 3 0 5h-3l1 2 3 2 23 17q0 5-4 6l-2-1q1-3-2-2h-1l-1 1h-1q-2-4 1-3l-1-1-1-1-4 4v-4q-5 0-5 5l2-1q1-2 1 1 0 4 2 1 3-3 3 1v2l3-2 4-2-2 2-2 2-1 1v1l-3-2-1-3v3l1 2v2l-1 2-1 2 3-2 5-3h1l-2 3q-3 0-3 2l2-1 4-2q6-2-2 3l-4 4q0 3 4-1l3-3q4-1-3 5c-4 3-10 12-7 11l1-1q2-3 2 0l1 1 1-2q0-3 4-4v2l-2 2-1 2q-6 9-7 14l-1 1-1 1 1 1v1l2-2q5-5 0 4a2 2 0 0 0 0 4l1 2v2l1 1h2l1-1 1-1q0-3-2-1-3 1 1-3l1-1v1l1-3q0-4-1-2h-1l1-3 2-2q0-2-2 1l-2 1 2-3 2-3 1 3q-1 4 4 5 5 0 4 4l1 2 6-1 5-2v-6q2-6 3 0l1 2 1-2c0-3 3-3 21 4l15 5h1l2 1-2 1-1 2q0 3 2 2 3-1-1 5l-2 5 3-4q6-8 8-5l-3 6-4 4-6 8-5-2-7-2-3-1-19-5v1q-2 3 13 5l12 3v1q0 2 2 2h1l2-1 4 3 4-5q3-7 6-9c7-9 6-8 8-25l1-17 1-2q4-3 3-7-2-5 7-6l5-1 6-2 6-1 6-2 5-1q8-5 6 10 0 7 2 6l1 2v4q0 3-2 2v1l1 6v12l-1 10q0 4 1 2l5-2q3 0 2 2l1 2 2 1 1 1 1 2-2 2q-3 0 0 3v1a2 2 0 0 0 0 4v1a2 2 0 0 0 0 4 1 1 0 0 1-1 2q-3 0 0 4v1a2 2 0 0 0 0 4l-1 2v2q2 2 0 3l-1 2 1 2v1a2 2 0 0 0 1 5l-2 1-1-2q0-5-4-2h-1l-2-1q-2-1-2 4v5l3-1 4 1 2-1q4-2 3 1h3l3 1 1 1 3-1q3 0 3-3l2-2v2l1 3c1 0 2-5 1-7v-3l1-3q0-3 1-1l1-1-1-3-1-1q0-1 0 0 4 3 4-14l1-2 1-2-1-1-1-1 1-1q2 0 2-4c1-8 1-7-4-8q-5 0-5-2l-4-2h-4v-7c0-8 0-8 14-8h9l2-15 2-17 1-4 1-7 1-3-4 2-7 1-3 1v2q0 5-4 5l-7-2q-3-2-10-2-9 0-7-2-2-4-5-3h-1l-1-1-4-2q-3-4-7-3l-7-1-4-2-6-3-6-3-3-1-2-1h-1q-1-4-7-6l-5-2q-2-2-8-2l-6-1-1-1c1 1-14 4-16 3l-5 1-2 2 3 3 3 4-4-3q-4-4-5-2-5 3-9-1-2-4-5-3-2 1-6-3l-5-3h-4l-3-1q-1-2-12-3-11-2-7-4 2-3-4-3l-8 1q-3 1-8-4-6-6-6-4l-2 1v-2a27 27 0 0 0-11-11l-4-2v-1l-1-2-4-2-6-6-3-3zm405 18a3 3 0 0 0 1 6l-1 1-1 3v2l2-4v4q-2-1 1 3c2 2 1-8-1-11v-2h2l1 1v1c1-2-2-6-4-4m18 14q1 16 3 12v-11h2v-1l-1-4v-1l-3-3q-1-6-1 8m-405 1 4 14q2 0 2 2l3 4v-1l-2-3h1v-1l-1-3-1-1-1 1-3-9-1-4q-1-1-1 1m356 8 1 7 1 8q2 11 2-4l-1-11-1 1zq-1-3-1 0m22 8q-1 6 2 7 2 0 3 2v-3l-1-4-2-2-2-2zm-106 2 4 3 4 3h1l2-1q0-1 0 0l4 3-3-4q-5-3-4 0l-1-1q-6-5-7-3m115 3v4c-2 1 3 6 5 6l-1-9-1 1h-1l-1-2v-2zm6 12 2 13h1l-1-2v-12l-1-11zm-180-4-6 5 1 1 3 1q5 1 5-4-1-5-3-3m193 1q-1 10 3 12 6 3 4-4l-3-5zm-21 5q0 6 2 4 1-3 1 0t2 4l1-5-1-6-3-1q-2-3-2 4m-113 1q0 2 3 2 3 3 0 5h-1v-1q-4 1-5 3l2 7q0 6 3 6l1 3q-2 3-4 1v1q0 2 3 3l2 2h1l1 2q1 3-2 1h-2l-1 1-1-1q0-1 0 0-2 3 4 4l4-1v1l1 2 2-1 1 1 2 1q5 1 0 3l-3-1h-3l-1-1-2-1h-3l-1-1a2 2 0 0 0-4 0l1 6q-1 4 3 4 3 0 3 3 0 2 0 0l2-1h3l1 3q0 2 0 0t2-2l2 1-1 4h-1l-1-1h-3l-3-1-8-4c-1 1 3 7 5 7l3-1 1-1v1l2 3a2 2 0 1 1 3 1q0 3-4 3t-2-2v-2 1q-1 2-4-1-2-2-3 2 0 2 2-1 1-2 1 1 0 2 2 2l3 1 2 1 1 1-2 2-4-2q-1-2-1 3v2l-1-5v-2l-2 2-2 2 2 1q2 0 2 3v2q1 4 3 4l1 2q0 2 0 0 3-4 7 2l1-1 2-1 2 2 2 1 1-3-2-3q-1-3-1 1l-1 2c-3-2-1-7 2-5q3 1 2-2v-4q2-3-1-3l-1-1v-1h-5a2 2 0 1 1 3-4l2 1 3-1v-1l-1-1 1-6-2-1-7-2-2-2-1-1-1 1-2-1-3-1h-2q-2-1-2-3 0-3 2-2l7 3 7 2h4q2-2-1-2l-1-2-1-5a2 2 0 1 1 3 0q-3 2 1 5 4 2 5-1l-1-1v-2q2-7-1-5l-1-5v-4q-2 1-4-2l-1-2v2l-1 1-4-2h-3q-3-2 2-5l1 2v1l1-1 4 1 5 2a1 1 0 0 0 0-3h-2l-2-2-5-2h-3l-1-1h-2l-4-1v-4a3 3 0 0 1 4 3q1-3 3 0h4l2 3q2-3 3 0l2 1q2 0 2-3v-5l-1-2-1-2q0-2 0 0-2 3-4 1l-2-1q-3 0-3-2l-3-1-9-4zm133 10q0 3 2 1v2q-1 4 3 5l3 1v-5q0-5-2-5l-3-1q-2-3-3 2m-53 0v28l1-15zM43 286l-1 9q0 12-1 3l-1-2-1 3-1 3v3l1-3q0-4 2 5v2-5l3 1 3 2 1-1 1 4v3l1-4q2-4-1-6l-1-1q0-1 0 0-2 0-2 3v-1l-1-3-2-2v1l1 2a1 1 0 0 1 0 2l-1-1-1-2 2-12h1v-2q-2-3-2-1m439 11c1 14 0 12 8 13q7 0 10 3l4 2-1-2c-3-4-4-18-1-19 5-1-3-6-15-8l-6-1zm-20-8v6q0 4 1 2t1 1v7c2 0 1-14-1-16q-1-3-1 0M0 313l1 11zm482 12q1 13 4 13l1 2h-4q-2 4 9 4l12 3v-1c-2-2-3-19-1-21 1-1-7-4-14-5l-7-1zm-74 15q1 9 4 7v-5l-2-4q-3-2-1-3l-1-1zm-255 2-3 5-5 7-5 6-1 2q2 0 6-6t5-6c0 1 5-10 4-11zm150-2-3 1q-4 0-3 2l-1 3h1l1-1q-1 0 0 0l1 1h1l2-1v1h1l2 1 3-4-1-2a2 2 0 0 1-4-2zm125 8 1 2 1-2q0-1 0 0 1 4-1 4v7q0 9 2 8c2 0 2 0 2-10l-1-11h-3zm-276 3q0 3-7 12l-3 6q2 1 3-1l5-9c0 1 4-8 3-9zm148 2q0 2-2 1h-1l1 2h2l1 1h1q1-2 3-1l5 1q5 1 2-3l-1 1h-1q-1-2-3 1l-1-1-1-1h-1l-1-1zq-3-2-1 1m175 0-1 9q-2-6-2 2 0 3-2 3l-2 1h2q2-1 2 5l1 6q2 0 1-2h-1l1-2 1-5 1-2v-17zm-12 5c0 6 2 21 3 20l-1-12v-3l-1-7-1-4zm34 4q3 9 5 2 0-4-4-6zm-192-2-1 1-1 1h-1l-3-1q-1 2 2 3l1 2-1 2q-3 0 0 2l2-1q1-8 10-4v-2l-1-2-2 1q-3 0-1 1h-1l-4-1 1-1zm-1 12-2 4-1 2 2 1q3 0 2 3l1 3v-3l1-3 1-1q0-5-4-2h1l1 1-2 1q-2-4 2-6l3-2-1-2-1 1v1l-2-1zm-112 10v4h-5q-10 0-5 3a12 12 0 0 0 10 0l2-1v-1q-2-1 0-4h4l1-2q1-3-3-3-5-1-4 4m273 21v12l2 2a45 45 0 0 0-2-22zm-302-5q0 3-1 1 0-2-1 1l1 2v9l-1-4-1-3v3l-1 3-1-2v-2l-1 2a1 1 0 1 1-3 0v-2l-1 3v4h-2l1 2v5q-1 4-1 1 0-6-2 2l1 4q1-2 1 1c0 5 2-2 2-9q0-6 2-7v16q3-3 2-11a3 3 0 1 1 4-3q1 3 2-11zm11 3v9q-1 5-3 3v1l1 2 1 4 1 4q2 1 2-4 0-9 3-4h1v-2l-1-7v-7l-1 6v4h-2v-6l-1-8zM0 433l1 17zm154-1a5 5 0 0 0 8 8q0-2-3-2-9-2-1-3 3 0 3-2l-1-1-4-1zm86 3-1 2h-2l-1 1h-2q-2 0-2 2v1q-4-2-3 1v-2q2-4 0-3-2 0-2 3l-2 4-1 7 1 5q2-3 3 0l1 1a8 8 0 0 0 1-8h2l1 1v2l1 1 1-2v-1h2q1-2 1 1l1 4 1-6 1-10v-4zm-49 15v12l2-6 2-4q3-3 1-3-5-2-5 1M73 474l-1 6q0 4 2 4l3-1 3-1h3l-5-5q-5-6-5-3m35 1v2q-1 2-4 0l-1 1-4 1H88v1l1 2 1 1v-1q-1-1 2-1l13-2 3 1h1l8-2 8-2 15-1h-11q-4-1-6 1h-7l-4 1h-3zm-21 10c0 2-1 3-14 3l-23 3-9 2 10-1 57-6 12-2-13 1H90q-4 0-2-1v-1zm70-1-8 1-3 1-10 2q-21 3-4 2l37-6zm19 3-13 4 30-4 12-3h-8zm48-2-9 3-8 3 8-1 15-3 7-3h-7zm29 2-4 3h6q7 0 10-3l3-2-6-1q-6-1-9 3m56 2 30 1h13l-15-1-30-1h-15zM0 586c0 53 1 75 1 48zm298-91q-22 2 18 1 86-2 27-2zm121 0-3 1 10-1 32 8 19 6 5 1h5l-6-2q-7-2-2-2 4 0-2-1c-8-1-36-7-34-8q2-1-1-1h-8l-8-2zm-59 3-48 2-22 1c0 1 28 1 68-1 29-1 33-1 28-3z" mask="url(#16282281824-posters-1744929529306-horizontal-mask)" itemprop="light" fill-opacity="0.90" fill-rule="evenodd" stroke="none" fill="url(#16282281824-posters-1744929529306-vertical-light)"></path><!----><path id="16282281824-posters-1744929529306-regular" d="m62 2 3 5 2 3c0 3 7 10 11 10q6 0 7 3h1v3q1 6 5 5l5 4 5 4 12 2 1 1v1q3 2 3-1h3l4 1q1-1 7 5l4 3 1 2c0 1 5 2 7 0 1-1 16 0 21 2h5l4-1q5 0 2 4l-4 2-3 1q-5 6-10 5a2 2 0 1 0-2 4q2 0 3 2 5 3 8 1l2-1 1-1q-1-9 3-7 6 1 7-2 0-3 3-3 3-1 0 3-2 1 3 6l7 7 3 2 1 1-2 1q-2 0-2 2l-1 2-1 3-1-1c1-2-9-6-10-5s6 7 10 7c9 1 10 6 1 6q-9 0-11 3l-4 2q-4-1-1-4l1-2q-3-3-5 2l-4 4q-3 1-5 4-3 6 2 5 5 0 0 6-5 4-2 5l1 3q0 3 2 3 3 0 3 2t3 2 2 4l1 6a4 4 0 0 1-3 8c0 2 9 5 13 4h3l3 1 3-1h2l2 1q3-1 2 2-2 3 2 2v1l2 2 2 3 1 2 4 3q3 3 5 2 3-1 2-2-2-1 1-1l4-1 3-2 1-2-1-1-1-2-1-2 1 1h12q1-2-3-5-6-2 2-8c6-5 5-13-2-13q-3 0-3-5-1-3-5-4l-3-2-8-1q-7 0-7-2l-3-1q-4-2-1-5l-3-1h-4l-1-2q-1-2 3-2c3 1 12-1 12-2l-2-7c-3-6-3-6 5-9l5-5q1-5 7-5l4-3 3-2v4l1 4 2 2q0 2 2 2 3-1 2 3c-1 5 4 12 10 12q7 0 7-6 0-4 7-6l7-4 5-4c3-1 3 0 1 11q0 3 2 4l3 2q1 3 4 2l-1 10q-1 9-4 12l-3 3-1 18c-1 17-6 42-22 129l-6 31-2 15h-8l-12 1-3 1v13h4l4 2q0 2 5 2l5 2c1 1-2 11-3 10l-1 1 1 1v2l-1 2q0-1 0 0l-3 14h-2l1 1 1 3-1 1q-1-1-1 2v2l-1 3v6q0 3-2 2l-3-1-1 1h-4l-1-1h-3l-3-1h-2l-3 1-1-1a11 11 0 0 1-10 0h-3l-1 1 3 1q7 0 3 3l-3 1v-1a1 1 0 0 0-2-1h-3l-2 1q1 3-10-1-9-4-8-5l1-2 2 2 1 2v-2q2-4 3 0l1 2 3-1 6 1 4 1v-4q-1-5 3-5l4 1 1-1 1-1v-1h2l5 1q2 0 2 2c0 2 4 4 4 2l-1-1-1-2 1-2v-1l-1-2 1-3-1-1q-2 0-2 2v2l-1-2v-23l-1-3 1-2v1l1 1 2-2 1 2 1-1h2c0-4-7-4-9-1l-1 1v-4q-1-6-4-1t-2 1v-1l-1 2q2 3 5 1v1l1 4q2 5 1 6h-1v-1h-3q-2 0-2-3l1-2v2l1 2q2-1 1-6l-2-1h-2l-2-1h-1l1-1 1-2q0-2 2-2v-2l-3-1h-1v-1l-1 2-1 4-1 2-1-2 1-2h1v-9l2-1-2-2-1-3q0-3 1-1l6 1-3-2-2-2v-2q-3-2 0-2h2l-2-2a6 6 0 0 1 0-7l1-3v-1l2-1-2-2h4q0-3-4-2l-1-1 1-2v-1l1-2v-2l-1-1q0-2 3 1 6 3 5 0v-4q0-3-1-1l-1 3-1 1-1-2 1-3v-3l-1-3c0-2 0-2-13 2l-16 4c-8 2-8 2-8 7q0 5-3 6c-2 1-3 2-3 19-1 16-2 17-5 23l-4 5-3 6a10 10 0 0 1-8 7q0 3-5 5-2 1-2-2t1-1l2-1q1-2 4-2l2-1q-1-3-5-1l-4-1-2-1-10-3q-17-5-13-6l30 7 5 2 4-6 5-8 2-3q-1-4-6 5-6 10-4 2 0-4 3-6 3-5-1-2l-1-3v-4l-17-6c-19-6-17-6-17-4l-1 1h-1l-3 1h-1l-1 4v2h-1l-11 3v-3q1-4-5-3-5-1-4 3c0 4-4 11-6 10h-2v-6l-2 1q-6 2-3-8l4-43-11-4-2-1-2-2q-2-1-2 6l-1 13-3 20-3 15q-3 4 0-11 1-4-2-5l-3-1-1 5 1 5-2 1-3-1 2-1v-5l-1-6-1-2 3-15v4l1 2a6 6 0 0 0-2-9h2c1 0 2 0 3-11l1-11q-4 0-3-4 2-2 5 1l2 1 1 1 2 1 2 2 4 3 2 1c1 4 5-2 4-7v-2l3 2 4 2h2l1 1h-3l14 10 2-3c0-3 0-4-10-11l-11-8-7-5-14-11-10-9q-2-5-4-5-3 0-3-2l-5-3a46 46 0 0 1-18-12l-3-2q-2-3-2-1l2 2 2 5 1 3-3-4q-2-3-2-1v7l1 6v1l-1 3q0 3 2 3l2 2 2 1 1 1 5 4 1-3q4-4 1-7v-2l7 4 7 3 1 3 1 8v7l1 4-1-2-1-1-5-2q-2-1-2 1l-1 8-8 55a1 1 0 1 1-2-1h-1v-2l1-7 2-7q2-4-7-9-7-5-6 1l1 3 2 1v1l-3-1v16l1 16 11 2v2h1l2 1h1l2 1q2 4-4 1c-5-2-4-2-5 3v5l4 1 4 2q-1 2-6-1-4-3-3 9l-1 2-1 3-3 15v-8l2-14 1-9H4l-3-1v8l1 9v2l-1 14v11l2-7q0-3 1 1l1 5c-3 4-4 26-4 55v30l7-1 9-1 1 1h1l2-2a27 27 0 0 1 12-15c5-7-2 7-7 14l-2 4h11q6 0 2-1l-3-1h3l9 1 10 1c4 0 6 4 2 4-2 0-3 8-1 10q3 5-18 4-10 0-4 1l29 3 2 1a2 2 0 1 0-1-4q-8 2-5-3l2-2 3-3v-1l2-2h1v6q0 6 2 4v-3l3-6c1-3 12 6 12 10q0 6 3-1 1-5-2-5v1l1 2h-1l-1-2-1-2-1-1-1-1-1-1c-3 0-3-5 0-6 5-1 152 8 171 11l39 4 25 2c6-2 19-2 17 0l3 1q3 0 1-1-3-1 2-1l25 2-3 1q-5 1-2 1l30 2 5-1 3-1-2-1h-1l6-1q5 0 3 1v1l-1 1-8 1q-5 0-2 1h12l2-1q3 0 1 1t1 1l4-1h6l6-1h8l3 1h1a3 3 0 0 1 5 0l6 1 4-1q-1-1 3-1 5 0 3 1c-2 1 3 1 24 2 17 1 16 0 17 5l1 4h-8q-27 0 5 4c5 1-5 2-20 3l-13 2c-3 1-53-5-58-6-4-2-22-4-33-3l-39 2-43 2-124 5-74 4-32 2-58 3-1 81v81l256-1h256V359q0 3-3 3-5 0-2 3l2 1c3 1 3 11 1 10q-2 0-2-3v-2l-1 2-2 3-3 3h-2q-2-1-2-5v-4l-1 3q-1 7-3-2v-5l-5-1-5-1q-1-1-1 6c1 9 0 9 8 9q8 0 5 1l-2 1-4 2-2 4-3 1q-5 0-4 5v1l-2-2-1-1a1 1 0 0 1-3-1l1-2 3-1 3-1-2-1q-3 0 0-1 4-3-1-4l-3-2h-1q-4 3-4-6 0-6-3-5-2-1-2 5v6h-1l-2-1c-2 1-2-15-1-23l1-3 1 4 1 8c1 4 6 4 6 0q0-9 3-2l1 5v-14l2-1 3-2 1-1v-2q2-3-6-4h-5v-10l1-9 2-4q2-3 5-4 5-3 0-4l-2-1h2l3-1q0-3-4-3-7 0-7-7 0-6-3-5-2-1-2 5l-1 6q-3 1-1 5v1q-3 1-3-1l-1-1h-1l-1-1h-1l-1-1-1-2q0-3-1 0l-1 1-2-1-1-3q0-5 2-4l3 1v2h4l1 2 1 1 3-2v-2l-2-1v-7q0-9 2-7l2 4q0 4 2 4a3 3 0 0 0 1-7l3 1q3 1 2-2-1-5 3-2l1-1q0-2 2-2 2-2 0-11l1-1 6 2q6 1 1 1l-3 1-2 1-1 1 6 1q7 0 10 2l5 3q-1 3 6 4h1l-2 2-2 1-1 1 5 1h4l-1-52c-1-50-2-53-3-54q-3-3-3-1v1-1q0-2 3-2 4-3-1-3h-5q-2-1 1-1h1l1-1h2l2-1 1-1q0-2-3-2-4 0-2-1l3-1 2-2h-1c-2 1-7-4-7-8q0-6 5-1 2 3 2-4 3-10-5-6l-7 2q-3 0-1-2 1-2-4-2-8-1-9 3v1l-8 6-4-1-3-1-5-2-5-2q-4 0-2-4 3-3 5 1c0 2-1 2 5 1l11-5 5-1q10-1 10-9l1-4 3-1 4-1 3-1 3-5 4-4V99l-1-19c-1-2-4 2-4 4q-1 2-3-1-1-2-4-2l-3-1c-1-2-9-1-13 1l-3 1c-4-2-14 9-12 12v3l1 3q4 3-2 8a3 3 0 0 1-5-1q-2 0-2-3l2-4c2-2-1-17-4-16q-2 1-2-2-1-4-3-3h-4q-2-2-5 1l-3 3v2q1 3-3 5-6 6-1 5c4-2 10-1 9 2q-4 7 0 10 3 2 0 4v2l1 3q-2 3-5 2h-2l-3 2-4-2q-1-3-7 2l-4 3c-4 2-11 3-10 1v-1l-6 1-6 1 1 3 2 3q2-2 3 1-1 2-6-3l-3-4q-1-6-5-10t-1-2h1l-2-2-2-1v1h-3c-3-1-5-5-2-4l2 2h1q3-2 2-6h3l1-1 3-2 4-2q3 0 4-4 2-5 5-7l3-4 1-1v-2q0-5 8-5 3 0 1-2l-4-1-4-2q-1-2-3-2l-1-2-1-2-1-1q3-1 8 3 3 4 6-3l3-3q4-4 1-6-3-3 0-5a17 17 0 0 0 9-16q5-6 3 5-1 12 4 6 1-3 4-1 4 2 4-1l2-1 5-4q5-6 1-7l-1-2-2-4q-4-4 0-9l3-4 1-1c2 0 0-6-2-6q-3 0-3-2l-48-1-48 1-1 3-2 3q-1 3-4 2c-2-1-16 5-16 7l-2 2-2 4-2 4v8l-2 2-1 2v-2q0-3-3 1l-1 1-2-2q-3-2-3 5 0 6-4 5-5-2-6 4l-1 3a2 2 0 1 0 2 3l3 1q2 2-2 3c-6 1-6 1-3 22 2 24 2 23-2 23q-5 0-5 4l-1 8v16l-1 1 1 2 1 7v8h-2q-1-2-1 1l1 2q2-1 2 9l1 6v2l1 8-1 5q-3-2-3 1v1l3 1q2 0 2 8v18l-1 10q-2 0-2 2l1 1h2c1 1 2-7 3-44l4-78c1-1 7 5 7 8q-1 4 4 4 8-1 8-6 0-4 2 0l-3 9q-8 14 3 24v3l1 3-1 3-1 3 1 2q1-2 1 1 2 4-1 4l-2 1h2l2 1-1 1h-3l-1-6-1-7v9q0 5-2 4l-1 3v1q0-2 2-2a4 4 0 0 1-1 6 2 2 0 1 1 0 3q-2 0-2-2l-1-2v3q0 3 5 2h4l-1 3v7q0 3-3 2l-3 1 3 1 1 2-2 1-2-1 1 1v1c-2 1-5 27-3 28l1 2 1 1h1l-1 2v1l2 2h-2v2h-1c-3-4-6 3-5 12l-1 5v3l1 4 1 3q2 0 3 2l2 2 1 4q-1 6-3 4-3-3 0-3l2-2q-1-3-3-1v-1l-1-2-1 4-1 2q-2 0-2 2l1 2 1 5q0 5-2 4a1 1 0 1 0-1 2q2 0 1 5h-2q-1-3-3 0 0 2 0 0l-1-2h-1a1 1 0 1 0-2 0c0 3 7 5 9 4v4l1 5 2 1h1l1 1-2 1-1 2h1q3-3 1 2a3 3 0 0 1-5 2l1 2c1 3 0 17-2 17q-2 0-2 2h1q0-2 2 2v3a2 2 0 0 0 0 4l1 5a8 8 0 0 1-3 8l1 2 1 2v6q0 4-2 3-1-2-1 1l-4 17-1-2a2 2 0 1 0-3 1v2q-2 1-2-5l1-5q3-2 0-5-2 0-2-3v-5l-1-3-1-4v-6l-1-2q-2 1-3-4-1-6-4-5l-1-3v-29l1-15v-14l1-14 1-14v-26l1-26 1-54 4-97q0-16-2-8l-2 2q-2 0-2-2l-3-1q-7 0-11-4l-3-1-1-3v-4h-4q-5 0-5 3l-3 3q-4 2-6-1-7-7-4-9 3-4 4-1 1 2 5-1v-4l1-6V4l-1-3-100-1H61zm432 0c-1 3-10 4-12 2l-2-2-2 2-2 3h-1l-2 1-3 2c-2 0-4 8-4 16q0 9 7 8 2 0 2 2t-3 2q-7 3-2 5 3 1 1 4c-2 1 5 3 8 2q2-3 6 2 5 4 6-6l2-1q2 1 9-5l8-7 3-1-1-15V1l-9-1q-10 0-9 2M240 37l-4 2q-11 4 8 4 6 0 5 2 2 3 3-1 1-6-5-6l-4-1zm16 10q-2 5 7 7l6 1h2q3-3 4 1 0 3 3 0 6-3 6 6 0 3 6 2c1 0 4-8 4-13q-1-3-4 1-4 2-6 0l-3-1-2-1h-3l-4 1-2 1c0 1-8-1-10-3zm-28 6v3l1 4 2 4 2-2q2-3 3-1h1l1-1c1 1 0-4-2-6s-8-3-8-1m14 10-4 4c-4 1-3 8 1 9l3-1q1-3 3 0c1 1 6-2 5-4v-4q1-1-1-3h-1l-1 1q-3 0-2-4 0-3-3 2m119 8-4 3-4 2-4 3-5 6 4-4q6-6 5-2l1 2 1-2 1-3q1-2 1 4-1 7 1-1 0-4 2-4v2l-1 6v3h11l-1-4-1-4-1-1-1-4q-2-2 1-2h1zm8 5 1 6q0 4 4 4l6 2 2 1q3 1 0-2v-1l-1-1v-2l-2-1-1-1-1-1-3-4q-6-6-5 0m53 1 2 1 2 1c1 1-3 7-5 8q-5 2-9 7l-2 2h2l2 1q2 3 8 0 2-3 7-5 4-2 4-5l2-2 1-2-1-2v-3zm-47 54-2-1h-2l-1 1 2 1 9 3-1-6q-3-2-4 1m23-1 1 1 6 5 8 6h-1l10 10 21 18q10 9 4 0l-4-2h-1c0-2-5-8-6-7-2 1-6-5-5-6l2-1q3-1 2-6v-1c2 0-1-5-3-6l-3-2-3 1q-2 1-2-2-1-4-3-1-3 3-6 0-3-5-8-2l-1 2-1-1-5-4zm-18 5 1 3 2 1v2l2 2h-2v5h1q3-2 1 1v2l1 11v9l-1-5-1-4-1-2v-2l-1-1 1-1-1-11q-4-10-3-4c1 4-1 22-2 24v1h2l1-7v-6l1 7q0 5 2 9 6 8 5-3 0-8 1-5l2 1q0-4 2 0 2 3 3 2l-1-1q-1 0 0 0 4-3 1 5l1 8 1 7v-7l1-7 1-1v-2l1 1 1 3q-1 2 1 3v-2l1-1 2 2-2 1-1 4q0 3-2 2-3-2-1 1 3 4 4-2v1l-1 6q-3 0 0 2h1l1-1 1 2h1l3 2-1 1 3 1h1l-1 1 2 1 1 1v1q3 2 3 6 0 3-1 1 0-3-2-1h-1l-2-3-4-3v1l-1 1-1 1h2l2 1-2 1q-4 0-4 2h-2q-3-4 0-3 2 1 0-2h-1l-1 1c-2 1-1 24 1 26l2 1 2 2v-6l-2-6-1-2-1-1h2q2 1 2-5l1-6 1 2-1 4v10l1 10-1 1 2 1 4 2 3 1q2 0 1 4-4 1-3-1l-2-1q-2 0-2 2l-1 4 1 1 2 2h3v1l2 2h2v-1c-2 1-4-6-2-7q1-2 1 1-1 2 3 2h3l-1-4q0-2-2-2l-1 2q0 3-1-1-3-9 3-8 3 1 3-4t-2-3v1c1 1 1 6-1 6q-3 0-1-3c1-2-1-6-3-4q-1 2-1-3l-1-6-1 1v1l-1-2 1-6q0-2 2-2 4 2 5-3 0-2 3 1l2 2v-3q0-3-1-1-1 1-3-2-3-5 2-2l2 1-1-2-1-3-2-4q-3-4 0-6a17 17 0 0 1 7 11l1 1h-1 1q3 4 1 3-3-1 0 2c2 2 0 7-2 7l-1-8-1-9v14q1 2-3 2h-4l5 1 7 1h1v-1l3 2v2l2 2v-1l-1-7v-6l1 4 2 5-1-5q0-8 2-4v1l2 1q4-1 1 3l-1 4v3l2 5v1q0-2 2-2c2 1 2-4 1-5q-3-3-1-6l2 1h-1l2 1c1 1 3 10 1 10v5h2l1 1v1l1-5v-9l-2-5-1-2-32-27-33-26v-4l-1-3-1-3-2-5q-2-3-3 1m-4 1-1 14v14l-1-12v-11 12l-1 13v1q4 2 4-18zm40 6q-4 3 0 3l3 3 4 3 4 4 3 2-1-2-3-5-3-4c0-3-5-5-7-4m2 13 10 9 34 28zm-288 6q-2 7 5 7l6 1q6 0 5-3l-4-2-5-3c-1-3-6-2-7 0m309-1a21 21 0 0 0 12 11l-1-5q2-7-5-5l-5-1a1 1 0 1 0-1 0m28 5-3 3-4 1-6 1-2 1-1 3v3q-2 0 1 2 3 4 3 2h2q1 2 6-1l9-3q4-1 1-3l-1-6q-1-7-5-3m-78 1-1 13-1 1h-1l-1 1-1-3-1-4q-3-2-3 2v-2q0-7-2-1l-1 3v-3l-1-4-1 2v4q-1 2-1-1v-2h-2l-1-1h-1a4 4 0 0 0-6 1l1 2h-1q-1-2-1 1c0 2 0 2 10 3q4 0 3 2v1q5-2 9 3 2 4-2 2h-1l-1-1q-2-1-2-3v-1l-1 16q0 17 1 10l1-5v5l1 7 3 2 2 2-2-2-1-7a7 7 0 0 0-2-8c0-4 3 3 3 7q1 4 1-5 0-12-2-10h-1v-1q-2-2 1-5l1 1v1l2-1 2-2h2v-1l1-1c5 3 5-3 0-8q-4-4-1-3l3 2q2 2 2-3l-1-5-3-1q-2-3-2 0m107 17q-5 1-5 4l-2 1v1l6 1 8-3q3-1 1-3l-1-1 2-1q1-2-9 1m-122 13 1 14 1-14-1-14zm-6-10h-1l-1 2q0 3-1 1t-1 1l2 4q4 3 4-4-1-7-2-4m-181 4c-2 2-1 8 1 9a6 6 0 0 0 4-8q-1-5-5-1m179 9q1 4-2 4-3 1-4-3v3q-1 6 5 2l-1 2-1 3 3-1h4l-1-6q0-6-2-6-3 0-1 2m61 14 2 1 2 1 1 1 3 5h-1v2l1 4q0 3 1-1l1-6v-2l-3-2q-6-4-7-3m-62 2 2 4q0 4 7 4l1-4-1-3q-3 0-1 4 0 2 0 0l-3-1-2-3-1-1-2-1zm11 4v5h2c-1 1 6 6 8 6v-1l-1-2a14 14 0 0 0-8-11q-1-2-1 3m49-2 1 13v7l-1-5v5q0 7 3 6l2 1h2l1 1 1 1v-5q-2-11-4-8l-1-1 1-1 3 1v-2q0-7-4-9v-2h-1l-2-1zm23 9 1 1v5l1 1h1v2c-3 0-2 8 1 10q2 1 2-4l-2-6q2-4 3 12l1 12h1l1 2v1q-3 1-1 8l2 1q4 0 3 5l1-1 1-2-1-1v-3l-2-1h-1q0-3 4-1 3 2 2-5l-2-4q-2 1-2-11c-1-13 0-13-5-16l-7-4zm-74 1-1 12v13l-1-12q0-15-2-13h-2l2 1c1 0 2 2 2 15l1 13q2 2 2-13v-15q0-4-1-1m3 5 1 15v11h1l2 1a96 96 0 0 0-3-28l-1-4zm22-4v4q0 6 4 5c1-1 0-6-2-7l-1-2zm-33 2-2 2-1 2q-8 6 3 7 4 0 3-2v-5q2-6-3-4m84 0q0 3 3 3l2 2 1 1 1 2q1 4 4 2 0-5-4-5h-1a1 1 0 0 0-1-2l-2-1h-1l-1-1q0-3-1-1M2 238c-1 14 0 25 2 25h2c1-1 3-24 2-25l-3-2-3-2zm381 8v14l2 3v-20l-1-9zm-342-8q-4 4-1 6l3-1h4q2-1-1-4t-5-1m359 3 2 1 1 1 2 2 2 2h-2l-3-2q-2-1-2-3l-1 24 1 2 2 1 1 1h1c1-2 0-12-2-13q-4-3 1-1 3-1 2 8v8l4 2 5 2-1-7q0-7-2-7l-2-2h2q3 3 2-4l-2-6-2-2 2 1 3 1 1 13 1 13 1-11c0-12 0-13 5-12l3-1q-2-3-4 0h-1l-1-1-1 1q1 2-2-1l-5-4-1-1h-1l-1-1-2-1h-1l-1-1h-1l-1-2zm-388 4-3 20c-1 1 6 5 7 4l1-24q-5-6-5 0m438 6-1 6c-1 0-1 6 1 9l2 1 2 2v-3l-1-4-1-1-1 3v-5q0 2 0 0v-2h1c1 0 0-9-2-11zm-24-4h-5l3 1 2 3q3 5 4 1l-1-2-1-1q2-3 3 3 0 5 1 2t1 1l-1 2v1h3v1l-1 2h-2l1 2q2 0 2 12l-1 10v-5l-1-5v-1a11 11 0 0 0-5-15c-1-2-1-2-1 10q0 17 4 15l2 1c4 2 5 2 4-10l-1-13v-3l1-5v-3h-2l-2-2v-1l-1 1h-3zm-60 15 1 3-1 1h-1q-1-4-3-1-2 2 7 4l7 1 1-3v-4l-1 3v4l-1-3-1-3-2-1v2q0 4-1 2zl-3-2zm12 5q0 7 2 6h3v2q2 3-1 2h-2q-2-2-2 7v9-10l-1-9-1 15c0 13 0 14 1 13q1-2 1 1l-1 3q3 0 3-9l1-7v-5l-1-7q3-2 3 16v13l-2-1q-3 0 0 1l3 2h1l-1-31v-11l-4-3-2-3zm-330 2c-2 18-2 18 0 20q4 3 4-7l1-11q1-3-2-4l-3-2zm402 1c-1 2 0 23 1 24h1l1 1q2 3 2-4l1-6v6q0 6 2 6l1 1v-9l-2-10q-2-3 1-4h2l-2-1h-1v-1h-3q-4 2-4-2zm-51 3q-1 8 1 8l2 1h1l1 1h1l1 1h1l1 1h1c1-1 0-9-2-11l-6-1-1-1q-1-2-1 1m-27 15 1 16v-32zm54 2q0 7 7 6 3 0 2-2v-1a2 2 0 0 1 0 5q3 2 2-4l-1-4q-5 0-5-3l-1 1-1 2-1 1-1-1v-3q-1-1-1 3m56 7c1 12 0 11 8 13l12 4-1-4-1-3-1 3-1 1-1-3q0-3-1-1-2 5-3-10-3-13 5-6l4 2-4-3q-5-4-11-4h-6zm-75 4c1 15 1 17 3 16l1 1 1 1v-2l-1-7-1-5-1-1 1-1h3l-1-2-2-4q-3-3-2-6l-1-4zm19 10q0 13 2 13h1l1 1 1 1 1 1c1 0 2-7 0-9v-2c4-3 1-13-3-13l-1 1h1v1l-1 7v7l-1-9-1-13zm-10-5v16l-1 4q0 3-1 0l-1-2h-4v1q-1-3 2-3l1-1h-2l-2-1-2-1-1 1h2l1 2-1 2-1-2-1-1-1 2v1l-1-3-1-2-1 1-2-1q-1-4-1 3l1 5 1 1h2l1 1h1l3 1 2-1h2l-1 2q-1 0 0 0h2l1-2v-1 3q-2 1 1 1h1l1 1 1-4q-1-12 5-4h1l-2-2q-6-2-4-15v-6zm33 10v13q0 5 1 3l1-2v2l1 1 1 1v1l1-4-2-6-1-3h1c2 1 1-8 0-9l-1-2h2a1 1 0 1 0 0-2h-1v-1h-2zm-72-7c-2 2 0 10 2 10l1 1h1l1 1q0 2 3 1v-5q-1-5-3-3-5 0-2-4h-1l-1-1q0-2-1 0m-12 4v3l-1-2-2-1-1 3v1h4q8-1 3-6-4-2-3 2m96 2h-2q-3-2-2 1l-1 11v10l1-3q1-3 1 1l1 2 1-5-1-6v-1q2 0 2 7 1 12 1 2l1-4v4l1 5v1h-3l-1-1h-1v-1l-1 3-1 5 1 1 2 1h1l2 1 1 1v-4q0-3-1-2 0 2 0 0l1-2c2-1 2-12 1-16l-2-8q-1-7-2-3m22 11 1 10q-1 3 3 3l4 1-4 1-4 1q0 2 8 2l9 1 4 2-3-2-3-2-1-1q-2 3-3-11l-1-9 4 1 7 2c0-1-10-5-16-5l-6-1zm-106-5c-2 4 0 13 2 16q4 1 4 19h1v-13l-2-7-1-3q0-5 1-3h1l-1-2a2 2 0 1 1-1-4v2l1-1-2-1-2-1zm-5 9q1 15-1 13-1-3-1 3t-2 5l-1-2-2-1-1-2-1-2q-5 1-2 4l-1 1q-3 2-5-3v7h14l3-4 1-3v7-30zm-6-5-1 4a3 3 0 0 1-3 4l-1 1-1-1h-3v1q0 2 5 2 7 0 5-2a7 7 0 0 1 1-8q-1-3-2-1M0 330q0 5 4 6 4 2 4-4 1-4-5-6l-3-1zm427 2v4l-1-2q-1-2-3 1-1 2 4 2l4 1h2q2 0 1 1l1 1q2 0 2 2v-5q0-8-1-4-1 3-3 1v-4l1-1-2 1-1 1v-2q-2 0-1 2l1 3q0 2-1-1l-2-2-1-1v-2zm-28-2c-1 2 0 29 1 30h1q-1-3 2 0t3-4v-5l-1 4v5l-1-6q0-7-2-7t-2-7 2-5l2 2h1l1-3h-7l1-3zv-1zm107 1 1 4 2 1q6-3-1-6-3 0-2 1m-97 3q-2 0-2 15l1 14h2q2 3 2-7 1-7-2-8-2-1 1-1l3 3v-1q-1-12-3-13h-2 2v-1a1 1 0 0 1-1-2zm40 5 2 6 1 1 1-1h1l1 1 1-4-1-3v-2l-1 2-1 1h-2v-4q-3-2-2 3m-297 3-2 5-5 7-5 7c-3 0-8 5-6 7l1-1 1-1 1 1 1 1 1 1-2 1-1 1 1 1 1 1 1 3 1 4-1 2-1 1c1 1 6 2 7 1l-2-1-3-3q0-3 2-4v1h1l-1-2q-3-1-1-4v-4l1 1 1 2 1-2 4-8c1 1 6-7 6-9v-3l-2 3-4 6-4 5q-2 4-3 1l8-12c1 1 6-11 6-13q-1-2-3 4m226 3c-1 10-1 10 1 9l1 1v1c2 0 1-11-1-15q-1-4-1 4m38 4-1 5-1 5-1 6q4 3 5-9 0-4 2-3 4 0 3-3-1-4-4-2l1 1 1 1a2 2 0 1 1-4-1v-4zm12 7v12h1l2-1c2 0 2 0 2-10l-1-11q-5-3-4 10m8-7v5l-1 8-2 7q-2 1 1 1a1 1 0 1 1 2 2l-1 1h-1l-1-1h-1l-3 1-1 1v1q3-3 2 0v1h1q-1 3-9 3-4 0-3 1l7 1h9l1 1h1v-26zm15-1v10l-1 13q-2 5 4 3l1 1 2 1 2 1a16 16 0 0 0 0-13l1-4q0-6-2-6l-1 9q-1 21-3 4l-2-6c0-4 3 1 3 5v-5a16 16 0 0 1 2-12l-2 1q-3 3-4-1zm31 10q0 4 2 2a8 8 0 0 1 10-2q-1-4 6 0l4 1v-1q-3-3-14-4h-8zm-111 4q-1 5-2 3l-2-1-7 1q-10 2 6 2h9v-8l-1 3v4l-2-4-1-3zm12-1q-1-3-3 2-3 6 1 5h1q-2 1 1 1 2 1 2-6 0-8-1-3m-231 0-3 5c-3 3-5 9-4 9a22 22 0 0 0 7-14m245 6 1 5 1 1h1l3 1h2l2 1h2l2 1h4l-1-7h-1 1v1q-3 1-2-2l-1-1-1 3v3l-1-3v-6q-6-2-4 1v1l-4-2 1-1q-5-4-5 4m53 13v4q-2 1 1 1l2 1h2l2 1h2l2 1h2l2 1 1 1-1-5-2-5-1-1h-2l-1-1-1 4v4l-1-4q-1-6-3-1v3-3l1-3v-1q-5-3-5 3m-52 9 1 13-1-12-1-11v11l2 16a3 3 0 0 0 6 1q-2 1-3-8v1q0 6-2 5l-1-14v-14zm10-11v16q0 16-2 16h6l2 1q7-2 4-11v-3l1-4q-1-8-3-2v-3l-1-6-1 14-1 13-3-2c-3-2-2-15 1-13l1-1-2-2-1-3v-6l1-3q2-2-2-1m21 10v3q-2-1-2 9v11l-1-11v-10l-1 10c0 10-1 10-2 10q-3-2-6 1-4 3-9 1l-6-1q-4-1-3 4 0 5-2 5l2 1 3 1q-2 1 1 1h2a5 5 0 0 1 7-1l2 1 4-1v-2q-2-8 4-8h9l4 1v-6q0-9-4-6h1l1 3q0 3-2 3-2 1-2-5t3-5 3-4-3-5-3-2zm7-3h-3q4 0 4 13v12q-3 4 0 4c2 0 2-1 1-17 0-7-2-15-2-12m-292 3q-1 9 1 11l1-4v-5l1-1c1 1-1 13-2 16q-3 5 2 5 6 0 2 2-2 0-2 2v1h-1 5l1 3q0 3-1 1t-1 2l-2 5h-1l-3-1q-2 0-2 2l1 2v-2l1-1 1 2-2 2-1 1h2l1 1h2l-2 1q-3-1-1 2 2 2-1 2l-2 1 2 1h2l-2 1h13l7-1q2-1-3-1t-5-2l4-1q6 0 4-4l-1-6 1-16c1-13 3-18 3-6v4q0-2 2-2v-4q0-6 3 0h-1v7l-1 1 1 1 1-3v-3l1-11-1 1h-4l-3-2-2-2v5q-1-3-4-4l-2-2-2-1-6-1q-5-2-4 1m308 1c-1 1-1 26 1 27q4 1 2-2c-2-3-3-11-1-12l1-4v-3l-1 3-1 4v-5l1-5h1l1 4v5l1-1 1-3-1-3q0-4 2-3 2 0 0 0l-1-1v-1l-1 1-3 1q-2 0-1-1 1-3-1-1m-302 5v5l-1 3-1 3q2 5 3 2 0-3 1 0l1 3v-3l1-2 1 1 1 2h1v-2l1-1 1 2 1 2 1-2v-7l-1-5-1 4q0 5-2 5l-1-6v-5l-1 4q0 7-4 7-2 0-1-2zm314 1a39 39 0 0 0 3 22l-1-18-1-5q-1-3-1 1m-284 2-2 1q-5-3-4 1v8q0 6-2 5l-1 3 1 3-1 6q-1 2-1-1c1-6-2-15-3-9l-1 1-1 1 2 1q3-1 3 8a3 3 0 1 0 5-1l1-2v-5a2 2 0 1 1 3 1l4-12q0-5 2-2 0 2 2-1v-3l-1-1-1-1-3-1h1q-3-3-3 0M0 433l1 16zm380-24-1 3-1 4v2l-2 1q-2 0-2 2-1 5 3 2h2l1 1 1-2-3-1h-2l2-2 3-2 2-1v-6l-2-2zm-16 4-3 1-3-1-3 1h-1l8 1 7 2v-1q-3-8-5-3m60 3v3l2 1h1l-2 1c-5 1 1 3 7 2q9-2 7-5 1-3-8-3zm27 4 1 2v3q-3 3 2 1 4 0 3-2 0-2 2-2v-1l-2-2q-7-2-6 1m-96 5 1 2v2h-3l-13-1-1 1q-3 0-1-1h-1l-2 1v1h9l6 1 11 1 3-1v-4l-2-1-3-1q-3 0-1-1l-1-1zm22 4q-3 5 9 6l13 1q5 1-5-3l-11-5c0-1-6-1-6 1m-248 5-3 1h-4l-5 1q-5 0-2 2 6 1 8-1l2-1h1l-2 1h2l4-1c2 1 8 0 8-1l-5-1zm93 0q-3 3-1 4v4l1 3v3l-1 1-1 3v2h2l1 2 1 4-2-2q0-3-2-3-3-1 0 3l-1 1-1-3-1-3-1 3c0 5-1 5 21 5h18v-3l1-3 1 1c0 1 5 1 6-1l-5-1-8-1h-1l-1 2-1-2-2-1-2 1h-2q-3-2-1-9 2-9 1-10l-1 1q-1 3-6 2l-3 1h-1l-4-3-1-1zm-146 6 1 2v5l-1 2 1 2v-1l1-2q2-2 2 1 1 6 3 3l-1-3-1-2-2-1-1-3q0-5-2-5zm143 0h-5q-2 3-3 1l-2-1-1 2v1q-2-2-3 1a6 6 0 0 0 10-1l1-2v1q-1 4 3 4v-5l1-3q-1-2-1 1m-50 8a1 1 0 0 0 0 3v1l1 3 1 2 2-3 1-1h2l2-2h5l2 1q2 0 2 2l1 2 2-2-2-2 1-2c0-3-11-3-14-1h-1q-2-4-5-1m21 8q1 13 4 3 1-7 4-3v-1l-1-2-1-1 1-1 1-1q0-2-6-2-2-1-2 8m45-4-2 2h-1q0 2-4 3l-1-1q0-2-2 1-2 1 1 1l2 1h5q7-1 5-5l-1-3v-1zm-56 1 3 4 2 2-2 1c-3 1-2 5 0 4l1 1h1l2-2 1-1 1-1q2-4-1-3l-1 1v1l-1-1-1-2a1 1 0 0 0 0-3l-4-1zm-35 50 15 1q18 1 10-1zM0 602c0 44 1 62 1 40z" mask="url(#16282281824-posters-1744929529306-radial-mask)" itemprop="regular" fill-opacity="0.90" fill-rule="evenodd" stroke="none" fill="url(#16282281824-posters-1744929529306-horizontal-regular)"></path><!----><path id="16282281824-posters-1744929529306-medium" d="m355 53-2 7-1 5c-5 5-2 12 4 9l3-4h6l1-2h1l1 2h2l1 1q0 3 3-1l-2-4q-4-5 0-2h2c1-1-7-4-11-4h-4l2-2 1-2 2-1q5 0 6 4l1-1q1-6-8-7l-4-1q-1-3-4 3m-2 30q-1 3-3 1l-2-1-1 1q1 4-2 3h-1v1q-2 0-2 3l-4 6q-3 2-4 6-2 4-3 2l-1-1q-2 3 1 3c3-1 3 5 0 9q-5 6-2 4l-1 2c-5 4-4 14 2 20l4 5q0 2 2-1l1 4v7-3l-1-2-1-1v-2l-1 4a12 12 0 0 1-3 11q2 0 2 2 0 3-1 1t-1 2l-2 4-1-9-1-10v10l-1 9 2 1q6 1-1 3l-3 1h7l-1 6-1 6-1 3q1 3-2 3h-2l-2 14v15l2 1a8 8 0 0 1 0 8v2l-2-2-1-1v1l-1 2q-3 0-2 10l-1 5-1 1v1q2-4 2 3-1 7 6 7v11q-2 1-3-5l-1-4-1 2v4l-2 13v15l1 1v-2l1-1 2 1-1 1-1 2 2 1q5 0 1 2v1q3 0 0 2-2 0-2 2v1l-1 1h-1l-1 3 1 4-1-4q-2-10-2 9l-1 14-1 2 1 1h2v-2l1-1 1 1 1 1 2 2q1 5-3 2c-2-2-3 5-2 7l-1 3-1-1-1 2 1 2v5q0 8-3 5v3l-1 4-2 4q-1 10-2 8l-1-3-1-3v3q0 3-2 3c-2 0-4-9-2-11v-7q1-4-2-4l-1-1 2-1 2-3h-1q-2 2-2-3l-1-4-1-1q0-3-3-3-4-2-3 1v3q-4 1-3-3 0-3-3-1l-1 1-7-1-6 1h-5q-7-1-7 4c0 1 5 2 7 0l2 1h1l2-1 9-1 8 1-2 1h-2l-3-1-2 1 2 1h1v2h-2a4 4 0 0 0-7-1h-5q-7 0-6 2v1h-2v-3l-1 3q-1 3 6 2l6 1h-4q-5 0-3 1l2 2 1 1h-4q0 2 0 0c1-3-4-4-5-2l-1 1h-4l-3 1-3-1q-2 0-2 2-1 3 5 2l8-1 1-1h2l1-2v2q-1 2 4 2 4 0 5-2 1-3 1-1t2 2l2 1-3 1-3 1-1 1-1 2 1 2 1 1-2 1q-5-3-4 2l1 2-1-2q-1-3-3-1l-1 1 1-1h-11v4l-1-2q0-2-3-2l-3 1h-3q-3 0-3 2h-1q-2-2-2 1-2 1 1 1l5 1h2v-1a1 1 0 1 1 0-2l2 1 1-1 1-2v4l1-2 1-2v2q2 4 5 1 2-4 3-1l-2 1q0 2 2 2 3 0 2-2h1l3 1 1 1-5 1-5 1-2 1-2 1h-1q0-2 2-2 4 1 1-2l-3 1-6 1q-7-2-9 2h-7l1 2h3l1 1q-1 0 0 0h2l1-2 1-1h2l-1 2q-2 1 1 1h3l2-1q2-2 2 4 0 9-2 2l-2-3h-4q-4 0-2 2c0 1-2 5-3 4l1-2q2-4-2-4l-1-1-2-1h-2l-3-1v1l-1-1-2 2-2 2 1-2v-6l-1 2v1l-1 2-1-2-1 1-2-1-2-2h-4l-4-2q-5-2-6 1h3l3 1h2l1 2-2 2-3 1q-3 1-5-1l-2-1q-2 0-2 2l-3-1q-12-5-12-3l1 1 2 1q2 2-1 2l-2 1h-2l1 1 2 2 3 1 5 1 3 1 2 1 3 1q2-1 1 6 0 5-2 3h-2l-1-1q-2-6-5 3l-1 4-2 4q-1 4-1 1t-2 2l-2 5v3l-2-1h-1q2 3-1 2-3-3 1 2l2 2-3-1-2 1h2l1 1 2 4 1 6 1 3c1-2 17-2 21-1l1 2 1 4q1 4-3 1-3-2-4 7l-3 1-5 1-3 1-1-1v-1l-1-1-2-2-1-1-1-1v-1l1-3q0-2-2-2a6 6 0 0 0 2 10v2h-3v2l-1 1-3-1h-1l1-3 2-5-1-2-1-6v-8l1-2v-3l-2-4-1-3v-1l-2-1-3 1 1 1 1 5v7q0 4-1 2t-1 2l1 2v1l1 2-1 2h-2q-1-2-1 1v2l-1-2q0-4-2-3h-1q2-4-2-3h-1v-1l-1-2q0-3 1-1l3 2 3 1q2 2 2-1l2-5-1-1c-2 1-22 0-20-1v-9q0-7 2-6l3 1 1-1 2-4q0-3-2-1h-3l-2-1 2 3 2 2h-3q-2 1-2-6 1-9-1-3v6l-1 7q-2 3-2 1l-1-2v3a2 2 0 0 0 3 3l-1 1-1 2-1 1-2 1-3 1q-3 0-1-2h-3l-3 3-18-4h-3q1 2-2 1l-3-1v1h-2l-5-1q-3 0-1-2l2-5 1-2v3q0 7 3 1 3-7 2-1 0 6 2 2 0-3 2-1l1-2-1-4v-2l2-1h1l2 1-1 1q-2 0-2 5 0 8 2 2 1-5 3-6h2-2l-1 5 1 4 2-4 1-3 1 1a1 1 0 1 0 2-1l-2-1-1-1-2-1v-1h4l1-1 1 6q0 6 2 5h2q0 3 2-2l2-2v-1q0-2-2 1h-3v-1q2-1 1-4l-2 1v-1l-1-3q-4-2 1-5l-2-1h-4c-1-3-6-2-5 1l-1 1-2-2-1-2-1-1h12q1-4 5 2v4q-5 2-1 3h3l1 1h3l-2 2v2l3-4 1-3q3-4 4 1l1 2 1-2 1-2-1-1q-6 0-5-3 0-3 2-1h4q-2 2 1 2 5 1 4-2v-1l2-1-3-1-4-2v-2l1 1q2 0 3-5 0-2 2-2t2-3l-1-2-1 2v2l-1-4-1-5a1 1 0 1 1 2-1l1 2c2 0 1-5-1-6l-1 1c-2-2-4-8-2-9l1-1h-1l-1-1-2-2-1-1h-1l-1-1-1-1h-1v-1l-5-4-6-3-2-1 1-1h1l-1-1-2-3-2-2v2l1 3q-2 1-3-1l-1-1-1-1-4-4-3-2-4-3v-1q0-2 3 1a5 5 0 0 0 8 0l1 2a1 1 0 0 0 2 0q1-2 5 1h-1l1 1 4 3 1-1-1-2h-2l1-1-10-4-7-2 1-2 1-6-2-2v2l-1 3q-1 6-5 4c-1-1 0-6 1-6v-1q-2-3 1-5v-1l-2 1-4 1q-8 3-4 5h2l1-1q2 1 1 3l-1 2-2 2-2-4-2-5 1-2-1 2-2 2v-1l-1-1-4-2-1 1-1 1v1h-2v1l-1 1q-2 0-2 2l-1 2v-2l1-3v-1l-1-2q0-2-2-2l-2-1q0-1 0 0l-1 2-2-4h2l2-18-1-2h-1l-1-1h-3l-7-2h-4l-1 10-2 11q-3 2-3-3 3-5-9-4-5-1-13 4-12 6-8 2v-3l1-1 1 2h3a3 3 0 0 0 3-4l1 2 4-2 7-1q3 0 3-4v-5l-1-5 1-8-1-6-1-2q6 3 4-1l-1-3h2l1-5 2-10-1-4-1-3q0-3-2-3l-1-1q-1-3-12-5l-5-1-1 3-1 7c-3 20-3 19 2 20h6v4l-6 1-5 1-1 3-1 11-2 11 2 1v1h-4c-3 0-3 7 0 8l1 2q2 3 9 5l1 2-2 2-2 2-1 4q0 2 2 2 5 2-5 3-7 0-6 2 0 3 1 1 3-4 6-1l3 2 2 1-2 1q-3 0-3 2-4 3-6 1H8q-3 3 6 4l5 1q-1 3-3 3l-1 1-2 1-3-1-2-1-1 1-1 2q-1 2 3 2l2-1h2q3 2 4-1l1 3v5l-8-1c-8 0-8-1-8-2v-1l-1 5q0 4 1 2v-2l1-1q2 0 2 3-1 4 7 4l6 1v2l-1 2-1 2-7-1-5 1-2 10-1 38v30h14l-1-1q-6-1 0-9 3-4 5-4l1-1c-1-2 10-12 12-11q2 2-1 3l-1 1-1 4v3l1-1 1-1 2-1q2-4 3 0v5l-1 2-1-1q1-3-3 3l-2 3 2-1h3l-2 2-4 3q-6 1 2 2h4c-2-2 13-1 24 1q4 2 1 3c-3 1-5 11-2 11v2l-3 2q-4 1 5 3h3q-6-2 0-8l3-5q2-6 3 1 2 5 2-2l1-4q2 0 2 2l1 2 2 1 1 2v-5l1-7-1-2 1-2q5-4 5 1l-1 1q-1-2-1 1l1 4c0 1 0 2 13 2l46 2h20l7 1 4 1h12l9 1h4c1-2 11-2 13-1v2h5q6 0 4 1l4 1h9l13 2 27 3 24 3h37l17-1c15 0 16-1 16-2q0-4 2-1h2q2 0 1 4a1 1 0 1 0 2 1l2-1 2-1 2-1h29l1-1v1c-1 1 3 1 28 3q30 1 9 1h-14l12 2 15 2 3 1q-1 2 9 2h15l6 1v-6l1-5 2 4 3 9 2 6h-14q-8 0 1 3l11 2 5 1h-4l-8 1-3 1 4 1 2 1-8-1h-16c-11 1-61-4-67-6-3-2-63 0-80 2l-34 1-15-1-153 7-43 2-9 1-29 2-16 1-15 1H1v68h2q3 0 2-2-2-1 2-1l3 1-3 2-5 1-1 47v46l255-1 256-1v-81c0-80 0-80-1-79l-13 2-13 1-19 3q-19 1-16 3l-2 1h-5l-47 4-12 1-6 1-19 2-7 1-11 1-12 2-8 1h-16l-6-2q-7-1-9 3 0 2-3 2l-2 1v1l-1-2c0-2-3-2-20 1q-25 4-21 1l9-1 9-1 8-1q15-3 14-4l1-1 4-1 5-1 15-1 105-10 35-3 26-1 28-3 7-1-1-1-3-1-3-1-2-1 7 1c4 3 5 2 5-18 0-18-1-20-2-20l-2-4q0-4 1-3l1 3 1 1c1-2 2-63 1-81v-15q1-2-1-3l-1 1-2-1h-2q-1 4-8 1-4 0-4-7v-5l-5-1h-5v5q0 6 3 6l-1 1 4 1q10-1 9 3l-1 1-1-1v-1l-1 1-2 1q-3 0-3 2l-1 1-1 1v1l-1 1h-3q-2 0-2 2v1q-1-2-1 1a1 1 0 1 1-2 1q-1-3-3 1l-1 2v-4l-1 1-2 6q-2 1-2-2 0-4-2-3-2-2-2 7l2 10v2a2 2 0 0 1-4 3l-1-3-1-6-1-3v-10l1-3-3 1q-3 0-1 2c2 2 2 8 0 9q-2 0-2 5v4-4q0-4 2-4 4 3 1 5l-1 2 1 2 1 1v4l-1 1v1q-2 0-2 3l-3 3h-2l2 1q2 1-1 1l-3-1-3-1-3-1 1-2 1-3 1-3v1q-1 3 3-1l-1-2-1-1 1-2 1-1-1-1q-2 0-2-10v-11 25h-3q-2 1-2-6l1-6v-2c-2-2-2-8 0-9v-1q-3-1 1-1h3l2 8 1 9v-9c0-9 0-9 2-9v1q-2 1 1 1l4-1 1 1v1l3-2q2-1-2-1h-7l-3-1-4-1h-5q-2-1 1-1l1-1-1-1-1-4q-1-4 3-3l3 1 1 2 1-1v-3l-4-1q-6 0-4-1v-1c-2 1-2-10-1-18q0-6 3-5h1q-2-1 1-1 3-1 4 5l1 5v-6l1-6-1-1v-1l-1 1-1 1-4-2-3-1v-3q0-6 3-1 1 2 1-1l-1-2-4-2v-1l5 1 2 1h2q3-4-1-3h-4q-2 3-2-5l1-7v-1c-2 0-2-8 0-9l-1-1q-2-1 1-1l3 2q1 3 1 1v-3l1 1q1 2 1-1l1-2v1h1l1 1h1l1 1v1l1 2v1l2-3c2-2-8-7-14-6q-7 2-3-3 4-6 4-1v1l1-2 1-2-1-1h-2l3-1q3 0 3-4 0-3-1-1l-3 3-3 1v-19l1-4q2-1-1-1l-3 2q0 2 0 0t2-2l2-1 1-1q2 0 2 11v10l1-10 1-10v15l1-8q2-10-5-9a4 4 0 0 1-2-7v-2c-1-1 3-3 4-2v1h-1 2q5-2 5 2l2 1v-2l-1-9v-6l-2 1v2l2 6v5l-3-2h-10l2-7 1-5h-1q-3-1 0-4v-2l1-3 1-3 2-1h1l1-1 1 2h1l1 1 1 1q3 0-1-3l-2-2-1-1-1-1-1-1h-3q-2-1 2-1h4l1 1 2 1q6 6 10 7c1 0 2 1 2 11v12h9l-4-1q-4-1-2-3l1-1 2-2 2-2h-2q-5 0-1-5l2-2h-2c-3 0-3-5 0-6l2-2-2-1-1-1 1-1q2 0 2-3 0-2-2-2l-1 1v1-6q-2-2 1-2 2 1 2-3l-2-4 1-1 1-1-2-1q-3 0-3-3l-1-3-1 4v23h1v1l-3-2-2-2q1 2-5-3l-2-2h-2q-4-2-1-2l-1-3h-1l-2 2q-2 1-2-3-1-5-5-6l1 1q2 0 2 6 0 5-2 4l-1 1v1h-1v-5l-1-4v-1l1-6v-4l-1 3-1 3v1h-2l-3-2-7-1q-9 0-8 3l1 2h5l3 1h1q2-3 7 1l3 2 1 16-1 15-4-1-3-2-6-1h-4l-1-1-3 2-4 1-3-1 1 1v2l2-1v1l1 1 1-1 1 2h1v-4l3 3q3 2 2 0l2-1q3-1 3 3 1 4-5 4-5 0-4 2 0 3 4 3 3-1 3 6 0 6-3 5l-3 1q0 2 2 1l2-1q2 0-1 2-3 0-1 2l2 3 1 1 1-4v-10l1-6-3-1q-4 0 0 0 4-1 4 4 1 5 1-1t-3-5h1q3-1 2-3v-8l1 1h2l2 1h1q5-3 5 8v9l1 3 1 1c-2 1-2 32-1 101l1 45h-4l-3-1-5-1h-7q-3-3-3 2l11 1h11v7l-1 7-2 1v1-1l4 1 6 3 4 2q-1 2 5 3l3 1-3 1q-3 1 1 1t4 2v3l-13-1-23-1h-47l-1-2-1-4v-1l1-3-1-2v-5q-1-5 4-3 3 1 3-3 1-5 2-2l-1 3 1 3v1l1 1 3 1c3 1 22 2 20 0q-2-1 1-1l3-1 1-1 2 1q2 3 12 5c2 0 7-3 6-4l2-1q2 0 2-3 0-2-2-2l-3 1q-2 0 1 1h-12l-1-1-2-2-3 1-3 1-1-1q1-4-4-1-3 1 0 1h2l-10-1q2-1-2-1l-2-1 1-3-1-3-1 2q0 3-1 1-3-3 2-4l2-1 3-1q3 0 0-1-2 0-2-3 0-4-1-1-1 2-1-2t-1-1c-2 2-1-17 1-22q1-5 1 4v8-7q1-10 4-9l1 1h2l4 1h2l1 1h2q4-1 3 3l1 3 2 3 1 2 1-2v-2l1 5 1 5h-2l-4 1 1 1 1 5q0 7 2 6l3 1 1-12v-13l-4-1h-3 4q4-1 4 3v3c2-2 0-7-2-7l-3-1h3l4 1h3q3 0 1 1v1l3-1q1-2-4-2l-2-1-4-1q-10-1-7-3l2-1a1 1 0 0 0-3 0h-11l-8-3-1-1q-3 0-1-1v-2a10 10 0 0 1 3-9l-2-1q-2 0-2-3l-1-3q-1-2-1 1 0 5-3 5l-1-8q0-9-1-6l-1 1 1-3 1-6 1-4h2q2 1 1 3l-1 2h1l1 1 1-1q0-11 2-3l1 5-1-6q0-7 2-6l1 2h1l2 1h1q4-1 4 2h2l1 1 5-1-1-1h-2v-1a28 28 0 0 1-15-5h-1l-1-2v-3l1-4q0-2 2-2h1l-2-2-2-1q-4 0-3-16v-11l2 9 1 8v-9l1-10 1-3h-2q0-1 0 0l-2 1h-3a2 2 0 0 1-4 0l1-1-1-6 2 2 1-1v-1l2 1v2l1 1 1-2h1q3 3 3-3v-3l3 1 4 1-1-8q1-9-2-8l-2-1 2 2c2 2 3 14 1 14q-4-1-5-4v-2q0-2-1 1-1 2-1-6v-7l-1 7q0 8-2 9h-1q0-1 0 0-4 4-4-5v-6l1 5 1 3 1-11-1-7v-5l2 1v-1q0-3 4-2v2l1 2 1-3 1-3 1 2h1l1 2 1 1 1 1h1c3-1-5-7-9-7q-2 0-2-3 2-6 2-1l1 2 1-3v-6h2l1 2h1l1 1h1a13 13 0 0 1 10 7l1-2-7-5-9-6h-4v-5h2l1-11v-12l-1-4q-1-5 2-2l1 1h1l3 2v1l1 1h1l3 2 1 1 1 1 3 2 3 2q0 3 3 3h3l-3-1c-3-1-4-6-1-7q1-2-2-2l-5-3 1-1-3-1h-2l1-1h-2l-2-1 1-1-1-1c-2 1-7-3-6-4h-1q-2 1-2-2 0-6-5-7-2-1 1 2 5 5 2 10l-1-1-1-1q-3 0-1 2l-2 2h-2l-2-1h-1l-2-3-2-1 2 2q2 3 0 3l-1 1 3 1c1 0 2 0 2 14v15l-2-3-4-3h-3q-4-1-3-4l-1-3v2q0 3-2 3-3 0-1-2l1-8v-6l-5-1q-7 0-6-4 0-4-1 2l1 8q1 2 1-1 0-2 2-2l4-1q3-1 3 6 2 10-9 7h-4v-24q-1-4 5-4l9-2v-1h-8c1-1 0-6-1-7q-2-1 1-1l5-1 4 1-1 1h3q1-3 1-1 1 4 1 1l1-2 1 1h1v1l1 1 3 2 2 2v-5l-1-1-1-1q-6-1-8-3l-2-1h-7c-7 1-7 0-8-14l1-12q2 0 2 3l2 1 4-1 4-1 2 1h1q1-4-9-3-10 0 2-2 7 0 5 1t1 1c1 0 2 0 2 12v13-14l2-14c1-2-5-3-8-2l-2-2h2l3-1 5-1 4 1v1l2 2q3 1 0-2l-3-4 3 1 2 2h1c2-1 2 6 1 9v4q0 4 4 4l3 2 1 1h1l3 2 2 3q0 2 3 2l2 2h-1l4 2 1 1 1 1 1 1 1 1 4 2 1 1 1-1 2 1 1 2 1 2 1 1h2l2 2 2 2 2 2 3 2 2 2 2 2 4 3 3 2 2 1 1 2 1-1v2q-1 3 3 5l2-2q1-3 3-1l2 1v-2q-1-2 5-3 3 1-12-13c-12-10-12-10-12-8l1 1 4 3 5 4 2 3 3 2 2 1 2 2q4 5 1 3l-3-1h-1l-6-7-9-7-24-21-25-22-1-1q0-3 3 1 2 3 6 5l9 8 8 5-1 1q1 2 3 1 0-2-7-7l-9-8-7-5q-2-1-2-6 0-7-10-12l-4-3 3 1 3 1 5 3 4 3-1-2-1-1-1-2-2-2-3-1-3-2-5-2q-5-1-5-3a1 1 0 1 0-2 0l-7 1-11-1q-3 0-1 1v2l-1-1-2-1-1-1 1-1 2-1 1-2 2 1 1 2 5 1h5l-3-1q-4 0-2-1h11v-1q0-3-9-5h5q9 0 8 2v3l1-2q0-6 2 1l1 4v-3q0-4 1-2h2l1 1v3l1 2v1l1 1 1-2 1-1q2 1-1-3l-1-2-1-1v-1l-1-1-1-1-4-1-3-2-1-1-2-1-3-2h1l1 1 3 1q4-1 1-3l-4-1-3-2-1 3h-1q0-2-5-2l-6 1-1-1-1-3q1-4-2 0m40 56 3 2q3 1 4 4l3 2 17 15 5 4q6 3 5 4l4 3q4 1 1 2h1l2 1v1l6 5q16 16 13 9l-1-1-4-3h-1l1-1-5-4-15-12-3-4-3-2-13-11-10-7q-4-5-6-5l-2-2-2-2zm-32 18q0 9 5 6l-2-1q-2 1-2-2l1-5q0-2 3-2l3 1 2 4q3 11 2 0c-2-8-2-7-8-8h-5zm11 23q0 2-7 2l-6 1q0 2 2 1l2 2q0 3 0 0-1-4 5-3 4 1 4 5 0 5 0 0l-1-5v-1l3 7 1 7-1-8q-1-12-2-8m4 0c-1 1 1 30 2 32l1-2q0-4-1-1l-1-14 1-16zm20 18-1 3-1 3v3q2 3-1 2l-1 7-1 10q-2 3 1 0l2-8 1-6 1 1v2l1-9zm96 2h-1c-2-1-1 9 1 11l1 3-1 2c-2-2-1 10 1 12a2 2 0 0 1-1 4l-1-1v3l1 6 1 4 1 2 1 3v-4h2v-2l-3-2q-3-3 0-2v-1l-1-2 1 1h1l2 1 1-1-2-2-2-1v-4l1-2-1-1-1-3 2-2 2-1v-1l-3-1q-3 1-2-3l3-5h-2l-1-2q1-6 5-5l2-1-1-1-3 1q-6 2-3-3m-8 2-2 1v3q-2 0-2 3-1 3-1-1 0-5-1-3c-2 2-3 12-1 12l1-1 5-3q6-2 5-7 0-6-4-4M6 208l5 5 1 3v4q0 2 2-1 1-3 1-1l-1 4q-2 2 1 2t1-2q-4-5 8 4l8 6v6l1-2q1-3 1-1l2 1q4-1-2-5l-3-2h3l-1-2-3-1-4-3h-1l-2-2-2-2-2-2-3-2-7-5zm456 0-6 2-1 6v5l3-2q4 0 4-7zm-99 6-2 4q0 3-1 1l-2-1-2-1-1 2-1 3h6q8 0 7-3l2 3 1 1h4l1-4q-2-8-2-1h-2q-3-3 0-3h1c0-1-8-2-9-1m13 4q-1 8-7 8h-1q4 0 1 2l-2 1h2q2 0 2 2v1q1-2-6-2l-7-1-1 13v13l-1-13-1-13v27h5q7 0 2-1h-4v-10h6q8-1 5-3-2 0 1-1c1 0 2 0 2 8q0 9-2 7l-2 1h5l2 1h2l2 1 4 3 3 2-2 2-2 1 1-2q0-3-4-4l-1 4v5l-1-4-1-4h-2q-4-3-3 4v1l-1-2v-3h1-11v5q-1-3-6-4v3q0 3-3 3l7 1 12 1a4 4 0 0 0 5-2l1 2q-2 0-2 2h-1q-1-3-1 5 0 9-1 1v-5h-11l2 1q10-1 8 4v1q0-4-3-3l-3 1-3 2-2 2h1l1 1-2 1q-2 0-2 3v-10q-1-1-1 8v9l-1-9-1-8v27l7-1a8 8 0 0 1 8 2c6 0 6 0 6-15v-13 27q-2 2 1 2l6 2 4 2v-52q1-32-3-23-2 5-3 0l1-3v1l2-1c4-4 3-13-2-13v1l1-3-2-1h-1l-1-1h-2zm43-3-1 1-1 1h11l1 1q-1 0 0 0l1 1q-2 1 1 1l1-2 1-1q2 0 0 0l-5-1-4-1h-3q-1 1 0 0l-1-1zm66 2-4 2 1 2v1l-1 4q0 4 2 3 7 0 6-7c-1-7 0-6-4-5M0 220q-1 3 7 8l6 3 1-2v-1l-2-2-2-1-2-1H7v2q1 3-2-1l-1-1 1-2v-1l-4-3q-1-1-1 2m418 0 3 2q2-1 2 4l-1 4q-3-2-4 1 0 2 2 1 2-3 3 3l1 6v-22h-4q-3 0-2 1m64 14q-5 0-5 8l1 4 1-5q2-10 3-1-1 5 3 4 3 0 3-2v-1q2 5 2-3-2-7-8-4M2 241q-1 17 1 19 2 1 2-2l1-3v-3l1-3v-6q1-1-2-4l-3-2zm30 1v2c-1 1-1 0 18 14l13 8-1-2-2-1-2-2q-2-3 1-1l1 1-5-3q-2-1 0 0v1l-2-2-2-2-2-1-2-2 1 2 1 1-1-1a9 9 0 0 0-7-6q-4-4-3 0 1 3-2-1l-1-1-1-2q-2-5-2-2m248 1-5 2h-2q-1-1-3 2h3l4-1h3l2-2h1l1-1h1l1-1q2-2-6 1M11 254l1 11q4 1 4-5l1-4q3-6-2-10l-3-2zm277-7-7 3h-1l-2 1-2 1h-1l-1 1q-1 3 6-1l6-1 1-2h1q2 1 2-2zm195 3q-4 1-3 6l-1 5q-1-1-3 6-1 5 1 0h1c1 1 3-7 3-11a2 2 0 0 1 2-3l-1 5v4l3-1 4-1v-4q0-4-2-4h-2l2-1 2-1-1-1zm-417 4a1 1 0 0 0 1 2v1l12 10 7 5-1-1-4-3-5-5h-1l-1-1-2-3q-3-4-1 0v2q-2 0-3-3l-1-3zm-18 17-1 9 1 6 1 2v2l1-9 1-8-1-4q-2-2-2 2m234-1-2-1-6 1-5 2h-2l-1 1q0 2 2 2l7-3h2l2-1h2q3 1 2-3-1-2-1 1m180 1q0 3 2 3l-1 2-2 6q0 6 1 2l1-5v-2l2 2 5 2 4 1-3-3-5-3q-3-2 8-2 4 0 3-2h2q-3-3-12-4h-5zm-84 2v6l1 5v-9h1l1 1 1 2v3h-1v13h2l-1-2v-1l1-6 1-9-2-2-2-2zm-323 6-1 13-1 7q6 0 11 3 6 6 6-7l1-13c0-2-4-7-6-7v-1l-1 2h-1q-2-2-5-2l-3-1zm225-3-6 2-1 1h-1l-1 1h-2q0 3 7 0l3-1 3-1 4-1h1l2-2q1-2-9 1m2 6-2 2h-1l-1 1h-1q-2-3-2 0h-2l-1 1h16v3h-1q-1-2-1 1 1 3 3-1l1-5q0-5-8-2m117 1c1 2 9 6 8 5q-1-3 4 0l2 2-2-1q-3 0-1 1h2c2-1 3 0 3 12v10l1-6q0-6 2-5l3 1 1 1 1 3v1l-1 1 1 2-2 1-2 1 1 1q3-1 3 7l1 4v-25l2 10 1 10-1-11v-10h-7a9 9 0 0 1 10 1h2l1 1h1-3v1l4 1q5 0 0-4l-2-1h-1l-2-1-11-1q-2 0-2-2v-1q-2 0 1-1 2-3 3 1h1q0-4-4-2c-2 1-7-1-6-2l-1-1-4-1zm22 1q-5 0-5 3l2 1h7l1 2c-1-3 3-6 4-3l2 1h2q-2-1 1 2l1-2q0-2-5-3l-5-1zM1 289l4 3q6 4-1 1l-3-1v7l1 9q-3 0 0 3l1 3H2q-1-2-1 3t3 6l1-2-1-4 1-1 1 1 1 2v2l1 2 1-1v-6l1-4-1-1-2-1H6v-1l-1-1 3 1q2 1 2-3v-4l1-3q1-3-3-6-6-6-7-4m181 1v2h-2l-2-2-1 1-1 1-2-1-2 1v1h2l2 1q0 2-3 1h-1q3 4-1 4h-2 2l2-2q0-2 4-2l5-1 2-1h1l2-1h1l-3-1-2-2q-1-2-1 1m95 1a2 2 0 0 0-4 1l-2-1-6 1q-4 0-4 2h-1l-1 1a7 7 0 0 0 8-1q-1 2 3-1h1q-1 2 3-1h1l1 1 2-2h1l1-1q0-3-3 0m-2 6-2 2-4 1-6 1h-2q-1-3-3 1h3q0 2 2 1l5-1 2-1h1l3-1h2v-1h3l1-1q1-3-5-1m209 1c-1 3 1 9 3 9q3 0 0 1-5 1 1 1a4 4 0 0 0 5-2v-9l-5-1zm-317 2q0 11 11 8l8-2 1-1h-2l-6 1-6 1q-3 1-4-5-2-5-2-2m110 4-10 2q-3 0-3 2h-2q0 3 2 2l2-1h2l4-1h2q-1 0 0 0l3-1 4-1h1q2 2 3-1l1-1-1 1 2 1 1-2v-2zm187 5q1 7 6 7h4l-4-3q-5-2-2-2 2 0-1-1t1-1l3-1 3-2h-11zm-98-1-1 1v5q-2-7-4-5l-1 4q1 5-2 0-2-5-5 1-1 4 12 3l6 1q-2 1 2 1l3 1v1l4 1 3 1v-1h1l-1 3-1 2-1-2q0-3-1-1h-1q0-3-3-2v14l1 9a13 13 0 0 0 1 10c-2-1-3 31-1 33v2l-1 1q1 2-2 2t-3-2l1-1q0-2 2-2l1-10-1-10v3q0-2-7-2-11 0-6 2l10 1-5-2h-4 10v17l-1-6q-1-10-1 7c0 14-1 14-4 16h3q8-1 4-6-2-1-2-3h6l3 1 1 1v12q-2 2-2-2-2-6-2-1l1 4v2l-1 2v1l-1 1-1 2q-3 3 3 5 6 1 2-3-2-1 1-1l1-2 2-1q2 2 2-6v-44l-1-49a4 4 0 0 0-2-6h1l-4-2q-7-3-9 0l-2-1zm-88 3-6 2h-2q-2-2-2 1h-2q-2-2-2 1h-1q-1-2-1 1l3 1 11-2v1h1l3-1 4-1q6-2 2 2l-1 1h-3q-3-2-4 1l-1 1-2-1-1 1h-1l-3-1-1 1-4 2h2l1-2v2q2 2 11 0l5-1q4 0 3-2l1-1 1-4q1-6-11-2m-96 1h-2q-4 1-4 3v1l-1-1h-6l-2 1-1 1h7c-2 1-10 2-10 0l-1-2-1 1v1l-1 1h1l1 1-2 2h1l11-1 2-1h3l-6 2-8 2h-2l-2 1h-1l-1 1h2l6-1 4-1h2l4-1h2l-1 2-4 1q-9 0-10 2h2l7-1 6-1h2l-5 2q-11 1-9 3h3l-2 1q-6 2-4 3 3 3-1 3t-4 2v2l-1 3v1l-4 4-2 4-4 6-4 6 3-3 4-6 4-5q3-7 2 1a21 21 0 0 1-7 11l-1 3q0 2 3-1l3-4 1-1v2l2 1h1c-5 2-7 10-3 14q3 3-1 1-5-2-2 2v1h-5v1c-2 1 0 6 2 5l2 1h1l1 1h2l5 1 2 1h4c5 2 11 0 9-2l-1-3v-1l-1-2-2-1v1q1 2-3-1-3-2 1-2h7q4 0 2-1v-4q1-3 1 0-1 3 3 2h9l-9-2-1-1-2-3v-1h2q1-1-8-3h19l-7-1q-7 0-7-2v-3q0-2 2-2 3-4 0-3h-1v-3q2 1 2-3t-3-4h5v2l1 2-1 1q0 2 3 2 7-1 8-3-1-2-4 1l-1-1q0-2 2-2t-1-1l-2-1h2q3 0 3-2l-1-1q-2 0 1-1 2-2 0-7v-1l-1-1q-2-1 1-1l1-3-1 1h-2l-1-2-3-2h-2 2q3 0 3-2h-5l-2-1h3l2-1 1-1h2l-1-1h-3l-1-1v-2q-2-1 1-1t3-2l-3-1a2 2 0 0 1-4-1m251 2c3 3 0 14-3 12h-6a4 4 0 0 1-6-1l-1 3 1 2 1 1 1 2 1-1q0-2 2-2 3 0 3 2v3h1v-7l1 1h7l-1-9zq-1-1 0 0m-322 2q3 3 1 3t-2 3h-1q-3 0-1 4v2l-1 5q0 8 5 8l3 1h2l3 1 4 1 3 1 4 1 2 1h2l3 1q2 1 6-5l7-9h-2l-1 1-3 5-4 6v-4q0-4 3-7l1-4-2 2-1 3v-10h1l-3-1h-2c1-2-10-5-11-4l-2-1-2-1h-1l-5-2-7-2zm278 1v5q0 3 2 3l3 1 2 2q2 0-1-3l-1-4v-1h-1l-1-1 1 3v2l-1-2-1-2 1-2q2-2-1-2zm-352 5-2 3-1 1 1 1h2l-2 1q-2 3 3 2v3l2-1h1l4 1q3 0 1-1l-1-1 1-1 4 1 2 1-1-1v-1l-1-1-1 1-2-1q0-2-3 1h-4l1-1v-1l-1-5-1-4q-2 0-2 3m332-1-5 1h-8l7 1 8 1-1 13-2 13q-1 2-1-7v-6l-3 1-4 1v1q3 2 0 3l-1 1-1 1-1 1 1 1-1 1-1-4v-5q-3-2 7-3h6v-12l-6 1-7 1q-2 1-2 13v12l-1-11v-11l-1 11c0 10-1 11-3 11l-2 1v-23l-1 9-1 12 1 3 10-1q12 0 9 1l-2 1h2l5-1 3-1 1-15c-1-16-1-16-5-17h-2zm-258 4v3q-2 5 4 5 5 1 1-2v1l-2-1-2-3h2l2 1q2-1-1-4zm141 2v4h2q1 2 3 1l3-1q4-3 0-4l-3 1h-1l-1 1-2-1zm29 5h-3q-4 1-4 4h2l1-1h2l1 1 1-1q0-2 1-1c1 2 6 0 6-2zm-126 1-2 5-4 6-5 6a9 9 0 0 1-6 7l-2 3-1 3 2-2 2-2 7-10 3-4 3-4 4-6h2q3 0 2-2-2-2-5 0m259 7 1 4q3-4 4-1l1 1v-1l1-1q3 0 2 5 0 3 2 3c2-1 1-10-1-11h1l3-1-5-1-7-1q-2-2-2 4m-127-3q1 1-14 3c-12 1-14 2-14 3h-1l-2-1-1 3q1 2 8 0h7q5 0 5-2h2l2 1h1v-1l-1-1h2l3 1q5-4 4-6zM0 342l2 5 2 2 1 3v-3q3-8-2-11l-3-1zm464 3q2 8 6 7l4-1q5 0-3-3l-3-1 5-2 1-2-3-1h-5q-2-2-2 3m-40 7-3 1q-5-1-2 3h2l1 4 1 6q3 3 2-8 1-10-1-6m-137 1v2q-1 4-2 1h-1q0 3-8 3-7 0-4 2v2l1-1q1-3 4-1h4l2-1q-1 0 0 0h4l3-6q-1-4-3-1m-36 4-4 1h-2 1v1h-3q0-1 0 0c0 2 8 2 11-1h2q2-4-5-1m120 4v1a4 4 0 1 0-9 2q-2 1-2-2l-1-2-1 2-2 2v-1q-1-2-3-2-2 5 5 6h17v-9l-1 4-1 5v-5q-1-10-2-1m43 7 1 4q1 3 1 0 1-3 1 0h6l3-1q-1-3 5 0v-1l-6-1zm-159 2-6 1q-6 0-5 2-1 3 3 3l4-1 2 1q3 2 2-3 0-2 2 1 3 2 2-2-3-4-4-2m97 6c1 7 0 21-1 25 0 1 0 2 8 2l8-1-4-1-4-1 3-1 2-1h-3q-3 0 1-1l3-1h-6l2-2q4-2 1-2l-2 1v1l-1-5v-4l4 1h1l-5-2h4l-3-2q-3 0 1-2l3-1h-3q-4 1-3-2 0-3-1 2l-1 5v-5q0-6-2-7-2-4-2 4m111 3 1 2q0 2 7 2l6-1 2-1-3-1-10-1zm2 7 1 3v1h2l3 1 1 1 1-1q-2-2 1-2 3-2 1-3v-1l-5-1q-5 0-5 2m-258 5-1 1q-4-1-4 3h2l2-1h6l-2 1-2 1 2 2v-1l2-1 2 2a1 1 0 0 0 2 0v-3 1h-2l-1-2q1-1-3-3zM0 433l1 16zm472-25 1 6q-1 3 3 4h3l-1-1-3-6-1-2-1-2v-1zm-115 0-1 3a1 1 0 1 1-2 0l-1-1-1 2-1 1q-3 1 2 2h4l16 1v-1l1-4 1-3-8-1zm-8 15q3 3-1 2l-4 1h-7l2 1h1v1h-7v-2q2-1-1-1l-13 2c-1 1 10 2 12 1l2 1 7 1 9 1 7 1 9 2h4l-1-1q-5 0-3-4t-7-5c-4-2-10-2-9-1m-127 10-1 1q-2 0-2 5h-1l-2 1-1 1 1-3 2-2h-2l-3 2-1 1-1 1q-4 0-3 3h-1q-3-1-2 2l1 2h2l4 1h2v-2l1-2h1v3h1v3l-1 7 1 3 2 1h10l11 1h8l4-1q3 0 3-3l1-3 1 3q-2 6 4 2 4-1 4-4 1-4-5-3a5 5 0 0 1-6-1q2 3-3 1h-3q-2 1-2-2l-1-6q-1-7 3 0l1 3-1-3 1-3 1-2-1-2-1 1v2l-1-1v-2l-1-1-1 2-1 1h-1v2l1 4-1 3-1 2v1l-2-1v-5l1-8 1-2v-1h-3l-2 1q-3 2-5 1l-2-1h-3q-2 0-2-2l-1-1zq0-1 0 0m-147 6-1 1 1 1v1l1 1 2 2v1l1 2 1 2 1 1v2l1 1v-8l-1-4-1-1-1-2c0-2-4-3-4-1m64 11c-1 6 0 14 1 14l1-2v-2 2q1 1 1-2l-1-3-1-1h3l1-1-1-5q0-4-1-2h-1q-1-3-2 2m340 4c12 3 15 4 24 4h10l-1-3q0-3-4-3l-25-2h-18zm-430-2v10h5l3-1v-2a5 5 0 0 0 0-6h-1l-1 1q-1-1-1 1l-1 2-1-2 1-2 1-1q-2-2-5 0m85 3-1 2h-11l-10-1-1 1-2 1 2 1 5 1 5 1q1 4 4 0l5-2 5 1 1 1 1 1c1-1-1-8-3-9zm76 9 20 2 26 1h7l-35-3zm282 15 2 5q4 9 4 0 0-4 1-3l1 3c-1 1 3 3 4 2v-1l-2-3-2-3zm-87 30-14 1-19 1-70 3c-13 0-15 1-15 3 0 1 8 1 56-2l3-1h10-5 28l-6-1q-9 0 2-1h13l3 1 5-1 7-1q12 1 9-2zm2 8-109 7-12 1-1 3q0 3 2 2l29-2 39-3 48-4c28-2 30-2 25-3-7-2-9-2-21-1M0 555l1 17zm467-14-2 1-1 1-2 1-2 1h-1l-3-1-4 1-17 2-2 1-3 1-13 1-9 2h-3l-2 1-5 1-20 2h-2l-4 1h-2l-1 1h-1l-3 1h-9l-3 1h-3l-2 1h-3l-4 1-4 1h-4l-3 1h-3l-4 1h-3l-1 1h-3l-8 2-5 1h-3l-2 1h-2l-4 1h-11l-2 8q-2 8 1 7l13-3h2l2-1h3l3-1h2l3-1h3l3-1 3-1 3-1h3v1l2-1 4-1h3l2-1h2l1-2 1 1v1l2-1-1-1-1-1 2-1h3q3-1 2 2h3q3-1 2-3-1 0 0 0l2 1 9-1 3-1 5-1 7-1q11-2 6-2l-4-1-2 1-2 1-1-1q1-3-5-1h-3l8-2 6-1h5q-2 3 4 2h3q-2 0-2 2l3-1 4-1 9-1 40-7 37-7q5 0-5-4-10-5-10-3m-16 8-16 3-24 4-14 3h-3l-4 1h-2l-2 1 1 1h2l3-1 2 1h4v-2l3-1h4l3-1c-1-1 5-2 7-1h2l5 1 1-1q-2-2 5-3l22-2 1-1 4-1 4-2q2-2-8 1m-222 3-17 3-5 1-6 1-22 2-2 1-6 1-17 2h-8l-4 1-3 1-7 2-8 2-7 1 11-1 12-1 24-4 11-1 65-11zm-119 17-2 1-14 2-7 1-3 1-3 1h-4l-5 1-8 1-2 1h-2v1h6l6-1 6-1 4-1 31-5q3 0-1-2zm184 6-2 1-6 1-5 2 4 1 3-1v-1l1-1h2l1 1q-2 0 1 1l1-1q-2-2 2-2l2 1 2 1v-3h1l-3-1zm-239 2q1 3-8 3h-2l-1 1-13 2-2 1h-5l-1 1h-1l-4 1-5 1q-3 2-1 2l17-4h4l16-5 4 1q7 0 4-4zm394 0-4 2-6 1h-2l-2 1-2 2h7l-1-1q-1 0 0 0a9 9 0 0 1 10 0l1-1-2-1-1-1 2-1 2-1zM0 637l1 23zm410-44-6 1-6 1c1 1-3 3-4 2l-1 1h3q4-3 4 0l-2 1-3 1h1q3 0 1 2l3-1q4-3 7-3l2-1h3l-1-1-1-1 1-1 1-1q1-3-2 0m-26 8q1 4-3 4l-5 1-5 1-5 1-2 1-1 2-2-1h-2v-1q-3 0-2 2l2 1h1a11 11 0 0 1-10 2l-1 2q-4 4 9-2l9-3v1l2-1 8-3 8-3 3-1q2 1 1-2h-2l-1-1zm-51 18-2 1c-3 1-12 3-14 5h-3l-2 1-3 1h-2l-3 1-3 1-1 1-6 1-1 1-4 1-2 2h2l23-8 8-2 5-2 2-1 11-3-3-1zm-63 15q-2 7 3 6l5-2 2-1v-1h5l-6-2-7-3zm156 7 1 1q3-1 3 3h-1l-2 1q0 3 2 3 1-1 1 1v2l1-1 1-1v-1l-1-3v-2h1q6 2 4-2v1l-1 1-2-1-1-1a2 2 0 0 1-3-2h-2q-1-2-1 1m55 4h2a20 20 0 0 1 9 10q5 1 3 4l1 1 1 1h1l3 1h1l-3-4-2-2-6-5 1-1h-2l-4-3q-5-4-5-2" mask="url(#16282281824-posters-1744929529306-vertical-mask)" itemprop="medium" fill-opacity="0.90" fill-rule="evenodd" stroke="none" fill="url(#16282281824-posters-1744929529306-vertical-medium)"></path><!----><path id="16282281824-posters-1744929529306-bold" d="m355 112 2 1 2 1-9 1q0-3-4 0l-2 1-1 1v2h-1l-1 1-2 1q0 3 2 1l4-1q3 0 1 1-2 2 1 3h2l1-1 3 1-2-2q-3-2 1-2l1-1 1-2 1 1h1l1 1h2q5-1 1-1l-3-1 5-1q5 0 3 1-2 2 4 3l3 1h1l1-2h1l9 3-3-3-2-1 1-1-2-1h-4l-3-1-1-1-2-1-3-1-1-1-1-1-1 1zm-24 89-1 1-2-1-1 2q-1 4-3 1 0-1 0 0l2 2q3 0 3 5l-1 3-1-1h1q0-2-3-2-2 0-2 2l1 1q3-1 4 3h-2a2 2 0 0 0 4 1q0 4-3 3-3 0 0 1l2 1-2 1-2 1h1c1-1 5 2 4 3h-1v1l-1 4-2 5v4q3 4 0 7-5 1-2 4v1l-1 1-1 1-1 1h-2q1 3 5 4l3 1q2 3 4-3 0-3 2-2v2l-1 2v1q-2 1 1 1l1-2 1-1h4q8-3 8 1l2 1 2 1 1-1q0-3-2-1l-2-1q1-5-7-2-9 2-8-4l-2-1v-4l1-4a13 13 0 0 0-2-11v-1l1-1v-2h1l1-1v-2l1-2v-2q0-3-1-1h-1l-1-9q0-9 1-7l1-3-1-4zm16 8-2 2-2 1 1 1 2-1 2-1h3q4 0 4 2l2 1 1-2 1-1 1 1 2 1 1-2c-1-2-1-2-9-1q-6 1-6-2-1-2-1 1m10 40 1 5h4l4 1h3v-10l-6-1h-6zm-4 9 5 4 1-1q-4-2 3-2l3-1c-1-2-1-2-8-2l-7-1zm-29 9 1 6q2 2-2 2h-4l1 1h2l1 2v1l1 1-1 1q-3-1-1 3 1 3-2 2a2 2 0 1 0-1 4l2 1h1l1 1-3 1-4-1v2q0 3 2 3c4 1 8 15 5 15l-1-2v-1h-1l1-2h1-1l-1 3-2 1-1 1h2a2 2 0 0 1 2 3l-1 1h-4l-1 5-1 4v4q-3 6 2 6l2 1 1 4q1 4-2 3-4-1-1 3l1 9-1-4q0-6-1-1l-2 4-1-1q0-1 0 0v2l1 6 1 6-1 1-1 2q0 2 2 2v2l-1 3h1a2 2 0 1 1 2 2l-1 1 1 6-1-2v-1l-1 3q0 5-6 0h-2l-3-1-3-1h-2l-1-1-2-1-1-2q-4-5-5-1 0 2 2 2 4 0-2 3l-4 1v-1l-1 1h-1l-1 1h-3q0 2 0 0h-2l-5-1q-6 0-5 2l1 1h4q2-2 1 4l-1 1h-10q-13-1-8 3h2a4 4 0 0 0 6 0h5v1l-3 2q-3 0-3 2h-8l-2 1v1l-1-1q-1-2-1 1-2 2 7 2h11l3 1h-1v1q1 2-4 2l-4 1q0 2 5 2l5 1-1 2 1 2q4 5 1 4h-5l-2-1-1-1-4-1q-3 0 0 1l2 1v2l2 1 1 1 1 3 1 3h-1l-1 4-1-4 1-1-1-1-2-1-1-2v2l-1 1h-2v-1l-1-3v-1l2-1-1-1h-2l-3-1q-2-2 1 3 1 4-1 5l-1-2v-2l-1-2q0-3-1-1l-1-1v-2l-1-3v-1l1-2h5l3-1 3-1-5-1q-5 0-5-2l-3-1-3-1-1-1-1-1-1-3h-1l-1 2q-2 0 1 2l1 2h1v2l1 1q2 0 2 2v7l-1 3q-2 0-2 2-4-1-2 2l2 1q2-2 2 1l-1 2-1-1v-1l-1 4 1 4 2 1h4l5 1 2 1-3 1q-3 0-5 6v4-4l-1-4-1 5q0 7 3 6h4v-4l1-2h1l-1-2-1-2 1-1v2l2-1v2q-5 10 6 9 9 0 8-2l1-1v2l-4 2q-5 0-2 6v3a5 5 0 0 0 0 7l-1 5q0 6 2 5h5l7 1 9 1 15 1-4-1-4-1a17 17 0 0 1 13 1l1 1v-4l1-2-1-2h1q2 0 2 3 0 4 8 4l5 1h20q11 0 10-2h1q0 3 6 3 2 1 2-5v-4l1 3v5h1l1-4v-2l2 3q3 2 2-1l1-1a6 6 0 0 1 0 8q0 2 3-1c2-2 3-27 2-27l-1-1v-3l2-4 1 15v18h3a7 7 0 0 0 10-3c-2 2 3 5 7 5q4 0 1-1-2 1-2-6l1-6h5q7 1 5 2l-1 1 1 4 1 3 2 1h3q3 0 1 1-3 1 1 1t5-3c0-3 4-4 4-1a1 1 0 1 0 2-1h1l1 1h2l1 1 3-1h4v2l1 1v-1l1-1h3l1 1 1-1 1-1 3 1q10 2 1 2l-9 1 9 1h11l-8 1-8 1 3 1 5 1h5l4 1 3 1q3 0 1 1l-2 1h2l3-1h3l11 1 9 1-1-11-1-8q0 3 4 3l3-1v-1l2-2 1-2a17 17 0 0 0 1-13c1 0 4 11 4 21l1 1 3 1h1l-2-2q-5-3 1-15v-4a1 1 0 1 1 2-1l1-26c0-36-1-41-3-40h-2a2 2 0 0 0-3-2h-2l-1 1v1q-2 0-2 2v2l-1-2v-2h1l-1-1h-2l-1-2 1-1 2-1a2 2 0 0 0-5-2l-2 1-3 1q-3 0-1 1v1a15 15 0 0 0-10 6h-2l-1 1-1 1v1a4 4 0 0 1-4 5l2 1 2 2q1 5 4 8l2 2h-5q-9 0-13-4-1-2-1 2 1 14-10 12-7 0-6-2v-2l-1 1q-1 3-4 2-1-2-1 1 1 5 7 6l4 1 2 2 1 1c-2 1 4 2 6 1l-1 1v2q2 0 2 2c0 3-1 3-24 2-30-2-59-3-60-1v-2q0-7-4-5l1 1v2l-1 2-2 1-1-4q-5-2-7 1h-13v-4l1-3h3c4 0-4-3-12-4l-15-2q-8-2-7 1h-1v-6l1 1v1l15-3 2-2 1 2q2 2-1 2l-3 1 3 1 3-1 1-2 2 1h3q3-1 2-3h-3v-2l1-2q1-4 7 2l8 5q6 2 4 5-3 1 2 4l2 1 1-1 1-3q0-4 2-3h3v-5l-2-3q-1-6-1 1l-1 3-1-3-1-2h-1l2-1v-1l-18-2q-10-1-6-2l1-2 1-2a1 1 0 1 0-1-2l-1 2-2 3-1 2q1 2-3-1v-1l1-1q-3-4 0-3v-1q-3-2 2-2l5-1q3-2-1-3-3 0-3-4c-1-6-1-26 1-26l1 4 1 4 1-3 1-4 1-2q0-2 1 1l1 4-1-4q0-11 5 4l1 4-1-4 1-3v-1q-2-2 9-2l4-1-3-1h-3l-1-1-1 1-3 1-6-1h-5l-6-1-7-1h10l6-1q-2-3 3-7l3-2 2-1h1q0-2 3-2h-14q-5 0-5-2h-3l-3 1-3 1q-4 5-3-9 0-12-1-4-1 7-1-4l1-10h2v1l1-1 5-1c4 0 5 0 5 12v9-12l1-13-1-2q-5-2-5 1l-1 1-5 1h-5l1-1h1l1-1v-6a2 2 0 0 0-2-3q0-2 2-2l2-1 1-1c1 1 10-1 9-2l-3-1q-3 0-1 1v1l-3-2 1-5q0-6 5-7l-2-1c-5-2-3-12 2-11q3 0 1-3v-1q1-3 1 8l1 10 1-12v-10h2l1 1h3l-1 1 1 1 2-1v-3l-3-1-9 3h-1v1l-2 1q-5-1-4-3v-2l-1 2-1 2v2l1-1 1-1v3l-1 5-1 2v-3l-1-3-1 9-1 11v-21a1 1 0 0 0 1-2l-1-3v-1l-1-1 1-1 1-1-1-1-3-2-2-2zm8 22v9q0 6 1 2l1-1 1 1 1-4 1-5-1-1-2-4-1-2zM4 299q-1 9-2 7t-1 1l1 1q3-1 3 1l-1 1q-1-2-1 1 1 5 3 3l-1-1q-2-1 1-3l2-4v-5l1-4v-1H7l-1-1-1-1zm22 2v8l2-2 2-2-1 4-2 3q-2-1-2 6v3l4-2 8-3q-3-2 0-5v-4a2 2 0 0 1-1-4l-1-1a3 3 0 1 0-5-2l-1 2-1-2-1-2zm317 1 1 3 2 4-1-1h-1c0-2-5-1-6 1l-3 1q-4-1-3 4l1 4 1 1h2l1-1q-2-2 4-2t5-3q0-4 2-3h2l1-1h5l3 2v-2q-2-1 1-1h5l3-1 2-1q3 0 1-1l-4 1q-7 1-3-2t-15-1a4 4 0 0 1-5-2zM59 322q-1 10 2 6h2v1c2 0 1-6-1-7l-1-1v-3c0-5-2-1-2 4m297-4q-2 0-2 8l1 5v-6l1-5h5q11-1 3-2l-6-1zm-325 1-13 7q-1 3 3 4l7 1 7 1v-13zm7 14 2 3v1-1h-2q-2 0-2 2h2l2 1h-1l-1 1h-2l-2-1-1 1-2 1 2 1q2 0 2 2v3h1l2-1v1l1 1 2-1v-3q0-2 2 3 1 2-2 2-6 0-3 2l1 2 1 1 2 1-2 1-2-1v-2l-1-1-4 3-5 3v1l-1 2-1 1h1q3-3 2 0l2 1q4-1 3-4l-1-3 1-1v1h1l2 1h4l3 1h1l1 1q-1 2-3 0-4-3-4 2a1 1 0 1 1-2 0q0-3-1-1c-2 1-2 6 1 6l3-1a1 1 0 1 1 1 1l3 1 5 3 3-1h2v2l2 1q4 0 3-4l-1-4h-5l-3 1v-5q-4 0-2-3l1-1 1-1-1-1-2-1-3-1-1-1q1-3 4-1l2 1 1 1 2 2 1 1 2-1-2-2q-3-2 2-2h3q0-3 3 1v1h-1l3 9v3c-2 0 2 7 5 8s5 5 3 4l-2-1-1-1-2-1-1-1h-1q-1-3-4 0h2q1 4-2 3l-3-1-1 1h-1q-5-3-2-4v-1q-4 0-3 3v1l-2-1-1-1-1-1-2-1-3-1-2 1q1 2-3 1v-4h-2l-2-1h-6 1l1-1-1-1h-2c-2-2-8-3-7-1h2l2 1v1l-3 2v2q0 3-7 3-8 0-7 2-2 5 7 5l5 1 1 2v4q3 1-6 1-10 0-9 2c-1 4-2 75 0 74h4q4 0 4-3c0-4 19-25 20-22q3 1 2-2l2-3 1-1 1-3 2-4 1 1 1-1q3-2-1 7v1h2l-1 1-1 2v1l-1 2h2q-1 2-3 1l-1-4-1-2-1 2v3l-1 2h-2l-1 1 1 1q2-3 5-1l-2 16 1 1 1 1h-1l-1 1 4 1 4-1h1q0 2 5 2t2-1-3-3l1-5q0-7 3-5h1l2-1q3-1 3 7l1 6 1 2h2l-1 3-1 3h3l4 1 1-1-2-1v-1l2-1 2-3v-5q2-5 0-5l-1-2q0-3-1-1t-1-1l-1-3-1-5h2l2 1 1-1 1-1 1 3 1 4q3 0 2-4-2-5 3-5 4 2 3 6h1l1 1v2l1 1v-2l1-1 1-1 1-2q1-2 1 1v7a2 2 0 1 0 4 1h1q1 4 2-8c0-4 5-7 5-3l-2 1v3l1 6q0 5 4 1a2 2 0 1 1 3 3l-4-1q-4 0-4-3l-1-3-1 3q0 4-3 4-4-1-3 3v3q-4 2 4 2l4 1 1 1 1-1h1q3 2 6-3l3-4 2-1h-2q-2 0-2-2c0-2 5-2 6 0h-4 6q-1-1 8-3 3 0 3-3l1-2 1 1v4l-2 1-4 1q-3 0-4 3l4-1 2-1 4-1 5-1 3 1q0 9 2 9c1-2 0-13-1-12h-1l1-2q2 0 2-8v-6l-1 5-1 6-1-2q1-2-3-2t-1-1q2-2-1-2l-5 1v1l1 2-6-2-11-3h-7c-3 1-15-1-14-2v-3q-2-3 1-4c2-2 7-3 6-1h2l2-2 1-1 1-1 2-2 1-2v-1l-2-1-1-1v-2q-3-4 5-3h6q4-5 7 7 2 4 5 3v-1l-1-1v-1c-2 1-4-3-3-4l3 1q3 1 5-2 0-3 2-1 0 2 0 0l1-1 2-1h2q-1-4-4-3l2-1 3-2v-2l1-2 1-1-1-1-1-1v-12l-2-1v-1l1-2h-1l-2 1q-3 0 0-3l2-3h-4l-2 1-1 1q-3-1 0-3 1-2-2-3v1l1 1h-1l-1 2 1 1-2 1-1-6q0-5-2-5h-1l-3-3-2-2-2-1h-2q-5-3-5-1l2 1q3 1 1 5v2l1 1v1l-1 1 1 1 1 1h-1l-1 2-1 2-1 2-2 1-5 1q0-3 4-3 4 1 1-3-2-3-2-1h-1l2-3q4-5 1-2l-2-1q-1-3-3 0h1l1 1-1 1-1 1-1 1-1 1-2 2q-4 1 0 3t1 3l-1-1-2-2-2-1v-4l-1-3q-2-3 1-1l3-1 2-1q4 1 3-4v-3l-1-1-2-1q0-2-3-1h-3l-2-1 1-1 1-1-1-1-1-2q-1-3-4 2v2l1-1 1-1c1 1 1 6-1 6h-1l4 1q3 0 1 1v2h2l1 2h-3l-1 1-2 1-1 2-1-2h1l2-1q2-4-4-5l-2 1h-1q-2-3-5 0a5 5 0 0 1-6-5l2 2 2 1h1q0-3 1-1l2 1h5l2-1 1-2-1-1q-2 0-2-2l-1-2h-1l1-2 1-1 1-1h2v-1l-3-1-3 1-1 1v6l1 1 3 1-1 2h-2l-1-1-2-1v-2l-2 1-1 1v-2l1-2 1-1h1l-2-2-2-1 1-1h1v-1l-2-1q0-2-1 1v3l1 2v1h-3v-2h-3q-3 0 1-4v-2l-1 1h-3l-1-1-4-1-5 1-2 1-1-1h-1v2h-2a3 3 0 0 1 1-6l-1-2 1-2-2 2-3 2 1 2h-1l-1-2-1-1-1-1q1-3-2-4zm-20 4v5l4 1 4 1v-4q0-4 3-3l-3-2c-7-2-7-2-8 2m10 9-3 1q-4-2-4 1-2 5 2 3l3-1-1-1q-3-3 1-2 4 3 4 6h-2v1q4 3 4-5 0-1 0 0-1 2-4-1l1-3 1-1zm253 1-1 1h-2c-1-1-7-1-8 1h-2l-2 1a7 7 0 0 0 8 0h7q5 0 5-2h-3zM77 375l-1 2h-1q2 1-2 1a2 2 0 1 0 1 2l5-1q1-1 2 6l-1 4q2 1 3-2v-1c1 1 5-3 4-4l-2-4q-1-2-3 1-3 1-2-4l-1-2q-2 0-2 2m264 2v4l-2 1-1 2 1 2c3 0 1 12-2 13q-7 3 1 2h5v-13l-1-14q-1-1-1 3m-191 1 4 3 4 2-6-1-6-2q0 2 3 3l1 1q-2 2 4 2l5 1h2l2 1h3l2 1 2 1 1-3-2-2-1-1h-2l-1-1-1 1-1 1h-2l-1-1h2l1-1-2-1q-3 0-1-1h-1l-2-1h-2l-2-1h-1q1-3-2-1m355 4-3 1q-6 0-1 5 5 4 6 2l1-1 2 1 1 1 1-3-1-5-1-1v1q0 4-4 3-3-3 0-3l1-2zm-433 7v1l1 1q-1 2-4 1l-1-1v3l1 2h2a1 1 0 1 0 0-1l-1-1 1-2q4-1 5 2l1 2v-1l1-1v-1q-1-2 3 1v2q3 3 2 0a1 1 0 1 1 2 0l1 1 1-1h1v-1l-4-2h-2l-2-2-3-1h-1l-1 2-1-2q-1-3-2-1m112 4c-1 1 3 6 6 6l4 1h1l-1-3q-3-2-1-2h2l-1-1h-1l-3-1q-3 0-1 2l1 2zm187 4 4 2q3 0 3 2 0 3-2 2h-1l-2 2-2 1h2l2-1q2-3 4 1l2 1v-3l1-1-1-3q0-2-3-2a7 7 0 0 1-7-3zm-166 2q-1 4 1 4 3-3 1 2l1 5 1-1c2 1 2 7 1 8l-1-1v-3h-1l-3-3-2-3-1-2v-1l-1 1-1 2-1-2-1-1q-3 0-1 2 3 3 0 3l-2-1-1-1-1 3-1 2-1-1v-1h-2q0-1 0 0l1 1q2 3-1 4-4 1-1 5l1 1 1 2v4l1 3v2q0 2 2 2 4 0 1 2h-3a1 1 0 1 0-1 1v3l1 1 1-1 3-1q2 0 2 2l1-1 1-3-1 3v4q0 2-3 2l-4-1q0-3-4-4l-4-4q0-3-3 0-2 1-2-2v-5l-2 1-1 2a1 1 0 1 0-2 0l1 2h1l-1 2-1 1-1 1h2v1l1 2 1 4v3h22l1 1 1 5v2l-1 5v2q-2-2-2 1-3 2 6 2 8 0 7-2 2-7-1-6h-2l-1-2q-3-2-1-2l2-1q1-2 1 1l1 2 1-2v-6l1 2q2 2 2-1t-3-3a3 3 0 0 0-4 2l-1-3q-1-3 6-7l7-4v-1l2-1h3q3-2 3 2l1 1 2-2q1-2 1 1c0 2 7 2 8 0v-1l-1-1h2l2-1v-3l-2-3c-1-1-1-9 1-10v-2l-1-1-1-3q-3-2-1-2v-1l-1-1-1-1h-1l-1-1 1 2q3 3-2 1l-1-2-1-1-1 5-1 4v1l1 2 3 4-1 1v1l-1 2a1 1 0 0 0 2 0l1-1 2-1h2l-1 1q-2 0-2 2l-1 1-1 1-1 1-1-2-2-3c1-2 0-6-1-4l-3-1q-2-1 1-1 5-1 0-4-4-3-3 1v2l-1 2v1l-1-1v-6l7-2h-2l1-3v-1h-1v-1l-1 3q0 2-3-1-7-6-7-4v1q-1 0 0 0l1 1 1 2h2v1h-7v-2l-1-3-2-1-1-2-1-1v-1zm181 9c-2 1-1 14 1 14l1 1h-3q-4-2 2 4c2 2 3 3 11 3h10v-1q-3-3-1-3l1 1 2 1v-4q2-4-2-2l-2 1 2-1q3-1 0 2-4 3-7 1l-2-1h-2l-1-1h-2l1-1 1-1-3-3h-1q1 2-2 2-4 0-4-6 0-5 4-5 4-2 1-2zm-87 16q2 5 5 3h2v-3q0-4-3-3-2 0-2 2v2zm-27-1 1 2 1 1 1 3 1 1 1 3 1-2 1-4a2 2 0 1 1-2-2h1l-2-1-2-1q-4-3-2 0m146-1v1l1 1-2 1h-2q-2 0 1 1v2c-1 1 13 5 15 4l2-2 1-2q2-3-2-2c-3 1-14 0-12-1q2-3-1-4zm49 3 1 2q3 1 2 4l-1 1 3-2q3-5 4 2l1 6q2 3 2-1 1-7 2 5l1 8h-8l-10-2c-10 0 25 9 39 10l9 1v-3c0-3-1-3-13-5l-12-2-3-22q1-2-4-2l-3 1-3 1q-2 1-7-4zM44 436l-1 3c-2 2-1 9 1 10l2-1v-2l1-2v-5l1-3zm28 14v4l-1 3q-2 2 1 2l1-1 1-1 1 1q0 3 2 1 3-4 5 0 0 2 2-2 4-7 1-6l-2 1v2q-1 3-7 0h-2v1q-3-2 0-4v-2q-1-1-2 1m94 1q0 8-2 8-1-2-1 1l1 4 1 1 1 1q2 3 3-4 0-7-2-3l-1 5-1-2v-1l1-2 1-3 1-2h-2l1-1v-4zm260-1-1 1h-2l11-1 1 1 6 1h7l-6-1-6-1 4-1h-5zm-284 10v5h5q9 1 8-1-1-4 1-2h1l-5-4q-7-3-5 0l-1 1-1-2q-1-4-3 3m321-3c-1 1-1 25 1 26h1c1-1 0-8-1-9v-3q0-3 0 0 1 1 1-7-1-10-2-7m-355 2v5l-3 1 4 1c9 1 27 1 27-1v-3l-1-1-1 2-1 2h-1l-2 1h-3l2-1 1-1q-3 0-3-2v-2l-2 2-4 2-2-1q1-3-7-4zm208 2v4c4 2 9-2 5-4q-2-3-5 0m166 4 1 8q1 4 3-2 2-10-3-12-3-1-1 6m-15-2 1 14v3l1 3 1-3q0-4 2-3h2l-2-1q-3 0-4-7zm38 22q2 4-3 3-4 0-4 2 0 3 2 2l3 1-1 1c-3-3-4 6-1 12l-1 1q-3 1 1 1 4 2 1 2l-3 1q-4 1 5 1 8-1 7-4v-3l-1-1 1-1c1 0 1-15-1-17zm0 39v1l-4-1-6 1-4 1 1 1h3v1q-1 2 4-1l1-1 1 2 1-1h2q3 4-1 3l-4 1h-2l-1 1-2 1-2 1h-1l-1-2h-1q-3 0-1 2 1 4-3 1l-1-2-1-1-2-1-2-1 1 2 2 2a4 4 0 0 1-6 0q-1 0 0 0l1 2-1 1-3-1-2-1-1-1v2l-1 1h-4l-1-1-1-1q-2 3 3 3v1l-3 1h-4q-4 3-3 1l-1-1h-2v-2h-1l-1 2v1l-1-2-5-1q-6 0-4-1l-1-1h-5l1 2h2l1 1h-2q-5-1-5 3l-1 2-2-1h-10q-2 0 1-1h3l2-1 2-1 3-1 1-1h1a4 4 0 0 0-5-2c1 1-3 4-4 4l-1-2-2-1q-2 0-2 2l-1 2h-2v1q3 2-2 5-3 0-1-1l-1-2h-1v2l-2-1-1-1-1 1h-1l-1-2 1-2 1 1 1 1 1-2-4-1q-4 0-1-2l-2 3 2 3 2 3-4-1-6-2h-2q-1-1 0 0l-1 3-2-3-1 1h-1l-3 1h1v1h-2l-3-1h-1q1-3 5-3a2 2 0 1 0-1-2h-6v3l-1-1-4-1-4-1q-2 2 1 3 8 0 9 2l-2 1-1 1h-2l-1 2h-1a3 3 0 0 1-2-4l-1 1-3 1-1 1v-1h-3v-3q2-3 3-1h1q0-2-3-2c-1 0-3 6-2 7v3l-6 1 2-1h-7l-3-1q-3-3-1-3l-1-2-1 1-2 1-1 1h2l-3 1q0-3-3 0l-2 1h-2q-3-2 1-2h2l-2-1-3-1v1l-1 1q-2-2-2 1t-2 3l-3 2a7 7 0 0 1-8-1l1-2h1l1-1q2-5-1-3l-2 1-1 2-1 1-2 1-3-1q-5-4-5 0l1 3h2v1h-5v-1q3-4-6-5l-5 1-1 2-1-1h-4l-1 1h-7l2 2v2l-1-1-3-1-4-2c-2-2-6 1-4 3q1 5-1 6v-2q1-7-4-5h-2q0-2 3-2h3v-1l-4-1-7 1-9 1-4 2q-1 2-4 1l1-1v-1l-2 1h-2l-2 1h-3q-4 0 0 5l1 2-2-1-2-3v-2l-2-1q-5 2-5 6l-1 1-2-1 1-1 1-1q1-4-5-3-6 2-4 3l1-1-1 2-3 2h-1v-1l-1 2h-1l-1-2 1-1h2l2-1-3-1-2 1h-2q-6-1-5 3v2h-2l-1 1 1 1-10 9v-3l3-2 1-1v-2l1 1q3 2 3-3l-1-2h-2q0-1 0 0l-2 1-1-2c0-2-5-1-6 2l-1 1-2 1h-2l1-1-3-1h-2c1-2-5-1-6 1q-2 3 2 2v-1l-1-1q4 0 5 2h-1l-1 1 2 2v1l-2-1h-6v-3l-1 1-1 1-1-1v-1l-1 1 1 3v1l-3-1-3 1 1 1 1 2 1 1q-3 2-3 0 0-3-2-3l-3-1h-3l-2-4-2 6h-1l-1-2q0-4-5 0-4 3-3-1l-1-1q-3 0 0 2v2h1v2q0 4 4-2 0-3 2-2l-1 3-1 3-2 1q-6 1-4-2v-2l-2 1q-4 2-3-1v-2h-1l-1 2-1-2q1-2-2-2t-1 2l1 4h-1l-2-2-1-1-1-1-1 1v2l1 1 1 1-1 1h-1c-1-1-4 4-3 6l-1 1-2-2-1-1h-1l1-1 2-1h2l1-2q0-3-1-1l-3 1-1 1-2-1q-4-4-1-5h-1l-3 1 1 1q2 5 0 5l-1-2q-1-4-4-4-1 2 1 3l2 1h-4v-2l-1-1-1 1c1 1-3 3-4 2v2q1 3-2 0v-2h-1l-3 1-3-1-2-1-1 1h-1v2q3 3 2 0t3 2v1l-1 1 1 1 1 2-1 1-2 1-1-1v-1h2l-1-1-1-2-2-2-2-2h-2l-1-1a1 1 0 1 0-2 0l1 4 2-1q1 1-4 5l-3-1-1-1h-3q-3 1-1 4t-1 3l-1 1-1 1-2-2 2-1q2 0 2-3 0-2-2-2t-2-2a1 1 0 1 0-2-1v1l1 2q3 3 1 3l-2-2q-2-3-2 1 1 3-2 0h-2l-3-1q-3 0-1 1c1 1 0 5-1 4l-1-1-1-1h-4q-3-2 0 2v2l-2-2-1-1-1 1-1-1-3-1h-1l-4 1-5-1h-2l-3-1h-2l-1-1-1 2h1l1 1 1 1q4-2 5 1t4 2h2l3 1 2 1 1 1 1-2 1-1q2 1-1 4l-1 3v5l1-1h1v-5l1 1h1l-1 4v9l-1-1v-1l-2 1q0 2 0 0t-2-2l-2-1 4-1h3l-1-1h-1c0-2-5-2-6 1l-1 2-1-2-1-1-1 2h-2l-2 1q-2 0-2-2l1-1h1l3-1 2-1 1-4q2-1-1-1-2 0-3 3l-2 2v-1l-1-2-2 1H7q-3 0-3 2v-1l-1-5-1-1-1 2 1 3v3l-1 6q0 7 1 4l2-1v2l1 1 1 1H5c-4-3-4-1-4 30v31l101-1h101l1-2q3-4-1-3h-1a2 2 0 0 1 4 0l2 1 3 1h1v2q-2 1 1 1l1-1h1q3-1 3-3h2q3 0 2-3l-1 1a2 2 0 0 1-4 1l1-1 1-1h1v-2h3v1h4l1-1v-2q3 0 1-2l-1-3q1-3 4-1h3q3 0 2 2l-2 3-2 4q0 3 2 2l2-1-1-1-1-1 1-1h1l1-1 1-4v-2l2 1v-2q-2-5 1-5l1 1h1v-4q-2-2 1-2h3l1-2 3-1 3-1h2l1-1h1l1-1 2-1h1q0-2 6-2l5 1 2 1h1l1 1v2h1v-1l2 1 2 1h3l2 2 5 2 6 2 2 2 3 1 1 1q-1 0 0 0h3l1-3q0-3-1-1c-2 1-9-1-9-2h4l1 1a1 1 0 0 0 2 0l-1-1-1-1-2-1-3-1h-6c-2 1-6-1-4-3l-1-3q-1-2-1 1l-1 3-1-1-1-1c-6 0-12-6-9-8h-5v-4l1-9q1-8 6-3 4 2 3 3l-2 3q-2 2 2 3 3 1 2-2-2-2 1-2l1 1v2c1 1 7-2 8-3l2-1 4-2 4-1h1l2-1h2l2-1 5-2 6-1 4-1h3v-1l2-1h3v-1l-2-2 4-3q2-3 2-1l-1 2v2l3 2v-1q-1-1 2-1 4 0 2-1v-4 1q0 2 2 2l1-2q0-5 3-3 2 1 6-2h2l3 1 2-1 1-1h2l-1-2-1-2v-1l-1 1-3 1-2 1h-1l-2 1-2 1-1-1q0-2 3-2l3-1 2-1h2q3-3 3 1 0 2 2 2l4-2q3-4 5-1h-2q-4 0-1 4v-1l1-1h3v-2q0-3 2-1v-4l1 1 1 1 2-1 1 1v2h-1l-1 1a2 2 0 0 0 4-1l2-1 2 1q-2 1 2 1l3 1 1 1 1-2-3-1-2-1q1-2-2-2-7-2 1-2h4l2-1 1-1h6l1-1c-1-2 11-1 13 1q2 2 6-1l4-1 1-1 4-1q10-1 8-3l-3-1h-2l-1-1h-2l-2-3 7-1 45-10 16-5 5-2 3 1 4 1 3 1v-21l1-21-4-1q-3 0-4 2m-35 16-7 2-6 1-6 1-10 2-58 8-7-1-2 1h1l1 1-2 1-3-1h-1l-1 1h-3l-3 1-9 2-13 1h-4q-5 3-5 1h-2c-2 2-24 6-32 6l-6 1-6 1-6 2q-5 1-4-4l-1 1q-3 3-5 1v2q0 3 1 1l2-1v1q-2 1 1 1l1-2h1l3 2v4l-1 3q-3 0-1 5c1 1 10 3 9 1-1-1 6-2 8-1l1-1h3l9-1 3-1 3-1 3-1 5-1h6l11-3 22-4 3-1h1l11-2 8-2 9-1 1-1 4-1h4l2-1h3l2-1 2 1h1l4-2 10-2 5-1c1-1 12-3 14-2h1q0-2 5-2l11-2 22-5-3-2-4-3-1-1-2-1zm-242 4v1l1 1 1-1h2l-2 1-3 2h-1v-2h-3l-1 1v2l2 1h3q3 0 2-2v-1l7 1 7 1q0-2 3-2l6-2h-1a2 2 0 0 1-4 0l-1-2-2 1 1 1 1 1h-5a1 1 0 0 0-2 1l-3 1-3-1v-3q2-1-2-2zm-12 2q0 3-2 2-1-1 0 0l2 1-1 1h-3q1 3-2 1h-2q-1 2-4 1-3-2-6 1h-2q-2-4 1-3v-1q-4-3-3 2h-2a1 1 0 1 1-2 2l-2-1-2 1 1 3h2l3-1 3-1 2 1 3-1 1-1h1l1 1 6-1h2q6-1 8-4l-1-1h-2l1-2 1-2zm-49 7v3l-2 1q-2-2-3 1a2 2 0 0 1-4 0h-1q0 3 11 0h6l3-1a3 3 0 0 0-5-1h-1v-1l-1 1-1 1v-1a1 1 0 0 0-2-3m100 4v4q2 0 2-3h1l3 1h3l-3 1c-3 2-4 7 0 6l5-1 1-1-1-1v-1l-1-1 1-1 1 1 2 1-1-3h1a2 2 0 0 0 4-1v-1h-4l-3 1h-1l-3-1-5-1q-2-2-2 1m240 13-8 3-11 3-6 2 1 1-4 1-7 1-6 2-2 1-5 1-10 3 3 1q2 3 6-1l1-2v2l3 1 10-2h11l12-1q1 2-1 3l-1 1q1 3-1 3l-3 2q4-1 5-4l2-3 1-2q-1-3 3 1 3 3 1 4l-3 1-1 1q2 2 7-1l3-2q5-1 5-6v-3h-18l-6-1v-2q-2-2 4-2h8q-2 1 1 1l4 1c2 2 8 2 7 0v-6q1-5-5-2m-90 14-10 5h2l8-3 3-1 3-1h2l2-1h1c-3-1-4-1-11 1m-374 6q0 4-3 4-2-2-4 2l-2 8h1l1-2v-4h-1l4-1h1l2-3h3l1-1v-1h-2v-1zm463 9c-7 5-7 5-1 10q9 10 7-2v-9q2-5-6 1m-30 0-3 2c1 2 11 2 13 0q2-1-1-1-4 0-2-2 0-2-7 1m-92 7-7 3c-7 2-12 5-6 4l6-2 1 1 1-1h1l4-1 1-2h6v-1l-1-1zm-27 9-13 4q-4 0-2 2v1q-1 0 0 0l5 1-1-1a1 1 0 1 1-1-2l3-1h1l1 1h2q0 1 0 0-2-4 6-3l4-1 1-1h2l1-1h1q0-2-10 1m-23 6-32 11c-7 1-15 5-15 6l1 1q-4-2 6-4l11-3 5-1 1-1h2l2-1h2l2-1 2-1 5-1q4-3 6 0h1v-1h-1l2-1 5-3zm47 5c-2 1-19 5-26 5l-3 1h-2l-2 1h-3q-3 0-1 1l-1 3h-1l-1-1-1-1h1c-1-3-7-3-6 0v1h-5l-1 2v2l-3-2-3-1v2q0 2 0 0 2-3 3 0l-3 3q-5 2-5 5l2-1 4-1q3 0 3-2h1l5-1 1 1 1-2q2-5 3-2t6-1h2v1h-1l3-1 2-2 3-1 2-1 2-1h5l1 1-1 1-2 1h-1l-1-1v2l-1 1-1-2h-2q-3 1-1 1l3 2h3l3-1q3 1 2-2l1-2 4-1 3-1 2-1 1-2 9-4v-1zm16 18-19 6q-4 0-4 4l1 4v1q-3 3 0 2h2v1l-3 1h-1v-2l-1 1-1 1q-4 1-2 4l1-1q-1 0 0 0l2 1h2l5 1 3 2 2 1h2l1-1 3 1h2l-2 1q-2 0-2 2l2 1h2a1 1 0 0 1 0-2l3-1 4 2 1-1 1 1 2 1h4q3 0 1 1h-3q-5-2-2 1l-1 2q-3 1 1 1l4-1 1-2-1 3-1 3 3-3q3-3 5-1l3 1h3c1 1 6 2 48 2l45 1-1-9v-9h-3l-22-3c-16-2-17-3-17-1l-1 1-1-1-3-1-5-1-13-1-16-1-3-2q-1-3-3-1h-1l1-2c1-1-5-13-7-13l-1 1-1 2-1-1c1-3 2-3-18 3m-89 5q2 3 0 0l-2-1c-2 1 2 5 4 5l1 1h-3l1 1 2 2q2 3 3 1l1-1h1v-1l-1-2q-5-2-3-4 1-2-2-2h-1 3l2-1-4-1q-4 0-2 3m52 7v3l-1 1 4 1c2 4 7 4 7 1l-1-1-2-1h-3q-2 1-3-1l1-1h1q-1 0 0 0h4q3-1 2 2a1 1 0 0 0 2 1l1-3v-2q-3-3-4-1h-5q-2-2-3 1m-112 4-1 2v-1l-1 1-2 1-2 1h2l1 1-1 1 2-1h1l2-1 3 1 1-1 1-1q-2-1 1-1l1 3a5 5 0 0 0-3-6l-2 2h-2l1-2v-1zm46 3-5 2-2 1-1 2c0-1-5 0-6 2l-1 1q-2 0-2 2l-1 2h-1l-6 4 4-4v-2l-3 3-3 3-4 2-1 3 4-1q5 0 5-2l2-1h1l3-4 4-5 1-1 2-1h3l1-1 3-1 4-2c2 1 8-1 8-2q-1-4-9 0" mask="url(#16282281824-posters-1744929529306-horizontal-mask)" itemprop="bold" fill-opacity="0.90" fill-rule="evenodd" stroke="none" fill="url(#16282281824-posters-1744929529306-vertical-bold)"></path></pattern><rect id="16282281824-posters-1744929529306-pattern-render" fill="url(#16282281824-posters-1744929529306-pattern)" width="100%" height="100%"></rect></defs><radialGradient id="lightbar" cx="50%" cy="200%" fy="0" r="301%"><stop offset="0%" style="stop-color: rgb(255, 255, 255); stop-opacity: 0.1;"></stop><stop offset="10%" style="stop-color: rgb(0, 0, 0); stop-opacity: 0.1;"></stop><stop offset="30%" style="stop-color: rgb(0, 0, 0); stop-opacity: 0.3;"></stop><stop offset="90%" style="stop-color: rgb(0, 0, 0); stop-opacity: 0.55;"></stop><stop offset="100%" style="stop-color: rgb(0, 0, 0); stop-opacity: 0.6;"></stop></radialGradient><g class="radial"><radialGradient id="16282281824-posters-1744929529306-radial" gradientUnits="userSpaceOnUse"><stop itemprop="radial" stop-color="#808793" offset="0%"></stop><stop itemprop="radial" stop-color="#8f9cae" offset="15%"></stop><stop itemprop="radial" stop-color="#8495ae" offset="30%"></stop><stop itemprop="radial" stop-color="#6d7f97" offset="45%"></stop><stop itemprop="radial" stop-color="#5a6977" offset="60%"></stop><stop itemprop="radial" stop-color="#6c8093" offset="75%"></stop><stop itemprop="radial" stop-color="#4a5668" offset="90%"></stop></radialGradient><radialGradient id="16282281824-posters-1744929529306-radial-background" gradientUnits="userSpaceOnUse"><stop stop-color="#c8cdd5" offset="0%"></stop><stop stop-color="#c7ced6" offset="15%"></stop><stop stop-color="#c4cdd9" offset="30%"></stop><stop stop-color="#c6cdd7" offset="45%"></stop><stop stop-color="#c8cfd5" offset="60%"></stop><stop stop-color="#c7cfd6" offset="75%"></stop><stop stop-color="#c6cdd7" offset="90%"></stop></radialGradient><radialGradient id="16282281824-posters-1744929529306-radial-light" gradientUnits="userSpaceOnUse"><stop stop-color="#9197a1" offset="0%"></stop><stop stop-color="#8997a9" offset="15%"></stop><stop stop-color="#8495ae" offset="30%"></stop><stop stop-color="#8897aa" offset="45%"></stop><stop stop-color="#8b99a7" offset="60%"></stop><stop stop-color="#8a9aa8" offset="75%"></stop><stop stop-color="#8896aa" offset="90%"></stop></radialGradient><radialGradient id="16282281824-posters-1744929529306-radial-regular" gradientUnits="userSpaceOnUse"><stop stop-color="#757d8a" offset="0%"></stop><stop stop-color="#6b7d94" offset="15%"></stop><stop stop-color="#657b9a" offset="30%"></stop><stop stop-color="#6a7d95" offset="45%"></stop><stop stop-color="#6e8091" offset="60%"></stop><stop stop-color="#6c8093" offset="75%"></stop><stop stop-color="#6a7b95" offset="90%"></stop></radialGradient><radialGradient id="16282281824-posters-1744929529306-radial-medium" gradientUnits="userSpaceOnUse"><stop stop-color="#494d55" offset="0%"></stop><stop stop-color="#424d5c" offset="15%"></stop><stop stop-color="#3e4c60" offset="30%"></stop><stop stop-color="#424d5c" offset="45%"></stop><stop stop-color="#444f5a" offset="60%"></stop><stop stop-color="#434f5b" offset="75%"></stop><stop stop-color="#424c5c" offset="90%"></stop></radialGradient><radialGradient id="16282281824-posters-1744929529306-radial-bold" gradientUnits="userSpaceOnUse"><stop stop-color="#2a2d32" offset="0%"></stop><stop stop-color="#272d35" offset="15%"></stop><stop stop-color="#242c38" offset="30%"></stop><stop stop-color="#262d36" offset="45%"></stop><stop stop-color="#272e34" offset="60%"></stop><stop stop-color="#272e35" offset="75%"></stop><stop stop-color="#262c36" offset="90%"></stop></radialGradient></g><g class="vertical"><linearGradient id="16282281824-posters-1744929529306-vertical" gradientUnits="userSpaceOnUse" x1="0" x2="0" y1="0" y2="100%"><stop itemprop="vertical" stop-color="#859cc1" offset="0%"></stop><stop itemprop="vertical" stop-color="#8ea0b8" offset="15%"></stop><stop itemprop="vertical" stop-color="#8d97a0" offset="30%"></stop><stop itemprop="vertical" stop-color="#646d69" offset="45%"></stop><stop itemprop="vertical" stop-color="#645f5e" offset="60%"></stop><stop itemprop="vertical" stop-color="#384656" offset="75%"></stop><stop itemprop="vertical" stop-color="#212731" offset="90%"></stop></linearGradient><linearGradient id="16282281824-posters-1744929529306-vertical-background" gradientUnits="userSpaceOnUse" x1="0" x2="0" y1="0" y2="100%"><stop stop-color="#bfcbdf" offset="0%"></stop><stop stop-color="#c3cdda" offset="15%"></stop><stop stop-color="#cacfd3" offset="30%"></stop><stop stop-color="#cdd0cf" offset="45%"></stop><stop stop-color="#d0cecd" offset="60%"></stop><stop stop-color="#c4ced9" offset="75%"></stop><stop stop-color="#c5cdd8" offset="90%"></stop></linearGradient><linearGradient id="16282281824-posters-1744929529306-vertical-light" gradientUnits="userSpaceOnUse" x1="0" x2="0" y1="0" y2="100%"><stop stop-color="#7791bb" offset="0%"></stop><stop stop-color="#8296b0" offset="15%"></stop><stop stop-color="#849bae" offset="30%"></stop><stop stop-color="#84ae9b" offset="45%"></stop><stop stop-color="#ae8b84" offset="60%"></stop><stop stop-color="#8497ae" offset="75%"></stop><stop stop-color="#8495ae" offset="90%"></stop></linearGradient><linearGradient id="16282281824-posters-1744929529306-vertical-regular" gradientUnits="userSpaceOnUse" x1="0" x2="0" y1="0" y2="100%"><stop stop-color="#5576aa" offset="0%"></stop><stop stop-color="#627c9d" offset="15%"></stop><stop stop-color="#74818b" offset="30%"></stop><stop stop-color="#7a8580" offset="45%"></stop><stop stop-color="#837d7c" offset="60%"></stop><stop stop-color="#657d9a" offset="75%"></stop><stop stop-color="#677b98" offset="90%"></stop></linearGradient><linearGradient id="16282281824-posters-1744929529306-vertical-medium" gradientUnits="userSpaceOnUse" x1="0" x2="0" y1="0" y2="100%"><stop stop-color="#354969" offset="0%"></stop><stop stop-color="#3d4d61" offset="15%"></stop><stop stop-color="#485056" offset="30%"></stop><stop stop-color="#4c524f" offset="45%"></stop><stop stop-color="#514d4d" offset="60%"></stop><stop stop-color="#3e4d60" offset="75%"></stop><stop stop-color="#404c5e" offset="90%"></stop></linearGradient><linearGradient id="16282281824-posters-1744929529306-vertical-bold" x1="0" x2="0" y1="0" y2="100%"><stop stop-color="#1f2a3d" offset="0%"></stop><stop stop-color="#232c38" offset="15%"></stop><stop stop-color="#2a2e32" offset="30%"></stop><stop stop-color="#2c302e" offset="45%"></stop><stop stop-color="#2f2d2d" offset="60%"></stop><stop stop-color="#242d38" offset="75%"></stop><stop stop-color="#252c37" offset="90%"></stop></linearGradient></g><g class="horizontal"><linearGradient id="16282281824-posters-1744929529306-horizontal" x1="0" x2="100%" y1="0" y2="0" gradientUnits="userSpaceOnUse"><stop itemprop="horizontal" stop-color="#6c7584" offset="0%"></stop><stop itemprop="horizontal" stop-color="#708399" offset="15%"></stop><stop itemprop="horizontal" stop-color="#677e9e" offset="30%"></stop><stop itemprop="horizontal" stop-color="#5e6f87" offset="45%"></stop><stop itemprop="horizontal" stop-color="#52606f" offset="60%"></stop><stop itemprop="horizontal" stop-color="#5f7081" offset="75%"></stop><stop itemprop="horizontal" stop-color="#434c5b" offset="90%"></stop></linearGradient><linearGradient id="16282281824-posters-1744929529306-horizontal-background" gradientUnits="userSpaceOnUse" x1="0" x2="100%" y1="0" y2="0"><stop stop-color="#cacdd3" offset="0%"></stop><stop stop-color="#c6ced7" offset="15%"></stop><stop stop-color="#c4cdd9" offset="30%"></stop><stop stop-color="#c6cdd7" offset="45%"></stop><stop stop-color="#c7ced6" offset="60%"></stop><stop stop-color="#c7cfd6" offset="75%"></stop><stop stop-color="#c7cdd6" offset="90%"></stop></linearGradient><linearGradient id="16282281824-posters-1744929529306-horizontal-light" gradientUnits="userSpaceOnUse" x1="0" x2="100%" y1="0" y2="0"><stop stop-color="#8f96a3" offset="0%"></stop><stop stop-color="#8897aa" offset="15%"></stop><stop stop-color="#8396af" offset="30%"></stop><stop stop-color="#8796ab" offset="45%"></stop><stop stop-color="#8a98a8" offset="60%"></stop><stop stop-color="#8a99a8" offset="75%"></stop><stop stop-color="#8a95a8" offset="90%"></stop></linearGradient><linearGradient id="16282281824-posters-1744929529306-horizontal-regular" gradientUnits="userSpaceOnUse" x1="0" x2="100%" y1="0" y2="0"><stop stop-color="#697996" offset="0%"></stop><stop stop-color="#697d96" offset="15%"></stop><stop stop-color="#637c9c" offset="30%"></stop><stop stop-color="#697c96" offset="45%"></stop><stop stop-color="#697f96" offset="60%"></stop><stop stop-color="#698096" offset="75%"></stop><stop stop-color="#697a96" offset="90%"></stop></linearGradient><linearGradient id="16282281824-posters-1744929529306-horizontal-medium" gradientUnits="userSpaceOnUse" x1="0" x2="100%" y1="0" y2="0"><stop stop-color="#414b5d" offset="0%"></stop><stop stop-color="#414e5d" offset="15%"></stop><stop stop-color="#3e4d60" offset="30%"></stop><stop stop-color="#414d5d" offset="45%"></stop><stop stop-color="#414f5d" offset="60%"></stop><stop stop-color="#414f5d" offset="75%"></stop><stop stop-color="#414c5d" offset="90%"></stop></linearGradient><linearGradient id="16282281824-posters-1744929529306-horizontal-bold" gradientUnits="userSpaceOnUse" x1="0" x2="100%" y1="0" y2="0"><stop stop-color="#292d32" offset="0%"></stop><stop stop-color="#262d36" offset="15%"></stop><stop stop-color="#242d38" offset="30%"></stop><stop stop-color="#262d36" offset="45%"></stop><stop stop-color="#272e35" offset="60%"></stop><stop stop-color="#272e35" offset="75%"></stop><stop stop-color="#272c35" offset="90%"></stop></linearGradient></g><g class="masks"><mask id="16282281824-posters-1744929529306-pattern-mask" maskUnits="userSpaceOnUse" maskContentUnits="userSpaceOnUse"><pattern id="pattern" x="0" y="0" width=".0133" height=".0144" viewBox="0 0 23.07 40"><path d="M17.62 0l-6.07 10.5m2.74 4.76L8.22 4.75m-5.48 0h12.13M.01 0h23.07M6.07 20L0 9.5m2.74-4.75l-6.07 10.5m-5.48 0H3.33m8.2 4.75L0 .02-11.54 20m40.68 0L23.07 9.5m2.74-4.75l-6.06 10.5m-5.49 0H26.4M34.6 20L23.08.02 11.53 20m-5.46 0L0 30.51m2.74 4.75l-6.07-10.5m-5.48 0H3.33m8.2-4.75L0 40l-11.54-19.98zM17.6 40l-6.06-10.5m2.74-4.76L8.2 35.25m-5.48 0h12.13M0 40h23.07L11.54 20.01m17.6 0l-6.07 10.5m2.74 4.75l-6.06-10.5m-5.49 0H26.4M11.53 20h23.08L23.07 40" stroke-linecap="round" stroke-width="3.5" stroke="white" fill="url(#16282281824-posters-1744929529306-horizontal-background)"></path></pattern><rect width="100%" height="100%" fill="url(#pattern)"></rect></mask><mask id="16282281824-posters-1744929529306-horizontal-mask" maskUnits="userSpaceOnUse" maskContentUnits="userSpaceOnUse"><rect width="100%" height="100%" fill="url(#16282281824-posters-1744929529306-horizontal-background)"></rect></mask><mask id="16282281824-posters-1744929529306-radial-mask" maskUnits="userSpaceOnUse" maskContentUnits="userSpaceOnUse"><rect width="100%" height="100%" fill="url(#16282281824-posters-1744929529306-radial-background)"></rect></mask><mask id="16282281824-posters-1744929529306-vertical-mask" maskUnits="userSpaceOnUse" maskContentUnits="userSpaceOnUse"><rect width="100%" height="100%" fill="url(#16282281824-posters-1744929529306-vertical-background)"></rect></mask></g><use href="#16282281824-posters-1744929529306-pattern"></use><g><defs class="emboss"><defs class="static filters"><filter id="emboss"><feConvolveMatrix kernelMatrix="1.5 0 0
                            0   0 0
                            0   0 -1.5"></feConvolveMatrix></filter><filter id="emboss-opposite"><feConvolveMatrix kernelMatrix="0   0 1.5
                            0   0 0
                           -1.5 0 0"></feConvolveMatrix></filter><filter id="emboss-horizontal"><feConvolveMatrix kernelMatrix="0   0 0
                            1.5 0 -1.5
                            0   0 0"></feConvolveMatrix></filter><filter id="emboss-vertical"><feConvolveMatrix kernelMatrix="0    1.5 0
                            0    0   0
                            0   -1.5 0"></feConvolveMatrix></filter></defs><filter id="16282281824-posters-1744929529306-composite" color-interpolation-filters="sRGB" y="0" x="0" width="100%" height="100%"><feImage href="#16282281824-posters-1744929529306-emboss-render-light" result="light"></feImage><feImage href="#16282281824-posters-1744929529306-emboss-render-regular" result="regular"></feImage><feImage href="#16282281824-posters-1744929529306-emboss-render-medium" result="medium"></feImage><feImage href="#16282281824-posters-1744929529306-emboss-render-bold" result="bold"></feImage><feImage href="#16282281824-posters-1744929529306-pattern-render" result="framing"></feImage><feMerge><feMergeNode in="framing"></feMergeNode><feMergeNode in="bold"></feMergeNode><feMergeNode in="medium"></feMergeNode><feMergeNode in="regular"></feMergeNode><feMergeNode in="light"></feMergeNode></feMerge></filter><pattern id="16282281824-posters-1744929529306-pattern-emboss-light" width="512" height="683" viewBox="0 0 512 683" patternUnits="userSpaceOnUse" preserveAspectRatio="xMidYMid meet"><use href="#16282281824-posters-1744929529306-light" filter="url(#emboss)" opacity="0.45"></use></pattern><pattern id="16282281824-posters-1744929529306-pattern-emboss-regular" width="512" height="683" viewBox="0 0 512 683" patternUnits="userSpaceOnUse" preserveAspectRatio="xMidYMid meet"><use href="#16282281824-posters-1744929529306-regular" filter="url(#emboss-vertical)"></use></pattern><pattern id="16282281824-posters-1744929529306-pattern-emboss-medium" width="512" height="683" viewBox="0 0 512 683" patternUnits="userSpaceOnUse" preserveAspectRatio="xMidYMid meet"><use href="#16282281824-posters-1744929529306-medium" filter="url(#emboss-opposite)"></use></pattern><pattern id="16282281824-posters-1744929529306-pattern-emboss-bold" width="512" height="683" viewBox="0 0 512 683" patternUnits="userSpaceOnUse" preserveAspectRatio="xMidYMid meet"><use href="#16282281824-posters-1744929529306-bold" filter="url(#emboss-horizontal)"></use></pattern><rect id="16282281824-posters-1744929529306-emboss-render" fill="url(#16282281824-posters-1744929529306-pattern-emboss)" width="100%" height="100%"></rect><rect id="16282281824-posters-1744929529306-emboss-render-light" fill="url(#16282281824-posters-1744929529306-pattern-emboss-light)" width="100%" height="100%"></rect><rect id="16282281824-posters-1744929529306-emboss-render-regular" fill="url(#16282281824-posters-1744929529306-pattern-emboss-regular)" width="100%" height="100%"></rect><rect id="16282281824-posters-1744929529306-emboss-render-medium" fill="url(#16282281824-posters-1744929529306-pattern-emboss-medium)" width="100%" height="100%"></rect><rect id="16282281824-posters-1744929529306-emboss-render-bold" fill="url(#16282281824-posters-1744929529306-pattern-emboss-bold)" width="100%" height="100%"></rect><rect id="lightbar-rect" fill="url(#lightbar)" width="100%" height="100%"></rect></defs><rect filter="url(#16282281824-posters-1744929529306-composite)" width="100%" height="100%"></rect></g><rect id="lightbar-rect" fill="url(#lightbar)" width="100%" height="100%"></rect><g itemprop="animation"><!----><!----><!----><!----><animate href="#16282281824-posters-1744929529306-light" attributeName="fill-opacity" repeatCount="indefinite" dur="5s" values="0.9;0.75;1;0.21;0.9"></animate><animate href="#16282281824-posters-1744929529306-medium" attributeName="fill-opacity" repeatCount="indefinite" dur="13s" values="0.9;0.6;1;0.5;0.9;"></animate><animate href="#16282281824-posters-1744929529306-bold" attributeName="fill-opacity" repeatCount="indefinite" dur="8s" values="0.9;0.75;1;0.6;0.8;0.9;"></animate><animate href="#16282281824-posters-1744929529306-radial-background" attributeName="cx" repeatCount="indefinite" dur="34s" values="0%;33%;100%;0%;100%;0%;"></animate><animate href="#16282281824-posters-1744929529306-radial-background" attributeName="cy" repeatCount="indefinite" dur="55s" values="0%;100%;33%;100%;66%;0%"></animate><animate href="#16282281824-posters-1744929529306-vertical-light" attributeName="x1" repeatCount="indefinite" dur="55s" values="0%;33%;100%;0%;133%;0%;"></animate><animate href="#16282281824-posters-1744929529306-vertical-light" attributeName="y1" repeatCount="indefinite" dur="86s" values="0%;100%;33%;100%;66%;0%"></animate><animate href="#16282281824-posters-1744929529306-horizontal-regular" attributeName="x1" repeatCount="indefinite" dur="34s" values="0%;100%;66%;0%;33%;133%;0%"></animate><animate href="#16282281824-posters-1744929529306-horizontal-regular" attributeName="y1" repeatCount="indefinite" dur="55s" values="0%;66%;100%;33%;100%;66%;0%"></animate><animate href="#16282281824-posters-1744929529306-vertical-medium" attributeName="x1" repeatCount="indefinite" dur="34s" values="0%;100%;66%;0%;33%;133%;0%"></animate><animate href="#16282281824-posters-1744929529306-vertical-medium" attributeName="y1" repeatCount="indefinite" dur="55s" val="" bues="0%;66%;100%;33%;100%;66%;0%"></animate><animate href="#16282281824-posters-1744929529306-vertical-bold" attributeName="x1" repeatCount="indefinite" dur="34s" values="0%;100%;66%;0%;33%;133%;0%"></animate><animate href="#16282281824-posters-1744929529306-vertical-bold" attributeName="y1" repeatCount="indefinite" dur="55s" values="0%;66%;100%;33%;100%;66%;0%"></animate></g></svg>